  0
SECTION
  2
HEADER
  9
$ACADVER
  1
AC1009
  9
$INSBASE
 10
0
 20
0
 30
0
  9
$EXTMIN
 10
0
 20
0
  9
$EXTMAX
 10
6648.948311225513
 20
4701.7563057951838
  9
$LIMMIN
 10
0
 20
0
  9
$LIMMAX
 10
6648.948311225513
 20
4701.7563057951838
  9
$LTSCALE
 40
15.830829312441697
  0
ENDSEC
  0
SECTION
  2
TABLES
  0
TABLE
  2
LTYPE
 70
     9
  0
LTYPE
  2
CONTINUOUS
 70
    64
  3
Ä└É³
 72
    65
 73
     0
 40
0.0
  0
LTYPE
  2
DASHED1
 70
    64
  3
--  --  --  --  --  --  --  --  
 72
    65
 73
     2
 40
2.5
 49
1.25
 49
-1.25
  0
LTYPE
  2
DASHED2
 70
    64
  3
----    ----    ----    ----    
 72
    65
 73
     2
 40
5.0
 49
2.5
 49
-2.5
  0
LTYPE
  2
DASHED3
 70
    64
  3
------  ------  ------  ------  
 72
    65
 73
     2
 40
5.0
 49
3.75
 49
-1.25
  0
LTYPE
  2
CENTER1
 70
    64
  3
----- - ----- - ----- - ----- - 
 72
    65
 73
     4
 40
10.0
 49
6.25
 49
-1.25
 49
1.25
 49
-1.25
  0
LTYPE
  2
CENTER2
 70
    64
  3
----------  --  ----------  --  
 72
    65
 73
     4
 40
20.0
 49
12.5
 49
-2.5
 49
2.5
 49
-2.5
  0
LTYPE
  2
PHANTOM1
 70
    64
  3
--- - - --- - - --- - - --- - - 
 72
    65
 73
     6
 40
10.0
 49
3.25
 49
-1.25
 49
1.25
 49
-1.25
 49
1.25
 49
-1.25
  0
LTYPE
  2
PHANTOM2
 70
    64
  3
--------  -  -  --------  -  -  
 72
    65
 73
     6
 40
20.0
 49
10.0
 49
-2.5
 49
1.25
 49
-2.5
 49
1.25
 49
-2.5
  0
LTYPE
  2
DOT
 70
    64
  3
-   -   -   -   -   -   -   -   
 72
    65
 73
     2
 40
2.5
 49
0.625
 49
-1.875
  0
LTYPE
  2
DUMMY
 70
    64
  3
ā_ā~ü[
 72
    65
 73
     0
 40
0.0
  0
LTYPE
  2
RAND1
 70
    64
  3
āēāōā_āĆÉ³1
 72
    65
 73
     4
 40
10.0
 49
1.0
 49
-2.0
 49
3.0
 49
-4.0
  0
LTYPE
  2
RAND2
 70
    64
  3
āēāōā_āĆÉ³2
 72
    65
 73
     4
 40
14.0
 49
2.0
 49
-3.0
 49
4.0
 49
-5.0
  0
LTYPE
  2
RAND3
 70
    64
  3
āēāōā_āĆÉ³3
 72
    65
 73
     4
 40
18.0
 49
3.0
 49
-4.0
 49
5.0
 49
-6.0
  0
LTYPE
  2
RAND4
 70
    64
  3
āēāōā_āĆÉ³4
 72
    65
 73
     4
 40
22.0
 49
4.0
 49
-5.0
 49
6.0
 49
-7.0
  0
LTYPE
  2
RAND5
 70
    64
  3
āēāōā_āĆÉ³5
 72
    65
 73
     4
 40
26.0
 49
5.0
 49
-6.0
 49
7.0
 49
-8.0
  0
LTYPE
  2
LONG1
 70
    64
  3
----------  --  ----------  --  
 72
    65
 73
     4
 40
40.0
 49
32.5
 49
-2.5
 49
2.5
 49
-2.5
  0
LTYPE
  2
LONG2
 70
    64
  3
--------  -  -  --------  -  -  
 72
    65
 73
     6
 40
40.0
 49
30.0
 49
-2.5
 49
1.25
 49
-2.5
 49
1.25
 49
-2.5
  0
LTYPE
  2
LONG3
 70
    64
  3
+++++++++++++++..+++++++++++++++
 72
    65
 73
     2
 40
40.0
 49
37.5
 49
-2.5
  0
LTYPE
  2
LONG4
 70
    64
  3
+++++++++++++++..+++++++++++++++
 72
    65
 73
     2
 40
80.0
 49
75.0
 49
-5.0
  0
LTYPE
  2
LONG5
 70
    64
  3
----------  --  ----------  --  
 72
    65
 73
     4
 40
60.0
 49
37.5
 49
-7.5
 49
7.5
 49
-7.5
  0
LTYPE
  2
dashed
 70
   64
  3
-------   -------------   ------
 72
   65
 73
    2
 40
7.5
 49
6
 49
-1.5
  0
LTYPE
  2
dashed_spaced
 70
   64
  3
----        --------        ----
 72
   65
 73
    2
 40
12
 49
6
 49
-6
  0
LTYPE
  2
long_dashed_dotted
 70
   64
  3
------------- --- --------------
 72
   65
 73
    4
 40
15.25
 49
12
 49
-1.5
 49
0.25
 49
-1.5
  0
LTYPE
  2
long_dashed_double-dotted
 70
   64
  3
----------- --- --- ------------
 72
   65
 73
    6
 40
17
 49
12
 49
-1.5
 49
0.25
 49
-1.5
 49
0.25
 49
-1.5
  0
LTYPE
  2
long_dashed_triplicate-dotted
 70
   64
  3
--------- --- --- --- ----------
 72
   65
 73
    8
 40
18.75
 49
12
 49
-1.5
 49
0.25
 49
-1.5
 49
0.25
 49
-1.5
 49
0.25
 49
-1.5
  0
LTYPE
  2
dotted
 70
   64
  3
   -       -       -       -    
 72
   65
 73
    2
 40
1.75
 49
0.25
 49
-1.5
  0
LTYPE
  2
chain
 70
   64
  3
-------------- -- --------------
 72
   65
 73
    4
 40
18.5
 49
12
 49
-1.5
 49
3.5
 49
-1.5
  0
LTYPE
  2
chain_double_dash
 70
   64
  3
------------ -- -- -------------
 72
   65
 73
    6
 40
23.5
 49
12
 49
-1.5
 49
3.5
 49
-1.5
 49
3.5
 49
-1.5
  0
LTYPE
  2
dashed_dotted
 70
   64
  3
-----------     -     ----------
 72
   65
 73
    4
 40
9.25
 49
6
 49
-1.5
 49
0.25
 49
-1.5
  0
LTYPE
  2
double-dashed_dotted
 70
   64
  3
------   -----------   -   -----
 72
   65
 73
    6
 40
16.75
 49
6
 49
-1.5
 49
6
 49
-1.5
 49
0.25
 49
-1.5
  0
LTYPE
  2
dashed_double-dotted
 70
   64
  3
---------    -    -    ---------
 72
   65
 73
    6
 40
11
 49
6
 49
-1.5
 49
0.25
 49
-1.5
 49
0.25
 49
-1.5
  0
LTYPE
  2
double-dashed_double-dotted
 70
   64
  3
-----   ---------   -   -   ----
 72
   65
 73
    8
 40
18.5
 49
6
 49
-1.5
 49
6
 49
-1.5
 49
0.25
 49
-1.5
 49
0.25
 49
-1.5
  0
LTYPE
  2
dashed_triplicate-dotted
 70
   64
  3
-------    -    -    -    ------
 72
   65
 73
    8
 40
12.75
 49
6
 49
-1.5
 49
0.25
 49
-1.5
 49
0.25
 49
-1.5
 49
0.25
 49
-1.5
  0
LTYPE
  2
double-dashed_triplicate-dotted
 70
   64
  3
-----  ---------  -  -  -  -----
 72
   65
 73
   10
 40
20.25
 49
6
 49
-1.5
 49
6
 49
-1.5
 49
0.25
 49
-1.5
 49
0.25
 49
-1.5
 49
0.25
 49
-1.5
  0
LTYPE
  2
undefined
 70
   64
  3
--------------------------------
 72
   65
 73
    0
 40
0
  0
LTYPE
  2
_
 70
   64
  3
                                
 72
   65
 73
    0
 40
0
  0
LTYPE
  2
__18
 70
   64
  3
                                
 72
   65
 73
    0
 40
0
  0
LTYPE
  2
__19
 70
   64
  3
                                
 72
   65
 73
    0
 40
0
  0
LTYPE
  2
__20
 70
   64
  3
                                
 72
   65
 73
    0
 40
0
  0
LTYPE
  2
__21
 70
   64
  3
                                
 72
   65
 73
    0
 40
0
  0
LTYPE
  2
__22
 70
   64
  3
                                
 72
   65
 73
    0
 40
0
  0
LTYPE
  2
__23
 70
   64
  3
                                
 72
   65
 73
    0
 40
0
  0
LTYPE
  2
__24
 70
   64
  3
                                
 72
   65
 73
    0
 40
0
  0
LTYPE
  2
__25
 70
   64
  3
                                
 72
   65
 73
    0
 40
0
  0
LTYPE
  2
__26
 70
   64
  3
                                
 72
   65
 73
    0
 40
0
  0
LTYPE
  2
__27
 70
   64
  3
                                
 72
   65
 73
    0
 40
0
  0
LTYPE
  2
__28
 70
   64
  3
                                
 72
   65
 73
    0
 40
0
  0
LTYPE
  2
__29
 70
   64
  3
                                
 72
   65
 73
    0
 40
0
  0
LTYPE
  2
__30
 70
   64
  3
                                
 72
   65
 73
    0
 40
0
  0
LTYPE
  2
__31
 70
   64
  3
                                
 72
   65
 73
    0
 40
0
  0
LTYPE
  2
__32
 70
   64
  3
                                
 72
   65
 73
    0
 40
0
  0
ENDTAB
  0
TABLE
  2
STYLE
  5
3
100
AcDbSymbolTable
 70
     1
  0
STYLE
  5
10
100
AcDbSymbolTableRecord
100
AcDbTextStyleTableRecord
  2
STANDARD
 70
     0
 40
0.0
 41
1.0
 50
0.0
 71
     0
 42
0.2
  3
txt
  4
bigfont.shx
  0
STYLE
  5
26
100
AcDbSymbolTableRecord
100
AcDbTextStyleTableRecord
  2
TATEGAKI
 70
    68
 40
0.0
 41
1.0
 50
0.0
 71
     0
 42
1.0
  3
txt
  4
bigfont.shx
  0
ENDTAB
  0
TABLE
  2
LAYER
 70
    9
  0
LAYER
  2
_0-0_90_FRAME
 70
   64
 62
    7
  6
CONTINUOUS
  0
LAYER
  2
_0-1_91_BLANK
 70
   64
 62
    7
  6
CONTINUOUS
  0
LAYER
  2
_0-2_08_DIM
 70
   64
 62
    7
  6
CONTINUOUS
  0
LAYER
  2
_0-3_0
 70
   64
 62
    7
  6
CONTINUOUS
  0
LAYER
  2
_0-4_05_CENTER
 70
   64
 62
    7
  6
CONTINUOUS
  0
LAYER
  2
_0-5_04_HIDDEN
 70
   64
 62
    7
  6
CONTINUOUS
  0
LAYER
  2
_0-6_07_TEXT
 70
   64
 62
    7
  6
CONTINUOUS
  0
LAYER
  2
_0-8_
 70
   64
 62
    7
  6
CONTINUOUS
  0
LAYER
  2
ADD_LINE
 70
   64
 62
    7
  6
CONTINUOUS
  0
ENDTAB
  0
ENDSEC
  0
SECTION
  2
BLOCKS
  0
BLOCK
  2
-000-Weld-line
 70
   64
 10
0
 20
0
 30
0
  0
LINE
  8
_0-2_08_DIM
  6
CONTINUOUS
 62
    3
 10
0
 20
0
 11
0.9999999999999998
 21
0
  0
ENDBLK
  0
BLOCK
  2
-001-Weld10-s5
 70
   64
 10
0
 20
0
 30
0
  0
CIRCLE
  8
_0-2_08_DIM
  6
CONTINUOUS
 62
    3
 10
0
 20
0
 40
1.9999999999999998
  0
ENDBLK
  0
BLOCK
  2
-002-Weld10-a1
 70
   64
 10
0
 20
0
 30
0
  0
LINE
  8
_0-2_08_DIM
  6
CONTINUOUS
 62
    3
 10
4.9999999999999991
 20
0
 11
0
 21
4.9999999999999991
  0
LINE
  8
_0-2_08_DIM
  6
CONTINUOUS
 62
    3
 10
0
 20
4.9999999999999991
 11
0
 21
0
  0
LINE
  8
_0-2_08_DIM
  6
CONTINUOUS
 62
    3
 10
0
 20
0
 11
4.9999999999999991
 21
0
  0
ENDBLK
  0
BLOCK
  2
-003-Jis_w20130906110600
 70
   64
 10
0
 20
0
 30
0
  0
INSERT
  2
-000-Weld-line
  8
_0-2_08_DIM
 10
0
 20
0
 41
14.000000000000002
 42
14.000000000000002
 50
0
  0
INSERT
  2
-001-Weld10-s5
  8
_0-2_08_DIM
 10
0
 20
0
 41
1
 42
1
 50
0
  0
INSERT
  2
-002-Weld10-a1
  8
_0-2_08_DIM
 10
5.9999999999999991
 20
0
 41
-1
 42
1
 50
180
  0
TEXT
  8
_0-2_08_DIM
 62
    3
 10
4.0000000000001128
 20
-0.9999999999999998
 40
2.7999999999999994
 41
0.9000000000000001
 50
0
  1

  0
TEXT
  8
_0-2_08_DIM
 62
    3
 10
14.000000000000114
 20
-0.9999999999999998
 40
2.7999999999999994
 41
0.9000000000000001
 50
0
  1

  0
LINE
  8
_0-2_08_DIM
  6
CONTINUOUS
 62
    3
 10
-4.6308054280802926
 20
-5.765361229938434
 11
0
 21
0
  0
ENDBLK
  0
BLOCK
  2
-004-p1ba05
 70
   64
 10
0
 20
0
 30
0
  0
ARC
  8
_0-2_08_DIM
  6
CONTINUOUS
 62
    3
 10
0
 20
1.6206695983957429
 40
1.6206695983958537
 50
204.22763733453323
 51
335.57577857182139
  0
ARC
  8
_0-2_08_DIM
  6
CONTINUOUS
 62
    3
 10
-2.9535588745990817
 20
0.2854771617432376
 40
1.6206695983958537
 50
24.227637334533135
 51
155.57577857182133
  0
ENDBLK
  0
BLOCK
  2
-005-KK015066_54_5
 70
   64
 10
0
 20
0
 30
0
  0
LINE
  8
_0-5_04_HIDDEN
  6
CONTINUOUS
 62
    7
 10
0
 20
0
 11
50
 21
0
  0
ARC
  8
_0-5_04_HIDDEN
  6
CONTINUOUS
 62
    7
 10
45.499999999999993
 20
1.4999999999999998
 40
4.5
 50
0
 51
90
  0
LINE
  8
_0-5_04_HIDDEN
  6
CONTINUOUS
 62
    7
 10
50
 20
1.4999999999999998
 11
50
 21
0
  0
LINE
  8
_0-5_04_HIDDEN
  6
CONTINUOUS
 62
    7
 10
45.499999999999993
 20
5.9999999999999991
 11
12.5
 21
5.9999999999999991
  0
ARC
  8
_0-5_04_HIDDEN
  6
CONTINUOUS
 62
    7
 10
12.5
 20
12.5
 40
6.5
 50
180
 51
270
  0
LINE
  8
_0-5_04_HIDDEN
  6
CONTINUOUS
 62
    7
 10
5.9999999999999991
 20
12.5
 11
5.9999999999999991
 21
45.499999999999993
  0
ARC
  8
_0-5_04_HIDDEN
  6
CONTINUOUS
 62
    7
 10
1.4999999999999998
 20
45.499999999999993
 40
4.5
 50
0
 51
90
  0
LINE
  8
_0-5_04_HIDDEN
  6
CONTINUOUS
 62
    7
 10
1.4999999999999998
 20
50
 11
0
 21
50
  0
LINE
  8
_0-5_04_HIDDEN
  6
CONTINUOUS
 62
    7
 10
0
 20
0
 11
0
 21
50
  0
ENDBLK
  0
BLOCK
  2
-006-seca03
 70
   64
 10
0
 20
0
 30
0
  0
SOLID
  8
_0-3_0
  6
CONTINUOUS
 62
   18
 10
-3.7632055756284895
 20
-0.5000000028963994
 11
3.7632055741971722
 21
-0.5000000028963994
 12
-3.7632055756284895
 22
0.4999999971036003
 13
3.7632055741971722
 23
0.4999999971036003
  0
LINE
  8
_0-3_0
  6
CONTINUOUS
 62
   18
 10
-0.0000000007156586
 20
0.4999999971036003
 11
0.8038475765776523
 21
3.4999999971036
  0
LINE
  8
_0-3_0
  6
CONTINUOUS
 62
   18
 10
-0.0000000007156586
 20
0.4999999971036003
 11
-0.8038475780089697
 21
3.4999999971036
  0
LINE
  8
_0-3_0
  6
CONTINUOUS
 62
   18
 10
-0.0000000007156586
 20
0.4999999971036003
 11
-0.0000000007156586
 21
10.63524983061984
  0
ENDBLK
  0
BLOCK
  2
-007-AM_BALLOON1
 70
   64
 10
0
 20
0
 30
0
  0
CIRCLE
  8
_0-2_08_DIM
  6
CONTINUOUS
 62
    3
 10
0
 20
0
 40
4.9999999999999991
  0
ENDBLK
  0
BLOCK
  2
-008-_Open30
 70
   64
 10
0
 20
0
 30
0
  0
LINE
  8
_0-2_08_DIM
  6
CONTINUOUS
 62
    3
 10
-0.9999999999999998
 20
0.2679491899999999
 11
0
 21
0
  0
LINE
  8
_0-2_08_DIM
  6
CONTINUOUS
 62
    3
 10
0
 20
0
 11
-0.9999999999999998
 21
-0.2679491899999999
  0
LINE
  8
_0-2_08_DIM
  6
CONTINUOUS
 62
    3
 10
0
 20
0
 11
-0.9999999999999998
 21
0
  0
ENDBLK
  0
ENDSEC
  0
SECTION
  2
ENTITIES
  0
TEXT
  8
_0-0_90_FRAME
 62
    7
 10
5026.4858969912011
 20
1041.2209743181638
 40
25
 41
1
 50
0
  1
AT-221121-09-1
  0
TEXT
  8
_0-0_90_FRAME
 62
    7
 10
4855.2914616883572
 20
983.67719583994972
 40
25
 41
1
 50
0
  1
2024.10.23
  0
LINE
  8
_0-0_90_FRAME
  6
CONTINUOUS
 62
    5
 10
1448.2015199121245
 20
970.0978863135648
 11
5330.1666627576615
 21
970.0978863135648
  0
LINE
  8
_0-0_90_FRAME
  6
CONTINUOUS
 62
    5
 10
5330.1666627576615
 20
970.0978863135648
 11
5330.1666627576615
 21
3745.3673555883356
  0
LINE
  8
_0-0_90_FRAME
  6
CONTINUOUS
 62
    5
 10
5330.1666627576615
 20
3745.3673555883356
 11
1448.2015199121245
 21
3745.3673555883356
  0
LINE
  8
_0-0_90_FRAME
  6
CONTINUOUS
 62
    5
 10
1448.2015199121245
 20
3745.3673555883356
 11
1448.2015199121245
 21
970.0978863135648
  0
LINE
  8
_0-0_90_FRAME
  6
CONTINUOUS
 62
    5
 10
1253.972005627206
 20
2357.7326209509506
 11
1448.2015199121245
 21
2357.7326209509506
  0
LINE
  8
_0-0_90_FRAME
  6
CONTINUOUS
 62
    5
 10
5394.9763056145412
 20
2357.7326209509506
 11
5330.1666627576615
 21
2357.7326209509506
  0
LINE
  8
_0-0_90_FRAME
  6
CONTINUOUS
 62
    5
 10
3389.1840913348929
 20
3820.1769984585867
 11
3389.1840913348933
 21
3745.3673555883356
  0
LINE
  8
_0-0_90_FRAME
  6
CONTINUOUS
 62
    5
 10
3389.1840913348933
 20
905.5779984452106
 11
3389.1840913348933
 21
970.0978863135648
  0
LINE
  8
_0-0_90_FRAME
  6
CONTINUOUS
 62
    5
 10
2890.6483770511886
 20
940.18574345653656
 11
3887.719805618598
 21
940.18574345653656
  0
LINE
  8
_0-0_90_FRAME
  6
CONTINUOUS
 62
    5
 10
2890.6483770511886
 20
940.18574345653656
 11
2890.6483770511886
 21
970.0978863135648
  0
LINE
  8
_0-0_90_FRAME
  6
CONTINUOUS
 62
    5
 10
2990.3555199079319
 20
940.18574345653656
 11
2990.3555199079319
 21
970.0978863135648
  0
LINE
  8
_0-0_90_FRAME
  6
CONTINUOUS
 62
    5
 10
3090.0626627646757
 20
940.18574345653656
 11
3090.0626627646757
 21
970.0978863135648
  0
LINE
  8
_0-0_90_FRAME
  6
CONTINUOUS
 62
    5
 10
3189.7698056214062
 20
940.18574345653656
 11
3189.7698056214062
 21
970.0978863135648
  0
LINE
  8
_0-0_90_FRAME
  6
CONTINUOUS
 62
    5
 10
3289.4769484781491
 20
940.18574345653656
 11
3289.4769484781491
 21
970.0978863135648
  0
LINE
  8
_0-0_90_FRAME
  6
CONTINUOUS
 62
    5
 10
3488.8912341916239
 20
940.18574345653656
 11
3488.8912341916239
 21
970.0978863135648
  0
LINE
  8
_0-0_90_FRAME
  6
CONTINUOUS
 62
    5
 10
3588.5983770483672
 20
940.18574345653656
 11
3588.5983770483672
 21
970.0978863135648
  0
LINE
  8
_0-0_90_FRAME
  6
CONTINUOUS
 62
    5
 10
3688.30551990511
 20
940.18574345653656
 11
3688.30551990511
 21
970.0978863135648
  0
LINE
  8
_0-0_90_FRAME
  6
CONTINUOUS
 62
    5
 10
3788.0126627618542
 20
940.18574345653656
 11
3788.0126627618542
 21
970.0978863135648
  0
LINE
  8
_0-0_90_FRAME
  6
CONTINUOUS
 62
    5
 10
3887.719805618598
 20
940.18574345653656
 11
3887.719805618598
 21
970.0978863135648
  0
LINE
  8
_0-0_90_FRAME
  6
CONTINUOUS
 62
    4
 10
2385.1830163389445
 20
3745.3673555883356
 11
2385.1830163389445
 21
3810.1769984452026
  0
TEXT
  8
_0-0_90_FRAME
 62
    7
 10
1632.5222110170373
 20
3758.2758390219519
 40
19.999999999999996
 41
1
 50
0
  1
1
  0
TEXT
  8
_0-0_90_FRAME
 62
    7
 10
1876.5158121743102
 20
3758.2758390219519
 40
19.999999999999996
 41
1
 50
0
  1
2
  0
TEXT
  8
_0-0_90_FRAME
 62
    7
 10
2211.1828371729594
 20
3758.2758390219519
 40
19.999999999999996
 41
1
 50
0
  1
3
  0
TEXT
  8
_0-0_90_FRAME
 62
    7
 10
2545.8498621715962
 20
3758.2758390219519
 40
19.999999999999996
 41
1
 50
0
  1
4
  0
TEXT
  8
_0-0_90_FRAME
 62
    7
 10
2880.5168871702581
 20
3758.2758390219519
 40
19.999999999999996
 41
1
 50
0
  1
5
  0
TEXT
  8
_0-0_90_FRAME
 62
    7
 10
3215.1839121688949
 20
3758.2758390219519
 40
19.999999999999996
 41
1
 50
0
  1
6
  0
TEXT
  8
_0-0_90_FRAME
 62
    7
 10
3549.850937167545
 20
3758.2758390219519
 40
19.999999999999996
 41
1
 50
0
  1
7
  0
TEXT
  8
_0-0_90_FRAME
 62
    7
 10
3884.5179621661937
 20
3758.2758390219519
 40
19.999999999999996
 41
1
 50
0
  1
8
  0
TEXT
  8
_0-0_90_FRAME
 62
    7
 10
4219.1849871648437
 20
3758.2758390219519
 40
19.999999999999996
 41
1
 50
0
  1
9
  0
TEXT
  8
_0-0_90_FRAME
 62
    7
 10
4548.8520121634938
 20
3758.2758390219519
 40
19.999999999999996
 41
1
 50
0
  1
10
  0
TEXT
  8
_0-0_90_FRAME
 62
    7
 10
4885.1857038287972
 20
3758.2758390219519
 40
19.999999999999996
 41
1
 50
0
  1
11
  0
TEXT
  8
_0-0_90_FRAME
 62
    7
 10
5216.5193954941142
 20
3758.2758390219519
 40
19.999999999999996
 41
1
 50
0
  1
12
  0
TEXT
  8
_0-0_90_FRAME
 62
    7
 10
5343.0504768154515
 20
3235.1978568848617
 40
19.999999999999996
 41
1
 50
0
  1
B
  0
LINE
  8
_0-0_90_FRAME
  6
CONTINUOUS
 62
   18
 10
1448.2015199121245
 20
970.0978863135648
 11
1958.201519907662
 21
970.0978863135648
  0
LINE
  8
_0-0_90_FRAME
  6
CONTINUOUS
 62
   18
 10
1958.201519907662
 20
970.0978863135648
 11
1958.201519907662
 21
1111.5264577415608
  0
LINE
  8
_0-0_90_FRAME
  6
CONTINUOUS
 62
   18
 10
1958.201519907662
 20
1111.5264577415608
 11
1448.2015199121245
 21
1111.5264577415608
  0
LINE
  8
_0-0_90_FRAME
  6
CONTINUOUS
 62
   18
 10
1448.2015199121245
 20
1111.5264577415608
 11
1448.2015199121245
 21
970.0978863135648
  0
LINE
  8
_0-0_90_FRAME
  6
CONTINUOUS
 62
   18
 10
1888.201519907662
 20
970.0978863135648
 11
1888.201519907662
 21
1111.5264577415608
  0
LINE
  8
_0-0_90_FRAME
  6
CONTINUOUS
 62
   18
 10
1518.2015199076623
 20
970.0978863135648
 11
1518.2015199076623
 21
1111.5264577415608
  0
LINE
  8
_0-0_90_FRAME
  6
CONTINUOUS
 62
   18
 10
1598.2015199076623
 20
970.0978863135648
 11
1598.2015199076623
 21
1111.5264577415608
  0
LINE
  8
_0-0_90_FRAME
  6
CONTINUOUS
 62
   18
 10
1448.2015199121245
 20
1076.1693148845686
 11
1958.201519907662
 21
1076.1693148845686
  0
LINE
  8
_0-0_90_FRAME
  6
CONTINUOUS
 62
   18
 10
1448.2015199121245
 20
1040.8121720275583
 11
1958.201519907662
 21
1040.8121720275583
  0
LINE
  8
_0-0_90_FRAME
  6
CONTINUOUS
 62
   18
 10
1448.2015199121245
 20
1005.455029170566
 11
1958.201519907662
 21
1005.455029170566
  0
TEXT
  8
_0-0_90_FRAME
 62
    7
 10
1465.746974455348
 20
1087.8478863130647
 40
11.999999999999998
 41
1
 50
0
  1
ŗLŹå
  0
TEXT
  8
_0-0_90_FRAME
 62
    7
 10
1539.0295930614532
 20
1087.8478863130647
 40
11.999999999999998
 41
1
 50
0
  1
ō·Ģt
  0
TEXT
  8
_0-0_90_FRAME
 62
    7
 10
1897.019701725844
 20
1087.8478863130647
 40
11.999999999999998
 41
1
 50
0
  1
ŹņÉ¼Äę
  0
TEXT
  8
_0-0_90_FRAME
 62
    7
 10
1703.2924289985713
 20
1087.6433408585192
 40
11.999999999999998
 41
1
 50
0
  1
ē³Æ∙ōÓŚe
  0
LINE
  8
_0-0_90_FRAME
  6
CONTINUOUS
 62
   18
 10
1467.2908056242377
 20
1009.2103190698296
 11
1483.2015199098932
 21
1036.7684845972824
  0
LINE
  8
_0-0_90_FRAME
  6
CONTINUOUS
 62
   18
 10
1483.2015199098932
 20
1036.7684845972824
 11
1499.1122341955397
 21
1009.2103190698296
  0
LINE
  8
_0-0_90_FRAME
  6
CONTINUOUS
 62
   18
 10
1499.1122341955397
 20
1009.2103190698296
 11
1467.2908056242377
 21
1009.2103190698296
  0
TEXT
  8
_0-0_90_FRAME
 62
    7
 10
1479.7555445654546
 20
1049.7053011065709
 40
10.607142857099999
 41
1
 50
0
  1
1
  0
TEXT
  8
_0-0_90_FRAME
 62
    7
 10
1479.7555445654546
 20
1014.3481582495698
 40
10.607142857099999
 41
1
 50
0
  1
2
  0
TEXT
  8
_0-0_90_FRAME
 62
    7
 10
1479.7555445654546
 20
978.99101539256867
 40
10.607142857099999
 41
1
 50
0
  1
3
  0
LINE
  8
_0-0_90_FRAME
  6
CONTINUOUS
 62
   18
 10
1467.2908056242377
 20
1044.5674619268307
 11
1483.2015199098932
 21
1072.1256274542927
  0
LINE
  8
_0-0_90_FRAME
  6
CONTINUOUS
 62
   18
 10
1483.2015199098932
 20
1072.1256274542927
 11
1499.1122341955397
 21
1044.5674619268307
  0
LINE
  8
_0-0_90_FRAME
  6
CONTINUOUS
 62
   18
 10
1499.1122341955397
 20
1044.5674619268307
 11
1467.2908056242377
 21
1044.5674619268307
  0
LINE
  8
_0-0_90_FRAME
  6
CONTINUOUS
 62
   18
 10
1467.2908056242377
 20
973.85317621282843
 11
1483.2015199098932
 21
1001.4113417402901
  0
LINE
  8
_0-0_90_FRAME
  6
CONTINUOUS
 62
   18
 10
1483.2015199098932
 20
1001.4113417402901
 11
1499.1122341955397
 21
973.85317621282843
  0
LINE
  8
_0-0_90_FRAME
  6
CONTINUOUS
 62
   18
 10
1499.1122341955397
 20
973.85317621282843
 11
1467.2908056242377
 21
973.85317621282843
  0
LINE
  8
_0-0_90_FRAME
  6
CONTINUOUS
 62
    4
 10
5394.9763056145412
 20
1647.760432203821
 11
5330.1666627576615
 21
1647.760432203821
  0
LINE
  8
_0-0_90_FRAME
  6
CONTINUOUS
 62
    4
 10
5394.9763056145412
 20
2002.7465265773858
 11
5330.1666627576615
 21
2002.7465265773858
  0
LINE
  8
_0-0_90_FRAME
  6
CONTINUOUS
 62
    4
 10
5394.9763056145412
 20
1292.7743378302566
 11
5330.1666627576615
 21
1292.7743378302566
  0
LINE
  8
_0-0_90_FRAME
  6
CONTINUOUS
 62
    4
 10
5394.9763056145412
 20
3067.7048096980793
 11
5330.1666627576615
 21
3067.7048096980793
  0
LINE
  8
_0-0_90_FRAME
  6
CONTINUOUS
 62
    4
 10
5394.9763056145412
 20
2712.7187153245154
 11
5330.1666627576615
 21
2712.7187153245154
  0
LINE
  8
_0-0_90_FRAME
  6
CONTINUOUS
 62
    4
 10
5394.9763056145412
 20
3422.6909040716441
 11
5330.1666627576615
 21
3422.6909040716441
  0
TEXT
  8
_0-0_90_FRAME
 62
    7
 10
5343.0504768154515
 20
3590.1839512584265
 40
19.999999999999996
 41
1
 50
0
  1
A
  0
TEXT
  8
_0-0_90_FRAME
 62
    7
 10
5343.0504768154515
 20
2880.2117625112978
 40
19.999999999999996
 41
1
 50
0
  1
C
  0
TEXT
  8
_0-0_90_FRAME
 62
    7
 10
5343.0504768154515
 20
2525.2256681377326
 40
19.999999999999996
 41
1
 50
0
  1
D
  0
TEXT
  8
_0-0_90_FRAME
 62
    7
 10
5343.0504768154515
 20
1815.2534793906034
 40
19.999999999999996
 41
1
 50
0
  1
F
  0
TEXT
  8
_0-0_90_FRAME
 62
    7
 10
5343.0504768154515
 20
1460.267385017039
 40
19.999999999999996
 41
1
 50
0
  1
G
  0
TEXT
  8
_0-0_90_FRAME
 62
    7
 10
5343.0504768154515
 20
1105.2812906434744
 40
19.999999999999996
 41
1
 50
0
  1
H
  0
TEXT
  8
_0-0_90_FRAME
 62
    7
 10
5343.0504768154515
 20
2170.2395737641677
 40
19.999999999999996
 41
1
 50
0
  1
E
  0
TEXT
  8
_0-0_90_FRAME
 62
    7
 10
1418.7587112756376
 20
3235.1978568848617
 40
19.999999999999996
 41
1
 50
0
  1
B
  0
LINE
  8
_0-0_90_FRAME
  6
CONTINUOUS
 62
    4
 10
1448.2015199121245
 20
1647.760432203821
 11
1383.3918770552577
 21
1647.760432203821
  0
LINE
  8
_0-0_90_FRAME
  6
CONTINUOUS
 62
    4
 10
1448.2015199121245
 20
2002.7465265773858
 11
1383.3918770552577
 21
2002.7465265773858
  0
LINE
  8
_0-0_90_FRAME
  6
CONTINUOUS
 62
    4
 10
1448.2015199121245
 20
1292.7743378302566
 11
1383.3918770552577
 21
1292.7743378302566
  0
LINE
  8
_0-0_90_FRAME
  6
CONTINUOUS
 62
    4
 10
1448.2015199121245
 20
3067.7048096980793
 11
1383.3918770552577
 21
3067.7048096980793
  0
LINE
  8
_0-0_90_FRAME
  6
CONTINUOUS
 62
    4
 10
1448.2015199121245
 20
2712.7187153245154
 11
1383.3918770552577
 21
2712.7187153245154
  0
LINE
  8
_0-0_90_FRAME
  6
CONTINUOUS
 62
    4
 10
1448.2015199121245
 20
3422.6909040716441
 11
1383.3918770552577
 21
3422.6909040716441
  0
TEXT
  8
_0-0_90_FRAME
 62
    7
 10
1418.7587112756376
 20
3590.1839512584265
 40
19.999999999999996
 41
1
 50
0
  1
A
  0
TEXT
  8
_0-0_90_FRAME
 62
    7
 10
1418.7587112756376
 20
2880.2117625112978
 40
19.999999999999996
 41
1
 50
0
  1
C
  0
TEXT
  8
_0-0_90_FRAME
 62
    7
 10
1418.7587112756376
 20
2525.2256681377326
 40
19.999999999999996
 41
1
 50
0
  1
D
  0
TEXT
  8
_0-0_90_FRAME
 62
    7
 10
1418.7587112756376
 20
1815.2534793906034
 40
19.999999999999996
 41
1
 50
0
  1
F
  0
TEXT
  8
_0-0_90_FRAME
 62
    7
 10
1418.7587112756376
 20
1460.267385017039
 40
19.999999999999996
 41
1
 50
0
  1
G
  0
TEXT
  8
_0-0_90_FRAME
 62
    7
 10
1418.7587112756376
 20
2170.2395737641677
 40
19.999999999999996
 41
1
 50
0
  1
E
  0
TEXT
  8
_0-0_90_FRAME
 62
    7
 10
1418.7587112756376
 20
1105.2812906434744
 40
19.999999999999996
 41
1
 50
0
  1
H
  0
LINE
  8
_0-0_90_FRAME
  6
CONTINUOUS
 62
    4
 10
2050.5159913402949
 20
3745.3673555883356
 11
2050.5159913402949
 21
3810.1769984452026
  0
LINE
  8
_0-0_90_FRAME
  6
CONTINUOUS
 62
    4
 10
1715.8489663416456
 20
3745.3673555883356
 11
1715.8489663416456
 21
3810.1769984452026
  0
LINE
  8
_0-0_90_FRAME
  6
CONTINUOUS
 62
    4
 10
2719.8500413375937
 20
3745.3673555883356
 11
2719.8500413375937
 21
3810.1769984452026
  0
LINE
  8
_0-0_90_FRAME
  6
CONTINUOUS
 62
    4
 10
3054.5170663362437
 20
3745.3673555883356
 11
3054.5170663362437
 21
3810.1769984452026
  0
LINE
  8
_0-0_90_FRAME
  6
CONTINUOUS
 62
    4
 10
4393.1851663308289
 20
3745.3673555883356
 11
4393.1851663308289
 21
3810.1769984452026
  0
LINE
  8
_0-0_90_FRAME
  6
CONTINUOUS
 62
    4
 10
4727.852191329479
 20
3745.3673555883356
 11
4727.852191329479
 21
3810.1769984452026
  0
LINE
  8
_0-0_90_FRAME
  6
CONTINUOUS
 62
    4
 10
5062.5192163281281
 20
3745.3673555883356
 11
5062.5192163281281
 21
3810.1769984452026
  0
LINE
  8
_0-0_90_FRAME
  6
CONTINUOUS
 62
    4
 10
4058.5181413321798
 20
3745.3673555883356
 11
4058.5181413321798
 21
3810.1769984452026
  0
LINE
  8
_0-0_90_FRAME
  6
CONTINUOUS
 62
    4
 10
3723.8511163335424
 20
3745.3673555883356
 11
3723.8511163335424
 21
3810.1769984452026
  0
LINE
  8
_0-0_90_FRAME
  6
CONTINUOUS
 62
    4
 10
2385.1830163389445
 20
905.5779984452106
 11
2385.1830163389445
 21
970.0978863135648
  0
LINE
  8
_0-0_90_FRAME
  6
CONTINUOUS
 62
    4
 10
2050.5159913402949
 20
905.5779984452106
 11
2050.5159913402949
 21
970.0978863135648
  0
LINE
  8
_0-0_90_FRAME
  6
CONTINUOUS
 62
    4
 10
1715.8489663416456
 20
905.5779984452106
 11
1715.8489663416456
 21
970.0978863135648
  0
LINE
  8
_0-0_90_FRAME
  6
CONTINUOUS
 62
    4
 10
2719.8500413375937
 20
905.5779984452106
 11
2719.8500413375937
 21
970.0978863135648
  0
LINE
  8
_0-0_90_FRAME
  6
CONTINUOUS
 62
    4
 10
4393.1851663308289
 20
905.5779984452106
 11
4393.1851663308289
 21
970.0978863135648
  0
LINE
  8
_0-0_90_FRAME
  6
CONTINUOUS
 62
    4
 10
4727.852191329479
 20
905.5779984452106
 11
4727.852191329479
 21
970.0978863135648
  0
LINE
  8
_0-0_90_FRAME
  6
CONTINUOUS
 62
    4
 10
5062.5192163281281
 20
905.5779984452106
 11
5062.5192163281281
 21
970.0978863135648
  0
LINE
  8
_0-0_90_FRAME
  6
CONTINUOUS
 62
    4
 10
4058.5181413321798
 20
905.5779984452106
 11
4058.5181413321798
 21
970.0978863135648
  0
LINE
  8
_0-1_91_BLANK
  6
CONTINUOUS
 62
    5
 10
1253.9720056109713
 20
905.5779984452106
 11
5394.9763056076627
 21
905.5779984452106
  0
LINE
  8
_0-1_91_BLANK
  6
CONTINUOUS
 62
    5
 10
5394.9763056076627
 20
905.5779984452106
 11
5394.9763056076627
 21
3820.1769984585867
  0
LINE
  8
_0-1_91_BLANK
  6
CONTINUOUS
 62
    5
 10
5394.9763056076627
 20
3820.1769984585867
 11
1253.9720056109713
 21
3820.1769984585867
  0
LINE
  8
_0-1_91_BLANK
  6
CONTINUOUS
 62
    5
 10
1253.9720056109713
 20
3820.1769984585867
 11
1253.9720056109713
 21
905.5779984452106
  0
LINE
  8
_0-0_90_FRAME
  6
CONTINUOUS
 62
   18
 10
4340.1666627616596
 20
970.0978863135648
 11
5330.1666627576615
 21
970.0978863135648
  0
LINE
  8
_0-0_90_FRAME
  6
CONTINUOUS
 62
   18
 10
5330.1666627576615
 20
970.0978863135648
 11
5330.1666627576615
 21
1153.955029169965
  0
LINE
  8
_0-0_90_FRAME
  6
CONTINUOUS
 62
   18
 10
5330.1666627576615
 20
1153.955029169965
 11
4340.1666627616596
 21
1153.955029169965
  0
LINE
  8
_0-0_90_FRAME
  6
CONTINUOUS
 62
   18
 10
4340.1666627616596
 20
1153.955029169965
 11
4340.1666627616596
 21
970.0978863135648
  0
LINE
  8
_0-0_90_FRAME
  6
CONTINUOUS
 62
   18
 10
4418.1291627613482
 20
1122.133600598663
 11
4467.6291627611472
 21
1134.5086005986145
  0
LINE
  8
_0-0_90_FRAME
  6
CONTINUOUS
 62
   18
 10
4467.6291627611472
 20
1134.5086005986145
 11
4467.6291627611472
 21
1085.0086005988167
  0
LINE
  8
_0-0_90_FRAME
  6
CONTINUOUS
 62
   18
 10
4467.6291627611472
 20
1085.0086005988167
 11
4418.1291627613482
 21
1097.3836005987637
  0
LINE
  8
_0-0_90_FRAME
  6
CONTINUOUS
 62
   18
 10
4418.1291627613482
 20
1097.3836005987637
 11
4418.1291627613482
 21
1122.133600598663
  0
CIRCLE
  8
_0-0_90_FRAME
  6
CONTINUOUS
 62
   18
 10
4385.9541627614744
 20
1109.7586005987112
 40
12.374999999949999
  0
CIRCLE
  8
_0-0_90_FRAME
  6
CONTINUOUS
 62
   18
 10
4385.9541627614744
 20
1109.7586005987112
 40
24.749999999899998
  0
LINE
  8
_0-0_90_FRAME
  6
CONTINUOUS
 62
   18
 10
4356.2541627615947
 20
1109.7586005987112
 11
4472.5791627611234
 21
1109.7586005987112
  0
LINE
  8
_0-0_90_FRAME
  6
CONTINUOUS
 62
   18
 10
4385.9541627614744
 20
1080.0586005988359
 11
4385.9541627614744
 21
1139.4586005985955
  0
LINE
  8
_0-0_90_FRAME
  6
CONTINUOUS
 62
   18
 10
4745.7023770456608
 20
970.0978863135648
 11
4745.7023770456608
 21
1153.955029169965
  0
LINE
  8
_0-0_90_FRAME
  6
CONTINUOUS
 62
   18
 10
4745.7023770456608
 20
1026.6693148847637
 11
5330.1666627576615
 21
1026.6693148847637
  0
TEXT
  8
_0-0_90_FRAME
 62
    7
 10
4748.2375858328132
 20
1009.0795136509039
 40
12.5
 41
1
 50
0
  1
Źņ É¼ ō·
  0
LINE
  8
_0-0_90_FRAME
  6
CONTINUOUS
 62
   18
 10
5091.3809484728581
 20
1026.6693148847637
 11
5091.3809484728581
 21
970.0978863135648
  0
TEXT
  8
_0-0_90_FRAME
 62
    7
 10
5094.3495572072761
 20
1008.7338089768306
 40
12.5
 41
1
 50
0
  1
ī┬Éö
  0
TEXT
  8
_0-0_90_FRAME
 62
    7
 10
4628.802113257676
 20
1137.5661887390422
 40
12.5
 41
1
 50
0
  1
āTāCāY
  0
TEXT
  8
_0-0_90_FRAME
 62
    7
 10
4490.9092561153802
 20
1136.6339195770067
 40
12.5
 41
1
 50
0
  1
Ä┌ü@ōx
  0
TEXT
  8
_0-0_90_FRAME
 62
    7
 10
4628.8021894397725
 20
1049.1733315965437
 40
12.5
 41
1
 50
0
  1
É╗ü@É}
  0
LINE
  8
_0-0_90_FRAME
  6
CONTINUOUS
 62
   18
 10
4745.7023770456608
 20
1065.5621720274617
 11
4340.1666627616596
 21
1065.5621720274617
  0
LINE
  8
_0-0_90_FRAME
  6
CONTINUOUS
 62
   18
 10
4934.5118799172515
 20
1083.2407434559623
 11
5330.1666627576615
 21
1083.2407434559623
  0
TEXT
  8
_0-0_90_FRAME
 62
    7
 10
4669.887293652173
 20
1086.7783612949129
 40
25
 41
1
 50
0
  1
A1
  0
LINE
  8
_0-0_90_FRAME
  6
CONTINUOUS
 62
   18
 10
4626.5595199033596
 20
970.0978863135648
 11
4626.5595199033596
 21
1153.955029169965
  0
TEXT
  8
_0-0_90_FRAME
 62
    2
 10
4427.6429788052956
 20
989.55366375685276
 40
25
 41
1
 50
0
  1
āAāNāAāgāŖāĆ
  0
LINE
  8
_0-0_90_FRAME
  6
CONTINUOUS
 62
    4
 10
4419.952021076967
 20
1053.4535759137223
 11
4419.952021076967
 21
979.48768314401798
  0
LINE
  8
_0-0_90_FRAME
  6
CONTINUOUS
 62
    4
 10
4419.952021076967
 20
979.48768314401798
 11
4352.7103003772363
 21
979.48768314401798
  0
LINE
  8
_0-0_90_FRAME
  6
CONTINUOUS
 62
    4
 10
4352.7103003772363
 20
979.48768314401798
 11
4352.7103003772363
 21
1053.4535759137223
  0
LINE
  8
_0-0_90_FRAME
  6
CONTINUOUS
 62
    4
 10
4353.030499047235
 20
1053.1333772437206
 11
4353.030499047235
 21
1053.1333772437206
  0
LINE
  8
_0-0_90_FRAME
  6
CONTINUOUS
 62
    4
 10
4353.030499047235
 20
1053.1333772437206
 11
4353.195893314748
 21
1051.4653197776211
  0
LINE
  8
_0-0_90_FRAME
  6
CONTINUOUS
 62
    4
 10
4353.195893314748
 20
1051.4653197776211
 11
4353.6870506961614
 21
1049.8479453935513
  0
LINE
  8
_0-0_90_FRAME
  6
CONTINUOUS
 62
    4
 10
4353.6870506961614
 20
1049.8479453935513
 11
4354.4890476229775
 21
1048.3303971937401
  0
LINE
  8
_0-0_90_FRAME
  6
CONTINUOUS
 62
    4
 10
4354.4890476229775
 20
1048.3303971937401
 11
4355.5775158244069
 21
1046.9587851123222
  0
LINE
  8
_0-0_90_FRAME
  6
CONTINUOUS
 62
    4
 10
4355.5775158244069
 20
1046.9587851123222
 11
4356.9193827449399
 21
1045.7747848883228
  0
LINE
  8
_0-0_90_FRAME
  6
CONTINUOUS
 62
    4
 10
4356.9193827449399
 20
1045.7747848883228
 11
4358.4738764372132
 21
1044.8143717694145
  0
LINE
  8
_0-0_90_FRAME
  6
CONTINUOUS
 62
    4
 10
4358.4738764372132
 20
1044.8143717694145
 11
4360.1937643969995
 21
1044.1067274222232
  0
LINE
  8
_0-0_90_FRAME
  6
CONTINUOUS
 62
    4
 10
4360.1937643969995
 20
1044.1067274222232
 11
4362.026788698945
 21
1043.6733532621529
  0
LINE
  8
_0-0_90_FRAME
  6
CONTINUOUS
 62
    4
 10
4362.026788698945
 20
1043.6733532621529
 11
4363.9172538271914
 21
1043.5274171437593
  0
LINE
  8
_0-0_90_FRAME
  6
CONTINUOUS
 62
    4
 10
4363.9172538271914
 20
1043.5274171437593
 11
4365.8077189554378
 21
1043.6733532621529
  0
LINE
  8
_0-0_90_FRAME
  6
CONTINUOUS
 62
    4
 10
4365.8077189554378
 20
1043.6733532621529
 11
4367.6407432573833
 21
1044.1067274222232
  0
LINE
  8
_0-0_90_FRAME
  6
CONTINUOUS
 62
    4
 10
4367.6407432573833
 20
1044.1067274222232
 11
4369.3606312171696
 21
1044.8143717694145
  0
LINE
  8
_0-0_90_FRAME
  6
CONTINUOUS
 62
    4
 10
4369.3606312171696
 20
1044.8143717694145
 11
4370.915124909443
 21
1045.7747848883228
  0
LINE
  8
_0-0_90_FRAME
  6
CONTINUOUS
 62
    4
 10
4370.915124909443
 20
1045.7747848883228
 11
4372.256991829976
 21
1046.9587851123222
  0
LINE
  8
_0-0_90_FRAME
  6
CONTINUOUS
 62
    4
 10
4372.256991829976
 20
1046.9587851123222
 11
4373.3454600314053
 21
1048.3303971937401
  0
LINE
  8
_0-0_90_FRAME
  6
CONTINUOUS
 62
    4
 10
4373.3454600314053
 20
1048.3303971937401
 11
4374.1474569582215
 21
1049.8479453935513
  0
LINE
  8
_0-0_90_FRAME
  6
CONTINUOUS
 62
    4
 10
4374.1474569582215
 20
1049.8479453935513
 11
4374.6386143396348
 21
1051.4653197776211
  0
LINE
  8
_0-0_90_FRAME
  6
CONTINUOUS
 62
    4
 10
4374.6386143396348
 20
1051.4653197776211
 11
4374.8040086071478
 21
1053.1333772437206
  0
LINE
  8
_0-0_90_FRAME
  6
CONTINUOUS
 62
    4
 10
4374.8040086071478
 20
1053.1333772437206
 11
4374.8040086071478
 21
1053.1333772437206
  0
ARC
  8
_0-0_90_FRAME
  6
CONTINUOUS
 62
    4
 10
4375.1242072771456
 20
1053.1333772437206
 40
0.3201986699987063
 50
0
 51
180
  0
LINE
  8
_0-0_90_FRAME
  6
CONTINUOUS
 62
    4
 10
4375.4444059471452
 20
1053.1333772437206
 11
4375.4444059471452
 21
1053.1333772437206
  0
LINE
  8
_0-0_90_FRAME
  6
CONTINUOUS
 62
    4
 10
4375.4444059471452
 20
1053.1333772437206
 11
4375.6098002146582
 21
1051.4653197776211
  0
LINE
  8
_0-0_90_FRAME
  6
CONTINUOUS
 62
    4
 10
4375.6098002146582
 20
1051.4653197776211
 11
4376.1009575960716
 21
1049.8479453935513
  0
LINE
  8
_0-0_90_FRAME
  6
CONTINUOUS
 62
    4
 10
4376.1009575960716
 20
1049.8479453935513
 11
4376.9029545228877
 21
1048.3303971937401
  0
LINE
  8
_0-0_90_FRAME
  6
CONTINUOUS
 62
    4
 10
4376.9029545228877
 20
1048.3303971937401
 11
4377.9914227243171
 21
1046.9587851123222
  0
LINE
  8
_0-0_90_FRAME
  6
CONTINUOUS
 62
    4
 10
4377.9914227243171
 20
1046.9587851123222
 11
4379.3332896448501
 21
1045.7747848883228
  0
LINE
  8
_0-0_90_FRAME
  6
CONTINUOUS
 62
    4
 10
4379.3332896448501
 20
1045.7747848883228
 11
4380.8877833371234
 21
1044.8143717694145
  0
LINE
  8
_0-0_90_FRAME
  6
CONTINUOUS
 62
    4
 10
4380.8877833371234
 20
1044.8143717694145
 11
4382.6076712969098
 21
1044.1067274222232
  0
LINE
  8
_0-0_90_FRAME
  6
CONTINUOUS
 62
    4
 10
4382.6076712969098
 20
1044.1067274222232
 11
4384.4406955988552
 21
1043.6733532621529
  0
LINE
  8
_0-0_90_FRAME
  6
CONTINUOUS
 62
    4
 10
4384.4406955988552
 20
1043.6733532621529
 11
4386.3311607271016
 21
1043.5274171437593
  0
LINE
  8
_0-0_90_FRAME
  6
CONTINUOUS
 62
    4
 10
4386.3311607271016
 20
1043.5274171437593
 11
4388.2216258553481
 21
1043.6733532621529
  0
LINE
  8
_0-0_90_FRAME
  6
CONTINUOUS
 62
    4
 10
4388.2216258553481
 20
1043.6733532621529
 11
4390.0546501572935
 21
1044.1067274222232
  0
LINE
  8
_0-0_90_FRAME
  6
CONTINUOUS
 62
    4
 10
4390.0546501572935
 20
1044.1067274222232
 11
4391.7745381170798
 21
1044.8143717694145
  0
LINE
  8
_0-0_90_FRAME
  6
CONTINUOUS
 62
    4
 10
4391.7745381170798
 20
1044.8143717694145
 11
4393.3290318093532
 21
1045.7747848883228
  0
LINE
  8
_0-0_90_FRAME
  6
CONTINUOUS
 62
    4
 10
4393.3290318093532
 20
1045.7747848883228
 11
4394.6708987298862
 21
1046.9587851123222
  0
LINE
  8
_0-0_90_FRAME
  6
CONTINUOUS
 62
    4
 10
4394.6708987298862
 20
1046.9587851123222
 11
4395.7593669313155
 21
1048.3303971937401
  0
LINE
  8
_0-0_90_FRAME
  6
CONTINUOUS
 62
    4
 10
4395.7593669313155
 20
1048.3303971937401
 11
4396.5613638581317
 21
1049.8479453935513
  0
LINE
  8
_0-0_90_FRAME
  6
CONTINUOUS
 62
    4
 10
4396.5613638581317
 20
1049.8479453935513
 11
4397.0525212395451
 21
1051.4653197776211
  0
LINE
  8
_0-0_90_FRAME
  6
CONTINUOUS
 62
    4
 10
4397.0525212395451
 20
1051.4653197776211
 11
4397.217915507058
 21
1053.1333772437206
  0
LINE
  8
_0-0_90_FRAME
  6
CONTINUOUS
 62
    4
 10
4397.217915507058
 20
1053.1333772437206
 11
4397.217915507058
 21
1053.1333772437206
  0
ARC
  8
_0-0_90_FRAME
  6
CONTINUOUS
 62
    4
 10
4397.5381141770567
 20
1053.1333772437206
 40
0.3201986699987063
 50
0
 51
180
  0
LINE
  8
_0-0_90_FRAME
  6
CONTINUOUS
 62
    4
 10
4397.8583128470545
 20
1053.1333772437206
 11
4397.8583128470545
 21
1053.1333772437206
  0
LINE
  8
_0-0_90_FRAME
  6
CONTINUOUS
 62
    4
 10
4397.8583128470545
 20
1053.1333772437206
 11
4398.0237071145675
 21
1051.4653197776211
  0
LINE
  8
_0-0_90_FRAME
  6
CONTINUOUS
 62
    4
 10
4398.0237071145675
 20
1051.4653197776211
 11
4398.5148644959809
 21
1049.8479453935513
  0
LINE
  8
_0-0_90_FRAME
  6
CONTINUOUS
 62
    4
 10
4398.5148644959809
 20
1049.8479453935513
 11
4399.316861422797
 21
1048.3303971937401
  0
LINE
  8
_0-0_90_FRAME
  6
CONTINUOUS
 62
    4
 10
4399.316861422797
 20
1048.3303971937401
 11
4400.4053296242264
 21
1046.9587851123222
  0
LINE
  8
_0-0_90_FRAME
  6
CONTINUOUS
 62
    4
 10
4400.4053296242264
 20
1046.9587851123222
 11
4401.7471965447594
 21
1045.7747848883228
  0
LINE
  8
_0-0_90_FRAME
  6
CONTINUOUS
 62
    4
 10
4401.7471965447594
 20
1045.7747848883228
 11
4403.3016902370327
 21
1044.8143717694145
  0
LINE
  8
_0-0_90_FRAME
  6
CONTINUOUS
 62
    4
 10
4403.3016902370327
 20
1044.8143717694145
 11
4405.0215781968191
 21
1044.1067274222232
  0
LINE
  8
_0-0_90_FRAME
  6
CONTINUOUS
 62
    4
 10
4405.0215781968191
 20
1044.1067274222232
 11
4406.8546024987645
 21
1043.6733532621529
  0
LINE
  8
_0-0_90_FRAME
  6
CONTINUOUS
 62
    4
 10
4406.8546024987645
 20
1043.6733532621529
 11
4408.7450676270109
 21
1043.5274171437593
  0
LINE
  8
_0-0_90_FRAME
  6
CONTINUOUS
 62
    4
 10
4408.7450676270109
 20
1043.5274171437593
 11
4410.6355327552574
 21
1043.6733532621529
  0
LINE
  8
_0-0_90_FRAME
  6
CONTINUOUS
 62
    4
 10
4410.6355327552574
 20
1043.6733532621529
 11
4412.4685570572028
 21
1044.1067274222232
  0
LINE
  8
_0-0_90_FRAME
  6
CONTINUOUS
 62
    4
 10
4412.4685570572028
 20
1044.1067274222232
 11
4414.1884450169891
 21
1044.8143717694145
  0
LINE
  8
_0-0_90_FRAME
  6
CONTINUOUS
 62
    4
 10
4414.1884450169891
 20
1044.8143717694145
 11
4415.7429387092625
 21
1045.7747848883228
  0
LINE
  8
_0-0_90_FRAME
  6
CONTINUOUS
 62
    4
 10
4415.7429387092625
 20
1045.7747848883228
 11
4417.0848056297955
 21
1046.9587851123222
  0
LINE
  8
_0-0_90_FRAME
  6
CONTINUOUS
 62
    4
 10
4417.0848056297955
 20
1046.9587851123222
 11
4418.1732738312248
 21
1048.3303971937401
  0
LINE
  8
_0-0_90_FRAME
  6
CONTINUOUS
 62
    4
 10
4418.1732738312248
 20
1048.3303971937401
 11
4418.975270758041
 21
1049.8479453935513
  0
LINE
  8
_0-0_90_FRAME
  6
CONTINUOUS
 62
    4
 10
4418.975270758041
 20
1049.8479453935513
 11
4419.4664281394544
 21
1051.4653197776211
  0
LINE
  8
_0-0_90_FRAME
  6
CONTINUOUS
 62
    4
 10
4419.4664281394544
 20
1051.4653197776211
 11
4419.6318224069673
 21
1053.1333772437206
  0
LINE
  8
_0-0_90_FRAME
  6
CONTINUOUS
 62
    4
 10
4419.6318224069673
 20
1053.1333772437206
 11
4419.6318224069673
 21
1053.1333772437206
  0
ARC
  8
_0-0_90_FRAME
  6
CONTINUOUS
 62
    4
 10
4419.952021076967
 20
1053.1333772437206
 40
0.3201986699987063
 50
90
 51
180
  0
ARC
  8
_0-0_90_FRAME
  6
CONTINUOUS
 62
    4
 10
4375.1242072771456
 20
1053.1333772437206
 40
0.3201986699987063
 50
0
 51
90
  0
ARC
  8
_0-0_90_FRAME
  6
CONTINUOUS
 62
    4
 10
4352.7103003772363
 20
1053.1333772437206
 40
0.3201986699987063
 50
0
 51
90
  0
LINE
  8
_0-0_90_FRAME
  6
CONTINUOUS
 62
    4
 10
4360.3950684572073
 20
989.0936432439795
 11
4364.2374524971883
 21
989.0936432439795
  0
LINE
  8
_0-0_90_FRAME
  6
CONTINUOUS
 62
    4
 10
4364.2374524971883
 20
989.0936432439795
 11
4364.2374524971883
 21
985.25125920399626
  0
LINE
  8
_0-0_90_FRAME
  6
CONTINUOUS
 62
    4
 10
4364.2374524971883
 20
985.25125920399626
 11
4360.3950684572073
 21
985.25125920399626
  0
LINE
  8
_0-0_90_FRAME
  6
CONTINUOUS
 62
    4
 10
4360.3950684572073
 20
989.0936432439795
 11
4360.3950684572073
 21
985.25125920399626
  0
LINE
  8
_0-0_90_FRAME
  6
CONTINUOUS
 62
    4
 10
4412.2672529969959
 20
989.0936432439795
 11
4408.424868957015
 21
989.0936432439795
  0
LINE
  8
_0-0_90_FRAME
  6
CONTINUOUS
 62
    4
 10
4408.424868957015
 20
989.0936432439795
 11
4408.424868957015
 21
985.25125920399626
  0
LINE
  8
_0-0_90_FRAME
  6
CONTINUOUS
 62
    4
 10
4408.424868957015
 20
985.25125920399626
 11
4412.2672529969959
 21
985.25125920399626
  0
LINE
  8
_0-0_90_FRAME
  6
CONTINUOUS
 62
    4
 10
4412.2672529969959
 20
989.0936432439795
 11
4412.2672529969959
 21
985.25125920399626
  0
LINE
  8
_0-0_90_FRAME
  6
CONTINUOUS
 62
    4
 10
4370.0010285571689
 20
989.0936432439795
 11
4373.8434125971498
 21
989.0936432439795
  0
LINE
  8
_0-0_90_FRAME
  6
CONTINUOUS
 62
    4
 10
4373.8434125971498
 20
989.0936432439795
 11
4373.8434125971498
 21
985.25125920399626
  0
LINE
  8
_0-0_90_FRAME
  6
CONTINUOUS
 62
    4
 10
4373.8434125971498
 20
985.25125920399626
 11
4370.0010285571689
 21
985.25125920399626
  0
LINE
  8
_0-0_90_FRAME
  6
CONTINUOUS
 62
    4
 10
4370.0010285571689
 20
989.0936432439795
 11
4370.0010285571689
 21
985.25125920399626
  0
LINE
  8
_0-0_90_FRAME
  6
CONTINUOUS
 62
    4
 10
4379.6069886571304
 20
989.0936432439795
 11
4383.4493726971114
 21
989.0936432439795
  0
LINE
  8
_0-0_90_FRAME
  6
CONTINUOUS
 62
    4
 10
4383.4493726971114
 20
989.0936432439795
 11
4383.4493726971114
 21
985.25125920399626
  0
LINE
  8
_0-0_90_FRAME
  6
CONTINUOUS
 62
    4
 10
4383.4493726971114
 20
985.25125920399626
 11
4379.6069886571304
 21
985.25125920399626
  0
LINE
  8
_0-0_90_FRAME
  6
CONTINUOUS
 62
    4
 10
4379.6069886571304
 20
989.0936432439795
 11
4379.6069886571304
 21
985.25125920399626
  0
LINE
  8
_0-0_90_FRAME
  6
CONTINUOUS
 62
    4
 10
4389.2129487570919
 20
989.0936432439795
 11
4393.0553327970729
 21
989.0936432439795
  0
LINE
  8
_0-0_90_FRAME
  6
CONTINUOUS
 62
    4
 10
4393.0553327970729
 20
989.0936432439795
 11
4393.0553327970729
 21
985.25125920399626
  0
LINE
  8
_0-0_90_FRAME
  6
CONTINUOUS
 62
    4
 10
4393.0553327970729
 20
985.25125920399626
 11
4389.2129487570919
 21
985.25125920399626
  0
LINE
  8
_0-0_90_FRAME
  6
CONTINUOUS
 62
    4
 10
4389.2129487570919
 20
989.0936432439795
 11
4389.2129487570919
 21
985.25125920399626
  0
LINE
  8
_0-0_90_FRAME
  6
CONTINUOUS
 62
    4
 10
4398.8189088570534
 20
989.0936432439795
 11
4402.6612928970344
 21
989.0936432439795
  0
LINE
  8
_0-0_90_FRAME
  6
CONTINUOUS
 62
    4
 10
4402.6612928970344
 20
989.0936432439795
 11
4402.6612928970344
 21
985.25125920399626
  0
LINE
  8
_0-0_90_FRAME
  6
CONTINUOUS
 62
    4
 10
4402.6612928970344
 20
985.25125920399626
 11
4398.8189088570534
 21
985.25125920399626
  0
LINE
  8
_0-0_90_FRAME
  6
CONTINUOUS
 62
    4
 10
4398.8189088570534
 20
989.0936432439795
 11
4398.8189088570534
 21
985.25125920399626
  0
LINE
  8
_0-0_90_FRAME
  6
CONTINUOUS
 62
    4
 10
4386.2913741427592
 20
1025.6557777368832
 11
4386.2913741427592
 21
1025.6557777368832
  0
LINE
  8
_0-0_90_FRAME
  6
CONTINUOUS
 62
    4
 10
4386.2913741427592
 20
1025.6557777368832
 11
4386.1794897853242
 21
1026.8790198786896
  0
LINE
  8
_0-0_90_FRAME
  6
CONTINUOUS
 62
    4
 10
4386.1794897853242
 20
1026.8790198786896
 11
4385.8472362626035
 21
1028.0650944270074
  0
LINE
  8
_0-0_90_FRAME
  6
CONTINUOUS
 62
    4
 10
4385.8472362626035
 20
1028.0650944270074
 11
4385.304708929757
 21
1029.1779631068689
  0
LINE
  8
_0-0_90_FRAME
  6
CONTINUOUS
 62
    4
 10
4385.304708929757
 20
1029.1779631068689
 11
4384.5683922052604
 21
1030.1838119665754
  0
LINE
  8
_0-0_90_FRAME
  6
CONTINUOUS
 62
    4
 10
4384.5683922052604
 20
1030.1838119665754
 11
4383.6606587001943
 21
1031.0520787975083
  0
LINE
  8
_0-0_90_FRAME
  6
CONTINUOUS
 62
    4
 10
4383.6606587001943
 20
1031.0520787975083
 11
4382.6090894377739
 21
1031.7563817513744
  0
LINE
  8
_0-0_90_FRAME
  6
CONTINUOUS
 62
    4
 10
4382.6090894377739
 20
1031.7563817513744
 11
4381.4456358179186
 21
1032.2753209393147
  0
LINE
  8
_0-0_90_FRAME
  6
CONTINUOUS
 62
    4
 10
4381.4456358179186
 20
1032.2753209393147
 11
4380.2056487901318
 21
1032.5931286566995
  0
LINE
  8
_0-0_90_FRAME
  6
CONTINUOUS
 62
    4
 10
4380.2056487901318
 20
1032.5931286566995
 11
4378.9268047327887
 21
1032.7001484768548
  0
LINE
  8
_0-0_90_FRAME
  6
CONTINUOUS
 62
    4
 10
4378.9268047327887
 20
1032.7001484768548
 11
4377.6479606754456
 21
1032.5931286566995
  0
LINE
  8
_0-0_90_FRAME
  6
CONTINUOUS
 62
    4
 10
4377.6479606754456
 20
1032.5931286566995
 11
4376.4079736476588
 21
1032.2753209393147
  0
LINE
  8
_0-0_90_FRAME
  6
CONTINUOUS
 62
    4
 10
4376.4079736476588
 20
1032.2753209393147
 11
4375.2445200278034
 21
1031.7563817513744
  0
LINE
  8
_0-0_90_FRAME
  6
CONTINUOUS
 62
    4
 10
4375.2445200278034
 20
1031.7563817513744
 11
4374.1929507653831
 21
1031.0520787975083
  0
LINE
  8
_0-0_90_FRAME
  6
CONTINUOUS
 62
    4
 10
4374.1929507653831
 20
1031.0520787975083
 11
4373.285217260317
 21
1030.1838119665754
  0
LINE
  8
_0-0_90_FRAME
  6
CONTINUOUS
 62
    4
 10
4373.285217260317
 20
1030.1838119665754
 11
4372.5489005358204
 21
1029.1779631068691
  0
LINE
  8
_0-0_90_FRAME
  6
CONTINUOUS
 62
    4
 10
4372.5489005358204
 20
1029.1779631068691
 11
4372.0063732029739
 21
1028.0650944270074
  0
LINE
  8
_0-0_90_FRAME
  6
CONTINUOUS
 62
    4
 10
4372.0063732029739
 20
1028.0650944270074
 11
4371.6741196802532
 21
1026.8790198786896
  0
LINE
  8
_0-0_90_FRAME
  6
CONTINUOUS
 62
    4
 10
4371.6741196802532
 20
1026.8790198786896
 11
4371.5622353228182
 21
1025.6557777368832
  0
LINE
  8
_0-0_90_FRAME
  6
CONTINUOUS
 62
    4
 10
4371.5622353228182
 20
1025.6557777368832
 11
4371.5622353228182
 21
1025.6557777368832
  0
LINE
  8
_0-0_90_FRAME
  6
CONTINUOUS
 62
    4
 10
4386.2913741427574
 20
1025.6557777368832
 11
4386.2913741427574
 21
1023.7345857168904
  0
LINE
  8
_0-0_90_FRAME
  6
CONTINUOUS
 62
    4
 10
4382.8167384444669
 20
1017.7530507425428
 11
4382.8167384444669
 21
1017.7530507425428
  0
LINE
  8
_0-0_90_FRAME
  6
CONTINUOUS
 62
    4
 10
4382.8167384444669
 20
1017.7530507425428
 11
4381.671746115172
 21
1017.1978124902776
  0
LINE
  8
_0-0_90_FRAME
  6
CONTINUOUS
 62
    4
 10
4381.671746115172
 20
1017.1978124902776
 11
4380.4433501309813
 21
1016.8411907847362
  0
LINE
  8
_0-0_90_FRAME
  6
CONTINUOUS
 62
    4
 10
4380.4433501309813
 20
1016.8411907847362
 11
4379.1688746822756
 21
1016.6940213959822
  0
LINE
  8
_0-0_90_FRAME
  6
CONTINUOUS
 62
    4
 10
4379.1688746822756
 20
1016.6940213959822
 11
4377.8870440606479
 21
1016.7607759914215
  0
LINE
  8
_0-0_90_FRAME
  6
CONTINUOUS
 62
    4
 10
4377.8870440606479
 20
1016.7607759914215
 11
4376.6368060408986
 21
1017.0394262664512
  0
LINE
  8
_0-0_90_FRAME
  6
CONTINUOUS
 62
    4
 10
4376.6368060408986
 20
1017.0394262664512
 11
4375.4561484726082
 21
1017.5215055734683
  0
LINE
  8
_0-0_90_FRAME
  6
CONTINUOUS
 62
    4
 10
4375.4561484726082
 20
1017.5215055734683
 11
4374.3809450385452
 21
1018.1923661766731
  0
LINE
  8
_0-0_90_FRAME
  6
CONTINUOUS
 62
    4
 10
4374.3809450385452
 20
1018.1923661766731
 11
4373.4438652509771
 21
1019.0316243161089
  0
LINE
  8
_0-0_90_FRAME
  6
CONTINUOUS
 62
    4
 10
4373.4438652509771
 20
1019.0316243161089
 11
4372.6733818050616
 21
1020.0137795578943
  0
LINE
  8
_0-0_90_FRAME
  6
CONTINUOUS
 62
    4
 10
4372.6733818050616
 20
1020.0137795578943
 11
4372.0929054504204
 21
1021.1089896120019
  0
LINE
  8
_0-0_90_FRAME
  6
CONTINUOUS
 62
    4
 10
4372.0929054504204
 20
1021.1089896120019
 11
4371.7200736673549
 21
1022.2839770751408
  0
LINE
  8
_0-0_90_FRAME
  6
CONTINUOUS
 62
    4
 10
4371.7200736673549
 20
1022.2839770751408
 11
4371.5662147609301
 21
1023.5030405478159
  0
LINE
  8
_0-0_90_FRAME
  6
CONTINUOUS
 62
    4
 10
4371.5662147609301
 20
1023.5030405478159
 11
4371.5622353228182
 21
1023.7345857168904
  0
LINE
  8
_0-0_90_FRAME
  6
CONTINUOUS
 62
    4
 10
4383.6227878221534
 20
1025.467378977364
 11
4383.6227878221534
 21
1023.9304253613701
  0
LINE
  8
_0-0_90_FRAME
  6
CONTINUOUS
 62
    4
 10
4401.2198699571736
 20
1023.1553387389291
 11
4401.2198699571736
 21
1032.7001484768559
  0
LINE
  8
_0-0_90_FRAME
  6
CONTINUOUS
 62
    4
 10
4398.3380819271833
 20
1023.7345857168904
 11
4398.3380819271833
 21
1032.7001484768559
  0
LINE
  8
_0-0_90_FRAME
  6
CONTINUOUS
 62
    4
 10
4398.3380819271833
 20
1032.7001484768559
 11
4401.2198699571736
 21
1032.7001484768559
  0
LINE
  8
_0-0_90_FRAME
  6
CONTINUOUS
 62
    4
 10
4387.7715258172266
 20
1023.1553387389291
 11
4387.7715258172266
 21
1032.7001484768559
  0
LINE
  8
_0-0_90_FRAME
  6
CONTINUOUS
 62
    4
 10
4390.6533138472169
 20
1023.7345857168904
 11
4390.6533138472169
 21
1032.7001484768559
  0
ARC
  8
_0-0_90_FRAME
  6
CONTINUOUS
 62
    4
 10
4394.5404557411048
 20
1023.4449622279133
 40
6.7751231781982479
 50
182.45003099226136
 51
265.55525728852427
  0
LINE
  8
_0-0_90_FRAME
  6
CONTINUOUS
 62
    4
 10
4390.6533138472169
 20
1032.7001484768559
 11
4387.7715258172266
 21
1032.7001484768559
  0
LINE
  8
_0-0_90_FRAME
  6
CONTINUOUS
 62
    4
 10
4394.9759958921977
 20
1016.6902149769199
 11
4394.0153998822016
 21
1016.6902149769199
  0
ARC
  8
_0-0_90_FRAME
  6
CONTINUOUS
 62
    4
 10
4396.3695038532269
 20
1023.6600354736104
 40
5.7166761254783021
 50
179.25279388138676
 51
218.96457184688023
  0
ARC
  8
_0-0_90_FRAME
  6
CONTINUOUS
 62
    4
 10
4392.6218919211724
 20
1023.6600354736104
 40
5.716676125477659
 50
321.03542815311977
 51
0.747206118613265
  0
ARC
  8
_0-0_90_FRAME
  6
CONTINUOUS
 62
    4
 10
4394.4956978872033
 20
1024.7338307534387
 40
5.3298281685001587
 50
241.15772780831895
 51
298.84227219168099
  0
LINE
  8
_0-0_90_FRAME
  6
CONTINUOUS
 62
    4
 10
4379.5474987957659
 20
1020.9348037433617
 11
4380.8549419261744
 21
1019.6623485089385
  0
LINE
  8
_0-0_90_FRAME
  6
CONTINUOUS
 62
    4
 10
4379.5474987957659
 20
1020.9348037433617
 11
4380.9658052840332
 21
1022.4408477064862
  0
LINE
  8
_0-0_90_FRAME
  6
CONTINUOUS
 62
    4
 10
4385.0429276201767
 20
1015.5864356114032
 11
4386.8960852038854
 21
1017.5542308762166
  0
LINE
  8
_0-0_90_FRAME
  6
CONTINUOUS
 62
    4
 10
4374.2308216434249
 20
1025.467378977364
 11
4374.2308216434249
 21
1023.9304253613701
  0
LINE
  8
_0-0_90_FRAME
  6
CONTINUOUS
 62
    4
 10
4383.6227878221525
 20
1025.467378977364
 11
4383.6227878221525
 21
1025.467378977364
  0
LINE
  8
_0-0_90_FRAME
  6
CONTINUOUS
 62
    4
 10
4383.6227878221525
 20
1025.467378977364
 11
4383.5514452872085
 21
1026.2785208961425
  0
LINE
  8
_0-0_90_FRAME
  6
CONTINUOUS
 62
    4
 10
4383.5514452872085
 20
1026.2785208961425
 11
4383.3395853891989
 21
1027.0650166781763
  0
LINE
  8
_0-0_90_FRAME
  6
CONTINUOUS
 62
    4
 10
4383.3395853891989
 20
1027.0650166781763
 11
4382.99364538392
 21
1027.8029690471149
  0
LINE
  8
_0-0_90_FRAME
  6
CONTINUOUS
 62
    4
 10
4382.99364538392
 20
1027.8029690471149
 11
4382.5241364833764
 21
1028.4699556936496
  0
LINE
  8
_0-0_90_FRAME
  6
CONTINUOUS
 62
    4
 10
4382.5241364833764
 20
1028.4699556936496
 11
4381.9453244779288
 21
1029.0457105660371
  0
LINE
  8
_0-0_90_FRAME
  6
CONTINUOUS
 62
    4
 10
4381.9453244779288
 20
1029.0457105660371
 11
4381.2747962774702
 21
1029.5127396438259
  0
LINE
  8
_0-0_90_FRAME
  6
CONTINUOUS
 62
    4
 10
4381.2747962774702
 20
1029.5127396438259
 11
4380.5329255420675
 21
1029.8568524848156
  0
LINE
  8
_0-0_90_FRAME
  6
CONTINUOUS
 62
    4
 10
4380.5329255420675
 20
1029.8568524848156
 11
4379.7422536386111
 21
1030.0675933944622
  0
LINE
  8
_0-0_90_FRAME
  6
CONTINUOUS
 62
    4
 10
4379.7422536386111
 20
1030.0675933944622
 11
4378.9268047327887
 21
1030.138559116866
  0
LINE
  8
_0-0_90_FRAME
  6
CONTINUOUS
 62
    4
 10
4378.9268047327887
 20
1030.138559116866
 11
4378.1113558269662
 21
1030.0675933944622
  0
LINE
  8
_0-0_90_FRAME
  6
CONTINUOUS
 62
    4
 10
4378.1113558269662
 20
1030.0675933944622
 11
4377.3206839235099
 21
1029.8568524848156
  0
LINE
  8
_0-0_90_FRAME
  6
CONTINUOUS
 62
    4
 10
4377.3206839235099
 20
1029.8568524848156
 11
4376.5788131881072
 21
1029.5127396438259
  0
LINE
  8
_0-0_90_FRAME
  6
CONTINUOUS
 62
    4
 10
4376.5788131881072
 20
1029.5127396438259
 11
4375.9082849876486
 21
1029.0457105660371
  0
LINE
  8
_0-0_90_FRAME
  6
CONTINUOUS
 62
    4
 10
4375.9082849876486
 20
1029.0457105660371
 11
4375.329472982201
 21
1028.4699556936496
  0
LINE
  8
_0-0_90_FRAME
  6
CONTINUOUS
 62
    4
 10
4375.329472982201
 20
1028.4699556936496
 11
4374.8599640816574
 21
1027.8029690471149
  0
LINE
  8
_0-0_90_FRAME
  6
CONTINUOUS
 62
    4
 10
4374.8599640816574
 20
1027.8029690471149
 11
4374.5140240763785
 21
1027.0650166781763
  0
LINE
  8
_0-0_90_FRAME
  6
CONTINUOUS
 62
    4
 10
4374.5140240763785
 20
1027.0650166781763
 11
4374.3021641783689
 21
1026.2785208961425
  0
LINE
  8
_0-0_90_FRAME
  6
CONTINUOUS
 62
    4
 10
4374.3021641783689
 20
1026.2785208961425
 11
4374.2308216434249
 21
1025.467378977364
  0
LINE
  8
_0-0_90_FRAME
  6
CONTINUOUS
 62
    4
 10
4374.2308216434249
 20
1025.467378977364
 11
4374.2308216434249
 21
1025.467378977364
  0
LINE
  8
_0-0_90_FRAME
  6
CONTINUOUS
 62
    4
 10
4380.8549419261735
 20
1019.662348508938
 11
4380.8549419261735
 21
1019.662348508938
  0
LINE
  8
_0-0_90_FRAME
  6
CONTINUOUS
 62
    4
 10
4380.8549419261735
 20
1019.662348508938
 11
4380.0821064387028
 21
1019.393921727117
  0
LINE
  8
_0-0_90_FRAME
  6
CONTINUOUS
 62
    4
 10
4380.0821064387028
 20
1019.393921727117
 11
4379.2741676935084
 21
1019.2631082251169
  0
LINE
  8
_0-0_90_FRAME
  6
CONTINUOUS
 62
    4
 10
4379.2741676935084
 20
1019.2631082251169
 11
4378.4556745005266
 21
1019.2738827050011
  0
LINE
  8
_0-0_90_FRAME
  6
CONTINUOUS
 62
    4
 10
4378.4556745005266
 20
1019.2738827050011
 11
4377.651496361249
 21
1019.4259177896507
  0
LINE
  8
_0-0_90_FRAME
  6
CONTINUOUS
 62
    4
 10
4377.651496361249
 20
1019.4259177896507
 11
4376.8860678215033
 21
1019.7145939699518
  0
LINE
  8
_0-0_90_FRAME
  6
CONTINUOUS
 62
    4
 10
4376.8860678215033
 20
1019.7145939699518
 11
4376.1826460401444
 21
1020.1311399662434
  0
LINE
  8
_0-0_90_FRAME
  6
CONTINUOUS
 62
    4
 10
4376.1826460401444
 20
1020.1311399662434
 11
4375.5626041320502
 21
1020.6628992392104
  0
LINE
  8
_0-0_90_FRAME
  6
CONTINUOUS
 62
    4
 10
4375.5626041320502
 20
1020.6628992392104
 11
4375.044781756842
 21
1021.293714552427
  0
LINE
  8
_0-0_90_FRAME
  6
CONTINUOUS
 62
    4
 10
4375.044781756842
 20
1021.293714552427
 11
4374.6449126853586
 21
1022.004418901809
  0
LINE
  8
_0-0_90_FRAME
  6
CONTINUOUS
 62
    4
 10
4374.6449126853586
 20
1022.004418901809
 11
4374.3751467369957
 21
1022.7734178953343
  0
LINE
  8
_0-0_90_FRAME
  6
CONTINUOUS
 62
    4
 10
4374.3751467369957
 20
1022.7734178953343
 11
4374.2436806135838
 21
1023.5773458877168
  0
LINE
  8
_0-0_90_FRAME
  6
CONTINUOUS
 62
    4
 10
4374.2436806135838
 20
1023.5773458877168
 11
4374.2308157483085
 21
1023.9229844764097
  0
LINE
  8
_0-0_90_FRAME
  6
CONTINUOUS
 62
    4
 10
4357.5159527847945
 20
1016.6902149769199
 11
4360.390124128664
 21
1016.6902149769199
  0
LINE
  8
_0-0_90_FRAME
  6
CONTINUOUS
 62
    4
 10
4357.5159527847945
 20
1016.6902149769199
 11
4357.5159527847945
 21
1016.767062657718
  0
LINE
  8
_0-0_90_FRAME
  6
CONTINUOUS
 62
    4
 10
4357.5159527847945
 20
1016.767062657718
 11
4363.5531050864683
 21
1032.7001484768559
  0
LINE
  8
_0-0_90_FRAME
  6
CONTINUOUS
 62
    4
 10
4357.5159527847945
 20
1016.6902149769199
 11
4357.5159527847945
 21
1016.767062657718
  0
LINE
  8
_0-0_90_FRAME
  6
CONTINUOUS
 62
    4
 10
4361.9571169666833
 20
1020.9109955011828
 11
4367.8679671568416
 21
1020.9109955011828
  0
LINE
  8
_0-0_90_FRAME
  6
CONTINUOUS
 62
    4
 10
4362.8236513019392
 20
1023.3445053931721
 11
4367.0014328215921
 21
1023.3445053931721
  0
LINE
  8
_0-0_90_FRAME
  6
CONTINUOUS
 62
    4
 10
4372.2450916047328
 20
1016.6902149769199
 11
4369.3709202608688
 21
1016.6902149769199
  0
LINE
  8
_0-0_90_FRAME
  6
CONTINUOUS
 62
    4
 10
4369.3709202608688
 20
1016.6902149769199
 11
4367.8679671568416
 21
1020.9109955011828
  0
LINE
  8
_0-0_90_FRAME
  6
CONTINUOUS
 62
    4
 10
4372.2450916047328
 20
1016.767062657718
 11
4366.2079393030599
 21
1032.7001484768559
  0
LINE
  8
_0-0_90_FRAME
  6
CONTINUOUS
 62
    4
 10
4372.2450916047328
 20
1016.6902149769199
 11
4372.2450916047328
 21
1016.767062657718
  0
LINE
  8
_0-0_90_FRAME
  6
CONTINUOUS
 62
    4
 10
4363.5531050864683
 20
1032.7001484768559
 11
4366.2079393030599
 21
1032.7001484768559
  0
LINE
  8
_0-0_90_FRAME
  6
CONTINUOUS
 62
    4
 10
4367.0014328215921
 20
1023.3445053931721
 11
4364.8805221947641
 21
1029.3007113742167
  0
LINE
  8
_0-0_90_FRAME
  6
CONTINUOUS
 62
    4
 10
4380.9658052840332
 20
1022.4408477064862
 11
4386.8960852038854
 21
1017.5542308762166
  0
LINE
  8
_0-0_90_FRAME
  6
CONTINUOUS
 62
    4
 10
4382.8167384444687
 20
1017.7530507425441
 11
4385.0429276201767
 21
1015.5864356114032
  0
LINE
  8
_0-0_90_FRAME
  6
CONTINUOUS
 62
    4
 10
4361.9571169666833
 20
1020.9109955011828
 11
4362.8236513019392
 21
1023.3445053931721
  0
LINE
  8
_0-0_90_FRAME
  6
CONTINUOUS
 62
    4
 10
4386.2913741427592
 20
1023.7345857168904
 11
4386.2913741427592
 21
1023.7345857168904
  0
LINE
  8
_0-0_90_FRAME
  6
CONTINUOUS
 62
    4
 10
4386.2913741427592
 20
1023.7345857168904
 11
4386.1794897853242
 21
1022.5113435750841
  0
LINE
  8
_0-0_90_FRAME
  6
CONTINUOUS
 62
    4
 10
4386.1794897853242
 20
1022.5113435750841
 11
4385.8472362626035
 21
1021.3252690267661
  0
LINE
  8
_0-0_90_FRAME
  6
CONTINUOUS
 62
    4
 10
4385.8472362626035
 20
1021.3252690267661
 11
4385.304708929757
 21
1020.2124003469046
  0
LINE
  8
_0-0_90_FRAME
  6
CONTINUOUS
 62
    4
 10
4385.304708929757
 20
1020.2124003469046
 11
4384.7384841694875
 21
1019.4078428948242
  0
LINE
  8
_0-0_90_FRAME
  6
CONTINUOUS
 62
    4
 10
4383.6227937172689
 20
1023.9229844764097
 11
4383.6227937172689
 21
1023.9229844764097
  0
LINE
  8
_0-0_90_FRAME
  6
CONTINUOUS
 62
    4
 10
4383.6227937172689
 20
1023.9229844764097
 11
4383.5514510927642
 21
1023.1115825865884
  0
LINE
  8
_0-0_90_FRAME
  6
CONTINUOUS
 62
    4
 10
4383.5514510927642
 20
1023.1115825865884
 11
4383.3395909287965
 21
1022.3248347326002
  0
LINE
  8
_0-0_90_FRAME
  6
CONTINUOUS
 62
    4
 10
4383.3395909287965
 20
1022.3248347326002
 11
4382.9936504892403
 21
1021.5866458498748
  0
LINE
  8
_0-0_90_FRAME
  6
CONTINUOUS
 62
    4
 10
4382.9936504892403
 20
1021.5866458498748
 11
4382.6750779452814
 21
1021.1081126492286
  0
LINE
  8
_0-0_90_FRAME
  6
CONTINUOUS
 62
    4
 10
4371.5622353228191
 20
1025.6557777368832
 11
4371.5622353228191
 21
1023.7345857168904
  0
LINE
  8
_0-0_90_FRAME
  6
CONTINUOUS
 62
    4
 10
4360.390124128664
 20
1016.6902149769199
 11
4364.8805221947641
 21
1029.3007113742167
  0
LINE
  8
_0-0_90_FRAME
  6
CONTINUOUS
 62
    4
 10
4401.0576271894633
 20
1016.6902149769199
 11
4403.9317985333328
 21
1016.6902149769199
  0
LINE
  8
_0-0_90_FRAME
  6
CONTINUOUS
 62
    4
 10
4401.0576271894633
 20
1016.6902149769199
 11
4401.0576271894633
 21
1016.767062657718
  0
LINE
  8
_0-0_90_FRAME
  6
CONTINUOUS
 62
    4
 10
4401.0576271894633
 20
1016.767062657718
 11
4407.0947794911426
 21
1032.7001484768559
  0
LINE
  8
_0-0_90_FRAME
  6
CONTINUOUS
 62
    4
 10
4401.0576271894633
 20
1016.6902149769199
 11
4401.0576271894633
 21
1016.767062657718
  0
LINE
  8
_0-0_90_FRAME
  6
CONTINUOUS
 62
    4
 10
4405.4987913713576
 20
1020.9109955011828
 11
4411.4096415615149
 21
1020.9109955011828
  0
LINE
  8
_0-0_90_FRAME
  6
CONTINUOUS
 62
    4
 10
4406.365325706608
 20
1023.3445053931721
 11
4410.5431072262645
 21
1023.3445053931721
  0
LINE
  8
_0-0_90_FRAME
  6
CONTINUOUS
 62
    4
 10
4415.7867660094071
 20
1016.6902149769199
 11
4412.9125946655386
 21
1016.6902149769199
  0
LINE
  8
_0-0_90_FRAME
  6
CONTINUOUS
 62
    4
 10
4412.9125946655386
 20
1016.6902149769199
 11
4411.4096415615149
 21
1020.9109955011828
  0
LINE
  8
_0-0_90_FRAME
  6
CONTINUOUS
 62
    4
 10
4415.7867660094071
 20
1016.767062657718
 11
4409.7496137077333
 21
1032.7001484768559
  0
LINE
  8
_0-0_90_FRAME
  6
CONTINUOUS
 62
    4
 10
4415.7867660094071
 20
1016.6902149769199
 11
4415.7867660094071
 21
1016.767062657718
  0
LINE
  8
_0-0_90_FRAME
  6
CONTINUOUS
 62
    4
 10
4407.0947794911426
 20
1032.7001484768559
 11
4409.7496137077333
 21
1032.7001484768559
  0
LINE
  8
_0-0_90_FRAME
  6
CONTINUOUS
 62
    4
 10
4410.5431072262645
 20
1023.3445053931721
 11
4408.4221965994375
 21
1029.3007113742167
  0
LINE
  8
_0-0_90_FRAME
  6
CONTINUOUS
 62
    4
 10
4405.4987913713576
 20
1020.9109955011828
 11
4406.365325706608
 21
1023.3445053931721
  0
LINE
  8
_0-0_90_FRAME
  6
CONTINUOUS
 62
    4
 10
4403.9317985333328
 20
1016.6902149769199
 11
4408.4221965994375
 21
1029.3007113742167
  0
ARC
  8
_0-0_90_FRAME
  6
CONTINUOUS
 62
    4
 10
4394.4509400332945
 20
1023.4449622279133
 40
6.7751231781982479
 50
274.44474271147573
 51
357.5499690077387
  0
LINE
  8
_0-0_90_FRAME
  6
CONTINUOUS
 62
    4
 10
4382.6750779452841
 20
1021.1081126492305
 11
4384.7384841694902
 21
1019.4078428948249
  0
LINE
  8
_0-0_90_FRAME
  6
CONTINUOUS
 62
    4
 10
4383.7957855318673
 20
1005.3551461190399
 11
4383.7957855318673
 21
1005.3551461190399
  0
LINE
  8
_0-0_90_FRAME
  6
CONTINUOUS
 62
    4
 10
4383.7957855318673
 20
1005.3551461190399
 11
4384.6028776729891
 21
1005.6814126769463
  0
LINE
  8
_0-0_90_FRAME
  6
CONTINUOUS
 62
    4
 10
4384.6028776729891
 20
1005.6814126769463
 11
4385.3281768747302
 21
1006.1169196427137
  0
LINE
  8
_0-0_90_FRAME
  6
CONTINUOUS
 62
    4
 10
4385.3281768747302
 20
1006.1169196427137
 11
4385.9496452878657
 21
1006.6484343575644
  0
LINE
  8
_0-0_90_FRAME
  6
CONTINUOUS
 62
    4
 10
4385.9496452878657
 20
1006.6484343575644
 11
4386.448399909139
 21
1007.2598070158471
  0
LINE
  8
_0-0_90_FRAME
  6
CONTINUOUS
 62
    4
 10
4386.448399909139
 20
1007.2598070158471
 11
4386.8092863317661
 21
1007.9324613687094
  0
LINE
  8
_0-0_90_FRAME
  6
CONTINUOUS
 62
    4
 10
4386.8092863317661
 20
1007.9324613687094
 11
4387.0213392044116
 21
1008.645959154019
  0
LINE
  8
_0-0_90_FRAME
  6
CONTINUOUS
 62
    4
 10
4387.0213392044116
 20
1008.645959154019
 11
4387.078115407845
 21
1009.3786211026166
  0
LINE
  8
_0-0_90_FRAME
  6
CONTINUOUS
 62
    4
 10
4387.078115407845
 20
1009.3786211026166
 11
4386.9778898258546
 21
1010.108185651939
  0
LINE
  8
_0-0_90_FRAME
  6
CONTINUOUS
 62
    4
 10
4386.9778898258546
 20
1010.108185651939
 11
4386.7237077620339
 21
1010.8124853523325
  0
LINE
  8
_0-0_90_FRAME
  6
CONTINUOUS
 62
    4
 10
4386.7237077620339
 20
1010.8124853523325
 11
4386.3232924097683
 21
1011.4701204137933
  0
LINE
  8
_0-0_90_FRAME
  6
CONTINUOUS
 62
    4
 10
4386.3232924097683
 20
1011.4701204137933
 11
4385.7888101869166
 21
1012.0611089277586
  0
LINE
  8
_0-0_90_FRAME
  6
CONTINUOUS
 62
    4
 10
4385.7888101869166
 20
1012.0611089277586
 11
4385.136501065359
 21
1012.5674940072859
  0
LINE
  8
_0-0_90_FRAME
  6
CONTINUOUS
 62
    4
 10
4385.136501065359
 20
1012.5674940072859
 11
4384.3861851276706
 21
1012.9738893979771
  0
LINE
  8
_0-0_90_FRAME
  6
CONTINUOUS
 62
    4
 10
4384.3861851276706
 20
1012.9738893979771
 11
4383.5606603439392
 21
1013.2679469815321
  0
LINE
  8
_0-0_90_FRAME
  6
CONTINUOUS
 62
    4
 10
4383.5606603439392
 20
1013.2679469815321
 11
4382.6850098669829
 21
1013.4407319670748
  0
LINE
  8
_0-0_90_FRAME
  6
CONTINUOUS
 62
    4
 10
4382.6850098669829
 20
1013.4407319670748
 11
4381.9109473928147
 21
1013.4882282769316
  0
LINE
  8
_0-0_90_FRAME
  6
CONTINUOUS
 62
    4
 10
4393.0300350499938
 20
1000.0398841369857
 11
4393.0300350499938
 21
1010.9266389169417
  0
LINE
  8
_0-0_90_FRAME
  6
CONTINUOUS
 62
    4
 10
4390.1482470200026
 20
1000.0398841369857
 11
4390.1482470200026
 21
1010.9266389169417
  0
LINE
  8
_0-0_90_FRAME
  6
CONTINUOUS
 62
    4
 10
4389.8280483500021
 20
1013.4882282769328
 11
4393.3502337199907
 21
1013.4882282769328
  0
LINE
  8
_0-0_90_FRAME
  6
CONTINUOUS
 62
    4
 10
4374.5463779828488
 20
1013.4882282769328
 11
4374.5463779828488
 21
997.47829477699702
  0
LINE
  8
_0-0_90_FRAME
  6
CONTINUOUS
 62
    4
 10
4389.8280483500021
 20
997.47829477699702
 11
4393.3502337199907
 21
997.47829477699702
  0
LINE
  8
_0-0_90_FRAME
  6
CONTINUOUS
 62
    4
 10
4393.3502337199907
 20
997.47829477699702
 11
4393.3502337199907
 21
999.71968546698895
  0
ARC
  8
_0-0_90_FRAME
  6
CONTINUOUS
 62
    4
 10
4393.3502337199907
 20
1000.0398841369857
 40
0.3201986699987063
 50
180
 51
270
  0
LINE
  8
_0-0_90_FRAME
  6
CONTINUOUS
 62
    4
 10
4389.8280483500021
 20
997.47829477699702
 11
4389.8280483500021
 21
999.71968546698895
  0
ARC
  8
_0-0_90_FRAME
  6
CONTINUOUS
 62
    4
 10
4389.8280483500021
 20
1000.0398841369857
 40
0.3201986699987063
 50
270
 51
0
  0
LINE
  8
_0-0_90_FRAME
  6
CONTINUOUS
 62
    4
 10
4393.3502337199907
 20
1013.4882282769328
 11
4393.3502337199907
 21
1011.2468375869407
  0
ARC
  8
_0-0_90_FRAME
  6
CONTINUOUS
 62
    4
 10
4393.3502337199907
 20
1010.9266389169417
 40
0.3201986699987063
 50
90
 51
180
  0
LINE
  8
_0-0_90_FRAME
  6
CONTINUOUS
 62
    4
 10
4389.8280483500021
 20
1013.4882282769328
 11
4389.8280483500021
 21
1011.2468375869407
  0
ARC
  8
_0-0_90_FRAME
  6
CONTINUOUS
 62
    4
 10
4389.8280483500021
 20
1010.9266389169417
 40
0.3201986699987063
 50
0
 51
90
  0
LINE
  8
_0-0_90_FRAME
  6
CONTINUOUS
 62
    4
 10
4367.598118868329
 20
997.47829477699702
 11
4367.598118868329
 21
1010.9266389169417
  0
LINE
  8
_0-0_90_FRAME
  6
CONTINUOUS
 62
    4
 10
4364.7163308383433
 20
997.47829477699702
 11
4364.7163308383433
 21
1010.9266389169417
  0
LINE
  8
_0-0_90_FRAME
  6
CONTINUOUS
 62
    4
 10
4359.5931521183657
 20
1013.4882282769328
 11
4372.7212975883112
 21
1013.4882282769328
  0
LINE
  8
_0-0_90_FRAME
  6
CONTINUOUS
 62
    4
 10
4364.7163308383433
 20
997.47829477699702
 11
4367.598118868329
 21
997.47829477699702
  0
LINE
  8
_0-0_90_FRAME
  6
CONTINUOUS
 62
    4
 10
4372.7212975883112
 20
1013.4882282769328
 11
4372.7212975883112
 21
1011.2468375869407
  0
ARC
  8
_0-0_90_FRAME
  6
CONTINUOUS
 62
    4
 10
4367.9183175383305
 20
1010.9266389169417
 40
0.3201986699987063
 50
90
 51
180
  0
LINE
  8
_0-0_90_FRAME
  6
CONTINUOUS
 62
    4
 10
4359.5931521183657
 20
1013.4882282769328
 11
4359.5931521183657
 21
1011.2468375869407
  0
ARC
  8
_0-0_90_FRAME
  6
CONTINUOUS
 62
    4
 10
4364.3961321683464
 20
1010.9266389169417
 40
0.3201986699987063
 50
0
 51
90
  0
LINE
  8
_0-0_90_FRAME
  6
CONTINUOUS
 62
    4
 10
4359.5931521183657
 20
1011.2468375869407
 11
4364.3961321683464
 21
1011.2468375869407
  0
LINE
  8
_0-0_90_FRAME
  6
CONTINUOUS
 62
    4
 10
4367.9183175383305
 20
1011.2468375869407
 11
4372.7212975883112
 21
1011.2468375869407
  0
LINE
  8
_0-0_90_FRAME
  6
CONTINUOUS
 62
    4
 10
4374.5463779828488
 20
997.47829477699702
 11
4377.4281660128345
 21
997.47829477699702
  0
LINE
  8
_0-0_90_FRAME
  6
CONTINUOUS
 62
    4
 10
4377.4281660128345
 20
997.47829477699702
 11
4377.4281660128345
 21
1011.2468375869407
  0
LINE
  8
_0-0_90_FRAME
  6
CONTINUOUS
 62
    4
 10
4374.5463779828488
 20
1013.4882282769328
 11
4381.9109473928147
 21
1013.4882282769328
  0
LINE
  8
_0-0_90_FRAME
  6
CONTINUOUS
 62
    4
 10
4377.4281660128345
 20
1011.2468375869407
 11
4382.2951857968173
 21
1011.2468375869407
  0
LINE
  8
_0-0_90_FRAME
  6
CONTINUOUS
 62
    4
 10
4377.5242256138308
 20
1005.0651336676806
 11
4377.5242256138308
 21
1007.3065243576726
  0
LINE
  8
_0-0_90_FRAME
  6
CONTINUOUS
 62
    4
 10
4377.5242256138308
 20
1005.0651336676806
 11
4380.6684381110035
 21
1005.0651336676806
  0
LINE
  8
_0-0_90_FRAME
  6
CONTINUOUS
 62
    4
 10
4377.5242256138308
 20
1007.3065243576726
 11
4382.2951857968173
 21
1007.3065243576726
  0
ARC
  8
_0-0_90_FRAME
  6
CONTINUOUS
 62
    4
 10
4382.2264877286143
 20
1009.2766809723067
 40
1.9713539790611523
 50
271.99705710435398
 51
88.002942895541636
  0
LINE
  8
_0-0_90_FRAME
  6
CONTINUOUS
 62
    4
 10
4384.2939013086761
 20
997.47829477699702
 11
4387.3998284076615
 21
997.47829477699702
  0
LINE
  8
_0-0_90_FRAME
  6
CONTINUOUS
 62
    4
 10
4384.6409003874587
 20
1004.3625970308899
 11
4387.3998284076615
 21
997.60637424499657
  0
LINE
  8
_0-0_90_FRAME
  6
CONTINUOUS
 62
    4
 10
4381.8565697620143
 20
1004.2626466210863
 11
4384.2939013086761
 21
997.47829477699702
  0
ARC
  8
_0-0_90_FRAME
  6
CONTINUOUS
 62
    4
 10
4380.6684381110035
 20
1003.7843389876884
 40
1.2807946799948255
 50
21.928297866550249
 51
90
  0
ARC
  8
_0-0_90_FRAME
  6
CONTINUOUS
 62
    4
 10
4382.7035781875538
 20
1003.5691114745075
 40
2.0935225421386505
 50
22.272952259980951
 51
58.553113012863221
  0
LINE
  8
_0-0_90_FRAME
  6
CONTINUOUS
 62
    4
 10
4387.3998284076615
 20
997.60637424499657
 11
4387.3998284076615
 21
997.47829477699702
  0
LINE
  8
_0-0_90_FRAME
  6
CONTINUOUS
 62
    4
 10
4396.2351419061733
 20
1013.4882282769328
 11
4396.2351419061733
 21
997.47829477699702
  0
LINE
  8
_0-0_90_FRAME
  6
CONTINUOUS
 62
    4
 10
4396.2351419061733
 20
997.47829477699702
 11
4399.1169299361645
 21
997.47829477699702
  0
LINE
  8
_0-0_90_FRAME
  6
CONTINUOUS
 62
    4
 10
4399.1169299361645
 20
997.47829477699702
 11
4399.1142763060743
 21
1008.685248226952
  0
LINE
  8
_0-0_90_FRAME
  6
CONTINUOUS
 62
    4
 10
4396.2351419061733
 20
1013.4882282769328
 11
4400.416805049601
 21
1013.4882282769328
  0
LINE
  8
_0-0_90_FRAME
  6
CONTINUOUS
 62
    4
 10
4409.3659410062091
 20
1008.685248226952
 11
4409.3659410062091
 21
997.47829477699702
  0
LINE
  8
_0-0_90_FRAME
  6
CONTINUOUS
 62
    4
 10
4409.3659410062091
 20
997.47829477699702
 11
4412.2477290361958
 21
997.47829477699702
  0
LINE
  8
_0-0_90_FRAME
  6
CONTINUOUS
 62
    4
 10
4412.2477290361958
 20
997.47829477699702
 11
4412.2477290361958
 21
1013.4882282769328
  0
LINE
  8
_0-0_90_FRAME
  6
CONTINUOUS
 62
    4
 10
4402.7992146411525
 20
997.47829477699702
 11
4405.6810026711373
 21
997.47829477699702
  0
LINE
  8
_0-0_90_FRAME
  6
CONTINUOUS
 62
    4
 10
4412.2477290361958
 20
1013.4882282769328
 11
4408.0634122626834
 21
1013.4882282769328
  0
LINE
  8
_0-0_90_FRAME
  6
CONTINUOUS
 62
    4
 10
4405.6810026711373
 20
997.47829477699702
 11
4409.3659410062091
 21
1008.685248226952
  0
LINE
  8
_0-0_90_FRAME
  6
CONTINUOUS
 62
    4
 10
4402.7992146411525
 20
997.47829477699702
 11
4399.1142763060743
 21
1008.685248226952
  0
LINE
  8
_0-0_90_FRAME
  6
CONTINUOUS
 62
    4
 10
4404.2401086561422
 20
1001.8604663858555
 11
4408.0634122626834
 21
1013.4882282769328
  0
LINE
  8
_0-0_90_FRAME
  6
CONTINUOUS
 62
    4
 10
4404.2401086561422
 20
1001.8604663858555
 11
4400.416805049601
 21
1013.4882282769328
  0
TEXT
  8
_0-0_90_FRAME
 62
    2
 10
4431.1244372494102
 20
1026.2676845957405
 40
18.901928571352201
 41
1
 50
0
  1
ŖöÄ«ē’Äą
  0
LINE
  8
_0-0_90_FRAME
  6
CONTINUOUS
 62
   18
 10
4488.6666627610584
 20
1065.5621720274617
 11
4488.6666627610584
 21
1153.955029169965
  0
TEXT
  8
_0-0_90_FRAME
 62
    7
 10
4653.643638829838
 20
997.12526122276051
 40
25
 41
1
 50
0
  1
Äøōc
  0
TEXT
  8
_0-0_90_FRAME
 62
    7
 10
4525.1257816875413
 20
1086.7783612949129
 40
25
 41
1
 50
0
  1
1üF5
  0
TEXT
  8
_0-0_90_FRAME
 62
    7
 10
4749.100271894109
 20
1136.840478375161
 40
12.5
 41
1
 50
0
  1
ŗ@ŖĒ
  0
LINE
  8
_0-0_90_FRAME
  6
CONTINUOUS
 62
   18
 10
4934.5118799172515
 20
1153.955029169965
 11
4934.5118799172515
 21
1026.6693148847637
  0
TEXT
  8
_0-0_90_FRAME
 62
    7
 10
4937.9097747657097
 20
1136.840478375161
 40
12.5
 41
1
 50
0
  1
ĢöĢi¢╝
  0
TEXT
  8
_0-0_90_FRAME
 62
    7
 10
4937.9097747657042
 20
1065.5011926611583
 40
12.5
 41
1
 50
0
  1
É}¢╩öįŹå
  0
LINE
  8
_0-0_90_FRAME
  6
CONTINUOUS
 62
   18
 10
4745.7023770456608
 20
1090.3121720273655
 11
4934.5118799172515
 21
1090.3121720273655
  0
TEXT
  8
_0-0_90_FRAME
 62
    7
 10
4749.100271894109
 20
1072.5726212325612
 40
12.5
 41
1
 50
0
  1
ī^Ä«
  0
LINE
  8
_0-0_90_FRAME
  6
CONTINUOUS
 62
   18
 10
4574.0595264658505
 20
1153.955029169965
 11
5330.1666627576615
 21
1153.955029169965
  0
LINE
  8
_0-0_90_FRAME
  6
CONTINUOUS
 62
    4
 10
4574.0595264658505
 20
1293.955025409344
 11
4574.0595264658505
 21
1153.955029169965
  0
LINE
  8
_0-0_90_FRAME
  6
CONTINUOUS
 62
    4
 10
4934.5118799172515
 20
1293.955025409344
 11
4934.5118799172515
 21
1153.955029169965
  0
LINE
  8
_0-0_90_FRAME
  6
CONTINUOUS
 62
    4
 10
5071.7324442396603
 20
1293.955025409344
 11
5071.7324442396812
 21
1153.955029169965
  0
LINE
  8
_0-0_90_FRAME
  6
CONTINUOUS
 62
    4
 10
5036.7324486146599
 20
1293.955025409344
 11
5036.7324486146781
 21
1153.955029169965
  0
LINE
  8
_0-0_90_FRAME
  6
CONTINUOUS
 62
    4
 10
4626.5595199033596
 20
1293.955025409344
 11
4626.5595199033596
 21
1153.955029169965
  0
LINE
  8
_0-0_90_FRAME
  6
CONTINUOUS
 62
    4
 10
5124.2324376771721
 20
1293.955025409344
 11
5124.2324376771721
 21
1153.955029169965
  0
INSERT
  2
-003-Jis_w20130906110600
  8
_0-2_08_DIM
 10
5065.6754906498481
 20
1404.1951259163554
 41
3
 42
3
 50
0
  0
LINE
  8
_0-2_08_DIM
  6
CONTINUOUS
 62
    3
 10
2188.9870631704039
 20
2921.1551975974471
 11
2312.4042872522023
 21
2921.1551975974471
  0
INSERT
  2
-004-p1ba05
  8
_0-2_08_DIM
 10
2259.4725654106073
 20
2927.9931434733485
 41
7.5
 42
7.5
 50
0
  0
TEXT
  8
_0-0_90_FRAME
 62
    3
 10
5051.0535340488141
 20
1197.3184011980854
 40
14.999999999999998
 41
1
 50
0
  1
1
  0
TEXT
  8
_0-0_90_FRAME
 62
    3
 10
4942.5687512066606
 20
1197.6517327118954
 40
14.999999999999998
 41
1
 50
0
  1
SS400
  0
TEXT
  8
_0-0_90_FRAME
 62
    3
 10
4650.9439374308331
 20
1197.4527708146713
 40
14.999999999999998
 41
1
 50
0
  1
ātāīü[āĆ
  0
TEXT
  8
_0-0_90_FRAME
 62
    3
 10
4596.5216476882588
 20
1197.0669048996212
 40
14.999999999999998
 41
1
 50
0
  1
1
  0
TEXT
  8
_0-0_90_FRAME
 62
    3
 10
5083.1658959622728
 20
1171.9193574140024
 40
12.5
 41
1
 50
0
  1
ÅdŚ╩
  0
TEXT
  8
_0-0_90_FRAME
 62
    3
 10
4957.854064549334
 20
1163.8516178671357
 40
14.999999999999998
 41
1
 50
0
  1
Ź▐ü@Ä┐
  0
TEXT
  8
_0-0_90_FRAME
 62
    3
 10
5038.5706591778962
 20
1163.7388832274096
 40
14.999999999999998
 41
1
 50
0
  1
ÉöŚ╩
  0
TEXT
  8
_0-0_90_FRAME
 62
    3
 10
5088.6907197894188
 20
1159.6884846775663
 40
9.9999999999999982
 41
1
 50
0
  1
kg
  0
TEXT
  8
_0-0_90_FRAME
 62
    3
 10
5191.1346095901372
 20
1163.4873869289163
 40
14.999999999999998
 41
1
 50
0
  1
ö§  Źl
  0
TEXT
  8
_0-0_90_FRAME
 62
    3
 10
4584.7494994385697
 20
1163.4873869289163
 40
14.999999999999998
 41
1
 50
0
  1
ĢäŹå
  0
TEXT
  8
_0-0_90_FRAME
 62
    3
 10
4711.9105699372658
 20
1164.0318313053081
 40
14.999999999999998
 41
1
 50
0
  1
Ģöü@ü@Ģiü@ü@¢╝
  0
LINE
  8
_0-0_90_FRAME
  6
CONTINUOUS
 62
    4
 10
4574.0594975830591
 20
1293.955025409344
 11
5330.166633874871
 21
1293.955025409344
  0
LINE
  8
_0-0_90_FRAME
  6
CONTINUOUS
 62
    4
 10
4574.0594975830591
 20
1258.9550235404263
 11
5330.166633874871
 21
1258.9550235404263
  0
LINE
  8
_0-0_90_FRAME
  6
CONTINUOUS
 62
    4
 10
4574.0594975830591
 20
1223.955025409344
 11
5330.166633874871
 21
1223.955025409344
  0
LINE
  8
_0-0_90_FRAME
  6
CONTINUOUS
 62
    4
 10
4574.0594975830591
 20
1188.955025409344
 11
5330.166633874871
 21
1188.955025409344
  0
TEXT
  8
_0-0_90_FRAME
 62
    7
 10
4990.6564491562613
 20
1107.9009618311115
 40
19.999999999999996
 41
1
 50
0
  1
¢¹źēśōDŹ¼ŹćŚ¹éĶŗ@ ĢöĢiÉ}
  0
TEXT
  8
_0-0_90_FRAME
 62
    7
 10
4757.9063361197914
 20
1107.1833239337896
 40
15.999999999999998
 41
0.9
 50
0
  1
ŚLŗ@É½ēśōDöRŚ┐Ä{É▌
  0
LINE
  8
_0-3_0
  6
CONTINUOUS
 62
   18
 10
2792.6212039230077
 20
1222.6467088827533
 11
3902.6212039184566
 21
1222.6467088827533
  0
LINE
  8
_0-3_0
  6
CONTINUOUS
 62
   18
 10
3902.6212039184566
 20
1222.6467088827533
 11
3902.6212039184566
 21
1267.6467088827533
  0
LINE
  8
_0-3_0
  6
CONTINUOUS
 62
   18
 10
3902.6212039184566
 20
1267.6467088827533
 11
3897.6212039184566
 21
1272.6467088827535
  0
LINE
  8
_0-3_0
  6
CONTINUOUS
 62
   18
 10
3897.6212039184566
 20
1272.6467088827535
 11
2797.621203923004
 21
1272.6467088827535
  0
LINE
  8
_0-3_0
  6
CONTINUOUS
 62
   18
 10
2797.621203923004
 20
1272.6467088827535
 11
2792.621203923004
 21
1267.6467088827533
  0
LINE
  8
_0-3_0
  6
CONTINUOUS
 62
   18
 10
2792.621203923004
 20
1267.6467088827533
 11
2792.6212039230077
 21
1222.6467088827533
  0
LINE
  8
_0-3_0
  6
CONTINUOUS
 62
   18
 10
2792.6212039230077
 20
1228.6467088827533
 11
3902.6212039184566
 21
1228.6467088827533
  0
LINE
  8
_0-4_05_CENTER
  6
CENTER2
 62
    4
 10
3877.6212039214433
 20
1216.2423813580983
 11
3877.6212039214433
 21
1235.0763015118657
  0
LINE
  8
_0-4_05_CENTER
  6
CENTER2
 62
    4
 10
2817.6212039200168
 20
1216.2423813580983
 11
2817.6212039200168
 21
1235.0763015118657
  0
LINE
  8
_0-3_0
  6
CONTINUOUS
 62
   18
 10
2902.621203918457
 20
1512.6467088829147
 11
3902.6212039184566
 21
1512.6467088829147
  0
LINE
  8
_0-3_0
  6
CONTINUOUS
 62
   18
 10
3902.6212039184566
 20
1512.6467088829147
 11
3902.6212039184566
 21
1467.6467088829147
  0
LINE
  8
_0-3_0
  6
CONTINUOUS
 62
   18
 10
3902.6212039184566
 20
1467.6467088829147
 11
3897.6212039184566
 21
1462.6467088829147
  0
LINE
  8
_0-3_0
  6
CONTINUOUS
 62
   18
 10
3897.6212039184566
 20
1462.6467088829147
 11
2907.6212039184529
 21
1462.6467088829147
  0
LINE
  8
_0-3_0
  6
CONTINUOUS
 62
   18
 10
2907.6212039184529
 20
1462.6467088829147
 11
2902.6212039184534
 21
1467.6467088829147
  0
LINE
  8
_0-3_0
  6
CONTINUOUS
 62
   18
 10
2902.6212039184534
 20
1467.6467088829147
 11
2902.621203918457
 21
1512.6467088829147
  0
LINE
  8
_0-3_0
  6
CONTINUOUS
 62
   18
 10
2902.621203918457
 20
1506.6467088829147
 11
3902.6212039184566
 21
1506.6467088829147
  0
INSERT
  2
-005-KK015066_54_5
  8
_0-5_04_HIDDEN
 10
2952.6212039184566
 20
1512.6467088829133
 41
1
 42
1
 50
270
  0
LINE
  8
_0-5_04_HIDDEN
  6
CONTINUOUS
 62
    7
 10
2902.621203918457
 20
1272.6467088827535
 11
2902.621203918457
 21
1222.6467088827533
  0
LINE
  8
_0-3_0
  6
CONTINUOUS
 62
   18
 10
2902.621203918457
 20
1222.6467088827533
 11
2952.6212039184566
 21
1222.6467088827533
  0
LINE
  8
_0-3_0
  6
CONTINUOUS
 62
   18
 10
2952.6212039184566
 20
1272.6467088827535
 11
2952.6212039184566
 21
1462.6467088829133
  0
INSERT
  2
-005-KK015066_54_5
  8
_0-5_04_HIDDEN
 10
2952.6212039184566
 20
1222.6467088827533
 41
-1
 42
1
 50
270
  0
INSERT
  2
-005-KK015066_54_5
  8
_0-5_04_HIDDEN
 10
3852.6212039184566
 20
1512.6467088829147
 41
1
 42
1
 50
270
  0
INSERT
  2
-005-KK015066_54_5
  8
_0-5_04_HIDDEN
 10
3852.6212039184566
 20
1222.6467088827549
 41
-1
 42
1
 50
270
  0
LINE
  8
_0-5_04_HIDDEN
  6
CONTINUOUS
 62
    7
 10
2946.6212039184561
 20
1512.6467088829133
 11
2946.6212039184561
 21
1222.6467088827533
  0
LINE
  8
_0-5_04_HIDDEN
  6
CONTINUOUS
 62
    7
 10
3846.6212039184566
 20
1512.6467088829133
 11
3846.6212039184566
 21
1222.6467088827533
  0
LINE
  8
_0-4_05_CENTER
  6
CENTER2
 62
    4
 10
3877.6212039214433
 20
1500.2423813582584
 11
3877.6212039214433
 21
1519.0763015120256
  0
LINE
  8
_0-4_05_CENTER
  6
CENTER2
 62
    4
 10
2977.6212039184561
 20
1500.242381358257
 11
2977.6212039184561
 21
1519.0763015120242
  0
LINE
  8
_0-3_0
  6
CONTINUOUS
 62
   18
 10
2902.6212039184534
 20
1467.6467088829147
 11
2902.621203918457
 21
1272.6467088827535
  0
LINE
  8
_0-5_04_HIDDEN
  6
CONTINUOUS
 62
    7
 10
3802.6212039184602
 20
1272.6467088827535
 11
3802.6212039184602
 21
1222.6467088827533
  0
LINE
  8
_0-3_0
  6
CONTINUOUS
 62
   18
 10
3852.6212039184597
 20
1272.6467088827535
 11
3852.6212039184597
 21
1462.6467088829133
  0
LINE
  8
_0-3_0
  6
CONTINUOUS
 62
   18
 10
3802.6212039184602
 20
1462.6467088829147
 11
3802.6212039184602
 21
1272.6467088827535
  0
LINE
  8
_0-5_04_HIDDEN
  6
CONTINUOUS
 62
    7
 10
3802.6212039184602
 20
1462.6467088829147
 11
3802.6212039184602
 21
1512.6467088829147
  0
INSERT
  2
-005-KK015066_54_5
  8
_0-3_0
 10
2363.4727018391836
 20
2460.2138617272531
 41
-1
 42
1
 50
270
  0
INSERT
  2
-005-KK015066_54_5
  8
_0-3_0
 10
2653.4727018393455
 20
2460.2138617272531
 41
1
 42
1
 50
89.999999999999986
  0
INSERT
  2
-005-KK015066_54_5
  8
_0-3_0
 10
2363.4727018391836
 20
1860.213861732921
 41
1
 42
1
 50
270
  0
INSERT
  2
-005-KK015066_54_5
  8
_0-3_0
 10
2653.4727018393455
 20
1860.213861732921
 41
-1
 42
1
 50
90
  0
LINE
  8
_0-3_0
  6
CONTINUOUS
 62
   18
 10
2653.4727018393455
 20
2410.213861732921
 11
2653.4727018393455
 21
2264.2138617270894
  0
LINE
  8
_0-3_0
  6
CONTINUOUS
 62
   18
 10
2653.4727018393455
 20
2264.2138617270857
 11
2653.4727018393455
 21
2077.6003035155077
  0
LINE
  8
_0-3_0
  6
CONTINUOUS
 62
   18
 10
2653.4727018393455
 20
2077.6003035155077
 11
2653.4727018393455
 21
1910.2138617272533
  0
LINE
  8
_0-3_0
  6
CONTINUOUS
 62
   18
 10
2603.4727018393451
 20
1910.2138617272533
 11
2603.4727018393451
 21
2116.4553084158679
  0
LINE
  8
_0-3_0
  6
CONTINUOUS
 62
   18
 10
2603.4727018393451
 20
2116.4553084158679
 11
2603.4652037487472
 21
2235.9719682041609
  0
LINE
  8
_0-3_0
  6
CONTINUOUS
 62
   18
 10
2603.4727018393451
 20
2235.972101644903
 11
2603.4727018393451
 21
2410.213861732921
  0
LINE
  8
_0-3_0
  6
CONTINUOUS
 62
   18
 10
2603.4727018393451
 20
2460.2138617272531
 11
2653.4727018393455
 21
2460.2138617272531
  0
LINE
  8
_0-3_0
  6
CONTINUOUS
 62
   18
 10
2653.4727018393455
 20
1860.2138617272533
 11
2653.4727018393455
 21
1910.2138617272533
  0
LINE
  8
_0-3_0
  6
CONTINUOUS
 62
   18
 10
2363.4727018393451
 20
1910.2138617272533
 11
2363.4727018393451
 21
1860.2138617272533
  0
LINE
  8
_0-5_04_HIDDEN
  6
CONTINUOUS
 62
    7
 10
2647.4727018393455
 20
2460.2138617272531
 11
2647.4727018393455
 21
1860.213861732921
  0
LINE
  8
_0-3_0
  6
CONTINUOUS
 62
   18
 10
2653.4727018393437
 20
1866.2138617272531
 11
2363.4727018391836
 21
1866.2138617272531
  0
LINE
  8
_0-5_04_HIDDEN
  6
CONTINUOUS
 62
    7
 10
2653.4727018393455
 20
1910.2138617272533
 11
2603.4727018393451
 21
1910.2138617272533
  0
LINE
  8
_0-4_05_CENTER
  6
CENTER2
 62
    4
 10
2641.0683743146874
 20
2085.2138617272531
 11
2659.9022944684548
 21
2085.2138617272531
  0
LINE
  8
_0-4_05_CENTER
  6
CENTER2
 62
    4
 10
2641.0683743146874
 20
2235.2138617272531
 11
2659.9022944684548
 21
2235.2138617272531
  0
LINE
  8
_0-4_05_CENTER
  6
CENTER2
 62
    4
 10
2357.0683743145291
 20
1835.2138617329213
 11
2375.9022944682961
 21
1835.2138617329213
  0
LINE
  8
_0-4_05_CENTER
  6
CENTER2
 62
    4
 10
2357.0683743145291
 20
2485.2138617272531
 11
2375.9022944682961
 21
2485.2138617272531
  0
LINE
  8
_0-3_0
  6
CONTINUOUS
 62
   18
 10
2653.4727018393455
 20
1910.2138617272533
 11
2653.4727018393455
 21
1860.213861732921
  0
LINE
  8
_0-3_0
  6
CONTINUOUS
 62
   18
 10
2653.4727018393455
 20
1860.213861732921
 11
2363.4727018391836
 21
1860.213861732921
  0
LINE
  8
_0-3_0
  6
CONTINUOUS
 62
   18
 10
2363.4727018391836
 20
1860.213861732921
 11
2363.4727018391836
 21
1910.2138617272533
  0
LINE
  8
_0-3_0
  6
CONTINUOUS
 62
   18
 10
2363.4727018391836
 20
1910.2138617272533
 11
2653.4727018393455
 21
1910.2138617272533
  0
LINE
  8
_0-5_04_HIDDEN
  6
CONTINUOUS
 62
    7
 10
2603.4727018393451
 20
1910.2138617272533
 11
2603.4727018393451
 21
1860.213861732921
  0
LINE
  8
_0-3_0
  6
CONTINUOUS
 62
   18
 10
2653.4727018393437
 20
2454.2138617329215
 11
2363.4727018391836
 21
2454.2138617329215
  0
LINE
  8
_0-3_0
  6
CONTINUOUS
 62
   18
 10
2653.4727018393455
 20
2410.213861732921
 11
2653.4727018393455
 21
2460.2138617272531
  0
LINE
  8
_0-3_0
  6
CONTINUOUS
 62
   18
 10
2653.4727018393455
 20
2460.2138617272531
 11
2363.4727018391836
 21
2460.2138617272531
  0
LINE
  8
_0-3_0
  6
CONTINUOUS
 62
   18
 10
2363.4727018391836
 20
2460.2138617272531
 11
2363.4727018391836
 21
2410.213861732921
  0
LINE
  8
_0-3_0
  6
CONTINUOUS
 62
   18
 10
2363.4727018391836
 20
2410.213861732921
 11
2653.4727018393455
 21
2410.213861732921
  0
LINE
  8
_0-5_04_HIDDEN
  6
CONTINUOUS
 62
    7
 10
2603.4727018393451
 20
2410.213861732921
 11
2603.4727018393451
 21
2460.2138617272531
  0
LINE
  8
_0-3_0
  6
CONTINUOUS
 62
   18
 10
2363.4727018391836
 20
2410.213861732921
 11
2363.4727018391836
 21
1910.2138617272533
  0
LINE
  8
_0-3_0
  6
CONTINUOUS
 62
   18
 10
2413.4727018391836
 20
1910.2138617272533
 11
2413.4727018391836
 21
2410.213861732921
  0
LINE
  8
_0-5_04_HIDDEN
  6
CONTINUOUS
 62
    7
 10
2369.4727018391836
 20
2460.2138617272531
 11
2369.4727018391836
 21
1860.213861732921
  0
LINE
  8
_0-5_04_HIDDEN
  6
CONTINUOUS
 62
    7
 10
2413.4727018391836
 20
1910.2138617272533
 11
2413.4727018391836
 21
1860.213861732921
  0
LINE
  8
_0-5_04_HIDDEN
  6
CONTINUOUS
 62
    7
 10
2413.4727018391836
 20
2410.213861732921
 11
2413.4727018391836
 21
2460.2138617272531
  0
INSERT
  2
-005-KK015066_54_5
  8
_0-3_0
 10
2952.6212339214208
 20
2869.7777435522762
 41
-1
 42
1
 50
0
  0
INSERT
  2
-005-KK015066_54_5
  8
_0-3_0
 10
3852.6212339214208
 20
2869.7777435522762
 41
-1
 42
1
 50
0
  0
INSERT
  2
-005-KK015066_54_5
  8
_0-3_0
 10
2952.6212339214208
 20
3469.7777435522762
 41
1
 42
1
 50
180
  0
INSERT
  2
-005-KK015066_54_5
  8
_0-3_0
 10
3852.6212339214208
 20
3469.7777435522762
 41
1
 42
1
 50
180
  0
LINE
  8
_0-3_0
  6
CONTINUOUS
 62
   18
 10
3902.6212339214203
 20
3469.7777435522762
 11
3852.6212339214208
 21
3469.7777435522762
  0
LINE
  8
_0-3_0
  6
CONTINUOUS
 62
   18
 10
3852.6212339214208
 20
3469.7777435522762
 11
3852.6212339214208
 21
2869.7777435522762
  0
LINE
  8
_0-3_0
  6
CONTINUOUS
 62
   18
 10
3852.6212339214208
 20
2869.7777435522762
 11
3902.6212339214203
 21
2869.7777435522762
  0
LINE
  8
_0-3_0
  6
CONTINUOUS
 62
   18
 10
3902.6212339214203
 20
2869.7777435522762
 11
3902.6212339214203
 21
3469.7777435522762
  0
LINE
  8
_0-3_0
  6
CONTINUOUS
 62
   18
 10
3002.6212339214208
 20
3469.7777435522762
 11
2952.6212339214208
 21
3469.7777435522762
  0
LINE
  8
_0-3_0
  6
CONTINUOUS
 62
   18
 10
2952.6212339214208
 20
3469.7777435522762
 11
2952.6212339214208
 21
2869.7777435522762
  0
LINE
  8
_0-3_0
  6
CONTINUOUS
 62
   18
 10
2952.6212339214208
 20
2869.7777435522762
 11
3002.6212339214208
 21
2869.7777435522762
  0
LINE
  8
_0-3_0
  6
CONTINUOUS
 62
   18
 10
3002.6212339214208
 20
2869.7777435522762
 11
3002.6212339214208
 21
3469.7777435522762
  0
LINE
  8
_0-3_0
  6
CONTINUOUS
 62
   18
 10
2792.6212339259719
 20
2869.7777435511471
 11
3902.6212339214203
 21
2869.7777435522762
  0
LINE
  8
_0-3_0
  6
CONTINUOUS
 62
   18
 10
3902.6212339214203
 20
2869.7777435522762
 11
3902.6212339214203
 21
2824.7777435522767
  0
LINE
  8
_0-3_0
  6
CONTINUOUS
 62
   18
 10
3902.6212339214203
 20
2824.7777435522767
 11
3897.6212339214135
 21
2819.7777435522694
  0
LINE
  8
_0-3_0
  6
CONTINUOUS
 62
   18
 10
3897.6212339214135
 20
2819.7777435522694
 11
2797.6212339259682
 21
2819.7777435511543
  0
LINE
  8
_0-3_0
  6
CONTINUOUS
 62
   18
 10
2797.6212339259682
 20
2819.7777435511543
 11
2792.6212339259682
 21
2824.7777435511398
  0
LINE
  8
_0-3_0
  6
CONTINUOUS
 62
   18
 10
2792.6212339259682
 20
2824.7777435511398
 11
2792.6212339259719
 21
2869.7777435511471
  0
LINE
  8
_0-3_0
  6
CONTINUOUS
 62
   18
 10
2792.6212339259719
 20
3469.7777435522762
 11
3902.6212339214203
 21
3469.7777435522762
  0
LINE
  8
_0-3_0
  6
CONTINUOUS
 62
   18
 10
3902.6212339214203
 20
3469.7777435522762
 11
3902.6212339214203
 21
3514.7777435522762
  0
LINE
  8
_0-3_0
  6
CONTINUOUS
 62
   18
 10
3902.6212339214203
 20
3514.7777435522762
 11
3897.6212339214208
 21
3519.7777435522762
  0
LINE
  8
_0-3_0
  6
CONTINUOUS
 62
   18
 10
3897.6212339214208
 20
3519.7777435522762
 11
2797.6212339259682
 21
3519.7777435522762
  0
LINE
  8
_0-3_0
  6
CONTINUOUS
 62
   18
 10
2797.6212339259682
 20
3519.7777435522762
 11
2792.6212339259682
 21
3514.7777435522762
  0
LINE
  8
_0-3_0
  6
CONTINUOUS
 62
   18
 10
2792.6212339259682
 20
3514.7777435522762
 11
2792.6212339259719
 21
3469.7777435522762
  0
CIRCLE
  8
_0-3_0
  6
CONTINUOUS
 62
   18
 10
2817.6212339259791
 20
2844.7777435511471
 40
6.9999999999999991
  0
LINE
  8
_0-4_05_CENTER
  6
CENTER2
 62
    4
 10
2829.9083148119671
 20
2844.7777435474236
 11
2805.334153034054
 21
2844.7777435474236
  0
LINE
  8
_0-4_05_CENTER
  6
CENTER2
 62
    4
 10
2817.6212339229819
 20
2832.4906626584743
 11
2817.6212339229819
 21
2857.0648244363733
  0
CIRCLE
  8
_0-3_0
  6
CONTINUOUS
 62
   18
 10
3877.6212339214094
 20
2844.7777435511471
 40
6.9999999999999991
  0
LINE
  8
_0-4_05_CENTER
  6
CENTER2
 62
    4
 10
3865.3341530354214
 20
2844.7777435474236
 11
3889.908314813335
 21
2844.7777435474236
  0
LINE
  8
_0-4_05_CENTER
  6
CENTER2
 62
    4
 10
3877.6212339244075
 20
2832.4906626584743
 11
3877.6212339244075
 21
2857.0648244363733
  0
CIRCLE
  8
_0-3_0
  6
CONTINUOUS
 62
   18
 10
2817.6212339259791
 20
3494.7777435534053
 40
6.9999999999999991
  0
LINE
  8
_0-4_05_CENTER
  6
CENTER2
 62
    4
 10
2829.9083148119671
 20
3494.7777435571288
 11
2805.334153034054
 21
3494.7777435571288
  0
LINE
  8
_0-4_05_CENTER
  6
CENTER2
 62
    4
 10
2817.6212339229819
 20
3507.0648244460781
 11
2817.6212339229819
 21
3482.49066266818
  0
CIRCLE
  8
_0-3_0
  6
CONTINUOUS
 62
   18
 10
3877.6212339214094
 20
3494.7777435534053
 40
6.9999999999999991
  0
LINE
  8
_0-4_05_CENTER
  6
CENTER2
 62
    4
 10
3865.3341530354214
 20
3494.7777435571288
 11
3889.908314813335
 21
3494.7777435571288
  0
LINE
  8
_0-4_05_CENTER
  6
CENTER2
 62
    4
 10
3877.6212339244075
 20
3507.0648244460781
 11
3877.6212339244075
 21
3482.49066266818
  0
LINE
  8
_0-3_0
  6
CONTINUOUS
 62
   18
 10
2958.6212339214208
 20
3469.7777435522762
 11
2958.6212339214208
 21
2869.7777435522762
  0
LINE
  8
_0-3_0
  6
CONTINUOUS
 62
   18
 10
3858.6212339214208
 20
3469.7777435522762
 11
3858.6212339214208
 21
2869.7777435522762
  0
LINE
  8
_0-3_0
  6
CONTINUOUS
 62
   18
 10
2792.6212339259719
 20
3475.7777435522762
 11
3902.6212339214203
 21
3475.7777435522762
  0
LINE
  8
_0-3_0
  6
CONTINUOUS
 62
   18
 10
2792.6212339259719
 20
2863.7777435522767
 11
3902.6212339214203
 21
2863.7777435522767
  0
INSERT
  2
-005-KK015066_54_5
  8
_0-3_0
 10
4486.4174070295176
 20
1860.213861732921
 41
-1
 42
1
 50
90
  0
INSERT
  2
-005-KK015066_54_5
  8
_0-3_0
 10
4196.4174070293584
 20
1860.213861732921
 41
1
 42
1
 50
270
  0
INSERT
  2
-005-KK015066_54_5
  8
_0-3_0
 10
4486.4174070295176
 20
2460.2138617272531
 41
1
 42
1
 50
90
  0
INSERT
  2
-005-KK015066_54_5
  8
_0-3_0
 10
4196.4174070293584
 20
2460.2138617272531
 41
-1
 42
1
 50
270
  0
LINE
  8
_0-3_0
  6
CONTINUOUS
 62
   18
 10
4196.4174070293584
 20
1860.213861732921
 11
4196.4174070293584
 21
2460.2138617272531
  0
LINE
  8
_0-3_0
  6
CONTINUOUS
 62
   18
 10
4196.4174070293584
 20
2460.2138617272531
 11
4246.4174070293584
 21
2460.2138617272531
  0
LINE
  8
_0-3_0
  6
CONTINUOUS
 62
   18
 10
4246.4174070293584
 20
2460.2138617272531
 11
4246.4174070293584
 21
1860.213861732921
  0
LINE
  8
_0-3_0
  6
CONTINUOUS
 62
   18
 10
4246.4174070293584
 20
1860.213861732921
 11
4196.4174070293584
 21
1860.213861732921
  0
LINE
  8
_0-3_0
  6
CONTINUOUS
 62
   18
 10
4486.4174070295176
 20
1860.213861732921
 11
4486.4174070295176
 21
2460.2138617272531
  0
LINE
  8
_0-3_0
  6
CONTINUOUS
 62
   18
 10
4486.4174070295176
 20
2460.2138617272531
 11
4436.4174070295167
 21
2460.2138617272531
  0
LINE
  8
_0-3_0
  6
CONTINUOUS
 62
   18
 10
4436.4174070295167
 20
2460.2138617272531
 11
4436.4174070295167
 21
1860.213861732921
  0
LINE
  8
_0-3_0
  6
CONTINUOUS
 62
   18
 10
4436.4174070295167
 20
1860.213861732921
 11
4486.4174070295176
 21
1860.213861732921
  0
LINE
  8
_0-3_0
  6
CONTINUOUS
 62
   18
 10
4196.4174070293584
 20
2460.213861732921
 11
4196.4174070293584
 21
2410.213861732921
  0
LINE
  8
_0-3_0
  6
CONTINUOUS
 62
   18
 10
4246.4174070293584
 20
2410.213861732921
 11
4436.4174070295167
 21
2410.213861732921
  0
LINE
  8
_0-3_0
  6
CONTINUOUS
 62
   18
 10
4486.4174070293566
 20
2410.213861732921
 11
4486.4174070293566
 21
2460.213861732921
  0
LINE
  8
_0-3_0
  6
CONTINUOUS
 62
   18
 10
4436.4174070295167
 20
2460.2138617272531
 11
4246.4174070293584
 21
2460.2138617272531
  0
LINE
  8
_0-3_0
  6
CONTINUOUS
 62
   18
 10
4202.4174070293575
 20
1860.213861732921
 11
4202.4174070293575
 21
2460.2138617272531
  0
LINE
  8
_0-3_0
  6
CONTINUOUS
 62
   18
 10
4480.4174070293566
 20
1860.213861732921
 11
4480.4174070293566
 21
2460.2138617272531
  0
LINE
  8
_0-5_04_HIDDEN
  6
CONTINUOUS
 62
    7
 10
4196.4174070293593
 20
2454.2138617329215
 11
4486.4174070295176
 21
2454.2138617329215
  0
LINE
  8
_0-5_04_HIDDEN
  6
CONTINUOUS
 62
    7
 10
4436.4174070295167
 20
2410.213861732921
 11
4486.4174070295176
 21
2410.213861732921
  0
LINE
  8
_0-5_04_HIDDEN
  6
CONTINUOUS
 62
    7
 10
4196.4174070293584
 20
2410.213861732921
 11
4246.4174070293584
 21
2410.213861732921
  0
LINE
  8
_0-4_05_CENTER
  6
CENTER2
 62
    4
 10
4208.8217345540152
 20
2235.213861732921
 11
4189.9878144002478
 21
2235.213861732921
  0
LINE
  8
_0-4_05_CENTER
  6
CENTER2
 62
    4
 10
4208.8217345540152
 20
2085.213861732921
 11
4189.9878144002478
 21
2085.213861732921
  0
LINE
  8
_0-3_0
  6
CONTINUOUS
 62
   18
 10
4246.4174070293584
 20
1910.2138617272533
 11
4436.4174070295167
 21
1910.2138617272533
  0
LINE
  8
_0-3_0
  6
CONTINUOUS
 62
   18
 10
4436.4174070295167
 20
1860.213861732921
 11
4246.4174070293584
 21
1860.213861732921
  0
LINE
  8
_0-5_04_HIDDEN
  6
CONTINUOUS
 62
    7
 10
4196.4174070293593
 20
1866.2138617272531
 11
4486.4174070295176
 21
1866.2138617272531
  0
LINE
  8
_0-5_04_HIDDEN
  6
CONTINUOUS
 62
    7
 10
4436.4174070295167
 20
1910.2138617272533
 11
4486.4174070295176
 21
1910.2138617272533
  0
LINE
  8
_0-5_04_HIDDEN
  6
CONTINUOUS
 62
    7
 10
4196.4174070293584
 20
1910.2138617272533
 11
4246.4174070293584
 21
1910.2138617272533
  0
LINE
  8
_0-4_05_CENTER
  6
CENTER2
 62
    4
 10
4492.8217345541725
 20
2485.2138617272531
 11
4473.9878144004051
 21
2485.2138617272531
  0
LINE
  8
_0-4_05_CENTER
  6
CENTER2
 62
    4
 10
4492.8217345541725
 20
1835.2138617329213
 11
4473.9878144004051
 21
1835.2138617329213
  0
INSERT
  2
-005-KK015066_54_5
  8
_0-3_0
 10
2952.6212339214208
 20
1860.2138617329206
 41
-1
 42
1
 50
0
  0
INSERT
  2
-005-KK015066_54_5
  8
_0-3_0
 10
3852.6212339214208
 20
1860.2138617329206
 41
-1
 42
1
 50
0
  0
INSERT
  2
-005-KK015066_54_5
  8
_0-3_0
 10
2952.6212339214208
 20
2460.2138617329206
 41
1
 42
1
 50
180
  0
INSERT
  2
-005-KK015066_54_5
  8
_0-3_0
 10
3852.6212339214208
 20
2460.2138617329206
 41
1
 42
1
 50
180
  0
LINE
  8
_0-3_0
  6
CONTINUOUS
 62
   18
 10
3902.6212339214203
 20
2460.2138617329206
 11
3852.6212339214208
 21
2460.2138617329206
  0
LINE
  8
_0-3_0
  6
CONTINUOUS
 62
   18
 10
3852.6212339214208
 20
2460.2138617329206
 11
3852.6212339214208
 21
1860.2138617329206
  0
LINE
  8
_0-3_0
  6
CONTINUOUS
 62
   18
 10
3852.6212339214208
 20
1860.2138617329206
 11
3902.6212339214203
 21
1860.2138617329206
  0
LINE
  8
_0-3_0
  6
CONTINUOUS
 62
   18
 10
3902.6212339214203
 20
1860.2138617329206
 11
3902.6212339214203
 21
2460.2138617329206
  0
LINE
  8
_0-3_0
  6
CONTINUOUS
 62
   18
 10
3002.6212339214208
 20
2460.2138617329206
 11
2952.6212339214208
 21
2460.2138617329206
  0
LINE
  8
_0-3_0
  6
CONTINUOUS
 62
   18
 10
2952.6212339214208
 20
2460.2138617329206
 11
2952.6212339214208
 21
1860.2138617329206
  0
LINE
  8
_0-3_0
  6
CONTINUOUS
 62
   18
 10
2952.6212339214208
 20
1860.2138617329206
 11
3002.6212339214208
 21
1860.2138617329206
  0
LINE
  8
_0-3_0
  6
CONTINUOUS
 62
   18
 10
3002.6212339214208
 20
1860.2138617329206
 11
3002.6212339214208
 21
2460.2138617329206
  0
LINE
  8
_0-3_0
  6
CONTINUOUS
 62
   18
 10
2902.6212339214208
 20
1860.2138617329206
 11
3902.6212339214203
 21
1860.2138617329206
  0
LINE
  8
_0-3_0
  6
CONTINUOUS
 62
   18
 10
3902.6212339214203
 20
1860.2138617329206
 11
3902.6212339214203
 21
1815.2138617329208
  0
LINE
  8
_0-3_0
  6
CONTINUOUS
 62
   18
 10
3902.6212339214203
 20
1815.2138617329208
 11
3897.6212339214208
 21
1810.2138617329208
  0
LINE
  8
_0-3_0
  6
CONTINUOUS
 62
   18
 10
3897.6212339214208
 20
1810.2138617329208
 11
2907.6212339214212
 21
1810.2138617329208
  0
LINE
  8
_0-3_0
  6
CONTINUOUS
 62
   18
 10
2907.6212339214212
 20
1810.2138617329208
 11
2902.6212339214208
 21
1815.2138617329208
  0
LINE
  8
_0-3_0
  6
CONTINUOUS
 62
   18
 10
2902.6212339214208
 20
1815.2138617329208
 11
2902.6212339214208
 21
1860.2138617329206
  0
LINE
  8
_0-3_0
  6
CONTINUOUS
 62
   18
 10
2902.6212339214208
 20
2460.2138617329206
 11
3902.6212339214203
 21
2460.2138617329206
  0
LINE
  8
_0-3_0
  6
CONTINUOUS
 62
   18
 10
3902.6212339214203
 20
2460.2138617329206
 11
3902.6212339214203
 21
2505.2138617329206
  0
LINE
  8
_0-3_0
  6
CONTINUOUS
 62
   18
 10
3902.6212339214203
 20
2505.2138617329206
 11
3897.6212339214208
 21
2510.2138617329206
  0
LINE
  8
_0-3_0
  6
CONTINUOUS
 62
   18
 10
3897.6212339214208
 20
2510.2138617329206
 11
2907.6212339214212
 21
2510.2138617329206
  0
LINE
  8
_0-3_0
  6
CONTINUOUS
 62
   18
 10
2907.6212339214212
 20
2510.2138617329206
 11
2902.6212339214208
 21
2505.2138617329206
  0
LINE
  8
_0-3_0
  6
CONTINUOUS
 62
   18
 10
2902.6212339214208
 20
2505.2138617329206
 11
2902.6212339214208
 21
2460.2138617329206
  0
CIRCLE
  8
_0-3_0
  6
CONTINUOUS
 62
   18
 10
2977.6212339214212
 20
2085.2138617355336
 40
5.9999999999999991
  0
LINE
  8
_0-4_05_CENTER
  6
CENTER2
 62
    4
 10
2988.6686210311191
 20
2085.2138617317919
 11
2966.5738468141817
 21
2085.2138617317919
  0
LINE
  8
_0-4_05_CENTER
  6
CENTER2
 62
    4
 10
2977.6212339226213
 20
2074.1664746233305
 11
2977.6212339226213
 21
2096.2612488402528
  0
CIRCLE
  8
_0-3_0
  6
CONTINUOUS
 62
   18
 10
2977.6212339214212
 20
2235.2138617355336
 40
5.9999999999999991
  0
LINE
  8
_0-4_05_CENTER
  6
CENTER2
 62
    4
 10
2988.6686210311191
 20
2235.2138617317919
 11
2966.5738468141817
 21
2235.2138617317919
  0
LINE
  8
_0-4_05_CENTER
  6
CENTER2
 62
    4
 10
2977.6212339226213
 20
2224.16647462333
 11
2977.6212339226213
 21
2246.2612488402528
  0
CIRCLE
  8
_0-3_0
  6
CONTINUOUS
 62
   18
 10
3877.6212339214208
 20
2235.2138617355336
 40
5.9999999999999991
  0
LINE
  8
_0-4_05_CENTER
  6
CENTER2
 62
    4
 10
3888.6686210311191
 20
2235.2138617317919
 11
3866.5738468141817
 21
2235.2138617317919
  0
LINE
  8
_0-4_05_CENTER
  6
CENTER2
 62
    4
 10
3877.6212339226213
 20
2224.16647462333
 11
3877.6212339226213
 21
2246.2612488402528
  0
CIRCLE
  8
_0-3_0
  6
CONTINUOUS
 62
   18
 10
3877.6212339214208
 20
2085.2138617355336
 40
5.9999999999999991
  0
LINE
  8
_0-4_05_CENTER
  6
CENTER2
 62
    4
 10
3888.6686210311191
 20
2085.2138617317919
 11
3866.5738468141817
 21
2085.2138617317919
  0
LINE
  8
_0-4_05_CENTER
  6
CENTER2
 62
    4
 10
3877.6212339226213
 20
2074.1664746233305
 11
3877.6212339226213
 21
2096.2612488402528
  0
LINE
  8
_0-5_04_HIDDEN
  6
CONTINUOUS
 62
    7
 10
2958.6212339214208
 20
2460.2138617329206
 11
2958.6212339214208
 21
1860.2138617329206
  0
LINE
  8
_0-5_04_HIDDEN
  6
CONTINUOUS
 62
    7
 10
3858.6212339214208
 20
2460.2138617329206
 11
3858.6212339214208
 21
1860.2138617329206
  0
LINE
  8
_0-5_04_HIDDEN
  6
CONTINUOUS
 62
    7
 10
2902.6212339214208
 20
2466.2138617329206
 11
3902.6212339214203
 21
2466.2138617329206
  0
LINE
  8
_0-5_04_HIDDEN
  6
CONTINUOUS
 62
    7
 10
2902.6212339214208
 20
1854.2138617329208
 11
3902.6212339214203
 21
1854.2138617329208
  0
LINE
  8
_0-4_05_CENTER
  6
CENTER2
 62
    4
 10
2817.6212339230105
 20
3494.7777435571288
 11
3877.6212339244075
 21
3494.7777435571288
  0
LINE
  8
_0-4_05_CENTER
  6
CENTER2
 62
    4
 10
3877.6212339244075
 20
3494.7777435571288
 11
3877.6212339244075
 21
2844.7777435474236
  0
LINE
  8
_0-4_05_CENTER
  6
CENTER2
 62
    4
 10
3877.6212339244075
 20
2844.7777435474236
 11
2817.6212339230105
 21
2844.7777435474236
  0
LINE
  8
_0-4_05_CENTER
  6
CENTER2
 62
    4
 10
2817.6212339230105
 20
2844.7777435474236
 11
2817.6212339230105
 21
3494.7777435571288
  0
LINE
  8
_0-4_05_CENTER
  6
CENTER2
 62
    4
 10
2977.6212339226504
 20
2085.2138617317919
 11
3877.6212339226504
 21
2085.2138617317919
  0
LINE
  8
_0-4_05_CENTER
  6
CENTER2
 62
    4
 10
3877.6212339226504
 20
2085.2138617317919
 11
3877.6212339226504
 21
2235.2138617317919
  0
LINE
  8
_0-4_05_CENTER
  6
CENTER2
 62
    4
 10
3877.6212339226504
 20
2235.2138617317919
 11
2977.6212339226504
 21
2235.2138617317919
  0
LINE
  8
_0-4_05_CENTER
  6
CENTER2
 62
    4
 10
2977.6212339226504
 20
2235.2138617317919
 11
2977.6212339226504
 21
2085.2138617317919
  0
LINE
  8
_0-4_05_CENTER
  6
CENTER2
 62
    4
 10
2340.2147317682166
 20
2160.213861730087
 11
2679.8574191982252
 21
2160.213861730087
  0
LINE
  8
_0-4_05_CENTER
  6
CENTER2
 62
    4
 10
2892.9621703923758
 20
2160.213861730087
 11
3928.0511728281626
 21
2160.213861730087
  0
LINE
  8
_0-4_05_CENTER
  6
CENTER2
 62
    4
 10
4171.4534745536175
 20
2160.213861730087
 11
4511.0961619836262
 21
2160.213861730087
  0
LINE
  8
_0-4_05_CENTER
  6
CENTER2
 62
    4
 10
2758.9999904414681
 20
3169.7777435505718
 11
3928.0511728281626
 21
3169.7777435505718
  0
INSERT
  2
-006-seca03
  8
_0-3_0
 10
2730.082705667407
 20
1305.2931995313722
 41
5
 42
5
 50
0
  0
TEXT
  8
_0-3_0
 62
    7
 10
2712.5827056638286
 20
1334.6674662831638
 40
14.999999999999998
 41
1
 50
0
  1
A
  0
INSERT
  2
-006-seca03
  8
_0-3_0
 10
4053.393607208011
 20
1305.2931995313722
 41
5
 42
5
 50
0
  0
TEXT
  8
_0-3_0
 62
    7
 10
4059.9011043518594
 20
1334.6674662831638
 40
14.999999999999998
 41
1
 50
0
  1
A
  0
TEXT
  8
_0-2_08_DIM
 62
    3
 10
3275.6124783003092
 20
2669.3723066378857
 40
22.499999999999996
 41
1
 50
0
  1
¢ŅÄŗ A-A
  0
TEXT
  8
_0-2_08_DIM
 62
    3
 10
2200.1978772205557
 20
2888.9035760621337
 40
22.499999999999996
 41
1
 50
0
  1
L-6x50x50
  0
TEXT
  8
_0-0_90_FRAME
 62
    3
 10
5132.2893089665813
 20
1197.6517327118954
 40
14.999999999999998
 41
1
 50
0
  1
Ģ\¢╩ÅłŚØüFü¢ü¢ü¢
  0
INSERT
  2
-007-AM_BALLOON1
  8
_0-2_08_DIM
 10
2157.6931239583182
 20
2921.1954607464259
 41
6.25
 42
6.25
 50
0
  0
TEXT
  8
_0-3_0
 62
    7
 10
2150.1038382440324
 20
2911.8204607464263
 40
18.749999999999996
 41
1
 50
0
  1
1
  0
LINE
  8
_0-2_08_DIM
  6
CONTINUOUS
 62
    3
 10
3891.7936210311191
 20
2085.2138617317919
 11
3968.5060523131478
 21
2085.2138617317919
  0
LINE
  8
_0-2_08_DIM
  6
CONTINUOUS
 62
    3
 10
3891.7936210311191
 20
2235.2138617317919
 11
3968.5060523131478
 21
2235.2138617317919
  0
LINE
  8
_0-2_08_DIM
  6
CONTINUOUS
 62
    3
 10
3962.2560523131478
 20
2097.7138617317914
 11
3962.2560523131478
 21
2222.7138617317914
  0
INSERT
  2
-008-_Open30
  8
_0-2_08_DIM
 10
3962.2560523131478
 20
2085.2138617317919
 41
12.5
 42
12.5
 50
270
  0
INSERT
  2
-008-_Open30
  8
_0-2_08_DIM
 10
3962.2560523131478
 20
2235.2138617317919
 41
12.5
 42
12.5
 50
90
  0
LINE
  8
_0-2_08_DIM
  6
CONTINUOUS
 62
    3
 10
3905.7462339214208
 20
1860.2138617329206
 11
4016.6006308161786
 21
1860.2138617329206
  0
LINE
  8
_0-2_08_DIM
  6
CONTINUOUS
 62
    3
 10
3900.7462339214208
 20
1810.2138617329208
 11
4016.6006308161786
 21
1810.2138617329208
  0
LINE
  8
_0-2_08_DIM
  6
CONTINUOUS
 62
    3
 10
4010.3506308161786
 20
1847.7138617329208
 11
4010.3506308161786
 21
1822.713861732921
  0
INSERT
  2
-008-_Open30
  8
_0-2_08_DIM
 10
4010.3506308161786
 20
1860.2138617329206
 41
12.5
 42
12.5
 50
90
  0
INSERT
  2
-008-_Open30
  8
_0-2_08_DIM
 10
4010.3506308161786
 20
1810.2138617329208
 41
12.5
 42
12.5
 50
270
  0
LINE
  8
_0-2_08_DIM
  6
CONTINUOUS
 62
    3
 10
3905.7462339214208
 20
1860.2138617329206
 11
4016.6006308161782
 21
1860.2138617329206
  0
LINE
  8
_0-2_08_DIM
  6
CONTINUOUS
 62
    3
 10
3905.7462339214208
 20
2460.2138617329206
 11
4016.6006308161786
 21
2460.2138617329206
  0
LINE
  8
_0-2_08_DIM
  6
CONTINUOUS
 62
    3
 10
4010.3506308161782
 20
1872.7138617329208
 11
4010.3506308161786
 21
2447.7138617329206
  0
INSERT
  2
-008-_Open30
  8
_0-2_08_DIM
 10
4010.3506308161782
 20
1860.2138617329206
 41
12.5
 42
12.5
 50
270
  0
INSERT
  2
-008-_Open30
  8
_0-2_08_DIM
 10
4010.3506308161786
 20
2460.2138617329206
 41
12.5
 42
12.5
 50
90
  0
LINE
  8
_0-2_08_DIM
  6
CONTINUOUS
 62
    3
 10
3905.7462339214208
 20
2460.2138617329206
 11
4016.6006308161786
 21
2460.2138617329206
  0
LINE
  8
_0-2_08_DIM
  6
CONTINUOUS
 62
    3
 10
3900.7462339214208
 20
2510.2138617329206
 11
4016.6006308161786
 21
2510.2138617329206
  0
LINE
  8
_0-2_08_DIM
  6
CONTINUOUS
 62
    3
 10
4010.3506308161786
 20
2472.713861732921
 11
4010.3506308161786
 21
2497.7138617329206
  0
INSERT
  2
-008-_Open30
  8
_0-2_08_DIM
 10
4010.3506308161786
 20
2460.2138617329206
 41
12.5
 42
12.5
 50
270
  0
INSERT
  2
-008-_Open30
  8
_0-2_08_DIM
 10
4010.3506308161786
 20
2510.2138617329206
 41
12.5
 42
12.5
 50
90
  0
LINE
  8
_0-2_08_DIM
  6
CONTINUOUS
 62
    3
 10
3900.7462339214208
 20
2510.2138617329206
 11
4066.0923631665405
 21
2510.2138617329206
  0
LINE
  8
_0-2_08_DIM
  6
CONTINUOUS
 62
    3
 10
3900.7462339214208
 20
1810.2138617329208
 11
4066.0923631665405
 21
1810.2138617329208
  0
LINE
  8
_0-2_08_DIM
  6
CONTINUOUS
 62
    3
 10
4059.8423631665401
 20
2497.7138617329206
 11
4059.8423631665401
 21
1822.713861732921
  0
INSERT
  2
-008-_Open30
  8
_0-2_08_DIM
 10
4059.8423631665401
 20
2510.2138617329206
 41
12.5
 42
12.5
 50
90
  0
INSERT
  2
-008-_Open30
  8
_0-2_08_DIM
 10
4059.8423631665401
 20
1810.2138617329208
 41
12.5
 42
12.5
 50
270
  0
LINE
  8
_0-2_08_DIM
  6
CONTINUOUS
 62
    3
 10
3877.6212339226213
 20
2071.0414746233305
 11
3877.6212339226213
 21
2008.7693516926122
  0
LINE
  8
_0-2_08_DIM
  6
CONTINUOUS
 62
    3
 10
3902.6212339214203
 20
2071.0414746233305
 11
3902.6212339214203
 21
2008.7693516926122
  0
LINE
  8
_0-2_08_DIM
  6
CONTINUOUS
 62
    3
 10
3865.1212339226213
 20
2015.0193516926122
 11
3852.6212339226213
 21
2015.0193516926122
  0
LINE
  8
_0-2_08_DIM
  6
CONTINUOUS
 62
    3
 10
3915.1212339214208
 20
2015.0193516926122
 11
3958.8712339214208
 21
2015.0193516926122
  0
LINE
  8
_0-2_08_DIM
  6
CONTINUOUS
 62
    3
 10
3877.6212339226213
 20
2015.0193516926122
 11
3902.6212339214203
 21
2015.0193516926122
  0
INSERT
  2
-008-_Open30
  8
_0-2_08_DIM
 10
3877.6212339226213
 20
2015.0193516926122
 41
12.5
 42
12.5
 50
0
  0
INSERT
  2
-008-_Open30
  8
_0-2_08_DIM
 10
3902.6212339214203
 20
2015.0193516926122
 41
12.5
 42
12.5
 50
180
  0
LINE
  8
_0-2_08_DIM
  6
CONTINUOUS
 62
    3
 10
3877.6212339226213
 20
2071.0414746233305
 11
3877.6212339226213
 21
2008.7693516926122
  0
LINE
  8
_0-2_08_DIM
  6
CONTINUOUS
 62
    3
 10
2977.6212339226213
 20
2071.0414746233305
 11
2977.6212339226213
 21
2008.7693516926122
  0
LINE
  8
_0-2_08_DIM
  6
CONTINUOUS
 62
    3
 10
3865.1212339226213
 20
2015.0193516926122
 11
2990.1212339226217
 21
2015.0193516926122
  0
INSERT
  2
-008-_Open30
  8
_0-2_08_DIM
 10
3877.6212339226213
 20
2015.0193516926122
 41
12.5
 42
12.5
 50
0
  0
INSERT
  2
-008-_Open30
  8
_0-2_08_DIM
 10
2977.6212339226213
 20
2015.0193516926122
 41
12.5
 42
12.5
 50
180
  0
LINE
  8
_0-2_08_DIM
  6
CONTINUOUS
 62
    3
 10
2977.6212339226213
 20
2071.0414746233305
 11
2977.6212339226213
 21
2008.7693516926122
  0
LINE
  8
_0-2_08_DIM
  6
CONTINUOUS
 62
    3
 10
2952.6212339214208
 20
2071.0414746233305
 11
2952.6212339214208
 21
2008.7693516926122
  0
LINE
  8
_0-2_08_DIM
  6
CONTINUOUS
 62
    3
 10
2990.1212339226217
 20
2015.0193516926122
 11
3002.6212339226217
 21
2015.0193516926122
  0
LINE
  8
_0-2_08_DIM
  6
CONTINUOUS
 62
    3
 10
2940.1212339214208
 20
2015.0193516926122
 11
2876.3712339214203
 21
2015.0193516926122
  0
LINE
  8
_0-2_08_DIM
  6
CONTINUOUS
 62
    3
 10
2977.6212339226213
 20
2015.0193516926122
 11
2952.6212339214208
 21
2015.0193516926122
  0
INSERT
  2
-008-_Open30
  8
_0-2_08_DIM
 10
2977.6212339226213
 20
2015.0193516926122
 41
12.5
 42
12.5
 50
180
  0
INSERT
  2
-008-_Open30
  8
_0-2_08_DIM
 10
2952.6212339214208
 20
2015.0193516926122
 41
12.5
 42
12.5
 50
0
  0
LINE
  8
_0-2_08_DIM
  6
CONTINUOUS
 62
    3
 10
3852.6212339214208
 20
1857.0888617329208
 11
3852.6212339214208
 21
1731.7232857326346
  0
LINE
  8
_0-2_08_DIM
  6
CONTINUOUS
 62
    3
 10
3902.6212339214203
 20
1812.0888617329208
 11
3902.6212339214203
 21
1731.7232857326346
  0
LINE
  8
_0-2_08_DIM
  6
CONTINUOUS
 62
    3
 10
3865.1212339214208
 20
1737.9732857326346
 11
3890.1212339214208
 21
1737.9732857326346
  0
INSERT
  2
-008-_Open30
  8
_0-2_08_DIM
 10
3852.6212339214208
 20
1737.9732857326346
 41
12.5
 42
12.5
 50
180
  0
INSERT
  2
-008-_Open30
  8
_0-2_08_DIM
 10
3902.6212339214203
 20
1737.9732857326346
 41
12.5
 42
12.5
 50
0
  0
LINE
  8
_0-2_08_DIM
  6
CONTINUOUS
 62
    3
 10
3852.6212339214208
 20
1857.0888617329208
 11
3852.6212339214208
 21
1731.7232857326346
  0
LINE
  8
_0-2_08_DIM
  6
CONTINUOUS
 62
    3
 10
2952.6212339214208
 20
1857.0888617329208
 11
2952.6212339214208
 21
1731.7232857326346
  0
LINE
  8
_0-2_08_DIM
  6
CONTINUOUS
 62
    3
 10
3840.1212339214208
 20
1737.9732857326346
 11
2965.1212339214212
 21
1737.9732857326346
  0
INSERT
  2
-008-_Open30
  8
_0-2_08_DIM
 10
3852.6212339214208
 20
1737.9732857326346
 41
12.5
 42
12.5
 50
0
  0
INSERT
  2
-008-_Open30
  8
_0-2_08_DIM
 10
2952.6212339214208
 20
1737.9732857326346
 41
12.5
 42
12.5
 50
180
  0
LINE
  8
_0-2_08_DIM
  6
CONTINUOUS
 62
    3
 10
2952.6212339214208
 20
1857.0888617329208
 11
2952.6212339214208
 21
1731.7232857326346
  0
LINE
  8
_0-2_08_DIM
  6
CONTINUOUS
 62
    3
 10
2902.6212339214208
 20
1812.0888617329208
 11
2902.6212339214208
 21
1731.7232857326346
  0
LINE
  8
_0-2_08_DIM
  6
CONTINUOUS
 62
    3
 10
2940.1212339214208
 20
1737.9732857326346
 11
2915.1212339214208
 21
1737.9732857326346
  0
INSERT
  2
-008-_Open30
  8
_0-2_08_DIM
 10
2952.6212339214208
 20
1737.9732857326346
 41
12.5
 42
12.5
 50
0
  0
INSERT
  2
-008-_Open30
  8
_0-2_08_DIM
 10
2902.6212339214208
 20
1737.9732857326346
 41
12.5
 42
12.5
 50
180
  0
LINE
  8
_0-2_08_DIM
  6
CONTINUOUS
 62
    3
 10
2902.621203918457
 20
1515.7717088829147
 11
2902.621203918457
 21
1581.1732121388234
  0
LINE
  8
_0-2_08_DIM
  6
CONTINUOUS
 62
    3
 10
3902.6212039184566
 20
1515.7717088829147
 11
3902.6212039184566
 21
1581.1732121388234
  0
LINE
  8
_0-2_08_DIM
  6
CONTINUOUS
 62
    3
 10
2915.121203918457
 20
1574.9232121388236
 11
3890.1212039184566
 21
1574.9232121388236
  0
INSERT
  2
-008-_Open30
  8
_0-2_08_DIM
 10
2902.621203918457
 20
1574.9232121388236
 41
12.5
 42
12.5
 50
180
  0
INSERT
  2
-008-_Open30
  8
_0-2_08_DIM
 10
3902.6212039184566
 20
1574.9232121388236
 41
12.5
 42
12.5
 50
0
  0
LINE
  8
_0-2_08_DIM
  6
CONTINUOUS
 62
    3
 10
3902.6212039184566
 20
1219.5217088827535
 11
3902.6212039184566
 21
1141.2176877779871
  0
LINE
  8
_0-2_08_DIM
  6
CONTINUOUS
 62
    3
 10
2792.6212039230077
 20
1219.5217088826637
 11
2792.6212039230077
 21
1141.2176877779871
  0
LINE
  8
_0-2_08_DIM
  6
CONTINUOUS
 62
    3
 10
3890.1212039184566
 20
1147.4676877779868
 11
2805.1212039230077
 21
1147.4676877779868
  0
INSERT
  2
-008-_Open30
  8
_0-2_08_DIM
 10
3902.6212039184566
 20
1147.4676877779868
 41
12.5
 42
12.5
 50
0
  0
INSERT
  2
-008-_Open30
  8
_0-2_08_DIM
 10
2792.6212039230077
 20
1147.4676877779868
 41
12.5
 42
12.5
 50
180
  0
LINE
  8
_0-2_08_DIM
  6
CONTINUOUS
 62
    3
 10
3905.7462039184566
 20
1222.6467088827533
 11
3968.5060523131474
 21
1222.6467088827533
  0
LINE
  8
_0-2_08_DIM
  6
CONTINUOUS
 62
    3
 10
3900.7462039184566
 20
1272.6467088827535
 11
3968.5060523131474
 21
1272.6467088827533
  0
LINE
  8
_0-2_08_DIM
  6
CONTINUOUS
 62
    3
 10
3962.2560523131474
 20
1235.1467088827533
 11
3962.2560523131474
 21
1260.1467088827533
  0
INSERT
  2
-008-_Open30
  8
_0-2_08_DIM
 10
3962.2560523131474
 20
1222.6467088827533
 41
12.5
 42
12.5
 50
270
  0
INSERT
  2
-008-_Open30
  8
_0-2_08_DIM
 10
3962.2560523131474
 20
1272.6467088827533
 41
12.5
 42
12.5
 50
90
  0
LINE
  8
_0-2_08_DIM
  6
CONTINUOUS
 62
    3
 10
3905.7462039184566
 20
1512.6467088829147
 11
3968.5060523131474
 21
1512.6467088829147
  0
LINE
  8
_0-2_08_DIM
  6
CONTINUOUS
 62
    3
 10
3900.7462039184566
 20
1462.6467088829147
 11
3968.5060523131474
 21
1462.6467088829147
  0
LINE
  8
_0-2_08_DIM
  6
CONTINUOUS
 62
    3
 10
3962.2560523131474
 20
1500.1467088829149
 11
3962.2560523131474
 21
1475.1467088829147
  0
INSERT
  2
-008-_Open30
  8
_0-2_08_DIM
 10
3962.2560523131474
 20
1512.6467088829147
 41
12.5
 42
12.5
 50
90
  0
INSERT
  2
-008-_Open30
  8
_0-2_08_DIM
 10
3962.2560523131474
 20
1462.6467088829147
 41
12.5
 42
12.5
 50
270
  0
LINE
  8
_0-2_08_DIM
  6
CONTINUOUS
 62
    3
 10
3905.7462039184566
 20
1512.6467088829147
 11
4016.6006308161782
 21
1512.6467088829147
  0
LINE
  8
_0-2_08_DIM
  6
CONTINUOUS
 62
    3
 10
3905.7462039184566
 20
1222.6467088827533
 11
4016.6006308161782
 21
1222.6467088827533
  0
LINE
  8
_0-2_08_DIM
  6
CONTINUOUS
 62
    3
 10
4010.3506308161782
 20
1500.1467088829149
 11
4010.3506308161782
 21
1235.1467088827533
  0
INSERT
  2
-008-_Open30
  8
_0-2_08_DIM
 10
4010.3506308161782
 20
1512.6467088829147
 41
12.5
 42
12.5
 50
90
  0
INSERT
  2
-008-_Open30
  8
_0-2_08_DIM
 10
4010.3506308161782
 20
1222.6467088827533
 41
12.5
 42
12.5
 50
270
  0
LINE
  8
_0-2_08_DIM
  6
CONTINUOUS
 62
    3
 10
2902.621203918457
 20
1515.7717088829147
 11
2902.621203918457
 21
1581.1732121388234
  0
LINE
  8
_0-2_08_DIM
  6
CONTINUOUS
 62
    3
 10
2792.621203923004
 20
1270.7717088827533
 11
2792.621203923004
 21
1581.1732121388234
  0
LINE
  8
_0-2_08_DIM
  6
CONTINUOUS
 62
    3
 10
2890.1212039184566
 20
1574.9232121388236
 11
2805.121203923004
 21
1574.9232121388236
  0
INSERT
  2
-008-_Open30
  8
_0-2_08_DIM
 10
2902.621203918457
 20
1574.9232121388236
 41
12.5
 42
12.5
 50
0
  0
INSERT
  2
-008-_Open30
  8
_0-2_08_DIM
 10
2792.621203923004
 20
1574.9232121388236
 41
12.5
 42
12.5
 50
180
  0
LINE
  8
_0-2_08_DIM
  6
CONTINUOUS
 62
    3
 10
3877.6212339244075
 20
2829.3656626584743
 11
3877.6212339244075
 21
2744.4954822518794
  0
LINE
  8
_0-2_08_DIM
  6
CONTINUOUS
 62
    3
 10
3902.6212339214203
 20
2821.6527435522762
 11
3902.6212339214203
 21
2744.4954822518794
  0
LINE
  8
_0-2_08_DIM
  6
CONTINUOUS
 62
    3
 10
3865.1212339244075
 20
2750.7454822518794
 11
3852.6212339244075
 21
2750.7454822518794
  0
LINE
  8
_0-2_08_DIM
  6
CONTINUOUS
 62
    3
 10
3915.1212339214208
 20
2750.7454822518794
 11
3958.8712339214208
 21
2750.7454822518794
  0
LINE
  8
_0-2_08_DIM
  6
CONTINUOUS
 62
    3
 10
3877.6212339244075
 20
2750.7454822518794
 11
3902.6212339214203
 21
2750.7454822518794
  0
INSERT
  2
-008-_Open30
  8
_0-2_08_DIM
 10
3877.6212339244075
 20
2750.7454822518794
 41
12.5
 42
12.5
 50
0
  0
INSERT
  2
-008-_Open30
  8
_0-2_08_DIM
 10
3902.6212339214203
 20
2750.7454822518794
 41
12.5
 42
12.5
 50
180
  0
LINE
  8
_0-2_08_DIM
  6
CONTINUOUS
 62
    3
 10
3877.6212339244075
 20
2829.3656626584743
 11
3877.6212339244075
 21
2744.4954822518794
  0
LINE
  8
_0-2_08_DIM
  6
CONTINUOUS
 62
    3
 10
2817.6212339229819
 20
2829.3656626584748
 11
2817.6212339229819
 21
2744.4954822518794
  0
LINE
  8
_0-2_08_DIM
  6
CONTINUOUS
 62
    3
 10
3865.1212339244075
 20
2750.7454822518794
 11
2830.1212339229814
 21
2750.7454822518794
  0
INSERT
  2
-008-_Open30
  8
_0-2_08_DIM
 10
3877.6212339244075
 20
2750.7454822518794
 41
12.5
 42
12.5
 50
0
  0
INSERT
  2
-008-_Open30
  8
_0-2_08_DIM
 10
2817.6212339229819
 20
2750.7454822518794
 41
12.5
 42
12.5
 50
180
  0
LINE
  8
_0-2_08_DIM
  6
CONTINUOUS
 62
    3
 10
2817.6212339229819
 20
2829.3656626584743
 11
2817.6212339229819
 21
2744.4954822518794
  0
LINE
  8
_0-2_08_DIM
  6
CONTINUOUS
 62
    3
 10
2792.6212339259682
 20
2821.6527435511398
 11
2792.6212339259682
 21
2744.4954822518794
  0
LINE
  8
_0-2_08_DIM
  6
CONTINUOUS
 62
    3
 10
2830.1212339229814
 20
2750.7454822518794
 11
2842.6212339229814
 21
2750.7454822518794
  0
LINE
  8
_0-2_08_DIM
  6
CONTINUOUS
 62
    3
 10
2780.1212339259682
 20
2750.7454822518794
 11
2716.3712339259682
 21
2750.7454822518794
  0
LINE
  8
_0-2_08_DIM
  6
CONTINUOUS
 62
    3
 10
2817.6212339229819
 20
2750.7454822518794
 11
2792.6212339259682
 21
2750.7454822518794
  0
INSERT
  2
-008-_Open30
  8
_0-2_08_DIM
 10
2817.6212339229819
 20
2750.7454822518794
 41
12.5
 42
12.5
 50
180
  0
INSERT
  2
-008-_Open30
  8
_0-2_08_DIM
 10
2792.6212339259682
 20
2750.7454822518794
 41
12.5
 42
12.5
 50
0
  0
LINE
  8
_0-2_08_DIM
  6
CONTINUOUS
 62
    3
 10
3893.0333148133345
 20
2844.7777435474236
 11
3983.6612122329543
 21
2844.7777435474236
  0
LINE
  8
_0-2_08_DIM
  6
CONTINUOUS
 62
    3
 10
3893.0333148133345
 20
3494.7777435571288
 11
3983.6612122329543
 21
3494.7777435571288
  0
LINE
  8
_0-2_08_DIM
  6
CONTINUOUS
 62
    3
 10
3977.4112122329543
 20
2857.2777435474236
 11
3977.4112122329543
 21
3482.2777435571288
  0
INSERT
  2
-008-_Open30
  8
_0-2_08_DIM
 10
3977.4112122329543
 20
2844.7777435474236
 41
12.5
 42
12.5
 50
270
  0
INSERT
  2
-008-_Open30
  8
_0-2_08_DIM
 10
3977.4112122329543
 20
3494.7777435571288
 41
12.5
 42
12.5
 50
90
  0
LINE
  8
_0-2_08_DIM
  6
CONTINUOUS
 62
    3
 10
3852.6212339214208
 20
3001.8606139840135
 11
3852.6212339214208
 21
2984.9500660184603
  0
LINE
  8
_0-2_08_DIM
  6
CONTINUOUS
 62
    3
 10
3902.6212339214203
 20
3001.8606139823087
 11
3902.6212339214203
 21
2984.9500660184603
  0
LINE
  8
_0-2_08_DIM
  6
CONTINUOUS
 62
    3
 10
3865.1212339214208
 20
2991.2000660184603
 11
3890.1212339214208
 21
2991.2000660184603
  0
INSERT
  2
-008-_Open30
  8
_0-2_08_DIM
 10
3852.6212339214208
 20
2991.2000660184603
 41
12.5
 42
12.5
 50
180
  0
INSERT
  2
-008-_Open30
  8
_0-2_08_DIM
 10
3902.6212339214203
 20
2991.2000660184603
 41
12.5
 42
12.5
 50
0
  0
LINE
  8
_0-2_08_DIM
  6
CONTINUOUS
 62
    3
 10
3852.6212339214208
 20
3001.8606139840135
 11
3852.6212339214208
 21
2984.9500660184603
  0
LINE
  8
_0-2_08_DIM
  6
CONTINUOUS
 62
    3
 10
2952.6212339214208
 20
3001.8606139840135
 11
2952.6212339214208
 21
2984.9500660184603
  0
LINE
  8
_0-2_08_DIM
  6
CONTINUOUS
 62
    3
 10
3840.1212339214208
 20
2991.2000660184603
 11
2965.1212339214212
 21
2991.2000660184603
  0
INSERT
  2
-008-_Open30
  8
_0-2_08_DIM
 10
3852.6212339214208
 20
2991.2000660184603
 41
12.5
 42
12.5
 50
0
  0
INSERT
  2
-008-_Open30
  8
_0-2_08_DIM
 10
2952.6212339214208
 20
2991.2000660184603
 41
12.5
 42
12.5
 50
180
  0
LINE
  8
_0-2_08_DIM
  6
CONTINUOUS
 62
    3
 10
2952.6212339214208
 20
2988.0750660184603
 11
2952.6212339214208
 21
2997.4500660184603
  0
LINE
  8
_0-2_08_DIM
  6
CONTINUOUS
 62
    3
 10
2902.6212339214208
 20
2872.9027435512589
 11
2902.6212339214208
 21
2997.4500660184603
  0
LINE
  8
_0-2_08_DIM
  6
CONTINUOUS
 62
    3
 10
2940.1212339214208
 20
2991.2000660184603
 11
2915.1212339214208
 21
2991.2000660184603
  0
INSERT
  2
-008-_Open30
  8
_0-2_08_DIM
 10
2952.6212339214208
 20
2991.2000660184603
 41
12.5
 42
12.5
 50
0
  0
INSERT
  2
-008-_Open30
  8
_0-2_08_DIM
 10
2902.6212339214208
 20
2991.2000660184603
 41
12.5
 42
12.5
 50
180
  0
LINE
  8
_0-2_08_DIM
  6
CONTINUOUS
 62
    3
 10
4019.550839899101
 20
2303.3401629387054
 11
3921.9258398991005
 21
2303.3401629387054
  0
LINE
  8
_0-2_08_DIM
  6
CONTINUOUS
 62
    3
 10
3921.9258398991005
 20
2303.3401629387054
 11
3887.707120537711
 21
2250.7227266573564
  0
INSERT
  2
-008-_Open30
  8
_0-2_08_DIM
 10
3880.8923322834607
 20
2240.2437638723404
 41
12.5
 42
12.5
 50
236.96282577861899
  0
LINE
  8
_0-2_08_DIM
  6
CONTINUOUS
 62
    3
 10
4053.467587626676
 20
2781.9461384830097
 11
3955.842587626677
 21
2781.9461384830092
  0
LINE
  8
_0-2_08_DIM
  6
CONTINUOUS
 62
    3
 10
3955.842587626677
 20
2781.9461384830092
 11
3892.8240151609784
 21
2832.5660506880827
  0
INSERT
  2
-008-_Open30
  8
_0-2_08_DIM
 10
3883.0786425715114
 20
2840.3940589336366
 41
12.5
 42
12.5
 50
141.22669338120002
  0
LINE
  8
_0-2_08_DIM
  6
CONTINUOUS
 62
    3
 10
3908.9600686862541
 20
3526.1165783171091
 11
3963.5277086690471
 21
3580.6842182999017
  0
INSERT
  2
-008-_Open30
  8
_0-2_08_DIM
 10
3900.1212339214226
 20
3517.2777435522767
 41
12.5
 42
12.5
 50
224.99999999999997
  0
LINE
  8
_0-2_08_DIM
  6
CONTINUOUS
 62
    3
 10
3908.9600686862527
 20
2516.5526964977521
 11
3970.6812609181957
 21
2578.2738887296955
  0
INSERT
  2
-008-_Open30
  8
_0-2_08_DIM
 10
3900.1212339214208
 20
2507.7138617329206
 41
12.5
 42
12.5
 50
224.99999999999997
  0
LINE
  8
_0-2_08_DIM
  6
CONTINUOUS
 62
    3
 10
3908.9600386832881
 20
1278.9855436475848
 11
3958.4698083571957
 21
1328.4953133214919
  0
INSERT
  2
-008-_Open30
  8
_0-2_08_DIM
 10
3900.1212039184566
 20
1270.146708882753
 41
12.5
 42
12.5
 50
224.99999999999997
  0
LINE
  8
_0-2_08_DIM
  6
CONTINUOUS
 62
    3
 10
3908.960038683289
 20
1456.3078741180839
 11
3958.3526034395459
 21
1406.9153093618268
  0
INSERT
  2
-008-_Open30
  8
_0-2_08_DIM
 10
3900.1212039184575
 20
1465.1467088829158
 41
12.499999999999998
 42
12.499999999999998
 50
135
  0
TEXT
  8
_0-6_07_TEXT
 62
    3
 10
4884.3003996054376
 20
1463.6347262817076
 40
14.999999999999998
 41
1
 50
0
  1
ÆŹŗL
  0
TEXT
  8
_0-6_07_TEXT
 62
    3
 10
4885.5003996054375
 20
1435.7397262817076
 40
14.999999999999998
 41
1
 50
0
  1
ü@ÄwÄ”é╚é½ŖpĢöé═
  0
TEXT
  8
_0-6_07_TEXT
 62
    3
 10
5047.1253996054365
 20
1435.7397262817076
 40
14.999999999999998
 41
1
 50
0
  1
C0.5
  0
TEXT
  8
_0-6_07_TEXT
 62
    3
 10
5097.8396853197228
 20
1435.7397262817076
 40
14.999999999999998
 41
1
 50
0
  1
é╠é▒éŲ
  0
TEXT
  8
_0-6_07_TEXT
 62
    3
 10
4885.5003996054375
 20
1407.2447262817077
 40
14.999999999999998
 41
1
 50
0
  1
ü@āKāXÉžÆf¢╩é═āOāēāCāōā_ÄdÅŃé░é╠é▒
  0
TEXT
  8
_0-6_07_TEXT
 62
    3
 10
4883.7153996054367
 20
1380.2047262817075
 40
14.999999999999998
 41
1
 50
0
  1
éŲ
  0
TEXT
  8
_0-6_07_TEXT
 62
    3
 10
4885.5003996054375
 20
1352.4897262817076
 40
14.999999999999998
 41
1
 50
0
  1
ü@ÄwÄ”é╚é½ŚnÉ┌Ģöé═ü@ü@ü@ü@é╠é▒éŲ
  0
TEXT
  8
_0-2_08_DIM
 62
    3
 10
3959.1310523131474
 20
2137.7138617317923
 40
14.999999999999998
 41
1
 50
90
  1
150
  0
TEXT
  8
_0-2_08_DIM
 62
    3
 10
4007.2256308161782
 20
1820.9281474472066
 40
14.999999999999998
 41
1
 50
90
  1
50
  0
TEXT
  8
_0-2_08_DIM
 62
    3
 10
4007.2256308161773
 20
2138.4281474472073
 40
14.999999999999998
 41
1
 50
90
  1
600
  0
TEXT
  8
_0-2_08_DIM
 62
    3
 10
4007.2256308161773
 20
2470.9281474472064
 40
14.999999999999998
 41
1
 50
90
  1
50
  0
TEXT
  8
_0-2_08_DIM
 62
    3
 10
4056.7173631665396
 20
2138.7852903043499
 40
14.999999999999998
 41
1
 50
90
  1
700
  0
TEXT
  8
_0-2_08_DIM
 62
    3
 10
3928.9605196357061
 20
2018.1443516926122
 40
14.999999999999998
 41
1
 50
0
  1
25
  0
TEXT
  8
_0-2_08_DIM
 62
    3
 10
3406.1926624940497
 20
2018.1443516926122
 40
14.999999999999998
 41
1
 50
0
  1
900
  0
TEXT
  8
_0-2_08_DIM
 62
    3
 10
2877.710519635707
 20
2020.644351692612
 40
14.999999999999998
 41
1
 50
0
  1
(25)
  0
TEXT
  8
_0-2_08_DIM
 62
    3
 10
3863.3355196357061
 20
1741.0982857326346
 40
14.999999999999998
 41
1
 50
0
  1
50
  0
TEXT
  8
_0-2_08_DIM
 62
    3
 10
3371.1926624928496
 20
1743.5982857326346
 40
14.999999999999998
 41
1
 50
0
  1
(900)
  0
TEXT
  8
_0-2_08_DIM
 62
    3
 10
2913.335519635707
 20
1741.0982857326346
 40
14.999999999999998
 41
1
 50
0
  1
50
  0
TEXT
  8
_0-2_08_DIM
 62
    3
 10
3372.9783467755997
 20
1578.0482121388234
 40
14.999999999999998
 41
1
 50
0
  1
1000
  0
TEXT
  8
_0-2_08_DIM
 62
    3
 10
3317.9783467778752
 20
1150.5926877779871
 40
14.999999999999998
 41
1
 50
0
  1
1110
  0
TEXT
  8
_0-2_08_DIM
 62
    3
 10
3959.1310523131474
 20
1233.3609945970391
 40
14.999999999999998
 41
1
 50
90
  1
50
  0
TEXT
  8
_0-2_08_DIM
 62
    3
 10
3959.1310523131469
 20
1473.3609945972005
 40
14.999999999999998
 41
1
 50
90
  1
50
  0
TEXT
  8
_0-2_08_DIM
 62
    3
 10
4007.2256308161777
 20
1346.2181374542627
 40
14.999999999999998
 41
1
 50
90
  1
290
  0
TEXT
  8
_0-2_08_DIM
 62
    3
 10
2816.1926324921587
 20
1580.5482121388236
 40
14.999999999999998
 41
1
 50
0
  1
(110)
  0
TEXT
  8
_0-2_08_DIM
 62
    3
 10
3928.9605196357061
 20
2753.8704822518794
 40
14.999999999999998
 41
1
 50
0
  1
25
  0
TEXT
  8
_0-2_08_DIM
 62
    3
 10
3317.9783767808376
 20
2753.8704822518794
 40
14.999999999999998
 41
1
 50
0
  1
1060
  0
TEXT
  8
_0-2_08_DIM
 62
    3
 10
2717.7105196402545
 20
2756.3704822518794
 40
14.999999999999998
 41
1
 50
0
  1
(25)
  0
TEXT
  8
_0-2_08_DIM
 62
    3
 10
3974.2862122329529
 20
3147.9920292665624
 40
14.999999999999998
 41
1
 50
90
  1
650
  0
TEXT
  8
_0-2_08_DIM
 62
    3
 10
3863.3355196357061
 20
2994.3250660184603
 40
14.999999999999998
 41
1
 50
0
  1
50
  0
TEXT
  8
_0-2_08_DIM
 62
    3
 10
3371.1926624928496
 20
2996.8250660184608
 40
14.999999999999998
 41
1
 50
0
  1
(900)
  0
TEXT
  8
_0-2_08_DIM
 62
    3
 10
2913.335519635707
 20
2994.3250660184603
 40
14.999999999999998
 41
1
 50
0
  1
50
  0
TEXT
  8
_0-2_08_DIM
 62
    3
 10
3926.8426256133866
 20
2307.3201629387049
 40
14.999999999999998
 41
1
 50
0
  1
4-12
  0
TEXT
  8
_0-2_08_DIM
 62
    3
 10
3988.2711970419587
 20
2307.3201629387049
 40
14.999999999999998
 41
1
 50
0
  1
āLāŖ
  0
TEXT
  8
_0-2_08_DIM
 62
    3
 10
3960.7593733409617
 20
2785.9261384830093
 40
14.999999999999998
 41
1
 50
0
  1
4-14
  0
TEXT
  8
_0-2_08_DIM
 62
    3
 10
4022.1879447695337
 20
2785.9261384830093
 40
14.999999999999998
 41
1
 50
0
  1
āLāŖ
  0
TEXT
  8
_0-2_08_DIM
 62
    3
 10
3917.6920369599902
 20
3539.267963973261
 40
14.999999999999998
 41
1
 50
45
  1
4-C5
  0
TEXT
  8
_0-2_08_DIM
 62
    3
 10
3924.8455892091388
 20
2536.8576344030553
 40
14.999999999999998
 41
1
 50
45.000000000000043
  1
4-C5
  0
TEXT
  8
_0-2_08_DIM
 62
    3
 10
3912.6341366481388
 20
1287.0790589948515
 40
14.999999999999998
 41
1
 50
45
  1
2-C5
  0
TEXT
  8
_0-2_08_DIM
 62
    3
 10
3916.9363491129056
 20
1452.7509810708839
 40
14.999999999999998
 41
1
 50
-45.000000000000313
  1
2-C5
  0
TEXT
  8
_0-0_90_FRAME
 62
    3
 10
1912.6196726669898
 20
429.15639732005855
 40
14.999999999999998
 41
1
 50
0
  1
Äøōc
  0
TEXT
  8
_0-0_90_FRAME
 62
    3
 10
1529.4783101801406
 20
429.15639732005855
 40
14.999999999999998
 41
0.65
 50
0
  1
2013.09.01
  0
TEXT
  8
_0-0_90_FRAME
 62
    3
 10
1629.4367469126948
 20
429.15639732005855
 40
14.999999999999998
 41
1
 50
0
  1
āGāAü[ö▓é½ÆŪē┴
  0
TEXT
  8
_0-8_
 62
    7
 10
2850.7559189346262
 20
406.81534728598137
 40
47.492487937325095
 41
1
 50
0
  1
A3ü@150%
  0
ENDSEC
  0
EOF
