  0
SECTION
  2
HEADER
  9
$ACADVER
  1
AC1009
  9
$INSBASE
 10
0
 20
0
 30
0
  9
$EXTMIN
 10
0
 20
0
  9
$EXTMAX
 10
7978.7379734706165
 20
5642.1075669542215
  9
$LIMMIN
 10
0
 20
0
  9
$LIMMAX
 10
7978.7379734706165
 20
5642.1075669542215
  9
$LTSCALE
 40
18.996995174930039
  0
ENDSEC
  0
SECTION
  2
TABLES
  0
TABLE
  2
LTYPE
 70
     9
  0
LTYPE
  2
CONTINUOUS
 70
    64
  3
実線
 72
    65
 73
     0
 40
0.0
  0
LTYPE
  2
DASHED1
 70
    64
  3
--  --  --  --  --  --  --  --  
 72
    65
 73
     2
 40
2.5
 49
1.25
 49
-1.25
  0
LTYPE
  2
DASHED2
 70
    64
  3
----    ----    ----    ----    
 72
    65
 73
     2
 40
5.0
 49
2.5
 49
-2.5
  0
LTYPE
  2
DASHED3
 70
    64
  3
------  ------  ------  ------  
 72
    65
 73
     2
 40
5.0
 49
3.75
 49
-1.25
  0
LTYPE
  2
CENTER1
 70
    64
  3
----- - ----- - ----- - ----- - 
 72
    65
 73
     4
 40
10.0
 49
6.25
 49
-1.25
 49
1.25
 49
-1.25
  0
LTYPE
  2
CENTER2
 70
    64
  3
----------  --  ----------  --  
 72
    65
 73
     4
 40
20.0
 49
12.5
 49
-2.5
 49
2.5
 49
-2.5
  0
LTYPE
  2
PHANTOM1
 70
    64
  3
--- - - --- - - --- - - --- - - 
 72
    65
 73
     6
 40
10.0
 49
3.25
 49
-1.25
 49
1.25
 49
-1.25
 49
1.25
 49
-1.25
  0
LTYPE
  2
PHANTOM2
 70
    64
  3
--------  -  -  --------  -  -  
 72
    65
 73
     6
 40
20.0
 49
10.0
 49
-2.5
 49
1.25
 49
-2.5
 49
1.25
 49
-2.5
  0
LTYPE
  2
DOT
 70
    64
  3
-   -   -   -   -   -   -   -   
 72
    65
 73
     2
 40
2.5
 49
0.625
 49
-1.875
  0
LTYPE
  2
DUMMY
 70
    64
  3
ダミー
 72
    65
 73
     0
 40
0.0
  0
LTYPE
  2
RAND1
 70
    64
  3
ランダム線1
 72
    65
 73
     4
 40
10.0
 49
1.0
 49
-2.0
 49
3.0
 49
-4.0
  0
LTYPE
  2
RAND2
 70
    64
  3
ランダム線2
 72
    65
 73
     4
 40
14.0
 49
2.0
 49
-3.0
 49
4.0
 49
-5.0
  0
LTYPE
  2
RAND3
 70
    64
  3
ランダム線3
 72
    65
 73
     4
 40
18.0
 49
3.0
 49
-4.0
 49
5.0
 49
-6.0
  0
LTYPE
  2
RAND4
 70
    64
  3
ランダム線4
 72
    65
 73
     4
 40
22.0
 49
4.0
 49
-5.0
 49
6.0
 49
-7.0
  0
LTYPE
  2
RAND5
 70
    64
  3
ランダム線5
 72
    65
 73
     4
 40
26.0
 49
5.0
 49
-6.0
 49
7.0
 49
-8.0
  0
LTYPE
  2
LONG1
 70
    64
  3
----------  --  ----------  --  
 72
    65
 73
     4
 40
40.0
 49
32.5
 49
-2.5
 49
2.5
 49
-2.5
  0
LTYPE
  2
LONG2
 70
    64
  3
--------  -  -  --------  -  -  
 72
    65
 73
     6
 40
40.0
 49
30.0
 49
-2.5
 49
1.25
 49
-2.5
 49
1.25
 49
-2.5
  0
LTYPE
  2
LONG3
 70
    64
  3
+++++++++++++++..+++++++++++++++
 72
    65
 73
     2
 40
40.0
 49
37.5
 49
-2.5
  0
LTYPE
  2
LONG4
 70
    64
  3
+++++++++++++++..+++++++++++++++
 72
    65
 73
     2
 40
80.0
 49
75.0
 49
-5.0
  0
LTYPE
  2
LONG5
 70
    64
  3
----------  --  ----------  --  
 72
    65
 73
     4
 40
60.0
 49
37.5
 49
-7.5
 49
7.5
 49
-7.5
  0
LTYPE
  2
dashed
 70
   64
  3
-------   -------------   ------
 72
   65
 73
    2
 40
7.5
 49
6
 49
-1.5
  0
LTYPE
  2
dashed_spaced
 70
   64
  3
----        --------        ----
 72
   65
 73
    2
 40
12
 49
6
 49
-6
  0
LTYPE
  2
long_dashed_dotted
 70
   64
  3
------------- --- --------------
 72
   65
 73
    4
 40
15.25
 49
12
 49
-1.5
 49
0.25
 49
-1.5
  0
LTYPE
  2
long_dashed_double-dotted
 70
   64
  3
----------- --- --- ------------
 72
   65
 73
    6
 40
17
 49
12
 49
-1.5
 49
0.25
 49
-1.5
 49
0.25
 49
-1.5
  0
LTYPE
  2
long_dashed_triplicate-dotted
 70
   64
  3
--------- --- --- --- ----------
 72
   65
 73
    8
 40
18.75
 49
12
 49
-1.5
 49
0.25
 49
-1.5
 49
0.25
 49
-1.5
 49
0.25
 49
-1.5
  0
LTYPE
  2
dotted
 70
   64
  3
   -       -       -       -    
 72
   65
 73
    2
 40
1.75
 49
0.25
 49
-1.5
  0
LTYPE
  2
chain
 70
   64
  3
-------------- -- --------------
 72
   65
 73
    4
 40
18.5
 49
12
 49
-1.5
 49
3.5
 49
-1.5
  0
LTYPE
  2
chain_double_dash
 70
   64
  3
------------ -- -- -------------
 72
   65
 73
    6
 40
23.5
 49
12
 49
-1.5
 49
3.5
 49
-1.5
 49
3.5
 49
-1.5
  0
LTYPE
  2
dashed_dotted
 70
   64
  3
-----------     -     ----------
 72
   65
 73
    4
 40
9.25
 49
6
 49
-1.5
 49
0.25
 49
-1.5
  0
LTYPE
  2
double-dashed_dotted
 70
   64
  3
------   -----------   -   -----
 72
   65
 73
    6
 40
16.75
 49
6
 49
-1.5
 49
6
 49
-1.5
 49
0.25
 49
-1.5
  0
LTYPE
  2
dashed_double-dotted
 70
   64
  3
---------    -    -    ---------
 72
   65
 73
    6
 40
11
 49
6
 49
-1.5
 49
0.25
 49
-1.5
 49
0.25
 49
-1.5
  0
LTYPE
  2
double-dashed_double-dotted
 70
   64
  3
-----   ---------   -   -   ----
 72
   65
 73
    8
 40
18.5
 49
6
 49
-1.5
 49
6
 49
-1.5
 49
0.25
 49
-1.5
 49
0.25
 49
-1.5
  0
LTYPE
  2
dashed_triplicate-dotted
 70
   64
  3
-------    -    -    -    ------
 72
   65
 73
    8
 40
12.75
 49
6
 49
-1.5
 49
0.25
 49
-1.5
 49
0.25
 49
-1.5
 49
0.25
 49
-1.5
  0
LTYPE
  2
double-dashed_triplicate-dotted
 70
   64
  3
-----  ---------  -  -  -  -----
 72
   65
 73
   10
 40
20.25
 49
6
 49
-1.5
 49
6
 49
-1.5
 49
0.25
 49
-1.5
 49
0.25
 49
-1.5
 49
0.25
 49
-1.5
  0
LTYPE
  2
undefined
 70
   64
  3
--------------------------------
 72
   65
 73
    0
 40
0
  0
LTYPE
  2
_
 70
   64
  3
                                
 72
   65
 73
    0
 40
0
  0
LTYPE
  2
__18
 70
   64
  3
                                
 72
   65
 73
    0
 40
0
  0
LTYPE
  2
__19
 70
   64
  3
                                
 72
   65
 73
    0
 40
0
  0
LTYPE
  2
__20
 70
   64
  3
                                
 72
   65
 73
    0
 40
0
  0
LTYPE
  2
__21
 70
   64
  3
                                
 72
   65
 73
    0
 40
0
  0
LTYPE
  2
__22
 70
   64
  3
                                
 72
   65
 73
    0
 40
0
  0
LTYPE
  2
__23
 70
   64
  3
                                
 72
   65
 73
    0
 40
0
  0
LTYPE
  2
__24
 70
   64
  3
                                
 72
   65
 73
    0
 40
0
  0
LTYPE
  2
__25
 70
   64
  3
                                
 72
   65
 73
    0
 40
0
  0
LTYPE
  2
__26
 70
   64
  3
                                
 72
   65
 73
    0
 40
0
  0
LTYPE
  2
__27
 70
   64
  3
                                
 72
   65
 73
    0
 40
0
  0
LTYPE
  2
__28
 70
   64
  3
                                
 72
   65
 73
    0
 40
0
  0
LTYPE
  2
__29
 70
   64
  3
                                
 72
   65
 73
    0
 40
0
  0
LTYPE
  2
__30
 70
   64
  3
                                
 72
   65
 73
    0
 40
0
  0
LTYPE
  2
__31
 70
   64
  3
                                
 72
   65
 73
    0
 40
0
  0
LTYPE
  2
__32
 70
   64
  3
                                
 72
   65
 73
    0
 40
0
  0
ENDTAB
  0
TABLE
  2
STYLE
  5
3
100
AcDbSymbolTable
 70
     1
  0
STYLE
  5
10
100
AcDbSymbolTableRecord
100
AcDbTextStyleTableRecord
  2
STANDARD
 70
     0
 40
0.0
 41
1.0
 50
0.0
 71
     0
 42
0.2
  3
txt
  4
bigfont.shx
  0
STYLE
  5
26
100
AcDbSymbolTableRecord
100
AcDbTextStyleTableRecord
  2
TATEGAKI
 70
    68
 40
0.0
 41
1.0
 50
0.0
 71
     0
 42
1.0
  3
txt
  4
bigfont.shx
  0
ENDTAB
  0
TABLE
  2
LAYER
 70
    9
  0
LAYER
  2
_0-0_90_FRAME
 70
   64
 62
    7
  6
CONTINUOUS
  0
LAYER
  2
_0-1_91_BLANK
 70
   64
 62
    7
  6
CONTINUOUS
  0
LAYER
  2
_0-2_08_DIM
 70
   64
 62
    7
  6
CONTINUOUS
  0
LAYER
  2
_0-3_04_HIDDEN
 70
   64
 62
    7
  6
CONTINUOUS
  0
LAYER
  2
_0-4_05_CENTER
 70
   64
 62
    7
  6
CONTINUOUS
  0
LAYER
  2
_0-5_0
 70
   64
 62
    7
  6
CONTINUOUS
  0
LAYER
  2
_0-6_07_TEXT
 70
   64
 62
    7
  6
CONTINUOUS
  0
LAYER
  2
_0-9_
 70
   64
 62
    7
  6
CONTINUOUS
  0
LAYER
  2
ADD_LINE
 70
   64
 62
    7
  6
CONTINUOUS
  0
ENDTAB
  0
ENDSEC
  0
SECTION
  2
BLOCKS
  0
BLOCK
  2
-000-Weld-line
 70
   64
 10
0
 20
0
 30
0
  0
LINE
  8
_0-2_08_DIM
  6
CONTINUOUS
 62
    3
 10
0
 20
0
 11
1
 21
0
  0
ENDBLK
  0
BLOCK
  2
-001-Weld10-s5
 70
   64
 10
0
 20
0
 30
0
  0
CIRCLE
  8
_0-2_08_DIM
  6
CONTINUOUS
 62
    3
 10
0
 20
0
 40
2
  0
ENDBLK
  0
BLOCK
  2
-002-Weld10-a1
 70
   64
 10
0
 20
0
 30
0
  0
LINE
  8
_0-2_08_DIM
  6
CONTINUOUS
 62
    3
 10
4.9999999999999991
 20
0
 11
0
 21
4.9999999999999991
  0
LINE
  8
_0-2_08_DIM
  6
CONTINUOUS
 62
    3
 10
0
 20
4.9999999999999991
 11
0
 21
0
  0
LINE
  8
_0-2_08_DIM
  6
CONTINUOUS
 62
    3
 10
0
 20
0
 11
4.9999999999999991
 21
0
  0
ENDBLK
  0
BLOCK
  2
-003-Jis_w20130906110600
 70
   64
 10
0
 20
0
 30
0
  0
INSERT
  2
-000-Weld-line
  8
_0-2_08_DIM
 10
0
 20
0
 41
14.000000000000002
 42
14.000000000000002
 50
0
  0
INSERT
  2
-001-Weld10-s5
  8
_0-2_08_DIM
 10
0
 20
0
 41
1
 42
1
 50
0
  0
INSERT
  2
-002-Weld10-a1
  8
_0-2_08_DIM
 10
6
 20
0
 41
-1
 42
1
 50
180
  0
TEXT
  8
_0-2_08_DIM
 62
    3
 10
4.0000000000001137
 20
-1
 40
2.7999999999999998
 41
0.8999999999999999
 50
0
  1

  0
TEXT
  8
_0-2_08_DIM
 62
    3
 10
14.000000000000114
 20
-1
 40
2.7999999999999998
 41
0.8999999999999999
 50
0
  1

  0
LINE
  8
_0-2_08_DIM
  6
CONTINUOUS
 62
    3
 10
-4.6308054280802935
 20
-5.7653612299384349
 11
0
 21
0
  0
ENDBLK
  0
BLOCK
  2
-004-p1ba05
 70
   64
 10
0
 20
0
 30
0
  0
ARC
  8
_0-2_08_DIM
  6
CONTINUOUS
 62
    3
 10
0
 20
1.6206695983957431
 40
1.6206695983958537
 50
204.22763733453323
 51
335.57577857182139
  0
ARC
  8
_0-2_08_DIM
  6
CONTINUOUS
 62
    3
 10
-2.9535588745990822
 20
0.2854771617432376
 40
1.6206695983958537
 50
24.227637334533135
 51
155.57577857182133
  0
ENDBLK
  0
BLOCK
  2
-005-A$C67E0B8A4
 70
   64
 10
0
 20
0
 30
0
  0
LINE
  8
_0-3_04_HIDDEN
  6
CONTINUOUS
 62
    7
 10
0
 20
0
 11
39.999999999999993
 21
0
  0
ARC
  8
_0-3_04_HIDDEN
  6
CONTINUOUS
 62
    7
 10
38
 20
1
 40
2
 50
0
 51
90
  0
LINE
  8
_0-3_04_HIDDEN
  6
CONTINUOUS
 62
    7
 10
39.999999999999993
 20
1
 11
39.999999999999993
 21
0
  0
LINE
  8
_0-3_04_HIDDEN
  6
CONTINUOUS
 62
    7
 10
38
 20
3
 11
7.5
 21
3
  0
ARC
  8
_0-3_04_HIDDEN
  6
CONTINUOUS
 62
    7
 10
7.5
 20
7.5
 40
4.5
 50
180
 51
270
  0
LINE
  8
_0-3_04_HIDDEN
  6
CONTINUOUS
 62
    7
 10
3
 20
7.5
 11
3
 21
38
  0
ARC
  8
_0-3_04_HIDDEN
  6
CONTINUOUS
 62
    7
 10
1
 20
38
 40
2
 50
0
 51
90
  0
LINE
  8
_0-3_04_HIDDEN
  6
CONTINUOUS
 62
    7
 10
1
 20
39.999999999999993
 11
0
 21
39.999999999999993
  0
LINE
  8
_0-3_04_HIDDEN
  6
CONTINUOUS
 62
    7
 10
0
 20
0
 11
0
 21
39.999999999999993
  0
ENDBLK
  0
BLOCK
  2
-006-AM_BALLOON1
 70
   64
 10
0
 20
0
 30
0
  0
CIRCLE
  8
_0-2_08_DIM
  6
CONTINUOUS
 62
    3
 10
0
 20
0
 40
4.9999999999999991
  0
ENDBLK
  0
BLOCK
  2
-007-_Open30
 70
   64
 10
0
 20
0
 30
0
  0
LINE
  8
_0-2_08_DIM
  6
CONTINUOUS
 62
    3
 10
-1
 20
0.26794919
 11
0
 21
0
  0
LINE
  8
_0-2_08_DIM
  6
CONTINUOUS
 62
    3
 10
0
 20
0
 11
-1
 21
-0.26794919
  0
LINE
  8
_0-2_08_DIM
  6
CONTINUOUS
 62
    3
 10
0
 20
0
 11
-1
 21
0
  0
ENDBLK
  0
ENDSEC
  0
SECTION
  2
ENTITIES
  0
TEXT
  8
_0-0_90_FRAME
 62
    7
 10
6031.7830763894417
 20
1249.4651691817971
 40
30
 41
1
 50
0
  1
AT-221121-09-2
  0
TEXT
  8
_0-0_90_FRAME
 62
    7
 10
5826.3497540260305
 20
1180.41263500794
 40
30
 41
1
 50
0
  1
2025.05.07
  0
LINE
  8
_0-0_90_FRAME
  6
CONTINUOUS
 62
    5
 10
1737.8418238945496
 20
1164.1174635762779
 11
6396.1999953091954
 21
1164.1174635762779
  0
LINE
  8
_0-0_90_FRAME
  6
CONTINUOUS
 62
    5
 10
6396.1999953091954
 20
1164.1174635762779
 11
6396.1999953091954
 21
4494.4408267060026
  0
LINE
  8
_0-0_90_FRAME
  6
CONTINUOUS
 62
    5
 10
6396.1999953091954
 20
4494.4408267060026
 11
1737.8418238945496
 21
4494.4408267060026
  0
LINE
  8
_0-0_90_FRAME
  6
CONTINUOUS
 62
    5
 10
1737.8418238945496
 20
4494.4408267060026
 11
1737.8418238945496
 21
1164.1174635762779
  0
LINE
  8
_0-0_90_FRAME
  6
CONTINUOUS
 62
    5
 10
1504.766406752648
 20
2829.2791451411413
 11
1737.8418238945496
 21
2829.2791451411413
  0
LINE
  8
_0-0_90_FRAME
  6
CONTINUOUS
 62
    5
 10
6473.9715667374494
 20
2829.2791451411413
 11
6396.1999953091954
 21
2829.2791451411413
  0
LINE
  8
_0-0_90_FRAME
  6
CONTINUOUS
 62
    5
 10
4067.0209096018721
 20
4584.2123981503046
 11
4067.0209096018725
 21
4494.4408267060026
  0
LINE
  8
_0-0_90_FRAME
  6
CONTINUOUS
 62
    5
 10
4067.0209096018725
 20
1086.6935981342531
 11
4067.0209096018725
 21
1164.1174635762779
  0
LINE
  8
_0-0_90_FRAME
  6
CONTINUOUS
 62
    5
 10
3468.7780524614263
 20
1128.2228921478443
 11
4665.2637667423187
 21
1128.2228921478443
  0
LINE
  8
_0-0_90_FRAME
  6
CONTINUOUS
 62
    5
 10
3468.7780524614263
 20
1128.2228921478443
 11
3468.7780524614263
 21
1164.1174635762779
  0
LINE
  8
_0-0_90_FRAME
  6
CONTINUOUS
 62
    5
 10
3588.4266238895193
 20
1128.2228921478443
 11
3588.4266238895193
 21
1164.1174635762779
  0
LINE
  8
_0-0_90_FRAME
  6
CONTINUOUS
 62
    5
 10
3708.0751953176114
 20
1128.2228921478443
 11
3708.0751953176114
 21
1164.1174635762779
  0
LINE
  8
_0-0_90_FRAME
  6
CONTINUOUS
 62
    5
 10
3827.723766745688
 20
1128.2228921478443
 11
3827.723766745688
 21
1164.1174635762779
  0
LINE
  8
_0-0_90_FRAME
  6
CONTINUOUS
 62
    5
 10
3947.3723381737809
 20
1128.2228921478443
 11
3947.3723381737809
 21
1164.1174635762779
  0
LINE
  8
_0-0_90_FRAME
  6
CONTINUOUS
 62
    5
 10
4186.6694810299496
 20
1128.2228921478443
 11
4186.6694810299496
 21
1164.1174635762779
  0
LINE
  8
_0-0_90_FRAME
  6
CONTINUOUS
 62
    5
 10
4306.3180524580412
 20
1128.2228921478443
 11
4306.3180524580412
 21
1164.1174635762779
  0
LINE
  8
_0-0_90_FRAME
  6
CONTINUOUS
 62
    5
 10
4425.9666238861337
 20
1128.2228921478443
 11
4425.9666238861337
 21
1164.1174635762779
  0
LINE
  8
_0-0_90_FRAME
  6
CONTINUOUS
 62
    5
 10
4545.6151953142253
 20
1128.2228921478443
 11
4545.6151953142253
 21
1164.1174635762779
  0
LINE
  8
_0-0_90_FRAME
  6
CONTINUOUS
 62
    5
 10
4665.2637667423187
 20
1128.2228921478443
 11
4665.2637667423187
 21
1164.1174635762779
  0
LINE
  8
_0-0_90_FRAME
  6
CONTINUOUS
 62
    4
 10
2862.2196196067339
 20
4494.4408267060026
 11
2862.2196196067339
 21
4572.2123981342429
  0
TEXT
  8
_0-0_90_FRAME
 62
    7
 10
1959.026653220445
 20
4509.9310068263421
 40
24
 41
1
 50
0
  1
1
  0
TEXT
  8
_0-0_90_FRAME
 62
    7
 10
2251.8189746091725
 20
4509.9310068263421
 40
24
 41
1
 50
0
  1
2
  0
TEXT
  8
_0-0_90_FRAME
 62
    7
 10
2653.4194046075518
 20
4509.9310068263421
 40
24
 41
1
 50
0
  1
3
  0
TEXT
  8
_0-0_90_FRAME
 62
    7
 10
3055.019834605916
 20
4509.9310068263421
 40
24
 41
1
 50
0
  1
4
  0
TEXT
  8
_0-0_90_FRAME
 62
    7
 10
3456.6202646043103
 20
4509.9310068263421
 40
24
 41
1
 50
0
  1
5
  0
TEXT
  8
_0-0_90_FRAME
 62
    7
 10
3858.2206946026745
 20
4509.9310068263421
 40
24
 41
1
 50
0
  1
6
  0
TEXT
  8
_0-0_90_FRAME
 62
    7
 10
4259.8211246010542
 20
4509.9310068263421
 40
24
 41
1
 50
0
  1
7
  0
TEXT
  8
_0-0_90_FRAME
 62
    7
 10
4661.4215545994339
 20
4509.9310068263421
 40
24
 41
1
 50
0
  1
8
  0
TEXT
  8
_0-0_90_FRAME
 62
    7
 10
5063.0219845978127
 20
4509.9310068263421
 40
24
 41
1
 50
0
  1
9
  0
TEXT
  8
_0-0_90_FRAME
 62
    7
 10
5458.6224145961933
 20
4509.9310068263421
 40
24
 41
1
 50
0
  1
10
  0
TEXT
  8
_0-0_90_FRAME
 62
    7
 10
5862.2228445945575
 20
4509.9310068263421
 40
24
 41
1
 50
0
  1
11
  0
TEXT
  8
_0-0_90_FRAME
 62
    7
 10
6259.8232745929363
 20
4509.9310068263421
 40
24
 41
1
 50
0
  1
12
  0
TEXT
  8
_0-0_90_FRAME
 62
    7
 10
6411.6605721785427
 20
3882.2374282618339
 40
24
 41
1
 50
0
  1
B
  0
LINE
  8
_0-0_90_FRAME
  6
CONTINUOUS
 62
   18
 10
1737.8418238945496
 20
1164.1174635762779
 11
2349.8418238891954
 21
1164.1174635762782
  0
LINE
  8
_0-0_90_FRAME
  6
CONTINUOUS
 62
   18
 10
2349.8418238891954
 20
1164.1174635762782
 11
2349.8418238891954
 21
1333.831749289873
  0
LINE
  8
_0-0_90_FRAME
  6
CONTINUOUS
 62
   18
 10
2349.8418238891954
 20
1333.831749289873
 11
1737.8418238945496
 21
1333.831749289873
  0
LINE
  8
_0-0_90_FRAME
  6
CONTINUOUS
 62
   18
 10
1737.8418238945496
 20
1333.831749289873
 11
1737.8418238945496
 21
1164.1174635762779
  0
LINE
  8
_0-0_90_FRAME
  6
CONTINUOUS
 62
   18
 10
2265.8418238891954
 20
1164.1174635762779
 11
2265.8418238891954
 21
1333.831749289873
  0
LINE
  8
_0-0_90_FRAME
  6
CONTINUOUS
 62
   18
 10
1821.8418238891952
 20
1164.1174635762779
 11
1821.8418238891952
 21
1333.831749289873
  0
LINE
  8
_0-0_90_FRAME
  6
CONTINUOUS
 62
   18
 10
1917.841823889195
 20
1164.1174635762779
 11
1917.841823889195
 21
1333.831749289873
  0
LINE
  8
_0-0_90_FRAME
  6
CONTINUOUS
 62
   18
 10
1737.8418238945496
 20
1291.4031778614824
 11
2349.8418238891954
 21
1291.4031778614824
  0
LINE
  8
_0-0_90_FRAME
  6
CONTINUOUS
 62
   18
 10
1737.8418238945496
 20
1248.9746064330702
 11
2349.8418238891954
 21
1248.9746064330702
  0
LINE
  8
_0-0_90_FRAME
  6
CONTINUOUS
 62
   18
 10
1737.8418238945496
 20
1206.5460350046797
 11
2349.8418238891954
 21
1206.5460350046797
  0
TEXT
  8
_0-0_90_FRAME
 62
    7
 10
1758.8963693464177
 20
1305.4174635756776
 40
14.399999999999999
 41
1
 50
0
  1
記号
  0
TEXT
  8
_0-0_90_FRAME
 62
    7
 10
1846.8355116737441
 20
1305.4174635756776
 40
14.399999999999999
 41
1
 50
0
  1
日付
  0
TEXT
  8
_0-0_90_FRAME
 62
    7
 10
2276.4236420710131
 20
1305.4174635756776
 40
14.399999999999999
 41
1
 50
0
  1
作成者
  0
TEXT
  8
_0-0_90_FRAME
 62
    7
 10
2043.950914798286
 20
1305.1720090302233
 40
14.399999999999999
 41
1
 50
0
  1
改訂内容
  0
LINE
  8
_0-0_90_FRAME
  6
CONTINUOUS
 62
   18
 10
1760.7489667490859
 20
1211.0523828837956
 11
1779.8418238918723
 21
1244.1221815167389
  0
LINE
  8
_0-0_90_FRAME
  6
CONTINUOUS
 62
   18
 10
1779.8418238918723
 20
1244.1221815167389
 11
1798.9346810346483
 21
1211.0523828837956
  0
LINE
  8
_0-0_90_FRAME
  6
CONTINUOUS
 62
   18
 10
1798.9346810346483
 20
1211.0523828837956
 11
1760.7489667490859
 21
1211.0523828837956
  0
TEXT
  8
_0-0_90_FRAME
 62
    7
 10
1775.7066534785461
 20
1259.6463613278854
 40
12.72857142852
 41
1
 50
0
  1
1
  0
TEXT
  8
_0-0_90_FRAME
 62
    7
 10
1775.7066534785461
 20
1217.2177898994839
 40
12.72857142852
 41
1
 50
0
  1
2
  0
TEXT
  8
_0-0_90_FRAME
 62
    7
 10
1775.7066534785461
 20
1174.7892184710824
 40
12.72857142852
 41
1
 50
0
  1
3
  0
LINE
  8
_0-0_90_FRAME
  6
CONTINUOUS
 62
   18
 10
1760.7489667490859
 20
1253.4809543121974
 11
1779.8418238918723
 21
1286.5507529451513
  0
LINE
  8
_0-0_90_FRAME
  6
CONTINUOUS
 62
   18
 10
1779.8418238918723
 20
1286.5507529451513
 11
1798.9346810346483
 21
1253.4809543121974
  0
LINE
  8
_0-0_90_FRAME
  6
CONTINUOUS
 62
   18
 10
1798.9346810346483
 20
1253.4809543121974
 11
1760.7489667490859
 21
1253.4809543121974
  0
LINE
  8
_0-0_90_FRAME
  6
CONTINUOUS
 62
   18
 10
1760.7489667490859
 20
1168.6238114553942
 11
1779.8418238918723
 21
1201.6936100883486
  0
LINE
  8
_0-0_90_FRAME
  6
CONTINUOUS
 62
   18
 10
1779.8418238918723
 20
1201.6936100883486
 11
1798.9346810346483
 21
1168.6238114553942
  0
LINE
  8
_0-0_90_FRAME
  6
CONTINUOUS
 62
   18
 10
1798.9346810346483
 20
1168.6238114553942
 11
1760.7489667490859
 21
1168.6238114553942
  0
LINE
  8
_0-0_90_FRAME
  6
CONTINUOUS
 62
    4
 10
6473.9715667374494
 20
1977.3125186445855
 11
6396.1999953091954
 21
1977.3125186445855
  0
LINE
  8
_0-0_90_FRAME
  6
CONTINUOUS
 62
    4
 10
6473.9715667374494
 20
2403.2958318928631
 11
6396.1999953091954
 21
2403.2958318928631
  0
LINE
  8
_0-0_90_FRAME
  6
CONTINUOUS
 62
    4
 10
6473.9715667374494
 20
1551.3292053963082
 11
6396.1999953091954
 21
1551.3292053963082
  0
LINE
  8
_0-0_90_FRAME
  6
CONTINUOUS
 62
    4
 10
6473.9715667374494
 20
3681.2457716376962
 11
6396.1999953091954
 21
3681.2457716376962
  0
LINE
  8
_0-0_90_FRAME
  6
CONTINUOUS
 62
    4
 10
6473.9715667374494
 20
3255.2624583894185
 11
6396.1999953091954
 21
3255.2624583894185
  0
LINE
  8
_0-0_90_FRAME
  6
CONTINUOUS
 62
    4
 10
6473.9715667374494
 20
4107.229084885973
 11
6396.1999953091954
 21
4107.229084885973
  0
TEXT
  8
_0-0_90_FRAME
 62
    7
 10
6411.6605721785427
 20
4308.220741510112
 40
24
 41
1
 50
0
  1
A
  0
TEXT
  8
_0-0_90_FRAME
 62
    7
 10
6411.6605721785427
 20
3456.2541150135571
 40
24
 41
1
 50
0
  1
C
  0
TEXT
  8
_0-0_90_FRAME
 62
    7
 10
6411.6605721785427
 20
3030.2708017652799
 40
24
 41
1
 50
0
  1
D
  0
TEXT
  8
_0-0_90_FRAME
 62
    7
 10
6411.6605721785427
 20
2178.3041752687245
 40
24
 41
1
 50
0
  1
F
  0
TEXT
  8
_0-0_90_FRAME
 62
    7
 10
6411.6605721785427
 20
1752.3208620204468
 40
24
 41
1
 50
0
  1
G
  0
TEXT
  8
_0-0_90_FRAME
 62
    7
 10
6411.6605721785427
 20
1326.3375487721694
 40
24
 41
1
 50
0
  1
H
  0
TEXT
  8
_0-0_90_FRAME
 62
    7
 10
6411.6605721785427
 20
2604.2874885170017
 40
24
 41
1
 50
0
  1
E
  0
TEXT
  8
_0-0_90_FRAME
 62
    7
 10
1702.5104535307653
 20
3882.2374282618339
 40
24
 41
1
 50
0
  1
B
  0
LINE
  8
_0-0_90_FRAME
  6
CONTINUOUS
 62
    4
 10
1737.8418238945496
 20
1977.3125186445855
 11
1660.0702524663097
 21
1977.3125186445855
  0
LINE
  8
_0-0_90_FRAME
  6
CONTINUOUS
 62
    4
 10
1737.8418238945496
 20
2403.2958318928631
 11
1660.0702524663097
 21
2403.2958318928631
  0
LINE
  8
_0-0_90_FRAME
  6
CONTINUOUS
 62
    4
 10
1737.8418238945496
 20
1551.3292053963082
 11
1660.0702524663097
 21
1551.3292053963082
  0
LINE
  8
_0-0_90_FRAME
  6
CONTINUOUS
 62
    4
 10
1737.8418238945496
 20
3681.2457716376962
 11
1660.0702524663097
 21
3681.2457716376962
  0
LINE
  8
_0-0_90_FRAME
  6
CONTINUOUS
 62
    4
 10
1737.8418238945496
 20
3255.2624583894185
 11
1660.0702524663097
 21
3255.2624583894185
  0
LINE
  8
_0-0_90_FRAME
  6
CONTINUOUS
 62
    4
 10
1737.8418238945496
 20
4107.229084885973
 11
1660.0702524663097
 21
4107.229084885973
  0
TEXT
  8
_0-0_90_FRAME
 62
    7
 10
1702.5104535307653
 20
4308.220741510112
 40
24
 41
1
 50
0
  1
A
  0
TEXT
  8
_0-0_90_FRAME
 62
    7
 10
1702.5104535307653
 20
3456.2541150135571
 40
24
 41
1
 50
0
  1
C
  0
TEXT
  8
_0-0_90_FRAME
 62
    7
 10
1702.5104535307653
 20
3030.2708017652799
 40
24
 41
1
 50
0
  1
D
  0
TEXT
  8
_0-0_90_FRAME
 62
    7
 10
1702.5104535307653
 20
2178.3041752687245
 40
24
 41
1
 50
0
  1
F
  0
TEXT
  8
_0-0_90_FRAME
 62
    7
 10
1702.5104535307653
 20
1752.3208620204468
 40
24
 41
1
 50
0
  1
G
  0
TEXT
  8
_0-0_90_FRAME
 62
    7
 10
1702.5104535307653
 20
2604.2874885170017
 40
24
 41
1
 50
0
  1
E
  0
TEXT
  8
_0-0_90_FRAME
 62
    7
 10
1702.5104535307653
 20
1326.3375487721694
 40
24
 41
1
 50
0
  1
H
  0
LINE
  8
_0-0_90_FRAME
  6
CONTINUOUS
 62
    4
 10
2460.6191896083542
 20
4494.4408267060026
 11
2460.6191896083542
 21
4572.2123981342429
  0
LINE
  8
_0-0_90_FRAME
  6
CONTINUOUS
 62
    4
 10
2059.0187596099749
 20
4494.4408267060026
 11
2059.0187596099749
 21
4572.2123981342429
  0
LINE
  8
_0-0_90_FRAME
  6
CONTINUOUS
 62
    4
 10
3263.8200496051127
 20
4494.4408267060026
 11
3263.8200496051127
 21
4572.2123981342429
  0
LINE
  8
_0-0_90_FRAME
  6
CONTINUOUS
 62
    4
 10
3665.4204796034928
 20
4494.4408267060026
 11
3665.4204796034928
 21
4572.2123981342429
  0
LINE
  8
_0-0_90_FRAME
  6
CONTINUOUS
 62
    4
 10
5271.8221995969952
 20
4494.4408267060026
 11
5271.8221995969952
 21
4572.2123981342429
  0
LINE
  8
_0-0_90_FRAME
  6
CONTINUOUS
 62
    4
 10
5673.4226295953758
 20
4494.4408267060026
 11
5673.4226295953758
 21
4572.2123981342429
  0
LINE
  8
_0-0_90_FRAME
  6
CONTINUOUS
 62
    4
 10
6075.0230595937546
 20
4494.4408267060026
 11
6075.0230595937546
 21
4572.2123981342429
  0
LINE
  8
_0-0_90_FRAME
  6
CONTINUOUS
 62
    4
 10
4870.2217695986164
 20
4494.4408267060026
 11
4870.2217695986164
 21
4572.2123981342429
  0
LINE
  8
_0-0_90_FRAME
  6
CONTINUOUS
 62
    4
 10
4468.6213396002522
 20
4494.4408267060026
 11
4468.6213396002522
 21
4572.2123981342429
  0
LINE
  8
_0-0_90_FRAME
  6
CONTINUOUS
 62
    4
 10
2862.2196196067339
 20
1086.6935981342531
 11
2862.2196196067339
 21
1164.1174635762779
  0
LINE
  8
_0-0_90_FRAME
  6
CONTINUOUS
 62
    4
 10
2460.6191896083542
 20
1086.6935981342531
 11
2460.6191896083542
 21
1164.1174635762779
  0
LINE
  8
_0-0_90_FRAME
  6
CONTINUOUS
 62
    4
 10
2059.0187596099749
 20
1086.6935981342531
 11
2059.0187596099749
 21
1164.1174635762779
  0
LINE
  8
_0-0_90_FRAME
  6
CONTINUOUS
 62
    4
 10
3263.8200496051127
 20
1086.6935981342531
 11
3263.8200496051127
 21
1164.1174635762779
  0
LINE
  8
_0-0_90_FRAME
  6
CONTINUOUS
 62
    4
 10
5271.8221995969952
 20
1086.6935981342531
 11
5271.8221995969952
 21
1164.1174635762779
  0
LINE
  8
_0-0_90_FRAME
  6
CONTINUOUS
 62
    4
 10
5673.4226295953758
 20
1086.6935981342531
 11
5673.4226295953758
 21
1164.1174635762779
  0
LINE
  8
_0-0_90_FRAME
  6
CONTINUOUS
 62
    4
 10
6075.0230595937546
 20
1086.6935981342531
 11
6075.0230595937546
 21
1164.1174635762779
  0
LINE
  8
_0-0_90_FRAME
  6
CONTINUOUS
 62
    4
 10
4870.2217695986164
 20
1086.6935981342531
 11
4870.2217695986164
 21
1164.1174635762779
  0
LINE
  8
_0-1_91_BLANK
  6
CONTINUOUS
 62
    5
 10
1504.7664067331659
 20
1086.6935981342531
 11
6473.9715667291957
 21
1086.6935981342531
  0
LINE
  8
_0-1_91_BLANK
  6
CONTINUOUS
 62
    5
 10
6473.9715667291957
 20
1086.6935981342531
 11
6473.9715667291957
 21
4584.2123981503046
  0
LINE
  8
_0-1_91_BLANK
  6
CONTINUOUS
 62
    5
 10
6473.9715667291957
 20
4584.2123981503046
 11
1504.7664067331659
 21
4584.2123981503046
  0
LINE
  8
_0-1_91_BLANK
  6
CONTINUOUS
 62
    5
 10
1504.7664067331659
 20
4584.2123981503046
 11
1504.7664067331659
 21
1086.6935981342531
  0
LINE
  8
_0-0_90_FRAME
  6
CONTINUOUS
 62
   18
 10
5208.199995313993
 20
1164.1174635762779
 11
6396.1999953091954
 21
1164.1174635762779
  0
LINE
  8
_0-0_90_FRAME
  6
CONTINUOUS
 62
   18
 10
6396.1999953091954
 20
1164.1174635762779
 11
6396.1999953091954
 21
1384.746035003958
  0
LINE
  8
_0-0_90_FRAME
  6
CONTINUOUS
 62
   18
 10
6396.1999953091954
 20
1384.746035003958
 11
5208.199995313993
 21
1384.746035003958
  0
LINE
  8
_0-0_90_FRAME
  6
CONTINUOUS
 62
   18
 10
5208.199995313993
 20
1384.746035003958
 11
5208.199995313993
 21
1164.1174635762779
  0
LINE
  8
_0-0_90_FRAME
  6
CONTINUOUS
 62
   18
 10
5301.7549953136186
 20
1346.5603207183956
 11
5361.1549953133772
 21
1361.410320718338
  0
LINE
  8
_0-0_90_FRAME
  6
CONTINUOUS
 62
   18
 10
5361.1549953133772
 20
1361.410320718338
 11
5361.1549953133772
 21
1302.01032071858
  0
LINE
  8
_0-0_90_FRAME
  6
CONTINUOUS
 62
   18
 10
5361.1549953133772
 20
1302.01032071858
 11
5301.7549953136186
 21
1316.860320718517
  0
LINE
  8
_0-0_90_FRAME
  6
CONTINUOUS
 62
   18
 10
5301.7549953136186
 20
1316.860320718517
 11
5301.7549953136186
 21
1346.5603207183956
  0
CIRCLE
  8
_0-0_90_FRAME
  6
CONTINUOUS
 62
   18
 10
5263.1449953137699
 20
1331.7103207184534
 40
14.84999999994
  0
CIRCLE
  8
_0-0_90_FRAME
  6
CONTINUOUS
 62
   18
 10
5263.1449953137699
 20
1331.7103207184534
 40
29.699999999879999
  0
LINE
  8
_0-0_90_FRAME
  6
CONTINUOUS
 62
   18
 10
5227.5049953139142
 20
1331.7103207184534
 11
5367.0949953133486
 21
1331.7103207184534
  0
LINE
  8
_0-0_90_FRAME
  6
CONTINUOUS
 62
   18
 10
5263.1449953137699
 20
1296.0703207186032
 11
5263.1449953137699
 21
1367.3503207183146
  0
LINE
  8
_0-0_90_FRAME
  6
CONTINUOUS
 62
   18
 10
5694.8428524547935
 20
1164.1174635762779
 11
5694.8428524547935
 21
1384.746035003958
  0
LINE
  8
_0-0_90_FRAME
  6
CONTINUOUS
 62
   18
 10
5694.8428524547935
 20
1232.0031778617165
 11
6396.1999953091954
 21
1232.0031778617165
  0
TEXT
  8
_0-0_90_FRAME
 62
    7
 10
5697.8851029993766
 20
1210.8954163810847
 40
15
 41
1
 50
0
  1
作 成 日
  0
LINE
  8
_0-0_90_FRAME
  6
CONTINUOUS
 62
   18
 10
6109.6571381674294
 20
1232.0031778617165
 11
6109.6571381674294
 21
1164.1174635762779
  0
TEXT
  8
_0-0_90_FRAME
 62
    7
 10
6113.2194686487319
 20
1210.4805707721969
 40
15
 41
1
 50
0
  1
個数
  0
TEXT
  8
_0-0_90_FRAME
 62
    7
 10
5554.5625359092128
 20
1365.0794264868507
 40
15
 41
1
 50
0
  1
サイズ
  0
TEXT
  8
_0-0_90_FRAME
 62
    7
 10
5389.0911073384568
 20
1363.9607034924081
 40
15
 41
1
 50
0
  1
尺　度
  0
TEXT
  8
_0-0_90_FRAME
 62
    7
 10
5554.5626273277276
 20
1259.0079979158525
 40
15
 41
1
 50
0
  1
製　図
  0
LINE
  8
_0-0_90_FRAME
  6
CONTINUOUS
 62
   18
 10
5694.8428524547935
 20
1278.6746064329545
 11
5208.199995313993
 21
1278.6746064329545
  0
LINE
  8
_0-0_90_FRAME
  6
CONTINUOUS
 62
   18
 10
5921.4142559007023
 20
1299.8888921471553
 11
6396.1999953091954
 21
1299.8888921471553
  0
TEXT
  8
_0-0_90_FRAME
 62
    7
 10
5603.8647523826075
 20
1304.1340335538957
 40
30
 41
1
 50
0
  1
A1
  0
LINE
  8
_0-0_90_FRAME
  6
CONTINUOUS
 62
   18
 10
5551.8714238840321
 20
1164.1174635762779
 11
5551.8714238840321
 21
1384.746035003958
  0
TEXT
  8
_0-0_90_FRAME
 62
    2
 10
5313.171574566355
 20
1187.4643965082237
 40
30
 41
1
 50
0
  1
アクアトリム
  0
LINE
  8
_0-0_90_FRAME
  6
CONTINUOUS
 62
    4
 10
5303.9424252923609
 20
1264.1442910964668
 11
5303.9424252923609
 21
1175.385219772822
  0
LINE
  8
_0-0_90_FRAME
  6
CONTINUOUS
 62
    4
 10
5303.9424252923609
 20
1175.385219772822
 11
5223.2523604526841
 21
1175.385219772822
  0
LINE
  8
_0-0_90_FRAME
  6
CONTINUOUS
 62
    4
 10
5223.2523604526841
 20
1175.385219772822
 11
5223.2523604526841
 21
1264.1442910964668
  0
LINE
  8
_0-0_90_FRAME
  6
CONTINUOUS
 62
    4
 10
5223.6365988566831
 20
1263.7600526924653
 11
5223.6365988566831
 21
1263.7600526924653
  0
LINE
  8
_0-0_90_FRAME
  6
CONTINUOUS
 62
    4
 10
5223.6365988566831
 20
1263.7600526924653
 11
5223.8350719776981
 21
1261.7583837331458
  0
LINE
  8
_0-0_90_FRAME
  6
CONTINUOUS
 62
    4
 10
5223.8350719776981
 20
1261.7583837331458
 11
5224.4244608353938
 21
1259.817534472262
  0
LINE
  8
_0-0_90_FRAME
  6
CONTINUOUS
 62
    4
 10
5224.4244608353938
 20
1259.817534472262
 11
5225.3868571475741
 21
1257.9964766324886
  0
LINE
  8
_0-0_90_FRAME
  6
CONTINUOUS
 62
    4
 10
5225.3868571475741
 20
1257.9964766324886
 11
5226.6930189892892
 21
1256.3505421347872
  0
LINE
  8
_0-0_90_FRAME
  6
CONTINUOUS
 62
    4
 10
5226.6930189892892
 20
1256.3505421347872
 11
5228.3032592939289
 21
1254.9297418659878
  0
LINE
  8
_0-0_90_FRAME
  6
CONTINUOUS
 62
    4
 10
5228.3032592939289
 20
1254.9297418659878
 11
5230.1686517246562
 21
1253.777246123298
  0
LINE
  8
_0-0_90_FRAME
  6
CONTINUOUS
 62
    4
 10
5230.1686517246562
 20
1253.777246123298
 11
5232.2325172763994
 21
1252.9280729066684
  0
LINE
  8
_0-0_90_FRAME
  6
CONTINUOUS
 62
    4
 10
5232.2325172763994
 20
1252.9280729066684
 11
5234.4321464387349
 21
1252.408023914584
  0
LINE
  8
_0-0_90_FRAME
  6
CONTINUOUS
 62
    4
 10
5234.4321464387349
 20
1252.408023914584
 11
5236.7007045926302
 21
1252.2329005725119
  0
LINE
  8
_0-0_90_FRAME
  6
CONTINUOUS
 62
    4
 10
5236.7007045926302
 20
1252.2329005725119
 11
5238.9692627465256
 21
1252.408023914584
  0
LINE
  8
_0-0_90_FRAME
  6
CONTINUOUS
 62
    4
 10
5238.9692627465256
 20
1252.408023914584
 11
5241.168891908861
 21
1252.9280729066684
  0
LINE
  8
_0-0_90_FRAME
  6
CONTINUOUS
 62
    4
 10
5241.168891908861
 20
1252.9280729066684
 11
5243.2327574606043
 21
1253.777246123298
  0
LINE
  8
_0-0_90_FRAME
  6
CONTINUOUS
 62
    4
 10
5243.2327574606043
 20
1253.777246123298
 11
5245.0981498913316
 21
1254.9297418659878
  0
LINE
  8
_0-0_90_FRAME
  6
CONTINUOUS
 62
    4
 10
5245.0981498913316
 20
1254.9297418659878
 11
5246.7083901959713
 21
1256.3505421347872
  0
LINE
  8
_0-0_90_FRAME
  6
CONTINUOUS
 62
    4
 10
5246.7083901959713
 20
1256.3505421347872
 11
5248.0145520376864
 21
1257.9964766324886
  0
LINE
  8
_0-0_90_FRAME
  6
CONTINUOUS
 62
    4
 10
5248.0145520376864
 20
1257.9964766324886
 11
5248.9769483498667
 21
1259.817534472262
  0
LINE
  8
_0-0_90_FRAME
  6
CONTINUOUS
 62
    4
 10
5248.9769483498667
 20
1259.817534472262
 11
5249.5663372075624
 21
1261.7583837331458
  0
LINE
  8
_0-0_90_FRAME
  6
CONTINUOUS
 62
    4
 10
5249.5663372075624
 20
1261.7583837331458
 11
5249.7648103285774
 21
1263.7600526924653
  0
LINE
  8
_0-0_90_FRAME
  6
CONTINUOUS
 62
    4
 10
5249.7648103285774
 20
1263.7600526924653
 11
5249.7648103285774
 21
1263.7600526924653
  0
ARC
  8
_0-0_90_FRAME
  6
CONTINUOUS
 62
    4
 10
5250.1490487325755
 20
1263.7600526924653
 40
0.3842384039984478
 50
0
 51
180
  0
LINE
  8
_0-0_90_FRAME
  6
CONTINUOUS
 62
    4
 10
5250.5332871365754
 20
1263.7600526924653
 11
5250.5332871365754
 21
1263.7600526924653
  0
LINE
  8
_0-0_90_FRAME
  6
CONTINUOUS
 62
    4
 10
5250.5332871365754
 20
1263.7600526924653
 11
5250.7317602575904
 21
1261.7583837331458
  0
LINE
  8
_0-0_90_FRAME
  6
CONTINUOUS
 62
    4
 10
5250.7317602575904
 20
1261.7583837331458
 11
5251.3211491152861
 21
1259.817534472262
  0
LINE
  8
_0-0_90_FRAME
  6
CONTINUOUS
 62
    4
 10
5251.3211491152861
 20
1259.817534472262
 11
5252.2835454274664
 21
1257.9964766324886
  0
LINE
  8
_0-0_90_FRAME
  6
CONTINUOUS
 62
    4
 10
5252.2835454274664
 20
1257.9964766324886
 11
5253.5897072691814
 21
1256.3505421347872
  0
LINE
  8
_0-0_90_FRAME
  6
CONTINUOUS
 62
    4
 10
5253.5897072691814
 20
1256.3505421347872
 11
5255.1999475738212
 21
1254.9297418659878
  0
LINE
  8
_0-0_90_FRAME
  6
CONTINUOUS
 62
    4
 10
5255.1999475738212
 20
1254.9297418659878
 11
5257.0653400045485
 21
1253.777246123298
  0
LINE
  8
_0-0_90_FRAME
  6
CONTINUOUS
 62
    4
 10
5257.0653400045485
 20
1253.777246123298
 11
5259.1292055562917
 21
1252.9280729066684
  0
LINE
  8
_0-0_90_FRAME
  6
CONTINUOUS
 62
    4
 10
5259.1292055562917
 20
1252.9280729066684
 11
5261.3288347186271
 21
1252.408023914584
  0
LINE
  8
_0-0_90_FRAME
  6
CONTINUOUS
 62
    4
 10
5261.3288347186271
 20
1252.408023914584
 11
5263.5973928725225
 21
1252.2329005725119
  0
LINE
  8
_0-0_90_FRAME
  6
CONTINUOUS
 62
    4
 10
5263.5973928725225
 20
1252.2329005725119
 11
5265.8659510264179
 21
1252.408023914584
  0
LINE
  8
_0-0_90_FRAME
  6
CONTINUOUS
 62
    4
 10
5265.8659510264179
 20
1252.408023914584
 11
5268.0655801887533
 21
1252.9280729066684
  0
LINE
  8
_0-0_90_FRAME
  6
CONTINUOUS
 62
    4
 10
5268.0655801887533
 20
1252.9280729066684
 11
5270.1294457404965
 21
1253.777246123298
  0
LINE
  8
_0-0_90_FRAME
  6
CONTINUOUS
 62
    4
 10
5270.1294457404965
 20
1253.777246123298
 11
5271.9948381712238
 21
1254.9297418659878
  0
LINE
  8
_0-0_90_FRAME
  6
CONTINUOUS
 62
    4
 10
5271.9948381712238
 20
1254.9297418659878
 11
5273.6050784758636
 21
1256.3505421347872
  0
LINE
  8
_0-0_90_FRAME
  6
CONTINUOUS
 62
    4
 10
5273.6050784758636
 20
1256.3505421347872
 11
5274.9112403175786
 21
1257.9964766324886
  0
LINE
  8
_0-0_90_FRAME
  6
CONTINUOUS
 62
    4
 10
5274.9112403175786
 20
1257.9964766324886
 11
5275.8736366297589
 21
1259.817534472262
  0
LINE
  8
_0-0_90_FRAME
  6
CONTINUOUS
 62
    4
 10
5275.8736366297589
 20
1259.817534472262
 11
5276.4630254874546
 21
1261.7583837331458
  0
LINE
  8
_0-0_90_FRAME
  6
CONTINUOUS
 62
    4
 10
5276.4630254874546
 20
1261.7583837331458
 11
5276.6614986084696
 21
1263.7600526924653
  0
LINE
  8
_0-0_90_FRAME
  6
CONTINUOUS
 62
    4
 10
5276.6614986084696
 20
1263.7600526924653
 11
5276.6614986084696
 21
1263.7600526924653
  0
ARC
  8
_0-0_90_FRAME
  6
CONTINUOUS
 62
    4
 10
5277.0457370124695
 20
1263.7600526924653
 40
0.3842384039984478
 50
0
 51
180
  0
LINE
  8
_0-0_90_FRAME
  6
CONTINUOUS
 62
    4
 10
5277.4299754164667
 20
1263.7600526924653
 11
5277.4299754164667
 21
1263.7600526924653
  0
LINE
  8
_0-0_90_FRAME
  6
CONTINUOUS
 62
    4
 10
5277.4299754164667
 20
1263.7600526924653
 11
5277.6284485374817
 21
1261.7583837331458
  0
LINE
  8
_0-0_90_FRAME
  6
CONTINUOUS
 62
    4
 10
5277.6284485374817
 20
1261.7583837331458
 11
5278.2178373951774
 21
1259.817534472262
  0
LINE
  8
_0-0_90_FRAME
  6
CONTINUOUS
 62
    4
 10
5278.2178373951774
 20
1259.817534472262
 11
5279.1802337073577
 21
1257.9964766324886
  0
LINE
  8
_0-0_90_FRAME
  6
CONTINUOUS
 62
    4
 10
5279.1802337073577
 20
1257.9964766324886
 11
5280.4863955490728
 21
1256.3505421347872
  0
LINE
  8
_0-0_90_FRAME
  6
CONTINUOUS
 62
    4
 10
5280.4863955490728
 20
1256.3505421347872
 11
5282.0966358537125
 21
1254.9297418659878
  0
LINE
  8
_0-0_90_FRAME
  6
CONTINUOUS
 62
    4
 10
5282.0966358537125
 20
1254.9297418659878
 11
5283.9620282844398
 21
1253.777246123298
  0
LINE
  8
_0-0_90_FRAME
  6
CONTINUOUS
 62
    4
 10
5283.9620282844398
 20
1253.777246123298
 11
5286.0258938361831
 21
1252.9280729066684
  0
LINE
  8
_0-0_90_FRAME
  6
CONTINUOUS
 62
    4
 10
5286.0258938361831
 20
1252.9280729066684
 11
5288.2255229985185
 21
1252.408023914584
  0
LINE
  8
_0-0_90_FRAME
  6
CONTINUOUS
 62
    4
 10
5288.2255229985185
 20
1252.408023914584
 11
5290.4940811524139
 21
1252.2329005725119
  0
LINE
  8
_0-0_90_FRAME
  6
CONTINUOUS
 62
    4
 10
5290.4940811524139
 20
1252.2329005725119
 11
5292.7626393063092
 21
1252.408023914584
  0
LINE
  8
_0-0_90_FRAME
  6
CONTINUOUS
 62
    4
 10
5292.7626393063092
 20
1252.408023914584
 11
5294.9622684686447
 21
1252.9280729066684
  0
LINE
  8
_0-0_90_FRAME
  6
CONTINUOUS
 62
    4
 10
5294.9622684686447
 20
1252.9280729066684
 11
5297.0261340203879
 21
1253.777246123298
  0
LINE
  8
_0-0_90_FRAME
  6
CONTINUOUS
 62
    4
 10
5297.0261340203879
 20
1253.777246123298
 11
5298.8915264511152
 21
1254.9297418659878
  0
LINE
  8
_0-0_90_FRAME
  6
CONTINUOUS
 62
    4
 10
5298.8915264511152
 20
1254.9297418659878
 11
5300.5017667557549
 21
1256.3505421347872
  0
LINE
  8
_0-0_90_FRAME
  6
CONTINUOUS
 62
    4
 10
5300.5017667557549
 20
1256.3505421347872
 11
5301.80792859747
 21
1257.9964766324886
  0
LINE
  8
_0-0_90_FRAME
  6
CONTINUOUS
 62
    4
 10
5301.80792859747
 20
1257.9964766324886
 11
5302.7703249096503
 21
1259.817534472262
  0
LINE
  8
_0-0_90_FRAME
  6
CONTINUOUS
 62
    4
 10
5302.7703249096503
 20
1259.817534472262
 11
5303.359713767346
 21
1261.7583837331458
  0
LINE
  8
_0-0_90_FRAME
  6
CONTINUOUS
 62
    4
 10
5303.359713767346
 20
1261.7583837331458
 11
5303.558186888361
 21
1263.7600526924653
  0
LINE
  8
_0-0_90_FRAME
  6
CONTINUOUS
 62
    4
 10
5303.558186888361
 20
1263.7600526924653
 11
5303.558186888361
 21
1263.7600526924653
  0
ARC
  8
_0-0_90_FRAME
  6
CONTINUOUS
 62
    4
 10
5303.9424252923609
 20
1263.7600526924653
 40
0.3842384039984478
 50
90
 51
180
  0
ARC
  8
_0-0_90_FRAME
  6
CONTINUOUS
 62
    4
 10
5250.1490487325755
 20
1263.7600526924653
 40
0.3842384039984478
 50
0
 51
90
  0
ARC
  8
_0-0_90_FRAME
  6
CONTINUOUS
 62
    4
 10
5223.2523604526841
 20
1263.7600526924653
 40
0.3842384039984478
 50
0
 51
90
  0
LINE
  8
_0-0_90_FRAME
  6
CONTINUOUS
 62
    4
 10
5232.4740821486503
 20
1186.9123718927758
 11
5237.0849429966265
 21
1186.9123718927758
  0
LINE
  8
_0-0_90_FRAME
  6
CONTINUOUS
 62
    4
 10
5237.0849429966265
 20
1186.9123718927758
 11
5237.0849429966265
 21
1182.3015110447959
  0
LINE
  8
_0-0_90_FRAME
  6
CONTINUOUS
 62
    4
 10
5237.0849429966265
 20
1182.3015110447959
 11
5232.4740821486503
 21
1182.3015110447959
  0
LINE
  8
_0-0_90_FRAME
  6
CONTINUOUS
 62
    4
 10
5232.4740821486503
 20
1186.9123718927758
 11
5232.4740821486503
 21
1182.3015110447959
  0
LINE
  8
_0-0_90_FRAME
  6
CONTINUOUS
 62
    4
 10
5294.7207035963957
 20
1186.9123718927758
 11
5290.1098427484185
 21
1186.9123718927758
  0
LINE
  8
_0-0_90_FRAME
  6
CONTINUOUS
 62
    4
 10
5290.1098427484185
 20
1186.9123718927758
 11
5290.1098427484185
 21
1182.3015110447959
  0
LINE
  8
_0-0_90_FRAME
  6
CONTINUOUS
 62
    4
 10
5290.1098427484185
 20
1182.3015110447959
 11
5294.7207035963957
 21
1182.3015110447959
  0
LINE
  8
_0-0_90_FRAME
  6
CONTINUOUS
 62
    4
 10
5294.7207035963957
 20
1186.9123718927758
 11
5294.7207035963957
 21
1182.3015110447959
  0
LINE
  8
_0-0_90_FRAME
  6
CONTINUOUS
 62
    4
 10
5244.0012342686041
 20
1186.9123718927758
 11
5248.6120951165803
 21
1186.9123718927758
  0
LINE
  8
_0-0_90_FRAME
  6
CONTINUOUS
 62
    4
 10
5248.6120951165803
 20
1186.9123718927758
 11
5248.6120951165803
 21
1182.3015110447959
  0
LINE
  8
_0-0_90_FRAME
  6
CONTINUOUS
 62
    4
 10
5248.6120951165803
 20
1182.3015110447959
 11
5244.0012342686041
 21
1182.3015110447959
  0
LINE
  8
_0-0_90_FRAME
  6
CONTINUOUS
 62
    4
 10
5244.0012342686041
 20
1186.9123718927758
 11
5244.0012342686041
 21
1182.3015110447959
  0
LINE
  8
_0-0_90_FRAME
  6
CONTINUOUS
 62
    4
 10
5255.5283863885579
 20
1186.9123718927758
 11
5260.1392472365342
 21
1186.9123718927758
  0
LINE
  8
_0-0_90_FRAME
  6
CONTINUOUS
 62
    4
 10
5260.1392472365342
 20
1186.9123718927758
 11
5260.1392472365342
 21
1182.3015110447959
  0
LINE
  8
_0-0_90_FRAME
  6
CONTINUOUS
 62
    4
 10
5260.1392472365342
 20
1182.3015110447959
 11
5255.5283863885579
 21
1182.3015110447959
  0
LINE
  8
_0-0_90_FRAME
  6
CONTINUOUS
 62
    4
 10
5255.5283863885579
 20
1186.9123718927758
 11
5255.5283863885579
 21
1182.3015110447959
  0
LINE
  8
_0-0_90_FRAME
  6
CONTINUOUS
 62
    4
 10
5267.0555385085117
 20
1186.9123718927758
 11
5271.666399356488
 21
1186.9123718927758
  0
LINE
  8
_0-0_90_FRAME
  6
CONTINUOUS
 62
    4
 10
5271.666399356488
 20
1186.9123718927758
 11
5271.666399356488
 21
1182.3015110447959
  0
LINE
  8
_0-0_90_FRAME
  6
CONTINUOUS
 62
    4
 10
5271.666399356488
 20
1182.3015110447959
 11
5267.0555385085117
 21
1182.3015110447959
  0
LINE
  8
_0-0_90_FRAME
  6
CONTINUOUS
 62
    4
 10
5267.0555385085117
 20
1186.9123718927758
 11
5267.0555385085117
 21
1182.3015110447959
  0
LINE
  8
_0-0_90_FRAME
  6
CONTINUOUS
 62
    4
 10
5278.5826906284647
 20
1186.9123718927758
 11
5283.1935514764418
 21
1186.9123718927758
  0
LINE
  8
_0-0_90_FRAME
  6
CONTINUOUS
 62
    4
 10
5283.1935514764418
 20
1186.9123718927758
 11
5283.1935514764418
 21
1182.3015110447959
  0
LINE
  8
_0-0_90_FRAME
  6
CONTINUOUS
 62
    4
 10
5283.1935514764418
 20
1182.3015110447959
 11
5278.5826906284647
 21
1182.3015110447959
  0
LINE
  8
_0-0_90_FRAME
  6
CONTINUOUS
 62
    4
 10
5278.5826906284647
 20
1186.9123718927758
 11
5278.5826906284647
 21
1182.3015110447959
  0
LINE
  8
_0-0_90_FRAME
  6
CONTINUOUS
 62
    4
 10
5263.5496489713123
 20
1230.7869332842599
 11
5263.5496489713123
 21
1230.7869332842599
  0
LINE
  8
_0-0_90_FRAME
  6
CONTINUOUS
 62
    4
 10
5263.5496489713123
 20
1230.7869332842599
 11
5263.4153877423905
 21
1232.2548238544275
  0
LINE
  8
_0-0_90_FRAME
  6
CONTINUOUS
 62
    4
 10
5263.4153877423905
 20
1232.2548238544275
 11
5263.0166835151258
 21
1233.6781133124091
  0
LINE
  8
_0-0_90_FRAME
  6
CONTINUOUS
 62
    4
 10
5263.0166835151258
 20
1233.6781133124091
 11
5262.3656507157093
 21
1235.0135557282429
  0
LINE
  8
_0-0_90_FRAME
  6
CONTINUOUS
 62
    4
 10
5262.3656507157093
 20
1235.0135557282429
 11
5261.4820706463142
 21
1236.2205743598904
  0
LINE
  8
_0-0_90_FRAME
  6
CONTINUOUS
 62
    4
 10
5261.4820706463142
 20
1236.2205743598904
 11
5260.3927904402344
 21
1237.2624945570101
  0
LINE
  8
_0-0_90_FRAME
  6
CONTINUOUS
 62
    4
 10
5260.3927904402344
 20
1237.2624945570101
 11
5259.1309073253296
 21
1238.1076581016493
  0
LINE
  8
_0-0_90_FRAME
  6
CONTINUOUS
 62
    4
 10
5259.1309073253296
 20
1238.1076581016493
 11
5257.734762981504
 21
1238.7303851271777
  0
LINE
  8
_0-0_90_FRAME
  6
CONTINUOUS
 62
    4
 10
5257.734762981504
 20
1238.7303851271777
 11
5256.2467785481595
 21
1239.1117543880396
  0
LINE
  8
_0-0_90_FRAME
  6
CONTINUOUS
 62
    4
 10
5256.2467785481595
 20
1239.1117543880396
 11
5254.7121656793479
 21
1239.2401781722258
  0
LINE
  8
_0-0_90_FRAME
  6
CONTINUOUS
 62
    4
 10
5254.7121656793479
 20
1239.2401781722258
 11
5253.1775528105363
 21
1239.1117543880396
  0
LINE
  8
_0-0_90_FRAME
  6
CONTINUOUS
 62
    4
 10
5253.1775528105363
 20
1239.1117543880396
 11
5251.6895683771918
 21
1238.7303851271777
  0
LINE
  8
_0-0_90_FRAME
  6
CONTINUOUS
 62
    4
 10
5251.6895683771918
 20
1238.7303851271777
 11
5250.2934240333661
 21
1238.1076581016493
  0
LINE
  8
_0-0_90_FRAME
  6
CONTINUOUS
 62
    4
 10
5250.2934240333661
 20
1238.1076581016493
 11
5249.0315409184614
 21
1237.2624945570101
  0
LINE
  8
_0-0_90_FRAME
  6
CONTINUOUS
 62
    4
 10
5249.0315409184614
 20
1237.2624945570101
 11
5247.9422607123815
 21
1236.2205743598904
  0
LINE
  8
_0-0_90_FRAME
  6
CONTINUOUS
 62
    4
 10
5247.9422607123815
 20
1236.2205743598904
 11
5247.0586806429865
 21
1235.0135557282429
  0
LINE
  8
_0-0_90_FRAME
  6
CONTINUOUS
 62
    4
 10
5247.0586806429865
 20
1235.0135557282429
 11
5246.40764784357
 21
1233.6781133124091
  0
LINE
  8
_0-0_90_FRAME
  6
CONTINUOUS
 62
    4
 10
5246.40764784357
 20
1233.6781133124091
 11
5246.0089436163053
 21
1232.2548238544275
  0
LINE
  8
_0-0_90_FRAME
  6
CONTINUOUS
 62
    4
 10
5246.0089436163053
 20
1232.2548238544275
 11
5245.8746823873835
 21
1230.7869332842599
  0
LINE
  8
_0-0_90_FRAME
  6
CONTINUOUS
 62
    4
 10
5245.8746823873835
 20
1230.7869332842599
 11
5245.8746823873835
 21
1230.7869332842599
  0
LINE
  8
_0-0_90_FRAME
  6
CONTINUOUS
 62
    4
 10
5263.5496489713105
 20
1230.7869332842599
 11
5263.5496489713105
 21
1228.4815028602686
  0
LINE
  8
_0-0_90_FRAME
  6
CONTINUOUS
 62
    4
 10
5259.3800861333611
 20
1221.3036608910515
 11
5259.3800861333611
 21
1221.3036608910515
  0
LINE
  8
_0-0_90_FRAME
  6
CONTINUOUS
 62
    4
 10
5259.3800861333611
 20
1221.3036608910515
 11
5258.0060953382081
 21
1220.6373749883332
  0
LINE
  8
_0-0_90_FRAME
  6
CONTINUOUS
 62
    4
 10
5258.0060953382081
 20
1220.6373749883332
 11
5256.5320201571794
 21
1220.2094289416837
  0
LINE
  8
_0-0_90_FRAME
  6
CONTINUOUS
 62
    4
 10
5256.5320201571794
 20
1220.2094289416837
 11
5255.002649618732
 21
1220.0328256751789
  0
LINE
  8
_0-0_90_FRAME
  6
CONTINUOUS
 62
    4
 10
5255.002649618732
 20
1220.0328256751789
 11
5253.4644528727786
 21
1220.1129311897059
  0
LINE
  8
_0-0_90_FRAME
  6
CONTINUOUS
 62
    4
 10
5253.4644528727786
 20
1220.1129311897059
 11
5251.9641672490807
 21
1220.4473115197416
  0
LINE
  8
_0-0_90_FRAME
  6
CONTINUOUS
 62
    4
 10
5251.9641672490807
 20
1220.4473115197416
 11
5250.5473781671308
 21
1221.0258066881622
  0
LINE
  8
_0-0_90_FRAME
  6
CONTINUOUS
 62
    4
 10
5250.5473781671308
 20
1221.0258066881622
 11
5249.2571340462564
 21
1221.8308394120079
  0
LINE
  8
_0-0_90_FRAME
  6
CONTINUOUS
 62
    4
 10
5249.2571340462564
 20
1221.8308394120079
 11
5248.1326383011738
 21
1222.837949179331
  0
LINE
  8
_0-0_90_FRAME
  6
CONTINUOUS
 62
    4
 10
5248.1326383011738
 20
1222.837949179331
 11
5247.2080581660757
 21
1224.0165354694732
  0
LINE
  8
_0-0_90_FRAME
  6
CONTINUOUS
 62
    4
 10
5247.2080581660757
 20
1224.0165354694732
 11
5246.5114865405067
 21
1225.3307875344024
  0
LINE
  8
_0-0_90_FRAME
  6
CONTINUOUS
 62
    4
 10
5246.5114865405067
 20
1225.3307875344024
 11
5246.0640884008271
 21
1226.7407724901691
  0
LINE
  8
_0-0_90_FRAME
  6
CONTINUOUS
 62
    4
 10
5246.0640884008271
 20
1226.7407724901691
 11
5245.8794577131175
 21
1228.2036486573793
  0
LINE
  8
_0-0_90_FRAME
  6
CONTINUOUS
 62
    4
 10
5245.8794577131175
 20
1228.2036486573793
 11
5245.8746823873835
 21
1228.4815028602686
  0
LINE
  8
_0-0_90_FRAME
  6
CONTINUOUS
 62
    4
 10
5260.3473453865845
 20
1230.5608547728368
 11
5260.3473453865845
 21
1228.7165104336445
  0
LINE
  8
_0-0_90_FRAME
  6
CONTINUOUS
 62
    4
 10
5281.4638439486089
 20
1227.7864064867151
 11
5281.4638439486089
 21
1239.2401781722272
  0
LINE
  8
_0-0_90_FRAME
  6
CONTINUOUS
 62
    4
 10
5278.0056983126206
 20
1228.4815028602686
 11
5278.0056983126206
 21
1239.2401781722272
  0
LINE
  8
_0-0_90_FRAME
  6
CONTINUOUS
 62
    4
 10
5278.0056983126206
 20
1239.2401781722272
 11
5281.4638439486089
 21
1239.2401781722272
  0
LINE
  8
_0-0_90_FRAME
  6
CONTINUOUS
 62
    4
 10
5265.3258309806724
 20
1227.7864064867151
 11
5265.3258309806724
 21
1239.2401781722272
  0
LINE
  8
_0-0_90_FRAME
  6
CONTINUOUS
 62
    4
 10
5268.7839766166617
 20
1228.4815028602686
 11
5268.7839766166617
 21
1239.2401781722272
  0
ARC
  8
_0-0_90_FRAME
  6
CONTINUOUS
 62
    4
 10
5273.4485468893263
 20
1228.133954673496
 40
8.1301478138378975
 50
182.45003099226136
 51
265.55525728852427
  0
LINE
  8
_0-0_90_FRAME
  6
CONTINUOUS
 62
    4
 10
5268.7839766166617
 20
1239.2401781722272
 11
5265.3258309806724
 21
1239.2401781722272
  0
LINE
  8
_0-0_90_FRAME
  6
CONTINUOUS
 62
    4
 10
5273.9711950706378
 20
1220.0282579723041
 11
5272.8184798586435
 21
1220.0282579723041
  0
ARC
  8
_0-0_90_FRAME
  6
CONTINUOUS
 62
    4
 10
5275.6434046238728
 20
1228.3920425683325
 40
6.8600113505739628
 50
179.25279388138676
 51
218.96457184688023
  0
ARC
  8
_0-0_90_FRAME
  6
CONTINUOUS
 62
    4
 10
5271.1462703054076
 20
1228.3920425683325
 40
6.8600113505731901
 50
321.03542815311977
 51
0.747206118613265
  0
ARC
  8
_0-0_90_FRAME
  6
CONTINUOUS
 62
    4
 10
5273.3948374646443
 20
1229.680596904127
 40
6.395793802200191
 50
241.15772780831895
 51
298.84227219168099
  0
LINE
  8
_0-0_90_FRAME
  6
CONTINUOUS
 62
    4
 10
5255.4569985549197
 20
1225.1217644920341
 11
5257.025930311409
 21
1223.5948182107265
  0
LINE
  8
_0-0_90_FRAME
  6
CONTINUOUS
 62
    4
 10
5255.4569985549197
 20
1225.1217644920341
 11
5257.1589663408413
 21
1226.929017247784
  0
LINE
  8
_0-0_90_FRAME
  6
CONTINUOUS
 62
    4
 10
5262.0515131442125
 20
1218.7037227336839
 11
5264.2753022446632
 21
1221.0650770514601
  0
LINE
  8
_0-0_90_FRAME
  6
CONTINUOUS
 62
    4
 10
5249.0769859721104
 20
1230.5608547728368
 11
5249.0769859721104
 21
1228.7165104336445
  0
LINE
  8
_0-0_90_FRAME
  6
CONTINUOUS
 62
    4
 10
5260.3473453865845
 20
1230.5608547728368
 11
5260.3473453865845
 21
1230.5608547728368
  0
LINE
  8
_0-0_90_FRAME
  6
CONTINUOUS
 62
    4
 10
5260.3473453865845
 20
1230.5608547728368
 11
5260.2617343446509
 21
1231.5342250753711
  0
LINE
  8
_0-0_90_FRAME
  6
CONTINUOUS
 62
    4
 10
5260.2617343446509
 20
1231.5342250753711
 11
5260.0075024670405
 21
1232.4780200138118
  0
LINE
  8
_0-0_90_FRAME
  6
CONTINUOUS
 62
    4
 10
5260.0075024670405
 20
1232.4780200138118
 11
5259.5923744607053
 21
1233.363562856538
  0
LINE
  8
_0-0_90_FRAME
  6
CONTINUOUS
 62
    4
 10
5259.5923744607053
 20
1233.363562856538
 11
5259.0289637800533
 21
1234.1639468323797
  0
LINE
  8
_0-0_90_FRAME
  6
CONTINUOUS
 62
    4
 10
5259.0289637800533
 20
1234.1639468323797
 11
5258.3343893735164
 21
1234.8548526792447
  0
LINE
  8
_0-0_90_FRAME
  6
CONTINUOUS
 62
    4
 10
5258.3343893735164
 20
1234.8548526792447
 11
5257.5297555329662
 21
1235.4152875725913
  0
LINE
  8
_0-0_90_FRAME
  6
CONTINUOUS
 62
    4
 10
5257.5297555329662
 20
1235.4152875725913
 11
5256.6395106504824
 21
1235.8282229817787
  0
LINE
  8
_0-0_90_FRAME
  6
CONTINUOUS
 62
    4
 10
5256.6395106504824
 20
1235.8282229817787
 11
5255.690704366335
 21
1236.0811120733545
  0
LINE
  8
_0-0_90_FRAME
  6
CONTINUOUS
 62
    4
 10
5255.690704366335
 20
1236.0811120733545
 11
5254.7121656793479
 21
1236.1662709402392
  0
LINE
  8
_0-0_90_FRAME
  6
CONTINUOUS
 62
    4
 10
5254.7121656793479
 20
1236.1662709402392
 11
5253.7336269923608
 21
1236.0811120733545
  0
LINE
  8
_0-0_90_FRAME
  6
CONTINUOUS
 62
    4
 10
5253.7336269923608
 20
1236.0811120733545
 11
5252.7848207082134
 21
1235.8282229817787
  0
LINE
  8
_0-0_90_FRAME
  6
CONTINUOUS
 62
    4
 10
5252.7848207082134
 20
1235.8282229817787
 11
5251.8945758257296
 21
1235.4152875725913
  0
LINE
  8
_0-0_90_FRAME
  6
CONTINUOUS
 62
    4
 10
5251.8945758257296
 20
1235.4152875725913
 11
5251.0899419851794
 21
1234.8548526792447
  0
LINE
  8
_0-0_90_FRAME
  6
CONTINUOUS
 62
    4
 10
5251.0899419851794
 20
1234.8548526792447
 11
5250.3953675786424
 21
1234.1639468323797
  0
LINE
  8
_0-0_90_FRAME
  6
CONTINUOUS
 62
    4
 10
5250.3953675786424
 20
1234.1639468323797
 11
5249.8319568979905
 21
1233.363562856538
  0
LINE
  8
_0-0_90_FRAME
  6
CONTINUOUS
 62
    4
 10
5249.8319568979905
 20
1233.363562856538
 11
5249.4168288916553
 21
1232.4780200138118
  0
LINE
  8
_0-0_90_FRAME
  6
CONTINUOUS
 62
    4
 10
5249.4168288916553
 20
1232.4780200138118
 11
5249.1625970140449
 21
1231.5342250753711
  0
LINE
  8
_0-0_90_FRAME
  6
CONTINUOUS
 62
    4
 10
5249.1625970140449
 20
1231.5342250753711
 11
5249.0769859721113
 21
1230.5608547728368
  0
LINE
  8
_0-0_90_FRAME
  6
CONTINUOUS
 62
    4
 10
5249.0769859721113
 20
1230.5608547728368
 11
5249.0769859721113
 21
1230.5608547728368
  0
LINE
  8
_0-0_90_FRAME
  6
CONTINUOUS
 62
    4
 10
5257.0259303114099
 20
1223.5948182107256
 11
5257.0259303114099
 21
1223.5948182107256
  0
LINE
  8
_0-0_90_FRAME
  6
CONTINUOUS
 62
    4
 10
5257.0259303114099
 20
1223.5948182107256
 11
5256.0985277264444
 21
1223.2727060725404
  0
LINE
  8
_0-0_90_FRAME
  6
CONTINUOUS
 62
    4
 10
5256.0985277264444
 20
1223.2727060725404
 11
5255.1290012322115
 21
1223.1157298701403
  0
LINE
  8
_0-0_90_FRAME
  6
CONTINUOUS
 62
    4
 10
5255.1290012322115
 20
1223.1157298701403
 11
5254.1468094006332
 21
1223.1286592460015
  0
LINE
  8
_0-0_90_FRAME
  6
CONTINUOUS
 62
    4
 10
5254.1468094006332
 20
1223.1286592460015
 11
5253.1817956334999
 21
1223.3111013475809
  0
LINE
  8
_0-0_90_FRAME
  6
CONTINUOUS
 62
    4
 10
5253.1817956334999
 20
1223.3111013475809
 11
5252.2632813858054
 21
1223.6575127639423
  0
LINE
  8
_0-0_90_FRAME
  6
CONTINUOUS
 62
    4
 10
5252.2632813858054
 20
1223.6575127639423
 11
5251.4191752481747
 21
1224.1573679594921
  0
LINE
  8
_0-0_90_FRAME
  6
CONTINUOUS
 62
    4
 10
5251.4191752481747
 20
1224.1573679594921
 11
5250.6751249584613
 21
1224.7954790870526
  0
LINE
  8
_0-0_90_FRAME
  6
CONTINUOUS
 62
    4
 10
5250.6751249584613
 20
1224.7954790870526
 11
5250.0537381082113
 21
1225.5524574629126
  0
LINE
  8
_0-0_90_FRAME
  6
CONTINUOUS
 62
    4
 10
5250.0537381082113
 20
1225.5524574629126
 11
5249.5738952224319
 21
1226.4053026821709
  0
LINE
  8
_0-0_90_FRAME
  6
CONTINUOUS
 62
    4
 10
5249.5738952224319
 20
1226.4053026821709
 11
5249.2501760843961
 21
1227.3281014744011
  0
LINE
  8
_0-0_90_FRAME
  6
CONTINUOUS
 62
    4
 10
5249.2501760843961
 20
1227.3281014744011
 11
5249.0924167363019
 21
1228.2928150652601
  0
LINE
  8
_0-0_90_FRAME
  6
CONTINUOUS
 62
    4
 10
5249.0924167363019
 20
1228.2928150652601
 11
5249.0769788979724
 21
1228.7075813716917
  0
LINE
  8
_0-0_90_FRAME
  6
CONTINUOUS
 62
    4
 10
5229.019143341754
 20
1220.0282579723041
 11
5232.4681489543982
 21
1220.0282579723041
  0
LINE
  8
_0-0_90_FRAME
  6
CONTINUOUS
 62
    4
 10
5229.019143341754
 20
1220.0282579723041
 11
5229.019143341754
 21
1220.1204751892617
  0
LINE
  8
_0-0_90_FRAME
  6
CONTINUOUS
 62
    4
 10
5229.019143341754
 20
1220.1204751892617
 11
5236.2637261037626
 21
1239.2401781722272
  0
LINE
  8
_0-0_90_FRAME
  6
CONTINUOUS
 62
    4
 10
5229.019143341754
 20
1220.0282579723041
 11
5229.019143341754
 21
1220.1204751892617
  0
LINE
  8
_0-0_90_FRAME
  6
CONTINUOUS
 62
    4
 10
5234.3485403600216
 20
1225.0931946014196
 11
5241.4415605882105
 21
1225.0931946014196
  0
LINE
  8
_0-0_90_FRAME
  6
CONTINUOUS
 62
    4
 10
5235.3883815623276
 20
1228.0134064718065
 11
5240.4017193859108
 21
1228.0134064718065
  0
LINE
  8
_0-0_90_FRAME
  6
CONTINUOUS
 62
    4
 10
5246.694109925681
 20
1220.0282579723041
 11
5243.2451043130432
 21
1220.0282579723041
  0
LINE
  8
_0-0_90_FRAME
  6
CONTINUOUS
 62
    4
 10
5243.2451043130432
 20
1220.0282579723041
 11
5241.4415605882105
 21
1225.0931946014196
  0
LINE
  8
_0-0_90_FRAME
  6
CONTINUOUS
 62
    4
 10
5246.694109925681
 20
1220.1204751892617
 11
5239.4495271636733
 21
1239.2401781722272
  0
LINE
  8
_0-0_90_FRAME
  6
CONTINUOUS
 62
    4
 10
5246.694109925681
 20
1220.0282579723041
 11
5246.694109925681
 21
1220.1204751892617
  0
LINE
  8
_0-0_90_FRAME
  6
CONTINUOUS
 62
    4
 10
5236.2637261037626
 20
1239.2401781722272
 11
5239.4495271636733
 21
1239.2401781722272
  0
LINE
  8
_0-0_90_FRAME
  6
CONTINUOUS
 62
    4
 10
5240.4017193859108
 20
1228.0134064718065
 11
5237.8566266337184
 21
1235.1608536490601
  0
LINE
  8
_0-0_90_FRAME
  6
CONTINUOUS
 62
    4
 10
5257.1589663408413
 20
1226.929017247784
 11
5264.2753022446632
 21
1221.0650770514601
  0
LINE
  8
_0-0_90_FRAME
  6
CONTINUOUS
 62
    4
 10
5259.380086133363
 20
1221.3036608910531
 11
5262.0515131442125
 21
1218.7037227336839
  0
LINE
  8
_0-0_90_FRAME
  6
CONTINUOUS
 62
    4
 10
5234.3485403600216
 20
1225.0931946014196
 11
5235.3883815623276
 21
1228.0134064718065
  0
LINE
  8
_0-0_90_FRAME
  6
CONTINUOUS
 62
    4
 10
5263.5496489713123
 20
1228.4815028602686
 11
5263.5496489713123
 21
1228.4815028602686
  0
LINE
  8
_0-0_90_FRAME
  6
CONTINUOUS
 62
    4
 10
5263.5496489713123
 20
1228.4815028602686
 11
5263.4153877423905
 21
1227.013612290101
  0
LINE
  8
_0-0_90_FRAME
  6
CONTINUOUS
 62
    4
 10
5263.4153877423905
 20
1227.013612290101
 11
5263.0166835151258
 21
1225.5903228321195
  0
LINE
  8
_0-0_90_FRAME
  6
CONTINUOUS
 62
    4
 10
5263.0166835151258
 20
1225.5903228321195
 11
5262.3656507157093
 21
1224.2548804162857
  0
LINE
  8
_0-0_90_FRAME
  6
CONTINUOUS
 62
    4
 10
5262.3656507157093
 20
1224.2548804162857
 11
5261.686181003387
 21
1223.2894114737892
  0
LINE
  8
_0-0_90_FRAME
  6
CONTINUOUS
 62
    4
 10
5260.3473524607234
 20
1228.7075813716917
 11
5260.3473524607234
 21
1228.7075813716917
  0
LINE
  8
_0-0_90_FRAME
  6
CONTINUOUS
 62
    4
 10
5260.3473524607234
 20
1228.7075813716917
 11
5260.2617413113185
 21
1227.7338991039062
  0
LINE
  8
_0-0_90_FRAME
  6
CONTINUOUS
 62
    4
 10
5260.2617413113185
 20
1227.7338991039062
 11
5260.0075091145573
 21
1226.7898016791203
  0
LINE
  8
_0-0_90_FRAME
  6
CONTINUOUS
 62
    4
 10
5260.0075091145573
 20
1226.7898016791203
 11
5259.5923805870898
 21
1225.9039750198499
  0
LINE
  8
_0-0_90_FRAME
  6
CONTINUOUS
 62
    4
 10
5259.5923805870898
 20
1225.9039750198499
 11
5259.2100935343387
 21
1225.3297351790743
  0
LINE
  8
_0-0_90_FRAME
  6
CONTINUOUS
 62
    4
 10
5245.8746823873835
 20
1230.7869332842599
 11
5245.8746823873835
 21
1228.4815028602686
  0
LINE
  8
_0-0_90_FRAME
  6
CONTINUOUS
 62
    4
 10
5232.4681489543982
 20
1220.0282579723041
 11
5237.8566266337184
 21
1235.1608536490601
  0
LINE
  8
_0-0_90_FRAME
  6
CONTINUOUS
 62
    4
 10
5281.2691526273566
 20
1220.0282579723041
 11
5284.7181582399999
 21
1220.0282579723041
  0
LINE
  8
_0-0_90_FRAME
  6
CONTINUOUS
 62
    4
 10
5281.2691526273566
 20
1220.0282579723041
 11
5281.2691526273566
 21
1220.1204751892617
  0
LINE
  8
_0-0_90_FRAME
  6
CONTINUOUS
 62
    4
 10
5281.2691526273566
 20
1220.1204751892617
 11
5288.5137353893715
 21
1239.2401781722272
  0
LINE
  8
_0-0_90_FRAME
  6
CONTINUOUS
 62
    4
 10
5281.2691526273566
 20
1220.0282579723041
 11
5281.2691526273566
 21
1220.1204751892617
  0
LINE
  8
_0-0_90_FRAME
  6
CONTINUOUS
 62
    4
 10
5286.5985496456306
 20
1225.0931946014196
 11
5293.6915698738194
 21
1225.0931946014196
  0
LINE
  8
_0-0_90_FRAME
  6
CONTINUOUS
 62
    4
 10
5287.6383908479302
 20
1228.0134064718065
 11
5292.651728671518
 21
1228.0134064718065
  0
LINE
  8
_0-0_90_FRAME
  6
CONTINUOUS
 62
    4
 10
5298.9441192112899
 20
1220.0282579723041
 11
5295.4951135986466
 21
1220.0282579723041
  0
LINE
  8
_0-0_90_FRAME
  6
CONTINUOUS
 62
    4
 10
5295.4951135986466
 20
1220.0282579723041
 11
5293.6915698738194
 21
1225.0931946014196
  0
LINE
  8
_0-0_90_FRAME
  6
CONTINUOUS
 62
    4
 10
5298.9441192112899
 20
1220.1204751892617
 11
5291.6995364492805
 21
1239.2401781722272
  0
LINE
  8
_0-0_90_FRAME
  6
CONTINUOUS
 62
    4
 10
5298.9441192112899
 20
1220.0282579723041
 11
5298.9441192112899
 21
1220.1204751892617
  0
LINE
  8
_0-0_90_FRAME
  6
CONTINUOUS
 62
    4
 10
5288.5137353893715
 20
1239.2401781722272
 11
5291.6995364492805
 21
1239.2401781722272
  0
LINE
  8
_0-0_90_FRAME
  6
CONTINUOUS
 62
    4
 10
5292.651728671518
 20
1228.0134064718065
 11
5290.1066359193255
 21
1235.1608536490601
  0
LINE
  8
_0-0_90_FRAME
  6
CONTINUOUS
 62
    4
 10
5286.5985496456306
 20
1225.0931946014196
 11
5287.6383908479302
 21
1228.0134064718065
  0
LINE
  8
_0-0_90_FRAME
  6
CONTINUOUS
 62
    4
 10
5284.7181582399999
 20
1220.0282579723041
 11
5290.1066359193255
 21
1235.1608536490601
  0
ARC
  8
_0-0_90_FRAME
  6
CONTINUOUS
 62
    4
 10
5273.3411280399541
 20
1228.133954673496
 40
8.1301478138378975
 50
274.44474271147573
 51
357.5499690077387
  0
LINE
  8
_0-0_90_FRAME
  6
CONTINUOUS
 62
    4
 10
5259.2100935343415
 20
1225.3297351790768
 11
5261.6861810033888
 21
1223.2894114737899
  0
LINE
  8
_0-0_90_FRAME
  6
CONTINUOUS
 62
    4
 10
5260.5549426382413
 20
1206.4261753428482
 11
5260.5549426382413
 21
1206.4261753428482
  0
LINE
  8
_0-0_90_FRAME
  6
CONTINUOUS
 62
    4
 10
5260.5549426382413
 20
1206.4261753428482
 11
5261.5234532075874
 21
1206.8176952123358
  0
LINE
  8
_0-0_90_FRAME
  6
CONTINUOUS
 62
    4
 10
5261.5234532075874
 20
1206.8176952123358
 11
5262.3938122496766
 21
1207.3403035712568
  0
LINE
  8
_0-0_90_FRAME
  6
CONTINUOUS
 62
    4
 10
5262.3938122496766
 20
1207.3403035712568
 11
5263.1395743454386
 21
1207.9781212290777
  0
LINE
  8
_0-0_90_FRAME
  6
CONTINUOUS
 62
    4
 10
5263.1395743454386
 20
1207.9781212290777
 11
5263.7380798909671
 21
1208.7117684190168
  0
LINE
  8
_0-0_90_FRAME
  6
CONTINUOUS
 62
    4
 10
5263.7380798909671
 20
1208.7117684190168
 11
5264.1711435981188
 21
1209.5189536424516
  0
LINE
  8
_0-0_90_FRAME
  6
CONTINUOUS
 62
    4
 10
5264.1711435981188
 20
1209.5189536424516
 11
5264.4256070452939
 21
1210.3751509848232
  0
LINE
  8
_0-0_90_FRAME
  6
CONTINUOUS
 62
    4
 10
5264.4256070452939
 20
1210.3751509848232
 11
5264.4937384894147
 21
1211.2543453231403
  0
LINE
  8
_0-0_90_FRAME
  6
CONTINUOUS
 62
    4
 10
5264.4937384894147
 20
1211.2543453231403
 11
5264.3734677910261
 21
1212.1298227823272
  0
LINE
  8
_0-0_90_FRAME
  6
CONTINUOUS
 62
    4
 10
5264.3734677910261
 20
1212.1298227823272
 11
5264.0684493144408
 21
1212.9749824227993
  0
LINE
  8
_0-0_90_FRAME
  6
CONTINUOUS
 62
    4
 10
5264.0684493144408
 20
1212.9749824227993
 11
5263.5879508917214
 21
1213.7641444965525
  0
LINE
  8
_0-0_90_FRAME
  6
CONTINUOUS
 62
    4
 10
5263.5879508917214
 20
1213.7641444965525
 11
5262.9465722243003
 21
1214.4733307133106
  0
LINE
  8
_0-0_90_FRAME
  6
CONTINUOUS
 62
    4
 10
5262.9465722243003
 20
1214.4733307133106
 11
5262.1638012784315
 21
1215.0809928087435
  0
LINE
  8
_0-0_90_FRAME
  6
CONTINUOUS
 62
    4
 10
5262.1638012784315
 20
1215.0809928087435
 11
5261.2634221532053
 21
1215.568667277573
  0
LINE
  8
_0-0_90_FRAME
  6
CONTINUOUS
 62
    4
 10
5261.2634221532053
 20
1215.568667277573
 11
5260.2727924127275
 21
1215.9215363778389
  0
LINE
  8
_0-0_90_FRAME
  6
CONTINUOUS
 62
    4
 10
5260.2727924127275
 20
1215.9215363778389
 11
5259.2220118403802
 21
1216.1288783604903
  0
LINE
  8
_0-0_90_FRAME
  6
CONTINUOUS
 62
    4
 10
5259.2220118403802
 20
1216.1288783604903
 11
5258.293136871378
 21
1216.1858739323184
  0
LINE
  8
_0-0_90_FRAME
  6
CONTINUOUS
 62
    4
 10
5271.6360420599931
 20
1200.0478609643831
 11
5271.6360420599931
 21
1213.1119667003302
  0
LINE
  8
_0-0_90_FRAME
  6
CONTINUOUS
 62
    4
 10
5268.1778964240038
 20
1200.0478609643831
 11
5268.1778964240038
 21
1213.1119667003302
  0
LINE
  8
_0-0_90_FRAME
  6
CONTINUOUS
 62
    4
 10
5267.7936580200021
 20
1216.1858739323197
 11
5272.0202804639894
 21
1216.1858739323197
  0
LINE
  8
_0-0_90_FRAME
  6
CONTINUOUS
 62
    4
 10
5249.455653579419
 20
1216.1858739323197
 11
5249.455653579419
 21
1196.9739537323965
  0
LINE
  8
_0-0_90_FRAME
  6
CONTINUOUS
 62
    4
 10
5267.7936580200021
 20
1196.9739537323965
 11
5272.0202804639894
 21
1196.9739537323965
  0
LINE
  8
_0-0_90_FRAME
  6
CONTINUOUS
 62
    4
 10
5272.0202804639894
 20
1196.9739537323965
 11
5272.0202804639894
 21
1199.6636225603868
  0
ARC
  8
_0-0_90_FRAME
  6
CONTINUOUS
 62
    4
 10
5272.0202804639894
 20
1200.0478609643831
 40
0.3842384039984478
 50
180
 51
270
  0
LINE
  8
_0-0_90_FRAME
  6
CONTINUOUS
 62
    4
 10
5267.7936580200021
 20
1196.9739537323965
 11
5267.7936580200021
 21
1199.6636225603868
  0
ARC
  8
_0-0_90_FRAME
  6
CONTINUOUS
 62
    4
 10
5267.7936580200021
 20
1200.0478609643831
 40
0.3842384039984478
 50
270
 51
0
  0
LINE
  8
_0-0_90_FRAME
  6
CONTINUOUS
 62
    4
 10
5272.0202804639894
 20
1216.1858739323197
 11
5272.0202804639894
 21
1213.4962051043294
  0
ARC
  8
_0-0_90_FRAME
  6
CONTINUOUS
 62
    4
 10
5272.0202804639894
 20
1213.1119667003302
 40
0.3842384039984478
 50
90
 51
180
  0
LINE
  8
_0-0_90_FRAME
  6
CONTINUOUS
 62
    4
 10
5267.7936580200021
 20
1216.1858739323197
 11
5267.7936580200021
 21
1213.4962051043294
  0
ARC
  8
_0-0_90_FRAME
  6
CONTINUOUS
 62
    4
 10
5267.7936580200021
 20
1213.1119667003302
 40
0.3842384039984478
 50
0
 51
90
  0
LINE
  8
_0-0_90_FRAME
  6
CONTINUOUS
 62
    4
 10
5241.1177426419963
 20
1196.9739537323965
 11
5241.1177426419963
 21
1213.1119667003302
  0
LINE
  8
_0-0_90_FRAME
  6
CONTINUOUS
 62
    4
 10
5237.6595970060125
 20
1196.9739537323965
 11
5237.6595970060125
 21
1213.1119667003302
  0
LINE
  8
_0-0_90_FRAME
  6
CONTINUOUS
 62
    4
 10
5231.5117825420393
 20
1216.1858739323197
 11
5247.265557105974
 21
1216.1858739323197
  0
LINE
  8
_0-0_90_FRAME
  6
CONTINUOUS
 62
    4
 10
5237.6595970060125
 20
1196.9739537323965
 11
5241.1177426419963
 21
1196.9739537323965
  0
LINE
  8
_0-0_90_FRAME
  6
CONTINUOUS
 62
    4
 10
5247.265557105974
 20
1216.1858739323197
 11
5247.265557105974
 21
1213.4962051043294
  0
ARC
  8
_0-0_90_FRAME
  6
CONTINUOUS
 62
    4
 10
5241.5019810459971
 20
1213.1119667003302
 40
0.3842384039984478
 50
90
 51
180
  0
LINE
  8
_0-0_90_FRAME
  6
CONTINUOUS
 62
    4
 10
5231.5117825420393
 20
1216.1858739323197
 11
5231.5117825420393
 21
1213.4962051043294
  0
ARC
  8
_0-0_90_FRAME
  6
CONTINUOUS
 62
    4
 10
5237.2753586020162
 20
1213.1119667003302
 40
0.3842384039984478
 50
0
 51
90
  0
LINE
  8
_0-0_90_FRAME
  6
CONTINUOUS
 62
    4
 10
5231.5117825420393
 20
1213.4962051043294
 11
5237.2753586020162
 21
1213.4962051043294
  0
LINE
  8
_0-0_90_FRAME
  6
CONTINUOUS
 62
    4
 10
5241.5019810459971
 20
1213.4962051043294
 11
5247.265557105974
 21
1213.4962051043294
  0
LINE
  8
_0-0_90_FRAME
  6
CONTINUOUS
 62
    4
 10
5249.455653579419
 20
1196.9739537323965
 11
5252.9137992154028
 21
1196.9739537323965
  0
LINE
  8
_0-0_90_FRAME
  6
CONTINUOUS
 62
    4
 10
5252.9137992154028
 20
1196.9739537323965
 11
5252.9137992154028
 21
1213.4962051043294
  0
LINE
  8
_0-0_90_FRAME
  6
CONTINUOUS
 62
    4
 10
5249.455653579419
 20
1216.1858739323197
 11
5258.293136871378
 21
1216.1858739323197
  0
LINE
  8
_0-0_90_FRAME
  6
CONTINUOUS
 62
    4
 10
5252.9137992154028
 20
1213.4962051043294
 11
5258.7542229561814
 21
1213.4962051043294
  0
LINE
  8
_0-0_90_FRAME
  6
CONTINUOUS
 62
    4
 10
5253.0290707365975
 20
1206.0781604012172
 11
5253.0290707365975
 21
1208.7678292292076
  0
LINE
  8
_0-0_90_FRAME
  6
CONTINUOUS
 62
    4
 10
5253.0290707365975
 20
1206.0781604012172
 11
5256.8021257332048
 21
1206.0781604012172
  0
LINE
  8
_0-0_90_FRAME
  6
CONTINUOUS
 62
    4
 10
5253.0290707365975
 20
1208.7678292292076
 11
5258.7542229561814
 21
1208.7678292292076
  0
ARC
  8
_0-0_90_FRAME
  6
CONTINUOUS
 62
    4
 10
5258.6717852743377
 20
1211.1320171667685
 40
2.3656247748733832
 50
271.99705710435398
 51
88.002942895541636
  0
LINE
  8
_0-0_90_FRAME
  6
CONTINUOUS
 62
    4
 10
5261.1526815704119
 20
1196.9739537323965
 11
5264.8797940891945
 21
1196.9739537323965
  0
LINE
  8
_0-0_90_FRAME
  6
CONTINUOUS
 62
    4
 10
5261.5690804649512
 20
1205.2351164370684
 11
5264.8797940891945
 21
1197.1276490939961
  0
LINE
  8
_0-0_90_FRAME
  6
CONTINUOUS
 62
    4
 10
5258.2278837144177
 20
1205.1151759453041
 11
5261.1526815704119
 21
1196.9739537323965
  0
ARC
  8
_0-0_90_FRAME
  6
CONTINUOUS
 62
    4
 10
5256.8021257332048
 20
1204.5412067852267
 40
1.5369536159937913
 50
21.928297866550245
 51
90
  0
ARC
  8
_0-0_90_FRAME
  6
CONTINUOUS
 62
    4
 10
5259.2442938250651
 20
1204.2829337694091
 40
2.5122270505663811
 50
22.272952259980951
 51
58.553113012863221
  0
LINE
  8
_0-0_90_FRAME
  6
CONTINUOUS
 62
    4
 10
5264.8797940891945
 20
1197.1276490939961
 11
5264.8797940891945
 21
1196.9739537323965
  0
LINE
  8
_0-0_90_FRAME
  6
CONTINUOUS
 62
    4
 10
5275.4821702874087
 20
1216.1858739323197
 11
5275.4821702874087
 21
1196.9739537323965
  0
LINE
  8
_0-0_90_FRAME
  6
CONTINUOUS
 62
    4
 10
5275.4821702874087
 20
1196.9739537323965
 11
5278.940315923398
 21
1196.9739537323965
  0
LINE
  8
_0-0_90_FRAME
  6
CONTINUOUS
 62
    4
 10
5278.940315923398
 20
1196.9739537323965
 11
5278.9371315672897
 21
1210.4222978723428
  0
LINE
  8
_0-0_90_FRAME
  6
CONTINUOUS
 62
    4
 10
5275.4821702874087
 20
1216.1858739323197
 11
5280.5001660595217
 21
1216.1858739323197
  0
LINE
  8
_0-0_90_FRAME
  6
CONTINUOUS
 62
    4
 10
5291.2391292074517
 20
1210.4222978723428
 11
5291.2391292074517
 21
1196.9739537323965
  0
LINE
  8
_0-0_90_FRAME
  6
CONTINUOUS
 62
    4
 10
5291.2391292074517
 20
1196.9739537323965
 11
5294.6972748434355
 21
1196.9739537323965
  0
LINE
  8
_0-0_90_FRAME
  6
CONTINUOUS
 62
    4
 10
5294.6972748434355
 20
1196.9739537323965
 11
5294.6972748434355
 21
1216.1858739323197
  0
LINE
  8
_0-0_90_FRAME
  6
CONTINUOUS
 62
    4
 10
5283.3590575693834
 20
1196.9739537323965
 11
5286.8172032053653
 21
1196.9739537323965
  0
LINE
  8
_0-0_90_FRAME
  6
CONTINUOUS
 62
    4
 10
5294.6972748434355
 20
1216.1858739323197
 11
5289.6760947152206
 21
1216.1858739323197
  0
LINE
  8
_0-0_90_FRAME
  6
CONTINUOUS
 62
    4
 10
5286.8172032053653
 20
1196.9739537323965
 11
5291.2391292074517
 21
1210.4222978723428
  0
LINE
  8
_0-0_90_FRAME
  6
CONTINUOUS
 62
    4
 10
5283.3590575693834
 20
1196.9739537323965
 11
5278.9371315672897
 21
1210.4222978723428
  0
LINE
  8
_0-0_90_FRAME
  6
CONTINUOUS
 62
    4
 10
5285.0881303873712
 20
1202.2325596630271
 11
5289.6760947152206
 21
1216.1858739323197
  0
LINE
  8
_0-0_90_FRAME
  6
CONTINUOUS
 62
    4
 10
5285.0881303873712
 20
1202.2325596630271
 11
5280.5001660595217
 21
1216.1858739323197
  0
TEXT
  8
_0-0_90_FRAME
 62
    2
 10
5317.349324699293
 20
1231.521221514889
 40
22.682314285622638
 41
1
 50
0
  1
株式会社
  0
LINE
  8
_0-0_90_FRAME
  6
CONTINUOUS
 62
   18
 10
5386.3999953132707
 20
1278.6746064329545
 11
5386.3999953132707
 21
1384.746035003958
  0
TEXT
  8
_0-0_90_FRAME
 62
    7
 10
5584.372366595805
 20
1196.5503134673129
 40
30
 41
1
 50
0
  1
寺田
  0
TEXT
  8
_0-0_90_FRAME
 62
    7
 10
5430.15093802505
 20
1304.1340335538957
 40
30
 41
1
 50
0
  1
1：6
  0
TEXT
  8
_0-0_90_FRAME
 62
    7
 10
5698.9203262729316
 20
1364.2085740501932
 40
15
 41
1
 50
0
  1
機器
  0
LINE
  8
_0-0_90_FRAME
  6
CONTINUOUS
 62
   18
 10
5921.4142559007023
 20
1384.746035003958
 11
5921.4142559007023
 21
1232.0031778617165
  0
TEXT
  8
_0-0_90_FRAME
 62
    7
 10
5925.4917297188513
 20
1364.2085740501932
 40
15
 41
1
 50
0
  1
部品名
  0
TEXT
  8
_0-0_90_FRAME
 62
    7
 10
5925.4917297188458
 20
1278.6014311933905
 40
15
 41
1
 50
0
  1
図面番号
  0
LINE
  8
_0-0_90_FRAME
  6
CONTINUOUS
 62
   18
 10
5694.8428524547935
 20
1308.3746064328386
 11
5921.4142559007023
 21
1308.3746064328386
  0
TEXT
  8
_0-0_90_FRAME
 62
    7
 10
5698.9203262729316
 20
1287.087145479074
 40
15
 41
1
 50
0
  1
型式
  0
LINE
  8
_0-0_90_FRAME
  6
CONTINUOUS
 62
   18
 10
5488.8714317590211
 20
1384.746035003958
 11
6396.1999953091954
 21
1384.746035003958
  0
LINE
  8
_0-0_90_FRAME
  6
CONTINUOUS
 62
    4
 10
5488.8714317590211
 20
1552.7460304912133
 11
5488.8714317590211
 21
1384.746035003958
  0
LINE
  8
_0-0_90_FRAME
  6
CONTINUOUS
 62
    4
 10
5921.4142559007023
 20
1552.7460304912133
 11
5921.4142559007023
 21
1384.746035003958
  0
LINE
  8
_0-0_90_FRAME
  6
CONTINUOUS
 62
    4
 10
6086.0789330875941
 20
1552.7460304912133
 11
6086.0789330876178
 21
1384.746035003958
  0
LINE
  8
_0-0_90_FRAME
  6
CONTINUOUS
 62
    4
 10
6044.0789383375923
 20
1552.7460304912133
 11
6044.078938337615
 21
1384.746035003958
  0
LINE
  8
_0-0_90_FRAME
  6
CONTINUOUS
 62
    4
 10
5551.8714238840321
 20
1552.7460304912133
 11
5551.8714238840321
 21
1384.746035003958
  0
LINE
  8
_0-0_90_FRAME
  6
CONTINUOUS
 62
    4
 10
6149.0789252126087
 20
1552.7460304912133
 11
6149.0789252126087
 21
1384.746035003958
  0
INSERT
  2
-003-Jis_w20130906110600
  8
_0-2_08_DIM
 10
6016.0935874958614
 20
1714.9404803329339
 41
3.5999999999999996
 42
3.5999999999999996
 50
0
  0
LINE
  8
_0-2_08_DIM
  6
CONTINUOUS
 62
    3
 10
2261.6617092157117
 20
4105.5024677601514
 11
2403.5489284966989
 21
4105.5024677601514
  0
INSERT
  2
-004-p1ba05
  8
_0-2_08_DIM
 10
2340.0308622867851
 20
4113.7080028112323
 41
9
 42
9
 50
0
  0
TEXT
  8
_0-0_90_FRAME
 62
    3
 10
6061.2642408585771
 20
1436.7820814377028
 40
18
 41
1
 50
0
  1
1
  0
TEXT
  8
_0-0_90_FRAME
 62
    3
 10
5581.1327249170008
 20
1436.9433249776057
 40
18
 41
1
 50
0
  1
ホッパー
  0
TEXT
  8
_0-0_90_FRAME
 62
    3
 10
5512.8259772259116
 20
1436.4802858795456
 40
18
 41
1
 50
0
  1
2
  0
TEXT
  8
_0-0_90_FRAME
 62
    3
 10
6099.7990751547277
 20
1406.3032288968029
 40
15
 41
1
 50
0
  1
重量
  0
TEXT
  8
_0-0_90_FRAME
 62
    3
 10
5949.4248774592006
 20
1396.621941440563
 40
18
 41
1
 50
0
  1
材　質
  0
TEXT
  8
_0-0_90_FRAME
 62
    3
 10
6046.2847910134769
 20
1396.4866598728918
 40
18
 41
1
 50
0
  1
数量
  0
TEXT
  8
_0-0_90_FRAME
 62
    3
 10
6106.4288637473037
 20
1391.6261816130798
 40
12
 41
1
 50
0
  1
kg
  0
TEXT
  8
_0-0_90_FRAME
 62
    3
 10
6229.361531508167
 20
1396.1848643146998
 40
18
 41
1
 50
0
  1
備  考
  0
TEXT
  8
_0-0_90_FRAME
 62
    3
 10
5501.6993993262849
 20
1396.1848643146998
 40
18
 41
1
 50
0
  1
符号
  0
TEXT
  8
_0-0_90_FRAME
 62
    3
 10
5654.2926839247193
 20
1396.8381975663701
 40
18
 41
1
 50
0
  1
部　　品　　名
  0
LINE
  8
_0-0_90_FRAME
  6
CONTINUOUS
 62
    4
 10
5488.8713970996723
 20
1552.7460304912133
 11
6396.1999606498457
 21
1552.7460304912133
  0
LINE
  8
_0-0_90_FRAME
  6
CONTINUOUS
 62
    4
 10
5488.8713970996723
 20
1510.7460282485117
 11
6396.1999606498457
 21
1510.7460282485117
  0
LINE
  8
_0-0_90_FRAME
  6
CONTINUOUS
 62
    4
 10
5488.8713970996723
 20
1468.7460304912131
 11
6396.1999606498457
 21
1468.7460304912131
  0
LINE
  8
_0-0_90_FRAME
  6
CONTINUOUS
 62
    4
 10
5488.8713970996723
 20
1426.7460304912131
 11
6396.1999606498457
 21
1426.7460304912131
  0
TEXT
  8
_0-0_90_FRAME
 62
    7
 10
5986.1550192739651
 20
1329.4811541973338
 40
24
 41
1
 50
0
  1
油･汚泥混合練り機 部品図
  0
TEXT
  8
_0-0_90_FRAME
 62
    7
 10
5709.4876033437504
 20
1328.6199887205478
 40
19.199999999999999
 41
0.9000000000000001
 50
0
  1
有機性汚泥燃料施設
  0
TEXT
  8
_0-2_08_DIM
 62
    3
 10
4308.8980679733049
 20
3585.1184256647352
 40
15
 41
1
 50
90
  1
L-3x40x40
  0
LINE
  8
_0-3_04_HIDDEN
  6
CONTINUOUS
 62
    7
 10
5576.3752733357478
 20
3285.7296186111757
 11
5576.3752733357478
 21
3685.7296186111762
  0
LINE
  8
_0-3_04_HIDDEN
  6
CONTINUOUS
 62
    7
 10
5576.3752733357478
 20
3685.7296186111762
 11
5176.3752733357478
 21
3685.7296186111762
  0
LINE
  8
_0-3_04_HIDDEN
  6
CONTINUOUS
 62
    7
 10
5176.3752733357478
 20
3685.7296186111762
 11
5176.375273335746
 21
3285.7296186111757
  0
LINE
  8
_0-3_04_HIDDEN
  6
CONTINUOUS
 62
    7
 10
5176.375273335746
 20
3285.7296186111757
 11
5576.3752733357478
 21
3285.7296186111757
  0
LINE
  8
_0-3_04_HIDDEN
  6
CONTINUOUS
 62
    7
 10
5626.375273335746
 20
3240.7296186111757
 11
5626.3752733357487
 21
3730.7296186111757
  0
LINE
  8
_0-3_04_HIDDEN
  6
CONTINUOUS
 62
    7
 10
5626.3752733357487
 20
3730.7296186111757
 11
5621.3752733357487
 21
3735.7296186111757
  0
LINE
  8
_0-3_04_HIDDEN
  6
CONTINUOUS
 62
    7
 10
5621.3752733357487
 20
3735.7296186111757
 11
5131.3752733357469
 21
3735.7296186111757
  0
LINE
  8
_0-3_04_HIDDEN
  6
CONTINUOUS
 62
    7
 10
5131.3752733357469
 20
3735.7296186111757
 11
5126.3752733357478
 21
3730.7296186111757
  0
LINE
  8
_0-3_04_HIDDEN
  6
CONTINUOUS
 62
    7
 10
5126.3752733357478
 20
3730.7296186111757
 11
5126.3752733357478
 21
3240.7296186111757
  0
LINE
  8
_0-3_04_HIDDEN
  6
CONTINUOUS
 62
    7
 10
5126.3752733357478
 20
3240.7296186111757
 11
5131.3752733357469
 21
3235.7296186111762
  0
LINE
  8
_0-3_04_HIDDEN
  6
CONTINUOUS
 62
    7
 10
5131.3752733357469
 20
3235.7296186111762
 11
5621.375273335746
 21
3235.7296186111762
  0
LINE
  8
_0-3_04_HIDDEN
  6
CONTINUOUS
 62
    7
 10
5621.375273335746
 20
3235.7296186111762
 11
5626.375273335746
 21
3240.7296186111757
  0
CIRCLE
  8
_0-3_04_HIDDEN
  6
CONTINUOUS
 62
    7
 10
5606.3752733357478
 20
3310.7296186111757
 40
6
  0
LINE
  8
_0-4_05_CENTER
  6
CENTER2
 62
    4
 10
5606.3752733357414
 20
3300.7296186111284
 11
5606.3752733357414
 21
3320.7296186111289
  0
LINE
  8
_0-4_05_CENTER
  6
CENTER2
 62
    4
 10
5596.3752733357414
 20
3310.7296186111289
 11
5616.3752733357423
 21
3310.7296186111289
  0
CIRCLE
  8
_0-3_04_HIDDEN
  6
CONTINUOUS
 62
    7
 10
5606.3752733357478
 20
3485.729618611223
 40
6
  0
LINE
  8
_0-4_05_CENTER
  6
CENTER2
 62
    4
 10
5606.3752733357433
 20
3475.7296186111762
 11
5606.3752733357433
 21
3495.7296186111757
  0
LINE
  8
_0-4_05_CENTER
  6
CENTER2
 62
    4
 10
5596.3752733357433
 20
3485.7296186111757
 11
5616.3752733357423
 21
3485.7296186111757
  0
CIRCLE
  8
_0-3_04_HIDDEN
  6
CONTINUOUS
 62
    7
 10
5606.3752733357524
 20
3660.729618611223
 40
6
  0
LINE
  8
_0-4_05_CENTER
  6
CENTER2
 62
    4
 10
5606.3752733357478
 20
3650.7296186111762
 11
5606.3752733357478
 21
3670.7296186111757
  0
LINE
  8
_0-4_05_CENTER
  6
CENTER2
 62
    4
 10
5596.3752733357469
 20
3660.7296186111762
 11
5616.3752733357469
 21
3660.7296186111762
  0
CIRCLE
  8
_0-3_04_HIDDEN
  6
CONTINUOUS
 62
    7
 10
5551.3752733357514
 20
3715.729618611223
 40
6
  0
LINE
  8
_0-4_05_CENTER
  6
CENTER2
 62
    4
 10
5551.3752733357469
 20
3705.7296186111757
 11
5551.3752733357469
 21
3725.7296186111762
  0
LINE
  8
_0-4_05_CENTER
  6
CENTER2
 62
    4
 10
5541.3752733357478
 20
3715.7296186111762
 11
5561.3752733357478
 21
3715.7296186111762
  0
CIRCLE
  8
_0-3_04_HIDDEN
  6
CONTINUOUS
 62
    7
 10
5376.3752733357524
 20
3715.729618611223
 40
6
  0
LINE
  8
_0-4_05_CENTER
  6
CENTER2
 62
    4
 10
5376.3752733357478
 20
3705.7296186111757
 11
5376.3752733357478
 21
3725.7296186111762
  0
LINE
  8
_0-4_05_CENTER
  6
CENTER2
 62
    4
 10
5366.3752733357478
 20
3715.7296186111762
 11
5386.3752733357469
 21
3715.7296186111762
  0
CIRCLE
  8
_0-3_04_HIDDEN
  6
CONTINUOUS
 62
    7
 10
5201.3752733357524
 20
3715.729618611223
 40
6
  0
LINE
  8
_0-4_05_CENTER
  6
CENTER2
 62
    4
 10
5201.3752733357469
 20
3705.7296186111757
 11
5201.3752733357469
 21
3725.7296186111762
  0
LINE
  8
_0-4_05_CENTER
  6
CENTER2
 62
    4
 10
5191.3752733357478
 20
3715.7296186111762
 11
5211.3752733357469
 21
3715.7296186111762
  0
CIRCLE
  8
_0-3_04_HIDDEN
  6
CONTINUOUS
 62
    7
 10
5551.3752733357514
 20
3255.7296186111289
 40
6
  0
LINE
  8
_0-4_05_CENTER
  6
CENTER2
 62
    4
 10
5551.3752733357469
 20
3265.7296186111762
 11
5551.3752733357469
 21
3245.7296186111757
  0
LINE
  8
_0-4_05_CENTER
  6
CENTER2
 62
    4
 10
5541.3752733357478
 20
3255.7296186111757
 11
5561.375273335746
 21
3255.7296186111757
  0
CIRCLE
  8
_0-3_04_HIDDEN
  6
CONTINUOUS
 62
    7
 10
5376.3752733357514
 20
3255.7296186111289
 40
6
  0
LINE
  8
_0-4_05_CENTER
  6
CENTER2
 62
    4
 10
5376.3752733357469
 20
3265.7296186111762
 11
5376.3752733357469
 21
3245.7296186111757
  0
LINE
  8
_0-4_05_CENTER
  6
CENTER2
 62
    4
 10
5366.3752733357469
 20
3255.7296186111757
 11
5386.3752733357469
 21
3255.7296186111757
  0
CIRCLE
  8
_0-3_04_HIDDEN
  6
CONTINUOUS
 62
    7
 10
5201.3752733357514
 20
3255.7296186111289
 40
6
  0
LINE
  8
_0-4_05_CENTER
  6
CENTER2
 62
    4
 10
5201.3752733357469
 20
3265.7296186111762
 11
5201.3752733357469
 21
3245.7296186111757
  0
LINE
  8
_0-4_05_CENTER
  6
CENTER2
 62
    4
 10
5191.3752733357478
 20
3255.7296186111757
 11
5211.375273335746
 21
3255.7296186111757
  0
CIRCLE
  8
_0-3_04_HIDDEN
  6
CONTINUOUS
 62
    7
 10
5146.375273335746
 20
3310.7296186111757
 40
6
  0
LINE
  8
_0-4_05_CENTER
  6
CENTER2
 62
    4
 10
5146.3752733357514
 20
3300.7296186111284
 11
5146.3752733357514
 21
3320.7296186111289
  0
LINE
  8
_0-4_05_CENTER
  6
CENTER2
 62
    4
 10
5156.3752733357524
 20
3310.7296186111289
 11
5136.3752733357514
 21
3310.7296186111289
  0
CIRCLE
  8
_0-3_04_HIDDEN
  6
CONTINUOUS
 62
    7
 10
5146.3752733357469
 20
3485.729618611223
 40
6
  0
LINE
  8
_0-4_05_CENTER
  6
CENTER2
 62
    4
 10
5146.3752733357524
 20
3475.7296186111762
 11
5146.3752733357524
 21
3495.7296186111757
  0
LINE
  8
_0-4_05_CENTER
  6
CENTER2
 62
    4
 10
5156.3752733357524
 20
3485.7296186111757
 11
5136.3752733357514
 21
3485.7296186111757
  0
CIRCLE
  8
_0-3_04_HIDDEN
  6
CONTINUOUS
 62
    7
 10
5146.3752733357433
 20
3660.729618611223
 40
6
  0
LINE
  8
_0-4_05_CENTER
  6
CENTER2
 62
    4
 10
5146.3752733357469
 20
3650.7296186111762
 11
5146.3752733357469
 21
3670.7296186111757
  0
LINE
  8
_0-4_05_CENTER
  6
CENTER2
 62
    4
 10
5156.3752733357478
 20
3660.7296186111762
 11
5136.3752733357469
 21
3660.7296186111762
  0
LINE
  8
_0-5_0
  6
CONTINUOUS
 62
   18
 10
5976.3752733369647
 20
4085.7296186060794
 11
5976.3752733369647
 21
2885.7296186060789
  0
LINE
  8
_0-5_0
  6
CONTINUOUS
 62
   18
 10
5976.3752733369647
 20
2885.7296186060789
 11
4776.3752733369638
 21
2885.7296186060789
  0
LINE
  8
_0-5_0
  6
CONTINUOUS
 62
   18
 10
4776.3752733369638
 20
2885.7296186060789
 11
4776.3752733369638
 21
4085.7296186060794
  0
LINE
  8
_0-5_0
  6
CONTINUOUS
 62
   18
 10
4776.3752733369638
 20
4085.7296186060794
 11
5976.3752733369647
 21
4085.7296186060794
  0
LINE
  8
_0-5_0
  6
CONTINUOUS
 62
   18
 10
5974.3752733369638
 20
4083.7296186060794
 11
5974.3752733369638
 21
2887.7296186060794
  0
LINE
  8
_0-5_0
  6
CONTINUOUS
 62
   18
 10
5974.3752733369638
 20
2887.7296186060794
 11
4778.3752733369638
 21
2887.7296186060794
  0
LINE
  8
_0-5_0
  6
CONTINUOUS
 62
   18
 10
4778.3752733369638
 20
2887.7296186060794
 11
4778.3752733369638
 21
4083.7296186060794
  0
LINE
  8
_0-5_0
  6
CONTINUOUS
 62
   18
 10
4778.3752733369638
 20
4083.7296186060794
 11
5974.3752733369638
 21
4083.7296186060794
  0
LINE
  8
_0-5_0
  6
CONTINUOUS
 62
   18
 10
4778.3752733369638
 20
2887.7296186060794
 11
5178.6752733357471
 21
3288.029618611175
  0
LINE
  8
_0-5_0
  6
CONTINUOUS
 62
   18
 10
4778.3752733369638
 20
4083.7296186060794
 11
5178.6752733357471
 21
3683.4296186111746
  0
LINE
  8
_0-5_0
  6
CONTINUOUS
 62
   18
 10
5974.3752733304018
 20
2887.7296186060794
 11
5574.0752733357467
 21
3288.029618611175
  0
LINE
  8
_0-5_0
  6
CONTINUOUS
 62
   18
 10
5974.3752733304018
 20
4083.7296186060794
 11
5574.0752733357476
 21
3683.4296186111746
  0
LINE
  8
_0-4_05_CENTER
  6
CENTER2
 62
    4
 10
5376.3752733369638
 20
4154.0809107424357
 11
5376.3752733369638
 21
2817.3783264706253
  0
LINE
  8
_0-5_0
  6
CONTINUOUS
 62
   18
 10
5976.3752733369647
 20
2845.7296186060794
 11
5976.3752733369647
 21
4125.7296186060794
  0
LINE
  8
_0-5_0
  6
CONTINUOUS
 62
   18
 10
5976.3752733369647
 20
4125.7296186060794
 11
6011.3752733369647
 21
4125.7296186060794
  0
LINE
  8
_0-5_0
  6
CONTINUOUS
 62
   18
 10
6011.3752733369647
 20
4125.7296186060794
 11
6016.3752733369656
 21
4120.7296186060794
  0
LINE
  8
_0-5_0
  6
CONTINUOUS
 62
   18
 10
6016.3752733369656
 20
4120.7296186060794
 11
6016.3752733369638
 21
2850.7296186060789
  0
LINE
  8
_0-5_0
  6
CONTINUOUS
 62
   18
 10
6016.3752733369638
 20
2850.7296186060789
 11
6011.3752733369638
 21
2845.7296186060794
  0
LINE
  8
_0-5_0
  6
CONTINUOUS
 62
   18
 10
6011.3752733369638
 20
2845.7296186060794
 11
5976.3752733369647
 21
2845.7296186060794
  0
LINE
  8
_0-3_04_HIDDEN
  6
CONTINUOUS
 62
    7
 10
5979.3752733369647
 20
2845.7296186060794
 11
5979.3752733369647
 21
4125.7296186060794
  0
LINE
  8
_0-5_0
  6
CONTINUOUS
 62
   18
 10
4776.3752733419788
 20
2845.7296186060794
 11
4776.3752733419788
 21
4125.7296186060794
  0
LINE
  8
_0-5_0
  6
CONTINUOUS
 62
   18
 10
4776.3752733419788
 20
4125.7296186060794
 11
4741.375273336962
 21
4125.7296186060794
  0
LINE
  8
_0-5_0
  6
CONTINUOUS
 62
   18
 10
4741.375273336962
 20
4125.7296186060794
 11
4736.3752733369629
 21
4120.7296186060794
  0
LINE
  8
_0-5_0
  6
CONTINUOUS
 62
   18
 10
4736.3752733369629
 20
4120.7296186060794
 11
4736.3752733369638
 21
2850.7296186060789
  0
LINE
  8
_0-5_0
  6
CONTINUOUS
 62
   18
 10
4736.3752733369638
 20
2850.7296186060789
 11
4741.3752733369638
 21
2845.7296186060794
  0
LINE
  8
_0-5_0
  6
CONTINUOUS
 62
   18
 10
4741.3752733369638
 20
2845.7296186060794
 11
4776.3752733419788
 21
2845.7296186060794
  0
LINE
  8
_0-3_04_HIDDEN
  6
CONTINUOUS
 62
    7
 10
4773.3752733419788
 20
2845.7296186060794
 11
4773.3752733419797
 21
4125.7296186060794
  0
LINE
  8
_0-5_0
  6
CONTINUOUS
 62
   18
 10
4776.3752733369638
 20
2885.7296186060789
 11
4776.3752733369638
 21
2845.7296186060794
  0
LINE
  8
_0-5_0
  6
CONTINUOUS
 62
   18
 10
4776.3752733369638
 20
2845.7296186060794
 11
5976.3752733369647
 21
2845.7296186060794
  0
LINE
  8
_0-5_0
  6
CONTINUOUS
 62
   18
 10
5976.3752733369647
 20
2845.7296186060794
 11
5976.3752733369647
 21
2885.7296186060789
  0
LINE
  8
_0-5_0
  6
CONTINUOUS
 62
   18
 10
5976.3752733369647
 20
2885.7296186060789
 11
4776.3752733369638
 21
2885.7296186060789
  0
LINE
  8
_0-3_04_HIDDEN
  6
CONTINUOUS
 62
    7
 10
5976.3752733369647
 20
2882.7296186060794
 11
4776.3752733369638
 21
2882.7296186060794
  0
LINE
  8
_0-5_0
  6
CONTINUOUS
 62
   18
 10
4776.3752733369638
 20
4085.7296186069816
 11
4776.3752733369638
 21
4125.7296186069816
  0
LINE
  8
_0-5_0
  6
CONTINUOUS
 62
   18
 10
4776.3752733369638
 20
4125.7296186069816
 11
5976.3752733369647
 21
4125.7296186069816
  0
LINE
  8
_0-5_0
  6
CONTINUOUS
 62
   18
 10
5976.3752733369647
 20
4125.7296186069816
 11
5976.3752733369647
 21
4085.7296186069816
  0
LINE
  8
_0-5_0
  6
CONTINUOUS
 62
   18
 10
5976.3752733369647
 20
4085.7296186069816
 11
4776.3752733369638
 21
4085.7296186069816
  0
LINE
  8
_0-3_04_HIDDEN
  6
CONTINUOUS
 62
    7
 10
5976.3752733369647
 20
4088.7296186069811
 11
4776.3752733369638
 21
4088.7296186069811
  0
LINE
  8
_0-4_05_CENTER
  6
CENTER2
 62
    4
 10
6044.7265654709036
 20
3485.7296186060789
 11
4708.0239811940774
 21
3485.7296186060789
  0
LINE
  8
_0-5_0
  6
CONTINUOUS
 62
   18
 10
5574.0752733357467
 20
3288.029618611175
 11
5574.0752733357476
 21
3683.4296186111746
  0
LINE
  8
_0-5_0
  6
CONTINUOUS
 62
   18
 10
5574.0752733357476
 20
3683.4296186111746
 11
5178.6752733357471
 21
3683.4296186111746
  0
LINE
  8
_0-5_0
  6
CONTINUOUS
 62
   18
 10
5178.6752733357471
 20
3683.4296186111746
 11
5178.6752733357471
 21
3288.029618611175
  0
LINE
  8
_0-5_0
  6
CONTINUOUS
 62
   18
 10
5178.6752733357471
 20
3288.029618611175
 11
5574.0752733357467
 21
3288.029618611175
  0
LINE
  8
_0-5_0
  6
CONTINUOUS
 62
   18
 10
3960.7148416491987
 20
4085.7296186065309
 11
3960.7148416491987
 21
2885.7296186065314
  0
LINE
  8
_0-5_0
  6
CONTINUOUS
 62
   18
 10
3960.7148416491987
 20
2885.7296186065314
 11
4360.7148416495775
 21
2885.7296186065309
  0
LINE
  8
_0-5_0
  6
CONTINUOUS
 62
   18
 10
4360.7148416495775
 20
2885.7296186065309
 11
4360.7148416495775
 21
4085.7296186065309
  0
LINE
  8
_0-5_0
  6
CONTINUOUS
 62
   18
 10
4360.7148416495775
 20
4085.7296186065309
 11
3960.7148416491987
 21
4085.7296186065309
  0
LINE
  8
_0-5_0
  6
CONTINUOUS
 62
   18
 10
3260.7148416537175
 20
3735.7296186065291
 11
3260.7148416537175
 21
3235.72961860653
  0
LINE
  8
_0-5_0
  6
CONTINUOUS
 62
   18
 10
3260.7148416537175
 20
3235.72961860653
 11
3266.7148416537166
 21
3235.72961860653
  0
LINE
  8
_0-5_0
  6
CONTINUOUS
 62
   18
 10
3266.7148416537166
 20
3235.72961860653
 11
3266.7148416537166
 21
3735.7296186065291
  0
LINE
  8
_0-5_0
  6
CONTINUOUS
 62
   18
 10
3266.7148416537166
 20
3735.7296186065291
 11
3260.7148416537175
 21
3735.7296186065291
  0
LINE
  8
_0-5_0
  6
CONTINUOUS
 62
   18
 10
3260.7148416537175
 20
3735.7296186065291
 11
3260.7148416537175
 21
3235.72961860653
  0
LINE
  8
_0-5_0
  6
CONTINUOUS
 62
   18
 10
3260.7148416537175
 20
3235.72961860653
 11
3266.7148416537166
 21
3235.72961860653
  0
LINE
  8
_0-5_0
  6
CONTINUOUS
 62
   18
 10
3266.7148416537166
 20
3235.72961860653
 11
3266.7148416537166
 21
3735.7296186065291
  0
LINE
  8
_0-5_0
  6
CONTINUOUS
 62
   18
 10
3266.7148416537166
 20
3735.7296186065291
 11
3260.7148416537175
 21
3735.7296186065291
  0
LINE
  8
_0-4_05_CENTER
  6
CENTER2
 62
    4
 10
4375.3891154368102
 20
3485.7296186065309
 11
3260.7148416537175
 21
3485.7296186065969
  0
LINE
  8
_0-4_05_CENTER
  6
CENTER2
 62
    4
 10
3260.7148416537175
 20
3485.7296186065969
 11
4375.3891154368102
 21
3485.7296186065309
  0
LINE
  8
_0-3_04_HIDDEN
  6
CONTINUOUS
 62
    7
 10
3266.7148416537166
 20
3685.7296186065296
 11
3260.7148416537175
 21
3685.7296186065296
  0
LINE
  8
_0-3_04_HIDDEN
  6
CONTINUOUS
 62
    7
 10
3260.7148416537175
 20
3685.7296186065296
 11
3266.7148416537166
 21
3685.7296186065296
  0
LINE
  8
_0-3_04_HIDDEN
  6
CONTINUOUS
 62
    7
 10
3266.7148416537166
 20
3285.72961860653
 11
3260.7148416537175
 21
3285.72961860653
  0
LINE
  8
_0-3_04_HIDDEN
  6
CONTINUOUS
 62
    7
 10
3260.7148416537175
 20
3285.72961860653
 11
3266.7148416537166
 21
3285.72961860653
  0
LINE
  8
_0-5_0
  6
CONTINUOUS
 62
   18
 10
3960.7148416491987
 20
2885.7296186065314
 11
3266.7148416537166
 21
3285.72961860653
  0
LINE
  8
_0-5_0
  6
CONTINUOUS
 62
   18
 10
3960.7148416491987
 20
4085.7296186065309
 11
3266.7148416537166
 21
3685.7296186065296
  0
LINE
  8
_0-3_04_HIDDEN
  6
CONTINUOUS
 62
    7
 10
3266.7148416537166
 20
3685.7296186065296
 11
3267.8633746219493
 21
3683.73691390666
  0
LINE
  8
_0-4_05_CENTER
  6
CENTER2
 62
    4
 10
3274.1823613932611
 20
3255.7296186065296
 11
3253.0610986850415
 21
3255.7296186065296
  0
LINE
  8
_0-4_05_CENTER
  6
CENTER2
 62
    4
 10
3274.1823613932611
 20
3715.7296186065296
 11
3253.0610986850415
 21
3715.7296186065296
  0
LINE
  8
_0-4_05_CENTER
  6
CENTER2
 62
    4
 10
3274.1823613932579
 20
3485.7296186065969
 11
3253.061098685037
 21
3485.7296186065969
  0
LINE
  8
_0-5_0
  6
CONTINUOUS
 62
   18
 10
4320.7148416491991
 20
4115.7296186065314
 11
4320.7148416491991
 21
2855.72961860653
  0
LINE
  8
_0-5_0
  6
CONTINUOUS
 62
   18
 10
4320.7148416491991
 20
2855.72961860653
 11
4330.7148416491982
 21
2845.7296186065296
  0
LINE
  8
_0-5_0
  6
CONTINUOUS
 62
   18
 10
4330.7148416491982
 20
2845.7296186065296
 11
4360.7148416491991
 21
2845.7296186065296
  0
LINE
  8
_0-5_0
  6
CONTINUOUS
 62
   18
 10
4360.7148416491991
 20
2845.7296186065296
 11
4360.7148416491991
 21
4125.7296186065314
  0
LINE
  8
_0-5_0
  6
CONTINUOUS
 62
   18
 10
4360.7148416491991
 20
4125.7296186065314
 11
4330.7148416491982
 21
4125.7296186065314
  0
LINE
  8
_0-5_0
  6
CONTINUOUS
 62
   18
 10
4330.7148416491982
 20
4125.7296186065314
 11
4320.7148416491991
 21
4115.7296186065314
  0
LINE
  8
_0-5_0
  6
CONTINUOUS
 62
   18
 10
4357.7148416491982
 20
2885.7296186065309
 11
4357.7148416491982
 21
4085.7296186065309
  0
LINE
  8
_0-4_05_CENTER
  6
CENTER2
 62
    4
 10
3274.1823613932543
 20
3310.7296186065969
 11
3253.0610986850338
 21
3310.7296186065969
  0
LINE
  8
_0-4_05_CENTER
  6
CENTER2
 62
    4
 10
3274.1823613932579
 20
3660.7296186066437
 11
3253.061098685037
 21
3660.7296186066437
  0
LINE
  8
_0-3_04_HIDDEN
  6
CONTINUOUS
 62
    7
 10
4360.7148416495775
 20
4083.4296186065299
 11
3961.330217271709
 21
4083.4296186065321
  0
INSERT
  2
-005-A$C67E0B8A4
  8
_0-3_04_HIDDEN
 10
4360.7148416491991
 20
4085.7296186065309
 41
-1
 42
1
 50
0
  0
INSERT
  2
-005-A$C67E0B8A4
  8
_0-3_04_HIDDEN
 10
4360.7148416491991
 20
2885.7296186065296
 41
1
 42
1
 50
179.99999999999997
  0
LINE
  8
_0-3_04_HIDDEN
  6
CONTINUOUS
 62
    7
 10
3961.330217271709
 20
4083.4296186065321
 11
3267.8633746219493
 21
3683.73691390666
  0
LINE
  8
_0-3_04_HIDDEN
  6
CONTINUOUS
 62
    7
 10
3266.7148416537166
 20
3285.7295886063944
 11
3267.8633746219493
 21
3287.7222933062644
  0
LINE
  8
_0-3_04_HIDDEN
  6
CONTINUOUS
 62
    7
 10
4360.7148416495775
 20
2888.0295886063936
 11
3961.330217271709
 21
2888.0295886063941
  0
LINE
  8
_0-3_04_HIDDEN
  6
CONTINUOUS
 62
    7
 10
3961.330217271709
 20
2888.0295886063941
 11
3267.8633746219493
 21
3287.7222933062644
  0
LINE
  8
_0-5_0
  6
CONTINUOUS
 62
   18
 10
3960.7148416491968
 20
1342.5647562441266
 11
3960.7148416491987
 21
2542.5647562441263
  0
LINE
  8
_0-5_0
  6
CONTINUOUS
 62
   18
 10
3960.7148416491987
 20
2542.5647562441263
 11
4360.7148416495775
 21
2542.5647562441263
  0
LINE
  8
_0-5_0
  6
CONTINUOUS
 62
   18
 10
4360.7148416495775
 20
2542.5647562441263
 11
4360.7148416495747
 21
1342.5647562441266
  0
LINE
  8
_0-5_0
  6
CONTINUOUS
 62
   18
 10
4360.7148416495747
 20
1342.5647562441266
 11
3960.7148416491968
 21
1342.5647562441266
  0
LINE
  8
_0-5_0
  6
CONTINUOUS
 62
   18
 10
3260.7148416537152
 20
1692.5647562441284
 11
3260.7148416537152
 21
2192.5647562441281
  0
LINE
  8
_0-5_0
  6
CONTINUOUS
 62
   18
 10
3260.7148416537152
 20
2192.5647562441281
 11
3266.7148416537157
 21
2192.5647562441281
  0
LINE
  8
_0-5_0
  6
CONTINUOUS
 62
   18
 10
3266.7148416537157
 20
2192.5647562441281
 11
3266.7148416537157
 21
1692.5647562441284
  0
LINE
  8
_0-5_0
  6
CONTINUOUS
 62
   18
 10
3266.7148416537157
 20
1692.5647562441284
 11
3260.7148416537152
 21
1692.5647562441284
  0
LINE
  8
_0-5_0
  6
CONTINUOUS
 62
   18
 10
3260.7148416537152
 20
1692.5647562441284
 11
3260.7148416537152
 21
2192.5647562441281
  0
LINE
  8
_0-5_0
  6
CONTINUOUS
 62
   18
 10
3260.7148416537152
 20
2192.5647562441281
 11
3266.7148416537157
 21
2192.5647562441281
  0
LINE
  8
_0-5_0
  6
CONTINUOUS
 62
   18
 10
3266.7148416537157
 20
2192.5647562441281
 11
3266.7148416537157
 21
1692.5647562441284
  0
LINE
  8
_0-5_0
  6
CONTINUOUS
 62
   18
 10
3266.7148416537157
 20
1692.5647562441284
 11
3260.7148416537152
 21
1692.5647562441284
  0
LINE
  8
_0-4_05_CENTER
  6
CENTER2
 62
    4
 10
4375.3891154368102
 20
1942.5647562441268
 11
3260.7148416537152
 21
1942.5647562440608
  0
LINE
  8
_0-4_05_CENTER
  6
CENTER2
 62
    4
 10
3260.7148416537152
 20
1942.5647562440608
 11
4375.3891154368102
 21
1942.5647562441268
  0
LINE
  8
_0-3_04_HIDDEN
  6
CONTINUOUS
 62
    7
 10
3266.7148416537157
 20
1742.5647562441284
 11
3260.7148416537152
 21
1742.5647562441284
  0
LINE
  8
_0-3_04_HIDDEN
  6
CONTINUOUS
 62
    7
 10
3260.7148416537152
 20
1742.5647562441284
 11
3266.7148416537157
 21
1742.5647562441284
  0
LINE
  8
_0-3_04_HIDDEN
  6
CONTINUOUS
 62
    7
 10
3266.7148416537157
 20
2142.5647562441286
 11
3260.7148416537152
 21
2142.5647562441286
  0
LINE
  8
_0-3_04_HIDDEN
  6
CONTINUOUS
 62
    7
 10
3260.7148416537152
 20
2142.5647562441286
 11
3266.7148416537157
 21
2142.5647562441286
  0
LINE
  8
_0-5_0
  6
CONTINUOUS
 62
   18
 10
3960.7148416491987
 20
2542.5647562441263
 11
3266.7148416537157
 21
2142.5647562441286
  0
LINE
  8
_0-3_04_HIDDEN
  6
CONTINUOUS
 62
    7
 10
3266.7148416537157
 20
1742.5647562441284
 11
3267.863374621948
 21
1744.5574609439986
  0
LINE
  8
_0-4_05_CENTER
  6
CENTER2
 62
    4
 10
3274.1823613932602
 20
2172.5647562441281
 11
3253.0610986850393
 21
2172.5647562441281
  0
LINE
  8
_0-4_05_CENTER
  6
CENTER2
 62
    4
 10
3274.1823613932556
 20
1942.5647562440608
 11
3253.0610986850356
 21
1942.5647562440608
  0
LINE
  8
_0-5_0
  6
CONTINUOUS
 62
   18
 10
4320.7148416491973
 20
1342.5647562441247
 11
4320.7148416491991
 21
2542.5647562441277
  0
LINE
  8
_0-5_0
  6
CONTINUOUS
 62
   18
 10
4320.7148416491991
 20
2542.5647562441277
 11
4360.7148416491991
 21
2542.5647562441277
  0
LINE
  8
_0-5_0
  6
CONTINUOUS
 62
   18
 10
4360.7148416491991
 20
2542.5647562441277
 11
4360.7148416491973
 21
1342.5647562441266
  0
LINE
  8
_0-5_0
  6
CONTINUOUS
 62
   18
 10
4360.7148416491973
 20
1342.5647562441266
 11
4320.7148416491973
 21
1342.5647562441247
  0
LINE
  8
_0-5_0
  6
CONTINUOUS
 62
   18
 10
4357.7148416491982
 20
2542.5647562441263
 11
4357.7148416491973
 21
1342.5647562441266
  0
LINE
  8
_0-4_05_CENTER
  6
CENTER2
 62
    4
 10
3274.1823613932524
 20
2117.5647562440608
 11
3253.0610986850315
 21
2117.5647562440608
  0
LINE
  8
_0-3_04_HIDDEN
  6
CONTINUOUS
 62
    7
 10
4360.7148416495747
 20
1344.8647562441267
 11
3961.3302172717072
 21
1344.8647562441267
  0
INSERT
  2
-005-A$C67E0B8A4
  8
_0-5_0
 10
4360.7148416491973
 20
1342.5647562441256
 41
1
 42
1
 50
180
  0
INSERT
  2
-005-A$C67E0B8A4
  8
_0-5_0
 10
4360.7148416491991
 20
2542.5647562441277
 41
-1
 42
1
 50
0
  0
LINE
  8
_0-3_04_HIDDEN
  6
CONTINUOUS
 62
    7
 10
3961.3302172717072
 20
1344.8647562441267
 11
3267.863374621948
 21
1744.5574609439986
  0
LINE
  8
_0-3_04_HIDDEN
  6
CONTINUOUS
 62
    7
 10
3266.7148416537157
 20
2142.5647862442638
 11
3267.863374621948
 21
2140.5720815443938
  0
LINE
  8
_0-3_04_HIDDEN
  6
CONTINUOUS
 62
    7
 10
4360.7148416495747
 20
2540.2647862442641
 11
3961.3302172717072
 21
2540.2647862442641
  0
LINE
  8
_0-3_04_HIDDEN
  6
CONTINUOUS
 62
    7
 10
3961.3302172717072
 20
2540.2647862442641
 11
3267.863374621948
 21
2140.5720815443938
  0
LINE
  8
_0-5_0
  6
CONTINUOUS
 62
   18
 10
2405.7590386268121
 20
3285.7296186077474
 11
2805.7590386268116
 21
3285.7296186077474
  0
LINE
  8
_0-5_0
  6
CONTINUOUS
 62
   18
 10
2805.7590386268116
 20
3285.7296186077474
 11
2805.7590386268116
 21
3685.7296186077474
  0
LINE
  8
_0-5_0
  6
CONTINUOUS
 62
   18
 10
2805.7590386268116
 20
3685.7296186077474
 11
2405.7590386268121
 21
3685.7296186077474
  0
LINE
  8
_0-5_0
  6
CONTINUOUS
 62
   18
 10
2405.7590386268121
 20
3685.7296186077474
 11
2405.7590386268121
 21
3285.7296186077474
  0
LINE
  8
_0-5_0
  6
CONTINUOUS
 62
   18
 10
2360.7590386268121
 20
3235.7296186077488
 11
2850.7590386268121
 21
3235.7296186077465
  0
LINE
  8
_0-5_0
  6
CONTINUOUS
 62
   18
 10
2850.7590386268121
 20
3235.7296186077465
 11
2855.7590386268121
 21
3240.7296186077465
  0
LINE
  8
_0-5_0
  6
CONTINUOUS
 62
   18
 10
2855.7590386268121
 20
3240.7296186077465
 11
2855.7590386268121
 21
3730.7296186077479
  0
LINE
  8
_0-5_0
  6
CONTINUOUS
 62
   18
 10
2855.7590386268121
 20
3730.7296186077479
 11
2850.7590386268121
 21
3735.7296186077474
  0
LINE
  8
_0-5_0
  6
CONTINUOUS
 62
   18
 10
2850.7590386268121
 20
3735.7296186077474
 11
2360.7590386268121
 21
3735.7296186077474
  0
LINE
  8
_0-5_0
  6
CONTINUOUS
 62
   18
 10
2360.7590386268121
 20
3735.7296186077474
 11
2355.7590386268121
 21
3730.7296186077479
  0
LINE
  8
_0-5_0
  6
CONTINUOUS
 62
   18
 10
2355.7590386268121
 20
3730.7296186077479
 11
2355.7590386268121
 21
3240.7296186077483
  0
LINE
  8
_0-5_0
  6
CONTINUOUS
 62
   18
 10
2355.7590386268121
 20
3240.7296186077483
 11
2360.7590386268121
 21
3235.7296186077488
  0
CIRCLE
  8
_0-5_0
  6
CONTINUOUS
 62
   18
 10
2430.7590386268121
 20
3255.7296186077479
 40
6
  0
LINE
  8
_0-4_05_CENTER
  6
CENTER2
 62
    4
 10
2420.7590386267648
 20
3255.7296186077519
 11
2440.7590386267648
 21
3255.7296186077519
  0
LINE
  8
_0-4_05_CENTER
  6
CENTER2
 62
    4
 10
2430.7590386267648
 20
3265.7296186077519
 11
2430.7590386267648
 21
3245.7296186077524
  0
CIRCLE
  8
_0-5_0
  6
CONTINUOUS
 62
   18
 10
2605.7590386268594
 20
3255.7296186077479
 40
6
  0
LINE
  8
_0-4_05_CENTER
  6
CENTER2
 62
    4
 10
2595.7590386268116
 20
3255.7296186077519
 11
2615.7590386268121
 21
3255.7296186077519
  0
LINE
  8
_0-4_05_CENTER
  6
CENTER2
 62
    4
 10
2605.7590386268121
 20
3265.7296186077519
 11
2605.7590386268121
 21
3245.7296186077524
  0
CIRCLE
  8
_0-5_0
  6
CONTINUOUS
 62
   18
 10
2780.7590386268594
 20
3255.7296186077429
 40
6
  0
LINE
  8
_0-4_05_CENTER
  6
CENTER2
 62
    4
 10
2770.7590386268121
 20
3255.7296186077479
 11
2790.7590386268116
 21
3255.7296186077479
  0
LINE
  8
_0-4_05_CENTER
  6
CENTER2
 62
    4
 10
2780.7590386268125
 20
3265.7296186077474
 11
2780.7590386268125
 21
3245.7296186077479
  0
CIRCLE
  8
_0-5_0
  6
CONTINUOUS
 62
   18
 10
2835.7590386268594
 20
3310.7296186077429
 40
6
  0
LINE
  8
_0-4_05_CENTER
  6
CENTER2
 62
    4
 10
2825.7590386268121
 20
3310.7296186077479
 11
2845.7590386268125
 21
3310.7296186077479
  0
LINE
  8
_0-4_05_CENTER
  6
CENTER2
 62
    4
 10
2835.7590386268121
 20
3320.7296186077479
 11
2835.7590386268121
 21
3300.7296186077474
  0
CIRCLE
  8
_0-5_0
  6
CONTINUOUS
 62
   18
 10
2835.7590386268594
 20
3485.7296186077433
 40
6
  0
LINE
  8
_0-4_05_CENTER
  6
CENTER2
 62
    4
 10
2825.7590386268121
 20
3485.7296186077479
 11
2845.7590386268125
 21
3485.7296186077479
  0
LINE
  8
_0-4_05_CENTER
  6
CENTER2
 62
    4
 10
2835.7590386268121
 20
3495.7296186077474
 11
2835.7590386268121
 21
3475.7296186077474
  0
CIRCLE
  8
_0-5_0
  6
CONTINUOUS
 62
   18
 10
2835.7590386268594
 20
3660.7296186077433
 40
6
  0
LINE
  8
_0-4_05_CENTER
  6
CENTER2
 62
    4
 10
2825.7590386268121
 20
3660.7296186077474
 11
2845.7590386268125
 21
3660.7296186077474
  0
LINE
  8
_0-4_05_CENTER
  6
CENTER2
 62
    4
 10
2835.7590386268121
 20
3670.7296186077474
 11
2835.7590386268121
 21
3650.7296186077479
  0
CIRCLE
  8
_0-5_0
  6
CONTINUOUS
 62
   18
 10
2375.7590386267648
 20
3310.7296186077429
 40
6
  0
LINE
  8
_0-4_05_CENTER
  6
CENTER2
 62
    4
 10
2385.7590386268121
 20
3310.7296186077479
 11
2365.7590386268121
 21
3310.7296186077479
  0
LINE
  8
_0-4_05_CENTER
  6
CENTER2
 62
    4
 10
2375.7590386268121
 20
3320.7296186077479
 11
2375.7590386268121
 21
3300.7296186077474
  0
CIRCLE
  8
_0-5_0
  6
CONTINUOUS
 62
   18
 10
2375.7590386267648
 20
3485.7296186077433
 40
6
  0
LINE
  8
_0-4_05_CENTER
  6
CENTER2
 62
    4
 10
2385.7590386268121
 20
3485.7296186077479
 11
2365.7590386268121
 21
3485.7296186077479
  0
LINE
  8
_0-4_05_CENTER
  6
CENTER2
 62
    4
 10
2375.7590386268121
 20
3495.7296186077474
 11
2375.7590386268121
 21
3475.7296186077474
  0
CIRCLE
  8
_0-5_0
  6
CONTINUOUS
 62
   18
 10
2375.7590386267648
 20
3660.7296186077433
 40
6
  0
LINE
  8
_0-4_05_CENTER
  6
CENTER2
 62
    4
 10
2385.7590386268121
 20
3660.7296186077474
 11
2365.7590386268121
 21
3660.7296186077474
  0
LINE
  8
_0-4_05_CENTER
  6
CENTER2
 62
    4
 10
2375.7590386268121
 20
3670.7296186077474
 11
2375.7590386268121
 21
3650.7296186077479
  0
CIRCLE
  8
_0-5_0
  6
CONTINUOUS
 62
   18
 10
2430.7590386268121
 20
3715.7296186077479
 40
6
  0
LINE
  8
_0-4_05_CENTER
  6
CENTER2
 62
    4
 10
2420.7590386267648
 20
3715.7296186077433
 11
2440.7590386267648
 21
3715.7296186077433
  0
LINE
  8
_0-4_05_CENTER
  6
CENTER2
 62
    4
 10
2430.7590386267648
 20
3705.7296186077429
 11
2430.7590386267648
 21
3725.7296186077433
  0
CIRCLE
  8
_0-5_0
  6
CONTINUOUS
 62
   18
 10
2605.7590386268594
 20
3715.7296186077479
 40
6
  0
LINE
  8
_0-4_05_CENTER
  6
CENTER2
 62
    4
 10
2595.7590386268116
 20
3715.7296186077433
 11
2615.7590386268121
 21
3715.7296186077433
  0
LINE
  8
_0-4_05_CENTER
  6
CENTER2
 62
    4
 10
2605.7590386268121
 20
3705.7296186077429
 11
2605.7590386268121
 21
3725.7296186077433
  0
CIRCLE
  8
_0-5_0
  6
CONTINUOUS
 62
   18
 10
2780.7590386268594
 20
3715.7296186077519
 40
6
  0
LINE
  8
_0-4_05_CENTER
  6
CENTER2
 62
    4
 10
2770.7590386268121
 20
3715.7296186077479
 11
2790.7590386268116
 21
3715.7296186077479
  0
LINE
  8
_0-4_05_CENTER
  6
CENTER2
 62
    4
 10
2780.7590386268125
 20
3705.7296186077479
 11
2780.7590386268125
 21
3725.7296186077474
  0
LINE
  8
_0-4_05_CENTER
  6
CENTER2
 62
    4
 10
2887.4904290360928
 20
3485.7296186065309
 11
2324.0276482082409
 21
3485.7296186065309
  0
LINE
  8
_0-4_05_CENTER
  6
CENTER2
 62
    4
 10
2605.7590386217153
 20
3203.9982281926045
 11
2605.7590386217153
 21
3767.4610090204574
  0
LINE
  8
_0-5_0
  6
CONTINUOUS
 62
   18
 10
2408.0590386268132
 20
3288.0296186077476
 11
2803.4590386268128
 21
3288.0296186077476
  0
LINE
  8
_0-5_0
  6
CONTINUOUS
 62
   18
 10
2803.4590386268128
 20
3288.0296186077476
 11
2803.4590386268128
 21
3683.4296186077472
  0
LINE
  8
_0-5_0
  6
CONTINUOUS
 62
   18
 10
2803.4590386268128
 20
3683.4296186077472
 11
2408.0590386268132
 21
3683.4296186077472
  0
LINE
  8
_0-5_0
  6
CONTINUOUS
 62
   18
 10
2408.0590386268132
 20
3683.4296186077472
 11
2408.0590386268132
 21
3288.0296186077476
  0
LINE
  8
_0-4_05_CENTER
  6
CENTER2
 62
    4
 10
2430.7590386267648
 20
3255.7296186077519
 11
2780.7590386268125
 21
3255.7296186077519
  0
LINE
  8
_0-4_05_CENTER
  6
CENTER2
 62
    4
 10
2835.7590386268121
 20
3310.7296186077479
 11
2835.7590386268121
 21
3660.7296186077474
  0
LINE
  8
_0-4_05_CENTER
  6
CENTER2
 62
    4
 10
2430.7590386267648
 20
3715.7296186077433
 11
2780.7590386268125
 21
3715.7296186077433
  0
LINE
  8
_0-4_05_CENTER
  6
CENTER2
 62
    4
 10
2375.7590386166185
 20
3310.7296186077479
 11
2375.7590386166185
 21
3660.7296186077474
  0
TEXT
  8
_0-0_90_FRAME
 62
    3
 10
5931.0825014479942
 20
1437.1820792542749
 40
18
 41
1
 50
0
  1
SS400
  0
TEXT
  8
_0-6_07_TEXT
 62
    3
 10
2263.6137169420067
 20
4070.4102740097555
 40
24
 41
1
 50
0
  1
表面処理：＊＊＊
  0
INSERT
  2
-006-AM_BALLOON1
  8
_0-2_08_DIM
 10
2224.1089821612086
 20
4105.5507835389253
 41
7.5
 42
7.5
 50
0
  0
TEXT
  8
_0-5_0
 62
    7
 10
2213.3946964469228
 20
4094.3007835389249
 40
22.5
 41
1
 50
0
  1
2
  0
LINE
  8
_0-2_08_DIM
  6
CONTINUOUS
 62
    3
 10
3256.964841653717
 20
3285.72961860653
 11
3199.0908334385517
 21
3285.72961860653
  0
LINE
  8
_0-2_08_DIM
  6
CONTINUOUS
 62
    3
 10
3256.964841653717
 20
3685.72961860653
 11
3199.0908334385517
 21
3685.72961860653
  0
LINE
  8
_0-2_08_DIM
  6
CONTINUOUS
 62
    3
 10
3206.5908334385517
 20
3300.72961860653
 11
3206.5908334385517
 21
3670.72961860653
  0
INSERT
  2
-007-_Open30
  8
_0-2_08_DIM
 10
3206.5908334385517
 20
3285.72961860653
 41
15
 42
15
 50
270
  0
INSERT
  2
-007-_Open30
  8
_0-2_08_DIM
 10
3206.5908334385517
 20
3685.72961860653
 41
15
 42
15
 50
90
  0
LINE
  8
_0-2_08_DIM
  6
CONTINUOUS
 62
    3
 10
3256.964841653717
 20
3235.72961860653
 11
3152.1289290762675
 21
3235.72961860653
  0
LINE
  8
_0-2_08_DIM
  6
CONTINUOUS
 62
    3
 10
3256.964841653717
 20
3735.72961860653
 11
3152.1289290762675
 21
3735.72961860653
  0
LINE
  8
_0-2_08_DIM
  6
CONTINUOUS
 62
    3
 10
3159.6289290762675
 20
3250.7296186065296
 11
3159.6289290762675
 21
3720.7296186065296
  0
INSERT
  2
-007-_Open30
  8
_0-2_08_DIM
 10
3159.6289290762675
 20
3235.72961860653
 41
15
 42
15
 50
270
  0
INSERT
  2
-007-_Open30
  8
_0-2_08_DIM
 10
3159.6289290762675
 20
3735.72961860653
 41
15
 42
15
 50
90
  0
LINE
  8
_0-2_08_DIM
  6
CONTINUOUS
 62
    3
 10
3260.7148416537175
 20
3231.97961860653
 11
3260.7148416537175
 21
3152.4553932884614
  0
LINE
  8
_0-2_08_DIM
  6
CONTINUOUS
 62
    3
 10
3266.7148416537166
 20
3231.97961860653
 11
3266.7148416537166
 21
3152.4553932884614
  0
LINE
  8
_0-2_08_DIM
  6
CONTINUOUS
 62
    3
 10
3281.7148416537166
 20
3159.9553932884619
 11
3316.214841653717
 21
3159.9553932884619
  0
LINE
  8
_0-2_08_DIM
  6
CONTINUOUS
 62
    3
 10
3260.7148416537175
 20
3159.9553932884619
 11
3266.7148416537166
 21
3159.9553932884619
  0
LINE
  8
_0-2_08_DIM
  6
CONTINUOUS
 62
    3
 10
3245.714841653717
 20
3159.9553932884619
 11
3230.714841653717
 21
3159.9553932884619
  0
INSERT
  2
-007-_Open30
  8
_0-2_08_DIM
 10
3260.7148416537175
 20
3159.9553932884619
 41
15
 42
15
 50
0
  0
INSERT
  2
-007-_Open30
  8
_0-2_08_DIM
 10
3266.7148416537166
 20
3159.9553932884619
 41
15
 42
15
 50
180
  0
LINE
  8
_0-2_08_DIM
  6
CONTINUOUS
 62
    3
 10
3260.7148416537175
 20
3231.97961860653
 11
3260.7148416537175
 21
2752.5676885463877
  0
LINE
  8
_0-2_08_DIM
  6
CONTINUOUS
 62
    3
 10
3960.7148416491987
 20
2881.9796186065314
 11
3960.7148416491987
 21
2752.5676885463877
  0
LINE
  8
_0-2_08_DIM
  6
CONTINUOUS
 62
    3
 10
3275.7148416537175
 20
2760.0676885463872
 11
3945.7148416491987
 21
2760.0676885463872
  0
INSERT
  2
-007-_Open30
  8
_0-2_08_DIM
 10
3260.7148416537175
 20
2760.0676885463872
 41
15
 42
15
 50
180
  0
INSERT
  2
-007-_Open30
  8
_0-2_08_DIM
 10
3960.7148416491987
 20
2760.0676885463872
 41
15
 42
15
 50
0
  0
LINE
  8
_0-2_08_DIM
  6
CONTINUOUS
 62
    3
 10
3960.7148416491987
 20
2881.9796186065314
 11
3960.7148416491987
 21
2752.5676885463877
  0
LINE
  8
_0-2_08_DIM
  6
CONTINUOUS
 62
    3
 10
4360.7148416491991
 20
2841.97961860653
 11
4360.7148416491991
 21
2752.5676885463877
  0
LINE
  8
_0-2_08_DIM
  6
CONTINUOUS
 62
    3
 10
3975.7148416491987
 20
2760.0676885463872
 11
4345.7148416491982
 21
2760.0676885463872
  0
INSERT
  2
-007-_Open30
  8
_0-2_08_DIM
 10
3960.7148416491987
 20
2760.0676885463872
 41
15
 42
15
 50
180
  0
INSERT
  2
-007-_Open30
  8
_0-2_08_DIM
 10
4360.7148416491991
 20
2760.0676885463872
 41
15
 42
15
 50
0
  0
LINE
  8
_0-2_08_DIM
  6
CONTINUOUS
 62
    3
 10
4360.7148416491991
 20
2841.97961860653
 11
4360.7148416491991
 21
2701.872535228375
  0
LINE
  8
_0-2_08_DIM
  6
CONTINUOUS
 62
    3
 10
3260.7148416537175
 20
3231.97961860653
 11
3260.7148416537175
 21
2701.872535228375
  0
LINE
  8
_0-2_08_DIM
  6
CONTINUOUS
 62
    3
 10
4345.7148416491982
 20
2709.372535228375
 11
3275.7148416537175
 21
2709.372535228375
  0
INSERT
  2
-007-_Open30
  8
_0-2_08_DIM
 10
4360.7148416491991
 20
2709.372535228375
 41
15
 42
15
 50
0
  0
INSERT
  2
-007-_Open30
  8
_0-2_08_DIM
 10
3260.7148416537175
 20
2709.372535228375
 41
15
 42
15
 50
180
  0
LINE
  8
_0-2_08_DIM
  6
CONTINUOUS
 62
    3
 10
4364.4648416491982
 20
2885.7296186065296
 11
4444.8678351568524
 21
2885.7296186065296
  0
LINE
  8
_0-2_08_DIM
  6
CONTINUOUS
 62
    3
 10
4364.4648416491982
 20
2845.7296186065296
 11
4444.8678351568524
 21
2845.7296186065296
  0
LINE
  8
_0-2_08_DIM
  6
CONTINUOUS
 62
    3
 10
4437.3678351568524
 20
2870.72961860653
 11
4437.3678351568524
 21
2860.7296186065296
  0
INSERT
  2
-007-_Open30
  8
_0-2_08_DIM
 10
4437.3678351568524
 20
2885.7296186065296
 41
15
 42
15
 50
90
  0
INSERT
  2
-007-_Open30
  8
_0-2_08_DIM
 10
4437.3678351568524
 20
2845.7296186065296
 41
15
 42
15
 50
270
  0
LINE
  8
_0-2_08_DIM
  6
CONTINUOUS
 62
    3
 10
4364.464841648818
 20
2885.7296186065296
 11
4444.8678351568524
 21
2885.7296186065296
  0
LINE
  8
_0-2_08_DIM
  6
CONTINUOUS
 62
    3
 10
4364.4648416491982
 20
4085.7296186065309
 11
4444.8678351568524
 21
4085.7296186065309
  0
LINE
  8
_0-2_08_DIM
  6
CONTINUOUS
 62
    3
 10
4437.3678351568524
 20
2900.7296186065296
 11
4437.3678351568524
 21
4070.7296186065309
  0
INSERT
  2
-007-_Open30
  8
_0-2_08_DIM
 10
4437.3678351568524
 20
2885.7296186065296
 41
15
 42
15
 50
270
  0
INSERT
  2
-007-_Open30
  8
_0-2_08_DIM
 10
4437.3678351568524
 20
4085.7296186065309
 41
15
 42
15
 50
90
  0
LINE
  8
_0-2_08_DIM
  6
CONTINUOUS
 62
    3
 10
4364.4648416491982
 20
2845.7296186065296
 11
4494.8206669762585
 21
2845.7296186065296
  0
LINE
  8
_0-2_08_DIM
  6
CONTINUOUS
 62
    3
 10
4364.4648416491982
 20
4125.7296186065314
 11
4494.8206669762585
 21
4125.7296186065314
  0
LINE
  8
_0-2_08_DIM
  6
CONTINUOUS
 62
    3
 10
4487.3206669762585
 20
2860.7296186065296
 11
4487.3206669762585
 21
4110.7296186065314
  0
INSERT
  2
-007-_Open30
  8
_0-2_08_DIM
 10
4487.3206669762585
 20
2845.7296186065296
 41
15
 42
15
 50
270
  0
INSERT
  2
-007-_Open30
  8
_0-2_08_DIM
 10
4487.3206669762585
 20
4125.7296186065314
 41
15
 42
15
 50
90
  0
LINE
  8
_0-2_08_DIM
  6
CONTINUOUS
 62
    3
 10
4266.6777057941345
 20
2885.7296186065296
 11
4259.6015550960419
 21
2885.7296186065296
  0
LINE
  8
_0-2_08_DIM
  6
CONTINUOUS
 62
    3
 10
4266.6777057941345
 20
2888.0295886063936
 11
4259.6015550960419
 21
2888.0295886063936
  0
LINE
  8
_0-2_08_DIM
  6
CONTINUOUS
 62
    3
 10
4267.1015550960419
 20
2903.0295886063936
 11
4267.1015550960419
 21
2961.5295886063941
  0
LINE
  8
_0-2_08_DIM
  6
CONTINUOUS
 62
    3
 10
4267.1015550960419
 20
2885.7296186065296
 11
4267.1015550960419
 21
2888.0295886063936
  0
LINE
  8
_0-2_08_DIM
  6
CONTINUOUS
 62
    3
 10
4267.1015550960419
 20
2870.72961860653
 11
4267.1015550960419
 21
2855.72961860653
  0
INSERT
  2
-007-_Open30
  8
_0-2_08_DIM
 10
4267.1015550960419
 20
2885.7296186065296
 41
15
 42
15
 50
90
  0
INSERT
  2
-007-_Open30
  8
_0-2_08_DIM
 10
4267.1015550960419
 20
2888.0295886063936
 41
15
 42
15
 50
270
  0
LINE
  8
_0-2_08_DIM
  6
CONTINUOUS
 62
    3
 10
4315.1082399314018
 20
2840.12301688873
 11
4265.1448789275328
 21
2790.1596558848614
  0
INSERT
  2
-007-_Open30
  8
_0-2_08_DIM
 10
4325.7148416492
 20
2850.7296186065282
 41
14.999999999999998
 42
14.999999999999998
 50
45.000000000000099
  0
LINE
  8
_0-2_08_DIM
  6
CONTINUOUS
 62
    3
 10
4364.4648416491982
 20
4085.7296186065319
 11
4444.8678351568524
 21
4085.7296186065319
  0
LINE
  8
_0-2_08_DIM
  6
CONTINUOUS
 62
    3
 10
4364.4648416491982
 20
4125.7296186065314
 11
4444.8678351568524
 21
4125.7296186065314
  0
LINE
  8
_0-2_08_DIM
  6
CONTINUOUS
 62
    3
 10
4437.3678351568524
 20
4100.7296186065314
 11
4437.3678351568524
 21
4110.7296186065314
  0
INSERT
  2
-007-_Open30
  8
_0-2_08_DIM
 10
4437.3678351568524
 20
4085.7296186065319
 41
15
 42
15
 50
270
  0
INSERT
  2
-007-_Open30
  8
_0-2_08_DIM
 10
4437.3678351568524
 20
4125.7296186065314
 41
15
 42
15
 50
90
  0
LINE
  8
_0-2_08_DIM
  6
CONTINUOUS
 62
    3
 10
2605.7590386217153
 20
3200.2482281926045
 11
2605.7590386217153
 21
3151.1713473060331
  0
LINE
  8
_0-2_08_DIM
  6
CONTINUOUS
 62
    3
 10
2780.7590386268125
 20
3241.9796186077474
 11
2780.7590386268125
 21
3151.1713473060331
  0
LINE
  8
_0-2_08_DIM
  6
CONTINUOUS
 62
    3
 10
2620.7590386217153
 20
3158.6713473060336
 11
2765.7590386268121
 21
3158.6713473060336
  0
INSERT
  2
-007-_Open30
  8
_0-2_08_DIM
 10
2605.7590386217153
 20
3158.6713473060336
 41
15
 42
15
 50
180
  0
INSERT
  2
-007-_Open30
  8
_0-2_08_DIM
 10
2780.7590386268125
 20
3158.6713473060336
 41
15
 42
15
 50
0
  0
LINE
  8
_0-2_08_DIM
  6
CONTINUOUS
 62
    3
 10
2605.7590386217153
 20
3200.2482281926045
 11
2605.7590386217153
 21
3151.1713473060331
  0
LINE
  8
_0-2_08_DIM
  6
CONTINUOUS
 62
    3
 10
2430.7590386267648
 20
3241.9796186077519
 11
2430.7590386267648
 21
3151.1713473060331
  0
LINE
  8
_0-2_08_DIM
  6
CONTINUOUS
 62
    3
 10
2590.7590386217153
 20
3158.6713473060336
 11
2445.7590386267648
 21
3158.6713473060336
  0
INSERT
  2
-007-_Open30
  8
_0-2_08_DIM
 10
2605.7590386217153
 20
3158.6713473060336
 41
15
 42
15
 50
0
  0
INSERT
  2
-007-_Open30
  8
_0-2_08_DIM
 10
2430.7590386267648
 20
3158.6713473060336
 41
15
 42
15
 50
180
  0
LINE
  8
_0-2_08_DIM
  6
CONTINUOUS
 62
    3
 10
2375.7590386268121
 20
3296.9796186077479
 11
2375.7590386268121
 21
3100.1536594856952
  0
LINE
  8
_0-2_08_DIM
  6
CONTINUOUS
 62
    3
 10
2835.7590386268121
 20
3296.9796186077479
 11
2835.7590386268121
 21
3100.1536594856952
  0
LINE
  8
_0-2_08_DIM
  6
CONTINUOUS
 62
    3
 10
2390.7590386268121
 20
3107.6536594856943
 11
2820.7590386268116
 21
3107.6536594856943
  0
INSERT
  2
-007-_Open30
  8
_0-2_08_DIM
 10
2375.7590386268121
 20
3107.6536594856943
 41
15
 42
15
 50
180
  0
INSERT
  2
-007-_Open30
  8
_0-2_08_DIM
 10
2835.7590386268121
 20
3107.6536594856943
 41
15
 42
15
 50
0
  0
LINE
  8
_0-2_08_DIM
  6
CONTINUOUS
 62
    3
 10
3000.2060127675809
 20
3165.1541346947356
 11
2883.0560127675808
 21
3165.1541346947356
  0
LINE
  8
_0-2_08_DIM
  6
CONTINUOUS
 62
    3
 10
2883.0560127675808
 20
3165.1541346947356
 11
2796.4817098472822
 21
3241.808497615019
  0
INSERT
  2
-007-_Open30
  8
_0-2_08_DIM
 10
2785.2512304040861
 20
3251.7521554669343
 41
15
 42
15
 50
138.47777457075455
  0
LINE
  8
_0-2_08_DIM
  6
CONTINUOUS
 62
    3
 10
2891.2404290360928
 20
3485.7296186065309
 11
2924.3713555206086
 21
3485.7296186065309
  0
LINE
  8
_0-2_08_DIM
  6
CONTINUOUS
 62
    3
 10
2849.5090386268121
 20
3660.7296186077474
 11
2924.3713555206086
 21
3660.7296186077474
  0
LINE
  8
_0-2_08_DIM
  6
CONTINUOUS
 62
    3
 10
2916.8713555206086
 20
3500.7296186065309
 11
2916.8713555206086
 21
3645.7296186077474
  0
INSERT
  2
-007-_Open30
  8
_0-2_08_DIM
 10
2916.8713555206086
 20
3485.7296186065309
 41
15
 42
15
 50
270
  0
INSERT
  2
-007-_Open30
  8
_0-2_08_DIM
 10
2916.8713555206086
 20
3660.7296186077474
 41
15
 42
15
 50
90
  0
LINE
  8
_0-2_08_DIM
  6
CONTINUOUS
 62
    3
 10
2891.2404290360928
 20
3485.7296186065309
 11
2924.3713555206086
 21
3485.7296186065309
  0
LINE
  8
_0-2_08_DIM
  6
CONTINUOUS
 62
    3
 10
2849.5090386268121
 20
3310.7296186077479
 11
2924.3713555206086
 21
3310.7296186077479
  0
LINE
  8
_0-2_08_DIM
  6
CONTINUOUS
 62
    3
 10
2916.8713555206086
 20
3470.7296186065309
 11
2916.8713555206086
 21
3325.7296186077479
  0
INSERT
  2
-007-_Open30
  8
_0-2_08_DIM
 10
2916.8713555206086
 20
3485.7296186065309
 41
15
 42
15
 50
90
  0
INSERT
  2
-007-_Open30
  8
_0-2_08_DIM
 10
2916.8713555206086
 20
3310.7296186077479
 41
15
 42
15
 50
270
  0
LINE
  8
_0-2_08_DIM
  6
CONTINUOUS
 62
    3
 10
2794.5090386268121
 20
3255.7296186077479
 11
2973.9835364052956
 21
3255.7296186077479
  0
LINE
  8
_0-2_08_DIM
  6
CONTINUOUS
 62
    3
 10
2794.5090386268121
 20
3715.7296186077479
 11
2973.9835364052956
 21
3715.7296186077479
  0
LINE
  8
_0-2_08_DIM
  6
CONTINUOUS
 62
    3
 10
2966.483536405296
 20
3270.7296186077474
 11
2966.483536405296
 21
3700.7296186077474
  0
INSERT
  2
-007-_Open30
  8
_0-2_08_DIM
 10
2966.483536405296
 20
3255.7296186077479
 41
15
 42
15
 50
270
  0
INSERT
  2
-007-_Open30
  8
_0-2_08_DIM
 10
2966.483536405296
 20
3715.7296186077479
 41
15
 42
15
 50
90
  0
LINE
  8
_0-2_08_DIM
  6
CONTINUOUS
 62
    3
 10
2863.8656403446103
 20
3743.8362203255456
 11
2915.7201081913481
 21
3795.6906881722839
  0
INSERT
  2
-007-_Open30
  8
_0-2_08_DIM
 10
2853.2590386268116
 20
3733.2296186077474
 41
15
 42
15
 50
224.99999999999986
  0
LINE
  8
_0-2_08_DIM
  6
CONTINUOUS
 62
    3
 10
4728.2686716191665
 20
2837.6230168882798
 11
4678.3053106152984
 21
2787.6596558844108
  0
INSERT
  2
-007-_Open30
  8
_0-2_08_DIM
 10
4738.8752733369647
 20
2848.229618606078
 41
14.999999999999998
 42
14.999999999999998
 50
45.000000000000099
  0
TEXT
  8
_0-6_07_TEXT
 62
    3
 10
5792.8427945645562
 20
1786.1720380273512
 40
18
 41
1
 50
0
  1
注記
  0
TEXT
  8
_0-6_07_TEXT
 62
    3
 10
5794.2827945645558
 20
1752.6980380273512
 40
18
 41
1
 50
0
  1
　指示なき角部は
  0
TEXT
  8
_0-6_07_TEXT
 62
    3
 10
5988.2327945645529
 20
1752.6980380273512
 40
18
 41
1
 50
0
  1
C0.5
  0
TEXT
  8
_0-6_07_TEXT
 62
    3
 10
6049.089937421697
 20
1752.6980380273512
 40
18
 41
1
 50
0
  1
のこと
  0
TEXT
  8
_0-6_07_TEXT
 62
    3
 10
5794.2827945645558
 20
1718.504038027351
 40
18
 41
1
 50
0
  1
　ガス切断面はグラインダ仕上げのこ
  0
TEXT
  8
_0-6_07_TEXT
 62
    3
 10
5792.1407945645551
 20
1686.0560380273512
 40
18
 41
1
 50
0
  1
と
  0
TEXT
  8
_0-6_07_TEXT
 62
    3
 10
5794.2827945645558
 20
1652.7980380273511
 40
18
 41
1
 50
0
  1
　指示なき溶接部は　　　　のこと
  0
TEXT
  8
_0-6_07_TEXT
 62
    3
 10
5794.2827945645558
 20
1619.7380380273512
 40
18
 41
1
 50
0
  1
　水漏れなきこと
  0
TEXT
  8
_0-6_07_TEXT
 62
    3
 10
5794.2827945645558
 20
1586.3720380273512
 40
18
 41
1
 50
0
  1
　内面塗装不可
  0
TEXT
  8
_0-2_08_DIM
 62
    3
 10
3202.8408334385513
 20
3452.8140471779589
 40
18
 41
1
 50
90
  1
□
  0
TEXT
  8
_0-2_08_DIM
 62
    3
 10
3202.8408334385513
 20
3467.9880471779588
 40
18
 41
1
 50
90
  1
400
  0
TEXT
  8
_0-2_08_DIM
 62
    3
 10
3155.8664290762677
 20
3452.8140471779589
 40
18
 41
1
 50
90
  1
□
  0
TEXT
  8
_0-2_08_DIM
 62
    3
 10
3155.8664290762677
 20
3467.9880471779588
 40
18
 41
1
 50
90
  1
500
  0
TEXT
  8
_0-2_08_DIM
 62
    3
 10
3297.464841653717
 20
3163.7053932884614
 40
18
 41
1
 50
0
  1
6
  0
TEXT
  8
_0-2_08_DIM
 62
    3
 10
3585.0005559371716
 20
2763.8176885463877
 40
18
 41
1
 50
0
  1
700
  0
TEXT
  8
_0-2_08_DIM
 62
    3
 10
4135.0005559349129
 20
2763.8176885463877
 40
18
 41
1
 50
0
  1
400
  0
TEXT
  8
_0-2_08_DIM
 62
    3
 10
3775.1434130800289
 20
2713.1225352283755
 40
18
 41
1
 50
0
  1
1100
  0
TEXT
  8
_0-2_08_DIM
 62
    3
 10
4433.6178351568524
 20
2848.5867614636727
 40
18
 41
1
 50
90
  1
40
  0
TEXT
  8
_0-2_08_DIM
 62
    3
 10
4433.6178351568515
 20
3444.24261860653
 40
18
 41
1
 50
90
  1
□
  0
TEXT
  8
_0-2_08_DIM
 62
    3
 10
4433.6178351568515
 20
3459.4166186065304
 40
18
 41
1
 50
90
  1
1200
  0
TEXT
  8
_0-2_08_DIM
 62
    3
 10
4483.5706669762576
 20
3450.1581900351011
 40
18
 41
1
 50
90
  1
1280
  0
TEXT
  8
_0-2_08_DIM
 62
    3
 10
4263.3515550960428
 20
2918.3510171778221
 40
18
 41
1
 50
90
  1
2.3
  0
TEXT
  8
_0-2_08_DIM
 62
    3
 10
4262.1055824591112
 20
2792.4413379448692
 40
18
 41
1
 50
44.999999999999844
  1
4-C5
  0
TEXT
  8
_0-2_08_DIM
 62
    3
 10
4433.6178351568524
 20
4088.5867614636745
 40
18
 41
1
 50
90
  1
40
  0
TEXT
  8
_0-2_08_DIM
 62
    3
 10
2666.2590386242632
 20
3162.4338473060329
 40
18
 41
1
 50
0
  1
175
  0
TEXT
  8
_0-2_08_DIM
 62
    3
 10
2491.25903862424
 20
3162.4338473060329
 40
18
 41
1
 50
0
  1
175
  0
TEXT
  8
_0-2_08_DIM
 62
    3
 10
2580.0447529125267
 20
3111.4036594856948
 40
18
 41
1
 50
0
  1
460
  0
TEXT
  8
_0-2_08_DIM
 62
    3
 10
2874.5990127675814
 20
3169.9301346947354
 40
18
 41
1
 50
0
  1
12-12
  0
TEXT
  8
_0-2_08_DIM
 62
    3
 10
2965.456155624724
 20
3169.9301346947354
 40
18
 41
1
 50
0
  1
キリ
  0
TEXT
  8
_0-2_08_DIM
 62
    3
 10
2913.1088555206084
 20
3546.2296186071389
 40
18
 41
1
 50
90
  1
175
  0
TEXT
  8
_0-2_08_DIM
 62
    3
 10
2913.1088555206084
 20
3371.2296186071394
 40
18
 41
1
 50
90
  1
175
  0
TEXT
  8
_0-2_08_DIM
 62
    3
 10
2962.733536405296
 20
3460.0153328934616
 40
18
 41
1
 50
90
  1
460
  0
TEXT
  8
_0-2_08_DIM
 62
    3
 10
2860.7084633057157
 20
3746.0000218150799
 40
18
 41
1
 50
44.999999999999844
  1
4-C5
  0
TEXT
  8
_0-2_08_DIM
 62
    3
 10
4675.2660141468768
 20
2789.9413379444177
 40
18
 41
1
 50
45.000000000000028
  1
4-C5
  0
TEXT
  8
_0-0_90_FRAME
 62
    3
 10
2319.449184538762
 20
292.64418757570837
 40
18
 41
1
 50
0
  1
寺田
  0
TEXT
  8
_0-0_90_FRAME
 62
    3
 10
1859.679549554543
 20
292.64418757570837
 40
18
 41
0.6500000000000001
 50
0
  1
2013.09.01
  0
TEXT
  8
_0-0_90_FRAME
 62
    3
 10
1979.629673633608
 20
292.64418757570837
 40
18
 41
1
 50
0
  1
エアー抜き追加
  0
TEXT
  8
_0-9_
 62
    7
 10
3473.7362605586359
 20
260.98252895082464
 40
56.990985524790119
 41
1
 50
0
  1
A3　150%
  0
ENDSEC
  0
EOF
