  0
SECTION
  2
HEADER
  9
$ACADVER
  1
AC1009
  9
$INSBASE
 10
0
 20
0
 30
0
  9
$EXTMIN
 10
0
 20
0
  9
$EXTMAX
 10
3989.3689867353087
 20
2821.0537834771112
  9
$LIMMIN
 10
0
 20
0
  9
$LIMMAX
 10
3989.3689867353087
 20
2821.0537834771112
  9
$LTSCALE
 40
9.498497587465021
  0
ENDSEC
  0
SECTION
  2
TABLES
  0
TABLE
  2
LTYPE
 70
     9
  0
LTYPE
  2
CONTINUOUS
 70
    64
  3
実線
 72
    65
 73
     0
 40
0.0
  0
LTYPE
  2
DASHED1
 70
    64
  3
--  --  --  --  --  --  --  --  
 72
    65
 73
     2
 40
2.5
 49
1.25
 49
-1.25
  0
LTYPE
  2
DASHED2
 70
    64
  3
----    ----    ----    ----    
 72
    65
 73
     2
 40
5.0
 49
2.5
 49
-2.5
  0
LTYPE
  2
DASHED3
 70
    64
  3
------  ------  ------  ------  
 72
    65
 73
     2
 40
5.0
 49
3.75
 49
-1.25
  0
LTYPE
  2
CENTER1
 70
    64
  3
----- - ----- - ----- - ----- - 
 72
    65
 73
     4
 40
10.0
 49
6.25
 49
-1.25
 49
1.25
 49
-1.25
  0
LTYPE
  2
CENTER2
 70
    64
  3
----------  --  ----------  --  
 72
    65
 73
     4
 40
20.0
 49
12.5
 49
-2.5
 49
2.5
 49
-2.5
  0
LTYPE
  2
PHANTOM1
 70
    64
  3
--- - - --- - - --- - - --- - - 
 72
    65
 73
     6
 40
10.0
 49
3.25
 49
-1.25
 49
1.25
 49
-1.25
 49
1.25
 49
-1.25
  0
LTYPE
  2
PHANTOM2
 70
    64
  3
--------  -  -  --------  -  -  
 72
    65
 73
     6
 40
20.0
 49
10.0
 49
-2.5
 49
1.25
 49
-2.5
 49
1.25
 49
-2.5
  0
LTYPE
  2
DOT
 70
    64
  3
-   -   -   -   -   -   -   -   
 72
    65
 73
     2
 40
2.5
 49
0.625
 49
-1.875
  0
LTYPE
  2
DUMMY
 70
    64
  3
ダミー
 72
    65
 73
     0
 40
0.0
  0
LTYPE
  2
RAND1
 70
    64
  3
ランダム線1
 72
    65
 73
     4
 40
10.0
 49
1.0
 49
-2.0
 49
3.0
 49
-4.0
  0
LTYPE
  2
RAND2
 70
    64
  3
ランダム線2
 72
    65
 73
     4
 40
14.0
 49
2.0
 49
-3.0
 49
4.0
 49
-5.0
  0
LTYPE
  2
RAND3
 70
    64
  3
ランダム線3
 72
    65
 73
     4
 40
18.0
 49
3.0
 49
-4.0
 49
5.0
 49
-6.0
  0
LTYPE
  2
RAND4
 70
    64
  3
ランダム線4
 72
    65
 73
     4
 40
22.0
 49
4.0
 49
-5.0
 49
6.0
 49
-7.0
  0
LTYPE
  2
RAND5
 70
    64
  3
ランダム線5
 72
    65
 73
     4
 40
26.0
 49
5.0
 49
-6.0
 49
7.0
 49
-8.0
  0
LTYPE
  2
LONG1
 70
    64
  3
----------  --  ----------  --  
 72
    65
 73
     4
 40
40.0
 49
32.5
 49
-2.5
 49
2.5
 49
-2.5
  0
LTYPE
  2
LONG2
 70
    64
  3
--------  -  -  --------  -  -  
 72
    65
 73
     6
 40
40.0
 49
30.0
 49
-2.5
 49
1.25
 49
-2.5
 49
1.25
 49
-2.5
  0
LTYPE
  2
LONG3
 70
    64
  3
+++++++++++++++..+++++++++++++++
 72
    65
 73
     2
 40
40.0
 49
37.5
 49
-2.5
  0
LTYPE
  2
LONG4
 70
    64
  3
+++++++++++++++..+++++++++++++++
 72
    65
 73
     2
 40
80.0
 49
75.0
 49
-5.0
  0
LTYPE
  2
LONG5
 70
    64
  3
----------  --  ----------  --  
 72
    65
 73
     4
 40
60.0
 49
37.5
 49
-7.5
 49
7.5
 49
-7.5
  0
LTYPE
  2
dashed
 70
   64
  3
-------   -------------   ------
 72
   65
 73
    2
 40
7.5
 49
6
 49
-1.5
  0
LTYPE
  2
dashed_spaced
 70
   64
  3
----        --------        ----
 72
   65
 73
    2
 40
12
 49
6
 49
-6
  0
LTYPE
  2
long_dashed_dotted
 70
   64
  3
------------- --- --------------
 72
   65
 73
    4
 40
15.25
 49
12
 49
-1.5
 49
0.25
 49
-1.5
  0
LTYPE
  2
long_dashed_double-dotted
 70
   64
  3
----------- --- --- ------------
 72
   65
 73
    6
 40
17
 49
12
 49
-1.5
 49
0.25
 49
-1.5
 49
0.25
 49
-1.5
  0
LTYPE
  2
long_dashed_triplicate-dotted
 70
   64
  3
--------- --- --- --- ----------
 72
   65
 73
    8
 40
18.75
 49
12
 49
-1.5
 49
0.25
 49
-1.5
 49
0.25
 49
-1.5
 49
0.25
 49
-1.5
  0
LTYPE
  2
dotted
 70
   64
  3
   -       -       -       -    
 72
   65
 73
    2
 40
1.75
 49
0.25
 49
-1.5
  0
LTYPE
  2
chain
 70
   64
  3
-------------- -- --------------
 72
   65
 73
    4
 40
18.5
 49
12
 49
-1.5
 49
3.5
 49
-1.5
  0
LTYPE
  2
chain_double_dash
 70
   64
  3
------------ -- -- -------------
 72
   65
 73
    6
 40
23.5
 49
12
 49
-1.5
 49
3.5
 49
-1.5
 49
3.5
 49
-1.5
  0
LTYPE
  2
dashed_dotted
 70
   64
  3
-----------     -     ----------
 72
   65
 73
    4
 40
9.25
 49
6
 49
-1.5
 49
0.25
 49
-1.5
  0
LTYPE
  2
double-dashed_dotted
 70
   64
  3
------   -----------   -   -----
 72
   65
 73
    6
 40
16.75
 49
6
 49
-1.5
 49
6
 49
-1.5
 49
0.25
 49
-1.5
  0
LTYPE
  2
dashed_double-dotted
 70
   64
  3
---------    -    -    ---------
 72
   65
 73
    6
 40
11
 49
6
 49
-1.5
 49
0.25
 49
-1.5
 49
0.25
 49
-1.5
  0
LTYPE
  2
double-dashed_double-dotted
 70
   64
  3
-----   ---------   -   -   ----
 72
   65
 73
    8
 40
18.5
 49
6
 49
-1.5
 49
6
 49
-1.5
 49
0.25
 49
-1.5
 49
0.25
 49
-1.5
  0
LTYPE
  2
dashed_triplicate-dotted
 70
   64
  3
-------    -    -    -    ------
 72
   65
 73
    8
 40
12.75
 49
6
 49
-1.5
 49
0.25
 49
-1.5
 49
0.25
 49
-1.5
 49
0.25
 49
-1.5
  0
LTYPE
  2
double-dashed_triplicate-dotted
 70
   64
  3
-----  ---------  -  -  -  -----
 72
   65
 73
   10
 40
20.25
 49
6
 49
-1.5
 49
6
 49
-1.5
 49
0.25
 49
-1.5
 49
0.25
 49
-1.5
 49
0.25
 49
-1.5
  0
LTYPE
  2
undefined
 70
   64
  3
--------------------------------
 72
   65
 73
    0
 40
0
  0
LTYPE
  2
_
 70
   64
  3
                                
 72
   65
 73
    0
 40
0
  0
LTYPE
  2
__18
 70
   64
  3
                                
 72
   65
 73
    0
 40
0
  0
LTYPE
  2
__19
 70
   64
  3
                                
 72
   65
 73
    0
 40
0
  0
LTYPE
  2
__20
 70
   64
  3
                                
 72
   65
 73
    0
 40
0
  0
LTYPE
  2
__21
 70
   64
  3
                                
 72
   65
 73
    0
 40
0
  0
LTYPE
  2
__22
 70
   64
  3
                                
 72
   65
 73
    0
 40
0
  0
LTYPE
  2
__23
 70
   64
  3
                                
 72
   65
 73
    0
 40
0
  0
LTYPE
  2
__24
 70
   64
  3
                                
 72
   65
 73
    0
 40
0
  0
LTYPE
  2
__25
 70
   64
  3
                                
 72
   65
 73
    0
 40
0
  0
LTYPE
  2
__26
 70
   64
  3
                                
 72
   65
 73
    0
 40
0
  0
LTYPE
  2
__27
 70
   64
  3
                                
 72
   65
 73
    0
 40
0
  0
LTYPE
  2
__28
 70
   64
  3
                                
 72
   65
 73
    0
 40
0
  0
LTYPE
  2
__29
 70
   64
  3
                                
 72
   65
 73
    0
 40
0
  0
LTYPE
  2
__30
 70
   64
  3
                                
 72
   65
 73
    0
 40
0
  0
LTYPE
  2
__31
 70
   64
  3
                                
 72
   65
 73
    0
 40
0
  0
LTYPE
  2
__32
 70
   64
  3
                                
 72
   65
 73
    0
 40
0
  0
ENDTAB
  0
TABLE
  2
STYLE
  5
3
100
AcDbSymbolTable
 70
     1
  0
STYLE
  5
10
100
AcDbSymbolTableRecord
100
AcDbTextStyleTableRecord
  2
STANDARD
 70
     0
 40
0.0
 41
1.0
 50
0.0
 71
     0
 42
0.2
  3
txt
  4
bigfont.shx
  0
STYLE
  5
26
100
AcDbSymbolTableRecord
100
AcDbTextStyleTableRecord
  2
TATEGAKI
 70
    68
 40
0.0
 41
1.0
 50
0.0
 71
     0
 42
1.0
  3
txt
  4
bigfont.shx
  0
ENDTAB
  0
TABLE
  2
LAYER
 70
   12
  0
LAYER
  2
_0-0_90_FRAME
 70
   64
 62
    7
  6
CONTINUOUS
  0
LAYER
  2
_0-1_91_BLANK
 70
   64
 62
    7
  6
CONTINUOUS
  0
LAYER
  2
_0-2_0
 70
   64
 62
    7
  6
CONTINUOUS
  0
LAYER
  2
_0-3_10_DRAFT
 70
   64
 62
    7
  6
CONTINUOUS
  0
LAYER
  2
_0-4_05_CENTER
 70
   64
 62
    7
  6
CONTINUOUS
  0
LAYER
  2
_0-5_04_HIDDEN
 70
   64
 62
    7
  6
CONTINUOUS
  0
LAYER
  2
_0-6_08_DIM
 70
   64
 62
    7
  6
CONTINUOUS
  0
LAYER
  2
_0-7_07_TEXT
 70
   64
 62
    7
  6
CONTINUOUS
  0
LAYER
  2
_0-8_01_NORMAL
 70
   64
 62
    7
  6
CONTINUOUS
  0
LAYER
  2
_0-9_02_SLIM
 70
   64
 62
    7
  6
CONTINUOUS
  0
LAYER
  2
_0-a_
 70
   64
 62
    7
  6
CONTINUOUS
  0
LAYER
  2
ADD_LINE
 70
   64
 62
    7
  6
CONTINUOUS
  0
ENDTAB
  0
ENDSEC
  0
SECTION
  2
BLOCKS
  0
BLOCK
  2
-000-p1ba05
 70
   64
 10
0
 20
0
 30
0
  0
ARC
  8
_0-6_08_DIM
  6
CONTINUOUS
 62
    3
 10
0
 20
1.6206695983957433
 40
1.6206695983958537
 50
204.22763733453323
 51
335.57577857182139
  0
ARC
  8
_0-6_08_DIM
  6
CONTINUOUS
 62
    3
 10
-2.9535588745990826
 20
0.2854771617432377
 40
1.6206695983958537
 50
24.227637334533135
 51
155.57577857182133
  0
ENDBLK
  0
BLOCK
  2
-001-p1ba01
 70
   64
 10
0
 20
0
 30
0
  0
LINE
  8
_0-6_08_DIM
  6
CONTINUOUS
 62
    3
 10
0
 20
0
 11
-1.5
 21
2.5980762113532592
  0
LINE
  8
_0-6_08_DIM
  6
CONTINUOUS
 62
    3
 10
1.5
 20
2.5980762113532592
 11
0
 21
0
  0
LINE
  8
_0-6_08_DIM
  6
CONTINUOUS
 62
    3
 10
-1.5
 20
2.5980762113532592
 11
1.5
 21
2.5980762113532592
  0
ENDBLK
  0
BLOCK
  2
-002-_Open30
 70
   64
 10
0
 20
0
 30
0
  0
LINE
  8
_0-6_08_DIM
  6
CONTINUOUS
 62
    3
 10
-1
 20
0.26794919
 11
0
 21
0
  0
LINE
  8
_0-6_08_DIM
  6
CONTINUOUS
 62
    3
 10
0
 20
0
 11
-1
 21
-0.26794919
  0
LINE
  8
_0-6_08_DIM
  6
CONTINUOUS
 62
    3
 10
0
 20
0
 11
-1
 21
0
  0
ENDBLK
  0
BLOCK
  2
-003-AM_BALLOON1
 70
   64
 10
0
 20
0
 30
0
  0
CIRCLE
  8
_0-6_08_DIM
  6
CONTINUOUS
 62
    3
 10
0
 20
0
 40
5.0000000000000009
  0
ENDBLK
  0
ENDSEC
  0
SECTION
  2
ENTITIES
  0
TEXT
  8
_0-0_90_FRAME
 62
    7
 10
3015.8915381947218
 20
624.73258459089868
 40
15.000000000000002
 41
1
 50
0
  1
AT-221121-04-20
  0
TEXT
  8
_0-0_90_FRAME
 62
    7
 10
2913.1748770130157
 20
590.20631750397013
 40
15.000000000000002
 41
1
 50
0
  1
2025.03.27
  0
LINE
  8
_0-0_90_FRAME
  6
CONTINUOUS
 62
    5
 10
868.9209119472755
 20
582.0587317881392
 11
3198.0999976545977
 21
582.0587317881392
  0
LINE
  8
_0-0_90_FRAME
  6
CONTINUOUS
 62
    5
 10
3198.0999976545977
 20
582.0587317881392
 11
3198.0999976545977
 21
2247.2204133530017
  0
LINE
  8
_0-0_90_FRAME
  6
CONTINUOUS
 62
    5
 10
3198.0999976545977
 20
2247.2204133530017
 11
868.9209119472755
 21
2247.2204133530017
  0
LINE
  8
_0-0_90_FRAME
  6
CONTINUOUS
 62
    5
 10
868.9209119472755
 20
2247.2204133530017
 11
868.9209119472755
 21
582.0587317881392
  0
LINE
  8
_0-0_90_FRAME
  6
CONTINUOUS
 62
    5
 10
752.38320337632467
 20
1414.6395725705709
 11
868.9209119472755
 21
1414.6395725705709
  0
LINE
  8
_0-0_90_FRAME
  6
CONTINUOUS
 62
    5
 10
3236.9857833687256
 20
1414.6395725705709
 11
3198.0999976545977
 21
1414.6395725705709
  0
LINE
  8
_0-0_90_FRAME
  6
CONTINUOUS
 62
    5
 10
2033.5104548009367
 20
2292.1061990751527
 11
2033.5104548009369
 21
2247.2204133530017
  0
LINE
  8
_0-0_90_FRAME
  6
CONTINUOUS
 62
    5
 10
2033.5104548009369
 20
543.34679906712677
 11
2033.5104548009369
 21
582.0587317881392
  0
LINE
  8
_0-0_90_FRAME
  6
CONTINUOUS
 62
    5
 10
1734.3890262307141
 20
564.11144607392237
 11
2332.6318833711598
 21
564.11144607392237
  0
LINE
  8
_0-0_90_FRAME
  6
CONTINUOUS
 62
    5
 10
1734.3890262307141
 20
564.11144607392237
 11
1734.3890262307141
 21
582.0587317881392
  0
LINE
  8
_0-0_90_FRAME
  6
CONTINUOUS
 62
    5
 10
1794.2133119447603
 20
564.11144607392237
 11
1794.2133119447603
 21
582.0587317881392
  0
LINE
  8
_0-0_90_FRAME
  6
CONTINUOUS
 62
    5
 10
1854.0375976588064
 20
564.11144607392237
 11
1854.0375976588064
 21
582.0587317881392
  0
LINE
  8
_0-0_90_FRAME
  6
CONTINUOUS
 62
    5
 10
1913.8618833728449
 20
564.11144607392237
 11
1913.8618833728449
 21
582.0587317881392
  0
LINE
  8
_0-0_90_FRAME
  6
CONTINUOUS
 62
    5
 10
1973.6861690868909
 20
564.11144607392237
 11
1973.6861690868909
 21
582.0587317881392
  0
LINE
  8
_0-0_90_FRAME
  6
CONTINUOUS
 62
    5
 10
2093.3347405149752
 20
564.11144607392237
 11
2093.3347405149752
 21
582.0587317881392
  0
LINE
  8
_0-0_90_FRAME
  6
CONTINUOUS
 62
    5
 10
2153.1590262290215
 20
564.11144607392237
 11
2153.1590262290215
 21
582.0587317881392
  0
LINE
  8
_0-0_90_FRAME
  6
CONTINUOUS
 62
    5
 10
2212.9833119430677
 20
564.11144607392237
 11
2212.9833119430677
 21
582.0587317881392
  0
LINE
  8
_0-0_90_FRAME
  6
CONTINUOUS
 62
    5
 10
2272.8075976571135
 20
564.11144607392237
 11
2272.8075976571135
 21
582.0587317881392
  0
LINE
  8
_0-0_90_FRAME
  6
CONTINUOUS
 62
    5
 10
2332.6318833711598
 20
564.11144607392237
 11
2332.6318833711598
 21
582.0587317881392
  0
LINE
  8
_0-0_90_FRAME
  6
CONTINUOUS
 62
    4
 10
1431.1098098033679
 20
2247.2204133530017
 11
1431.1098098033679
 21
2286.1061990671215
  0
TEXT
  8
_0-0_90_FRAME
 62
    7
 10
979.51332661022332
 20
2254.9655034131715
 40
12
 41
1
 50
0
  1
1
  0
TEXT
  8
_0-0_90_FRAME
 62
    7
 10
1125.9094873045869
 20
2254.9655034131715
 40
12
 41
1
 50
0
  1
2
  0
TEXT
  8
_0-0_90_FRAME
 62
    7
 10
1326.7097023037766
 20
2254.9655034131715
 40
12
 41
1
 50
0
  1
3
  0
TEXT
  8
_0-0_90_FRAME
 62
    7
 10
1527.5099173029587
 20
2254.9655034131715
 40
12
 41
1
 50
0
  1
4
  0
TEXT
  8
_0-0_90_FRAME
 62
    7
 10
1728.310132302156
 20
2254.9655034131715
 40
12
 41
1
 50
0
  1
5
  0
TEXT
  8
_0-0_90_FRAME
 62
    7
 10
1929.1103473013382
 20
2254.9655034131715
 40
12
 41
1
 50
0
  1
6
  0
TEXT
  8
_0-0_90_FRAME
 62
    7
 10
2129.910562300528
 20
2254.9655034131715
 40
12
 41
1
 50
0
  1
7
  0
TEXT
  8
_0-0_90_FRAME
 62
    7
 10
2330.7107772997174
 20
2254.9655034131715
 40
12
 41
1
 50
0
  1
8
  0
TEXT
  8
_0-0_90_FRAME
 62
    7
 10
2531.5109922989077
 20
2254.9655034131715
 40
12
 41
1
 50
0
  1
9
  0
TEXT
  8
_0-0_90_FRAME
 62
    7
 10
2729.311207298098
 20
2254.9655034131715
 40
12
 41
1
 50
0
  1
10
  0
TEXT
  8
_0-0_90_FRAME
 62
    7
 10
2931.1114222972792
 20
2254.9655034131715
 40
12
 41
1
 50
0
  1
11
  0
TEXT
  8
_0-0_90_FRAME
 62
    7
 10
3129.9116372964695
 20
2254.9655034131715
 40
12
 41
1
 50
0
  1
12
  0
TEXT
  8
_0-0_90_FRAME
 62
    7
 10
3205.8302860892718
 20
1941.1187141309174
 40
12
 41
1
 50
0
  1
B
  0
LINE
  8
_0-0_90_FRAME
  6
CONTINUOUS
 62
   18
 10
868.9209119472755
 20
582.0587317881392
 11
1174.9209119445984
 21
582.0587317881392
  0
LINE
  8
_0-0_90_FRAME
  6
CONTINUOUS
 62
   18
 10
1174.9209119445984
 20
582.0587317881392
 11
1174.9209119445984
 21
666.91587464493682
  0
LINE
  8
_0-0_90_FRAME
  6
CONTINUOUS
 62
   18
 10
1174.9209119445984
 20
666.91587464493682
 11
868.9209119472755
 21
666.91587464493682
  0
LINE
  8
_0-0_90_FRAME
  6
CONTINUOUS
 62
   18
 10
868.9209119472755
 20
666.91587464493682
 11
868.9209119472755
 21
582.0587317881392
  0
LINE
  8
_0-0_90_FRAME
  6
CONTINUOUS
 62
   18
 10
1132.9209119445984
 20
582.0587317881392
 11
1132.9209119445984
 21
666.91587464493682
  0
LINE
  8
_0-0_90_FRAME
  6
CONTINUOUS
 62
   18
 10
910.92091194459829
 20
582.0587317881392
 11
910.92091194459829
 21
666.91587464493682
  0
LINE
  8
_0-0_90_FRAME
  6
CONTINUOUS
 62
   18
 10
958.92091194459817
 20
582.0587317881392
 11
958.92091194459817
 21
666.91587464493682
  0
LINE
  8
_0-0_90_FRAME
  6
CONTINUOUS
 62
   18
 10
868.9209119472755
 20
645.70158893074142
 11
1174.9209119445984
 21
645.70158893074142
  0
LINE
  8
_0-0_90_FRAME
  6
CONTINUOUS
 62
   18
 10
868.9209119472755
 20
624.48730321653522
 11
1174.9209119445984
 21
624.48730321653522
  0
LINE
  8
_0-0_90_FRAME
  6
CONTINUOUS
 62
   18
 10
868.9209119472755
 20
603.27301750233994
 11
1174.9209119445984
 21
603.27301750234005
  0
TEXT
  8
_0-0_90_FRAME
 62
    7
 10
879.44818467320954
 20
652.70873178783916
 40
7.1999999999999993
 41
1
 50
0
  1
記号
  0
TEXT
  8
_0-0_90_FRAME
 62
    7
 10
923.41775583687274
 20
652.70873178783916
 40
7.1999999999999993
 41
1
 50
0
  1
日付
  0
TEXT
  8
_0-0_90_FRAME
 62
    7
 10
1138.2118210355072
 20
652.70873178783916
 40
7.1999999999999993
 41
1
 50
0
  1
作成者
  0
TEXT
  8
_0-0_90_FRAME
 62
    7
 10
1021.9754573991437
 20
652.58600451511188
 40
7.1999999999999993
 41
1
 50
0
  1
改訂内容
  0
LINE
  8
_0-0_90_FRAME
  6
CONTINUOUS
 62
   18
 10
880.37448337454362
 20
605.52619144189805
 11
889.92091194593695
 21
622.06109075836969
  0
LINE
  8
_0-0_90_FRAME
  6
CONTINUOUS
 62
   18
 10
889.92091194593695
 20
622.06109075836969
 11
899.46734051732483
 21
605.52619144189805
  0
LINE
  8
_0-0_90_FRAME
  6
CONTINUOUS
 62
   18
 10
899.46734051732483
 20
605.52619144189805
 11
880.37448337454362
 21
605.52619144189805
  0
TEXT
  8
_0-0_90_FRAME
 62
    7
 10
887.85332673927371
 20
629.82318066394294
 40
6.3642857142600002
 41
1
 50
0
  1
1
  0
TEXT
  8
_0-0_90_FRAME
 62
    7
 10
887.85332673927371
 20
608.60889494974219
 40
6.3642857142600002
 41
1
 50
0
  1
2
  0
TEXT
  8
_0-0_90_FRAME
 62
    7
 10
887.85332673927371
 20
587.39460923554145
 40
6.3642857142600002
 41
1
 50
0
  1
3
  0
LINE
  8
_0-0_90_FRAME
  6
CONTINUOUS
 62
   18
 10
880.37448337454362
 20
626.74047715609879
 11
889.92091194593695
 21
643.27537647257589
  0
LINE
  8
_0-0_90_FRAME
  6
CONTINUOUS
 62
   18
 10
889.92091194593695
 20
643.27537647257589
 11
899.46734051732483
 21
626.74047715609879
  0
LINE
  8
_0-0_90_FRAME
  6
CONTINUOUS
 62
   18
 10
899.46734051732483
 20
626.74047715609879
 11
880.37448337454362
 21
626.74047715609879
  0
LINE
  8
_0-0_90_FRAME
  6
CONTINUOUS
 62
   18
 10
880.37448337454362
 20
584.31190572769742
 11
889.92091194593695
 21
600.8468050441744
  0
LINE
  8
_0-0_90_FRAME
  6
CONTINUOUS
 62
   18
 10
889.92091194593695
 20
600.8468050441744
 11
899.46734051732483
 21
584.31190572769742
  0
LINE
  8
_0-0_90_FRAME
  6
CONTINUOUS
 62
   18
 10
899.46734051732483
 20
584.31190572769742
 11
880.37448337454362
 21
584.31190572769742
  0
LINE
  8
_0-0_90_FRAME
  6
CONTINUOUS
 62
    4
 10
3236.9857833687256
 20
988.65625932229307
 11
3198.0999976545977
 21
988.65625932229307
  0
LINE
  8
_0-0_90_FRAME
  6
CONTINUOUS
 62
    4
 10
3236.9857833687256
 20
1201.6479159464318
 11
3198.0999976545977
 21
1201.6479159464318
  0
LINE
  8
_0-0_90_FRAME
  6
CONTINUOUS
 62
    4
 10
3236.9857833687256
 20
775.66460269815445
 11
3198.0999976545977
 21
775.66460269815445
  0
LINE
  8
_0-0_90_FRAME
  6
CONTINUOUS
 62
    4
 10
3236.9857833687256
 20
1840.6228858188483
 11
3198.0999976545977
 21
1840.6228858188483
  0
LINE
  8
_0-0_90_FRAME
  6
CONTINUOUS
 62
    4
 10
3236.9857833687256
 20
1627.6312291947097
 11
3198.0999976545977
 21
1627.6312291947097
  0
LINE
  8
_0-0_90_FRAME
  6
CONTINUOUS
 62
    4
 10
3236.9857833687256
 20
2053.6145424429874
 11
3198.0999976545977
 21
2053.6145424429874
  0
TEXT
  8
_0-0_90_FRAME
 62
    7
 10
3205.8302860892718
 20
2154.1103707550565
 40
12
 41
1
 50
0
  1
A
  0
TEXT
  8
_0-0_90_FRAME
 62
    7
 10
3205.8302860892718
 20
1728.1270575067788
 40
12
 41
1
 50
0
  1
C
  0
TEXT
  8
_0-0_90_FRAME
 62
    7
 10
3205.8302860892718
 20
1515.1354008826404
 40
12
 41
1
 50
0
  1
D
  0
TEXT
  8
_0-0_90_FRAME
 62
    7
 10
3205.8302860892718
 20
1089.1520876343625
 40
12
 41
1
 50
0
  1
F
  0
TEXT
  8
_0-0_90_FRAME
 62
    7
 10
3205.8302860892718
 20
876.16043101022365
 40
12
 41
1
 50
0
  1
G
  0
TEXT
  8
_0-0_90_FRAME
 62
    7
 10
3205.8302860892718
 20
663.16877438608492
 40
12
 41
1
 50
0
  1
H
  0
TEXT
  8
_0-0_90_FRAME
 62
    7
 10
3205.8302860892718
 20
1302.1437442585013
 40
12
 41
1
 50
0
  1
E
  0
TEXT
  8
_0-0_90_FRAME
 62
    7
 10
851.25522676538344
 20
1941.1187141309174
 40
12
 41
1
 50
0
  1
B
  0
LINE
  8
_0-0_90_FRAME
  6
CONTINUOUS
 62
    4
 10
868.9209119472755
 20
988.65625932229307
 11
830.03512623315555
 21
988.65625932229307
  0
LINE
  8
_0-0_90_FRAME
  6
CONTINUOUS
 62
    4
 10
868.9209119472755
 20
1201.6479159464318
 11
830.03512623315555
 21
1201.6479159464318
  0
LINE
  8
_0-0_90_FRAME
  6
CONTINUOUS
 62
    4
 10
868.9209119472755
 20
775.66460269815445
 11
830.03512623315555
 21
775.66460269815445
  0
LINE
  8
_0-0_90_FRAME
  6
CONTINUOUS
 62
    4
 10
868.9209119472755
 20
1840.6228858188483
 11
830.03512623315555
 21
1840.6228858188483
  0
LINE
  8
_0-0_90_FRAME
  6
CONTINUOUS
 62
    4
 10
868.9209119472755
 20
1627.6312291947097
 11
830.03512623315555
 21
1627.6312291947097
  0
LINE
  8
_0-0_90_FRAME
  6
CONTINUOUS
 62
    4
 10
868.9209119472755
 20
2053.6145424429874
 11
830.03512623315555
 21
2053.6145424429874
  0
TEXT
  8
_0-0_90_FRAME
 62
    7
 10
851.25522676538344
 20
2154.1103707550565
 40
12
 41
1
 50
0
  1
A
  0
TEXT
  8
_0-0_90_FRAME
 62
    7
 10
851.25522676538344
 20
1728.1270575067788
 40
12
 41
1
 50
0
  1
C
  0
TEXT
  8
_0-0_90_FRAME
 62
    7
 10
851.25522676538344
 20
1515.1354008826404
 40
12
 41
1
 50
0
  1
D
  0
TEXT
  8
_0-0_90_FRAME
 62
    7
 10
851.25522676538344
 20
1089.1520876343625
 40
12
 41
1
 50
0
  1
F
  0
TEXT
  8
_0-0_90_FRAME
 62
    7
 10
851.25522676538344
 20
876.16043101022365
 40
12
 41
1
 50
0
  1
G
  0
TEXT
  8
_0-0_90_FRAME
 62
    7
 10
851.25522676538344
 20
1302.1437442585013
 40
12
 41
1
 50
0
  1
E
  0
TEXT
  8
_0-0_90_FRAME
 62
    7
 10
851.25522676538344
 20
663.16877438608492
 40
12
 41
1
 50
0
  1
H
  0
LINE
  8
_0-0_90_FRAME
  6
CONTINUOUS
 62
    4
 10
1230.3095948041778
 20
2247.2204133530017
 11
1230.3095948041778
 21
2286.1061990671215
  0
LINE
  8
_0-0_90_FRAME
  6
CONTINUOUS
 62
    4
 10
1029.5093798049882
 20
2247.2204133530017
 11
1029.5093798049882
 21
2286.1061990671215
  0
LINE
  8
_0-0_90_FRAME
  6
CONTINUOUS
 62
    4
 10
1631.9100248025572
 20
2247.2204133530017
 11
1631.9100248025572
 21
2286.1061990671215
  0
LINE
  8
_0-0_90_FRAME
  6
CONTINUOUS
 62
    4
 10
1832.7102398017471
 20
2247.2204133530017
 11
1832.7102398017471
 21
2286.1061990671215
  0
LINE
  8
_0-0_90_FRAME
  6
CONTINUOUS
 62
    4
 10
2635.9110997984985
 20
2247.2204133530017
 11
2635.9110997984985
 21
2286.1061990671215
  0
LINE
  8
_0-0_90_FRAME
  6
CONTINUOUS
 62
    4
 10
2836.7113147976888
 20
2247.2204133530017
 11
2836.7113147976888
 21
2286.1061990671215
  0
LINE
  8
_0-0_90_FRAME
  6
CONTINUOUS
 62
    4
 10
3037.5115297968782
 20
2247.2204133530017
 11
3037.5115297968782
 21
2286.1061990671215
  0
LINE
  8
_0-0_90_FRAME
  6
CONTINUOUS
 62
    4
 10
2435.1108847993087
 20
2247.2204133530017
 11
2435.1108847993087
 21
2286.1061990671215
  0
LINE
  8
_0-0_90_FRAME
  6
CONTINUOUS
 62
    4
 10
2234.3106698001266
 20
2247.2204133530017
 11
2234.3106698001266
 21
2286.1061990671215
  0
LINE
  8
_0-0_90_FRAME
  6
CONTINUOUS
 62
    4
 10
1431.1098098033679
 20
543.34679906712677
 11
1431.1098098033679
 21
582.0587317881392
  0
LINE
  8
_0-0_90_FRAME
  6
CONTINUOUS
 62
    4
 10
1230.3095948041778
 20
543.34679906712677
 11
1230.3095948041778
 21
582.0587317881392
  0
LINE
  8
_0-0_90_FRAME
  6
CONTINUOUS
 62
    4
 10
1029.5093798049882
 20
543.34679906712677
 11
1029.5093798049882
 21
582.0587317881392
  0
LINE
  8
_0-0_90_FRAME
  6
CONTINUOUS
 62
    4
 10
1631.9100248025572
 20
543.34679906712677
 11
1631.9100248025572
 21
582.0587317881392
  0
LINE
  8
_0-0_90_FRAME
  6
CONTINUOUS
 62
    4
 10
2635.9110997984985
 20
543.34679906712677
 11
2635.9110997984985
 21
582.0587317881392
  0
LINE
  8
_0-0_90_FRAME
  6
CONTINUOUS
 62
    4
 10
2836.7113147976888
 20
543.34679906712677
 11
2836.7113147976888
 21
582.0587317881392
  0
LINE
  8
_0-0_90_FRAME
  6
CONTINUOUS
 62
    4
 10
3037.5115297968782
 20
543.34679906712677
 11
3037.5115297968782
 21
582.0587317881392
  0
LINE
  8
_0-0_90_FRAME
  6
CONTINUOUS
 62
    4
 10
2435.1108847993087
 20
543.34679906712677
 11
2435.1108847993087
 21
582.0587317881392
  0
LINE
  8
_0-1_91_BLANK
  6
CONTINUOUS
 62
    5
 10
752.38320336658364
 20
543.34679906712677
 11
3236.9857833645983
 21
543.34679906712677
  0
LINE
  8
_0-1_91_BLANK
  6
CONTINUOUS
 62
    5
 10
3236.9857833645983
 20
543.34679906712677
 11
3236.9857833645983
 21
2292.1061990751527
  0
LINE
  8
_0-1_91_BLANK
  6
CONTINUOUS
 62
    5
 10
3236.9857833645983
 20
2292.1061990751527
 11
752.38320336658364
 21
2292.1061990751527
  0
LINE
  8
_0-1_91_BLANK
  6
CONTINUOUS
 62
    5
 10
752.38320336658364
 20
2292.1061990751527
 11
752.38320336658364
 21
543.34679906712677
  0
LINE
  8
_0-0_90_FRAME
  6
CONTINUOUS
 62
   18
 10
2604.0999976569969
 20
582.0587317881392
 11
3198.0999976545977
 21
582.0587317881392
  0
LINE
  8
_0-0_90_FRAME
  6
CONTINUOUS
 62
   18
 10
3198.0999976545977
 20
582.0587317881392
 11
3198.0999976545977
 21
692.37301750197935
  0
LINE
  8
_0-0_90_FRAME
  6
CONTINUOUS
 62
   18
 10
3198.0999976545977
 20
692.37301750197935
 11
2604.0999976569969
 21
692.37301750197935
  0
LINE
  8
_0-0_90_FRAME
  6
CONTINUOUS
 62
   18
 10
2604.0999976569969
 20
692.37301750197935
 11
2604.0999976569969
 21
582.0587317881392
  0
LINE
  8
_0-0_90_FRAME
  6
CONTINUOUS
 62
   18
 10
2650.8774976568106
 20
673.28016035919813
 11
2680.5774976566895
 21
680.70516035916921
  0
LINE
  8
_0-0_90_FRAME
  6
CONTINUOUS
 62
   18
 10
2680.5774976566895
 20
680.70516035916921
 11
2680.5774976566895
 21
651.00516035929024
  0
LINE
  8
_0-0_90_FRAME
  6
CONTINUOUS
 62
   18
 10
2680.5774976566895
 20
651.00516035929024
 11
2650.8774976568106
 21
658.43016035925871
  0
LINE
  8
_0-0_90_FRAME
  6
CONTINUOUS
 62
   18
 10
2650.8774976568106
 20
658.43016035925871
 11
2650.8774976568106
 21
673.28016035919813
  0
CIRCLE
  8
_0-0_90_FRAME
  6
CONTINUOUS
 62
   18
 10
2631.5724976568858
 20
665.85516035922694
 40
7.4249999999699998
  0
CIRCLE
  8
_0-0_90_FRAME
  6
CONTINUOUS
 62
   18
 10
2631.5724976568858
 20
665.85516035922694
 40
14.84999999994
  0
LINE
  8
_0-0_90_FRAME
  6
CONTINUOUS
 62
   18
 10
2613.7524976569575
 20
665.85516035922694
 11
2683.5474976566748
 21
665.85516035922694
  0
LINE
  8
_0-0_90_FRAME
  6
CONTINUOUS
 62
   18
 10
2631.5724976568858
 20
648.03516035930193
 11
2631.5724976568858
 21
683.67516035915764
  0
LINE
  8
_0-0_90_FRAME
  6
CONTINUOUS
 62
   18
 10
2847.4214262273972
 20
582.0587317881392
 11
2847.4214262273972
 21
692.37301750197935
  0
LINE
  8
_0-0_90_FRAME
  6
CONTINUOUS
 62
   18
 10
2847.4214262273972
 20
616.00158893085847
 11
3198.0999976545977
 21
616.00158893085847
  0
TEXT
  8
_0-0_90_FRAME
 62
    7
 10
2848.9425514996888
 20
605.44770819054258
 40
7.5000000000000009
 41
1
 50
0
  1
作 成 日
  0
LINE
  8
_0-0_90_FRAME
  6
CONTINUOUS
 62
   18
 10
3054.8285690837156
 20
616.00158893085847
 11
3054.8285690837156
 21
582.0587317881392
  0
TEXT
  8
_0-0_90_FRAME
 62
    7
 10
3056.6097343243664
 20
605.24028538609866
 40
7.5000000000000009
 41
1
 50
0
  1
個数
  0
TEXT
  8
_0-0_90_FRAME
 62
    7
 10
2777.2812679546068
 20
682.53971324342569
 40
7.5000000000000009
 41
1
 50
0
  1
サイズ
  0
TEXT
  8
_0-0_90_FRAME
 62
    7
 10
2694.5455536692289
 20
681.98035174620429
 40
7.5000000000000009
 41
1
 50
0
  1
尺　度
  0
TEXT
  8
_0-0_90_FRAME
 62
    7
 10
2777.2813136638642
 20
629.50399895792657
 40
7.5000000000000009
 41
1
 50
0
  1
製　図
  0
LINE
  8
_0-0_90_FRAME
  6
CONTINUOUS
 62
   18
 10
2847.4214262273972
 20
639.33730321647749
 11
2604.0999976569969
 21
639.33730321647749
  0
LINE
  8
_0-0_90_FRAME
  6
CONTINUOUS
 62
   18
 10
2960.7071279503516
 20
649.94444607357775
 11
3198.0999976545977
 21
649.94444607357775
  0
TEXT
  8
_0-0_90_FRAME
 62
    7
 10
2801.9323761913047
 20
652.06701677694809
 40
15.000000000000002
 41
1
 50
0
  1
A1
  0
LINE
  8
_0-0_90_FRAME
  6
CONTINUOUS
 62
   18
 10
2775.9357119420165
 20
582.0587317881392
 11
2775.9357119420165
 21
692.37301750197935
  0
TEXT
  8
_0-0_90_FRAME
 62
    2
 10
2656.5857872831784
 20
593.73219825411206
 40
15.000000000000002
 41
1
 50
0
  1
アクアトリム
  0
LINE
  8
_0-0_90_FRAME
  6
CONTINUOUS
 62
    4
 10
2651.9712126461809
 20
632.07214554823361
 11
2651.9712126461809
 21
587.69260988641111
  0
LINE
  8
_0-0_90_FRAME
  6
CONTINUOUS
 62
    4
 10
2651.9712126461809
 20
587.69260988641111
 11
2611.6261802263425
 21
587.69260988641111
  0
LINE
  8
_0-0_90_FRAME
  6
CONTINUOUS
 62
    4
 10
2611.6261802263425
 20
587.69260988641111
 11
2611.6261802263425
 21
632.07214554823361
  0
LINE
  8
_0-0_90_FRAME
  6
CONTINUOUS
 62
    4
 10
2611.8182994283425
 20
631.88002634623285
 11
2611.8182994283425
 21
631.88002634623285
  0
LINE
  8
_0-0_90_FRAME
  6
CONTINUOUS
 62
    4
 10
2611.8182994283425
 20
631.88002634623285
 11
2611.91753598885
 21
630.87919186657314
  0
LINE
  8
_0-0_90_FRAME
  6
CONTINUOUS
 62
    4
 10
2611.91753598885
 20
630.87919186657314
 11
2612.2122304176978
 21
629.90876723613121
  0
LINE
  8
_0-0_90_FRAME
  6
CONTINUOUS
 62
    4
 10
2612.2122304176978
 20
629.90876723613121
 11
2612.693428573788
 21
628.99823831624451
  0
LINE
  8
_0-0_90_FRAME
  6
CONTINUOUS
 62
    4
 10
2612.693428573788
 20
628.99823831624451
 11
2613.3465094946455
 21
628.17527106739385
  0
LINE
  8
_0-0_90_FRAME
  6
CONTINUOUS
 62
    4
 10
2613.3465094946455
 20
628.17527106739385
 11
2614.1516296469654
 21
627.46487093299413
  0
LINE
  8
_0-0_90_FRAME
  6
CONTINUOUS
 62
    4
 10
2614.1516296469654
 20
627.46487093299413
 11
2615.084325862329
 21
626.88862306164924
  0
LINE
  8
_0-0_90_FRAME
  6
CONTINUOUS
 62
    4
 10
2615.084325862329
 20
626.88862306164924
 11
2616.1162586382006
 21
626.46403645333442
  0
LINE
  8
_0-0_90_FRAME
  6
CONTINUOUS
 62
    4
 10
2616.1162586382006
 20
626.46403645333442
 11
2617.2160732193684
 21
626.20401195729221
  0
LINE
  8
_0-0_90_FRAME
  6
CONTINUOUS
 62
    4
 10
2617.2160732193684
 20
626.20401195729221
 11
2618.350352296316
 21
626.11645028625617
  0
LINE
  8
_0-0_90_FRAME
  6
CONTINUOUS
 62
    4
 10
2618.350352296316
 20
626.11645028625617
 11
2619.4846313732637
 21
626.20401195729221
  0
LINE
  8
_0-0_90_FRAME
  6
CONTINUOUS
 62
    4
 10
2619.4846313732637
 20
626.20401195729221
 11
2620.5844459544314
 21
626.46403645333442
  0
LINE
  8
_0-0_90_FRAME
  6
CONTINUOUS
 62
    4
 10
2620.5844459544314
 20
626.46403645333442
 11
2621.616378730303
 21
626.88862306164924
  0
LINE
  8
_0-0_90_FRAME
  6
CONTINUOUS
 62
    4
 10
2621.616378730303
 20
626.88862306164924
 11
2622.5490749456667
 21
627.46487093299413
  0
LINE
  8
_0-0_90_FRAME
  6
CONTINUOUS
 62
    4
 10
2622.5490749456667
 20
627.46487093299413
 11
2623.3541950979866
 21
628.17527106739385
  0
LINE
  8
_0-0_90_FRAME
  6
CONTINUOUS
 62
    4
 10
2623.3541950979866
 20
628.17527106739385
 11
2624.0072760188441
 21
628.99823831624451
  0
LINE
  8
_0-0_90_FRAME
  6
CONTINUOUS
 62
    4
 10
2624.0072760188441
 20
628.99823831624451
 11
2624.4884741749343
 21
629.90876723613121
  0
LINE
  8
_0-0_90_FRAME
  6
CONTINUOUS
 62
    4
 10
2624.4884741749343
 20
629.90876723613121
 11
2624.7831686037821
 21
630.87919186657314
  0
LINE
  8
_0-0_90_FRAME
  6
CONTINUOUS
 62
    4
 10
2624.7831686037821
 20
630.87919186657314
 11
2624.8824051642896
 21
631.88002634623285
  0
LINE
  8
_0-0_90_FRAME
  6
CONTINUOUS
 62
    4
 10
2624.8824051642896
 20
631.88002634623285
 11
2624.8824051642896
 21
631.88002634623285
  0
ARC
  8
_0-0_90_FRAME
  6
CONTINUOUS
 62
    4
 10
2625.0745243662891
 20
631.88002634623285
 40
0.1921192019992239
 50
0
 51
180
  0
LINE
  8
_0-0_90_FRAME
  6
CONTINUOUS
 62
    4
 10
2625.2666435682881
 20
631.88002634623285
 11
2625.2666435682881
 21
631.88002634623285
  0
LINE
  8
_0-0_90_FRAME
  6
CONTINUOUS
 62
    4
 10
2625.2666435682881
 20
631.88002634623285
 11
2625.3658801287957
 21
630.87919186657314
  0
LINE
  8
_0-0_90_FRAME
  6
CONTINUOUS
 62
    4
 10
2625.3658801287957
 20
630.87919186657314
 11
2625.6605745576435
 21
629.90876723613121
  0
LINE
  8
_0-0_90_FRAME
  6
CONTINUOUS
 62
    4
 10
2625.6605745576435
 20
629.90876723613121
 11
2626.1417727137336
 21
628.99823831624451
  0
LINE
  8
_0-0_90_FRAME
  6
CONTINUOUS
 62
    4
 10
2626.1417727137336
 20
628.99823831624451
 11
2626.7948536345912
 21
628.17527106739385
  0
LINE
  8
_0-0_90_FRAME
  6
CONTINUOUS
 62
    4
 10
2626.7948536345912
 20
628.17527106739385
 11
2627.5999737869111
 21
627.46487093299413
  0
LINE
  8
_0-0_90_FRAME
  6
CONTINUOUS
 62
    4
 10
2627.5999737869111
 20
627.46487093299413
 11
2628.5326700022747
 21
626.88862306164924
  0
LINE
  8
_0-0_90_FRAME
  6
CONTINUOUS
 62
    4
 10
2628.5326700022747
 20
626.88862306164924
 11
2629.5646027781463
 21
626.46403645333442
  0
LINE
  8
_0-0_90_FRAME
  6
CONTINUOUS
 62
    4
 10
2629.5646027781463
 20
626.46403645333442
 11
2630.664417359314
 21
626.20401195729221
  0
LINE
  8
_0-0_90_FRAME
  6
CONTINUOUS
 62
    4
 10
2630.664417359314
 20
626.20401195729221
 11
2631.7986964362617
 21
626.11645028625617
  0
LINE
  8
_0-0_90_FRAME
  6
CONTINUOUS
 62
    4
 10
2631.7986964362617
 20
626.11645028625617
 11
2632.9329755132094
 21
626.20401195729221
  0
LINE
  8
_0-0_90_FRAME
  6
CONTINUOUS
 62
    4
 10
2632.9329755132094
 20
626.20401195729221
 11
2634.0327900943771
 21
626.46403645333442
  0
LINE
  8
_0-0_90_FRAME
  6
CONTINUOUS
 62
    4
 10
2634.0327900943771
 20
626.46403645333442
 11
2635.0647228702487
 21
626.88862306164924
  0
LINE
  8
_0-0_90_FRAME
  6
CONTINUOUS
 62
    4
 10
2635.0647228702487
 20
626.88862306164924
 11
2635.9974190856124
 21
627.46487093299413
  0
LINE
  8
_0-0_90_FRAME
  6
CONTINUOUS
 62
    4
 10
2635.9974190856124
 20
627.46487093299413
 11
2636.8025392379323
 21
628.17527106739385
  0
LINE
  8
_0-0_90_FRAME
  6
CONTINUOUS
 62
    4
 10
2636.8025392379323
 20
628.17527106739385
 11
2637.4556201587898
 21
628.99823831624451
  0
LINE
  8
_0-0_90_FRAME
  6
CONTINUOUS
 62
    4
 10
2637.4556201587898
 20
628.99823831624451
 11
2637.9368183148799
 21
629.90876723613121
  0
LINE
  8
_0-0_90_FRAME
  6
CONTINUOUS
 62
    4
 10
2637.9368183148799
 20
629.90876723613121
 11
2638.2315127437278
 21
630.87919186657314
  0
LINE
  8
_0-0_90_FRAME
  6
CONTINUOUS
 62
    4
 10
2638.2315127437278
 20
630.87919186657314
 11
2638.3307493042353
 21
631.88002634623285
  0
LINE
  8
_0-0_90_FRAME
  6
CONTINUOUS
 62
    4
 10
2638.3307493042353
 20
631.88002634623285
 11
2638.3307493042353
 21
631.88002634623285
  0
ARC
  8
_0-0_90_FRAME
  6
CONTINUOUS
 62
    4
 10
2638.5228685062352
 20
631.88002634623285
 40
0.1921192019992239
 50
0
 51
180
  0
LINE
  8
_0-0_90_FRAME
  6
CONTINUOUS
 62
    4
 10
2638.7149877082343
 20
631.88002634623285
 11
2638.7149877082343
 21
631.88002634623285
  0
LINE
  8
_0-0_90_FRAME
  6
CONTINUOUS
 62
    4
 10
2638.7149877082343
 20
631.88002634623285
 11
2638.8142242687418
 21
630.87919186657314
  0
LINE
  8
_0-0_90_FRAME
  6
CONTINUOUS
 62
    4
 10
2638.8142242687418
 20
630.87919186657314
 11
2639.1089186975896
 21
629.90876723613121
  0
LINE
  8
_0-0_90_FRAME
  6
CONTINUOUS
 62
    4
 10
2639.1089186975896
 20
629.90876723613121
 11
2639.5901168536798
 21
628.99823831624451
  0
LINE
  8
_0-0_90_FRAME
  6
CONTINUOUS
 62
    4
 10
2639.5901168536798
 20
628.99823831624451
 11
2640.2431977745373
 21
628.17527106739385
  0
LINE
  8
_0-0_90_FRAME
  6
CONTINUOUS
 62
    4
 10
2640.2431977745373
 20
628.17527106739385
 11
2641.0483179268572
 21
627.46487093299413
  0
LINE
  8
_0-0_90_FRAME
  6
CONTINUOUS
 62
    4
 10
2641.0483179268572
 20
627.46487093299413
 11
2641.9810141422208
 21
626.88862306164924
  0
LINE
  8
_0-0_90_FRAME
  6
CONTINUOUS
 62
    4
 10
2641.9810141422208
 20
626.88862306164924
 11
2643.0129469180924
 21
626.46403645333442
  0
LINE
  8
_0-0_90_FRAME
  6
CONTINUOUS
 62
    4
 10
2643.0129469180924
 20
626.46403645333442
 11
2644.1127614992602
 21
626.20401195729221
  0
LINE
  8
_0-0_90_FRAME
  6
CONTINUOUS
 62
    4
 10
2644.1127614992602
 20
626.20401195729221
 11
2645.2470405762078
 21
626.11645028625617
  0
LINE
  8
_0-0_90_FRAME
  6
CONTINUOUS
 62
    4
 10
2645.2470405762078
 20
626.11645028625617
 11
2646.3813196531555
 21
626.20401195729221
  0
LINE
  8
_0-0_90_FRAME
  6
CONTINUOUS
 62
    4
 10
2646.3813196531555
 20
626.20401195729221
 11
2647.4811342343232
 21
626.46403645333442
  0
LINE
  8
_0-0_90_FRAME
  6
CONTINUOUS
 62
    4
 10
2647.4811342343232
 20
626.46403645333442
 11
2648.5130670101948
 21
626.88862306164924
  0
LINE
  8
_0-0_90_FRAME
  6
CONTINUOUS
 62
    4
 10
2648.5130670101948
 20
626.88862306164924
 11
2649.4457632255585
 21
627.46487093299413
  0
LINE
  8
_0-0_90_FRAME
  6
CONTINUOUS
 62
    4
 10
2649.4457632255585
 20
627.46487093299413
 11
2650.2508833778784
 21
628.17527106739385
  0
LINE
  8
_0-0_90_FRAME
  6
CONTINUOUS
 62
    4
 10
2650.2508833778784
 20
628.17527106739385
 11
2650.9039642987359
 21
628.99823831624451
  0
LINE
  8
_0-0_90_FRAME
  6
CONTINUOUS
 62
    4
 10
2650.9039642987359
 20
628.99823831624451
 11
2651.3851624548261
 21
629.90876723613121
  0
LINE
  8
_0-0_90_FRAME
  6
CONTINUOUS
 62
    4
 10
2651.3851624548261
 20
629.90876723613121
 11
2651.6798568836739
 21
630.87919186657314
  0
LINE
  8
_0-0_90_FRAME
  6
CONTINUOUS
 62
    4
 10
2651.6798568836739
 20
630.87919186657314
 11
2651.7790934441814
 21
631.88002634623285
  0
LINE
  8
_0-0_90_FRAME
  6
CONTINUOUS
 62
    4
 10
2651.7790934441814
 20
631.88002634623285
 11
2651.7790934441814
 21
631.88002634623285
  0
ARC
  8
_0-0_90_FRAME
  6
CONTINUOUS
 62
    4
 10
2651.9712126461809
 20
631.88002634623285
 40
0.1921192019992239
 50
90
 51
180
  0
ARC
  8
_0-0_90_FRAME
  6
CONTINUOUS
 62
    4
 10
2625.0745243662891
 20
631.88002634623285
 40
0.1921192019992239
 50
0
 51
90
  0
ARC
  8
_0-0_90_FRAME
  6
CONTINUOUS
 62
    4
 10
2611.6261802263425
 20
631.88002634623285
 40
0.1921192019992239
 50
0
 51
90
  0
LINE
  8
_0-0_90_FRAME
  6
CONTINUOUS
 62
    4
 10
2616.2370410743256
 20
593.45618594638813
 11
2618.5424714983137
 21
593.45618594638813
  0
LINE
  8
_0-0_90_FRAME
  6
CONTINUOUS
 62
    4
 10
2618.5424714983137
 20
593.45618594638813
 11
2618.5424714983137
 21
591.15075552239807
  0
LINE
  8
_0-0_90_FRAME
  6
CONTINUOUS
 62
    4
 10
2618.5424714983137
 20
591.15075552239807
 11
2616.2370410743256
 21
591.15075552239807
  0
LINE
  8
_0-0_90_FRAME
  6
CONTINUOUS
 62
    4
 10
2616.2370410743256
 20
593.45618594638813
 11
2616.2370410743256
 21
591.15075552239807
  0
LINE
  8
_0-0_90_FRAME
  6
CONTINUOUS
 62
    4
 10
2647.3603517981987
 20
593.45618594638813
 11
2645.0549213742102
 21
593.45618594638813
  0
LINE
  8
_0-0_90_FRAME
  6
CONTINUOUS
 62
    4
 10
2645.0549213742102
 20
593.45618594638813
 11
2645.0549213742102
 21
591.15075552239807
  0
LINE
  8
_0-0_90_FRAME
  6
CONTINUOUS
 62
    4
 10
2645.0549213742102
 20
591.15075552239807
 11
2647.3603517981987
 21
591.15075552239807
  0
LINE
  8
_0-0_90_FRAME
  6
CONTINUOUS
 62
    4
 10
2647.3603517981987
 20
593.45618594638813
 11
2647.3603517981987
 21
591.15075552239807
  0
LINE
  8
_0-0_90_FRAME
  6
CONTINUOUS
 62
    4
 10
2622.0006171343025
 20
593.45618594638813
 11
2624.3060475582906
 21
593.45618594638813
  0
LINE
  8
_0-0_90_FRAME
  6
CONTINUOUS
 62
    4
 10
2624.3060475582906
 20
593.45618594638813
 11
2624.3060475582906
 21
591.15075552239807
  0
LINE
  8
_0-0_90_FRAME
  6
CONTINUOUS
 62
    4
 10
2624.3060475582906
 20
591.15075552239807
 11
2622.0006171343025
 21
591.15075552239807
  0
LINE
  8
_0-0_90_FRAME
  6
CONTINUOUS
 62
    4
 10
2622.0006171343025
 20
593.45618594638813
 11
2622.0006171343025
 21
591.15075552239807
  0
LINE
  8
_0-0_90_FRAME
  6
CONTINUOUS
 62
    4
 10
2627.7641931942794
 20
593.45618594638813
 11
2630.0696236182675
 21
593.45618594638813
  0
LINE
  8
_0-0_90_FRAME
  6
CONTINUOUS
 62
    4
 10
2630.0696236182675
 20
593.45618594638813
 11
2630.0696236182675
 21
591.15075552239807
  0
LINE
  8
_0-0_90_FRAME
  6
CONTINUOUS
 62
    4
 10
2630.0696236182675
 20
591.15075552239807
 11
2627.7641931942794
 21
591.15075552239807
  0
LINE
  8
_0-0_90_FRAME
  6
CONTINUOUS
 62
    4
 10
2627.7641931942794
 20
593.45618594638813
 11
2627.7641931942794
 21
591.15075552239807
  0
LINE
  8
_0-0_90_FRAME
  6
CONTINUOUS
 62
    4
 10
2633.5277692542563
 20
593.45618594638813
 11
2635.8331996782445
 21
593.45618594638813
  0
LINE
  8
_0-0_90_FRAME
  6
CONTINUOUS
 62
    4
 10
2635.8331996782445
 20
593.45618594638813
 11
2635.8331996782445
 21
591.15075552239807
  0
LINE
  8
_0-0_90_FRAME
  6
CONTINUOUS
 62
    4
 10
2635.8331996782445
 20
591.15075552239807
 11
2633.5277692542563
 21
591.15075552239807
  0
LINE
  8
_0-0_90_FRAME
  6
CONTINUOUS
 62
    4
 10
2633.5277692542563
 20
593.45618594638813
 11
2633.5277692542563
 21
591.15075552239807
  0
LINE
  8
_0-0_90_FRAME
  6
CONTINUOUS
 62
    4
 10
2639.2913453142332
 20
593.45618594638813
 11
2641.5967757382218
 21
593.45618594638813
  0
LINE
  8
_0-0_90_FRAME
  6
CONTINUOUS
 62
    4
 10
2641.5967757382218
 20
593.45618594638813
 11
2641.5967757382218
 21
591.15075552239807
  0
LINE
  8
_0-0_90_FRAME
  6
CONTINUOUS
 62
    4
 10
2641.5967757382218
 20
591.15075552239807
 11
2639.2913453142332
 21
591.15075552239807
  0
LINE
  8
_0-0_90_FRAME
  6
CONTINUOUS
 62
    4
 10
2639.2913453142332
 20
593.45618594638813
 11
2639.2913453142332
 21
591.15075552239807
  0
LINE
  8
_0-0_90_FRAME
  6
CONTINUOUS
 62
    4
 10
2631.7748244856566
 20
615.39346664213031
 11
2631.7748244856566
 21
615.39346664213031
  0
LINE
  8
_0-0_90_FRAME
  6
CONTINUOUS
 62
    4
 10
2631.7748244856566
 20
615.39346664213031
 11
2631.7076938711957
 21
616.1274119272141
  0
LINE
  8
_0-0_90_FRAME
  6
CONTINUOUS
 62
    4
 10
2631.7076938711957
 20
616.1274119272141
 11
2631.5083417575634
 21
616.83905665620489
  0
LINE
  8
_0-0_90_FRAME
  6
CONTINUOUS
 62
    4
 10
2631.5083417575634
 20
616.83905665620489
 11
2631.1828253578551
 21
617.50677786412177
  0
LINE
  8
_0-0_90_FRAME
  6
CONTINUOUS
 62
    4
 10
2631.1828253578551
 20
617.50677786412177
 11
2630.7410353231576
 21
618.11028717994554
  0
LINE
  8
_0-0_90_FRAME
  6
CONTINUOUS
 62
    4
 10
2630.7410353231576
 20
618.11028717994554
 11
2630.1963952201177
 21
618.63124727850538
  0
LINE
  8
_0-0_90_FRAME
  6
CONTINUOUS
 62
    4
 10
2630.1963952201177
 20
618.63124727850538
 11
2629.5654536626653
 21
619.05382905082502
  0
LINE
  8
_0-0_90_FRAME
  6
CONTINUOUS
 62
    4
 10
2629.5654536626653
 20
619.05382905082502
 11
2628.8673814907525
 21
619.36519256358918
  0
LINE
  8
_0-0_90_FRAME
  6
CONTINUOUS
 62
    4
 10
2628.8673814907525
 20
619.36519256358918
 11
2628.1233892740802
 21
619.55587719402013
  0
LINE
  8
_0-0_90_FRAME
  6
CONTINUOUS
 62
    4
 10
2628.1233892740802
 20
619.55587719402013
 11
2627.3560828396744
 21
619.62008908611324
  0
LINE
  8
_0-0_90_FRAME
  6
CONTINUOUS
 62
    4
 10
2627.3560828396744
 20
619.62008908611324
 11
2626.5887764052686
 21
619.55587719402013
  0
LINE
  8
_0-0_90_FRAME
  6
CONTINUOUS
 62
    4
 10
2626.5887764052686
 20
619.55587719402013
 11
2625.8447841885963
 21
619.36519256358918
  0
LINE
  8
_0-0_90_FRAME
  6
CONTINUOUS
 62
    4
 10
2625.8447841885963
 20
619.36519256358918
 11
2625.1467120166835
 21
619.05382905082502
  0
LINE
  8
_0-0_90_FRAME
  6
CONTINUOUS
 62
    4
 10
2625.1467120166835
 20
619.05382905082502
 11
2624.5157704592311
 21
618.63124727850538
  0
LINE
  8
_0-0_90_FRAME
  6
CONTINUOUS
 62
    4
 10
2624.5157704592311
 20
618.63124727850538
 11
2623.9711303561912
 21
618.11028717994554
  0
LINE
  8
_0-0_90_FRAME
  6
CONTINUOUS
 62
    4
 10
2623.9711303561912
 20
618.11028717994554
 11
2623.5293403214937
 21
617.50677786412177
  0
LINE
  8
_0-0_90_FRAME
  6
CONTINUOUS
 62
    4
 10
2623.5293403214937
 20
617.50677786412177
 11
2623.2038239217854
 21
616.83905665620489
  0
LINE
  8
_0-0_90_FRAME
  6
CONTINUOUS
 62
    4
 10
2623.2038239217854
 20
616.83905665620489
 11
2623.0044718081531
 21
616.1274119272141
  0
LINE
  8
_0-0_90_FRAME
  6
CONTINUOUS
 62
    4
 10
2623.0044718081531
 20
616.1274119272141
 11
2622.9373411936922
 21
615.39346664213031
  0
LINE
  8
_0-0_90_FRAME
  6
CONTINUOUS
 62
    4
 10
2622.9373411936922
 20
615.39346664213031
 11
2622.9373411936922
 21
615.39346664213031
  0
LINE
  8
_0-0_90_FRAME
  6
CONTINUOUS
 62
    4
 10
2631.7748244856562
 20
615.39346664213031
 11
2631.7748244856562
 21
614.24075143013454
  0
LINE
  8
_0-0_90_FRAME
  6
CONTINUOUS
 62
    4
 10
2629.690043066681
 20
610.651830445526
 11
2629.690043066681
 21
610.651830445526
  0
LINE
  8
_0-0_90_FRAME
  6
CONTINUOUS
 62
    4
 10
2629.690043066681
 20
610.651830445526
 11
2629.0030476691045
 21
610.31868749416685
  0
LINE
  8
_0-0_90_FRAME
  6
CONTINUOUS
 62
    4
 10
2629.0030476691045
 20
610.31868749416685
 11
2628.2660100785902
 21
610.10471447084205
  0
LINE
  8
_0-0_90_FRAME
  6
CONTINUOUS
 62
    4
 10
2628.2660100785902
 20
610.10471447084205
 11
2627.5013248093665
 21
610.01641283758966
  0
LINE
  8
_0-0_90_FRAME
  6
CONTINUOUS
 62
    4
 10
2627.5013248093665
 20
610.01641283758966
 11
2626.7322264363897
 21
610.05646559485319
  0
LINE
  8
_0-0_90_FRAME
  6
CONTINUOUS
 62
    4
 10
2626.7322264363897
 20
610.05646559485319
 11
2625.9820836245408
 21
610.22365575987101
  0
LINE
  8
_0-0_90_FRAME
  6
CONTINUOUS
 62
    4
 10
2625.9820836245408
 20
610.22365575987101
 11
2625.2736890835658
 21
610.51290334408134
  0
LINE
  8
_0-0_90_FRAME
  6
CONTINUOUS
 62
    4
 10
2625.2736890835658
 20
610.51290334408134
 11
2624.6285670231287
 21
610.91541970600417
  0
LINE
  8
_0-0_90_FRAME
  6
CONTINUOUS
 62
    4
 10
2624.6285670231287
 20
610.91541970600417
 11
2624.0663191505873
 21
611.41897458966571
  0
LINE
  8
_0-0_90_FRAME
  6
CONTINUOUS
 62
    4
 10
2624.0663191505873
 20
611.41897458966571
 11
2623.6040290830383
 21
612.00826773473682
  0
LINE
  8
_0-0_90_FRAME
  6
CONTINUOUS
 62
    4
 10
2623.6040290830383
 20
612.00826773473682
 11
2623.2557432702538
 21
612.66539376720141
  0
LINE
  8
_0-0_90_FRAME
  6
CONTINUOUS
 62
    4
 10
2623.2557432702538
 20
612.66539376720141
 11
2623.032044200414
 21
613.37038624508477
  0
LINE
  8
_0-0_90_FRAME
  6
CONTINUOUS
 62
    4
 10
2623.032044200414
 20
613.37038624508477
 11
2622.9397288565592
 21
614.10182432868987
  0
LINE
  8
_0-0_90_FRAME
  6
CONTINUOUS
 62
    4
 10
2622.9397288565592
 20
614.10182432868987
 11
2622.9373411936922
 21
614.24075143013454
  0
LINE
  8
_0-0_90_FRAME
  6
CONTINUOUS
 62
    4
 10
2630.1736726932927
 20
615.28042738641864
 11
2630.1736726932927
 21
614.35825521682239
  0
LINE
  8
_0-0_90_FRAME
  6
CONTINUOUS
 62
    4
 10
2640.7319219743049
 20
613.89320324335779
 11
2640.7319219743049
 21
619.62008908611392
  0
LINE
  8
_0-0_90_FRAME
  6
CONTINUOUS
 62
    4
 10
2639.0028491563107
 20
614.24075143013454
 11
2639.0028491563107
 21
619.62008908611392
  0
LINE
  8
_0-0_90_FRAME
  6
CONTINUOUS
 62
    4
 10
2639.0028491563107
 20
619.62008908611392
 11
2640.7319219743049
 21
619.62008908611392
  0
LINE
  8
_0-0_90_FRAME
  6
CONTINUOUS
 62
    4
 10
2632.6629154903367
 20
613.89320324335779
 11
2632.6629154903367
 21
619.62008908611392
  0
LINE
  8
_0-0_90_FRAME
  6
CONTINUOUS
 62
    4
 10
2634.3919883083313
 20
614.24075143013454
 11
2634.3919883083313
 21
619.62008908611392
  0
ARC
  8
_0-0_90_FRAME
  6
CONTINUOUS
 62
    4
 10
2636.724273444664
 20
614.06697733674832
 40
4.0650739069189497
 50
182.45003099226136
 51
265.55525728852427
  0
LINE
  8
_0-0_90_FRAME
  6
CONTINUOUS
 62
    4
 10
2634.3919883083313
 20
619.62008908611392
 11
2632.6629154903367
 21
619.62008908611392
  0
LINE
  8
_0-0_90_FRAME
  6
CONTINUOUS
 62
    4
 10
2636.9855975353198
 20
610.01412898615229
 11
2636.4092399293222
 21
610.01412898615229
  0
ARC
  8
_0-0_90_FRAME
  6
CONTINUOUS
 62
    4
 10
2637.8217023119373
 20
614.19602128416659
 40
3.4300056752869819
 50
179.25279388138676
 51
218.96457184688023
  0
ARC
  8
_0-0_90_FRAME
  6
CONTINUOUS
 62
    4
 10
2635.5731351527047
 20
614.19602128416659
 40
3.4300056752865951
 50
321.03542815311977
 51
0.747206118613265
  0
ARC
  8
_0-0_90_FRAME
  6
CONTINUOUS
 62
    4
 10
2636.6974187323226
 20
614.84029845206373
 40
3.1978969011000959
 50
241.15772780831895
 51
298.84227219168099
  0
LINE
  8
_0-0_90_FRAME
  6
CONTINUOUS
 62
    4
 10
2627.7284992774603
 20
612.56088224601729
 11
2628.5129651557058
 21
611.79740910536361
  0
LINE
  8
_0-0_90_FRAME
  6
CONTINUOUS
 62
    4
 10
2627.7284992774603
 20
612.56088224601729
 11
2628.5794831704211
 21
613.46450862389224
  0
LINE
  8
_0-0_90_FRAME
  6
CONTINUOUS
 62
    4
 10
2631.0257565721067
 20
609.35186136684229
 11
2632.1376511223325
 21
610.53253852573027
  0
LINE
  8
_0-0_90_FRAME
  6
CONTINUOUS
 62
    4
 10
2624.5384929860561
 20
615.28042738641864
 11
2624.5384929860561
 21
614.35825521682239
  0
LINE
  8
_0-0_90_FRAME
  6
CONTINUOUS
 62
    4
 10
2630.1736726932927
 20
615.28042738641864
 11
2630.1736726932927
 21
615.28042738641864
  0
LINE
  8
_0-0_90_FRAME
  6
CONTINUOUS
 62
    4
 10
2630.1736726932927
 20
615.28042738641864
 11
2630.1308671723259
 21
615.76711253768576
  0
LINE
  8
_0-0_90_FRAME
  6
CONTINUOUS
 62
    4
 10
2630.1308671723259
 20
615.76711253768576
 11
2630.0037512335207
 21
616.23901000690614
  0
LINE
  8
_0-0_90_FRAME
  6
CONTINUOUS
 62
    4
 10
2630.0037512335207
 20
616.23901000690614
 11
2629.7961872303531
 21
616.68178142826923
  0
LINE
  8
_0-0_90_FRAME
  6
CONTINUOUS
 62
    4
 10
2629.7961872303531
 20
616.68178142826923
 11
2629.5144818900271
 21
617.08197341619007
  0
LINE
  8
_0-0_90_FRAME
  6
CONTINUOUS
 62
    4
 10
2629.5144818900271
 20
617.08197341619007
 11
2629.1671946867586
 21
617.42742633962257
  0
LINE
  8
_0-0_90_FRAME
  6
CONTINUOUS
 62
    4
 10
2629.1671946867586
 20
617.42742633962257
 11
2628.7648777664836
 21
617.70764378629588
  0
LINE
  8
_0-0_90_FRAME
  6
CONTINUOUS
 62
    4
 10
2628.7648777664836
 20
617.70764378629588
 11
2628.3197553252417
 21
617.91411149088958
  0
LINE
  8
_0-0_90_FRAME
  6
CONTINUOUS
 62
    4
 10
2628.3197553252417
 20
617.91411149088958
 11
2627.845352183168
 21
618.04055603667746
  0
LINE
  8
_0-0_90_FRAME
  6
CONTINUOUS
 62
    4
 10
2627.845352183168
 20
618.04055603667746
 11
2627.3560828396744
 21
618.08313547011983
  0
LINE
  8
_0-0_90_FRAME
  6
CONTINUOUS
 62
    4
 10
2627.3560828396744
 20
618.08313547011983
 11
2626.8668134961808
 21
618.04055603667746
  0
LINE
  8
_0-0_90_FRAME
  6
CONTINUOUS
 62
    4
 10
2626.8668134961808
 20
618.04055603667746
 11
2626.3924103541071
 21
617.91411149088958
  0
LINE
  8
_0-0_90_FRAME
  6
CONTINUOUS
 62
    4
 10
2626.3924103541071
 20
617.91411149088958
 11
2625.9472879128652
 21
617.70764378629588
  0
LINE
  8
_0-0_90_FRAME
  6
CONTINUOUS
 62
    4
 10
2625.9472879128652
 20
617.70764378629588
 11
2625.5449709925902
 21
617.42742633962257
  0
LINE
  8
_0-0_90_FRAME
  6
CONTINUOUS
 62
    4
 10
2625.5449709925902
 20
617.42742633962257
 11
2625.1976837893217
 21
617.08197341619007
  0
LINE
  8
_0-0_90_FRAME
  6
CONTINUOUS
 62
    4
 10
2625.1976837893217
 20
617.08197341619007
 11
2624.9159784489957
 21
616.68178142826923
  0
LINE
  8
_0-0_90_FRAME
  6
CONTINUOUS
 62
    4
 10
2624.9159784489957
 20
616.68178142826923
 11
2624.7084144458281
 21
616.23901000690614
  0
LINE
  8
_0-0_90_FRAME
  6
CONTINUOUS
 62
    4
 10
2624.7084144458281
 20
616.23901000690614
 11
2624.5812985070229
 21
615.76711253768576
  0
LINE
  8
_0-0_90_FRAME
  6
CONTINUOUS
 62
    4
 10
2624.5812985070229
 20
615.76711253768576
 11
2624.5384929860561
 21
615.28042738641864
  0
LINE
  8
_0-0_90_FRAME
  6
CONTINUOUS
 62
    4
 10
2624.5384929860561
 20
615.28042738641864
 11
2624.5384929860561
 21
615.28042738641864
  0
LINE
  8
_0-0_90_FRAME
  6
CONTINUOUS
 62
    4
 10
2628.5129651557054
 20
611.79740910536304
 11
2628.5129651557054
 21
611.79740910536304
  0
LINE
  8
_0-0_90_FRAME
  6
CONTINUOUS
 62
    4
 10
2628.5129651557054
 20
611.79740910536304
 11
2628.0492638632227
 21
611.63635303627041
  0
LINE
  8
_0-0_90_FRAME
  6
CONTINUOUS
 62
    4
 10
2628.0492638632227
 20
611.63635303627041
 11
2627.5645006161062
 21
611.55786493507037
  0
LINE
  8
_0-0_90_FRAME
  6
CONTINUOUS
 62
    4
 10
2627.5645006161062
 20
611.55786493507037
 11
2627.073404700317
 21
611.56432962300096
  0
LINE
  8
_0-0_90_FRAME
  6
CONTINUOUS
 62
    4
 10
2627.073404700317
 20
611.56432962300096
 11
2626.5908978167504
 21
611.65555067379069
  0
LINE
  8
_0-0_90_FRAME
  6
CONTINUOUS
 62
    4
 10
2626.5908978167504
 20
611.65555067379069
 11
2626.1316406929031
 21
611.8287563819714
  0
LINE
  8
_0-0_90_FRAME
  6
CONTINUOUS
 62
    4
 10
2626.1316406929031
 20
611.8287563819714
 11
2625.7095876240878
 21
612.0786839797463
  0
LINE
  8
_0-0_90_FRAME
  6
CONTINUOUS
 62
    4
 10
2625.7095876240878
 20
612.0786839797463
 11
2625.3375624792311
 21
612.39773954352654
  0
LINE
  8
_0-0_90_FRAME
  6
CONTINUOUS
 62
    4
 10
2625.3375624792311
 20
612.39773954352654
 11
2625.0268690541061
 21
612.77622873145651
  0
LINE
  8
_0-0_90_FRAME
  6
CONTINUOUS
 62
    4
 10
2625.0268690541061
 20
612.77622873145651
 11
2624.7869476112164
 21
613.2026513410857
  0
LINE
  8
_0-0_90_FRAME
  6
CONTINUOUS
 62
    4
 10
2624.7869476112164
 20
613.2026513410857
 11
2624.6250880421985
 21
613.6640507372008
  0
LINE
  8
_0-0_90_FRAME
  6
CONTINUOUS
 62
    4
 10
2624.6250880421985
 20
613.6640507372008
 11
2624.5462083681514
 21
614.14640753263029
  0
LINE
  8
_0-0_90_FRAME
  6
CONTINUOUS
 62
    4
 10
2624.5462083681514
 20
614.14640753263029
 11
2624.5384894489866
 21
614.35379068584609
  0
LINE
  8
_0-0_90_FRAME
  6
CONTINUOUS
 62
    4
 10
2614.5095716708774
 20
610.01412898615229
 11
2616.2340744771996
 21
610.01412898615229
  0
LINE
  8
_0-0_90_FRAME
  6
CONTINUOUS
 62
    4
 10
2614.5095716708774
 20
610.01412898615229
 11
2614.5095716708774
 21
610.06023759463119
  0
LINE
  8
_0-0_90_FRAME
  6
CONTINUOUS
 62
    4
 10
2614.5095716708774
 20
610.06023759463119
 11
2618.1318630518822
 21
619.62008908611392
  0
LINE
  8
_0-0_90_FRAME
  6
CONTINUOUS
 62
    4
 10
2614.5095716708774
 20
610.01412898615229
 11
2614.5095716708774
 21
610.06023759463119
  0
LINE
  8
_0-0_90_FRAME
  6
CONTINUOUS
 62
    4
 10
2617.1742701800117
 20
612.54659730071
 11
2620.7207802941061
 21
612.54659730071
  0
LINE
  8
_0-0_90_FRAME
  6
CONTINUOUS
 62
    4
 10
2617.6941907811647
 20
614.0067032359035
 11
2620.2008596929559
 21
614.0067032359035
  0
LINE
  8
_0-0_90_FRAME
  6
CONTINUOUS
 62
    4
 10
2623.3470549628414
 20
610.01412898615229
 11
2621.622552156522
 21
610.01412898615229
  0
LINE
  8
_0-0_90_FRAME
  6
CONTINUOUS
 62
    4
 10
2621.622552156522
 20
610.01412898615229
 11
2620.7207802941061
 21
612.54659730071
  0
LINE
  8
_0-0_90_FRAME
  6
CONTINUOUS
 62
    4
 10
2623.3470549628414
 20
610.06023759463119
 11
2619.7247635818371
 21
619.62008908611392
  0
LINE
  8
_0-0_90_FRAME
  6
CONTINUOUS
 62
    4
 10
2623.3470549628414
 20
610.01412898615229
 11
2623.3470549628414
 21
610.06023759463119
  0
LINE
  8
_0-0_90_FRAME
  6
CONTINUOUS
 62
    4
 10
2618.1318630518822
 20
619.62008908611392
 11
2619.7247635818371
 21
619.62008908611392
  0
LINE
  8
_0-0_90_FRAME
  6
CONTINUOUS
 62
    4
 10
2620.2008596929559
 20
614.0067032359035
 11
2618.9283133168597
 21
617.58042682453026
  0
LINE
  8
_0-0_90_FRAME
  6
CONTINUOUS
 62
    4
 10
2628.5794831704211
 20
613.46450862389224
 11
2632.1376511223325
 21
610.53253852573027
  0
LINE
  8
_0-0_90_FRAME
  6
CONTINUOUS
 62
    4
 10
2629.6900430666819
 20
610.6518304455268
 11
2631.0257565721067
 21
609.35186136684229
  0
LINE
  8
_0-0_90_FRAME
  6
CONTINUOUS
 62
    4
 10
2617.1742701800117
 20
612.54659730071
 11
2617.6941907811647
 21
614.0067032359035
  0
LINE
  8
_0-0_90_FRAME
  6
CONTINUOUS
 62
    4
 10
2631.7748244856566
 20
614.24075143013454
 11
2631.7748244856566
 21
614.24075143013454
  0
LINE
  8
_0-0_90_FRAME
  6
CONTINUOUS
 62
    4
 10
2631.7748244856566
 20
614.24075143013454
 11
2631.7076938711957
 21
613.50680614505075
  0
LINE
  8
_0-0_90_FRAME
  6
CONTINUOUS
 62
    4
 10
2631.7076938711957
 20
613.50680614505075
 11
2631.5083417575634
 21
612.79516141605995
  0
LINE
  8
_0-0_90_FRAME
  6
CONTINUOUS
 62
    4
 10
2631.5083417575634
 20
612.79516141605995
 11
2631.1828253578551
 21
612.12744020814307
  0
LINE
  8
_0-0_90_FRAME
  6
CONTINUOUS
 62
    4
 10
2631.1828253578551
 20
612.12744020814307
 11
2630.843090501694
 21
611.64470573689482
  0
LINE
  8
_0-0_90_FRAME
  6
CONTINUOUS
 62
    4
 10
2630.1736762303622
 20
614.35379068584609
 11
2630.1736762303622
 21
614.35379068584609
  0
LINE
  8
_0-0_90_FRAME
  6
CONTINUOUS
 62
    4
 10
2630.1736762303622
 20
614.35379068584609
 11
2630.1308706556597
 21
613.86694955195333
  0
LINE
  8
_0-0_90_FRAME
  6
CONTINUOUS
 62
    4
 10
2630.1308706556597
 20
613.86694955195333
 11
2630.0037545572791
 21
613.39490083956036
  0
LINE
  8
_0-0_90_FRAME
  6
CONTINUOUS
 62
    4
 10
2630.0037545572791
 20
613.39490083956036
 11
2629.7961902935454
 21
612.95198750992517
  0
LINE
  8
_0-0_90_FRAME
  6
CONTINUOUS
 62
    4
 10
2629.7961902935454
 20
612.95198750992517
 11
2629.6050467671698
 21
612.66486758953738
  0
LINE
  8
_0-0_90_FRAME
  6
CONTINUOUS
 62
    4
 10
2622.9373411936922
 20
615.39346664213031
 11
2622.9373411936922
 21
614.24075143013454
  0
LINE
  8
_0-0_90_FRAME
  6
CONTINUOUS
 62
    4
 10
2616.2340744771996
 20
610.01412898615229
 11
2618.9283133168597
 21
617.58042682453026
  0
LINE
  8
_0-0_90_FRAME
  6
CONTINUOUS
 62
    4
 10
2640.6345763136792
 20
610.01412898615229
 11
2642.3590791200008
 21
610.01412898615229
  0
LINE
  8
_0-0_90_FRAME
  6
CONTINUOUS
 62
    4
 10
2640.6345763136792
 20
610.01412898615229
 11
2640.6345763136792
 21
610.06023759463119
  0
LINE
  8
_0-0_90_FRAME
  6
CONTINUOUS
 62
    4
 10
2640.6345763136792
 20
610.06023759463119
 11
2644.2568676946862
 21
619.62008908611392
  0
LINE
  8
_0-0_90_FRAME
  6
CONTINUOUS
 62
    4
 10
2640.6345763136792
 20
610.01412898615229
 11
2640.6345763136792
 21
610.06023759463119
  0
LINE
  8
_0-0_90_FRAME
  6
CONTINUOUS
 62
    4
 10
2643.2992748228157
 20
612.54659730071
 11
2646.8457849369101
 21
612.54659730071
  0
LINE
  8
_0-0_90_FRAME
  6
CONTINUOUS
 62
    4
 10
2643.819195423966
 20
614.0067032359035
 11
2646.3258643357594
 21
614.0067032359035
  0
LINE
  8
_0-0_90_FRAME
  6
CONTINUOUS
 62
    4
 10
2649.4720596056454
 20
610.01412898615229
 11
2647.7475567993238
 21
610.01412898615229
  0
LINE
  8
_0-0_90_FRAME
  6
CONTINUOUS
 62
    4
 10
2647.7475567993238
 20
610.01412898615229
 11
2646.8457849369101
 21
612.54659730071
  0
LINE
  8
_0-0_90_FRAME
  6
CONTINUOUS
 62
    4
 10
2649.4720596056454
 20
610.06023759463119
 11
2645.8497682246407
 21
619.62008908611392
  0
LINE
  8
_0-0_90_FRAME
  6
CONTINUOUS
 62
    4
 10
2649.4720596056454
 20
610.01412898615229
 11
2649.4720596056454
 21
610.06023759463119
  0
LINE
  8
_0-0_90_FRAME
  6
CONTINUOUS
 62
    4
 10
2644.2568676946862
 20
619.62008908611392
 11
2645.8497682246407
 21
619.62008908611392
  0
LINE
  8
_0-0_90_FRAME
  6
CONTINUOUS
 62
    4
 10
2646.3258643357594
 20
614.0067032359035
 11
2645.0533179596632
 21
617.58042682453026
  0
LINE
  8
_0-0_90_FRAME
  6
CONTINUOUS
 62
    4
 10
2643.2992748228157
 20
612.54659730071
 11
2643.819195423966
 21
614.0067032359035
  0
LINE
  8
_0-0_90_FRAME
  6
CONTINUOUS
 62
    4
 10
2642.3590791200008
 20
610.01412898615229
 11
2645.0533179596632
 21
617.58042682453026
  0
ARC
  8
_0-0_90_FRAME
  6
CONTINUOUS
 62
    4
 10
2636.6705640199784
 20
614.06697733674832
 40
4.0650739069189497
 50
274.44474271147573
 51
357.5499690077387
  0
LINE
  8
_0-0_90_FRAME
  6
CONTINUOUS
 62
    4
 10
2629.6050467671716
 20
612.66486758953863
 11
2630.8430905016949
 21
611.64470573689516
  0
LINE
  8
_0-0_90_FRAME
  6
CONTINUOUS
 62
    4
 10
2630.2774713191211
 20
603.21308767142432
 11
2630.2774713191211
 21
603.21308767142432
  0
LINE
  8
_0-0_90_FRAME
  6
CONTINUOUS
 62
    4
 10
2630.2774713191211
 20
603.21308767142432
 11
2630.7617266037942
 21
603.40884760616814
  0
LINE
  8
_0-0_90_FRAME
  6
CONTINUOUS
 62
    4
 10
2630.7617266037942
 20
603.40884760616814
 11
2631.1969061248387
 21
603.6701517856286
  0
LINE
  8
_0-0_90_FRAME
  6
CONTINUOUS
 62
    4
 10
2631.1969061248387
 20
603.6701517856286
 11
2631.5697871727198
 21
603.98906061453908
  0
LINE
  8
_0-0_90_FRAME
  6
CONTINUOUS
 62
    4
 10
2631.5697871727198
 20
603.98906061453908
 11
2631.869039945484
 21
604.35588420950864
  0
LINE
  8
_0-0_90_FRAME
  6
CONTINUOUS
 62
    4
 10
2631.869039945484
 20
604.35588420950864
 11
2632.0855717990598
 21
604.75947682122603
  0
LINE
  8
_0-0_90_FRAME
  6
CONTINUOUS
 62
    4
 10
2632.0855717990598
 20
604.75947682122603
 11
2632.2128035226474
 21
605.18757549241184
  0
LINE
  8
_0-0_90_FRAME
  6
CONTINUOUS
 62
    4
 10
2632.2128035226474
 20
605.18757549241184
 11
2632.2468692447078
 21
605.6271726615704
  0
LINE
  8
_0-0_90_FRAME
  6
CONTINUOUS
 62
    4
 10
2632.2468692447078
 20
605.6271726615704
 11
2632.1867338955135
 21
606.06491139116383
  0
LINE
  8
_0-0_90_FRAME
  6
CONTINUOUS
 62
    4
 10
2632.1867338955135
 20
606.06491139116383
 11
2632.0342246572209
 21
606.48749121139986
  0
LINE
  8
_0-0_90_FRAME
  6
CONTINUOUS
 62
    4
 10
2632.0342246572209
 20
606.48749121139986
 11
2631.7939754458612
 21
606.88207224827647
  0
LINE
  8
_0-0_90_FRAME
  6
CONTINUOUS
 62
    4
 10
2631.7939754458612
 20
606.88207224827647
 11
2631.4732861121506
 21
607.23666535665552
  0
LINE
  8
_0-0_90_FRAME
  6
CONTINUOUS
 62
    4
 10
2631.4732861121506
 20
607.23666535665552
 11
2631.0819006392162
 21
607.54049640437199
  0
LINE
  8
_0-0_90_FRAME
  6
CONTINUOUS
 62
    4
 10
2631.0819006392162
 20
607.54049640437199
 11
2630.6317110766031
 21
607.78433363878673
  0
LINE
  8
_0-0_90_FRAME
  6
CONTINUOUS
 62
    4
 10
2630.6317110766031
 20
607.78433363878673
 11
2630.1363962063642
 21
607.9607681889197
  0
LINE
  8
_0-0_90_FRAME
  6
CONTINUOUS
 62
    4
 10
2630.1363962063642
 20
607.9607681889197
 11
2629.6110059201906
 21
608.06443918024536
  0
LINE
  8
_0-0_90_FRAME
  6
CONTINUOUS
 62
    4
 10
2629.6110059201906
 20
608.06443918024536
 11
2629.1465684356895
 21
608.09293696615941
  0
LINE
  8
_0-0_90_FRAME
  6
CONTINUOUS
 62
    4
 10
2635.818021029997
 20
600.02393048219176
 11
2635.818021029997
 21
606.55598335016532
  0
LINE
  8
_0-0_90_FRAME
  6
CONTINUOUS
 62
    4
 10
2634.0889482120033
 20
600.02393048219176
 11
2634.0889482120033
 21
606.55598335016532
  0
LINE
  8
_0-0_90_FRAME
  6
CONTINUOUS
 62
    4
 10
2633.8968290100024
 20
608.0929369661601
 11
2636.0101402319956
 21
608.0929369661601
  0
LINE
  8
_0-0_90_FRAME
  6
CONTINUOUS
 62
    4
 10
2624.7278267897104
 20
608.0929369661601
 11
2624.7278267897104
 21
598.48697686619846
  0
LINE
  8
_0-0_90_FRAME
  6
CONTINUOUS
 62
    4
 10
2633.8968290100024
 20
598.48697686619846
 11
2636.0101402319956
 21
598.48697686619846
  0
LINE
  8
_0-0_90_FRAME
  6
CONTINUOUS
 62
    4
 10
2636.0101402319956
 20
598.48697686619846
 11
2636.0101402319956
 21
599.83181128019362
  0
ARC
  8
_0-0_90_FRAME
  6
CONTINUOUS
 62
    4
 10
2636.0101402319956
 20
600.02393048219176
 40
0.1921192019992239
 50
180
 51
270
  0
LINE
  8
_0-0_90_FRAME
  6
CONTINUOUS
 62
    4
 10
2633.8968290100024
 20
598.48697686619846
 11
2633.8968290100024
 21
599.83181128019362
  0
ARC
  8
_0-0_90_FRAME
  6
CONTINUOUS
 62
    4
 10
2633.8968290100024
 20
600.02393048219176
 40
0.1921192019992239
 50
270
 51
0
  0
LINE
  8
_0-0_90_FRAME
  6
CONTINUOUS
 62
    4
 10
2636.0101402319956
 20
608.0929369661601
 11
2636.0101402319956
 21
606.74810255216494
  0
ARC
  8
_0-0_90_FRAME
  6
CONTINUOUS
 62
    4
 10
2636.0101402319956
 20
606.55598335016532
 40
0.1921192019992239
 50
90
 51
180
  0
LINE
  8
_0-0_90_FRAME
  6
CONTINUOUS
 62
    4
 10
2633.8968290100024
 20
608.0929369661601
 11
2633.8968290100024
 21
606.74810255216494
  0
ARC
  8
_0-0_90_FRAME
  6
CONTINUOUS
 62
    4
 10
2633.8968290100024
 20
606.55598335016532
 40
0.1921192019992239
 50
0
 51
90
  0
LINE
  8
_0-0_90_FRAME
  6
CONTINUOUS
 62
    4
 10
2620.5588713209986
 20
598.48697686619846
 11
2620.5588713209986
 21
606.55598335016532
  0
LINE
  8
_0-0_90_FRAME
  6
CONTINUOUS
 62
    4
 10
2618.8297985030072
 20
598.48697686619846
 11
2618.8297985030072
 21
606.55598335016532
  0
LINE
  8
_0-0_90_FRAME
  6
CONTINUOUS
 62
    4
 10
2615.7558912710201
 20
608.0929369661601
 11
2623.6327785529875
 21
608.0929369661601
  0
LINE
  8
_0-0_90_FRAME
  6
CONTINUOUS
 62
    4
 10
2618.8297985030072
 20
598.48697686619846
 11
2620.5588713209986
 21
598.48697686619846
  0
LINE
  8
_0-0_90_FRAME
  6
CONTINUOUS
 62
    4
 10
2623.6327785529875
 20
608.0929369661601
 11
2623.6327785529875
 21
606.74810255216494
  0
ARC
  8
_0-0_90_FRAME
  6
CONTINUOUS
 62
    4
 10
2620.7509905229995
 20
606.55598335016532
 40
0.1921192019992239
 50
90
 51
180
  0
LINE
  8
_0-0_90_FRAME
  6
CONTINUOUS
 62
    4
 10
2615.7558912710201
 20
608.0929369661601
 11
2615.7558912710201
 21
606.74810255216494
  0
ARC
  8
_0-0_90_FRAME
  6
CONTINUOUS
 62
    4
 10
2618.6376793010086
 20
606.55598335016532
 40
0.1921192019992239
 50
0
 51
90
  0
LINE
  8
_0-0_90_FRAME
  6
CONTINUOUS
 62
    4
 10
2615.7558912710201
 20
606.74810255216494
 11
2618.6376793010086
 21
606.74810255216494
  0
LINE
  8
_0-0_90_FRAME
  6
CONTINUOUS
 62
    4
 10
2620.7509905229995
 20
606.74810255216494
 11
2623.6327785529875
 21
606.74810255216494
  0
LINE
  8
_0-0_90_FRAME
  6
CONTINUOUS
 62
    4
 10
2624.7278267897104
 20
598.48697686619846
 11
2626.4568996077019
 21
598.48697686619846
  0
LINE
  8
_0-0_90_FRAME
  6
CONTINUOUS
 62
    4
 10
2626.4568996077019
 20
598.48697686619846
 11
2626.4568996077019
 21
606.74810255216494
  0
LINE
  8
_0-0_90_FRAME
  6
CONTINUOUS
 62
    4
 10
2624.7278267897104
 20
608.0929369661601
 11
2629.1465684356895
 21
608.0929369661601
  0
LINE
  8
_0-0_90_FRAME
  6
CONTINUOUS
 62
    4
 10
2626.4568996077019
 20
606.74810255216494
 11
2629.3771114780911
 21
606.74810255216494
  0
LINE
  8
_0-0_90_FRAME
  6
CONTINUOUS
 62
    4
 10
2626.5145353682997
 20
603.03908020060885
 11
2626.5145353682997
 21
604.38391461460401
  0
LINE
  8
_0-0_90_FRAME
  6
CONTINUOUS
 62
    4
 10
2626.5145353682997
 20
603.03908020060885
 11
2628.4010628666028
 21
603.03908020060885
  0
LINE
  8
_0-0_90_FRAME
  6
CONTINUOUS
 62
    4
 10
2626.5145353682997
 20
604.38391461460401
 11
2629.3771114780911
 21
604.38391461460401
  0
ARC
  8
_0-0_90_FRAME
  6
CONTINUOUS
 62
    4
 10
2629.3358926371693
 20
605.56600858338447
 40
1.1828123874366916
 50
271.99705710435398
 51
88.002942895541636
  0
LINE
  8
_0-0_90_FRAME
  6
CONTINUOUS
 62
    4
 10
2630.5763407852069
 20
598.48697686619846
 11
2632.4398970445986
 21
598.48697686619846
  0
LINE
  8
_0-0_90_FRAME
  6
CONTINUOUS
 62
    4
 10
2630.7845402324765
 20
602.61755821853444
 11
2632.4398970445986
 21
598.56382454699826
  0
LINE
  8
_0-0_90_FRAME
  6
CONTINUOUS
 62
    4
 10
2629.1139418572097
 20
602.5575879726523
 11
2630.5763407852069
 21
598.48697686619846
  0
ARC
  8
_0-0_90_FRAME
  6
CONTINUOUS
 62
    4
 10
2628.4010628666028
 20
602.27060339261357
 40
0.7684768079968956
 50
21.928297866550245
 51
90
  0
ARC
  8
_0-0_90_FRAME
  6
CONTINUOUS
 62
    4
 10
2629.622146912533
 20
602.14146688470476
 40
1.2561135252831908
 50
22.272952259980951
 51
58.553113012863221
  0
LINE
  8
_0-0_90_FRAME
  6
CONTINUOUS
 62
    4
 10
2632.4398970445986
 20
598.56382454699826
 11
2632.4398970445986
 21
598.48697686619846
  0
LINE
  8
_0-0_90_FRAME
  6
CONTINUOUS
 62
    4
 10
2637.7410851437057
 20
608.0929369661601
 11
2637.7410851437057
 21
598.48697686619846
  0
LINE
  8
_0-0_90_FRAME
  6
CONTINUOUS
 62
    4
 10
2637.7410851437057
 20
598.48697686619846
 11
2639.4701579616994
 21
598.48697686619846
  0
LINE
  8
_0-0_90_FRAME
  6
CONTINUOUS
 62
    4
 10
2639.4701579616994
 20
598.48697686619846
 11
2639.4685657836453
 21
605.21114893617164
  0
LINE
  8
_0-0_90_FRAME
  6
CONTINUOUS
 62
    4
 10
2637.7410851437057
 20
608.0929369661601
 11
2640.2500830297613
 21
608.0929369661601
  0
LINE
  8
_0-0_90_FRAME
  6
CONTINUOUS
 62
    4
 10
2645.6195646037272
 20
605.21114893617164
 11
2645.6195646037272
 21
598.48697686619846
  0
LINE
  8
_0-0_90_FRAME
  6
CONTINUOUS
 62
    4
 10
2645.6195646037272
 20
598.48697686619846
 11
2647.3486374217186
 21
598.48697686619846
  0
LINE
  8
_0-0_90_FRAME
  6
CONTINUOUS
 62
    4
 10
2647.3486374217186
 20
598.48697686619846
 11
2647.3486374217186
 21
608.0929369661601
  0
LINE
  8
_0-0_90_FRAME
  6
CONTINUOUS
 62
    4
 10
2641.6795287846921
 20
598.48697686619846
 11
2643.4086016026831
 21
598.48697686619846
  0
LINE
  8
_0-0_90_FRAME
  6
CONTINUOUS
 62
    4
 10
2647.3486374217186
 20
608.0929369661601
 11
2644.8380473576108
 21
608.0929369661601
  0
LINE
  8
_0-0_90_FRAME
  6
CONTINUOUS
 62
    4
 10
2643.4086016026831
 20
598.48697686619846
 11
2645.6195646037272
 21
605.21114893617164
  0
LINE
  8
_0-0_90_FRAME
  6
CONTINUOUS
 62
    4
 10
2641.6795287846921
 20
598.48697686619846
 11
2639.4685657836453
 21
605.21114893617164
  0
LINE
  8
_0-0_90_FRAME
  6
CONTINUOUS
 62
    4
 10
2642.5440651936865
 20
601.11627983151379
 11
2644.8380473576108
 21
608.0929369661601
  0
LINE
  8
_0-0_90_FRAME
  6
CONTINUOUS
 62
    4
 10
2642.5440651936865
 20
601.11627983151379
 11
2640.2500830297613
 21
608.0929369661601
  0
TEXT
  8
_0-0_90_FRAME
 62
    2
 10
2658.674662349647
 20
615.76061075744462
 40
11.341157142811321
 41
1
 50
0
  1
株式会社
  0
LINE
  8
_0-0_90_FRAME
  6
CONTINUOUS
 62
   18
 10
2693.1999976566362
 20
639.33730321647749
 11
2693.1999976566362
 21
692.37301750197935
  0
TEXT
  8
_0-0_90_FRAME
 62
    7
 10
2792.1861832979039
 20
598.27515673365667
 40
15.000000000000002
 41
1
 50
0
  1
寺田
  0
TEXT
  8
_0-0_90_FRAME
 62
    7
 10
2715.0754690125259
 20
652.06701677694809
 40
15.000000000000002
 41
1
 50
0
  1
1：3
  0
TEXT
  8
_0-0_90_FRAME
 62
    7
 10
2849.4601631364667
 20
682.10428702509694
 40
7.5000000000000009
 41
1
 50
0
  1
機器
  0
LINE
  8
_0-0_90_FRAME
  6
CONTINUOUS
 62
   18
 10
2960.7071279503516
 20
692.37301750197935
 11
2960.7071279503516
 21
616.00158893085847
  0
TEXT
  8
_0-0_90_FRAME
 62
    7
 10
2962.745864859427
 20
682.10428702509694
 40
7.5000000000000009
 41
1
 50
0
  1
部品名
  0
TEXT
  8
_0-0_90_FRAME
 62
    7
 10
2962.7458648594238
 20
639.30071559669545
 40
7.5000000000000009
 41
1
 50
0
  1
図面番号
  0
LINE
  8
_0-0_90_FRAME
  6
CONTINUOUS
 62
   18
 10
2847.4214262273972
 20
654.18730321641954
 11
2960.7071279503516
 21
654.18730321641954
  0
TEXT
  8
_0-0_90_FRAME
 62
    7
 10
2849.4601631364667
 20
643.54357273953713
 40
7.5000000000000009
 41
1
 50
0
  1
型式
  0
LINE
  8
_0-0_90_FRAME
  6
CONTINUOUS
 62
   18
 10
2744.435715879511
 20
692.37301750197935
 11
3198.0999976545977
 21
692.37301750197935
  0
LINE
  8
_0-0_90_FRAME
  6
CONTINUOUS
 62
    4
 10
2744.4356985498366
 20
797.37301524560689
 11
3198.0999803249233
 21
797.37301524560689
  0
LINE
  8
_0-0_90_FRAME
  6
CONTINUOUS
 62
    4
 10
2744.4357158795115
 20
797.37301524560689
 11
2744.435715879511
 21
692.37301750197935
  0
LINE
  8
_0-0_90_FRAME
  6
CONTINUOUS
 62
    4
 10
2960.7071279503516
 20
797.37301524560689
 11
2960.7071279503516
 21
692.37301750197935
  0
LINE
  8
_0-0_90_FRAME
  6
CONTINUOUS
 62
    4
 10
3043.0394665437943
 20
797.37301524560689
 11
3043.0394665438098
 21
692.37301750197935
  0
LINE
  8
_0-0_90_FRAME
  6
CONTINUOUS
 62
    4
 10
3022.0394691687939
 20
797.37301524560689
 11
3022.039469168808
 21
692.37301750197935
  0
LINE
  8
_0-0_90_FRAME
  6
CONTINUOUS
 62
    4
 10
2775.9357119420165
 20
797.37301524560689
 11
2775.9357119420165
 21
692.37301750197935
  0
LINE
  8
_0-0_90_FRAME
  6
CONTINUOUS
 62
    4
 10
3074.5394626063062
 20
797.37301524560689
 11
3074.5394626063048
 21
692.37301750197935
  0
TEXT
  8
_0-0_90_FRAME
 62
    3
 10
3026.8821204292899
 20
718.39104071885163
 40
9
 41
1
 50
0
  1
10
  0
TEXT
  8
_0-0_90_FRAME
 62
    3
 10
2965.5412507239985
 20
718.59103962713766
 40
9
 41
1
 50
0
  1
ジュラコン
  0
TEXT
  8
_0-0_90_FRAME
 62
    3
 10
2790.5663624585009
 20
718.47166248880319
 40
9
 41
1
 50
0
  1
濾布ズレ止め
  0
TEXT
  8
_0-0_90_FRAME
 62
    3
 10
2751.9129886129567
 20
718.24014293977314
 40
9
 41
1
 50
0
  1
78
  0
TEXT
  8
_0-0_90_FRAME
 62
    3
 10
3049.8995375773648
 20
703.1516144484018
 40
7.5000000000000009
 41
1
 50
0
  1
重量
  0
TEXT
  8
_0-0_90_FRAME
 62
    3
 10
2974.7124387296012
 20
698.31097072028183
 40
9
 41
1
 50
0
  1
材　質
  0
TEXT
  8
_0-0_90_FRAME
 62
    3
 10
3023.1423955067398
 20
698.24332993644612
 40
9
 41
1
 50
0
  1
数量
  0
TEXT
  8
_0-0_90_FRAME
 62
    3
 10
3053.2144318736523
 20
695.81309080654012
 40
6
 41
1
 50
0
  1
kg
  0
TEXT
  8
_0-0_90_FRAME
 62
    3
 10
3114.680765754084
 20
698.09243215735023
 40
9
 41
1
 50
0
  1
備  考
  0
TEXT
  8
_0-0_90_FRAME
 62
    3
 10
2750.8496996631429
 20
698.09243215735023
 40
9
 41
1
 50
0
  1
符号
  0
TEXT
  8
_0-0_90_FRAME
 62
    3
 10
2827.1463419623601
 20
698.41909878318518
 40
9
 41
1
 50
0
  1
部　　品　　名
  0
LINE
  8
_0-0_90_FRAME
  6
CONTINUOUS
 62
    4
 10
2744.4356985498366
 20
776.37301524560689
 11
3198.0999803249233
 21
776.37301524560689
  0
LINE
  8
_0-0_90_FRAME
  6
CONTINUOUS
 62
    4
 10
2744.4356985498366
 20
755.37301412425609
 11
3198.0999803249233
 21
755.37301412425609
  0
LINE
  8
_0-0_90_FRAME
  6
CONTINUOUS
 62
    4
 10
2744.4356985498366
 20
734.37301524560678
 11
3198.0999803249233
 21
734.37301524560678
  0
LINE
  8
_0-0_90_FRAME
  6
CONTINUOUS
 62
    4
 10
2744.4356985498366
 20
713.37301524560678
 11
3198.0999803249233
 21
713.37301524560678
  0
TEXT
  8
_0-0_90_FRAME
 62
    7
 10
3045.4775050017274
 20
664.74057709866736
 40
12
 41
1
 50
0
  1
脱水機 部品図
  0
TEXT
  8
_0-0_90_FRAME
 62
    7
 10
2854.7438016718761
 20
664.30999436027423
 40
9.5999999999999996
 41
0.9000000000000001
 50
0
  1
有機性汚泥燃料施設
  0
LINE
  8
_0-2_0
  6
CONTINUOUS
 62
   18
 10
1014.2858096721469
 20
1197.0179987799424
 11
1019.285809672147
 21
1197.0179987799388
  0
LINE
  8
_0-2_0
  6
CONTINUOUS
 62
   18
 10
1019.285809672147
 20
1197.0179987799388
 11
1019.285809672147
 21
1317.0179987799336
  0
LINE
  8
_0-2_0
  6
CONTINUOUS
 62
   18
 10
1019.285809672147
 20
1317.0179987799336
 11
1014.2858096721469
 21
1312.0179987801371
  0
LINE
  8
_0-2_0
  6
CONTINUOUS
 62
   18
 10
1014.2858096721469
 20
1312.0179987801371
 11
1014.2858096721469
 21
1197.0179987799424
  0
LINE
  8
_0-3_10_DRAFT
  6
CONTINUOUS
 62
    8
 10
1019.2858096723651
 20
1252.0179987798681
 11
1014.2848417628851
 21
1252.0179987799011
  0
LINE
  8
_0-4_05_CENTER
  6
CENTER2
 62
    4
 10
1024.0554380084873
 20
1244.517998779872
 11
1009.4043352782759
 21
1244.5179987799049
  0
LINE
  8
_0-4_05_CENTER
  6
CENTER2
 62
    4
 10
1024.0554380085418
 20
1259.517998779872
 11
1009.4043352783304
 21
1259.5179987799049
  0
LINE
  8
_0-2_0
  6
CONTINUOUS
 62
   18
 10
1189.5801228706682
 20
1259.5179987798806
 11
1189.5801228706682
 21
1244.5179987798806
  0
ARC
  8
_0-2_0
  6
CONTINUOUS
 62
   18
 10
1194.5801228706682
 20
1244.5179987798806
 40
5.0000000000000009
 50
180
 51
0
  0
LINE
  8
_0-2_0
  6
CONTINUOUS
 62
   18
 10
1199.5801228706682
 20
1244.5179987798806
 11
1199.5801228706682
 21
1259.5179987798806
  0
ARC
  8
_0-2_0
  6
CONTINUOUS
 62
   18
 10
1194.5801228706682
 20
1259.5179987798806
 40
5.0000000000000009
 50
0
 51
180
  0
LINE
  8
_0-4_05_CENTER
  6
CENTER2
 62
    4
 10
1183.5801228706682
 20
1252.0179987798806
 11
1205.5801228706682
 21
1252.0179987798806
  0
LINE
  8
_0-4_05_CENTER
  6
CENTER2
 62
    4
 10
1194.5801228706682
 20
1235.9576606624512
 11
1194.5801228706682
 21
1268.07833689731
  0
LINE
  8
_0-4_05_CENTER
  6
CENTER2
 62
    4
 10
1186.0197847532386
 20
1259.5179987798806
 11
1203.1404609880979
 21
1259.5179987798806
  0
LINE
  8
_0-4_05_CENTER
  6
CENTER2
 62
    4
 10
1186.0197847532386
 20
1244.5179987798806
 11
1203.1404609880979
 21
1244.5179987798806
  0
LINE
  8
_0-2_0
  6
CONTINUOUS
 62
   18
 10
1166.0801228674377
 20
1317.0179987799315
 11
3071.0801228674377
 21
1317.0179987799315
  0
LINE
  8
_0-2_0
  6
CONTINUOUS
 62
   18
 10
3071.0801228674377
 20
1317.0179987799315
 11
3071.0801228674377
 21
1202.0183647546878
  0
LINE
  8
_0-2_0
  6
CONTINUOUS
 62
   18
 10
3071.0801228674377
 20
1202.0183647546878
 11
3066.0801228674377
 21
1197.0183647546878
  0
LINE
  8
_0-2_0
  6
CONTINUOUS
 62
   18
 10
3066.0801228674377
 20
1197.0183647546878
 11
1171.0801228674377
 21
1197.0183647546878
  0
LINE
  8
_0-2_0
  6
CONTINUOUS
 62
   18
 10
1171.0801228674377
 20
1197.0183647546878
 11
1166.0801228674377
 21
1202.0183647546878
  0
LINE
  8
_0-2_0
  6
CONTINUOUS
 62
   18
 10
1166.0801228674377
 20
1202.0183647546878
 11
1166.0801228674377
 21
1317.0179987799315
  0
TEXT
  8
_0-3_10_DRAFT
 62
    1
 10
2092.0593731740259
 20
1301.4654187088843
 40
9
 41
1
 50
0
  1
ジュラコン
  0
LINE
  8
_0-4_05_CENTER
  6
CENTER2
 62
    4
 10
2118.5801228650985
 20
1186.7796817787253
 11
2118.5801228650985
 21
1332.5076898617585
  0
LINE
  8
_0-5_04_HIDDEN
  6
CONTINUOUS
 62
    3
 10
1166.0801228674377
 20
1312.0179987814431
 11
3071.0801228674377
 21
1312.0179987814431
  0
LINE
  8
_0-4_05_CENTER
  6
CENTER2
 62
    4
 10
1362.580122870668
 20
1050.1688241703218
 11
1362.580122870668
 21
1064.8084114578783
  0
LINE
  8
_0-2_0
  6
CONTINUOUS
 62
   18
 10
3071.0801228674341
 20
1059.9870887366237
 11
1166.0801228674338
 21
1059.9870887366237
  0
LINE
  8
_0-2_0
  6
CONTINUOUS
 62
   18
 10
1166.0801228674338
 20
1059.9870887366237
 11
1166.0801228674338
 21
1054.9870887366237
  0
LINE
  8
_0-2_0
  6
CONTINUOUS
 62
   18
 10
1166.0801228674338
 20
1054.9870887366237
 11
3071.0801228674341
 21
1054.9870887366237
  0
LINE
  8
_0-2_0
  6
CONTINUOUS
 62
   18
 10
3071.0801228674341
 20
1054.9870887366237
 11
3071.0801228674341
 21
1059.9870887366237
  0
LINE
  8
_0-5_04_HIDDEN
  6
CONTINUOUS
 62
    7
 10
1563.2506928004007
 20
1758.7721619160852
 11
1568.2506928004009
 21
1758.7721619160852
  0
LINE
  8
_0-5_04_HIDDEN
  6
CONTINUOUS
 62
    7
 10
1563.2506928004007
 20
1697.7721619160852
 11
1568.2506928004009
 21
1697.7721619160852
  0
LINE
  8
_0-4_05_CENTER
  6
CENTER2
 62
    4
 10
1557.2399147178478
 20
1728.2721619160852
 11
1579.2210543099104
 21
1728.2721619160852
  0
LINE
  8
_0-5_04_HIDDEN
  6
CONTINUOUS
 62
    7
 10
1568.2506928004009
 20
1697.7721619160852
 11
1568.2506928004009
 21
1758.7721619160852
  0
LINE
  8
_0-5_04_HIDDEN
  6
CONTINUOUS
 62
    7
 10
1568.2506928004009
 20
1748.7721619160852
 11
1573.2506928004009
 21
1748.7721619160852
  0
LINE
  8
_0-5_04_HIDDEN
  6
CONTINUOUS
 62
    7
 10
1568.2506928004009
 20
1707.7721619160855
 11
1573.2506928004009
 21
1707.7721619160855
  0
CIRCLE
  8
_0-2_0
  6
CONTINUOUS
 62
   18
 10
1401.8070749007443
 20
1728.2721619160852
 40
30.5
  0
CIRCLE
  8
_0-2_0
  6
CONTINUOUS
 62
   18
 10
1401.8070749007443
 20
1728.2721619160852
 40
40.000000000000007
  0
CIRCLE
  8
_0-2_0
  6
CONTINUOUS
 62
   18
 10
1401.8070749007443
 20
1728.2721619160852
 40
20.5
  0
LINE
  8
_0-4_05_CENTER
  6
CENTER2
 62
    4
 10
1447.405717636952
 20
1728.2721619234849
 11
1356.208432179787
 21
1728.2721619234849
  0
LINE
  8
_0-4_05_CENTER
  6
CENTER2
 62
    4
 10
1401.8070749084277
 20
1682.6735191949317
 11
1401.8070749084277
 21
1773.8708046520094
  0
LINE
  8
_0-2_0
  6
CONTINUOUS
 62
   18
 10
1573.2506928004009
 20
1767.2721619160852
 11
1573.2506928004009
 21
1689.2721619160852
  0
LINE
  8
_0-2_0
  6
CONTINUOUS
 62
   18
 10
1573.2506928004009
 20
1689.2721619160852
 11
1572.2506928004009
 21
1688.2721619160852
  0
LINE
  8
_0-2_0
  6
CONTINUOUS
 62
   18
 10
1572.2506928004009
 20
1688.2721619160852
 11
1564.2506928004009
 21
1688.2721619160852
  0
LINE
  8
_0-2_0
  6
CONTINUOUS
 62
   18
 10
1564.2506928004009
 20
1688.2721619160852
 11
1563.2506928004007
 21
1689.2721619160852
  0
LINE
  8
_0-2_0
  6
CONTINUOUS
 62
   18
 10
1563.2506928004007
 20
1689.2721619160852
 11
1563.2506928004007
 21
1767.2721619160852
  0
LINE
  8
_0-2_0
  6
CONTINUOUS
 62
   18
 10
1563.2506928004007
 20
1767.2721619160852
 11
1564.2506928004009
 21
1768.272161916085
  0
LINE
  8
_0-2_0
  6
CONTINUOUS
 62
   18
 10
1564.2506928004009
 20
1768.272161916085
 11
1572.2506928004009
 21
1768.272161916085
  0
LINE
  8
_0-2_0
  6
CONTINUOUS
 62
   18
 10
1572.2506928004009
 20
1768.272161916085
 11
1573.2506928004009
 21
1767.2721619160852
  0
LINE
  8
_0-6_08_DIM
  6
CONTINUOUS
 62
    3
 10
1237.2397615598777
 20
1854.8236401014769
 11
1354.1836308517086
 21
1854.8236401014769
  0
INSERT
  2
-000-p1ba05
  8
_0-6_08_DIM
 10
1267.5993678699074
 20
1858.9264076270181
 41
4.5
 42
4.5
 50
0
  0
INSERT
  2
-001-p1ba01
  8
_0-6_08_DIM
 10
1308.9678508568181
 20
1858.4002945909565
 41
4.5
 42
4.5
 50
0
  0
TEXT
  8
_0-7_07_TEXT
 62
    3
 10
1282.2580849283265
 20
1858.0616910915644
 40
13.500000000000002
 41
1
 50
0
  1
(     )
  0
TEXT
  8
_0-6_08_DIM
 62
    3
 10
1242.0458742794312
 20
1835.405253637864
 40
13.500000000000002
 41
1
 50
0
  1
t10ジュラコン
  0
INSERT
  2
-001-p1ba01
  8
_0-6_08_DIM
 10
1544.253539422562
 20
1697.7721619160852
 41
3
 42
3
 50
0
  0
INSERT
  2
-001-p1ba01
  8
_0-6_08_DIM
 10
1596.0240064532939
 20
1707.7721619160855
 41
3
 42
3
 50
0
  0
INSERT
  2
-001-p1ba01
  8
_0-6_08_DIM
 10
1568.2506928004009
 20
1789.345896858124
 41
3
 42
3
 50
90
  0
INSERT
  2
-001-p1ba01
  8
_0-6_08_DIM
 10
1037.1915584491178
 20
1334.9237475561749
 41
3
 42
3
 50
44.999999999999993
  0
LINE
  8
_0-6_08_DIM
  6
CONTINUOUS
 62
    3
 10
1040.3576898458523
 20
1459.4036057090048
 11
1157.3015591376829
 21
1459.4036057090048
  0
INSERT
  2
-000-p1ba05
  8
_0-6_08_DIM
 10
1070.7172961558817
 20
1463.3647079289267
 41
4.5
 42
4.5
 50
0
  0
INSERT
  2
-001-p1ba01
  8
_0-6_08_DIM
 10
1112.0857791427923
 20
1462.8385948928656
 41
4.5
 42
4.5
 50
0
  0
TEXT
  8
_0-7_07_TEXT
 62
    3
 10
1085.3760132143011
 20
1462.499991393473
 40
13.500000000000002
 41
1
 50
0
  1
(     )
  0
TEXT
  8
_0-6_08_DIM
 62
    3
 10
1045.1638025654056
 20
1439.9852192453916
 40
13.500000000000002
 41
1
 50
0
  1
t5ジュラコン
  0
INSERT
  2
-001-p1ba01
  8
_0-6_08_DIM
 10
2433.5477833376649
 20
1768.8298320174463
 41
2.9999999999999996
 42
2.9999999999999996
 50
315
  0
INSERT
  2
-001-p1ba01
  8
_0-6_08_DIM
 10
1515.0784132133363
 20
1768.272161916085
 41
3
 42
3
 50
0
  0
LINE
  8
_0-6_08_DIM
  6
CONTINUOUS
 62
    3
 10
2323.4351032107766
 20
1854.8236401014769
 11
2440.3789725026072
 21
1854.8236401014769
  0
INSERT
  2
-000-p1ba05
  8
_0-6_08_DIM
 10
2353.794709520806
 20
1858.9264076270181
 41
4.5
 42
4.5
 50
0
  0
INSERT
  2
-001-p1ba01
  8
_0-6_08_DIM
 10
2395.1631925077168
 20
1858.4002945909565
 41
4.5
 42
4.5
 50
0
  0
TEXT
  8
_0-7_07_TEXT
 62
    3
 10
2368.4534265792254
 20
1858.0616910915644
 40
13.500000000000002
 41
1
 50
0
  1
(     )
  0
TEXT
  8
_0-6_08_DIM
 62
    3
 10
2328.2412159303299
 20
1835.405253637864
 40
13.500000000000002
 41
1
 50
0
  1
t5ジュラコン
  0
TEXT
  8
_0-0_90_FRAME
 62
    3
 10
3030.6321204292894
 20
739.39103959750094
 40
9
 41
1
 50
0
  1
1
  0
TEXT
  8
_0-0_90_FRAME
 62
    3
 10
2965.5412507239985
 20
739.59103850578686
 40
9
 41
1
 50
0
  1
ジュラコン
  0
TEXT
  8
_0-0_90_FRAME
 62
    3
 10
2790.5663624585009
 20
739.47166136745238
 40
9
 41
1
 50
0
  1
スクレーパ1
  0
TEXT
  8
_0-0_90_FRAME
 62
    3
 10
2751.9129886129567
 20
739.24014181842233
 40
9
 41
1
 50
0
  1
79
  0
TEXT
  8
_0-0_90_FRAME
 62
    3
 10
3030.6321204292894
 20
760.39104071885163
 40
9
 41
1
 50
0
  1
1
  0
TEXT
  8
_0-0_90_FRAME
 62
    3
 10
2965.5412507239985
 20
760.59103962713766
 40
9
 41
1
 50
0
  1
ジュラコン
  0
TEXT
  8
_0-0_90_FRAME
 62
    3
 10
2752.6629886129563
 20
760.24014293977314
 40
9
 41
1
 50
0
  1
80
  0
TEXT
  8
_0-0_90_FRAME
 62
    3
 10
2790.5663624585009
 20
760.47166024610181
 40
9
 41
1
 50
0
  1
スクレーパ2
  0
TEXT
  8
_0-0_90_FRAME
 62
    3
 10
3082.1141635349245
 20
760.43909911496416
 40
9
 41
1
 50
0
  1
スナップ軸①用
  0
TEXT
  8
_0-0_90_FRAME
 62
    3
 10
3082.114163534924
 20
717.01350792874746
 40
6
 41
1
 50
0
  1
テンション軸用
  0
TEXT
  8
_0-0_90_FRAME
 62
    3
 10
3082.114163534924
 20
725.14174189319249
 40
6
 41
1
 50
0
  1
スナップ軸①､②､③､④用
  0
TEXT
  8
_0-0_90_FRAME
 62
    3
 10
3082.114163534924
 20
739.43909910812977
 40
9
 41
1
 50
0
  1
ベルトCV駆動軸用
  0
LINE
  8
_0-4_05_CENTER
  6
CENTER2
 62
    4
 10
1194.5801228706682
 20
1252.0179987798806
 11
3054.5801228706682
 21
1252.0179987798806
  0
LINE
  8
_0-2_0
  6
CONTINUOUS
 62
   18
 10
2601.8015368744254
 20
1828.8628654675572
 11
2811.8015368744259
 21
1828.8628654675572
  0
LINE
  8
_0-2_0
  6
CONTINUOUS
 62
   18
 10
2811.8015368744259
 20
1828.8628654675572
 11
2811.8015368744259
 21
1833.8628654675574
  0
LINE
  8
_0-2_0
  6
CONTINUOUS
 62
   18
 10
2811.8015368744259
 20
1833.8628654675574
 11
2601.8015368744254
 21
1833.8628654675574
  0
LINE
  8
_0-2_0
  6
CONTINUOUS
 62
   18
 10
2601.8015368744254
 20
1833.8628654675574
 11
2601.8015368744254
 21
1828.8628654675572
  0
LINE
  8
_0-4_05_CENTER
  6
CENTER2
 62
    4
 10
2706.8015368775541
 20
1824.8942961121622
 11
2706.8015368775541
 21
1837.8359343218306
  0
LINE
  8
_0-4_05_CENTER
  6
CENTER2
 62
    4
 10
2786.8015368775541
 20
1824.8942961121622
 11
2786.8015368775541
 21
1837.8359343218306
  0
LINE
  8
_0-4_05_CENTER
  6
CENTER2
 62
    4
 10
2626.8015368775541
 20
1824.8942961121622
 11
2626.8015368775541
 21
1837.8359343218306
  0
LINE
  8
_0-2_0
  6
CONTINUOUS
 62
   18
 10
2453.9666809387882
 20
1653.4109344163101
 11
2453.9666809387991
 21
1748.4109344163101
  0
LINE
  8
_0-2_0
  6
CONTINUOUS
 62
   18
 10
2453.9666809387991
 20
1748.4109344163101
 11
2458.9666809387991
 21
1743.4109344163098
  0
LINE
  8
_0-2_0
  6
CONTINUOUS
 62
   18
 10
2458.9666809387991
 20
1743.4109344163098
 11
2458.9666809387882
 21
1653.4109344163101
  0
LINE
  8
_0-2_0
  6
CONTINUOUS
 62
   18
 10
2458.9666809387882
 20
1653.4109344163101
 11
2453.9666809387882
 21
1653.4109344163101
  0
LINE
  8
_0-3_10_DRAFT
  6
CONTINUOUS
 62
    8
 10
2458.9666809387768
 20
1683.410932412746
 11
2453.9666809387772
 21
1683.410932412746
  0
LINE
  8
_0-4_05_CENTER
  6
CENTER2
 62
    4
 10
2462.5270190562028
 20
1688.410932412746
 11
2450.4045480240593
 21
1688.4109324127442
  0
LINE
  8
_0-4_05_CENTER
  6
CENTER2
 62
    4
 10
2462.5270190562073
 20
1678.4109324127458
 11
2450.4045480240629
 21
1678.4109324127442
  0
LINE
  8
_0-2_0
  6
CONTINUOUS
 62
   18
 10
2601.8015368712931
 20
1655.4109344163101
 11
2601.8015368712972
 21
1746.4109344163101
  0
LINE
  8
_0-2_0
  6
CONTINUOUS
 62
   18
 10
2601.8015368712972
 20
1746.4109344163101
 11
2603.8015368712972
 21
1748.4109344163101
  0
LINE
  8
_0-2_0
  6
CONTINUOUS
 62
   18
 10
2603.8015368712972
 20
1748.4109344163101
 11
2809.8015368712931
 21
1748.4109344163101
  0
LINE
  8
_0-2_0
  6
CONTINUOUS
 62
   18
 10
2809.8015368712931
 20
1748.4109344163101
 11
2811.8015368712936
 21
1746.4109344163101
  0
LINE
  8
_0-2_0
  6
CONTINUOUS
 62
   18
 10
2811.8015368712936
 20
1746.4109344163101
 11
2811.8015368712936
 21
1655.4109344163085
  0
LINE
  8
_0-2_0
  6
CONTINUOUS
 62
   18
 10
2811.8015368712936
 20
1655.4109344163085
 11
2809.8015368712931
 21
1653.4109344163085
  0
LINE
  8
_0-2_0
  6
CONTINUOUS
 62
   18
 10
2809.8015368712931
 20
1653.4109344163085
 11
2603.8015368712931
 21
1653.4109344163101
  0
LINE
  8
_0-2_0
  6
CONTINUOUS
 62
   18
 10
2603.8015368712931
 20
1653.4109344163101
 11
2601.8015368712931
 21
1655.4109344163101
  0
LINE
  8
_0-2_0
  6
CONTINUOUS
 62
    3
 10
2811.8015368712936
 20
1743.4109344163098
 11
2601.8015368712972
 21
1743.410934416321
  0
LINE
  8
_0-2_0
  6
CONTINUOUS
 62
   18
 10
2630.3015368740766
 20
1678.4109324127458
 11
2630.3015368740766
 21
1688.410932412746
  0
ARC
  8
_0-2_0
  6
CONTINUOUS
 62
   18
 10
2626.8015368740766
 20
1688.410932412746
 40
3.5000000000000004
 50
0
 51
180
  0
LINE
  8
_0-2_0
  6
CONTINUOUS
 62
   18
 10
2623.3015368740766
 20
1688.410932412746
 11
2623.3015368740766
 21
1678.4109324127458
  0
ARC
  8
_0-2_0
  6
CONTINUOUS
 62
   18
 10
2626.8015368740766
 20
1678.4109324127458
 40
3.5000000000000004
 50
180
 51
0
  0
LINE
  8
_0-4_05_CENTER
  6
CENTER2
 62
    4
 10
2633.3015368742981
 20
1683.4109324127915
 11
2620.3015368742986
 21
1683.4109324127915
  0
LINE
  8
_0-4_05_CENTER
  6
CENTER2
 62
    4
 10
2626.8015368741235
 20
1694.910932412746
 11
2626.8015368744732
 21
1671.910932412746
  0
LINE
  8
_0-4_05_CENTER
  6
CENTER2
 62
    4
 10
2633.3015368742981
 20
1688.4109324127917
 11
2620.3015368742986
 21
1688.4109324127917
  0
LINE
  8
_0-4_05_CENTER
  6
CENTER2
 62
    4
 10
2633.3015368742981
 20
1678.4109324127915
 11
2620.3015368742986
 21
1678.4109324127915
  0
LINE
  8
_0-2_0
  6
CONTINUOUS
 62
   18
 10
2710.3015368740294
 20
1678.410932412748
 11
2710.3015368740294
 21
1688.4109324127478
  0
ARC
  8
_0-2_0
  6
CONTINUOUS
 62
   18
 10
2706.8015368740289
 20
1688.4109324127478
 40
3.5000000000000004
 50
0
 51
180
  0
LINE
  8
_0-2_0
  6
CONTINUOUS
 62
   18
 10
2703.3015368740289
 20
1688.4109324127478
 11
2703.3015368740289
 21
1678.410932412748
  0
ARC
  8
_0-2_0
  6
CONTINUOUS
 62
   18
 10
2706.8015368740289
 20
1678.410932412748
 40
3.5000000000000004
 50
180
 51
0
  0
LINE
  8
_0-4_05_CENTER
  6
CENTER2
 62
    4
 10
2713.3015368742508
 20
1683.4109324127933
 11
2700.3015368742513
 21
1683.4109324127933
  0
LINE
  8
_0-4_05_CENTER
  6
CENTER2
 62
    4
 10
2706.8015368740766
 20
1694.9109324127476
 11
2706.8015368744259
 21
1671.9109324127478
  0
LINE
  8
_0-4_05_CENTER
  6
CENTER2
 62
    4
 10
2713.3015368742508
 20
1688.4109324127933
 11
2700.3015368742513
 21
1688.4109324127933
  0
LINE
  8
_0-4_05_CENTER
  6
CENTER2
 62
    4
 10
2713.3015368742508
 20
1678.4109324127933
 11
2700.3015368742513
 21
1678.4109324127933
  0
LINE
  8
_0-2_0
  6
CONTINUOUS
 62
   18
 10
2790.3015368740294
 20
1678.410932412748
 11
2790.3015368740294
 21
1688.4109324127478
  0
ARC
  8
_0-2_0
  6
CONTINUOUS
 62
   18
 10
2786.8015368740289
 20
1688.4109324127478
 40
3.5000000000000004
 50
0
 51
180
  0
LINE
  8
_0-2_0
  6
CONTINUOUS
 62
   18
 10
2783.3015368740289
 20
1688.4109324127478
 11
2783.3015368740289
 21
1678.410932412748
  0
ARC
  8
_0-2_0
  6
CONTINUOUS
 62
   18
 10
2786.8015368740289
 20
1678.410932412748
 40
3.5000000000000004
 50
180
 51
0
  0
LINE
  8
_0-4_05_CENTER
  6
CENTER2
 62
    4
 10
2793.3015368742508
 20
1683.4109324127933
 11
2780.3015368742513
 21
1683.4109324127933
  0
LINE
  8
_0-4_05_CENTER
  6
CENTER2
 62
    4
 10
2786.8015368740762
 20
1694.9109324127476
 11
2786.8015368744259
 21
1671.9109324127478
  0
LINE
  8
_0-4_05_CENTER
  6
CENTER2
 62
    4
 10
2793.3015368742508
 20
1688.4109324127933
 11
2780.3015368742513
 21
1688.4109324127933
  0
LINE
  8
_0-4_05_CENTER
  6
CENTER2
 62
    4
 10
2793.3015368742508
 20
1678.4109324127933
 11
2780.3015368742513
 21
1678.4109324127933
  0
LINE
  8
_0-2_0
  6
CONTINUOUS
 62
   18
 10
1357.5801228706682
 20
1259.5179987798806
 11
1357.5801228706682
 21
1244.5179987798806
  0
ARC
  8
_0-2_0
  6
CONTINUOUS
 62
   18
 10
1362.580122870668
 20
1244.5179987798806
 40
5.0000000000000009
 50
180
 51
0
  0
LINE
  8
_0-2_0
  6
CONTINUOUS
 62
   18
 10
1367.580122870668
 20
1244.5179987798806
 11
1367.580122870668
 21
1259.5179987798806
  0
ARC
  8
_0-2_0
  6
CONTINUOUS
 62
   18
 10
1362.580122870668
 20
1259.5179987798806
 40
5.0000000000000009
 50
0
 51
180
  0
LINE
  8
_0-4_05_CENTER
  6
CENTER2
 62
    4
 10
1351.580122870668
 20
1252.0179987798806
 11
1373.5801228706682
 21
1252.0179987798806
  0
LINE
  8
_0-4_05_CENTER
  6
CENTER2
 62
    4
 10
1362.580122870668
 20
1235.9576606624512
 11
1362.580122870668
 21
1268.07833689731
  0
LINE
  8
_0-4_05_CENTER
  6
CENTER2
 62
    4
 10
1354.0197847532384
 20
1259.5179987798806
 11
1371.1404609880976
 21
1259.5179987798806
  0
LINE
  8
_0-4_05_CENTER
  6
CENTER2
 62
    4
 10
1354.0197847532384
 20
1244.5179987798806
 11
1371.1404609880976
 21
1244.5179987798806
  0
LINE
  8
_0-2_0
  6
CONTINUOUS
 62
   18
 10
1525.5801228706682
 20
1259.5179987798806
 11
1525.5801228706682
 21
1244.5179987798806
  0
ARC
  8
_0-2_0
  6
CONTINUOUS
 62
   18
 10
1530.580122870668
 20
1244.5179987798806
 40
5.0000000000000009
 50
180
 51
0
  0
LINE
  8
_0-2_0
  6
CONTINUOUS
 62
   18
 10
1535.5801228706682
 20
1244.5179987798806
 11
1535.5801228706682
 21
1259.5179987798806
  0
ARC
  8
_0-2_0
  6
CONTINUOUS
 62
   18
 10
1530.580122870668
 20
1259.5179987798806
 40
5.0000000000000009
 50
0
 51
180
  0
LINE
  8
_0-4_05_CENTER
  6
CENTER2
 62
    4
 10
1519.580122870668
 20
1252.0179987798806
 11
1541.5801228706682
 21
1252.0179987798806
  0
LINE
  8
_0-4_05_CENTER
  6
CENTER2
 62
    4
 10
1530.580122870668
 20
1235.9576606624512
 11
1530.580122870668
 21
1268.07833689731
  0
LINE
  8
_0-4_05_CENTER
  6
CENTER2
 62
    4
 10
1522.0197847532386
 20
1259.5179987798806
 11
1539.1404609880979
 21
1259.5179987798806
  0
LINE
  8
_0-4_05_CENTER
  6
CENTER2
 62
    4
 10
1522.0197847532386
 20
1244.5179987798806
 11
1539.1404609880979
 21
1244.5179987798806
  0
LINE
  8
_0-2_0
  6
CONTINUOUS
 62
   18
 10
1693.5801228706682
 20
1259.5179987798806
 11
1693.5801228706682
 21
1244.5179987798806
  0
ARC
  8
_0-2_0
  6
CONTINUOUS
 62
   18
 10
1698.580122870668
 20
1244.5179987798806
 40
5.0000000000000009
 50
180
 51
0
  0
LINE
  8
_0-2_0
  6
CONTINUOUS
 62
   18
 10
1703.5801228706682
 20
1244.5179987798806
 11
1703.5801228706682
 21
1259.5179987798806
  0
ARC
  8
_0-2_0
  6
CONTINUOUS
 62
   18
 10
1698.580122870668
 20
1259.5179987798806
 40
5.0000000000000009
 50
0
 51
180
  0
LINE
  8
_0-4_05_CENTER
  6
CENTER2
 62
    4
 10
1687.580122870668
 20
1252.0179987798806
 11
1709.5801228706682
 21
1252.0179987798806
  0
LINE
  8
_0-4_05_CENTER
  6
CENTER2
 62
    4
 10
1698.580122870668
 20
1235.9576606624512
 11
1698.580122870668
 21
1268.07833689731
  0
LINE
  8
_0-4_05_CENTER
  6
CENTER2
 62
    4
 10
1690.0197847532386
 20
1259.5179987798806
 11
1707.1404609880979
 21
1259.5179987798806
  0
LINE
  8
_0-4_05_CENTER
  6
CENTER2
 62
    4
 10
1690.0197847532386
 20
1244.5179987798806
 11
1707.1404609880979
 21
1244.5179987798806
  0
LINE
  8
_0-2_0
  6
CONTINUOUS
 62
   18
 10
1861.5801228706684
 20
1259.5179987798806
 11
1861.5801228706684
 21
1244.5179987798806
  0
ARC
  8
_0-2_0
  6
CONTINUOUS
 62
   18
 10
1866.580122870668
 20
1244.5179987798806
 40
5.0000000000000009
 50
180
 51
0
  0
LINE
  8
_0-2_0
  6
CONTINUOUS
 62
   18
 10
1871.5801228706682
 20
1244.5179987798806
 11
1871.5801228706682
 21
1259.5179987798806
  0
ARC
  8
_0-2_0
  6
CONTINUOUS
 62
   18
 10
1866.580122870668
 20
1259.5179987798806
 40
5.0000000000000009
 50
0
 51
180
  0
LINE
  8
_0-4_05_CENTER
  6
CENTER2
 62
    4
 10
1855.5801228706682
 20
1252.0179987798806
 11
1877.5801228706682
 21
1252.0179987798806
  0
LINE
  8
_0-4_05_CENTER
  6
CENTER2
 62
    4
 10
1866.580122870668
 20
1235.9576606624512
 11
1866.580122870668
 21
1268.07833689731
  0
LINE
  8
_0-4_05_CENTER
  6
CENTER2
 62
    4
 10
1858.0197847532386
 20
1259.5179987798806
 11
1875.1404609880981
 21
1259.5179987798806
  0
LINE
  8
_0-4_05_CENTER
  6
CENTER2
 62
    4
 10
1858.0197847532386
 20
1244.5179987798806
 11
1875.1404609880981
 21
1244.5179987798806
  0
LINE
  8
_0-2_0
  6
CONTINUOUS
 62
   18
 10
2029.5801228706684
 20
1259.5179987798806
 11
2029.5801228706684
 21
1244.5179987798806
  0
ARC
  8
_0-2_0
  6
CONTINUOUS
 62
   18
 10
2034.5801228706682
 20
1244.5179987798806
 40
5.0000000000000009
 50
180
 51
0
  0
LINE
  8
_0-2_0
  6
CONTINUOUS
 62
   18
 10
2039.5801228706682
 20
1244.5179987798806
 11
2039.5801228706682
 21
1259.5179987798806
  0
ARC
  8
_0-2_0
  6
CONTINUOUS
 62
   18
 10
2034.5801228706682
 20
1259.5179987798806
 40
5.0000000000000009
 50
0
 51
180
  0
LINE
  8
_0-4_05_CENTER
  6
CENTER2
 62
    4
 10
2023.5801228706682
 20
1252.0179987798806
 11
2045.5801228706682
 21
1252.0179987798806
  0
LINE
  8
_0-4_05_CENTER
  6
CENTER2
 62
    4
 10
2034.5801228706682
 20
1235.9576606624512
 11
2034.5801228706682
 21
1268.07833689731
  0
LINE
  8
_0-4_05_CENTER
  6
CENTER2
 62
    4
 10
2026.0197847532386
 20
1259.5179987798806
 11
2043.1404609880981
 21
1259.5179987798806
  0
LINE
  8
_0-4_05_CENTER
  6
CENTER2
 62
    4
 10
2026.0197847532386
 20
1244.5179987798806
 11
2043.1404609880981
 21
1244.5179987798806
  0
LINE
  8
_0-2_0
  6
CONTINUOUS
 62
   18
 10
3047.5801228595287
 20
1259.5179987798806
 11
3047.5801228595287
 21
1244.5179987798806
  0
ARC
  8
_0-2_0
  6
CONTINUOUS
 62
   18
 10
3042.5801228595287
 20
1244.5179987798806
 40
5.0000000000000009
 50
180
 51
0
  0
LINE
  8
_0-2_0
  6
CONTINUOUS
 62
   18
 10
3037.5801228595292
 20
1244.5179987798806
 11
3037.5801228595292
 21
1259.5179987798806
  0
ARC
  8
_0-2_0
  6
CONTINUOUS
 62
   18
 10
3042.5801228595287
 20
1259.5179987798806
 40
5.0000000000000009
 50
0
 51
180
  0
LINE
  8
_0-4_05_CENTER
  6
CENTER2
 62
    4
 10
3053.5801228595287
 20
1252.0179987798806
 11
3031.5801228595287
 21
1252.0179987798806
  0
LINE
  8
_0-4_05_CENTER
  6
CENTER2
 62
    4
 10
3042.5801228595287
 20
1235.9576606624512
 11
3042.5801228595287
 21
1268.07833689731
  0
LINE
  8
_0-4_05_CENTER
  6
CENTER2
 62
    4
 10
3051.1404609769588
 20
1259.5179987798806
 11
3034.0197847420991
 21
1259.5179987798806
  0
LINE
  8
_0-4_05_CENTER
  6
CENTER2
 62
    4
 10
3051.1404609769588
 20
1244.5179987798806
 11
3034.0197847420991
 21
1244.5179987798806
  0
LINE
  8
_0-2_0
  6
CONTINUOUS
 62
   18
 10
2879.5801228595287
 20
1259.5179987798806
 11
2879.5801228595287
 21
1244.5179987798806
  0
ARC
  8
_0-2_0
  6
CONTINUOUS
 62
   18
 10
2874.5801228595287
 20
1244.5179987798806
 40
5.0000000000000009
 50
180
 51
0
  0
LINE
  8
_0-2_0
  6
CONTINUOUS
 62
   18
 10
2869.5801228595292
 20
1244.5179987798806
 11
2869.5801228595292
 21
1259.5179987798806
  0
ARC
  8
_0-2_0
  6
CONTINUOUS
 62
   18
 10
2874.5801228595287
 20
1259.5179987798806
 40
5.0000000000000009
 50
0
 51
180
  0
LINE
  8
_0-4_05_CENTER
  6
CENTER2
 62
    4
 10
2885.5801228595287
 20
1252.0179987798806
 11
2863.5801228595287
 21
1252.0179987798806
  0
LINE
  8
_0-4_05_CENTER
  6
CENTER2
 62
    4
 10
2874.5801228595287
 20
1235.9576606624512
 11
2874.5801228595287
 21
1268.07833689731
  0
LINE
  8
_0-4_05_CENTER
  6
CENTER2
 62
    4
 10
2883.1404609769588
 20
1259.5179987798806
 11
2866.0197847420991
 21
1259.5179987798806
  0
LINE
  8
_0-4_05_CENTER
  6
CENTER2
 62
    4
 10
2883.1404609769588
 20
1244.5179987798806
 11
2866.0197847420991
 21
1244.5179987798806
  0
LINE
  8
_0-2_0
  6
CONTINUOUS
 62
   18
 10
2711.5801228595287
 20
1259.5179987798806
 11
2711.5801228595287
 21
1244.5179987798806
  0
ARC
  8
_0-2_0
  6
CONTINUOUS
 62
   18
 10
2706.5801228595287
 20
1244.5179987798806
 40
5.0000000000000009
 50
180
 51
0
  0
LINE
  8
_0-2_0
  6
CONTINUOUS
 62
   18
 10
2701.5801228595292
 20
1244.5179987798806
 11
2701.5801228595292
 21
1259.5179987798806
  0
ARC
  8
_0-2_0
  6
CONTINUOUS
 62
   18
 10
2706.5801228595287
 20
1259.5179987798806
 40
5.0000000000000009
 50
0
 51
180
  0
LINE
  8
_0-4_05_CENTER
  6
CENTER2
 62
    4
 10
2717.5801228595287
 20
1252.0179987798806
 11
2695.5801228595287
 21
1252.0179987798806
  0
LINE
  8
_0-4_05_CENTER
  6
CENTER2
 62
    4
 10
2706.5801228595287
 20
1235.9576606624512
 11
2706.5801228595287
 21
1268.07833689731
  0
LINE
  8
_0-4_05_CENTER
  6
CENTER2
 62
    4
 10
2715.1404609769588
 20
1259.5179987798806
 11
2698.0197847420991
 21
1259.5179987798806
  0
LINE
  8
_0-4_05_CENTER
  6
CENTER2
 62
    4
 10
2715.1404609769588
 20
1244.5179987798806
 11
2698.0197847420991
 21
1244.5179987798806
  0
LINE
  8
_0-2_0
  6
CONTINUOUS
 62
   18
 10
2543.5801228595283
 20
1259.5179987798806
 11
2543.5801228595283
 21
1244.5179987798806
  0
ARC
  8
_0-2_0
  6
CONTINUOUS
 62
   18
 10
2538.5801228595287
 20
1244.5179987798806
 40
5.0000000000000009
 50
180
 51
0
  0
LINE
  8
_0-2_0
  6
CONTINUOUS
 62
   18
 10
2533.5801228595292
 20
1244.5179987798806
 11
2533.5801228595292
 21
1259.5179987798806
  0
ARC
  8
_0-2_0
  6
CONTINUOUS
 62
   18
 10
2538.5801228595287
 20
1259.5179987798806
 40
5.0000000000000009
 50
0
 51
180
  0
LINE
  8
_0-4_05_CENTER
  6
CENTER2
 62
    4
 10
2549.5801228595287
 20
1252.0179987798806
 11
2527.5801228595287
 21
1252.0179987798806
  0
LINE
  8
_0-4_05_CENTER
  6
CENTER2
 62
    4
 10
2538.5801228595287
 20
1235.9576606624512
 11
2538.5801228595287
 21
1268.07833689731
  0
LINE
  8
_0-4_05_CENTER
  6
CENTER2
 62
    4
 10
2547.1404609769588
 20
1259.5179987798806
 11
2530.0197847420986
 21
1259.5179987798806
  0
LINE
  8
_0-4_05_CENTER
  6
CENTER2
 62
    4
 10
2547.1404609769588
 20
1244.5179987798806
 11
2530.0197847420986
 21
1244.5179987798806
  0
LINE
  8
_0-2_0
  6
CONTINUOUS
 62
   18
 10
2375.5801228595287
 20
1259.5179987798806
 11
2375.5801228595287
 21
1244.5179987798806
  0
ARC
  8
_0-2_0
  6
CONTINUOUS
 62
   18
 10
2370.5801228595287
 20
1244.5179987798806
 40
5.0000000000000009
 50
180
 51
0
  0
LINE
  8
_0-2_0
  6
CONTINUOUS
 62
   18
 10
2365.5801228595287
 20
1244.5179987798806
 11
2365.5801228595287
 21
1259.5179987798806
  0
ARC
  8
_0-2_0
  6
CONTINUOUS
 62
   18
 10
2370.5801228595287
 20
1259.5179987798806
 40
5.0000000000000009
 50
0
 51
180
  0
LINE
  8
_0-4_05_CENTER
  6
CENTER2
 62
    4
 10
2381.5801228595287
 20
1252.0179987798806
 11
2359.5801228595287
 21
1252.0179987798806
  0
LINE
  8
_0-4_05_CENTER
  6
CENTER2
 62
    4
 10
2370.5801228595287
 20
1235.9576606624512
 11
2370.5801228595287
 21
1268.07833689731
  0
LINE
  8
_0-4_05_CENTER
  6
CENTER2
 62
    4
 10
2379.1404609769584
 20
1259.5179987798806
 11
2362.0197847420991
 21
1259.5179987798806
  0
LINE
  8
_0-4_05_CENTER
  6
CENTER2
 62
    4
 10
2379.1404609769584
 20
1244.5179987798806
 11
2362.0197847420991
 21
1244.5179987798806
  0
LINE
  8
_0-2_0
  6
CONTINUOUS
 62
   18
 10
2207.5801228595287
 20
1259.5179987798806
 11
2207.5801228595287
 21
1244.5179987798806
  0
ARC
  8
_0-2_0
  6
CONTINUOUS
 62
   18
 10
2202.5801228595287
 20
1244.5179987798806
 40
5.0000000000000009
 50
180
 51
0
  0
LINE
  8
_0-2_0
  6
CONTINUOUS
 62
   18
 10
2197.5801228595287
 20
1244.5179987798806
 11
2197.5801228595287
 21
1259.5179987798806
  0
ARC
  8
_0-2_0
  6
CONTINUOUS
 62
   18
 10
2202.5801228595287
 20
1259.5179987798806
 40
5.0000000000000009
 50
0
 51
180
  0
LINE
  8
_0-4_05_CENTER
  6
CENTER2
 62
    4
 10
2213.5801228595287
 20
1252.0179987798806
 11
2191.5801228595287
 21
1252.0179987798806
  0
LINE
  8
_0-4_05_CENTER
  6
CENTER2
 62
    4
 10
2202.5801228595287
 20
1235.9576606624512
 11
2202.5801228595287
 21
1268.07833689731
  0
LINE
  8
_0-4_05_CENTER
  6
CENTER2
 62
    4
 10
2211.1404609769584
 20
1259.5179987798806
 11
2194.0197847420991
 21
1259.5179987798806
  0
LINE
  8
_0-4_05_CENTER
  6
CENTER2
 62
    4
 10
2211.1404609769584
 20
1244.5179987798806
 11
2194.0197847420991
 21
1244.5179987798806
  0
LINE
  8
_0-4_05_CENTER
  6
CENTER2
 62
    4
 10
1194.5801228706682
 20
1050.1688241703218
 11
1194.5801228706682
 21
1064.8084114578783
  0
LINE
  8
_0-4_05_CENTER
  6
CENTER2
 62
    4
 10
1530.580122870668
 20
1050.1688241703218
 11
1530.580122870668
 21
1064.8084114578783
  0
LINE
  8
_0-4_05_CENTER
  6
CENTER2
 62
    4
 10
1698.580122870668
 20
1050.1688241703218
 11
1698.580122870668
 21
1064.8084114578783
  0
LINE
  8
_0-4_05_CENTER
  6
CENTER2
 62
    4
 10
1866.580122870668
 20
1050.1688241703218
 11
1866.580122870668
 21
1064.8084114578783
  0
LINE
  8
_0-4_05_CENTER
  6
CENTER2
 62
    4
 10
2034.5801228706682
 20
1050.1688241703218
 11
2034.5801228706682
 21
1064.8084114578783
  0
LINE
  8
_0-4_05_CENTER
  6
CENTER2
 62
    4
 10
2874.5801228641999
 20
1050.1688241703218
 11
2874.5801228641999
 21
1064.8084114578783
  0
LINE
  8
_0-4_05_CENTER
  6
CENTER2
 62
    4
 10
3042.5801228641999
 20
1050.1688241703218
 11
3042.5801228641999
 21
1064.8084114578783
  0
LINE
  8
_0-4_05_CENTER
  6
CENTER2
 62
    4
 10
2706.5801228642003
 20
1050.1688241703218
 11
2706.5801228642003
 21
1064.8084114578783
  0
LINE
  8
_0-4_05_CENTER
  6
CENTER2
 62
    4
 10
2538.5801228642003
 20
1050.1688241703218
 11
2538.5801228642003
 21
1064.8084114578783
  0
LINE
  8
_0-4_05_CENTER
  6
CENTER2
 62
    4
 10
2370.5801228641999
 20
1050.1688241703218
 11
2370.5801228641999
 21
1064.8084114578783
  0
LINE
  8
_0-4_05_CENTER
  6
CENTER2
 62
    4
 10
2202.5801228641999
 20
1050.1688241703218
 11
2202.5801228641999
 21
1064.8084114578783
  0
CIRCLE
  8
_0-8_01_NORMAL
  6
CONTINUOUS
 62
   18
 10
1758.2839243423155
 20
1730.2923183225671
 40
30.499999992600355
  0
LINE
  8
_0-4_05_CENTER
  6
CENTER2
 62
    4
 10
1758.2839243423273
 20
1785.0106895967958
 11
1758.2839243423273
 21
1675.5739470483029
  0
LINE
  8
_0-4_05_CENTER
  6
CENTER2
 62
    4
 10
1703.5655530679583
 20
1730.2923183225671
 11
1813.002295616556
 21
1730.2923183225671
  0
LINE
  8
_0-8_01_NORMAL
  6
CONTINUOUS
 62
   18
 10
1884.9818604432371
 20
1779.2923183151677
 11
1885.9818604432371
 21
1780.2923183151674
  0
LINE
  8
_0-8_01_NORMAL
  6
CONTINUOUS
 62
   18
 10
1885.9818604432371
 20
1780.2923183151674
 11
1893.9818604432369
 21
1780.2923183151674
  0
LINE
  8
_0-8_01_NORMAL
  6
CONTINUOUS
 62
   18
 10
1893.9818604432369
 20
1780.2923183151674
 11
1894.9818604432371
 21
1779.2923183151677
  0
LINE
  8
_0-8_01_NORMAL
  6
CONTINUOUS
 62
   18
 10
1894.9818604432371
 20
1779.2923183151677
 11
1894.9818604432371
 21
1681.2923183151674
  0
LINE
  8
_0-8_01_NORMAL
  6
CONTINUOUS
 62
   18
 10
1894.9818604432371
 20
1681.2923183151674
 11
1893.9818604432369
 21
1680.2923183151674
  0
LINE
  8
_0-8_01_NORMAL
  6
CONTINUOUS
 62
   18
 10
1893.9818604432369
 20
1680.2923183151674
 11
1885.9818604432371
 21
1680.2923183151674
  0
LINE
  8
_0-8_01_NORMAL
  6
CONTINUOUS
 62
   18
 10
1885.9818604432371
 20
1680.2923183151674
 11
1884.9818604432371
 21
1681.2923183151674
  0
LINE
  8
_0-8_01_NORMAL
  6
CONTINUOUS
 62
   18
 10
1884.9818604432371
 20
1681.2923183151674
 11
1884.9818604432371
 21
1779.2923183151677
  0
LINE
  8
_0-5_04_HIDDEN
  6
CONTINUOUS
 62
    7
 10
1884.9818604432371
 20
1760.7923183151674
 11
1894.9818604432371
 21
1760.7923183151674
  0
LINE
  8
_0-4_05_CENTER
  6
CENTER2
 62
    4
 10
1879.9818604432371
 20
1730.2923183151674
 11
1899.9818604432371
 21
1730.2923183151674
  0
LINE
  8
_0-5_04_HIDDEN
  6
CONTINUOUS
 62
    7
 10
1884.9818604432371
 20
1699.7923183151674
 11
1894.9818604432371
 21
1699.7923183151674
  0
CIRCLE
  8
_0-2_0
  6
CONTINUOUS
 62
   18
 10
1758.2839243423155
 20
1730.2923183225525
 40
50
  0
LINE
  8
_0-8_01_NORMAL
  6
CONTINUOUS
 62
    1
 10
1348.4431560561845
 20
1626.174936854404
 11
1625.6991564780387
 21
1846.3380112674765
  0
LINE
  8
_0-8_01_NORMAL
  6
CONTINUOUS
 62
    1
 10
1348.7759573743365
 20
1631.1638488883686
 11
1626.0319577961905
 21
1851.3269233014412
  0
LINE
  8
_0-8_01_NORMAL
  6
CONTINUOUS
 62
    1
 10
1626.364759114342
 20
1626.174936854404
 11
1349.1087586924878
 21
1846.3380112674765
  0
LINE
  8
_0-8_01_NORMAL
  6
CONTINUOUS
 62
    1
 10
1626.0319577961905
 20
1631.1638488883686
 11
1348.7759573743365
 21
1851.3269233014412
  0
ARC
  8
_0-9_02_SLIM
  6
CONTINUOUS
 62
    1
 10
1952.4199229078201
 20
1853.9277692608448
 40
33.625140105734303
 50
343.4975974586236
 51
93.497597359133508
  0
ARC
  8
_0-9_02_SLIM
  6
CONTINUOUS
 62
    1
 10
1984.3354544220679
 20
1796.8262633197266
 40
47.551205628539641
 50
339.60897873913893
 51
89.608978639649138
  0
ARC
  8
_0-9_02_SLIM
  6
CONTINUOUS
 62
    1
 10
2020.9465306535124
 20
1759.4722598782926
 40
22.25813412646929
 50
319.04464110296954
 51
69.044641003479356
  0
ARC
  8
_0-9_02_SLIM
  6
CONTINUOUS
 62
    1
 10
2006.6824465999255
 20
1704.0360946515152
 40
51.322817725348187
 50
302.73809147473276
 51
52.738091375242639
  0
ARC
  8
_0-9_02_SLIM
  6
CONTINUOUS
 62
    1
 10
1992.796548283635
 20
1649.6597570130234
 40
43.12274008469538
 50
265.06203152168302
 51
15.062031422193083
  0
ARC
  8
_0-9_02_SLIM
  6
CONTINUOUS
 62
    1
 10
1943.0685747353268
 20
1633.9753975612848
 40
53.493811394517849
 50
219.34054627210023
 51
329.34054617261
  0
ARC
  8
_0-9_02_SLIM
  6
CONTINUOUS
 62
    1
 10
1861.1567544630204
 20
1621.0369478799714
 40
45.643854434509038
 50
222.64594066097817
 51
332.64594056148815
  0
ARC
  8
_0-9_02_SLIM
  6
CONTINUOUS
 62
    1
 10
1781.1775783888854
 20
1633.3170871883253
 40
63.402862081588154
 50
207.04736889270197
 51
317.04736879321189
  0
ARC
  8
_0-9_02_SLIM
  6
CONTINUOUS
 62
    1
 10
1721.1632028531008
 20
1646.5087692251032
 40
42.17200517906231
 50
164.82313178048929
 51
274.82313168099927
  0
ARC
  8
_0-9_02_SLIM
  6
CONTINUOUS
 62
    1
 10
1717.8920220688867
 20
1722.7765601333438
 40
75.203635458292965
 50
130.1510745395438
 51
240.15107444005369
  0
ARC
  8
_0-9_02_SLIM
  6
CONTINUOUS
 62
    1
 10
1722.9297960137849
 20
1803.7337663161331
 40
58.450879720548166
 50
93.68002396995179
 51
203.68002387046167
  0
ARC
  8
_0-9_02_SLIM
  6
CONTINUOUS
 62
    1
 10
1760.7670252632058
 20
1854.3607095515817
 40
42.296289536452107
 50
59.506161750997975
 51
169.50616165150805
  0
ARC
  8
_0-9_02_SLIM
  6
CONTINUOUS
 62
    1
 10
1865.138226048932
 20
1830.2825941747283
 40
102.64954784863198
 50
33.870012766438215
 51
143.87001266694818
  0
TEXT
  8
_0-6_08_DIM
 62
    4
 10
1682.4443394629368
 20
1942.6350906306088
 40
30.000000000000004
 41
1
 50
0
  1
形状変更
  0
TEXT
  8
_0-6_08_DIM
 62
    4
 10
3163.1722340424517
 20
624.54378805043552
 40
15.000000000000002
 41
1
 50
0
  1
A
  0
LINE
  8
_0-6_08_DIM
  6
CONTINUOUS
 62
    3
 10
1166.0801228674338
 20
1318.893364754686
 11
1166.0801228674338
 21
1368.2655953384951
  0
LINE
  8
_0-6_08_DIM
  6
CONTINUOUS
 62
    3
 10
3071.0801228674377
 20
1318.893364754686
 11
3071.0801228674377
 21
1368.2655953384951
  0
LINE
  8
_0-6_08_DIM
  6
CONTINUOUS
 62
    3
 10
1173.5801228674341
 20
1364.5155953384954
 11
3063.5801228674381
 21
1364.5155953384954
  0
INSERT
  2
-002-_Open30
  8
_0-6_08_DIM
 10
1166.0801228674338
 20
1364.5155953384954
 41
7.5
 42
7.5
 50
180
  0
INSERT
  2
-002-_Open30
  8
_0-6_08_DIM
 10
3071.0801228674377
 20
1364.5155953384954
 41
7.5
 42
7.5
 50
0
  0
LINE
  8
_0-6_08_DIM
  6
CONTINUOUS
 62
    3
 10
1017.410809672147
 20
1317.0179987799336
 11
988.2224920382381
 21
1317.0179987799336
  0
LINE
  8
_0-6_08_DIM
  6
CONTINUOUS
 62
    3
 10
1012.4108096721469
 20
1312.0179987801371
 11
988.2224920382381
 21
1312.0179987801371
  0
LINE
  8
_0-6_08_DIM
  6
CONTINUOUS
 62
    3
 10
991.9724920382381
 20
1304.5179987801371
 11
991.9724920382381
 21
1275.9554987801371
  0
LINE
  8
_0-6_08_DIM
  6
CONTINUOUS
 62
    3
 10
991.9724920382381
 20
1317.0179987799336
 11
991.9724920382381
 21
1312.0179987801371
  0
LINE
  8
_0-6_08_DIM
  6
CONTINUOUS
 62
    3
 10
991.9724920382381
 20
1324.5179987799336
 11
991.9724920382381
 21
1332.0179987799336
  0
INSERT
  2
-002-_Open30
  8
_0-6_08_DIM
 10
991.9724920382381
 20
1317.0179987799336
 41
7.5
 42
7.5
 50
270
  0
INSERT
  2
-002-_Open30
  8
_0-6_08_DIM
 10
991.9724920382381
 20
1312.0179987801371
 41
7.5
 42
7.5
 50
90
  0
LINE
  8
_0-6_08_DIM
  6
CONTINUOUS
 62
    3
 10
1014.2858096733839
 20
1195.1429987812485
 11
1014.2858096733839
 21
1168.337658347858
  0
LINE
  8
_0-6_08_DIM
  6
CONTINUOUS
 62
    3
 10
1019.285809672147
 20
1195.1429987812485
 11
1019.285809672147
 21
1168.337658347858
  0
LINE
  8
_0-6_08_DIM
  6
CONTINUOUS
 62
    3
 10
1006.7858096733838
 20
1172.087658347858
 11
999.28580967338394
 21
1172.087658347858
  0
LINE
  8
_0-6_08_DIM
  6
CONTINUOUS
 62
    3
 10
1026.785809672147
 20
1172.087658347858
 11
1044.035809672147
 21
1172.087658347858
  0
LINE
  8
_0-6_08_DIM
  6
CONTINUOUS
 62
    3
 10
1014.2858096733839
 20
1172.087658347858
 11
1019.285809672147
 21
1172.087658347858
  0
INSERT
  2
-002-_Open30
  8
_0-6_08_DIM
 10
1014.2858096733839
 20
1172.087658347858
 41
7.5
 42
7.5
 50
0
  0
INSERT
  2
-002-_Open30
  8
_0-6_08_DIM
 10
1019.285809672147
 20
1172.087658347858
 41
7.5
 42
7.5
 50
180
  0
LINE
  8
_0-6_08_DIM
  6
CONTINUOUS
 62
    3
 10
1169.2051228674377
 20
1197.0183647546878
 11
1087.9973654594855
 21
1197.0183647546878
  0
LINE
  8
_0-6_08_DIM
  6
CONTINUOUS
 62
    3
 10
1164.2051228674375
 20
1317.0179987799315
 11
1087.9973654594855
 21
1317.0179987799315
  0
LINE
  8
_0-6_08_DIM
  6
CONTINUOUS
 62
    3
 10
1091.7473654594855
 20
1204.5183647546878
 11
1091.7473654594855
 21
1309.5179987799315
  0
INSERT
  2
-002-_Open30
  8
_0-6_08_DIM
 10
1091.7473654594855
 20
1197.0183647546878
 41
7.5
 42
7.5
 50
270
  0
INSERT
  2
-002-_Open30
  8
_0-6_08_DIM
 10
1091.7473654594855
 20
1317.0179987799315
 41
7.5
 42
7.5
 50
90
  0
LINE
  8
_0-6_08_DIM
  6
CONTINUOUS
 62
    3
 10
1194.5801228706682
 20
1234.082660662451
 11
1194.5801228706682
 21
1134.3805544916372
  0
LINE
  8
_0-6_08_DIM
  6
CONTINUOUS
 62
    3
 10
1166.0801228674338
 20
1200.1433647546878
 11
1166.0801228674338
 21
1134.3805544916372
  0
LINE
  8
_0-6_08_DIM
  6
CONTINUOUS
 62
    3
 10
1166.0801228674338
 20
1138.1305544916372
 11
1127.8301228674338
 21
1138.1305544916372
  0
LINE
  8
_0-6_08_DIM
  6
CONTINUOUS
 62
    3
 10
1187.080122870668
 20
1138.1305544916372
 11
1173.5801228674341
 21
1138.1305544916372
  0
INSERT
  2
-002-_Open30
  8
_0-6_08_DIM
 10
1194.5801228706682
 20
1138.1305544916372
 41
7.5
 42
7.5
 50
0
  0
INSERT
  2
-002-_Open30
  8
_0-6_08_DIM
 10
1166.0801228674338
 20
1138.1305544916372
 41
7.5
 42
7.5
 50
180
  0
LINE
  8
_0-6_08_DIM
  6
CONTINUOUS
 62
    3
 10
1194.5801228706682
 20
1234.082660662451
 11
1194.5801228706682
 21
1134.3805544916372
  0
LINE
  8
_0-6_08_DIM
  6
CONTINUOUS
 62
    3
 10
3042.5801228688824
 20
1234.082660662451
 11
3042.5801228688824
 21
1134.3805544916372
  0
LINE
  8
_0-6_08_DIM
  6
CONTINUOUS
 62
    3
 10
1202.0801228706682
 20
1138.1305544916372
 11
3035.080122868882
 21
1138.1305544916372
  0
INSERT
  2
-002-_Open30
  8
_0-6_08_DIM
 10
1194.5801228706682
 20
1138.1305544916372
 41
7.5
 42
7.5
 50
180
  0
INSERT
  2
-002-_Open30
  8
_0-6_08_DIM
 10
3042.5801228688824
 20
1138.1305544916372
 41
7.5
 42
7.5
 50
0
  0
LINE
  8
_0-6_08_DIM
  6
CONTINUOUS
 62
    3
 10
1184.1447847532349
 20
1244.5179987798842
 11
1142.7041988472488
 21
1244.5179987798842
  0
LINE
  8
_0-6_08_DIM
  6
CONTINUOUS
 62
    3
 10
1184.1447847532349
 20
1259.5179987798845
 11
1142.7041988472488
 21
1259.5179987798845
  0
LINE
  8
_0-6_08_DIM
  6
CONTINUOUS
 62
    3
 10
1146.4541988472488
 20
1267.0179987798845
 11
1146.4541988472488
 21
1290.267998779884
  0
LINE
  8
_0-6_08_DIM
  6
CONTINUOUS
 62
    3
 10
1146.4541988472488
 20
1244.5179987798842
 11
1146.4541988472488
 21
1259.5179987798845
  0
LINE
  8
_0-6_08_DIM
  6
CONTINUOUS
 62
    3
 10
1146.4541988472488
 20
1237.0179987798842
 11
1146.4541988472488
 21
1229.5179987798842
  0
INSERT
  2
-002-_Open30
  8
_0-6_08_DIM
 10
1146.4541988472488
 20
1244.5179987798842
 41
7.5
 42
7.5
 50
90
  0
INSERT
  2
-002-_Open30
  8
_0-6_08_DIM
 10
1146.4541988472488
 20
1259.5179987798845
 41
7.5
 42
7.5
 50
270
  0
LINE
  8
_0-6_08_DIM
  6
CONTINUOUS
 62
    3
 10
1181.7051228706646
 20
1252.0179987798845
 11
1120.8441801636295
 21
1252.0179987798845
  0
LINE
  8
_0-6_08_DIM
  6
CONTINUOUS
 62
    3
 10
1169.2051228674377
 20
1197.0183647546878
 11
1120.8441801636295
 21
1197.0183647546878
  0
LINE
  8
_0-6_08_DIM
  6
CONTINUOUS
 62
    3
 10
1124.5941801636295
 20
1244.5179987798842
 11
1124.5941801636295
 21
1204.5183647546878
  0
INSERT
  2
-002-_Open30
  8
_0-6_08_DIM
 10
1124.5941801636295
 20
1252.0179987798845
 41
7.5
 42
7.5
 50
90
  0
INSERT
  2
-002-_Open30
  8
_0-6_08_DIM
 10
1124.5941801636295
 20
1197.0183647546878
 41
7.5
 42
7.5
 50
270
  0
LINE
  8
_0-6_08_DIM
  6
CONTINUOUS
 62
    3
 10
1189.5801228706682
 20
1242.6429987798806
 11
1189.5801228706682
 21
1159.9218890081061
  0
LINE
  8
_0-6_08_DIM
  6
CONTINUOUS
 62
    3
 10
1199.5801228706682
 20
1242.6429987798806
 11
1199.5801228706682
 21
1159.9218890081061
  0
LINE
  8
_0-6_08_DIM
  6
CONTINUOUS
 62
    3
 10
1207.080122870668
 20
1163.6718890081061
 11
1229.2051228706682
 21
1163.6718890081061
  0
LINE
  8
_0-6_08_DIM
  6
CONTINUOUS
 62
    3
 10
1189.5801228706682
 20
1163.6718890081061
 11
1199.5801228706682
 21
1163.6718890081061
  0
LINE
  8
_0-6_08_DIM
  6
CONTINUOUS
 62
    3
 10
1182.0801228706682
 20
1163.6718890081061
 11
1174.580122870668
 21
1163.6718890081061
  0
INSERT
  2
-002-_Open30
  8
_0-6_08_DIM
 10
1189.5801228706682
 20
1163.6718890081061
 41
7.5
 42
7.5
 50
0
  0
INSERT
  2
-002-_Open30
  8
_0-6_08_DIM
 10
1199.5801228706682
 20
1163.6718890081061
 41
7.5
 42
7.5
 50
180
  0
LINE
  8
_0-6_08_DIM
  6
CONTINUOUS
 62
    3
 10
1561.3756928004009
 20
1758.7721619160852
 11
1523.1409333887664
 21
1758.7721619160852
  0
LINE
  8
_0-6_08_DIM
  6
CONTINUOUS
 62
    3
 10
1561.3756928004009
 20
1697.7721619160852
 11
1523.1409333887664
 21
1697.7721619160852
  0
LINE
  8
_0-6_08_DIM
  6
CONTINUOUS
 62
    3
 10
1526.8909333887664
 20
1751.2721619160852
 11
1526.8909333887664
 21
1705.2721619160852
  0
INSERT
  2
-002-_Open30
  8
_0-6_08_DIM
 10
1526.8909333887664
 20
1758.7721619160852
 41
7.5
 42
7.5
 50
90
  0
INSERT
  2
-002-_Open30
  8
_0-6_08_DIM
 10
1526.8909333887664
 20
1697.7721619160852
 41
7.5
 42
7.5
 50
270
  0
LINE
  8
_0-6_08_DIM
  6
CONTINUOUS
 62
    3
 10
1575.1256928004007
 20
1707.7721619160855
 11
1626.1158659314099
 21
1707.7721619160855
  0
LINE
  8
_0-6_08_DIM
  6
CONTINUOUS
 62
    3
 10
1575.1256928004007
 20
1748.7721619160852
 11
1626.1158659314099
 21
1748.7721619160852
  0
LINE
  8
_0-6_08_DIM
  6
CONTINUOUS
 62
    3
 10
1622.3658659314101
 20
1715.2721619160855
 11
1622.3658659314101
 21
1741.272161916085
  0
INSERT
  2
-002-_Open30
  8
_0-6_08_DIM
 10
1622.3658659314101
 20
1707.7721619160855
 41
7.5
 42
7.5
 50
270
  0
INSERT
  2
-002-_Open30
  8
_0-6_08_DIM
 10
1622.3658659314101
 20
1748.7721619160852
 41
7.5
 42
7.5
 50
90
  0
LINE
  8
_0-6_08_DIM
  6
CONTINUOUS
 62
    3
 10
1562.3756928004009
 20
1768.272161916085
 11
1494.0754452378139
 21
1768.272161916085
  0
LINE
  8
_0-6_08_DIM
  6
CONTINUOUS
 62
    3
 10
1562.3756928004009
 20
1688.2721619160852
 11
1494.0754452378139
 21
1688.2721619160852
  0
LINE
  8
_0-6_08_DIM
  6
CONTINUOUS
 62
    3
 10
1497.8254452378137
 20
1760.7721619160855
 11
1497.8254452378137
 21
1695.7721619160852
  0
INSERT
  2
-002-_Open30
  8
_0-6_08_DIM
 10
1497.8254452378137
 20
1768.272161916085
 41
7.5
 42
7.5
 50
90
  0
INSERT
  2
-002-_Open30
  8
_0-6_08_DIM
 10
1497.8254452378137
 20
1688.2721619160852
 41
7.5
 42
7.5
 50
270
  0
LINE
  8
_0-6_08_DIM
  6
CONTINUOUS
 62
    3
 10
1568.2506928004009
 20
1760.6471619160852
 11
1568.2506928004009
 21
1808.6757784424251
  0
LINE
  8
_0-6_08_DIM
  6
CONTINUOUS
 62
    3
 10
1563.2506928004007
 20
1769.1471619160855
 11
1563.2506928004007
 21
1808.6757784424251
  0
LINE
  8
_0-6_08_DIM
  6
CONTINUOUS
 62
    3
 10
1575.7506928004009
 20
1804.9257784424246
 11
1583.2506928004009
 21
1804.9257784424246
  0
LINE
  8
_0-6_08_DIM
  6
CONTINUOUS
 62
    3
 10
1555.7506928004009
 20
1804.9257784424246
 11
1538.5006928004009
 21
1804.9257784424246
  0
LINE
  8
_0-6_08_DIM
  6
CONTINUOUS
 62
    3
 10
1568.2506928004009
 20
1804.9257784424246
 11
1563.2506928004007
 21
1804.9257784424246
  0
INSERT
  2
-002-_Open30
  8
_0-6_08_DIM
 10
1568.2506928004009
 20
1804.9257784424246
 41
7.5
 42
7.5
 50
180
  0
INSERT
  2
-002-_Open30
  8
_0-6_08_DIM
 10
1563.2506928004007
 20
1804.9257784424246
 41
7.5
 42
7.5
 50
0
  0
LINE
  8
_0-6_08_DIM
  6
CONTINUOUS
 62
    3
 10
1563.2506928004007
 20
1769.1471619160855
 11
1563.2506928004007
 21
1827.2464351913666
  0
LINE
  8
_0-6_08_DIM
  6
CONTINUOUS
 62
    3
 10
1573.2506928004009
 20
1769.1471619160855
 11
1573.2506928004009
 21
1827.2464351913666
  0
LINE
  8
_0-6_08_DIM
  6
CONTINUOUS
 62
    3
 10
1555.7506928004009
 20
1823.4964351913663
 11
1548.2506928004009
 21
1823.4964351913663
  0
LINE
  8
_0-6_08_DIM
  6
CONTINUOUS
 62
    3
 10
1580.7506928004009
 20
1823.4964351913663
 11
1602.5006928004009
 21
1823.4964351913663
  0
LINE
  8
_0-6_08_DIM
  6
CONTINUOUS
 62
    3
 10
1563.2506928004007
 20
1823.4964351913663
 11
1573.2506928004009
 21
1823.4964351913663
  0
INSERT
  2
-002-_Open30
  8
_0-6_08_DIM
 10
1563.2506928004007
 20
1823.4964351913663
 41
7.5
 42
7.5
 50
0
  0
INSERT
  2
-002-_Open30
  8
_0-6_08_DIM
 10
1573.2506928004009
 20
1823.4964351913663
 41
7.5
 42
7.5
 50
180
  0
LINE
  8
_0-6_08_DIM
  6
CONTINUOUS
 62
    3
 10
1558.4473919415013
 20
1683.4688610571857
 11
1515.6262904756702
 21
1640.6477595913543
  0
INSERT
  2
-002-_Open30
  8
_0-6_08_DIM
 10
1563.7506928004004
 20
1688.7721619160848
 41
7.5
 42
7.5
 50
45
  0
INSERT
  2
-003-AM_BALLOON1
  8
_0-6_08_DIM
 10
1218.4633980326262
 20
1854.8477979908637
 41
3.75
 42
3.75
 50
0
  0
TEXT
  8
_0-2_0
 62
    7
 10
1207.7491123183406
 20
1849.2227979908639
 40
11.250000000000002
 41
1
 50
0
  1
78
  0
LINE
  8
_0-6_08_DIM
  6
CONTINUOUS
 62
    3
 10
3042.5801228642072
 20
1234.082660662451
 11
3042.5801228642072
 21
1134.3805544916372
  0
LINE
  8
_0-6_08_DIM
  6
CONTINUOUS
 62
    3
 10
3071.0801228627629
 20
1200.1433647546878
 11
3071.0801228627629
 21
1134.3805544916372
  0
LINE
  8
_0-6_08_DIM
  6
CONTINUOUS
 62
    3
 10
3071.0801228627629
 20
1138.1305544916372
 11
3120.6426228627633
 21
1138.1305544916372
  0
LINE
  8
_0-6_08_DIM
  6
CONTINUOUS
 62
    3
 10
3050.0801228642072
 20
1138.1305544916372
 11
3063.5801228627633
 21
1138.1305544916372
  0
INSERT
  2
-002-_Open30
  8
_0-6_08_DIM
 10
3042.5801228642072
 20
1138.1305544916372
 41
7.5
 42
7.5
 50
180
  0
INSERT
  2
-002-_Open30
  8
_0-6_08_DIM
 10
3071.0801228627629
 20
1138.1305544916372
 41
7.5
 42
7.5
 50
0
  0
INSERT
  2
-003-AM_BALLOON1
  8
_0-6_08_DIM
 10
1021.5813263186006
 20
1459.286098292773
 41
3.75
 42
3.75
 50
0
  0
TEXT
  8
_0-2_0
 62
    7
 10
1010.8670406043149
 20
1453.661098292773
 40
11.250000000000002
 41
1
 50
0
  1
80
  0
LINE
  8
_0-6_08_DIM
  6
CONTINUOUS
 62
    3
 10
1020.6116348868987
 20
1318.3438239946311
 11
1058.2792877414934
 21
1356.011476847691
  0
LINE
  8
_0-6_08_DIM
  6
CONTINUOUS
 62
    3
 10
1014.2858096721469
 20
1313.8929987801368
 11
1014.2858096721469
 21
1374.2341721205028
  0
ARC
  8
_0-6_08_DIM
  6
CONTINUOUS
 62
    3
 10
1014.2858096721469
 20
1312.0179987801371
 40
58.466173340365458
 50
52.354911473048169
 51
82.645088525784601
  0
INSERT
  2
-002-_Open30
  8
_0-6_08_DIM
 10
1055.6276373119897
 20
1353.3598264182956
 41
7.5000000000000009
 42
7.5000000000000009
 50
318.67745573594038
  0
INSERT
  2
-002-_Open30
  8
_0-6_08_DIM
 10
1014.2858096721469
 20
1370.4841721205023
 41
7.5000000000000009
 42
7.5000000000000009
 50
176.32254426289228
  0
LINE
  8
_0-6_08_DIM
  6
CONTINUOUS
 62
    3
 10
2601.9265368712981
 20
1748.4109344163107
 11
2530.4768701055968
 21
1748.4109344163107
  0
LINE
  8
_0-6_08_DIM
  6
CONTINUOUS
 62
    3
 10
2601.926536871294
 20
1653.4109344163105
 11
2530.4768701055968
 21
1653.4109344163105
  0
LINE
  8
_0-6_08_DIM
  6
CONTINUOUS
 62
    3
 10
2534.2268701055964
 20
1740.9109344163107
 11
2534.2268701055964
 21
1660.9109344163105
  0
INSERT
  2
-002-_Open30
  8
_0-6_08_DIM
 10
2534.2268701055964
 20
1748.4109344163107
 41
7.5
 42
7.5
 50
90
  0
INSERT
  2
-002-_Open30
  8
_0-6_08_DIM
 10
2534.2268701055964
 20
1653.4109344163105
 41
7.5
 42
7.5
 50
270
  0
LINE
  8
_0-6_08_DIM
  6
CONTINUOUS
 62
    3
 10
2453.9666809387954
 20
1651.5359344163066
 11
2453.9666809387954
 21
1623.7359443410401
  0
LINE
  8
_0-6_08_DIM
  6
CONTINUOUS
 62
    3
 10
2458.9666809387923
 20
1651.5359344163066
 11
2458.9666809387923
 21
1623.7359443410401
  0
LINE
  8
_0-6_08_DIM
  6
CONTINUOUS
 62
    3
 10
2446.4666809387954
 20
1627.4859443410398
 11
2438.9666809387954
 21
1627.4859443410398
  0
LINE
  8
_0-6_08_DIM
  6
CONTINUOUS
 62
    3
 10
2466.4666809387913
 20
1627.4859443410398
 11
2483.7166809387918
 21
1627.4859443410398
  0
LINE
  8
_0-6_08_DIM
  6
CONTINUOUS
 62
    3
 10
2453.9666809387954
 20
1627.4859443410398
 11
2458.9666809387923
 21
1627.4859443410398
  0
INSERT
  2
-002-_Open30
  8
_0-6_08_DIM
 10
2453.9666809387954
 20
1627.4859443410398
 41
7.5
 42
7.5
 50
0
  0
INSERT
  2
-002-_Open30
  8
_0-6_08_DIM
 10
2458.9666809387923
 20
1627.4859443410398
 41
7.5
 42
7.5
 50
180
  0
LINE
  8
_0-6_08_DIM
  6
CONTINUOUS
 62
    3
 10
2618.426536874299
 20
1683.4109324127919
 11
2559.1499153785685
 21
1683.4109324127919
  0
LINE
  8
_0-6_08_DIM
  6
CONTINUOUS
 62
    3
 10
2601.926536871294
 20
1653.4109344163105
 11
2559.1499153785685
 21
1653.4109344163105
  0
LINE
  8
_0-6_08_DIM
  6
CONTINUOUS
 62
    3
 10
2562.8999153785685
 20
1675.9109324127919
 11
2562.8999153785685
 21
1660.9109344163105
  0
INSERT
  2
-002-_Open30
  8
_0-6_08_DIM
 10
2562.8999153785685
 20
1683.4109324127919
 41
7.5
 42
7.5
 50
90
  0
INSERT
  2
-002-_Open30
  8
_0-6_08_DIM
 10
2562.8999153785685
 20
1653.4109344163105
 41
7.5
 42
7.5
 50
270
  0
LINE
  8
_0-6_08_DIM
  6
CONTINUOUS
 62
    3
 10
2618.426536874299
 20
1678.4109324127919
 11
2583.4256193240312
 21
1678.4109324127919
  0
LINE
  8
_0-6_08_DIM
  6
CONTINUOUS
 62
    3
 10
2618.426536874299
 20
1688.4109324127921
 11
2583.4256193240312
 21
1688.4109324127921
  0
LINE
  8
_0-6_08_DIM
  6
CONTINUOUS
 62
    3
 10
2587.1756193240312
 20
1670.9109324127919
 11
2587.1756193240312
 21
1663.4109324127919
  0
LINE
  8
_0-6_08_DIM
  6
CONTINUOUS
 62
    3
 10
2587.1756193240312
 20
1695.9109324127919
 11
2587.1756193240312
 21
1717.6609324127919
  0
LINE
  8
_0-6_08_DIM
  6
CONTINUOUS
 62
    3
 10
2587.1756193240312
 20
1678.4109324127919
 11
2587.1756193240312
 21
1688.4109324127921
  0
INSERT
  2
-002-_Open30
  8
_0-6_08_DIM
 10
2587.1756193240312
 20
1678.4109324127919
 41
7.5
 42
7.5
 50
90
  0
INSERT
  2
-002-_Open30
  8
_0-6_08_DIM
 10
2587.1756193240312
 20
1688.4109324127921
 41
7.5
 42
7.5
 50
270
  0
LINE
  8
_0-6_08_DIM
  6
CONTINUOUS
 62
    3
 10
2601.8015368712972
 20
1748.2859344163103
 11
2601.8015368712972
 21
1785.1306000187374
  0
LINE
  8
_0-6_08_DIM
  6
CONTINUOUS
 62
    3
 10
2811.8015368712936
 20
1748.2859344163103
 11
2811.8015368712936
 21
1785.1306000187374
  0
LINE
  8
_0-6_08_DIM
  6
CONTINUOUS
 62
    3
 10
2609.3015368712972
 20
1781.3806000187369
 11
2804.3015368712936
 21
1781.3806000187369
  0
INSERT
  2
-002-_Open30
  8
_0-6_08_DIM
 10
2601.8015368712972
 20
1781.3806000187369
 41
7.5
 42
7.5
 50
180
  0
INSERT
  2
-002-_Open30
  8
_0-6_08_DIM
 10
2811.8015368712936
 20
1781.3806000187369
 41
7.5
 42
7.5
 50
0
  0
LINE
  8
_0-6_08_DIM
  6
CONTINUOUS
 62
    3
 10
2706.8015368744259
 20
1670.0359324127478
 11
2706.8015368744259
 21
1607.6461432390054
  0
LINE
  8
_0-6_08_DIM
  6
CONTINUOUS
 62
    3
 10
2786.8015368744259
 20
1670.0359324127478
 11
2786.8015368744259
 21
1607.6461432390054
  0
LINE
  8
_0-6_08_DIM
  6
CONTINUOUS
 62
    3
 10
2714.3015368744254
 20
1611.3961432390054
 11
2779.3015368744254
 21
1611.3961432390054
  0
INSERT
  2
-002-_Open30
  8
_0-6_08_DIM
 10
2706.8015368744259
 20
1611.3961432390054
 41
7.5
 42
7.5
 50
180
  0
INSERT
  2
-002-_Open30
  8
_0-6_08_DIM
 10
2786.8015368744259
 20
1611.3961432390054
 41
7.5
 42
7.5
 50
0
  0
LINE
  8
_0-6_08_DIM
  6
CONTINUOUS
 62
    3
 10
2626.8015368744732
 20
1670.035932412746
 11
2626.8015368744732
 21
1607.6461432390054
  0
LINE
  8
_0-6_08_DIM
  6
CONTINUOUS
 62
    3
 10
2706.8015368744259
 20
1670.0359324127478
 11
2706.8015368744259
 21
1607.6461432390054
  0
LINE
  8
_0-6_08_DIM
  6
CONTINUOUS
 62
    3
 10
2634.3015368744727
 20
1611.3961432390054
 11
2699.3015368744254
 21
1611.3961432390054
  0
INSERT
  2
-002-_Open30
  8
_0-6_08_DIM
 10
2626.8015368744732
 20
1611.3961432390054
 41
7.5
 42
7.5
 50
180
  0
INSERT
  2
-002-_Open30
  8
_0-6_08_DIM
 10
2706.8015368744259
 20
1611.3961432390054
 41
7.5
 42
7.5
 50
0
  0
LINE
  8
_0-6_08_DIM
  6
CONTINUOUS
 62
    3
 10
2623.3015368740766
 20
1676.535932412746
 11
2623.3015368740766
 21
1632.4528397623483
  0
LINE
  8
_0-6_08_DIM
  6
CONTINUOUS
 62
    3
 10
2630.3015368740766
 20
1676.535932412746
 11
2630.3015368740766
 21
1632.4528397623483
  0
LINE
  8
_0-6_08_DIM
  6
CONTINUOUS
 62
    3
 10
2615.8015368740766
 20
1636.2028397623485
 11
2608.3015368740762
 21
1636.2028397623485
  0
LINE
  8
_0-6_08_DIM
  6
CONTINUOUS
 62
    3
 10
2637.8015368740762
 20
1636.2028397623485
 11
2655.0515368740762
 21
1636.2028397623485
  0
LINE
  8
_0-6_08_DIM
  6
CONTINUOUS
 62
    3
 10
2623.3015368740766
 20
1636.2028397623485
 11
2630.3015368740766
 21
1636.2028397623485
  0
INSERT
  2
-002-_Open30
  8
_0-6_08_DIM
 10
2623.3015368740766
 20
1636.2028397623485
 41
7.5
 42
7.5
 50
0
  0
INSERT
  2
-002-_Open30
  8
_0-6_08_DIM
 10
2630.3015368740766
 20
1636.2028397623485
 41
7.5
 42
7.5
 50
180
  0
LINE
  8
_0-6_08_DIM
  6
CONTINUOUS
 62
    3
 10
2455.8416809388
 20
1748.4109344163107
 11
2498.3240349474299
 21
1748.4109344163107
  0
LINE
  8
_0-6_08_DIM
  6
CONTINUOUS
 62
    3
 10
2460.8416809388004
 20
1743.4109344163105
 11
2498.3240349474299
 21
1743.4109344163105
  0
LINE
  8
_0-6_08_DIM
  6
CONTINUOUS
 62
    3
 10
2494.5740349474304
 20
1755.9109344163107
 11
2494.5740349474304
 21
1763.4109344163107
  0
LINE
  8
_0-6_08_DIM
  6
CONTINUOUS
 62
    3
 10
2494.5740349474304
 20
1735.9109344163105
 11
2494.5740349474304
 21
1706.6609344163105
  0
LINE
  8
_0-6_08_DIM
  6
CONTINUOUS
 62
    3
 10
2494.5740349474304
 20
1748.4109344163107
 11
2494.5740349474304
 21
1743.4109344163105
  0
INSERT
  2
-002-_Open30
  8
_0-6_08_DIM
 10
2494.5740349474304
 20
1748.4109344163107
 41
7.5
 42
7.5
 50
270
  0
INSERT
  2
-002-_Open30
  8
_0-6_08_DIM
 10
2494.5740349474304
 20
1743.4109344163105
 41
7.5
 42
7.5
 50
90
  0
LINE
  8
_0-6_08_DIM
  6
CONTINUOUS
 62
    3
 10
2453.9666809387995
 20
1750.2859344163103
 11
2453.9666809388009
 21
1804.289298248777
  0
LINE
  8
_0-6_08_DIM
  6
CONTINUOUS
 62
    3
 10
2452.6408557240743
 20
1749.7367596310353
 11
2414.4547109512541
 21
1787.9229044038575
  0
ARC
  8
_0-6_08_DIM
  6
CONTINUOUS
 62
    3
 10
2453.9666809387995
 20
1748.4109344163103
 40
52.128363832466668
 50
98.250591731705356
 51
126.74940826829078
  0
INSERT
  2
-002-_Open30
  8
_0-6_08_DIM
 10
2453.9666809388009
 20
1800.5392982487772
 41
7.5000000000000009
 42
7.5000000000000009
 50
4.1252958658515917
  0
INSERT
  2
-002-_Open30
  8
_0-6_08_DIM
 10
2417.1063613807037
 20
1785.271253974408
 41
7.5
 42
7.5
 50
220.87470413414462
  0
INSERT
  2
-003-AM_BALLOON1
  8
_0-6_08_DIM
 10
2304.6587396835248
 20
1854.8477979908637
 41
3.75
 42
3.75
 50
0
  0
TEXT
  8
_0-2_0
 62
    7
 10
2294.2123111120964
 20
1849.2227979908639
 40
11.250000000000002
 41
1
 50
0
  1
79
  0
LINE
  8
_0-6_08_DIM
  6
CONTINUOUS
 62
    3
 10
1896.8568604432376
 20
1760.7923183151679
 11
1942.6433029179505
 21
1760.7923183151679
  0
LINE
  8
_0-6_08_DIM
  6
CONTINUOUS
 62
    3
 10
1896.8568604432376
 20
1699.7923183151679
 11
1942.6433029179505
 21
1699.7923183151679
  0
LINE
  8
_0-6_08_DIM
  6
CONTINUOUS
 62
    3
 10
1938.8933029179507
 20
1753.2923183151679
 11
1938.8933029179507
 21
1707.2923183151679
  0
INSERT
  2
-002-_Open30
  8
_0-6_08_DIM
 10
1938.8933029179507
 20
1760.7923183151679
 41
7.5
 42
7.5
 50
90
  0
INSERT
  2
-002-_Open30
  8
_0-6_08_DIM
 10
1938.8933029179507
 20
1699.7923183151679
 41
7.5
 42
7.5
 50
270
  0
LINE
  8
_0-6_08_DIM
  6
CONTINUOUS
 62
    3
 10
1884.1068604432373
 20
1780.292318322553
 11
1849.3732736158204
 21
1780.292318322553
  0
LINE
  8
_0-6_08_DIM
  6
CONTINUOUS
 62
    3
 10
1884.1068604432373
 20
1680.2923183151681
 11
1849.3732736158204
 21
1680.2923183151681
  0
LINE
  8
_0-6_08_DIM
  6
CONTINUOUS
 62
    3
 10
1853.1232736158208
 20
1772.792318322553
 11
1853.1232736158208
 21
1687.7923183151681
  0
INSERT
  2
-002-_Open30
  8
_0-6_08_DIM
 10
1853.1232736158208
 20
1780.292318322553
 41
7.5
 42
7.5
 50
90
  0
INSERT
  2
-002-_Open30
  8
_0-6_08_DIM
 10
1853.1232736158208
 20
1680.2923183151681
 41
7.5
 42
7.5
 50
270
  0
LINE
  8
_0-6_08_DIM
  6
CONTINUOUS
 62
    3
 10
1894.9818604432371
 20
1771.1673183151674
 11
1894.9818604432371
 21
1817.5926672612211
  0
LINE
  8
_0-6_08_DIM
  6
CONTINUOUS
 62
    3
 10
1884.9818604432371
 20
1771.1673183151674
 11
1884.9818604432371
 21
1817.5926672612211
  0
LINE
  8
_0-6_08_DIM
  6
CONTINUOUS
 62
    3
 10
1902.4818604432371
 20
1813.8426672612209
 11
1909.9818604432373
 21
1813.8426672612209
  0
LINE
  8
_0-6_08_DIM
  6
CONTINUOUS
 62
    3
 10
1877.4818604432373
 20
1813.8426672612209
 11
1855.7318604432371
 21
1813.8426672612209
  0
LINE
  8
_0-6_08_DIM
  6
CONTINUOUS
 62
    3
 10
1894.9818604432371
 20
1813.8426672612209
 11
1884.9818604432371
 21
1813.8426672612209
  0
INSERT
  2
-002-_Open30
  8
_0-6_08_DIM
 10
1894.9818604432371
 20
1813.8426672612209
 41
7.5
 42
7.5
 50
180
  0
INSERT
  2
-002-_Open30
  8
_0-6_08_DIM
 10
1884.9818604432371
 20
1813.8426672612209
 41
7.5
 42
7.5
 50
0
  0
LINE
  8
_0-6_08_DIM
  6
CONTINUOUS
 62
    3
 10
1880.1785595843382
 20
1675.4890174562679
 11
1837.3574581185067
 21
1632.6679159904363
  0
INSERT
  2
-002-_Open30
  8
_0-6_08_DIM
 10
1885.4818604432371
 20
1680.7923183151668
 41
7.5
 42
7.5
 50
44.99999999999995
  0
TEXT
  8
_0-7_07_TEXT
 62
    3
 10
3001.4444192171759
 20
863.22715907370582
 40
9
 41
1
 50
0
  1
注記
  0
TEXT
  8
_0-7_07_TEXT
 62
    3
 10
3002.1644192171757
 20
846.49015907370574
 40
9
 41
1
 50
0
  1
　指示なき角部は
  0
TEXT
  8
_0-7_07_TEXT
 62
    3
 10
3099.1394192171742
 20
846.49015907370574
 40
9
 41
1
 50
0
  1
C0.5
  0
TEXT
  8
_0-7_07_TEXT
 62
    3
 10
3129.5679906457462
 20
846.49015907370574
 40
9
 41
1
 50
0
  1
のこと
  0
TEXT
  8
_0-7_07_TEXT
 62
    3
 10
3011.1644192171757
 20
829.7081590737057
 40
9
 41
1
 50
0
  1
ジュラコンは白色のこと
  0
TEXT
  8
_0-6_08_DIM
 62
    3
 10
2100.7944085817217
 20
1366.3968453384953
 40
9
 41
1
 50
0
  1
1905
  0
TEXT
  8
_0-6_08_DIM
 62
    3
 10
988.59124203823797
 20
1276.2010344944226
 40
9
 41
1
 50
90
  1
(5)
  0
TEXT
  8
_0-6_08_DIM
 62
    3
 10
1034.8750953864328
 20
1173.962658347858
 40
9
 41
1
 50
0
  1
5
  0
TEXT
  8
_0-6_08_DIM
 62
    3
 10
1089.8723654594855
 20
1243.5181817673097
 40
9
 41
1
 50
90
  1
120
  0
TEXT
  8
_0-6_08_DIM
 62
    3
 10
1128.2051228674341
 20
1140.0118044916373
 40
9
 41
1
 50
0
  1
28.5
  0
TEXT
  8
_0-6_08_DIM
 62
    3
 10
2070.1515514412035
 20
1140.0055544916372
 40
9
 41
1
 50
0
  1
11x168=1848
  0
TEXT
  8
_0-6_08_DIM
 62
    3
 10
1144.5729488472489
 20
1273.1787130655985
 40
9
 41
1
 50
90
  1
15
  0
TEXT
  8
_0-6_08_DIM
 62
    3
 10
1122.7066801636295
 20
1215.9467531958576
 40
9
 41
1
 50
90
  1
55
  0
TEXT
  8
_0-6_08_DIM
 62
    3
 10
1212.6783371563824
 20
1165.5468890081061
 40
9
 41
1
 50
0
  1
10
  0
TEXT
  8
_0-6_08_DIM
 62
    3
 10
1525.0159333887661
 20
1716.9150190589428
 40
9
 41
1
 50
90
  1
?61
  0
TEXT
  8
_0-6_08_DIM
 62
    3
 10
1620.4908659314099
 20
1716.9150190589428
 40
9
 41
1
 50
90
  1
?41
  0
TEXT
  8
_0-6_08_DIM
 62
    3
 10
1495.9504452378135
 20
1715.6293047732286
 40
9
 41
1
 50
90
  1
?80
  0
TEXT
  8
_0-6_08_DIM
 62
    3
 10
1539.0899785146867
 20
1806.8007784424249
 40
9
 41
1
 50
0
  1
5
  0
TEXT
  8
_0-6_08_DIM
 62
    3
 10
1586.1614070861151
 20
1825.3714351913663
 40
9
 41
1
 50
0
  1
10
  0
TEXT
  8
_0-6_08_DIM
 62
    3
 10
1513.9595387771587
 20
1641.6326583222926
 40
9
 41
1
 50
45
  1
2-C1
  0
TEXT
  8
_0-6_08_DIM
 62
    3
 10
3078.6113728627629
 20
1141.5118044916373
 40
9
 41
1
 50
0
  1
(28.5)
  0
TEXT
  8
_0-6_08_DIM
 62
    3
 10
1027.8770078652044
 20
1371.7079204911402
 40
9
 41
1
 50
-22.500000000582993
  1
45°
  0
TEXT
  8
_0-6_08_DIM
 62
    3
 10
2532.3518701055968
 20
1692.3395058448814
 40
9
 41
1
 50
90
  1
95
  0
TEXT
  8
_0-6_08_DIM
 62
    3
 10
2474.5559666530776
 20
1629.3609443410398
 40
9
 41
1
 50
0
  1
5
  0
TEXT
  8
_0-6_08_DIM
 62
    3
 10
2561.024915378568
 20
1659.8395048431221
 40
9
 41
1
 50
90
  1
30
  0
TEXT
  8
_0-6_08_DIM
 62
    3
 10
2585.3006193240308
 20
1701.3216466985057
 40
9
 41
1
 50
90
  1
10
  0
TEXT
  8
_0-6_08_DIM
 62
    3
 10
2693.9443940141527
 20
1783.2556000187371
 40
9
 41
1
 50
0
  1
210
  0
TEXT
  8
_0-6_08_DIM
 62
    3
 10
2738.2301083029975
 20
1613.2711432390054
 40
9
 41
1
 50
0
  1
80
  0
TEXT
  8
_0-6_08_DIM
 62
    3
 10
2658.2301083030211
 20
1613.2711432390054
 40
9
 41
1
 50
0
  1
80
  0
TEXT
  8
_0-6_08_DIM
 62
    3
 10
2645.890822588362
 20
1638.0778397623483
 40
9
 41
1
 50
0
  1
7
  0
TEXT
  8
_0-6_08_DIM
 62
    3
 10
2491.1990349474299
 20
1707.2502201305954
 40
9
 41
1
 50
90
  1
(5)
  0
TEXT
  8
_0-6_08_DIM
 62
    3
 10
2423.7977274023015
 20
1794.3673645007041
 40
9
 41
1
 50
22.49999999999859
  1
45°
  0
TEXT
  8
_0-6_08_DIM
 62
    3
 10
1937.0183029179507
 20
1722.7923183151674
 40
9
 41
1
 50
90
  1
61
  0
TEXT
  8
_0-6_08_DIM
 62
    3
 10
1851.2482736158204
 20
1716.79231831886
 40
9
 41
1
 50
90
  1
100
  0
TEXT
  8
_0-6_08_DIM
 62
    3
 10
1853.6425747289511
 20
1815.7176672612211
 40
9
 41
1
 50
0
  1
10
  0
TEXT
  8
_0-6_08_DIM
 62
    3
 10
1835.6907064199954
 20
1633.6528147213749
 40
9
 41
1
 50
44.999999999999808
  1
2-C1
  0
TEXT
  8
_0-0_90_FRAME
 62
    3
 10
1134.8475747784014
 20
164.41447014493011
 40
9
 41
1
 50
0
  1
寺田
  0
TEXT
  8
_0-0_90_FRAME
 62
    3
 10
904.96275728629212
 20
164.41447014493011
 40
9
 41
0.6500000000000001
 50
0
  1
2013.09.01
  0
TEXT
  8
_0-0_90_FRAME
 62
    3
 10
964.93781932582465
 20
164.41447014493011
 40
9
 41
1
 50
0
  1
エアー抜き追加
  0
TEXT
  8
_0-a_
 62
    7
 10
1754.9605066363943
 20
144.06054674321967
 40
28.495492762395063
 41
1
 50
0
  1
A3　150%
  0
ENDSEC
  0
EOF
