  0
SECTION
  2
HEADER
  9
$ACADVER
  1
AC1009
  9
$INSBASE
 10
0
 20
0
 30
0
  9
$EXTMIN
 10
0
 20
0
  9
$EXTMAX
 10
5319.1586489804095
 20
3761.4050446361466
  9
$LIMMIN
 10
0
 20
0
  9
$LIMMAX
 10
5319.1586489804095
 20
3761.4050446361466
  9
$LTSCALE
 40
12.664663449953355
  0
ENDSEC
  0
SECTION
  2
TABLES
  0
TABLE
  2
LTYPE
 70
     9
  0
LTYPE
  2
CONTINUOUS
 70
    64
  3
Ä└É³
 72
    65
 73
     0
 40
0.0
  0
LTYPE
  2
DASHED1
 70
    64
  3
--  --  --  --  --  --  --  --  
 72
    65
 73
     2
 40
2.5
 49
1.25
 49
-1.25
  0
LTYPE
  2
DASHED2
 70
    64
  3
----    ----    ----    ----    
 72
    65
 73
     2
 40
5.0
 49
2.5
 49
-2.5
  0
LTYPE
  2
DASHED3
 70
    64
  3
------  ------  ------  ------  
 72
    65
 73
     2
 40
5.0
 49
3.75
 49
-1.25
  0
LTYPE
  2
CENTER1
 70
    64
  3
----- - ----- - ----- - ----- - 
 72
    65
 73
     4
 40
10.0
 49
6.25
 49
-1.25
 49
1.25
 49
-1.25
  0
LTYPE
  2
CENTER2
 70
    64
  3
----------  --  ----------  --  
 72
    65
 73
     4
 40
20.0
 49
12.5
 49
-2.5
 49
2.5
 49
-2.5
  0
LTYPE
  2
PHANTOM1
 70
    64
  3
--- - - --- - - --- - - --- - - 
 72
    65
 73
     6
 40
10.0
 49
3.25
 49
-1.25
 49
1.25
 49
-1.25
 49
1.25
 49
-1.25
  0
LTYPE
  2
PHANTOM2
 70
    64
  3
--------  -  -  --------  -  -  
 72
    65
 73
     6
 40
20.0
 49
10.0
 49
-2.5
 49
1.25
 49
-2.5
 49
1.25
 49
-2.5
  0
LTYPE
  2
DOT
 70
    64
  3
-   -   -   -   -   -   -   -   
 72
    65
 73
     2
 40
2.5
 49
0.625
 49
-1.875
  0
LTYPE
  2
DUMMY
 70
    64
  3
ā_ā~ü[
 72
    65
 73
     0
 40
0.0
  0
LTYPE
  2
RAND1
 70
    64
  3
āēāōā_āĆÉ³1
 72
    65
 73
     4
 40
10.0
 49
1.0
 49
-2.0
 49
3.0
 49
-4.0
  0
LTYPE
  2
RAND2
 70
    64
  3
āēāōā_āĆÉ³2
 72
    65
 73
     4
 40
14.0
 49
2.0
 49
-3.0
 49
4.0
 49
-5.0
  0
LTYPE
  2
RAND3
 70
    64
  3
āēāōā_āĆÉ³3
 72
    65
 73
     4
 40
18.0
 49
3.0
 49
-4.0
 49
5.0
 49
-6.0
  0
LTYPE
  2
RAND4
 70
    64
  3
āēāōā_āĆÉ³4
 72
    65
 73
     4
 40
22.0
 49
4.0
 49
-5.0
 49
6.0
 49
-7.0
  0
LTYPE
  2
RAND5
 70
    64
  3
āēāōā_āĆÉ³5
 72
    65
 73
     4
 40
26.0
 49
5.0
 49
-6.0
 49
7.0
 49
-8.0
  0
LTYPE
  2
LONG1
 70
    64
  3
----------  --  ----------  --  
 72
    65
 73
     4
 40
40.0
 49
32.5
 49
-2.5
 49
2.5
 49
-2.5
  0
LTYPE
  2
LONG2
 70
    64
  3
--------  -  -  --------  -  -  
 72
    65
 73
     6
 40
40.0
 49
30.0
 49
-2.5
 49
1.25
 49
-2.5
 49
1.25
 49
-2.5
  0
LTYPE
  2
LONG3
 70
    64
  3
+++++++++++++++..+++++++++++++++
 72
    65
 73
     2
 40
40.0
 49
37.5
 49
-2.5
  0
LTYPE
  2
LONG4
 70
    64
  3
+++++++++++++++..+++++++++++++++
 72
    65
 73
     2
 40
80.0
 49
75.0
 49
-5.0
  0
LTYPE
  2
LONG5
 70
    64
  3
----------  --  ----------  --  
 72
    65
 73
     4
 40
60.0
 49
37.5
 49
-7.5
 49
7.5
 49
-7.5
  0
LTYPE
  2
dashed
 70
   64
  3
-------   -------------   ------
 72
   65
 73
    2
 40
7.5
 49
6
 49
-1.5
  0
LTYPE
  2
dashed_spaced
 70
   64
  3
----        --------        ----
 72
   65
 73
    2
 40
12
 49
6
 49
-6
  0
LTYPE
  2
long_dashed_dotted
 70
   64
  3
------------- --- --------------
 72
   65
 73
    4
 40
15.25
 49
12
 49
-1.5
 49
0.25
 49
-1.5
  0
LTYPE
  2
long_dashed_double-dotted
 70
   64
  3
----------- --- --- ------------
 72
   65
 73
    6
 40
17
 49
12
 49
-1.5
 49
0.25
 49
-1.5
 49
0.25
 49
-1.5
  0
LTYPE
  2
long_dashed_triplicate-dotted
 70
   64
  3
--------- --- --- --- ----------
 72
   65
 73
    8
 40
18.75
 49
12
 49
-1.5
 49
0.25
 49
-1.5
 49
0.25
 49
-1.5
 49
0.25
 49
-1.5
  0
LTYPE
  2
dotted
 70
   64
  3
   -       -       -       -    
 72
   65
 73
    2
 40
1.75
 49
0.25
 49
-1.5
  0
LTYPE
  2
chain
 70
   64
  3
-------------- -- --------------
 72
   65
 73
    4
 40
18.5
 49
12
 49
-1.5
 49
3.5
 49
-1.5
  0
LTYPE
  2
chain_double_dash
 70
   64
  3
------------ -- -- -------------
 72
   65
 73
    6
 40
23.5
 49
12
 49
-1.5
 49
3.5
 49
-1.5
 49
3.5
 49
-1.5
  0
LTYPE
  2
dashed_dotted
 70
   64
  3
-----------     -     ----------
 72
   65
 73
    4
 40
9.25
 49
6
 49
-1.5
 49
0.25
 49
-1.5
  0
LTYPE
  2
double-dashed_dotted
 70
   64
  3
------   -----------   -   -----
 72
   65
 73
    6
 40
16.75
 49
6
 49
-1.5
 49
6
 49
-1.5
 49
0.25
 49
-1.5
  0
LTYPE
  2
dashed_double-dotted
 70
   64
  3
---------    -    -    ---------
 72
   65
 73
    6
 40
11
 49
6
 49
-1.5
 49
0.25
 49
-1.5
 49
0.25
 49
-1.5
  0
LTYPE
  2
double-dashed_double-dotted
 70
   64
  3
-----   ---------   -   -   ----
 72
   65
 73
    8
 40
18.5
 49
6
 49
-1.5
 49
6
 49
-1.5
 49
0.25
 49
-1.5
 49
0.25
 49
-1.5
  0
LTYPE
  2
dashed_triplicate-dotted
 70
   64
  3
-------    -    -    -    ------
 72
   65
 73
    8
 40
12.75
 49
6
 49
-1.5
 49
0.25
 49
-1.5
 49
0.25
 49
-1.5
 49
0.25
 49
-1.5
  0
LTYPE
  2
double-dashed_triplicate-dotted
 70
   64
  3
-----  ---------  -  -  -  -----
 72
   65
 73
   10
 40
20.25
 49
6
 49
-1.5
 49
6
 49
-1.5
 49
0.25
 49
-1.5
 49
0.25
 49
-1.5
 49
0.25
 49
-1.5
  0
LTYPE
  2
undefined
 70
   64
  3
--------------------------------
 72
   65
 73
    0
 40
0
  0
LTYPE
  2
_
 70
   64
  3
                                
 72
   65
 73
    0
 40
0
  0
LTYPE
  2
__18
 70
   64
  3
                                
 72
   65
 73
    0
 40
0
  0
LTYPE
  2
__19
 70
   64
  3
                                
 72
   65
 73
    0
 40
0
  0
LTYPE
  2
__20
 70
   64
  3
                                
 72
   65
 73
    0
 40
0
  0
LTYPE
  2
__21
 70
   64
  3
                                
 72
   65
 73
    0
 40
0
  0
LTYPE
  2
__22
 70
   64
  3
                                
 72
   65
 73
    0
 40
0
  0
LTYPE
  2
__23
 70
   64
  3
                                
 72
   65
 73
    0
 40
0
  0
LTYPE
  2
__24
 70
   64
  3
                                
 72
   65
 73
    0
 40
0
  0
LTYPE
  2
__25
 70
   64
  3
                                
 72
   65
 73
    0
 40
0
  0
LTYPE
  2
__26
 70
   64
  3
                                
 72
   65
 73
    0
 40
0
  0
LTYPE
  2
__27
 70
   64
  3
                                
 72
   65
 73
    0
 40
0
  0
LTYPE
  2
__28
 70
   64
  3
                                
 72
   65
 73
    0
 40
0
  0
LTYPE
  2
__29
 70
   64
  3
                                
 72
   65
 73
    0
 40
0
  0
LTYPE
  2
__30
 70
   64
  3
                                
 72
   65
 73
    0
 40
0
  0
LTYPE
  2
__31
 70
   64
  3
                                
 72
   65
 73
    0
 40
0
  0
LTYPE
  2
__32
 70
   64
  3
                                
 72
   65
 73
    0
 40
0
  0
ENDTAB
  0
TABLE
  2
STYLE
  5
3
100
AcDbSymbolTable
 70
     1
  0
STYLE
  5
10
100
AcDbSymbolTableRecord
100
AcDbTextStyleTableRecord
  2
STANDARD
 70
     0
 40
0.0
 41
1.0
 50
0.0
 71
     0
 42
0.2
  3
txt
  4
bigfont.shx
  0
STYLE
  5
26
100
AcDbSymbolTableRecord
100
AcDbTextStyleTableRecord
  2
TATEGAKI
 70
    68
 40
0.0
 41
1.0
 50
0.0
 71
     0
 42
1.0
  3
txt
  4
bigfont.shx
  0
ENDTAB
  0
TABLE
  2
LAYER
 70
    9
  0
LAYER
  2
_0-0_90_FRAME
 70
   64
 62
    7
  6
CONTINUOUS
  0
LAYER
  2
_0-1_91_BLANK
 70
   64
 62
    7
  6
CONTINUOUS
  0
LAYER
  2
_0-2_08_DIM
 70
   64
 62
    7
  6
CONTINUOUS
  0
LAYER
  2
_0-3_0
 70
   64
 62
    7
  6
CONTINUOUS
  0
LAYER
  2
_0-4_04_HIDDEN
 70
   64
 62
    7
  6
CONTINUOUS
  0
LAYER
  2
_0-5_05_CENTER
 70
   64
 62
    7
  6
CONTINUOUS
  0
LAYER
  2
_0-6_10_DRAFT
 70
   64
 62
    7
  6
CONTINUOUS
  0
LAYER
  2
_0-7_07_TEXT
 70
   64
 62
    7
  6
CONTINUOUS
  0
LAYER
  2
ADD_LINE
 70
   64
 62
    7
  6
CONTINUOUS
  0
ENDTAB
  0
ENDSEC
  0
SECTION
  2
BLOCKS
  0
BLOCK
  2
-000-Weld-line
 70
   64
 10
0
 20
0
 30
0
  0
LINE
  8
_0-2_08_DIM
  6
CONTINUOUS
 62
    3
 10
0
 20
0
 11
1
 21
0
  0
ENDBLK
  0
BLOCK
  2
-001-Weld10-s5
 70
   64
 10
0
 20
0
 30
0
  0
CIRCLE
  8
_0-2_08_DIM
  6
CONTINUOUS
 62
    3
 10
0
 20
0
 40
2
  0
ENDBLK
  0
BLOCK
  2
-002-Weld10-a1
 70
   64
 10
0
 20
0
 30
0
  0
LINE
  8
_0-2_08_DIM
  6
CONTINUOUS
 62
    3
 10
5
 20
0
 11
0
 21
5
  0
LINE
  8
_0-2_08_DIM
  6
CONTINUOUS
 62
    3
 10
0
 20
5
 11
0
 21
0
  0
LINE
  8
_0-2_08_DIM
  6
CONTINUOUS
 62
    3
 10
0
 20
0
 11
5
 21
0
  0
ENDBLK
  0
BLOCK
  2
-003-Jis_w20130906110600
 70
   64
 10
0
 20
0
 30
0
  0
INSERT
  2
-000-Weld-line
  8
_0-2_08_DIM
 10
0
 20
0
 41
14.000000000000002
 42
14.000000000000002
 50
0
  0
INSERT
  2
-001-Weld10-s5
  8
_0-2_08_DIM
 10
0
 20
0
 41
1
 42
1
 50
0
  0
INSERT
  2
-002-Weld10-a1
  8
_0-2_08_DIM
 10
6.0000000000000009
 20
0
 41
-1
 42
1
 50
180
  0
TEXT
  8
_0-2_08_DIM
 62
    3
 10
4.0000000000001146
 20
-1
 40
2.7999999999999998
 41
0.9000000000000001
 50
0
  1

  0
TEXT
  8
_0-2_08_DIM
 62
    3
 10
14.000000000000115
 20
-1
 40
2.7999999999999998
 41
0.9000000000000001
 50
0
  1

  0
LINE
  8
_0-2_08_DIM
  6
CONTINUOUS
 62
    3
 10
-4.6308054280802935
 20
-5.7653612299384349
 11
0
 21
0
  0
ENDBLK
  0
BLOCK
  2
-004-p1ba05
 70
   64
 10
0
 20
0
 30
0
  0
ARC
  8
_0-2_08_DIM
  6
CONTINUOUS
 62
    3
 10
0
 20
1.6206695983957433
 40
1.6206695983958537
 50
204.22763733453323
 51
335.57577857182139
  0
ARC
  8
_0-2_08_DIM
  6
CONTINUOUS
 62
    3
 10
-2.9535588745990822
 20
0.2854771617432377
 40
1.6206695983958537
 50
24.227637334533135
 51
155.57577857182133
  0
ENDBLK
  0
BLOCK
  2
-005-A$C448B04A9_1_1
 70
   64
 10
0
 20
0
 30
0
  0
LINE
  8
_0-4_04_HIDDEN
  6
CONTINUOUS
 62
    7
 10
0
 20
0
 11
100
 21
0
  0
ARC
  8
_0-4_04_HIDDEN
  6
CONTINUOUS
 62
    7
 10
95
 20
3.0000000000000004
 40
5
 50
0
 51
90
  0
LINE
  8
_0-4_04_HIDDEN
  6
CONTINUOUS
 62
    7
 10
100
 20
3.0000000000000004
 11
100
 21
0
  0
LINE
  8
_0-4_04_HIDDEN
  6
CONTINUOUS
 62
    7
 10
95
 20
8
 11
18.000000000000004
 21
8
  0
ARC
  8
_0-4_04_HIDDEN
  6
CONTINUOUS
 62
    7
 10
18.000000000000004
 20
18.000000000000004
 40
10
 50
180
 51
270
  0
LINE
  8
_0-4_04_HIDDEN
  6
CONTINUOUS
 62
    7
 10
8
 20
18.000000000000004
 11
8
 21
95
  0
ARC
  8
_0-4_04_HIDDEN
  6
CONTINUOUS
 62
    7
 10
3.0000000000000004
 20
95
 40
5
 50
0
 51
90
  0
LINE
  8
_0-4_04_HIDDEN
  6
CONTINUOUS
 62
    7
 10
3.0000000000000004
 20
100
 11
0
 21
100
  0
LINE
  8
_0-4_04_HIDDEN
  6
CONTINUOUS
 62
    7
 10
0
 20
0
 11
0
 21
100
  0
ENDBLK
  0
BLOCK
  2
-006-AM_BALLOON1
 70
   64
 10
0
 20
0
 30
0
  0
CIRCLE
  8
_0-2_08_DIM
  6
CONTINUOUS
 62
    3
 10
0
 20
0
 40
5
  0
ENDBLK
  0
BLOCK
  2
-007-_Open30
 70
   64
 10
0
 20
0
 30
0
  0
LINE
  8
_0-2_08_DIM
  6
CONTINUOUS
 62
    3
 10
-1
 20
0.26794919
 11
0
 21
0
  0
LINE
  8
_0-2_08_DIM
  6
CONTINUOUS
 62
    3
 10
0
 20
0
 11
-1
 21
-0.26794919
  0
LINE
  8
_0-2_08_DIM
  6
CONTINUOUS
 62
    3
 10
0
 20
0
 11
-1
 21
0
  0
ENDBLK
  0
ENDSEC
  0
SECTION
  2
ENTITIES
  0
TEXT
  8
_0-0_90_FRAME
 62
    7
 10
4021.1887175929614
 20
832.97677945453097
 40
20
 41
1
 50
0
  1
AT-221121-04-7
  0
TEXT
  8
_0-0_90_FRAME
 62
    7
 10
3884.2331693506858
 20
786.94175667195964
 40
20
 41
1
 50
0
  1
2025.03.25
  0
LINE
  8
_0-0_90_FRAME
  6
CONTINUOUS
 62
    5
 10
1158.5612159296991
 20
776.07830905085154
 11
4264.1333302061294
 21
776.07830905085154
  0
LINE
  8
_0-0_90_FRAME
  6
CONTINUOUS
 62
    5
 10
4264.1333302061294
 20
776.07830905085154
 11
4264.1333302061294
 21
2996.2938844706687
  0
LINE
  8
_0-0_90_FRAME
  6
CONTINUOUS
 62
    5
 10
4264.1333302061294
 20
2996.2938844706687
 11
1158.5612159296991
 21
2996.2938844706687
  0
LINE
  8
_0-0_90_FRAME
  6
CONTINUOUS
 62
    5
 10
1158.5612159296991
 20
2996.2938844706687
 11
1158.5612159296991
 21
776.07830905085154
  0
LINE
  8
_0-0_90_FRAME
  6
CONTINUOUS
 62
    5
 10
1003.1776045017643
 20
1886.1860967607602
 11
1158.5612159296991
 21
1886.1860967607602
  0
LINE
  8
_0-0_90_FRAME
  6
CONTINUOUS
 62
    5
 10
4315.9810444916338
 20
1886.1860967607602
 11
4264.1333302061294
 21
1886.1860967607602
  0
LINE
  8
_0-0_90_FRAME
  6
CONTINUOUS
 62
    5
 10
2711.3472730679136
 20
3056.1415987668693
 11
2711.3472730679141
 21
2996.2938844706687
  0
LINE
  8
_0-0_90_FRAME
  6
CONTINUOUS
 62
    5
 10
2711.3472730679141
 20
724.46239875616834
 11
2711.3472730679141
 21
776.07830905085154
  0
LINE
  8
_0-0_90_FRAME
  6
CONTINUOUS
 62
    5
 10
2312.5187016409504
 20
752.14859476522918
 11
3110.1758444948787
 21
752.14859476522918
  0
LINE
  8
_0-0_90_FRAME
  6
CONTINUOUS
 62
    5
 10
2312.5187016409504
 20
752.14859476522918
 11
2312.5187016409504
 21
776.07830905085154
  0
LINE
  8
_0-0_90_FRAME
  6
CONTINUOUS
 62
    5
 10
2392.284415926345
 20
752.14859476522918
 11
2392.284415926345
 21
776.07830905085154
  0
LINE
  8
_0-0_90_FRAME
  6
CONTINUOUS
 62
    5
 10
2472.05013021174
 20
752.14859476522918
 11
2472.05013021174
 21
776.07830905085154
  0
LINE
  8
_0-0_90_FRAME
  6
CONTINUOUS
 62
    5
 10
2551.8158444971245
 20
752.14859476522918
 11
2551.8158444971245
 21
776.07830905085154
  0
LINE
  8
_0-0_90_FRAME
  6
CONTINUOUS
 62
    5
 10
2631.5815587825196
 20
752.14859476522918
 11
2631.5815587825196
 21
776.07830905085154
  0
LINE
  8
_0-0_90_FRAME
  6
CONTINUOUS
 62
    5
 10
2791.1129873532986
 20
752.14859476522918
 11
2791.1129873532986
 21
776.07830905085154
  0
LINE
  8
_0-0_90_FRAME
  6
CONTINUOUS
 62
    5
 10
2870.8787016386937
 20
752.14859476522918
 11
2870.8787016386937
 21
776.07830905085154
  0
LINE
  8
_0-0_90_FRAME
  6
CONTINUOUS
 62
    5
 10
2950.6444159240882
 20
752.14859476522918
 11
2950.6444159240882
 21
776.07830905085154
  0
LINE
  8
_0-0_90_FRAME
  6
CONTINUOUS
 62
    5
 10
3030.4101302094832
 20
752.14859476522918
 11
3030.4101302094832
 21
776.07830905085154
  0
LINE
  8
_0-0_90_FRAME
  6
CONTINUOUS
 62
    5
 10
3110.1758444948787
 20
752.14859476522918
 11
3110.1758444948787
 21
776.07830905085154
  0
LINE
  8
_0-0_90_FRAME
  6
CONTINUOUS
 62
    4
 10
1908.1464130711554
 20
2996.2938844706687
 11
1908.1464130711554
 21
3048.1415987561613
  0
TEXT
  8
_0-0_90_FRAME
 62
    7
 10
1306.0177688136293
 20
3006.6206712175617
 40
16
 41
1
 50
0
  1
1
  0
TEXT
  8
_0-0_90_FRAME
 62
    7
 10
1501.2126497394474
 20
3006.6206712175617
 40
16
 41
1
 50
0
  1
2
  0
TEXT
  8
_0-0_90_FRAME
 62
    7
 10
1768.9462697383669
 20
3006.6206712175617
 40
16
 41
1
 50
0
  1
3
  0
TEXT
  8
_0-0_90_FRAME
 62
    7
 10
2036.6798897372767
 20
3006.6206712175617
 40
16
 41
1
 50
0
  1
4
  0
TEXT
  8
_0-0_90_FRAME
 62
    7
 10
2304.4135097362068
 20
3006.6206712175617
 40
16
 41
1
 50
0
  1
5
  0
TEXT
  8
_0-0_90_FRAME
 62
    7
 10
2572.1471297351159
 20
3006.6206712175617
 40
16
 41
1
 50
0
  1
6
  0
TEXT
  8
_0-0_90_FRAME
 62
    7
 10
2839.8807497340358
 20
3006.6206712175617
 40
16
 41
1
 50
0
  1
7
  0
TEXT
  8
_0-0_90_FRAME
 62
    7
 10
3107.6143697329553
 20
3006.6206712175617
 40
16
 41
1
 50
0
  1
8
  0
TEXT
  8
_0-0_90_FRAME
 62
    7
 10
3375.3479897318753
 20
3006.6206712175617
 40
16
 41
1
 50
0
  1
9
  0
TEXT
  8
_0-0_90_FRAME
 62
    7
 10
3639.0816097307952
 20
3006.6206712175617
 40
16
 41
1
 50
0
  1
10
  0
TEXT
  8
_0-0_90_FRAME
 62
    7
 10
3908.1485630630382
 20
3006.6206712175617
 40
16
 41
1
 50
0
  1
11
  0
TEXT
  8
_0-0_90_FRAME
 62
    7
 10
4173.2155163952912
 20
3006.6206712175617
 40
16
 41
1
 50
0
  1
12
  0
TEXT
  8
_0-0_90_FRAME
 62
    7
 10
4274.4403814523621
 20
2588.1582855078891
 40
16
 41
1
 50
0
  1
B
  0
LINE
  8
_0-0_90_FRAME
  6
CONTINUOUS
 62
   18
 10
1158.5612159296991
 20
776.07830905085154
 11
1566.5612159261293
 21
776.07830905085177
  0
LINE
  8
_0-0_90_FRAME
  6
CONTINUOUS
 62
   18
 10
1566.5612159261293
 20
776.07830905085177
 11
1566.5612159261293
 21
889.22116619324822
  0
LINE
  8
_0-0_90_FRAME
  6
CONTINUOUS
 62
   18
 10
1566.5612159261293
 20
889.22116619324822
 11
1158.5612159296991
 21
889.22116619324822
  0
LINE
  8
_0-0_90_FRAME
  6
CONTINUOUS
 62
   18
 10
1158.5612159296991
 20
889.22116619324822
 11
1158.5612159296991
 21
776.07830905085154
  0
LINE
  8
_0-0_90_FRAME
  6
CONTINUOUS
 62
   18
 10
1510.5612159261293
 20
776.07830905085154
 11
1510.5612159261293
 21
889.22116619324822
  0
LINE
  8
_0-0_90_FRAME
  6
CONTINUOUS
 62
   18
 10
1214.5612159261293
 20
776.07830905085154
 11
1214.5612159261293
 21
889.22116619324822
  0
LINE
  8
_0-0_90_FRAME
  6
CONTINUOUS
 62
   18
 10
1278.5612159261293
 20
776.07830905085154
 11
1278.5612159261293
 21
889.22116619324822
  0
LINE
  8
_0-0_90_FRAME
  6
CONTINUOUS
 62
   18
 10
1158.5612159296991
 20
860.93545190765451
 11
1566.5612159261293
 21
860.93545190765451
  0
LINE
  8
_0-0_90_FRAME
  6
CONTINUOUS
 62
   18
 10
1158.5612159296991
 20
832.64973762204636
 11
1566.5612159261293
 21
832.64973762204636
  0
LINE
  8
_0-0_90_FRAME
  6
CONTINUOUS
 62
   18
 10
1158.5612159296991
 20
804.36402333645265
 11
1566.5612159261293
 21
804.36402333645265
  0
TEXT
  8
_0-0_90_FRAME
 62
    7
 10
1172.5975795642778
 20
870.27830905045141
 40
9.5999999999999996
 41
1
 50
0
  1
ŗLŹå
  0
TEXT
  8
_0-0_90_FRAME
 62
    7
 10
1231.223674449162
 20
870.27830905045141
 40
9.5999999999999996
 41
1
 50
0
  1
ō·Ģt
  0
TEXT
  8
_0-0_90_FRAME
 62
    7
 10
1517.6157613806747
 20
870.27830905045141
 40
9.5999999999999996
 41
1
 50
0
  1
ŹņÉ¼Äę
  0
TEXT
  8
_0-0_90_FRAME
 62
    7
 10
1362.6339431988565
 20
870.11467268681508
 40
9.5999999999999996
 41
1
 50
0
  1
ē³Æ∙ōÓŚe
  0
LINE
  8
_0-0_90_FRAME
  6
CONTINUOUS
 62
   18
 10
1173.8326444993897
 20
807.36825525586335
 11
1186.561215927914
 21
829.41478767782564
  0
LINE
  8
_0-0_90_FRAME
  6
CONTINUOUS
 62
   18
 10
1186.561215927914
 20
829.41478767782564
 11
1199.2897873564314
 21
807.36825525586335
  0
LINE
  8
_0-0_90_FRAME
  6
CONTINUOUS
 62
   18
 10
1199.2897873564314
 20
807.36825525586335
 11
1173.8326444993897
 21
807.36825525586335
  0
TEXT
  8
_0-0_90_FRAME
 62
    7
 10
1183.8044356523633
 20
839.76424088525664
 40
8.4857142856800003
 41
1
 50
0
  1
1
  0
TEXT
  8
_0-0_90_FRAME
 62
    7
 10
1183.8044356523633
 20
811.47852659965554
 40
8.4857142856800003
 41
1
 50
0
  1
2
  0
TEXT
  8
_0-0_90_FRAME
 62
    7
 10
1183.8044356523633
 20
783.19281231405466
 40
8.4857142856800003
 41
1
 50
0
  1
3
  0
LINE
  8
_0-0_90_FRAME
  6
CONTINUOUS
 62
   18
 10
1173.8326444993897
 20
835.65396954146445
 11
1186.561215927914
 21
857.70050196343379
  0
LINE
  8
_0-0_90_FRAME
  6
CONTINUOUS
 62
   18
 10
1186.561215927914
 20
857.70050196343379
 11
1199.2897873564314
 21
835.65396954146445
  0
LINE
  8
_0-0_90_FRAME
  6
CONTINUOUS
 62
   18
 10
1199.2897873564314
 20
835.65396954146445
 11
1173.8326444993897
 21
835.65396954146445
  0
LINE
  8
_0-0_90_FRAME
  6
CONTINUOUS
 62
   18
 10
1173.8326444993897
 20
779.08254097026247
 11
1186.561215927914
 21
801.12907339223193
  0
LINE
  8
_0-0_90_FRAME
  6
CONTINUOUS
 62
   18
 10
1186.561215927914
 20
801.12907339223193
 11
1199.2897873564314
 21
779.08254097026247
  0
LINE
  8
_0-0_90_FRAME
  6
CONTINUOUS
 62
   18
 10
1199.2897873564314
 20
779.08254097026247
 11
1173.8326444993897
 21
779.08254097026247
  0
LINE
  8
_0-0_90_FRAME
  6
CONTINUOUS
 62
    4
 10
4315.9810444916338
 20
1318.2083457630567
 11
4264.1333302061294
 21
1318.2083457630567
  0
LINE
  8
_0-0_90_FRAME
  6
CONTINUOUS
 62
    4
 10
4315.9810444916338
 20
1602.1972212619085
 11
4264.1333302061294
 21
1602.1972212619085
  0
LINE
  8
_0-0_90_FRAME
  6
CONTINUOUS
 62
    4
 10
4315.9810444916338
 20
1034.219470264205
 11
4264.1333302061294
 21
1034.219470264205
  0
LINE
  8
_0-0_90_FRAME
  6
CONTINUOUS
 62
    4
 10
4315.9810444916338
 20
2454.1638477584634
 11
4264.1333302061294
 21
2454.1638477584634
  0
LINE
  8
_0-0_90_FRAME
  6
CONTINUOUS
 62
    4
 10
4315.9810444916338
 20
2170.1749722596119
 11
4264.1333302061294
 21
2170.1749722596119
  0
LINE
  8
_0-0_90_FRAME
  6
CONTINUOUS
 62
    4
 10
4315.9810444916338
 20
2738.1527232573158
 11
4264.1333302061294
 21
2738.1527232573158
  0
TEXT
  8
_0-0_90_FRAME
 62
    7
 10
4274.4403814523621
 20
2872.147161006741
 40
16
 41
1
 50
0
  1
A
  0
TEXT
  8
_0-0_90_FRAME
 62
    7
 10
4274.4403814523621
 20
2304.1694100090376
 40
16
 41
1
 50
0
  1
C
  0
TEXT
  8
_0-0_90_FRAME
 62
    7
 10
4274.4403814523621
 20
2020.1805345101861
 40
16
 41
1
 50
0
  1
D
  0
TEXT
  8
_0-0_90_FRAME
 62
    7
 10
4274.4403814523621
 20
1452.2027835124825
 40
16
 41
1
 50
0
  1
F
  0
TEXT
  8
_0-0_90_FRAME
 62
    7
 10
4274.4403814523621
 20
1168.213908013631
 40
16
 41
1
 50
0
  1
G
  0
TEXT
  8
_0-0_90_FRAME
 62
    7
 10
4274.4403814523621
 20
884.22503251477917
 40
16
 41
1
 50
0
  1
H
  0
TEXT
  8
_0-0_90_FRAME
 62
    7
 10
4274.4403814523621
 20
1736.1916590113344
 40
16
 41
1
 50
0
  1
E
  0
TEXT
  8
_0-0_90_FRAME
 62
    7
 10
1135.0069690205094
 20
2588.1582855078891
 40
16
 41
1
 50
0
  1
B
  0
LINE
  8
_0-0_90_FRAME
  6
CONTINUOUS
 62
    4
 10
1158.5612159296991
 20
1318.2083457630567
 11
1106.7135016442057
 21
1318.2083457630567
  0
LINE
  8
_0-0_90_FRAME
  6
CONTINUOUS
 62
    4
 10
1158.5612159296991
 20
1602.1972212619085
 11
1106.7135016442057
 21
1602.1972212619085
  0
LINE
  8
_0-0_90_FRAME
  6
CONTINUOUS
 62
    4
 10
1158.5612159296991
 20
1034.219470264205
 11
1106.7135016442057
 21
1034.219470264205
  0
LINE
  8
_0-0_90_FRAME
  6
CONTINUOUS
 62
    4
 10
1158.5612159296991
 20
2454.1638477584634
 11
1106.7135016442057
 21
2454.1638477584634
  0
LINE
  8
_0-0_90_FRAME
  6
CONTINUOUS
 62
    4
 10
1158.5612159296991
 20
2170.1749722596119
 11
1106.7135016442057
 21
2170.1749722596119
  0
LINE
  8
_0-0_90_FRAME
  6
CONTINUOUS
 62
    4
 10
1158.5612159296991
 20
2738.1527232573158
 11
1106.7135016442057
 21
2738.1527232573158
  0
TEXT
  8
_0-0_90_FRAME
 62
    7
 10
1135.0069690205094
 20
2872.147161006741
 40
16
 41
1
 50
0
  1
A
  0
TEXT
  8
_0-0_90_FRAME
 62
    7
 10
1135.0069690205094
 20
2304.1694100090376
 40
16
 41
1
 50
0
  1
C
  0
TEXT
  8
_0-0_90_FRAME
 62
    7
 10
1135.0069690205094
 20
2020.1805345101861
 40
16
 41
1
 50
0
  1
D
  0
TEXT
  8
_0-0_90_FRAME
 62
    7
 10
1135.0069690205094
 20
1452.2027835124825
 40
16
 41
1
 50
0
  1
F
  0
TEXT
  8
_0-0_90_FRAME
 62
    7
 10
1135.0069690205094
 20
1168.213908013631
 40
16
 41
1
 50
0
  1
G
  0
TEXT
  8
_0-0_90_FRAME
 62
    7
 10
1135.0069690205094
 20
1736.1916590113344
 40
16
 41
1
 50
0
  1
E
  0
TEXT
  8
_0-0_90_FRAME
 62
    7
 10
1135.0069690205094
 20
884.22503251477917
 40
16
 41
1
 50
0
  1
H
  0
LINE
  8
_0-0_90_FRAME
  6
CONTINUOUS
 62
    4
 10
1640.4127930722357
 20
2996.2938844706687
 11
1640.4127930722357
 21
3048.1415987561613
  0
LINE
  8
_0-0_90_FRAME
  6
CONTINUOUS
 62
    4
 10
1372.6791730733157
 20
2996.2938844706687
 11
1372.6791730733157
 21
3048.1415987561613
  0
LINE
  8
_0-0_90_FRAME
  6
CONTINUOUS
 62
    4
 10
2175.8800330700747
 20
2996.2938844706687
 11
2175.8800330700747
 21
3048.1415987561613
  0
LINE
  8
_0-0_90_FRAME
  6
CONTINUOUS
 62
    4
 10
2443.6136530689946
 20
2996.2938844706687
 11
2443.6136530689946
 21
3048.1415987561613
  0
LINE
  8
_0-0_90_FRAME
  6
CONTINUOUS
 62
    4
 10
3514.548133064663
 20
2996.2938844706687
 11
3514.548133064663
 21
3048.1415987561613
  0
LINE
  8
_0-0_90_FRAME
  6
CONTINUOUS
 62
    4
 10
3782.2817530635834
 20
2996.2938844706687
 11
3782.2817530635834
 21
3048.1415987561613
  0
LINE
  8
_0-0_90_FRAME
  6
CONTINUOUS
 62
    4
 10
4050.0153730625034
 20
2996.2938844706687
 11
4050.0153730625034
 21
3048.1415987561613
  0
LINE
  8
_0-0_90_FRAME
  6
CONTINUOUS
 62
    4
 10
3246.8145130657431
 20
2996.2938844706687
 11
3246.8145130657431
 21
3048.1415987561613
  0
LINE
  8
_0-0_90_FRAME
  6
CONTINUOUS
 62
    4
 10
2979.0808930668336
 20
2996.2938844706687
 11
2979.0808930668336
 21
3048.1415987561613
  0
LINE
  8
_0-0_90_FRAME
  6
CONTINUOUS
 62
    4
 10
1908.1464130711554
 20
724.46239875616834
 11
1908.1464130711554
 21
776.07830905085154
  0
LINE
  8
_0-0_90_FRAME
  6
CONTINUOUS
 62
    4
 10
1640.4127930722357
 20
724.46239875616834
 11
1640.4127930722357
 21
776.07830905085154
  0
LINE
  8
_0-0_90_FRAME
  6
CONTINUOUS
 62
    4
 10
1372.6791730733157
 20
724.46239875616834
 11
1372.6791730733157
 21
776.07830905085154
  0
LINE
  8
_0-0_90_FRAME
  6
CONTINUOUS
 62
    4
 10
2175.8800330700747
 20
724.46239875616834
 11
2175.8800330700747
 21
776.07830905085154
  0
LINE
  8
_0-0_90_FRAME
  6
CONTINUOUS
 62
    4
 10
3514.548133064663
 20
724.46239875616834
 11
3514.548133064663
 21
776.07830905085154
  0
LINE
  8
_0-0_90_FRAME
  6
CONTINUOUS
 62
    4
 10
3782.2817530635834
 20
724.46239875616834
 11
3782.2817530635834
 21
776.07830905085154
  0
LINE
  8
_0-0_90_FRAME
  6
CONTINUOUS
 62
    4
 10
4050.0153730625034
 20
724.46239875616834
 11
4050.0153730625034
 21
776.07830905085154
  0
LINE
  8
_0-0_90_FRAME
  6
CONTINUOUS
 62
    4
 10
3246.8145130657431
 20
724.46239875616834
 11
3246.8145130657431
 21
776.07830905085154
  0
LINE
  8
_0-1_91_BLANK
  6
CONTINUOUS
 62
    5
 10
1003.1776044887765
 20
724.46239875616834
 11
4315.9810444861287
 21
724.46239875616834
  0
LINE
  8
_0-1_91_BLANK
  6
CONTINUOUS
 62
    5
 10
4315.9810444861287
 20
724.46239875616834
 11
4315.9810444861287
 21
3056.1415987668693
  0
LINE
  8
_0-1_91_BLANK
  6
CONTINUOUS
 62
    5
 10
4315.9810444861287
 20
3056.1415987668693
 11
1003.1776044887765
 21
3056.1415987668693
  0
LINE
  8
_0-1_91_BLANK
  6
CONTINUOUS
 62
    5
 10
1003.1776044887765
 20
3056.1415987668693
 11
1003.1776044887765
 21
724.46239875616834
  0
LINE
  8
_0-0_90_FRAME
  6
CONTINUOUS
 62
   18
 10
3472.1333302093276
 20
776.07830905085154
 11
4264.1333302061294
 21
776.07830905085154
  0
LINE
  8
_0-0_90_FRAME
  6
CONTINUOUS
 62
   18
 10
4264.1333302061294
 20
776.07830905085154
 11
4264.1333302061294
 21
923.16402333597159
  0
LINE
  8
_0-0_90_FRAME
  6
CONTINUOUS
 62
   18
 10
4264.1333302061294
 20
923.16402333597159
 11
3472.1333302093276
 21
923.16402333597159
  0
LINE
  8
_0-0_90_FRAME
  6
CONTINUOUS
 62
   18
 10
3472.1333302093276
 20
923.16402333597159
 11
3472.1333302093276
 21
776.07830905085154
  0
LINE
  8
_0-0_90_FRAME
  6
CONTINUOUS
 62
   18
 10
3534.5033302090787
 20
897.70688047892997
 11
3574.1033302089177
 21
907.60688047889153
  0
LINE
  8
_0-0_90_FRAME
  6
CONTINUOUS
 62
   18
 10
3574.1033302089177
 20
907.60688047889153
 11
3574.1033302089177
 21
868.00688047905305
  0
LINE
  8
_0-0_90_FRAME
  6
CONTINUOUS
 62
   18
 10
3574.1033302089177
 20
868.00688047905305
 11
3534.5033302090787
 21
877.90688047901085
  0
LINE
  8
_0-0_90_FRAME
  6
CONTINUOUS
 62
   18
 10
3534.5033302090787
 20
877.90688047901085
 11
3534.5033302090787
 21
897.70688047892997
  0
CIRCLE
  8
_0-0_90_FRAME
  6
CONTINUOUS
 62
   18
 10
3508.7633302091795
 20
887.80688047896865
 40
9.8999999999600004
  0
CIRCLE
  8
_0-0_90_FRAME
  6
CONTINUOUS
 62
   18
 10
3508.7633302091795
 20
887.80688047896865
 40
19.799999999920001
  0
LINE
  8
_0-0_90_FRAME
  6
CONTINUOUS
 62
   18
 10
3485.0033302092752
 20
887.80688047896865
 11
3578.0633302088986
 21
887.80688047896865
  0
LINE
  8
_0-0_90_FRAME
  6
CONTINUOUS
 62
   18
 10
3508.7633302091795
 20
864.04688047906836
 11
3508.7633302091795
 21
911.56688047887599
  0
LINE
  8
_0-0_90_FRAME
  6
CONTINUOUS
 62
   18
 10
3796.5619016365281
 20
776.07830905085154
 11
3796.5619016365281
 21
923.16402333597159
  0
LINE
  8
_0-0_90_FRAME
  6
CONTINUOUS
 62
   18
 10
3796.5619016365281
 20
821.33545190781069
 11
4264.1333302061294
 21
821.33545190781069
  0
TEXT
  8
_0-0_90_FRAME
 62
    7
 10
3798.5900686662517
 20
807.26361092072273
 40
10
 41
1
 50
0
  1
Źņ É¼ ō·
  0
LINE
  8
_0-0_90_FRAME
  6
CONTINUOUS
 62
   18
 10
4073.1047587782864
 20
821.33545190781069
 11
4073.1047587782864
 21
776.07830905085154
  0
TEXT
  8
_0-0_90_FRAME
 62
    7
 10
4075.4796457658208
 20
806.98704718146416
 40
10
 41
1
 50
0
  1
ī┬Éö
  0
TEXT
  8
_0-0_90_FRAME
 62
    7
 10
3703.0416906061419
 20
910.05295099123339
 40
10
 41
1
 50
0
  1
āTāCāY
  0
TEXT
  8
_0-0_90_FRAME
 62
    7
 10
3592.7274048923036
 20
909.30713566160512
 40
10
 41
1
 50
0
  1
Ä┌ü@ōx
  0
TEXT
  8
_0-0_90_FRAME
 62
    7
 10
3703.0417515518179
 20
839.33866527723455
 40
10
 41
1
 50
0
  1
É╗ü@É}
  0
LINE
  8
_0-0_90_FRAME
  6
CONTINUOUS
 62
   18
 10
3796.5619016365281
 20
852.44973762196923
 11
3472.1333302093276
 21
852.44973762196923
  0
LINE
  8
_0-0_90_FRAME
  6
CONTINUOUS
 62
   18
 10
3947.6095039338011
 20
866.59259476476973
 11
4264.1333302061294
 21
866.59259476476973
  0
TEXT
  8
_0-0_90_FRAME
 62
    7
 10
3735.9098349217384
 20
869.42268903593003
 40
20
 41
1
 50
0
  1
A1
  0
LINE
  8
_0-0_90_FRAME
  6
CONTINUOUS
 62
   18
 10
3701.2476159226876
 20
776.07830905085154
 11
3701.2476159226876
 21
923.16402333597159
  0
TEXT
  8
_0-0_90_FRAME
 62
    2
 10
3542.114383044237
 20
791.64293100548207
 40
20
 41
1
 50
0
  1
āAāNāAāgāŖāĆ
  0
LINE
  8
_0-0_90_FRAME
  6
CONTINUOUS
 62
    4
 10
3535.961616861573
 20
842.76286073097742
 11
3535.961616861573
 21
783.5901465152142
  0
LINE
  8
_0-0_90_FRAME
  6
CONTINUOUS
 62
    4
 10
3535.961616861573
 20
783.5901465152142
 11
3482.1682403017885
 21
783.5901465152142
  0
LINE
  8
_0-0_90_FRAME
  6
CONTINUOUS
 62
    4
 10
3482.1682403017885
 20
783.5901465152142
 11
3482.1682403017885
 21
842.76286073097742
  0
LINE
  8
_0-0_90_FRAME
  6
CONTINUOUS
 62
    4
 10
3482.4243992377883
 20
842.50670179497638
 11
3482.4243992377883
 21
842.50670179497638
  0
LINE
  8
_0-0_90_FRAME
  6
CONTINUOUS
 62
    4
 10
3482.4243992377883
 20
842.50670179497638
 11
3482.5567146517983
 21
841.17225582209676
  0
LINE
  8
_0-0_90_FRAME
  6
CONTINUOUS
 62
    4
 10
3482.5567146517983
 20
841.17225582209676
 11
3482.9496405569289
 21
839.87835631484086
  0
LINE
  8
_0-0_90_FRAME
  6
CONTINUOUS
 62
    4
 10
3482.9496405569289
 20
839.87835631484086
 11
3483.5912380983823
 21
838.66431775499188
  0
LINE
  8
_0-0_90_FRAME
  6
CONTINUOUS
 62
    4
 10
3483.5912380983823
 20
838.66431775499188
 11
3484.4620126595255
 21
837.56702808985767
  0
LINE
  8
_0-0_90_FRAME
  6
CONTINUOUS
 62
    4
 10
3484.4620126595255
 20
837.56702808985767
 11
3485.5355061959517
 21
836.61982791065805
  0
LINE
  8
_0-0_90_FRAME
  6
CONTINUOUS
 62
    4
 10
3485.5355061959517
 20
836.61982791065805
 11
3486.7791011497707
 21
835.85149741553153
  0
LINE
  8
_0-0_90_FRAME
  6
CONTINUOUS
 62
    4
 10
3486.7791011497707
 20
835.85149741553153
 11
3488.1550115175996
 21
835.28538193777842
  0
LINE
  8
_0-0_90_FRAME
  6
CONTINUOUS
 62
    4
 10
3488.1550115175996
 20
835.28538193777842
 11
3489.621430959156
 21
834.93868260972226
  0
LINE
  8
_0-0_90_FRAME
  6
CONTINUOUS
 62
    4
 10
3489.621430959156
 20
834.93868260972226
 11
3491.133803061753
 21
834.82193371500739
  0
LINE
  8
_0-0_90_FRAME
  6
CONTINUOUS
 62
    4
 10
3491.133803061753
 20
834.82193371500739
 11
3492.6461751643501
 21
834.93868260972226
  0
LINE
  8
_0-0_90_FRAME
  6
CONTINUOUS
 62
    4
 10
3492.6461751643501
 20
834.93868260972226
 11
3494.1125946059065
 21
835.28538193777842
  0
LINE
  8
_0-0_90_FRAME
  6
CONTINUOUS
 62
    4
 10
3494.1125946059065
 20
835.28538193777842
 11
3495.4885049737354
 21
835.85149741553153
  0
LINE
  8
_0-0_90_FRAME
  6
CONTINUOUS
 62
    4
 10
3495.4885049737354
 20
835.85149741553153
 11
3496.7320999275544
 21
836.61982791065805
  0
LINE
  8
_0-0_90_FRAME
  6
CONTINUOUS
 62
    4
 10
3496.7320999275544
 20
836.61982791065805
 11
3497.8055934639806
 21
837.56702808985767
  0
LINE
  8
_0-0_90_FRAME
  6
CONTINUOUS
 62
    4
 10
3497.8055934639806
 20
837.56702808985767
 11
3498.6763680251238
 21
838.66431775499188
  0
LINE
  8
_0-0_90_FRAME
  6
CONTINUOUS
 62
    4
 10
3498.6763680251238
 20
838.66431775499188
 11
3499.3179655665772
 21
839.87835631484086
  0
LINE
  8
_0-0_90_FRAME
  6
CONTINUOUS
 62
    4
 10
3499.3179655665772
 20
839.87835631484086
 11
3499.7108914717078
 21
841.17225582209676
  0
LINE
  8
_0-0_90_FRAME
  6
CONTINUOUS
 62
    4
 10
3499.7108914717078
 20
841.17225582209676
 11
3499.8432068857178
 21
842.50670179497638
  0
LINE
  8
_0-0_90_FRAME
  6
CONTINUOUS
 62
    4
 10
3499.8432068857178
 20
842.50670179497638
 11
3499.8432068857178
 21
842.50670179497638
  0
ARC
  8
_0-0_90_FRAME
  6
CONTINUOUS
 62
    4
 10
3500.0993658217171
 20
842.50670179497638
 40
0.2561589359989651
 50
0
 51
180
  0
LINE
  8
_0-0_90_FRAME
  6
CONTINUOUS
 62
    4
 10
3500.355524757716
 20
842.50670179497638
 11
3500.355524757716
 21
842.50670179497638
  0
LINE
  8
_0-0_90_FRAME
  6
CONTINUOUS
 62
    4
 10
3500.355524757716
 20
842.50670179497638
 11
3500.487840171726
 21
841.17225582209676
  0
LINE
  8
_0-0_90_FRAME
  6
CONTINUOUS
 62
    4
 10
3500.487840171726
 20
841.17225582209676
 11
3500.8807660768566
 21
839.87835631484086
  0
LINE
  8
_0-0_90_FRAME
  6
CONTINUOUS
 62
    4
 10
3500.8807660768566
 20
839.87835631484086
 11
3501.52236361831
 21
838.66431775499188
  0
LINE
  8
_0-0_90_FRAME
  6
CONTINUOUS
 62
    4
 10
3501.52236361831
 20
838.66431775499188
 11
3502.3931381794532
 21
837.56702808985767
  0
LINE
  8
_0-0_90_FRAME
  6
CONTINUOUS
 62
    4
 10
3502.3931381794532
 20
837.56702808985767
 11
3503.4666317158794
 21
836.61982791065805
  0
LINE
  8
_0-0_90_FRAME
  6
CONTINUOUS
 62
    4
 10
3503.4666317158794
 20
836.61982791065805
 11
3504.7102266696984
 21
835.85149741553153
  0
LINE
  8
_0-0_90_FRAME
  6
CONTINUOUS
 62
    4
 10
3504.7102266696984
 20
835.85149741553153
 11
3506.0861370375274
 21
835.28538193777842
  0
LINE
  8
_0-0_90_FRAME
  6
CONTINUOUS
 62
    4
 10
3506.0861370375274
 20
835.28538193777842
 11
3507.5525564790837
 21
834.93868260972226
  0
LINE
  8
_0-0_90_FRAME
  6
CONTINUOUS
 62
    4
 10
3507.5525564790837
 20
834.93868260972226
 11
3509.0649285816808
 21
834.82193371500739
  0
LINE
  8
_0-0_90_FRAME
  6
CONTINUOUS
 62
    4
 10
3509.0649285816808
 20
834.82193371500739
 11
3510.5773006842778
 21
834.93868260972226
  0
LINE
  8
_0-0_90_FRAME
  6
CONTINUOUS
 62
    4
 10
3510.5773006842778
 20
834.93868260972226
 11
3512.0437201258342
 21
835.28538193777842
  0
LINE
  8
_0-0_90_FRAME
  6
CONTINUOUS
 62
    4
 10
3512.0437201258342
 20
835.28538193777842
 11
3513.4196304936631
 21
835.85149741553153
  0
LINE
  8
_0-0_90_FRAME
  6
CONTINUOUS
 62
    4
 10
3513.4196304936631
 20
835.85149741553153
 11
3514.6632254474821
 21
836.61982791065805
  0
LINE
  8
_0-0_90_FRAME
  6
CONTINUOUS
 62
    4
 10
3514.6632254474821
 20
836.61982791065805
 11
3515.7367189839083
 21
837.56702808985767
  0
LINE
  8
_0-0_90_FRAME
  6
CONTINUOUS
 62
    4
 10
3515.7367189839083
 20
837.56702808985767
 11
3516.6074935450515
 21
838.66431775499188
  0
LINE
  8
_0-0_90_FRAME
  6
CONTINUOUS
 62
    4
 10
3516.6074935450515
 20
838.66431775499188
 11
3517.2490910865049
 21
839.87835631484086
  0
LINE
  8
_0-0_90_FRAME
  6
CONTINUOUS
 62
    4
 10
3517.2490910865049
 20
839.87835631484086
 11
3517.6420169916355
 21
841.17225582209676
  0
LINE
  8
_0-0_90_FRAME
  6
CONTINUOUS
 62
    4
 10
3517.6420169916355
 20
841.17225582209676
 11
3517.7743324056455
 21
842.50670179497638
  0
LINE
  8
_0-0_90_FRAME
  6
CONTINUOUS
 62
    4
 10
3517.7743324056455
 20
842.50670179497638
 11
3517.7743324056455
 21
842.50670179497638
  0
ARC
  8
_0-0_90_FRAME
  6
CONTINUOUS
 62
    4
 10
3518.0304913416453
 20
842.50670179497638
 40
0.2561589359989651
 50
0
 51
180
  0
LINE
  8
_0-0_90_FRAME
  6
CONTINUOUS
 62
    4
 10
3518.2866502776451
 20
842.50670179497638
 11
3518.2866502776451
 21
842.50670179497638
  0
LINE
  8
_0-0_90_FRAME
  6
CONTINUOUS
 62
    4
 10
3518.2866502776451
 20
842.50670179497638
 11
3518.4189656916551
 21
841.17225582209676
  0
LINE
  8
_0-0_90_FRAME
  6
CONTINUOUS
 62
    4
 10
3518.4189656916551
 20
841.17225582209676
 11
3518.8118915967857
 21
839.87835631484086
  0
LINE
  8
_0-0_90_FRAME
  6
CONTINUOUS
 62
    4
 10
3518.8118915967857
 20
839.87835631484086
 11
3519.4534891382391
 21
838.66431775499188
  0
LINE
  8
_0-0_90_FRAME
  6
CONTINUOUS
 62
    4
 10
3519.4534891382391
 20
838.66431775499188
 11
3520.3242636993823
 21
837.56702808985767
  0
LINE
  8
_0-0_90_FRAME
  6
CONTINUOUS
 62
    4
 10
3520.3242636993823
 20
837.56702808985767
 11
3521.3977572358085
 21
836.61982791065805
  0
LINE
  8
_0-0_90_FRAME
  6
CONTINUOUS
 62
    4
 10
3521.3977572358085
 20
836.61982791065805
 11
3522.6413521896275
 21
835.85149741553153
  0
LINE
  8
_0-0_90_FRAME
  6
CONTINUOUS
 62
    4
 10
3522.6413521896275
 20
835.85149741553153
 11
3524.0172625574564
 21
835.28538193777842
  0
LINE
  8
_0-0_90_FRAME
  6
CONTINUOUS
 62
    4
 10
3524.0172625574564
 20
835.28538193777842
 11
3525.4836819990128
 21
834.93868260972226
  0
LINE
  8
_0-0_90_FRAME
  6
CONTINUOUS
 62
    4
 10
3525.4836819990128
 20
834.93868260972226
 11
3526.9960541016098
 21
834.82193371500739
  0
LINE
  8
_0-0_90_FRAME
  6
CONTINUOUS
 62
    4
 10
3526.9960541016098
 20
834.82193371500739
 11
3528.5084262042069
 21
834.93868260972226
  0
LINE
  8
_0-0_90_FRAME
  6
CONTINUOUS
 62
    4
 10
3528.5084262042069
 20
834.93868260972226
 11
3529.9748456457633
 21
835.28538193777842
  0
LINE
  8
_0-0_90_FRAME
  6
CONTINUOUS
 62
    4
 10
3529.9748456457633
 20
835.28538193777842
 11
3531.3507560135922
 21
835.85149741553153
  0
LINE
  8
_0-0_90_FRAME
  6
CONTINUOUS
 62
    4
 10
3531.3507560135922
 20
835.85149741553153
 11
3532.5943509674112
 21
836.61982791065805
  0
LINE
  8
_0-0_90_FRAME
  6
CONTINUOUS
 62
    4
 10
3532.5943509674112
 20
836.61982791065805
 11
3533.6678445038374
 21
837.56702808985767
  0
LINE
  8
_0-0_90_FRAME
  6
CONTINUOUS
 62
    4
 10
3533.6678445038374
 20
837.56702808985767
 11
3534.5386190649806
 21
838.66431775499188
  0
LINE
  8
_0-0_90_FRAME
  6
CONTINUOUS
 62
    4
 10
3534.5386190649806
 20
838.66431775499188
 11
3535.180216606434
 21
839.87835631484086
  0
LINE
  8
_0-0_90_FRAME
  6
CONTINUOUS
 62
    4
 10
3535.180216606434
 20
839.87835631484086
 11
3535.5731425115646
 21
841.17225582209676
  0
LINE
  8
_0-0_90_FRAME
  6
CONTINUOUS
 62
    4
 10
3535.5731425115646
 20
841.17225582209676
 11
3535.7054579255746
 21
842.50670179497638
  0
LINE
  8
_0-0_90_FRAME
  6
CONTINUOUS
 62
    4
 10
3535.7054579255746
 20
842.50670179497638
 11
3535.7054579255746
 21
842.50670179497638
  0
ARC
  8
_0-0_90_FRAME
  6
CONTINUOUS
 62
    4
 10
3535.961616861573
 20
842.50670179497638
 40
0.2561589359989651
 50
90
 51
180
  0
ARC
  8
_0-0_90_FRAME
  6
CONTINUOUS
 62
    4
 10
3500.0993658217171
 20
842.50670179497638
 40
0.2561589359989651
 50
0
 51
90
  0
ARC
  8
_0-0_90_FRAME
  6
CONTINUOUS
 62
    4
 10
3482.1682403017885
 20
842.50670179497638
 40
0.2561589359989651
 50
0
 51
90
  0
LINE
  8
_0-0_90_FRAME
  6
CONTINUOUS
 62
    4
 10
3488.3160547657658
 20
791.27491459518342
 11
3491.3899619977506
 21
791.27491459518342
  0
LINE
  8
_0-0_90_FRAME
  6
CONTINUOUS
 62
    4
 10
3491.3899619977506
 20
791.27491459518342
 11
3491.3899619977506
 21
788.20100736319682
  0
LINE
  8
_0-0_90_FRAME
  6
CONTINUOUS
 62
    4
 10
3491.3899619977506
 20
788.20100736319682
 11
3488.3160547657658
 21
788.20100736319682
  0
LINE
  8
_0-0_90_FRAME
  6
CONTINUOUS
 62
    4
 10
3488.3160547657658
 20
791.27491459518342
 11
3488.3160547657658
 21
788.20100736319682
  0
LINE
  8
_0-0_90_FRAME
  6
CONTINUOUS
 62
    4
 10
3529.8138023975966
 20
791.27491459518342
 11
3526.7398951656114
 21
791.27491459518342
  0
LINE
  8
_0-0_90_FRAME
  6
CONTINUOUS
 62
    4
 10
3526.7398951656114
 20
791.27491459518342
 11
3526.7398951656114
 21
788.20100736319682
  0
LINE
  8
_0-0_90_FRAME
  6
CONTINUOUS
 62
    4
 10
3526.7398951656114
 20
788.20100736319682
 11
3529.8138023975966
 21
788.20100736319682
  0
LINE
  8
_0-0_90_FRAME
  6
CONTINUOUS
 62
    4
 10
3529.8138023975966
 20
791.27491459518342
 11
3529.8138023975966
 21
788.20100736319682
  0
LINE
  8
_0-0_90_FRAME
  6
CONTINUOUS
 62
    4
 10
3496.000822845735
 20
791.27491459518342
 11
3499.0747300777198
 21
791.27491459518342
  0
LINE
  8
_0-0_90_FRAME
  6
CONTINUOUS
 62
    4
 10
3499.0747300777198
 20
791.27491459518342
 11
3499.0747300777198
 21
788.20100736319682
  0
LINE
  8
_0-0_90_FRAME
  6
CONTINUOUS
 62
    4
 10
3499.0747300777198
 20
788.20100736319682
 11
3496.000822845735
 21
788.20100736319682
  0
LINE
  8
_0-0_90_FRAME
  6
CONTINUOUS
 62
    4
 10
3496.000822845735
 20
791.27491459518342
 11
3496.000822845735
 21
788.20100736319682
  0
LINE
  8
_0-0_90_FRAME
  6
CONTINUOUS
 62
    4
 10
3503.6855909257042
 20
791.27491459518342
 11
3506.759498157689
 21
791.27491459518342
  0
LINE
  8
_0-0_90_FRAME
  6
CONTINUOUS
 62
    4
 10
3506.759498157689
 20
791.27491459518342
 11
3506.759498157689
 21
788.20100736319682
  0
LINE
  8
_0-0_90_FRAME
  6
CONTINUOUS
 62
    4
 10
3506.759498157689
 20
788.20100736319682
 11
3503.6855909257042
 21
788.20100736319682
  0
LINE
  8
_0-0_90_FRAME
  6
CONTINUOUS
 62
    4
 10
3503.6855909257042
 20
791.27491459518342
 11
3503.6855909257042
 21
788.20100736319682
  0
LINE
  8
_0-0_90_FRAME
  6
CONTINUOUS
 62
    4
 10
3511.3703590056734
 20
791.27491459518342
 11
3514.4442662376582
 21
791.27491459518342
  0
LINE
  8
_0-0_90_FRAME
  6
CONTINUOUS
 62
    4
 10
3514.4442662376582
 20
791.27491459518342
 11
3514.4442662376582
 21
788.20100736319682
  0
LINE
  8
_0-0_90_FRAME
  6
CONTINUOUS
 62
    4
 10
3514.4442662376582
 20
788.20100736319682
 11
3511.3703590056734
 21
788.20100736319682
  0
LINE
  8
_0-0_90_FRAME
  6
CONTINUOUS
 62
    4
 10
3511.3703590056734
 20
791.27491459518342
 11
3511.3703590056734
 21
788.20100736319682
  0
LINE
  8
_0-0_90_FRAME
  6
CONTINUOUS
 62
    4
 10
3519.0551270856422
 20
791.27491459518342
 11
3522.1290343176274
 21
791.27491459518342
  0
LINE
  8
_0-0_90_FRAME
  6
CONTINUOUS
 62
    4
 10
3522.1290343176274
 20
791.27491459518342
 11
3522.1290343176274
 21
788.20100736319682
  0
LINE
  8
_0-0_90_FRAME
  6
CONTINUOUS
 62
    4
 10
3522.1290343176274
 20
788.20100736319682
 11
3519.0551270856422
 21
788.20100736319682
  0
LINE
  8
_0-0_90_FRAME
  6
CONTINUOUS
 62
    4
 10
3519.0551270856422
 20
791.27491459518342
 11
3519.0551270856422
 21
788.20100736319682
  0
LINE
  8
_0-0_90_FRAME
  6
CONTINUOUS
 62
    4
 10
3509.033099314207
 20
820.52462218950632
 11
3509.033099314207
 21
820.52462218950632
  0
LINE
  8
_0-0_90_FRAME
  6
CONTINUOUS
 62
    4
 10
3509.033099314207
 20
820.52462218950632
 11
3508.9435918282593
 21
821.50321590295141
  0
LINE
  8
_0-0_90_FRAME
  6
CONTINUOUS
 62
    4
 10
3508.9435918282593
 20
821.50321590295141
 11
3508.6777890100825
 21
822.45207554160572
  0
LINE
  8
_0-0_90_FRAME
  6
CONTINUOUS
 62
    4
 10
3508.6777890100825
 20
822.45207554160572
 11
3508.2437671438051
 21
823.34237048549494
  0
LINE
  8
_0-0_90_FRAME
  6
CONTINUOUS
 62
    4
 10
3508.2437671438051
 20
823.34237048549494
 11
3507.6547137642083
 21
824.14704957326001
  0
LINE
  8
_0-0_90_FRAME
  6
CONTINUOUS
 62
    4
 10
3507.6547137642083
 20
824.14704957326001
 11
3506.9285269601551
 21
824.84166303800646
  0
LINE
  8
_0-0_90_FRAME
  6
CONTINUOUS
 62
    4
 10
3506.9285269601551
 20
824.84166303800646
 11
3506.0872715502192
 21
825.40510540109926
  0
LINE
  8
_0-0_90_FRAME
  6
CONTINUOUS
 62
    4
 10
3506.0872715502192
 20
825.40510540109926
 11
3505.1565086543346
 21
825.82025675145144
  0
LINE
  8
_0-0_90_FRAME
  6
CONTINUOUS
 62
    4
 10
3505.1565086543346
 20
825.82025675145144
 11
3504.1645190321051
 21
826.07450292535941
  0
LINE
  8
_0-0_90_FRAME
  6
CONTINUOUS
 62
    4
 10
3504.1645190321051
 20
826.07450292535941
 11
3503.1414437862309
 21
826.16011878148356
  0
LINE
  8
_0-0_90_FRAME
  6
CONTINUOUS
 62
    4
 10
3503.1414437862309
 20
826.16011878148356
 11
3502.1183685403566
 21
826.07450292535941
  0
LINE
  8
_0-0_90_FRAME
  6
CONTINUOUS
 62
    4
 10
3502.1183685403566
 20
826.07450292535941
 11
3501.1263789181271
 21
825.82025675145144
  0
LINE
  8
_0-0_90_FRAME
  6
CONTINUOUS
 62
    4
 10
3501.1263789181271
 20
825.82025675145144
 11
3500.1956160222426
 21
825.40510540109926
  0
LINE
  8
_0-0_90_FRAME
  6
CONTINUOUS
 62
    4
 10
3500.1956160222426
 20
825.40510540109926
 11
3499.3543606123067
 21
824.84166303800646
  0
LINE
  8
_0-0_90_FRAME
  6
CONTINUOUS
 62
    4
 10
3499.3543606123067
 20
824.84166303800646
 11
3498.6281738082535
 21
824.14704957326001
  0
LINE
  8
_0-0_90_FRAME
  6
CONTINUOUS
 62
    4
 10
3498.6281738082535
 20
824.14704957326001
 11
3498.0391204286566
 21
823.34237048549494
  0
LINE
  8
_0-0_90_FRAME
  6
CONTINUOUS
 62
    4
 10
3498.0391204286566
 20
823.34237048549494
 11
3497.6050985623792
 21
822.45207554160572
  0
LINE
  8
_0-0_90_FRAME
  6
CONTINUOUS
 62
    4
 10
3497.6050985623792
 20
822.45207554160572
 11
3497.3392957442024
 21
821.50321590295141
  0
LINE
  8
_0-0_90_FRAME
  6
CONTINUOUS
 62
    4
 10
3497.3392957442024
 20
821.50321590295141
 11
3497.2497882582547
 21
820.52462218950632
  0
LINE
  8
_0-0_90_FRAME
  6
CONTINUOUS
 62
    4
 10
3497.2497882582547
 20
820.52462218950632
 11
3497.2497882582547
 21
820.52462218950632
  0
LINE
  8
_0-0_90_FRAME
  6
CONTINUOUS
 62
    4
 10
3509.033099314207
 20
820.52462218950632
 11
3509.033099314207
 21
818.987668573512
  0
LINE
  8
_0-0_90_FRAME
  6
CONTINUOUS
 62
    4
 10
3506.253390755573
 20
814.20244059403387
 11
3506.253390755573
 21
814.20244059403387
  0
LINE
  8
_0-0_90_FRAME
  6
CONTINUOUS
 62
    4
 10
3506.253390755573
 20
814.20244059403387
 11
3505.3373968921378
 21
813.75824999222175
  0
LINE
  8
_0-0_90_FRAME
  6
CONTINUOUS
 62
    4
 10
3505.3373968921378
 20
813.75824999222175
 11
3504.3546801047851
 21
813.47295262778869
  0
LINE
  8
_0-0_90_FRAME
  6
CONTINUOUS
 62
    4
 10
3504.3546801047851
 20
813.47295262778869
 11
3503.3350997458206
 21
813.35521711678541
  0
LINE
  8
_0-0_90_FRAME
  6
CONTINUOUS
 62
    4
 10
3503.3350997458206
 20
813.35521711678541
 11
3502.3096352485181
 21
813.40862079313695
  0
LINE
  8
_0-0_90_FRAME
  6
CONTINUOUS
 62
    4
 10
3502.3096352485181
 20
813.40862079313695
 11
3501.3094448327192
 21
813.6315410131607
  0
LINE
  8
_0-0_90_FRAME
  6
CONTINUOUS
 62
    4
 10
3501.3094448327192
 20
813.6315410131607
 11
3500.3649187780861
 21
814.01720445877436
  0
LINE
  8
_0-0_90_FRAME
  6
CONTINUOUS
 62
    4
 10
3500.3649187780861
 20
814.01720445877436
 11
3499.5047560308362
 21
814.55389294133818
  0
LINE
  8
_0-0_90_FRAME
  6
CONTINUOUS
 62
    4
 10
3499.5047560308362
 20
814.55389294133818
 11
3498.7550922007813
 21
815.22529945288682
  0
LINE
  8
_0-0_90_FRAME
  6
CONTINUOUS
 62
    4
 10
3498.7550922007813
 20
815.22529945288682
 11
3498.1387054440493
 21
816.01102364631515
  0
LINE
  8
_0-0_90_FRAME
  6
CONTINUOUS
 62
    4
 10
3498.1387054440493
 20
816.01102364631515
 11
3497.6743243603364
 21
816.8871916896012
  0
LINE
  8
_0-0_90_FRAME
  6
CONTINUOUS
 62
    4
 10
3497.6743243603364
 20
816.8871916896012
 11
3497.3760589338835
 21
817.82718166011239
  0
LINE
  8
_0-0_90_FRAME
  6
CONTINUOUS
 62
    4
 10
3497.3760589338835
 20
817.82718166011239
 11
3497.252971808744
 21
818.80243243825248
  0
LINE
  8
_0-0_90_FRAME
  6
CONTINUOUS
 62
    4
 10
3497.252971808744
 20
818.80243243825248
 11
3497.2497882582547
 21
818.987668573512
  0
LINE
  8
_0-0_90_FRAME
  6
CONTINUOUS
 62
    4
 10
3506.8982302577219
 20
820.3739031818908
 11
3506.8982302577219
 21
819.14434028909591
  0
LINE
  8
_0-0_90_FRAME
  6
CONTINUOUS
 62
    4
 10
3520.9758959657383
 20
818.524270991143
 11
3520.9758959657383
 21
826.16011878148447
  0
LINE
  8
_0-0_90_FRAME
  6
CONTINUOUS
 62
    4
 10
3518.6704655417466
 20
818.987668573512
 11
3518.6704655417466
 21
826.16011878148447
  0
LINE
  8
_0-0_90_FRAME
  6
CONTINUOUS
 62
    4
 10
3518.6704655417466
 20
826.16011878148447
 11
3520.9758959657383
 21
826.16011878148447
  0
LINE
  8
_0-0_90_FRAME
  6
CONTINUOUS
 62
    4
 10
3510.2172206537807
 20
818.524270991143
 11
3510.2172206537807
 21
826.16011878148447
  0
LINE
  8
_0-0_90_FRAME
  6
CONTINUOUS
 62
    4
 10
3512.5226510777734
 20
818.987668573512
 11
3512.5226510777734
 21
826.16011878148447
  0
ARC
  8
_0-0_90_FRAME
  6
CONTINUOUS
 62
    4
 10
3515.6323645928837
 20
818.75596978233034
 40
5.4200985425585984
 50
182.45003099226136
 51
265.55525728852427
  0
LINE
  8
_0-0_90_FRAME
  6
CONTINUOUS
 62
    4
 10
3512.5226510777734
 20
826.16011878148447
 11
3510.2172206537807
 21
826.16011878148447
  0
LINE
  8
_0-0_90_FRAME
  6
CONTINUOUS
 62
    4
 10
3515.9807967137581
 20
813.35217198153578
 11
3515.2123199057623
 21
813.35217198153578
  0
ARC
  8
_0-0_90_FRAME
  6
CONTINUOUS
 62
    4
 10
3517.0956030825814
 20
818.92802837888803
 40
4.5733409003826422
 50
179.25279388138676
 51
218.96457184688023
  0
ARC
  8
_0-0_90_FRAME
  6
CONTINUOUS
 62
    4
 10
3514.097513536939
 20
818.92802837888803
 40
4.5733409003821279
 50
321.03542815311977
 51
0.747206118613265
  0
ARC
  8
_0-0_90_FRAME
  6
CONTINUOUS
 62
    4
 10
3515.5965583097618
 20
819.78706460275089
 40
4.2638625348001273
 50
241.15772780831895
 51
298.84227219168099
  0
LINE
  8
_0-0_90_FRAME
  6
CONTINUOUS
 62
    4
 10
3503.6379990366127
 20
816.74784299468899
 11
3504.6839535409395
 21
815.72987880715073
  0
LINE
  8
_0-0_90_FRAME
  6
CONTINUOUS
 62
    4
 10
3503.6379990366127
 20
816.74784299468899
 11
3504.7726442272265
 21
817.9526781651889
  0
LINE
  8
_0-0_90_FRAME
  6
CONTINUOUS
 62
    4
 10
3508.0343420961412
 20
812.46914848912229
 11
3509.5168681631094
 21
814.04338470097309
  0
LINE
  8
_0-0_90_FRAME
  6
CONTINUOUS
 62
    4
 10
3499.3846573147398
 20
820.3739031818908
 11
3499.3846573147398
 21
819.14434028909591
  0
LINE
  8
_0-0_90_FRAME
  6
CONTINUOUS
 62
    4
 10
3506.8982302577215
 20
820.3739031818908
 11
3506.8982302577215
 21
820.3739031818908
  0
LINE
  8
_0-0_90_FRAME
  6
CONTINUOUS
 62
    4
 10
3506.8982302577215
 20
820.3739031818908
 11
3506.8411562297665
 21
821.02281671691355
  0
LINE
  8
_0-0_90_FRAME
  6
CONTINUOUS
 62
    4
 10
3506.8411562297665
 20
821.02281671691355
 11
3506.6716683113591
 21
821.65201334254073
  0
LINE
  8
_0-0_90_FRAME
  6
CONTINUOUS
 62
    4
 10
3506.6716683113591
 20
821.65201334254073
 11
3506.3949163071356
 21
822.24237523769159
  0
LINE
  8
_0-0_90_FRAME
  6
CONTINUOUS
 62
    4
 10
3506.3949163071356
 20
822.24237523769159
 11
3506.0193091867009
 21
822.77596455491937
  0
LINE
  8
_0-0_90_FRAME
  6
CONTINUOUS
 62
    4
 10
3506.0193091867009
 20
822.77596455491937
 11
3505.556259582343
 21
823.23656845282937
  0
LINE
  8
_0-0_90_FRAME
  6
CONTINUOUS
 62
    4
 10
3505.556259582343
 20
823.23656845282937
 11
3505.0198370219764
 21
823.61019171506041
  0
LINE
  8
_0-0_90_FRAME
  6
CONTINUOUS
 62
    4
 10
3505.0198370219764
 20
823.61019171506041
 11
3504.4263404336539
 21
823.88548198785213
  0
LINE
  8
_0-0_90_FRAME
  6
CONTINUOUS
 62
    4
 10
3504.4263404336539
 20
823.88548198785213
 11
3503.7938029108891
 21
824.0540747155693
  0
LINE
  8
_0-0_90_FRAME
  6
CONTINUOUS
 62
    4
 10
3503.7938029108891
 20
824.0540747155693
 11
3503.1414437862309
 21
824.11084729349227
  0
LINE
  8
_0-0_90_FRAME
  6
CONTINUOUS
 62
    4
 10
3503.1414437862309
 20
824.11084729349227
 11
3502.4890846615726
 21
824.0540747155693
  0
LINE
  8
_0-0_90_FRAME
  6
CONTINUOUS
 62
    4
 10
3502.4890846615726
 20
824.0540747155693
 11
3501.8565471388079
 21
823.88548198785213
  0
LINE
  8
_0-0_90_FRAME
  6
CONTINUOUS
 62
    4
 10
3501.8565471388079
 20
823.88548198785213
 11
3501.2630505504853
 21
823.61019171506041
  0
LINE
  8
_0-0_90_FRAME
  6
CONTINUOUS
 62
    4
 10
3501.2630505504853
 20
823.61019171506041
 11
3500.7266279901187
 21
823.23656845282937
  0
LINE
  8
_0-0_90_FRAME
  6
CONTINUOUS
 62
    4
 10
3500.7266279901187
 20
823.23656845282937
 11
3500.2635783857609
 21
822.77596455491937
  0
LINE
  8
_0-0_90_FRAME
  6
CONTINUOUS
 62
    4
 10
3500.2635783857609
 20
822.77596455491937
 11
3499.8879712653261
 21
822.24237523769159
  0
LINE
  8
_0-0_90_FRAME
  6
CONTINUOUS
 62
    4
 10
3499.8879712653261
 20
822.24237523769159
 11
3499.6112192611026
 21
821.65201334254073
  0
LINE
  8
_0-0_90_FRAME
  6
CONTINUOUS
 62
    4
 10
3499.6112192611026
 20
821.65201334254073
 11
3499.4417313426952
 21
821.02281671691355
  0
LINE
  8
_0-0_90_FRAME
  6
CONTINUOUS
 62
    4
 10
3499.4417313426952
 20
821.02281671691355
 11
3499.3846573147403
 21
820.3739031818908
  0
LINE
  8
_0-0_90_FRAME
  6
CONTINUOUS
 62
    4
 10
3499.3846573147403
 20
820.3739031818908
 11
3499.3846573147403
 21
820.3739031818908
  0
LINE
  8
_0-0_90_FRAME
  6
CONTINUOUS
 62
    4
 10
3504.6839535409385
 20
815.72987880714993
 11
3504.6839535409385
 21
815.72987880714993
  0
LINE
  8
_0-0_90_FRAME
  6
CONTINUOUS
 62
    4
 10
3504.6839535409385
 20
815.72987880714993
 11
3504.0656851509621
 21
815.51513738169319
  0
LINE
  8
_0-0_90_FRAME
  6
CONTINUOUS
 62
    4
 10
3504.0656851509621
 20
815.51513738169319
 11
3503.4193341548066
 21
815.41048658009311
  0
LINE
  8
_0-0_90_FRAME
  6
CONTINUOUS
 62
    4
 10
3503.4193341548066
 20
815.41048658009311
 11
3502.7645396004214
 21
815.41910616400048
  0
LINE
  8
_0-0_90_FRAME
  6
CONTINUOUS
 62
    4
 10
3502.7645396004214
 20
815.41910616400048
 11
3502.121197088999
 21
815.54073423172019
  0
LINE
  8
_0-0_90_FRAME
  6
CONTINUOUS
 62
    4
 10
3502.121197088999
 20
815.54073423172019
 11
3501.5088542572025
 21
815.77167517596104
  0
LINE
  8
_0-0_90_FRAME
  6
CONTINUOUS
 62
    4
 10
3501.5088542572025
 20
815.77167517596104
 11
3500.9461168321154
 21
816.10491197299427
  0
LINE
  8
_0-0_90_FRAME
  6
CONTINUOUS
 62
    4
 10
3500.9461168321154
 20
816.10491197299427
 11
3500.45008330564
 21
816.53031939136793
  0
LINE
  8
_0-0_90_FRAME
  6
CONTINUOUS
 62
    4
 10
3500.45008330564
 20
816.53031939136793
 11
3500.0358254054731
 21
817.03497164194118
  0
LINE
  8
_0-0_90_FRAME
  6
CONTINUOUS
 62
    4
 10
3500.0358254054731
 20
817.03497164194118
 11
3499.715930148287
 21
817.60353512144684
  0
LINE
  8
_0-0_90_FRAME
  6
CONTINUOUS
 62
    4
 10
3499.715930148287
 20
817.60353512144684
 11
3499.5001173895962
 21
818.21873431626705
  0
LINE
  8
_0-0_90_FRAME
  6
CONTINUOUS
 62
    4
 10
3499.5001173895962
 20
818.21873431626705
 11
3499.3949444908671
 21
818.86187671017308
  0
LINE
  8
_0-0_90_FRAME
  6
CONTINUOUS
 62
    4
 10
3499.3949444908671
 20
818.86187671017308
 11
3499.3846525986469
 21
819.1383875811274
  0
LINE
  8
_0-0_90_FRAME
  6
CONTINUOUS
 62
    4
 10
3486.0127622278351
 20
813.35217198153578
 11
3488.3120993029311
 21
813.35217198153578
  0
LINE
  8
_0-0_90_FRAME
  6
CONTINUOUS
 62
    4
 10
3486.0127622278351
 20
813.35217198153578
 11
3486.0127622278351
 21
813.41365012617416
  0
LINE
  8
_0-0_90_FRAME
  6
CONTINUOUS
 62
    4
 10
3486.0127622278351
 20
813.41365012617416
 11
3490.8424840691746
 21
826.16011878148447
  0
LINE
  8
_0-0_90_FRAME
  6
CONTINUOUS
 62
    4
 10
3486.0127622278351
 20
813.35217198153578
 11
3486.0127622278351
 21
813.41365012617416
  0
LINE
  8
_0-0_90_FRAME
  6
CONTINUOUS
 62
    4
 10
3489.5656935733477
 20
816.72879640094595
 11
3494.2943737254732
 21
816.72879640094595
  0
LINE
  8
_0-0_90_FRAME
  6
CONTINUOUS
 62
    4
 10
3490.2589210415508
 20
818.67560431453728
 11
3493.6011462572728
 21
818.67560431453728
  0
LINE
  8
_0-0_90_FRAME
  6
CONTINUOUS
 62
    4
 10
3497.7960732837873
 20
813.35217198153578
 11
3495.4967362086945
 21
813.35217198153578
  0
LINE
  8
_0-0_90_FRAME
  6
CONTINUOUS
 62
    4
 10
3495.4967362086945
 20
813.35217198153578
 11
3494.2943737254732
 21
816.72879640094595
  0
LINE
  8
_0-0_90_FRAME
  6
CONTINUOUS
 62
    4
 10
3497.7960732837873
 20
813.41365012617416
 11
3492.9663514424478
 21
826.16011878148447
  0
LINE
  8
_0-0_90_FRAME
  6
CONTINUOUS
 62
    4
 10
3497.7960732837873
 20
813.35217198153578
 11
3497.7960732837873
 21
813.41365012617416
  0
LINE
  8
_0-0_90_FRAME
  6
CONTINUOUS
 62
    4
 10
3490.8424840691746
 20
826.16011878148447
 11
3492.9663514424478
 21
826.16011878148447
  0
LINE
  8
_0-0_90_FRAME
  6
CONTINUOUS
 62
    4
 10
3493.6011462572728
 20
818.67560431453728
 11
3491.9044177558112
 21
823.44056909937296
  0
LINE
  8
_0-0_90_FRAME
  6
CONTINUOUS
 62
    4
 10
3504.7726442272265
 20
817.9526781651889
 11
3509.5168681631094
 21
814.04338470097309
  0
LINE
  8
_0-0_90_FRAME
  6
CONTINUOUS
 62
    4
 10
3506.2533907555744
 20
814.20244059403501
 11
3508.0343420961412
 21
812.46914848912229
  0
LINE
  8
_0-0_90_FRAME
  6
CONTINUOUS
 62
    4
 10
3489.5656935733477
 20
816.72879640094595
 11
3490.2589210415508
 21
818.67560431453728
  0
LINE
  8
_0-0_90_FRAME
  6
CONTINUOUS
 62
    4
 10
3509.033099314207
 20
818.987668573512
 11
3509.033099314207
 21
818.987668573512
  0
LINE
  8
_0-0_90_FRAME
  6
CONTINUOUS
 62
    4
 10
3509.033099314207
 20
818.987668573512
 11
3508.9435918282593
 21
818.0090748600669
  0
LINE
  8
_0-0_90_FRAME
  6
CONTINUOUS
 62
    4
 10
3508.9435918282593
 20
818.0090748600669
 11
3508.6777890100825
 21
817.06021522141259
  0
LINE
  8
_0-0_90_FRAME
  6
CONTINUOUS
 62
    4
 10
3508.6777890100825
 20
817.06021522141259
 11
3508.2437671438051
 21
816.16992027752337
  0
LINE
  8
_0-0_90_FRAME
  6
CONTINUOUS
 62
    4
 10
3508.2437671438051
 20
816.16992027752337
 11
3507.7907873355898
 21
815.52627431585904
  0
LINE
  8
_0-0_90_FRAME
  6
CONTINUOUS
 62
    4
 10
3506.8982349738149
 20
819.1383875811274
 11
3506.8982349738149
 21
819.1383875811274
  0
LINE
  8
_0-0_90_FRAME
  6
CONTINUOUS
 62
    4
 10
3506.8982349738149
 20
819.1383875811274
 11
3506.8411608742117
 21
818.48926606927034
  0
LINE
  8
_0-0_90_FRAME
  6
CONTINUOUS
 62
    4
 10
3506.8411608742117
 20
818.48926606927034
 11
3506.6716727430371
 21
817.8598677860798
  0
LINE
  8
_0-0_90_FRAME
  6
CONTINUOUS
 62
    4
 10
3506.6716727430371
 20
817.8598677860798
 11
3506.3949203913921
 21
817.26931667989948
  0
LINE
  8
_0-0_90_FRAME
  6
CONTINUOUS
 62
    4
 10
3506.3949203913921
 20
817.26931667989948
 11
3506.1400623562249
 21
816.88649011938242
  0
LINE
  8
_0-0_90_FRAME
  6
CONTINUOUS
 62
    4
 10
3497.2497882582547
 20
820.52462218950632
 11
3497.2497882582547
 21
818.987668573512
  0
LINE
  8
_0-0_90_FRAME
  6
CONTINUOUS
 62
    4
 10
3488.3120993029311
 20
813.35217198153578
 11
3491.9044177558112
 21
823.44056909937296
  0
LINE
  8
_0-0_90_FRAME
  6
CONTINUOUS
 62
    4
 10
3520.8461017515706
 20
813.35217198153578
 11
3523.1454388266666
 21
813.35217198153578
  0
LINE
  8
_0-0_90_FRAME
  6
CONTINUOUS
 62
    4
 10
3520.8461017515706
 20
813.35217198153578
 11
3520.8461017515706
 21
813.41365012617416
  0
LINE
  8
_0-0_90_FRAME
  6
CONTINUOUS
 62
    4
 10
3520.8461017515706
 20
813.41365012617416
 11
3525.6758235929133
 21
826.16011878148447
  0
LINE
  8
_0-0_90_FRAME
  6
CONTINUOUS
 62
    4
 10
3520.8461017515706
 20
813.35217198153578
 11
3520.8461017515706
 21
813.41365012617416
  0
LINE
  8
_0-0_90_FRAME
  6
CONTINUOUS
 62
    4
 10
3524.399033097086
 20
816.72879640094595
 11
3529.1277132492119
 21
816.72879640094595
  0
LINE
  8
_0-0_90_FRAME
  6
CONTINUOUS
 62
    4
 10
3525.0922605652863
 20
818.67560431453728
 11
3528.4344857810111
 21
818.67560431453728
  0
LINE
  8
_0-0_90_FRAME
  6
CONTINUOUS
 62
    4
 10
3532.6294128075256
 20
813.35217198153578
 11
3530.33007573243
 21
813.35217198153578
  0
LINE
  8
_0-0_90_FRAME
  6
CONTINUOUS
 62
    4
 10
3530.33007573243
 20
813.35217198153578
 11
3529.1277132492119
 21
816.72879640094595
  0
LINE
  8
_0-0_90_FRAME
  6
CONTINUOUS
 62
    4
 10
3532.6294128075256
 20
813.41365012617416
 11
3527.7996909661861
 21
826.16011878148447
  0
LINE
  8
_0-0_90_FRAME
  6
CONTINUOUS
 62
    4
 10
3532.6294128075256
 20
813.35217198153578
 11
3532.6294128075256
 21
813.41365012617416
  0
LINE
  8
_0-0_90_FRAME
  6
CONTINUOUS
 62
    4
 10
3525.6758235929133
 20
826.16011878148447
 11
3527.7996909661861
 21
826.16011878148447
  0
LINE
  8
_0-0_90_FRAME
  6
CONTINUOUS
 62
    4
 10
3528.4344857810111
 20
818.67560431453728
 11
3526.7377572795494
 21
823.44056909937296
  0
LINE
  8
_0-0_90_FRAME
  6
CONTINUOUS
 62
    4
 10
3524.399033097086
 20
816.72879640094595
 11
3525.0922605652863
 21
818.67560431453728
  0
LINE
  8
_0-0_90_FRAME
  6
CONTINUOUS
 62
    4
 10
3523.1454388266666
 20
813.35217198153578
 11
3526.7377572795494
 21
823.44056909937296
  0
ARC
  8
_0-0_90_FRAME
  6
CONTINUOUS
 62
    4
 10
3515.5607520266362
 20
818.75596978233034
 40
5.4200985425585984
 50
274.44474271147573
 51
357.5499690077387
  0
LINE
  8
_0-0_90_FRAME
  6
CONTINUOUS
 62
    4
 10
3506.1400623562272
 20
816.88649011938423
 11
3507.7907873355916
 21
815.5262743158595
  0
LINE
  8
_0-0_90_FRAME
  6
CONTINUOUS
 62
    4
 10
3507.0366284254928
 20
804.2841168952317
 11
3507.0366284254928
 21
804.2841168952317
  0
LINE
  8
_0-0_90_FRAME
  6
CONTINUOUS
 62
    4
 10
3507.0366284254928
 20
804.2841168952317
 11
3507.6823021383907
 21
804.5451301415568
  0
LINE
  8
_0-0_90_FRAME
  6
CONTINUOUS
 62
    4
 10
3507.6823021383907
 20
804.5451301415568
 11
3508.2625414997838
 21
804.89353571417075
  0
LINE
  8
_0-0_90_FRAME
  6
CONTINUOUS
 62
    4
 10
3508.2625414997838
 20
804.89353571417075
 11
3508.7597162302914
 21
805.31874748605128
  0
LINE
  8
_0-0_90_FRAME
  6
CONTINUOUS
 62
    4
 10
3508.7597162302914
 20
805.31874748605128
 11
3509.1587199273104
 21
805.80784561267751
  0
LINE
  8
_0-0_90_FRAME
  6
CONTINUOUS
 62
    4
 10
3509.1587199273104
 20
805.80784561267751
 11
3509.4474290654116
 21
806.34596909496724
  0
LINE
  8
_0-0_90_FRAME
  6
CONTINUOUS
 62
    4
 10
3509.4474290654116
 20
806.34596909496724
 11
3509.6170713635283
 21
806.91676732321503
  0
LINE
  8
_0-0_90_FRAME
  6
CONTINUOUS
 62
    4
 10
3509.6170713635283
 20
806.91676732321503
 11
3509.6624923262752
 21
807.50289688209318
  0
LINE
  8
_0-0_90_FRAME
  6
CONTINUOUS
 62
    4
 10
3509.6624923262752
 20
807.50289688209318
 11
3509.5823118606831
 21
808.08654852155109
  0
LINE
  8
_0-0_90_FRAME
  6
CONTINUOUS
 62
    4
 10
3509.5823118606831
 20
808.08654852155109
 11
3509.378966209626
 21
808.64998828186583
  0
LINE
  8
_0-0_90_FRAME
  6
CONTINUOUS
 62
    4
 10
3509.378966209626
 20
808.64998828186583
 11
3509.0586339278134
 21
809.1760963310345
  0
LINE
  8
_0-0_90_FRAME
  6
CONTINUOUS
 62
    4
 10
3509.0586339278134
 20
809.1760963310345
 11
3508.631048149532
 21
809.6488871422066
  0
LINE
  8
_0-0_90_FRAME
  6
CONTINUOUS
 62
    4
 10
3508.631048149532
 20
809.6488871422066
 11
3508.1092008522864
 21
810.05399520582853
  0
LINE
  8
_0-0_90_FRAME
  6
CONTINUOUS
 62
    4
 10
3508.1092008522864
 20
810.05399520582853
 11
3507.5089481021355
 21
810.37911151838148
  0
LINE
  8
_0-0_90_FRAME
  6
CONTINUOUS
 62
    4
 10
3507.5089481021355
 20
810.37911151838148
 11
3506.8485282751508
 21
810.61435758522555
  0
LINE
  8
_0-0_90_FRAME
  6
CONTINUOUS
 62
    4
 10
3506.8485282751508
 20
810.61435758522555
 11
3506.1480078935856
 21
810.75258557365964
  0
LINE
  8
_0-0_90_FRAME
  6
CONTINUOUS
 62
    4
 10
3506.1480078935856
 20
810.75258557365964
 11
3505.5287579142509
 21
810.79058262154513
  0
LINE
  8
_0-0_90_FRAME
  6
CONTINUOUS
 62
    4
 10
3514.4240280399949
 20
800.03190730958829
 11
3514.4240280399949
 21
808.74131113355315
  0
LINE
  8
_0-0_90_FRAME
  6
CONTINUOUS
 62
    4
 10
3512.1185976160027
 20
800.03190730958829
 11
3512.1185976160027
 21
808.74131113355315
  0
LINE
  8
_0-0_90_FRAME
  6
CONTINUOUS
 62
    4
 10
3511.8624386800016
 20
810.79058262154604
 11
3514.6801869759925
 21
810.79058262154604
  0
LINE
  8
_0-0_90_FRAME
  6
CONTINUOUS
 62
    4
 10
3499.6371023862794
 20
810.79058262154604
 11
3499.6371023862794
 21
797.98263582159723
  0
LINE
  8
_0-0_90_FRAME
  6
CONTINUOUS
 62
    4
 10
3511.8624386800016
 20
797.98263582159723
 11
3514.6801869759925
 21
797.98263582159723
  0
LINE
  8
_0-0_90_FRAME
  6
CONTINUOUS
 62
    4
 10
3514.6801869759925
 20
797.98263582159723
 11
3514.6801869759925
 21
799.77574837359077
  0
ARC
  8
_0-0_90_FRAME
  6
CONTINUOUS
 62
    4
 10
3514.6801869759925
 20
800.03190730958829
 40
0.2561589359989651
 50
180
 51
270
  0
LINE
  8
_0-0_90_FRAME
  6
CONTINUOUS
 62
    4
 10
3511.8624386800016
 20
797.98263582159723
 11
3511.8624386800016
 21
799.77574837359077
  0
ARC
  8
_0-0_90_FRAME
  6
CONTINUOUS
 62
    4
 10
3511.8624386800016
 20
800.03190730958829
 40
0.2561589359989651
 50
270
 51
0
  0
LINE
  8
_0-0_90_FRAME
  6
CONTINUOUS
 62
    4
 10
3514.6801869759925
 20
810.79058262154604
 11
3514.6801869759925
 21
808.99747006955249
  0
ARC
  8
_0-0_90_FRAME
  6
CONTINUOUS
 62
    4
 10
3514.6801869759925
 20
808.74131113355315
 40
0.2561589359989651
 50
90
 51
180
  0
LINE
  8
_0-0_90_FRAME
  6
CONTINUOUS
 62
    4
 10
3511.8624386800016
 20
810.79058262154604
 11
3511.8624386800016
 21
808.99747006955249
  0
ARC
  8
_0-0_90_FRAME
  6
CONTINUOUS
 62
    4
 10
3511.8624386800016
 20
808.74131113355315
 40
0.2561589359989651
 50
0
 51
90
  0
LINE
  8
_0-0_90_FRAME
  6
CONTINUOUS
 62
    4
 10
3494.0784950946631
 20
797.98263582159723
 11
3494.0784950946631
 21
808.74131113355315
  0
LINE
  8
_0-0_90_FRAME
  6
CONTINUOUS
 62
    4
 10
3491.773064670675
 20
797.98263582159723
 11
3491.773064670675
 21
808.74131113355315
  0
LINE
  8
_0-0_90_FRAME
  6
CONTINUOUS
 62
    4
 10
3487.674521694692
 20
810.79058262154604
 11
3498.1770380706485
 21
810.79058262154604
  0
LINE
  8
_0-0_90_FRAME
  6
CONTINUOUS
 62
    4
 10
3491.773064670675
 20
797.98263582159723
 11
3494.0784950946631
 21
797.98263582159723
  0
LINE
  8
_0-0_90_FRAME
  6
CONTINUOUS
 62
    4
 10
3498.1770380706485
 20
810.79058262154604
 11
3498.1770380706485
 21
808.99747006955249
  0
ARC
  8
_0-0_90_FRAME
  6
CONTINUOUS
 62
    4
 10
3494.3346540306638
 20
808.74131113355315
 40
0.2561589359989651
 50
90
 51
180
  0
LINE
  8
_0-0_90_FRAME
  6
CONTINUOUS
 62
    4
 10
3487.674521694692
 20
810.79058262154604
 11
3487.674521694692
 21
808.99747006955249
  0
ARC
  8
_0-0_90_FRAME
  6
CONTINUOUS
 62
    4
 10
3491.5169057346766
 20
808.74131113355315
 40
0.2561589359989651
 50
0
 51
90
  0
LINE
  8
_0-0_90_FRAME
  6
CONTINUOUS
 62
    4
 10
3487.674521694692
 20
808.99747006955249
 11
3491.5169057346766
 21
808.99747006955249
  0
LINE
  8
_0-0_90_FRAME
  6
CONTINUOUS
 62
    4
 10
3494.3346540306638
 20
808.99747006955249
 11
3498.1770380706485
 21
808.99747006955249
  0
LINE
  8
_0-0_90_FRAME
  6
CONTINUOUS
 62
    4
 10
3499.6371023862794
 20
797.98263582159723
 11
3501.9425328102675
 21
797.98263582159723
  0
LINE
  8
_0-0_90_FRAME
  6
CONTINUOUS
 62
    4
 10
3501.9425328102675
 20
797.98263582159723
 11
3501.9425328102675
 21
808.99747006955249
  0
LINE
  8
_0-0_90_FRAME
  6
CONTINUOUS
 62
    4
 10
3499.6371023862794
 20
810.79058262154604
 11
3505.5287579142509
 21
810.79058262154604
  0
LINE
  8
_0-0_90_FRAME
  6
CONTINUOUS
 62
    4
 10
3501.9425328102675
 20
808.99747006955249
 11
3505.8361486374533
 21
808.99747006955249
  0
LINE
  8
_0-0_90_FRAME
  6
CONTINUOUS
 62
    4
 10
3502.0193804910641
 20
804.05210693414438
 11
3502.0193804910641
 21
805.84521948613792
  0
LINE
  8
_0-0_90_FRAME
  6
CONTINUOUS
 62
    4
 10
3502.0193804910641
 20
804.05210693414438
 11
3504.5347504888023
 21
804.05210693414438
  0
LINE
  8
_0-0_90_FRAME
  6
CONTINUOUS
 62
    4
 10
3502.0193804910641
 20
805.84521948613792
 11
3505.8361486374533
 21
805.84521948613792
  0
ARC
  8
_0-0_90_FRAME
  6
CONTINUOUS
 62
    4
 10
3505.7811901828909
 20
807.42134477784521
 40
1.5770831832489223
 50
271.99705710435398
 51
88.002942895541636
  0
LINE
  8
_0-0_90_FRAME
  6
CONTINUOUS
 62
    4
 10
3507.4351210469413
 20
797.98263582159723
 11
3509.9198627261298
 21
797.98263582159723
  0
LINE
  8
_0-0_90_FRAME
  6
CONTINUOUS
 62
    4
 10
3507.7127203099681
 20
803.49007762471183
 11
3509.9198627261298
 21
798.08509939599708
  0
LINE
  8
_0-0_90_FRAME
  6
CONTINUOUS
 62
    4
 10
3505.4852558096113
 20
803.41011729686898
 11
3507.4351210469413
 21
797.98263582159723
  0
ARC
  8
_0-0_90_FRAME
  6
CONTINUOUS
 62
    4
 10
3504.5347504888023
 20
803.02747119015066
 40
1.0246357439958607
 50
21.928297866550245
 51
90
  0
ARC
  8
_0-0_90_FRAME
  6
CONTINUOUS
 62
    4
 10
3506.1628625500425
 20
802.85528917960573
 40
1.6748180337109209
 50
22.272952259980951
 51
58.553113012863221
  0
LINE
  8
_0-0_90_FRAME
  6
CONTINUOUS
 62
    4
 10
3509.9198627261298
 20
798.08509939599708
 11
3509.9198627261298
 21
797.98263582159723
  0
LINE
  8
_0-0_90_FRAME
  6
CONTINUOUS
 62
    4
 10
3516.9881135249393
 20
810.79058262154604
 11
3516.9881135249393
 21
797.98263582159723
  0
LINE
  8
_0-0_90_FRAME
  6
CONTINUOUS
 62
    4
 10
3516.9881135249393
 20
797.98263582159723
 11
3519.2935439489315
 21
797.98263582159723
  0
LINE
  8
_0-0_90_FRAME
  6
CONTINUOUS
 62
    4
 10
3519.2935439489315
 20
797.98263582159723
 11
3519.2914210448589
 21
806.94819858156143
  0
LINE
  8
_0-0_90_FRAME
  6
CONTINUOUS
 62
    4
 10
3516.9881135249393
 20
810.79058262154604
 11
3520.3334440396807
 21
810.79058262154604
  0
LINE
  8
_0-0_90_FRAME
  6
CONTINUOUS
 62
    4
 10
3527.4927528049684
 20
806.94819858156143
 11
3527.4927528049684
 21
797.98263582159723
  0
LINE
  8
_0-0_90_FRAME
  6
CONTINUOUS
 62
    4
 10
3527.4927528049684
 20
797.98263582159723
 11
3529.7981832289565
 21
797.98263582159723
  0
LINE
  8
_0-0_90_FRAME
  6
CONTINUOUS
 62
    4
 10
3529.7981832289565
 20
797.98263582159723
 11
3529.7981832289565
 21
810.79058262154604
  0
LINE
  8
_0-0_90_FRAME
  6
CONTINUOUS
 62
    4
 10
3522.2393717129212
 20
797.98263582159723
 11
3524.5448021369093
 21
797.98263582159723
  0
LINE
  8
_0-0_90_FRAME
  6
CONTINUOUS
 62
    4
 10
3529.7981832289565
 20
810.79058262154604
 11
3526.4507298101466
 21
810.79058262154604
  0
LINE
  8
_0-0_90_FRAME
  6
CONTINUOUS
 62
    4
 10
3524.5448021369093
 20
797.98263582159723
 11
3527.4927528049684
 21
806.94819858156143
  0
LINE
  8
_0-0_90_FRAME
  6
CONTINUOUS
 62
    4
 10
3522.2393717129212
 20
797.98263582159723
 11
3519.2914210448589
 21
806.94819858156143
  0
LINE
  8
_0-0_90_FRAME
  6
CONTINUOUS
 62
    4
 10
3523.3920869249137
 20
801.4883731086843
 11
3526.4507298101466
 21
810.79058262154604
  0
LINE
  8
_0-0_90_FRAME
  6
CONTINUOUS
 62
    4
 10
3523.3920869249137
 20
801.4883731086843
 11
3520.3334440396807
 21
810.79058262154604
  0
TEXT
  8
_0-0_90_FRAME
 62
    2
 10
3544.8995497995274
 20
821.0141476765923
 40
15.121542857081762
 41
1
 50
0
  1
ŖöÄ«ē’Äą
  0
LINE
  8
_0-0_90_FRAME
  6
CONTINUOUS
 62
   18
 10
3590.9333302088467
 20
852.44973762196923
 11
3590.9333302088467
 21
923.16402333597159
  0
TEXT
  8
_0-0_90_FRAME
 62
    7
 10
3722.91491106387
 20
797.70020897820814
 40
20
 41
1
 50
0
  1
Äøōc
  0
TEXT
  8
_0-0_90_FRAME
 62
    7
 10
3620.1006253500332
 20
869.42268903593003
 40
20
 41
1
 50
0
  1
1üF4
  0
TEXT
  8
_0-0_90_FRAME
 62
    7
 10
3799.2802175152883
 20
909.47238270012861
 40
10
 41
1
 50
0
  1
ŗ@ŖĒ
  0
LINE
  8
_0-0_90_FRAME
  6
CONTINUOUS
 62
   18
 10
3947.6095039338011
 20
923.16402333597159
 11
3947.6095039338011
 21
821.33545190781069
  0
TEXT
  8
_0-0_90_FRAME
 62
    7
 10
3950.3278198125672
 20
909.47238270012861
 40
10
 41
1
 50
0
  1
ĢöĢi¢╝
  0
TEXT
  8
_0-0_90_FRAME
 62
    7
 10
3950.3278198125645
 20
852.40095412892651
 40
10
 41
1
 50
0
  1
É}¢╩öįŹå
  0
LINE
  8
_0-0_90_FRAME
  6
CONTINUOUS
 62
   18
 10
3796.5619016365281
 20
872.24973762189222
 11
3947.6095039338011
 21
872.24973762189222
  0
TEXT
  8
_0-0_90_FRAME
 62
    7
 10
3799.2802175152883
 20
858.05809698604889
 40
10
 41
1
 50
0
  1
ī^Ä«
  0
LINE
  8
_0-0_90_FRAME
  6
CONTINUOUS
 62
   18
 10
3659.2476211726803
 20
923.16402333597159
 11
4264.1333302061294
 21
923.16402333597159
  0
LINE
  8
_0-0_90_FRAME
  6
CONTINUOUS
 62
    4
 10
3659.2476211726803
 20
1063.1640218226094
 11
3659.2476211726803
 21
923.16402333597182
  0
LINE
  8
_0-0_90_FRAME
  6
CONTINUOUS
 62
    4
 10
3947.6095039338011
 20
1063.1640218226094
 11
3947.6095039338011
 21
923.16402333597159
  0
LINE
  8
_0-0_90_FRAME
  6
CONTINUOUS
 62
    4
 10
4057.385955391725
 20
1063.1640218226094
 11
4057.3859553917455
 21
923.16402333597159
  0
LINE
  8
_0-0_90_FRAME
  6
CONTINUOUS
 62
    4
 10
4029.3859588917235
 20
1063.1640218226094
 11
4029.3859588917421
 21
923.16402333597159
  0
LINE
  8
_0-0_90_FRAME
  6
CONTINUOUS
 62
    4
 10
3701.2476159226867
 20
1063.1640218226094
 11
3701.2476159226876
 21
923.16402333597159
  0
LINE
  8
_0-0_90_FRAME
  6
CONTINUOUS
 62
    4
 10
4099.3859501417382
 20
1063.1640218226094
 11
4099.3859501417382
 21
923.16402333597159
  0
INSERT
  2
-003-Jis_w20130906110600
  8
_0-2_08_DIM
 10
4061.8547856003211
 20
1146.704879561041
 41
2.3999999999999999
 42
2.3999999999999999
 50
0
  0
LINE
  8
_0-2_08_DIM
  6
CONTINUOUS
 62
    3
 10
1440.523966925377
 20
2485.2403919667686
 11
1545.3513540062686
 21
2485.2403919667686
  0
INSERT
  2
-004-p1ba05
  8
_0-2_08_DIM
 10
1503.0059765329925
 20
2490.7107486674895
 41
6
 42
6
 50
0
  0
TEXT
  8
_0-0_90_FRAME
 62
    3
 10
4040.8428272390511
 20
957.85472095846831
 40
12.000000000000002
 41
1
 50
0
  1
1
  0
TEXT
  8
_0-0_90_FRAME
 62
    3
 10
3954.0550009653293
 20
958.1213861695162
 40
12.000000000000002
 41
1
 50
0
  1
SUS304
  0
TEXT
  8
_0-0_90_FRAME
 62
    3
 10
3720.7551499446668
 20
957.96221665173687
 40
12.000000000000002
 41
1
 50
0
  1
āsāŹü[āXā^āōāh1
  0
TEXT
  8
_0-0_90_FRAME
 62
    3
 10
3673.2173181506068
 20
957.65352391969668
 40
12.000000000000002
 41
1
 50
0
  1
11
  0
TEXT
  8
_0-0_90_FRAME
 62
    3
 10
4066.5327167698188
 20
937.53548593120172
 40
10
 41
1
 50
0
  1
ÅdŚ╩
  0
TEXT
  8
_0-0_90_FRAME
 62
    3
 10
3966.2832516394669
 20
931.08129429370842
 40
12.000000000000002
 41
1
 50
0
  1
Ź▐ü@Ä┐
  0
TEXT
  8
_0-0_90_FRAME
 62
    3
 10
4030.8565273423178
 20
930.99110658192762
 40
12.000000000000002
 41
1
 50
0
  1
ÉöŚ╩
  0
TEXT
  8
_0-0_90_FRAME
 62
    3
 10
4070.9525758315353
 20
927.75078774205269
 40
8
 41
1
 50
0
  1
kg
  0
TEXT
  8
_0-0_90_FRAME
 62
    3
 10
4152.907687672111
 20
930.78990954313292
 40
12.000000000000002
 41
1
 50
0
  1
ö§  Źl
  0
TEXT
  8
_0-0_90_FRAME
 62
    3
 10
3667.7995995508554
 20
930.78990954313292
 40
12.000000000000002
 41
1
 50
0
  1
ĢäŹå
  0
TEXT
  8
_0-0_90_FRAME
 62
    3
 10
3769.5284559498127
 20
931.22546504424633
 40
12.000000000000002
 41
1
 50
0
  1
Ģöü@ü@Ģiü@ü@¢╝
  0
LINE
  8
_0-0_90_FRAME
  6
CONTINUOUS
 62
    4
 10
3659.2475980664472
 20
1035.1640203274751
 11
4264.1333070998971
 21
1035.1640203274751
  0
LINE
  8
_0-0_90_FRAME
  6
CONTINUOUS
 62
    4
 10
3659.2475980664472
 20
1007.1640188323408
 11
4264.1333070998971
 21
1007.1640188323408
  0
LINE
  8
_0-0_90_FRAME
  6
CONTINUOUS
 62
    4
 10
3659.2475980664472
 20
979.1640203274751
 11
4264.1333070998971
 21
979.1640203274751
  0
LINE
  8
_0-0_90_FRAME
  6
CONTINUOUS
 62
    4
 10
3659.2475980664472
 20
951.1640203274751
 11
4264.1333070998971
 21
951.1640203274751
  0
TEXT
  8
_0-0_90_FRAME
 62
    3
 10
4040.8428272390511
 20
985.85471946333382
 40
12.000000000000002
 41
1
 50
0
  1
1
  0
TEXT
  8
_0-0_90_FRAME
 62
    3
 10
3720.7551499446668
 20
985.9622151566025
 40
12.000000000000002
 41
1
 50
0
  1
āsāŹü[āXā^āōāh2
  0
TEXT
  8
_0-0_90_FRAME
 62
    3
 10
3671.2173181506073
 20
985.65352242456242
 40
12.000000000000002
 41
1
 50
0
  1
12
  0
TEXT
  8
_0-0_90_FRAME
 62
    7
 10
4060.6366733356354
 20
886.32076946488905
 40
16
 41
1
 50
0
  1
ÆEÉģŗ@ ĢöĢiÉ}
  0
TEXT
  8
_0-0_90_FRAME
 62
    7
 10
3806.3250688958333
 20
885.74665914703166
 40
12.800000000000002
 41
0.9
 50
0
  1
ŚLŗ@É½ēśōDöRŚ┐Ä{É▌
  0
LINE
  8
_0-3_0
  6
CONTINUOUS
 62
   18
 10
2349.4421718531803
 20
2339.6682605882052
 11
1819.4421718576737
 21
2339.6682605882052
  0
LINE
  8
_0-3_0
  6
CONTINUOUS
 62
   18
 10
1819.4421718576737
 20
2339.6682605882052
 11
1819.4421718576737
 21
2239.6682605882074
  0
LINE
  8
_0-3_0
  6
CONTINUOUS
 62
   18
 10
1819.4421718576737
 20
2239.6682605882074
 11
2186.942171862448
 21
2239.6682605882088
  0
LINE
  8
_0-3_0
  6
CONTINUOUS
 62
   18
 10
2251.942171862448
 20
2239.6682605882088
 11
2349.4421718531803
 21
2239.6682605882074
  0
LINE
  8
_0-3_0
  6
CONTINUOUS
 62
   18
 10
2349.4421718531803
 20
2239.6682605882074
 11
2349.4421718531803
 21
2339.6682605882052
  0
LINE
  8
_0-4_04_HIDDEN
  6
CONTINUOUS
 62
    7
 10
1914.4421718576734
 20
2331.668260588207
 11
2254.4421718531803
 21
2331.668260588207
  0
INSERT
  2
-005-A$C448B04A9_1_1
  8
_0-4_04_HIDDEN
 10
2349.4421718531803
 20
2339.668260588207
 41
-1
 42
1
 50
90
  0
INSERT
  2
-005-A$C448B04A9_1_1
  8
_0-4_04_HIDDEN
 10
1819.4421718576737
 20
2339.668260588207
 41
1
 42
1
 50
270
  0
CIRCLE
  8
_0-3_0
  6
CONTINUOUS
 62
   18
 10
2127.4421718612584
 20
2299.6682605980805
 40
9.4999999999999982
  0
LINE
  8
_0-5_05_CENTER
  6
CENTER2
 62
    4
 10
2112.6291832321381
 20
2299.6682605980732
 11
2142.2551604903792
 21
2299.6682605980732
  0
LINE
  8
_0-5_05_CENTER
  6
CENTER2
 62
    4
 10
2127.4421718612584
 20
2314.481249227194
 11
2127.4421718612584
 21
2284.8552719689524
  0
CIRCLE
  8
_0-3_0
  6
CONTINUOUS
 62
   18
 10
2311.4421718612584
 20
2299.6682605980805
 40
9.4999999999999982
  0
LINE
  8
_0-5_05_CENTER
  6
CENTER2
 62
    4
 10
2296.6291832321376
 20
2299.6682605980732
 11
2326.2551604903792
 21
2299.6682605980732
  0
LINE
  8
_0-5_05_CENTER
  6
CENTER2
 62
    4
 10
2311.4421718612584
 20
2314.481249227194
 11
2311.4421718612584
 21
2284.8552719689524
  0
LINE
  8
_0-3_0
  6
CONTINUOUS
 62
   18
 10
2251.942171862448
 20
2239.6682605882088
 11
2186.942171862448
 21
2239.6682605882088
  0
LINE
  8
_0-6_10_DRAFT
  6
CONTINUOUS
 62
    8
 10
2219.442171862448
 20
2239.6682605882088
 11
2219.442171862448
 21
2339.668260588207
  0
LINE
  8
_0-5_05_CENTER
  6
CENTER2
 62
    4
 10
1808.4804705139477
 20
2289.6682605882124
 11
1838.0952813663075
 21
2289.6682605881979
  0
LINE
  8
_0-6_10_DRAFT
  6
CONTINUOUS
 62
    8
 10
1959.4421719281047
 20
2339.6682605882052
 11
1959.4421719281047
 21
2331.6682605881933
  0
LINE
  8
_0-3_0
  6
CONTINUOUS
 62
   18
 10
2965.8889701990765
 20
2736.2389907166016
 11
3335.9889701946736
 21
2736.2389907167258
  0
LINE
  8
_0-3_0
  6
CONTINUOUS
 62
   18
 10
3335.9889701946736
 20
2736.2389907167258
 11
3335.9889701947181
 21
2636.2389907167253
  0
LINE
  8
_0-3_0
  6
CONTINUOUS
 62
   18
 10
3335.9889701947181
 20
2636.2389907167253
 11
2988.488970202935
 21
2636.2389907166012
  0
LINE
  8
_0-3_0
  6
CONTINUOUS
 62
   18
 10
2923.488970202935
 20
2636.2389907165725
 11
2805.9889701992111
 21
2636.2389907165216
  0
LINE
  8
_0-3_0
  6
CONTINUOUS
 62
   18
 10
2805.9889701992111
 20
2636.2389907165216
 11
2805.988970199166
 21
2736.238990716522
  0
LINE
  8
_0-3_0
  6
CONTINUOUS
 62
   18
 10
2805.988970199166
 20
2736.238990716522
 11
2905.9889701991679
 21
2736.238990716522
  0
LINE
  8
_0-4_04_HIDDEN
  6
CONTINUOUS
 62
    7
 10
3240.9889701946768
 20
2728.2389907166817
 11
2900.9889701991715
 21
2728.2389907165652
  0
INSERT
  2
-005-A$C448B04A9_1_1
  8
_0-4_04_HIDDEN
 10
2805.988970199166
 20
2736.238990716522
 41
1
 42
1
 50
270
  0
INSERT
  2
-005-A$C448B04A9_1_1
  8
_0-4_04_HIDDEN
 10
3335.9889701946736
 20
2736.2389907167258
 41
-1
 42
1
 50
90.000000000000014
  0
LINE
  8
_0-3_0
  6
CONTINUOUS
 62
   18
 10
2906.0889701990773
 20
2736.2389907165725
 11
2965.8889701990765
 21
2736.2389907166016
  0
CIRCLE
  8
_0-3_0
  6
CONTINUOUS
 62
   18
 10
2843.9889701982402
 20
2696.2389907150518
 40
9.5
  0
LINE
  8
_0-5_05_CENTER
  6
CENTER2
 62
    4
 10
2858.801958827361
 20
2696.2389907150591
 11
2829.1759815691194
 21
2696.2389907150591
  0
LINE
  8
_0-5_05_CENTER
  6
CENTER2
 62
    4
 10
2843.9889701982402
 20
2681.4260020859383
 11
2843.9889701982402
 21
2711.0519793441804
  0
CIRCLE
  8
_0-3_0
  6
CONTINUOUS
 62
   18
 10
3027.9889701982402
 20
2696.2389907150518
 40
9.5
  0
LINE
  8
_0-5_05_CENTER
  6
CENTER2
 62
    4
 10
3042.801958827361
 20
2696.2389907150591
 11
3013.1759815691194
 21
2696.2389907150591
  0
LINE
  8
_0-5_05_CENTER
  6
CENTER2
 62
    4
 10
3027.9889701982402
 20
2681.4260020859383
 11
3027.9889701982402
 21
2711.0519793441804
  0
LINE
  8
_0-5_05_CENTER
  6
CENTER2
 62
    4
 10
3346.9506715383982
 20
2686.2389907167253
 11
3317.3358606860393
 21
2686.238990716718
  0
LINE
  8
_0-3_0
  6
CONTINUOUS
 62
   18
 10
2903.4889701991224
 20
2636.2389907165652
 11
2968.4889701991224
 21
2636.2389907165943
  0
LINE
  8
_0-5_05_CENTER
  6
CENTER2
 62
    4
 10
2935.9889701990769
 20
2753.8685541321806
 11
2935.9889701991224
 21
2285.7099450624378
  0
LINE
  8
_0-4_04_HIDDEN
  6
CONTINUOUS
 62
    7
 10
3057.9889701991638
 20
2728.2389907166162
 11
3057.9889701993002
 21
2304.2389907161578
  0
LINE
  8
_0-4_04_HIDDEN
  6
CONTINUOUS
 62
    7
 10
3057.9889701993002
 20
2304.2389907161578
 11
2813.9889701991656
 21
2304.2389907161578
  0
LINE
  8
_0-4_04_HIDDEN
  6
CONTINUOUS
 62
    7
 10
2813.9889701991656
 20
2636.2389907166307
 11
2813.9889701991656
 21
2304.2389907161578
  0
LINE
  8
_0-4_04_HIDDEN
  6
CONTINUOUS
 62
    7
 10
3065.9889701992715
 20
2636.2389907166307
 11
3065.9889701992406
 21
2728.2389907166234
  0
LINE
  8
_0-3_0
  6
CONTINUOUS
 62
   18
 10
2965.9889701992715
 20
2396.2389907161573
 11
2905.9889701984671
 21
2396.2389907161573
  0
LINE
  8
_0-3_0
  6
CONTINUOUS
 62
   18
 10
2905.9889701984671
 20
2636.2389907166307
 11
2805.988970199166
 21
2636.2389907166307
  0
LINE
  8
_0-3_0
  6
CONTINUOUS
 62
   18
 10
2805.988970199166
 20
2636.2389907166307
 11
2805.988970199166
 21
2296.2389907132401
  0
LINE
  8
_0-3_0
  6
CONTINUOUS
 62
   18
 10
2805.988970199166
 20
2296.2389907132401
 11
3065.9889701992715
 21
2296.2389907132401
  0
LINE
  8
_0-3_0
  6
CONTINUOUS
 62
   18
 10
3065.9889701992715
 20
2296.2389907132401
 11
3065.9889701992715
 21
2636.2389907166307
  0
LINE
  8
_0-3_0
  6
CONTINUOUS
 62
   18
 10
3065.9889701992715
 20
2636.2389907166307
 11
2965.9889701992715
 21
2636.2389907166307
  0
LINE
  8
_0-3_0
  6
CONTINUOUS
 62
   18
 10
2965.9889701992715
 20
2396.2389907161573
 11
2965.9889701992715
 21
2636.2389907166307
  0
LINE
  8
_0-3_0
  6
CONTINUOUS
 62
   18
 10
2905.9889701984671
 20
2396.2389907161573
 11
2905.9889701984671
 21
2636.2389907166307
  0
LINE
  8
_0-4_04_HIDDEN
  6
CONTINUOUS
 62
    7
 10
2940.488970203186
 20
2728.2389907165789
 11
2931.4889702031833
 21
2728.2389907165789
  0
LINE
  8
_0-4_04_HIDDEN
  6
CONTINUOUS
 62
    7
 10
2931.4889702031833
 20
2728.2389907165789
 11
2931.4889702031833
 21
2304.2389907161578
  0
LINE
  8
_0-4_04_HIDDEN
  6
CONTINUOUS
 62
    7
 10
2931.4889702031833
 20
2304.2389907161578
 11
2940.488970203186
 21
2304.2389907161578
  0
LINE
  8
_0-4_04_HIDDEN
  6
CONTINUOUS
 62
    7
 10
2940.488970203186
 20
2304.2389907161578
 11
2940.488970203186
 21
2728.2389907165789
  0
LINE
  8
_0-6_10_DRAFT
  6
CONTINUOUS
 62
    8
 10
3195.9889701242637
 20
2736.2389907166789
 11
3195.9889701242637
 21
2728.2389907166662
  0
INSERT
  2
-005-A$C448B04A9_1_1
  8
_0-4_04_HIDDEN
 10
3991.1116529855344
 20
2000.5358113411141
 41
1
 42
1
 50
180
  0
LINE
  8
_0-5_05_CENTER
  6
CENTER2
 62
    4
 10
3951.1116529940009
 20
2009.6228367376134
 11
3951.1116529940009
 21
1983.3728469466587
  0
INSERT
  2
-005-A$C448B04A9_1_1
  8
_0-4_04_HIDDEN
 10
3991.1116529898086
 20
1730.5358113392995
 41
-1
 42
1
 50
0
  0
LINE
  8
_0-5_05_CENTER
  6
CENTER2
 62
    4
 10
3941.1116529898031
 20
1719.5741099955858
 11
3941.1116529898031
 21
1749.1889208479454
  0
LINE
  8
_0-3_0
  6
CONTINUOUS
 62
   18
 10
3891.1116529856095
 20
2000.5358113411032
 11
3991.1116529856099
 21
2000.5358113411032
  0
LINE
  8
_0-3_0
  6
CONTINUOUS
 62
   18
 10
3991.1116529856099
 20
2000.5358113411032
 11
3991.1116529856131
 21
1730.5358113392892
  0
LINE
  8
_0-3_0
  6
CONTINUOUS
 62
   18
 10
3991.1116529856131
 20
1730.5358113392892
 11
3891.1116529898036
 21
1730.5358113392892
  0
LINE
  8
_0-3_0
  6
CONTINUOUS
 62
   18
 10
3891.1116529898036
 20
1730.5358113392892
 11
3891.1116529856095
 21
2000.5358113411032
  0
CIRCLE
  8
_0-3_0
  6
CONTINUOUS
 62
   18
 10
3941.1116529898104
 20
1950.5358113345519
 40
9.5
  0
LINE
  8
_0-5_05_CENTER
  6
CENTER2
 62
    4
 10
3941.1116529898031
 20
1935.7228227054318
 11
3941.1116529898031
 21
1965.3487999636727
  0
LINE
  8
_0-5_05_CENTER
  6
CENTER2
 62
    4
 10
3955.9246416189239
 20
1950.5358113345519
 11
3926.2986643606823
 21
1950.5358113345519
  0
LINE
  8
_0-4_04_HIDDEN
  6
CONTINUOUS
 62
    7
 10
3983.1116529897431
 20
1905.5358113411121
 11
3983.111652989789
 21
1825.5358113392977
  0
INSERT
  2
-005-A$C448B04A9_1_1
  8
_0-4_04_HIDDEN
 10
3551.1116529933902
 20
2000.5358113411141
 41
-1
 42
1
 50
180
  0
LINE
  8
_0-4_04_HIDDEN
  6
CONTINUOUS
 62
    7
 10
3891.1116529856095
 20
1992.5358113411085
 11
3646.1116529933902
 21
1992.5358113411141
  0
LINE
  8
_0-5_05_CENTER
  6
CENTER2
 62
    4
 10
3601.1116529933902
 20
2009.6228367376134
 11
3601.1116529933902
 21
1983.3728469466587
  0
LINE
  8
_0-3_0
  6
CONTINUOUS
 62
   18
 10
3559.1116529933906
 20
1900.535811341113
 11
3891.1116529896799
 21
1738.5358113392215
  0
LINE
  8
_0-4_04_HIDDEN
  6
CONTINUOUS
 62
    7
 10
3891.1116529896799
 20
1738.5358113392215
 11
3896.1116529898086
 21
1738.5358113392992
  0
LINE
  8
_0-4_04_HIDDEN
  6
CONTINUOUS
 62
    7
 10
3891.1116529856095
 20
1900.5358113411028
 11
3983.1116529897454
 21
1900.5358113411569
  0
LINE
  8
_0-4_04_HIDDEN
  6
CONTINUOUS
 62
    7
 10
3968.1116529898009
 20
1992.5358113411128
 11
3983.1116529898009
 21
1977.535811341113
  0
LINE
  8
_0-3_0
  6
CONTINUOUS
 62
   18
 10
3891.1116529856095
 20
2000.5358113411032
 11
3551.1116529933902
 21
2000.5358113411032
  0
LINE
  8
_0-3_0
  6
CONTINUOUS
 62
   18
 10
3551.1116529933902
 20
2000.5358113411032
 11
3551.1116529933902
 21
1900.5358113411139
  0
LINE
  8
_0-3_0
  6
CONTINUOUS
 62
   18
 10
3551.1116529933902
 20
1900.5358113411139
 11
3891.1116529856095
 21
1900.5358113411139
  0
LINE
  8
_0-3_0
  6
CONTINUOUS
 62
   18
 10
3891.1116529856095
 20
1900.5358113411139
 11
3891.1116529856095
 21
2000.5358113411032
  0
LINE
  8
_0-4_04_HIDDEN
  6
CONTINUOUS
 62
    7
 10
3559.1116529933906
 20
1905.5358113411139
 11
3559.1116529933906
 21
1900.535811341113
  0
LINE
  8
_0-4_04_HIDDEN
  6
CONTINUOUS
 62
    7
 10
3559.1116529933906
 20
1977.5358113411137
 11
3574.1116529933906
 21
1992.5358113411141
  0
INSERT
  2
-005-A$C448B04A9_1_1
  8
_0-4_04_HIDDEN
 10
1517.5388594253923
 20
2000.5358113411039
 41
-1
 42
1
 50
180
  0
INSERT
  2
-005-A$C448B04A9_1_1
  8
_0-4_04_HIDDEN
 10
1517.5388594253923
 20
1730.5358113392995
 41
1
 42
1
 50
0
  0
LINE
  8
_0-5_05_CENTER
  6
CENTER2
 62
    4
 10
1567.5388594266401
 20
1719.5090080511688
 11
1567.5388594266401
 21
1749.1238189035287
  0
LINE
  8
_0-3_0
  6
CONTINUOUS
 62
   18
 10
1617.5388594266399
 20
2000.5358113411039
 11
1517.5388594266401
 21
2000.5358113411039
  0
LINE
  8
_0-3_0
  6
CONTINUOUS
 62
   18
 10
1517.5388594266401
 20
2000.5358113411039
 11
1517.5388594266401
 21
1730.5358113392995
  0
LINE
  8
_0-3_0
  6
CONTINUOUS
 62
   18
 10
1517.5388594266401
 20
1730.5358113392995
 11
1617.5388594266399
 21
1730.5358113392995
  0
LINE
  8
_0-3_0
  6
CONTINUOUS
 62
   18
 10
1617.5388594266399
 20
1730.5358113392995
 11
1617.5388594266399
 21
2000.5358113411039
  0
LINE
  8
_0-5_05_CENTER
  6
CENTER2
 62
    4
 10
1557.5388594266346
 20
2009.6228367376134
 11
1557.5388594266346
 21
1983.3728469466587
  0
LINE
  8
_0-4_04_HIDDEN
  6
CONTINUOUS
 62
    7
 10
1525.5388594253923
 20
1905.5358113411039
 11
1525.5388594253923
 21
1824.8889283237834
  0
CIRCLE
  8
_0-3_0
  6
CONTINUOUS
 62
   18
 10
1567.5388594296669
 20
1950.5358113345519
 40
9.4999999999999982
  0
LINE
  8
_0-5_05_CENTER
  6
CENTER2
 62
    4
 10
1567.5388594296614
 20
1935.7228227054318
 11
1567.5388594296614
 21
1965.3487999636727
  0
LINE
  8
_0-5_05_CENTER
  6
CENTER2
 62
    4
 10
1582.3518480587804
 20
1950.5358113345519
 11
1552.7258708005406
 21
1950.5358113345519
  0
LINE
  8
_0-5_05_CENTER
  6
CENTER2
 62
    4
 10
2311.4421718612584
 20
2009.6228367363628
 11
2311.4421718612584
 21
1983.3728469454081
  0
LINE
  8
_0-5_05_CENTER
  6
CENTER2
 62
    4
 10
2127.4421718612584
 20
2009.6228367363628
 11
2127.4421718612584
 21
1983.3728469454081
  0
LINE
  8
_0-3_0
  6
CONTINUOUS
 62
   18
 10
2349.4421718531803
 20
2000.5358113411005
 11
1819.4421718576737
 21
2000.5358113411005
  0
LINE
  8
_0-3_0
  6
CONTINUOUS
 62
   18
 10
1819.4421718576737
 20
2000.5358113411005
 11
1819.4421718576737
 21
1730.5358113392892
  0
LINE
  8
_0-3_0
  6
CONTINUOUS
 62
   18
 10
1819.4421718576737
 20
1730.5358113392892
 11
2349.4421718531803
 21
1730.5358113392892
  0
LINE
  8
_0-3_0
  6
CONTINUOUS
 62
   18
 10
2349.4421718531803
 20
1730.5358113392892
 11
2349.4421718531803
 21
2000.5358113411005
  0
LINE
  8
_0-5_05_CENTER
  6
CENTER2
 62
    4
 10
2311.4421718612584
 20
1981.5741099973968
 11
2311.4421718612584
 21
2011.188920849756
  0
LINE
  8
_0-5_05_CENTER
  6
CENTER2
 62
    4
 10
2127.442171861253
 20
1981.5741099973968
 11
2127.442171861253
 21
2011.188920849756
  0
LINE
  8
_0-3_0
  6
CONTINUOUS
 62
   18
 10
2341.4421718531803
 20
1992.5358113411005
 11
1827.4421718576737
 21
1992.5358113411005
  0
LINE
  8
_0-3_0
  6
CONTINUOUS
 62
   18
 10
1827.4421718576737
 20
1992.5358113411005
 11
1827.4421718576737
 21
1738.5358113392895
  0
LINE
  8
_0-3_0
  6
CONTINUOUS
 62
   18
 10
1827.4421718576737
 20
1738.5358113392895
 11
2341.4421718531803
 21
1738.5358113392895
  0
LINE
  8
_0-3_0
  6
CONTINUOUS
 62
   18
 10
2341.4421718531803
 20
1738.5358113392895
 11
2341.4421718531803
 21
1992.5358113411005
  0
LINE
  8
_0-5_05_CENTER
  6
CENTER2
 62
    4
 10
1838.4038732013773
 20
1950.5358113392986
 11
1808.7890623490177
 21
1950.5358113392986
  0
LINE
  8
_0-5_05_CENTER
  6
CENTER2
 62
    4
 10
1869.4421718576718
 20
1719.5741099955994
 11
1869.4421718576718
 21
1749.1889208479588
  0
LINE
  8
_0-5_05_CENTER
  6
CENTER2
 62
    4
 10
2299.4421718555632
 20
1719.5741099955994
 11
2299.4421718555632
 21
1749.1889208479588
  0
LINE
  8
_0-5_05_CENTER
  6
CENTER2
 62
    4
 10
2843.9889701988513
 20
2009.6228367376168
 11
2843.9889701988513
 21
1983.3728469466623
  0
LINE
  8
_0-5_05_CENTER
  6
CENTER2
 62
    4
 10
3027.9889701988523
 20
2009.6228367376168
 11
3027.9889701988523
 21
1983.3728469466623
  0
LINE
  8
_0-5_05_CENTER
  6
CENTER2
 62
    4
 10
3317.0272688509694
 20
1950.5358113345519
 11
3346.6420797033293
 21
1950.5358113345519
  0
LINE
  8
_0-3_0
  6
CONTINUOUS
 62
   18
 10
3335.9889701946736
 20
2000.5358113411075
 11
2805.9889701984675
 21
2000.5358113411069
  0
LINE
  8
_0-3_0
  6
CONTINUOUS
 62
   18
 10
2805.9889701984675
 20
2000.5358113411069
 11
2805.9889701984675
 21
1730.5358113393022
  0
LINE
  8
_0-3_0
  6
CONTINUOUS
 62
   18
 10
2805.9889701984675
 20
1730.5358113393022
 11
3335.9889701946736
 21
1730.5358113393031
  0
LINE
  8
_0-3_0
  6
CONTINUOUS
 62
   18
 10
3335.9889701946736
 20
1730.5358113393031
 11
3335.9889701946736
 21
2000.5358113411075
  0
LINE
  8
_0-5_05_CENTER
  6
CENTER2
 62
    4
 10
3285.9889701946749
 20
1719.5741099955994
 11
3285.9889701946749
 21
1749.1889208479588
  0
LINE
  8
_0-5_05_CENTER
  6
CENTER2
 62
    4
 10
2855.9889701967822
 20
1719.5741099955994
 11
2855.9889701967822
 21
1749.1889208479588
  0
INSERT
  2
-005-A$C448B04A9_1_1
  8
_0-4_04_HIDDEN
 10
2805.9889701984675
 20
2000.5358113411075
 41
-1
 42
1
 50
180
  0
INSERT
  2
-005-A$C448B04A9_1_1
  8
_0-4_04_HIDDEN
 10
3065.9889701992715
 20
2000.5358113411075
 41
1
 42
1
 50
180
  0
LINE
  8
_0-5_05_CENTER
  6
CENTER2
 62
    4
 10
3015.9889701992715
 20
1719.5741099955994
 11
3015.9889701992715
 21
1749.1889208479588
  0
LINE
  8
_0-3_0
  6
CONTINUOUS
 62
   18
 10
3065.9889701992715
 20
2000.5358113411075
 11
2805.9889701984675
 21
2000.5358113411075
  0
LINE
  8
_0-3_0
  6
CONTINUOUS
 62
   18
 10
2805.9889701984675
 20
2000.5358113411075
 11
2805.9889701984675
 21
1900.5358113411078
  0
LINE
  8
_0-3_0
  6
CONTINUOUS
 62
   18
 10
2805.9889701984675
 20
1900.5358113411078
 11
3065.9889701992715
 21
1900.5358113411078
  0
LINE
  8
_0-3_0
  6
CONTINUOUS
 62
   18
 10
3065.9889701992715
 20
1900.5358113411078
 11
3065.9889701992715
 21
2000.5358113411075
  0
LINE
  8
_0-3_0
  6
CONTINUOUS
 62
   18
 10
3327.9889701946731
 20
1992.5358113411078
 11
3065.9889701992715
 21
1992.5358113411069
  0
LINE
  8
_0-3_0
  6
CONTINUOUS
 62
   18
 10
2813.9889701984675
 20
1738.5358113393022
 11
3327.9889701946731
 21
1738.5358113393029
  0
LINE
  8
_0-3_0
  6
CONTINUOUS
 62
   18
 10
3327.9889701946731
 20
1738.5358113393029
 11
3327.9889701946731
 21
1992.5358113411078
  0
LINE
  8
_0-4_04_HIDDEN
  6
CONTINUOUS
 62
    7
 10
2900.9889701984671
 20
1992.5358113411078
 11
2970.9889701992715
 21
1992.5358113411078
  0
LINE
  8
_0-3_0
  6
CONTINUOUS
 62
   18
 10
2940.4889702031833
 20
1830.5358113393031
 11
3235.9889701946731
 21
1830.5358113393031
  0
LINE
  8
_0-3_0
  6
CONTINUOUS
 62
   18
 10
3235.9889701946731
 20
1830.5358113393031
 11
3235.9889701946731
 21
1900.5358113411078
  0
LINE
  8
_0-3_0
  6
CONTINUOUS
 62
   18
 10
2885.9889701946731
 20
1900.5358113411078
 11
2885.9889701946731
 21
1830.5358113393031
  0
LINE
  8
_0-3_0
  6
CONTINUOUS
 62
   18
 10
2885.9889701946731
 20
1830.5358113393031
 11
2931.4889702031833
 21
1830.5358113393031
  0
LINE
  8
_0-4_04_HIDDEN
  6
CONTINUOUS
 62
    7
 10
2940.4889702031833
 20
1830.5358113393031
 11
2931.4889702031833
 21
1830.5358113393031
  0
LINE
  8
_0-5_05_CENTER
  6
CENTER2
 62
    4
 10
2979.4889701963716
 20
2009.6228367376168
 11
2979.4889701963716
 21
1983.3728469466623
  0
LINE
  8
_0-5_05_CENTER
  6
CENTER2
 62
    4
 10
2892.4889701931406
 20
2009.6228367376168
 11
2892.4889701931406
 21
1983.3728469466623
  0
LINE
  8
_0-4_04_HIDDEN
  6
CONTINUOUS
 62
    7
 10
2940.4889702031833
 20
1992.5358113411078
 11
2931.4889702031833
 21
1992.5358113411078
  0
LINE
  8
_0-4_04_HIDDEN
  6
CONTINUOUS
 62
    7
 10
2931.4889702031833
 20
1992.5358113411078
 11
2931.4889702031833
 21
1900.5358113411078
  0
LINE
  8
_0-3_0
  6
CONTINUOUS
 62
   18
 10
2931.4889702031833
 20
1900.5358113411078
 11
2931.4889702031833
 21
1738.5358113375125
  0
LINE
  8
_0-3_0
  6
CONTINUOUS
 62
   18
 10
2931.4889702031833
 20
1738.5358113375125
 11
2940.4889702031833
 21
1738.5358113375125
  0
LINE
  8
_0-3_0
  6
CONTINUOUS
 62
   18
 10
2940.4889702031833
 20
1738.5358113375125
 11
2940.4889702031833
 21
1900.5358113411078
  0
LINE
  8
_0-4_04_HIDDEN
  6
CONTINUOUS
 62
    7
 10
2940.4889702031833
 20
1900.5358113411078
 11
2940.4889702031833
 21
1992.5358113411078
  0
LINE
  8
_0-3_0
  6
CONTINUOUS
 62
   18
 10
2813.988970198468
 20
1900.5358113411078
 11
2813.988970198468
 21
1738.5358113393022
  0
LINE
  8
_0-5_05_CENTER
  6
CENTER2
 62
    4
 10
3346.9506715383982
 20
1455.9092517626223
 11
3317.3358606860393
 21
1455.9092517626368
  0
INSERT
  2
-005-A$C448B04A9_1_1
  8
_0-4_04_HIDDEN
 10
2805.988970199166
 20
1405.9092517628299
 41
-1
 42
1
 50
270
  0
INSERT
  2
-005-A$C448B04A9_1_1
  8
_0-4_04_HIDDEN
 10
3335.9889701946736
 20
1405.9092517626277
 41
1
 42
1
 50
90.000000000000014
  0
CIRCLE
  8
_0-3_0
  6
CONTINUOUS
 62
   18
 10
3285.9889701993807
 20
1455.909251762635
 40
9.5
  0
LINE
  8
_0-5_05_CENTER
  6
CENTER2
 62
    4
 10
3268.9466265802844
 20
1455.9092517614326
 11
3303.0313138090651
 21
1455.9092517614326
  0
LINE
  8
_0-5_05_CENTER
  6
CENTER2
 62
    4
 10
3285.9889701946749
 20
1472.9515953758228
 11
3285.9889701946749
 21
1438.8669081470425
  0
CIRCLE
  8
_0-3_0
  6
CONTINUOUS
 62
   18
 10
2855.9889701984853
 20
1455.909251762635
 40
9.5
  0
LINE
  8
_0-5_05_CENTER
  6
CENTER2
 62
    4
 10
2873.0313138175816
 20
1455.9092517614326
 11
2838.9466265888013
 21
1455.9092517614326
  0
LINE
  8
_0-5_05_CENTER
  6
CENTER2
 62
    4
 10
2855.9889702031915
 20
1472.9515953758228
 11
2855.9889702031915
 21
1438.8669081470425
  0
CIRCLE
  8
_0-3_0
  6
CONTINUOUS
 62
   18
 10
3015.9889701997135
 20
1455.909251762635
 40
9.5
  0
LINE
  8
_0-5_05_CENTER
  6
CENTER2
 62
    4
 10
2998.9466265806177
 20
1455.9092517614326
 11
3033.0313138093979
 21
1455.9092517614326
  0
LINE
  8
_0-5_05_CENTER
  6
CENTER2
 62
    4
 10
3015.9889701950078
 20
1472.9515953758228
 11
3015.9889701950078
 21
1438.8669081470425
  0
LINE
  8
_0-4_04_HIDDEN
  6
CONTINUOUS
 62
    7
 10
3240.9889701946731
 20
1413.9092517626277
 11
2900.988970199166
 21
1413.9092517628296
  0
LINE
  8
_0-3_0
  6
CONTINUOUS
 62
   18
 10
3335.9889701946736
 20
1405.9092517626277
 11
2805.988970199166
 21
1405.9092517626277
  0
LINE
  8
_0-3_0
  6
CONTINUOUS
 62
   18
 10
2805.988970199166
 20
1405.9092517626277
 11
2805.988970199166
 21
1505.9092517628296
  0
LINE
  8
_0-3_0
  6
CONTINUOUS
 62
   18
 10
2805.988970199166
 20
1505.9092517628296
 11
3335.9889701946736
 21
1505.9092517628296
  0
LINE
  8
_0-3_0
  6
CONTINUOUS
 62
   18
 10
3335.9889701946736
 20
1505.9092517628296
 11
3335.9889701946736
 21
1405.9092517626277
  0
LINE
  8
_0-3_0
  6
CONTINUOUS
 62
   18
 10
2940.4889702029782
 20
1413.909251762806
 11
2931.4889702031837
 21
1413.909251762806
  0
LINE
  8
_0-4_04_HIDDEN
  6
CONTINUOUS
 62
    7
 10
2931.4889702031837
 20
1413.909251762806
 11
2931.4889702031837
 21
1505.9092517628296
  0
LINE
  8
_0-3_0
  6
CONTINUOUS
 62
   18
 10
2931.4889702031837
 20
1505.9092517628296
 11
2931.4889702031837
 21
1603.1152665338441
  0
LINE
  8
_0-3_0
  6
CONTINUOUS
 62
   18
 10
2940.4889702029782
 20
1603.1152665338441
 11
2940.4889702029782
 21
1505.9092517628296
  0
LINE
  8
_0-4_04_HIDDEN
  6
CONTINUOUS
 62
    7
 10
2940.4889702029782
 20
1505.9092517628296
 11
2940.4889702029782
 21
1413.909251762806
  0
CIRCLE
  8
_0-3_0
  6
CONTINUOUS
 62
   18
 10
2979.4889701963716
 20
2346.2389907161632
 40
6.0000000000000009
  0
LINE
  8
_0-5_05_CENTER
  6
CENTER2
 62
    4
 10
2968.0556658765513
 20
2346.238990716156
 11
2990.9222745161915
 21
2346.238990716156
  0
LINE
  8
_0-5_05_CENTER
  6
CENTER2
 62
    4
 10
2979.4889701963716
 20
2334.8056863963284
 11
2979.4889701963716
 21
2357.672295035984
  0
CIRCLE
  8
_0-3_0
  6
CONTINUOUS
 62
   18
 10
2892.4889701931406
 20
2346.2389907161623
 40
6.0000000000000009
  0
LINE
  8
_0-5_05_CENTER
  6
CENTER2
 62
    4
 10
2903.9222745129614
 20
2346.238990716156
 11
2881.0556658733208
 21
2346.2389907161551
  0
LINE
  8
_0-5_05_CENTER
  6
CENTER2
 62
    4
 10
2892.4889701931406
 20
2334.8056863963275
 11
2892.4889701931406
 21
2357.6722950359826
  0
INSERT
  2
-005-A$C448B04A9_1_1
  8
_0-4_04_HIDDEN
 10
2349.4421718531803
 20
1445.0169269627995
 41
1
 42
1
 50
90.000000000000014
  0
INSERT
  2
-005-A$C448B04A9_1_1
  8
_0-4_04_HIDDEN
 10
1819.4421718576737
 20
1445.0169269625976
 41
-1
 42
1
 50
270
  0
CIRCLE
  8
_0-3_0
  6
CONTINUOUS
 62
   18
 10
1869.4421718529657
 20
1495.0169269626049
 40
9.4999999999999982
  0
LINE
  8
_0-5_05_CENTER
  6
CENTER2
 62
    4
 10
1886.4845154720617
 20
1495.0169269614025
 11
1852.3998282432815
 21
1495.0169269614025
  0
LINE
  8
_0-5_05_CENTER
  6
CENTER2
 62
    4
 10
1869.4421718576718
 20
1512.0592705757927
 11
1869.4421718576718
 21
1477.9745833470124
  0
CIRCLE
  8
_0-3_0
  6
CONTINUOUS
 62
   18
 10
2299.4421718538606
 20
1495.0169269626049
 40
9.4999999999999982
  0
LINE
  8
_0-5_05_CENTER
  6
CENTER2
 62
    4
 10
2282.3998282347648
 20
1495.0169269614025
 11
2316.484515463545
 21
1495.0169269614025
  0
LINE
  8
_0-5_05_CENTER
  6
CENTER2
 62
    4
 10
2299.4421718491553
 20
1512.0592705757927
 11
2299.4421718491553
 21
1477.9745833470124
  0
LINE
  8
_0-5_05_CENTER
  6
CENTER2
 62
    4
 10
1808.4804705139477
 20
1495.0169269625922
 11
1838.0952813663075
 21
1495.0169269626067
  0
LINE
  8
_0-4_04_HIDDEN
  6
CONTINUOUS
 62
    7
 10
1914.4421718576734
 20
1453.0169269625976
 11
2254.4421718531803
 21
1453.0169269627995
  0
LINE
  8
_0-3_0
  6
CONTINUOUS
 62
   18
 10
1819.4421718576737
 20
1445.0169269625976
 11
2349.4421718531803
 21
1445.0169269625976
  0
LINE
  8
_0-3_0
  6
CONTINUOUS
 62
   18
 10
2349.4421718531803
 20
1445.0169269625976
 11
2349.4421718531803
 21
1545.0169269627997
  0
LINE
  8
_0-3_0
  6
CONTINUOUS
 62
   18
 10
2349.4421718531803
 20
1545.0169269627997
 11
1819.4421718576737
 21
1545.0169269627997
  0
LINE
  8
_0-3_0
  6
CONTINUOUS
 62
   18
 10
1819.4421718576737
 20
1545.0169269627997
 11
1819.4421718576737
 21
1445.0169269625976
  0
LINE
  8
_0-3_0
  6
CONTINUOUS
 62
   18
 10
2931.4889702031833
 20
2636.2389907165784
 11
2931.4889702031833
 21
2396.2389907161573
  0
LINE
  8
_0-3_0
  6
CONTINUOUS
 62
   18
 10
2940.488970203186
 20
2636.2389907165784
 11
2940.488970203186
 21
2396.2389907161573
  0
LINE
  8
_0-5_05_CENTER
  6
CENTER2
 62
    4
 10
2311.4421718612584
 20
2299.6682605980732
 11
2127.4421718612584
 21
2299.6682605980732
  0
LINE
  8
_0-5_05_CENTER
  6
CENTER2
 62
    4
 10
2299.4421718491553
 20
1495.0169269614025
 11
1869.4421718576718
 21
1495.0169269614025
  0
LINE
  8
_0-5_05_CENTER
  6
CENTER2
 62
    4
 10
3027.9889701982402
 20
2696.2389907150591
 11
2843.9889701982402
 21
2696.2389907150596
  0
LINE
  8
_0-5_05_CENTER
  6
CENTER2
 62
    4
 10
2979.4889701963716
 20
2346.238990716156
 11
2892.4889701931406
 21
2346.238990716156
  0
LINE
  8
_0-5_05_CENTER
  6
CENTER2
 62
    4
 10
3285.9889701946749
 20
1455.9092517614326
 11
2855.9889702031915
 21
1455.9092517614326
  0
TEXT
  8
_0-2_08_DIM
 62
    3
 10
1451.7499962230181
 20
2461.0991637421785
 40
15
 41
1
 50
0
  1
L-8x100x100
  0
LINE
  8
_0-2_08_DIM
  6
CONTINUOUS
 62
    3
 10
3570.9480282971267
 20
2349.5375554858306
 11
3675.7754153780179
 21
2349.5375554858306
  0
INSERT
  2
-004-p1ba05
  8
_0-2_08_DIM
 10
3633.4300379047422
 20
2355.0079121865515
 41
6
 42
6
 50
0
  0
TEXT
  8
_0-2_08_DIM
 62
    3
 10
3582.1740575947679
 20
2325.39632726124
 40
15
 41
1
 50
0
  1
L-8x100x100
  0
LINE
  8
_0-5_05_CENTER
  6
CENTER2
 62
    4
 10
2935.9889701990774
 20
2011.1785532786691
 11
2935.9889701991233
 21
1720.0067656884999
  0
LINE
  8
_0-5_05_CENTER
  6
CENTER2
 62
    4
 10
2935.9889701990774
 20
1611.8976908695331
 11
2935.9889701991233
 21
1393.2785836429236
  0
LINE
  8
_0-4_04_HIDDEN
  6
CONTINUOUS
 62
    7
 10
3983.1116529896863
 20
1753.5358113346529
 11
3968.1116529896858
 21
1738.5358113346526
  0
TEXT
  8
_0-0_90_FRAME
 62
    3
 10
3954.0550009653293
 20
986.1213861695162
 40
12.000000000000002
 41
1
 50
0
  1
SUS304
  0
LINE
  8
_0-0_90_FRAME
  6
CONTINUOUS
 62
    4
 10
3659.2475980664472
 20
1063.1640218226094
 11
4264.1333070998971
 21
1063.1640218226094
  0
TEXT
  8
_0-0_90_FRAME
 62
    3
 10
3720.7551499446668
 20
1013.9622136614682
 40
12.000000000000002
 41
1
 50
0
  1
īćöį
  0
TEXT
  8
_0-0_90_FRAME
 62
    3
 10
3671.2173181506073
 20
1013.6535209294283
 40
12.000000000000002
 41
1
 50
0
  1
13
  0
LINE
  8
_0-3_0
  6
CONTINUOUS
 62
   18
 10
3235.9889701946731
 20
1900.5358113411078
 11
3220.9889701242537
 21
1900.5358113411057
  0
LINE
  8
_0-5_05_CENTER
  6
CENTER2
 62
    4
 10
3266.3651239392198
 20
1940.5358112497051
 11
3242.6128163092731
 21
1940.5358112497051
  0
CIRCLE
  8
_0-3_0
  6
CONTINUOUS
 62
   18
 10
3254.4889701246602
 20
1940.5358112501181
 40
8
  0
LINE
  8
_0-5_05_CENTER
  6
CENTER2
 62
    4
 10
3168.4773808295367
 20
1940.535811249707
 11
3223.5005594189706
 21
1940.5358112497051
  0
LINE
  8
_0-5_05_CENTER
  6
CENTER2
 62
    4
 10
3195.9889701242496
 20
1892.9942551612003
 11
3195.9889701242423
 21
1968.0474005444232
  0
ARC
  8
_0-3_0
  6
CONTINUOUS
 62
   18
 10
3195.9889701242537
 20
1940.535811249707
 40
20
 50
0
 51
180
  0
LINE
  8
_0-5_05_CENTER
  6
CENTER2
 62
    4
 10
3254.4889701295283
 20
1928.6596574371049
 11
3254.4889701295283
 21
1952.4119650670525
  0
LINE
  8
_0-5_05_CENTER
  6
CENTER2
 62
    4
 10
3125.6128163092721
 20
1940.5358112497051
 11
3149.3651239392198
 21
1940.5358112497051
  0
CIRCLE
  8
_0-3_0
  6
CONTINUOUS
 62
   18
 10
3137.4889701238326
 20
1940.5358112501181
 40
8
  0
LINE
  8
_0-5_05_CENTER
  6
CENTER2
 62
    4
 10
3137.4889701189636
 20
1928.6596574371049
 11
3137.4889701189636
 21
1952.4119650670525
  0
LINE
  8
_0-3_0
  6
CONTINUOUS
 62
   18
 10
3215.9889701242537
 20
1940.535811249707
 11
3215.9889701242537
 21
1905.5358113411057
  0
LINE
  8
_0-3_0
  6
CONTINUOUS
 62
   18
 10
3175.9889701242532
 20
1940.535811249707
 11
3175.9889701242532
 21
1905.5358113411075
  0
LINE
  8
_0-3_0
  6
CONTINUOUS
 62
   18
 10
3170.9889701242537
 20
1900.5358113411078
 11
3065.9889701992715
 21
1900.5358113411078
  0
LINE
  8
_0-3_0
  6
CONTINUOUS
 62
   18
 10
3170.9889701242537
 20
1900.5358113411078
 11
3175.9889701242532
 21
1905.5358113411075
  0
LINE
  8
_0-3_0
  6
CONTINUOUS
 62
   18
 10
3215.9889701242537
 20
1905.5358113411057
 11
3220.9889701242537
 21
1900.5358113411057
  0
LINE
  8
_0-5_05_CENTER
  6
CENTER2
 62
    4
 10
3137.4889701242564
 20
2747.1354134931762
 11
3137.4889701242564
 21
2717.5094362349346
  0
LINE
  8
_0-4_04_HIDDEN
  6
CONTINUOUS
 62
    7
 10
3175.9889701242632
 20
2736.2389907130068
 11
3175.9889701242641
 21
2728.2389907129937
  0
LINE
  8
_0-5_05_CENTER
  6
CENTER2
 62
    4
 10
3254.4889701242923
 20
2747.1354134931762
 11
3254.4889701242923
 21
2717.5094362349346
  0
LINE
  8
_0-4_04_HIDDEN
  6
CONTINUOUS
 62
    7
 10
3215.988970124286
 20
2736.2389907130068
 11
3215.9889701242851
 21
2728.2389907129937
  0
LINE
  8
_0-3_0
  6
CONTINUOUS
 62
   18
 10
1919.4421718576734
 20
1900.5358113411003
 11
1919.4421718576734
 21
1830.5358113392897
  0
LINE
  8
_0-3_0
  6
CONTINUOUS
 62
   18
 10
1919.4421718576734
 20
1830.5358113392897
 11
2247.5671718531803
 21
1830.5358113392897
  0
LINE
  8
_0-3_0
  6
CONTINUOUS
 62
   18
 10
2247.5671718531803
 20
1830.5358113392897
 11
2247.5671718531803
 21
1900.5358113411003
  0
LINE
  8
_0-5_05_CENTER
  6
CENTER2
 62
    4
 10
2029.8183257430599
 20
1940.5358112499143
 11
2006.0660181131122
 21
1940.5358112499143
  0
CIRCLE
  8
_0-3_0
  6
CONTINUOUS
 62
   18
 10
2017.9421719284999
 20
1940.5358112503291
 40
8
  0
LINE
  8
_0-5_05_CENTER
  6
CENTER2
 62
    4
 10
1931.9305826333764
 20
1940.5358112499143
 11
1986.9537612228103
 21
1940.5358112499143
  0
LINE
  8
_0-5_05_CENTER
  6
CENTER2
 62
    4
 10
1959.4421719280888
 20
1892.9942551614095
 11
1959.4421719280815
 21
1968.047400544632
  0
LINE
  8
_0-5_05_CENTER
  6
CENTER2
 62
    4
 10
2017.9421719333693
 20
1928.6596574373161
 11
2017.9421719333693
 21
1952.4119650672637
  0
LINE
  8
_0-5_05_CENTER
  6
CENTER2
 62
    4
 10
1889.0660181131122
 20
1940.5358112499143
 11
1912.8183257430599
 21
1940.5358112499143
  0
CIRCLE
  8
_0-3_0
  6
CONTINUOUS
 62
   18
 10
1900.9421719276725
 20
1940.5358112503291
 40
8
  0
LINE
  8
_0-5_05_CENTER
  6
CENTER2
 62
    4
 10
1900.942171922803
 20
1928.6596574373161
 11
1900.942171922803
 21
1952.4119650672637
  0
LINE
  8
_0-3_0
  6
CONTINUOUS
 62
   18
 10
1939.4421719280933
 20
1940.5358112499143
 11
1939.4421719280933
 21
1905.5358113411003
  0
LINE
  8
_0-3_0
  6
CONTINUOUS
 62
   18
 10
1939.4421719280933
 20
1905.5358113411003
 11
1934.4421719280933
 21
1900.5358113411003
  0
LINE
  8
_0-3_0
  6
CONTINUOUS
 62
   18
 10
1934.4421719280933
 20
1900.5358113411003
 11
1919.442171857673
 21
1900.5358113411003
  0
LINE
  8
_0-3_0
  6
CONTINUOUS
 62
   18
 10
2247.5671718531803
 20
1900.5358113411003
 11
1984.4421719280936
 21
1900.5358113411003
  0
LINE
  8
_0-3_0
  6
CONTINUOUS
 62
   18
 10
1984.4421719280936
 20
1900.5358113411003
 11
1979.4421719280931
 21
1905.5358113411003
  0
LINE
  8
_0-3_0
  6
CONTINUOUS
 62
   18
 10
1979.4421719280931
 20
1905.5358113411003
 11
1979.4421719280931
 21
1940.5358112499143
  0
ARC
  8
_0-3_0
  6
CONTINUOUS
 62
   18
 10
1959.4421719280933
 20
1940.5358112499143
 40
20
 50
0
 51
180
  0
LINE
  8
_0-5_05_CENTER
  6
CENTER2
 62
    4
 10
1900.9421719280972
 20
2350.5646833647029
 11
1900.9421719280972
 21
2320.9387061064613
  0
LINE
  8
_0-4_04_HIDDEN
  6
CONTINUOUS
 62
    7
 10
1939.4421719281045
 20
2339.6682605845326
 11
1939.4421719281052
 21
2331.6682605845199
  0
LINE
  8
_0-5_05_CENTER
  6
CENTER2
 62
    4
 10
2017.9421719281338
 20
2350.5646833647029
 11
2017.9421719281338
 21
2320.9387061064613
  0
LINE
  8
_0-4_04_HIDDEN
  6
CONTINUOUS
 62
    7
 10
1979.442171928127
 20
2339.6682605845326
 11
1979.4421719281263
 21
2331.6682605845199
  0
LINE
  8
_0-4_04_HIDDEN
  6
CONTINUOUS
 62
    7
 10
3991.1116529856013
 20
1960.5358112499043
 11
3983.1116529855894
 21
1960.5358112499025
  0
LINE
  8
_0-5_05_CENTER
  6
CENTER2
 62
    4
 10
4001.6889692331783
 20
1940.5358112499027
 11
3972.0629919749367
 21
1940.5358112499027
  0
LINE
  8
_0-4_04_HIDDEN
  6
CONTINUOUS
 62
    7
 10
1525.5388594253843
 20
1960.5358112499143
 11
1517.5388594253716
 21
1960.5358112499143
  0
LINE
  8
_0-5_05_CENTER
  6
CENTER2
 62
    4
 10
1536.1161756729605
 20
1940.5358112499143
 11
1506.4901984147189
 21
1940.5358112499143
  0
INSERT
  2
-006-AM_BALLOON1
  8
_0-2_08_DIM
 10
1415.4888155557082
 20
2485.2726024859521
 41
5
 42
5
 50
0
  0
TEXT
  8
_0-3_0
 62
    7
 10
1402.2745298414225
 20
2477.7726024859512
 40
15
 41
1
 50
0
  1
11
  0
LINE
  8
_0-2_08_DIM
  6
CONTINUOUS
 62
    3
 10
1959.4421719280815
 20
1970.5474005446322
 11
1959.4421719280815
 21
2086.6413724717213
  0
LINE
  8
_0-2_08_DIM
  6
CONTINUOUS
 62
    3
 10
1819.4421718576737
 20
2003.0358113411005
 11
1819.4421718576737
 21
2086.6413724717213
  0
LINE
  8
_0-2_08_DIM
  6
CONTINUOUS
 62
    3
 10
1949.4421719280815
 20
2081.6413724717213
 11
1829.4421718576734
 21
2081.6413724717213
  0
INSERT
  2
-007-_Open30
  8
_0-2_08_DIM
 10
1959.4421719280815
 20
2081.6413724717213
 41
10
 42
10
 50
0
  0
INSERT
  2
-007-_Open30
  8
_0-2_08_DIM
 10
1819.4421718576737
 20
2081.6413724717213
 41
10
 42
10
 50
180
  0
LINE
  8
_0-2_08_DIM
  6
CONTINUOUS
 62
    3
 10
1819.4421718576737
 20
2003.0358113411005
 11
1819.4421718576737
 21
2131.4838170395788
  0
LINE
  8
_0-2_08_DIM
  6
CONTINUOUS
 62
    3
 10
2349.4421718531803
 20
2003.0358113411005
 11
2349.4421718531803
 21
2131.4838170395788
  0
LINE
  8
_0-2_08_DIM
  6
CONTINUOUS
 62
    3
 10
1829.4421718576734
 20
2126.4838170395792
 11
2339.4421718531803
 21
2126.4838170395792
  0
INSERT
  2
-007-_Open30
  8
_0-2_08_DIM
 10
1819.4421718576737
 20
2126.4838170395792
 41
10
 42
10
 50
180
  0
INSERT
  2
-007-_Open30
  8
_0-2_08_DIM
 10
2349.4421718531803
 20
2126.4838170395792
 41
10
 42
10
 50
0
  0
LINE
  8
_0-2_08_DIM
  6
CONTINUOUS
 62
    3
 10
2032.3183257430596
 20
1940.5358112499143
 11
2069.4470563422155
 21
1940.5358112499143
  0
LINE
  8
_0-2_08_DIM
  6
CONTINUOUS
 62
    3
 10
2081.9421718554267
 20
2000.5358113411005
 11
2059.4470563422155
 21
2000.5358113411005
  0
LINE
  8
_0-2_08_DIM
  6
CONTINUOUS
 62
    3
 10
2064.4470563422155
 20
1950.5358112499143
 11
2064.4470563422155
 21
1990.5358113411003
  0
INSERT
  2
-007-_Open30
  8
_0-2_08_DIM
 10
2064.4470563422155
 20
1940.5358112499143
 41
10
 42
10
 50
270
  0
INSERT
  2
-007-_Open30
  8
_0-2_08_DIM
 10
2064.4470563422155
 20
2000.5358113411005
 41
10
 42
10
 50
90
  0
LINE
  8
_0-2_08_DIM
  6
CONTINUOUS
 62
    3
 10
1816.9421718576734
 20
2000.5358113411005
 11
1746.4144300078472
 21
2000.5358113411005
  0
LINE
  8
_0-2_08_DIM
  6
CONTINUOUS
 62
    3
 10
1816.9421718576734
 20
1730.5358113392892
 11
1746.4144300078472
 21
1730.5358113392892
  0
LINE
  8
_0-2_08_DIM
  6
CONTINUOUS
 62
    3
 10
1751.4144300078472
 20
1990.5358113411003
 11
1751.4144300078472
 21
1740.5358113392895
  0
INSERT
  2
-007-_Open30
  8
_0-2_08_DIM
 10
1751.4144300078472
 20
2000.5358113411005
 41
10
 42
10
 50
90
  0
INSERT
  2
-007-_Open30
  8
_0-2_08_DIM
 10
1751.4144300078472
 20
1730.5358113392892
 41
10
 42
10
 50
270
  0
LINE
  8
_0-2_08_DIM
  6
CONTINUOUS
 62
    3
 10
1550.2258708005425
 20
1950.5358113345519
 11
1456.1595399654666
 21
1950.5358113345519
  0
LINE
  8
_0-2_08_DIM
  6
CONTINUOUS
 62
    3
 10
1515.0388594326828
 20
1730.5358113392995
 11
1456.1595399654666
 21
1730.5358113392995
  0
LINE
  8
_0-2_08_DIM
  6
CONTINUOUS
 62
    3
 10
1461.1595399654666
 20
1940.5358113345519
 11
1461.1595399654666
 21
1740.5358113392995
  0
INSERT
  2
-007-_Open30
  8
_0-2_08_DIM
 10
1461.1595399654666
 20
1950.5358113345519
 41
10
 42
10
 50
90
  0
INSERT
  2
-007-_Open30
  8
_0-2_08_DIM
 10
1461.1595399654666
 20
1730.5358113392995
 41
10
 42
10
 50
270
  0
LINE
  8
_0-2_08_DIM
  6
CONTINUOUS
 62
    3
 10
1517.5388594266401
 20
2003.0358113411041
 11
1517.5388594266401
 21
2046.70013520627
  0
LINE
  8
_0-2_08_DIM
  6
CONTINUOUS
 62
    3
 10
1567.5388594296614
 20
1967.8487999636729
 11
1567.5388594296614
 21
2046.70013520627
  0
LINE
  8
_0-2_08_DIM
  6
CONTINUOUS
 62
    3
 10
1527.5388594266401
 20
2041.70013520627
 11
1557.5388594296614
 21
2041.70013520627
  0
INSERT
  2
-007-_Open30
  8
_0-2_08_DIM
 10
1517.5388594266401
 20
2041.70013520627
 41
10
 42
10
 50
180
  0
INSERT
  2
-007-_Open30
  8
_0-2_08_DIM
 10
1567.5388594296614
 20
2041.70013520627
 41
10
 42
10
 50
0
  0
LINE
  8
_0-2_08_DIM
  6
CONTINUOUS
 62
    3
 10
2311.4421718612584
 20
2282.3552719689524
 11
2311.4421718612584
 21
2183.137985079908
  0
LINE
  8
_0-2_08_DIM
  6
CONTINUOUS
 62
    3
 10
2127.4421718612584
 20
2282.3552719689524
 11
2127.4421718612584
 21
2183.137985079908
  0
LINE
  8
_0-2_08_DIM
  6
CONTINUOUS
 62
    3
 10
2301.4421718612584
 20
2188.1379850799076
 11
2137.4421718612589
 21
2188.1379850799076
  0
INSERT
  2
-007-_Open30
  8
_0-2_08_DIM
 10
2311.4421718612584
 20
2188.1379850799076
 41
10
 42
10
 50
0
  0
INSERT
  2
-007-_Open30
  8
_0-2_08_DIM
 10
2127.4421718612584
 20
2188.1379850799076
 41
10
 42
10
 50
180
  0
LINE
  8
_0-2_08_DIM
  6
CONTINUOUS
 62
    3
 10
2127.4421718612584
 20
2282.3552719689524
 11
2127.4421718612584
 21
2183.137985079908
  0
LINE
  8
_0-2_08_DIM
  6
CONTINUOUS
 62
    3
 10
1819.4421718576737
 20
2237.168260588207
 11
1819.4421718576737
 21
2183.137985079908
  0
LINE
  8
_0-2_08_DIM
  6
CONTINUOUS
 62
    3
 10
2117.4421718612584
 20
2188.1379850799076
 11
1829.4421718576734
 21
2188.1379850799076
  0
INSERT
  2
-007-_Open30
  8
_0-2_08_DIM
 10
2127.4421718612584
 20
2188.1379850799076
 41
10
 42
10
 50
0
  0
INSERT
  2
-007-_Open30
  8
_0-2_08_DIM
 10
1819.4421718576737
 20
2188.1379850799076
 41
10
 42
10
 50
180
  0
LINE
  8
_0-2_08_DIM
  6
CONTINUOUS
 62
    3
 10
2328.7551604903792
 20
2299.6682605980732
 11
2399.7550763423433
 21
2299.6682605980732
  0
LINE
  8
_0-2_08_DIM
  6
CONTINUOUS
 62
    3
 10
2351.9421718531803
 20
2339.6682605882052
 11
2399.7550763423433
 21
2339.6682605882052
  0
LINE
  8
_0-2_08_DIM
  6
CONTINUOUS
 62
    3
 10
2394.7550763423433
 20
2309.6682605980732
 11
2394.7550763423433
 21
2329.6682605882056
  0
INSERT
  2
-007-_Open30
  8
_0-2_08_DIM
 10
2394.7550763423433
 20
2299.6682605980732
 41
10
 42
10
 50
270
  0
INSERT
  2
-007-_Open30
  8
_0-2_08_DIM
 10
2394.7550763423433
 20
2339.6682605882052
 41
10
 42
10
 50
90
  0
LINE
  8
_0-2_08_DIM
  6
CONTINUOUS
 62
    3
 10
2318.984515463545
 20
1495.0169269614025
 11
2402.5128814967802
 21
1495.0169269614025
  0
LINE
  8
_0-2_08_DIM
  6
CONTINUOUS
 62
    3
 10
2351.9421718531803
 20
1445.0169269627995
 11
2402.5128814967802
 21
1445.0169269627995
  0
LINE
  8
_0-2_08_DIM
  6
CONTINUOUS
 62
    3
 10
2397.5128814967802
 20
1485.0169269614025
 11
2397.5128814967802
 21
1455.0169269627995
  0
INSERT
  2
-007-_Open30
  8
_0-2_08_DIM
 10
2397.5128814967802
 20
1495.0169269614025
 41
10
 42
10
 50
90
  0
INSERT
  2
-007-_Open30
  8
_0-2_08_DIM
 10
2397.5128814967802
 20
1445.0169269627995
 41
10
 42
10
 50
270
  0
LINE
  8
_0-2_08_DIM
  6
CONTINUOUS
 62
    3
 10
1517.5388594266401
 20
2003.0358113411041
 11
1517.5388594266401
 21
2085.2119679473208
  0
LINE
  8
_0-2_08_DIM
  6
CONTINUOUS
 62
    3
 10
1617.5388594253923
 20
2003.0358113411041
 11
1617.5388594253923
 21
2085.2119679473208
  0
LINE
  8
_0-2_08_DIM
  6
CONTINUOUS
 62
    3
 10
1527.5388594266401
 20
2080.2119679473208
 11
1607.538859425392
 21
2080.2119679473208
  0
INSERT
  2
-007-_Open30
  8
_0-2_08_DIM
 10
1517.5388594266401
 20
2080.2119679473208
 41
10
 42
10
 50
180
  0
INSERT
  2
-007-_Open30
  8
_0-2_08_DIM
 10
1617.5388594253923
 20
2080.2119679473208
 41
10
 42
10
 50
0
  0
INSERT
  2
-006-AM_BALLOON1
  8
_0-2_08_DIM
 10
3545.9128769274571
 20
2349.5697660050132
 41
5
 42
5
 50
0
  0
TEXT
  8
_0-3_0
 62
    7
 10
3530.5557340703149
 20
2342.0697660050132
 40
15
 41
1
 50
0
  1
12
  0
LINE
  8
_0-2_08_DIM
  6
CONTINUOUS
 62
    3
 10
3958.4246416189235
 20
1950.5358113345519
 11
4048.1069474426408
 21
1950.5358113345519
  0
LINE
  8
_0-2_08_DIM
  6
CONTINUOUS
 62
    3
 10
3993.6116529856122
 20
1730.5358113392892
 11
4048.1069474426408
 21
1730.5358113392892
  0
LINE
  8
_0-2_08_DIM
  6
CONTINUOUS
 62
    3
 10
4043.1069474426413
 20
1940.5358113345519
 11
4043.1069474426413
 21
1740.5358113392895
  0
INSERT
  2
-007-_Open30
  8
_0-2_08_DIM
 10
4043.1069474426413
 20
1950.5358113345519
 41
10
 42
10
 50
90
  0
INSERT
  2
-007-_Open30
  8
_0-2_08_DIM
 10
4043.1069474426413
 20
1730.5358113392892
 41
10
 42
10
 50
270
  0
LINE
  8
_0-2_08_DIM
  6
CONTINUOUS
 62
    3
 10
3941.1116529898031
 20
1967.8487999636729
 11
3941.1116529898031
 21
2046.70013520627
  0
LINE
  8
_0-2_08_DIM
  6
CONTINUOUS
 62
    3
 10
3991.1116529855344
 20
2003.0358113411139
 11
3991.1116529855344
 21
2046.70013520627
  0
LINE
  8
_0-2_08_DIM
  6
CONTINUOUS
 62
    3
 10
3951.111652989804
 20
2041.70013520627
 11
3981.1116529855344
 21
2041.70013520627
  0
INSERT
  2
-007-_Open30
  8
_0-2_08_DIM
 10
3941.1116529898031
 20
2041.70013520627
 41
10
 42
10
 50
180
  0
INSERT
  2
-007-_Open30
  8
_0-2_08_DIM
 10
3991.1116529855344
 20
2041.70013520627
 41
10
 42
10
 50
0
  0
LINE
  8
_0-2_08_DIM
  6
CONTINUOUS
 62
    3
 10
3991.1116529855344
 20
2003.0358113411139
 11
3991.1116529855344
 21
2085.2119679473208
  0
LINE
  8
_0-2_08_DIM
  6
CONTINUOUS
 62
    3
 10
3891.1116529856095
 20
2003.035811341103
 11
3891.1116529856095
 21
2085.2119679473208
  0
LINE
  8
_0-2_08_DIM
  6
CONTINUOUS
 62
    3
 10
3981.1116529855344
 20
2080.2119679473208
 11
3901.1116529856104
 21
2080.2119679473208
  0
INSERT
  2
-007-_Open30
  8
_0-2_08_DIM
 10
3991.1116529855344
 20
2080.2119679473208
 41
10
 42
10
 50
0
  0
INSERT
  2
-007-_Open30
  8
_0-2_08_DIM
 10
3891.1116529856095
 20
2080.2119679473208
 41
10
 42
10
 50
180
  0
LINE
  8
_0-2_08_DIM
  6
CONTINUOUS
 62
    3
 10
3891.1116529856095
 20
2003.035811341103
 11
3891.1116529856095
 21
2085.2119679473208
  0
LINE
  8
_0-2_08_DIM
  6
CONTINUOUS
 62
    3
 10
3551.1116529933902
 20
2003.0358113411139
 11
3551.1116529933902
 21
2085.2119679473208
  0
LINE
  8
_0-2_08_DIM
  6
CONTINUOUS
 62
    3
 10
3881.1116529856104
 20
2080.2119679473208
 11
3561.1116529933911
 21
2080.2119679473208
  0
INSERT
  2
-007-_Open30
  8
_0-2_08_DIM
 10
3891.1116529856095
 20
2080.2119679473208
 41
10
 42
10
 50
0
  0
INSERT
  2
-007-_Open30
  8
_0-2_08_DIM
 10
3551.1116529933902
 20
2080.2119679473208
 41
10
 42
10
 50
180
  0
LINE
  8
_0-2_08_DIM
  6
CONTINUOUS
 62
    3
 10
3888.611652989679
 20
1738.5358113392215
 11
3467.0469018858066
 21
1738.5358113392213
  0
LINE
  8
_0-2_08_DIM
  6
CONTINUOUS
 62
    3
 10
3566.6116529933906
 20
1992.5358113411141
 11
3467.0469018858066
 21
1992.5358113411141
  0
LINE
  8
_0-2_08_DIM
  6
CONTINUOUS
 62
    3
 10
3472.0469018858062
 20
1748.5358113392213
 11
3472.0469018858062
 21
1982.5358113411141
  0
INSERT
  2
-007-_Open30
  8
_0-2_08_DIM
 10
3472.0469018858062
 20
1738.5358113392213
 41
10
 42
10
 50
270
  0
INSERT
  2
-007-_Open30
  8
_0-2_08_DIM
 10
3472.0469018858062
 20
1992.5358113411141
 41
10
 42
10
 50
90
  0
LINE
  8
_0-2_08_DIM
  6
CONTINUOUS
 62
    3
 10
3566.6116529933906
 20
1992.5358113411141
 11
3507.0456509281153
 21
1992.5358113411141
  0
LINE
  8
_0-2_08_DIM
  6
CONTINUOUS
 62
    3
 10
3548.6116529933906
 20
1900.5358113411139
 11
3507.0456509281153
 21
1900.5358113411139
  0
LINE
  8
_0-2_08_DIM
  6
CONTINUOUS
 62
    3
 10
3512.0456509281148
 20
1982.5358113411141
 11
3512.0456509281148
 21
1910.5358113411139
  0
INSERT
  2
-007-_Open30
  8
_0-2_08_DIM
 10
3512.0456509281148
 20
1992.5358113411141
 41
10
 42
10
 50
90
  0
INSERT
  2
-007-_Open30
  8
_0-2_08_DIM
 10
3512.0456509281148
 20
1900.5358113411139
 41
10
 42
10
 50
270
  0
LINE
  8
_0-2_08_DIM
  6
CONTINUOUS
 62
    3
 10
3548.6116529933906
 20
1900.5358113411139
 11
3507.0456509281153
 21
1900.5358113411139
  0
LINE
  8
_0-2_08_DIM
  6
CONTINUOUS
 62
    3
 10
3888.6116529896799
 20
1738.5358113392215
 11
3507.0456509281153
 21
1738.5358113392213
  0
LINE
  8
_0-2_08_DIM
  6
CONTINUOUS
 62
    3
 10
3512.0456509281157
 20
1890.5358113411139
 11
3512.0456509281157
 21
1748.5358113392213
  0
INSERT
  2
-007-_Open30
  8
_0-2_08_DIM
 10
3512.0456509281157
 20
1900.5358113411139
 41
10
 42
10
 50
90
  0
INSERT
  2
-007-_Open30
  8
_0-2_08_DIM
 10
3512.0456509281157
 20
1738.5358113392213
 41
10
 42
10
 50
270
  0
LINE
  8
_0-2_08_DIM
  6
CONTINUOUS
 62
    3
 10
3983.1116529898077
 20
1746.0358113392995
 11
3983.1116529898077
 21
1635.0076414130542
  0
LINE
  8
_0-2_08_DIM
  6
CONTINUOUS
 62
    3
 10
3559.1116529933906
 20
1898.035811341113
 11
3559.1116529933906
 21
1635.0076414130542
  0
LINE
  8
_0-2_08_DIM
  6
CONTINUOUS
 62
    3
 10
3973.1116529898086
 20
1640.0076414130547
 11
3569.1116529933902
 21
1640.0076414130547
  0
INSERT
  2
-007-_Open30
  8
_0-2_08_DIM
 10
3983.1116529898077
 20
1640.0076414130547
 41
10
 42
10
 50
0
  0
INSERT
  2
-007-_Open30
  8
_0-2_08_DIM
 10
3559.1116529933906
 20
1640.0076414130547
 41
10
 42
10
 50
180
  0
LINE
  8
_0-2_08_DIM
  6
CONTINUOUS
 62
    3
 10
3983.1116529898077
 20
1746.0358113392995
 11
3983.1116529898077
 21
1677.2280188614523
  0
LINE
  8
_0-2_08_DIM
  6
CONTINUOUS
 62
    3
 10
3891.1116529898081
 20
1728.0358113392995
 11
3891.1116529898081
 21
1677.2280188614523
  0
LINE
  8
_0-2_08_DIM
  6
CONTINUOUS
 62
    3
 10
3973.1116529898086
 20
1682.2280188614523
 11
3901.1116529898081
 21
1682.2280188614523
  0
INSERT
  2
-007-_Open30
  8
_0-2_08_DIM
 10
3983.1116529898077
 20
1682.2280188614523
 41
10
 42
10
 50
0
  0
INSERT
  2
-007-_Open30
  8
_0-2_08_DIM
 10
3891.1116529898081
 20
1682.2280188614523
 41
10
 42
10
 50
180
  0
LINE
  8
_0-2_08_DIM
  6
CONTINUOUS
 62
    3
 10
3254.4889701295283
 20
1954.9119650670527
 11
3254.4889701295283
 21
2037.9199876364312
  0
LINE
  8
_0-2_08_DIM
  6
CONTINUOUS
 62
    3
 10
3137.4889701189636
 20
1954.9119650670527
 11
3137.4889701189636
 21
2037.9199876364312
  0
LINE
  8
_0-2_08_DIM
  6
CONTINUOUS
 62
    3
 10
3244.4889701295292
 20
2032.9199876364312
 11
3147.4889701189636
 21
2032.9199876364312
  0
INSERT
  2
-007-_Open30
  8
_0-2_08_DIM
 10
3254.4889701295283
 20
2032.9199876364312
 41
10
 42
10
 50
0
  0
INSERT
  2
-007-_Open30
  8
_0-2_08_DIM
 10
3137.4889701189636
 20
2032.9199876364312
 41
10
 42
10
 50
180
  0
LINE
  8
_0-2_08_DIM
  6
CONTINUOUS
 62
    3
 10
3195.9889701242423
 20
1970.547400544423
 11
3195.9889701242423
 21
2086.6413724717213
  0
LINE
  8
_0-2_08_DIM
  6
CONTINUOUS
 62
    3
 10
3335.9889701946736
 20
2003.0358113411078
 11
3335.9889701946736
 21
2086.6413724717213
  0
LINE
  8
_0-2_08_DIM
  6
CONTINUOUS
 62
    3
 10
3205.9889701242423
 20
2081.6413724717213
 11
3325.9889701946727
 21
2081.6413724717213
  0
INSERT
  2
-007-_Open30
  8
_0-2_08_DIM
 10
3195.9889701242423
 20
2081.6413724717213
 41
10
 42
10
 50
180
  0
INSERT
  2
-007-_Open30
  8
_0-2_08_DIM
 10
3335.9889701946736
 20
2081.6413724717213
 41
10
 42
10
 50
0
  0
LINE
  8
_0-2_08_DIM
  6
CONTINUOUS
 62
    3
 10
3335.9889701946736
 20
2003.0358113411078
 11
3335.9889701946736
 21
2131.4838170395788
  0
LINE
  8
_0-2_08_DIM
  6
CONTINUOUS
 62
    3
 10
2805.9889701984675
 20
2003.0358113411078
 11
2805.9889701984675
 21
2131.4838170395788
  0
LINE
  8
_0-2_08_DIM
  6
CONTINUOUS
 62
    3
 10
3325.9889701946727
 20
2126.4838170395792
 11
2815.9889701984671
 21
2126.4838170395792
  0
INSERT
  2
-007-_Open30
  8
_0-2_08_DIM
 10
3335.9889701946736
 20
2126.4838170395792
 41
10
 42
10
 50
0
  0
INSERT
  2
-007-_Open30
  8
_0-2_08_DIM
 10
2805.9889701984675
 20
2126.4838170395792
 41
10
 42
10
 50
180
  0
LINE
  8
_0-2_08_DIM
  6
CONTINUOUS
 62
    3
 10
3123.1128163092726
 20
1940.5358112497051
 11
3094.1364835145932
 21
1940.5358112497051
  0
LINE
  8
_0-2_08_DIM
  6
CONTINUOUS
 62
    3
 10
3073.4889701965703
 20
2000.5358113411073
 11
3104.1364835145932
 21
2000.5358113411073
  0
LINE
  8
_0-2_08_DIM
  6
CONTINUOUS
 62
    3
 10
3099.1364835145932
 20
1950.5358112497054
 11
3099.1364835145932
 21
1990.5358113411071
  0
INSERT
  2
-007-_Open30
  8
_0-2_08_DIM
 10
3099.1364835145932
 20
1940.5358112497051
 41
10
 42
10
 50
270
  0
INSERT
  2
-007-_Open30
  8
_0-2_08_DIM
 10
3099.1364835145932
 20
2000.5358113411073
 41
10
 42
10
 50
90
  0
LINE
  8
_0-2_08_DIM
  6
CONTINUOUS
 62
    3
 10
3338.4889701946731
 20
1730.5358113393031
 11
3408.3218667015094
 21
1730.5358113393031
  0
LINE
  8
_0-2_08_DIM
  6
CONTINUOUS
 62
    3
 10
3338.4889701946731
 20
2000.5358113411075
 11
3408.3218667015094
 21
2000.5358113411075
  0
LINE
  8
_0-2_08_DIM
  6
CONTINUOUS
 62
    3
 10
3403.321866701509
 20
1740.5358113393031
 11
3403.321866701509
 21
1990.5358113411075
  0
INSERT
  2
-007-_Open30
  8
_0-2_08_DIM
 10
3403.321866701509
 20
1730.5358113393031
 41
10
 42
10
 50
270
  0
INSERT
  2
-007-_Open30
  8
_0-2_08_DIM
 10
3403.321866701509
 20
2000.5358113411075
 41
10
 42
10
 50
90
  0
LINE
  8
_0-2_08_DIM
  6
CONTINUOUS
 62
    3
 10
3065.9889701992715
 20
2293.7389907132401
 11
3065.9889701992715
 21
2201.8775560422778
  0
LINE
  8
_0-2_08_DIM
  6
CONTINUOUS
 62
    3
 10
2805.988970199166
 20
2293.7389907132401
 11
2805.988970199166
 21
2201.8775560422778
  0
LINE
  8
_0-2_08_DIM
  6
CONTINUOUS
 62
    3
 10
3055.9889701992715
 20
2206.8775560422773
 11
2815.988970199166
 21
2206.8775560422773
  0
INSERT
  2
-007-_Open30
  8
_0-2_08_DIM
 10
3065.9889701992715
 20
2206.8775560422773
 41
10
 42
10
 50
0
  0
INSERT
  2
-007-_Open30
  8
_0-2_08_DIM
 10
2805.988970199166
 20
2206.8775560422773
 41
10
 42
10
 50
180
  0
LINE
  8
_0-2_08_DIM
  6
CONTINUOUS
 62
    3
 10
2979.4889701963716
 20
2332.3056863963284
 11
2979.4889701963716
 21
2241.1063638233145
  0
LINE
  8
_0-2_08_DIM
  6
CONTINUOUS
 62
    3
 10
2892.4889701931406
 20
2332.3056863963275
 11
2892.4889701931406
 21
2241.1063638233145
  0
LINE
  8
_0-2_08_DIM
  6
CONTINUOUS
 62
    3
 10
2969.4889701963716
 20
2246.1063638233145
 11
2902.4889701931406
 21
2246.1063638233145
  0
INSERT
  2
-007-_Open30
  8
_0-2_08_DIM
 10
2979.4889701963716
 20
2246.1063638233145
 41
10
 42
10
 50
0
  0
INSERT
  2
-007-_Open30
  8
_0-2_08_DIM
 10
2892.4889701931406
 20
2246.1063638233145
 41
10
 42
10
 50
180
  0
LINE
  8
_0-2_08_DIM
  6
CONTINUOUS
 62
    3
 10
2826.6759815691194
 20
2696.2389907150591
 11
2746.7045585253391
 21
2696.2389907150591
  0
LINE
  8
_0-2_08_DIM
  6
CONTINUOUS
 62
    3
 10
2803.488970199166
 20
2736.238990716522
 11
2746.7045585253391
 21
2736.238990716522
  0
LINE
  8
_0-2_08_DIM
  6
CONTINUOUS
 62
    3
 10
2751.7045585253391
 20
2706.2389907150591
 11
2751.7045585253391
 21
2726.238990716522
  0
INSERT
  2
-007-_Open30
  8
_0-2_08_DIM
 10
2751.7045585253391
 20
2696.2389907150591
 41
10
 42
10
 50
270
  0
INSERT
  2
-007-_Open30
  8
_0-2_08_DIM
 10
2751.7045585253391
 20
2736.238990716522
 41
10
 42
10
 50
90
  0
LINE
  8
_0-2_08_DIM
  6
CONTINUOUS
 62
    3
 10
3027.9889701982402
 20
2713.5519793441799
 11
3027.9889701982402
 21
2798.8269443071886
  0
LINE
  8
_0-2_08_DIM
  6
CONTINUOUS
 62
    3
 10
2843.9889701982402
 20
2713.5519793441799
 11
2843.9889701982402
 21
2798.8269443071886
  0
LINE
  8
_0-2_08_DIM
  6
CONTINUOUS
 62
    3
 10
3017.9889701982402
 20
2793.8269443071886
 11
2853.9889701982402
 21
2793.8269443071886
  0
INSERT
  2
-007-_Open30
  8
_0-2_08_DIM
 10
3027.9889701982402
 20
2793.8269443071886
 41
10
 42
10
 50
0
  0
INSERT
  2
-007-_Open30
  8
_0-2_08_DIM
 10
2843.9889701982402
 20
2793.8269443071886
 41
10
 42
10
 50
180
  0
LINE
  8
_0-2_08_DIM
  6
CONTINUOUS
 62
    3
 10
3027.9889701982402
 20
2713.5519793441799
 11
3027.9889701982402
 21
2798.8269443071886
  0
LINE
  8
_0-2_08_DIM
  6
CONTINUOUS
 62
    3
 10
3335.9889701946736
 20
2738.7389907167253
 11
3335.9889701946736
 21
2798.8269443071886
  0
LINE
  8
_0-2_08_DIM
  6
CONTINUOUS
 62
    3
 10
3037.9889701982402
 20
2793.8269443071886
 11
3325.9889701946727
 21
2793.8269443071886
  0
INSERT
  2
-007-_Open30
  8
_0-2_08_DIM
 10
3027.9889701982402
 20
2793.8269443071886
 41
10
 42
10
 50
180
  0
INSERT
  2
-007-_Open30
  8
_0-2_08_DIM
 10
3335.9889701946736
 20
2793.8269443071886
 41
10
 42
10
 50
0
  0
LINE
  8
_0-2_08_DIM
  6
CONTINUOUS
 62
    3
 10
2878.5556658733203
 20
2346.2389907161551
 11
2746.7045585253391
 21
2346.2389907161551
  0
LINE
  8
_0-2_08_DIM
  6
CONTINUOUS
 62
    3
 10
2803.488970199166
 20
2296.2389907132401
 11
2746.7045585253391
 21
2296.2389907132401
  0
LINE
  8
_0-2_08_DIM
  6
CONTINUOUS
 62
    3
 10
2751.7045585253391
 20
2336.2389907161551
 11
2751.7045585253391
 21
2306.2389907132401
  0
INSERT
  2
-007-_Open30
  8
_0-2_08_DIM
 10
2751.7045585253391
 20
2346.2389907161551
 41
10
 42
10
 50
90
  0
INSERT
  2
-007-_Open30
  8
_0-2_08_DIM
 10
2751.7045585253391
 20
2296.2389907132401
 41
10
 42
10
 50
270
  0
LINE
  8
_0-2_08_DIM
  6
CONTINUOUS
 62
    3
 10
2803.488970199166
 20
2296.2389907132401
 11
2697.5535145330696
 21
2296.2389907132401
  0
LINE
  8
_0-2_08_DIM
  6
CONTINUOUS
 62
    3
 10
2803.488970199166
 20
2736.238990716522
 11
2697.5535145330696
 21
2736.238990716522
  0
LINE
  8
_0-2_08_DIM
  6
CONTINUOUS
 62
    3
 10
2702.5535145330691
 20
2306.2389907132401
 11
2702.5535145330691
 21
2726.238990716522
  0
INSERT
  2
-007-_Open30
  8
_0-2_08_DIM
 10
2702.5535145330691
 20
2296.2389907132401
 41
10
 42
10
 50
270
  0
INSERT
  2
-007-_Open30
  8
_0-2_08_DIM
 10
2702.5535145330691
 20
2736.238990716522
 41
10
 42
10
 50
90
  0
LINE
  8
_0-2_08_DIM
  6
CONTINUOUS
 62
    3
 10
3015.9889701950078
 20
1436.3669081470425
 11
3015.9889701950078
 21
1346.6577399612979
  0
LINE
  8
_0-2_08_DIM
  6
CONTINUOUS
 62
    3
 10
2855.9889702031915
 20
1436.3669081470425
 11
2855.9889702031915
 21
1346.6577399612979
  0
LINE
  8
_0-2_08_DIM
  6
CONTINUOUS
 62
    3
 10
3005.9889701950074
 20
1351.6577399612979
 11
2865.9889702031915
 21
1351.6577399612979
  0
INSERT
  2
-007-_Open30
  8
_0-2_08_DIM
 10
3015.9889701950078
 20
1351.6577399612979
 41
10
 42
10
 50
0
  0
INSERT
  2
-007-_Open30
  8
_0-2_08_DIM
 10
2855.9889702031915
 20
1351.6577399612979
 41
10
 42
10
 50
180
  0
LINE
  8
_0-2_08_DIM
  6
CONTINUOUS
 62
    3
 10
3015.9889701950078
 20
1436.3669081470425
 11
3015.9889701950078
 21
1346.6577399612979
  0
LINE
  8
_0-2_08_DIM
  6
CONTINUOUS
 62
    3
 10
3285.9889701946749
 20
1436.3669081470425
 11
3285.9889701946749
 21
1346.6577399612979
  0
LINE
  8
_0-2_08_DIM
  6
CONTINUOUS
 62
    3
 10
3025.9889701950078
 20
1351.6577399612979
 11
3275.9889701946749
 21
1351.6577399612979
  0
INSERT
  2
-007-_Open30
  8
_0-2_08_DIM
 10
3015.9889701950078
 20
1351.6577399612979
 41
10
 42
10
 50
180
  0
INSERT
  2
-007-_Open30
  8
_0-2_08_DIM
 10
3285.9889701946749
 20
1351.6577399612979
 41
10
 42
10
 50
0
  0
LINE
  8
_0-2_08_DIM
  6
CONTINUOUS
 62
    3
 10
3285.9889701946749
 20
1436.3669081470425
 11
3285.9889701946749
 21
1346.6577399612979
  0
LINE
  8
_0-2_08_DIM
  6
CONTINUOUS
 62
    3
 10
3335.9889701946736
 20
1403.4092517626277
 11
3335.9889701946736
 21
1346.6577399612979
  0
LINE
  8
_0-2_08_DIM
  6
CONTINUOUS
 62
    3
 10
3295.9889701946749
 20
1351.6577399612979
 11
3325.9889701946727
 21
1351.6577399612979
  0
INSERT
  2
-007-_Open30
  8
_0-2_08_DIM
 10
3285.9889701946749
 20
1351.6577399612979
 41
10
 42
10
 50
180
  0
INSERT
  2
-007-_Open30
  8
_0-2_08_DIM
 10
3335.9889701946736
 20
1351.6577399612979
 41
10
 42
10
 50
0
  0
LINE
  8
_0-2_08_DIM
  6
CONTINUOUS
 62
    3
 10
2836.4466265888013
 20
1455.9092517614326
 11
2750.5753865220349
 21
1455.9092517614326
  0
LINE
  8
_0-2_08_DIM
  6
CONTINUOUS
 62
    3
 10
2803.488970199166
 20
1405.9092517628299
 11
2750.5753865220349
 21
1405.9092517628299
  0
LINE
  8
_0-2_08_DIM
  6
CONTINUOUS
 62
    3
 10
2755.5753865220349
 20
1445.9092517614326
 11
2755.5753865220349
 21
1415.9092517628296
  0
INSERT
  2
-007-_Open30
  8
_0-2_08_DIM
 10
2755.5753865220349
 20
1455.9092517614326
 41
10
 42
10
 50
90
  0
INSERT
  2
-007-_Open30
  8
_0-2_08_DIM
 10
2755.5753865220349
 20
1405.9092517628299
 41
10
 42
10
 50
270
  0
LINE
  8
_0-2_08_DIM
  6
CONTINUOUS
 62
    3
 10
2299.4421718491553
 20
1475.4745833470124
 11
2299.4421718491553
 21
1375.1028803254642
  0
LINE
  8
_0-2_08_DIM
  6
CONTINUOUS
 62
    3
 10
1869.4421718576718
 20
1475.4745833470124
 11
1869.4421718576718
 21
1375.1028803254642
  0
LINE
  8
_0-2_08_DIM
  6
CONTINUOUS
 62
    3
 10
2289.4421718491549
 20
1380.102880325464
 11
1879.4421718576718
 21
1380.102880325464
  0
INSERT
  2
-007-_Open30
  8
_0-2_08_DIM
 10
2299.4421718491553
 20
1380.102880325464
 41
10
 42
10
 50
0
  0
INSERT
  2
-007-_Open30
  8
_0-2_08_DIM
 10
1869.4421718576718
 20
1380.102880325464
 41
10
 42
10
 50
180
  0
LINE
  8
_0-2_08_DIM
  6
CONTINUOUS
 62
    3
 10
1869.4421718576718
 20
1475.4745833470124
 11
1869.4421718576718
 21
1375.1028803254642
  0
LINE
  8
_0-2_08_DIM
  6
CONTINUOUS
 62
    3
 10
1819.4421718576737
 20
1442.5169269625976
 11
1819.4421718576737
 21
1375.1028803254642
  0
LINE
  8
_0-2_08_DIM
  6
CONTINUOUS
 62
    3
 10
1859.4421718576716
 20
1380.102880325464
 11
1829.4421718576734
 21
1380.102880325464
  0
INSERT
  2
-007-_Open30
  8
_0-2_08_DIM
 10
1869.4421718576718
 20
1380.102880325464
 41
10
 42
10
 50
0
  0
INSERT
  2
-007-_Open30
  8
_0-2_08_DIM
 10
1819.4421718576737
 20
1380.102880325464
 41
10
 42
10
 50
180
  0
LINE
  8
_0-2_08_DIM
  6
CONTINUOUS
 62
    3
 10
2940.4889702031833
 20
1995.0358113411078
 11
2940.4889702031833
 21
2042.9199876364312
  0
LINE
  8
_0-2_08_DIM
  6
CONTINUOUS
 62
    3
 10
2931.4889702031833
 20
1995.0358113411078
 11
2931.4889702031833
 21
2042.9199876364312
  0
LINE
  8
_0-2_08_DIM
  6
CONTINUOUS
 62
    3
 10
2921.4889702031833
 20
2037.9199876364312
 11
2898.4889702031833
 21
2037.9199876364312
  0
LINE
  8
_0-2_08_DIM
  6
CONTINUOUS
 62
    3
 10
2940.4889702031833
 20
2037.9199876364312
 11
2931.4889702031833
 21
2037.9199876364312
  0
LINE
  8
_0-2_08_DIM
  6
CONTINUOUS
 62
    3
 10
2950.4889702031833
 20
2037.9199876364312
 11
2960.4889702031833
 21
2037.9199876364312
  0
INSERT
  2
-007-_Open30
  8
_0-2_08_DIM
 10
2940.4889702031833
 20
2037.9199876364312
 41
10
 42
10
 50
180
  0
INSERT
  2
-007-_Open30
  8
_0-2_08_DIM
 10
2931.4889702031833
 20
2037.9199876364312
 41
10
 42
10
 50
0
  0
LINE
  8
_0-2_08_DIM
  6
CONTINUOUS
 62
    3
 10
2935.9889701990774
 20
2013.6785532786689
 11
2935.9889701990774
 21
2086.6413724717213
  0
LINE
  8
_0-2_08_DIM
  6
CONTINUOUS
 62
    3
 10
2805.9889701984675
 20
2003.0358113411066
 11
2805.9889701984675
 21
2086.6413724717213
  0
LINE
  8
_0-2_08_DIM
  6
CONTINUOUS
 62
    3
 10
2925.9889701990774
 20
2081.6413724717213
 11
2815.9889701984671
 21
2081.6413724717213
  0
INSERT
  2
-007-_Open30
  8
_0-2_08_DIM
 10
2935.9889701990774
 20
2081.6413724717213
 41
10
 42
10
 50
0
  0
INSERT
  2
-007-_Open30
  8
_0-2_08_DIM
 10
2805.9889701984675
 20
2081.6413724717213
 41
10
 42
10
 50
180
  0
LINE
  8
_0-2_08_DIM
  6
CONTINUOUS
 62
    3
 10
2468.8935200318283
 20
2234.8757950672889
 11
2391.7907422540507
 21
2234.8757950672889
  0
LINE
  8
_0-2_08_DIM
  6
CONTINUOUS
 62
    3
 10
2391.7907422540507
 20
2234.8757950672889
 11
2326.6216663452519
 21
2287.4276336856046
  0
INSERT
  2
-007-_Open30
  8
_0-2_08_DIM
 10
2318.837310199614
 20
2293.7048782561051
 41
10
 42
10
 50
141.11756406979583
  0
LINE
  8
_0-2_08_DIM
  6
CONTINUOUS
 62
    3
 10
2421.9290533066378
 20
1585.0813515587552
 11
2344.8262755288606
 21
1585.0813515587552
  0
LINE
  8
_0-2_08_DIM
  6
CONTINUOUS
 62
    3
 10
2344.8262755288606
 20
1585.0813515587552
 11
2308.2172252868081
 21
1512.4309568594704
  0
INSERT
  2
-007-_Open30
  8
_0-2_08_DIM
 10
2303.7171978852966
 20
1503.500685117488
 41
10
 42
10
 50
243.2561402442247
  0
LINE
  8
_0-2_08_DIM
  6
CONTINUOUS
 62
    3
 10
2751.294034604447
 20
1545.8606332086856
 11
2828.3968123822247
 21
1545.8606332086856
  0
LINE
  8
_0-2_08_DIM
  6
CONTINUOUS
 62
    3
 10
2828.3968123822247
 20
1545.8606332086856
 11
2850.2704272012033
 21
1474.5518981946254
  0
INSERT
  2
-007-_Open30
  8
_0-2_08_DIM
 10
2853.2030133536564
 20
1464.9915666910401
 41
10
 42
10
 50
287.05314565583484
  0
LINE
  8
_0-2_08_DIM
  6
CONTINUOUS
 62
    3
 10
2783.751189758394
 20
2247.1364502711594
 11
2860.8511897583935
 21
2247.1364502711594
  0
LINE
  8
_0-2_08_DIM
  6
CONTINUOUS
 62
    3
 10
2860.8511897583935
 20
2247.1364502711594
 11
2887.6230278905832
 21
2330.9968581387247
  0
INSERT
  2
-007-_Open30
  8
_0-2_08_DIM
 10
2890.6642418296819
 20
2340.5231909996232
 41
10
 42
10
 50
72.294687323684514
  0
LINE
  8
_0-2_08_DIM
  6
CONTINUOUS
 62
    3
 10
2725.9903607178931
 20
2779.1890257116074
 11
2803.0931384956721
 21
2779.1890257116074
  0
LINE
  8
_0-2_08_DIM
  6
CONTINUOUS
 62
    3
 10
2803.0931384956721
 20
2779.1890257116074
 11
2835.3661383423623
 21
2713.7288955399863
  0
INSERT
  2
-007-_Open30
  8
_0-2_08_DIM
 10
2839.7881033966587
 20
2704.7597135784813
 41
10
 42
10
 50
296.24411102012874
  0
LINE
  8
_0-2_08_DIM
  6
CONTINUOUS
 62
    3
 10
1427.4264059484583
 20
2017.6254083632823
 11
1480.5291837262364
 21
2017.6254083632823
  0
LINE
  8
_0-2_08_DIM
  6
CONTINUOUS
 62
    3
 10
1480.5291837262364
 20
2017.6254083632823
 11
1552.0963460678367
 21
1962.4429008643101
  0
INSERT
  2
-007-_Open30
  8
_0-2_08_DIM
 10
1560.0155836892882
 20
1956.3367011054597
 41
10
 42
10
 50
322.36565523076143
  0
LINE
  8
_0-2_08_DIM
  6
CONTINUOUS
 62
    3
 10
4082.2181308265717
 20
2016.9528941069905
 11
4029.1153530487936
 21
2016.9528941069905
  0
LINE
  8
_0-2_08_DIM
  6
CONTINUOUS
 62
    3
 10
4029.1153530487936
 20
2016.9528941069905
 11
3956.676409800883
 21
1962.282655396348
  0
INSERT
  2
-007-_Open30
  8
_0-2_08_DIM
 10
3948.6944832311019
 20
1956.2586328005552
 41
10.000000000000002
 42
10.000000000000002
 50
217.04214124980271
  0
LINE
  8
_0-2_08_DIM
  6
CONTINUOUS
 62
    3
 10
3566.6116529933906
 20
1992.5358113411141
 11
3467.0469018858066
 21
1992.5358113411141
  0
LINE
  8
_0-2_08_DIM
  6
CONTINUOUS
 62
    3
 10
3548.6116529933906
 20
2000.5358113411032
 11
3467.0469018858066
 21
2000.5358113411032
  0
LINE
  8
_0-2_08_DIM
  6
CONTINUOUS
 62
    3
 10
3472.0469018858062
 20
2010.5358113411032
 11
3472.0469018858062
 21
2033.535811341103
  0
LINE
  8
_0-2_08_DIM
  6
CONTINUOUS
 62
    3
 10
3472.0469018858062
 20
1992.5358113411141
 11
3472.0469018858062
 21
2000.5358113411032
  0
LINE
  8
_0-2_08_DIM
  6
CONTINUOUS
 62
    3
 10
3472.0469018858062
 20
1982.5358113411141
 11
3472.0469018858062
 21
1972.5358113411141
  0
INSERT
  2
-007-_Open30
  8
_0-2_08_DIM
 10
3472.0469018858062
 20
1992.5358113411141
 41
10
 42
10
 50
90
  0
INSERT
  2
-007-_Open30
  8
_0-2_08_DIM
 10
3472.0469018858062
 20
2000.5358113411032
 41
10
 42
10
 50
270
  0
LINE
  8
_0-2_08_DIM
  6
CONTINUOUS
 62
    3
 10
3983.1116529898077
 20
1746.0358113392995
 11
3983.1116529898077
 21
1635.0076414130542
  0
LINE
  8
_0-2_08_DIM
  6
CONTINUOUS
 62
    3
 10
3991.1116529856131
 20
1728.0358113392895
 11
3991.1116529856131
 21
1635.0076414130542
  0
LINE
  8
_0-2_08_DIM
  6
CONTINUOUS
 62
    3
 10
4001.1116529856122
 20
1640.0076414130547
 11
4024.1116529856126
 21
1640.0076414130547
  0
LINE
  8
_0-2_08_DIM
  6
CONTINUOUS
 62
    3
 10
3983.1116529898077
 20
1640.0076414130547
 11
3991.1116529856131
 21
1640.0076414130547
  0
LINE
  8
_0-2_08_DIM
  6
CONTINUOUS
 62
    3
 10
3973.1116529898086
 20
1640.0076414130547
 11
3963.1116529898077
 21
1640.0076414130547
  0
INSERT
  2
-007-_Open30
  8
_0-2_08_DIM
 10
3983.1116529898077
 20
1640.0076414130547
 41
10
 42
10
 50
0
  0
INSERT
  2
-007-_Open30
  8
_0-2_08_DIM
 10
3991.1116529856131
 20
1640.0076414130547
 41
10
 42
10
 50
180
  0
INSERT
  2
-007-_Open30
  8
_0-2_08_DIM
 10
3133.8918308827647
 20
1947.6814805176093
 41
10
 42
10
 50
286.10628667705527
  0
LINE
  8
_0-2_08_DIM
  6
CONTINUOUS
 62
    3
 10
3131.1176301686723
 20
1957.2889677228015
 11
3112.0050729141371
 21
2023.4787168453827
  0
LINE
  8
_0-2_08_DIM
  6
CONTINUOUS
 62
    3
 10
3112.0050729141371
 20
2023.4787168453827
 11
3024.2005014855658
 21
2023.4787168453827
  0
LINE
  8
_0-2_08_DIM
  6
CONTINUOUS
 62
    3
 10
1900.9421719175211
 20
1954.9119650648879
 11
1900.9421719175211
 21
2037.9199876342664
  0
LINE
  8
_0-2_08_DIM
  6
CONTINUOUS
 62
    3
 10
2017.9421719280861
 20
1954.9119650648879
 11
2017.9421719280861
 21
2037.9199876342664
  0
LINE
  8
_0-2_08_DIM
  6
CONTINUOUS
 62
    3
 10
1910.9421719175211
 20
2032.9199876342664
 11
2007.9421719280861
 21
2032.9199876342664
  0
INSERT
  2
-007-_Open30
  8
_0-2_08_DIM
 10
1900.9421719175211
 20
2032.9199876342664
 41
10
 42
10
 50
180
  0
INSERT
  2
-007-_Open30
  8
_0-2_08_DIM
 10
2017.9421719280861
 20
2032.9199876342664
 41
10
 42
10
 50
0
  0
INSERT
  2
-007-_Open30
  8
_0-2_08_DIM
 10
2021.5393111642848
 20
1947.6814805154447
 41
10
 42
10
 50
253.89371332294473
  0
LINE
  8
_0-2_08_DIM
  6
CONTINUOUS
 62
    3
 10
2024.3135118783769
 20
1957.2889677206369
 11
2043.4260691329125
 21
2023.4787168432181
  0
LINE
  8
_0-2_08_DIM
  6
CONTINUOUS
 62
    3
 10
2043.4260691329125
 20
2023.4787168432181
 11
2131.2306405614841
 21
2023.4787168432181
  0
LINE
  8
_0-2_08_DIM
  6
CONTINUOUS
 62
    3
 10
1939.4421719280933
 20
1903.0358113411
 11
1939.4421719280933
 21
1843.0529930612604
  0
LINE
  8
_0-2_08_DIM
  6
CONTINUOUS
 62
    3
 10
1979.4421719280931
 20
1903.0358113411
 11
1979.4421719280931
 21
1843.0529930612604
  0
LINE
  8
_0-2_08_DIM
  6
CONTINUOUS
 62
    3
 10
1949.4421719280933
 20
1848.0529930612599
 11
1969.4421719280931
 21
1848.0529930612599
  0
INSERT
  2
-007-_Open30
  8
_0-2_08_DIM
 10
1939.4421719280933
 20
1848.0529930612599
 41
10
 42
10
 50
180
  0
INSERT
  2
-007-_Open30
  8
_0-2_08_DIM
 10
1979.4421719280931
 20
1848.0529930612599
 41
10
 42
10
 50
0
  0
INSERT
  2
-007-_Open30
  8
_0-2_08_DIM
 10
1981.9421719280933
 20
1903.0358113411
 41
10
 42
10
 50
44.999999999999872
  0
LINE
  8
_0-2_08_DIM
  6
CONTINUOUS
 62
    3
 10
1974.8711041162278
 20
1895.9647435292345
 11
1957.0900829660477
 21
1878.1837223790549
  0
LINE
  8
_0-2_08_DIM
  6
CONTINUOUS
 62
    3
 10
1957.0900829660477
 20
1878.1837223790549
 11
1922.5933735695899
 21
1843.6870129825966
  0
LINE
  8
_0-2_08_DIM
  6
CONTINUOUS
 62
    3
 10
3175.9889701242532
 20
1903.035811341106
 11
3175.9889701242532
 21
1843.0529930612654
  0
LINE
  8
_0-2_08_DIM
  6
CONTINUOUS
 62
    3
 10
3215.9889701242537
 20
1903.035811341106
 11
3215.9889701242537
 21
1843.0529930612654
  0
LINE
  8
_0-2_08_DIM
  6
CONTINUOUS
 62
    3
 10
3185.9889701242532
 20
1848.0529930612659
 11
3205.9889701242537
 21
1848.0529930612659
  0
INSERT
  2
-007-_Open30
  8
_0-2_08_DIM
 10
3175.9889701242532
 20
1848.0529930612659
 41
10
 42
10
 50
180
  0
INSERT
  2
-007-_Open30
  8
_0-2_08_DIM
 10
3215.9889701242537
 20
1848.0529930612659
 41
10
 42
10
 50
0
  0
INSERT
  2
-007-_Open30
  8
_0-2_08_DIM
 10
3218.4889701242532
 20
1903.035811341106
 41
10
 42
10
 50
44.999999999999737
  0
LINE
  8
_0-2_08_DIM
  6
CONTINUOUS
 62
    3
 10
3211.4179023123884
 20
1895.9647435292404
 11
3193.6368811622078
 21
1878.1837223790601
  0
LINE
  8
_0-2_08_DIM
  6
CONTINUOUS
 62
    3
 10
3193.6368811622078
 20
1878.1837223790601
 11
3159.14017176575
 21
1843.6870129826023
  0
INSERT
  2
-007-_Open30
  8
_0-2_08_DIM
 10
3566.6116529933906
 20
1985.0358113411139
 41
10
 42
10
 50
134.9999999999998
  0
LINE
  8
_0-2_08_DIM
  6
CONTINUOUS
 62
    3
 10
3573.6827208052559
 20
1977.9647435292484
 11
3597.2241578411367
 21
1954.4233064933676
  0
LINE
  8
_0-2_08_DIM
  6
CONTINUOUS
 62
    3
 10
3597.2241578411367
 20
1954.4233064933676
 11
3639.8020875940124
 21
1911.8453767404919
  0
TEXT
  8
_0-7_07_TEXT
 62
    3
 10
3913.0209236461178
 20
1194.1925846906527
 40
12.000000000000002
 41
1
 50
0
  1
ÆŹŗL
  0
TEXT
  8
_0-7_07_TEXT
 62
    3
 10
3913.9809236461178
 20
1171.8765846906524
 40
12.000000000000002
 41
1
 50
0
  1
ü@ÄwÄ”é╚é½ŖpĢöé═
  0
TEXT
  8
_0-7_07_TEXT
 62
    3
 10
4043.2809236461171
 20
1171.8765846906524
 40
12.000000000000002
 41
1
 50
0
  1
C0.5
  0
TEXT
  8
_0-7_07_TEXT
 62
    3
 10
4083.8523522175456
 20
1171.8765846906524
 40
12.000000000000002
 41
1
 50
0
  1
é╠é▒éŲ
  0
TEXT
  8
_0-7_07_TEXT
 62
    3
 10
3913.9809236461178
 20
1149.0805846906528
 40
12.000000000000002
 41
1
 50
0
  1
ü@āKāXÉžÆf¢╩é═āOāēāCāōā_ÄdÅŃé░é╠é▒éŲ
  0
TEXT
  8
_0-7_07_TEXT
 62
    3
 10
3913.9809236461178
 20
1126.9085846906526
 40
12.000000000000002
 41
1
 50
0
  1
ü@ÄwÄ”é╚é½ŚnÉ┌Ģöé═ü@ü@ü@ü@é╠é▒éŲ
  0
TEXT
  8
_0-2_08_DIM
 62
    3
 10
3022.4862157712801
 20
2028.2647168453825
 40
12.000000000000002
 41
1
 50
0
  1
2-16
  0
TEXT
  8
_0-2_08_DIM
 62
    3
 10
3071.6290729141374
 20
2028.2647168453825
 40
12.000000000000002
 41
1
 50
0
  1
āLāŖ
  0
TEXT
  8
_0-2_08_DIM
 62
    3
 10
2054.2117834186265
 20
2028.2647168432181
 40
11.999999999999996
 41
1
 50
0
  1
2-16
  0
TEXT
  8
_0-2_08_DIM
 62
    3
 10
2103.3546405614843
 20
2028.2647168432181
 40
11.999999999999996
 41
1
 50
0
  1
āLāŖ
  0
TEXT
  8
_0-2_08_DIM
 62
    3
 10
1919.6134235631609
 20
1844.2425968821005
 40
12.000000000000002
 41
1
 50
45.000000000000128
  1
2-C5
  0
TEXT
  8
_0-2_08_DIM
 62
    3
 10
3156.1602217593208
 20
1844.2425968821062
 40
12.000000000000002
 41
1
 50
45.000000000000362
  1
2-C5
  0
TEXT
  8
_0-2_08_DIM
 62
    3
 10
3599.5475086936062
 20
1955.6354895468303
 40
12.000000000000002
 41
1
 50
-44.999999999999808
  1
3-C15
  0
TEXT
  8
_0-7_07_TEXT
 62
    4
 10
1393.9759048051537
 20
2820.670131779008
 40
60
 41
1
 50
0
  1
üyæ┼Źćé╣
  0
TEXT
  8
_0-7_07_TEXT
 62
    4
 10
1699.3159048051537
 20
2820.670131779008
 40
60
 41
1
 50
0
  1
(4/14)
  0
TEXT
  8
_0-7_07_TEXT
 62
    4
 10
2013.6016190908683
 20
2820.670131779008
 40
60
 41
1
 50
0
  1
é╔éµéķĢŽŹXüz
  0
TEXT
  8
_0-7_07_TEXT
 62
    4
 10
1399.3759048051538
 20
2709.8101317790079
 40
60
 41
1
 50
0
  1
ö┬é╠ægé▌ŹćéĒé╣é┼É╗ŹņüB
  0
TEXT
  8
_0-7_07_TEXT
 62
    4
 10
1399.7359048051537
 20
2597.5701317790076
 40
60
 41
1
 50
0
  1
ĢŠÄąüuŖ«É¼ī`é¬ō»éČé╚éńŚŪéóüv
  0
TEXT
  8
_0-7_07_TEXT
 62
    4
 10
4204.6316311699284
 20
833.37667161923855
 40
20
 41
1
 50
0
  1
A
  0
TEXT
  8
_0-2_08_DIM
 62
    3
 10
1871.4421718928772
 20
2084.1413724717213
 40
12.000000000000002
 41
1
 50
0
  1
140
  0
TEXT
  8
_0-2_08_DIM
 62
    3
 10
2067.2993147125699
 20
2128.9921503729124
 40
12.000000000000002
 41
1
 50
0
  1
530
  0
TEXT
  8
_0-2_08_DIM
 62
    3
 10
2061.9470563422155
 20
1958.8215255812217
 40
12.000000000000002
 41
1
 50
90
  1
60
  0
TEXT
  8
_0-2_08_DIM
 62
    3
 10
1748.9144300078469
 20
1848.3929541973378
 40
12.000000000000002
 41
1
 50
90
  1
270
  0
TEXT
  8
_0-2_08_DIM
 62
    3
 10
1458.6595399654666
 20
1823.3929541940686
 40
12.000000000000002
 41
1
 50
90
  1
220
  0
TEXT
  8
_0-2_08_DIM
 62
    3
 10
1531.1102879995794
 20
2044.2084685396035
 40
12.000000000000002
 41
1
 50
0
  1
50
  0
TEXT
  8
_0-2_08_DIM
 62
    3
 10
2201.1564575755442
 20
2190.6379850799076
 40
12.000000000000002
 41
1
 50
0
  1
184
  0
TEXT
  8
_0-2_08_DIM
 62
    3
 10
1956.2993147166087
 20
2190.6379850799076
 40
12.000000000000002
 41
1
 50
0
  1
308
  0
TEXT
  8
_0-2_08_DIM
 62
    3
 10
2392.2550763423433
 20
2308.2396891645676
 40
12.000000000000002
 41
1
 50
90
  1
40
  0
TEXT
  8
_0-2_08_DIM
 62
    3
 10
2395.004548163447
 20
1458.5883555335295
 40
12.000000000000002
 41
1
 50
90
  1
50
  0
TEXT
  8
_0-2_08_DIM
 62
    3
 10
1549.5388594260162
 20
2082.7119679473212
 40
12.000000000000002
 41
1
 50
0
  1
100
  0
TEXT
  8
_0-2_08_DIM
 62
    3
 10
4040.6069474426417
 20
1823.3929541940636
 40
12.000000000000002
 41
1
 50
90
  1
220
  0
TEXT
  8
_0-2_08_DIM
 62
    3
 10
3954.6830815590974
 20
2044.2084685396035
 40
12.000000000000002
 41
1
 50
0
  1
50
  0
TEXT
  8
_0-2_08_DIM
 62
    3
 10
3923.1116529855717
 20
2082.7119679473212
 40
12.000000000000002
 41
1
 50
0
  1
100
  0
TEXT
  8
_0-2_08_DIM
 62
    3
 10
3703.9687958466429
 20
2082.7119679473212
 40
12.000000000000002
 41
1
 50
0
  1
340
  0
TEXT
  8
_0-2_08_DIM
 62
    3
 10
3469.5385685524734
 20
1848.1072399115963
 40
12.000000000000002
 41
1
 50
90
  1
254
  0
TEXT
  8
_0-2_08_DIM
 62
    3
 10
3509.5456509281148
 20
1935.1072399125424
 40
12.000000000000002
 41
1
 50
90
  1
92
  0
TEXT
  8
_0-2_08_DIM
 62
    3
 10
3509.5456509281153
 20
1801.5358113401676
 40
12.000000000000002
 41
1
 50
90
  1
162
  0
TEXT
  8
_0-2_08_DIM
 62
    3
 10
3753.6830815630278
 20
1642.5076414130544
 40
12.000000000000002
 41
1
 50
0
  1
424
  0
TEXT
  8
_0-2_08_DIM
 62
    3
 10
3925.6830815612366
 20
1684.7280188614525
 40
12.000000000000002
 41
1
 50
0
  1
92
  0
TEXT
  8
_0-2_08_DIM
 62
    3
 10
3177.9889701242464
 20
2035.4199876364312
 40
12.000000000000002
 41
1
 50
0
  1
117
  0
TEXT
  8
_0-2_08_DIM
 62
    3
 10
3247.9889701594579
 20
2084.1413724717213
 40
12.000000000000002
 41
1
 50
0
  1
140
  0
TEXT
  8
_0-2_08_DIM
 62
    3
 10
3053.846113053713
 20
2128.9921503729124
 40
12.000000000000002
 41
1
 50
0
  1
530
  0
TEXT
  8
_0-2_08_DIM
 62
    3
 10
3096.6364835145932
 20
1958.8215255811201
 40
12.000000000000002
 41
1
 50
90
  1
60
  0
TEXT
  8
_0-2_08_DIM
 62
    3
 10
3400.8218667015094
 20
1848.3929541973482
 40
12.000000000000002
 41
1
 50
90
  1
270
  0
TEXT
  8
_0-2_08_DIM
 62
    3
 10
2918.8461130563614
 20
2209.3775560422773
 40
12.000000000000002
 41
1
 50
0
  1
260
  0
TEXT
  8
_0-2_08_DIM
 62
    3
 10
2924.5603987661848
 20
2248.6063638233145
 40
12.000000000000002
 41
1
 50
0
  1
87
  0
TEXT
  8
_0-2_08_DIM
 62
    3
 10
2749.2045585253386
 20
2704.8104192872192
 40
12.000000000000002
 41
1
 50
90
  1
40
  0
TEXT
  8
_0-2_08_DIM
 62
    3
 10
2917.7032559125259
 20
2796.326944307189
 40
12.000000000000002
 41
1
 50
0
  1
184
  0
TEXT
  8
_0-2_08_DIM
 62
    3
 10
3164.8461130535989
 20
2796.326944307189
 40
12.000000000000002
 41
1
 50
0
  1
308
  0
TEXT
  8
_0-2_08_DIM
 62
    3
 10
2749.1962251920054
 20
2309.810419286126
 40
12.000000000000002
 41
1
 50
90
  1
50
  0
TEXT
  8
_0-2_08_DIM
 62
    3
 10
2700.0535145330696
 20
2499.096133572024
 40
12.000000000000002
 41
1
 50
90
  1
440
  0
TEXT
  8
_0-2_08_DIM
 62
    3
 10
2917.9889701990996
 20
1354.1577399612979
 40
12.000000000000002
 41
1
 50
0
  1
160
  0
TEXT
  8
_0-2_08_DIM
 62
    3
 10
3133.846113051984
 20
1354.1577399612979
 40
12.000000000000002
 41
1
 50
0
  1
270
  0
TEXT
  8
_0-2_08_DIM
 62
    3
 10
3299.5603987661025
 20
1354.1660732946314
 40
12.000000000000002
 41
1
 50
0
  1
50
  0
TEXT
  8
_0-2_08_DIM
 62
    3
 10
2753.0670531887013
 20
1419.4806803335596
 40
12.000000000000002
 41
1
 50
90
  1
50
  0
TEXT
  8
_0-2_08_DIM
 62
    3
 10
2067.2993147105562
 20
1382.602880325464
 40
12.000000000000002
 41
1
 50
0
  1
430
  0
TEXT
  8
_0-2_08_DIM
 62
    3
 10
1833.0136004291012
 20
1382.6112136587972
 40
12.000000000000002
 41
1
 50
0
  1
50
  0
TEXT
  8
_0-2_08_DIM
 62
    3
 10
2899.5603987746117
 20
2040.419987636431
 40
12.000000000000002
 41
1
 50
0
  1
9
  0
TEXT
  8
_0-2_08_DIM
 62
    3
 10
2852.9889701987727
 20
2084.1413724717213
 40
12.000000000000002
 41
1
 50
0
  1
130
  0
TEXT
  8
_0-2_08_DIM
 62
    3
 10
2395.7241708254792
 20
2238.0597950672891
 40
12.000000000000002
 41
1
 50
0
  1
2-19
  0
TEXT
  8
_0-2_08_DIM
 62
    3
 10
2444.8670279683365
 20
2238.0597950672891
 40
12.000000000000002
 41
1
 50
0
  1
āLāŖ
  0
TEXT
  8
_0-2_08_DIM
 62
    3
 10
2348.7597041002887
 20
1588.2653515587551
 40
12.000000000000002
 41
1
 50
0
  1
2-19
  0
TEXT
  8
_0-2_08_DIM
 62
    3
 10
2397.902561243146
 20
1588.2653515587551
 40
12.000000000000002
 41
1
 50
0
  1
āLāŖ
  0
TEXT
  8
_0-2_08_DIM
 62
    3
 10
2745.7302409536533
 20
1549.0446332086858
 40
12.000000000000002
 41
1
 50
0
  1
3-19
  0
TEXT
  8
_0-2_08_DIM
 62
    3
 10
2794.8730980965106
 20
1549.0446332086858
 40
12.000000000000002
 41
1
 50
0
  1
āLāŖ
  0
TEXT
  8
_0-2_08_DIM
 62
    3
 10
2778.1846183298226
 20
2250.3204502711596
 40
12.000000000000002
 41
1
 50
0
  1
2-12
  0
TEXT
  8
_0-2_08_DIM
 62
    3
 10
2827.3274754726799
 20
2250.3204502711596
 40
12.000000000000002
 41
1
 50
0
  1
āLāŖ
  0
TEXT
  8
_0-2_08_DIM
 62
    3
 10
2720.4265670670993
 20
2782.3730257116076
 40
12.000000000000002
 41
1
 50
0
  1
2-19
  0
TEXT
  8
_0-2_08_DIM
 62
    3
 10
2769.5694242099567
 20
2782.3730257116076
 40
12.000000000000002
 41
1
 50
0
  1
āLāŖ
  0
TEXT
  8
_0-2_08_DIM
 62
    3
 10
1422.148326583379
 20
2020.809408363282
 40
12.000000000000002
 41
1
 50
0
  1
19
  0
TEXT
  8
_0-2_08_DIM
 62
    3
 10
1445.0054694405219
 20
2020.809408363282
 40
12.000000000000002
 41
1
 50
0
  1
āLāŖ
  0
TEXT
  8
_0-2_08_DIM
 62
    3
 10
4033.3344959059368
 20
2020.1368941069902
 40
12.000000000000002
 41
1
 50
0
  1
19
  0
TEXT
  8
_0-2_08_DIM
 62
    3
 10
4056.191638763079
 20
2020.1368941069902
 40
12.000000000000002
 41
1
 50
0
  1
āLāŖ
  0
TEXT
  8
_0-2_08_DIM
 62
    3
 10
3469.5469018858071
 20
2021.3215256268172
 40
12.000000000000002
 41
1
 50
90
  1
8
  0
TEXT
  8
_0-2_08_DIM
 62
    3
 10
4011.8973672713269
 20
1642.5076414130544
 40
12.000000000000002
 41
1
 50
0
  1
8
  0
TEXT
  8
_0-2_08_DIM
 62
    3
 10
1941.4421719228033
 20
2035.4199876342666
 40
12.000000000000002
 41
1
 50
0
  1
117
  0
TEXT
  8
_0-2_08_DIM
 62
    3
 10
1948.013600499522
 20
1850.5529930612602
 40
12.000000000000002
 41
1
 50
0
  1
40
  0
TEXT
  8
_0-2_08_DIM
 62
    3
 10
3184.5603986956821
 20
1850.5529930612656
 40
12.000000000000002
 41
1
 50
0
  1
40
  0
TEXT
  8
_0-0_90_FRAME
 62
    3
 10
1528.2070800020981
 20
345.86592802610733
 40
12.000000000000002
 41
1
 50
0
  1
Äøōc
  0
TEXT
  8
_0-0_90_FRAME
 62
    3
 10
1221.6939900126188
 20
345.86592802610733
 40
12.000000000000002
 41
0.65
 50
0
  1
2013.09.01
  0
TEXT
  8
_0-0_90_FRAME
 62
    3
 10
1301.6607393986621
 20
345.86592802610733
 40
12.000000000000002
 41
1
 50
0
  1
āGāAü[ö▓é½ÆŪē┴
  0
TEXT
  8
_0-0_90_FRAME
 62
    7
 10
1825.7286882472272
 20
325.14557266213228
 40
37.99399034986007
 41
1
 50
0
  1
A3ü@150%
  0
ENDSEC
  0
EOF
