  0
SECTION
  2
HEADER
  9
$ACADVER
  1
AC1009
  9
$INSBASE
 10
0
 20
0
 30
0
  9
$EXTMIN
 10
0
 20
0
  9
$EXTMAX
 10
5319.1586489804095
 20
3761.4050446361466
  9
$LIMMIN
 10
0
 20
0
  9
$LIMMAX
 10
5319.1586489804095
 20
3761.4050446361466
  9
$LTSCALE
 40
12.664663449953355
  0
ENDSEC
  0
SECTION
  2
TABLES
  0
TABLE
  2
LTYPE
 70
     9
  0
LTYPE
  2
CONTINUOUS
 70
    64
  3
Ä└É³
 72
    65
 73
     0
 40
0.0
  0
LTYPE
  2
DASHED1
 70
    64
  3
--  --  --  --  --  --  --  --  
 72
    65
 73
     2
 40
2.5
 49
1.25
 49
-1.25
  0
LTYPE
  2
DASHED2
 70
    64
  3
----    ----    ----    ----    
 72
    65
 73
     2
 40
5.0
 49
2.5
 49
-2.5
  0
LTYPE
  2
DASHED3
 70
    64
  3
------  ------  ------  ------  
 72
    65
 73
     2
 40
5.0
 49
3.75
 49
-1.25
  0
LTYPE
  2
CENTER1
 70
    64
  3
----- - ----- - ----- - ----- - 
 72
    65
 73
     4
 40
10.0
 49
6.25
 49
-1.25
 49
1.25
 49
-1.25
  0
LTYPE
  2
CENTER2
 70
    64
  3
----------  --  ----------  --  
 72
    65
 73
     4
 40
20.0
 49
12.5
 49
-2.5
 49
2.5
 49
-2.5
  0
LTYPE
  2
PHANTOM1
 70
    64
  3
--- - - --- - - --- - - --- - - 
 72
    65
 73
     6
 40
10.0
 49
3.25
 49
-1.25
 49
1.25
 49
-1.25
 49
1.25
 49
-1.25
  0
LTYPE
  2
PHANTOM2
 70
    64
  3
--------  -  -  --------  -  -  
 72
    65
 73
     6
 40
20.0
 49
10.0
 49
-2.5
 49
1.25
 49
-2.5
 49
1.25
 49
-2.5
  0
LTYPE
  2
DOT
 70
    64
  3
-   -   -   -   -   -   -   -   
 72
    65
 73
     2
 40
2.5
 49
0.625
 49
-1.875
  0
LTYPE
  2
DUMMY
 70
    64
  3
ā_ā~ü[
 72
    65
 73
     0
 40
0.0
  0
LTYPE
  2
RAND1
 70
    64
  3
āēāōā_āĆÉ³1
 72
    65
 73
     4
 40
10.0
 49
1.0
 49
-2.0
 49
3.0
 49
-4.0
  0
LTYPE
  2
RAND2
 70
    64
  3
āēāōā_āĆÉ³2
 72
    65
 73
     4
 40
14.0
 49
2.0
 49
-3.0
 49
4.0
 49
-5.0
  0
LTYPE
  2
RAND3
 70
    64
  3
āēāōā_āĆÉ³3
 72
    65
 73
     4
 40
18.0
 49
3.0
 49
-4.0
 49
5.0
 49
-6.0
  0
LTYPE
  2
RAND4
 70
    64
  3
āēāōā_āĆÉ³4
 72
    65
 73
     4
 40
22.0
 49
4.0
 49
-5.0
 49
6.0
 49
-7.0
  0
LTYPE
  2
RAND5
 70
    64
  3
āēāōā_āĆÉ³5
 72
    65
 73
     4
 40
26.0
 49
5.0
 49
-6.0
 49
7.0
 49
-8.0
  0
LTYPE
  2
LONG1
 70
    64
  3
----------  --  ----------  --  
 72
    65
 73
     4
 40
40.0
 49
32.5
 49
-2.5
 49
2.5
 49
-2.5
  0
LTYPE
  2
LONG2
 70
    64
  3
--------  -  -  --------  -  -  
 72
    65
 73
     6
 40
40.0
 49
30.0
 49
-2.5
 49
1.25
 49
-2.5
 49
1.25
 49
-2.5
  0
LTYPE
  2
LONG3
 70
    64
  3
+++++++++++++++..+++++++++++++++
 72
    65
 73
     2
 40
40.0
 49
37.5
 49
-2.5
  0
LTYPE
  2
LONG4
 70
    64
  3
+++++++++++++++..+++++++++++++++
 72
    65
 73
     2
 40
80.0
 49
75.0
 49
-5.0
  0
LTYPE
  2
LONG5
 70
    64
  3
----------  --  ----------  --  
 72
    65
 73
     4
 40
60.0
 49
37.5
 49
-7.5
 49
7.5
 49
-7.5
  0
LTYPE
  2
dashed
 70
   64
  3
-------   -------------   ------
 72
   65
 73
    2
 40
7.5
 49
6
 49
-1.5
  0
LTYPE
  2
dashed_spaced
 70
   64
  3
----        --------        ----
 72
   65
 73
    2
 40
12
 49
6
 49
-6
  0
LTYPE
  2
long_dashed_dotted
 70
   64
  3
------------- --- --------------
 72
   65
 73
    4
 40
15.25
 49
12
 49
-1.5
 49
0.25
 49
-1.5
  0
LTYPE
  2
long_dashed_double-dotted
 70
   64
  3
----------- --- --- ------------
 72
   65
 73
    6
 40
17
 49
12
 49
-1.5
 49
0.25
 49
-1.5
 49
0.25
 49
-1.5
  0
LTYPE
  2
long_dashed_triplicate-dotted
 70
   64
  3
--------- --- --- --- ----------
 72
   65
 73
    8
 40
18.75
 49
12
 49
-1.5
 49
0.25
 49
-1.5
 49
0.25
 49
-1.5
 49
0.25
 49
-1.5
  0
LTYPE
  2
dotted
 70
   64
  3
   -       -       -       -    
 72
   65
 73
    2
 40
1.75
 49
0.25
 49
-1.5
  0
LTYPE
  2
chain
 70
   64
  3
-------------- -- --------------
 72
   65
 73
    4
 40
18.5
 49
12
 49
-1.5
 49
3.5
 49
-1.5
  0
LTYPE
  2
chain_double_dash
 70
   64
  3
------------ -- -- -------------
 72
   65
 73
    6
 40
23.5
 49
12
 49
-1.5
 49
3.5
 49
-1.5
 49
3.5
 49
-1.5
  0
LTYPE
  2
dashed_dotted
 70
   64
  3
-----------     -     ----------
 72
   65
 73
    4
 40
9.25
 49
6
 49
-1.5
 49
0.25
 49
-1.5
  0
LTYPE
  2
double-dashed_dotted
 70
   64
  3
------   -----------   -   -----
 72
   65
 73
    6
 40
16.75
 49
6
 49
-1.5
 49
6
 49
-1.5
 49
0.25
 49
-1.5
  0
LTYPE
  2
dashed_double-dotted
 70
   64
  3
---------    -    -    ---------
 72
   65
 73
    6
 40
11
 49
6
 49
-1.5
 49
0.25
 49
-1.5
 49
0.25
 49
-1.5
  0
LTYPE
  2
double-dashed_double-dotted
 70
   64
  3
-----   ---------   -   -   ----
 72
   65
 73
    8
 40
18.5
 49
6
 49
-1.5
 49
6
 49
-1.5
 49
0.25
 49
-1.5
 49
0.25
 49
-1.5
  0
LTYPE
  2
dashed_triplicate-dotted
 70
   64
  3
-------    -    -    -    ------
 72
   65
 73
    8
 40
12.75
 49
6
 49
-1.5
 49
0.25
 49
-1.5
 49
0.25
 49
-1.5
 49
0.25
 49
-1.5
  0
LTYPE
  2
double-dashed_triplicate-dotted
 70
   64
  3
-----  ---------  -  -  -  -----
 72
   65
 73
   10
 40
20.25
 49
6
 49
-1.5
 49
6
 49
-1.5
 49
0.25
 49
-1.5
 49
0.25
 49
-1.5
 49
0.25
 49
-1.5
  0
LTYPE
  2
undefined
 70
   64
  3
--------------------------------
 72
   65
 73
    0
 40
0
  0
LTYPE
  2
_
 70
   64
  3
                                
 72
   65
 73
    0
 40
0
  0
LTYPE
  2
__18
 70
   64
  3
                                
 72
   65
 73
    0
 40
0
  0
LTYPE
  2
__19
 70
   64
  3
                                
 72
   65
 73
    0
 40
0
  0
LTYPE
  2
__20
 70
   64
  3
                                
 72
   65
 73
    0
 40
0
  0
LTYPE
  2
__21
 70
   64
  3
                                
 72
   65
 73
    0
 40
0
  0
LTYPE
  2
__22
 70
   64
  3
                                
 72
   65
 73
    0
 40
0
  0
LTYPE
  2
__23
 70
   64
  3
                                
 72
   65
 73
    0
 40
0
  0
LTYPE
  2
__24
 70
   64
  3
                                
 72
   65
 73
    0
 40
0
  0
LTYPE
  2
__25
 70
   64
  3
                                
 72
   65
 73
    0
 40
0
  0
LTYPE
  2
__26
 70
   64
  3
                                
 72
   65
 73
    0
 40
0
  0
LTYPE
  2
__27
 70
   64
  3
                                
 72
   65
 73
    0
 40
0
  0
LTYPE
  2
__28
 70
   64
  3
                                
 72
   65
 73
    0
 40
0
  0
LTYPE
  2
__29
 70
   64
  3
                                
 72
   65
 73
    0
 40
0
  0
LTYPE
  2
__30
 70
   64
  3
                                
 72
   65
 73
    0
 40
0
  0
LTYPE
  2
__31
 70
   64
  3
                                
 72
   65
 73
    0
 40
0
  0
LTYPE
  2
__32
 70
   64
  3
                                
 72
   65
 73
    0
 40
0
  0
ENDTAB
  0
TABLE
  2
STYLE
  5
3
100
AcDbSymbolTable
 70
     1
  0
STYLE
  5
10
100
AcDbSymbolTableRecord
100
AcDbTextStyleTableRecord
  2
STANDARD
 70
     0
 40
0.0
 41
1.0
 50
0.0
 71
     0
 42
0.2
  3
txt
  4
bigfont.shx
  0
STYLE
  5
26
100
AcDbSymbolTableRecord
100
AcDbTextStyleTableRecord
  2
TATEGAKI
 70
    68
 40
0.0
 41
1.0
 50
0.0
 71
     0
 42
1.0
  3
txt
  4
bigfont.shx
  0
ENDTAB
  0
TABLE
  2
LAYER
 70
   10
  0
LAYER
  2
_0-0_90_FRAME
 70
   64
 62
    7
  6
CONTINUOUS
  0
LAYER
  2
_0-1_91_BLANK
 70
   64
 62
    7
  6
CONTINUOUS
  0
LAYER
  2
_0-2_08_DIM
 70
   64
 62
    7
  6
CONTINUOUS
  0
LAYER
  2
_0-3_06_PHANTOM
 70
   64
 62
    7
  6
CONTINUOUS
  0
LAYER
  2
_0-4_0
 70
   64
 62
    7
  6
CONTINUOUS
  0
LAYER
  2
_0-5_05_CENTER
 70
   64
 62
    7
  6
CONTINUOUS
  0
LAYER
  2
_0-6_04_HIDDEN
 70
   64
 62
    7
  6
CONTINUOUS
  0
LAYER
  2
_0-7_07_TEXT
 70
   64
 62
    7
  6
CONTINUOUS
  0
LAYER
  2
_0-8_
 70
   64
 62
    7
  6
CONTINUOUS
  0
LAYER
  2
ADD_LINE
 70
   64
 62
    7
  6
CONTINUOUS
  0
ENDTAB
  0
ENDSEC
  0
SECTION
  2
BLOCKS
  0
BLOCK
  2
-000-p1ba05
 70
   64
 10
0
 20
0
 30
0
  0
ARC
  8
_0-2_08_DIM
  6
CONTINUOUS
 62
    3
 10
0
 20
1.6206695983957433
 40
1.6206695983958537
 50
204.22763733453323
 51
335.57577857182139
  0
ARC
  8
_0-2_08_DIM
  6
CONTINUOUS
 62
    3
 10
-2.9535588745990822
 20
0.2854771617432377
 40
1.6206695983958537
 50
24.227637334533135
 51
155.57577857182133
  0
ENDBLK
  0
BLOCK
  2
-001-Weld-line
 70
   64
 10
0
 20
0
 30
0
  0
LINE
  8
_0-2_08_DIM
  6
CONTINUOUS
 62
    3
 10
0
 20
0
 11
1
 21
0
  0
ENDBLK
  0
BLOCK
  2
-002-Weld10-s5
 70
   64
 10
0
 20
0
 30
0
  0
CIRCLE
  8
_0-2_08_DIM
  6
CONTINUOUS
 62
    3
 10
0
 20
0
 40
2
  0
ENDBLK
  0
BLOCK
  2
-003-Weld10-a1
 70
   64
 10
0
 20
0
 30
0
  0
LINE
  8
_0-2_08_DIM
  6
CONTINUOUS
 62
    3
 10
5
 20
0
 11
0
 21
5
  0
LINE
  8
_0-2_08_DIM
  6
CONTINUOUS
 62
    3
 10
0
 20
5
 11
0
 21
0
  0
LINE
  8
_0-2_08_DIM
  6
CONTINUOUS
 62
    3
 10
0
 20
0
 11
5
 21
0
  0
ENDBLK
  0
BLOCK
  2
-004-Jis_w20130906110600
 70
   64
 10
0
 20
0
 30
0
  0
INSERT
  2
-001-Weld-line
  8
_0-2_08_DIM
 10
0
 20
0
 41
14.000000000000002
 42
14.000000000000002
 50
0
  0
INSERT
  2
-002-Weld10-s5
  8
_0-2_08_DIM
 10
0
 20
0
 41
1
 42
1
 50
0
  0
INSERT
  2
-003-Weld10-a1
  8
_0-2_08_DIM
 10
6.0000000000000009
 20
0
 41
-1
 42
1
 50
180
  0
TEXT
  8
_0-2_08_DIM
 62
    3
 10
4.0000000000001146
 20
-1
 40
2.7999999999999998
 41
0.9000000000000001
 50
0
  1

  0
TEXT
  8
_0-2_08_DIM
 62
    3
 10
14.000000000000115
 20
-1
 40
2.7999999999999998
 41
0.9000000000000001
 50
0
  1

  0
LINE
  8
_0-2_08_DIM
  6
CONTINUOUS
 62
    3
 10
-4.6308054280802935
 20
-5.7653612299384349
 11
0
 21
0
  0
ENDBLK
  0
BLOCK
  2
-005-KK015066_54_5_1_1
 70
   64
 10
0
 20
0
 30
0
  0
LINE
  8
_0-6_04_HIDDEN
  6
CONTINUOUS
 62
    7
 10
0
 20
0
 11
50
 21
0
  0
ARC
  8
_0-6_04_HIDDEN
  6
CONTINUOUS
 62
    7
 10
45.5
 20
1.5000000000000002
 40
4.5000000000000009
 50
0
 51
90
  0
LINE
  8
_0-6_04_HIDDEN
  6
CONTINUOUS
 62
    7
 10
50
 20
1.5000000000000002
 11
50
 21
0
  0
LINE
  8
_0-6_04_HIDDEN
  6
CONTINUOUS
 62
    7
 10
45.5
 20
6.0000000000000009
 11
12.5
 21
6.0000000000000009
  0
ARC
  8
_0-6_04_HIDDEN
  6
CONTINUOUS
 62
    7
 10
12.5
 20
12.5
 40
6.5000000000000009
 50
180
 51
270
  0
LINE
  8
_0-6_04_HIDDEN
  6
CONTINUOUS
 62
    7
 10
6.0000000000000009
 20
12.5
 11
6.0000000000000009
 21
45.5
  0
ARC
  8
_0-6_04_HIDDEN
  6
CONTINUOUS
 62
    7
 10
1.5000000000000002
 20
45.5
 40
4.5000000000000009
 50
0
 51
90
  0
LINE
  8
_0-6_04_HIDDEN
  6
CONTINUOUS
 62
    7
 10
1.5000000000000002
 20
50
 11
0
 21
50
  0
LINE
  8
_0-6_04_HIDDEN
  6
CONTINUOUS
 62
    7
 10
0
 20
0
 11
0
 21
50
  0
ENDBLK
  0
BLOCK
  2
-006-AM_BALLOON1
 70
   64
 10
0
 20
0
 30
0
  0
CIRCLE
  8
_0-2_08_DIM
  6
CONTINUOUS
 62
    3
 10
0
 20
0
 40
5
  0
ENDBLK
  0
BLOCK
  2
-007-_Open30
 70
   64
 10
0
 20
0
 30
0
  0
LINE
  8
_0-2_08_DIM
  6
CONTINUOUS
 62
    3
 10
-1
 20
0.26794919
 11
0
 21
0
  0
LINE
  8
_0-2_08_DIM
  6
CONTINUOUS
 62
    3
 10
0
 20
0
 11
-1
 21
-0.26794919
  0
LINE
  8
_0-2_08_DIM
  6
CONTINUOUS
 62
    3
 10
0
 20
0
 11
-1
 21
0
  0
ENDBLK
  0
ENDSEC
  0
SECTION
  2
ENTITIES
  0
TEXT
  8
_0-0_90_FRAME
 62
    7
 10
4021.1887175929614
 20
832.97677945453097
 40
20
 41
1
 50
0
  1
AT-221121-04-27
  0
TEXT
  8
_0-0_90_FRAME
 62
    7
 10
3884.2331693506858
 20
786.94175667195964
 40
20
 41
1
 50
0
  1
2024.09.04
  0
LINE
  8
_0-0_90_FRAME
  6
CONTINUOUS
 62
    5
 10
1158.5612159296991
 20
776.07830905085154
 11
4264.1333302061294
 21
776.07830905085154
  0
LINE
  8
_0-0_90_FRAME
  6
CONTINUOUS
 62
    5
 10
4264.1333302061294
 20
776.07830905085154
 11
4264.1333302061294
 21
2996.2938844706687
  0
LINE
  8
_0-0_90_FRAME
  6
CONTINUOUS
 62
    5
 10
4264.1333302061294
 20
2996.2938844706687
 11
1158.5612159296991
 21
2996.2938844706687
  0
LINE
  8
_0-0_90_FRAME
  6
CONTINUOUS
 62
    5
 10
1158.5612159296991
 20
2996.2938844706687
 11
1158.5612159296991
 21
776.07830905085154
  0
LINE
  8
_0-0_90_FRAME
  6
CONTINUOUS
 62
    5
 10
1003.1776045017643
 20
1886.1860967607602
 11
1158.5612159296991
 21
1886.1860967607602
  0
LINE
  8
_0-0_90_FRAME
  6
CONTINUOUS
 62
    5
 10
4315.9810444916338
 20
1886.1860967607602
 11
4264.1333302061294
 21
1886.1860967607602
  0
LINE
  8
_0-0_90_FRAME
  6
CONTINUOUS
 62
    5
 10
2711.3472730679136
 20
3056.1415987668693
 11
2711.3472730679141
 21
2996.2938844706687
  0
LINE
  8
_0-0_90_FRAME
  6
CONTINUOUS
 62
    5
 10
2711.3472730679141
 20
724.46239875616834
 11
2711.3472730679141
 21
776.07830905085154
  0
LINE
  8
_0-0_90_FRAME
  6
CONTINUOUS
 62
    5
 10
2312.5187016409504
 20
752.14859476522918
 11
3110.1758444948787
 21
752.14859476522918
  0
LINE
  8
_0-0_90_FRAME
  6
CONTINUOUS
 62
    5
 10
2312.5187016409504
 20
752.14859476522918
 11
2312.5187016409504
 21
776.07830905085154
  0
LINE
  8
_0-0_90_FRAME
  6
CONTINUOUS
 62
    5
 10
2392.284415926345
 20
752.14859476522918
 11
2392.284415926345
 21
776.07830905085154
  0
LINE
  8
_0-0_90_FRAME
  6
CONTINUOUS
 62
    5
 10
2472.05013021174
 20
752.14859476522918
 11
2472.05013021174
 21
776.07830905085154
  0
LINE
  8
_0-0_90_FRAME
  6
CONTINUOUS
 62
    5
 10
2551.8158444971245
 20
752.14859476522918
 11
2551.8158444971245
 21
776.07830905085154
  0
LINE
  8
_0-0_90_FRAME
  6
CONTINUOUS
 62
    5
 10
2631.5815587825196
 20
752.14859476522918
 11
2631.5815587825196
 21
776.07830905085154
  0
LINE
  8
_0-0_90_FRAME
  6
CONTINUOUS
 62
    5
 10
2791.1129873532986
 20
752.14859476522918
 11
2791.1129873532986
 21
776.07830905085154
  0
LINE
  8
_0-0_90_FRAME
  6
CONTINUOUS
 62
    5
 10
2870.8787016386937
 20
752.14859476522918
 11
2870.8787016386937
 21
776.07830905085154
  0
LINE
  8
_0-0_90_FRAME
  6
CONTINUOUS
 62
    5
 10
2950.6444159240882
 20
752.14859476522918
 11
2950.6444159240882
 21
776.07830905085154
  0
LINE
  8
_0-0_90_FRAME
  6
CONTINUOUS
 62
    5
 10
3030.4101302094832
 20
752.14859476522918
 11
3030.4101302094832
 21
776.07830905085154
  0
LINE
  8
_0-0_90_FRAME
  6
CONTINUOUS
 62
    5
 10
3110.1758444948787
 20
752.14859476522918
 11
3110.1758444948787
 21
776.07830905085154
  0
LINE
  8
_0-0_90_FRAME
  6
CONTINUOUS
 62
    4
 10
1908.1464130711554
 20
2996.2938844706687
 11
1908.1464130711554
 21
3048.1415987561613
  0
TEXT
  8
_0-0_90_FRAME
 62
    7
 10
1306.0177688136293
 20
3006.6206712175617
 40
16
 41
1
 50
0
  1
1
  0
TEXT
  8
_0-0_90_FRAME
 62
    7
 10
1501.2126497394474
 20
3006.6206712175617
 40
16
 41
1
 50
0
  1
2
  0
TEXT
  8
_0-0_90_FRAME
 62
    7
 10
1768.9462697383669
 20
3006.6206712175617
 40
16
 41
1
 50
0
  1
3
  0
TEXT
  8
_0-0_90_FRAME
 62
    7
 10
2036.6798897372767
 20
3006.6206712175617
 40
16
 41
1
 50
0
  1
4
  0
TEXT
  8
_0-0_90_FRAME
 62
    7
 10
2304.4135097362068
 20
3006.6206712175617
 40
16
 41
1
 50
0
  1
5
  0
TEXT
  8
_0-0_90_FRAME
 62
    7
 10
2572.1471297351159
 20
3006.6206712175617
 40
16
 41
1
 50
0
  1
6
  0
TEXT
  8
_0-0_90_FRAME
 62
    7
 10
2839.8807497340358
 20
3006.6206712175617
 40
16
 41
1
 50
0
  1
7
  0
TEXT
  8
_0-0_90_FRAME
 62
    7
 10
3107.6143697329553
 20
3006.6206712175617
 40
16
 41
1
 50
0
  1
8
  0
TEXT
  8
_0-0_90_FRAME
 62
    7
 10
3375.3479897318753
 20
3006.6206712175617
 40
16
 41
1
 50
0
  1
9
  0
TEXT
  8
_0-0_90_FRAME
 62
    7
 10
3639.0816097307952
 20
3006.6206712175617
 40
16
 41
1
 50
0
  1
10
  0
TEXT
  8
_0-0_90_FRAME
 62
    7
 10
3908.1485630630382
 20
3006.6206712175617
 40
16
 41
1
 50
0
  1
11
  0
TEXT
  8
_0-0_90_FRAME
 62
    7
 10
4173.2155163952912
 20
3006.6206712175617
 40
16
 41
1
 50
0
  1
12
  0
TEXT
  8
_0-0_90_FRAME
 62
    7
 10
4274.4403814523621
 20
2588.1582855078891
 40
16
 41
1
 50
0
  1
B
  0
LINE
  8
_0-0_90_FRAME
  6
CONTINUOUS
 62
   18
 10
1158.5612159296991
 20
776.07830905085154
 11
1566.5612159261293
 21
776.07830905085177
  0
LINE
  8
_0-0_90_FRAME
  6
CONTINUOUS
 62
   18
 10
1566.5612159261293
 20
776.07830905085177
 11
1566.5612159261293
 21
889.22116619324822
  0
LINE
  8
_0-0_90_FRAME
  6
CONTINUOUS
 62
   18
 10
1566.5612159261293
 20
889.22116619324822
 11
1158.5612159296991
 21
889.22116619324822
  0
LINE
  8
_0-0_90_FRAME
  6
CONTINUOUS
 62
   18
 10
1158.5612159296991
 20
889.22116619324822
 11
1158.5612159296991
 21
776.07830905085154
  0
LINE
  8
_0-0_90_FRAME
  6
CONTINUOUS
 62
   18
 10
1510.5612159261293
 20
776.07830905085154
 11
1510.5612159261293
 21
889.22116619324822
  0
LINE
  8
_0-0_90_FRAME
  6
CONTINUOUS
 62
   18
 10
1214.5612159261293
 20
776.07830905085154
 11
1214.5612159261293
 21
889.22116619324822
  0
LINE
  8
_0-0_90_FRAME
  6
CONTINUOUS
 62
   18
 10
1278.5612159261293
 20
776.07830905085154
 11
1278.5612159261293
 21
889.22116619324822
  0
LINE
  8
_0-0_90_FRAME
  6
CONTINUOUS
 62
   18
 10
1158.5612159296991
 20
860.93545190765451
 11
1566.5612159261293
 21
860.93545190765451
  0
LINE
  8
_0-0_90_FRAME
  6
CONTINUOUS
 62
   18
 10
1158.5612159296991
 20
832.64973762204636
 11
1566.5612159261293
 21
832.64973762204636
  0
LINE
  8
_0-0_90_FRAME
  6
CONTINUOUS
 62
   18
 10
1158.5612159296991
 20
804.36402333645265
 11
1566.5612159261293
 21
804.36402333645265
  0
TEXT
  8
_0-0_90_FRAME
 62
    7
 10
1172.5975795642778
 20
870.27830905045141
 40
9.5999999999999996
 41
1
 50
0
  1
ŗLŹå
  0
TEXT
  8
_0-0_90_FRAME
 62
    7
 10
1231.223674449162
 20
870.27830905045141
 40
9.5999999999999996
 41
1
 50
0
  1
ō·Ģt
  0
TEXT
  8
_0-0_90_FRAME
 62
    7
 10
1517.6157613806747
 20
870.27830905045141
 40
9.5999999999999996
 41
1
 50
0
  1
ŹņÉ¼Äę
  0
TEXT
  8
_0-0_90_FRAME
 62
    7
 10
1362.6339431988565
 20
870.11467268681508
 40
9.5999999999999996
 41
1
 50
0
  1
ē³Æ∙ōÓŚe
  0
LINE
  8
_0-0_90_FRAME
  6
CONTINUOUS
 62
   18
 10
1173.8326444993897
 20
807.36825525586335
 11
1186.561215927914
 21
829.41478767782564
  0
LINE
  8
_0-0_90_FRAME
  6
CONTINUOUS
 62
   18
 10
1186.561215927914
 20
829.41478767782564
 11
1199.2897873564314
 21
807.36825525586335
  0
LINE
  8
_0-0_90_FRAME
  6
CONTINUOUS
 62
   18
 10
1199.2897873564314
 20
807.36825525586335
 11
1173.8326444993897
 21
807.36825525586335
  0
TEXT
  8
_0-0_90_FRAME
 62
    7
 10
1183.8044356523633
 20
839.76424088525664
 40
8.4857142856800003
 41
1
 50
0
  1
1
  0
TEXT
  8
_0-0_90_FRAME
 62
    7
 10
1183.8044356523633
 20
811.47852659965554
 40
8.4857142856800003
 41
1
 50
0
  1
2
  0
TEXT
  8
_0-0_90_FRAME
 62
    7
 10
1183.8044356523633
 20
783.19281231405466
 40
8.4857142856800003
 41
1
 50
0
  1
3
  0
LINE
  8
_0-0_90_FRAME
  6
CONTINUOUS
 62
   18
 10
1173.8326444993897
 20
835.65396954146445
 11
1186.561215927914
 21
857.70050196343379
  0
LINE
  8
_0-0_90_FRAME
  6
CONTINUOUS
 62
   18
 10
1186.561215927914
 20
857.70050196343379
 11
1199.2897873564314
 21
835.65396954146445
  0
LINE
  8
_0-0_90_FRAME
  6
CONTINUOUS
 62
   18
 10
1199.2897873564314
 20
835.65396954146445
 11
1173.8326444993897
 21
835.65396954146445
  0
LINE
  8
_0-0_90_FRAME
  6
CONTINUOUS
 62
   18
 10
1173.8326444993897
 20
779.08254097026247
 11
1186.561215927914
 21
801.12907339223193
  0
LINE
  8
_0-0_90_FRAME
  6
CONTINUOUS
 62
   18
 10
1186.561215927914
 20
801.12907339223193
 11
1199.2897873564314
 21
779.08254097026247
  0
LINE
  8
_0-0_90_FRAME
  6
CONTINUOUS
 62
   18
 10
1199.2897873564314
 20
779.08254097026247
 11
1173.8326444993897
 21
779.08254097026247
  0
LINE
  8
_0-0_90_FRAME
  6
CONTINUOUS
 62
    4
 10
4315.9810444916338
 20
1318.2083457630567
 11
4264.1333302061294
 21
1318.2083457630567
  0
LINE
  8
_0-0_90_FRAME
  6
CONTINUOUS
 62
    4
 10
4315.9810444916338
 20
1602.1972212619085
 11
4264.1333302061294
 21
1602.1972212619085
  0
LINE
  8
_0-0_90_FRAME
  6
CONTINUOUS
 62
    4
 10
4315.9810444916338
 20
1034.219470264205
 11
4264.1333302061294
 21
1034.219470264205
  0
LINE
  8
_0-0_90_FRAME
  6
CONTINUOUS
 62
    4
 10
4315.9810444916338
 20
2454.1638477584634
 11
4264.1333302061294
 21
2454.1638477584634
  0
LINE
  8
_0-0_90_FRAME
  6
CONTINUOUS
 62
    4
 10
4315.9810444916338
 20
2170.1749722596119
 11
4264.1333302061294
 21
2170.1749722596119
  0
LINE
  8
_0-0_90_FRAME
  6
CONTINUOUS
 62
    4
 10
4315.9810444916338
 20
2738.1527232573158
 11
4264.1333302061294
 21
2738.1527232573158
  0
TEXT
  8
_0-0_90_FRAME
 62
    7
 10
4274.4403814523621
 20
2872.147161006741
 40
16
 41
1
 50
0
  1
A
  0
TEXT
  8
_0-0_90_FRAME
 62
    7
 10
4274.4403814523621
 20
2304.1694100090376
 40
16
 41
1
 50
0
  1
C
  0
TEXT
  8
_0-0_90_FRAME
 62
    7
 10
4274.4403814523621
 20
2020.1805345101861
 40
16
 41
1
 50
0
  1
D
  0
TEXT
  8
_0-0_90_FRAME
 62
    7
 10
4274.4403814523621
 20
1452.2027835124825
 40
16
 41
1
 50
0
  1
F
  0
TEXT
  8
_0-0_90_FRAME
 62
    7
 10
4274.4403814523621
 20
1168.213908013631
 40
16
 41
1
 50
0
  1
G
  0
TEXT
  8
_0-0_90_FRAME
 62
    7
 10
4274.4403814523621
 20
884.22503251477917
 40
16
 41
1
 50
0
  1
H
  0
TEXT
  8
_0-0_90_FRAME
 62
    7
 10
4274.4403814523621
 20
1736.1916590113344
 40
16
 41
1
 50
0
  1
E
  0
TEXT
  8
_0-0_90_FRAME
 62
    7
 10
1135.0069690205094
 20
2588.1582855078891
 40
16
 41
1
 50
0
  1
B
  0
LINE
  8
_0-0_90_FRAME
  6
CONTINUOUS
 62
    4
 10
1158.5612159296991
 20
1318.2083457630567
 11
1106.7135016442057
 21
1318.2083457630567
  0
LINE
  8
_0-0_90_FRAME
  6
CONTINUOUS
 62
    4
 10
1158.5612159296991
 20
1602.1972212619085
 11
1106.7135016442057
 21
1602.1972212619085
  0
LINE
  8
_0-0_90_FRAME
  6
CONTINUOUS
 62
    4
 10
1158.5612159296991
 20
1034.219470264205
 11
1106.7135016442057
 21
1034.219470264205
  0
LINE
  8
_0-0_90_FRAME
  6
CONTINUOUS
 62
    4
 10
1158.5612159296991
 20
2454.1638477584634
 11
1106.7135016442057
 21
2454.1638477584634
  0
LINE
  8
_0-0_90_FRAME
  6
CONTINUOUS
 62
    4
 10
1158.5612159296991
 20
2170.1749722596119
 11
1106.7135016442057
 21
2170.1749722596119
  0
LINE
  8
_0-0_90_FRAME
  6
CONTINUOUS
 62
    4
 10
1158.5612159296991
 20
2738.1527232573158
 11
1106.7135016442057
 21
2738.1527232573158
  0
TEXT
  8
_0-0_90_FRAME
 62
    7
 10
1135.0069690205094
 20
2872.147161006741
 40
16
 41
1
 50
0
  1
A
  0
TEXT
  8
_0-0_90_FRAME
 62
    7
 10
1135.0069690205094
 20
2304.1694100090376
 40
16
 41
1
 50
0
  1
C
  0
TEXT
  8
_0-0_90_FRAME
 62
    7
 10
1135.0069690205094
 20
2020.1805345101861
 40
16
 41
1
 50
0
  1
D
  0
TEXT
  8
_0-0_90_FRAME
 62
    7
 10
1135.0069690205094
 20
1452.2027835124825
 40
16
 41
1
 50
0
  1
F
  0
TEXT
  8
_0-0_90_FRAME
 62
    7
 10
1135.0069690205094
 20
1168.213908013631
 40
16
 41
1
 50
0
  1
G
  0
TEXT
  8
_0-0_90_FRAME
 62
    7
 10
1135.0069690205094
 20
1736.1916590113344
 40
16
 41
1
 50
0
  1
E
  0
TEXT
  8
_0-0_90_FRAME
 62
    7
 10
1135.0069690205094
 20
884.22503251477917
 40
16
 41
1
 50
0
  1
H
  0
LINE
  8
_0-0_90_FRAME
  6
CONTINUOUS
 62
    4
 10
1640.4127930722357
 20
2996.2938844706687
 11
1640.4127930722357
 21
3048.1415987561613
  0
LINE
  8
_0-0_90_FRAME
  6
CONTINUOUS
 62
    4
 10
1372.6791730733157
 20
2996.2938844706687
 11
1372.6791730733157
 21
3048.1415987561613
  0
LINE
  8
_0-0_90_FRAME
  6
CONTINUOUS
 62
    4
 10
2175.8800330700747
 20
2996.2938844706687
 11
2175.8800330700747
 21
3048.1415987561613
  0
LINE
  8
_0-0_90_FRAME
  6
CONTINUOUS
 62
    4
 10
2443.6136530689946
 20
2996.2938844706687
 11
2443.6136530689946
 21
3048.1415987561613
  0
LINE
  8
_0-0_90_FRAME
  6
CONTINUOUS
 62
    4
 10
3514.548133064663
 20
2996.2938844706687
 11
3514.548133064663
 21
3048.1415987561613
  0
LINE
  8
_0-0_90_FRAME
  6
CONTINUOUS
 62
    4
 10
3782.2817530635834
 20
2996.2938844706687
 11
3782.2817530635834
 21
3048.1415987561613
  0
LINE
  8
_0-0_90_FRAME
  6
CONTINUOUS
 62
    4
 10
4050.0153730625034
 20
2996.2938844706687
 11
4050.0153730625034
 21
3048.1415987561613
  0
LINE
  8
_0-0_90_FRAME
  6
CONTINUOUS
 62
    4
 10
3246.8145130657431
 20
2996.2938844706687
 11
3246.8145130657431
 21
3048.1415987561613
  0
LINE
  8
_0-0_90_FRAME
  6
CONTINUOUS
 62
    4
 10
2979.0808930668336
 20
2996.2938844706687
 11
2979.0808930668336
 21
3048.1415987561613
  0
LINE
  8
_0-0_90_FRAME
  6
CONTINUOUS
 62
    4
 10
1908.1464130711554
 20
724.46239875616834
 11
1908.1464130711554
 21
776.07830905085154
  0
LINE
  8
_0-0_90_FRAME
  6
CONTINUOUS
 62
    4
 10
1640.4127930722357
 20
724.46239875616834
 11
1640.4127930722357
 21
776.07830905085154
  0
LINE
  8
_0-0_90_FRAME
  6
CONTINUOUS
 62
    4
 10
1372.6791730733157
 20
724.46239875616834
 11
1372.6791730733157
 21
776.07830905085154
  0
LINE
  8
_0-0_90_FRAME
  6
CONTINUOUS
 62
    4
 10
2175.8800330700747
 20
724.46239875616834
 11
2175.8800330700747
 21
776.07830905085154
  0
LINE
  8
_0-0_90_FRAME
  6
CONTINUOUS
 62
    4
 10
3514.548133064663
 20
724.46239875616834
 11
3514.548133064663
 21
776.07830905085154
  0
LINE
  8
_0-0_90_FRAME
  6
CONTINUOUS
 62
    4
 10
3782.2817530635834
 20
724.46239875616834
 11
3782.2817530635834
 21
776.07830905085154
  0
LINE
  8
_0-0_90_FRAME
  6
CONTINUOUS
 62
    4
 10
4050.0153730625034
 20
724.46239875616834
 11
4050.0153730625034
 21
776.07830905085154
  0
LINE
  8
_0-0_90_FRAME
  6
CONTINUOUS
 62
    4
 10
3246.8145130657431
 20
724.46239875616834
 11
3246.8145130657431
 21
776.07830905085154
  0
LINE
  8
_0-1_91_BLANK
  6
CONTINUOUS
 62
    5
 10
1003.1776044887765
 20
724.46239875616834
 11
4315.9810444861287
 21
724.46239875616834
  0
LINE
  8
_0-1_91_BLANK
  6
CONTINUOUS
 62
    5
 10
4315.9810444861287
 20
724.46239875616834
 11
4315.9810444861287
 21
3056.1415987668693
  0
LINE
  8
_0-1_91_BLANK
  6
CONTINUOUS
 62
    5
 10
4315.9810444861287
 20
3056.1415987668693
 11
1003.1776044887765
 21
3056.1415987668693
  0
LINE
  8
_0-1_91_BLANK
  6
CONTINUOUS
 62
    5
 10
1003.1776044887765
 20
3056.1415987668693
 11
1003.1776044887765
 21
724.46239875616834
  0
LINE
  8
_0-0_90_FRAME
  6
CONTINUOUS
 62
   18
 10
3472.1333302093276
 20
776.07830905085154
 11
4264.1333302061294
 21
776.07830905085154
  0
LINE
  8
_0-0_90_FRAME
  6
CONTINUOUS
 62
   18
 10
4264.1333302061294
 20
776.07830905085154
 11
4264.1333302061294
 21
923.16402333597159
  0
LINE
  8
_0-0_90_FRAME
  6
CONTINUOUS
 62
   18
 10
4264.1333302061294
 20
923.16402333597159
 11
3472.1333302093276
 21
923.16402333597159
  0
LINE
  8
_0-0_90_FRAME
  6
CONTINUOUS
 62
   18
 10
3472.1333302093276
 20
923.16402333597159
 11
3472.1333302093276
 21
776.07830905085154
  0
LINE
  8
_0-0_90_FRAME
  6
CONTINUOUS
 62
   18
 10
3534.5033302090787
 20
897.70688047892997
 11
3574.1033302089177
 21
907.60688047889153
  0
LINE
  8
_0-0_90_FRAME
  6
CONTINUOUS
 62
   18
 10
3574.1033302089177
 20
907.60688047889153
 11
3574.1033302089177
 21
868.00688047905305
  0
LINE
  8
_0-0_90_FRAME
  6
CONTINUOUS
 62
   18
 10
3574.1033302089177
 20
868.00688047905305
 11
3534.5033302090787
 21
877.90688047901085
  0
LINE
  8
_0-0_90_FRAME
  6
CONTINUOUS
 62
   18
 10
3534.5033302090787
 20
877.90688047901085
 11
3534.5033302090787
 21
897.70688047892997
  0
CIRCLE
  8
_0-0_90_FRAME
  6
CONTINUOUS
 62
   18
 10
3508.7633302091795
 20
887.80688047896865
 40
9.8999999999600004
  0
CIRCLE
  8
_0-0_90_FRAME
  6
CONTINUOUS
 62
   18
 10
3508.7633302091795
 20
887.80688047896865
 40
19.799999999920001
  0
LINE
  8
_0-0_90_FRAME
  6
CONTINUOUS
 62
   18
 10
3485.0033302092752
 20
887.80688047896865
 11
3578.0633302088986
 21
887.80688047896865
  0
LINE
  8
_0-0_90_FRAME
  6
CONTINUOUS
 62
   18
 10
3508.7633302091795
 20
864.04688047906836
 11
3508.7633302091795
 21
911.56688047887599
  0
LINE
  8
_0-0_90_FRAME
  6
CONTINUOUS
 62
   18
 10
3796.5619016365281
 20
776.07830905085154
 11
3796.5619016365281
 21
923.16402333597159
  0
LINE
  8
_0-0_90_FRAME
  6
CONTINUOUS
 62
   18
 10
3796.5619016365281
 20
821.33545190781069
 11
4264.1333302061294
 21
821.33545190781069
  0
TEXT
  8
_0-0_90_FRAME
 62
    7
 10
3798.5900686662517
 20
807.26361092072273
 40
10
 41
1
 50
0
  1
Źņ É¼ ō·
  0
LINE
  8
_0-0_90_FRAME
  6
CONTINUOUS
 62
   18
 10
4073.1047587782864
 20
821.33545190781069
 11
4073.1047587782864
 21
776.07830905085154
  0
TEXT
  8
_0-0_90_FRAME
 62
    7
 10
4075.4796457658208
 20
806.98704718146416
 40
10
 41
1
 50
0
  1
ī┬Éö
  0
TEXT
  8
_0-0_90_FRAME
 62
    7
 10
3703.0416906061419
 20
910.05295099123339
 40
10
 41
1
 50
0
  1
āTāCāY
  0
TEXT
  8
_0-0_90_FRAME
 62
    7
 10
3592.7274048923036
 20
909.30713566160512
 40
10
 41
1
 50
0
  1
Ä┌ü@ōx
  0
TEXT
  8
_0-0_90_FRAME
 62
    7
 10
3703.0417515518179
 20
839.33866527723455
 40
10
 41
1
 50
0
  1
É╗ü@É}
  0
LINE
  8
_0-0_90_FRAME
  6
CONTINUOUS
 62
   18
 10
3796.5619016365281
 20
852.44973762196923
 11
3472.1333302093276
 21
852.44973762196923
  0
LINE
  8
_0-0_90_FRAME
  6
CONTINUOUS
 62
   18
 10
3947.6095039338011
 20
866.59259476476973
 11
4264.1333302061294
 21
866.59259476476973
  0
TEXT
  8
_0-0_90_FRAME
 62
    7
 10
3735.9098349217384
 20
869.42268903593003
 40
20
 41
1
 50
0
  1
A1
  0
LINE
  8
_0-0_90_FRAME
  6
CONTINUOUS
 62
   18
 10
3701.2476159226876
 20
776.07830905085154
 11
3701.2476159226876
 21
923.16402333597159
  0
TEXT
  8
_0-0_90_FRAME
 62
    2
 10
3542.114383044237
 20
791.64293100548207
 40
20
 41
1
 50
0
  1
āAāNāAāgāŖāĆ
  0
LINE
  8
_0-0_90_FRAME
  6
CONTINUOUS
 62
    4
 10
3535.961616861573
 20
842.76286073097742
 11
3535.961616861573
 21
783.5901465152142
  0
LINE
  8
_0-0_90_FRAME
  6
CONTINUOUS
 62
    4
 10
3535.961616861573
 20
783.5901465152142
 11
3482.1682403017885
 21
783.5901465152142
  0
LINE
  8
_0-0_90_FRAME
  6
CONTINUOUS
 62
    4
 10
3482.1682403017885
 20
783.5901465152142
 11
3482.1682403017885
 21
842.76286073097742
  0
LINE
  8
_0-0_90_FRAME
  6
CONTINUOUS
 62
    4
 10
3482.4243992377883
 20
842.50670179497638
 11
3482.4243992377883
 21
842.50670179497638
  0
LINE
  8
_0-0_90_FRAME
  6
CONTINUOUS
 62
    4
 10
3482.4243992377883
 20
842.50670179497638
 11
3482.5567146517983
 21
841.17225582209676
  0
LINE
  8
_0-0_90_FRAME
  6
CONTINUOUS
 62
    4
 10
3482.5567146517983
 20
841.17225582209676
 11
3482.9496405569289
 21
839.87835631484086
  0
LINE
  8
_0-0_90_FRAME
  6
CONTINUOUS
 62
    4
 10
3482.9496405569289
 20
839.87835631484086
 11
3483.5912380983823
 21
838.66431775499188
  0
LINE
  8
_0-0_90_FRAME
  6
CONTINUOUS
 62
    4
 10
3483.5912380983823
 20
838.66431775499188
 11
3484.4620126595255
 21
837.56702808985767
  0
LINE
  8
_0-0_90_FRAME
  6
CONTINUOUS
 62
    4
 10
3484.4620126595255
 20
837.56702808985767
 11
3485.5355061959517
 21
836.61982791065805
  0
LINE
  8
_0-0_90_FRAME
  6
CONTINUOUS
 62
    4
 10
3485.5355061959517
 20
836.61982791065805
 11
3486.7791011497707
 21
835.85149741553153
  0
LINE
  8
_0-0_90_FRAME
  6
CONTINUOUS
 62
    4
 10
3486.7791011497707
 20
835.85149741553153
 11
3488.1550115175996
 21
835.28538193777842
  0
LINE
  8
_0-0_90_FRAME
  6
CONTINUOUS
 62
    4
 10
3488.1550115175996
 20
835.28538193777842
 11
3489.621430959156
 21
834.93868260972226
  0
LINE
  8
_0-0_90_FRAME
  6
CONTINUOUS
 62
    4
 10
3489.621430959156
 20
834.93868260972226
 11
3491.133803061753
 21
834.82193371500739
  0
LINE
  8
_0-0_90_FRAME
  6
CONTINUOUS
 62
    4
 10
3491.133803061753
 20
834.82193371500739
 11
3492.6461751643501
 21
834.93868260972226
  0
LINE
  8
_0-0_90_FRAME
  6
CONTINUOUS
 62
    4
 10
3492.6461751643501
 20
834.93868260972226
 11
3494.1125946059065
 21
835.28538193777842
  0
LINE
  8
_0-0_90_FRAME
  6
CONTINUOUS
 62
    4
 10
3494.1125946059065
 20
835.28538193777842
 11
3495.4885049737354
 21
835.85149741553153
  0
LINE
  8
_0-0_90_FRAME
  6
CONTINUOUS
 62
    4
 10
3495.4885049737354
 20
835.85149741553153
 11
3496.7320999275544
 21
836.61982791065805
  0
LINE
  8
_0-0_90_FRAME
  6
CONTINUOUS
 62
    4
 10
3496.7320999275544
 20
836.61982791065805
 11
3497.8055934639806
 21
837.56702808985767
  0
LINE
  8
_0-0_90_FRAME
  6
CONTINUOUS
 62
    4
 10
3497.8055934639806
 20
837.56702808985767
 11
3498.6763680251238
 21
838.66431775499188
  0
LINE
  8
_0-0_90_FRAME
  6
CONTINUOUS
 62
    4
 10
3498.6763680251238
 20
838.66431775499188
 11
3499.3179655665772
 21
839.87835631484086
  0
LINE
  8
_0-0_90_FRAME
  6
CONTINUOUS
 62
    4
 10
3499.3179655665772
 20
839.87835631484086
 11
3499.7108914717078
 21
841.17225582209676
  0
LINE
  8
_0-0_90_FRAME
  6
CONTINUOUS
 62
    4
 10
3499.7108914717078
 20
841.17225582209676
 11
3499.8432068857178
 21
842.50670179497638
  0
LINE
  8
_0-0_90_FRAME
  6
CONTINUOUS
 62
    4
 10
3499.8432068857178
 20
842.50670179497638
 11
3499.8432068857178
 21
842.50670179497638
  0
ARC
  8
_0-0_90_FRAME
  6
CONTINUOUS
 62
    4
 10
3500.0993658217171
 20
842.50670179497638
 40
0.2561589359989651
 50
0
 51
180
  0
LINE
  8
_0-0_90_FRAME
  6
CONTINUOUS
 62
    4
 10
3500.355524757716
 20
842.50670179497638
 11
3500.355524757716
 21
842.50670179497638
  0
LINE
  8
_0-0_90_FRAME
  6
CONTINUOUS
 62
    4
 10
3500.355524757716
 20
842.50670179497638
 11
3500.487840171726
 21
841.17225582209676
  0
LINE
  8
_0-0_90_FRAME
  6
CONTINUOUS
 62
    4
 10
3500.487840171726
 20
841.17225582209676
 11
3500.8807660768566
 21
839.87835631484086
  0
LINE
  8
_0-0_90_FRAME
  6
CONTINUOUS
 62
    4
 10
3500.8807660768566
 20
839.87835631484086
 11
3501.52236361831
 21
838.66431775499188
  0
LINE
  8
_0-0_90_FRAME
  6
CONTINUOUS
 62
    4
 10
3501.52236361831
 20
838.66431775499188
 11
3502.3931381794532
 21
837.56702808985767
  0
LINE
  8
_0-0_90_FRAME
  6
CONTINUOUS
 62
    4
 10
3502.3931381794532
 20
837.56702808985767
 11
3503.4666317158794
 21
836.61982791065805
  0
LINE
  8
_0-0_90_FRAME
  6
CONTINUOUS
 62
    4
 10
3503.4666317158794
 20
836.61982791065805
 11
3504.7102266696984
 21
835.85149741553153
  0
LINE
  8
_0-0_90_FRAME
  6
CONTINUOUS
 62
    4
 10
3504.7102266696984
 20
835.85149741553153
 11
3506.0861370375274
 21
835.28538193777842
  0
LINE
  8
_0-0_90_FRAME
  6
CONTINUOUS
 62
    4
 10
3506.0861370375274
 20
835.28538193777842
 11
3507.5525564790837
 21
834.93868260972226
  0
LINE
  8
_0-0_90_FRAME
  6
CONTINUOUS
 62
    4
 10
3507.5525564790837
 20
834.93868260972226
 11
3509.0649285816808
 21
834.82193371500739
  0
LINE
  8
_0-0_90_FRAME
  6
CONTINUOUS
 62
    4
 10
3509.0649285816808
 20
834.82193371500739
 11
3510.5773006842778
 21
834.93868260972226
  0
LINE
  8
_0-0_90_FRAME
  6
CONTINUOUS
 62
    4
 10
3510.5773006842778
 20
834.93868260972226
 11
3512.0437201258342
 21
835.28538193777842
  0
LINE
  8
_0-0_90_FRAME
  6
CONTINUOUS
 62
    4
 10
3512.0437201258342
 20
835.28538193777842
 11
3513.4196304936631
 21
835.85149741553153
  0
LINE
  8
_0-0_90_FRAME
  6
CONTINUOUS
 62
    4
 10
3513.4196304936631
 20
835.85149741553153
 11
3514.6632254474821
 21
836.61982791065805
  0
LINE
  8
_0-0_90_FRAME
  6
CONTINUOUS
 62
    4
 10
3514.6632254474821
 20
836.61982791065805
 11
3515.7367189839083
 21
837.56702808985767
  0
LINE
  8
_0-0_90_FRAME
  6
CONTINUOUS
 62
    4
 10
3515.7367189839083
 20
837.56702808985767
 11
3516.6074935450515
 21
838.66431775499188
  0
LINE
  8
_0-0_90_FRAME
  6
CONTINUOUS
 62
    4
 10
3516.6074935450515
 20
838.66431775499188
 11
3517.2490910865049
 21
839.87835631484086
  0
LINE
  8
_0-0_90_FRAME
  6
CONTINUOUS
 62
    4
 10
3517.2490910865049
 20
839.87835631484086
 11
3517.6420169916355
 21
841.17225582209676
  0
LINE
  8
_0-0_90_FRAME
  6
CONTINUOUS
 62
    4
 10
3517.6420169916355
 20
841.17225582209676
 11
3517.7743324056455
 21
842.50670179497638
  0
LINE
  8
_0-0_90_FRAME
  6
CONTINUOUS
 62
    4
 10
3517.7743324056455
 20
842.50670179497638
 11
3517.7743324056455
 21
842.50670179497638
  0
ARC
  8
_0-0_90_FRAME
  6
CONTINUOUS
 62
    4
 10
3518.0304913416453
 20
842.50670179497638
 40
0.2561589359989651
 50
0
 51
180
  0
LINE
  8
_0-0_90_FRAME
  6
CONTINUOUS
 62
    4
 10
3518.2866502776451
 20
842.50670179497638
 11
3518.2866502776451
 21
842.50670179497638
  0
LINE
  8
_0-0_90_FRAME
  6
CONTINUOUS
 62
    4
 10
3518.2866502776451
 20
842.50670179497638
 11
3518.4189656916551
 21
841.17225582209676
  0
LINE
  8
_0-0_90_FRAME
  6
CONTINUOUS
 62
    4
 10
3518.4189656916551
 20
841.17225582209676
 11
3518.8118915967857
 21
839.87835631484086
  0
LINE
  8
_0-0_90_FRAME
  6
CONTINUOUS
 62
    4
 10
3518.8118915967857
 20
839.87835631484086
 11
3519.4534891382391
 21
838.66431775499188
  0
LINE
  8
_0-0_90_FRAME
  6
CONTINUOUS
 62
    4
 10
3519.4534891382391
 20
838.66431775499188
 11
3520.3242636993823
 21
837.56702808985767
  0
LINE
  8
_0-0_90_FRAME
  6
CONTINUOUS
 62
    4
 10
3520.3242636993823
 20
837.56702808985767
 11
3521.3977572358085
 21
836.61982791065805
  0
LINE
  8
_0-0_90_FRAME
  6
CONTINUOUS
 62
    4
 10
3521.3977572358085
 20
836.61982791065805
 11
3522.6413521896275
 21
835.85149741553153
  0
LINE
  8
_0-0_90_FRAME
  6
CONTINUOUS
 62
    4
 10
3522.6413521896275
 20
835.85149741553153
 11
3524.0172625574564
 21
835.28538193777842
  0
LINE
  8
_0-0_90_FRAME
  6
CONTINUOUS
 62
    4
 10
3524.0172625574564
 20
835.28538193777842
 11
3525.4836819990128
 21
834.93868260972226
  0
LINE
  8
_0-0_90_FRAME
  6
CONTINUOUS
 62
    4
 10
3525.4836819990128
 20
834.93868260972226
 11
3526.9960541016098
 21
834.82193371500739
  0
LINE
  8
_0-0_90_FRAME
  6
CONTINUOUS
 62
    4
 10
3526.9960541016098
 20
834.82193371500739
 11
3528.5084262042069
 21
834.93868260972226
  0
LINE
  8
_0-0_90_FRAME
  6
CONTINUOUS
 62
    4
 10
3528.5084262042069
 20
834.93868260972226
 11
3529.9748456457633
 21
835.28538193777842
  0
LINE
  8
_0-0_90_FRAME
  6
CONTINUOUS
 62
    4
 10
3529.9748456457633
 20
835.28538193777842
 11
3531.3507560135922
 21
835.85149741553153
  0
LINE
  8
_0-0_90_FRAME
  6
CONTINUOUS
 62
    4
 10
3531.3507560135922
 20
835.85149741553153
 11
3532.5943509674112
 21
836.61982791065805
  0
LINE
  8
_0-0_90_FRAME
  6
CONTINUOUS
 62
    4
 10
3532.5943509674112
 20
836.61982791065805
 11
3533.6678445038374
 21
837.56702808985767
  0
LINE
  8
_0-0_90_FRAME
  6
CONTINUOUS
 62
    4
 10
3533.6678445038374
 20
837.56702808985767
 11
3534.5386190649806
 21
838.66431775499188
  0
LINE
  8
_0-0_90_FRAME
  6
CONTINUOUS
 62
    4
 10
3534.5386190649806
 20
838.66431775499188
 11
3535.180216606434
 21
839.87835631484086
  0
LINE
  8
_0-0_90_FRAME
  6
CONTINUOUS
 62
    4
 10
3535.180216606434
 20
839.87835631484086
 11
3535.5731425115646
 21
841.17225582209676
  0
LINE
  8
_0-0_90_FRAME
  6
CONTINUOUS
 62
    4
 10
3535.5731425115646
 20
841.17225582209676
 11
3535.7054579255746
 21
842.50670179497638
  0
LINE
  8
_0-0_90_FRAME
  6
CONTINUOUS
 62
    4
 10
3535.7054579255746
 20
842.50670179497638
 11
3535.7054579255746
 21
842.50670179497638
  0
ARC
  8
_0-0_90_FRAME
  6
CONTINUOUS
 62
    4
 10
3535.961616861573
 20
842.50670179497638
 40
0.2561589359989651
 50
90
 51
180
  0
ARC
  8
_0-0_90_FRAME
  6
CONTINUOUS
 62
    4
 10
3500.0993658217171
 20
842.50670179497638
 40
0.2561589359989651
 50
0
 51
90
  0
ARC
  8
_0-0_90_FRAME
  6
CONTINUOUS
 62
    4
 10
3482.1682403017885
 20
842.50670179497638
 40
0.2561589359989651
 50
0
 51
90
  0
LINE
  8
_0-0_90_FRAME
  6
CONTINUOUS
 62
    4
 10
3488.3160547657658
 20
791.27491459518342
 11
3491.3899619977506
 21
791.27491459518342
  0
LINE
  8
_0-0_90_FRAME
  6
CONTINUOUS
 62
    4
 10
3491.3899619977506
 20
791.27491459518342
 11
3491.3899619977506
 21
788.20100736319682
  0
LINE
  8
_0-0_90_FRAME
  6
CONTINUOUS
 62
    4
 10
3491.3899619977506
 20
788.20100736319682
 11
3488.3160547657658
 21
788.20100736319682
  0
LINE
  8
_0-0_90_FRAME
  6
CONTINUOUS
 62
    4
 10
3488.3160547657658
 20
791.27491459518342
 11
3488.3160547657658
 21
788.20100736319682
  0
LINE
  8
_0-0_90_FRAME
  6
CONTINUOUS
 62
    4
 10
3529.8138023975966
 20
791.27491459518342
 11
3526.7398951656114
 21
791.27491459518342
  0
LINE
  8
_0-0_90_FRAME
  6
CONTINUOUS
 62
    4
 10
3526.7398951656114
 20
791.27491459518342
 11
3526.7398951656114
 21
788.20100736319682
  0
LINE
  8
_0-0_90_FRAME
  6
CONTINUOUS
 62
    4
 10
3526.7398951656114
 20
788.20100736319682
 11
3529.8138023975966
 21
788.20100736319682
  0
LINE
  8
_0-0_90_FRAME
  6
CONTINUOUS
 62
    4
 10
3529.8138023975966
 20
791.27491459518342
 11
3529.8138023975966
 21
788.20100736319682
  0
LINE
  8
_0-0_90_FRAME
  6
CONTINUOUS
 62
    4
 10
3496.000822845735
 20
791.27491459518342
 11
3499.0747300777198
 21
791.27491459518342
  0
LINE
  8
_0-0_90_FRAME
  6
CONTINUOUS
 62
    4
 10
3499.0747300777198
 20
791.27491459518342
 11
3499.0747300777198
 21
788.20100736319682
  0
LINE
  8
_0-0_90_FRAME
  6
CONTINUOUS
 62
    4
 10
3499.0747300777198
 20
788.20100736319682
 11
3496.000822845735
 21
788.20100736319682
  0
LINE
  8
_0-0_90_FRAME
  6
CONTINUOUS
 62
    4
 10
3496.000822845735
 20
791.27491459518342
 11
3496.000822845735
 21
788.20100736319682
  0
LINE
  8
_0-0_90_FRAME
  6
CONTINUOUS
 62
    4
 10
3503.6855909257042
 20
791.27491459518342
 11
3506.759498157689
 21
791.27491459518342
  0
LINE
  8
_0-0_90_FRAME
  6
CONTINUOUS
 62
    4
 10
3506.759498157689
 20
791.27491459518342
 11
3506.759498157689
 21
788.20100736319682
  0
LINE
  8
_0-0_90_FRAME
  6
CONTINUOUS
 62
    4
 10
3506.759498157689
 20
788.20100736319682
 11
3503.6855909257042
 21
788.20100736319682
  0
LINE
  8
_0-0_90_FRAME
  6
CONTINUOUS
 62
    4
 10
3503.6855909257042
 20
791.27491459518342
 11
3503.6855909257042
 21
788.20100736319682
  0
LINE
  8
_0-0_90_FRAME
  6
CONTINUOUS
 62
    4
 10
3511.3703590056734
 20
791.27491459518342
 11
3514.4442662376582
 21
791.27491459518342
  0
LINE
  8
_0-0_90_FRAME
  6
CONTINUOUS
 62
    4
 10
3514.4442662376582
 20
791.27491459518342
 11
3514.4442662376582
 21
788.20100736319682
  0
LINE
  8
_0-0_90_FRAME
  6
CONTINUOUS
 62
    4
 10
3514.4442662376582
 20
788.20100736319682
 11
3511.3703590056734
 21
788.20100736319682
  0
LINE
  8
_0-0_90_FRAME
  6
CONTINUOUS
 62
    4
 10
3511.3703590056734
 20
791.27491459518342
 11
3511.3703590056734
 21
788.20100736319682
  0
LINE
  8
_0-0_90_FRAME
  6
CONTINUOUS
 62
    4
 10
3519.0551270856422
 20
791.27491459518342
 11
3522.1290343176274
 21
791.27491459518342
  0
LINE
  8
_0-0_90_FRAME
  6
CONTINUOUS
 62
    4
 10
3522.1290343176274
 20
791.27491459518342
 11
3522.1290343176274
 21
788.20100736319682
  0
LINE
  8
_0-0_90_FRAME
  6
CONTINUOUS
 62
    4
 10
3522.1290343176274
 20
788.20100736319682
 11
3519.0551270856422
 21
788.20100736319682
  0
LINE
  8
_0-0_90_FRAME
  6
CONTINUOUS
 62
    4
 10
3519.0551270856422
 20
791.27491459518342
 11
3519.0551270856422
 21
788.20100736319682
  0
LINE
  8
_0-0_90_FRAME
  6
CONTINUOUS
 62
    4
 10
3509.033099314207
 20
820.52462218950632
 11
3509.033099314207
 21
820.52462218950632
  0
LINE
  8
_0-0_90_FRAME
  6
CONTINUOUS
 62
    4
 10
3509.033099314207
 20
820.52462218950632
 11
3508.9435918282593
 21
821.50321590295141
  0
LINE
  8
_0-0_90_FRAME
  6
CONTINUOUS
 62
    4
 10
3508.9435918282593
 20
821.50321590295141
 11
3508.6777890100825
 21
822.45207554160572
  0
LINE
  8
_0-0_90_FRAME
  6
CONTINUOUS
 62
    4
 10
3508.6777890100825
 20
822.45207554160572
 11
3508.2437671438051
 21
823.34237048549494
  0
LINE
  8
_0-0_90_FRAME
  6
CONTINUOUS
 62
    4
 10
3508.2437671438051
 20
823.34237048549494
 11
3507.6547137642083
 21
824.14704957326001
  0
LINE
  8
_0-0_90_FRAME
  6
CONTINUOUS
 62
    4
 10
3507.6547137642083
 20
824.14704957326001
 11
3506.9285269601551
 21
824.84166303800646
  0
LINE
  8
_0-0_90_FRAME
  6
CONTINUOUS
 62
    4
 10
3506.9285269601551
 20
824.84166303800646
 11
3506.0872715502192
 21
825.40510540109926
  0
LINE
  8
_0-0_90_FRAME
  6
CONTINUOUS
 62
    4
 10
3506.0872715502192
 20
825.40510540109926
 11
3505.1565086543346
 21
825.82025675145144
  0
LINE
  8
_0-0_90_FRAME
  6
CONTINUOUS
 62
    4
 10
3505.1565086543346
 20
825.82025675145144
 11
3504.1645190321051
 21
826.07450292535941
  0
LINE
  8
_0-0_90_FRAME
  6
CONTINUOUS
 62
    4
 10
3504.1645190321051
 20
826.07450292535941
 11
3503.1414437862309
 21
826.16011878148356
  0
LINE
  8
_0-0_90_FRAME
  6
CONTINUOUS
 62
    4
 10
3503.1414437862309
 20
826.16011878148356
 11
3502.1183685403566
 21
826.07450292535941
  0
LINE
  8
_0-0_90_FRAME
  6
CONTINUOUS
 62
    4
 10
3502.1183685403566
 20
826.07450292535941
 11
3501.1263789181271
 21
825.82025675145144
  0
LINE
  8
_0-0_90_FRAME
  6
CONTINUOUS
 62
    4
 10
3501.1263789181271
 20
825.82025675145144
 11
3500.1956160222426
 21
825.40510540109926
  0
LINE
  8
_0-0_90_FRAME
  6
CONTINUOUS
 62
    4
 10
3500.1956160222426
 20
825.40510540109926
 11
3499.3543606123067
 21
824.84166303800646
  0
LINE
  8
_0-0_90_FRAME
  6
CONTINUOUS
 62
    4
 10
3499.3543606123067
 20
824.84166303800646
 11
3498.6281738082535
 21
824.14704957326001
  0
LINE
  8
_0-0_90_FRAME
  6
CONTINUOUS
 62
    4
 10
3498.6281738082535
 20
824.14704957326001
 11
3498.0391204286566
 21
823.34237048549494
  0
LINE
  8
_0-0_90_FRAME
  6
CONTINUOUS
 62
    4
 10
3498.0391204286566
 20
823.34237048549494
 11
3497.6050985623792
 21
822.45207554160572
  0
LINE
  8
_0-0_90_FRAME
  6
CONTINUOUS
 62
    4
 10
3497.6050985623792
 20
822.45207554160572
 11
3497.3392957442024
 21
821.50321590295141
  0
LINE
  8
_0-0_90_FRAME
  6
CONTINUOUS
 62
    4
 10
3497.3392957442024
 20
821.50321590295141
 11
3497.2497882582547
 21
820.52462218950632
  0
LINE
  8
_0-0_90_FRAME
  6
CONTINUOUS
 62
    4
 10
3497.2497882582547
 20
820.52462218950632
 11
3497.2497882582547
 21
820.52462218950632
  0
LINE
  8
_0-0_90_FRAME
  6
CONTINUOUS
 62
    4
 10
3509.033099314207
 20
820.52462218950632
 11
3509.033099314207
 21
818.987668573512
  0
LINE
  8
_0-0_90_FRAME
  6
CONTINUOUS
 62
    4
 10
3506.253390755573
 20
814.20244059403387
 11
3506.253390755573
 21
814.20244059403387
  0
LINE
  8
_0-0_90_FRAME
  6
CONTINUOUS
 62
    4
 10
3506.253390755573
 20
814.20244059403387
 11
3505.3373968921378
 21
813.75824999222175
  0
LINE
  8
_0-0_90_FRAME
  6
CONTINUOUS
 62
    4
 10
3505.3373968921378
 20
813.75824999222175
 11
3504.3546801047851
 21
813.47295262778869
  0
LINE
  8
_0-0_90_FRAME
  6
CONTINUOUS
 62
    4
 10
3504.3546801047851
 20
813.47295262778869
 11
3503.3350997458206
 21
813.35521711678541
  0
LINE
  8
_0-0_90_FRAME
  6
CONTINUOUS
 62
    4
 10
3503.3350997458206
 20
813.35521711678541
 11
3502.3096352485181
 21
813.40862079313695
  0
LINE
  8
_0-0_90_FRAME
  6
CONTINUOUS
 62
    4
 10
3502.3096352485181
 20
813.40862079313695
 11
3501.3094448327192
 21
813.6315410131607
  0
LINE
  8
_0-0_90_FRAME
  6
CONTINUOUS
 62
    4
 10
3501.3094448327192
 20
813.6315410131607
 11
3500.3649187780861
 21
814.01720445877436
  0
LINE
  8
_0-0_90_FRAME
  6
CONTINUOUS
 62
    4
 10
3500.3649187780861
 20
814.01720445877436
 11
3499.5047560308362
 21
814.55389294133818
  0
LINE
  8
_0-0_90_FRAME
  6
CONTINUOUS
 62
    4
 10
3499.5047560308362
 20
814.55389294133818
 11
3498.7550922007813
 21
815.22529945288682
  0
LINE
  8
_0-0_90_FRAME
  6
CONTINUOUS
 62
    4
 10
3498.7550922007813
 20
815.22529945288682
 11
3498.1387054440493
 21
816.01102364631515
  0
LINE
  8
_0-0_90_FRAME
  6
CONTINUOUS
 62
    4
 10
3498.1387054440493
 20
816.01102364631515
 11
3497.6743243603364
 21
816.8871916896012
  0
LINE
  8
_0-0_90_FRAME
  6
CONTINUOUS
 62
    4
 10
3497.6743243603364
 20
816.8871916896012
 11
3497.3760589338835
 21
817.82718166011239
  0
LINE
  8
_0-0_90_FRAME
  6
CONTINUOUS
 62
    4
 10
3497.3760589338835
 20
817.82718166011239
 11
3497.252971808744
 21
818.80243243825248
  0
LINE
  8
_0-0_90_FRAME
  6
CONTINUOUS
 62
    4
 10
3497.252971808744
 20
818.80243243825248
 11
3497.2497882582547
 21
818.987668573512
  0
LINE
  8
_0-0_90_FRAME
  6
CONTINUOUS
 62
    4
 10
3506.8982302577219
 20
820.3739031818908
 11
3506.8982302577219
 21
819.14434028909591
  0
LINE
  8
_0-0_90_FRAME
  6
CONTINUOUS
 62
    4
 10
3520.9758959657383
 20
818.524270991143
 11
3520.9758959657383
 21
826.16011878148447
  0
LINE
  8
_0-0_90_FRAME
  6
CONTINUOUS
 62
    4
 10
3518.6704655417466
 20
818.987668573512
 11
3518.6704655417466
 21
826.16011878148447
  0
LINE
  8
_0-0_90_FRAME
  6
CONTINUOUS
 62
    4
 10
3518.6704655417466
 20
826.16011878148447
 11
3520.9758959657383
 21
826.16011878148447
  0
LINE
  8
_0-0_90_FRAME
  6
CONTINUOUS
 62
    4
 10
3510.2172206537807
 20
818.524270991143
 11
3510.2172206537807
 21
826.16011878148447
  0
LINE
  8
_0-0_90_FRAME
  6
CONTINUOUS
 62
    4
 10
3512.5226510777734
 20
818.987668573512
 11
3512.5226510777734
 21
826.16011878148447
  0
ARC
  8
_0-0_90_FRAME
  6
CONTINUOUS
 62
    4
 10
3515.6323645928837
 20
818.75596978233034
 40
5.4200985425585984
 50
182.45003099226136
 51
265.55525728852427
  0
LINE
  8
_0-0_90_FRAME
  6
CONTINUOUS
 62
    4
 10
3512.5226510777734
 20
826.16011878148447
 11
3510.2172206537807
 21
826.16011878148447
  0
LINE
  8
_0-0_90_FRAME
  6
CONTINUOUS
 62
    4
 10
3515.9807967137581
 20
813.35217198153578
 11
3515.2123199057623
 21
813.35217198153578
  0
ARC
  8
_0-0_90_FRAME
  6
CONTINUOUS
 62
    4
 10
3517.0956030825814
 20
818.92802837888803
 40
4.5733409003826422
 50
179.25279388138676
 51
218.96457184688023
  0
ARC
  8
_0-0_90_FRAME
  6
CONTINUOUS
 62
    4
 10
3514.097513536939
 20
818.92802837888803
 40
4.5733409003821279
 50
321.03542815311977
 51
0.747206118613265
  0
ARC
  8
_0-0_90_FRAME
  6
CONTINUOUS
 62
    4
 10
3515.5965583097618
 20
819.78706460275089
 40
4.2638625348001273
 50
241.15772780831895
 51
298.84227219168099
  0
LINE
  8
_0-0_90_FRAME
  6
CONTINUOUS
 62
    4
 10
3503.6379990366127
 20
816.74784299468899
 11
3504.6839535409395
 21
815.72987880715073
  0
LINE
  8
_0-0_90_FRAME
  6
CONTINUOUS
 62
    4
 10
3503.6379990366127
 20
816.74784299468899
 11
3504.7726442272265
 21
817.9526781651889
  0
LINE
  8
_0-0_90_FRAME
  6
CONTINUOUS
 62
    4
 10
3508.0343420961412
 20
812.46914848912229
 11
3509.5168681631094
 21
814.04338470097309
  0
LINE
  8
_0-0_90_FRAME
  6
CONTINUOUS
 62
    4
 10
3499.3846573147398
 20
820.3739031818908
 11
3499.3846573147398
 21
819.14434028909591
  0
LINE
  8
_0-0_90_FRAME
  6
CONTINUOUS
 62
    4
 10
3506.8982302577215
 20
820.3739031818908
 11
3506.8982302577215
 21
820.3739031818908
  0
LINE
  8
_0-0_90_FRAME
  6
CONTINUOUS
 62
    4
 10
3506.8982302577215
 20
820.3739031818908
 11
3506.8411562297665
 21
821.02281671691355
  0
LINE
  8
_0-0_90_FRAME
  6
CONTINUOUS
 62
    4
 10
3506.8411562297665
 20
821.02281671691355
 11
3506.6716683113591
 21
821.65201334254073
  0
LINE
  8
_0-0_90_FRAME
  6
CONTINUOUS
 62
    4
 10
3506.6716683113591
 20
821.65201334254073
 11
3506.3949163071356
 21
822.24237523769159
  0
LINE
  8
_0-0_90_FRAME
  6
CONTINUOUS
 62
    4
 10
3506.3949163071356
 20
822.24237523769159
 11
3506.0193091867009
 21
822.77596455491937
  0
LINE
  8
_0-0_90_FRAME
  6
CONTINUOUS
 62
    4
 10
3506.0193091867009
 20
822.77596455491937
 11
3505.556259582343
 21
823.23656845282937
  0
LINE
  8
_0-0_90_FRAME
  6
CONTINUOUS
 62
    4
 10
3505.556259582343
 20
823.23656845282937
 11
3505.0198370219764
 21
823.61019171506041
  0
LINE
  8
_0-0_90_FRAME
  6
CONTINUOUS
 62
    4
 10
3505.0198370219764
 20
823.61019171506041
 11
3504.4263404336539
 21
823.88548198785213
  0
LINE
  8
_0-0_90_FRAME
  6
CONTINUOUS
 62
    4
 10
3504.4263404336539
 20
823.88548198785213
 11
3503.7938029108891
 21
824.0540747155693
  0
LINE
  8
_0-0_90_FRAME
  6
CONTINUOUS
 62
    4
 10
3503.7938029108891
 20
824.0540747155693
 11
3503.1414437862309
 21
824.11084729349227
  0
LINE
  8
_0-0_90_FRAME
  6
CONTINUOUS
 62
    4
 10
3503.1414437862309
 20
824.11084729349227
 11
3502.4890846615726
 21
824.0540747155693
  0
LINE
  8
_0-0_90_FRAME
  6
CONTINUOUS
 62
    4
 10
3502.4890846615726
 20
824.0540747155693
 11
3501.8565471388079
 21
823.88548198785213
  0
LINE
  8
_0-0_90_FRAME
  6
CONTINUOUS
 62
    4
 10
3501.8565471388079
 20
823.88548198785213
 11
3501.2630505504853
 21
823.61019171506041
  0
LINE
  8
_0-0_90_FRAME
  6
CONTINUOUS
 62
    4
 10
3501.2630505504853
 20
823.61019171506041
 11
3500.7266279901187
 21
823.23656845282937
  0
LINE
  8
_0-0_90_FRAME
  6
CONTINUOUS
 62
    4
 10
3500.7266279901187
 20
823.23656845282937
 11
3500.2635783857609
 21
822.77596455491937
  0
LINE
  8
_0-0_90_FRAME
  6
CONTINUOUS
 62
    4
 10
3500.2635783857609
 20
822.77596455491937
 11
3499.8879712653261
 21
822.24237523769159
  0
LINE
  8
_0-0_90_FRAME
  6
CONTINUOUS
 62
    4
 10
3499.8879712653261
 20
822.24237523769159
 11
3499.6112192611026
 21
821.65201334254073
  0
LINE
  8
_0-0_90_FRAME
  6
CONTINUOUS
 62
    4
 10
3499.6112192611026
 20
821.65201334254073
 11
3499.4417313426952
 21
821.02281671691355
  0
LINE
  8
_0-0_90_FRAME
  6
CONTINUOUS
 62
    4
 10
3499.4417313426952
 20
821.02281671691355
 11
3499.3846573147403
 21
820.3739031818908
  0
LINE
  8
_0-0_90_FRAME
  6
CONTINUOUS
 62
    4
 10
3499.3846573147403
 20
820.3739031818908
 11
3499.3846573147403
 21
820.3739031818908
  0
LINE
  8
_0-0_90_FRAME
  6
CONTINUOUS
 62
    4
 10
3504.6839535409385
 20
815.72987880714993
 11
3504.6839535409385
 21
815.72987880714993
  0
LINE
  8
_0-0_90_FRAME
  6
CONTINUOUS
 62
    4
 10
3504.6839535409385
 20
815.72987880714993
 11
3504.0656851509621
 21
815.51513738169319
  0
LINE
  8
_0-0_90_FRAME
  6
CONTINUOUS
 62
    4
 10
3504.0656851509621
 20
815.51513738169319
 11
3503.4193341548066
 21
815.41048658009311
  0
LINE
  8
_0-0_90_FRAME
  6
CONTINUOUS
 62
    4
 10
3503.4193341548066
 20
815.41048658009311
 11
3502.7645396004214
 21
815.41910616400048
  0
LINE
  8
_0-0_90_FRAME
  6
CONTINUOUS
 62
    4
 10
3502.7645396004214
 20
815.41910616400048
 11
3502.121197088999
 21
815.54073423172019
  0
LINE
  8
_0-0_90_FRAME
  6
CONTINUOUS
 62
    4
 10
3502.121197088999
 20
815.54073423172019
 11
3501.5088542572025
 21
815.77167517596104
  0
LINE
  8
_0-0_90_FRAME
  6
CONTINUOUS
 62
    4
 10
3501.5088542572025
 20
815.77167517596104
 11
3500.9461168321154
 21
816.10491197299427
  0
LINE
  8
_0-0_90_FRAME
  6
CONTINUOUS
 62
    4
 10
3500.9461168321154
 20
816.10491197299427
 11
3500.45008330564
 21
816.53031939136793
  0
LINE
  8
_0-0_90_FRAME
  6
CONTINUOUS
 62
    4
 10
3500.45008330564
 20
816.53031939136793
 11
3500.0358254054731
 21
817.03497164194118
  0
LINE
  8
_0-0_90_FRAME
  6
CONTINUOUS
 62
    4
 10
3500.0358254054731
 20
817.03497164194118
 11
3499.715930148287
 21
817.60353512144684
  0
LINE
  8
_0-0_90_FRAME
  6
CONTINUOUS
 62
    4
 10
3499.715930148287
 20
817.60353512144684
 11
3499.5001173895962
 21
818.21873431626705
  0
LINE
  8
_0-0_90_FRAME
  6
CONTINUOUS
 62
    4
 10
3499.5001173895962
 20
818.21873431626705
 11
3499.3949444908671
 21
818.86187671017308
  0
LINE
  8
_0-0_90_FRAME
  6
CONTINUOUS
 62
    4
 10
3499.3949444908671
 20
818.86187671017308
 11
3499.3846525986469
 21
819.1383875811274
  0
LINE
  8
_0-0_90_FRAME
  6
CONTINUOUS
 62
    4
 10
3486.0127622278351
 20
813.35217198153578
 11
3488.3120993029311
 21
813.35217198153578
  0
LINE
  8
_0-0_90_FRAME
  6
CONTINUOUS
 62
    4
 10
3486.0127622278351
 20
813.35217198153578
 11
3486.0127622278351
 21
813.41365012617416
  0
LINE
  8
_0-0_90_FRAME
  6
CONTINUOUS
 62
    4
 10
3486.0127622278351
 20
813.41365012617416
 11
3490.8424840691746
 21
826.16011878148447
  0
LINE
  8
_0-0_90_FRAME
  6
CONTINUOUS
 62
    4
 10
3486.0127622278351
 20
813.35217198153578
 11
3486.0127622278351
 21
813.41365012617416
  0
LINE
  8
_0-0_90_FRAME
  6
CONTINUOUS
 62
    4
 10
3489.5656935733477
 20
816.72879640094595
 11
3494.2943737254732
 21
816.72879640094595
  0
LINE
  8
_0-0_90_FRAME
  6
CONTINUOUS
 62
    4
 10
3490.2589210415508
 20
818.67560431453728
 11
3493.6011462572728
 21
818.67560431453728
  0
LINE
  8
_0-0_90_FRAME
  6
CONTINUOUS
 62
    4
 10
3497.7960732837873
 20
813.35217198153578
 11
3495.4967362086945
 21
813.35217198153578
  0
LINE
  8
_0-0_90_FRAME
  6
CONTINUOUS
 62
    4
 10
3495.4967362086945
 20
813.35217198153578
 11
3494.2943737254732
 21
816.72879640094595
  0
LINE
  8
_0-0_90_FRAME
  6
CONTINUOUS
 62
    4
 10
3497.7960732837873
 20
813.41365012617416
 11
3492.9663514424478
 21
826.16011878148447
  0
LINE
  8
_0-0_90_FRAME
  6
CONTINUOUS
 62
    4
 10
3497.7960732837873
 20
813.35217198153578
 11
3497.7960732837873
 21
813.41365012617416
  0
LINE
  8
_0-0_90_FRAME
  6
CONTINUOUS
 62
    4
 10
3490.8424840691746
 20
826.16011878148447
 11
3492.9663514424478
 21
826.16011878148447
  0
LINE
  8
_0-0_90_FRAME
  6
CONTINUOUS
 62
    4
 10
3493.6011462572728
 20
818.67560431453728
 11
3491.9044177558112
 21
823.44056909937296
  0
LINE
  8
_0-0_90_FRAME
  6
CONTINUOUS
 62
    4
 10
3504.7726442272265
 20
817.9526781651889
 11
3509.5168681631094
 21
814.04338470097309
  0
LINE
  8
_0-0_90_FRAME
  6
CONTINUOUS
 62
    4
 10
3506.2533907555744
 20
814.20244059403501
 11
3508.0343420961412
 21
812.46914848912229
  0
LINE
  8
_0-0_90_FRAME
  6
CONTINUOUS
 62
    4
 10
3489.5656935733477
 20
816.72879640094595
 11
3490.2589210415508
 21
818.67560431453728
  0
LINE
  8
_0-0_90_FRAME
  6
CONTINUOUS
 62
    4
 10
3509.033099314207
 20
818.987668573512
 11
3509.033099314207
 21
818.987668573512
  0
LINE
  8
_0-0_90_FRAME
  6
CONTINUOUS
 62
    4
 10
3509.033099314207
 20
818.987668573512
 11
3508.9435918282593
 21
818.0090748600669
  0
LINE
  8
_0-0_90_FRAME
  6
CONTINUOUS
 62
    4
 10
3508.9435918282593
 20
818.0090748600669
 11
3508.6777890100825
 21
817.06021522141259
  0
LINE
  8
_0-0_90_FRAME
  6
CONTINUOUS
 62
    4
 10
3508.6777890100825
 20
817.06021522141259
 11
3508.2437671438051
 21
816.16992027752337
  0
LINE
  8
_0-0_90_FRAME
  6
CONTINUOUS
 62
    4
 10
3508.2437671438051
 20
816.16992027752337
 11
3507.7907873355898
 21
815.52627431585904
  0
LINE
  8
_0-0_90_FRAME
  6
CONTINUOUS
 62
    4
 10
3506.8982349738149
 20
819.1383875811274
 11
3506.8982349738149
 21
819.1383875811274
  0
LINE
  8
_0-0_90_FRAME
  6
CONTINUOUS
 62
    4
 10
3506.8982349738149
 20
819.1383875811274
 11
3506.8411608742117
 21
818.48926606927034
  0
LINE
  8
_0-0_90_FRAME
  6
CONTINUOUS
 62
    4
 10
3506.8411608742117
 20
818.48926606927034
 11
3506.6716727430371
 21
817.8598677860798
  0
LINE
  8
_0-0_90_FRAME
  6
CONTINUOUS
 62
    4
 10
3506.6716727430371
 20
817.8598677860798
 11
3506.3949203913921
 21
817.26931667989948
  0
LINE
  8
_0-0_90_FRAME
  6
CONTINUOUS
 62
    4
 10
3506.3949203913921
 20
817.26931667989948
 11
3506.1400623562249
 21
816.88649011938242
  0
LINE
  8
_0-0_90_FRAME
  6
CONTINUOUS
 62
    4
 10
3497.2497882582547
 20
820.52462218950632
 11
3497.2497882582547
 21
818.987668573512
  0
LINE
  8
_0-0_90_FRAME
  6
CONTINUOUS
 62
    4
 10
3488.3120993029311
 20
813.35217198153578
 11
3491.9044177558112
 21
823.44056909937296
  0
LINE
  8
_0-0_90_FRAME
  6
CONTINUOUS
 62
    4
 10
3520.8461017515706
 20
813.35217198153578
 11
3523.1454388266666
 21
813.35217198153578
  0
LINE
  8
_0-0_90_FRAME
  6
CONTINUOUS
 62
    4
 10
3520.8461017515706
 20
813.35217198153578
 11
3520.8461017515706
 21
813.41365012617416
  0
LINE
  8
_0-0_90_FRAME
  6
CONTINUOUS
 62
    4
 10
3520.8461017515706
 20
813.41365012617416
 11
3525.6758235929133
 21
826.16011878148447
  0
LINE
  8
_0-0_90_FRAME
  6
CONTINUOUS
 62
    4
 10
3520.8461017515706
 20
813.35217198153578
 11
3520.8461017515706
 21
813.41365012617416
  0
LINE
  8
_0-0_90_FRAME
  6
CONTINUOUS
 62
    4
 10
3524.399033097086
 20
816.72879640094595
 11
3529.1277132492119
 21
816.72879640094595
  0
LINE
  8
_0-0_90_FRAME
  6
CONTINUOUS
 62
    4
 10
3525.0922605652863
 20
818.67560431453728
 11
3528.4344857810111
 21
818.67560431453728
  0
LINE
  8
_0-0_90_FRAME
  6
CONTINUOUS
 62
    4
 10
3532.6294128075256
 20
813.35217198153578
 11
3530.33007573243
 21
813.35217198153578
  0
LINE
  8
_0-0_90_FRAME
  6
CONTINUOUS
 62
    4
 10
3530.33007573243
 20
813.35217198153578
 11
3529.1277132492119
 21
816.72879640094595
  0
LINE
  8
_0-0_90_FRAME
  6
CONTINUOUS
 62
    4
 10
3532.6294128075256
 20
813.41365012617416
 11
3527.7996909661861
 21
826.16011878148447
  0
LINE
  8
_0-0_90_FRAME
  6
CONTINUOUS
 62
    4
 10
3532.6294128075256
 20
813.35217198153578
 11
3532.6294128075256
 21
813.41365012617416
  0
LINE
  8
_0-0_90_FRAME
  6
CONTINUOUS
 62
    4
 10
3525.6758235929133
 20
826.16011878148447
 11
3527.7996909661861
 21
826.16011878148447
  0
LINE
  8
_0-0_90_FRAME
  6
CONTINUOUS
 62
    4
 10
3528.4344857810111
 20
818.67560431453728
 11
3526.7377572795494
 21
823.44056909937296
  0
LINE
  8
_0-0_90_FRAME
  6
CONTINUOUS
 62
    4
 10
3524.399033097086
 20
816.72879640094595
 11
3525.0922605652863
 21
818.67560431453728
  0
LINE
  8
_0-0_90_FRAME
  6
CONTINUOUS
 62
    4
 10
3523.1454388266666
 20
813.35217198153578
 11
3526.7377572795494
 21
823.44056909937296
  0
ARC
  8
_0-0_90_FRAME
  6
CONTINUOUS
 62
    4
 10
3515.5607520266362
 20
818.75596978233034
 40
5.4200985425585984
 50
274.44474271147573
 51
357.5499690077387
  0
LINE
  8
_0-0_90_FRAME
  6
CONTINUOUS
 62
    4
 10
3506.1400623562272
 20
816.88649011938423
 11
3507.7907873355916
 21
815.5262743158595
  0
LINE
  8
_0-0_90_FRAME
  6
CONTINUOUS
 62
    4
 10
3507.0366284254928
 20
804.2841168952317
 11
3507.0366284254928
 21
804.2841168952317
  0
LINE
  8
_0-0_90_FRAME
  6
CONTINUOUS
 62
    4
 10
3507.0366284254928
 20
804.2841168952317
 11
3507.6823021383907
 21
804.5451301415568
  0
LINE
  8
_0-0_90_FRAME
  6
CONTINUOUS
 62
    4
 10
3507.6823021383907
 20
804.5451301415568
 11
3508.2625414997838
 21
804.89353571417075
  0
LINE
  8
_0-0_90_FRAME
  6
CONTINUOUS
 62
    4
 10
3508.2625414997838
 20
804.89353571417075
 11
3508.7597162302914
 21
805.31874748605128
  0
LINE
  8
_0-0_90_FRAME
  6
CONTINUOUS
 62
    4
 10
3508.7597162302914
 20
805.31874748605128
 11
3509.1587199273104
 21
805.80784561267751
  0
LINE
  8
_0-0_90_FRAME
  6
CONTINUOUS
 62
    4
 10
3509.1587199273104
 20
805.80784561267751
 11
3509.4474290654116
 21
806.34596909496724
  0
LINE
  8
_0-0_90_FRAME
  6
CONTINUOUS
 62
    4
 10
3509.4474290654116
 20
806.34596909496724
 11
3509.6170713635283
 21
806.91676732321503
  0
LINE
  8
_0-0_90_FRAME
  6
CONTINUOUS
 62
    4
 10
3509.6170713635283
 20
806.91676732321503
 11
3509.6624923262752
 21
807.50289688209318
  0
LINE
  8
_0-0_90_FRAME
  6
CONTINUOUS
 62
    4
 10
3509.6624923262752
 20
807.50289688209318
 11
3509.5823118606831
 21
808.08654852155109
  0
LINE
  8
_0-0_90_FRAME
  6
CONTINUOUS
 62
    4
 10
3509.5823118606831
 20
808.08654852155109
 11
3509.378966209626
 21
808.64998828186583
  0
LINE
  8
_0-0_90_FRAME
  6
CONTINUOUS
 62
    4
 10
3509.378966209626
 20
808.64998828186583
 11
3509.0586339278134
 21
809.1760963310345
  0
LINE
  8
_0-0_90_FRAME
  6
CONTINUOUS
 62
    4
 10
3509.0586339278134
 20
809.1760963310345
 11
3508.631048149532
 21
809.6488871422066
  0
LINE
  8
_0-0_90_FRAME
  6
CONTINUOUS
 62
    4
 10
3508.631048149532
 20
809.6488871422066
 11
3508.1092008522864
 21
810.05399520582853
  0
LINE
  8
_0-0_90_FRAME
  6
CONTINUOUS
 62
    4
 10
3508.1092008522864
 20
810.05399520582853
 11
3507.5089481021355
 21
810.37911151838148
  0
LINE
  8
_0-0_90_FRAME
  6
CONTINUOUS
 62
    4
 10
3507.5089481021355
 20
810.37911151838148
 11
3506.8485282751508
 21
810.61435758522555
  0
LINE
  8
_0-0_90_FRAME
  6
CONTINUOUS
 62
    4
 10
3506.8485282751508
 20
810.61435758522555
 11
3506.1480078935856
 21
810.75258557365964
  0
LINE
  8
_0-0_90_FRAME
  6
CONTINUOUS
 62
    4
 10
3506.1480078935856
 20
810.75258557365964
 11
3505.5287579142509
 21
810.79058262154513
  0
LINE
  8
_0-0_90_FRAME
  6
CONTINUOUS
 62
    4
 10
3514.4240280399949
 20
800.03190730958829
 11
3514.4240280399949
 21
808.74131113355315
  0
LINE
  8
_0-0_90_FRAME
  6
CONTINUOUS
 62
    4
 10
3512.1185976160027
 20
800.03190730958829
 11
3512.1185976160027
 21
808.74131113355315
  0
LINE
  8
_0-0_90_FRAME
  6
CONTINUOUS
 62
    4
 10
3511.8624386800016
 20
810.79058262154604
 11
3514.6801869759925
 21
810.79058262154604
  0
LINE
  8
_0-0_90_FRAME
  6
CONTINUOUS
 62
    4
 10
3499.6371023862794
 20
810.79058262154604
 11
3499.6371023862794
 21
797.98263582159723
  0
LINE
  8
_0-0_90_FRAME
  6
CONTINUOUS
 62
    4
 10
3511.8624386800016
 20
797.98263582159723
 11
3514.6801869759925
 21
797.98263582159723
  0
LINE
  8
_0-0_90_FRAME
  6
CONTINUOUS
 62
    4
 10
3514.6801869759925
 20
797.98263582159723
 11
3514.6801869759925
 21
799.77574837359077
  0
ARC
  8
_0-0_90_FRAME
  6
CONTINUOUS
 62
    4
 10
3514.6801869759925
 20
800.03190730958829
 40
0.2561589359989651
 50
180
 51
270
  0
LINE
  8
_0-0_90_FRAME
  6
CONTINUOUS
 62
    4
 10
3511.8624386800016
 20
797.98263582159723
 11
3511.8624386800016
 21
799.77574837359077
  0
ARC
  8
_0-0_90_FRAME
  6
CONTINUOUS
 62
    4
 10
3511.8624386800016
 20
800.03190730958829
 40
0.2561589359989651
 50
270
 51
0
  0
LINE
  8
_0-0_90_FRAME
  6
CONTINUOUS
 62
    4
 10
3514.6801869759925
 20
810.79058262154604
 11
3514.6801869759925
 21
808.99747006955249
  0
ARC
  8
_0-0_90_FRAME
  6
CONTINUOUS
 62
    4
 10
3514.6801869759925
 20
808.74131113355315
 40
0.2561589359989651
 50
90
 51
180
  0
LINE
  8
_0-0_90_FRAME
  6
CONTINUOUS
 62
    4
 10
3511.8624386800016
 20
810.79058262154604
 11
3511.8624386800016
 21
808.99747006955249
  0
ARC
  8
_0-0_90_FRAME
  6
CONTINUOUS
 62
    4
 10
3511.8624386800016
 20
808.74131113355315
 40
0.2561589359989651
 50
0
 51
90
  0
LINE
  8
_0-0_90_FRAME
  6
CONTINUOUS
 62
    4
 10
3494.0784950946631
 20
797.98263582159723
 11
3494.0784950946631
 21
808.74131113355315
  0
LINE
  8
_0-0_90_FRAME
  6
CONTINUOUS
 62
    4
 10
3491.773064670675
 20
797.98263582159723
 11
3491.773064670675
 21
808.74131113355315
  0
LINE
  8
_0-0_90_FRAME
  6
CONTINUOUS
 62
    4
 10
3487.674521694692
 20
810.79058262154604
 11
3498.1770380706485
 21
810.79058262154604
  0
LINE
  8
_0-0_90_FRAME
  6
CONTINUOUS
 62
    4
 10
3491.773064670675
 20
797.98263582159723
 11
3494.0784950946631
 21
797.98263582159723
  0
LINE
  8
_0-0_90_FRAME
  6
CONTINUOUS
 62
    4
 10
3498.1770380706485
 20
810.79058262154604
 11
3498.1770380706485
 21
808.99747006955249
  0
ARC
  8
_0-0_90_FRAME
  6
CONTINUOUS
 62
    4
 10
3494.3346540306638
 20
808.74131113355315
 40
0.2561589359989651
 50
90
 51
180
  0
LINE
  8
_0-0_90_FRAME
  6
CONTINUOUS
 62
    4
 10
3487.674521694692
 20
810.79058262154604
 11
3487.674521694692
 21
808.99747006955249
  0
ARC
  8
_0-0_90_FRAME
  6
CONTINUOUS
 62
    4
 10
3491.5169057346766
 20
808.74131113355315
 40
0.2561589359989651
 50
0
 51
90
  0
LINE
  8
_0-0_90_FRAME
  6
CONTINUOUS
 62
    4
 10
3487.674521694692
 20
808.99747006955249
 11
3491.5169057346766
 21
808.99747006955249
  0
LINE
  8
_0-0_90_FRAME
  6
CONTINUOUS
 62
    4
 10
3494.3346540306638
 20
808.99747006955249
 11
3498.1770380706485
 21
808.99747006955249
  0
LINE
  8
_0-0_90_FRAME
  6
CONTINUOUS
 62
    4
 10
3499.6371023862794
 20
797.98263582159723
 11
3501.9425328102675
 21
797.98263582159723
  0
LINE
  8
_0-0_90_FRAME
  6
CONTINUOUS
 62
    4
 10
3501.9425328102675
 20
797.98263582159723
 11
3501.9425328102675
 21
808.99747006955249
  0
LINE
  8
_0-0_90_FRAME
  6
CONTINUOUS
 62
    4
 10
3499.6371023862794
 20
810.79058262154604
 11
3505.5287579142509
 21
810.79058262154604
  0
LINE
  8
_0-0_90_FRAME
  6
CONTINUOUS
 62
    4
 10
3501.9425328102675
 20
808.99747006955249
 11
3505.8361486374533
 21
808.99747006955249
  0
LINE
  8
_0-0_90_FRAME
  6
CONTINUOUS
 62
    4
 10
3502.0193804910641
 20
804.05210693414438
 11
3502.0193804910641
 21
805.84521948613792
  0
LINE
  8
_0-0_90_FRAME
  6
CONTINUOUS
 62
    4
 10
3502.0193804910641
 20
804.05210693414438
 11
3504.5347504888023
 21
804.05210693414438
  0
LINE
  8
_0-0_90_FRAME
  6
CONTINUOUS
 62
    4
 10
3502.0193804910641
 20
805.84521948613792
 11
3505.8361486374533
 21
805.84521948613792
  0
ARC
  8
_0-0_90_FRAME
  6
CONTINUOUS
 62
    4
 10
3505.7811901828909
 20
807.42134477784521
 40
1.5770831832489223
 50
271.99705710435398
 51
88.002942895541636
  0
LINE
  8
_0-0_90_FRAME
  6
CONTINUOUS
 62
    4
 10
3507.4351210469413
 20
797.98263582159723
 11
3509.9198627261298
 21
797.98263582159723
  0
LINE
  8
_0-0_90_FRAME
  6
CONTINUOUS
 62
    4
 10
3507.7127203099681
 20
803.49007762471183
 11
3509.9198627261298
 21
798.08509939599708
  0
LINE
  8
_0-0_90_FRAME
  6
CONTINUOUS
 62
    4
 10
3505.4852558096113
 20
803.41011729686898
 11
3507.4351210469413
 21
797.98263582159723
  0
ARC
  8
_0-0_90_FRAME
  6
CONTINUOUS
 62
    4
 10
3504.5347504888023
 20
803.02747119015066
 40
1.0246357439958607
 50
21.928297866550245
 51
90
  0
ARC
  8
_0-0_90_FRAME
  6
CONTINUOUS
 62
    4
 10
3506.1628625500425
 20
802.85528917960573
 40
1.6748180337109209
 50
22.272952259980951
 51
58.553113012863221
  0
LINE
  8
_0-0_90_FRAME
  6
CONTINUOUS
 62
    4
 10
3509.9198627261298
 20
798.08509939599708
 11
3509.9198627261298
 21
797.98263582159723
  0
LINE
  8
_0-0_90_FRAME
  6
CONTINUOUS
 62
    4
 10
3516.9881135249393
 20
810.79058262154604
 11
3516.9881135249393
 21
797.98263582159723
  0
LINE
  8
_0-0_90_FRAME
  6
CONTINUOUS
 62
    4
 10
3516.9881135249393
 20
797.98263582159723
 11
3519.2935439489315
 21
797.98263582159723
  0
LINE
  8
_0-0_90_FRAME
  6
CONTINUOUS
 62
    4
 10
3519.2935439489315
 20
797.98263582159723
 11
3519.2914210448589
 21
806.94819858156143
  0
LINE
  8
_0-0_90_FRAME
  6
CONTINUOUS
 62
    4
 10
3516.9881135249393
 20
810.79058262154604
 11
3520.3334440396807
 21
810.79058262154604
  0
LINE
  8
_0-0_90_FRAME
  6
CONTINUOUS
 62
    4
 10
3527.4927528049684
 20
806.94819858156143
 11
3527.4927528049684
 21
797.98263582159723
  0
LINE
  8
_0-0_90_FRAME
  6
CONTINUOUS
 62
    4
 10
3527.4927528049684
 20
797.98263582159723
 11
3529.7981832289565
 21
797.98263582159723
  0
LINE
  8
_0-0_90_FRAME
  6
CONTINUOUS
 62
    4
 10
3529.7981832289565
 20
797.98263582159723
 11
3529.7981832289565
 21
810.79058262154604
  0
LINE
  8
_0-0_90_FRAME
  6
CONTINUOUS
 62
    4
 10
3522.2393717129212
 20
797.98263582159723
 11
3524.5448021369093
 21
797.98263582159723
  0
LINE
  8
_0-0_90_FRAME
  6
CONTINUOUS
 62
    4
 10
3529.7981832289565
 20
810.79058262154604
 11
3526.4507298101466
 21
810.79058262154604
  0
LINE
  8
_0-0_90_FRAME
  6
CONTINUOUS
 62
    4
 10
3524.5448021369093
 20
797.98263582159723
 11
3527.4927528049684
 21
806.94819858156143
  0
LINE
  8
_0-0_90_FRAME
  6
CONTINUOUS
 62
    4
 10
3522.2393717129212
 20
797.98263582159723
 11
3519.2914210448589
 21
806.94819858156143
  0
LINE
  8
_0-0_90_FRAME
  6
CONTINUOUS
 62
    4
 10
3523.3920869249137
 20
801.4883731086843
 11
3526.4507298101466
 21
810.79058262154604
  0
LINE
  8
_0-0_90_FRAME
  6
CONTINUOUS
 62
    4
 10
3523.3920869249137
 20
801.4883731086843
 11
3520.3334440396807
 21
810.79058262154604
  0
TEXT
  8
_0-0_90_FRAME
 62
    2
 10
3544.8995497995274
 20
821.0141476765923
 40
15.121542857081762
 41
1
 50
0
  1
ŖöÄ«ē’Äą
  0
LINE
  8
_0-0_90_FRAME
  6
CONTINUOUS
 62
   18
 10
3590.9333302088467
 20
852.44973762196923
 11
3590.9333302088467
 21
923.16402333597159
  0
TEXT
  8
_0-0_90_FRAME
 62
    7
 10
3722.91491106387
 20
797.70020897820814
 40
20
 41
1
 50
0
  1
Äøōc
  0
TEXT
  8
_0-0_90_FRAME
 62
    7
 10
3620.1006253500332
 20
869.42268903593003
 40
20
 41
1
 50
0
  1
1üF4
  0
TEXT
  8
_0-0_90_FRAME
 62
    7
 10
3799.2802175152883
 20
909.47238270012861
 40
10
 41
1
 50
0
  1
ŗ@ŖĒ
  0
LINE
  8
_0-0_90_FRAME
  6
CONTINUOUS
 62
   18
 10
3947.6095039338011
 20
923.16402333597159
 11
3947.6095039338011
 21
821.33545190781069
  0
TEXT
  8
_0-0_90_FRAME
 62
    7
 10
3950.3278198125672
 20
909.47238270012861
 40
10
 41
1
 50
0
  1
ĢöĢi¢╝
  0
TEXT
  8
_0-0_90_FRAME
 62
    7
 10
3950.3278198125645
 20
852.40095412892651
 40
10
 41
1
 50
0
  1
É}¢╩öįŹå
  0
LINE
  8
_0-0_90_FRAME
  6
CONTINUOUS
 62
   18
 10
3796.5619016365281
 20
872.24973762189222
 11
3947.6095039338011
 21
872.24973762189222
  0
TEXT
  8
_0-0_90_FRAME
 62
    7
 10
3799.2802175152883
 20
858.05809698604889
 40
10
 41
1
 50
0
  1
ī^Ä«
  0
LINE
  8
_0-0_90_FRAME
  6
CONTINUOUS
 62
   18
 10
3659.2476211726803
 20
923.16402333597159
 11
4264.1333302061294
 21
923.16402333597159
  0
LINE
  8
_0-0_90_FRAME
  6
CONTINUOUS
 62
    4
 10
3659.2476211726798
 20
1035.1640203274751
 11
3659.2476211726803
 21
923.16402333597182
  0
LINE
  8
_0-0_90_FRAME
  6
CONTINUOUS
 62
    4
 10
3947.6095039338011
 20
1035.1640203274751
 11
3947.6095039338011
 21
923.16402333597159
  0
LINE
  8
_0-0_90_FRAME
  6
CONTINUOUS
 62
    4
 10
4057.3859553917296
 20
1035.1640203274751
 11
4057.3859553917455
 21
923.16402333597159
  0
LINE
  8
_0-0_90_FRAME
  6
CONTINUOUS
 62
    4
 10
4029.3859588917271
 20
1035.1640203274751
 11
4029.3859588917421
 21
923.16402333597159
  0
LINE
  8
_0-0_90_FRAME
  6
CONTINUOUS
 62
    4
 10
3701.2476159226876
 20
1035.1640203274751
 11
3701.2476159226876
 21
923.16402333597159
  0
LINE
  8
_0-0_90_FRAME
  6
CONTINUOUS
 62
    4
 10
4099.3859501417382
 20
1035.1640203274751
 11
4099.3859501417382
 21
923.16402333597159
  0
TEXT
  8
_0-0_90_FRAME
 62
    3
 10
4040.8428272390511
 20
957.85472095846831
 40
12.000000000000002
 41
1
 50
0
  1
1
  0
TEXT
  8
_0-0_90_FRAME
 62
    3
 10
3954.0550009653293
 20
958.1213861695162
 40
12.000000000000002
 41
1
 50
0
  1
SUS304
  0
TEXT
  8
_0-0_90_FRAME
 62
    3
 10
3720.7551499446668
 20
957.96221665173687
 40
12.000000000000002
 41
1
 50
0
  1
ēśōDözŖŪāXāeü[2
  0
TEXT
  8
_0-0_90_FRAME
 62
    3
 10
3669.2173181506073
 20
957.65352391969668
 40
12.000000000000002
 41
1
 50
0
  1
99
  0
TEXT
  8
_0-0_90_FRAME
 62
    3
 10
4066.5327167698188
 20
937.53548593120172
 40
10
 41
1
 50
0
  1
ÅdŚ╩
  0
TEXT
  8
_0-0_90_FRAME
 62
    3
 10
3966.2832516394669
 20
931.08129429370842
 40
12.000000000000002
 41
1
 50
0
  1
Ź▐ü@Ä┐
  0
TEXT
  8
_0-0_90_FRAME
 62
    3
 10
4030.8565273423178
 20
930.99110658192762
 40
12.000000000000002
 41
1
 50
0
  1
ÉöŚ╩
  0
TEXT
  8
_0-0_90_FRAME
 62
    3
 10
4070.9525758315353
 20
927.75078774205269
 40
8
 41
1
 50
0
  1
kg
  0
TEXT
  8
_0-0_90_FRAME
 62
    3
 10
4152.907687672111
 20
930.78990954313292
 40
12.000000000000002
 41
1
 50
0
  1
ö§  Źl
  0
TEXT
  8
_0-0_90_FRAME
 62
    3
 10
3667.7995995508554
 20
930.78990954313292
 40
12.000000000000002
 41
1
 50
0
  1
ĢäŹå
  0
TEXT
  8
_0-0_90_FRAME
 62
    3
 10
3769.5284559498127
 20
931.22546504424633
 40
12.000000000000002
 41
1
 50
0
  1
Ģöü@ü@Ģiü@ü@¢╝
  0
LINE
  8
_0-0_90_FRAME
  6
CONTINUOUS
 62
    4
 10
3659.2475980664472
 20
1035.1640203274751
 11
4264.1333070998971
 21
1035.1640203274751
  0
LINE
  8
_0-0_90_FRAME
  6
CONTINUOUS
 62
    4
 10
3659.2475980664472
 20
1007.1640188323408
 11
4264.1333070998971
 21
1007.1640188323408
  0
LINE
  8
_0-0_90_FRAME
  6
CONTINUOUS
 62
    4
 10
3659.2475980664472
 20
979.1640203274751
 11
4264.1333070998971
 21
979.1640203274751
  0
LINE
  8
_0-0_90_FRAME
  6
CONTINUOUS
 62
    4
 10
3659.2475980664472
 20
951.1640203274751
 11
4264.1333070998971
 21
951.1640203274751
  0
TEXT
  8
_0-0_90_FRAME
 62
    7
 10
4060.6366733356354
 20
886.32076946488905
 40
16
 41
1
 50
0
  1
ÆEÉģŗ@ ĢöĢiÉ}
  0
TEXT
  8
_0-0_90_FRAME
 62
    7
 10
3806.3250688958333
 20
885.74665914703166
 40
12.800000000000002
 41
0.9
 50
0
  1
ŚLŗ@É½ēśōDöRŚ┐Ä{É▌
  0
LINE
  8
_0-2_08_DIM
  6
CONTINUOUS
 62
    3
 10
1438.2947994837721
 20
2628.431541656968
 11
1543.1221865646637
 21
2628.431541656968
  0
INSERT
  2
-000-p1ba05
  8
_0-2_08_DIM
 10
1500.7768090913876
 20
2633.9018983576889
 41
6
 42
6
 50
0
  0
INSERT
  2
-004-Jis_w20130906110600
  8
_0-2_08_DIM
 10
4104.8515652034457
 20
1119.5789192841432
 41
2.3999999999999999
 42
2.3999999999999999
 50
0
  0
LINE
  8
_0-3_06_PHANTOM
  6
PHANTOM2
 62
    7
 10
1730.6318965407368
 20
1924.4389893770215
 11
3780.6318965391365
 21
1924.4389893770215
  0
TEXT
  8
_0-2_08_DIM
 62
    3
 10
2723.4682218491394
 20
1929.1573066857684
 40
12.000000000000002
 41
1
 50
0
  1
¢╩łĻé╠é▒éŲ
  0
LINE
  8
_0-4_0
  6
CONTINUOUS
 62
   18
 10
3780.6318965296778
 20
2176.4924574887514
 11
1730.6318965407297
 21
2176.4924574887514
  0
LINE
  8
_0-4_0
  6
CONTINUOUS
 62
   18
 10
3780.6318965296778
 20
2226.4924574887509
 11
1730.6318965407297
 21
2226.4924574887509
  0
CIRCLE
  8
_0-4_0
  6
CONTINUOUS
 62
   18
 10
3149.6318965389037
 20
2201.49245748874
 40
5
  0
LINE
  8
_0-5_05_CENTER
  6
CENTER2
 62
    4
 10
3149.6318965388964
 20
2192.1502271526324
 11
3149.6318965388964
 21
2210.8346878248335
  0
LINE
  8
_0-5_05_CENTER
  6
CENTER2
 62
    4
 10
3140.2896662027961
 20
2201.4924574887327
 11
3158.9741268749967
 21
2201.4924574887327
  0
CIRCLE
  8
_0-4_0
  6
CONTINUOUS
 62
   18
 10
3221.631896538911
 20
2201.49245748874
 40
5
  0
LINE
  8
_0-5_05_CENTER
  6
CENTER2
 62
    4
 10
3221.6318965389037
 20
2192.1502271526324
 11
3221.6318965389037
 21
2210.8346878248335
  0
LINE
  8
_0-5_05_CENTER
  6
CENTER2
 62
    4
 10
3212.2896662028033
 20
2201.4924574887327
 11
3230.974126875004
 21
2201.4924574887327
  0
CIRCLE
  8
_0-4_0
  6
CONTINUOUS
 62
   18
 10
2361.6318965314967
 20
2201.4924574887418
 40
5
  0
LINE
  8
_0-5_05_CENTER
  6
CENTER2
 62
    4
 10
2361.6318965314895
 20
2192.1502271526342
 11
2361.631896531504
 21
2210.8346878248349
  0
LINE
  8
_0-5_05_CENTER
  6
CENTER2
 62
    4
 10
2370.9741268676044
 20
2201.4924574887345
 11
2352.2896661954037
 21
2201.4924574887345
  0
CIRCLE
  8
_0-4_0
  6
CONTINUOUS
 62
   18
 10
2289.6318965314895
 20
2201.4924574887418
 40
5
  0
LINE
  8
_0-5_05_CENTER
  6
CENTER2
 62
    4
 10
2289.6318965314822
 20
2192.1502271526342
 11
2289.6318965314963
 21
2210.8346878248349
  0
LINE
  8
_0-5_05_CENTER
  6
CENTER2
 62
    4
 10
2298.9741268675971
 20
2201.4924574887345
 11
2280.289666195396
 21
2201.4924574887345
  0
INSERT
  2
-005-KK015066_54_5_1_1
  8
_0-6_04_HIDDEN
 10
1730.6318965416863
 20
2226.4924574887509
 41
-1
 42
1
 50
90
  0
LINE
  8
_0-4_0
  6
CONTINUOUS
 62
   18
 10
3780.6318965296778
 20
2220.4924574887527
 11
1730.6318965407297
 21
2220.4924574887473
  0
CIRCLE
  8
_0-4_0
  6
CONTINUOUS
 62
   18
 10
1705.631896537594
 20
2184.4924574972879
 40
6.0000000000000009
  0
LINE
  8
_0-5_05_CENTER
  6
CENTER2
 62
    4
 10
1695.3428053636233
 20
2184.4924575018604
 11
1715.9209877115607
 21
2184.4924575018604
  0
LINE
  8
_0-5_05_CENTER
  6
CENTER2
 62
    4
 10
1705.631896539162
 20
2174.2033663233187
 11
1705.631896539162
 21
2194.7815486712561
  0
LINE
  8
_0-4_0
  6
CONTINUOUS
 62
   18
 10
1730.6318965416863
 20
2254.492457501864
 11
1730.6318965416863
 21
2174.4924575029154
  0
LINE
  8
_0-4_0
  6
CONTINUOUS
 62
   18
 10
1730.6318965416863
 20
2174.4924575029154
 11
1728.6318965416865
 21
2172.4924575029158
  0
LINE
  8
_0-4_0
  6
CONTINUOUS
 62
   18
 10
1728.6318965416865
 20
2172.4924575029158
 11
1682.6318965416863
 21
2172.4924575029172
  0
LINE
  8
_0-4_0
  6
CONTINUOUS
 62
   18
 10
1682.6318965416863
 20
2172.4924575029172
 11
1680.6318965416865
 21
2174.4924575029172
  0
LINE
  8
_0-4_0
  6
CONTINUOUS
 62
   18
 10
1680.6318965416865
 20
2174.4924575029172
 11
1680.6318965416865
 21
2254.4924575018586
  0
LINE
  8
_0-4_0
  6
CONTINUOUS
 62
   18
 10
1680.6318965416865
 20
2254.4924575018586
 11
1682.6318965416863
 21
2256.492457501859
  0
LINE
  8
_0-4_0
  6
CONTINUOUS
 62
   18
 10
1682.6318965416863
 20
2256.492457501859
 11
1728.6318965416865
 21
2256.492457501864
  0
LINE
  8
_0-4_0
  6
CONTINUOUS
 62
   18
 10
1728.6318965416865
 20
2256.492457501864
 11
1730.6318965416863
 21
2254.492457501864
  0
CIRCLE
  8
_0-4_0
  6
CONTINUOUS
 62
   18
 10
1705.631896539162
 20
2244.4924574972874
 40
6.0000000000000009
  0
LINE
  8
_0-5_05_CENTER
  6
CENTER2
 62
    4
 10
1695.3428053651912
 20
2244.4924575018604
 11
1715.9209877131286
 21
2244.4924575018604
  0
LINE
  8
_0-5_05_CENTER
  6
CENTER2
 62
    4
 10
1705.6318965407299
 20
2234.2033663233187
 11
1705.6318965407299
 21
2254.7815486712561
  0
LINE
  8
_0-5_05_CENTER
  6
CENTER2
 62
    4
 10
1705.6318965407299
 20
2213.2768425889708
 11
1705.6318965407299
 21
2233.8550249369082
  0
CIRCLE
  8
_0-4_0
  6
CONTINUOUS
 62
   18
 10
3805.6318965328142
 20
2184.4924574972879
 40
6.0000000000000009
  0
LINE
  8
_0-5_05_CENTER
  6
CENTER2
 62
    4
 10
3815.9209877067806
 20
2184.4924575018604
 11
3795.3428053588468
 21
2184.4924575018604
  0
LINE
  8
_0-5_05_CENTER
  6
CENTER2
 62
    4
 10
3805.6318965312416
 20
2174.2033663233187
 11
3805.6318965312416
 21
2194.7815486712561
  0
LINE
  8
_0-4_0
  6
CONTINUOUS
 62
   18
 10
3780.6318965287173
 20
2254.492457501864
 11
3780.6318965287173
 21
2174.4924575029154
  0
LINE
  8
_0-4_0
  6
CONTINUOUS
 62
   18
 10
3780.6318965287173
 20
2174.4924575029154
 11
3782.6318965287173
 21
2172.4924575029158
  0
LINE
  8
_0-4_0
  6
CONTINUOUS
 62
   18
 10
3782.6318965287173
 20
2172.4924575029158
 11
3828.6318965287173
 21
2172.4924575029172
  0
LINE
  8
_0-4_0
  6
CONTINUOUS
 62
   18
 10
3828.6318965287173
 20
2172.4924575029172
 11
3830.6318965287169
 21
2174.4924575029172
  0
LINE
  8
_0-4_0
  6
CONTINUOUS
 62
   18
 10
3830.6318965287169
 20
2174.4924575029172
 11
3830.6318965287169
 21
2254.4924575018586
  0
LINE
  8
_0-4_0
  6
CONTINUOUS
 62
   18
 10
3830.6318965287169
 20
2254.4924575018586
 11
3828.6318965287173
 21
2256.492457501859
  0
LINE
  8
_0-4_0
  6
CONTINUOUS
 62
   18
 10
3828.6318965287173
 20
2256.492457501859
 11
3782.6318965287173
 21
2256.492457501864
  0
LINE
  8
_0-4_0
  6
CONTINUOUS
 62
   18
 10
3782.6318965287173
 20
2256.492457501864
 11
3780.6318965287173
 21
2254.492457501864
  0
CIRCLE
  8
_0-4_0
  6
CONTINUOUS
 62
   18
 10
3805.6318965312416
 20
2244.4924574972874
 40
6.0000000000000009
  0
LINE
  8
_0-5_05_CENTER
  6
CENTER2
 62
    4
 10
3815.9209877052162
 20
2244.4924575018604
 11
3795.3428053572752
 21
2244.4924575018604
  0
LINE
  8
_0-5_05_CENTER
  6
CENTER2
 62
    4
 10
3805.6318965296782
 20
2234.2033663233187
 11
3805.6318965296782
 21
2254.7815486712561
  0
INSERT
  2
-005-KK015066_54_5_1_1
  8
_0-6_04_HIDDEN
 10
3780.6318965287173
 20
2226.4924574887509
 41
1
 42
1
 50
270
  0
LINE
  8
_0-5_05_CENTER
  6
CENTER2
 62
    4
 10
3805.6318965296782
 20
2213.2768425889708
 11
3805.6318965296782
 21
2233.8550249369082
  0
LINE
  8
_0-5_05_CENTER
  6
CENTER2
 62
    4
 10
1705.6318965374701
 20
1931.0987957697116
 11
1705.6318965374664
 21
1912.0095664874286
  0
LINE
  8
_0-4_0
  6
CONTINUOUS
 62
   18
 10
3755.6318965446699
 20
1564.4389893755078
 11
1755.6318965352109
 21
1564.4389893755078
  0
LINE
  8
_0-4_0
  6
CONTINUOUS
 62
   18
 10
3755.6318965446699
 20
1614.4389893755078
 11
1755.6318965352109
 21
1614.438989375506
  0
LINE
  8
_0-4_0
  6
CONTINUOUS
 62
   18
 10
3755.6318965446699
 20
1570.4389893755078
 11
1755.6318965352109
 21
1570.4389893755078
  0
LINE
  8
_0-5_05_CENTER
  6
CENTER2
 62
    4
 10
3149.6318965379537
 20
1576.6614208017436
 11
3149.6318965379537
 21
1557.9769601295429
  0
LINE
  8
_0-5_05_CENTER
  6
CENTER2
 62
    4
 10
3221.6318965379614
 20
1576.6614208017436
 11
3221.6318965379614
 21
1557.9769601295429
  0
LINE
  8
_0-5_05_CENTER
  6
CENTER2
 62
    4
 10
2361.6318965305582
 20
1576.6614208017411
 11
2361.6318965305582
 21
1557.9769601295404
  0
LINE
  8
_0-5_05_CENTER
  6
CENTER2
 62
    4
 10
2289.6318965305504
 20
1576.6614208017418
 11
2289.6318965305504
 21
1557.9769601295413
  0
LINE
  8
_0-4_0
  6
CONTINUOUS
 62
   18
 10
1730.6318965407409
 20
1564.4389893755078
 11
1730.6318965407368
 21
1918.4389893770212
  0
LINE
  8
_0-4_0
  6
CONTINUOUS
 62
   18
 10
1730.6318965407368
 20
1918.4389893770212
 11
1680.631896540737
 21
1918.4389893770212
  0
LINE
  8
_0-4_0
  6
CONTINUOUS
 62
   18
 10
1680.631896540737
 20
1918.4389893770212
 11
1680.6318965407406
 21
1569.4389893755081
  0
LINE
  8
_0-4_0
  6
CONTINUOUS
 62
   18
 10
1680.6318965407406
 20
1569.4389893755081
 11
1685.6318965407406
 21
1564.4389893755078
  0
LINE
  8
_0-4_0
  6
CONTINUOUS
 62
   18
 10
1685.6318965407406
 20
1564.4389893755078
 11
1730.6318965407409
 21
1564.4389893755078
  0
LINE
  8
_0-4_0
  6
CONTINUOUS
 62
   18
 10
1730.6318965407368
 20
1918.4389893770212
 11
1730.6318965407368
 21
1924.4389893770215
  0
LINE
  8
_0-4_0
  6
CONTINUOUS
 62
   18
 10
1730.6318965407368
 20
1924.4389893770215
 11
1680.631896540737
 21
1924.4389893770215
  0
LINE
  8
_0-4_0
  6
CONTINUOUS
 62
   18
 10
1680.631896540737
 20
1924.4389893770215
 11
1680.631896540737
 21
1918.4389893770212
  0
LINE
  8
_0-4_0
  6
CONTINUOUS
 62
   18
 10
1680.631896540737
 20
1918.4389893770212
 11
1730.6318965407368
 21
1918.4389893770212
  0
LINE
  8
_0-4_0
  6
CONTINUOUS
 62
   18
 10
1724.631896540737
 20
1918.4389893770212
 11
1724.6318965407406
 21
1564.4389893755078
  0
LINE
  8
_0-4_0
  6
CONTINUOUS
 62
   18
 10
1755.6318965352109
 20
1614.438989375506
 11
1730.6318965407409
 21
1614.438989375506
  0
LINE
  8
_0-4_0
  6
CONTINUOUS
 62
   18
 10
1755.6318965352109
 20
1570.4389893755078
 11
1730.6318965407409
 21
1570.4389893755078
  0
LINE
  8
_0-4_0
  6
CONTINUOUS
 62
   18
 10
1755.6318965352109
 20
1564.4389893755078
 11
1730.6318965407409
 21
1564.4389893755078
  0
LINE
  8
_0-4_0
  6
CONTINUOUS
 62
   18
 10
3780.6318965391401
 20
1564.4389893755078
 11
3780.6318965391365
 21
1918.4389893770212
  0
LINE
  8
_0-4_0
  6
CONTINUOUS
 62
   18
 10
3780.6318965391365
 20
1918.4389893770212
 11
3830.6318965391365
 21
1918.4389893770212
  0
LINE
  8
_0-4_0
  6
CONTINUOUS
 62
   18
 10
3830.6318965391365
 20
1918.4389893770212
 11
3830.6318965391401
 21
1569.4389893755081
  0
LINE
  8
_0-4_0
  6
CONTINUOUS
 62
   18
 10
3830.6318965391401
 20
1569.4389893755081
 11
3825.6318965391406
 21
1564.4389893755078
  0
LINE
  8
_0-4_0
  6
CONTINUOUS
 62
   18
 10
3825.6318965391406
 20
1564.4389893755078
 11
3780.6318965391401
 21
1564.4389893755078
  0
LINE
  8
_0-4_0
  6
CONTINUOUS
 62
   18
 10
3786.6318965391361
 20
1918.4389893770212
 11
3786.6318965391406
 21
1564.4389893755078
  0
LINE
  8
_0-4_0
  6
CONTINUOUS
 62
   18
 10
3755.6318965446699
 20
1614.438989375506
 11
3780.6318965391401
 21
1614.438989375506
  0
LINE
  8
_0-4_0
  6
CONTINUOUS
 62
   18
 10
3755.6318965446699
 20
1570.4389893755078
 11
3780.6318965391401
 21
1570.4389893755078
  0
LINE
  8
_0-4_0
  6
CONTINUOUS
 62
   18
 10
3755.6318965446699
 20
1564.4389893755078
 11
3780.6318965391401
 21
1564.4389893755078
  0
CIRCLE
  8
_0-4_0
  6
CONTINUOUS
 62
   18
 10
1705.6318965375976
 20
1734.4390043831042
 40
6.0000000000000009
  0
LINE
  8
_0-5_05_CENTER
  6
CENTER2
 62
    4
 10
1695.3428053636269
 20
1734.4390043876774
 11
1715.9209877115643
 21
1734.4390043876774
  0
LINE
  8
_0-5_05_CENTER
  6
CENTER2
 62
    4
 10
1705.6318965391656
 20
1724.1499132091358
 11
1705.6318965391656
 21
1744.7280955570732
  0
CIRCLE
  8
_0-4_0
  6
CONTINUOUS
 62
   18
 10
3805.6318965422838
 20
1734.4390043831054
 40
6.0000000000000009
  0
LINE
  8
_0-5_05_CENTER
  6
CENTER2
 62
    4
 10
3815.9209877162502
 20
1734.4390043876786
 11
3795.3428053683169
 21
1734.4390043876786
  0
LINE
  8
_0-5_05_CENTER
  6
CENTER2
 62
    4
 10
3805.6318965407113
 20
1724.1499132091369
 11
3805.6318965407113
 21
1744.7280955570739
  0
LINE
  8
_0-5_05_CENTER
  6
CENTER2
 62
    4
 10
3805.6318965358691
 20
1931.0987957697116
 11
3805.6318965358619
 21
1912.0095664874286
  0
LINE
  8
_0-4_0
  6
CONTINUOUS
 62
   18
 10
3830.6318965391365
 20
1918.4389893770212
 11
3830.6318965391365
 21
1924.4389893770215
  0
LINE
  8
_0-4_0
  6
CONTINUOUS
 62
   18
 10
3830.6318965391365
 20
1924.4389893770215
 11
3780.6318965391365
 21
1924.4389893770215
  0
LINE
  8
_0-4_0
  6
CONTINUOUS
 62
   18
 10
3780.6318965391365
 20
1924.4389893770215
 11
3780.6318965391365
 21
1918.4389893770212
  0
LINE
  8
_0-4_0
  6
CONTINUOUS
 62
   18
 10
3780.6318965391365
 20
1918.4389893770212
 11
3830.6318965391365
 21
1918.4389893770212
  0
INSERT
  2
-005-KK015066_54_5_1_1
  8
_0-6_04_HIDDEN
 10
4026.4787882649907
 20
1564.4389893755088
 41
1
 42
1
 50
0
  0
LINE
  8
_0-4_0
  6
CONTINUOUS
 62
   18
 10
4026.4787882649907
 20
1564.4389893755088
 11
3976.4787882649903
 21
1564.4389893755088
  0
LINE
  8
_0-4_0
  6
CONTINUOUS
 62
   18
 10
3976.4787882649903
 20
1564.4389893755088
 11
3976.4787882663409
 21
1918.4389893803684
  0
LINE
  8
_0-4_0
  6
CONTINUOUS
 62
   18
 10
3976.4787882663409
 20
1918.4389893803684
 11
4026.4787882663404
 21
1918.4389893803684
  0
LINE
  8
_0-4_0
  6
CONTINUOUS
 62
   18
 10
4026.4787882663404
 20
1918.4389893803684
 11
4026.4787882649907
 21
1564.4389893755088
  0
LINE
  8
_0-4_0
  6
CONTINUOUS
 62
   18
 10
4020.4787882649907
 20
1609.9389893764658
 11
4020.4787882663372
 21
1918.4389893803684
  0
LINE
  8
_0-5_05_CENTER
  6
CENTER2
 62
    4
 10
4001.4787882649907
 20
1557.8758793570423
 11
4001.4787882649907
 21
1577.0089152494193
  0
INSERT
  2
-005-KK015066_54_5_1_1
  8
_0-6_04_HIDDEN
 10
1416.9037379910458
 20
1564.4389893755088
 41
1
 42
1
 50
0
  0
LINE
  8
_0-4_0
  6
CONTINUOUS
 62
   18
 10
1416.9037379910458
 20
1564.4389893755088
 11
1466.9037379910458
 21
1564.4389893755088
  0
LINE
  8
_0-4_0
  6
CONTINUOUS
 62
   18
 10
1466.9037379910458
 20
1564.4389893755088
 11
1466.9037379903034
 21
1918.4389893803684
  0
LINE
  8
_0-4_0
  6
CONTINUOUS
 62
   18
 10
1466.9037379903034
 20
1918.4389893803684
 11
1416.9037379903036
 21
1918.4389893803684
  0
LINE
  8
_0-4_0
  6
CONTINUOUS
 62
   18
 10
1416.9037379903036
 20
1918.4389893803684
 11
1416.9037379910458
 21
1564.4389893755088
  0
LINE
  8
_0-4_0
  6
CONTINUOUS
 62
   18
 10
1422.9037379910458
 20
1564.4389893755088
 11
1422.9037379903073
 21
1918.4389893803684
  0
LINE
  8
_0-5_05_CENTER
  6
CENTER2
 62
    4
 10
1441.9037379910458
 20
1557.8758793570423
 11
1441.9037379910458
 21
1577.0089152494193
  0
LINE
  8
_0-4_0
  6
CONTINUOUS
 62
   18
 10
1386.90373798628
 20
1924.4389893820528
 11
1470.9037379852214
 21
1924.4389893848593
  0
LINE
  8
_0-4_0
  6
CONTINUOUS
 62
   18
 10
1470.9037379852214
 20
1924.4389893848593
 11
1470.9037379852214
 21
1918.4389893848593
  0
LINE
  8
_0-4_0
  6
CONTINUOUS
 62
   18
 10
1470.9037379852214
 20
1918.4389893848593
 11
1386.90373798628
 21
1918.4389893820526
  0
LINE
  8
_0-4_0
  6
CONTINUOUS
 62
   18
 10
1386.90373798628
 20
1918.4389893820526
 11
1386.90373798628
 21
1924.4389893820528
  0
LINE
  8
_0-5_05_CENTER
  6
CENTER2
 62
    4
 10
1398.90373798628
 20
1909.1332021487694
 11
1398.90373798628
 21
1933.2809118013276
  0
LINE
  8
_0-5_05_CENTER
  6
CENTER2
 62
    4
 10
1458.90373798628
 20
1909.1332021487694
 11
1458.90373798628
 21
1933.2809118013276
  0
LINE
  8
_0-5_05_CENTER
  6
CENTER2
 62
    4
 10
1410.3406279718527
 20
1734.4390043876786
 11
1429.4736638642296
 21
1734.4390043876786
  0
LINE
  8
_0-4_0
  6
CONTINUOUS
 62
   18
 10
4056.4787882703604
 20
1924.4389893710331
 11
3972.4787882714186
 21
1924.4389893738401
  0
LINE
  8
_0-4_0
  6
CONTINUOUS
 62
   18
 10
3972.4787882714186
 20
1924.4389893738401
 11
3972.4787882714186
 21
1918.4389893738396
  0
LINE
  8
_0-4_0
  6
CONTINUOUS
 62
   18
 10
3972.4787882714186
 20
1918.4389893738396
 11
4056.4787882703604
 21
1918.4389893710331
  0
LINE
  8
_0-4_0
  6
CONTINUOUS
 62
   18
 10
4056.4787882703604
 20
1918.4389893710331
 11
4056.4787882703604
 21
1924.4389893710331
  0
LINE
  8
_0-5_05_CENTER
  6
CENTER2
 62
    4
 10
4044.4787882703604
 20
1909.1332021377502
 11
4044.4787882703604
 21
1933.2809117903082
  0
LINE
  8
_0-5_05_CENTER
  6
CENTER2
 62
    4
 10
3984.4787882703599
 20
1909.1332021377502
 11
3984.4787882703599
 21
1933.2809117903082
  0
LINE
  8
_0-5_05_CENTER
  6
CENTER2
 62
    4
 10
4033.0418982841843
 20
1734.4390043759824
 11
4013.9088623918105
 21
1734.4390043759824
  0
LINE
  8
_0-5_05_CENTER
  6
CENTER2
 62
    4
 10
2289.6318965314895
 20
2201.4924574887345
 11
3221.6318965377609
 21
2201.4924574853312
  0
LINE
  8
_0-5_05_CENTER
  6
CENTER2
 62
    4
 10
1705.631896537594
 20
1734.4390043876774
 11
3805.6318965407113
 21
1734.4390043831054
  0
LINE
  8
_0-5_05_CENTER
  6
CENTER2
 62
    4
 10
3805.6318965328142
 20
2184.4924575018604
 11
1705.6318965407299
 21
2184.4924575018604
  0
LINE
  8
_0-5_05_CENTER
  6
CENTER2
 62
    4
 10
1705.6318965407299
 20
2184.4924575018604
 11
1705.6318965407299
 21
2244.4924574972874
  0
LINE
  8
_0-5_05_CENTER
  6
CENTER2
 62
    4
 10
1705.6318965407299
 20
2244.4924574972874
 11
3805.6318965328142
 21
2244.4924574972874
  0
LINE
  8
_0-5_05_CENTER
  6
CENTER2
 62
    4
 10
3805.6318965328142
 20
2244.4924574972874
 11
3805.6318965328142
 21
2184.4924575018604
  0
INSERT
  2
-006-AM_BALLOON1
  8
_0-2_08_DIM
 10
1413.2596481141034
 20
2628.4637521761506
 41
5
 42
5
 50
0
  0
TEXT
  8
_0-4_0
 62
    7
 10
1399.331076685532
 20
2620.9637521761506
 40
15
 41
1
 50
0
  1
99
  0
LINE
  8
_0-2_08_DIM
  6
CONTINUOUS
 62
    3
 10
1683.1318965407406
 20
1564.4389893755078
 11
1589.0556784780508
 21
1564.4389893755078
  0
LINE
  8
_0-2_08_DIM
  6
CONTINUOUS
 62
    3
 10
1678.1318965407372
 20
1918.4389893770212
 11
1589.0556784780508
 21
1918.4389893770212
  0
LINE
  8
_0-2_08_DIM
  6
CONTINUOUS
 62
    3
 10
1594.0556784780508
 20
1574.4389893755078
 11
1594.0556784780508
 21
1908.4389893770212
  0
INSERT
  2
-007-_Open30
  8
_0-2_08_DIM
 10
1594.0556784780508
 20
1564.4389893755078
 41
10
 42
10
 50
270
  0
INSERT
  2
-007-_Open30
  8
_0-2_08_DIM
 10
1594.0556784780508
 20
1918.4389893770212
 41
10
 42
10
 50
90
  0
LINE
  8
_0-2_08_DIM
  6
CONTINUOUS
 62
    3
 10
1692.8428053636271
 20
1734.4390043876786
 11
1629.6979967618188
 21
1734.4390043876786
  0
LINE
  8
_0-2_08_DIM
  6
CONTINUOUS
 62
    3
 10
1683.1318965407406
 20
1564.4389893755078
 11
1629.6979967618188
 21
1564.4389893755078
  0
LINE
  8
_0-2_08_DIM
  6
CONTINUOUS
 62
    3
 10
1634.6979967618188
 20
1724.4390043876786
 11
1634.6979967618188
 21
1574.4389893755078
  0
INSERT
  2
-007-_Open30
  8
_0-2_08_DIM
 10
1634.6979967618188
 20
1734.4390043876786
 41
10
 42
10
 50
90
  0
INSERT
  2
-007-_Open30
  8
_0-2_08_DIM
 10
1634.6979967618188
 20
1564.4389893755078
 41
10
 42
10
 50
270
  0
LINE
  8
_0-2_08_DIM
  6
CONTINUOUS
 62
    3
 10
1678.1318965407372
 20
1918.4389893770212
 11
1589.0556784780508
 21
1918.4389893770212
  0
LINE
  8
_0-2_08_DIM
  6
CONTINUOUS
 62
    3
 10
1678.1318965407372
 20
1924.4389893770215
 11
1589.0556784780508
 21
1924.4389893770215
  0
LINE
  8
_0-2_08_DIM
  6
CONTINUOUS
 62
    3
 10
1594.0556784780508
 20
1908.4389893770212
 11
1594.0556784780508
 21
1898.4389893770215
  0
LINE
  8
_0-2_08_DIM
  6
CONTINUOUS
 62
    3
 10
1594.0556784780508
 20
1934.4389893770215
 11
1594.0556784780508
 21
1957.4389893770215
  0
LINE
  8
_0-2_08_DIM
  6
CONTINUOUS
 62
    3
 10
1594.0556784780508
 20
1918.4389893770212
 11
1594.0556784780508
 21
1924.4389893770215
  0
INSERT
  2
-007-_Open30
  8
_0-2_08_DIM
 10
1594.0556784780508
 20
1918.4389893770212
 41
10
 42
10
 50
90
  0
INSERT
  2
-007-_Open30
  8
_0-2_08_DIM
 10
1594.0556784780508
 20
1924.4389893770215
 41
10
 42
10
 50
270
  0
LINE
  8
_0-2_08_DIM
  6
CONTINUOUS
 62
    3
 10
1730.6318965407368
 20
1926.9389893770215
 11
1730.6318965407368
 21
1986.5762977191744
  0
LINE
  8
_0-2_08_DIM
  6
CONTINUOUS
 62
    3
 10
1680.631896540737
 20
1926.9389893770215
 11
1680.631896540737
 21
1986.5762977191744
  0
LINE
  8
_0-2_08_DIM
  6
CONTINUOUS
 62
    3
 10
1720.6318965407372
 20
1981.5762977191744
 11
1690.631896540737
 21
1981.5762977191744
  0
INSERT
  2
-007-_Open30
  8
_0-2_08_DIM
 10
1730.6318965407368
 20
1981.5762977191744
 41
10
 42
10
 50
0
  0
INSERT
  2
-007-_Open30
  8
_0-2_08_DIM
 10
1680.631896540737
 20
1981.5762977191744
 41
10
 42
10
 50
180
  0
LINE
  8
_0-2_08_DIM
  6
CONTINUOUS
 62
    3
 10
1730.6318965407368
 20
1926.9389893770215
 11
1730.6318965407368
 21
1986.5762977191744
  0
LINE
  8
_0-2_08_DIM
  6
CONTINUOUS
 62
    3
 10
3780.6318965391365
 20
1926.9389893770215
 11
3780.6318965391365
 21
1986.5762977191744
  0
LINE
  8
_0-2_08_DIM
  6
CONTINUOUS
 62
    3
 10
1740.6318965407368
 20
1981.5762977191744
 11
3770.6318965391365
 21
1981.5762977191744
  0
INSERT
  2
-007-_Open30
  8
_0-2_08_DIM
 10
1730.6318965407368
 20
1981.5762977191744
 41
10
 42
10
 50
180
  0
INSERT
  2
-007-_Open30
  8
_0-2_08_DIM
 10
3780.6318965391365
 20
1981.5762977191744
 41
10
 42
10
 50
0
  0
LINE
  8
_0-2_08_DIM
  6
CONTINUOUS
 62
    3
 10
3780.6318965391365
 20
1926.9389893770215
 11
3780.6318965391365
 21
1986.5762977191744
  0
LINE
  8
_0-2_08_DIM
  6
CONTINUOUS
 62
    3
 10
3830.6318965391365
 20
1926.9389893770215
 11
3830.6318965391365
 21
1986.5762977191744
  0
LINE
  8
_0-2_08_DIM
  6
CONTINUOUS
 62
    3
 10
3790.6318965391365
 20
1981.5762977191744
 11
3820.6318965391365
 21
1981.5762977191744
  0
INSERT
  2
-007-_Open30
  8
_0-2_08_DIM
 10
3780.6318965391365
 20
1981.5762977191744
 41
10
 42
10
 50
180
  0
INSERT
  2
-007-_Open30
  8
_0-2_08_DIM
 10
3830.6318965391365
 20
1981.5762977191744
 41
10
 42
10
 50
0
  0
LINE
  8
_0-2_08_DIM
  6
CONTINUOUS
 62
    3
 10
1705.631896539162
 20
1747.2280955570741
 11
1705.631896539162
 21
1803.7444103607424
  0
LINE
  8
_0-2_08_DIM
  6
CONTINUOUS
 62
    3
 10
3805.6318965407086
 20
1747.2280955570759
 11
3805.6318965407086
 21
1803.7444103607424
  0
LINE
  8
_0-2_08_DIM
  6
CONTINUOUS
 62
    3
 10
1715.631896539162
 20
1798.7444103607422
 11
3795.6318965407077
 21
1798.7444103607422
  0
INSERT
  2
-007-_Open30
  8
_0-2_08_DIM
 10
1705.631896539162
 20
1798.7444103607422
 41
10
 42
10
 50
180
  0
INSERT
  2
-007-_Open30
  8
_0-2_08_DIM
 10
3805.6318965407086
 20
1798.7444103607422
 41
10
 42
10
 50
0
  0
LINE
  8
_0-2_08_DIM
  6
CONTINUOUS
 62
    3
 10
1705.631896539162
 20
1747.2280955570741
 11
1705.631896539162
 21
1803.7444103607424
  0
LINE
  8
_0-2_08_DIM
  6
CONTINUOUS
 62
    3
 10
1680.631896540737
 20
1747.2280955570741
 11
1680.631896540737
 21
1803.7444103607424
  0
LINE
  8
_0-2_08_DIM
  6
CONTINUOUS
 62
    3
 10
1715.631896539162
 20
1798.7444103607422
 11
1725.6318965391617
 21
1798.7444103607422
  0
LINE
  8
_0-2_08_DIM
  6
CONTINUOUS
 62
    3
 10
1670.631896540737
 20
1798.7444103607422
 11
1635.631896540737
 21
1798.7444103607422
  0
LINE
  8
_0-2_08_DIM
  6
CONTINUOUS
 62
    3
 10
1705.631896539162
 20
1798.7444103607422
 11
1680.631896540737
 21
1798.7444103607422
  0
INSERT
  2
-007-_Open30
  8
_0-2_08_DIM
 10
1705.631896539162
 20
1798.7444103607422
 41
10
 42
10
 50
180
  0
INSERT
  2
-007-_Open30
  8
_0-2_08_DIM
 10
1680.631896540737
 20
1798.7444103607422
 41
10
 42
10
 50
0
  0
LINE
  8
_0-2_08_DIM
  6
CONTINUOUS
 62
    3
 10
3805.6318965407086
 20
1747.2280955570759
 11
3805.6318965407086
 21
1803.7444103607424
  0
LINE
  8
_0-2_08_DIM
  6
CONTINUOUS
 62
    3
 10
3830.6318965391365
 20
1747.2280955570759
 11
3830.6318965391365
 21
1803.7444103607424
  0
LINE
  8
_0-2_08_DIM
  6
CONTINUOUS
 62
    3
 10
3795.6318965407077
 20
1798.7444103607422
 11
3785.6318965407086
 21
1798.7444103607422
  0
LINE
  8
_0-2_08_DIM
  6
CONTINUOUS
 62
    3
 10
3840.6318965391361
 20
1798.7444103607422
 11
3875.6318965391365
 21
1798.7444103607422
  0
LINE
  8
_0-2_08_DIM
  6
CONTINUOUS
 62
    3
 10
3805.6318965407086
 20
1798.7444103607422
 11
3830.6318965391365
 21
1798.7444103607422
  0
INSERT
  2
-007-_Open30
  8
_0-2_08_DIM
 10
3805.6318965407086
 20
1798.7444103607422
 41
10
 42
10
 50
0
  0
INSERT
  2
-007-_Open30
  8
_0-2_08_DIM
 10
3830.6318965391365
 20
1798.7444103607422
 41
10
 42
10
 50
180
  0
LINE
  8
_0-2_08_DIM
  6
CONTINUOUS
 62
    3
 10
2289.6318965314963
 20
2189.6502271526347
 11
2289.6318965314963
 21
2105.6804400408091
  0
LINE
  8
_0-2_08_DIM
  6
CONTINUOUS
 62
    3
 10
2361.631896531504
 20
2189.6502271526347
 11
2361.631896531504
 21
2105.6804400408091
  0
LINE
  8
_0-2_08_DIM
  6
CONTINUOUS
 62
    3
 10
2299.6318965314963
 20
2110.6804400408091
 11
2351.631896531504
 21
2110.6804400408091
  0
INSERT
  2
-007-_Open30
  8
_0-2_08_DIM
 10
2289.6318965314963
 20
2110.6804400408091
 41
10
 42
10
 50
180
  0
INSERT
  2
-007-_Open30
  8
_0-2_08_DIM
 10
2361.631896531504
 20
2110.6804400408091
 41
10
 42
10
 50
0
  0
LINE
  8
_0-2_08_DIM
  6
CONTINUOUS
 62
    3
 10
2361.631896531504
 20
2189.6502271526347
 11
2361.631896531504
 21
2105.6804400408091
  0
LINE
  8
_0-2_08_DIM
  6
CONTINUOUS
 62
    3
 10
3149.6318965377613
 20
2189.6502271526347
 11
3149.6318965377613
 21
2105.6804400408091
  0
LINE
  8
_0-2_08_DIM
  6
CONTINUOUS
 62
    3
 10
2371.631896531504
 20
2110.6804400408091
 11
3139.6318965377613
 21
2110.6804400408091
  0
INSERT
  2
-007-_Open30
  8
_0-2_08_DIM
 10
2361.631896531504
 20
2110.6804400408091
 41
10
 42
10
 50
180
  0
INSERT
  2
-007-_Open30
  8
_0-2_08_DIM
 10
3149.6318965377613
 20
2110.6804400408091
 41
10
 42
10
 50
0
  0
LINE
  8
_0-2_08_DIM
  6
CONTINUOUS
 62
    3
 10
3149.6318965377613
 20
2189.6502271492332
 11
3149.6318965377613
 21
2105.6804400408091
  0
LINE
  8
_0-2_08_DIM
  6
CONTINUOUS
 62
    3
 10
3221.6318965377686
 20
2189.6502271492309
 11
3221.6318965377686
 21
2105.6804400408091
  0
LINE
  8
_0-2_08_DIM
  6
CONTINUOUS
 62
    3
 10
3159.6318965377613
 20
2110.6804400408091
 11
3211.6318965377686
 21
2110.6804400408091
  0
INSERT
  2
-007-_Open30
  8
_0-2_08_DIM
 10
3149.6318965377613
 20
2110.6804400408091
 41
10
 42
10
 50
180
  0
INSERT
  2
-007-_Open30
  8
_0-2_08_DIM
 10
3221.6318965377686
 20
2110.6804400408091
 41
10
 42
10
 50
0
  0
LINE
  8
_0-2_08_DIM
  6
CONTINUOUS
 62
    3
 10
2277.7896661953964
 20
2201.4924574887345
 11
2226.3274434830582
 21
2201.4924574887345
  0
LINE
  8
_0-2_08_DIM
  6
CONTINUOUS
 62
    3
 10
2277.7896661953964
 20
2176.4924574887527
 11
2226.3274434830582
 21
2176.4924574887527
  0
LINE
  8
_0-2_08_DIM
  6
CONTINUOUS
 62
    3
 10
2231.3274434830582
 20
2211.4924574887345
 11
2231.3274434830582
 21
2221.4924574887345
  0
LINE
  8
_0-2_08_DIM
  6
CONTINUOUS
 62
    3
 10
2231.3274434830582
 20
2166.4924574887527
 11
2231.3274434830582
 21
2131.4924574887527
  0
LINE
  8
_0-2_08_DIM
  6
CONTINUOUS
 62
    3
 10
2231.3274434830582
 20
2201.4924574887345
 11
2231.3274434830582
 21
2176.4924574887527
  0
INSERT
  2
-007-_Open30
  8
_0-2_08_DIM
 10
2231.3274434830582
 20
2201.4924574887345
 41
10
 42
10
 50
270
  0
INSERT
  2
-007-_Open30
  8
_0-2_08_DIM
 10
2231.3274434830582
 20
2176.4924574887527
 41
10
 42
10
 50
90
  0
LINE
  8
_0-2_08_DIM
  6
CONTINUOUS
 62
    3
 10
2289.6318965314963
 20
2189.3934957010506
 11
2289.6318965314963
 21
2105.6804400408091
  0
LINE
  8
_0-2_08_DIM
  6
CONTINUOUS
 62
    3
 10
1680.6318965416865
 20
2178.9924574887527
 11
1680.6318965416865
 21
2105.6804400408091
  0
LINE
  8
_0-2_08_DIM
  6
CONTINUOUS
 62
    3
 10
2279.6318965314963
 20
2110.6804400408091
 11
1690.6318965416865
 21
2110.6804400408091
  0
INSERT
  2
-007-_Open30
  8
_0-2_08_DIM
 10
2289.6318965314963
 20
2110.6804400408091
 41
10
 42
10
 50
0
  0
INSERT
  2
-007-_Open30
  8
_0-2_08_DIM
 10
1680.6318965416865
 20
2110.6804400408091
 41
10
 42
10
 50
180
  0
LINE
  8
_0-2_08_DIM
  6
CONTINUOUS
 62
    3
 10
3221.6318965377686
 20
2189.6502271492309
 11
3221.6318965377686
 21
2105.6804400408091
  0
LINE
  8
_0-2_08_DIM
  6
CONTINUOUS
 62
    3
 10
3830.6318965287169
 20
2178.9924574887527
 11
3830.6318965287169
 21
2105.6804400408091
  0
LINE
  8
_0-2_08_DIM
  6
CONTINUOUS
 62
    3
 10
3231.6318965377686
 20
2110.6804400408091
 11
3820.6318965287173
 21
2110.6804400408091
  0
INSERT
  2
-007-_Open30
  8
_0-2_08_DIM
 10
3221.6318965377686
 20
2110.6804400408091
 41
10
 42
10
 50
180
  0
INSERT
  2
-007-_Open30
  8
_0-2_08_DIM
 10
3830.6318965287169
 20
2110.6804400408091
 41
10
 42
10
 50
0
  0
LINE
  8
_0-2_08_DIM
  6
CONTINUOUS
 62
    3
 10
1692.8428053651915
 20
2244.4924575018604
 11
1636.6515610188994
 21
2244.4924575018604
  0
LINE
  8
_0-2_08_DIM
  6
CONTINUOUS
 62
    3
 10
1692.8428053651915
 20
2184.4924575018604
 11
1636.6515610188994
 21
2184.4924575018604
  0
LINE
  8
_0-2_08_DIM
  6
CONTINUOUS
 62
    3
 10
1641.6515610188997
 20
2234.4924575018608
 11
1641.6515610188997
 21
2194.4924575018604
  0
INSERT
  2
-007-_Open30
  8
_0-2_08_DIM
 10
1641.6515610188997
 20
2244.4924575018604
 41
10
 42
10
 50
90
  0
INSERT
  2
-007-_Open30
  8
_0-2_08_DIM
 10
1641.6515610188997
 20
2184.4924575018604
 41
10
 42
10
 50
270
  0
LINE
  8
_0-2_08_DIM
  6
CONTINUOUS
 62
    3
 10
1692.842805363623
 20
2244.4924575029154
 11
1636.6515610188994
 21
2244.4924575029154
  0
LINE
  8
_0-2_08_DIM
  6
CONTINUOUS
 62
    3
 10
1680.1318965416829
 20
2256.492457501859
 11
1636.6515610188994
 21
2256.492457501859
  0
LINE
  8
_0-2_08_DIM
  6
CONTINUOUS
 62
    3
 10
1641.6515610188997
 20
2234.4924575029154
 11
1641.6515610188997
 21
2224.4924575029154
  0
LINE
  8
_0-2_08_DIM
  6
CONTINUOUS
 62
    3
 10
1641.6515610188997
 20
2266.492457501859
 11
1641.6515610188997
 21
2297.4924575018586
  0
LINE
  8
_0-2_08_DIM
  6
CONTINUOUS
 62
    3
 10
1641.6515610188997
 20
2244.4924575029154
 11
1641.6515610188997
 21
2256.492457501859
  0
INSERT
  2
-007-_Open30
  8
_0-2_08_DIM
 10
1641.6515610188997
 20
2244.4924575029154
 41
10
 42
10
 50
90
  0
INSERT
  2
-007-_Open30
  8
_0-2_08_DIM
 10
1641.6515610188997
 20
2256.492457501859
 41
10
 42
10
 50
270
  0
LINE
  8
_0-2_08_DIM
  6
CONTINUOUS
 62
    3
 10
1680.1318965416829
 20
2172.4924575029172
 11
1601.9345300191178
 21
2172.4924575029172
  0
LINE
  8
_0-2_08_DIM
  6
CONTINUOUS
 62
    3
 10
1680.1318965416829
 20
2256.492457501859
 11
1601.9345300191178
 21
2256.492457501859
  0
LINE
  8
_0-2_08_DIM
  6
CONTINUOUS
 62
    3
 10
1606.9345300191178
 20
2182.4924575029172
 11
1606.9345300191178
 21
2246.4924575018586
  0
INSERT
  2
-007-_Open30
  8
_0-2_08_DIM
 10
1606.9345300191178
 20
2172.4924575029172
 41
10
 42
10
 50
270
  0
INSERT
  2
-007-_Open30
  8
_0-2_08_DIM
 10
1606.9345300191178
 20
2256.492457501859
 41
10
 42
10
 50
90
  0
LINE
  8
_0-2_08_DIM
  6
CONTINUOUS
 62
    3
 10
4026.4787882663404
 20
1915.9389893693487
 11
4026.4787882663404
 21
1873.6739149900704
  0
LINE
  8
_0-2_08_DIM
  6
CONTINUOUS
 62
    3
 10
4056.4787882703604
 20
1915.9389893710334
 11
4056.4787882703604
 21
1873.6739149900704
  0
LINE
  8
_0-2_08_DIM
  6
CONTINUOUS
 62
    3
 10
4036.4787882663404
 20
1878.6739149900704
 11
4046.4787882703604
 21
1878.6739149900704
  0
INSERT
  2
-007-_Open30
  8
_0-2_08_DIM
 10
4026.4787882663404
 20
1878.6739149900704
 41
10
 42
10
 50
180
  0
INSERT
  2
-007-_Open30
  8
_0-2_08_DIM
 10
4056.4787882703604
 20
1878.6739149900704
 41
10
 42
10
 50
0
  0
LINE
  8
_0-2_08_DIM
  6
CONTINUOUS
 62
    3
 10
4056.4787882703604
 20
1926.9389893710334
 11
4056.4787882703604
 21
1982.1705130791825
  0
LINE
  8
_0-2_08_DIM
  6
CONTINUOUS
 62
    3
 10
3972.4787882714186
 20
1926.9389893738401
 11
3972.4787882714186
 21
1982.1705130791825
  0
LINE
  8
_0-2_08_DIM
  6
CONTINUOUS
 62
    3
 10
4046.4787882703604
 20
1977.1705130791827
 11
3982.4787882714195
 21
1977.1705130791827
  0
INSERT
  2
-007-_Open30
  8
_0-2_08_DIM
 10
4056.4787882703604
 20
1977.1705130791827
 41
10
 42
10
 50
0
  0
INSERT
  2
-007-_Open30
  8
_0-2_08_DIM
 10
3972.4787882714186
 20
1977.1705130791827
 41
10
 42
10
 50
180
  0
LINE
  8
_0-2_08_DIM
  6
CONTINUOUS
 62
    3
 10
1562.8104642648523
 20
2329.0124426930506
 11
1640.9104642648522
 21
2329.0124426930506
  0
LINE
  8
_0-2_08_DIM
  6
CONTINUOUS
 62
    3
 10
1640.9104642648522
 20
2329.0124426930506
 11
1695.9043034048284
 21
2257.1957614695993
  0
INSERT
  2
-007-_Open30
  8
_0-2_08_DIM
 10
1701.9840491137838
 20
2249.2561964869046
 41
10
 42
10
 50
307.44319490225354
  0
LINE
  8
_0-2_08_DIM
  6
CONTINUOUS
 62
    3
 10
2473.0826516842285
 20
2131.5995470801108
 11
2396.9826516842281
 21
2131.5995470801108
  0
LINE
  8
_0-2_08_DIM
  6
CONTINUOUS
 62
    3
 10
2396.9826516842281
 20
2131.5995470801108
 11
2368.4019714280234
 21
2188.1071638462622
  0
INSERT
  2
-007-_Open30
  8
_0-2_08_DIM
 10
2363.8885881636725
 20
2197.0306929412491
 41
10
 42
10
 50
116.82958205510444
  0
LINE
  8
_0-2_08_DIM
  6
CONTINUOUS
 62
    3
 10
1832.2751389286536
 20
1682.9884155864791
 11
1754.1751389286535
 21
1682.9884155864791
  0
LINE
  8
_0-2_08_DIM
  6
CONTINUOUS
 62
    3
 10
1754.1751389286535
 20
1682.9884155864791
 11
1716.6120158923216
 21
1722.8012649567413
  0
INSERT
  2
-007-_Open30
  8
_0-2_08_DIM
 10
1709.7494412956169
 20
1730.0748520982183
 41
10
 42
10
 50
133.33457964157708
  0
LINE
  8
_0-2_08_DIM
  6
CONTINUOUS
 62
    3
 10
1416.9037379903
 20
1915.9389893803682
 11
1416.9037379903
 21
1873.6739150010897
  0
LINE
  8
_0-2_08_DIM
  6
CONTINUOUS
 62
    3
 10
1386.90373798628
 20
1915.9389893820528
 11
1386.90373798628
 21
1873.6739150010897
  0
LINE
  8
_0-2_08_DIM
  6
CONTINUOUS
 62
    3
 10
1406.9037379903
 20
1878.6739150010901
 11
1396.90373798628
 21
1878.6739150010901
  0
INSERT
  2
-007-_Open30
  8
_0-2_08_DIM
 10
1416.9037379903
 20
1878.6739150010901
 41
10
 42
10
 50
0
  0
INSERT
  2
-007-_Open30
  8
_0-2_08_DIM
 10
1386.90373798628
 20
1878.6739150010901
 41
10
 42
10
 50
180
  0
LINE
  8
_0-2_08_DIM
  6
CONTINUOUS
 62
    3
 10
1386.90373798628
 20
1926.9389893820526
 11
1386.90373798628
 21
1982.1705130902019
  0
LINE
  8
_0-2_08_DIM
  6
CONTINUOUS
 62
    3
 10
1470.9037379852214
 20
1926.938989384859
 11
1470.9037379852214
 21
1982.1705130902019
  0
LINE
  8
_0-2_08_DIM
  6
CONTINUOUS
 62
    3
 10
1396.90373798628
 20
1977.1705130902019
 11
1460.9037379852211
 21
1977.1705130902019
  0
INSERT
  2
-007-_Open30
  8
_0-2_08_DIM
 10
1386.90373798628
 20
1977.1705130902019
 41
10
 42
10
 50
180
  0
INSERT
  2
-007-_Open30
  8
_0-2_08_DIM
 10
1470.9037379852214
 20
1977.1705130902019
 41
10
 42
10
 50
0
  0
LINE
  8
_0-2_08_DIM
  6
CONTINUOUS
 62
    3
 10
1705.6318965407299
 20
2257.2815486712561
 11
1705.6318965407299
 21
2366.78904011635
  0
LINE
  8
_0-2_08_DIM
  6
CONTINUOUS
 62
    3
 10
1680.6318965416865
 20
2256.992457501859
 11
1680.6318965416865
 21
2366.78904011635
  0
LINE
  8
_0-2_08_DIM
  6
CONTINUOUS
 62
    3
 10
1715.6318965407299
 20
2361.7890401163495
 11
1725.6318965407299
 21
2361.7890401163495
  0
LINE
  8
_0-2_08_DIM
  6
CONTINUOUS
 62
    3
 10
1670.6318965416865
 20
2361.7890401163495
 11
1635.6318965416863
 21
2361.7890401163495
  0
LINE
  8
_0-2_08_DIM
  6
CONTINUOUS
 62
    3
 10
1705.6318965407299
 20
2361.7890401163495
 11
1680.6318965416865
 21
2361.7890401163495
  0
INSERT
  2
-007-_Open30
  8
_0-2_08_DIM
 10
1705.6318965407299
 20
2361.7890401163495
 41
10
 42
10
 50
180
  0
INSERT
  2
-007-_Open30
  8
_0-2_08_DIM
 10
1680.6318965416865
 20
2361.7890401163495
 41
10
 42
10
 50
0
  0
LINE
  8
_0-2_08_DIM
  6
CONTINUOUS
 62
    3
 10
1705.6318965407299
 20
2257.2815486712561
 11
1705.6318965407299
 21
2366.78904011635
  0
LINE
  8
_0-2_08_DIM
  6
CONTINUOUS
 62
    3
 10
3805.6318965296782
 20
2257.2815486712561
 11
3805.6318965296782
 21
2366.78904011635
  0
LINE
  8
_0-2_08_DIM
  6
CONTINUOUS
 62
    3
 10
1715.6318965407299
 20
2361.7890401163495
 11
3795.6318965296773
 21
2361.7890401163495
  0
INSERT
  2
-007-_Open30
  8
_0-2_08_DIM
 10
1705.6318965407299
 20
2361.7890401163495
 41
10
 42
10
 50
180
  0
INSERT
  2
-007-_Open30
  8
_0-2_08_DIM
 10
3805.6318965296782
 20
2361.7890401163495
 41
10
 42
10
 50
0
  0
LINE
  8
_0-2_08_DIM
  6
CONTINUOUS
 62
    3
 10
3805.6318965296782
 20
2257.2815486712561
 11
3805.6318965296782
 21
2366.78904011635
  0
LINE
  8
_0-2_08_DIM
  6
CONTINUOUS
 62
    3
 10
3830.6318965287169
 20
2256.992457501859
 11
3830.6318965287169
 21
2366.78904011635
  0
LINE
  8
_0-2_08_DIM
  6
CONTINUOUS
 62
    3
 10
3795.6318965296773
 20
2361.7890401163495
 11
3785.6318965296782
 21
2361.7890401163495
  0
LINE
  8
_0-2_08_DIM
  6
CONTINUOUS
 62
    3
 10
3840.6318965287173
 20
2361.7890401163495
 11
3891.6318965287173
 21
2361.7890401163495
  0
LINE
  8
_0-2_08_DIM
  6
CONTINUOUS
 62
    3
 10
3805.6318965296782
 20
2361.7890401163495
 11
3830.6318965287169
 21
2361.7890401163495
  0
INSERT
  2
-007-_Open30
  8
_0-2_08_DIM
 10
3805.6318965296782
 20
2361.7890401163495
 41
10
 42
10
 50
0
  0
INSERT
  2
-007-_Open30
  8
_0-2_08_DIM
 10
3830.6318965287169
 20
2361.7890401163495
 41
10
 42
10
 50
180
  0
LINE
  8
_0-2_08_DIM
  6
CONTINUOUS
 62
    3
 10
3830.6318965287169
 20
2256.992457501859
 11
3830.6318965287169
 21
2406.7902546681016
  0
LINE
  8
_0-2_08_DIM
  6
CONTINUOUS
 62
    3
 10
1680.6318965416865
 20
2256.992457501859
 11
1680.6318965416865
 21
2406.7902546681016
  0
LINE
  8
_0-2_08_DIM
  6
CONTINUOUS
 62
    3
 10
3820.6318965287173
 20
2401.7902546681016
 11
1690.6318965416865
 21
2401.7902546681016
  0
INSERT
  2
-007-_Open30
  8
_0-2_08_DIM
 10
3830.6318965287169
 20
2401.7902546681016
 41
10
 42
10
 50
0
  0
INSERT
  2
-007-_Open30
  8
_0-2_08_DIM
 10
1680.6318965416865
 20
2401.7902546681016
 41
10
 42
10
 50
180
  0
LINE
  8
_0-2_08_DIM
  6
CONTINUOUS
 62
    3
 10
1736.7029643535514
 20
2262.5635253137293
 11
1775.287652532716
 21
2301.1482134928942
  0
INSERT
  2
-007-_Open30
  8
_0-2_08_DIM
 10
1729.6318965416858
 20
2255.4924575018636
 41
10.000000000000002
 42
10.000000000000002
 50
224.99999999999997
  0
LINE
  8
_0-2_08_DIM
  6
CONTINUOUS
 62
    3
 10
1676.0608287288753
 20
1559.8679215636423
 11
1620.6401250236702
 21
1504.4472178584376
  0
INSERT
  2
-007-_Open30
  8
_0-2_08_DIM
 10
1683.1318965407406
 20
1566.9389893755076
 41
10
 42
10
 50
44.999999999999901
  0
TEXT
  8
_0-7_07_TEXT
 62
    3
 10
3956.017703249242
 20
1167.0666244137549
 40
12.000000000000002
 41
1
 50
0
  1
ÆŹŗL
  0
TEXT
  8
_0-7_07_TEXT
 62
    3
 10
3956.9777032492425
 20
1144.7506244137548
 40
12.000000000000002
 41
1
 50
0
  1
ü@ÄwÄ”é╚é½ŖpĢöé═
  0
TEXT
  8
_0-7_07_TEXT
 62
    3
 10
4086.2777032492418
 20
1144.7506244137548
 40
12.000000000000002
 41
1
 50
0
  1
C0.5
  0
TEXT
  8
_0-7_07_TEXT
 62
    3
 10
4126.8491318206707
 20
1144.7506244137548
 40
12.000000000000002
 41
1
 50
0
  1
é╠é▒éŲ
  0
TEXT
  8
_0-7_07_TEXT
 62
    3
 10
3956.9777032492425
 20
1121.9546244137548
 40
12.000000000000002
 41
1
 50
0
  1
ü@āKāXÉžÆf¢╩é═āOāēāCāōā_ÄdÅŃé░é╠é▒éŲ
  0
TEXT
  8
_0-7_07_TEXT
 62
    3
 10
3956.9777032492425
 20
1099.7826244137548
 40
12.000000000000002
 41
1
 50
0
  1
ü@ÄwÄ”é╚é½ŚnÉ┌Ģöé═ü@ü@ü@ü@é╠é▒éŲ
  0
TEXT
  8
_0-7_07_TEXT
 62
    3
 10
3956.9777032492425
 20
1077.6106244137547
 40
12.000000000000002
 41
1
 50
0
  1
ü@ÄwÄ”é╚é½ĢöŹ▐é═
  0
TEXT
  8
_0-7_07_TEXT
 62
    3
 10
4086.2777032492418
 20
1077.6106244137547
 40
12.000000000000002
 41
1
 50
0
  1
L-6x50x50
  0
TEXT
  8
_0-7_07_TEXT
 62
    3
 10
4187.4205603920991
 20
1077.6106244137547
 40
12.000000000000002
 41
1
 50
0
  1
é­ÄgŚp
  0
TEXT
  8
_0-2_08_DIM
 62
    3
 10
1591.5556784780506
 20
1724.0104179476934
 40
12.000000000000002
 41
1
 50
90
  1
354
  0
TEXT
  8
_0-2_08_DIM
 62
    3
 10
1632.1979967618186
 20
1631.4389968815931
 40
12.000000000000002
 41
1
 50
90
  1
170
  0
TEXT
  8
_0-2_08_DIM
 62
    3
 10
1591.5556784780506
 20
1944.9389893770215
 40
12.000000000000002
 41
1
 50
90
  1
6
  0
TEXT
  8
_0-2_08_DIM
 62
    3
 10
1694.2033251121659
 20
1984.0762977191746
 40
12.000000000000002
 41
1
 50
0
  1
50
  0
TEXT
  8
_0-2_08_DIM
 62
    3
 10
2724.7747536827937
 20
1986.0762977191744
 40
12.000000000000002
 41
1
 50
0
  1
(2050)
  0
TEXT
  8
_0-2_08_DIM
 62
    3
 10
3794.2033251105649
 20
1984.0762977191746
 40
12.000000000000002
 41
1
 50
0
  1
50
  0
TEXT
  8
_0-2_08_DIM
 62
    3
 10
2732.7747536827919
 20
1801.2444103607422
 40
12.000000000000002
 41
1
 50
0
  1
2100
  0
TEXT
  8
_0-2_08_DIM
 62
    3
 10
1636.7033251121659
 20
1801.2444103607422
 40
12.000000000000002
 41
1
 50
0
  1
25
  0
TEXT
  8
_0-2_08_DIM
 62
    3
 10
3851.7033251105649
 20
1801.2444103607422
 40
12.000000000000002
 41
1
 50
0
  1
25
  0
TEXT
  8
_0-2_08_DIM
 62
    3
 10
2314.2033251029288
 20
2113.1804400408091
 40
12.000000000000002
 41
1
 50
0
  1
72
  0
TEXT
  8
_0-2_08_DIM
 62
    3
 10
2738.4890393917758
 20
2113.1804400408091
 40
12.000000000000002
 41
1
 50
0
  1
788
  0
TEXT
  8
_0-2_08_DIM
 62
    3
 10
3174.2033251091934
 20
2113.1804400408091
 40
12.000000000000002
 41
1
 50
0
  1
72
  0
TEXT
  8
_0-2_08_DIM
 62
    3
 10
2228.8274434830578
 20
2132.5638860601816
 40
12.000000000000002
 41
1
 50
90
  1
25
  0
TEXT
  8
_0-2_08_DIM
 62
    3
 10
1967.9890393937346
 20
2113.1804400408091
 40
12.000000000000002
 41
1
 50
0
  1
609
  0
TEXT
  8
_0-2_08_DIM
 62
    3
 10
3500.9890393903856
 20
2115.1804400408091
 40
12.000000000000002
 41
1
 50
0
  1
(609)
  0
TEXT
  8
_0-2_08_DIM
 62
    3
 10
1639.1515610188994
 20
2202.778171787575
 40
12.000000000000002
 41
1
 50
90
  1
60
  0
TEXT
  8
_0-2_08_DIM
 62
    3
 10
1639.1515610188994
 20
2274.7067432161443
 40
12.000000000000002
 41
1
 50
90
  1
12
  0
TEXT
  8
_0-2_08_DIM
 62
    3
 10
1604.4345300191176
 20
2202.7781717881026
 40
12.000000000000002
 41
1
 50
90
  1
84
  0
TEXT
  8
_0-2_08_DIM
 62
    3
 10
4030.0502168397788
 20
1881.1739149900707
 40
12.000000000000002
 41
1
 50
0
  1
30
  0
TEXT
  8
_0-2_08_DIM
 62
    3
 10
4002.7645025566044
 20
1979.6705130791827
 40
12.000000000000002
 41
1
 50
0
  1
84
  0
TEXT
  8
_0-2_08_DIM
 62
    3
 10
1558.243892836281
 20
2332.1964426930508
 40
12.000000000000002
 41
1
 50
0
  1
4-12
  0
TEXT
  8
_0-2_08_DIM
 62
    3
 10
1607.3867499791379
 20
2332.1964426930508
 40
12.000000000000002
 41
1
 50
0
  1
āLāŖ
  0
TEXT
  8
_0-2_08_DIM
 62
    3
 10
2399.9160802556576
 20
2134.783547080111
 40
12.000000000000002
 41
1
 50
0
  1
4-10
  0
TEXT
  8
_0-2_08_DIM
 62
    3
 10
2449.0589373985144
 20
2134.783547080111
 40
12.000000000000002
 41
1
 50
0
  1
āLāŖ
  0
TEXT
  8
_0-2_08_DIM
 62
    3
 10
1758.1085675000822
 20
1686.172415586479
 40
12.000000000000002
 41
1
 50
0
  1
2-12
  0
TEXT
  8
_0-2_08_DIM
 62
    3
 10
1807.2514246429396
 20
1686.172415586479
 40
12.000000000000002
 41
1
 50
0
  1
āLāŖ
  0
TEXT
  8
_0-2_08_DIM
 62
    3
 10
1390.4751665597184
 20
1881.1739150010899
 40
12.000000000000002
 41
1
 50
0
  1
30
  0
TEXT
  8
_0-2_08_DIM
 62
    3
 10
1417.1894522714649
 20
1979.6705130902017
 40
12.000000000000002
 41
1
 50
0
  1
84
  0
TEXT
  8
_0-2_08_DIM
 62
    3
 10
1636.7033251131154
 20
2364.2890401163495
 40
12.000000000000002
 41
1
 50
0
  1
25
  0
TEXT
  8
_0-2_08_DIM
 62
    3
 10
2732.7747536780607
 20
2364.2890401163495
 40
12.000000000000002
 41
1
 50
0
  1
2100
  0
TEXT
  8
_0-2_08_DIM
 62
    3
 10
3851.7033251001453
 20
2366.2890401163495
 40
12.000000000000002
 41
1
 50
0
  1
(25)
  0
TEXT
  8
_0-2_08_DIM
 62
    3
 10
2732.7747536780589
 20
2404.2902546681021
 40
12.000000000000002
 41
1
 50
0
  1
2150
  0
TEXT
  8
_0-2_08_DIM
 62
    3
 10
1738.6191151654709
 20
2268.0152100315813
 40
12.000000000000002
 41
1
 50
45.000000000000078
  1
4-C2
  0
TEXT
  8
_0-2_08_DIM
 62
    3
 10
1618.6198199345658
 20
1505.9624466752657
 40
12.000000000000002
 41
1
 50
45
  1
2-C5
  0
TEXT
  8
_0-0_90_FRAME
 62
    3
 10
1525.1916839425853
 20
394.11226497831058
 40
12.000000000000002
 41
1
 50
0
  1
Äøōc
  0
TEXT
  8
_0-0_90_FRAME
 62
    3
 10
1218.6785939531057
 20
394.11226497831058
 40
12.000000000000002
 41
0.65
 50
0
  1
2013.09.01
  0
TEXT
  8
_0-0_90_FRAME
 62
    3
 10
1298.6453433391493
 20
394.11226497831058
 40
12.000000000000002
 41
1
 50
0
  1
āGāAü[ö▓é½ÆŪē┴
  0
TEXT
  8
_0-8_
 62
    7
 10
2327.8857579438072
 20
373.00449256172158
 40
37.99399034986007
 41
1
 50
0
  1
A3ü@150%
  0
ENDSEC
  0
EOF
