  0
SECTION
  2
HEADER
  9
$ACADVER
  1
AC1009
  9
$INSBASE
 10
0
 20
0
 30
0
  9
$EXTMIN
 10
0
 20
0
  9
$EXTMAX
 10
1356.0151082834043
 20
958.89639800040732
  9
$LIMMIN
 10
0
 20
0
  9
$LIMMAX
 10
1356.0151082834043
 20
958.89639800040732
  9
$LTSCALE
 40
3.2286074006747723
  0
ENDSEC
  0
SECTION
  2
TABLES
  0
TABLE
  2
LTYPE
 70
     9
  0
LTYPE
  2
CONTINUOUS
 70
    64
  3
実線
 72
    65
 73
     0
 40
0.0
  0
LTYPE
  2
DASHED1
 70
    64
  3
--  --  --  --  --  --  --  --  
 72
    65
 73
     2
 40
2.5
 49
1.25
 49
-1.25
  0
LTYPE
  2
DASHED2
 70
    64
  3
----    ----    ----    ----    
 72
    65
 73
     2
 40
5.0
 49
2.5
 49
-2.5
  0
LTYPE
  2
DASHED3
 70
    64
  3
------  ------  ------  ------  
 72
    65
 73
     2
 40
5.0
 49
3.75
 49
-1.25
  0
LTYPE
  2
CENTER1
 70
    64
  3
----- - ----- - ----- - ----- - 
 72
    65
 73
     4
 40
10.0
 49
6.25
 49
-1.25
 49
1.25
 49
-1.25
  0
LTYPE
  2
CENTER2
 70
    64
  3
----------  --  ----------  --  
 72
    65
 73
     4
 40
20.0
 49
12.5
 49
-2.5
 49
2.5
 49
-2.5
  0
LTYPE
  2
PHANTOM1
 70
    64
  3
--- - - --- - - --- - - --- - - 
 72
    65
 73
     6
 40
10.0
 49
3.25
 49
-1.25
 49
1.25
 49
-1.25
 49
1.25
 49
-1.25
  0
LTYPE
  2
PHANTOM2
 70
    64
  3
--------  -  -  --------  -  -  
 72
    65
 73
     6
 40
20.0
 49
10.0
 49
-2.5
 49
1.25
 49
-2.5
 49
1.25
 49
-2.5
  0
LTYPE
  2
DOT
 70
    64
  3
-   -   -   -   -   -   -   -   
 72
    65
 73
     2
 40
2.5
 49
0.625
 49
-1.875
  0
LTYPE
  2
DUMMY
 70
    64
  3
ダミー
 72
    65
 73
     0
 40
0.0
  0
LTYPE
  2
RAND1
 70
    64
  3
ランダム線1
 72
    65
 73
     4
 40
10.0
 49
1.0
 49
-2.0
 49
3.0
 49
-4.0
  0
LTYPE
  2
RAND2
 70
    64
  3
ランダム線2
 72
    65
 73
     4
 40
14.0
 49
2.0
 49
-3.0
 49
4.0
 49
-5.0
  0
LTYPE
  2
RAND3
 70
    64
  3
ランダム線3
 72
    65
 73
     4
 40
18.0
 49
3.0
 49
-4.0
 49
5.0
 49
-6.0
  0
LTYPE
  2
RAND4
 70
    64
  3
ランダム線4
 72
    65
 73
     4
 40
22.0
 49
4.0
 49
-5.0
 49
6.0
 49
-7.0
  0
LTYPE
  2
RAND5
 70
    64
  3
ランダム線5
 72
    65
 73
     4
 40
26.0
 49
5.0
 49
-6.0
 49
7.0
 49
-8.0
  0
LTYPE
  2
LONG1
 70
    64
  3
----------  --  ----------  --  
 72
    65
 73
     4
 40
40.0
 49
32.5
 49
-2.5
 49
2.5
 49
-2.5
  0
LTYPE
  2
LONG2
 70
    64
  3
--------  -  -  --------  -  -  
 72
    65
 73
     6
 40
40.0
 49
30.0
 49
-2.5
 49
1.25
 49
-2.5
 49
1.25
 49
-2.5
  0
LTYPE
  2
LONG3
 70
    64
  3
+++++++++++++++..+++++++++++++++
 72
    65
 73
     2
 40
40.0
 49
37.5
 49
-2.5
  0
LTYPE
  2
LONG4
 70
    64
  3
+++++++++++++++..+++++++++++++++
 72
    65
 73
     2
 40
80.0
 49
75.0
 49
-5.0
  0
LTYPE
  2
LONG5
 70
    64
  3
----------  --  ----------  --  
 72
    65
 73
     4
 40
60.0
 49
37.5
 49
-7.5
 49
7.5
 49
-7.5
  0
LTYPE
  2
dashed
 70
   64
  3
-------   -------------   ------
 72
   65
 73
    2
 40
7.5
 49
6
 49
-1.5
  0
LTYPE
  2
dashed_spaced
 70
   64
  3
----        --------        ----
 72
   65
 73
    2
 40
12
 49
6
 49
-6
  0
LTYPE
  2
long_dashed_dotted
 70
   64
  3
------------- --- --------------
 72
   65
 73
    4
 40
15.25
 49
12
 49
-1.5
 49
0.25
 49
-1.5
  0
LTYPE
  2
long_dashed_double-dotted
 70
   64
  3
----------- --- --- ------------
 72
   65
 73
    6
 40
17
 49
12
 49
-1.5
 49
0.25
 49
-1.5
 49
0.25
 49
-1.5
  0
LTYPE
  2
long_dashed_triplicate-dotted
 70
   64
  3
--------- --- --- --- ----------
 72
   65
 73
    8
 40
18.75
 49
12
 49
-1.5
 49
0.25
 49
-1.5
 49
0.25
 49
-1.5
 49
0.25
 49
-1.5
  0
LTYPE
  2
dotted
 70
   64
  3
   -       -       -       -    
 72
   65
 73
    2
 40
1.75
 49
0.25
 49
-1.5
  0
LTYPE
  2
chain
 70
   64
  3
-------------- -- --------------
 72
   65
 73
    4
 40
18.5
 49
12
 49
-1.5
 49
3.5
 49
-1.5
  0
LTYPE
  2
chain_double_dash
 70
   64
  3
------------ -- -- -------------
 72
   65
 73
    6
 40
23.5
 49
12
 49
-1.5
 49
3.5
 49
-1.5
 49
3.5
 49
-1.5
  0
LTYPE
  2
dashed_dotted
 70
   64
  3
-----------     -     ----------
 72
   65
 73
    4
 40
9.25
 49
6
 49
-1.5
 49
0.25
 49
-1.5
  0
LTYPE
  2
double-dashed_dotted
 70
   64
  3
------   -----------   -   -----
 72
   65
 73
    6
 40
16.75
 49
6
 49
-1.5
 49
6
 49
-1.5
 49
0.25
 49
-1.5
  0
LTYPE
  2
dashed_double-dotted
 70
   64
  3
---------    -    -    ---------
 72
   65
 73
    6
 40
11
 49
6
 49
-1.5
 49
0.25
 49
-1.5
 49
0.25
 49
-1.5
  0
LTYPE
  2
double-dashed_double-dotted
 70
   64
  3
-----   ---------   -   -   ----
 72
   65
 73
    8
 40
18.5
 49
6
 49
-1.5
 49
6
 49
-1.5
 49
0.25
 49
-1.5
 49
0.25
 49
-1.5
  0
LTYPE
  2
dashed_triplicate-dotted
 70
   64
  3
-------    -    -    -    ------
 72
   65
 73
    8
 40
12.75
 49
6
 49
-1.5
 49
0.25
 49
-1.5
 49
0.25
 49
-1.5
 49
0.25
 49
-1.5
  0
LTYPE
  2
double-dashed_triplicate-dotted
 70
   64
  3
-----  ---------  -  -  -  -----
 72
   65
 73
   10
 40
20.25
 49
6
 49
-1.5
 49
6
 49
-1.5
 49
0.25
 49
-1.5
 49
0.25
 49
-1.5
 49
0.25
 49
-1.5
  0
LTYPE
  2
undefined
 70
   64
  3
--------------------------------
 72
   65
 73
    0
 40
0
  0
LTYPE
  2
_
 70
   64
  3
                                
 72
   65
 73
    0
 40
0
  0
LTYPE
  2
__18
 70
   64
  3
                                
 72
   65
 73
    0
 40
0
  0
LTYPE
  2
__19
 70
   64
  3
                                
 72
   65
 73
    0
 40
0
  0
LTYPE
  2
__20
 70
   64
  3
                                
 72
   65
 73
    0
 40
0
  0
LTYPE
  2
__21
 70
   64
  3
                                
 72
   65
 73
    0
 40
0
  0
LTYPE
  2
__22
 70
   64
  3
                                
 72
   65
 73
    0
 40
0
  0
LTYPE
  2
__23
 70
   64
  3
                                
 72
   65
 73
    0
 40
0
  0
LTYPE
  2
__24
 70
   64
  3
                                
 72
   65
 73
    0
 40
0
  0
LTYPE
  2
__25
 70
   64
  3
                                
 72
   65
 73
    0
 40
0
  0
LTYPE
  2
__26
 70
   64
  3
                                
 72
   65
 73
    0
 40
0
  0
LTYPE
  2
__27
 70
   64
  3
                                
 72
   65
 73
    0
 40
0
  0
LTYPE
  2
__28
 70
   64
  3
                                
 72
   65
 73
    0
 40
0
  0
LTYPE
  2
__29
 70
   64
  3
                                
 72
   65
 73
    0
 40
0
  0
LTYPE
  2
__30
 70
   64
  3
                                
 72
   65
 73
    0
 40
0
  0
LTYPE
  2
__31
 70
   64
  3
                                
 72
   65
 73
    0
 40
0
  0
LTYPE
  2
__32
 70
   64
  3
                                
 72
   65
 73
    0
 40
0
  0
ENDTAB
  0
TABLE
  2
STYLE
  5
3
100
AcDbSymbolTable
 70
     1
  0
STYLE
  5
10
100
AcDbSymbolTableRecord
100
AcDbTextStyleTableRecord
  2
STANDARD
 70
     0
 40
0.0
 41
1.0
 50
0.0
 71
     0
 42
0.2
  3
txt
  4
bigfont.shx
  0
STYLE
  5
26
100
AcDbSymbolTableRecord
100
AcDbTextStyleTableRecord
  2
TATEGAKI
 70
    68
 40
0.0
 41
1.0
 50
0.0
 71
     0
 42
1.0
  3
txt
  4
bigfont.shx
  0
ENDTAB
  0
TABLE
  2
LAYER
 70
    9
  0
LAYER
  2
_0-0_90_FRAME
 70
   64
 62
    7
  6
CONTINUOUS
  0
LAYER
  2
_0-1_91_BLANK
 70
   64
 62
    7
  6
CONTINUOUS
  0
LAYER
  2
_0-2_08_DIM
 70
   64
 62
    7
  6
CONTINUOUS
  0
LAYER
  2
_0-3_05_CENTER
 70
   64
 62
    7
  6
CONTINUOUS
  0
LAYER
  2
_0-4_0
 70
   64
 62
    7
  6
CONTINUOUS
  0
LAYER
  2
_0-5_04_HIDDEN
 70
   64
 62
    7
  6
CONTINUOUS
  0
LAYER
  2
_0-6_07_TEXT
 70
   64
 62
    7
  6
CONTINUOUS
  0
LAYER
  2
_0-8_
 70
   64
 62
    7
  6
CONTINUOUS
  0
LAYER
  2
ADD_LINE
 70
   64
 62
    7
  6
CONTINUOUS
  0
ENDTAB
  0
ENDSEC
  0
SECTION
  2
BLOCKS
  0
BLOCK
  2
-000-p1ba05
 70
   64
 10
0
 20
0
 30
0
  0
ARC
  8
_0-2_08_DIM
  6
CONTINUOUS
 62
    3
 10
0
 20
1.6206695983957431
 40
1.6206695983958537
 50
204.22763733453323
 51
335.57577857182139
  0
ARC
  8
_0-2_08_DIM
  6
CONTINUOUS
 62
    3
 10
-2.9535588745990822
 20
0.2854771617432376
 40
1.6206695983958537
 50
24.227637334533135
 51
155.57577857182133
  0
ENDBLK
  0
BLOCK
  2
-001-M16Tz_1_1
 70
   64
 10
0
 20
0
 30
0
  0
LINE
  8
_0-3_05_CENTER
  6
CENTER2
 62
    4
 10
-0.0000000000022737
 20
-14.812988629120126
 11
-0.0000000000022737
 21
14.812988629120126
  0
CIRCLE
  8
_0-4_0
  6
CONTINUOUS
 62
   18
 10
-0.0000000000022737
 20
0
 40
6.25
  0
CIRCLE
  8
_0-4_0
  6
CONTINUOUS
 62
   18
 10
-0.0000000000022737
 20
0
 40
8
  0
LINE
  8
_0-3_05_CENTER
  6
CENTER2
 62
    4
 10
14.812988629117852
 20
0
 11
-14.812988629122401
 21
0
  0
ENDBLK
  0
BLOCK
  2
-002-M10Tz_1_1
 70
   64
 10
0
 20
0
 30
0
  0
CIRCLE
  8
_0-4_0
  6
CONTINUOUS
 62
   18
 10
0
 20
0.0000000000036379
 40
5
  0
LINE
  8
_0-3_05_CENTER
  6
CENTER2
 62
    4
 10
0
 20
-8.3410508113993274
 11
0
 21
8.3410508113993274
  0
CIRCLE
  8
_0-4_0
  6
CONTINUOUS
 62
   18
 10
0
 20
0.0000000000036379
 40
4
  0
LINE
  8
_0-3_05_CENTER
  6
CENTER2
 62
    4
 10
8.3410508113993274
 20
0.0000000000036379
 11
-8.3410508113956876
 21
0.0000000000036379
  0
ENDBLK
  0
BLOCK
  2
-003-p1ba01
 70
   64
 10
0
 20
0
 30
0
  0
LINE
  8
_0-2_08_DIM
  6
CONTINUOUS
 62
    3
 10
0
 20
0
 11
-1.4999999999999998
 21
2.5980762113532592
  0
LINE
  8
_0-2_08_DIM
  6
CONTINUOUS
 62
    3
 10
1.4999999999999998
 20
2.5980762113532592
 11
0
 21
0
  0
LINE
  8
_0-2_08_DIM
  6
CONTINUOUS
 62
    3
 10
-1.4999999999999998
 20
2.5980762113532592
 11
1.4999999999999998
 21
2.5980762113532592
  0
ENDBLK
  0
BLOCK
  2
-004-p1ba02
 70
   64
 10
0
 20
0
 30
0
  0
LINE
  8
_0-2_08_DIM
  6
CONTINUOUS
 62
    3
 10
3.0000000000000142
 20
0
 11
1.5000000000000142
 21
2.5980762113532592
  0
LINE
  8
_0-2_08_DIM
  6
CONTINUOUS
 62
    3
 10
4.5000000000000142
 20
2.5980762113532592
 11
3.0000000000000142
 21
0
  0
LINE
  8
_0-2_08_DIM
  6
CONTINUOUS
 62
    3
 10
1.5000000000000142
 20
2.5980762113532592
 11
4.5000000000000142
 21
2.5980762113532592
  0
LINE
  8
_0-2_08_DIM
  6
CONTINUOUS
 62
    3
 10
-1.4999999999999858
 20
2.5980762113532592
 11
1.5000000000000142
 21
2.5980762113532592
  0
LINE
  8
_0-2_08_DIM
  6
CONTINUOUS
 62
    3
 10
1.5000000000000142
 20
2.5980762113532592
 11
0.0000000000000142
 21
0
  0
LINE
  8
_0-2_08_DIM
  6
CONTINUOUS
 62
    3
 10
0.0000000000000142
 20
0
 11
-1.4999999999999858
 21
2.5980762113532592
  0
ENDBLK
  0
BLOCK
  2
-005-AM_BALLOON1
 70
   64
 10
0
 20
0
 30
0
  0
CIRCLE
  8
_0-2_08_DIM
  6
CONTINUOUS
 62
    3
 10
0
 20
0
 40
5
  0
ENDBLK
  0
BLOCK
  2
-006-_Open30
 70
   64
 10
0
 20
0
 30
0
  0
LINE
  8
_0-2_08_DIM
  6
CONTINUOUS
 62
    3
 10
-1
 20
0.26794919
 11
0
 21
0
  0
LINE
  8
_0-2_08_DIM
  6
CONTINUOUS
 62
    3
 10
0
 20
0
 11
-1
 21
-0.26794919
  0
LINE
  8
_0-2_08_DIM
  6
CONTINUOUS
 62
    3
 10
0
 20
0
 11
-1
 21
0
  0
ENDBLK
  0
ENDSEC
  0
SECTION
  2
ENTITIES
  0
TEXT
  8
_0-0_90_FRAME
 62
    7
 10
960.96308497581651
 20
232.8626064042484
 40
10
 41
1
 50
0
  1
AT-221121-04-30
  0
TEXT
  8
_0-0_90_FRAME
 62
    7
 10
892.48531085467914
 20
209.84509501296273
 40
10
 41
1
 50
0
  1
2024.09.05
  0
LINE
  8
_0-0_90_FRAME
  6
CONTINUOUS
 62
    5
 10
299.67593987902677
 20
204.41337120240874
 11
1082.4353912824008
 21
204.41337120240874
  0
LINE
  8
_0-0_90_FRAME
  6
CONTINUOUS
 62
    5
 10
1082.4353912824008
 20
204.41337120240874
 11
1082.4353912824008
 21
764.01870698697348
  0
LINE
  8
_0-0_90_FRAME
  6
CONTINUOUS
 62
    5
 10
1082.4353912824008
 20
764.01870698697348
 11
299.67593987902677
 21
764.01870698697348
  0
LINE
  8
_0-0_90_FRAME
  6
CONTINUOUS
 62
    5
 10
299.67593987902677
 20
764.01870698697348
 11
299.67593987902677
 21
204.41337120240874
  0
LINE
  8
_0-0_90_FRAME
  6
CONTINUOUS
 62
    5
 10
260.51150061861586
 20
484.2160390946911
 11
299.67593987902677
 21
484.2160390946911
  0
LINE
  8
_0-0_90_FRAME
  6
CONTINUOUS
 62
    5
 10
1095.5036076680619
 20
484.2160390946911
 11
1082.4353912824008
 21
484.2160390946911
  0
LINE
  8
_0-0_90_FRAME
  6
CONTINUOUS
 62
    5
 10
691.05566558071371
 20
779.103323375331
 11
691.05566558071382
 21
764.01870698697348
  0
LINE
  8
_0-0_90_FRAME
  6
CONTINUOUS
 62
    5
 10
691.05566558071382
 20
191.40358101263379
 11
691.05566558071382
 21
204.41337120240874
  0
LINE
  8
_0-0_90_FRAME
  6
CONTINUOUS
 62
    5
 10
590.53092415254764
 20
198.38188671671759
 11
791.58040700888023
 21
198.38188671671759
  0
LINE
  8
_0-0_90_FRAME
  6
CONTINUOUS
 62
    5
 10
590.53092415254764
 20
198.38188671671759
 11
590.53092415254764
 21
204.41337120240874
  0
LINE
  8
_0-0_90_FRAME
  6
CONTINUOUS
 62
    5
 10
610.63587243818142
 20
198.38188671671759
 11
610.63587243818142
 21
204.41337120240874
  0
LINE
  8
_0-0_90_FRAME
  6
CONTINUOUS
 62
    5
 10
630.7408207238152
 20
198.38188671671759
 11
630.7408207238152
 21
204.41337120240874
  0
LINE
  8
_0-0_90_FRAME
  6
CONTINUOUS
 62
    5
 10
650.84576900944626
 20
198.38188671671759
 11
650.84576900944626
 21
204.41337120240874
  0
LINE
  8
_0-0_90_FRAME
  6
CONTINUOUS
 62
    5
 10
670.95071729508004
 20
198.38188671671759
 11
670.95071729508004
 21
204.41337120240874
  0
LINE
  8
_0-0_90_FRAME
  6
CONTINUOUS
 62
    5
 10
711.16061386634499
 20
198.38188671671759
 11
711.16061386634499
 21
204.41337120240874
  0
LINE
  8
_0-0_90_FRAME
  6
CONTINUOUS
 62
    5
 10
731.26556215197877
 20
198.38188671671759
 11
731.26556215197877
 21
204.41337120240874
  0
LINE
  8
_0-0_90_FRAME
  6
CONTINUOUS
 62
    5
 10
751.37051043761255
 20
198.38188671671759
 11
751.37051043761255
 21
204.41337120240874
  0
LINE
  8
_0-0_90_FRAME
  6
CONTINUOUS
 62
    5
 10
771.47545872324622
 20
198.38188671671759
 11
771.47545872324622
 21
204.41337120240874
  0
LINE
  8
_0-0_90_FRAME
  6
CONTINUOUS
 62
    5
 10
791.58040700888023
 20
198.38188671671759
 11
791.58040700888023
 21
204.41337120240874
  0
LINE
  8
_0-0_90_FRAME
  6
CONTINUOUS
 62
    4
 10
488.60888881853083
 20
764.01870698697348
 11
488.60888881853083
 21
777.0869233726321
  0
TEXT
  8
_0-0_90_FRAME
 62
    7
 10
336.8423640334214
 20
766.62157358652792
 40
4.0327999999999999
 41
1
 50
0
  1
1
  0
TEXT
  8
_0-0_90_FRAME
 62
    7
 10
386.04123377077383
 20
766.62157358652792
 40
4.0327999999999999
 41
1
 50
0
  1
2
  0
TEXT
  8
_0-0_90_FRAME
 62
    7
 10
453.52349269150153
 20
766.62157358652792
 40
4.0327999999999999
 41
1
 50
0
  1
3
  0
TEXT
  8
_0-0_90_FRAME
 62
    7
 10
521.00575161222673
 20
766.62157358652792
 40
4.0327999999999999
 41
1
 50
0
  1
4
  0
TEXT
  8
_0-0_90_FRAME
 62
    7
 10
588.48801053295688
 20
766.62157358652792
 40
4.0327999999999999
 41
1
 50
0
  1
5
  0
TEXT
  8
_0-0_90_FRAME
 62
    7
 10
655.97026945368214
 20
766.62157358652792
 40
4.0327999999999999
 41
1
 50
0
  1
6
  0
TEXT
  8
_0-0_90_FRAME
 62
    7
 10
723.45252837440978
 20
766.62157358652792
 40
4.0327999999999999
 41
1
 50
0
  1
7
  0
TEXT
  8
_0-0_90_FRAME
 62
    7
 10
790.93478729513743
 20
766.62157358652792
 40
4.0327999999999999
 41
1
 50
0
  1
8
  0
TEXT
  8
_0-0_90_FRAME
 62
    7
 10
858.41704621586518
 20
766.62157358652792
 40
4.0327999999999999
 41
1
 50
0
  1
9
  0
TEXT
  8
_0-0_90_FRAME
 62
    7
 10
924.89110513659284
 20
766.62157358652792
 40
4.0327999999999999
 41
1
 50
0
  1
10
  0
TEXT
  8
_0-0_90_FRAME
 62
    7
 10
992.70943072398472
 20
766.62157358652792
 40
4.0327999999999999
 41
1
 50
0
  1
11
  0
TEXT
  8
_0-0_90_FRAME
 62
    7
 10
1059.5195563113791
 20
766.62157358652792
 40
4.0327999999999999
 41
1
 50
0
  1
12
  0
TEXT
  8
_0-0_90_FRAME
 62
    7
 10
1085.0332835490135
 20
661.14812926840511
 40
4.0327999999999999
 41
1
 50
0
  1
B
  0
LINE
  8
_0-0_90_FRAME
  6
CONTINUOUS
 62
    4
 10
1095.5036076680619
 20
341.05724695572002
 11
1082.4353912824008
 21
341.05724695572002
  0
LINE
  8
_0-0_90_FRAME
  6
CONTINUOUS
 62
    4
 10
1095.5036076680619
 20
412.63664302520556
 11
1082.4353912824008
 21
412.63664302520556
  0
LINE
  8
_0-0_90_FRAME
  6
CONTINUOUS
 62
    4
 10
1095.5036076680619
 20
269.47785088623442
 11
1082.4353912824008
 21
269.47785088623442
  0
LINE
  8
_0-0_90_FRAME
  6
CONTINUOUS
 62
    4
 10
1095.5036076680619
 20
627.37483123366235
 11
1082.4353912824008
 21
627.37483123366235
  0
LINE
  8
_0-0_90_FRAME
  6
CONTINUOUS
 62
    4
 10
1095.5036076680619
 20
555.79543516417664
 11
1082.4353912824008
 21
555.79543516417664
  0
LINE
  8
_0-0_90_FRAME
  6
CONTINUOUS
 62
    4
 10
1095.5036076680619
 20
698.95422730314795
 11
1082.4353912824008
 21
698.95422730314795
  0
TEXT
  8
_0-0_90_FRAME
 62
    7
 10
1085.0332835490135
 20
732.72752533789071
 40
4.0327999999999999
 41
1
 50
0
  1
A
  0
TEXT
  8
_0-0_90_FRAME
 62
    7
 10
1085.0332835490135
 20
589.56873319891963
 40
4.0327999999999999
 41
1
 50
0
  1
C
  0
TEXT
  8
_0-0_90_FRAME
 62
    7
 10
1085.0332835490135
 20
517.98933712943403
 40
4.0327999999999999
 41
1
 50
0
  1
D
  0
TEXT
  8
_0-0_90_FRAME
 62
    7
 10
1085.0332835490135
 20
374.83054499046284
 40
4.0327999999999999
 41
1
 50
0
  1
F
  0
TEXT
  8
_0-0_90_FRAME
 62
    7
 10
1085.0332835490135
 20
303.25114892097724
 40
4.0327999999999999
 41
1
 50
0
  1
G
  0
TEXT
  8
_0-0_90_FRAME
 62
    7
 10
1085.0332835490135
 20
231.67175285149168
 40
4.0327999999999999
 41
1
 50
0
  1
H
  0
TEXT
  8
_0-0_90_FRAME
 62
    7
 10
1085.0332835490135
 20
446.40994105994832
 40
4.0327999999999999
 41
1
 50
0
  1
E
  0
TEXT
  8
_0-0_90_FRAME
 62
    7
 10
293.73909194556558
 20
661.14812926840511
 40
4.0327999999999999
 41
1
 50
0
  1
B
  0
LINE
  8
_0-0_90_FRAME
  6
CONTINUOUS
 62
    4
 10
299.67593987902677
 20
341.05724695572002
 11
286.60772349336821
 21
341.05724695572002
  0
LINE
  8
_0-0_90_FRAME
  6
CONTINUOUS
 62
    4
 10
299.67593987902677
 20
412.63664302520556
 11
286.60772349336821
 21
412.63664302520556
  0
LINE
  8
_0-0_90_FRAME
  6
CONTINUOUS
 62
    4
 10
299.67593987902677
 20
269.47785088623442
 11
286.60772349336821
 21
269.47785088623442
  0
LINE
  8
_0-0_90_FRAME
  6
CONTINUOUS
 62
    4
 10
299.67593987902677
 20
627.37483123366235
 11
286.60772349336821
 21
627.37483123366235
  0
LINE
  8
_0-0_90_FRAME
  6
CONTINUOUS
 62
    4
 10
299.67593987902677
 20
555.79543516417664
 11
286.60772349336821
 21
555.79543516417664
  0
LINE
  8
_0-0_90_FRAME
  6
CONTINUOUS
 62
    4
 10
299.67593987902677
 20
698.95422730314795
 11
286.60772349336821
 21
698.95422730314795
  0
TEXT
  8
_0-0_90_FRAME
 62
    7
 10
293.73909194556558
 20
732.72752533789071
 40
4.0327999999999999
 41
1
 50
0
  1
A
  0
TEXT
  8
_0-0_90_FRAME
 62
    7
 10
293.73909194556558
 20
589.56873319891963
 40
4.0327999999999999
 41
1
 50
0
  1
C
  0
TEXT
  8
_0-0_90_FRAME
 62
    7
 10
293.73909194556558
 20
517.98933712943403
 40
4.0327999999999999
 41
1
 50
0
  1
D
  0
TEXT
  8
_0-0_90_FRAME
 62
    7
 10
293.73909194556558
 20
374.83054499046284
 40
4.0327999999999999
 41
1
 50
0
  1
F
  0
TEXT
  8
_0-0_90_FRAME
 62
    7
 10
293.73909194556558
 20
303.25114892097724
 40
4.0327999999999999
 41
1
 50
0
  1
G
  0
TEXT
  8
_0-0_90_FRAME
 62
    7
 10
293.73909194556558
 20
446.40994105994832
 40
4.0327999999999999
 41
1
 50
0
  1
E
  0
TEXT
  8
_0-0_90_FRAME
 62
    7
 10
293.73909194556558
 20
231.67175285149168
 40
4.0327999999999999
 41
1
 50
0
  1
H
  0
LINE
  8
_0-0_90_FRAME
  6
CONTINUOUS
 62
    4
 10
421.12662989780307
 20
764.01870698697348
 11
421.12662989780307
 21
777.0869233726321
  0
LINE
  8
_0-0_90_FRAME
  6
CONTINUOUS
 62
    4
 10
353.64437097707537
 20
764.01870698697348
 11
353.64437097707537
 21
777.0869233726321
  0
LINE
  8
_0-0_90_FRAME
  6
CONTINUOUS
 62
    4
 10
556.09114773925842
 20
764.01870698697348
 11
556.09114773925842
 21
777.0869233726321
  0
LINE
  8
_0-0_90_FRAME
  6
CONTINUOUS
 62
    4
 10
623.57340665998618
 20
764.01870698697348
 11
623.57340665998618
 21
777.0869233726321
  0
LINE
  8
_0-0_90_FRAME
  6
CONTINUOUS
 62
    4
 10
893.50244234289414
 20
764.01870698697348
 11
893.50244234289414
 21
777.0869233726321
  0
LINE
  8
_0-0_90_FRAME
  6
CONTINUOUS
 62
    4
 10
960.98470126362213
 20
764.01870698697348
 11
960.98470126362213
 21
777.0869233726321
  0
LINE
  8
_0-0_90_FRAME
  6
CONTINUOUS
 62
    4
 10
1028.4669601843498
 20
764.01870698697348
 11
1028.4669601843498
 21
777.0869233726321
  0
LINE
  8
_0-0_90_FRAME
  6
CONTINUOUS
 62
    4
 10
826.02018342216661
 20
764.01870698697348
 11
826.02018342216661
 21
777.0869233726321
  0
LINE
  8
_0-0_90_FRAME
  6
CONTINUOUS
 62
    4
 10
758.53792450144158
 20
764.01870698697348
 11
758.53792450144158
 21
777.0869233726321
  0
LINE
  8
_0-0_90_FRAME
  6
CONTINUOUS
 62
    4
 10
488.60888881853083
 20
191.40358101263379
 11
488.60888881853083
 21
204.41337120240874
  0
LINE
  8
_0-0_90_FRAME
  6
CONTINUOUS
 62
    4
 10
421.12662989780307
 20
191.40358101263379
 11
421.12662989780307
 21
204.41337120240874
  0
LINE
  8
_0-0_90_FRAME
  6
CONTINUOUS
 62
    4
 10
353.64437097707537
 20
191.40358101263379
 11
353.64437097707537
 21
204.41337120240874
  0
LINE
  8
_0-0_90_FRAME
  6
CONTINUOUS
 62
    4
 10
556.09114773925842
 20
191.40358101263379
 11
556.09114773925842
 21
204.41337120240874
  0
LINE
  8
_0-0_90_FRAME
  6
CONTINUOUS
 62
    4
 10
893.50244234289414
 20
191.40358101263379
 11
893.50244234289414
 21
204.41337120240874
  0
LINE
  8
_0-0_90_FRAME
  6
CONTINUOUS
 62
    4
 10
960.98470126362213
 20
191.40358101263379
 11
960.98470126362213
 21
204.41337120240874
  0
LINE
  8
_0-0_90_FRAME
  6
CONTINUOUS
 62
    4
 10
1028.4669601843498
 20
191.40358101263379
 11
1028.4669601843498
 21
204.41337120240874
  0
LINE
  8
_0-0_90_FRAME
  6
CONTINUOUS
 62
    4
 10
826.02018342216661
 20
191.40358101263379
 11
826.02018342216661
 21
204.41337120240874
  0
LINE
  8
_0-1_91_BLANK
  6
CONTINUOUS
 62
    5
 10
260.51150061534224
 20
191.40358101263379
 11
1095.5036076666747
 21
191.40358101263379
  0
LINE
  8
_0-1_91_BLANK
  6
CONTINUOUS
 62
    5
 10
1095.5036076666747
 20
191.40358101263379
 11
1095.5036076666747
 21
779.103323375331
  0
LINE
  8
_0-1_91_BLANK
  6
CONTINUOUS
 62
    5
 10
1095.5036076666747
 20
779.103323375331
 11
260.51150061534224
 21
779.103323375331
  0
LINE
  8
_0-1_91_BLANK
  6
CONTINUOUS
 62
    5
 10
260.51150061534224
 20
779.103323375331
 11
260.51150061534224
 21
191.40358101263379
  0
LINE
  8
_0-0_90_FRAME
  6
CONTINUOUS
 62
   18
 10
686.43539128399982
 20
204.41337120240874
 11
1082.4353912824008
 21
204.41337120240874
  0
LINE
  8
_0-0_90_FRAME
  6
CONTINUOUS
 62
   18
 10
1082.4353912824008
 20
204.41337120240874
 11
1082.4353912824008
 21
277.95622834496874
  0
LINE
  8
_0-0_90_FRAME
  6
CONTINUOUS
 62
   18
 10
1082.4353912824008
 20
277.95622834496874
 11
686.43539128399982
 21
277.95622834496874
  0
LINE
  8
_0-0_90_FRAME
  6
CONTINUOUS
 62
   18
 10
686.43539128399982
 20
277.95622834496874
 11
686.43539128399982
 21
204.41337120240874
  0
LINE
  8
_0-0_90_FRAME
  6
CONTINUOUS
 62
   18
 10
717.62039128387562
 20
265.22765691644793
 11
737.42039128379486
 21
270.17765691642865
  0
LINE
  8
_0-0_90_FRAME
  6
CONTINUOUS
 62
   18
 10
737.42039128379486
 20
270.17765691642865
 11
737.42039128379486
 21
250.37765691650941
  0
LINE
  8
_0-0_90_FRAME
  6
CONTINUOUS
 62
   18
 10
737.42039128379486
 20
250.37765691650941
 11
717.62039128387562
 21
255.32765691648834
  0
LINE
  8
_0-0_90_FRAME
  6
CONTINUOUS
 62
   18
 10
717.62039128387562
 20
255.32765691648834
 11
717.62039128387562
 21
265.22765691644793
  0
CIRCLE
  8
_0-0_90_FRAME
  6
CONTINUOUS
 62
   18
 10
704.75039128392575
 20
260.27765691646721
 40
4.9499999999800002
  0
CIRCLE
  8
_0-0_90_FRAME
  6
CONTINUOUS
 62
   18
 10
704.75039128392575
 20
260.27765691646721
 40
9.8999999999600004
  0
LINE
  8
_0-0_90_FRAME
  6
CONTINUOUS
 62
   18
 10
692.87039128397385
 20
260.27765691646721
 11
739.40039128378532
 21
260.27765691646721
  0
LINE
  8
_0-0_90_FRAME
  6
CONTINUOUS
 62
   18
 10
704.75039128392575
 20
248.39765691651712
 11
704.75039128392575
 21
272.15765691642093
  0
LINE
  8
_0-0_90_FRAME
  6
CONTINUOUS
 62
   18
 10
848.6496769976003
 20
204.41337120240874
 11
848.6496769976003
 21
277.95622834496874
  0
LINE
  8
_0-0_90_FRAME
  6
CONTINUOUS
 62
   18
 10
848.6496769976003
 20
227.04194263088823
 11
1082.4353912824008
 21
227.04194263088823
  0
TEXT
  8
_0-0_90_FRAME
 62
    7
 10
849.66376051246152
 20
220.0060221373443
 40
5
 41
1
 50
0
  1
作 成 日
  0
LINE
  8
_0-0_90_FRAME
  6
CONTINUOUS
 62
   18
 10
986.92110556847922
 20
227.04194263088823
 11
986.92110556847922
 21
204.41337120240874
  0
TEXT
  8
_0-0_90_FRAME
 62
    7
 10
988.10854906224642
 20
219.86774026771502
 40
5
 41
1
 50
0
  1
個数
  0
TEXT
  8
_0-0_90_FRAME
 62
    7
 10
801.88957148240672
 20
271.40069217259963
 40
5
 41
1
 50
0
  1
サイズ
  0
TEXT
  8
_0-0_90_FRAME
 62
    7
 10
746.73242862548807
 20
271.02778450778544
 40
5
 41
1
 50
0
  1
尺　度
  0
TEXT
  8
_0-0_90_FRAME
 62
    7
 10
801.88960195524498
 20
236.04354931560022
 40
5
 41
1
 50
0
  1
製　図
  0
LINE
  8
_0-0_90_FRAME
  6
CONTINUOUS
 62
   18
 10
848.6496769976003
 20
242.5990854879675
 11
686.43539128399982
 21
242.5990854879675
  0
LINE
  8
_0-0_90_FRAME
  6
CONTINUOUS
 62
   18
 10
924.17347814623656
 20
249.67051405936775
 11
1082.4353912824008
 21
249.67051405936775
  0
TEXT
  8
_0-0_90_FRAME
 62
    7
 10
818.32364364020509
 20
251.08556119494796
 40
10
 41
1
 50
0
  1
A3
  0
LINE
  8
_0-0_90_FRAME
  6
CONTINUOUS
 62
   18
 10
800.99253414067982
 20
204.41337120240874
 11
800.99253414067982
 21
277.95622834496874
  0
TEXT
  8
_0-0_90_FRAME
 62
    2
 10
721.4259177014543
 20
212.19568217972392
 40
10
 41
1
 50
0
  1
アクアトリム
  0
LINE
  8
_0-0_90_FRAME
  6
CONTINUOUS
 62
    4
 10
718.34953461012276
 20
237.75564704247165
 11
718.34953461012276
 21
208.16928993459001
  0
LINE
  8
_0-0_90_FRAME
  6
CONTINUOUS
 62
    4
 10
718.34953461012276
 20
208.16928993459001
 11
691.4528463302305
 21
208.16928993459001
  0
LINE
  8
_0-0_90_FRAME
  6
CONTINUOUS
 62
    4
 10
691.4528463302305
 20
208.16928993459001
 11
691.4528463302305
 21
237.75564704247165
  0
LINE
  8
_0-0_90_FRAME
  6
CONTINUOUS
 62
    4
 10
691.58092579823006
 20
237.62756757447107
 11
691.58092579823006
 21
237.62756757447107
  0
LINE
  8
_0-0_90_FRAME
  6
CONTINUOUS
 62
    4
 10
691.58092579823006
 20
237.62756757447107
 11
691.64708350523506
 21
236.96034458803126
  0
LINE
  8
_0-0_90_FRAME
  6
CONTINUOUS
 62
    4
 10
691.64708350523506
 20
236.96034458803126
 11
691.84354645780024
 21
236.31339483440331
  0
LINE
  8
_0-0_90_FRAME
  6
CONTINUOUS
 62
    4
 10
691.84354645780024
 20
236.31339483440331
 11
692.16434522852694
 21
235.70637555447883
  0
LINE
  8
_0-0_90_FRAME
  6
CONTINUOUS
 62
    4
 10
692.16434522852694
 20
235.70637555447883
 11
692.59973250909877
 21
235.15773072191175
  0
LINE
  8
_0-0_90_FRAME
  6
CONTINUOUS
 62
    4
 10
692.59973250909877
 20
235.15773072191175
 11
693.13647927731188
 21
234.68413063231191
  0
LINE
  8
_0-0_90_FRAME
  6
CONTINUOUS
 62
    4
 10
693.13647927731188
 20
234.68413063231191
 11
693.75827675422124
 21
234.29996538474865
  0
LINE
  8
_0-0_90_FRAME
  6
CONTINUOUS
 62
    4
 10
693.75827675422124
 20
234.29996538474865
 11
694.44623193813561
 21
234.01690764587212
  0
LINE
  8
_0-0_90_FRAME
  6
CONTINUOUS
 62
    4
 10
694.44623193813561
 20
234.01690764587212
 11
695.17944165891402
 21
233.84355798184399
  0
LINE
  8
_0-0_90_FRAME
  6
CONTINUOUS
 62
    4
 10
695.17944165891402
 20
233.84355798184399
 11
695.93562771021243
 21
233.78518353448661
  0
LINE
  8
_0-0_90_FRAME
  6
CONTINUOUS
 62
    4
 10
695.93562771021243
 20
233.78518353448661
 11
696.69181376151084
 21
233.84355798184399
  0
LINE
  8
_0-0_90_FRAME
  6
CONTINUOUS
 62
    4
 10
696.69181376151084
 20
233.84355798184399
 11
697.42502348228925
 21
234.01690764587212
  0
LINE
  8
_0-0_90_FRAME
  6
CONTINUOUS
 62
    4
 10
697.42502348228925
 20
234.01690764587212
 11
698.11297866620362
 21
234.29996538474865
  0
LINE
  8
_0-0_90_FRAME
  6
CONTINUOUS
 62
    4
 10
698.11297866620362
 20
234.29996538474865
 11
698.73477614311298
 21
234.68413063231191
  0
LINE
  8
_0-0_90_FRAME
  6
CONTINUOUS
 62
    4
 10
698.73477614311298
 20
234.68413063231191
 11
699.27152291132609
 21
235.15773072191175
  0
LINE
  8
_0-0_90_FRAME
  6
CONTINUOUS
 62
    4
 10
699.27152291132609
 20
235.15773072191175
 11
699.7069101918978
 21
235.70637555447883
  0
LINE
  8
_0-0_90_FRAME
  6
CONTINUOUS
 62
    4
 10
699.7069101918978
 20
235.70637555447883
 11
700.02770896262462
 21
236.31339483440331
  0
LINE
  8
_0-0_90_FRAME
  6
CONTINUOUS
 62
    4
 10
700.02770896262462
 20
236.31339483440331
 11
700.2241719151898
 21
236.96034458803126
  0
LINE
  8
_0-0_90_FRAME
  6
CONTINUOUS
 62
    4
 10
700.2241719151898
 20
236.96034458803126
 11
700.2903296221948
 21
237.62756757447107
  0
LINE
  8
_0-0_90_FRAME
  6
CONTINUOUS
 62
    4
 10
700.2903296221948
 20
237.62756757447107
 11
700.2903296221948
 21
237.62756757447107
  0
ARC
  8
_0-0_90_FRAME
  6
CONTINUOUS
 62
    4
 10
700.41840909019459
 20
237.62756757447107
 40
0.1280794679994825
 50
0
 51
180
  0
LINE
  8
_0-0_90_FRAME
  6
CONTINUOUS
 62
    4
 10
700.54648855819426
 20
237.62756757447107
 11
700.54648855819426
 21
237.62756757447107
  0
LINE
  8
_0-0_90_FRAME
  6
CONTINUOUS
 62
    4
 10
700.54648855819426
 20
237.62756757447107
 11
700.61264626519926
 21
236.96034458803126
  0
LINE
  8
_0-0_90_FRAME
  6
CONTINUOUS
 62
    4
 10
700.61264626519926
 20
236.96034458803126
 11
700.80910921776444
 21
236.31339483440331
  0
LINE
  8
_0-0_90_FRAME
  6
CONTINUOUS
 62
    4
 10
700.80910921776444
 20
236.31339483440331
 11
701.12990798849114
 21
235.70637555447883
  0
LINE
  8
_0-0_90_FRAME
  6
CONTINUOUS
 62
    4
 10
701.12990798849114
 20
235.70637555447883
 11
701.56529526906297
 21
235.15773072191175
  0
LINE
  8
_0-0_90_FRAME
  6
CONTINUOUS
 62
    4
 10
701.56529526906297
 20
235.15773072191175
 11
702.10204203727608
 21
234.68413063231191
  0
LINE
  8
_0-0_90_FRAME
  6
CONTINUOUS
 62
    4
 10
702.10204203727608
 20
234.68413063231191
 11
702.72383951418544
 21
234.29996538474865
  0
LINE
  8
_0-0_90_FRAME
  6
CONTINUOUS
 62
    4
 10
702.72383951418544
 20
234.29996538474865
 11
703.41179469809981
 21
234.01690764587212
  0
LINE
  8
_0-0_90_FRAME
  6
CONTINUOUS
 62
    4
 10
703.41179469809981
 20
234.01690764587212
 11
704.14500441887822
 21
233.84355798184399
  0
LINE
  8
_0-0_90_FRAME
  6
CONTINUOUS
 62
    4
 10
704.14500441887822
 20
233.84355798184399
 11
704.90119047017663
 21
233.78518353448661
  0
LINE
  8
_0-0_90_FRAME
  6
CONTINUOUS
 62
    4
 10
704.90119047017663
 20
233.78518353448661
 11
705.65737652147504
 21
233.84355798184399
  0
LINE
  8
_0-0_90_FRAME
  6
CONTINUOUS
 62
    4
 10
705.65737652147504
 20
233.84355798184399
 11
706.39058624225345
 21
234.01690764587212
  0
LINE
  8
_0-0_90_FRAME
  6
CONTINUOUS
 62
    4
 10
706.39058624225345
 20
234.01690764587212
 11
707.07854142616782
 21
234.29996538474865
  0
LINE
  8
_0-0_90_FRAME
  6
CONTINUOUS
 62
    4
 10
707.07854142616782
 20
234.29996538474865
 11
707.70033890307718
 21
234.68413063231191
  0
LINE
  8
_0-0_90_FRAME
  6
CONTINUOUS
 62
    4
 10
707.70033890307718
 20
234.68413063231191
 11
708.23708567129029
 21
235.15773072191175
  0
LINE
  8
_0-0_90_FRAME
  6
CONTINUOUS
 62
    4
 10
708.23708567129029
 20
235.15773072191175
 11
708.67247295186201
 21
235.70637555447883
  0
LINE
  8
_0-0_90_FRAME
  6
CONTINUOUS
 62
    4
 10
708.67247295186201
 20
235.70637555447883
 11
708.99327172258882
 21
236.31339483440331
  0
LINE
  8
_0-0_90_FRAME
  6
CONTINUOUS
 62
    4
 10
708.99327172258882
 20
236.31339483440331
 11
709.189734675154
 21
236.96034458803126
  0
LINE
  8
_0-0_90_FRAME
  6
CONTINUOUS
 62
    4
 10
709.189734675154
 20
236.96034458803126
 11
709.255892382159
 21
237.62756757447107
  0
LINE
  8
_0-0_90_FRAME
  6
CONTINUOUS
 62
    4
 10
709.255892382159
 20
237.62756757447107
 11
709.255892382159
 21
237.62756757447107
  0
ARC
  8
_0-0_90_FRAME
  6
CONTINUOUS
 62
    4
 10
709.38397185015867
 20
237.62756757447107
 40
0.1280794679994825
 50
0
 51
180
  0
LINE
  8
_0-0_90_FRAME
  6
CONTINUOUS
 62
    4
 10
709.51205131815834
 20
237.62756757447107
 11
709.51205131815834
 21
237.62756757447107
  0
LINE
  8
_0-0_90_FRAME
  6
CONTINUOUS
 62
    4
 10
709.51205131815834
 20
237.62756757447107
 11
709.57820902516335
 21
236.96034458803126
  0
LINE
  8
_0-0_90_FRAME
  6
CONTINUOUS
 62
    4
 10
709.57820902516335
 20
236.96034458803126
 11
709.77467197772853
 21
236.31339483440331
  0
LINE
  8
_0-0_90_FRAME
  6
CONTINUOUS
 62
    4
 10
709.77467197772853
 20
236.31339483440331
 11
710.09547074845523
 21
235.70637555447883
  0
LINE
  8
_0-0_90_FRAME
  6
CONTINUOUS
 62
    4
 10
710.09547074845523
 20
235.70637555447883
 11
710.53085802902706
 21
235.15773072191175
  0
LINE
  8
_0-0_90_FRAME
  6
CONTINUOUS
 62
    4
 10
710.53085802902706
 20
235.15773072191175
 11
711.06760479724016
 21
234.68413063231191
  0
LINE
  8
_0-0_90_FRAME
  6
CONTINUOUS
 62
    4
 10
711.06760479724016
 20
234.68413063231191
 11
711.68940227414953
 21
234.29996538474865
  0
LINE
  8
_0-0_90_FRAME
  6
CONTINUOUS
 62
    4
 10
711.68940227414953
 20
234.29996538474865
 11
712.3773574580639
 21
234.01690764587212
  0
LINE
  8
_0-0_90_FRAME
  6
CONTINUOUS
 62
    4
 10
712.3773574580639
 20
234.01690764587212
 11
713.1105671788423
 21
233.84355798184399
  0
LINE
  8
_0-0_90_FRAME
  6
CONTINUOUS
 62
    4
 10
713.1105671788423
 20
233.84355798184399
 11
713.86675323014072
 21
233.78518353448661
  0
LINE
  8
_0-0_90_FRAME
  6
CONTINUOUS
 62
    4
 10
713.86675323014072
 20
233.78518353448661
 11
714.62293928143913
 21
233.84355798184399
  0
LINE
  8
_0-0_90_FRAME
  6
CONTINUOUS
 62
    4
 10
714.62293928143913
 20
233.84355798184399
 11
715.35614900221753
 21
234.01690764587212
  0
LINE
  8
_0-0_90_FRAME
  6
CONTINUOUS
 62
    4
 10
715.35614900221753
 20
234.01690764587212
 11
716.0441041861319
 21
234.29996538474865
  0
LINE
  8
_0-0_90_FRAME
  6
CONTINUOUS
 62
    4
 10
716.0441041861319
 20
234.29996538474865
 11
716.66590166304127
 21
234.68413063231191
  0
LINE
  8
_0-0_90_FRAME
  6
CONTINUOUS
 62
    4
 10
716.66590166304127
 20
234.68413063231191
 11
717.20264843125437
 21
235.15773072191175
  0
LINE
  8
_0-0_90_FRAME
  6
CONTINUOUS
 62
    4
 10
717.20264843125437
 20
235.15773072191175
 11
717.63803571182609
 21
235.70637555447883
  0
LINE
  8
_0-0_90_FRAME
  6
CONTINUOUS
 62
    4
 10
717.63803571182609
 20
235.70637555447883
 11
717.9588344825529
 21
236.31339483440331
  0
LINE
  8
_0-0_90_FRAME
  6
CONTINUOUS
 62
    4
 10
717.9588344825529
 20
236.31339483440331
 11
718.15529743511809
 21
236.96034458803126
  0
LINE
  8
_0-0_90_FRAME
  6
CONTINUOUS
 62
    4
 10
718.15529743511809
 20
236.96034458803126
 11
718.22145514212309
 21
237.62756757447107
  0
LINE
  8
_0-0_90_FRAME
  6
CONTINUOUS
 62
    4
 10
718.22145514212309
 20
237.62756757447107
 11
718.22145514212309
 21
237.62756757447107
  0
ARC
  8
_0-0_90_FRAME
  6
CONTINUOUS
 62
    4
 10
718.34953461012276
 20
237.62756757447107
 40
0.1280794679994825
 50
90
 51
180
  0
ARC
  8
_0-0_90_FRAME
  6
CONTINUOUS
 62
    4
 10
700.41840909019459
 20
237.62756757447107
 40
0.1280794679994825
 50
0
 51
90
  0
ARC
  8
_0-0_90_FRAME
  6
CONTINUOUS
 62
    4
 10
691.4528463302305
 20
237.62756757447107
 40
0.1280794679994825
 50
0
 51
90
  0
LINE
  8
_0-0_90_FRAME
  6
CONTINUOUS
 62
    4
 10
694.52675356221891
 20
212.01167397457459
 11
696.0637071782113
 21
212.01167397457459
  0
LINE
  8
_0-0_90_FRAME
  6
CONTINUOUS
 62
    4
 10
696.0637071782113
 20
212.01167397457459
 11
696.0637071782113
 21
210.47472035858132
  0
LINE
  8
_0-0_90_FRAME
  6
CONTINUOUS
 62
    4
 10
696.0637071782113
 20
210.47472035858132
 11
694.52675356221891
 21
210.47472035858132
  0
LINE
  8
_0-0_90_FRAME
  6
CONTINUOUS
 62
    4
 10
694.52675356221891
 20
212.01167397457459
 11
694.52675356221891
 21
210.47472035858132
  0
LINE
  8
_0-0_90_FRAME
  6
CONTINUOUS
 62
    4
 10
715.27562737813435
 20
212.01167397457459
 11
713.73867376214196
 21
212.01167397457459
  0
LINE
  8
_0-0_90_FRAME
  6
CONTINUOUS
 62
    4
 10
713.73867376214196
 20
212.01167397457459
 11
713.73867376214196
 21
210.47472035858132
  0
LINE
  8
_0-0_90_FRAME
  6
CONTINUOUS
 62
    4
 10
713.73867376214196
 20
210.47472035858132
 11
715.27562737813435
 21
210.47472035858132
  0
LINE
  8
_0-0_90_FRAME
  6
CONTINUOUS
 62
    4
 10
715.27562737813435
 20
212.01167397457459
 11
715.27562737813435
 21
210.47472035858132
  0
LINE
  8
_0-0_90_FRAME
  6
CONTINUOUS
 62
    4
 10
698.36913760220352
 20
212.01167397457459
 11
699.90609121819591
 21
212.01167397457459
  0
LINE
  8
_0-0_90_FRAME
  6
CONTINUOUS
 62
    4
 10
699.90609121819591
 20
212.01167397457459
 11
699.90609121819591
 21
210.47472035858132
  0
LINE
  8
_0-0_90_FRAME
  6
CONTINUOUS
 62
    4
 10
699.90609121819591
 20
210.47472035858132
 11
698.36913760220352
 21
210.47472035858132
  0
LINE
  8
_0-0_90_FRAME
  6
CONTINUOUS
 62
    4
 10
698.36913760220352
 20
212.01167397457459
 11
698.36913760220352
 21
210.47472035858132
  0
LINE
  8
_0-0_90_FRAME
  6
CONTINUOUS
 62
    4
 10
702.21152164218813
 20
212.01167397457459
 11
703.74847525818052
 21
212.01167397457459
  0
LINE
  8
_0-0_90_FRAME
  6
CONTINUOUS
 62
    4
 10
703.74847525818052
 20
212.01167397457459
 11
703.74847525818052
 21
210.47472035858132
  0
LINE
  8
_0-0_90_FRAME
  6
CONTINUOUS
 62
    4
 10
703.74847525818052
 20
210.47472035858132
 11
702.21152164218813
 21
210.47472035858132
  0
LINE
  8
_0-0_90_FRAME
  6
CONTINUOUS
 62
    4
 10
702.21152164218813
 20
212.01167397457459
 11
702.21152164218813
 21
210.47472035858132
  0
LINE
  8
_0-0_90_FRAME
  6
CONTINUOUS
 62
    4
 10
706.05390568217274
 20
212.01167397457459
 11
707.59085929816513
 21
212.01167397457459
  0
LINE
  8
_0-0_90_FRAME
  6
CONTINUOUS
 62
    4
 10
707.59085929816513
 20
212.01167397457459
 11
707.59085929816513
 21
210.47472035858132
  0
LINE
  8
_0-0_90_FRAME
  6
CONTINUOUS
 62
    4
 10
707.59085929816513
 20
210.47472035858132
 11
706.05390568217274
 21
210.47472035858132
  0
LINE
  8
_0-0_90_FRAME
  6
CONTINUOUS
 62
    4
 10
706.05390568217274
 20
212.01167397457459
 11
706.05390568217274
 21
210.47472035858132
  0
LINE
  8
_0-0_90_FRAME
  6
CONTINUOUS
 62
    4
 10
709.89628972215735
 20
212.01167397457459
 11
711.43324333814974
 21
212.01167397457459
  0
LINE
  8
_0-0_90_FRAME
  6
CONTINUOUS
 62
    4
 10
711.43324333814974
 20
212.01167397457459
 11
711.43324333814974
 21
210.47472035858132
  0
LINE
  8
_0-0_90_FRAME
  6
CONTINUOUS
 62
    4
 10
711.43324333814974
 20
210.47472035858132
 11
709.89628972215735
 21
210.47472035858132
  0
LINE
  8
_0-0_90_FRAME
  6
CONTINUOUS
 62
    4
 10
709.89628972215735
 20
212.01167397457459
 11
709.89628972215735
 21
210.47472035858132
  0
LINE
  8
_0-0_90_FRAME
  6
CONTINUOUS
 62
    4
 10
704.88527583643952
 20
226.63652777173607
 11
704.88527583643952
 21
226.63652777173607
  0
LINE
  8
_0-0_90_FRAME
  6
CONTINUOUS
 62
    4
 10
704.88527583643952
 20
226.63652777173607
 11
704.84052209346555
 21
227.12582462845859
  0
LINE
  8
_0-0_90_FRAME
  6
CONTINUOUS
 62
    4
 10
704.84052209346555
 20
227.12582462845859
 11
704.70762068437728
 21
227.60025444778574
  0
LINE
  8
_0-0_90_FRAME
  6
CONTINUOUS
 62
    4
 10
704.70762068437728
 20
227.60025444778574
 11
704.49060975123871
 21
228.04540191973038
  0
LINE
  8
_0-0_90_FRAME
  6
CONTINUOUS
 62
    4
 10
704.49060975123871
 20
228.04540191973038
 11
704.19608306144016
 21
228.44774146361291
  0
LINE
  8
_0-0_90_FRAME
  6
CONTINUOUS
 62
    4
 10
704.19608306144016
 20
228.44774146361291
 11
703.83298965941356
 21
228.79504819598611
  0
LINE
  8
_0-0_90_FRAME
  6
CONTINUOUS
 62
    4
 10
703.83298965941356
 20
228.79504819598611
 11
703.41236195444549
 21
229.07676937753251
  0
LINE
  8
_0-0_90_FRAME
  6
CONTINUOUS
 62
    4
 10
703.41236195444549
 20
229.07676937753251
 11
702.94698050650345
 21
229.28434505270863
  0
LINE
  8
_0-0_90_FRAME
  6
CONTINUOUS
 62
    4
 10
702.94698050650345
 20
229.28434505270863
 11
702.45098569538868
 21
229.41146813966259
  0
LINE
  8
_0-0_90_FRAME
  6
CONTINUOUS
 62
    4
 10
702.45098569538868
 20
229.41146813966259
 11
701.93944807245146
 21
229.45427606772469
  0
LINE
  8
_0-0_90_FRAME
  6
CONTINUOUS
 62
    4
 10
701.93944807245146
 20
229.45427606772469
 11
701.42791044951423
 21
229.41146813966259
  0
LINE
  8
_0-0_90_FRAME
  6
CONTINUOUS
 62
    4
 10
701.42791044951423
 20
229.41146813966259
 11
700.93191563839946
 21
229.28434505270863
  0
LINE
  8
_0-0_90_FRAME
  6
CONTINUOUS
 62
    4
 10
700.93191563839946
 20
229.28434505270863
 11
700.46653419045742
 21
229.07676937753251
  0
LINE
  8
_0-0_90_FRAME
  6
CONTINUOUS
 62
    4
 10
700.46653419045742
 20
229.07676937753251
 11
700.04590648548935
 21
228.79504819598611
  0
LINE
  8
_0-0_90_FRAME
  6
CONTINUOUS
 62
    4
 10
700.04590648548935
 20
228.79504819598611
 11
699.68281308346275
 21
228.44774146361291
  0
LINE
  8
_0-0_90_FRAME
  6
CONTINUOUS
 62
    4
 10
699.68281308346275
 20
228.44774146361291
 11
699.3882863936642
 21
228.04540191973038
  0
LINE
  8
_0-0_90_FRAME
  6
CONTINUOUS
 62
    4
 10
699.3882863936642
 20
228.04540191973038
 11
699.17127546052564
 21
227.60025444778577
  0
LINE
  8
_0-0_90_FRAME
  6
CONTINUOUS
 62
    4
 10
699.17127546052564
 20
227.60025444778577
 11
699.03837405143736
 21
227.12582462845859
  0
LINE
  8
_0-0_90_FRAME
  6
CONTINUOUS
 62
    4
 10
699.03837405143736
 20
227.12582462845859
 11
698.99362030846339
 21
226.63652777173607
  0
LINE
  8
_0-0_90_FRAME
  6
CONTINUOUS
 62
    4
 10
698.99362030846339
 20
226.63652777173607
 11
698.99362030846339
 21
226.63652777173607
  0
LINE
  8
_0-0_90_FRAME
  6
CONTINUOUS
 62
    4
 10
704.88527583643929
 20
226.63652777173607
 11
704.88527583643929
 21
225.86805096373897
  0
LINE
  8
_0-0_90_FRAME
  6
CONTINUOUS
 62
    4
 10
703.49542155712254
 20
223.47543697399993
 11
703.49542155712254
 21
223.47543697399993
  0
LINE
  8
_0-0_90_FRAME
  6
CONTINUOUS
 62
    4
 10
703.49542155712254
 20
223.47543697399993
 11
703.03742462540481
 21
223.25334167309384
  0
LINE
  8
_0-0_90_FRAME
  6
CONTINUOUS
 62
    4
 10
703.03742462540481
 20
223.25334167309384
 11
702.54606623172856
 21
223.11069299087731
  0
LINE
  8
_0-0_90_FRAME
  6
CONTINUOUS
 62
    4
 10
702.54606623172856
 20
223.11069299087731
 11
702.03627605224619
 21
223.05182523537567
  0
LINE
  8
_0-0_90_FRAME
  6
CONTINUOUS
 62
    4
 10
702.03627605224619
 20
223.05182523537567
 11
701.5235438035952
 21
223.07852707355141
  0
LINE
  8
_0-0_90_FRAME
  6
CONTINUOUS
 62
    4
 10
701.5235438035952
 20
223.07852707355141
 11
701.02344859569553
 21
223.18998718356329
  0
LINE
  8
_0-0_90_FRAME
  6
CONTINUOUS
 62
    4
 10
701.02344859569553
 20
223.18998718356329
 11
700.55118556837908
 21
223.38281890637015
  0
LINE
  8
_0-0_90_FRAME
  6
CONTINUOUS
 62
    4
 10
700.55118556837908
 20
223.38281890637015
 11
700.12110419475425
 21
223.65116314765206
  0
LINE
  8
_0-0_90_FRAME
  6
CONTINUOUS
 62
    4
 10
700.12110419475425
 20
223.65116314765206
 11
699.74627227972667
 21
223.9868664034264
  0
LINE
  8
_0-0_90_FRAME
  6
CONTINUOUS
 62
    4
 10
699.74627227972667
 20
223.9868664034264
 11
699.43807890136065
 21
224.37972850014052
  0
LINE
  8
_0-0_90_FRAME
  6
CONTINUOUS
 62
    4
 10
699.43807890136065
 20
224.37972850014052
 11
699.20588835950434
 21
224.81781252178357
  0
LINE
  8
_0-0_90_FRAME
  6
CONTINUOUS
 62
    4
 10
699.20588835950434
 20
224.81781252178357
 11
699.05675564627791
 21
225.28780750703916
  0
LINE
  8
_0-0_90_FRAME
  6
CONTINUOUS
 62
    4
 10
699.05675564627791
 20
225.28780750703916
 11
698.995212083708
 21
225.77543289610918
  0
LINE
  8
_0-0_90_FRAME
  6
CONTINUOUS
 62
    4
 10
698.995212083708
 20
225.77543289610918
 11
698.99362030846339
 21
225.86805096373897
  0
LINE
  8
_0-0_90_FRAME
  6
CONTINUOUS
 62
    4
 10
703.81784130819699
 20
226.56116826792837
 11
703.81784130819699
 21
225.94638682153087
  0
LINE
  8
_0-0_90_FRAME
  6
CONTINUOUS
 62
    4
 10
710.85667416220542
 20
225.63635217255444
 11
710.85667416220542
 21
229.45427606772515
  0
LINE
  8
_0-0_90_FRAME
  6
CONTINUOUS
 62
    4
 10
709.70395895020931
 20
225.86805096373897
 11
709.70395895020931
 21
229.45427606772515
  0
LINE
  8
_0-0_90_FRAME
  6
CONTINUOUS
 62
    4
 10
709.70395895020931
 20
229.45427606772515
 11
710.85667416220542
 21
229.45427606772515
  0
LINE
  8
_0-0_90_FRAME
  6
CONTINUOUS
 62
    4
 10
705.47733650622661
 20
225.63635217255444
 11
705.47733650622661
 21
229.45427606772515
  0
LINE
  8
_0-0_90_FRAME
  6
CONTINUOUS
 62
    4
 10
706.63005171822272
 20
225.86805096373897
 11
706.63005171822272
 21
229.45427606772515
  0
ARC
  8
_0-0_90_FRAME
  6
CONTINUOUS
 62
    4
 10
708.18490847577789
 20
225.75220156814808
 40
2.7100492712792992
 50
182.45003099226136
 51
265.55525728852427
  0
LINE
  8
_0-0_90_FRAME
  6
CONTINUOUS
 62
    4
 10
706.63005171822272
 20
229.45427606772515
 11
705.47733650622661
 21
229.45427606772515
  0
LINE
  8
_0-0_90_FRAME
  6
CONTINUOUS
 62
    4
 10
708.35912453621506
 20
223.05030266775077
 11
707.97488613221697
 21
223.05030266775077
  0
ARC
  8
_0-0_90_FRAME
  6
CONTINUOUS
 62
    4
 10
708.91652772062673
 20
225.8382308664269
 40
2.2866704501913211
 50
179.25279388138676
 51
218.96457184688023
  0
ARC
  8
_0-0_90_FRAME
  6
CONTINUOUS
 62
    4
 10
707.4174829478053
 20
225.8382308664269
 40
2.2866704501910635
 50
321.03542815311977
 51
0.747206118613265
  0
ARC
  8
_0-0_90_FRAME
  6
CONTINUOUS
 62
    4
 10
708.16700533421692
 20
226.26774897835836
 40
2.1319312674000637
 50
241.1577278083189
 51
298.8422721916811
  0
LINE
  8
_0-0_90_FRAME
  6
CONTINUOUS
 62
    4
 10
702.18772569764235
 20
224.74813817432747
 11
702.71070294980575
 21
224.23915608055825
  0
LINE
  8
_0-0_90_FRAME
  6
CONTINUOUS
 62
    4
 10
702.18772569764235
 20
224.74813817432747
 11
702.75504829294925
 21
225.35055575957736
  0
LINE
  8
_0-0_90_FRAME
  6
CONTINUOUS
 62
    4
 10
704.38589722740664
 20
222.60879092154403
 11
705.12716026089038
 21
223.39590902746946
  0
LINE
  8
_0-0_90_FRAME
  6
CONTINUOUS
 62
    4
 10
700.06105483670592
 20
226.56116826792837
 11
700.06105483670592
 21
225.94638682153087
  0
LINE
  8
_0-0_90_FRAME
  6
CONTINUOUS
 62
    4
 10
703.81784130819688
 20
226.56116826792837
 11
703.81784130819688
 21
226.56116826792837
  0
LINE
  8
_0-0_90_FRAME
  6
CONTINUOUS
 62
    4
 10
703.81784130819688
 20
226.56116826792837
 11
703.78930429421916
 21
226.88562503543974
  0
LINE
  8
_0-0_90_FRAME
  6
CONTINUOUS
 62
    4
 10
703.78930429421916
 20
226.88562503543974
 11
703.70456033501557
 21
227.20022334825336
  0
LINE
  8
_0-0_90_FRAME
  6
CONTINUOUS
 62
    4
 10
703.70456033501557
 20
227.20022334825336
 11
703.56618433290384
 21
227.49540429582873
  0
LINE
  8
_0-0_90_FRAME
  6
CONTINUOUS
 62
    4
 10
703.56618433290384
 20
227.49540429582873
 11
703.37838077268646
 21
227.76219895444262
  0
LINE
  8
_0-0_90_FRAME
  6
CONTINUOUS
 62
    4
 10
703.37838077268646
 20
227.76219895444262
 11
703.14685597050766
 21
227.99250090339763
  0
LINE
  8
_0-0_90_FRAME
  6
CONTINUOUS
 62
    4
 10
703.14685597050766
 20
227.99250090339763
 11
702.87864469032411
 21
228.17931253451314
  0
LINE
  8
_0-0_90_FRAME
  6
CONTINUOUS
 62
    4
 10
702.87864469032411
 20
228.17931253451314
 11
702.58189639616307
 21
228.31695767090901
  0
LINE
  8
_0-0_90_FRAME
  6
CONTINUOUS
 62
    4
 10
702.58189639616307
 20
228.31695767090901
 11
702.26562763478057
 21
228.40125403476762
  0
LINE
  8
_0-0_90_FRAME
  6
CONTINUOUS
 62
    4
 10
702.26562763478057
 20
228.40125403476762
 11
701.93944807245146
 21
228.42964032372913
  0
LINE
  8
_0-0_90_FRAME
  6
CONTINUOUS
 62
    4
 10
701.93944807245146
 20
228.42964032372913
 11
701.61326851012234
 21
228.40125403476762
  0
LINE
  8
_0-0_90_FRAME
  6
CONTINUOUS
 62
    4
 10
701.61326851012234
 20
228.40125403476762
 11
701.29699974873984
 21
228.31695767090901
  0
LINE
  8
_0-0_90_FRAME
  6
CONTINUOUS
 62
    4
 10
701.29699974873984
 20
228.31695767090901
 11
701.0002514545788
 21
228.17931253451314
  0
LINE
  8
_0-0_90_FRAME
  6
CONTINUOUS
 62
    4
 10
701.0002514545788
 20
228.17931253451314
 11
700.73204017439525
 21
227.99250090339763
  0
LINE
  8
_0-0_90_FRAME
  6
CONTINUOUS
 62
    4
 10
700.73204017439525
 20
227.99250090339763
 11
700.50051537221646
 21
227.76219895444262
  0
LINE
  8
_0-0_90_FRAME
  6
CONTINUOUS
 62
    4
 10
700.50051537221646
 20
227.76219895444262
 11
700.31271181199907
 21
227.49540429582873
  0
LINE
  8
_0-0_90_FRAME
  6
CONTINUOUS
 62
    4
 10
700.31271181199907
 20
227.49540429582873
 11
700.17433580988734
 21
227.20022334825336
  0
LINE
  8
_0-0_90_FRAME
  6
CONTINUOUS
 62
    4
 10
700.17433580988734
 20
227.20022334825336
 11
700.08959185068375
 21
226.88562503543974
  0
LINE
  8
_0-0_90_FRAME
  6
CONTINUOUS
 62
    4
 10
700.08959185068375
 20
226.88562503543974
 11
700.06105483670603
 21
226.56116826792837
  0
LINE
  8
_0-0_90_FRAME
  6
CONTINUOUS
 62
    4
 10
700.06105483670603
 20
226.56116826792837
 11
700.06105483670603
 21
226.56116826792837
  0
LINE
  8
_0-0_90_FRAME
  6
CONTINUOUS
 62
    4
 10
702.71070294980541
 20
224.23915608055796
 11
702.71070294980541
 21
224.23915608055796
  0
LINE
  8
_0-0_90_FRAME
  6
CONTINUOUS
 62
    4
 10
702.71070294980541
 20
224.23915608055796
 11
702.40156875481694
 21
224.13178536782956
  0
LINE
  8
_0-0_90_FRAME
  6
CONTINUOUS
 62
    4
 10
702.40156875481694
 20
224.13178536782956
 11
702.07839325673933
 21
224.07945996702952
  0
LINE
  8
_0-0_90_FRAME
  6
CONTINUOUS
 62
    4
 10
702.07839325673933
 20
224.07945996702952
 11
701.75099597954659
 21
224.08376975898324
  0
LINE
  8
_0-0_90_FRAME
  6
CONTINUOUS
 62
    4
 10
701.75099597954659
 20
224.08376975898324
 11
701.42932472383552
 21
224.14458379284304
  0
LINE
  8
_0-0_90_FRAME
  6
CONTINUOUS
 62
    4
 10
701.42932472383552
 20
224.14458379284304
 11
701.12315330793729
 21
224.26005426496351
  0
LINE
  8
_0-0_90_FRAME
  6
CONTINUOUS
 62
    4
 10
701.12315330793729
 20
224.26005426496351
 11
700.84178459539373
 21
224.42667266348013
  0
LINE
  8
_0-0_90_FRAME
  6
CONTINUOUS
 62
    4
 10
700.84178459539373
 20
224.42667266348013
 11
700.593767832156
 21
224.63937637266693
  0
LINE
  8
_0-0_90_FRAME
  6
CONTINUOUS
 62
    4
 10
700.593767832156
 20
224.63937637266693
 11
700.38663888207259
 21
224.89170249795359
  0
LINE
  8
_0-0_90_FRAME
  6
CONTINUOUS
 62
    4
 10
700.38663888207259
 20
224.89170249795359
 11
700.22669125347954
 21
225.17598423770639
  0
LINE
  8
_0-0_90_FRAME
  6
CONTINUOUS
 62
    4
 10
700.22669125347954
 20
225.17598423770639
 11
700.11878487413412
 21
225.48358383511649
  0
LINE
  8
_0-0_90_FRAME
  6
CONTINUOUS
 62
    4
 10
700.11878487413412
 20
225.48358383511649
 11
700.0661984247696
 21
225.80515503206948
  0
LINE
  8
_0-0_90_FRAME
  6
CONTINUOUS
 62
    4
 10
700.0661984247696
 20
225.80515503206948
 11
700.06105247865946
 21
225.94341046754667
  0
LINE
  8
_0-0_90_FRAME
  6
CONTINUOUS
 62
    4
 10
693.37510729325379
 20
223.05030266775077
 11
694.52477583080156
 21
223.05030266775077
  0
LINE
  8
_0-0_90_FRAME
  6
CONTINUOUS
 62
    4
 10
693.37510729325379
 20
223.05030266775077
 11
693.37510729325379
 21
223.08104174006999
  0
LINE
  8
_0-0_90_FRAME
  6
CONTINUOUS
 62
    4
 10
693.37510729325379
 20
223.08104174006999
 11
695.78996821392332
 21
229.45427606772515
  0
LINE
  8
_0-0_90_FRAME
  6
CONTINUOUS
 62
    4
 10
693.37510729325379
 20
223.05030266775077
 11
693.37510729325379
 21
223.08104174006999
  0
LINE
  8
_0-0_90_FRAME
  6
CONTINUOUS
 62
    4
 10
695.15157296600967
 20
224.73861487745594
 11
697.51591304207261
 21
224.73861487745594
  0
LINE
  8
_0-0_90_FRAME
  6
CONTINUOUS
 62
    4
 10
695.49818670011166
 20
225.71201883425158
 11
697.16929930797244
 21
225.71201883425158
  0
LINE
  8
_0-0_90_FRAME
  6
CONTINUOUS
 62
    4
 10
699.26676282122946
 20
223.05030266775077
 11
698.1170942836834
 21
223.05030266775077
  0
LINE
  8
_0-0_90_FRAME
  6
CONTINUOUS
 62
    4
 10
698.1170942836834
 20
223.05030266775077
 11
697.51591304207261
 21
224.73861487745594
  0
LINE
  8
_0-0_90_FRAME
  6
CONTINUOUS
 62
    4
 10
699.26676282122946
 20
223.08104174006999
 11
696.85190190055994
 21
229.45427606772515
  0
LINE
  8
_0-0_90_FRAME
  6
CONTINUOUS
 62
    4
 10
699.26676282122946
 20
223.05030266775077
 11
699.26676282122946
 21
223.08104174006999
  0
LINE
  8
_0-0_90_FRAME
  6
CONTINUOUS
 62
    4
 10
695.78996821392332
 20
229.45427606772515
 11
696.85190190055994
 21
229.45427606772515
  0
LINE
  8
_0-0_90_FRAME
  6
CONTINUOUS
 62
    4
 10
697.16929930797244
 20
225.71201883425158
 11
696.32093505724163
 21
228.09450122666942
  0
LINE
  8
_0-0_90_FRAME
  6
CONTINUOUS
 62
    4
 10
702.75504829294925
 20
225.35055575957736
 11
705.12716026089038
 21
223.39590902746946
  0
LINE
  8
_0-0_90_FRAME
  6
CONTINUOUS
 62
    4
 10
703.49542155712345
 20
223.47543697400044
 11
704.38589722740664
 21
222.60879092154403
  0
LINE
  8
_0-0_90_FRAME
  6
CONTINUOUS
 62
    4
 10
695.15157296600967
 20
224.73861487745594
 11
695.49818670011166
 21
225.71201883425158
  0
LINE
  8
_0-0_90_FRAME
  6
CONTINUOUS
 62
    4
 10
704.88527583643952
 20
225.86805096373897
 11
704.88527583643952
 21
225.86805096373897
  0
LINE
  8
_0-0_90_FRAME
  6
CONTINUOUS
 62
    4
 10
704.88527583643952
 20
225.86805096373897
 11
704.84052209346555
 21
225.37875410701645
  0
LINE
  8
_0-0_90_FRAME
  6
CONTINUOUS
 62
    4
 10
704.84052209346555
 20
225.37875410701645
 11
704.70762068437728
 21
224.90432428768929
  0
LINE
  8
_0-0_90_FRAME
  6
CONTINUOUS
 62
    4
 10
704.70762068437728
 20
224.90432428768929
 11
704.49060975123871
 21
224.45917681574466
  0
LINE
  8
_0-0_90_FRAME
  6
CONTINUOUS
 62
    4
 10
704.49060975123871
 20
224.45917681574466
 11
704.26411984713104
 21
224.13735383491249
  0
LINE
  8
_0-0_90_FRAME
  6
CONTINUOUS
 62
    4
 10
703.81784366624345
 20
225.94341046754667
 11
703.81784366624345
 21
225.94341046754667
  0
LINE
  8
_0-0_90_FRAME
  6
CONTINUOUS
 62
    4
 10
703.81784366624345
 20
225.94341046754667
 11
703.78930661644176
 21
225.61884971161814
  0
LINE
  8
_0-0_90_FRAME
  6
CONTINUOUS
 62
    4
 10
703.78930661644176
 20
225.61884971161814
 11
703.70456255085458
 21
225.30415057002284
  0
LINE
  8
_0-0_90_FRAME
  6
CONTINUOUS
 62
    4
 10
703.70456255085458
 20
225.30415057002284
 11
703.56618637503209
 21
225.00887501693268
  0
LINE
  8
_0-0_90_FRAME
  6
CONTINUOUS
 62
    4
 10
703.56618637503209
 20
225.00887501693268
 11
703.43875735744848
 21
224.8174617366742
  0
LINE
  8
_0-0_90_FRAME
  6
CONTINUOUS
 62
    4
 10
698.99362030846362
 20
226.63652777173607
 11
698.99362030846362
 21
225.86805096373897
  0
LINE
  8
_0-0_90_FRAME
  6
CONTINUOUS
 62
    4
 10
694.52477583080156
 20
223.05030266775077
 11
696.32093505724163
 21
228.09450122666942
  0
LINE
  8
_0-0_90_FRAME
  6
CONTINUOUS
 62
    4
 10
710.79177705512132
 20
223.05030266775077
 11
711.94144559266908
 21
223.05030266775077
  0
LINE
  8
_0-0_90_FRAME
  6
CONTINUOUS
 62
    4
 10
710.79177705512132
 20
223.05030266775077
 11
710.79177705512132
 21
223.08104174006999
  0
LINE
  8
_0-0_90_FRAME
  6
CONTINUOUS
 62
    4
 10
710.79177705512132
 20
223.08104174006999
 11
713.20663797579266
 21
229.45427606772515
  0
LINE
  8
_0-0_90_FRAME
  6
CONTINUOUS
 62
    4
 10
710.79177705512132
 20
223.05030266775077
 11
710.79177705512132
 21
223.08104174006999
  0
LINE
  8
_0-0_90_FRAME
  6
CONTINUOUS
 62
    4
 10
712.56824272787901
 20
224.73861487745594
 11
714.93258280394195
 21
224.73861487745594
  0
LINE
  8
_0-0_90_FRAME
  6
CONTINUOUS
 62
    4
 10
712.91485646197918
 20
225.71201883425158
 11
714.58596906984178
 21
225.71201883425158
  0
LINE
  8
_0-0_90_FRAME
  6
CONTINUOUS
 62
    4
 10
716.68343258309881
 20
223.05030266775077
 11
715.53376404555104
 21
223.05030266775077
  0
LINE
  8
_0-0_90_FRAME
  6
CONTINUOUS
 62
    4
 10
715.53376404555104
 20
223.05030266775077
 11
714.93258280394195
 21
224.73861487745594
  0
LINE
  8
_0-0_90_FRAME
  6
CONTINUOUS
 62
    4
 10
716.68343258309881
 20
223.08104174006999
 11
714.26857166242928
 21
229.45427606772515
  0
LINE
  8
_0-0_90_FRAME
  6
CONTINUOUS
 62
    4
 10
716.68343258309881
 20
223.05030266775077
 11
716.68343258309881
 21
223.08104174006999
  0
LINE
  8
_0-0_90_FRAME
  6
CONTINUOUS
 62
    4
 10
713.20663797579266
 20
229.45427606772515
 11
714.26857166242928
 21
229.45427606772515
  0
LINE
  8
_0-0_90_FRAME
  6
CONTINUOUS
 62
    4
 10
714.58596906984178
 20
225.71201883425158
 11
713.73760481911097
 21
228.09450122666942
  0
LINE
  8
_0-0_90_FRAME
  6
CONTINUOUS
 62
    4
 10
712.56824272787901
 20
224.73861487745594
 11
712.91485646197918
 21
225.71201883425158
  0
LINE
  8
_0-0_90_FRAME
  6
CONTINUOUS
 62
    4
 10
711.94144559266908
 20
223.05030266775077
 11
713.73760481911097
 21
228.09450122666942
  0
ARC
  8
_0-0_90_FRAME
  6
CONTINUOUS
 62
    4
 10
708.14910219265414
 20
225.75220156814808
 40
2.7100492712792992
 50
274.44474271147573
 51
357.5499690077387
  0
LINE
  8
_0-0_90_FRAME
  6
CONTINUOUS
 62
    4
 10
703.43875735744962
 20
224.81746173667503
 11
704.26411984713206
 21
224.13735383491272
  0
LINE
  8
_0-0_90_FRAME
  6
CONTINUOUS
 62
    4
 10
703.88704039208244
 20
218.51627512459876
 11
703.88704039208244
 21
218.51627512459876
  0
LINE
  8
_0-0_90_FRAME
  6
CONTINUOUS
 62
    4
 10
703.88704039208244
 20
218.51627512459876
 11
704.20987724853126
 21
218.64678174776134
  0
LINE
  8
_0-0_90_FRAME
  6
CONTINUOUS
 62
    4
 10
704.20987724853126
 20
218.64678174776134
 11
704.49999692922779
 21
218.82098453406829
  0
LINE
  8
_0-0_90_FRAME
  6
CONTINUOUS
 62
    4
 10
704.49999692922779
 20
218.82098453406829
 11
704.74858429448182
 21
219.03359042000858
  0
LINE
  8
_0-0_90_FRAME
  6
CONTINUOUS
 62
    4
 10
704.74858429448182
 20
219.03359042000858
 11
704.9480861429912
 21
219.27813948332167
  0
LINE
  8
_0-0_90_FRAME
  6
CONTINUOUS
 62
    4
 10
704.9480861429912
 20
219.27813948332167
 11
705.09244071204193
 21
219.54720122446656
  0
LINE
  8
_0-0_90_FRAME
  6
CONTINUOUS
 62
    4
 10
705.09244071204193
 20
219.54720122446656
 11
705.17726186110019
 21
219.83260033859042
  0
LINE
  8
_0-0_90_FRAME
  6
CONTINUOUS
 62
    4
 10
705.17726186110019
 20
219.83260033859042
 11
705.19997234247364
 21
220.12566511802947
  0
LINE
  8
_0-0_90_FRAME
  6
CONTINUOUS
 62
    4
 10
705.19997234247364
 20
220.12566511802947
 11
705.1598821096776
 21
220.41749093775843
  0
LINE
  8
_0-0_90_FRAME
  6
CONTINUOUS
 62
    4
 10
705.1598821096776
 20
220.41749093775843
 11
705.05820928414914
 21
220.6992108179158
  0
LINE
  8
_0-0_90_FRAME
  6
CONTINUOUS
 62
    4
 10
705.05820928414914
 20
220.6992108179158
 11
704.89804314324272
 21
220.96226484250016
  0
LINE
  8
_0-0_90_FRAME
  6
CONTINUOUS
 62
    4
 10
704.89804314324272
 20
220.96226484250016
 11
704.68425025410215
 21
221.19866024808624
  0
LINE
  8
_0-0_90_FRAME
  6
CONTINUOUS
 62
    4
 10
704.68425025410215
 20
221.19866024808624
 11
704.42332660547925
 21
221.40121427989718
  0
LINE
  8
_0-0_90_FRAME
  6
CONTINUOUS
 62
    4
 10
704.42332660547925
 20
221.40121427989718
 11
704.12320023040388
 21
221.56377243617368
  0
LINE
  8
_0-0_90_FRAME
  6
CONTINUOUS
 62
    4
 10
704.12320023040388
 20
221.56377243617368
 11
703.7929903169113
 21
221.68139546959566
  0
LINE
  8
_0-0_90_FRAME
  6
CONTINUOUS
 62
    4
 10
703.7929903169113
 20
221.68139546959566
 11
703.44273012612882
 21
221.75050946381273
  0
LINE
  8
_0-0_90_FRAME
  6
CONTINUOUS
 62
    4
 10
703.44273012612882
 20
221.75050946381273
 11
703.1331051364615
 21
221.76950798775547
  0
LINE
  8
_0-0_90_FRAME
  6
CONTINUOUS
 62
    4
 10
707.58074019933349
 20
216.39017033177711
 11
707.58074019933349
 21
220.74487224375949
  0
LINE
  8
_0-0_90_FRAME
  6
CONTINUOUS
 62
    4
 10
706.42802498733738
 20
216.39017033177711
 11
706.42802498733738
 21
220.74487224375949
  0
LINE
  8
_0-0_90_FRAME
  6
CONTINUOUS
 62
    4
 10
706.2999455193368
 20
221.76950798775593
 11
707.70881966733225
 21
221.76950798775593
  0
LINE
  8
_0-0_90_FRAME
  6
CONTINUOUS
 62
    4
 10
700.18727737247548
 20
221.76950798775593
 11
700.18727737247548
 21
215.36553458778155
  0
LINE
  8
_0-0_90_FRAME
  6
CONTINUOUS
 62
    4
 10
706.2999455193368
 20
215.36553458778155
 11
707.70881966733225
 21
215.36553458778155
  0
LINE
  8
_0-0_90_FRAME
  6
CONTINUOUS
 62
    4
 10
707.70881966733225
 20
215.36553458778155
 11
707.70881966733225
 21
216.26209086377835
  0
ARC
  8
_0-0_90_FRAME
  6
CONTINUOUS
 62
    4
 10
707.70881966733225
 20
216.39017033177711
 40
0.1280794679994825
 50
180
 51
270
  0
LINE
  8
_0-0_90_FRAME
  6
CONTINUOUS
 62
    4
 10
706.2999455193368
 20
215.36553458778155
 11
706.2999455193368
 21
216.26209086377835
  0
ARC
  8
_0-0_90_FRAME
  6
CONTINUOUS
 62
    4
 10
706.2999455193368
 20
216.39017033177711
 40
0.1280794679994825
 50
270
 51
0
  0
LINE
  8
_0-0_90_FRAME
  6
CONTINUOUS
 62
    4
 10
707.70881966733225
 20
221.76950798775593
 11
707.70881966733225
 21
220.87295171175913
  0
ARC
  8
_0-0_90_FRAME
  6
CONTINUOUS
 62
    4
 10
707.70881966733225
 20
220.74487224375949
 40
0.1280794679994825
 50
90
 51
180
  0
LINE
  8
_0-0_90_FRAME
  6
CONTINUOUS
 62
    4
 10
706.2999455193368
 20
221.76950798775593
 11
706.2999455193368
 21
220.87295171175913
  0
ARC
  8
_0-0_90_FRAME
  6
CONTINUOUS
 62
    4
 10
706.2999455193368
 20
220.74487224375949
 40
0.1280794679994825
 50
0
 51
90
  0
LINE
  8
_0-0_90_FRAME
  6
CONTINUOUS
 62
    4
 10
697.40797372666759
 20
215.36553458778155
 11
697.40797372666759
 21
220.74487224375949
  0
LINE
  8
_0-0_90_FRAME
  6
CONTINUOUS
 62
    4
 10
696.2552585146733
 20
215.36553458778155
 11
696.2552585146733
 21
220.74487224375949
  0
LINE
  8
_0-0_90_FRAME
  6
CONTINUOUS
 62
    4
 10
694.20598702668224
 20
221.76950798775593
 11
699.45724521466047
 21
221.76950798775593
  0
LINE
  8
_0-0_90_FRAME
  6
CONTINUOUS
 62
    4
 10
696.2552585146733
 20
215.36553458778155
 11
697.40797372666759
 21
215.36553458778155
  0
LINE
  8
_0-0_90_FRAME
  6
CONTINUOUS
 62
    4
 10
699.45724521466047
 20
221.76950798775593
 11
699.45724521466047
 21
220.87295171175913
  0
ARC
  8
_0-0_90_FRAME
  6
CONTINUOUS
 62
    4
 10
697.53605319466817
 20
220.74487224375949
 40
0.1280794679994825
 50
90
 51
180
  0
LINE
  8
_0-0_90_FRAME
  6
CONTINUOUS
 62
    4
 10
694.20598702668224
 20
221.76950798775593
 11
694.20598702668224
 21
220.87295171175913
  0
ARC
  8
_0-0_90_FRAME
  6
CONTINUOUS
 62
    4
 10
696.12717904667454
 20
220.74487224375949
 40
0.1280794679994825
 50
0
 51
90
  0
LINE
  8
_0-0_90_FRAME
  6
CONTINUOUS
 62
    4
 10
694.20598702668224
 20
220.87295171175913
 11
696.12717904667454
 21
220.87295171175913
  0
LINE
  8
_0-0_90_FRAME
  6
CONTINUOUS
 62
    4
 10
697.53605319466817
 20
220.87295171175913
 11
699.45724521466047
 21
220.87295171175913
  0
LINE
  8
_0-0_90_FRAME
  6
CONTINUOUS
 62
    4
 10
700.18727737247548
 20
215.36553458778155
 11
701.33999258446977
 21
215.36553458778155
  0
LINE
  8
_0-0_90_FRAME
  6
CONTINUOUS
 62
    4
 10
701.33999258446977
 20
215.36553458778155
 11
701.33999258446977
 21
220.87295171175913
  0
LINE
  8
_0-0_90_FRAME
  6
CONTINUOUS
 62
    4
 10
700.18727737247548
 20
221.76950798775593
 11
703.1331051364615
 21
221.76950798775593
  0
LINE
  8
_0-0_90_FRAME
  6
CONTINUOUS
 62
    4
 10
701.33999258446977
 20
220.87295171175913
 11
703.28680049806292
 21
220.87295171175913
  0
LINE
  8
_0-0_90_FRAME
  6
CONTINUOUS
 62
    4
 10
701.37841642486831
 20
218.4002701440551
 11
701.37841642486831
 21
219.29682642005187
  0
LINE
  8
_0-0_90_FRAME
  6
CONTINUOUS
 62
    4
 10
701.37841642486831
 20
218.4002701440551
 11
702.63610142373739
 21
218.4002701440551
  0
LINE
  8
_0-0_90_FRAME
  6
CONTINUOUS
 62
    4
 10
701.37841642486831
 20
219.29682642005187
 11
703.28680049806292
 21
219.29682642005187
  0
ARC
  8
_0-0_90_FRAME
  6
CONTINUOUS
 62
    4
 10
703.2593212707817
 20
220.08488906590551
 40
0.788541591624461
 50
271.9970571043541
 51
88.002942895541636
  0
LINE
  8
_0-0_90_FRAME
  6
CONTINUOUS
 62
    4
 10
704.08628670280643
 20
215.36553458778155
 11
705.32865754240095
 21
215.36553458778155
  0
LINE
  8
_0-0_90_FRAME
  6
CONTINUOUS
 62
    4
 10
704.22508633431983
 20
218.1192554893388
 11
705.32865754240095
 21
215.41676637498142
  0
LINE
  8
_0-0_90_FRAME
  6
CONTINUOUS
 62
    4
 10
703.11135408414168
 20
218.07927532541737
 11
704.08628670280643
 21
215.36553458778155
  0
ARC
  8
_0-0_90_FRAME
  6
CONTINUOUS
 62
    4
 10
702.63610142373739
 20
217.88795227205821
 40
0.5123178719979303
 50
21.928297866550263
 51
90
  0
ARC
  8
_0-0_90_FRAME
  6
CONTINUOUS
 62
    4
 10
703.45015745435751
 20
217.80186126678578
 40
0.8374090168554602
 50
22.272952259980947
 51
58.553113012863236
  0
LINE
  8
_0-0_90_FRAME
  6
CONTINUOUS
 62
    4
 10
705.32865754240095
 20
215.41676637498142
 11
705.32865754240095
 21
215.36553458778155
  0
LINE
  8
_0-0_90_FRAME
  6
CONTINUOUS
 62
    4
 10
708.86278294180568
 20
221.76950798775593
 11
708.86278294180568
 21
215.36553458778155
  0
LINE
  8
_0-0_90_FRAME
  6
CONTINUOUS
 62
    4
 10
708.86278294180568
 20
215.36553458778155
 11
710.01549815380179
 21
215.36553458778155
  0
LINE
  8
_0-0_90_FRAME
  6
CONTINUOUS
 62
    4
 10
710.01549815380179
 20
215.36553458778155
 11
710.0144367017657
 21
219.8483159677636
  0
LINE
  8
_0-0_90_FRAME
  6
CONTINUOUS
 62
    4
 10
708.86278294180568
 20
221.76950798775593
 11
710.53544819917636
 21
221.76950798775593
  0
LINE
  8
_0-0_90_FRAME
  6
CONTINUOUS
 62
    4
 10
714.11510258182
 20
219.8483159677636
 11
714.11510258182
 21
215.36553458778155
  0
LINE
  8
_0-0_90_FRAME
  6
CONTINUOUS
 62
    4
 10
714.11510258182
 20
215.36553458778155
 11
715.26781779381429
 21
215.36553458778155
  0
LINE
  8
_0-0_90_FRAME
  6
CONTINUOUS
 62
    4
 10
715.26781779381429
 20
215.36553458778155
 11
715.26781779381429
 21
221.76950798775593
  0
LINE
  8
_0-0_90_FRAME
  6
CONTINUOUS
 62
    4
 10
711.48841203579661
 20
215.36553458778155
 11
712.64112724779091
 21
215.36553458778155
  0
LINE
  8
_0-0_90_FRAME
  6
CONTINUOUS
 62
    4
 10
715.26781779381429
 20
221.76950798775593
 11
713.59409108440934
 21
221.76950798775593
  0
LINE
  8
_0-0_90_FRAME
  6
CONTINUOUS
 62
    4
 10
712.64112724779091
 20
215.36553458778155
 11
714.11510258182
 21
219.8483159677636
  0
LINE
  8
_0-0_90_FRAME
  6
CONTINUOUS
 62
    4
 10
711.48841203579661
 20
215.36553458778155
 11
710.0144367017657
 21
219.8483159677636
  0
LINE
  8
_0-0_90_FRAME
  6
CONTINUOUS
 62
    4
 10
712.06476964179285
 20
217.11840323132506
 11
713.59409108440934
 21
221.76950798775593
  0
LINE
  8
_0-0_90_FRAME
  6
CONTINUOUS
 62
    4
 10
712.06476964179285
 20
217.11840323132506
 11
710.53544819917636
 21
221.76950798775593
  0
TEXT
  8
_0-0_90_FRAME
 62
    2
 10
722.81850107909997
 20
226.88129051527903
 40
7.5607714285408791
 41
1
 50
0
  1
株式会社
  0
LINE
  8
_0-0_90_FRAME
  6
CONTINUOUS
 62
   18
 10
745.83539128375935
 20
242.5990854879675
 11
745.83539128375935
 21
277.95622834496874
  0
TEXT
  8
_0-0_90_FRAME
 62
    7
 10
811.82618171127115
 20
215.22432116608698
 40
10
 41
1
 50
0
  1
寺田
  0
TEXT
  8
_0-0_90_FRAME
 62
    7
 10
760.41903885435249
 20
251.08556119494796
 40
10
 41
1
 50
0
  1
1：2
  0
TEXT
  8
_0-0_90_FRAME
 62
    7
 10
850.00883493697984
 20
271.11040802704713
 40
5
 41
1
 50
0
  1
機器
  0
LINE
  8
_0-0_90_FRAME
  6
CONTINUOUS
 62
   18
 10
924.17347814623656
 20
277.95622834496874
 11
924.17347814623656
 21
227.04194263088823
  0
TEXT
  8
_0-0_90_FRAME
 62
    7
 10
925.53263608561986
 20
271.11040802704713
 40
5
 41
1
 50
0
  1
部品名
  0
TEXT
  8
_0-0_90_FRAME
 62
    7
 10
925.53263608561804
 20
242.57469374144614
 40
5
 41
1
 50
0
  1
図面番号
  0
LINE
  8
_0-0_90_FRAME
  6
CONTINUOUS
 62
   18
 10
848.6496769976003
 20
252.49908548792894
 11
924.17347814623656
 21
252.49908548792894
  0
TEXT
  8
_0-0_90_FRAME
 62
    7
 10
850.00883493697984
 20
245.40326517000736
 40
5
 41
1
 50
0
  1
型式
  0
LINE
  8
_0-0_90_FRAME
  6
CONTINUOUS
 62
   18
 10
299.67593987902677
 20
204.41337120240877
 11
503.67593987724183
 21
204.41337120240883
  0
LINE
  8
_0-0_90_FRAME
  6
CONTINUOUS
 62
   18
 10
503.67593987724183
 20
204.41337120240883
 11
503.67593987724183
 21
260.98479977360705
  0
LINE
  8
_0-0_90_FRAME
  6
CONTINUOUS
 62
   18
 10
503.67593987724183
 20
260.98479977360705
 11
299.67593987902677
 21
260.98479977360705
  0
LINE
  8
_0-0_90_FRAME
  6
CONTINUOUS
 62
   18
 10
299.67593987902677
 20
260.98479977360705
 11
299.67593987902677
 21
204.41337120240877
  0
LINE
  8
_0-0_90_FRAME
  6
CONTINUOUS
 62
   18
 10
475.67593987724183
 20
204.41337120240877
 11
475.67593987724183
 21
260.98479977360705
  0
LINE
  8
_0-0_90_FRAME
  6
CONTINUOUS
 62
   18
 10
327.67593987724189
 20
204.41337120240883
 11
327.67593987724189
 21
260.98479977360705
  0
LINE
  8
_0-0_90_FRAME
  6
CONTINUOUS
 62
   18
 10
359.67593987724189
 20
204.41337120240877
 11
359.67593987724189
 21
260.98479977360705
  0
LINE
  8
_0-0_90_FRAME
  6
CONTINUOUS
 62
   18
 10
299.67593987902677
 20
246.84194263081025
 11
503.67593987724183
 21
246.84194263081025
  0
LINE
  8
_0-0_90_FRAME
  6
CONTINUOUS
 62
   18
 10
299.67593987902677
 20
232.69908548800609
 11
503.67593987724183
 21
232.69908548800609
  0
LINE
  8
_0-0_90_FRAME
  6
CONTINUOUS
 62
   18
 10
299.67593987902677
 20
218.55622834520926
 11
503.67593987724183
 21
218.55622834520926
  0
TEXT
  8
_0-0_90_FRAME
 62
    7
 10
306.69412169631613
 20
251.51337120220867
 40
4.7999999999999998
 41
1
 50
0
  1
記号
  0
TEXT
  8
_0-0_90_FRAME
 62
    7
 10
336.00716913875823
 20
251.51337120220867
 40
4.7999999999999998
 41
1
 50
0
  1
日付
  0
TEXT
  8
_0-0_90_FRAME
 62
    7
 10
479.20321260451459
 20
251.51337120220867
 40
4.7999999999999998
 41
1
 50
0
  1
作成者
  0
TEXT
  8
_0-0_90_FRAME
 62
    7
 10
401.71230351360555
 20
251.43155302039045
 40
4.7999999999999998
 41
1
 50
0
  1
改訂内容
  0
LINE
  8
_0-0_90_FRAME
  6
CONTINUOUS
 62
   18
 10
307.31165416387211
 20
220.05834430491467
 11
313.67593987813433
 21
231.08161051589576
  0
LINE
  8
_0-0_90_FRAME
  6
CONTINUOUS
 62
   18
 10
313.67593987813433
 20
231.08161051589576
 11
320.04022559239291
 21
220.05834430491467
  0
LINE
  8
_0-0_90_FRAME
  6
CONTINUOUS
 62
   18
 10
320.04022559239291
 20
220.05834430491467
 11
307.31165416387211
 21
220.05834430491467
  0
TEXT
  8
_0-0_90_FRAME
 62
    7
 10
312.29754974035887
 20
236.2563371196112
 40
4.2428571428400002
 41
1
 50
0
  1
1
  0
TEXT
  8
_0-0_90_FRAME
 62
    7
 10
312.29754974035887
 20
222.11347997681074
 40
4.2428571428400002
 41
1
 50
0
  1
2
  0
TEXT
  8
_0-0_90_FRAME
 62
    7
 10
312.29754974035887
 20
207.97062283401024
 40
4.2428571428400002
 41
1
 50
0
  1
3
  0
LINE
  8
_0-0_90_FRAME
  6
CONTINUOUS
 62
   18
 10
307.31165416387211
 20
234.20120144771516
 11
313.67593987813433
 21
245.22446765869987
  0
LINE
  8
_0-0_90_FRAME
  6
CONTINUOUS
 62
   18
 10
313.67593987813433
 20
245.22446765869987
 11
320.04022559239291
 21
234.20120144771516
  0
LINE
  8
_0-0_90_FRAME
  6
CONTINUOUS
 62
   18
 10
320.04022559239291
 20
234.20120144771516
 11
307.31165416387211
 21
234.20120144771516
  0
LINE
  8
_0-0_90_FRAME
  6
CONTINUOUS
 62
   18
 10
307.31165416387211
 20
205.91548716211418
 11
313.67593987813433
 21
216.9387533730989
  0
LINE
  8
_0-0_90_FRAME
  6
CONTINUOUS
 62
   18
 10
313.67593987813433
 20
216.9387533730989
 11
320.04022559239291
 21
205.91548716211418
  0
LINE
  8
_0-0_90_FRAME
  6
CONTINUOUS
 62
   18
 10
320.04022559239291
 20
205.91548716211418
 11
307.31165416387211
 21
205.91548716211418
  0
LINE
  8
_0-0_90_FRAME
  6
CONTINUOUS
 62
    4
 10
779.9925252125596
 20
347.95622684072043
 11
1082.4353797292845
 21
347.95622684072043
  0
LINE
  8
_0-0_90_FRAME
  6
CONTINUOUS
 62
    4
 10
779.99253676567616
 20
347.95622684072043
 11
779.99253676567616
 21
277.95622834496874
  0
LINE
  8
_0-0_90_FRAME
  6
CONTINUOUS
 62
    4
 10
924.17347814623656
 20
347.95622684072043
 11
924.17347814623656
 21
277.95622834496874
  0
LINE
  8
_0-0_90_FRAME
  6
CONTINUOUS
 62
    4
 10
979.06170387519796
 20
347.95622684072043
 11
979.06170387520854
 21
277.95622834496874
  0
LINE
  8
_0-0_90_FRAME
  6
CONTINUOUS
 62
    4
 10
965.06170562519787
 20
347.95622684072043
 11
965.0617056252072
 21
277.95622834496874
  0
LINE
  8
_0-0_90_FRAME
  6
CONTINUOUS
 62
    4
 10
800.99253414067982
 20
347.95622684072043
 11
800.99253414067982
 21
277.95622834496874
  0
LINE
  8
_0-0_90_FRAME
  6
CONTINUOUS
 62
    4
 10
1000.0617012502051
 20
347.95622684072043
 11
1000.0617012502051
 21
277.95622834496874
  0
LINE
  8
_0-2_08_DIM
  6
CONTINUOUS
 62
    3
 10
380.26429105690897
 20
659.12502207193302
 11
430.61279789659613
 21
659.12502207193302
  0
INSERT
  2
-000-p1ba05
  8
_0-2_08_DIM
 10
409.44010915995807
 20
661.86020042229347
 41
3
 42
3
 50
0
  0
TEXT
  8
_0-0_90_FRAME
 62
    3
 10
970.79013979886167
 20
295.30157715621704
 40
5.9999999999999991
 41
1
 50
0
  1
1
  0
TEXT
  8
_0-0_90_FRAME
 62
    3
 10
927.39622666200069
 20
295.43490976174098
 40
5.9999999999999991
 41
1
 50
0
  1
SUS304
  0
TEXT
  8
_0-0_90_FRAME
 62
    3
 10
810.7463011516694
 20
295.35532500285137
 40
5.9999999999999991
 41
1
 50
0
  1
トルクアーム
  0
TEXT
  8
_0-0_90_FRAME
 62
    3
 10
784.47738525463967
 20
295.20097863683134
 40
5.9999999999999991
 41
1
 50
0
  1
110
  0
TEXT
  8
_0-0_90_FRAME
 62
    3
 10
983.63508456424506
 20
285.1419596425838
 40
5
 41
1
 50
0
  1
重量
  0
TEXT
  8
_0-0_90_FRAME
 62
    3
 10
933.51035199906948
 20
281.91486382383709
 40
5.9999999999999991
 41
1
 50
0
  1
材　質
  0
TEXT
  8
_0-0_90_FRAME
 62
    3
 10
965.79698985049492
 20
281.8697699679467
 40
5.9999999999999991
 41
1
 50
0
  1
数量
  0
TEXT
  8
_0-0_90_FRAME
 62
    3
 10
985.84501409510358
 20
280.24961054800929
 40
4
 41
1
 50
0
  1
kg
  0
TEXT
  8
_0-0_90_FRAME
 62
    3
 10
1026.8225700153914
 20
281.7691714485494
 40
5.9999999999999991
 41
1
 50
0
  1
備  考
  0
TEXT
  8
_0-0_90_FRAME
 62
    3
 10
784.26852595476396
 20
281.7691714485494
 40
5.9999999999999991
 41
1
 50
0
  1
符号
  0
TEXT
  8
_0-0_90_FRAME
 62
    3
 10
835.13295415424238
 20
281.98694919910611
 40
5.9999999999999991
 41
1
 50
0
  1
部　　品　　名
  0
LINE
  8
_0-0_90_FRAME
  6
CONTINUOUS
 62
    4
 10
779.9925252125596
 20
333.95622684072043
 11
1082.4353797292845
 21
333.95622684072043
  0
LINE
  8
_0-0_90_FRAME
  6
CONTINUOUS
 62
    4
 10
779.9925252125596
 20
319.9562260931533
 11
1082.4353797292845
 21
319.9562260931533
  0
LINE
  8
_0-0_90_FRAME
  6
CONTINUOUS
 62
    4
 10
779.9925252125596
 20
305.95622684072049
 11
1082.4353797292845
 21
305.95622684072049
  0
LINE
  8
_0-0_90_FRAME
  6
CONTINUOUS
 62
    4
 10
779.9925252125596
 20
291.95622684072043
 11
1082.4353797292845
 21
291.95622684072043
  0
TEXT
  8
_0-0_90_FRAME
 62
    3
 10
784.97738525463967
 20
309.20097788926421
 40
5.9999999999999991
 41
1
 50
0
  1
111
  0
TEXT
  8
_0-0_90_FRAME
 62
    7
 10
980.68706284715381
 20
259.5346014094273
 40
8
 41
1
 50
0
  1
脱水機 部品図
  0
TEXT
  8
_0-0_90_FRAME
 62
    7
 10
853.53126062725266
 20
259.24754625049866
 40
6.4000000000000004
 41
0.9000000000000001
 50
0
  1
有機性汚泥燃料施設
  0
TEXT
  8
_0-0_90_FRAME
 62
    3
 10
970.79013979886167
 20
309.30157715621704
 40
5.9999999999999991
 41
1
 50
0
  1
1
  0
TEXT
  8
_0-0_90_FRAME
 62
    3
 10
927.39622666200069
 20
309.43490976174098
 40
5.9999999999999991
 41
1
 50
0
  1
SUS304
  0
TEXT
  8
_0-0_90_FRAME
 62
    3
 10
810.7463011516694
 20
309.35532500285137
 40
5.9999999999999991
 41
1
 50
0
  1
回り止め金具
  0
LINE
  8
_0-3_05_CENTER
  6
CENTER2
 62
    4
 10
472.81780093226661
 20
541.22023094192309
 11
500.1871667782699
 21
541.22023094192309
  0
CIRCLE
  8
_0-4_0
  6
CONTINUOUS
 62
   18
 10
486.50248385526459
 20
541.22023094192309
 40
8.25
  0
LINE
  8
_0-3_05_CENTER
  6
CENTER2
 62
    4
 10
486.50248385526459
 20
554.90491386492647
 11
486.50248385526459
 21
527.53554801892005
  0
LINE
  8
_0-3_05_CENTER
  6
CENTER2
 62
    4
 10
603.81780093226655
 20
430.22023094192309
 11
631.1871667782699
 21
430.22023094192309
  0
CIRCLE
  8
_0-4_0
  6
CONTINUOUS
 62
   18
 10
617.50248385526459
 20
430.22023094192309
 40
9
  0
LINE
  8
_0-3_05_CENTER
  6
CENTER2
 62
    4
 10
617.50248385526459
 20
443.90491386492613
 11
617.50248385526459
 21
416.53554801892011
  0
LINE
  8
_0-3_05_CENTER
  6
CENTER2
 62
    4
 10
403.81780093225927
 20
430.22023094192309
 11
431.1871667782699
 21
430.22023094192309
  0
CIRCLE
  8
_0-4_0
  6
CONTINUOUS
 62
   18
 10
417.50248385526459
 20
430.22023094192309
 40
9
  0
LINE
  8
_0-3_05_CENTER
  6
CENTER2
 62
    4
 10
417.50248385526459
 20
443.90491386492613
 11
417.50248385526459
 21
416.53554801892011
  0
ARC
  8
_0-4_0
  6
CONTINUOUS
 62
   18
 10
486.50248385526459
 20
361.22023094192303
 40
60
 50
58.211669380393694
 51
121.78833061960631
  0
LINE
  8
_0-4_0
  6
CONTINUOUS
 62
   18
 10
617.50248385526459
 20
412.22023094190848
 11
518.10944511602531
 21
412.22023094055743
  0
LINE
  8
_0-4_0
  6
CONTINUOUS
 62
   18
 10
454.89552259450386
 20
412.22023094055743
 11
417.50248385526459
 21
412.22023094192303
  0
LINE
  8
_0-3_05_CENTER
  6
CENTER2
 62
    4
 10
482.5942841445659
 20
361.22023094028276
 11
490.41068356696741
 21
361.22023094028276
  0
LINE
  8
_0-3_05_CENTER
  6
CENTER2
 62
    4
 10
486.50248385576657
 20
357.31203122908209
 11
486.50248385526459
 21
527.53554801892005
  0
ARC
  8
_0-4_0
  6
CONTINUOUS
 62
   18
 10
617.50248385526459
 20
430.22023094190484
 40
18
 50
270
 51
49.057055114993602
  0
ARC
  8
_0-4_0
  6
CONTINUOUS
 62
   18
 10
417.50248385526459
 20
430.22023094192309
 40
18
 50
149.01082165855209
 51
269.99999999791561
  0
ARC
  8
_0-4_0
  6
CONTINUOUS
 62
   18
 10
486.50248385526459
 20
541.22023094192309
 40
20
 50
49.057055114993602
 51
149.01082165855209
  0
LINE
  8
_0-5_04_HIDDEN
  6
CONTINUOUS
 62
    7
 10
629.29801281315406
 20
443.81675610841847
 11
624.2221949669339
 21
448.22023094164109
  0
LINE
  8
_0-4_0
  6
CONTINUOUS
 62
   18
 10
469.35719260542936
 20
551.51775433146395
 11
407.31632974180059
 21
448.22023094164138
  0
LINE
  8
_0-4_0
  6
CONTINUOUS
 62
   18
 10
624.2221949669339
 20
448.22023094164109
 11
499.60862714181081
 21
556.32748112693798
  0
LINE
  8
_0-4_0
  6
CONTINUOUS
 62
   18
 10
407.31632974180059
 20
448.22023094164138
 11
402.07172173040556
 21
439.48800199250991
  0
LINE
  8
_0-4_0
  6
CONTINUOUS
 62
   18
 10
882.46558300680692
 20
494.21229837077135
 11
837.4655830030307
 21
494.21229837077135
  0
LINE
  8
_0-4_0
  6
CONTINUOUS
 62
   18
 10
837.4655830030307
 20
494.21229837077135
 11
837.4655830030307
 21
563.21229837128158
  0
LINE
  8
_0-4_0
  6
CONTINUOUS
 62
   18
 10
837.4655830030307
 20
563.21229837128158
 11
857.4655830030307
 21
563.21229837128158
  0
LINE
  8
_0-4_0
  6
CONTINUOUS
 62
   18
 10
857.4655830030307
 20
563.21229837128158
 11
857.4655830030307
 21
514.21229837077135
  0
LINE
  8
_0-5_04_HIDDEN
  6
CONTINUOUS
 62
    7
 10
872.46558300297977
 20
494.21229836397373
 11
872.46558300297977
 21
514.21229836398822
  0
LINE
  8
_0-5_04_HIDDEN
  6
CONTINUOUS
 62
    7
 10
871.46558300297977
 20
494.21229836397373
 11
871.46558300297977
 21
514.21229836398822
  0
LINE
  8
_0-5_04_HIDDEN
  6
CONTINUOUS
 62
    7
 10
862.46558300297977
 20
494.21229836397373
 11
862.46558300297977
 21
514.21229836398822
  0
LINE
  8
_0-5_04_HIDDEN
  6
CONTINUOUS
 62
    7
 10
863.46558300297977
 20
494.21229836397373
 11
863.46558300297977
 21
514.21229836398822
  0
LINE
  8
_0-3_05_CENTER
  6
CENTER2
 62
    4
 10
867.46558300680692
 20
490.12650805661809
 11
867.46558300680692
 21
518.29808868185046
  0
LINE
  8
_0-4_0
  6
CONTINUOUS
 62
   18
 10
857.4655830030307
 20
514.21229837077135
 11
882.46558300680692
 21
514.21229837077135
  0
LINE
  8
_0-4_0
  6
CONTINUOUS
 62
   18
 10
882.46558300680692
 20
514.21229837077135
 11
882.46558300680692
 21
494.2122983753647
  0
LINE
  8
_0-5_04_HIDDEN
  6
CONTINUOUS
 62
    7
 10
837.4655830030307
 20
554.46229837521696
 11
857.46558300547542
 21
554.46229837521696
  0
LINE
  8
_0-5_04_HIDDEN
  6
CONTINUOUS
 62
    7
 10
857.46558300547542
 20
556.21229837521696
 11
837.4655830030307
 21
556.21229837521696
  0
LINE
  8
_0-5_04_HIDDEN
  6
CONTINUOUS
 62
    7
 10
857.46558300547542
 20
541.96229837521696
 11
837.4655830030307
 21
541.96229837521696
  0
LINE
  8
_0-5_04_HIDDEN
  6
CONTINUOUS
 62
    7
 10
837.4655830030307
 20
540.21229837520957
 11
857.46558300547542
 21
540.21229837520957
  0
LINE
  8
_0-3_05_CENTER
  6
CENTER2
 62
    4
 10
832.86546539313622
 20
548.21229837128067
 11
862.05864714112181
 21
548.21229837128067
  0
LINE
  8
_0-4_0
  6
CONTINUOUS
 62
   18
 10
1024.7990872574946
 20
494.21229837077135
 11
954.79908725749476
 21
494.21229837077135
  0
LINE
  8
_0-4_0
  6
CONTINUOUS
 62
   18
 10
954.79908725749476
 20
494.21229837077135
 11
954.79908725749476
 21
562.21229837128067
  0
LINE
  8
_0-4_0
  6
CONTINUOUS
 62
   18
 10
954.79908725749476
 20
562.21229837128067
 11
956.79908725749465
 21
564.21229837128067
  0
LINE
  8
_0-4_0
  6
CONTINUOUS
 62
   18
 10
956.79908725749465
 20
564.21229837128067
 11
1022.7990872574948
 21
564.21229837128067
  0
LINE
  8
_0-4_0
  6
CONTINUOUS
 62
   18
 10
1022.7990872574948
 20
564.21229837128067
 11
1024.7990872574946
 21
562.21229837128067
  0
LINE
  8
_0-4_0
  6
CONTINUOUS
 62
   18
 10
1024.7990872574946
 20
562.21229837128067
 11
1024.7990872574946
 21
494.21229837077135
  0
LINE
  8
_0-4_0
  6
CONTINUOUS
 62
   18
 10
954.79908725749476
 20
514.21229837077135
 11
1024.7990872574946
 21
514.21229837077135
  0
LINE
  8
_0-5_04_HIDDEN
  6
CONTINUOUS
 62
    7
 10
964.79908726132919
 20
494.21229836397561
 11
964.79908726132919
 21
514.21229836399004
  0
LINE
  8
_0-5_04_HIDDEN
  6
CONTINUOUS
 62
    7
 10
965.7990872613293
 20
494.21229836397561
 11
965.7990872613293
 21
514.21229836399004
  0
LINE
  8
_0-5_04_HIDDEN
  6
CONTINUOUS
 62
    7
 10
974.79908726132919
 20
494.21229836397561
 11
974.79908726132919
 21
514.21229836399004
  0
LINE
  8
_0-5_04_HIDDEN
  6
CONTINUOUS
 62
    7
 10
973.79908726132919
 20
494.21229836397561
 11
973.79908726132919
 21
514.21229836399004
  0
LINE
  8
_0-3_05_CENTER
  6
CENTER2
 62
    4
 10
969.79908725750192
 20
490.12650805661991
 11
969.79908725750192
 21
518.29808868185228
  0
LINE
  8
_0-5_04_HIDDEN
  6
CONTINUOUS
 62
    7
 10
1014.7990872536602
 20
494.21229836397561
 11
1014.7990872536602
 21
514.21229836399004
  0
LINE
  8
_0-5_04_HIDDEN
  6
CONTINUOUS
 62
    7
 10
1013.7990872536604
 20
494.21229836397561
 11
1013.7990872536604
 21
514.21229836399004
  0
LINE
  8
_0-5_04_HIDDEN
  6
CONTINUOUS
 62
    7
 10
1004.7990872536604
 20
494.21229836397561
 11
1004.7990872536604
 21
514.21229836399004
  0
LINE
  8
_0-5_04_HIDDEN
  6
CONTINUOUS
 62
    7
 10
1005.7990872536603
 20
494.21229836397561
 11
1005.7990872536603
 21
514.21229836399004
  0
LINE
  8
_0-3_05_CENTER
  6
CENTER2
 62
    4
 10
1009.7990872574874
 20
490.12650805661991
 11
1009.7990872574874
 21
518.29808868185228
  0
INSERT
  2
-001-M16Tz_1_1
  8
_0-4_0
 10
969.79908725707276
 20
548.21229837128067
 41
-1
 42
1
 50
0
  0
LINE
  8
_0-4_0
  6
CONTINUOUS
 62
   18
 10
954.79908725749476
 20
672.45021170824555
 11
1024.7990872574946
 21
672.45021170824555
  0
LINE
  8
_0-4_0
  6
CONTINUOUS
 62
   18
 10
1024.7990872574946
 20
672.45021170824555
 11
1024.7990872574946
 21
629.45021170824555
  0
LINE
  8
_0-4_0
  6
CONTINUOUS
 62
   18
 10
1024.7990872574946
 20
629.45021170824555
 11
1022.7990872574948
 21
627.45021170824566
  0
LINE
  8
_0-4_0
  6
CONTINUOUS
 62
   18
 10
1022.7990872574948
 20
627.45021170824566
 11
956.79908725749465
 21
627.45021170824566
  0
LINE
  8
_0-4_0
  6
CONTINUOUS
 62
   18
 10
956.79908725749465
 20
627.45021170824566
 11
954.79908725749476
 21
629.45021170824555
  0
LINE
  8
_0-4_0
  6
CONTINUOUS
 62
   18
 10
954.79908725749476
 20
629.45021170824555
 11
954.79908725749476
 21
672.45021170824555
  0
LINE
  8
_0-4_0
  6
CONTINUOUS
 62
   18
 10
1024.7990872574946
 20
652.45021170824555
 11
954.79908725749476
 21
652.45021170824555
  0
INSERT
  2
-002-M10Tz_1_1
  8
_0-4_0
 10
969.79908725750192
 20
642.45021170930067
 41
1
 42
1
 50
180
  0
INSERT
  2
-002-M10Tz_1_1
  8
_0-4_0
 10
1009.7990872574874
 20
642.45021170930067
 41
1
 42
1
 50
180
  0
LINE
  8
_0-5_04_HIDDEN
  6
CONTINUOUS
 62
    7
 10
976.04908726143833
 20
672.45021170929044
 11
976.04908726143833
 21
652.45021170684572
  0
LINE
  8
_0-5_04_HIDDEN
  6
CONTINUOUS
 62
    7
 10
977.79908726143822
 20
652.45021170684572
 11
977.79908726143822
 21
672.45021170929044
  0
LINE
  8
_0-5_04_HIDDEN
  6
CONTINUOUS
 62
    7
 10
963.54908726143822
 20
652.45021170684572
 11
963.54908726143822
 21
672.45021170929044
  0
LINE
  8
_0-5_04_HIDDEN
  6
CONTINUOUS
 62
    7
 10
961.79908726143105
 20
672.45021170929044
 11
961.79908726143105
 21
652.45021170684572
  0
LINE
  8
_0-3_05_CENTER
  6
CENTER2
 62
    4
 10
969.79908725750192
 20
677.06728719780313
 11
969.79908725750192
 21
647.87410544981776
  0
LINE
  8
_0-4_0
  6
CONTINUOUS
 62
   18
 10
732.23794377557454
 20
412.22023094457336
 11
723.23794377557454
 21
412.22023094457427
  0
LINE
  8
_0-4_0
  6
CONTINUOUS
 62
   18
 10
723.23794377557454
 20
412.22023094457427
 11
723.23794377557454
 21
561.22023094457336
  0
LINE
  8
_0-4_0
  6
CONTINUOUS
 62
   18
 10
723.23794377557454
 20
561.22023094457336
 11
732.23794377557454
 21
561.22023094457336
  0
LINE
  8
_0-4_0
  6
CONTINUOUS
 62
   18
 10
732.23794377557454
 20
561.22023094457336
 11
732.23794377557454
 21
412.22023094457336
  0
LINE
  8
_0-3_05_CENTER
  6
CENTER2
 62
    4
 10
717.02513228623241
 20
430.22023094593936
 11
738.5877025051459
 21
430.22023094593936
  0
LINE
  8
_0-3_05_CENTER
  6
CENTER2
 62
    4
 10
717.02513228623241
 20
541.22023094593567
 11
738.5877025051459
 21
541.22023094593567
  0
LINE
  8
_0-5_04_HIDDEN
  6
CONTINUOUS
 62
    7
 10
723.23794377557454
 20
439.22023094593936
 11
732.23794377557454
 21
439.22023094593936
  0
LINE
  8
_0-5_04_HIDDEN
  6
CONTINUOUS
 62
    7
 10
723.23794377557454
 20
421.22023094593942
 11
732.23794377557454
 21
421.22023094593942
  0
LINE
  8
_0-5_04_HIDDEN
  6
CONTINUOUS
 62
    7
 10
723.23794377557454
 20
532.97023095074701
 11
732.23794377557454
 21
532.97023095074701
  0
LINE
  8
_0-5_04_HIDDEN
  6
CONTINUOUS
 62
    7
 10
723.23794377557454
 20
549.47023095074701
 11
732.23794377557454
 21
549.47023095074701
  0
LINE
  8
_0-4_0
  6
CONTINUOUS
 62
   18
 10
635.50248385662519
 20
606.35169707554223
 11
399.50248385662519
 21
606.35169707554223
  0
LINE
  8
_0-4_0
  6
CONTINUOUS
 62
   18
 10
399.50248385662519
 20
606.35169707554223
 11
399.50248385662519
 21
615.35169707554223
  0
LINE
  8
_0-4_0
  6
CONTINUOUS
 62
   18
 10
399.50248385662519
 20
615.35169707554223
 11
635.50248385662519
 21
615.35169707554223
  0
LINE
  8
_0-4_0
  6
CONTINUOUS
 62
   18
 10
635.50248385662519
 20
615.35169707554223
 11
635.50248385662519
 21
606.35169707554223
  0
LINE
  8
_0-3_05_CENTER
  6
CENTER2
 62
    4
 10
617.50248385526459
 20
600.13888558619999
 11
617.50248385526459
 21
621.70145580511371
  0
LINE
  8
_0-3_05_CENTER
  6
CENTER2
 62
    4
 10
417.50248385526459
 20
600.13888558619999
 11
417.50248385526459
 21
621.70145580511371
  0
LINE
  8
_0-3_05_CENTER
  6
CENTER2
 62
    4
 10
486.50248385526459
 20
600.13888558619999
 11
486.50248385526459
 21
621.70145580511371
  0
LINE
  8
_0-5_04_HIDDEN
  6
CONTINUOUS
 62
    7
 10
626.50248385526459
 20
606.35169707554223
 11
626.50248385526459
 21
615.35169707554223
  0
LINE
  8
_0-5_04_HIDDEN
  6
CONTINUOUS
 62
    7
 10
608.50248385526459
 20
606.35169707554223
 11
608.50248385526459
 21
615.35169707554223
  0
LINE
  8
_0-5_04_HIDDEN
  6
CONTINUOUS
 62
    7
 10
426.50248385526459
 20
606.35169707554223
 11
426.50248385526459
 21
615.35169707554223
  0
LINE
  8
_0-5_04_HIDDEN
  6
CONTINUOUS
 62
    7
 10
408.50248385526459
 20
606.35169707554223
 11
408.50248385526459
 21
615.35169707554223
  0
LINE
  8
_0-5_04_HIDDEN
  6
CONTINUOUS
 62
    7
 10
478.25248385933185
 20
606.35169707554223
 11
478.25248385933185
 21
615.35169707554223
  0
LINE
  8
_0-5_04_HIDDEN
  6
CONTINUOUS
 62
    7
 10
494.75248385933185
 20
606.35169707554223
 11
494.75248385933185
 21
615.35169707554223
  0
LINE
  8
_0-2_08_DIM
  6
CONTINUOUS
 62
    3
 10
823.03037738764363
 20
659.12502207193302
 11
901.33121883844683
 21
659.12502207193302
  0
INSERT
  2
-003-p1ba01
  8
_0-2_08_DIM
 10
839.7364920644934
 20
661.50945839825272
 41
3
 42
3
 50
0
  0
INSERT
  2
-004-p1ba02
  8
_0-2_08_DIM
 10
866.49972321685766
 20
661.50945839825272
 41
3
 42
3
 50
0
  0
TEXT
  8
_0-6_07_TEXT
 62
    3
 10
853.0425929666095
 20
661.28372273199102
 40
9
 41
1
 50
0
  1
(   )
  0
INSERT
  2
-004-p1ba02
  8
_0-2_08_DIM
 10
897.82501798397266
 20
494.21229837536606
 41
2
 42
2
 50
180
  0
TEXT
  8
_0-2_08_DIM
 62
    3
 10
384.63681439468041
 20
647.3492865459109
 40
9
 41
1
 50
0
  1
レーザーカット可
  0
INSERT
  2
-005-AM_BALLOON1
  8
_0-2_08_DIM
 10
367.74961964896113
 20
659.13500936783657
 41
2.5
 42
2.5
 50
0
  0
TEXT
  8
_0-4_0
 62
    7
 10
356.49961964896113
 20
655.38500936783657
 40
7.5
 41
1
 50
0
  1
110
  0
LINE
  8
_0-2_08_DIM
  6
CONTINUOUS
 62
    3
 10
485.25248385526453
 20
561.22023094192309
 11
369.86661406100137
 21
561.22023094192309
  0
LINE
  8
_0-2_08_DIM
  6
CONTINUOUS
 62
    3
 10
416.25248385526453
 20
412.22023094192303
 11
369.86661406100131
 21
412.22023094192303
  0
LINE
  8
_0-2_08_DIM
  6
CONTINUOUS
 62
    3
 10
372.36661406100137
 20
556.22023094192309
 11
372.36661406100137
 21
417.22023094192309
  0
INSERT
  2
-006-_Open30
  8
_0-2_08_DIM
 10
372.36661406100137
 20
561.22023094192309
 41
5
 42
5
 50
90
  0
INSERT
  2
-006-_Open30
  8
_0-2_08_DIM
 10
372.36661406100131
 20
412.22023094192303
 41
5
 42
5
 50
270
  0
LINE
  8
_0-2_08_DIM
  6
CONTINUOUS
 62
    3
 10
837.4655830030307
 20
493.02282373965591
 11
837.4655830030307
 21
472.28953643439826
  0
LINE
  8
_0-2_08_DIM
  6
CONTINUOUS
 62
    3
 10
882.46558300680692
 20
492.96229837077129
 11
882.46558300680692
 21
472.28953643439826
  0
LINE
  8
_0-2_08_DIM
  6
CONTINUOUS
 62
    3
 10
842.4655830030307
 20
474.78953643439831
 11
877.46558300680681
 21
474.78953643439831
  0
INSERT
  2
-006-_Open30
  8
_0-2_08_DIM
 10
837.4655830030307
 20
474.78953643439831
 41
5
 42
5
 50
180
  0
INSERT
  2
-006-_Open30
  8
_0-2_08_DIM
 10
882.46558300680692
 20
474.78953643439831
 41
5
 42
5
 50
0
  0
LINE
  8
_0-2_08_DIM
  6
CONTINUOUS
 62
    3
 10
960.20803644610646
 20
642.45021170928601
 11
934.92284100674351
 21
642.45021170928601
  0
LINE
  8
_0-2_08_DIM
  6
CONTINUOUS
 62
    3
 10
953.54908725749476
 20
672.45021170824555
 11
934.92284100674351
 21
672.45021170824555
  0
LINE
  8
_0-2_08_DIM
  6
CONTINUOUS
 62
    3
 10
937.42284100674362
 20
647.45021170928612
 11
937.42284100674362
 21
667.45021170824566
  0
INSERT
  2
-006-_Open30
  8
_0-2_08_DIM
 10
937.42284100674362
 20
642.45021170928601
 41
5
 42
5
 50
270
  0
INSERT
  2
-006-_Open30
  8
_0-2_08_DIM
 10
937.42284100674362
 20
672.45021170824555
 41
5
 42
5
 50
90
  0
LINE
  8
_0-2_08_DIM
  6
CONTINUOUS
 62
    3
 10
883.71558300680704
 20
494.21229837536606
 11
908.44094192531975
 21
494.212298375366
  0
LINE
  8
_0-2_08_DIM
  6
CONTINUOUS
 62
    3
 10
883.71558300680704
 20
514.21229837077135
 11
908.44094192531975
 21
514.21229837077124
  0
LINE
  8
_0-2_08_DIM
  6
CONTINUOUS
 62
    3
 10
905.94094192531998
 20
499.21229837536612
 11
905.94094192531998
 21
509.21229837077124
  0
INSERT
  2
-006-_Open30
  8
_0-2_08_DIM
 10
905.94094192531998
 20
494.212298375366
 41
5
 42
5
 50
270
  0
INSERT
  2
-006-_Open30
  8
_0-2_08_DIM
 10
905.94094192531998
 20
514.21229837077124
 41
5
 42
5
 50
90
  0
LINE
  8
_0-2_08_DIM
  6
CONTINUOUS
 62
    3
 10
486.50248385525015
 20
541.22023094192662
 11
479.96707410661793
 21
554.72165380832587
  0
LINE
  8
_0-2_08_DIM
  6
CONTINUOUS
 62
    3
 10
477.78860419040649
 20
559.22212809712732
 11
470.23752819784767
 21
574.82180340336049
  0
LINE
  8
_0-2_08_DIM
  6
CONTINUOUS
 62
    3
 10
470.23752819784767
 20
574.82180340336049
 11
453.98752819784767
 21
574.82180340336049
  0
INSERT
  2
-006-_Open30
  8
_0-2_08_DIM
 10
477.78860419040649
 20
559.22212809712732
 41
5
 42
5
 50
115.82946133170702
  0
LINE
  8
_0-2_08_DIM
  6
CONTINUOUS
 62
    3
 10
954.79908725749476
 20
563.46229837128067
 11
954.79908725749476
 21
594.19215215956194
  0
LINE
  8
_0-2_08_DIM
  6
CONTINUOUS
 62
    3
 10
1024.7990872574946
 20
563.46229837128067
 11
1024.7990872574946
 21
594.19215215956194
  0
LINE
  8
_0-2_08_DIM
  6
CONTINUOUS
 62
    3
 10
959.79908725749465
 20
591.69215215956206
 11
1019.7990872574948
 21
591.69215215956206
  0
INSERT
  2
-006-_Open30
  8
_0-2_08_DIM
 10
954.79908725749476
 20
591.69215215956206
 41
5
 42
5
 50
180
  0
INSERT
  2
-006-_Open30
  8
_0-2_08_DIM
 10
1024.7990872574946
 20
591.69215215956206
 41
5
 42
5
 50
0
  0
LINE
  8
_0-2_08_DIM
  6
CONTINUOUS
 62
    3
 10
617.50248385526459
 20
415.28554801892142
 11
617.50248385526459
 21
381.55411356975014
  0
LINE
  8
_0-2_08_DIM
  6
CONTINUOUS
 62
    3
 10
417.50248385526459
 20
415.28554801892142
 11
417.50248385526459
 21
381.55411356975014
  0
LINE
  8
_0-2_08_DIM
  6
CONTINUOUS
 62
    3
 10
612.50248385526459
 20
384.05411356975014
 11
422.50248385526459
 21
384.05411356975014
  0
INSERT
  2
-006-_Open30
  8
_0-2_08_DIM
 10
617.50248385526459
 20
384.05411356975014
 41
5
 42
5
 50
0
  0
INSERT
  2
-006-_Open30
  8
_0-2_08_DIM
 10
417.50248385526459
 20
384.05411356975014
 41
5
 42
5
 50
180
  0
LINE
  8
_0-2_08_DIM
  6
CONTINUOUS
 62
    3
 10
501.43716677826984
 20
541.22023094192309
 11
679.62424267801646
 21
541.22023094192298
  0
LINE
  8
_0-2_08_DIM
  6
CONTINUOUS
 62
    3
 10
632.4371667782699
 20
430.22023094192309
 11
679.62424267801646
 21
430.22023094192309
  0
LINE
  8
_0-2_08_DIM
  6
CONTINUOUS
 62
    3
 10
677.12424267801646
 20
536.22023094192298
 11
677.12424267801646
 21
435.22023094192303
  0
INSERT
  2
-006-_Open30
  8
_0-2_08_DIM
 10
677.12424267801646
 20
541.22023094192298
 41
5
 42
5
 50
90
  0
INSERT
  2
-006-_Open30
  8
_0-2_08_DIM
 10
677.12424267801646
 20
430.22023094192309
 41
5
 42
5
 50
270
  0
LINE
  8
_0-2_08_DIM
  6
CONTINUOUS
 62
    3
 10
723.23794377120169
 20
410.97023094055885
 11
723.23794377120169
 21
386.92800285969906
  0
LINE
  8
_0-2_08_DIM
  6
CONTINUOUS
 62
    3
 10
732.23794377120169
 20
410.97023094055885
 11
732.23794377120169
 21
386.92800285969906
  0
LINE
  8
_0-2_08_DIM
  6
CONTINUOUS
 62
    3
 10
718.23794377120169
 20
389.42800285969906
 11
713.23794377120169
 21
389.42800285969906
  0
LINE
  8
_0-2_08_DIM
  6
CONTINUOUS
 62
    3
 10
737.23794377120169
 20
389.42800285969906
 11
742.23794377120169
 21
389.42800285969906
  0
LINE
  8
_0-2_08_DIM
  6
CONTINUOUS
 62
    3
 10
723.23794377120169
 20
389.42800285969906
 11
732.23794377120169
 21
389.42800285969906
  0
INSERT
  2
-006-_Open30
  8
_0-2_08_DIM
 10
723.23794377120169
 20
389.42800285969906
 41
5
 42
5
 50
0
  0
INSERT
  2
-006-_Open30
  8
_0-2_08_DIM
 10
732.23794377120169
 20
389.42800285969906
 41
5
 42
5
 50
180
  0
LINE
  8
_0-2_08_DIM
  6
CONTINUOUS
 62
    3
 10
837.4655830030307
 20
564.46229837128067
 11
837.4655830030307
 21
581.32651890314105
  0
LINE
  8
_0-2_08_DIM
  6
CONTINUOUS
 62
    3
 10
857.4655830030307
 20
564.46229837128067
 11
857.4655830030307
 21
581.32651890314105
  0
LINE
  8
_0-2_08_DIM
  6
CONTINUOUS
 62
    3
 10
842.4655830030307
 20
578.82651890314105
 11
852.4655830030307
 21
578.82651890314105
  0
INSERT
  2
-006-_Open30
  8
_0-2_08_DIM
 10
837.4655830030307
 20
578.82651890314105
 41
5
 42
5
 50
180
  0
INSERT
  2
-006-_Open30
  8
_0-2_08_DIM
 10
857.4655830030307
 20
578.82651890314105
 41
5
 42
5
 50
0
  0
LINE
  8
_0-2_08_DIM
  6
CONTINUOUS
 62
    3
 10
954.79908725749476
 20
563.46229837128067
 11
954.79908725749476
 21
580.11485800725222
  0
LINE
  8
_0-2_08_DIM
  6
CONTINUOUS
 62
    3
 10
969.79908725707503
 20
564.27528700040079
 11
969.79908725707503
 21
580.11485800725222
  0
LINE
  8
_0-2_08_DIM
  6
CONTINUOUS
 62
    3
 10
959.79908725749465
 20
577.61485800725222
 11
964.79908725707492
 21
577.61485800725222
  0
INSERT
  2
-006-_Open30
  8
_0-2_08_DIM
 10
954.79908725749476
 20
577.61485800725222
 41
5
 42
5
 50
180
  0
INSERT
  2
-006-_Open30
  8
_0-2_08_DIM
 10
969.79908725707503
 20
577.61485800725222
 41
5
 42
5
 50
0
  0
LINE
  8
_0-2_08_DIM
  6
CONTINUOUS
 62
    3
 10
953.73609862795479
 20
548.21229837128067
 11
933.18418953115827
 21
548.21229837128067
  0
LINE
  8
_0-2_08_DIM
  6
CONTINUOUS
 62
    3
 10
953.54908725749476
 20
494.21229837077135
 11
933.18418953115827
 21
494.21229837077135
  0
LINE
  8
_0-2_08_DIM
  6
CONTINUOUS
 62
    3
 10
935.68418953115815
 20
543.21229837128067
 11
935.68418953115815
 21
499.21229837077135
  0
INSERT
  2
-006-_Open30
  8
_0-2_08_DIM
 10
935.68418953115815
 20
548.21229837128067
 41
5
 42
5
 50
90
  0
INSERT
  2
-006-_Open30
  8
_0-2_08_DIM
 10
935.68418953115815
 20
494.21229837077135
 41
5
 42
5
 50
270
  0
LINE
  8
_0-2_08_DIM
  6
CONTINUOUS
 62
    3
 10
955.54908725749476
 20
564.21229837128067
 11
919.12629649184885
 21
564.21229837128067
  0
LINE
  8
_0-2_08_DIM
  6
CONTINUOUS
 62
    3
 10
953.54908725749476
 20
494.21229837077135
 11
919.12629649184885
 21
494.21229837077135
  0
LINE
  8
_0-2_08_DIM
  6
CONTINUOUS
 62
    3
 10
921.62629649184873
 20
559.21229837128067
 11
921.62629649184873
 21
499.21229837077135
  0
INSERT
  2
-006-_Open30
  8
_0-2_08_DIM
 10
921.62629649184873
 20
564.21229837128067
 41
5
 42
5
 50
90
  0
INSERT
  2
-006-_Open30
  8
_0-2_08_DIM
 10
921.62629649184873
 20
494.21229837077135
 41
5
 42
5
 50
270
  0
LINE
  8
_0-2_08_DIM
  6
CONTINUOUS
 62
    3
 10
969.79908725750192
 20
632.85916089789043
 11
969.79908725750192
 21
612.63531136050096
  0
LINE
  8
_0-2_08_DIM
  6
CONTINUOUS
 62
    3
 10
1009.7990872574874
 20
632.85916089789043
 11
1009.7990872574874
 21
612.63531136050096
  0
LINE
  8
_0-2_08_DIM
  6
CONTINUOUS
 62
    3
 10
974.79908725750204
 20
615.13531136050096
 11
1004.7990872574875
 21
615.13531136050096
  0
INSERT
  2
-006-_Open30
  8
_0-2_08_DIM
 10
969.79908725750192
 20
615.13531136050096
 41
5
 42
5
 50
180
  0
INSERT
  2
-006-_Open30
  8
_0-2_08_DIM
 10
1009.7990872574874
 20
615.13531136050096
 41
5
 42
5
 50
0
  0
LINE
  8
_0-2_08_DIM
  6
CONTINUOUS
 62
    3
 10
417.50248385526459
 20
415.28554801892142
 11
417.50248385526459
 21
342.20828922546906
  0
LINE
  8
_0-2_08_DIM
  6
CONTINUOUS
 62
    3
 10
486.50248385576657
 20
356.06203122908204
 11
486.50248385576657
 21
342.20828922546906
  0
LINE
  8
_0-2_08_DIM
  6
CONTINUOUS
 62
    3
 10
422.50248385526459
 20
344.70828922546912
 11
481.50248385576668
 21
344.70828922546912
  0
INSERT
  2
-006-_Open30
  8
_0-2_08_DIM
 10
417.50248385526459
 20
344.70828922546912
 41
5
 42
5
 50
180
  0
INSERT
  2
-006-_Open30
  8
_0-2_08_DIM
 10
486.50248385576657
 20
344.70828922546912
 41
5
 42
5
 50
0
  0
LINE
  8
_0-2_08_DIM
  6
CONTINUOUS
 62
    3
 10
491.66068356696735
 20
361.22023094028276
 11
679.62424267801646
 21
361.22023094028276
  0
LINE
  8
_0-2_08_DIM
  6
CONTINUOUS
 62
    3
 10
632.4371667782699
 20
430.22023094192309
 11
679.62424267801646
 21
430.22023094192309
  0
LINE
  8
_0-2_08_DIM
  6
CONTINUOUS
 62
    3
 10
677.12424267801646
 20
366.22023094028276
 11
677.12424267801646
 21
425.22023094192298
  0
INSERT
  2
-006-_Open30
  8
_0-2_08_DIM
 10
677.12424267801646
 20
361.22023094028276
 41
5
 42
5
 50
270
  0
INSERT
  2
-006-_Open30
  8
_0-2_08_DIM
 10
677.12424267801646
 20
430.22023094192309
 41
5
 42
5
 50
90
  0
LINE
  8
_0-2_08_DIM
  6
CONTINUOUS
 62
    3
 10
486.50248385527163
 20
361.2202309419211
 11
501.95783608683115
 21
414.00405504929745
  0
LINE
  8
_0-2_08_DIM
  6
CONTINUOUS
 62
    3
 10
503.36286810788192
 20
418.80258451360447
 11
506.86766826291307
 21
430.77233791313586
  0
LINE
  8
_0-2_08_DIM
  6
CONTINUOUS
 62
    3
 10
506.86766826291307
 20
430.77233791313586
 11
523.11766826291307
 21
430.77233791313586
  0
INSERT
  2
-006-_Open30
  8
_0-2_08_DIM
 10
503.36286810788192
 20
418.80258451360447
 41
5
 42
5
 50
73.679720768128163
  0
LINE
  8
_0-2_08_DIM
  6
CONTINUOUS
 62
    3
 10
635.50248385526459
 20
431.47023094192303
 11
635.50248385526459
 21
468.60960005791026
  0
LINE
  8
_0-2_08_DIM
  6
CONTINUOUS
 62
    3
 10
399.50248385526459
 20
431.47023094192303
 11
399.50248385526459
 21
468.60960005791026
  0
LINE
  8
_0-2_08_DIM
  6
CONTINUOUS
 62
    3
 10
630.50248385526459
 20
466.1096000579102
 11
404.50248385526459
 21
466.1096000579102
  0
INSERT
  2
-006-_Open30
  8
_0-2_08_DIM
 10
635.50248385526459
 20
466.1096000579102
 41
5
 42
5
 50
0
  0
INSERT
  2
-006-_Open30
  8
_0-2_08_DIM
 10
399.50248385526459
 20
466.1096000579102
 41
5
 42
5
 50
180
  0
LINE
  8
_0-2_08_DIM
  6
CONTINUOUS
 62
    3
 10
486.50248385576657
 20
356.06203122908204
 11
486.50248385576657
 21
342.20828922546906
  0
LINE
  8
_0-2_08_DIM
  6
CONTINUOUS
 62
    3
 10
617.50248385526459
 20
415.28554801892
 11
617.50248385526459
 21
342.20828922546906
  0
LINE
  8
_0-2_08_DIM
  6
CONTINUOUS
 62
    3
 10
491.50248385576663
 20
344.70828922546912
 11
612.50248385526459
 21
344.70828922546912
  0
INSERT
  2
-006-_Open30
  8
_0-2_08_DIM
 10
486.50248385576657
 20
344.70828922546912
 41
5
 42
5
 50
180
  0
INSERT
  2
-006-_Open30
  8
_0-2_08_DIM
 10
617.50248385526459
 20
344.70828922546912
 41
5
 42
5
 50
0
  0
LINE
  8
_0-2_08_DIM
  6
CONTINUOUS
 62
    3
 10
541.42464828136201
 20
576.15646215947675
 11
506.37464828136194
 21
576.15646215947675
  0
LINE
  8
_0-2_08_DIM
  6
CONTINUOUS
 62
    3
 10
506.37464828136194
 20
576.15646215947675
 11
493.05359862397745
 21
552.73740921123692
  0
INSERT
  2
-006-_Open30
  8
_0-2_08_DIM
 10
490.58147984333107
 20
548.39130420394883
 41
5.0000000000000009
 42
5.0000000000000009
 50
240.3682406586112
  0
LINE
  8
_0-2_08_DIM
  6
CONTINUOUS
 62
    3
 10
559.46258851479183
 20
393.59106184036477
 11
595.51258851479179
 21
393.59106184036472
  0
LINE
  8
_0-2_08_DIM
  6
CONTINUOUS
 62
    3
 10
595.51258851479179
 20
393.59106184036472
 11
610.29655719111543
 21
418.21712213999797
  0
INSERT
  2
-006-_Open30
  8
_0-2_08_DIM
 10
612.87010242831286
 20
422.50394671211416
 41
5
 42
5
 50
59.021990703947615
  0
LINE
  8
_0-2_08_DIM
  6
CONTINUOUS
 62
    3
 10
922.64370204258455
 20
577.24706444507672
 11
940.89370204258444
 21
577.24706444507672
  0
LINE
  8
_0-2_08_DIM
  6
CONTINUOUS
 62
    3
 10
940.89370204258444
 20
577.24706444507672
 11
960.62724865118469
 21
557.42519023973102
  0
INSERT
  2
-006-_Open30
  8
_0-2_08_DIM
 10
964.15487888438179
 20
553.88177029032715
 41
5
 42
5
 50
314.87205824151704
  0
LINE
  8
_0-2_08_DIM
  6
CONTINUOUS
 62
    3
 10
1054.2625013950371
 20
610.47012245038411
 11
1028.0125013950371
 21
610.47012245038411
  0
LINE
  8
_0-2_08_DIM
  6
CONTINUOUS
 62
    3
 10
1028.0125013950371
 20
610.47012245038411
 11
1014.7479925448022
 21
633.76065841484103
  0
INSERT
  2
-006-_Open30
  8
_0-2_08_DIM
 10
1012.2735399011448
 20
638.10543506206909
 41
5
 42
5
 50
119.6625319379099
  0
LINE
  8
_0-2_08_DIM
  6
CONTINUOUS
 62
    3
 10
1027.3346211634271
 20
566.74783227721355
 11
1048.6271465394186
 21
588.04035765320498
  0
INSERT
  2
-006-_Open30
  8
_0-2_08_DIM
 10
1023.7990872574944
 20
563.21229837128078
 41
5.0000000000000009
 42
5.0000000000000009
 50
224.99999999999997
  0
LINE
  8
_0-2_08_DIM
  6
CONTINUOUS
 62
    3
 10
952.26355335156188
 20
624.91467780231301
 11
931.54023219720239
 21
604.19135664795306
  0
INSERT
  2
-006-_Open30
  8
_0-2_08_DIM
 10
955.79908725749476
 20
628.45021170824577
 41
5
 42
5
 50
45.000000000000107
  0
INSERT
  2
-005-AM_BALLOON1
  8
_0-2_08_DIM
 10
810.51570597969578
 20
659.13500936783657
 41
2.5
 42
2.5
 50
0
  0
TEXT
  8
_0-4_0
 62
    7
 10
800.33713455112434
 20
655.38500936783657
 40
7.5
 41
1
 50
0
  1
111
  0
LINE
  8
_0-2_08_DIM
  6
CONTINUOUS
 62
    3
 10
617.50248385526481
 20
430.22023094190502
 11
627.7895480049018
 21
422.27187820808342
  0
LINE
  8
_0-2_08_DIM
  6
CONTINUOUS
 62
    3
 10
631.7461111393776
 20
419.21481946430578
 11
646.57082339329236
 21
407.76042971252423
  0
LINE
  8
_0-2_08_DIM
  6
CONTINUOUS
 62
    3
 10
646.57082339329236
 20
407.76042971252423
 11
661.82082339329224
 21
407.76042971252423
  0
INSERT
  2
-006-_Open30
  8
_0-2_08_DIM
 10
631.7461111393776
 20
419.21481946430578
 41
5
 42
5
 50
322.30834826088267
  0
LINE
  8
_0-2_08_DIM
  6
CONTINUOUS
 62
    3
 10
417.50248385526447
 20
430.22023094192275
 11
410.31749360307379
 21
419.38621437022039
  0
LINE
  8
_0-2_08_DIM
  6
CONTINUOUS
 62
    3
 10
407.55403581376959
 20
415.21928491956567
 11
392.57786520856473
 21
392.63719714735743
  0
LINE
  8
_0-2_08_DIM
  6
CONTINUOUS
 62
    3
 10
392.57786520856473
 20
392.63719714735743
 11
377.32786520856467
 21
392.63719714735743
  0
INSERT
  2
-006-_Open30
  8
_0-2_08_DIM
 10
407.55403581376959
 20
415.21928491956567
 41
5
 42
5
 50
236.44813824391915
  0
TEXT
  8
_0-6_07_TEXT
 62
    3
 10
951.18885889653257
 20
374.91418005063582
 40
5.9999999999999991
 41
1
 50
0
  1
注記
  0
TEXT
  8
_0-6_07_TEXT
 62
    3
 10
951.66885889653281
 20
363.75618005063586
 40
5.9999999999999991
 41
1
 50
0
  1
　指示なき角部は
  0
TEXT
  8
_0-6_07_TEXT
 62
    3
 10
1016.3188588965328
 20
363.75618005063586
 40
5.9999999999999991
 41
1
 50
0
  1
C0.5
  0
TEXT
  8
_0-6_07_TEXT
 62
    3
 10
1036.6045731822471
 20
363.75618005063586
 40
5.9999999999999991
 41
1
 50
0
  1
のこと
  0
TEXT
  8
_0-2_08_DIM
 62
    3
 10
370.11661406100131
 20
474.14880237049454
 40
5.9999999999999991
 41
1
 50
90
  1
(149)
  0
TEXT
  8
_0-2_08_DIM
 62
    3
 10
854.25129729063303
 20
476.03953643439826
 40
5.9999999999999991
 41
1
 50
0
  1
45
  0
TEXT
  8
_0-2_08_DIM
 62
    3
 10
936.17284100674362
 20
651.73592599448023
 40
5.9999999999999991
 41
1
 50
90
  1
30
  0
TEXT
  8
_0-2_08_DIM
 62
    3
 10
904.69094192531975
 20
498.49801265878307
 40
5.9999999999999991
 41
1
 50
90
  1
20
  0
TEXT
  8
_0-2_08_DIM
 62
    3
 10
452.63038534070478
 20
576.0718034033606
 40
5.9999999999999991
 41
1
 50
0
  1
R20
  0
TEXT
  8
_0-2_08_DIM
 62
    3
 10
984.08480154320887
 20
592.94215215956206
 40
5.9999999999999991
 41
1
 50
0
  1
70
  0
TEXT
  8
_0-2_08_DIM
 62
    3
 10
508.93105528383597
 20
385.30411356975009
 40
5.9999999999999991
 41
1
 50
0
  1
200
  0
TEXT
  8
_0-2_08_DIM
 62
    3
 10
675.87424267801634
 20
477.57737379906598
 40
5.9999999999999991
 41
1
 50
90
  1
111
  0
TEXT
  8
_0-2_08_DIM
 62
    3
 10
725.02365805691602
 20
390.67800285969906
 40
5.9999999999999991
 41
1
 50
0
  1
9
  0
TEXT
  8
_0-2_08_DIM
 62
    3
 10
841.75129728874481
 20
580.07651890314105
 40
5.9999999999999991
 41
1
 50
0
  1
20
  0
TEXT
  8
_0-2_08_DIM
 62
    3
 10
956.15623011442767
 20
578.86485800725211
 40
5.9999999999999991
 41
1
 50
0
  1
15
  0
TEXT
  8
_0-2_08_DIM
 62
    3
 10
934.43418953115838
 20
515.35515551388323
 40
5.9999999999999991
 41
1
 50
90
  1
54
  0
TEXT
  8
_0-2_08_DIM
 62
    3
 10
920.37629649184896
 20
523.49801265674023
 40
5.9999999999999991
 41
1
 50
90
  1
70
  0
TEXT
  8
_0-2_08_DIM
 62
    3
 10
984.08480154320887
 20
616.38531136050096
 40
5.9999999999999991
 41
1
 50
0
  1
40
  0
TEXT
  8
_0-2_08_DIM
 62
    3
 10
442.28819814122994
 20
346.95828922546912
 40
5.9999999999999991
 41
1
 50
0
  1
(69)
  0
TEXT
  8
_0-2_08_DIM
 62
    3
 10
674.87424267801646
 20
386.00594522681723
 40
5.9999999999999991
 41
1
 50
90
  1
(69)
  0
TEXT
  8
_0-2_08_DIM
 62
    3
 10
506.76052540577018
 20
432.0223379131358
 40
5.9999999999999991
 41
1
 50
0
  1
R60
  0
TEXT
  8
_0-2_08_DIM
 62
    3
 10
504.93105528383603
 20
468.3596000579102
 40
5.9999999999999991
 41
1
 50
0
  1
(236)
  0
TEXT
  8
_0-2_08_DIM
 62
    3
 10
543.8596267126585
 20
345.95828922546912
 40
5.9999999999999991
 41
1
 50
0
  1
131
  0
TEXT
  8
_0-2_08_DIM
 62
    3
 10
508.19850542421926
 20
577.74846215947673
 40
5.9999999999999991
 41
1
 50
0
  1
16.5
  0
TEXT
  8
_0-2_08_DIM
 62
    3
 10
528.19850542421909
 20
577.74846215947673
 40
5.9999999999999991
 41
1
 50
0
  1
キリ
  0
TEXT
  8
_0-2_08_DIM
 62
    3
 10
557.17930280050609
 20
395.1830618403647
 40
5.9999999999999991
 41
1
 50
0
  1
2-18
  0
TEXT
  8
_0-2_08_DIM
 62
    3
 10
581.75073137193465
 20
395.1830618403647
 40
5.9999999999999991
 41
1
 50
0
  1
キリ
  0
TEXT
  8
_0-2_08_DIM
 62
    3
 10
920.35798775687044
 20
578.49706444507683
 40
5.9999999999999991
 41
1
 50
0
  1
M16
  0
TEXT
  8
_0-2_08_DIM
 62
    3
 10
1026.0482156807514
 20
611.72012245038411
 40
5.9999999999999991
 41
1
 50
0
  1
2-M10
  0
TEXT
  8
_0-2_08_DIM
 62
    3
 10
1030.292877855796
 20
571.47385592254841
 40
5.9999999999999991
 41
1
 50
44.999999999999844
  1
2-C2
  0
TEXT
  8
_0-2_08_DIM
 62
    3
 10
930.53007965264999
 20
604.94897105636744
 40
5.9999999999999991
 41
1
 50
45.000000000000156
  1
2-C2
  0
TEXT
  8
_0-2_08_DIM
 62
    3
 10
645.96368053614947
 20
409.01042971252429
 40
5.9999999999999991
 41
1
 50
0
  1
R18
  0
TEXT
  8
_0-2_08_DIM
 62
    3
 10
375.47072235142184
 20
393.88719714735737
 40
5.9999999999999991
 41
1
 50
0
  1
R18
  0
TEXT
  8
_0-0_90_FRAME
 62
    3
 10
494.00605237653372
 20
75.103557868077473
 40
5.9999999999999991
 41
1
 50
0
  1
寺田
  0
TEXT
  8
_0-0_90_FRAME
 62
    3
 10
340.7495073817941
 20
75.103557868077473
 40
5.9999999999999991
 41
0.65
 50
0
  1
2013.09.01
  0
TEXT
  8
_0-0_90_FRAME
 62
    3
 10
380.73288207481579
 20
75.103557868077473
 40
5.9999999999999991
 41
1
 50
0
  1
エアー抜き追加
  0
TEXT
  8
_0-8_
 62
    7
 10
631.88459127491979
 20
72.797409724738372
 40
9.6858222020243172
 41
1
 50
0
  1
A3　150%
  0
ENDSEC
  0
EOF
