  0
SECTION
  2
HEADER
  9
$ACADVER
  1
AC1009
  9
$INSBASE
 10
0
 20
0
 30
0
  9
$EXTMIN
 10
0
 20
0
  9
$EXTMAX
 10
1356.0151082834043
 20
958.89639800040732
  9
$LIMMIN
 10
0
 20
0
  9
$LIMMAX
 10
1356.0151082834043
 20
958.89639800040732
  9
$LTSCALE
 40
3.2286074006747723
  0
ENDSEC
  0
SECTION
  2
TABLES
  0
TABLE
  2
LTYPE
 70
     9
  0
LTYPE
  2
CONTINUOUS
 70
    64
  3
実線
 72
    65
 73
     0
 40
0.0
  0
LTYPE
  2
DASHED1
 70
    64
  3
--  --  --  --  --  --  --  --  
 72
    65
 73
     2
 40
2.5
 49
1.25
 49
-1.25
  0
LTYPE
  2
DASHED2
 70
    64
  3
----    ----    ----    ----    
 72
    65
 73
     2
 40
5.0
 49
2.5
 49
-2.5
  0
LTYPE
  2
DASHED3
 70
    64
  3
------  ------  ------  ------  
 72
    65
 73
     2
 40
5.0
 49
3.75
 49
-1.25
  0
LTYPE
  2
CENTER1
 70
    64
  3
----- - ----- - ----- - ----- - 
 72
    65
 73
     4
 40
10.0
 49
6.25
 49
-1.25
 49
1.25
 49
-1.25
  0
LTYPE
  2
CENTER2
 70
    64
  3
----------  --  ----------  --  
 72
    65
 73
     4
 40
20.0
 49
12.5
 49
-2.5
 49
2.5
 49
-2.5
  0
LTYPE
  2
PHANTOM1
 70
    64
  3
--- - - --- - - --- - - --- - - 
 72
    65
 73
     6
 40
10.0
 49
3.25
 49
-1.25
 49
1.25
 49
-1.25
 49
1.25
 49
-1.25
  0
LTYPE
  2
PHANTOM2
 70
    64
  3
--------  -  -  --------  -  -  
 72
    65
 73
     6
 40
20.0
 49
10.0
 49
-2.5
 49
1.25
 49
-2.5
 49
1.25
 49
-2.5
  0
LTYPE
  2
DOT
 70
    64
  3
-   -   -   -   -   -   -   -   
 72
    65
 73
     2
 40
2.5
 49
0.625
 49
-1.875
  0
LTYPE
  2
DUMMY
 70
    64
  3
ダミー
 72
    65
 73
     0
 40
0.0
  0
LTYPE
  2
RAND1
 70
    64
  3
ランダム線1
 72
    65
 73
     4
 40
10.0
 49
1.0
 49
-2.0
 49
3.0
 49
-4.0
  0
LTYPE
  2
RAND2
 70
    64
  3
ランダム線2
 72
    65
 73
     4
 40
14.0
 49
2.0
 49
-3.0
 49
4.0
 49
-5.0
  0
LTYPE
  2
RAND3
 70
    64
  3
ランダム線3
 72
    65
 73
     4
 40
18.0
 49
3.0
 49
-4.0
 49
5.0
 49
-6.0
  0
LTYPE
  2
RAND4
 70
    64
  3
ランダム線4
 72
    65
 73
     4
 40
22.0
 49
4.0
 49
-5.0
 49
6.0
 49
-7.0
  0
LTYPE
  2
RAND5
 70
    64
  3
ランダム線5
 72
    65
 73
     4
 40
26.0
 49
5.0
 49
-6.0
 49
7.0
 49
-8.0
  0
LTYPE
  2
LONG1
 70
    64
  3
----------  --  ----------  --  
 72
    65
 73
     4
 40
40.0
 49
32.5
 49
-2.5
 49
2.5
 49
-2.5
  0
LTYPE
  2
LONG2
 70
    64
  3
--------  -  -  --------  -  -  
 72
    65
 73
     6
 40
40.0
 49
30.0
 49
-2.5
 49
1.25
 49
-2.5
 49
1.25
 49
-2.5
  0
LTYPE
  2
LONG3
 70
    64
  3
+++++++++++++++..+++++++++++++++
 72
    65
 73
     2
 40
40.0
 49
37.5
 49
-2.5
  0
LTYPE
  2
LONG4
 70
    64
  3
+++++++++++++++..+++++++++++++++
 72
    65
 73
     2
 40
80.0
 49
75.0
 49
-5.0
  0
LTYPE
  2
LONG5
 70
    64
  3
----------  --  ----------  --  
 72
    65
 73
     4
 40
60.0
 49
37.5
 49
-7.5
 49
7.5
 49
-7.5
  0
LTYPE
  2
dashed
 70
   64
  3
-------   -------------   ------
 72
   65
 73
    2
 40
7.5
 49
6
 49
-1.5
  0
LTYPE
  2
dashed_spaced
 70
   64
  3
----        --------        ----
 72
   65
 73
    2
 40
12
 49
6
 49
-6
  0
LTYPE
  2
long_dashed_dotted
 70
   64
  3
------------- --- --------------
 72
   65
 73
    4
 40
15.25
 49
12
 49
-1.5
 49
0.25
 49
-1.5
  0
LTYPE
  2
long_dashed_double-dotted
 70
   64
  3
----------- --- --- ------------
 72
   65
 73
    6
 40
17
 49
12
 49
-1.5
 49
0.25
 49
-1.5
 49
0.25
 49
-1.5
  0
LTYPE
  2
long_dashed_triplicate-dotted
 70
   64
  3
--------- --- --- --- ----------
 72
   65
 73
    8
 40
18.75
 49
12
 49
-1.5
 49
0.25
 49
-1.5
 49
0.25
 49
-1.5
 49
0.25
 49
-1.5
  0
LTYPE
  2
dotted
 70
   64
  3
   -       -       -       -    
 72
   65
 73
    2
 40
1.75
 49
0.25
 49
-1.5
  0
LTYPE
  2
chain
 70
   64
  3
-------------- -- --------------
 72
   65
 73
    4
 40
18.5
 49
12
 49
-1.5
 49
3.5
 49
-1.5
  0
LTYPE
  2
chain_double_dash
 70
   64
  3
------------ -- -- -------------
 72
   65
 73
    6
 40
23.5
 49
12
 49
-1.5
 49
3.5
 49
-1.5
 49
3.5
 49
-1.5
  0
LTYPE
  2
dashed_dotted
 70
   64
  3
-----------     -     ----------
 72
   65
 73
    4
 40
9.25
 49
6
 49
-1.5
 49
0.25
 49
-1.5
  0
LTYPE
  2
double-dashed_dotted
 70
   64
  3
------   -----------   -   -----
 72
   65
 73
    6
 40
16.75
 49
6
 49
-1.5
 49
6
 49
-1.5
 49
0.25
 49
-1.5
  0
LTYPE
  2
dashed_double-dotted
 70
   64
  3
---------    -    -    ---------
 72
   65
 73
    6
 40
11
 49
6
 49
-1.5
 49
0.25
 49
-1.5
 49
0.25
 49
-1.5
  0
LTYPE
  2
double-dashed_double-dotted
 70
   64
  3
-----   ---------   -   -   ----
 72
   65
 73
    8
 40
18.5
 49
6
 49
-1.5
 49
6
 49
-1.5
 49
0.25
 49
-1.5
 49
0.25
 49
-1.5
  0
LTYPE
  2
dashed_triplicate-dotted
 70
   64
  3
-------    -    -    -    ------
 72
   65
 73
    8
 40
12.75
 49
6
 49
-1.5
 49
0.25
 49
-1.5
 49
0.25
 49
-1.5
 49
0.25
 49
-1.5
  0
LTYPE
  2
double-dashed_triplicate-dotted
 70
   64
  3
-----  ---------  -  -  -  -----
 72
   65
 73
   10
 40
20.25
 49
6
 49
-1.5
 49
6
 49
-1.5
 49
0.25
 49
-1.5
 49
0.25
 49
-1.5
 49
0.25
 49
-1.5
  0
LTYPE
  2
undefined
 70
   64
  3
--------------------------------
 72
   65
 73
    0
 40
0
  0
LTYPE
  2
_
 70
   64
  3
                                
 72
   65
 73
    0
 40
0
  0
LTYPE
  2
__18
 70
   64
  3
                                
 72
   65
 73
    0
 40
0
  0
LTYPE
  2
__19
 70
   64
  3
                                
 72
   65
 73
    0
 40
0
  0
LTYPE
  2
__20
 70
   64
  3
                                
 72
   65
 73
    0
 40
0
  0
LTYPE
  2
__21
 70
   64
  3
                                
 72
   65
 73
    0
 40
0
  0
LTYPE
  2
__22
 70
   64
  3
                                
 72
   65
 73
    0
 40
0
  0
LTYPE
  2
__23
 70
   64
  3
                                
 72
   65
 73
    0
 40
0
  0
LTYPE
  2
__24
 70
   64
  3
                                
 72
   65
 73
    0
 40
0
  0
LTYPE
  2
__25
 70
   64
  3
                                
 72
   65
 73
    0
 40
0
  0
LTYPE
  2
__26
 70
   64
  3
                                
 72
   65
 73
    0
 40
0
  0
LTYPE
  2
__27
 70
   64
  3
                                
 72
   65
 73
    0
 40
0
  0
LTYPE
  2
__28
 70
   64
  3
                                
 72
   65
 73
    0
 40
0
  0
LTYPE
  2
__29
 70
   64
  3
                                
 72
   65
 73
    0
 40
0
  0
LTYPE
  2
__30
 70
   64
  3
                                
 72
   65
 73
    0
 40
0
  0
LTYPE
  2
__31
 70
   64
  3
                                
 72
   65
 73
    0
 40
0
  0
LTYPE
  2
__32
 70
   64
  3
                                
 72
   65
 73
    0
 40
0
  0
ENDTAB
  0
TABLE
  2
STYLE
  5
3
100
AcDbSymbolTable
 70
     1
  0
STYLE
  5
10
100
AcDbSymbolTableRecord
100
AcDbTextStyleTableRecord
  2
STANDARD
 70
     0
 40
0.0
 41
1.0
 50
0.0
 71
     0
 42
0.2
  3
txt
  4
bigfont.shx
  0
STYLE
  5
26
100
AcDbSymbolTableRecord
100
AcDbTextStyleTableRecord
  2
TATEGAKI
 70
    68
 40
0.0
 41
1.0
 50
0.0
 71
     0
 42
1.0
  3
txt
  4
bigfont.shx
  0
ENDTAB
  0
TABLE
  2
LAYER
 70
   11
  0
LAYER
  2
_0-0_90_FRAME
 70
   64
 62
    7
  6
CONTINUOUS
  0
LAYER
  2
_0-1_91_BLANK
 70
   64
 62
    7
  6
CONTINUOUS
  0
LAYER
  2
_0-2_08_DIM
 70
   64
 62
    7
  6
CONTINUOUS
  0
LAYER
  2
_0-3_0
 70
   64
 62
    7
  6
CONTINUOUS
  0
LAYER
  2
_0-4_05_CENTER
 70
   64
 62
    7
  6
CONTINUOUS
  0
LAYER
  2
_0-5_04_HIDDEN
 70
   64
 62
    7
  6
CONTINUOUS
  0
LAYER
  2
_0-6_07_TEXT
 70
   64
 62
    7
  6
CONTINUOUS
  0
LAYER
  2
_0-7_10_DRAFT
 70
   64
 62
    7
  6
CONTINUOUS
  0
LAYER
  2
_0-8_02_SLIM
 70
   64
 62
    7
  6
CONTINUOUS
  0
LAYER
  2
_0-9_
 70
   64
 62
    7
  6
CONTINUOUS
  0
LAYER
  2
ADD_LINE
 70
   64
 62
    7
  6
CONTINUOUS
  0
ENDTAB
  0
ENDSEC
  0
SECTION
  2
BLOCKS
  0
BLOCK
  2
-000-p1ba05
 70
   64
 10
0
 20
0
 30
0
  0
ARC
  8
_0-2_08_DIM
  6
CONTINUOUS
 62
    3
 10
0
 20
1.6206695983957431
 40
1.6206695983958537
 50
204.22763733453323
 51
335.57577857182139
  0
ARC
  8
_0-2_08_DIM
  6
CONTINUOUS
 62
    3
 10
-2.9535588745990822
 20
0.2854771617432376
 40
1.6206695983958537
 50
24.227637334533135
 51
155.57577857182133
  0
ENDBLK
  0
BLOCK
  2
-001-M10Tz_1_1
 70
   64
 10
0
 20
0
 30
0
  0
CIRCLE
  8
_0-3_0
  6
CONTINUOUS
 62
   18
 10
0
 20
0.0000000000036379
 40
5
  0
LINE
  8
_0-4_05_CENTER
  6
CENTER2
 62
    4
 10
0
 20
-8.3410508113993274
 11
0
 21
8.3410508113993274
  0
CIRCLE
  8
_0-3_0
  6
CONTINUOUS
 62
   18
 10
0
 20
0.0000000000036379
 40
4
  0
LINE
  8
_0-4_05_CENTER
  6
CENTER2
 62
    4
 10
8.3410508113993274
 20
0.0000000000036379
 11
-8.3410508113956876
 21
0.0000000000036379
  0
ENDBLK
  0
BLOCK
  2
-002-p1ba01
 70
   64
 10
0
 20
0
 30
0
  0
LINE
  8
_0-2_08_DIM
  6
CONTINUOUS
 62
    3
 10
0
 20
0
 11
-1.4999999999999998
 21
2.5980762113532592
  0
LINE
  8
_0-2_08_DIM
  6
CONTINUOUS
 62
    3
 10
1.4999999999999998
 20
2.5980762113532592
 11
0
 21
0
  0
LINE
  8
_0-2_08_DIM
  6
CONTINUOUS
 62
    3
 10
-1.4999999999999998
 20
2.5980762113532592
 11
1.4999999999999998
 21
2.5980762113532592
  0
ENDBLK
  0
BLOCK
  2
-003-p1ba02
 70
   64
 10
0
 20
0
 30
0
  0
LINE
  8
_0-2_08_DIM
  6
CONTINUOUS
 62
    3
 10
3.0000000000000142
 20
0
 11
1.5000000000000142
 21
2.5980762113532592
  0
LINE
  8
_0-2_08_DIM
  6
CONTINUOUS
 62
    3
 10
4.5000000000000142
 20
2.5980762113532592
 11
3.0000000000000142
 21
0
  0
LINE
  8
_0-2_08_DIM
  6
CONTINUOUS
 62
    3
 10
1.5000000000000142
 20
2.5980762113532592
 11
4.5000000000000142
 21
2.5980762113532592
  0
LINE
  8
_0-2_08_DIM
  6
CONTINUOUS
 62
    3
 10
-1.4999999999999858
 20
2.5980762113532592
 11
1.5000000000000142
 21
2.5980762113532592
  0
LINE
  8
_0-2_08_DIM
  6
CONTINUOUS
 62
    3
 10
1.5000000000000142
 20
2.5980762113532592
 11
0.0000000000000142
 21
0
  0
LINE
  8
_0-2_08_DIM
  6
CONTINUOUS
 62
    3
 10
0.0000000000000142
 20
0
 11
-1.4999999999999858
 21
2.5980762113532592
  0
ENDBLK
  0
BLOCK
  2
-004-M10Tz_1_1_1
 70
   64
 10
0
 20
0
 30
0
  0
CIRCLE
  8
_0-3_0
  6
CONTINUOUS
 62
   18
 10
0
 20
0.0000000000036379
 40
5
  0
LINE
  8
_0-4_05_CENTER
  6
CENTER2
 62
    4
 10
0
 20
-8.3410508113993274
 11
0
 21
8.3410508113993274
  0
CIRCLE
  8
_0-3_0
  6
CONTINUOUS
 62
   18
 10
0
 20
0.0000000000036379
 40
4
  0
LINE
  8
_0-4_05_CENTER
  6
CENTER2
 62
    4
 10
8.3410508113993274
 20
0.0000000000036379
 11
-8.3410508113956876
 21
0.0000000000036379
  0
ENDBLK
  0
BLOCK
  2
-005-AM_BALLOON1
 70
   64
 10
0
 20
0
 30
0
  0
CIRCLE
  8
_0-2_08_DIM
  6
CONTINUOUS
 62
    3
 10
0
 20
0
 40
5
  0
ENDBLK
  0
BLOCK
  2
-006-_Open30
 70
   64
 10
0
 20
0
 30
0
  0
LINE
  8
_0-2_08_DIM
  6
CONTINUOUS
 62
    3
 10
-1
 20
0.26794919
 11
0
 21
0
  0
LINE
  8
_0-2_08_DIM
  6
CONTINUOUS
 62
    3
 10
0
 20
0
 11
-1
 21
-0.26794919
  0
LINE
  8
_0-2_08_DIM
  6
CONTINUOUS
 62
    3
 10
0
 20
0
 11
-1
 21
0
  0
ENDBLK
  0
ENDSEC
  0
SECTION
  2
ENTITIES
  0
TEXT
  8
_0-0_90_FRAME
 62
    7
 10
960.96308497581651
 20
232.8626064042484
 40
10
 41
1
 50
0
  1
AT-221121-04-9
  0
TEXT
  8
_0-0_90_FRAME
 62
    7
 10
892.48531085467914
 20
209.84509501296273
 40
10
 41
1
 50
0
  1
2025.03.26
  0
LINE
  8
_0-0_90_FRAME
  6
CONTINUOUS
 62
    5
 10
299.67593987902677
 20
204.41337120240874
 11
1082.4353912824008
 21
204.41337120240874
  0
LINE
  8
_0-0_90_FRAME
  6
CONTINUOUS
 62
    5
 10
1082.4353912824008
 20
204.41337120240874
 11
1082.4353912824008
 21
764.01870698697348
  0
LINE
  8
_0-0_90_FRAME
  6
CONTINUOUS
 62
    5
 10
1082.4353912824008
 20
764.01870698697348
 11
299.67593987902677
 21
764.01870698697348
  0
LINE
  8
_0-0_90_FRAME
  6
CONTINUOUS
 62
    5
 10
299.67593987902677
 20
764.01870698697348
 11
299.67593987902677
 21
204.41337120240874
  0
LINE
  8
_0-0_90_FRAME
  6
CONTINUOUS
 62
    5
 10
260.51150061861586
 20
484.2160390946911
 11
299.67593987902677
 21
484.2160390946911
  0
LINE
  8
_0-0_90_FRAME
  6
CONTINUOUS
 62
    5
 10
1095.5036076680619
 20
484.2160390946911
 11
1082.4353912824008
 21
484.2160390946911
  0
LINE
  8
_0-0_90_FRAME
  6
CONTINUOUS
 62
    5
 10
691.05566558071371
 20
779.103323375331
 11
691.05566558071382
 21
764.01870698697348
  0
LINE
  8
_0-0_90_FRAME
  6
CONTINUOUS
 62
    5
 10
691.05566558071382
 20
191.40358101263379
 11
691.05566558071382
 21
204.41337120240874
  0
LINE
  8
_0-0_90_FRAME
  6
CONTINUOUS
 62
    5
 10
590.53092415254764
 20
198.38188671671759
 11
791.58040700888023
 21
198.38188671671759
  0
LINE
  8
_0-0_90_FRAME
  6
CONTINUOUS
 62
    5
 10
590.53092415254764
 20
198.38188671671759
 11
590.53092415254764
 21
204.41337120240874
  0
LINE
  8
_0-0_90_FRAME
  6
CONTINUOUS
 62
    5
 10
610.63587243818142
 20
198.38188671671759
 11
610.63587243818142
 21
204.41337120240874
  0
LINE
  8
_0-0_90_FRAME
  6
CONTINUOUS
 62
    5
 10
630.7408207238152
 20
198.38188671671759
 11
630.7408207238152
 21
204.41337120240874
  0
LINE
  8
_0-0_90_FRAME
  6
CONTINUOUS
 62
    5
 10
650.84576900944626
 20
198.38188671671759
 11
650.84576900944626
 21
204.41337120240874
  0
LINE
  8
_0-0_90_FRAME
  6
CONTINUOUS
 62
    5
 10
670.95071729508004
 20
198.38188671671759
 11
670.95071729508004
 21
204.41337120240874
  0
LINE
  8
_0-0_90_FRAME
  6
CONTINUOUS
 62
    5
 10
711.16061386634499
 20
198.38188671671759
 11
711.16061386634499
 21
204.41337120240874
  0
LINE
  8
_0-0_90_FRAME
  6
CONTINUOUS
 62
    5
 10
731.26556215197877
 20
198.38188671671759
 11
731.26556215197877
 21
204.41337120240874
  0
LINE
  8
_0-0_90_FRAME
  6
CONTINUOUS
 62
    5
 10
751.37051043761255
 20
198.38188671671759
 11
751.37051043761255
 21
204.41337120240874
  0
LINE
  8
_0-0_90_FRAME
  6
CONTINUOUS
 62
    5
 10
771.47545872324622
 20
198.38188671671759
 11
771.47545872324622
 21
204.41337120240874
  0
LINE
  8
_0-0_90_FRAME
  6
CONTINUOUS
 62
    5
 10
791.58040700888023
 20
198.38188671671759
 11
791.58040700888023
 21
204.41337120240874
  0
LINE
  8
_0-0_90_FRAME
  6
CONTINUOUS
 62
    4
 10
488.60888881853083
 20
764.01870698697348
 11
488.60888881853083
 21
777.0869233726321
  0
TEXT
  8
_0-0_90_FRAME
 62
    7
 10
336.8423640334214
 20
766.62157358652792
 40
4.0327999999999999
 41
1
 50
0
  1
1
  0
TEXT
  8
_0-0_90_FRAME
 62
    7
 10
386.04123377077383
 20
766.62157358652792
 40
4.0327999999999999
 41
1
 50
0
  1
2
  0
TEXT
  8
_0-0_90_FRAME
 62
    7
 10
453.52349269150153
 20
766.62157358652792
 40
4.0327999999999999
 41
1
 50
0
  1
3
  0
TEXT
  8
_0-0_90_FRAME
 62
    7
 10
521.00575161222673
 20
766.62157358652792
 40
4.0327999999999999
 41
1
 50
0
  1
4
  0
TEXT
  8
_0-0_90_FRAME
 62
    7
 10
588.48801053295688
 20
766.62157358652792
 40
4.0327999999999999
 41
1
 50
0
  1
5
  0
TEXT
  8
_0-0_90_FRAME
 62
    7
 10
655.97026945368214
 20
766.62157358652792
 40
4.0327999999999999
 41
1
 50
0
  1
6
  0
TEXT
  8
_0-0_90_FRAME
 62
    7
 10
723.45252837440978
 20
766.62157358652792
 40
4.0327999999999999
 41
1
 50
0
  1
7
  0
TEXT
  8
_0-0_90_FRAME
 62
    7
 10
790.93478729513743
 20
766.62157358652792
 40
4.0327999999999999
 41
1
 50
0
  1
8
  0
TEXT
  8
_0-0_90_FRAME
 62
    7
 10
858.41704621586518
 20
766.62157358652792
 40
4.0327999999999999
 41
1
 50
0
  1
9
  0
TEXT
  8
_0-0_90_FRAME
 62
    7
 10
924.89110513659284
 20
766.62157358652792
 40
4.0327999999999999
 41
1
 50
0
  1
10
  0
TEXT
  8
_0-0_90_FRAME
 62
    7
 10
992.70943072398472
 20
766.62157358652792
 40
4.0327999999999999
 41
1
 50
0
  1
11
  0
TEXT
  8
_0-0_90_FRAME
 62
    7
 10
1059.5195563113791
 20
766.62157358652792
 40
4.0327999999999999
 41
1
 50
0
  1
12
  0
TEXT
  8
_0-0_90_FRAME
 62
    7
 10
1085.0332835490135
 20
661.14812926840511
 40
4.0327999999999999
 41
1
 50
0
  1
B
  0
LINE
  8
_0-0_90_FRAME
  6
CONTINUOUS
 62
    4
 10
1095.5036076680619
 20
341.05724695572002
 11
1082.4353912824008
 21
341.05724695572002
  0
LINE
  8
_0-0_90_FRAME
  6
CONTINUOUS
 62
    4
 10
1095.5036076680619
 20
412.63664302520556
 11
1082.4353912824008
 21
412.63664302520556
  0
LINE
  8
_0-0_90_FRAME
  6
CONTINUOUS
 62
    4
 10
1095.5036076680619
 20
269.47785088623442
 11
1082.4353912824008
 21
269.47785088623442
  0
LINE
  8
_0-0_90_FRAME
  6
CONTINUOUS
 62
    4
 10
1095.5036076680619
 20
627.37483123366235
 11
1082.4353912824008
 21
627.37483123366235
  0
LINE
  8
_0-0_90_FRAME
  6
CONTINUOUS
 62
    4
 10
1095.5036076680619
 20
555.79543516417664
 11
1082.4353912824008
 21
555.79543516417664
  0
LINE
  8
_0-0_90_FRAME
  6
CONTINUOUS
 62
    4
 10
1095.5036076680619
 20
698.95422730314795
 11
1082.4353912824008
 21
698.95422730314795
  0
TEXT
  8
_0-0_90_FRAME
 62
    7
 10
1085.0332835490135
 20
732.72752533789071
 40
4.0327999999999999
 41
1
 50
0
  1
A
  0
TEXT
  8
_0-0_90_FRAME
 62
    7
 10
1085.0332835490135
 20
589.56873319891963
 40
4.0327999999999999
 41
1
 50
0
  1
C
  0
TEXT
  8
_0-0_90_FRAME
 62
    7
 10
1085.0332835490135
 20
517.98933712943403
 40
4.0327999999999999
 41
1
 50
0
  1
D
  0
TEXT
  8
_0-0_90_FRAME
 62
    7
 10
1085.0332835490135
 20
374.83054499046284
 40
4.0327999999999999
 41
1
 50
0
  1
F
  0
TEXT
  8
_0-0_90_FRAME
 62
    7
 10
1085.0332835490135
 20
303.25114892097724
 40
4.0327999999999999
 41
1
 50
0
  1
G
  0
TEXT
  8
_0-0_90_FRAME
 62
    7
 10
1085.0332835490135
 20
231.67175285149168
 40
4.0327999999999999
 41
1
 50
0
  1
H
  0
TEXT
  8
_0-0_90_FRAME
 62
    7
 10
1085.0332835490135
 20
446.40994105994832
 40
4.0327999999999999
 41
1
 50
0
  1
E
  0
TEXT
  8
_0-0_90_FRAME
 62
    7
 10
293.73909194556558
 20
661.14812926840511
 40
4.0327999999999999
 41
1
 50
0
  1
B
  0
LINE
  8
_0-0_90_FRAME
  6
CONTINUOUS
 62
    4
 10
299.67593987902677
 20
341.05724695572002
 11
286.60772349336821
 21
341.05724695572002
  0
LINE
  8
_0-0_90_FRAME
  6
CONTINUOUS
 62
    4
 10
299.67593987902677
 20
412.63664302520556
 11
286.60772349336821
 21
412.63664302520556
  0
LINE
  8
_0-0_90_FRAME
  6
CONTINUOUS
 62
    4
 10
299.67593987902677
 20
269.47785088623442
 11
286.60772349336821
 21
269.47785088623442
  0
LINE
  8
_0-0_90_FRAME
  6
CONTINUOUS
 62
    4
 10
299.67593987902677
 20
627.37483123366235
 11
286.60772349336821
 21
627.37483123366235
  0
LINE
  8
_0-0_90_FRAME
  6
CONTINUOUS
 62
    4
 10
299.67593987902677
 20
555.79543516417664
 11
286.60772349336821
 21
555.79543516417664
  0
LINE
  8
_0-0_90_FRAME
  6
CONTINUOUS
 62
    4
 10
299.67593987902677
 20
698.95422730314795
 11
286.60772349336821
 21
698.95422730314795
  0
TEXT
  8
_0-0_90_FRAME
 62
    7
 10
293.73909194556558
 20
732.72752533789071
 40
4.0327999999999999
 41
1
 50
0
  1
A
  0
TEXT
  8
_0-0_90_FRAME
 62
    7
 10
293.73909194556558
 20
589.56873319891963
 40
4.0327999999999999
 41
1
 50
0
  1
C
  0
TEXT
  8
_0-0_90_FRAME
 62
    7
 10
293.73909194556558
 20
517.98933712943403
 40
4.0327999999999999
 41
1
 50
0
  1
D
  0
TEXT
  8
_0-0_90_FRAME
 62
    7
 10
293.73909194556558
 20
374.83054499046284
 40
4.0327999999999999
 41
1
 50
0
  1
F
  0
TEXT
  8
_0-0_90_FRAME
 62
    7
 10
293.73909194556558
 20
303.25114892097724
 40
4.0327999999999999
 41
1
 50
0
  1
G
  0
TEXT
  8
_0-0_90_FRAME
 62
    7
 10
293.73909194556558
 20
446.40994105994832
 40
4.0327999999999999
 41
1
 50
0
  1
E
  0
TEXT
  8
_0-0_90_FRAME
 62
    7
 10
293.73909194556558
 20
231.67175285149168
 40
4.0327999999999999
 41
1
 50
0
  1
H
  0
LINE
  8
_0-0_90_FRAME
  6
CONTINUOUS
 62
    4
 10
421.12662989780307
 20
764.01870698697348
 11
421.12662989780307
 21
777.0869233726321
  0
LINE
  8
_0-0_90_FRAME
  6
CONTINUOUS
 62
    4
 10
353.64437097707537
 20
764.01870698697348
 11
353.64437097707537
 21
777.0869233726321
  0
LINE
  8
_0-0_90_FRAME
  6
CONTINUOUS
 62
    4
 10
556.09114773925842
 20
764.01870698697348
 11
556.09114773925842
 21
777.0869233726321
  0
LINE
  8
_0-0_90_FRAME
  6
CONTINUOUS
 62
    4
 10
623.57340665998618
 20
764.01870698697348
 11
623.57340665998618
 21
777.0869233726321
  0
LINE
  8
_0-0_90_FRAME
  6
CONTINUOUS
 62
    4
 10
893.50244234289414
 20
764.01870698697348
 11
893.50244234289414
 21
777.0869233726321
  0
LINE
  8
_0-0_90_FRAME
  6
CONTINUOUS
 62
    4
 10
960.98470126362213
 20
764.01870698697348
 11
960.98470126362213
 21
777.0869233726321
  0
LINE
  8
_0-0_90_FRAME
  6
CONTINUOUS
 62
    4
 10
1028.4669601843498
 20
764.01870698697348
 11
1028.4669601843498
 21
777.0869233726321
  0
LINE
  8
_0-0_90_FRAME
  6
CONTINUOUS
 62
    4
 10
826.02018342216661
 20
764.01870698697348
 11
826.02018342216661
 21
777.0869233726321
  0
LINE
  8
_0-0_90_FRAME
  6
CONTINUOUS
 62
    4
 10
758.53792450144158
 20
764.01870698697348
 11
758.53792450144158
 21
777.0869233726321
  0
LINE
  8
_0-0_90_FRAME
  6
CONTINUOUS
 62
    4
 10
488.60888881853083
 20
191.40358101263379
 11
488.60888881853083
 21
204.41337120240874
  0
LINE
  8
_0-0_90_FRAME
  6
CONTINUOUS
 62
    4
 10
421.12662989780307
 20
191.40358101263379
 11
421.12662989780307
 21
204.41337120240874
  0
LINE
  8
_0-0_90_FRAME
  6
CONTINUOUS
 62
    4
 10
353.64437097707537
 20
191.40358101263379
 11
353.64437097707537
 21
204.41337120240874
  0
LINE
  8
_0-0_90_FRAME
  6
CONTINUOUS
 62
    4
 10
556.09114773925842
 20
191.40358101263379
 11
556.09114773925842
 21
204.41337120240874
  0
LINE
  8
_0-0_90_FRAME
  6
CONTINUOUS
 62
    4
 10
893.50244234289414
 20
191.40358101263379
 11
893.50244234289414
 21
204.41337120240874
  0
LINE
  8
_0-0_90_FRAME
  6
CONTINUOUS
 62
    4
 10
960.98470126362213
 20
191.40358101263379
 11
960.98470126362213
 21
204.41337120240874
  0
LINE
  8
_0-0_90_FRAME
  6
CONTINUOUS
 62
    4
 10
1028.4669601843498
 20
191.40358101263379
 11
1028.4669601843498
 21
204.41337120240874
  0
LINE
  8
_0-0_90_FRAME
  6
CONTINUOUS
 62
    4
 10
826.02018342216661
 20
191.40358101263379
 11
826.02018342216661
 21
204.41337120240874
  0
LINE
  8
_0-1_91_BLANK
  6
CONTINUOUS
 62
    5
 10
260.51150061534224
 20
191.40358101263379
 11
1095.5036076666747
 21
191.40358101263379
  0
LINE
  8
_0-1_91_BLANK
  6
CONTINUOUS
 62
    5
 10
1095.5036076666747
 20
191.40358101263379
 11
1095.5036076666747
 21
779.103323375331
  0
LINE
  8
_0-1_91_BLANK
  6
CONTINUOUS
 62
    5
 10
1095.5036076666747
 20
779.103323375331
 11
260.51150061534224
 21
779.103323375331
  0
LINE
  8
_0-1_91_BLANK
  6
CONTINUOUS
 62
    5
 10
260.51150061534224
 20
779.103323375331
 11
260.51150061534224
 21
191.40358101263379
  0
LINE
  8
_0-0_90_FRAME
  6
CONTINUOUS
 62
   18
 10
686.43539128399982
 20
204.41337120240874
 11
1082.4353912824008
 21
204.41337120240874
  0
LINE
  8
_0-0_90_FRAME
  6
CONTINUOUS
 62
   18
 10
1082.4353912824008
 20
204.41337120240874
 11
1082.4353912824008
 21
277.95622834496874
  0
LINE
  8
_0-0_90_FRAME
  6
CONTINUOUS
 62
   18
 10
1082.4353912824008
 20
277.95622834496874
 11
686.43539128399982
 21
277.95622834496874
  0
LINE
  8
_0-0_90_FRAME
  6
CONTINUOUS
 62
   18
 10
686.43539128399982
 20
277.95622834496874
 11
686.43539128399982
 21
204.41337120240874
  0
LINE
  8
_0-0_90_FRAME
  6
CONTINUOUS
 62
   18
 10
717.62039128387562
 20
265.22765691644793
 11
737.42039128379486
 21
270.17765691642865
  0
LINE
  8
_0-0_90_FRAME
  6
CONTINUOUS
 62
   18
 10
737.42039128379486
 20
270.17765691642865
 11
737.42039128379486
 21
250.37765691650941
  0
LINE
  8
_0-0_90_FRAME
  6
CONTINUOUS
 62
   18
 10
737.42039128379486
 20
250.37765691650941
 11
717.62039128387562
 21
255.32765691648834
  0
LINE
  8
_0-0_90_FRAME
  6
CONTINUOUS
 62
   18
 10
717.62039128387562
 20
255.32765691648834
 11
717.62039128387562
 21
265.22765691644793
  0
CIRCLE
  8
_0-0_90_FRAME
  6
CONTINUOUS
 62
   18
 10
704.75039128392575
 20
260.27765691646721
 40
4.9499999999800002
  0
CIRCLE
  8
_0-0_90_FRAME
  6
CONTINUOUS
 62
   18
 10
704.75039128392575
 20
260.27765691646721
 40
9.8999999999600004
  0
LINE
  8
_0-0_90_FRAME
  6
CONTINUOUS
 62
   18
 10
692.87039128397385
 20
260.27765691646721
 11
739.40039128378532
 21
260.27765691646721
  0
LINE
  8
_0-0_90_FRAME
  6
CONTINUOUS
 62
   18
 10
704.75039128392575
 20
248.39765691651712
 11
704.75039128392575
 21
272.15765691642093
  0
LINE
  8
_0-0_90_FRAME
  6
CONTINUOUS
 62
   18
 10
848.6496769976003
 20
204.41337120240874
 11
848.6496769976003
 21
277.95622834496874
  0
LINE
  8
_0-0_90_FRAME
  6
CONTINUOUS
 62
   18
 10
848.6496769976003
 20
227.04194263088823
 11
1082.4353912824008
 21
227.04194263088823
  0
TEXT
  8
_0-0_90_FRAME
 62
    7
 10
849.66376051246152
 20
220.0060221373443
 40
5
 41
1
 50
0
  1
作 成 日
  0
LINE
  8
_0-0_90_FRAME
  6
CONTINUOUS
 62
   18
 10
986.92110556847922
 20
227.04194263088823
 11
986.92110556847922
 21
204.41337120240874
  0
TEXT
  8
_0-0_90_FRAME
 62
    7
 10
988.10854906224642
 20
219.86774026771502
 40
5
 41
1
 50
0
  1
個数
  0
TEXT
  8
_0-0_90_FRAME
 62
    7
 10
801.88957148240672
 20
271.40069217259963
 40
5
 41
1
 50
0
  1
サイズ
  0
TEXT
  8
_0-0_90_FRAME
 62
    7
 10
746.73242862548807
 20
271.02778450778544
 40
5
 41
1
 50
0
  1
尺　度
  0
TEXT
  8
_0-0_90_FRAME
 62
    7
 10
801.88960195524498
 20
236.04354931560022
 40
5
 41
1
 50
0
  1
製　図
  0
LINE
  8
_0-0_90_FRAME
  6
CONTINUOUS
 62
   18
 10
848.6496769976003
 20
242.5990854879675
 11
686.43539128399982
 21
242.5990854879675
  0
LINE
  8
_0-0_90_FRAME
  6
CONTINUOUS
 62
   18
 10
924.17347814623656
 20
249.67051405936775
 11
1082.4353912824008
 21
249.67051405936775
  0
TEXT
  8
_0-0_90_FRAME
 62
    7
 10
818.32364364020509
 20
251.08556119494796
 40
10
 41
1
 50
0
  1
A3
  0
LINE
  8
_0-0_90_FRAME
  6
CONTINUOUS
 62
   18
 10
800.99253414067982
 20
204.41337120240874
 11
800.99253414067982
 21
277.95622834496874
  0
TEXT
  8
_0-0_90_FRAME
 62
    2
 10
721.4259177014543
 20
212.19568217972392
 40
10
 41
1
 50
0
  1
アクアトリム
  0
LINE
  8
_0-0_90_FRAME
  6
CONTINUOUS
 62
    4
 10
718.34953461012276
 20
237.75564704247165
 11
718.34953461012276
 21
208.16928993459001
  0
LINE
  8
_0-0_90_FRAME
  6
CONTINUOUS
 62
    4
 10
718.34953461012276
 20
208.16928993459001
 11
691.4528463302305
 21
208.16928993459001
  0
LINE
  8
_0-0_90_FRAME
  6
CONTINUOUS
 62
    4
 10
691.4528463302305
 20
208.16928993459001
 11
691.4528463302305
 21
237.75564704247165
  0
LINE
  8
_0-0_90_FRAME
  6
CONTINUOUS
 62
    4
 10
691.58092579823006
 20
237.62756757447107
 11
691.58092579823006
 21
237.62756757447107
  0
LINE
  8
_0-0_90_FRAME
  6
CONTINUOUS
 62
    4
 10
691.58092579823006
 20
237.62756757447107
 11
691.64708350523506
 21
236.96034458803126
  0
LINE
  8
_0-0_90_FRAME
  6
CONTINUOUS
 62
    4
 10
691.64708350523506
 20
236.96034458803126
 11
691.84354645780024
 21
236.31339483440331
  0
LINE
  8
_0-0_90_FRAME
  6
CONTINUOUS
 62
    4
 10
691.84354645780024
 20
236.31339483440331
 11
692.16434522852694
 21
235.70637555447883
  0
LINE
  8
_0-0_90_FRAME
  6
CONTINUOUS
 62
    4
 10
692.16434522852694
 20
235.70637555447883
 11
692.59973250909877
 21
235.15773072191175
  0
LINE
  8
_0-0_90_FRAME
  6
CONTINUOUS
 62
    4
 10
692.59973250909877
 20
235.15773072191175
 11
693.13647927731188
 21
234.68413063231191
  0
LINE
  8
_0-0_90_FRAME
  6
CONTINUOUS
 62
    4
 10
693.13647927731188
 20
234.68413063231191
 11
693.75827675422124
 21
234.29996538474865
  0
LINE
  8
_0-0_90_FRAME
  6
CONTINUOUS
 62
    4
 10
693.75827675422124
 20
234.29996538474865
 11
694.44623193813561
 21
234.01690764587212
  0
LINE
  8
_0-0_90_FRAME
  6
CONTINUOUS
 62
    4
 10
694.44623193813561
 20
234.01690764587212
 11
695.17944165891402
 21
233.84355798184399
  0
LINE
  8
_0-0_90_FRAME
  6
CONTINUOUS
 62
    4
 10
695.17944165891402
 20
233.84355798184399
 11
695.93562771021243
 21
233.78518353448661
  0
LINE
  8
_0-0_90_FRAME
  6
CONTINUOUS
 62
    4
 10
695.93562771021243
 20
233.78518353448661
 11
696.69181376151084
 21
233.84355798184399
  0
LINE
  8
_0-0_90_FRAME
  6
CONTINUOUS
 62
    4
 10
696.69181376151084
 20
233.84355798184399
 11
697.42502348228925
 21
234.01690764587212
  0
LINE
  8
_0-0_90_FRAME
  6
CONTINUOUS
 62
    4
 10
697.42502348228925
 20
234.01690764587212
 11
698.11297866620362
 21
234.29996538474865
  0
LINE
  8
_0-0_90_FRAME
  6
CONTINUOUS
 62
    4
 10
698.11297866620362
 20
234.29996538474865
 11
698.73477614311298
 21
234.68413063231191
  0
LINE
  8
_0-0_90_FRAME
  6
CONTINUOUS
 62
    4
 10
698.73477614311298
 20
234.68413063231191
 11
699.27152291132609
 21
235.15773072191175
  0
LINE
  8
_0-0_90_FRAME
  6
CONTINUOUS
 62
    4
 10
699.27152291132609
 20
235.15773072191175
 11
699.7069101918978
 21
235.70637555447883
  0
LINE
  8
_0-0_90_FRAME
  6
CONTINUOUS
 62
    4
 10
699.7069101918978
 20
235.70637555447883
 11
700.02770896262462
 21
236.31339483440331
  0
LINE
  8
_0-0_90_FRAME
  6
CONTINUOUS
 62
    4
 10
700.02770896262462
 20
236.31339483440331
 11
700.2241719151898
 21
236.96034458803126
  0
LINE
  8
_0-0_90_FRAME
  6
CONTINUOUS
 62
    4
 10
700.2241719151898
 20
236.96034458803126
 11
700.2903296221948
 21
237.62756757447107
  0
LINE
  8
_0-0_90_FRAME
  6
CONTINUOUS
 62
    4
 10
700.2903296221948
 20
237.62756757447107
 11
700.2903296221948
 21
237.62756757447107
  0
ARC
  8
_0-0_90_FRAME
  6
CONTINUOUS
 62
    4
 10
700.41840909019459
 20
237.62756757447107
 40
0.1280794679994825
 50
0
 51
180
  0
LINE
  8
_0-0_90_FRAME
  6
CONTINUOUS
 62
    4
 10
700.54648855819426
 20
237.62756757447107
 11
700.54648855819426
 21
237.62756757447107
  0
LINE
  8
_0-0_90_FRAME
  6
CONTINUOUS
 62
    4
 10
700.54648855819426
 20
237.62756757447107
 11
700.61264626519926
 21
236.96034458803126
  0
LINE
  8
_0-0_90_FRAME
  6
CONTINUOUS
 62
    4
 10
700.61264626519926
 20
236.96034458803126
 11
700.80910921776444
 21
236.31339483440331
  0
LINE
  8
_0-0_90_FRAME
  6
CONTINUOUS
 62
    4
 10
700.80910921776444
 20
236.31339483440331
 11
701.12990798849114
 21
235.70637555447883
  0
LINE
  8
_0-0_90_FRAME
  6
CONTINUOUS
 62
    4
 10
701.12990798849114
 20
235.70637555447883
 11
701.56529526906297
 21
235.15773072191175
  0
LINE
  8
_0-0_90_FRAME
  6
CONTINUOUS
 62
    4
 10
701.56529526906297
 20
235.15773072191175
 11
702.10204203727608
 21
234.68413063231191
  0
LINE
  8
_0-0_90_FRAME
  6
CONTINUOUS
 62
    4
 10
702.10204203727608
 20
234.68413063231191
 11
702.72383951418544
 21
234.29996538474865
  0
LINE
  8
_0-0_90_FRAME
  6
CONTINUOUS
 62
    4
 10
702.72383951418544
 20
234.29996538474865
 11
703.41179469809981
 21
234.01690764587212
  0
LINE
  8
_0-0_90_FRAME
  6
CONTINUOUS
 62
    4
 10
703.41179469809981
 20
234.01690764587212
 11
704.14500441887822
 21
233.84355798184399
  0
LINE
  8
_0-0_90_FRAME
  6
CONTINUOUS
 62
    4
 10
704.14500441887822
 20
233.84355798184399
 11
704.90119047017663
 21
233.78518353448661
  0
LINE
  8
_0-0_90_FRAME
  6
CONTINUOUS
 62
    4
 10
704.90119047017663
 20
233.78518353448661
 11
705.65737652147504
 21
233.84355798184399
  0
LINE
  8
_0-0_90_FRAME
  6
CONTINUOUS
 62
    4
 10
705.65737652147504
 20
233.84355798184399
 11
706.39058624225345
 21
234.01690764587212
  0
LINE
  8
_0-0_90_FRAME
  6
CONTINUOUS
 62
    4
 10
706.39058624225345
 20
234.01690764587212
 11
707.07854142616782
 21
234.29996538474865
  0
LINE
  8
_0-0_90_FRAME
  6
CONTINUOUS
 62
    4
 10
707.07854142616782
 20
234.29996538474865
 11
707.70033890307718
 21
234.68413063231191
  0
LINE
  8
_0-0_90_FRAME
  6
CONTINUOUS
 62
    4
 10
707.70033890307718
 20
234.68413063231191
 11
708.23708567129029
 21
235.15773072191175
  0
LINE
  8
_0-0_90_FRAME
  6
CONTINUOUS
 62
    4
 10
708.23708567129029
 20
235.15773072191175
 11
708.67247295186201
 21
235.70637555447883
  0
LINE
  8
_0-0_90_FRAME
  6
CONTINUOUS
 62
    4
 10
708.67247295186201
 20
235.70637555447883
 11
708.99327172258882
 21
236.31339483440331
  0
LINE
  8
_0-0_90_FRAME
  6
CONTINUOUS
 62
    4
 10
708.99327172258882
 20
236.31339483440331
 11
709.189734675154
 21
236.96034458803126
  0
LINE
  8
_0-0_90_FRAME
  6
CONTINUOUS
 62
    4
 10
709.189734675154
 20
236.96034458803126
 11
709.255892382159
 21
237.62756757447107
  0
LINE
  8
_0-0_90_FRAME
  6
CONTINUOUS
 62
    4
 10
709.255892382159
 20
237.62756757447107
 11
709.255892382159
 21
237.62756757447107
  0
ARC
  8
_0-0_90_FRAME
  6
CONTINUOUS
 62
    4
 10
709.38397185015867
 20
237.62756757447107
 40
0.1280794679994825
 50
0
 51
180
  0
LINE
  8
_0-0_90_FRAME
  6
CONTINUOUS
 62
    4
 10
709.51205131815834
 20
237.62756757447107
 11
709.51205131815834
 21
237.62756757447107
  0
LINE
  8
_0-0_90_FRAME
  6
CONTINUOUS
 62
    4
 10
709.51205131815834
 20
237.62756757447107
 11
709.57820902516335
 21
236.96034458803126
  0
LINE
  8
_0-0_90_FRAME
  6
CONTINUOUS
 62
    4
 10
709.57820902516335
 20
236.96034458803126
 11
709.77467197772853
 21
236.31339483440331
  0
LINE
  8
_0-0_90_FRAME
  6
CONTINUOUS
 62
    4
 10
709.77467197772853
 20
236.31339483440331
 11
710.09547074845523
 21
235.70637555447883
  0
LINE
  8
_0-0_90_FRAME
  6
CONTINUOUS
 62
    4
 10
710.09547074845523
 20
235.70637555447883
 11
710.53085802902706
 21
235.15773072191175
  0
LINE
  8
_0-0_90_FRAME
  6
CONTINUOUS
 62
    4
 10
710.53085802902706
 20
235.15773072191175
 11
711.06760479724016
 21
234.68413063231191
  0
LINE
  8
_0-0_90_FRAME
  6
CONTINUOUS
 62
    4
 10
711.06760479724016
 20
234.68413063231191
 11
711.68940227414953
 21
234.29996538474865
  0
LINE
  8
_0-0_90_FRAME
  6
CONTINUOUS
 62
    4
 10
711.68940227414953
 20
234.29996538474865
 11
712.3773574580639
 21
234.01690764587212
  0
LINE
  8
_0-0_90_FRAME
  6
CONTINUOUS
 62
    4
 10
712.3773574580639
 20
234.01690764587212
 11
713.1105671788423
 21
233.84355798184399
  0
LINE
  8
_0-0_90_FRAME
  6
CONTINUOUS
 62
    4
 10
713.1105671788423
 20
233.84355798184399
 11
713.86675323014072
 21
233.78518353448661
  0
LINE
  8
_0-0_90_FRAME
  6
CONTINUOUS
 62
    4
 10
713.86675323014072
 20
233.78518353448661
 11
714.62293928143913
 21
233.84355798184399
  0
LINE
  8
_0-0_90_FRAME
  6
CONTINUOUS
 62
    4
 10
714.62293928143913
 20
233.84355798184399
 11
715.35614900221753
 21
234.01690764587212
  0
LINE
  8
_0-0_90_FRAME
  6
CONTINUOUS
 62
    4
 10
715.35614900221753
 20
234.01690764587212
 11
716.0441041861319
 21
234.29996538474865
  0
LINE
  8
_0-0_90_FRAME
  6
CONTINUOUS
 62
    4
 10
716.0441041861319
 20
234.29996538474865
 11
716.66590166304127
 21
234.68413063231191
  0
LINE
  8
_0-0_90_FRAME
  6
CONTINUOUS
 62
    4
 10
716.66590166304127
 20
234.68413063231191
 11
717.20264843125437
 21
235.15773072191175
  0
LINE
  8
_0-0_90_FRAME
  6
CONTINUOUS
 62
    4
 10
717.20264843125437
 20
235.15773072191175
 11
717.63803571182609
 21
235.70637555447883
  0
LINE
  8
_0-0_90_FRAME
  6
CONTINUOUS
 62
    4
 10
717.63803571182609
 20
235.70637555447883
 11
717.9588344825529
 21
236.31339483440331
  0
LINE
  8
_0-0_90_FRAME
  6
CONTINUOUS
 62
    4
 10
717.9588344825529
 20
236.31339483440331
 11
718.15529743511809
 21
236.96034458803126
  0
LINE
  8
_0-0_90_FRAME
  6
CONTINUOUS
 62
    4
 10
718.15529743511809
 20
236.96034458803126
 11
718.22145514212309
 21
237.62756757447107
  0
LINE
  8
_0-0_90_FRAME
  6
CONTINUOUS
 62
    4
 10
718.22145514212309
 20
237.62756757447107
 11
718.22145514212309
 21
237.62756757447107
  0
ARC
  8
_0-0_90_FRAME
  6
CONTINUOUS
 62
    4
 10
718.34953461012276
 20
237.62756757447107
 40
0.1280794679994825
 50
90
 51
180
  0
ARC
  8
_0-0_90_FRAME
  6
CONTINUOUS
 62
    4
 10
700.41840909019459
 20
237.62756757447107
 40
0.1280794679994825
 50
0
 51
90
  0
ARC
  8
_0-0_90_FRAME
  6
CONTINUOUS
 62
    4
 10
691.4528463302305
 20
237.62756757447107
 40
0.1280794679994825
 50
0
 51
90
  0
LINE
  8
_0-0_90_FRAME
  6
CONTINUOUS
 62
    4
 10
694.52675356221891
 20
212.01167397457459
 11
696.0637071782113
 21
212.01167397457459
  0
LINE
  8
_0-0_90_FRAME
  6
CONTINUOUS
 62
    4
 10
696.0637071782113
 20
212.01167397457459
 11
696.0637071782113
 21
210.47472035858132
  0
LINE
  8
_0-0_90_FRAME
  6
CONTINUOUS
 62
    4
 10
696.0637071782113
 20
210.47472035858132
 11
694.52675356221891
 21
210.47472035858132
  0
LINE
  8
_0-0_90_FRAME
  6
CONTINUOUS
 62
    4
 10
694.52675356221891
 20
212.01167397457459
 11
694.52675356221891
 21
210.47472035858132
  0
LINE
  8
_0-0_90_FRAME
  6
CONTINUOUS
 62
    4
 10
715.27562737813435
 20
212.01167397457459
 11
713.73867376214196
 21
212.01167397457459
  0
LINE
  8
_0-0_90_FRAME
  6
CONTINUOUS
 62
    4
 10
713.73867376214196
 20
212.01167397457459
 11
713.73867376214196
 21
210.47472035858132
  0
LINE
  8
_0-0_90_FRAME
  6
CONTINUOUS
 62
    4
 10
713.73867376214196
 20
210.47472035858132
 11
715.27562737813435
 21
210.47472035858132
  0
LINE
  8
_0-0_90_FRAME
  6
CONTINUOUS
 62
    4
 10
715.27562737813435
 20
212.01167397457459
 11
715.27562737813435
 21
210.47472035858132
  0
LINE
  8
_0-0_90_FRAME
  6
CONTINUOUS
 62
    4
 10
698.36913760220352
 20
212.01167397457459
 11
699.90609121819591
 21
212.01167397457459
  0
LINE
  8
_0-0_90_FRAME
  6
CONTINUOUS
 62
    4
 10
699.90609121819591
 20
212.01167397457459
 11
699.90609121819591
 21
210.47472035858132
  0
LINE
  8
_0-0_90_FRAME
  6
CONTINUOUS
 62
    4
 10
699.90609121819591
 20
210.47472035858132
 11
698.36913760220352
 21
210.47472035858132
  0
LINE
  8
_0-0_90_FRAME
  6
CONTINUOUS
 62
    4
 10
698.36913760220352
 20
212.01167397457459
 11
698.36913760220352
 21
210.47472035858132
  0
LINE
  8
_0-0_90_FRAME
  6
CONTINUOUS
 62
    4
 10
702.21152164218813
 20
212.01167397457459
 11
703.74847525818052
 21
212.01167397457459
  0
LINE
  8
_0-0_90_FRAME
  6
CONTINUOUS
 62
    4
 10
703.74847525818052
 20
212.01167397457459
 11
703.74847525818052
 21
210.47472035858132
  0
LINE
  8
_0-0_90_FRAME
  6
CONTINUOUS
 62
    4
 10
703.74847525818052
 20
210.47472035858132
 11
702.21152164218813
 21
210.47472035858132
  0
LINE
  8
_0-0_90_FRAME
  6
CONTINUOUS
 62
    4
 10
702.21152164218813
 20
212.01167397457459
 11
702.21152164218813
 21
210.47472035858132
  0
LINE
  8
_0-0_90_FRAME
  6
CONTINUOUS
 62
    4
 10
706.05390568217274
 20
212.01167397457459
 11
707.59085929816513
 21
212.01167397457459
  0
LINE
  8
_0-0_90_FRAME
  6
CONTINUOUS
 62
    4
 10
707.59085929816513
 20
212.01167397457459
 11
707.59085929816513
 21
210.47472035858132
  0
LINE
  8
_0-0_90_FRAME
  6
CONTINUOUS
 62
    4
 10
707.59085929816513
 20
210.47472035858132
 11
706.05390568217274
 21
210.47472035858132
  0
LINE
  8
_0-0_90_FRAME
  6
CONTINUOUS
 62
    4
 10
706.05390568217274
 20
212.01167397457459
 11
706.05390568217274
 21
210.47472035858132
  0
LINE
  8
_0-0_90_FRAME
  6
CONTINUOUS
 62
    4
 10
709.89628972215735
 20
212.01167397457459
 11
711.43324333814974
 21
212.01167397457459
  0
LINE
  8
_0-0_90_FRAME
  6
CONTINUOUS
 62
    4
 10
711.43324333814974
 20
212.01167397457459
 11
711.43324333814974
 21
210.47472035858132
  0
LINE
  8
_0-0_90_FRAME
  6
CONTINUOUS
 62
    4
 10
711.43324333814974
 20
210.47472035858132
 11
709.89628972215735
 21
210.47472035858132
  0
LINE
  8
_0-0_90_FRAME
  6
CONTINUOUS
 62
    4
 10
709.89628972215735
 20
212.01167397457459
 11
709.89628972215735
 21
210.47472035858132
  0
LINE
  8
_0-0_90_FRAME
  6
CONTINUOUS
 62
    4
 10
704.88527583643952
 20
226.63652777173607
 11
704.88527583643952
 21
226.63652777173607
  0
LINE
  8
_0-0_90_FRAME
  6
CONTINUOUS
 62
    4
 10
704.88527583643952
 20
226.63652777173607
 11
704.84052209346555
 21
227.12582462845859
  0
LINE
  8
_0-0_90_FRAME
  6
CONTINUOUS
 62
    4
 10
704.84052209346555
 20
227.12582462845859
 11
704.70762068437728
 21
227.60025444778574
  0
LINE
  8
_0-0_90_FRAME
  6
CONTINUOUS
 62
    4
 10
704.70762068437728
 20
227.60025444778574
 11
704.49060975123871
 21
228.04540191973038
  0
LINE
  8
_0-0_90_FRAME
  6
CONTINUOUS
 62
    4
 10
704.49060975123871
 20
228.04540191973038
 11
704.19608306144016
 21
228.44774146361291
  0
LINE
  8
_0-0_90_FRAME
  6
CONTINUOUS
 62
    4
 10
704.19608306144016
 20
228.44774146361291
 11
703.83298965941356
 21
228.79504819598611
  0
LINE
  8
_0-0_90_FRAME
  6
CONTINUOUS
 62
    4
 10
703.83298965941356
 20
228.79504819598611
 11
703.41236195444549
 21
229.07676937753251
  0
LINE
  8
_0-0_90_FRAME
  6
CONTINUOUS
 62
    4
 10
703.41236195444549
 20
229.07676937753251
 11
702.94698050650345
 21
229.28434505270863
  0
LINE
  8
_0-0_90_FRAME
  6
CONTINUOUS
 62
    4
 10
702.94698050650345
 20
229.28434505270863
 11
702.45098569538868
 21
229.41146813966259
  0
LINE
  8
_0-0_90_FRAME
  6
CONTINUOUS
 62
    4
 10
702.45098569538868
 20
229.41146813966259
 11
701.93944807245146
 21
229.45427606772469
  0
LINE
  8
_0-0_90_FRAME
  6
CONTINUOUS
 62
    4
 10
701.93944807245146
 20
229.45427606772469
 11
701.42791044951423
 21
229.41146813966259
  0
LINE
  8
_0-0_90_FRAME
  6
CONTINUOUS
 62
    4
 10
701.42791044951423
 20
229.41146813966259
 11
700.93191563839946
 21
229.28434505270863
  0
LINE
  8
_0-0_90_FRAME
  6
CONTINUOUS
 62
    4
 10
700.93191563839946
 20
229.28434505270863
 11
700.46653419045742
 21
229.07676937753251
  0
LINE
  8
_0-0_90_FRAME
  6
CONTINUOUS
 62
    4
 10
700.46653419045742
 20
229.07676937753251
 11
700.04590648548935
 21
228.79504819598611
  0
LINE
  8
_0-0_90_FRAME
  6
CONTINUOUS
 62
    4
 10
700.04590648548935
 20
228.79504819598611
 11
699.68281308346275
 21
228.44774146361291
  0
LINE
  8
_0-0_90_FRAME
  6
CONTINUOUS
 62
    4
 10
699.68281308346275
 20
228.44774146361291
 11
699.3882863936642
 21
228.04540191973038
  0
LINE
  8
_0-0_90_FRAME
  6
CONTINUOUS
 62
    4
 10
699.3882863936642
 20
228.04540191973038
 11
699.17127546052564
 21
227.60025444778577
  0
LINE
  8
_0-0_90_FRAME
  6
CONTINUOUS
 62
    4
 10
699.17127546052564
 20
227.60025444778577
 11
699.03837405143736
 21
227.12582462845859
  0
LINE
  8
_0-0_90_FRAME
  6
CONTINUOUS
 62
    4
 10
699.03837405143736
 20
227.12582462845859
 11
698.99362030846339
 21
226.63652777173607
  0
LINE
  8
_0-0_90_FRAME
  6
CONTINUOUS
 62
    4
 10
698.99362030846339
 20
226.63652777173607
 11
698.99362030846339
 21
226.63652777173607
  0
LINE
  8
_0-0_90_FRAME
  6
CONTINUOUS
 62
    4
 10
704.88527583643929
 20
226.63652777173607
 11
704.88527583643929
 21
225.86805096373897
  0
LINE
  8
_0-0_90_FRAME
  6
CONTINUOUS
 62
    4
 10
703.49542155712254
 20
223.47543697399993
 11
703.49542155712254
 21
223.47543697399993
  0
LINE
  8
_0-0_90_FRAME
  6
CONTINUOUS
 62
    4
 10
703.49542155712254
 20
223.47543697399993
 11
703.03742462540481
 21
223.25334167309384
  0
LINE
  8
_0-0_90_FRAME
  6
CONTINUOUS
 62
    4
 10
703.03742462540481
 20
223.25334167309384
 11
702.54606623172856
 21
223.11069299087731
  0
LINE
  8
_0-0_90_FRAME
  6
CONTINUOUS
 62
    4
 10
702.54606623172856
 20
223.11069299087731
 11
702.03627605224619
 21
223.05182523537567
  0
LINE
  8
_0-0_90_FRAME
  6
CONTINUOUS
 62
    4
 10
702.03627605224619
 20
223.05182523537567
 11
701.5235438035952
 21
223.07852707355141
  0
LINE
  8
_0-0_90_FRAME
  6
CONTINUOUS
 62
    4
 10
701.5235438035952
 20
223.07852707355141
 11
701.02344859569553
 21
223.18998718356329
  0
LINE
  8
_0-0_90_FRAME
  6
CONTINUOUS
 62
    4
 10
701.02344859569553
 20
223.18998718356329
 11
700.55118556837908
 21
223.38281890637015
  0
LINE
  8
_0-0_90_FRAME
  6
CONTINUOUS
 62
    4
 10
700.55118556837908
 20
223.38281890637015
 11
700.12110419475425
 21
223.65116314765206
  0
LINE
  8
_0-0_90_FRAME
  6
CONTINUOUS
 62
    4
 10
700.12110419475425
 20
223.65116314765206
 11
699.74627227972667
 21
223.9868664034264
  0
LINE
  8
_0-0_90_FRAME
  6
CONTINUOUS
 62
    4
 10
699.74627227972667
 20
223.9868664034264
 11
699.43807890136065
 21
224.37972850014052
  0
LINE
  8
_0-0_90_FRAME
  6
CONTINUOUS
 62
    4
 10
699.43807890136065
 20
224.37972850014052
 11
699.20588835950434
 21
224.81781252178357
  0
LINE
  8
_0-0_90_FRAME
  6
CONTINUOUS
 62
    4
 10
699.20588835950434
 20
224.81781252178357
 11
699.05675564627791
 21
225.28780750703916
  0
LINE
  8
_0-0_90_FRAME
  6
CONTINUOUS
 62
    4
 10
699.05675564627791
 20
225.28780750703916
 11
698.995212083708
 21
225.77543289610918
  0
LINE
  8
_0-0_90_FRAME
  6
CONTINUOUS
 62
    4
 10
698.995212083708
 20
225.77543289610918
 11
698.99362030846339
 21
225.86805096373897
  0
LINE
  8
_0-0_90_FRAME
  6
CONTINUOUS
 62
    4
 10
703.81784130819699
 20
226.56116826792837
 11
703.81784130819699
 21
225.94638682153087
  0
LINE
  8
_0-0_90_FRAME
  6
CONTINUOUS
 62
    4
 10
710.85667416220542
 20
225.63635217255444
 11
710.85667416220542
 21
229.45427606772515
  0
LINE
  8
_0-0_90_FRAME
  6
CONTINUOUS
 62
    4
 10
709.70395895020931
 20
225.86805096373897
 11
709.70395895020931
 21
229.45427606772515
  0
LINE
  8
_0-0_90_FRAME
  6
CONTINUOUS
 62
    4
 10
709.70395895020931
 20
229.45427606772515
 11
710.85667416220542
 21
229.45427606772515
  0
LINE
  8
_0-0_90_FRAME
  6
CONTINUOUS
 62
    4
 10
705.47733650622661
 20
225.63635217255444
 11
705.47733650622661
 21
229.45427606772515
  0
LINE
  8
_0-0_90_FRAME
  6
CONTINUOUS
 62
    4
 10
706.63005171822272
 20
225.86805096373897
 11
706.63005171822272
 21
229.45427606772515
  0
ARC
  8
_0-0_90_FRAME
  6
CONTINUOUS
 62
    4
 10
708.18490847577789
 20
225.75220156814808
 40
2.7100492712792992
 50
182.45003099226136
 51
265.55525728852427
  0
LINE
  8
_0-0_90_FRAME
  6
CONTINUOUS
 62
    4
 10
706.63005171822272
 20
229.45427606772515
 11
705.47733650622661
 21
229.45427606772515
  0
LINE
  8
_0-0_90_FRAME
  6
CONTINUOUS
 62
    4
 10
708.35912453621506
 20
223.05030266775077
 11
707.97488613221697
 21
223.05030266775077
  0
ARC
  8
_0-0_90_FRAME
  6
CONTINUOUS
 62
    4
 10
708.91652772062673
 20
225.8382308664269
 40
2.2866704501913211
 50
179.25279388138676
 51
218.96457184688023
  0
ARC
  8
_0-0_90_FRAME
  6
CONTINUOUS
 62
    4
 10
707.4174829478053
 20
225.8382308664269
 40
2.2866704501910635
 50
321.03542815311977
 51
0.747206118613265
  0
ARC
  8
_0-0_90_FRAME
  6
CONTINUOUS
 62
    4
 10
708.16700533421692
 20
226.26774897835836
 40
2.1319312674000637
 50
241.1577278083189
 51
298.8422721916811
  0
LINE
  8
_0-0_90_FRAME
  6
CONTINUOUS
 62
    4
 10
702.18772569764235
 20
224.74813817432747
 11
702.71070294980575
 21
224.23915608055825
  0
LINE
  8
_0-0_90_FRAME
  6
CONTINUOUS
 62
    4
 10
702.18772569764235
 20
224.74813817432747
 11
702.75504829294925
 21
225.35055575957736
  0
LINE
  8
_0-0_90_FRAME
  6
CONTINUOUS
 62
    4
 10
704.38589722740664
 20
222.60879092154403
 11
705.12716026089038
 21
223.39590902746946
  0
LINE
  8
_0-0_90_FRAME
  6
CONTINUOUS
 62
    4
 10
700.06105483670592
 20
226.56116826792837
 11
700.06105483670592
 21
225.94638682153087
  0
LINE
  8
_0-0_90_FRAME
  6
CONTINUOUS
 62
    4
 10
703.81784130819688
 20
226.56116826792837
 11
703.81784130819688
 21
226.56116826792837
  0
LINE
  8
_0-0_90_FRAME
  6
CONTINUOUS
 62
    4
 10
703.81784130819688
 20
226.56116826792837
 11
703.78930429421916
 21
226.88562503543974
  0
LINE
  8
_0-0_90_FRAME
  6
CONTINUOUS
 62
    4
 10
703.78930429421916
 20
226.88562503543974
 11
703.70456033501557
 21
227.20022334825336
  0
LINE
  8
_0-0_90_FRAME
  6
CONTINUOUS
 62
    4
 10
703.70456033501557
 20
227.20022334825336
 11
703.56618433290384
 21
227.49540429582873
  0
LINE
  8
_0-0_90_FRAME
  6
CONTINUOUS
 62
    4
 10
703.56618433290384
 20
227.49540429582873
 11
703.37838077268646
 21
227.76219895444262
  0
LINE
  8
_0-0_90_FRAME
  6
CONTINUOUS
 62
    4
 10
703.37838077268646
 20
227.76219895444262
 11
703.14685597050766
 21
227.99250090339763
  0
LINE
  8
_0-0_90_FRAME
  6
CONTINUOUS
 62
    4
 10
703.14685597050766
 20
227.99250090339763
 11
702.87864469032411
 21
228.17931253451314
  0
LINE
  8
_0-0_90_FRAME
  6
CONTINUOUS
 62
    4
 10
702.87864469032411
 20
228.17931253451314
 11
702.58189639616307
 21
228.31695767090901
  0
LINE
  8
_0-0_90_FRAME
  6
CONTINUOUS
 62
    4
 10
702.58189639616307
 20
228.31695767090901
 11
702.26562763478057
 21
228.40125403476762
  0
LINE
  8
_0-0_90_FRAME
  6
CONTINUOUS
 62
    4
 10
702.26562763478057
 20
228.40125403476762
 11
701.93944807245146
 21
228.42964032372913
  0
LINE
  8
_0-0_90_FRAME
  6
CONTINUOUS
 62
    4
 10
701.93944807245146
 20
228.42964032372913
 11
701.61326851012234
 21
228.40125403476762
  0
LINE
  8
_0-0_90_FRAME
  6
CONTINUOUS
 62
    4
 10
701.61326851012234
 20
228.40125403476762
 11
701.29699974873984
 21
228.31695767090901
  0
LINE
  8
_0-0_90_FRAME
  6
CONTINUOUS
 62
    4
 10
701.29699974873984
 20
228.31695767090901
 11
701.0002514545788
 21
228.17931253451314
  0
LINE
  8
_0-0_90_FRAME
  6
CONTINUOUS
 62
    4
 10
701.0002514545788
 20
228.17931253451314
 11
700.73204017439525
 21
227.99250090339763
  0
LINE
  8
_0-0_90_FRAME
  6
CONTINUOUS
 62
    4
 10
700.73204017439525
 20
227.99250090339763
 11
700.50051537221646
 21
227.76219895444262
  0
LINE
  8
_0-0_90_FRAME
  6
CONTINUOUS
 62
    4
 10
700.50051537221646
 20
227.76219895444262
 11
700.31271181199907
 21
227.49540429582873
  0
LINE
  8
_0-0_90_FRAME
  6
CONTINUOUS
 62
    4
 10
700.31271181199907
 20
227.49540429582873
 11
700.17433580988734
 21
227.20022334825336
  0
LINE
  8
_0-0_90_FRAME
  6
CONTINUOUS
 62
    4
 10
700.17433580988734
 20
227.20022334825336
 11
700.08959185068375
 21
226.88562503543974
  0
LINE
  8
_0-0_90_FRAME
  6
CONTINUOUS
 62
    4
 10
700.08959185068375
 20
226.88562503543974
 11
700.06105483670603
 21
226.56116826792837
  0
LINE
  8
_0-0_90_FRAME
  6
CONTINUOUS
 62
    4
 10
700.06105483670603
 20
226.56116826792837
 11
700.06105483670603
 21
226.56116826792837
  0
LINE
  8
_0-0_90_FRAME
  6
CONTINUOUS
 62
    4
 10
702.71070294980541
 20
224.23915608055796
 11
702.71070294980541
 21
224.23915608055796
  0
LINE
  8
_0-0_90_FRAME
  6
CONTINUOUS
 62
    4
 10
702.71070294980541
 20
224.23915608055796
 11
702.40156875481694
 21
224.13178536782956
  0
LINE
  8
_0-0_90_FRAME
  6
CONTINUOUS
 62
    4
 10
702.40156875481694
 20
224.13178536782956
 11
702.07839325673933
 21
224.07945996702952
  0
LINE
  8
_0-0_90_FRAME
  6
CONTINUOUS
 62
    4
 10
702.07839325673933
 20
224.07945996702952
 11
701.75099597954659
 21
224.08376975898324
  0
LINE
  8
_0-0_90_FRAME
  6
CONTINUOUS
 62
    4
 10
701.75099597954659
 20
224.08376975898324
 11
701.42932472383552
 21
224.14458379284304
  0
LINE
  8
_0-0_90_FRAME
  6
CONTINUOUS
 62
    4
 10
701.42932472383552
 20
224.14458379284304
 11
701.12315330793729
 21
224.26005426496351
  0
LINE
  8
_0-0_90_FRAME
  6
CONTINUOUS
 62
    4
 10
701.12315330793729
 20
224.26005426496351
 11
700.84178459539373
 21
224.42667266348013
  0
LINE
  8
_0-0_90_FRAME
  6
CONTINUOUS
 62
    4
 10
700.84178459539373
 20
224.42667266348013
 11
700.593767832156
 21
224.63937637266693
  0
LINE
  8
_0-0_90_FRAME
  6
CONTINUOUS
 62
    4
 10
700.593767832156
 20
224.63937637266693
 11
700.38663888207259
 21
224.89170249795359
  0
LINE
  8
_0-0_90_FRAME
  6
CONTINUOUS
 62
    4
 10
700.38663888207259
 20
224.89170249795359
 11
700.22669125347954
 21
225.17598423770639
  0
LINE
  8
_0-0_90_FRAME
  6
CONTINUOUS
 62
    4
 10
700.22669125347954
 20
225.17598423770639
 11
700.11878487413412
 21
225.48358383511649
  0
LINE
  8
_0-0_90_FRAME
  6
CONTINUOUS
 62
    4
 10
700.11878487413412
 20
225.48358383511649
 11
700.0661984247696
 21
225.80515503206948
  0
LINE
  8
_0-0_90_FRAME
  6
CONTINUOUS
 62
    4
 10
700.0661984247696
 20
225.80515503206948
 11
700.06105247865946
 21
225.94341046754667
  0
LINE
  8
_0-0_90_FRAME
  6
CONTINUOUS
 62
    4
 10
693.37510729325379
 20
223.05030266775077
 11
694.52477583080156
 21
223.05030266775077
  0
LINE
  8
_0-0_90_FRAME
  6
CONTINUOUS
 62
    4
 10
693.37510729325379
 20
223.05030266775077
 11
693.37510729325379
 21
223.08104174006999
  0
LINE
  8
_0-0_90_FRAME
  6
CONTINUOUS
 62
    4
 10
693.37510729325379
 20
223.08104174006999
 11
695.78996821392332
 21
229.45427606772515
  0
LINE
  8
_0-0_90_FRAME
  6
CONTINUOUS
 62
    4
 10
693.37510729325379
 20
223.05030266775077
 11
693.37510729325379
 21
223.08104174006999
  0
LINE
  8
_0-0_90_FRAME
  6
CONTINUOUS
 62
    4
 10
695.15157296600967
 20
224.73861487745594
 11
697.51591304207261
 21
224.73861487745594
  0
LINE
  8
_0-0_90_FRAME
  6
CONTINUOUS
 62
    4
 10
695.49818670011166
 20
225.71201883425158
 11
697.16929930797244
 21
225.71201883425158
  0
LINE
  8
_0-0_90_FRAME
  6
CONTINUOUS
 62
    4
 10
699.26676282122946
 20
223.05030266775077
 11
698.1170942836834
 21
223.05030266775077
  0
LINE
  8
_0-0_90_FRAME
  6
CONTINUOUS
 62
    4
 10
698.1170942836834
 20
223.05030266775077
 11
697.51591304207261
 21
224.73861487745594
  0
LINE
  8
_0-0_90_FRAME
  6
CONTINUOUS
 62
    4
 10
699.26676282122946
 20
223.08104174006999
 11
696.85190190055994
 21
229.45427606772515
  0
LINE
  8
_0-0_90_FRAME
  6
CONTINUOUS
 62
    4
 10
699.26676282122946
 20
223.05030266775077
 11
699.26676282122946
 21
223.08104174006999
  0
LINE
  8
_0-0_90_FRAME
  6
CONTINUOUS
 62
    4
 10
695.78996821392332
 20
229.45427606772515
 11
696.85190190055994
 21
229.45427606772515
  0
LINE
  8
_0-0_90_FRAME
  6
CONTINUOUS
 62
    4
 10
697.16929930797244
 20
225.71201883425158
 11
696.32093505724163
 21
228.09450122666942
  0
LINE
  8
_0-0_90_FRAME
  6
CONTINUOUS
 62
    4
 10
702.75504829294925
 20
225.35055575957736
 11
705.12716026089038
 21
223.39590902746946
  0
LINE
  8
_0-0_90_FRAME
  6
CONTINUOUS
 62
    4
 10
703.49542155712345
 20
223.47543697400044
 11
704.38589722740664
 21
222.60879092154403
  0
LINE
  8
_0-0_90_FRAME
  6
CONTINUOUS
 62
    4
 10
695.15157296600967
 20
224.73861487745594
 11
695.49818670011166
 21
225.71201883425158
  0
LINE
  8
_0-0_90_FRAME
  6
CONTINUOUS
 62
    4
 10
704.88527583643952
 20
225.86805096373897
 11
704.88527583643952
 21
225.86805096373897
  0
LINE
  8
_0-0_90_FRAME
  6
CONTINUOUS
 62
    4
 10
704.88527583643952
 20
225.86805096373897
 11
704.84052209346555
 21
225.37875410701645
  0
LINE
  8
_0-0_90_FRAME
  6
CONTINUOUS
 62
    4
 10
704.84052209346555
 20
225.37875410701645
 11
704.70762068437728
 21
224.90432428768929
  0
LINE
  8
_0-0_90_FRAME
  6
CONTINUOUS
 62
    4
 10
704.70762068437728
 20
224.90432428768929
 11
704.49060975123871
 21
224.45917681574466
  0
LINE
  8
_0-0_90_FRAME
  6
CONTINUOUS
 62
    4
 10
704.49060975123871
 20
224.45917681574466
 11
704.26411984713104
 21
224.13735383491249
  0
LINE
  8
_0-0_90_FRAME
  6
CONTINUOUS
 62
    4
 10
703.81784366624345
 20
225.94341046754667
 11
703.81784366624345
 21
225.94341046754667
  0
LINE
  8
_0-0_90_FRAME
  6
CONTINUOUS
 62
    4
 10
703.81784366624345
 20
225.94341046754667
 11
703.78930661644176
 21
225.61884971161814
  0
LINE
  8
_0-0_90_FRAME
  6
CONTINUOUS
 62
    4
 10
703.78930661644176
 20
225.61884971161814
 11
703.70456255085458
 21
225.30415057002284
  0
LINE
  8
_0-0_90_FRAME
  6
CONTINUOUS
 62
    4
 10
703.70456255085458
 20
225.30415057002284
 11
703.56618637503209
 21
225.00887501693268
  0
LINE
  8
_0-0_90_FRAME
  6
CONTINUOUS
 62
    4
 10
703.56618637503209
 20
225.00887501693268
 11
703.43875735744848
 21
224.8174617366742
  0
LINE
  8
_0-0_90_FRAME
  6
CONTINUOUS
 62
    4
 10
698.99362030846362
 20
226.63652777173607
 11
698.99362030846362
 21
225.86805096373897
  0
LINE
  8
_0-0_90_FRAME
  6
CONTINUOUS
 62
    4
 10
694.52477583080156
 20
223.05030266775077
 11
696.32093505724163
 21
228.09450122666942
  0
LINE
  8
_0-0_90_FRAME
  6
CONTINUOUS
 62
    4
 10
710.79177705512132
 20
223.05030266775077
 11
711.94144559266908
 21
223.05030266775077
  0
LINE
  8
_0-0_90_FRAME
  6
CONTINUOUS
 62
    4
 10
710.79177705512132
 20
223.05030266775077
 11
710.79177705512132
 21
223.08104174006999
  0
LINE
  8
_0-0_90_FRAME
  6
CONTINUOUS
 62
    4
 10
710.79177705512132
 20
223.08104174006999
 11
713.20663797579266
 21
229.45427606772515
  0
LINE
  8
_0-0_90_FRAME
  6
CONTINUOUS
 62
    4
 10
710.79177705512132
 20
223.05030266775077
 11
710.79177705512132
 21
223.08104174006999
  0
LINE
  8
_0-0_90_FRAME
  6
CONTINUOUS
 62
    4
 10
712.56824272787901
 20
224.73861487745594
 11
714.93258280394195
 21
224.73861487745594
  0
LINE
  8
_0-0_90_FRAME
  6
CONTINUOUS
 62
    4
 10
712.91485646197918
 20
225.71201883425158
 11
714.58596906984178
 21
225.71201883425158
  0
LINE
  8
_0-0_90_FRAME
  6
CONTINUOUS
 62
    4
 10
716.68343258309881
 20
223.05030266775077
 11
715.53376404555104
 21
223.05030266775077
  0
LINE
  8
_0-0_90_FRAME
  6
CONTINUOUS
 62
    4
 10
715.53376404555104
 20
223.05030266775077
 11
714.93258280394195
 21
224.73861487745594
  0
LINE
  8
_0-0_90_FRAME
  6
CONTINUOUS
 62
    4
 10
716.68343258309881
 20
223.08104174006999
 11
714.26857166242928
 21
229.45427606772515
  0
LINE
  8
_0-0_90_FRAME
  6
CONTINUOUS
 62
    4
 10
716.68343258309881
 20
223.05030266775077
 11
716.68343258309881
 21
223.08104174006999
  0
LINE
  8
_0-0_90_FRAME
  6
CONTINUOUS
 62
    4
 10
713.20663797579266
 20
229.45427606772515
 11
714.26857166242928
 21
229.45427606772515
  0
LINE
  8
_0-0_90_FRAME
  6
CONTINUOUS
 62
    4
 10
714.58596906984178
 20
225.71201883425158
 11
713.73760481911097
 21
228.09450122666942
  0
LINE
  8
_0-0_90_FRAME
  6
CONTINUOUS
 62
    4
 10
712.56824272787901
 20
224.73861487745594
 11
712.91485646197918
 21
225.71201883425158
  0
LINE
  8
_0-0_90_FRAME
  6
CONTINUOUS
 62
    4
 10
711.94144559266908
 20
223.05030266775077
 11
713.73760481911097
 21
228.09450122666942
  0
ARC
  8
_0-0_90_FRAME
  6
CONTINUOUS
 62
    4
 10
708.14910219265414
 20
225.75220156814808
 40
2.7100492712792992
 50
274.44474271147573
 51
357.5499690077387
  0
LINE
  8
_0-0_90_FRAME
  6
CONTINUOUS
 62
    4
 10
703.43875735744962
 20
224.81746173667503
 11
704.26411984713206
 21
224.13735383491272
  0
LINE
  8
_0-0_90_FRAME
  6
CONTINUOUS
 62
    4
 10
703.88704039208244
 20
218.51627512459876
 11
703.88704039208244
 21
218.51627512459876
  0
LINE
  8
_0-0_90_FRAME
  6
CONTINUOUS
 62
    4
 10
703.88704039208244
 20
218.51627512459876
 11
704.20987724853126
 21
218.64678174776134
  0
LINE
  8
_0-0_90_FRAME
  6
CONTINUOUS
 62
    4
 10
704.20987724853126
 20
218.64678174776134
 11
704.49999692922779
 21
218.82098453406829
  0
LINE
  8
_0-0_90_FRAME
  6
CONTINUOUS
 62
    4
 10
704.49999692922779
 20
218.82098453406829
 11
704.74858429448182
 21
219.03359042000858
  0
LINE
  8
_0-0_90_FRAME
  6
CONTINUOUS
 62
    4
 10
704.74858429448182
 20
219.03359042000858
 11
704.9480861429912
 21
219.27813948332167
  0
LINE
  8
_0-0_90_FRAME
  6
CONTINUOUS
 62
    4
 10
704.9480861429912
 20
219.27813948332167
 11
705.09244071204193
 21
219.54720122446656
  0
LINE
  8
_0-0_90_FRAME
  6
CONTINUOUS
 62
    4
 10
705.09244071204193
 20
219.54720122446656
 11
705.17726186110019
 21
219.83260033859042
  0
LINE
  8
_0-0_90_FRAME
  6
CONTINUOUS
 62
    4
 10
705.17726186110019
 20
219.83260033859042
 11
705.19997234247364
 21
220.12566511802947
  0
LINE
  8
_0-0_90_FRAME
  6
CONTINUOUS
 62
    4
 10
705.19997234247364
 20
220.12566511802947
 11
705.1598821096776
 21
220.41749093775843
  0
LINE
  8
_0-0_90_FRAME
  6
CONTINUOUS
 62
    4
 10
705.1598821096776
 20
220.41749093775843
 11
705.05820928414914
 21
220.6992108179158
  0
LINE
  8
_0-0_90_FRAME
  6
CONTINUOUS
 62
    4
 10
705.05820928414914
 20
220.6992108179158
 11
704.89804314324272
 21
220.96226484250016
  0
LINE
  8
_0-0_90_FRAME
  6
CONTINUOUS
 62
    4
 10
704.89804314324272
 20
220.96226484250016
 11
704.68425025410215
 21
221.19866024808624
  0
LINE
  8
_0-0_90_FRAME
  6
CONTINUOUS
 62
    4
 10
704.68425025410215
 20
221.19866024808624
 11
704.42332660547925
 21
221.40121427989718
  0
LINE
  8
_0-0_90_FRAME
  6
CONTINUOUS
 62
    4
 10
704.42332660547925
 20
221.40121427989718
 11
704.12320023040388
 21
221.56377243617368
  0
LINE
  8
_0-0_90_FRAME
  6
CONTINUOUS
 62
    4
 10
704.12320023040388
 20
221.56377243617368
 11
703.7929903169113
 21
221.68139546959566
  0
LINE
  8
_0-0_90_FRAME
  6
CONTINUOUS
 62
    4
 10
703.7929903169113
 20
221.68139546959566
 11
703.44273012612882
 21
221.75050946381273
  0
LINE
  8
_0-0_90_FRAME
  6
CONTINUOUS
 62
    4
 10
703.44273012612882
 20
221.75050946381273
 11
703.1331051364615
 21
221.76950798775547
  0
LINE
  8
_0-0_90_FRAME
  6
CONTINUOUS
 62
    4
 10
707.58074019933349
 20
216.39017033177711
 11
707.58074019933349
 21
220.74487224375949
  0
LINE
  8
_0-0_90_FRAME
  6
CONTINUOUS
 62
    4
 10
706.42802498733738
 20
216.39017033177711
 11
706.42802498733738
 21
220.74487224375949
  0
LINE
  8
_0-0_90_FRAME
  6
CONTINUOUS
 62
    4
 10
706.2999455193368
 20
221.76950798775593
 11
707.70881966733225
 21
221.76950798775593
  0
LINE
  8
_0-0_90_FRAME
  6
CONTINUOUS
 62
    4
 10
700.18727737247548
 20
221.76950798775593
 11
700.18727737247548
 21
215.36553458778155
  0
LINE
  8
_0-0_90_FRAME
  6
CONTINUOUS
 62
    4
 10
706.2999455193368
 20
215.36553458778155
 11
707.70881966733225
 21
215.36553458778155
  0
LINE
  8
_0-0_90_FRAME
  6
CONTINUOUS
 62
    4
 10
707.70881966733225
 20
215.36553458778155
 11
707.70881966733225
 21
216.26209086377835
  0
ARC
  8
_0-0_90_FRAME
  6
CONTINUOUS
 62
    4
 10
707.70881966733225
 20
216.39017033177711
 40
0.1280794679994825
 50
180
 51
270
  0
LINE
  8
_0-0_90_FRAME
  6
CONTINUOUS
 62
    4
 10
706.2999455193368
 20
215.36553458778155
 11
706.2999455193368
 21
216.26209086377835
  0
ARC
  8
_0-0_90_FRAME
  6
CONTINUOUS
 62
    4
 10
706.2999455193368
 20
216.39017033177711
 40
0.1280794679994825
 50
270
 51
0
  0
LINE
  8
_0-0_90_FRAME
  6
CONTINUOUS
 62
    4
 10
707.70881966733225
 20
221.76950798775593
 11
707.70881966733225
 21
220.87295171175913
  0
ARC
  8
_0-0_90_FRAME
  6
CONTINUOUS
 62
    4
 10
707.70881966733225
 20
220.74487224375949
 40
0.1280794679994825
 50
90
 51
180
  0
LINE
  8
_0-0_90_FRAME
  6
CONTINUOUS
 62
    4
 10
706.2999455193368
 20
221.76950798775593
 11
706.2999455193368
 21
220.87295171175913
  0
ARC
  8
_0-0_90_FRAME
  6
CONTINUOUS
 62
    4
 10
706.2999455193368
 20
220.74487224375949
 40
0.1280794679994825
 50
0
 51
90
  0
LINE
  8
_0-0_90_FRAME
  6
CONTINUOUS
 62
    4
 10
697.40797372666759
 20
215.36553458778155
 11
697.40797372666759
 21
220.74487224375949
  0
LINE
  8
_0-0_90_FRAME
  6
CONTINUOUS
 62
    4
 10
696.2552585146733
 20
215.36553458778155
 11
696.2552585146733
 21
220.74487224375949
  0
LINE
  8
_0-0_90_FRAME
  6
CONTINUOUS
 62
    4
 10
694.20598702668224
 20
221.76950798775593
 11
699.45724521466047
 21
221.76950798775593
  0
LINE
  8
_0-0_90_FRAME
  6
CONTINUOUS
 62
    4
 10
696.2552585146733
 20
215.36553458778155
 11
697.40797372666759
 21
215.36553458778155
  0
LINE
  8
_0-0_90_FRAME
  6
CONTINUOUS
 62
    4
 10
699.45724521466047
 20
221.76950798775593
 11
699.45724521466047
 21
220.87295171175913
  0
ARC
  8
_0-0_90_FRAME
  6
CONTINUOUS
 62
    4
 10
697.53605319466817
 20
220.74487224375949
 40
0.1280794679994825
 50
90
 51
180
  0
LINE
  8
_0-0_90_FRAME
  6
CONTINUOUS
 62
    4
 10
694.20598702668224
 20
221.76950798775593
 11
694.20598702668224
 21
220.87295171175913
  0
ARC
  8
_0-0_90_FRAME
  6
CONTINUOUS
 62
    4
 10
696.12717904667454
 20
220.74487224375949
 40
0.1280794679994825
 50
0
 51
90
  0
LINE
  8
_0-0_90_FRAME
  6
CONTINUOUS
 62
    4
 10
694.20598702668224
 20
220.87295171175913
 11
696.12717904667454
 21
220.87295171175913
  0
LINE
  8
_0-0_90_FRAME
  6
CONTINUOUS
 62
    4
 10
697.53605319466817
 20
220.87295171175913
 11
699.45724521466047
 21
220.87295171175913
  0
LINE
  8
_0-0_90_FRAME
  6
CONTINUOUS
 62
    4
 10
700.18727737247548
 20
215.36553458778155
 11
701.33999258446977
 21
215.36553458778155
  0
LINE
  8
_0-0_90_FRAME
  6
CONTINUOUS
 62
    4
 10
701.33999258446977
 20
215.36553458778155
 11
701.33999258446977
 21
220.87295171175913
  0
LINE
  8
_0-0_90_FRAME
  6
CONTINUOUS
 62
    4
 10
700.18727737247548
 20
221.76950798775593
 11
703.1331051364615
 21
221.76950798775593
  0
LINE
  8
_0-0_90_FRAME
  6
CONTINUOUS
 62
    4
 10
701.33999258446977
 20
220.87295171175913
 11
703.28680049806292
 21
220.87295171175913
  0
LINE
  8
_0-0_90_FRAME
  6
CONTINUOUS
 62
    4
 10
701.37841642486831
 20
218.4002701440551
 11
701.37841642486831
 21
219.29682642005187
  0
LINE
  8
_0-0_90_FRAME
  6
CONTINUOUS
 62
    4
 10
701.37841642486831
 20
218.4002701440551
 11
702.63610142373739
 21
218.4002701440551
  0
LINE
  8
_0-0_90_FRAME
  6
CONTINUOUS
 62
    4
 10
701.37841642486831
 20
219.29682642005187
 11
703.28680049806292
 21
219.29682642005187
  0
ARC
  8
_0-0_90_FRAME
  6
CONTINUOUS
 62
    4
 10
703.2593212707817
 20
220.08488906590551
 40
0.788541591624461
 50
271.9970571043541
 51
88.002942895541636
  0
LINE
  8
_0-0_90_FRAME
  6
CONTINUOUS
 62
    4
 10
704.08628670280643
 20
215.36553458778155
 11
705.32865754240095
 21
215.36553458778155
  0
LINE
  8
_0-0_90_FRAME
  6
CONTINUOUS
 62
    4
 10
704.22508633431983
 20
218.1192554893388
 11
705.32865754240095
 21
215.41676637498142
  0
LINE
  8
_0-0_90_FRAME
  6
CONTINUOUS
 62
    4
 10
703.11135408414168
 20
218.07927532541737
 11
704.08628670280643
 21
215.36553458778155
  0
ARC
  8
_0-0_90_FRAME
  6
CONTINUOUS
 62
    4
 10
702.63610142373739
 20
217.88795227205821
 40
0.5123178719979303
 50
21.928297866550263
 51
90
  0
ARC
  8
_0-0_90_FRAME
  6
CONTINUOUS
 62
    4
 10
703.45015745435751
 20
217.80186126678578
 40
0.8374090168554602
 50
22.272952259980947
 51
58.553113012863236
  0
LINE
  8
_0-0_90_FRAME
  6
CONTINUOUS
 62
    4
 10
705.32865754240095
 20
215.41676637498142
 11
705.32865754240095
 21
215.36553458778155
  0
LINE
  8
_0-0_90_FRAME
  6
CONTINUOUS
 62
    4
 10
708.86278294180568
 20
221.76950798775593
 11
708.86278294180568
 21
215.36553458778155
  0
LINE
  8
_0-0_90_FRAME
  6
CONTINUOUS
 62
    4
 10
708.86278294180568
 20
215.36553458778155
 11
710.01549815380179
 21
215.36553458778155
  0
LINE
  8
_0-0_90_FRAME
  6
CONTINUOUS
 62
    4
 10
710.01549815380179
 20
215.36553458778155
 11
710.0144367017657
 21
219.8483159677636
  0
LINE
  8
_0-0_90_FRAME
  6
CONTINUOUS
 62
    4
 10
708.86278294180568
 20
221.76950798775593
 11
710.53544819917636
 21
221.76950798775593
  0
LINE
  8
_0-0_90_FRAME
  6
CONTINUOUS
 62
    4
 10
714.11510258182
 20
219.8483159677636
 11
714.11510258182
 21
215.36553458778155
  0
LINE
  8
_0-0_90_FRAME
  6
CONTINUOUS
 62
    4
 10
714.11510258182
 20
215.36553458778155
 11
715.26781779381429
 21
215.36553458778155
  0
LINE
  8
_0-0_90_FRAME
  6
CONTINUOUS
 62
    4
 10
715.26781779381429
 20
215.36553458778155
 11
715.26781779381429
 21
221.76950798775593
  0
LINE
  8
_0-0_90_FRAME
  6
CONTINUOUS
 62
    4
 10
711.48841203579661
 20
215.36553458778155
 11
712.64112724779091
 21
215.36553458778155
  0
LINE
  8
_0-0_90_FRAME
  6
CONTINUOUS
 62
    4
 10
715.26781779381429
 20
221.76950798775593
 11
713.59409108440934
 21
221.76950798775593
  0
LINE
  8
_0-0_90_FRAME
  6
CONTINUOUS
 62
    4
 10
712.64112724779091
 20
215.36553458778155
 11
714.11510258182
 21
219.8483159677636
  0
LINE
  8
_0-0_90_FRAME
  6
CONTINUOUS
 62
    4
 10
711.48841203579661
 20
215.36553458778155
 11
710.0144367017657
 21
219.8483159677636
  0
LINE
  8
_0-0_90_FRAME
  6
CONTINUOUS
 62
    4
 10
712.06476964179285
 20
217.11840323132506
 11
713.59409108440934
 21
221.76950798775593
  0
LINE
  8
_0-0_90_FRAME
  6
CONTINUOUS
 62
    4
 10
712.06476964179285
 20
217.11840323132506
 11
710.53544819917636
 21
221.76950798775593
  0
TEXT
  8
_0-0_90_FRAME
 62
    2
 10
722.81850107909997
 20
226.88129051527903
 40
7.5607714285408791
 41
1
 50
0
  1
株式会社
  0
LINE
  8
_0-0_90_FRAME
  6
CONTINUOUS
 62
   18
 10
745.83539128375935
 20
242.5990854879675
 11
745.83539128375935
 21
277.95622834496874
  0
TEXT
  8
_0-0_90_FRAME
 62
    7
 10
811.82618171127115
 20
215.22432116608698
 40
10
 41
1
 50
0
  1
寺田
  0
TEXT
  8
_0-0_90_FRAME
 62
    7
 10
760.41903885435249
 20
251.08556119494796
 40
10
 41
1
 50
0
  1
1：2
  0
TEXT
  8
_0-0_90_FRAME
 62
    7
 10
850.00883493697984
 20
271.11040802704713
 40
5
 41
1
 50
0
  1
機器
  0
LINE
  8
_0-0_90_FRAME
  6
CONTINUOUS
 62
   18
 10
924.17347814623656
 20
277.95622834496874
 11
924.17347814623656
 21
227.04194263088823
  0
TEXT
  8
_0-0_90_FRAME
 62
    7
 10
925.53263608561986
 20
271.11040802704713
 40
5
 41
1
 50
0
  1
部品名
  0
TEXT
  8
_0-0_90_FRAME
 62
    7
 10
925.53263608561804
 20
242.57469374144614
 40
5
 41
1
 50
0
  1
図面番号
  0
LINE
  8
_0-0_90_FRAME
  6
CONTINUOUS
 62
   18
 10
848.6496769976003
 20
252.49908548792894
 11
924.17347814623656
 21
252.49908548792894
  0
TEXT
  8
_0-0_90_FRAME
 62
    7
 10
850.00883493697984
 20
245.40326517000736
 40
5
 41
1
 50
0
  1
型式
  0
LINE
  8
_0-0_90_FRAME
  6
CONTINUOUS
 62
   18
 10
299.67593987902677
 20
204.41337120240877
 11
503.67593987724183
 21
204.41337120240883
  0
LINE
  8
_0-0_90_FRAME
  6
CONTINUOUS
 62
   18
 10
503.67593987724183
 20
204.41337120240883
 11
503.67593987724183
 21
260.98479977360705
  0
LINE
  8
_0-0_90_FRAME
  6
CONTINUOUS
 62
   18
 10
503.67593987724183
 20
260.98479977360705
 11
299.67593987902677
 21
260.98479977360705
  0
LINE
  8
_0-0_90_FRAME
  6
CONTINUOUS
 62
   18
 10
299.67593987902677
 20
260.98479977360705
 11
299.67593987902677
 21
204.41337120240877
  0
LINE
  8
_0-0_90_FRAME
  6
CONTINUOUS
 62
   18
 10
475.67593987724183
 20
204.41337120240877
 11
475.67593987724183
 21
260.98479977360705
  0
LINE
  8
_0-0_90_FRAME
  6
CONTINUOUS
 62
   18
 10
327.67593987724189
 20
204.41337120240883
 11
327.67593987724189
 21
260.98479977360705
  0
LINE
  8
_0-0_90_FRAME
  6
CONTINUOUS
 62
   18
 10
359.67593987724189
 20
204.41337120240877
 11
359.67593987724189
 21
260.98479977360705
  0
LINE
  8
_0-0_90_FRAME
  6
CONTINUOUS
 62
   18
 10
299.67593987902677
 20
246.84194263081025
 11
503.67593987724183
 21
246.84194263081025
  0
LINE
  8
_0-0_90_FRAME
  6
CONTINUOUS
 62
   18
 10
299.67593987902677
 20
232.69908548800609
 11
503.67593987724183
 21
232.69908548800609
  0
LINE
  8
_0-0_90_FRAME
  6
CONTINUOUS
 62
   18
 10
299.67593987902677
 20
218.55622834520926
 11
503.67593987724183
 21
218.55622834520926
  0
TEXT
  8
_0-0_90_FRAME
 62
    7
 10
306.69412169631613
 20
251.51337120220867
 40
4.7999999999999998
 41
1
 50
0
  1
記号
  0
TEXT
  8
_0-0_90_FRAME
 62
    7
 10
336.00716913875823
 20
251.51337120220867
 40
4.7999999999999998
 41
1
 50
0
  1
日付
  0
TEXT
  8
_0-0_90_FRAME
 62
    7
 10
479.20321260451459
 20
251.51337120220867
 40
4.7999999999999998
 41
1
 50
0
  1
作成者
  0
TEXT
  8
_0-0_90_FRAME
 62
    7
 10
401.71230351360555
 20
251.43155302039045
 40
4.7999999999999998
 41
1
 50
0
  1
改訂内容
  0
LINE
  8
_0-0_90_FRAME
  6
CONTINUOUS
 62
   18
 10
307.31165416387211
 20
220.05834430491467
 11
313.67593987813433
 21
231.08161051589576
  0
LINE
  8
_0-0_90_FRAME
  6
CONTINUOUS
 62
   18
 10
313.67593987813433
 20
231.08161051589576
 11
320.04022559239291
 21
220.05834430491467
  0
LINE
  8
_0-0_90_FRAME
  6
CONTINUOUS
 62
   18
 10
320.04022559239291
 20
220.05834430491467
 11
307.31165416387211
 21
220.05834430491467
  0
TEXT
  8
_0-0_90_FRAME
 62
    7
 10
312.29754974035887
 20
236.2563371196112
 40
4.2428571428400002
 41
1
 50
0
  1
1
  0
TEXT
  8
_0-0_90_FRAME
 62
    7
 10
312.29754974035887
 20
222.11347997681074
 40
4.2428571428400002
 41
1
 50
0
  1
2
  0
TEXT
  8
_0-0_90_FRAME
 62
    7
 10
312.29754974035887
 20
207.97062283401024
 40
4.2428571428400002
 41
1
 50
0
  1
3
  0
LINE
  8
_0-0_90_FRAME
  6
CONTINUOUS
 62
   18
 10
307.31165416387211
 20
234.20120144771516
 11
313.67593987813433
 21
245.22446765869987
  0
LINE
  8
_0-0_90_FRAME
  6
CONTINUOUS
 62
   18
 10
313.67593987813433
 20
245.22446765869987
 11
320.04022559239291
 21
234.20120144771516
  0
LINE
  8
_0-0_90_FRAME
  6
CONTINUOUS
 62
   18
 10
320.04022559239291
 20
234.20120144771516
 11
307.31165416387211
 21
234.20120144771516
  0
LINE
  8
_0-0_90_FRAME
  6
CONTINUOUS
 62
   18
 10
307.31165416387211
 20
205.91548716211418
 11
313.67593987813433
 21
216.9387533730989
  0
LINE
  8
_0-0_90_FRAME
  6
CONTINUOUS
 62
   18
 10
313.67593987813433
 20
216.9387533730989
 11
320.04022559239291
 21
205.91548716211418
  0
LINE
  8
_0-0_90_FRAME
  6
CONTINUOUS
 62
   18
 10
320.04022559239291
 20
205.91548716211418
 11
307.31165416387211
 21
205.91548716211418
  0
LINE
  8
_0-0_90_FRAME
  6
CONTINUOUS
 62
    4
 10
779.9925252125596
 20
347.95622684072043
 11
1082.4353797292845
 21
347.95622684072043
  0
LINE
  8
_0-0_90_FRAME
  6
CONTINUOUS
 62
    4
 10
779.99253676567616
 20
347.95622684072043
 11
779.99253676567616
 21
277.95622834496874
  0
LINE
  8
_0-0_90_FRAME
  6
CONTINUOUS
 62
    4
 10
924.17347814623656
 20
347.95622684072043
 11
924.17347814623656
 21
277.95622834496874
  0
LINE
  8
_0-0_90_FRAME
  6
CONTINUOUS
 62
    4
 10
979.06170387519796
 20
347.95622684072043
 11
979.06170387520854
 21
277.95622834496874
  0
LINE
  8
_0-0_90_FRAME
  6
CONTINUOUS
 62
    4
 10
965.06170562519787
 20
347.95622684072043
 11
965.0617056252072
 21
277.95622834496874
  0
LINE
  8
_0-0_90_FRAME
  6
CONTINUOUS
 62
    4
 10
800.99253414067982
 20
347.95622684072043
 11
800.99253414067982
 21
277.95622834496874
  0
LINE
  8
_0-0_90_FRAME
  6
CONTINUOUS
 62
    4
 10
1000.0617012502051
 20
347.95622684072043
 11
1000.0617012502051
 21
277.95622834496874
  0
LINE
  8
_0-2_08_DIM
  6
CONTINUOUS
 62
    3
 10
413.30627362210691
 20
691.34759514683697
 11
463.65478046179402
 21
691.34759514683697
  0
INSERT
  2
-000-p1ba05
  8
_0-2_08_DIM
 10
442.48209172515601
 20
694.08277349719731
 41
3
 42
3
 50
0
  0
TEXT
  8
_0-0_90_FRAME
 62
    3
 10
969.79013979886156
 20
295.30157715621704
 40
5.9999999999999991
 41
1
 50
0
  1
8
  0
TEXT
  8
_0-0_90_FRAME
 62
    3
 10
927.39622666200069
 20
295.43490976174098
 40
5.9999999999999991
 41
1
 50
0
  1
SUS304
  0
TEXT
  8
_0-0_90_FRAME
 62
    3
 10
810.7463011516694
 20
295.35532500285137
 40
5.9999999999999991
 41
1
 50
0
  1
アーム
  0
TEXT
  8
_0-0_90_FRAME
 62
    3
 10
785.97738525463967
 20
295.20097863683134
 40
5.9999999999999991
 41
1
 50
0
  1
18
  0
TEXT
  8
_0-0_90_FRAME
 62
    3
 10
983.63508456424506
 20
285.1419596425838
 40
5
 41
1
 50
0
  1
重量
  0
TEXT
  8
_0-0_90_FRAME
 62
    3
 10
933.51035199906948
 20
281.91486382383709
 40
5.9999999999999991
 41
1
 50
0
  1
材　質
  0
TEXT
  8
_0-0_90_FRAME
 62
    3
 10
965.79698985049492
 20
281.8697699679467
 40
5.9999999999999991
 41
1
 50
0
  1
数量
  0
TEXT
  8
_0-0_90_FRAME
 62
    3
 10
985.84501409510358
 20
280.24961054800929
 40
4
 41
1
 50
0
  1
kg
  0
TEXT
  8
_0-0_90_FRAME
 62
    3
 10
1026.8225700153914
 20
281.7691714485494
 40
5.9999999999999991
 41
1
 50
0
  1
備  考
  0
TEXT
  8
_0-0_90_FRAME
 62
    3
 10
784.26852595476396
 20
281.7691714485494
 40
5.9999999999999991
 41
1
 50
0
  1
符号
  0
TEXT
  8
_0-0_90_FRAME
 62
    3
 10
835.13295415424238
 20
281.98694919910611
 40
5.9999999999999991
 41
1
 50
0
  1
部　　品　　名
  0
LINE
  8
_0-0_90_FRAME
  6
CONTINUOUS
 62
    4
 10
779.9925252125596
 20
333.95622684072043
 11
1082.4353797292845
 21
333.95622684072043
  0
LINE
  8
_0-0_90_FRAME
  6
CONTINUOUS
 62
    4
 10
779.9925252125596
 20
319.9562260931533
 11
1082.4353797292845
 21
319.9562260931533
  0
LINE
  8
_0-0_90_FRAME
  6
CONTINUOUS
 62
    4
 10
779.9925252125596
 20
305.95622684072049
 11
1082.4353797292845
 21
305.95622684072049
  0
LINE
  8
_0-0_90_FRAME
  6
CONTINUOUS
 62
    4
 10
779.9925252125596
 20
291.95622684072043
 11
1082.4353797292845
 21
291.95622684072043
  0
TEXT
  8
_0-0_90_FRAME
 62
    3
 10
785.97738525463967
 20
309.20097788926421
 40
5.9999999999999991
 41
1
 50
0
  1
19
  0
TEXT
  8
_0-0_90_FRAME
 62
    3
 10
785.47738525463967
 20
323.20098013652841
 40
5.9999999999999991
 41
1
 50
0
  1
20
  0
TEXT
  8
_0-0_90_FRAME
 62
    7
 10
980.68706284715381
 20
259.5346014094273
 40
8
 41
1
 50
0
  1
脱水機 部品図
  0
TEXT
  8
_0-0_90_FRAME
 62
    7
 10
853.53126062725266
 20
259.24754625049866
 40
6.4000000000000004
 41
0.9000000000000001
 50
0
  1
有機性汚泥燃料施設
  0
LINE
  8
_0-3_0
  6
CONTINUOUS
 62
   18
 10
638.5542418269257
 20
610.92395933191403
 11
465.55424182692479
 21
610.92395933191403
  0
LINE
  8
_0-3_0
  6
CONTINUOUS
 62
   18
 10
465.55424182692479
 20
610.92395933191403
 11
464.55424182692485
 21
611.92395933191415
  0
LINE
  8
_0-3_0
  6
CONTINUOUS
 62
   18
 10
464.55424182692485
 20
611.92395933191415
 11
464.55424182692485
 21
619.92395933191403
  0
LINE
  8
_0-3_0
  6
CONTINUOUS
 62
   18
 10
464.55424182692485
 20
619.92395933191403
 11
465.55424182692479
 21
620.92395933191403
  0
LINE
  8
_0-3_0
  6
CONTINUOUS
 62
   18
 10
465.55424182692479
 20
620.92395933191403
 11
638.5542418269257
 21
620.92395933191403
  0
LINE
  8
_0-3_0
  6
CONTINUOUS
 62
   18
 10
638.5542418269257
 20
620.92395933191403
 11
639.55424182692559
 21
619.92395933191403
  0
LINE
  8
_0-3_0
  6
CONTINUOUS
 62
   18
 10
639.55424182692559
 20
619.92395933191403
 11
639.5542418269257
 21
611.92395933191403
  0
LINE
  8
_0-3_0
  6
CONTINUOUS
 62
   18
 10
639.5542418269257
 20
611.92395933191403
 11
638.5542418269257
 21
610.92395933191403
  0
LINE
  8
_0-3_0
  6
CONTINUOUS
 62
   18
 10
614.55424182213631
 20
610.92395933136106
 11
614.55424182213631
 21
620.92395933136117
  0
LINE
  8
_0-3_0
  6
CONTINUOUS
 62
   18
 10
639.36624182637263
 20
611.73595933136096
 11
614.55424182213631
 21
611.73595933136096
  0
LINE
  8
_0-3_0
  6
CONTINUOUS
 62
   18
 10
639.36624182747846
 20
620.11195933136116
 11
614.55424182213631
 21
620.11195933136116
  0
LINE
  8
_0-3_0
  6
CONTINUOUS
 62
   18
 10
465.55424182692479
 20
620.92395933191403
 11
465.55424182692479
 21
610.92395933191403
  0
LINE
  8
_0-4_05_CENTER
  6
CENTER2
 62
    4
 10
462.28069914343416
 20
615.92395933191403
 11
642.16998120099072
 21
615.92395933191403
  0
LINE
  8
_0-5_04_HIDDEN
  6
CONTINUOUS
 62
    7
 10
525.65250186145545
 20
384.60423606003974
 11
537.48735047412515
 21
384.60423606003974
  0
LINE
  8
_0-5_04_HIDDEN
  6
CONTINUOUS
 62
    7
 10
525.65250186145545
 20
385.60423606003968
 11
537.9922478267315
 21
385.60423606003968
  0
LINE
  8
_0-5_04_HIDDEN
  6
CONTINUOUS
 62
    7
 10
525.65250186145545
 20
376.60423606003974
 11
537.4873504707881
 21
376.60423606003974
  0
LINE
  8
_0-5_04_HIDDEN
  6
CONTINUOUS
 62
    7
 10
525.65250186145545
 20
375.60423606003974
 11
537.9922478267315
 21
375.60423606003974
  0
ARC
  8
_0-3_0
  6
CONTINUOUS
 62
   18
 10
546.65250186236858
 20
380.60423605621622
 40
22.5
 50
201.03946978252208
 51
158.96053021747792
  0
CIRCLE
  8
_0-3_0
  6
CONTINUOUS
 62
   18
 10
546.65250186236858
 20
380.60423605621622
 40
10
  0
LINE
  8
_0-4_05_CENTER
  6
CENTER2
 62
    4
 10
520.65250186236665
 20
380.60423605621622
 11
572.65250186236665
 21
380.60423605621622
  0
LINE
  8
_0-4_05_CENTER
  6
CENTER2
 62
    4
 10
546.65250186236665
 20
406.60423605621622
 11
546.65250186236665
 21
354.60423605621622
  0
LINE
  8
_0-3_0
  6
CONTINUOUS
 62
   18
 10
525.65250186253763
 20
388.68198326735842
 11
525.65250186253763
 21
372.52648884507494
  0
LINE
  8
_0-5_04_HIDDEN
  6
CONTINUOUS
 62
    7
 10
554.25919515631597
 20
401.77941532657701
 11
547.77097593803933
 21
390.5414899898762
  0
LINE
  8
_0-5_04_HIDDEN
  6
CONTINUOUS
 62
    7
 10
553.29108032394072
 20
402.10259124933987
 11
546.65250185795196
 21
390.60423605621531
  0
LINE
  8
_0-5_04_HIDDEN
  6
CONTINUOUS
 62
    7
 10
561.18739838728163
 20
397.77941532777209
 11
554.69917916998349
 21
386.54148999276657
  0
LINE
  8
_0-5_04_HIDDEN
  6
CONTINUOUS
 62
    7
 10
561.95133436265564
 20
397.10259125084781
 11
555.31275589579548
 21
385.60423605621531
  0
LINE
  8
_0-4_05_CENTER
  6
CENTER2
 62
    4
 10
550.00249651691649
 20
386.40659700298079
 11
559.65250186236847
 21
403.12089655461222
  0
LINE
  8
_0-5_04_HIDDEN
  6
CONTINUOUS
 62
    7
 10
554.25919515631597
 20
359.42905678585544
 11
547.77097593803933
 21
370.66698212255619
  0
LINE
  8
_0-5_04_HIDDEN
  6
CONTINUOUS
 62
    7
 10
553.29108032394072
 20
359.10588086309252
 11
546.65250185795196
 21
370.60423605621708
  0
LINE
  8
_0-5_04_HIDDEN
  6
CONTINUOUS
 62
    7
 10
561.18739838728163
 20
363.42905678466036
 11
554.69917916998349
 21
374.66698211966582
  0
LINE
  8
_0-5_04_HIDDEN
  6
CONTINUOUS
 62
    7
 10
561.95133436265564
 20
364.10588086158464
 11
555.31275589579548
 21
375.60423605621713
  0
LINE
  8
_0-4_05_CENTER
  6
CENTER2
 62
    4
 10
550.00249651691649
 20
374.80187510945166
 11
559.65250186236847
 21
358.08757555782017
  0
LINE
  8
_0-3_0
  6
CONTINUOUS
 62
   18
 10
569.15250186236676
 20
442.62417628153912
 11
569.15250186236676
 21
460.62417628153906
  0
LINE
  8
_0-3_0
  6
CONTINUOUS
 62
   18
 10
569.15250186236676
 20
460.62417628153906
 11
568.15250186236665
 21
461.62417628153906
  0
LINE
  8
_0-3_0
  6
CONTINUOUS
 62
   18
 10
568.15250186236665
 20
461.62417628153906
 11
525.65250186253763
 21
461.62417628154049
  0
LINE
  8
_0-3_0
  6
CONTINUOUS
 62
   18
 10
525.65250186253763
 20
461.62417628154049
 11
525.65250186253763
 21
441.62417628153952
  0
LINE
  8
_0-3_0
  6
CONTINUOUS
 62
   18
 10
525.65250186253763
 20
441.62417628153952
 11
568.15250186236665
 21
441.62417628153912
  0
LINE
  8
_0-3_0
  6
CONTINUOUS
 62
   18
 10
568.15250186236665
 20
441.62417628153912
 11
569.15250186236676
 21
442.62417628153912
  0
LINE
  8
_0-5_04_HIDDEN
  6
CONTINUOUS
 62
    7
 10
525.65250186349078
 20
447.62417627771691
 11
536.65250186236676
 21
447.62417627771646
  0
LINE
  8
_0-5_04_HIDDEN
  6
CONTINUOUS
 62
    7
 10
525.65250186349078
 20
446.62417627771697
 11
536.65250186236676
 21
446.62417627771737
  0
LINE
  8
_0-5_04_HIDDEN
  6
CONTINUOUS
 62
    7
 10
525.65250186349078
 20
455.62417627771697
 11
536.65250186236676
 21
455.62417627771561
  0
LINE
  8
_0-5_04_HIDDEN
  6
CONTINUOUS
 62
    7
 10
525.65250186349078
 20
456.62417627771691
 11
536.65250186236676
 21
456.62417627771646
  0
LINE
  8
_0-4_05_CENTER
  6
CENTER2
 62
    4
 10
522.74718919906957
 20
451.62417628154049
 11
540.09174856104585
 21
451.62417628154003
  0
LINE
  8
_0-3_0
  6
CONTINUOUS
 62
   18
 10
557.90250186236665
 20
455.62417627771561
 11
557.90250186236665
 21
455.62417627771561
  0
LINE
  8
_0-3_0
  6
CONTINUOUS
 62
   18
 10
557.90250186236665
 20
455.62417627771561
 11
557.33208556699094
 21
455.56340728982252
  0
LINE
  8
_0-3_0
  6
CONTINUOUS
 62
   18
 10
557.33208556699094
 20
455.56340728982252
 11
556.77900108210554
 21
455.3829467610899
  0
LINE
  8
_0-3_0
  6
CONTINUOUS
 62
   18
 10
556.77900108210554
 20
455.3829467610899
 11
556.26005359990961
 21
455.08827789336573
  0
LINE
  8
_0-3_0
  6
CONTINUOUS
 62
   18
 10
556.26005359990961
 20
455.08827789336573
 11
555.79101107704946
 21
454.68835405108626
  0
LINE
  8
_0-3_0
  6
CONTINUOUS
 62
   18
 10
555.79101107704946
 20
454.68835405108626
 11
555.3861251332354
 21
454.19532671782787
  0
LINE
  8
_0-3_0
  6
CONTINUOUS
 62
   18
 10
555.3861251332354
 20
454.19532671782787
 11
555.05769802298789
 21
453.62417627962782
  0
LINE
  8
_0-3_0
  6
CONTINUOUS
 62
   18
 10
555.05769802298789
 20
453.62417627962782
 11
554.81570883785957
 21
452.99225685353468
  0
LINE
  8
_0-3_0
  6
CONTINUOUS
 62
   18
 10
554.81570883785957
 20
452.99225685353468
 11
554.66751029678846
 21
452.31876899154366
  0
LINE
  8
_0-3_0
  6
CONTINUOUS
 62
   18
 10
554.66751029678846
 20
452.31876899154366
 11
554.61760533745257
 21
451.62417628154003
  0
LINE
  8
_0-3_0
  6
CONTINUOUS
 62
   18
 10
554.61760533745257
 20
451.62417628154003
 11
554.66751029678846
 21
450.9295835715364
  0
LINE
  8
_0-3_0
  6
CONTINUOUS
 62
   18
 10
554.66751029678846
 20
450.9295835715364
 11
554.81570883785957
 21
450.25609570954538
  0
LINE
  8
_0-3_0
  6
CONTINUOUS
 62
   18
 10
554.81570883785957
 20
450.25609570954538
 11
555.05769802298789
 21
449.62417628345224
  0
LINE
  8
_0-3_0
  6
CONTINUOUS
 62
   18
 10
555.05769802298789
 20
449.62417628345224
 11
555.3861251332354
 21
449.05302584525219
  0
LINE
  8
_0-3_0
  6
CONTINUOUS
 62
   18
 10
555.3861251332354
 20
449.05302584525219
 11
555.79101107704946
 21
448.5599985119938
  0
LINE
  8
_0-3_0
  6
CONTINUOUS
 62
   18
 10
555.79101107704946
 20
448.5599985119938
 11
556.26005359990961
 21
448.16007466971433
  0
LINE
  8
_0-3_0
  6
CONTINUOUS
 62
   18
 10
556.26005359990961
 20
448.16007466971433
 11
556.77900108210554
 21
447.86540580199016
  0
LINE
  8
_0-3_0
  6
CONTINUOUS
 62
   18
 10
556.77900108210554
 20
447.86540580199016
 11
557.33208556699083
 21
447.68494527325754
  0
LINE
  8
_0-3_0
  6
CONTINUOUS
 62
   18
 10
557.33208556699083
 20
447.68494527325754
 11
557.90250186236665
 21
447.62417628536446
  0
LINE
  8
_0-3_0
  6
CONTINUOUS
 62
   18
 10
557.90250186236665
 20
447.62417628536446
 11
558.47291815774236
 21
447.68494527325754
  0
LINE
  8
_0-3_0
  6
CONTINUOUS
 62
   18
 10
558.47291815774236
 20
447.68494527325754
 11
559.02600264262776
 21
447.86540580199016
  0
LINE
  8
_0-3_0
  6
CONTINUOUS
 62
   18
 10
559.02600264262776
 20
447.86540580199016
 11
559.54495012482369
 21
448.16007466971433
  0
LINE
  8
_0-3_0
  6
CONTINUOUS
 62
   18
 10
559.54495012482369
 20
448.16007466971433
 11
560.01399264768384
 21
448.5599985119938
  0
LINE
  8
_0-3_0
  6
CONTINUOUS
 62
   18
 10
560.01399264768384
 20
448.5599985119938
 11
560.4188785914979
 21
449.05302584525214
  0
LINE
  8
_0-3_0
  6
CONTINUOUS
 62
   18
 10
560.4188785914979
 20
449.05302584525214
 11
560.7473057017454
 21
449.62417628345224
  0
LINE
  8
_0-3_0
  6
CONTINUOUS
 62
   18
 10
560.7473057017454
 20
449.62417628345224
 11
560.98929488687372
 21
450.25609570954538
  0
LINE
  8
_0-3_0
  6
CONTINUOUS
 62
   18
 10
560.98929488687372
 20
450.25609570954538
 11
561.13749342794483
 21
450.9295835715364
  0
LINE
  8
_0-3_0
  6
CONTINUOUS
 62
   18
 10
561.13749342794483
 20
450.9295835715364
 11
561.18739838728072
 21
451.62417628154003
  0
LINE
  8
_0-3_0
  6
CONTINUOUS
 62
   18
 10
561.18739838728072
 20
451.62417628154003
 11
561.13749342794495
 21
452.31876899154366
  0
LINE
  8
_0-3_0
  6
CONTINUOUS
 62
   18
 10
561.13749342794495
 20
452.31876899154366
 11
560.98929488687372
 21
452.99225685353468
  0
LINE
  8
_0-3_0
  6
CONTINUOUS
 62
   18
 10
560.98929488687372
 20
452.99225685353468
 11
560.74730570174552
 21
453.62417627962782
  0
LINE
  8
_0-3_0
  6
CONTINUOUS
 62
   18
 10
560.74730570174552
 20
453.62417627962782
 11
560.4188785914979
 21
454.19532671782787
  0
LINE
  8
_0-3_0
  6
CONTINUOUS
 62
   18
 10
560.4188785914979
 20
454.19532671782787
 11
560.01399264768384
 21
454.68835405108626
  0
LINE
  8
_0-3_0
  6
CONTINUOUS
 62
   18
 10
560.01399264768384
 20
454.68835405108626
 11
559.54495012482369
 21
455.08827789336573
  0
LINE
  8
_0-3_0
  6
CONTINUOUS
 62
   18
 10
559.54495012482369
 20
455.08827789336573
 11
559.02600264262776
 21
455.3829467610899
  0
LINE
  8
_0-3_0
  6
CONTINUOUS
 62
   18
 10
559.02600264262776
 20
455.3829467610899
 11
558.47291815774247
 21
455.56340728982252
  0
LINE
  8
_0-3_0
  6
CONTINUOUS
 62
   18
 10
558.47291815774247
 20
455.56340728982252
 11
557.90250186236665
 21
455.62417627771561
  0
LINE
  8
_0-3_0
  6
CONTINUOUS
 62
   18
 10
557.90250186236665
 20
455.62417627771561
 11
557.90250186236665
 21
455.62417627771561
  0
LINE
  8
_0-3_0
  6
CONTINUOUS
 62
   18
 10
557.90250186236665
 20
456.62417627771651
 11
557.90250186236665
 21
456.62417627771651
  0
LINE
  8
_0-3_0
  6
CONTINUOUS
 62
   18
 10
557.90250186236665
 20
456.62417627771651
 11
557.1017369157646
 21
456.54821504283564
  0
LINE
  8
_0-3_0
  6
CONTINUOUS
 62
   18
 10
557.1017369157646
 20
456.54821504283564
 11
556.32530280685853
 21
456.32263938187663
  0
LINE
  8
_0-3_0
  6
CONTINUOUS
 62
   18
 10
556.32530280685853
 20
456.32263938187663
 11
555.59679109315277
 21
455.95430329715094
  0
LINE
  8
_0-3_0
  6
CONTINUOUS
 62
   18
 10
555.59679109315277
 20
455.95430329715094
 11
554.93833723442367
 21
455.45439849420592
  0
LINE
  8
_0-3_0
  6
CONTINUOUS
 62
   18
 10
554.93833723442367
 20
455.45439849420592
 11
554.36994801797493
 21
454.83811432751503
  0
LINE
  8
_0-3_0
  6
CONTINUOUS
 62
   18
 10
554.36994801797493
 20
454.83811432751503
 11
553.90889366252952
 21
454.12417627962827
  0
LINE
  8
_0-3_0
  6
CONTINUOUS
 62
   18
 10
553.90889366252952
 20
454.12417627962827
 11
553.56918307137289
 21
453.33427699686064
  0
LINE
  8
_0-3_0
  6
CONTINUOUS
 62
   18
 10
553.56918307137289
 20
453.33427699686064
 11
553.36113817891555
 21
452.49241716921074
  0
LINE
  8
_0-3_0
  6
CONTINUOUS
 62
   18
 10
553.36113817891555
 20
452.49241716921074
 11
553.2910803239389
 21
451.62417628154003
  0
LINE
  8
_0-3_0
  6
CONTINUOUS
 62
   18
 10
553.2910803239389
 20
451.62417628154003
 11
553.36113817891555
 21
450.75593539386932
  0
LINE
  8
_0-3_0
  6
CONTINUOUS
 62
   18
 10
553.36113817891555
 20
450.75593539386932
 11
553.56918307137289
 21
449.91407556621942
  0
LINE
  8
_0-3_0
  6
CONTINUOUS
 62
   18
 10
553.56918307137289
 20
449.91407556621942
 11
553.90889366252952
 21
449.12417628345179
  0
LINE
  8
_0-3_0
  6
CONTINUOUS
 62
   18
 10
553.90889366252952
 20
449.12417628345179
 11
554.36994801797493
 21
448.41023823556503
  0
LINE
  8
_0-3_0
  6
CONTINUOUS
 62
   18
 10
554.36994801797493
 20
448.41023823556503
 11
554.93833723442367
 21
447.79395406887414
  0
LINE
  8
_0-3_0
  6
CONTINUOUS
 62
   18
 10
554.93833723442367
 20
447.79395406887414
 11
555.59679109315277
 21
447.29404926592912
  0
LINE
  8
_0-3_0
  6
CONTINUOUS
 62
   18
 10
555.59679109315277
 20
447.29404926592912
 11
556.32530280685853
 21
446.92571318120343
  0
LINE
  8
_0-3_0
  6
CONTINUOUS
 62
   18
 10
556.32530280685853
 20
446.92571318120343
 11
557.1017369157646
 21
446.70013752024443
  0
LINE
  8
_0-3_0
  6
CONTINUOUS
 62
   18
 10
557.1017369157646
 20
446.70013752024443
 11
557.90250186236665
 21
446.62417628536355
  0
LINE
  8
_0-3_0
  6
CONTINUOUS
 62
   18
 10
557.90250186236665
 20
446.62417628536355
 11
558.70326680896869
 21
446.70013752024443
  0
LINE
  8
_0-3_0
  6
CONTINUOUS
 62
   18
 10
558.70326680896869
 20
446.70013752024443
 11
559.47970091787477
 21
446.92571318120343
  0
LINE
  8
_0-3_0
  6
CONTINUOUS
 62
   18
 10
559.47970091787477
 20
446.92571318120343
 11
560.20821263158052
 21
447.29404926592912
  0
LINE
  8
_0-3_0
  6
CONTINUOUS
 62
   18
 10
560.20821263158052
 20
447.29404926592912
 11
560.86666649030963
 21
447.79395406887414
  0
LINE
  8
_0-3_0
  6
CONTINUOUS
 62
   18
 10
560.86666649030963
 20
447.79395406887414
 11
561.43505570675836
 21
448.41023823556503
  0
LINE
  8
_0-3_0
  6
CONTINUOUS
 62
   18
 10
561.43505570675836
 20
448.41023823556503
 11
561.89611006220377
 21
449.12417628345179
  0
LINE
  8
_0-3_0
  6
CONTINUOUS
 62
   18
 10
561.89611006220377
 20
449.12417628345179
 11
562.23582065336041
 21
449.91407556621937
  0
LINE
  8
_0-3_0
  6
CONTINUOUS
 62
   18
 10
562.23582065336041
 20
449.91407556621937
 11
562.44386554581774
 21
450.75593539386932
  0
LINE
  8
_0-3_0
  6
CONTINUOUS
 62
   18
 10
562.44386554581774
 20
450.75593539386932
 11
562.5139234007944
 21
451.62417628154003
  0
LINE
  8
_0-3_0
  6
CONTINUOUS
 62
   18
 10
562.5139234007944
 20
451.62417628154003
 11
562.44386554581774
 21
452.49241716921074
  0
LINE
  8
_0-3_0
  6
CONTINUOUS
 62
   18
 10
562.44386554581774
 20
452.49241716921074
 11
562.23582065336041
 21
453.33427699686064
  0
LINE
  8
_0-3_0
  6
CONTINUOUS
 62
   18
 10
562.23582065336041
 20
453.33427699686064
 11
561.89611006220377
 21
454.12417627962827
  0
LINE
  8
_0-3_0
  6
CONTINUOUS
 62
   18
 10
561.89611006220377
 20
454.12417627962827
 11
561.43505570675836
 21
454.83811432751503
  0
LINE
  8
_0-3_0
  6
CONTINUOUS
 62
   18
 10
561.43505570675836
 20
454.83811432751503
 11
560.86666649030963
 21
455.45439849420592
  0
LINE
  8
_0-3_0
  6
CONTINUOUS
 62
   18
 10
560.86666649030963
 20
455.45439849420592
 11
560.20821263158052
 21
455.95430329715094
  0
LINE
  8
_0-3_0
  6
CONTINUOUS
 62
   18
 10
560.20821263158052
 20
455.95430329715094
 11
559.47970091787477
 21
456.32263938187663
  0
LINE
  8
_0-3_0
  6
CONTINUOUS
 62
   18
 10
559.47970091787477
 20
456.32263938187663
 11
558.70326680896869
 21
456.54821504283564
  0
LINE
  8
_0-3_0
  6
CONTINUOUS
 62
   18
 10
558.70326680896869
 20
456.54821504283564
 11
557.90250186236665
 21
456.62417627771651
  0
LINE
  8
_0-3_0
  6
CONTINUOUS
 62
   18
 10
557.90250186236665
 20
456.62417627771651
 11
557.90250186236665
 21
456.62417627771651
  0
LINE
  8
_0-4_05_CENTER
  6
CENTER2
 62
    4
 10
565.5148875062165
 20
451.62417628465414
 11
544.79909193969945
 21
451.62417628465414
  0
LINE
  8
_0-4_05_CENTER
  6
CENTER2
 62
    4
 10
557.90250186085325
 20
444.01179063929084
 11
557.90250186085325
 21
459.2365619300183
  0
LINE
  8
_0-5_04_HIDDEN
  6
CONTINUOUS
 62
    7
 10
551.26392340079622
 20
455.62417627771561
 11
551.26392340079622
 21
455.62417627771561
  0
LINE
  8
_0-5_04_HIDDEN
  6
CONTINUOUS
 62
    7
 10
551.26392340079622
 20
455.62417627771561
 11
550.69350710542051
 21
455.56340728982252
  0
LINE
  8
_0-5_04_HIDDEN
  6
CONTINUOUS
 62
    7
 10
550.69350710542051
 20
455.56340728982252
 11
550.14042262053511
 21
455.3829467610899
  0
LINE
  8
_0-5_04_HIDDEN
  6
CONTINUOUS
 62
    7
 10
550.14042262053511
 20
455.3829467610899
 11
549.62147513833918
 21
455.08827789336573
  0
LINE
  8
_0-5_04_HIDDEN
  6
CONTINUOUS
 62
    7
 10
549.62147513833918
 20
455.08827789336573
 11
549.15243261547903
 21
454.68835405108626
  0
LINE
  8
_0-5_04_HIDDEN
  6
CONTINUOUS
 62
    7
 10
549.15243261547903
 20
454.68835405108626
 11
548.74754667166496
 21
454.19532671782787
  0
LINE
  8
_0-5_04_HIDDEN
  6
CONTINUOUS
 62
    7
 10
548.74754667166496
 20
454.19532671782787
 11
548.41911956141746
 21
453.62417627962782
  0
LINE
  8
_0-5_04_HIDDEN
  6
CONTINUOUS
 62
    7
 10
548.41911956141746
 20
453.62417627962782
 11
548.17713037628914
 21
452.99225685353468
  0
LINE
  8
_0-5_04_HIDDEN
  6
CONTINUOUS
 62
    7
 10
548.17713037628914
 20
452.99225685353468
 11
548.02893183521803
 21
452.31876899154366
  0
LINE
  8
_0-5_04_HIDDEN
  6
CONTINUOUS
 62
    7
 10
548.02893183521803
 20
452.31876899154366
 11
547.97902687588214
 21
451.62417628154003
  0
LINE
  8
_0-5_04_HIDDEN
  6
CONTINUOUS
 62
    7
 10
547.97902687588214
 20
451.62417628154003
 11
548.02893183521803
 21
450.9295835715364
  0
LINE
  8
_0-5_04_HIDDEN
  6
CONTINUOUS
 62
    7
 10
548.02893183521803
 20
450.9295835715364
 11
548.17713037628914
 21
450.25609570954538
  0
LINE
  8
_0-5_04_HIDDEN
  6
CONTINUOUS
 62
    7
 10
548.17713037628914
 20
450.25609570954538
 11
548.41911956141746
 21
449.62417628345224
  0
LINE
  8
_0-5_04_HIDDEN
  6
CONTINUOUS
 62
    7
 10
548.41911956141746
 20
449.62417628345224
 11
548.74754667166496
 21
449.05302584525219
  0
LINE
  8
_0-5_04_HIDDEN
  6
CONTINUOUS
 62
    7
 10
548.74754667166496
 20
449.05302584525219
 11
549.15243261547903
 21
448.5599985119938
  0
LINE
  8
_0-5_04_HIDDEN
  6
CONTINUOUS
 62
    7
 10
549.15243261547903
 20
448.5599985119938
 11
549.62147513833918
 21
448.16007466971433
  0
LINE
  8
_0-5_04_HIDDEN
  6
CONTINUOUS
 62
    7
 10
549.62147513833918
 20
448.16007466971433
 11
550.14042262053511
 21
447.86540580199016
  0
LINE
  8
_0-5_04_HIDDEN
  6
CONTINUOUS
 62
    7
 10
550.14042262053511
 20
447.86540580199016
 11
550.69350710542039
 21
447.68494527325754
  0
LINE
  8
_0-5_04_HIDDEN
  6
CONTINUOUS
 62
    7
 10
550.69350710542039
 20
447.68494527325754
 11
551.26392340079622
 21
447.62417628536446
  0
LINE
  8
_0-5_04_HIDDEN
  6
CONTINUOUS
 62
    7
 10
551.26392340079622
 20
447.62417628536446
 11
551.2641067118517
 21
447.62417629159268
  0
LINE
  8
_0-5_04_HIDDEN
  6
CONTINUOUS
 62
    7
 10
551.26392340079622
 20
456.62417627771651
 11
551.26392340079622
 21
456.62417627771651
  0
LINE
  8
_0-5_04_HIDDEN
  6
CONTINUOUS
 62
    7
 10
551.26392340079622
 20
456.62417627771651
 11
550.46315845419417
 21
456.54821504283564
  0
LINE
  8
_0-5_04_HIDDEN
  6
CONTINUOUS
 62
    7
 10
550.46315845419417
 20
456.54821504283564
 11
549.6867243452881
 21
456.32263938187663
  0
LINE
  8
_0-5_04_HIDDEN
  6
CONTINUOUS
 62
    7
 10
549.6867243452881
 20
456.32263938187663
 11
548.95821263158234
 21
455.95430329715094
  0
LINE
  8
_0-5_04_HIDDEN
  6
CONTINUOUS
 62
    7
 10
548.95821263158234
 20
455.95430329715094
 11
548.29975877285324
 21
455.45439849420592
  0
LINE
  8
_0-5_04_HIDDEN
  6
CONTINUOUS
 62
    7
 10
548.29975877285324
 20
455.45439849420592
 11
547.7313695564045
 21
454.83811432751503
  0
LINE
  8
_0-5_04_HIDDEN
  6
CONTINUOUS
 62
    7
 10
547.7313695564045
 20
454.83811432751503
 11
547.27031520095909
 21
454.12417627962827
  0
LINE
  8
_0-5_04_HIDDEN
  6
CONTINUOUS
 62
    7
 10
547.27031520095909
 20
454.12417627962827
 11
546.93060460980246
 21
453.33427699686064
  0
LINE
  8
_0-5_04_HIDDEN
  6
CONTINUOUS
 62
    7
 10
546.93060460980246
 20
453.33427699686064
 11
546.72255971734512
 21
452.49241716921074
  0
LINE
  8
_0-5_04_HIDDEN
  6
CONTINUOUS
 62
    7
 10
546.72255971734512
 20
452.49241716921074
 11
546.65250186236847
 21
451.62417628154003
  0
LINE
  8
_0-5_04_HIDDEN
  6
CONTINUOUS
 62
    7
 10
546.65250186236847
 20
451.62417628154003
 11
546.72255971734512
 21
450.75593539386932
  0
LINE
  8
_0-5_04_HIDDEN
  6
CONTINUOUS
 62
    7
 10
546.72255971734512
 20
450.75593539386932
 11
546.93060460980246
 21
449.91407556621942
  0
LINE
  8
_0-5_04_HIDDEN
  6
CONTINUOUS
 62
    7
 10
546.93060460980246
 20
449.91407556621942
 11
547.27031520095909
 21
449.12417628345179
  0
LINE
  8
_0-5_04_HIDDEN
  6
CONTINUOUS
 62
    7
 10
547.27031520095909
 20
449.12417628345179
 11
547.7313695564045
 21
448.41023823556503
  0
LINE
  8
_0-5_04_HIDDEN
  6
CONTINUOUS
 62
    7
 10
547.7313695564045
 20
448.41023823556503
 11
548.29975877285324
 21
447.79395406887414
  0
LINE
  8
_0-5_04_HIDDEN
  6
CONTINUOUS
 62
    7
 10
548.29975877285324
 20
447.79395406887414
 11
548.95821263158234
 21
447.29404926592912
  0
LINE
  8
_0-5_04_HIDDEN
  6
CONTINUOUS
 62
    7
 10
548.95821263158234
 20
447.29404926592912
 11
549.6867243452881
 21
446.92571318120343
  0
LINE
  8
_0-5_04_HIDDEN
  6
CONTINUOUS
 62
    7
 10
549.6867243452881
 20
446.92571318120343
 11
550.46315845419417
 21
446.70013752024443
  0
LINE
  8
_0-5_04_HIDDEN
  6
CONTINUOUS
 62
    7
 10
550.46315845419417
 20
446.70013752024443
 11
551.26392340079622
 21
446.62417628536355
  0
LINE
  8
_0-5_04_HIDDEN
  6
CONTINUOUS
 62
    7
 10
551.26392340079622
 20
446.62417628536355
 11
551.26415356975815
 21
446.62417629159177
  0
LINE
  8
_0-5_04_HIDDEN
  6
CONTINUOUS
 62
    7
 10
557.90250186236665
 20
456.62417627771646
 11
551.26392340079622
 21
456.62417627771646
  0
LINE
  8
_0-4_05_CENTER
  6
CENTER2
 62
    4
 10
551.26392339927918
 20
444.01179063929084
 11
551.26392339927918
 21
459.2365619300183
  0
LINE
  8
_0-5_04_HIDDEN
  6
CONTINUOUS
 62
    7
 10
551.26392340079622
 20
455.62417627771561
 11
557.90250186236665
 21
455.62417627771561
  0
LINE
  8
_0-5_04_HIDDEN
  6
CONTINUOUS
 62
    7
 10
557.90250186236665
 20
446.62417629159177
 11
551.26392340079622
 21
446.62417629159177
  0
LINE
  8
_0-5_04_HIDDEN
  6
CONTINUOUS
 62
    7
 10
551.26392340079622
 20
447.62417629159262
 11
557.90250186236665
 21
447.62417629159262
  0
LINE
  8
_0-3_0
  6
CONTINUOUS
 62
   18
 10
569.15250186236676
 20
460.62417628153906
 11
525.65250186253763
 21
460.62417628153906
  0
LINE
  8
_0-3_0
  6
CONTINUOUS
 62
   18
 10
569.15250186236676
 20
442.62417628154179
 11
525.65250186253763
 21
442.62417628154179
  0
LINE
  8
_0-3_0
  6
CONTINUOUS
 62
   18
 10
454.03834281151666
 20
403.10423606059635
 11
436.03834281151671
 21
403.10423606059635
  0
LINE
  8
_0-3_0
  6
CONTINUOUS
 62
   18
 10
436.03834281151671
 20
403.10423606059635
 11
435.03834281151666
 21
402.10423606059629
  0
LINE
  8
_0-3_0
  6
CONTINUOUS
 62
   18
 10
435.03834281151666
 20
402.10423606059629
 11
435.03834281151666
 21
359.10423606059629
  0
LINE
  8
_0-3_0
  6
CONTINUOUS
 62
   18
 10
435.03834281151666
 20
359.10423606059629
 11
436.03834281151671
 21
358.10423606059635
  0
LINE
  8
_0-3_0
  6
CONTINUOUS
 62
   18
 10
436.03834281151671
 20
358.10423606059635
 11
454.03834281151666
 21
358.10423606059635
  0
LINE
  8
_0-3_0
  6
CONTINUOUS
 62
   18
 10
454.03834281151666
 20
358.10423606059635
 11
455.03834281151666
 21
359.10423606059629
  0
LINE
  8
_0-3_0
  6
CONTINUOUS
 62
   18
 10
455.03834281151666
 20
359.10423606059629
 11
455.03834281151666
 21
402.10423606059629
  0
LINE
  8
_0-3_0
  6
CONTINUOUS
 62
   18
 10
455.03834281151666
 20
402.10423606059629
 11
454.03834281151666
 21
403.10423606059635
  0
LINE
  8
_0-4_05_CENTER
  6
CENTER2
 62
    4
 10
458.06568370265643
 20
380.60423606059999
 11
432.01100192038041
 21
380.60423606059999
  0
LINE
  8
_0-5_04_HIDDEN
  6
CONTINUOUS
 62
    7
 10
556.65250186236312
 20
442.62417628153929
 11
556.65250186236312
 21
460.62417628153923
  0
LINE
  8
_0-3_0
  6
CONTINUOUS
 62
    3
 10
455.03834281151666
 20
388.68198327173758
 11
435.03834281151666
 21
388.68198327173758
  0
LINE
  8
_0-3_0
  6
CONTINUOUS
 62
    3
 10
455.03834281151666
 20
372.52648884945501
 11
435.03834281151666
 21
372.52648884945501
  0
INSERT
  2
-001-M10Tz_1_1
  8
_0-3_0
 10
445.03834281151671
 20
380.60423606059629
 41
1
 42
1
 50
0
  0
LINE
  8
_0-5_04_HIDDEN
  6
CONTINUOUS
 62
    7
 10
449.03834281534012
 20
403.1042360596432
 11
449.03834281534012
 21
390.60423606059635
  0
LINE
  8
_0-5_04_HIDDEN
  6
CONTINUOUS
 62
    7
 10
450.03834281534017
 20
403.1042360596432
 11
450.03834281534017
 21
390.60423606059635
  0
LINE
  8
_0-5_04_HIDDEN
  6
CONTINUOUS
 62
    7
 10
441.03834281534017
 20
403.1042360596432
 11
441.03834281534017
 21
390.60423606059635
  0
LINE
  8
_0-5_04_HIDDEN
  6
CONTINUOUS
 62
    7
 10
440.03834281534012
 20
403.1042360596432
 11
440.03834281534012
 21
390.60423606059635
  0
LINE
  8
_0-4_05_CENTER
  6
CENTER2
 62
    4
 10
445.03834281151671
 20
406.00954872406254
 11
445.03834281151671
 21
387.16498936191624
  0
LINE
  8
_0-5_04_HIDDEN
  6
CONTINUOUS
 62
    7
 10
449.03834281534012
 20
358.1042360615495
 11
449.03834281534012
 21
370.60423606059635
  0
LINE
  8
_0-5_04_HIDDEN
  6
CONTINUOUS
 62
    7
 10
450.03834281534017
 20
358.1042360615495
 11
450.03834281534017
 21
370.60423606059635
  0
LINE
  8
_0-5_04_HIDDEN
  6
CONTINUOUS
 62
    7
 10
441.03834281534017
 20
358.1042360615495
 11
441.03834281534017
 21
370.60423606059635
  0
LINE
  8
_0-5_04_HIDDEN
  6
CONTINUOUS
 62
    7
 10
440.03834281534012
 20
358.1042360615495
 11
440.03834281534012
 21
370.60423606059635
  0
LINE
  8
_0-4_05_CENTER
  6
CENTER2
 62
    4
 10
445.03834281151671
 20
355.1989233971301
 11
445.03834281151671
 21
374.0434827592764
  0
LINE
  8
_0-3_0
  6
CONTINUOUS
 62
   18
 10
454.03834281151666
 20
403.10423606059635
 11
454.03834281151666
 21
388.68198327173758
  0
LINE
  8
_0-3_0
  6
CONTINUOUS
 62
   18
 10
436.03834281151671
 20
403.10423606059635
 11
436.03834281151671
 21
388.68198327173758
  0
LINE
  8
_0-3_0
  6
CONTINUOUS
 62
   18
 10
436.03834281151671
 20
372.52648884945501
 11
436.03834281151671
 21
358.10423606059635
  0
LINE
  8
_0-3_0
  6
CONTINUOUS
 62
   18
 10
454.03834281151666
 20
372.52648884945501
 11
454.03834281151666
 21
358.10423606059635
  0
LINE
  8
_0-3_0
  6
CONTINUOUS
 62
   18
 10
638.5542418269257
 20
610.92395933136106
 11
638.5542418269257
 21
620.92395933136117
  0
LINE
  8
_0-2_08_DIM
  6
CONTINUOUS
 62
    3
 10
383.28319586659853
 20
481.26004969665172
 11
474.92481445618535
 21
481.26004969665172
  0
INSERT
  2
-000-p1ba05
  8
_0-2_08_DIM
 10
404.22661019602924
 20
483.99522804701223
 41
3
 42
3
 50
0
  0
INSERT
  2
-002-p1ba01
  8
_0-2_08_DIM
 10
428.67640572153653
 20
483.64448602297153
 41
3
 42
3
 50
0
  0
INSERT
  2
-003-p1ba02
  8
_0-2_08_DIM
 10
444.73079000623574
 20
483.64448602297153
 41
3
 42
3
 50
0
  0
TEXT
  8
_0-6_07_TEXT
 62
    3
 10
413.29541144556441
 20
483.41875035670984
 40
9
 41
1
 50
0
  1
(   　　  )
  0
LINE
  8
_0-5_04_HIDDEN
  6
CONTINUOUS
 62
    7
 10
823.54625936118498
 20
621.63189368927601
 11
873.54625936118498
 21
621.63189368927601
  0
LINE
  8
_0-4_05_CENTER
  6
CENTER2
 62
    4
 10
818.43664664967775
 20
626.73189368927603
 11
878.72392491608264
 21
626.73189368927603
  0
LINE
  8
_0-5_04_HIDDEN
  6
CONTINUOUS
 62
    7
 10
823.54625936118498
 20
631.83189368927617
 11
873.54625936118498
 21
631.83189368927617
  0
LINE
  8
_0-3_0
  6
CONTINUOUS
 62
   18
 10
825.54625936118498
 20
651.73189368927649
 11
825.54625936118498
 21
601.73189368927603
  0
LINE
  8
_0-3_0
  6
CONTINUOUS
 62
   18
 10
871.54625936118498
 20
651.73189368927649
 11
871.54625936118498
 21
601.73189368927603
  0
CIRCLE
  8
_0-3_0
  6
CONTINUOUS
 62
   18
 10
950.79264306510993
 20
626.73189368741714
 40
5.0999999999999996
  0
CIRCLE
  8
_0-3_0
  6
CONTINUOUS
 62
   18
 10
950.79264306510993
 20
626.73189368741714
 40
25.000000000000455
  0
LINE
  8
_0-4_05_CENTER
  6
CENTER2
 62
    4
 10
979.92690637846169
 20
626.73189368927524
 11
921.65837975176908
 21
626.73189368927524
  0
LINE
  8
_0-4_05_CENTER
  6
CENTER2
 62
    4
 10
950.79264306508628
 20
597.59763037595792
 11
950.79264306508628
 21
655.86615700259233
  0
LINE
  8
_0-3_0
  6
CONTINUOUS
 62
   18
 10
825.54625936118407
 20
601.73189368927603
 11
871.54625936118498
 21
601.73189368927603
  0
LINE
  8
_0-3_0
  6
CONTINUOUS
 62
   18
 10
871.54625936118498
 20
601.73189368927603
 11
873.54625936118498
 21
603.73189368927603
  0
LINE
  8
_0-3_0
  6
CONTINUOUS
 62
   18
 10
873.54625936118498
 20
603.73189368927603
 11
873.54625936118589
 21
649.73189368927615
  0
LINE
  8
_0-3_0
  6
CONTINUOUS
 62
   18
 10
873.54625936118589
 20
649.73189368927615
 11
871.54625936118578
 21
651.73189368927603
  0
LINE
  8
_0-3_0
  6
CONTINUOUS
 62
   18
 10
871.54625936118578
 20
651.73189368927603
 11
825.54625936118498
 21
651.73189368927649
  0
LINE
  8
_0-3_0
  6
CONTINUOUS
 62
   18
 10
825.54625936118498
 20
651.73189368927649
 11
823.54625936118498
 21
649.73189368927615
  0
LINE
  8
_0-3_0
  6
CONTINUOUS
 62
   18
 10
823.54625936118498
 20
649.73189368927615
 11
823.54625936118407
 21
603.73189368927603
  0
LINE
  8
_0-3_0
  6
CONTINUOUS
 62
   18
 10
823.54625936118407
 20
603.73189368927603
 11
825.54625936118407
 21
601.73189368927603
  0
LINE
  8
_0-2_08_DIM
  6
CONTINUOUS
 62
    3
 10
758.70125165227341
 20
693.58685270554304
 11
826.27720446587193
 21
693.58685270554304
  0
INSERT
  2
-000-p1ba05
  8
_0-2_08_DIM
 10
780.62532986624149
 20
696.32203105590361
 41
3
 42
3
 50
0
  0
LINE
  8
_0-3_0
  6
CONTINUOUS
 62
    3
 10
455.03834281151666
 20
388.68198327173758
 11
448.92789201935693
 21
383.74611558721921
  0
LINE
  8
_0-3_0
  6
CONTINUOUS
 62
    3
 10
441.14879360367996
 20
377.46235653397633
 11
435.03834281151666
 21
372.52648884945501
  0
LINE
  8
_0-3_0
  6
CONTINUOUS
 62
    3
 10
455.03834281151666
 20
372.52648884946228
 11
448.92789201935693
 21
377.46235653398071
  0
LINE
  8
_0-3_0
  6
CONTINUOUS
 62
    3
 10
441.14879360367996
 20
383.74611558722358
 11
435.03834281151666
 21
388.68198327174491
  0
INSERT
  2
-003-p1ba02
  8
_0-2_08_DIM
 10
466.98779488055897
 20
370.60423606059635
 41
2
 42
2
 50
0
  0
INSERT
  2
-002-p1ba01
  8
_0-2_08_DIM
 10
525.65250186253843
 20
408.0747336093786
 41
2
 42
2
 50
90
  0
INSERT
  2
-002-p1ba01
  8
_0-2_08_DIM
 10
435.03834281151666
 20
413.56567817121413
 41
2
 42
2
 50
90
  0
INSERT
  2
-002-p1ba01
  8
_0-2_08_DIM
 10
455.03834281151666
 20
413.56567817121413
 41
2
 42
2
 50
270
  0
LINE
  8
_0-5_04_HIDDEN
  6
CONTINUOUS
 62
    7
 10
556.65250186236312
 20
442.62417628153929
 11
557.65250186236301
 21
441.62417628153929
  0
LINE
  8
_0-5_04_HIDDEN
  6
CONTINUOUS
 62
    7
 10
556.65250186236312
 20
460.62417628153923
 11
557.65250186236301
 21
461.62417628153923
  0
LINE
  8
_0-5_04_HIDDEN
  6
CONTINUOUS
 62
    7
 10
536.65250186237029
 20
442.62417628153929
 11
536.65250186237029
 21
460.62417628153923
  0
LINE
  8
_0-5_04_HIDDEN
  6
CONTINUOUS
 62
    7
 10
536.65250186237029
 20
442.62417628153929
 11
535.6525018623704
 21
441.62417628153929
  0
LINE
  8
_0-5_04_HIDDEN
  6
CONTINUOUS
 62
    7
 10
536.65250186237029
 20
460.62417628153923
 11
535.6525018623704
 21
461.62417628153923
  0
LINE
  8
_0-5_04_HIDDEN
  6
CONTINUOUS
 62
    7
 10
536.65250186237029
 20
442.62417628153929
 11
556.65250186236312
 21
442.62417628153929
  0
LINE
  8
_0-5_04_HIDDEN
  6
CONTINUOUS
 62
    7
 10
536.65250186237029
 20
460.62417628153923
 11
556.65250186236312
 21
460.62417628153923
  0
LINE
  8
_0-5_04_HIDDEN
  6
CONTINUOUS
 62
    7
 10
454.03834280803005
 20
390.60423606474092
 11
436.03834280803011
 21
390.60423606474092
  0
LINE
  8
_0-5_04_HIDDEN
  6
CONTINUOUS
 62
    7
 10
454.03834280803005
 20
390.60423606474092
 11
455.03834280803011
 21
391.60423606474092
  0
LINE
  8
_0-5_04_HIDDEN
  6
CONTINUOUS
 62
    7
 10
436.03834280803011
 20
390.60423606474092
 11
435.03834280803005
 21
391.60423606474092
  0
LINE
  8
_0-5_04_HIDDEN
  6
CONTINUOUS
 62
    7
 10
454.03834280803005
 20
370.60423606474819
 11
436.03834280803011
 21
370.60423606474819
  0
LINE
  8
_0-5_04_HIDDEN
  6
CONTINUOUS
 62
    7
 10
454.03834280803005
 20
370.60423606474819
 11
455.03834280803011
 21
369.60423606474819
  0
LINE
  8
_0-5_04_HIDDEN
  6
CONTINUOUS
 62
    7
 10
436.03834280803011
 20
370.60423606474819
 11
435.03834280803005
 21
369.60423606474819
  0
LINE
  8
_0-5_04_HIDDEN
  6
CONTINUOUS
 62
    7
 10
454.03834280803005
 20
370.60423606474819
 11
454.03834280803005
 21
390.60423606474092
  0
LINE
  8
_0-5_04_HIDDEN
  6
CONTINUOUS
 62
    7
 10
436.03834280803011
 20
370.60423606474819
 11
436.03834280803011
 21
390.60423606474092
  0
LINE
  8
_0-4_05_CENTER
  6
CENTER2
 62
    4
 10
546.65250186236665
 20
438.59683539351607
 11
546.65250186236665
 21
464.65151717579204
  0
TEXT
  8
_0-0_90_FRAME
 62
    3
 10
969.79013979886156
 20
309.30157715621704
 40
5.9999999999999991
 41
1
 50
0
  1
8
  0
TEXT
  8
_0-0_90_FRAME
 62
    3
 10
927.39622666200069
 20
309.43490976174098
 40
5.9999999999999991
 41
1
 50
0
  1
SUS304
  0
TEXT
  8
_0-0_90_FRAME
 62
    3
 10
810.7463011516694
 20
309.35532500285137
 40
5.9999999999999991
 41
1
 50
0
  1
ウェイト2
  0
TEXT
  8
_0-0_90_FRAME
 62
    3
 10
969.79013979886156
 20
323.30157865818978
 40
5.9999999999999991
 41
1
 50
0
  1
2
  0
TEXT
  8
_0-0_90_FRAME
 62
    3
 10
927.39622666200069
 20
323.43491126371373
 40
5.9999999999999991
 41
1
 50
0
  1
SUS304
  0
TEXT
  8
_0-0_90_FRAME
 62
    3
 10
810.7463011516694
 20
323.35532650482412
 40
5.9999999999999991
 41
1
 50
0
  1
ボス1
  0
INSERT
  2
-002-p1ba01
  8
_0-2_08_DIM
 10
823.54625936118498
 20
661.54147854118094
 41
2
 42
2
 50
90
  0
INSERT
  2
-002-p1ba01
  8
_0-2_08_DIM
 10
873.54625936118589
 20
661.54147854118048
 41
2
 42
2
 50
270
  0
INSERT
  2
-002-p1ba01
  8
_0-2_08_DIM
 10
805.443600315955
 20
695.97128903186274
 41
3
 42
3
 50
0
  0
TEXT
  8
_0-6_07_TEXT
 62
    3
 10
791.79720249391369
 20
695.74555336560104
 40
9
 41
1
 50
0
  1
( 　 )
  0
CIRCLE
  8
_0-3_0
  6
CONTINUOUS
 62
   18
 10
609.55424182213631
 20
615.92395933191403
 40
2
  0
LINE
  8
_0-4_05_CENTER
  6
CENTER2
 62
    4
 10
609.55424182213631
 20
619.60059301964543
 11
609.55424182213631
 21
612.24732564418275
  0
LINE
  8
_0-3_0
  6
CONTINUOUS
 62
   18
 10
725.68105002653635
 20
440.1933742884583
 11
707.68105002653647
 21
440.1933742884583
  0
LINE
  8
_0-3_0
  6
CONTINUOUS
 62
   18
 10
707.68105002653647
 20
440.1933742884583
 11
706.68105002653635
 21
439.1933742884583
  0
LINE
  8
_0-3_0
  6
CONTINUOUS
 62
   18
 10
706.68105002653635
 20
439.1933742884583
 11
706.68105002653635
 21
391.19337429722538
  0
LINE
  8
_0-3_0
  6
CONTINUOUS
 62
   18
 10
706.68105002653635
 20
391.19337429722538
 11
707.68105002653647
 21
390.19337429722543
  0
LINE
  8
_0-3_0
  6
CONTINUOUS
 62
   18
 10
707.68105002653647
 20
390.19337429722543
 11
725.68105002653635
 21
390.19337429722543
  0
LINE
  8
_0-3_0
  6
CONTINUOUS
 62
   18
 10
725.68105002653635
 20
390.19337429722543
 11
726.68105002653635
 21
391.19337429722538
  0
LINE
  8
_0-3_0
  6
CONTINUOUS
 62
   18
 10
726.68105002653635
 20
391.19337429722538
 11
726.68105002653635
 21
439.1933742884583
  0
LINE
  8
_0-3_0
  6
CONTINUOUS
 62
   18
 10
726.68105002653635
 20
439.1933742884583
 11
725.68105002653635
 21
440.1933742884583
  0
LINE
  8
_0-7_10_DRAFT
  6
CONTINUOUS
 62
    8
 10
726.68105002653635
 20
415.19337429283826
 11
706.68105002653635
 21
415.19337429283826
  0
LINE
  8
_0-3_0
  6
CONTINUOUS
 62
   18
 10
726.68105002653635
 20
423.72273534353008
 11
706.68105002653635
 21
423.72273534353008
  0
LINE
  8
_0-3_0
  6
CONTINUOUS
 62
   18
 10
726.68105002653635
 20
406.66401323338602
 11
706.68105002653635
 21
406.66401323338602
  0
INSERT
  2
-004-M10Tz_1_1_1
  8
_0-3_0
 10
716.68105002653635
 20
415.19337429283826
 41
1
 42
1
 50
0
  0
LINE
  8
_0-5_04_HIDDEN
  6
CONTINUOUS
 62
    7
 10
720.68105003035998
 20
440.19337428750561
 11
720.68105003035998
 21
430.1933742884583
  0
LINE
  8
_0-5_04_HIDDEN
  6
CONTINUOUS
 62
    7
 10
721.68105003035987
 20
440.19337428750561
 11
721.68105003035987
 21
430.1933742884583
  0
LINE
  8
_0-5_04_HIDDEN
  6
CONTINUOUS
 62
    7
 10
712.68105003035987
 20
440.19337428750561
 11
712.68105003035987
 21
430.1933742884583
  0
LINE
  8
_0-5_04_HIDDEN
  6
CONTINUOUS
 62
    7
 10
711.68105003035998
 20
440.19337428750561
 11
711.68105003035998
 21
430.1933742884583
  0
LINE
  8
_0-4_05_CENTER
  6
CENTER2
 62
    4
 10
716.68105002653635
 20
443.09868695192461
 11
716.68105002653635
 21
426.69274043723681
  0
LINE
  8
_0-5_04_HIDDEN
  6
CONTINUOUS
 62
    7
 10
720.68105003035998
 20
390.19337429817807
 11
720.68105003035998
 21
400.19337429722538
  0
LINE
  8
_0-5_04_HIDDEN
  6
CONTINUOUS
 62
    7
 10
721.68105003035987
 20
390.19337429817807
 11
721.68105003035987
 21
400.19337429722538
  0
LINE
  8
_0-5_04_HIDDEN
  6
CONTINUOUS
 62
    7
 10
712.68105003035987
 20
390.19337429817807
 11
712.68105003035987
 21
400.19337429722538
  0
LINE
  8
_0-5_04_HIDDEN
  6
CONTINUOUS
 62
    7
 10
711.68105003035998
 20
390.19337429817807
 11
711.68105003035998
 21
400.19337429722538
  0
LINE
  8
_0-4_05_CENTER
  6
CENTER2
 62
    4
 10
716.68105002653635
 20
387.28806163375913
 11
716.68105002653635
 21
403.63262099590548
  0
LINE
  8
_0-3_0
  6
CONTINUOUS
 62
   18
 10
725.68105002653635
 20
440.1933742884583
 11
725.68105002653635
 21
423.72273534353008
  0
LINE
  8
_0-3_0
  6
CONTINUOUS
 62
   18
 10
707.68105002653647
 20
440.1933742884583
 11
707.68105002653647
 21
423.72273534353008
  0
LINE
  8
_0-3_0
  6
CONTINUOUS
 62
   18
 10
707.68105002653647
 20
406.66401323338602
 11
707.68105002653647
 21
390.19337429722543
  0
LINE
  8
_0-3_0
  6
CONTINUOUS
 62
   18
 10
725.68105002653635
 20
406.66401323338602
 11
725.68105002653635
 21
390.19337429722543
  0
LINE
  8
_0-3_0
  6
CONTINUOUS
 62
   18
 10
847.89316035845172
 20
477.21331451378461
 11
847.89316035845172
 21
495.21331451378461
  0
LINE
  8
_0-3_0
  6
CONTINUOUS
 62
   18
 10
847.89316035845172
 20
495.21331451378461
 11
846.89316035845195
 21
496.21331451378467
  0
LINE
  8
_0-3_0
  6
CONTINUOUS
 62
   18
 10
846.89316035845195
 20
496.21331451378467
 11
799.393160358621
 21
496.21331451378649
  0
LINE
  8
_0-3_0
  6
CONTINUOUS
 62
   18
 10
799.393160358621
 20
496.21331451378649
 11
799.393160358621
 21
476.21331451378552
  0
LINE
  8
_0-3_0
  6
CONTINUOUS
 62
   18
 10
799.393160358621
 20
476.21331451378552
 11
846.89316035845195
 21
476.21331451378455
  0
LINE
  8
_0-3_0
  6
CONTINUOUS
 62
   18
 10
846.89316035845195
 20
476.21331451378455
 11
847.89316035845172
 21
477.21331451378461
  0
LINE
  8
_0-7_10_DRAFT
  6
CONTINUOUS
 62
    8
 10
822.89316035845002
 20
476.21331451378552
 11
822.89316035845002
 21
496.21331451378558
  0
LINE
  8
_0-5_04_HIDDEN
  6
CONTINUOUS
 62
    7
 10
837.89316035845195
 20
476.21331451378552
 11
837.89316035845195
 21
496.21331451378558
  0
LINE
  8
_0-5_04_HIDDEN
  6
CONTINUOUS
 62
    7
 10
807.89316035845184
 20
476.21331451378552
 11
807.89316035845184
 21
496.21331451378558
  0
LINE
  8
_0-5_04_HIDDEN
  6
CONTINUOUS
 62
    7
 10
799.39316035957415
 20
482.21331450996291
 11
807.89316035845184
 21
482.213314509962
  0
LINE
  8
_0-5_04_HIDDEN
  6
CONTINUOUS
 62
    7
 10
799.39316035957415
 20
481.21331450996297
 11
807.89316035845184
 21
481.21331450996297
  0
LINE
  8
_0-5_04_HIDDEN
  6
CONTINUOUS
 62
    7
 10
799.39316035957415
 20
490.21331450996297
 11
807.89316035845184
 21
490.21331450996109
  0
LINE
  8
_0-5_04_HIDDEN
  6
CONTINUOUS
 62
    7
 10
799.39316035957415
 20
491.21331450996303
 11
807.89316035845184
 21
491.21331450996212
  0
LINE
  8
_0-4_05_CENTER
  6
CENTER2
 62
    4
 10
796.48784769515294
 20
486.21331451378649
 11
811.33240705713104
 21
486.21331451378552
  0
LINE
  8
_0-3_0
  6
CONTINUOUS
 62
   18
 10
835.39316035996433
 20
490.21331450996109
 11
835.39316035996433
 21
490.21331450996109
  0
LINE
  8
_0-3_0
  6
CONTINUOUS
 62
   18
 10
835.39316035996433
 20
490.21331450996109
 11
834.76366158906671
 21
490.15254552206801
  0
LINE
  8
_0-3_0
  6
CONTINUOUS
 62
   18
 10
834.76366158906671
 20
490.15254552206801
 11
834.15328981978109
 21
489.97208499333539
  0
LINE
  8
_0-3_0
  6
CONTINUOUS
 62
   18
 10
834.15328981978109
 20
489.97208499333539
 11
833.58059088945413
 21
489.67741612561122
  0
LINE
  8
_0-3_0
  6
CONTINUOUS
 62
   18
 10
833.58059088945413
 20
489.67741612561122
 11
833.06296596528421
 21
489.27749228333175
  0
LINE
  8
_0-3_0
  6
CONTINUOUS
 62
   18
 10
833.06296596528421
 20
489.27749228333175
 11
832.61614281866139
 21
488.78446495007336
  0
LINE
  8
_0-3_0
  6
CONTINUOUS
 62
   18
 10
832.61614281866139
 20
488.78446495007336
 11
832.25369794479241
 21
488.21331451187331
  0
LINE
  8
_0-3_0
  6
CONTINUOUS
 62
   18
 10
832.25369794479241
 20
488.21331451187331
 11
831.98664404776378
 21
487.58139508578017
  0
LINE
  8
_0-3_0
  6
CONTINUOUS
 62
   18
 10
831.98664404776378
 20
487.58139508578017
 11
831.82309542510097
 21
486.90790722378915
  0
LINE
  8
_0-3_0
  6
CONTINUOUS
 62
   18
 10
831.82309542510097
 20
486.90790722378915
 11
831.76802141894393
 21
486.21331451378552
  0
LINE
  8
_0-3_0
  6
CONTINUOUS
 62
   18
 10
831.76802141894393
 20
486.21331451378552
 11
831.82309542510097
 21
485.51872180378189
  0
LINE
  8
_0-3_0
  6
CONTINUOUS
 62
   18
 10
831.82309542510097
 20
485.51872180378189
 11
831.98664404776378
 21
484.84523394179087
  0
LINE
  8
_0-3_0
  6
CONTINUOUS
 62
   18
 10
831.98664404776378
 20
484.84523394179087
 11
832.25369794479241
 21
484.21331451569773
  0
LINE
  8
_0-3_0
  6
CONTINUOUS
 62
   18
 10
832.25369794479241
 20
484.21331451569773
 11
832.61614281866139
 21
483.64216407749768
  0
LINE
  8
_0-3_0
  6
CONTINUOUS
 62
   18
 10
832.61614281866139
 20
483.64216407749768
 11
833.06296596528421
 21
483.14913674423929
  0
LINE
  8
_0-3_0
  6
CONTINUOUS
 62
   18
 10
833.06296596528421
 20
483.14913674423929
 11
833.58059088945413
 21
482.74921290195982
  0
LINE
  8
_0-3_0
  6
CONTINUOUS
 62
   18
 10
833.58059088945413
 20
482.74921290195982
 11
834.15328981978109
 21
482.45454403423565
  0
LINE
  8
_0-3_0
  6
CONTINUOUS
 62
   18
 10
834.15328981978109
 20
482.45454403423565
 11
834.76366158906671
 21
482.27408350550303
  0
LINE
  8
_0-3_0
  6
CONTINUOUS
 62
   18
 10
834.76366158906671
 20
482.27408350550303
 11
835.39316035996433
 21
482.21331451760994
  0
LINE
  8
_0-3_0
  6
CONTINUOUS
 62
   18
 10
835.39316035996433
 20
482.21331451760994
 11
836.02265913086194
 21
482.27408350550303
  0
LINE
  8
_0-3_0
  6
CONTINUOUS
 62
   18
 10
836.02265913086194
 20
482.27408350550303
 11
836.63303090014756
 21
482.45454403423565
  0
LINE
  8
_0-3_0
  6
CONTINUOUS
 62
   18
 10
836.63303090014756
 20
482.45454403423565
 11
837.20572983047452
 21
482.74921290195982
  0
LINE
  8
_0-3_0
  6
CONTINUOUS
 62
   18
 10
837.20572983047452
 20
482.74921290195982
 11
837.72335475464445
 21
483.14913674423929
  0
LINE
  8
_0-3_0
  6
CONTINUOUS
 62
   18
 10
837.72335475464445
 20
483.14913674423929
 11
838.17017790126727
 21
483.64216407749763
  0
LINE
  8
_0-3_0
  6
CONTINUOUS
 62
   18
 10
838.17017790126727
 20
483.64216407749763
 11
838.53262277513625
 21
484.21331451569773
  0
LINE
  8
_0-3_0
  6
CONTINUOUS
 62
   18
 10
838.53262277513625
 20
484.21331451569773
 11
838.79967667216488
 21
484.84523394179087
  0
LINE
  8
_0-3_0
  6
CONTINUOUS
 62
   18
 10
838.79967667216488
 20
484.84523394179087
 11
838.96322529482768
 21
485.51872180378189
  0
LINE
  8
_0-3_0
  6
CONTINUOUS
 62
   18
 10
838.96322529482768
 20
485.51872180378189
 11
839.01829930098472
 21
486.21331451378552
  0
LINE
  8
_0-3_0
  6
CONTINUOUS
 62
   18
 10
839.01829930098472
 20
486.21331451378552
 11
838.96322529482768
 21
486.90790722378915
  0
LINE
  8
_0-3_0
  6
CONTINUOUS
 62
   18
 10
838.96322529482768
 20
486.90790722378915
 11
838.79967667216488
 21
487.58139508578017
  0
LINE
  8
_0-3_0
  6
CONTINUOUS
 62
   18
 10
838.79967667216488
 20
487.58139508578017
 11
838.53262277513625
 21
488.21331451187331
  0
LINE
  8
_0-3_0
  6
CONTINUOUS
 62
   18
 10
838.53262277513625
 20
488.21331451187331
 11
838.17017790126727
 21
488.78446495007336
  0
LINE
  8
_0-3_0
  6
CONTINUOUS
 62
   18
 10
838.17017790126727
 20
488.78446495007336
 11
837.72335475464445
 21
489.27749228333175
  0
LINE
  8
_0-3_0
  6
CONTINUOUS
 62
   18
 10
837.72335475464445
 20
489.27749228333175
 11
837.20572983047452
 21
489.67741612561122
  0
LINE
  8
_0-3_0
  6
CONTINUOUS
 62
   18
 10
837.20572983047452
 20
489.67741612561122
 11
836.63303090014756
 21
489.97208499333539
  0
LINE
  8
_0-3_0
  6
CONTINUOUS
 62
   18
 10
836.63303090014756
 20
489.97208499333539
 11
836.02265913086194
 21
490.15254552206801
  0
LINE
  8
_0-3_0
  6
CONTINUOUS
 62
   18
 10
836.02265913086194
 20
490.15254552206801
 11
835.39316035996433
 21
490.21331450996109
  0
LINE
  8
_0-3_0
  6
CONTINUOUS
 62
   18
 10
835.39316035996433
 20
490.21331450996109
 11
835.39316035996433
 21
490.21331450996109
  0
LINE
  8
_0-3_0
  6
CONTINUOUS
 62
   18
 10
835.39316035996433
 20
491.213314509962
 11
835.39316035996433
 21
491.213314509962
  0
LINE
  8
_0-3_0
  6
CONTINUOUS
 62
   18
 10
835.39316035996433
 20
491.213314509962
 11
834.59738662256063
 21
491.13735327508113
  0
LINE
  8
_0-3_0
  6
CONTINUOUS
 62
   18
 10
834.59738662256063
 20
491.13735327508113
 11
833.8257920674871
 21
490.91177761412212
  0
LINE
  8
_0-3_0
  6
CONTINUOUS
 62
   18
 10
833.8257920674871
 20
490.91177761412212
 11
833.10182120485376
 21
490.54344152939643
  0
LINE
  8
_0-3_0
  6
CONTINUOUS
 62
   18
 10
833.10182120485376
 20
490.54344152939643
 11
832.44747152297498
 21
490.04353672645141
  0
LINE
  8
_0-3_0
  6
CONTINUOUS
 62
   18
 10
832.44747152297498
 20
490.04353672645141
 11
831.88262510581751
 21
489.42725255976052
  0
LINE
  8
_0-3_0
  6
CONTINUOUS
 62
   18
 10
831.88262510581751
 20
489.42725255976052
 11
831.42444452594088
 21
488.71331451187376
  0
LINE
  8
_0-3_0
  6
CONTINUOUS
 62
   18
 10
831.42444452594088
 20
488.71331451187376
 11
831.08685136841393
 21
487.92341522910613
  0
LINE
  8
_0-3_0
  6
CONTINUOUS
 62
   18
 10
831.08685136841393
 20
487.92341522910613
 11
830.88010323049764
 21
487.08155540145623
  0
LINE
  8
_0-3_0
  6
CONTINUOUS
 62
   18
 10
830.88010323049764
 20
487.08155540145623
 11
830.8104820497432
 21
486.21331451378552
  0
LINE
  8
_0-3_0
  6
CONTINUOUS
 62
   18
 10
830.8104820497432
 20
486.21331451378552
 11
830.88010323049764
 21
485.34507362611481
  0
LINE
  8
_0-3_0
  6
CONTINUOUS
 62
   18
 10
830.88010323049764
 20
485.34507362611481
 11
831.08685136841393
 21
484.50321379846491
  0
LINE
  8
_0-3_0
  6
CONTINUOUS
 62
   18
 10
831.08685136841393
 20
484.50321379846491
 11
831.42444452594088
 21
483.71331451569728
  0
LINE
  8
_0-3_0
  6
CONTINUOUS
 62
   18
 10
831.42444452594088
 20
483.71331451569728
 11
831.88262510581751
 21
482.99937646781052
  0
LINE
  8
_0-3_0
  6
CONTINUOUS
 62
   18
 10
831.88262510581751
 20
482.99937646781052
 11
832.44747152297498
 21
482.38309230111963
  0
LINE
  8
_0-3_0
  6
CONTINUOUS
 62
   18
 10
832.44747152297498
 20
482.38309230111963
 11
833.10182120485376
 21
481.88318749817461
  0
LINE
  8
_0-3_0
  6
CONTINUOUS
 62
   18
 10
833.10182120485376
 20
481.88318749817461
 11
833.8257920674871
 21
481.51485141344892
  0
LINE
  8
_0-3_0
  6
CONTINUOUS
 62
   18
 10
833.8257920674871
 20
481.51485141344892
 11
834.59738662256063
 21
481.28927575248991
  0
LINE
  8
_0-3_0
  6
CONTINUOUS
 62
   18
 10
834.59738662256063
 20
481.28927575248991
 11
835.39316035996433
 21
481.21331451760904
  0
LINE
  8
_0-3_0
  6
CONTINUOUS
 62
   18
 10
835.39316035996433
 20
481.21331451760904
 11
836.18893409736802
 21
481.28927575248991
  0
LINE
  8
_0-3_0
  6
CONTINUOUS
 62
   18
 10
836.18893409736802
 20
481.28927575248991
 11
836.96052865244155
 21
481.51485141344892
  0
LINE
  8
_0-3_0
  6
CONTINUOUS
 62
   18
 10
836.96052865244155
 20
481.51485141344892
 11
837.68449951507489
 21
481.88318749817461
  0
LINE
  8
_0-3_0
  6
CONTINUOUS
 62
   18
 10
837.68449951507489
 20
481.88318749817461
 11
838.33884919695367
 21
482.38309230111963
  0
LINE
  8
_0-3_0
  6
CONTINUOUS
 62
   18
 10
838.33884919695367
 20
482.38309230111963
 11
838.90369561411103
 21
482.99937646781052
  0
LINE
  8
_0-3_0
  6
CONTINUOUS
 62
   18
 10
838.90369561411103
 20
482.99937646781052
 11
839.36187619398777
 21
483.71331451569728
  0
LINE
  8
_0-3_0
  6
CONTINUOUS
 62
   18
 10
839.36187619398777
 20
483.71331451569728
 11
839.69946935151472
 21
484.50321379846491
  0
LINE
  8
_0-3_0
  6
CONTINUOUS
 62
   18
 10
839.69946935151472
 20
484.50321379846491
 11
839.90621748943101
 21
485.34507362611481
  0
LINE
  8
_0-3_0
  6
CONTINUOUS
 62
   18
 10
839.90621748943101
 20
485.34507362611481
 11
839.97583867018545
 21
486.21331451378552
  0
LINE
  8
_0-3_0
  6
CONTINUOUS
 62
   18
 10
839.97583867018545
 20
486.21331451378552
 11
839.90621748943101
 21
487.08155540145623
  0
LINE
  8
_0-3_0
  6
CONTINUOUS
 62
   18
 10
839.90621748943101
 20
487.08155540145623
 11
839.69946935151472
 21
487.92341522910613
  0
LINE
  8
_0-3_0
  6
CONTINUOUS
 62
   18
 10
839.69946935151472
 20
487.92341522910613
 11
839.36187619398777
 21
488.71331451187376
  0
LINE
  8
_0-3_0
  6
CONTINUOUS
 62
   18
 10
839.36187619398777
 20
488.71331451187376
 11
838.90369561411114
 21
489.42725255976052
  0
LINE
  8
_0-3_0
  6
CONTINUOUS
 62
   18
 10
838.90369561411114
 20
489.42725255976052
 11
838.33884919695367
 21
490.04353672645141
  0
LINE
  8
_0-3_0
  6
CONTINUOUS
 62
   18
 10
838.33884919695367
 20
490.04353672645141
 11
837.68449951507489
 21
490.54344152939643
  0
LINE
  8
_0-3_0
  6
CONTINUOUS
 62
   18
 10
837.68449951507489
 20
490.54344152939643
 11
836.96052865244155
 21
490.91177761412212
  0
LINE
  8
_0-3_0
  6
CONTINUOUS
 62
   18
 10
836.96052865244155
 20
490.91177761412212
 11
836.18893409736802
 21
491.13735327508113
  0
LINE
  8
_0-3_0
  6
CONTINUOUS
 62
   18
 10
836.18893409736802
 20
491.13735327508113
 11
835.39316035996433
 21
491.213314509962
  0
LINE
  8
_0-3_0
  6
CONTINUOUS
 62
   18
 10
835.39316035996433
 20
491.213314509962
 11
835.39316035996433
 21
491.213314509962
  0
LINE
  8
_0-4_05_CENTER
  6
CENTER2
 62
    4
 10
843.00554600381417
 20
486.21331451689957
 11
822.28975043729713
 21
486.21331451689957
  0
LINE
  8
_0-4_05_CENTER
  6
CENTER2
 62
    4
 10
835.39316035845093
 20
478.60092887153638
 11
835.39316035845093
 21
493.82570016226379
  0
LINE
  8
_0-5_04_HIDDEN
  6
CONTINUOUS
 62
    7
 10
835.39316035996433
 20
491.21331450996212
 11
830.39316035996785
 21
491.21331450996155
  0
LINE
  8
_0-4_05_CENTER
  6
CENTER2
 62
    4
 10
830.39316035845081
 20
478.60092887153604
 11
830.39316035845081
 21
493.82570016226333
  0
LINE
  8
_0-5_04_HIDDEN
  6
CONTINUOUS
 62
    7
 10
830.39316035996785
 20
490.21331450996064
 11
835.39316035996433
 21
490.21331450996109
  0
LINE
  8
_0-5_04_HIDDEN
  6
CONTINUOUS
 62
    7
 10
835.39316035996433
 20
481.21331452383725
 11
830.39316035996785
 21
481.2133145238368
  0
LINE
  8
_0-5_04_HIDDEN
  6
CONTINUOUS
 62
    7
 10
830.39316035996785
 20
482.21331452383771
 11
835.39316035996433
 21
482.21331452383828
  0
LINE
  8
_0-3_0
  6
CONTINUOUS
 62
   18
 10
847.89316035845172
 20
495.21331451378461
 11
799.393160358621
 21
495.21331451378518
  0
LINE
  8
_0-3_0
  6
CONTINUOUS
 62
   18
 10
847.89316035845172
 20
477.2133145137874
 11
799.393160358621
 21
477.21331451378774
  0
LINE
  8
_0-5_04_HIDDEN
  6
CONTINUOUS
 62
    7
 10
830.39316035996433
 20
490.21331450996064
 11
830.39316035996433
 21
490.21331450996064
  0
LINE
  8
_0-5_04_HIDDEN
  6
CONTINUOUS
 62
    7
 10
830.39316035996433
 20
490.21331450996064
 11
829.76366158906671
 21
490.15254552206756
  0
LINE
  8
_0-5_04_HIDDEN
  6
CONTINUOUS
 62
    7
 10
829.76366158906671
 20
490.15254552206756
 11
829.15328981978109
 21
489.97208499333493
  0
LINE
  8
_0-5_04_HIDDEN
  6
CONTINUOUS
 62
    7
 10
829.15328981978109
 20
489.97208499333493
 11
828.58059088945413
 21
489.67741612561076
  0
LINE
  8
_0-5_04_HIDDEN
  6
CONTINUOUS
 62
    7
 10
828.58059088945413
 20
489.67741612561076
 11
828.06296596528421
 21
489.2774922833313
  0
LINE
  8
_0-5_04_HIDDEN
  6
CONTINUOUS
 62
    7
 10
828.06296596528421
 20
489.2774922833313
 11
827.61614281866139
 21
488.7844649500729
  0
LINE
  8
_0-5_04_HIDDEN
  6
CONTINUOUS
 62
    7
 10
827.61614281866139
 20
488.7844649500729
 11
827.25369794479241
 21
488.21331451187285
  0
LINE
  8
_0-5_04_HIDDEN
  6
CONTINUOUS
 62
    7
 10
827.25369794479241
 20
488.21331451187285
 11
826.98664404776378
 21
487.58139508577972
  0
LINE
  8
_0-5_04_HIDDEN
  6
CONTINUOUS
 62
    7
 10
826.98664404776378
 20
487.58139508577972
 11
826.82309542510097
 21
486.9079072237887
  0
LINE
  8
_0-5_04_HIDDEN
  6
CONTINUOUS
 62
    7
 10
826.82309542510097
 20
486.9079072237887
 11
826.76802141894393
 21
486.21331451378506
  0
LINE
  8
_0-5_04_HIDDEN
  6
CONTINUOUS
 62
    7
 10
826.76802141894393
 20
486.21331451378506
 11
826.82309542510097
 21
485.51872180378143
  0
LINE
  8
_0-5_04_HIDDEN
  6
CONTINUOUS
 62
    7
 10
826.82309542510097
 20
485.51872180378143
 11
826.98664404776378
 21
484.84523394179041
  0
LINE
  8
_0-5_04_HIDDEN
  6
CONTINUOUS
 62
    7
 10
826.98664404776378
 20
484.84523394179041
 11
827.25369794479241
 21
484.21331451569728
  0
LINE
  8
_0-5_04_HIDDEN
  6
CONTINUOUS
 62
    7
 10
827.25369794479241
 20
484.21331451569728
 11
827.61614281866139
 21
483.64216407749723
  0
LINE
  8
_0-5_04_HIDDEN
  6
CONTINUOUS
 62
    7
 10
827.61614281866139
 20
483.64216407749723
 11
828.06296596528421
 21
483.14913674423883
  0
LINE
  8
_0-5_04_HIDDEN
  6
CONTINUOUS
 62
    7
 10
828.06296596528421
 20
483.14913674423883
 11
828.58059088945413
 21
482.74921290195937
  0
LINE
  8
_0-5_04_HIDDEN
  6
CONTINUOUS
 62
    7
 10
828.58059088945413
 20
482.74921290195937
 11
829.15328981978109
 21
482.4545440342352
  0
LINE
  8
_0-5_04_HIDDEN
  6
CONTINUOUS
 62
    7
 10
829.15328981978109
 20
482.4545440342352
 11
829.76366158906671
 21
482.27408350550257
  0
LINE
  8
_0-5_04_HIDDEN
  6
CONTINUOUS
 62
    7
 10
829.76366158906671
 20
482.27408350550257
 11
830.39316035996433
 21
482.21331451760949
  0
LINE
  8
_0-5_04_HIDDEN
  6
CONTINUOUS
 62
    7
 10
830.39316035996433
 20
482.21331451760949
 11
830.39336265797954
 21
482.21331452383771
  0
LINE
  8
_0-3_0
  6
CONTINUOUS
 62
   18
 10
831.76802141894439
 20
490.98299076451707
 11
831.76802141894439
 21
490.98299076451707
  0
LINE
  8
_0-3_0
  6
CONTINUOUS
 62
   18
 10
831.76802141894439
 20
490.98299076451707
 11
830.98801757033186
 21
491.17101183768699
  0
LINE
  8
_0-3_0
  6
CONTINUOUS
 62
   18
 10
830.98801757033186
 20
491.17101183768699
 11
830.81048204974365
 21
491.19253925440205
  0
LINE
  8
_0-5_04_HIDDEN
  6
CONTINUOUS
 62
    7
 10
830.39316035996433
 20
491.21331450996155
 11
830.39316035996433
 21
491.21331450996155
  0
LINE
  8
_0-5_04_HIDDEN
  6
CONTINUOUS
 62
    7
 10
830.39316035996433
 20
491.21331450996155
 11
829.59738662256063
 21
491.13735327508067
  0
LINE
  8
_0-5_04_HIDDEN
  6
CONTINUOUS
 62
    7
 10
829.59738662256063
 20
491.13735327508067
 11
828.8257920674871
 21
490.91177761412166
  0
LINE
  8
_0-5_04_HIDDEN
  6
CONTINUOUS
 62
    7
 10
828.8257920674871
 20
490.91177761412166
 11
828.10182120485376
 21
490.54344152939598
  0
LINE
  8
_0-5_04_HIDDEN
  6
CONTINUOUS
 62
    7
 10
828.10182120485376
 20
490.54344152939598
 11
827.44747152297498
 21
490.04353672645095
  0
LINE
  8
_0-5_04_HIDDEN
  6
CONTINUOUS
 62
    7
 10
827.44747152297498
 20
490.04353672645095
 11
826.88262510581751
 21
489.42725255976006
  0
LINE
  8
_0-5_04_HIDDEN
  6
CONTINUOUS
 62
    7
 10
826.88262510581751
 20
489.42725255976006
 11
826.42444452594088
 21
488.71331451187331
  0
LINE
  8
_0-5_04_HIDDEN
  6
CONTINUOUS
 62
    7
 10
826.42444452594088
 20
488.71331451187331
 11
826.08685136841393
 21
487.92341522910567
  0
LINE
  8
_0-5_04_HIDDEN
  6
CONTINUOUS
 62
    7
 10
826.08685136841393
 20
487.92341522910567
 11
825.88010323049764
 21
487.08155540145577
  0
LINE
  8
_0-5_04_HIDDEN
  6
CONTINUOUS
 62
    7
 10
825.88010323049764
 20
487.08155540145577
 11
825.8104820497432
 21
486.21331451378506
  0
LINE
  8
_0-5_04_HIDDEN
  6
CONTINUOUS
 62
    7
 10
825.8104820497432
 20
486.21331451378506
 11
825.88010323049764
 21
485.34507362611436
  0
LINE
  8
_0-5_04_HIDDEN
  6
CONTINUOUS
 62
    7
 10
825.88010323049764
 20
485.34507362611436
 11
826.08685136841393
 21
484.50321379846446
  0
LINE
  8
_0-5_04_HIDDEN
  6
CONTINUOUS
 62
    7
 10
826.08685136841393
 20
484.50321379846446
 11
826.42444452594088
 21
483.71331451569682
  0
LINE
  8
_0-5_04_HIDDEN
  6
CONTINUOUS
 62
    7
 10
826.42444452594088
 20
483.71331451569682
 11
826.88262510581751
 21
482.99937646781007
  0
LINE
  8
_0-5_04_HIDDEN
  6
CONTINUOUS
 62
    7
 10
826.88262510581751
 20
482.99937646781007
 11
827.44747152297498
 21
482.38309230111918
  0
LINE
  8
_0-5_04_HIDDEN
  6
CONTINUOUS
 62
    7
 10
827.44747152297498
 20
482.38309230111918
 11
828.10182120485376
 21
481.88318749817415
  0
LINE
  8
_0-5_04_HIDDEN
  6
CONTINUOUS
 62
    7
 10
828.10182120485376
 20
481.88318749817415
 11
828.8257920674871
 21
481.51485141344847
  0
LINE
  8
_0-5_04_HIDDEN
  6
CONTINUOUS
 62
    7
 10
828.8257920674871
 20
481.51485141344847
 11
829.59738662256063
 21
481.28927575248946
  0
LINE
  8
_0-5_04_HIDDEN
  6
CONTINUOUS
 62
    7
 10
829.59738662256063
 20
481.28927575248946
 11
830.39316035996433
 21
481.21331451760858
  0
LINE
  8
_0-5_04_HIDDEN
  6
CONTINUOUS
 62
    7
 10
830.39316035996433
 20
481.21331451760858
 11
830.39338909427158
 21
481.2133145238368
  0
LINE
  8
_0-5_04_HIDDEN
  6
CONTINUOUS
 62
    7
 10
799.39316035862055
 20
419.1933742922825
 11
808.43632806470839
 21
419.1933742922825
  0
LINE
  8
_0-5_04_HIDDEN
  6
CONTINUOUS
 62
    7
 10
799.393160358621
 20
420.1933742922825
 11
808.75102473607274
 21
420.19337429228159
  0
LINE
  8
_0-5_04_HIDDEN
  6
CONTINUOUS
 62
    7
 10
799.393160358621
 20
411.1933742922825
 11
808.43632806259291
 21
411.1933742922825
  0
LINE
  8
_0-5_04_HIDDEN
  6
CONTINUOUS
 62
    7
 10
799.39316035862055
 20
410.1933742922825
 11
808.75102473336926
 21
410.19337429228159
  0
ARC
  8
_0-3_0
  6
CONTINUOUS
 62
   18
 10
822.89316035845184
 20
415.19337428845807
 40
25
 50
199.94844358991463
 51
160.05155641008537
  0
CIRCLE
  8
_0-3_0
  6
CONTINUOUS
 62
   18
 10
822.89316035845184
 20
415.19337428845807
 40
15
  0
LINE
  8
_0-4_05_CENTER
  6
CENTER2
 62
    4
 10
793.50137368044432
 20
415.19337428845898
 11
852.28494703645936
 21
415.19337428845807
  0
LINE
  8
_0-4_05_CENTER
  6
CENTER2
 62
    4
 10
822.89316035845002
 20
444.58516096646554
 11
822.89316035844956
 21
385.80158761045055
  0
LINE
  8
_0-3_0
  6
CONTINUOUS
 62
   18
 10
799.39316035862055
 20
423.72273534353963
 11
799.39316035862055
 21
406.66401323337737
  0
LINE
  8
_0-5_04_HIDDEN
  6
CONTINUOUS
 62
    7
 10
831.76802141894439
 20
438.56508456299667
 11
826.65747488687236
 21
429.71335831500397
  0
LINE
  8
_0-5_04_HIDDEN
  6
CONTINUOUS
 62
    7
 10
830.81048204974365
 20
438.90657772529045
 11
825.63410114740634
 21
429.94082300311544
  0
LINE
  8
_0-5_04_HIDDEN
  6
CONTINUOUS
 62
    7
 10
838.69622464984013
 20
434.56508456407079
 11
833.58567811820672
 21
425.7133583168366
  0
LINE
  8
_0-5_04_HIDDEN
  6
CONTINUOUS
 62
    7
 10
839.47073608836752
 20
433.90657772664377
 11
834.29435518660273
 21
424.9408230054583
  0
LINE
  8
_0-4_05_CENTER
  6
CENTER2
 62
    4
 10
828.48567561454718
 20
424.87989485412396
 11
837.33049781619945
 21
440.19957629129613
  0
LINE
  8
_0-5_04_HIDDEN
  6
CONTINUOUS
 62
    7
 10
831.76802141894439
 20
391.82166401392038
 11
826.65747488687293
 21
400.67339026191308
  0
LINE
  8
_0-5_04_HIDDEN
  6
CONTINUOUS
 62
    7
 10
830.81048204974309
 20
391.4801708516257
 11
825.6341011474068
 21
400.44592557380071
  0
LINE
  8
_0-5_04_HIDDEN
  6
CONTINUOUS
 62
    7
 10
838.69622464984013
 20
395.82166401284627
 11
833.58567811820672
 21
404.67339026008136
  0
LINE
  8
_0-5_04_HIDDEN
  6
CONTINUOUS
 62
    7
 10
839.47073608836786
 20
396.48017085027334
 11
834.29435518660273
 21
405.44592557145876
  0
LINE
  8
_0-4_05_CENTER
  6
CENTER2
 62
    4
 10
828.48567561454774
 20
405.5068537227931
 11
837.33049781619911
 21
390.18717228562087
  0
LINE
  8
_0-2_08_DIM
  6
CONTINUOUS
 62
    3
 10
688.60563774324623
 20
515.84918792889368
 11
780.24725633283322
 21
515.84918792889368
  0
INSERT
  2
-000-p1ba05
  8
_0-2_08_DIM
 10
709.549052072677
 20
518.58436627925414
 41
3
 42
3
 50
0
  0
INSERT
  2
-002-p1ba01
  8
_0-2_08_DIM
 10
733.9988475981844
 20
518.23362425521339
 41
3
 42
3
 50
0
  0
INSERT
  2
-003-p1ba02
  8
_0-2_08_DIM
 10
750.05323188288355
 20
518.23362425521339
 41
3
 42
3
 50
0
  0
TEXT
  8
_0-6_07_TEXT
 62
    3
 10
718.61785332221223
 20
518.00788858895169
 40
9
 41
1
 50
0
  1
(   　　  )
  0
INSERT
  2
-003-p1ba02
  8
_0-2_08_DIM
 10
738.63050209557866
 20
400.1933742972181
 41
2
 42
2
 50
0
  0
LINE
  8
_0-5_04_HIDDEN
  6
CONTINUOUS
 62
    7
 10
725.68105002653635
 20
430.1933742884583
 11
707.68105002653635
 21
430.1933742884583
  0
LINE
  8
_0-5_04_HIDDEN
  6
CONTINUOUS
 62
    7
 10
725.68105002653635
 20
430.1933742884583
 11
726.68105002653635
 21
431.1933742884583
  0
LINE
  8
_0-5_04_HIDDEN
  6
CONTINUOUS
 62
    7
 10
707.68105002653635
 20
430.1933742884583
 11
706.68105002653635
 21
431.1933742884583
  0
LINE
  8
_0-5_04_HIDDEN
  6
CONTINUOUS
 62
    7
 10
725.68105002653635
 20
400.1933742972181
 11
707.68105002653635
 21
400.1933742972181
  0
LINE
  8
_0-5_04_HIDDEN
  6
CONTINUOUS
 62
    7
 10
725.68105002653635
 20
400.1933742972181
 11
726.68105002653635
 21
399.1933742972181
  0
LINE
  8
_0-5_04_HIDDEN
  6
CONTINUOUS
 62
    7
 10
707.68105002653635
 20
400.1933742972181
 11
706.68105002653635
 21
399.1933742972181
  0
INSERT
  2
-002-p1ba01
  8
_0-2_08_DIM
 10
706.68105002653647
 20
450.65481639907614
 41
2
 42
2
 50
90
  0
INSERT
  2
-002-p1ba01
  8
_0-2_08_DIM
 10
726.68105002653635
 20
450.65481639907614
 41
2
 42
2
 50
270
  0
INSERT
  2
-002-p1ba01
  8
_0-2_08_DIM
 10
799.39316035862055
 20
443.11548568555878
 41
2
 42
2
 50
90
  0
TEXT
  8
_0-0_90_FRAME
 62
    3
 10
785.97738525463967
 20
337.20098088409554
 40
5.9999999999999991
 41
1
 50
0
  1
21
  0
TEXT
  8
_0-0_90_FRAME
 62
    3
 10
969.79013979886156
 20
337.30157940575691
 40
5.9999999999999991
 41
1
 50
0
  1
6
  0
TEXT
  8
_0-0_90_FRAME
 62
    3
 10
927.39622666200069
 20
337.43491201128086
 40
5.9999999999999991
 41
1
 50
0
  1
SUS304
  0
TEXT
  8
_0-0_90_FRAME
 62
    3
 10
810.7463011516694
 20
337.35532725239125
 40
5.9999999999999991
 41
1
 50
0
  1
ボス2
  0
LINE
  8
_0-4_05_CENTER
  6
CENTER2
 62
    4
 10
848.54625936118498
 20
626.73189368927615
 11
848.54625936118532
 21
654.73189368927626
  0
LINE
  8
_0-5_04_HIDDEN
  6
CONTINUOUS
 62
    7
 10
851.54625936118532
 20
631.83189368927617
 11
851.54625936118532
 21
651.73189368927626
  0
LINE
  8
_0-5_04_HIDDEN
  6
CONTINUOUS
 62
    7
 10
851.04625936118555
 20
631.83189368927617
 11
851.04625936118555
 21
651.73189368927626
  0
LINE
  8
_0-5_04_HIDDEN
  6
CONTINUOUS
 62
    7
 10
845.60044043900916
 20
631.82380109159749
 11
845.54627047601969
 21
651.72372736319744
  0
LINE
  8
_0-5_04_HIDDEN
  6
CONTINUOUS
 62
    7
 10
846.10043858653682
 20
631.82516214594386
 11
846.04626862354735
 21
651.72508841754393
  0
LINE
  8
_0-5_04_HIDDEN
  6
CONTINUOUS
 62
    7
 10
953.75861664341517
 20
630.88074903953475
 11
953.75861664341517
 21
651.55533020883399
  0
LINE
  8
_0-5_04_HIDDEN
  6
CONTINUOUS
 62
    7
 10
953.24670696204259
 20
631.20263975376565
 11
953.24670696204259
 21
651.61115353150797
  0
CIRCLE
  8
_0-3_0
  6
CONTINUOUS
 62
   18
 10
950.79264306508628
 20
626.73189368927524
 40
23
  0
LINE
  8
_0-5_04_HIDDEN
  6
CONTINUOUS
 62
    7
 10
947.8266694867574
 20
630.88074903953475
 11
947.8266694867574
 21
651.55533020883399
  0
LINE
  8
_0-5_04_HIDDEN
  6
CONTINUOUS
 62
    7
 10
948.33857916812997
 20
631.20263975376565
 11
948.33857916812997
 21
651.61115353150797
  0
ARC
  8
_0-8_02_SLIM
  6
CONTINUOUS
 62
    1
 10
958.9353495289937
 20
651.08748861711399
 40
4.9591925709739373
 50
344.38157837428565
 51
94.381578274796482
  0
ARC
  8
_0-8_02_SLIM
  6
CONTINUOUS
 62
    1
 10
961.13426757210391
 20
646.75748398901601
 40
3.9510569564014979
 50
299.28692240562935
 51
49.286922306139921
  0
ARC
  8
_0-8_02_SLIM
  6
CONTINUOUS
 62
    1
 10
961.49660762339295
 20
641.41146893682946
 40
2.4650021617974005
 50
300.42413276593362
 51
50.424132666444542
  0
ARC
  8
_0-8_02_SLIM
  6
CONTINUOUS
 62
    1
 10
959.77301543816748
 20
636.92737802003649
 40
3.7940179720924823
 50
288.43609360644757
 51
38.436093506958635
  0
ARC
  8
_0-8_02_SLIM
  6
CONTINUOUS
 62
    1
 10
958.15390356562568
 20
632.90223933821551
 40
2.8509406762607319
 50
258.59034102132989
 51
8.5903409218388855
  0
ARC
  8
_0-8_02_SLIM
  6
CONTINUOUS
 62
    1
 10
953.90904974967145
 20
631.36518177465689
 40
3.8897610909692029
 50
231.1376581011171
 51
341.13765800162719
  0
ARC
  8
_0-8_02_SLIM
  6
CONTINUOUS
 62
    1
 10
949.2694962355456
 20
629.99608092303845
 40
2.7549570335820754
 50
212.95547457167501
 51
322.95547447218587
  0
ARC
  8
_0-8_02_SLIM
  6
CONTINUOUS
 62
    1
 10
946.53872085599858
 20
632.87036680763856
 40
4.3929850834312107
 50
165.47457721821658
 51
275.47457711872568
  0
ARC
  8
_0-8_02_SLIM
  6
CONTINUOUS
 62
    1
 10
942.77722305086616
 20
637.58781592127423
 40
3.6488424158876556
 50
152.26549711491586
 51
262.26549701542694
  0
ARC
  8
_0-8_02_SLIM
  6
CONTINUOUS
 62
    1
 10
943.0185471426222
 20
645.61439179104502
 40
7.2178559007367271
 50
131.25673345103243
 51
241.25673335154292
  0
ARC
  8
_0-8_02_SLIM
  6
CONTINUOUS
 62
    1
 10
941.6012354821479
 20
652.89960707617558
 40
3.8246346130858666
 50
99.083681037244588
 51
209.0836809377555
  0
ARC
  8
_0-8_02_SLIM
  6
CONTINUOUS
 62
    1
 10
943.7922795692391
 20
656.03912340425063
 40
2.8665720905337486
 50
57.157607096277651
 51
167.15760699678725
  0
ARC
  8
_0-8_02_SLIM
  6
CONTINUOUS
 62
    1
 10
951.10607465791259
 20
652.61513361968048
 40
8.1966285419622622
 50
24.638096894154714
 51
134.63809679466445
  0
ARC
  8
_0-8_02_SLIM
  6
CONTINUOUS
 62
    1
 10
856.72299224676397
 20
651.087488618973
 40
4.9591925709739373
 50
344.38157837428565
 51
94.381578274796482
  0
ARC
  8
_0-8_02_SLIM
  6
CONTINUOUS
 62
    1
 10
858.92191028987406
 20
646.75748399087502
 40
3.9510569564014979
 50
299.28692240562935
 51
49.286922306139921
  0
ARC
  8
_0-8_02_SLIM
  6
CONTINUOUS
 62
    1
 10
859.28425034116322
 20
641.41146893868836
 40
2.4650021617974005
 50
300.42413276593362
 51
50.424132666444542
  0
ARC
  8
_0-8_02_SLIM
  6
CONTINUOUS
 62
    1
 10
857.56065815593752
 20
636.92737802189549
 40
3.7940179720924823
 50
288.43609360644757
 51
38.436093506958635
  0
ARC
  8
_0-8_02_SLIM
  6
CONTINUOUS
 62
    1
 10
855.94154628339584
 20
632.9022393400744
 40
2.8509406762607319
 50
258.59034102132989
 51
8.5903409218388855
  0
ARC
  8
_0-8_02_SLIM
  6
CONTINUOUS
 62
    1
 10
851.69669246744161
 20
631.3651817765159
 40
3.8897610909692029
 50
231.1376581011171
 51
341.13765800162719
  0
ARC
  8
_0-8_02_SLIM
  6
CONTINUOUS
 62
    1
 10
847.05713895331587
 20
629.99608092489746
 40
2.7549570335820754
 50
212.95547457167501
 51
322.95547447218587
  0
ARC
  8
_0-8_02_SLIM
  6
CONTINUOUS
 62
    1
 10
844.32636357376907
 20
632.87036680949757
 40
4.3929850834312107
 50
165.47457721821658
 51
275.47457711872568
  0
ARC
  8
_0-8_02_SLIM
  6
CONTINUOUS
 62
    1
 10
840.56486576863642
 20
637.58781592313335
 40
3.6488424158876556
 50
152.26549711491586
 51
262.26549701542694
  0
ARC
  8
_0-8_02_SLIM
  6
CONTINUOUS
 62
    1
 10
840.80618986039235
 20
645.61439179290403
 40
7.2178559007367271
 50
131.25673345103243
 51
241.25673335154292
  0
ARC
  8
_0-8_02_SLIM
  6
CONTINUOUS
 62
    1
 10
839.38887819991817
 20
652.89960707803459
 40
3.8246346130858666
 50
99.083681037244588
 51
209.0836809377555
  0
ARC
  8
_0-8_02_SLIM
  6
CONTINUOUS
 62
    1
 10
841.57992228700948
 20
656.03912340610952
 40
2.8665720905337486
 50
57.157607096277651
 51
167.15760699678725
  0
ARC
  8
_0-8_02_SLIM
  6
CONTINUOUS
 62
    1
 10
848.89371737568263
 20
652.61513362153948
 40
8.1966285419622622
 50
24.638096894154714
 51
134.63809679466445
  0
INSERT
  2
-005-AM_BALLOON1
  8
_0-2_08_DIM
 10
400.79160221415901
 20
691.35758244274041
 41
2.5
 42
2.5
 50
0
  0
TEXT
  8
_0-3_0
 62
    7
 10
393.11303078558763
 20
687.60758244274041
 40
7.5
 41
1
 50
0
  1
18
  0
LINE
  8
_0-2_08_DIM
  6
CONTINUOUS
 62
    3
 10
614.55424182213631
 20
622.17395933136106
 11
614.55424182213631
 21
633.56798526858381
  0
LINE
  8
_0-2_08_DIM
  6
CONTINUOUS
 62
    3
 10
639.55424182692559
 20
621.17395933191392
 11
639.55424182692559
 21
633.56798526858381
  0
LINE
  8
_0-2_08_DIM
  6
CONTINUOUS
 62
    3
 10
619.55424182213631
 20
631.06798526858381
 11
634.55424182692559
 21
631.06798526858381
  0
INSERT
  2
-006-_Open30
  8
_0-2_08_DIM
 10
614.55424182213631
 20
631.06798526858381
 41
5
 42
5
 50
180
  0
INSERT
  2
-006-_Open30
  8
_0-2_08_DIM
 10
639.55424182692559
 20
631.06798526858381
 41
5
 42
5
 50
0
  0
LINE
  8
_0-2_08_DIM
  6
CONTINUOUS
 62
    3
 10
639.55424182692559
 20
621.17395933191392
 11
639.55424182692559
 21
655.79244087621316
  0
LINE
  8
_0-2_08_DIM
  6
CONTINUOUS
 62
    3
 10
464.55424182692485
 20
621.17395933191392
 11
464.55424182692485
 21
655.79244087621316
  0
LINE
  8
_0-2_08_DIM
  6
CONTINUOUS
 62
    3
 10
634.55424182692559
 20
653.29244087621328
 11
469.55424182692479
 21
653.29244087621328
  0
INSERT
  2
-006-_Open30
  8
_0-2_08_DIM
 10
639.55424182692559
 20
653.29244087621328
 41
5
 42
5
 50
0
  0
INSERT
  2
-006-_Open30
  8
_0-2_08_DIM
 10
464.55424182692485
 20
653.29244087621328
 41
5
 42
5
 50
180
  0
LINE
  8
_0-2_08_DIM
  6
CONTINUOUS
 62
    3
 10
464.30424182692479
 20
610.92395933191403
 11
439.58529408010611
 21
610.92395933191403
  0
LINE
  8
_0-2_08_DIM
  6
CONTINUOUS
 62
    3
 10
464.30424182692479
 20
620.92395933191403
 11
439.58529408010611
 21
620.92395933191403
  0
LINE
  8
_0-2_08_DIM
  6
CONTINUOUS
 62
    3
 10
442.08529408010611
 20
625.92395933191403
 11
442.08529408010611
 21
660.52395933191406
  0
LINE
  8
_0-2_08_DIM
  6
CONTINUOUS
 62
    3
 10
442.08529408010611
 20
610.92395933191403
 11
442.08529408010611
 21
620.92395933191403
  0
LINE
  8
_0-2_08_DIM
  6
CONTINUOUS
 62
    3
 10
442.08529408010611
 20
605.92395933191403
 11
442.08529408010611
 21
600.92395933191403
  0
INSERT
  2
-006-_Open30
  8
_0-2_08_DIM
 10
442.08529408010611
 20
610.92395933191403
 41
5
 42
5
 50
90
  0
INSERT
  2
-006-_Open30
  8
_0-2_08_DIM
 10
442.08529408010611
 20
620.92395933191403
 41
5
 42
5
 50
270
  0
LINE
  8
_0-2_08_DIM
  6
CONTINUOUS
 62
    3
 10
461.51870792099191
 20
607.8884254259815
 11
449.99254470254431
 21
596.36226220753383
  0
INSERT
  2
-006-_Open30
  8
_0-2_08_DIM
 10
465.05424182692468
 20
611.42395933191415
 41
5
 42
5
 50
44.999999999999858
  0
LINE
  8
_0-2_08_DIM
  6
CONTINUOUS
 62
    3
 10
642.58977573285858
 20
623.95949323784657
 11
654.88070839598151
 21
636.25042590096939
  0
INSERT
  2
-006-_Open30
  8
_0-2_08_DIM
 10
639.05424182692582
 20
620.42395933191392
 41
5
 42
5
 50
224.99999999999977
  0
LINE
  8
_0-2_08_DIM
  6
CONTINUOUS
 62
    3
 10
634.8727985919121
 20
592.82339429315755
 11
655.15851287762632
 21
592.82339429315755
  0
INSERT
  2
-006-_Open30
  8
_0-2_08_DIM
 10
626.96024182425447
 20
611.73595933136096
 41
5
 42
5
 50
110.82209597737707
  0
LINE
  8
_0-2_08_DIM
  6
CONTINUOUS
 62
    3
 10
628.73757907040829
 20
607.06251602760358
 11
634.15279859191207
 21
592.82339429315755
  0
LINE
  8
_0-2_08_DIM
  6
CONTINUOUS
 62
    3
 10
634.15279859191207
 20
592.82339429315755
 11
634.8727985919121
 21
592.82339429315755
  0
INSERT
  2
-005-AM_BALLOON1
  8
_0-2_08_DIM
 10
370.76852445865069
 20
481.27003699255533
 41
2.5
 42
2.5
 50
0
  0
TEXT
  8
_0-3_0
 62
    7
 10
363.62566731579352
 20
477.52003699255533
 40
7.5
 41
1
 50
0
  1
20
  0
LINE
  8
_0-2_08_DIM
  6
CONTINUOUS
 62
    3
 10
823.54625936118498
 20
650.98189368927603
 11
823.54625936118498
 21
672.10106339308584
  0
LINE
  8
_0-2_08_DIM
  6
CONTINUOUS
 62
    3
 10
873.54625936118589
 20
650.98189368927513
 11
873.54625936118589
 21
672.10106339308584
  0
LINE
  8
_0-2_08_DIM
  6
CONTINUOUS
 62
    3
 10
828.54625936118487
 20
669.60106339308584
 11
868.54625936118578
 21
669.60106339308584
  0
INSERT
  2
-006-_Open30
  8
_0-2_08_DIM
 10
823.54625936118498
 20
669.60106339308584
 41
5
 42
5
 50
180
  0
INSERT
  2
-006-_Open30
  8
_0-2_08_DIM
 10
873.54625936118589
 20
669.60106339308584
 41
5
 42
5
 50
0
  0
LINE
  8
_0-2_08_DIM
  6
CONTINUOUS
 62
    3
 10
872.79625936118589
 20
651.73189368927603
 11
895.4064061139519
 21
651.73189368927603
  0
LINE
  8
_0-2_08_DIM
  6
CONTINUOUS
 62
    3
 10
872.79625936118498
 20
601.73189368927603
 11
895.4064061139519
 21
601.73189368927603
  0
LINE
  8
_0-2_08_DIM
  6
CONTINUOUS
 62
    3
 10
892.90640611395179
 20
646.73189368927603
 11
892.90640611395179
 21
606.73189368927603
  0
INSERT
  2
-006-_Open30
  8
_0-2_08_DIM
 10
892.90640611395179
 20
651.73189368927603
 41
5
 42
5
 50
90
  0
INSERT
  2
-006-_Open30
  8
_0-2_08_DIM
 10
892.90640611395179
 20
601.73189368927603
 41
5
 42
5
 50
270
  0
LINE
  8
_0-2_08_DIM
  6
CONTINUOUS
 62
    3
 10
1011.6262999228679
 20
649.70873604528924
 11
980.57629992286786
 21
649.70873604528913
  0
LINE
  8
_0-2_08_DIM
  6
CONTINUOUS
 62
    3
 10
980.57629992286786
 20
649.70873604528913
 11
958.78952977004678
 21
632.9011564495629
  0
INSERT
  2
-006-_Open30
  8
_0-2_08_DIM
 10
954.83067496562262
 20
629.84706597325294
 41
5
 42
5
 50
217.64868011293066
  0
LINE
  8
_0-2_08_DIM
  6
CONTINUOUS
 62
    3
 10
821.0107254552513
 20
599.19635978334338
 11
800.83810609131228
 21
579.02374041940425
  0
INSERT
  2
-006-_Open30
  8
_0-2_08_DIM
 10
824.54625936118407
 20
602.73189368927615
 41
5
 42
5
 50
45
  0
INSERT
  2
-005-AM_BALLOON1
  8
_0-2_08_DIM
 10
746.18658024432568
 20
693.59684000144671
 41
2.5
 42
2.5
 50
0
  0
TEXT
  8
_0-3_0
 62
    7
 10
738.68658024432568
 20
689.84684000144659
 40
7.5
 41
1
 50
0
  1
19
  0
LINE
  8
_0-2_08_DIM
  6
CONTINUOUS
 62
    3
 10
546.65250186236665
 20
407.85423605621617
 11
546.65250186236665
 21
418.99003614952375
  0
LINE
  8
_0-2_08_DIM
  6
CONTINUOUS
 62
    3
 10
525.65250186253843
 20
389.93198326735956
 11
525.65250186253843
 21
418.99003614952375
  0
LINE
  8
_0-2_08_DIM
  6
CONTINUOUS
 62
    3
 10
541.65250186236665
 20
416.4900361495238
 11
530.65250186253832
 21
416.4900361495238
  0
INSERT
  2
-006-_Open30
  8
_0-2_08_DIM
 10
546.65250186236665
 20
416.4900361495238
 41
5
 42
5
 50
0
  0
INSERT
  2
-006-_Open30
  8
_0-2_08_DIM
 10
525.65250186253843
 20
416.4900361495238
 41
5
 42
5
 50
180
  0
LINE
  8
_0-2_08_DIM
  6
CONTINUOUS
 62
    3
 10
455.2883428115166
 20
358.10423606059635
 11
502.20749593880072
 21
358.10423606059635
  0
LINE
  8
_0-2_08_DIM
  6
CONTINUOUS
 62
    3
 10
455.2883428115166
 20
403.10423606059635
 11
502.20749593880072
 21
403.10423606059635
  0
LINE
  8
_0-2_08_DIM
  6
CONTINUOUS
 62
    3
 10
499.70749593880066
 20
363.10423606059635
 11
499.70749593880066
 21
398.10423606059635
  0
INSERT
  2
-006-_Open30
  8
_0-2_08_DIM
 10
499.70749593880066
 20
358.10423606059635
 41
5
 42
5
 50
270
  0
INSERT
  2
-006-_Open30
  8
_0-2_08_DIM
 10
499.70749593880066
 20
403.10423606059635
 41
5
 42
5
 50
90
  0
LINE
  8
_0-2_08_DIM
  6
CONTINUOUS
 62
    3
 10
455.2883428115166
 20
370.60423606060363
 11
484.75740535459369
 21
370.60423606060363
  0
LINE
  8
_0-2_08_DIM
  6
CONTINUOUS
 62
    3
 10
455.2883428115166
 20
390.60423606059635
 11
484.75740535459369
 21
390.60423606059635
  0
LINE
  8
_0-2_08_DIM
  6
CONTINUOUS
 62
    3
 10
482.25740535459374
 20
390.60423606059635
 11
482.25740535459374
 21
445.55258378465265
  0
LINE
  8
_0-2_08_DIM
  6
CONTINUOUS
 62
    3
 10
482.25740535459374
 20
375.60423606060357
 11
482.25740535459374
 21
385.60423606059635
  0
INSERT
  2
-006-_Open30
  8
_0-2_08_DIM
 10
482.25740535459374
 20
370.60423606060363
 41
5
 42
5
 50
270
  0
INSERT
  2
-006-_Open30
  8
_0-2_08_DIM
 10
482.25740535459374
 20
390.60423606059635
 41
5
 42
5
 50
90
  0
LINE
  8
_0-2_08_DIM
  6
CONTINUOUS
 62
    3
 10
435.03834281151666
 20
403.35423606059635
 11
435.03834281151666
 21
423.77712028183191
  0
LINE
  8
_0-2_08_DIM
  6
CONTINUOUS
 62
    3
 10
455.03834281151666
 20
403.35423606059635
 11
455.03834281151666
 21
423.77712028183191
  0
LINE
  8
_0-2_08_DIM
  6
CONTINUOUS
 62
    3
 10
440.03834281151666
 20
421.27712028183186
 11
450.0383428115166
 21
421.27712028183186
  0
INSERT
  2
-006-_Open30
  8
_0-2_08_DIM
 10
435.03834281151666
 20
421.27712028183186
 41
5
 42
5
 50
180
  0
INSERT
  2
-006-_Open30
  8
_0-2_08_DIM
 10
455.03834281151666
 20
421.27712028183186
 41
5
 42
5
 50
0
  0
LINE
  8
_0-2_08_DIM
  6
CONTINUOUS
 62
    3
 10
507.7663414412466
 20
343.46830538673726
 11
467.36634144124628
 21
343.46830538673726
  0
LINE
  8
_0-2_08_DIM
  6
CONTINUOUS
 62
    3
 10
467.36634144124628
 20
343.46830538673726
 11
450.19117865951233
 21
372.03403870443543
  0
INSERT
  2
-006-_Open30
  8
_0-2_08_DIM
 10
447.61476073551449
 20
376.31913738251779
 41
5
 42
5
 50
121.01641207184824
  0
LINE
  8
_0-2_08_DIM
  6
CONTINUOUS
 62
    3
 10
432.00280890558389
 20
355.06870215466364
 11
412.06465878344687
 21
335.13055203252657
  0
INSERT
  2
-006-_Open30
  8
_0-2_08_DIM
 10
435.5383428115166
 20
358.60423606059635
 41
5
 42
5
 50
45
  0
LINE
  8
_0-2_08_DIM
  6
CONTINUOUS
 62
    3
 10
560.27750186236858
 20
357.00504380308962
 11
569.69884976089236
 21
340.68679056706668
  0
LINE
  8
_0-2_08_DIM
  6
CONTINUOUS
 62
    3
 10
560.27750186236858
 20
404.20342830934277
 11
569.69884976089236
 21
420.52168154536577
  0
ARC
  8
_0-2_08_DIM
  6
CONTINUOUS
 62
    3
 10
546.65250186236619
 20
380.60423605621622
 40
43.59269579704717
 50
306.57532550547347
 51
53.424674494526528
  0
INSERT
  2
-006-_Open30
  8
_0-2_08_DIM
 10
568.44884976089224
 20
342.85185407652767
 41
5
 42
5
 50
213.28766275273864
  0
INSERT
  2
-006-_Open30
  8
_0-2_08_DIM
 10
568.44884976089224
 20
418.35661803590472
 41
5
 42
5
 50
146.71233724726133
  0
LINE
  8
_0-2_08_DIM
  6
CONTINUOUS
 62
    3
 10
639.5542418269257
 20
621.17395933191415
 11
639.5542418269257
 21
644.71543754619586
  0
LINE
  8
_0-2_08_DIM
  6
CONTINUOUS
 62
    3
 10
609.55424182213631
 20
620.85059301964543
 11
609.55424182213631
 21
644.71543754619586
  0
LINE
  8
_0-2_08_DIM
  6
CONTINUOUS
 62
    3
 10
634.5542418269257
 20
642.21543754619586
 11
614.55424182213631
 21
642.21543754619586
  0
INSERT
  2
-006-_Open30
  8
_0-2_08_DIM
 10
639.5542418269257
 20
642.21543754619586
 41
5
 42
5
 50
0
  0
INSERT
  2
-006-_Open30
  8
_0-2_08_DIM
 10
609.55424182213631
 20
642.21543754619586
 41
5
 42
5
 50
180
  0
LINE
  8
_0-2_08_DIM
  6
CONTINUOUS
 62
    3
 10
575.2407730789846
 20
590.51823196637645
 11
597.79077307898456
 21
590.51823196637645
  0
LINE
  8
_0-2_08_DIM
  6
CONTINUOUS
 62
    3
 10
597.79077307898456
 20
590.51823196637645
 11
606.61305607788222
 21
609.57183949537148
  0
INSERT
  2
-006-_Open30
  8
_0-2_08_DIM
 10
608.71390303806368
 20
614.10906795004473
 41
5
 42
5
 50
65.154717622968889
  0
INSERT
  2
-005-AM_BALLOON1
  8
_0-2_08_DIM
 10
676.0909663352985
 20
515.85917522479713
 41
2.5
 42
2.5
 50
0
  0
TEXT
  8
_0-3_0
 62
    7
 10
670.01953776386983
 20
512.10917522479724
 40
7.5
 41
1
 50
0
  1
21
  0
LINE
  8
_0-2_08_DIM
  6
CONTINUOUS
 62
    3
 10
726.93105002653647
 20
390.19337429722543
 11
773.85020315382042
 21
390.19337429722543
  0
LINE
  8
_0-2_08_DIM
  6
CONTINUOUS
 62
    3
 10
726.93105002653647
 20
440.1933742884583
 11
773.85020315382042
 21
440.1933742884583
  0
LINE
  8
_0-2_08_DIM
  6
CONTINUOUS
 62
    3
 10
771.35020315382042
 20
395.19337429722538
 11
771.35020315382042
 21
435.19337428845836
  0
INSERT
  2
-006-_Open30
  8
_0-2_08_DIM
 10
771.35020315382042
 20
390.19337429722543
 41
5
 42
5
 50
270
  0
INSERT
  2
-006-_Open30
  8
_0-2_08_DIM
 10
771.35020315382042
 20
440.1933742884583
 41
5
 42
5
 50
90
  0
LINE
  8
_0-2_08_DIM
  6
CONTINUOUS
 62
    3
 10
726.93105002653635
 20
400.1933742972181
 11
756.4001125696135
 21
400.1933742972181
  0
LINE
  8
_0-2_08_DIM
  6
CONTINUOUS
 62
    3
 10
726.93105002653635
 20
430.1933742884583
 11
756.4001125696135
 21
430.1933742884583
  0
LINE
  8
_0-2_08_DIM
  6
CONTINUOUS
 62
    3
 10
753.9001125696135
 20
430.1933742884583
 11
753.9001125696135
 21
480.14172201689462
  0
LINE
  8
_0-2_08_DIM
  6
CONTINUOUS
 62
    3
 10
753.9001125696135
 20
405.1933742972181
 11
753.9001125696135
 21
425.1933742884583
  0
INSERT
  2
-006-_Open30
  8
_0-2_08_DIM
 10
753.9001125696135
 20
400.1933742972181
 41
5
 42
5
 50
270
  0
INSERT
  2
-006-_Open30
  8
_0-2_08_DIM
 10
753.9001125696135
 20
430.1933742884583
 41
5
 42
5
 50
90
  0
LINE
  8
_0-2_08_DIM
  6
CONTINUOUS
 62
    3
 10
773.35294385827149
 20
378.05744361897911
 11
733.20294385827151
 21
378.05744361897911
  0
LINE
  8
_0-2_08_DIM
  6
CONTINUOUS
 62
    3
 10
733.20294385827151
 20
378.05744361897911
 11
720.74593434869291
 21
406.05681501445463
  0
INSERT
  2
-006-_Open30
  8
_0-2_08_DIM
 10
718.71349218761475
 20
410.62509465364832
 41
5
 42
5
 50
113.98443364290067
  0
LINE
  8
_0-2_08_DIM
  6
CONTINUOUS
 62
    3
 10
706.68105002653635
 20
440.44337428845836
 11
706.68105002653635
 21
460.86625850969392
  0
LINE
  8
_0-2_08_DIM
  6
CONTINUOUS
 62
    3
 10
726.68105002653635
 20
440.44337428845836
 11
726.68105002653635
 21
460.86625850969392
  0
LINE
  8
_0-2_08_DIM
  6
CONTINUOUS
 62
    3
 10
711.68105002653635
 20
458.36625850969386
 11
721.68105002653647
 21
458.36625850969386
  0
INSERT
  2
-006-_Open30
  8
_0-2_08_DIM
 10
706.68105002653635
 20
458.36625850969386
 41
5
 42
5
 50
180
  0
INSERT
  2
-006-_Open30
  8
_0-2_08_DIM
 10
726.68105002653635
 20
458.36625850969386
 41
5
 42
5
 50
0
  0
LINE
  8
_0-2_08_DIM
  6
CONTINUOUS
 62
    3
 10
703.64551612060359
 20
387.15784039129261
 11
683.70736599846657
 21
367.21969026915559
  0
INSERT
  2
-006-_Open30
  8
_0-2_08_DIM
 10
707.18105002653635
 20
390.69337429722538
 41
5
 42
5
 50
45.000000000000028
  0
LINE
  8
_0-2_08_DIM
  6
CONTINUOUS
 62
    3
 10
822.89316035845002
 20
445.83516096646565
 11
822.89316035845002
 21
456.41206959665101
  0
LINE
  8
_0-2_08_DIM
  6
CONTINUOUS
 62
    3
 10
799.39316035862055
 20
424.97273534353974
 11
799.39316035862055
 21
456.41206959665101
  0
LINE
  8
_0-2_08_DIM
  6
CONTINUOUS
 62
    3
 10
817.89316035845002
 20
453.91206959665101
 11
804.39316035862055
 21
453.91206959665101
  0
INSERT
  2
-006-_Open30
  8
_0-2_08_DIM
 10
822.89316035845002
 20
453.91206959665101
 41
5
 42
5
 50
0
  0
INSERT
  2
-006-_Open30
  8
_0-2_08_DIM
 10
799.39316035862055
 20
453.91206959665101
 41
5
 42
5
 50
180
  0
LINE
  8
_0-2_08_DIM
  6
CONTINUOUS
 62
    3
 10
837.95549781619889
 20
389.10464053089038
 11
845.93950825697493
 21
375.275928799307
  0
LINE
  8
_0-2_08_DIM
  6
CONTINUOUS
 62
    3
 10
837.95549781619968
 20
441.28210804602668
 11
845.93950825697675
 21
455.1108197776108
  0
ARC
  8
_0-2_08_DIM
  6
CONTINUOUS
 62
    3
 10
822.89316035844888
 20
415.19337428845938
 40
43.59269579704965
 50
306.5753255054712
 51
53.424674494526222
  0
INSERT
  2
-006-_Open30
  8
_0-2_08_DIM
 10
844.68950825697482
 20
377.44099230876799
 41
4.9999999999999991
 42
4.9999999999999991
 50
213.28766275273654
  0
INSERT
  2
-006-_Open30
  8
_0-2_08_DIM
 10
844.68950825697664
 20
452.94575626814992
 41
5
 42
5
 50
146.71233724726088
  0
LINE
  8
_0-2_08_DIM
  6
CONTINUOUS
 62
    1
 10
855.61392828184614
 20
654.63948195997239
 11
900.06516097755173
 21
686.41342554411301
  0
INSERT
  2
-006-_Open30
  8
_0-2_08_DIM
 10
851.54625936118566
 20
651.73189368927592
 41
5
 42
5
 50
215.55735729134142
  0
LINE
  8
_0-2_08_DIM
  6
CONTINUOUS
 62
    1
 10
957.86031198574699
 20
654.63948195811372
 11
1002.3115446814523
 21
686.41342554225412
  0
INSERT
  2
-006-_Open30
  8
_0-2_08_DIM
 10
953.79264306508651
 20
651.73189368741726
 41
5
 42
5
 50
215.55735729134142
  0
TEXT
  8
_0-6_07_TEXT
 62
    3
 10
951.18885889653257
 20
374.91418005063582
 40
5.9999999999999991
 41
1
 50
0
  1
注記
  0
TEXT
  8
_0-6_07_TEXT
 62
    3
 10
951.66885889653281
 20
363.75618005063586
 40
5.9999999999999991
 41
1
 50
0
  1
　指示なき角部は
  0
TEXT
  8
_0-6_07_TEXT
 62
    3
 10
1016.3188588965328
 20
363.75618005063586
 40
5.9999999999999991
 41
1
 50
0
  1
C0.5
  0
TEXT
  8
_0-6_07_TEXT
 62
    3
 10
1036.6045731822471
 20
363.75618005063586
 40
5.9999999999999991
 41
1
 50
0
  1
のこと
  0
TEXT
  8
_0-6_07_TEXT
 62
    3
 10
897.52262336537285
 20
444.33876269402469
 40
5.9999999999999991
 41
1
 50
0
  1
使用箇所
  0
TEXT
  8
_0-6_07_TEXT
 62
    3
 10
903.62462336537283
 20
433.25276269402468
 40
5.9999999999999991
 41
1
 50
0
  1
1.
  0
TEXT
  8
_0-6_07_TEXT
 62
    3
 10
912.19605193680161
 20
433.25276269402468
 40
5.9999999999999991
 41
1
 50
0
  1
脱水ローラー用スクレーパ：
  0
TEXT
  8
_0-6_07_TEXT
 62
    3
 10
1013.5060519368014
 20
433.25276269402468
 40
5.9999999999999991
 41
1
 50
0
  1
2
  0
TEXT
  8
_0-6_07_TEXT
 62
    3
 10
1019.2203376510871
 20
433.25276269402468
 40
5.9999999999999991
 41
1
 50
0
  1
組
  0
TEXT
  8
_0-6_07_TEXT
 62
    3
 10
1027.9443376510869
 20
433.25276269402468
 40
5.9999999999999991
 41
1
 50
0
  1
-
  0
TEXT
  8
_0-6_07_TEXT
 62
    3
 10
1035.3729090796585
 20
433.25276269402468
 40
5.9999999999999991
 41
1
 50
0
  1
φ
  0
TEXT
  8
_0-6_07_TEXT
 62
    3
 10
1040.8029090796585
 20
433.25276269402468
 40
5.9999999999999991
 41
1
 50
0
  1
30
  0
TEXT
  8
_0-6_07_TEXT
 62
    3
 10
1052.2314805082301
 20
433.25276269402468
 40
5.9999999999999991
 41
1
 50
0
  1
用
  0
TEXT
  8
_0-6_07_TEXT
 62
    3
 10
903.62462336537283
 20
422.16676269402473
 40
5.9999999999999991
 41
1
 50
0
  1
2.
  0
TEXT
  8
_0-6_07_TEXT
 62
    3
 10
912.19605193680161
 20
422.16676269402473
 40
5.9999999999999991
 41
1
 50
0
  1
水切りローラー用スクレーパ：
  0
TEXT
  8
_0-6_07_TEXT
 62
    3
 10
1020.0160519368013
 20
422.16676269402473
 40
5.9999999999999991
 41
1
 50
0
  1
2
  0
TEXT
  8
_0-6_07_TEXT
 62
    3
 10
1025.7303376510872
 20
422.16676269402473
 40
5.9999999999999991
 41
1
 50
0
  1
組
  0
TEXT
  8
_0-6_07_TEXT
 62
    3
 10
1034.4543376510871
 20
422.16676269402473
 40
5.9999999999999991
 41
1
 50
0
  1
-
  0
TEXT
  8
_0-6_07_TEXT
 62
    3
 10
1041.8829090796587
 20
422.16676269402473
 40
5.9999999999999991
 41
1
 50
0
  1
φ
  0
TEXT
  8
_0-6_07_TEXT
 62
    3
 10
1047.3129090796585
 20
422.16676269402473
 40
5.9999999999999991
 41
1
 50
0
  1
30
  0
TEXT
  8
_0-6_07_TEXT
 62
    3
 10
1058.7414805082299
 20
422.16676269402473
 40
5.9999999999999991
 41
1
 50
0
  1
用
  0
TEXT
  8
_0-6_07_TEXT
 62
    3
 10
903.62462336537283
 20
410.73876269402473
 40
5.9999999999999991
 41
1
 50
0
  1
3.
  0
TEXT
  8
_0-6_07_TEXT
 62
    3
 10
912.19605193680161
 20
410.73876269402473
 40
5.9999999999999991
 41
1
 50
0
  1
スナップ軸①用スクレーパ：
  0
TEXT
  8
_0-6_07_TEXT
 62
    3
 10
1012.3540519368015
 20
410.73876269402473
 40
5.9999999999999991
 41
1
 50
0
  1
2
  0
TEXT
  8
_0-6_07_TEXT
 62
    3
 10
1018.0683376510873
 20
410.73876269402473
 40
5.9999999999999991
 41
1
 50
0
  1
組
  0
TEXT
  8
_0-6_07_TEXT
 62
    3
 10
1026.7923376510871
 20
410.73876269402473
 40
5.9999999999999991
 41
1
 50
0
  1
-
  0
TEXT
  8
_0-6_07_TEXT
 62
    3
 10
1034.2209090796587
 20
410.73876269402473
 40
5.9999999999999991
 41
1
 50
0
  1
φ
  0
TEXT
  8
_0-6_07_TEXT
 62
    3
 10
1039.6509090796585
 20
410.73876269402473
 40
5.9999999999999991
 41
1
 50
0
  1
30
  0
TEXT
  8
_0-6_07_TEXT
 62
    3
 10
1051.0794805082301
 20
410.73876269402473
 40
5.9999999999999991
 41
1
 50
0
  1
用
  0
TEXT
  8
_0-6_07_TEXT
 62
    3
 10
903.62462336537283
 20
399.65276269402472
 40
5.9999999999999991
 41
1
 50
0
  1
4.
  0
TEXT
  8
_0-6_07_TEXT
 62
    3
 10
912.19605193680161
 20
399.65276269402472
 40
5.9999999999999991
 41
1
 50
0
  1
ベルト
  0
TEXT
  8
_0-6_07_TEXT
 62
    3
 10
934.8220519368017
 20
399.65276269402472
 40
5.9999999999999991
 41
1
 50
0
  1
CV
  0
TEXT
  8
_0-6_07_TEXT
 62
    3
 10
945.9649090796587
 20
399.65276269402472
 40
5.9999999999999991
 41
1
 50
0
  1
用スクレーパ：
  0
TEXT
  8
_0-6_07_TEXT
 62
    3
 10
998.47690907965853
 20
399.65276269402472
 40
5.9999999999999991
 41
1
 50
0
  1
2
  0
TEXT
  8
_0-6_07_TEXT
 62
    3
 10
1004.1911947939442
 20
399.65276269402472
 40
5.9999999999999991
 41
1
 50
0
  1
組
  0
TEXT
  8
_0-6_07_TEXT
 62
    3
 10
1012.9151947939444
 20
399.65276269402472
 40
5.9999999999999991
 41
1
 50
0
  1
-
  0
TEXT
  8
_0-6_07_TEXT
 62
    3
 10
1020.3437662225157
 20
399.65276269402472
 40
5.9999999999999991
 41
1
 50
0
  1
φ
  0
TEXT
  8
_0-6_07_TEXT
 62
    3
 10
1025.7737662225159
 20
399.65276269402472
 40
5.9999999999999991
 41
1
 50
0
  1
20
  0
TEXT
  8
_0-6_07_TEXT
 62
    3
 10
1037.2023376510872
 20
399.65276269402472
 40
5.9999999999999991
 41
1
 50
0
  1
用
  0
TEXT
  8
_0-6_07_TEXT
 62
    4
 10
897.94047225352176
 20
710.05352936439465
 40
5.9999999999999991
 41
1
 50
0
  1
25.04.28
  0
TEXT
  8
_0-6_07_TEXT
 62
    4
 10
937.94047225352176
 20
710.05352936439465
 40
5.9999999999999991
 41
1
 50
0
  1
河相様より問い合わせ
  0
TEXT
  8
_0-6_07_TEXT
 62
    4
 10
897.94047225352176
 20
698.93152936439458
 40
5.9999999999999991
 41
1
 50
0
  1
2-M6
  0
TEXT
  8
_0-6_07_TEXT
 62
    4
 10
923.65475796780743
 20
698.93152936439458
 40
5.9999999999999991
 41
1
 50
0
  1
を開けて良いかとの事。
  0
TEXT
  8
_0-6_07_TEXT
 62
    4
 10
897.94047225352176
 20
687.77352936439456
 40
5.9999999999999991
 41
1
 50
0
  1
5/2
  0
TEXT
  8
_0-6_07_TEXT
 62
    4
 10
915.65475796780754
 20
687.77352936439456
 40
5.9999999999999991
 41
1
 50
0
  1
「
  0
TEXT
  8
_0-6_07_TEXT
 62
    4
 10
920.01675796780739
 20
687.77352936439456
 40
5.9999999999999991
 41
1
 50
0
  1
1
  0
TEXT
  8
_0-6_07_TEXT
 62
    4
 10
925.73104368209295
 20
687.77352936439456
 40
5.9999999999999991
 41
1
 50
0
  1
ヶ所で良い」と回答
  0
TEXT
  8
_0-6_07_TEXT
 62
    4
 10
1052.8549742348775
 20
233.22808591923922
 40
10
 41
1
 50
0
  1
A
  0
TEXT
  8
_0-2_08_DIM
 62
    3
 10
621.33995611024534
 20
632.32215193525053
 40
5.9999999999999991
 41
1
 50
0
  1
25
  0
TEXT
  8
_0-2_08_DIM
 62
    3
 10
543.05424182692525
 20
654.54660754287988
 40
5.9999999999999991
 41
1
 50
0
  1
175
  0
TEXT
  8
_0-2_08_DIM
 62
    3
 10
440.83529408010617
 20
637.29538790334266
 40
5.9999999999999991
 41
1
 50
90
  1
?10
  0
TEXT
  8
_0-2_08_DIM
 62
    3
 10
448.33529408010617
 20
630.59995933191408
 40
5.9999999999999991
 41
1
 50
90
  1
(
  0
TEXT
  8
_0-2_08_DIM
 62
    3
 10
448.33529408010617
 20
634.59995933191396
 40
5.9999999999999991
 41
1
 50
90
  1
ミガキ
  0
TEXT
  8
_0-2_08_DIM
 62
    3
 10
448.33529408010617
 20
656.84795933191413
 40
5.9999999999999991
 41
1
 50
90
  1
)
  0
TEXT
  8
_0-2_08_DIM
 62
    3
 10
449.28543792135775
 20
597.4229223793136
 40
5.9999999999999991
 41
1
 50
45
  1
C1
  0
TEXT
  8
_0-2_08_DIM
 62
    3
 10
646.7489804123361
 20
629.88646487029052
 40
5.9999999999999991
 41
1
 50
44.999999999999808
  1
C1
  0
TEXT
  8
_0-2_08_DIM
 62
    3
 10
637.72994144905499
 20
594.02339429315759
 40
5.9999999999999991
 41
1
 50
0
  1
M10
  0
TEXT
  8
_0-2_08_DIM
 62
    3
 10
842.83197364689954
 20
670.85523005975256
 40
5.9999999999999991
 41
1
 50
0
  1
50
  0
TEXT
  8
_0-2_08_DIM
 62
    3
 10
891.6522394472853
 20
618.30332226070459
 40
5.9999999999999991
 41
1
 50
90
  1
?50
  0
TEXT
  8
_0-2_08_DIM
 62
    3
 10
899.1564061139519
 20
611.60789368927601
 40
5.9999999999999991
 41
1
 50
90
  1
(
  0
TEXT
  8
_0-2_08_DIM
 62
    3
 10
899.1564061139519
 20
615.60789368927612
 40
5.9999999999999991
 41
1
 50
90
  1
ミガキ
  0
TEXT
  8
_0-2_08_DIM
 62
    3
 10
899.1564061139519
 20
637.85589368927594
 40
5.9999999999999991
 41
1
 50
90
  1
)
  0
TEXT
  8
_0-2_08_DIM
 62
    3
 10
978.90015706572512
 20
651.30073604528923
 40
5.9999999999999991
 41
1
 50
0
  1
10.2
  0
TEXT
  8
_0-2_08_DIM
 62
    3
 10
998.90015706572524
 20
651.30073604528923
 40
5.9999999999999991
 41
1
 50
0
  1
キリ
  0
TEXT
  8
_0-2_08_DIM
 62
    3
 10
799.82795354676011
 20
579.7813548278184
 40
5.9999999999999991
 41
1
 50
45.000000000000078
  1
2-C2
  0
TEXT
  8
_0-2_08_DIM
 62
    3
 10
531.29535900530971
 20
417.74003614952375
 40
5.9999999999999991
 41
1
 50
0
  1
21
  0
TEXT
  8
_0-2_08_DIM
 62
    3
 10
498.45332927213411
 20
372.1756646320249
 40
5.9999999999999991
 41
1
 50
90
  1
?45
  0
TEXT
  8
_0-2_08_DIM
 62
    3
 10
505.95749593880072
 20
365.48023606059633
 40
5.9999999999999991
 41
1
 50
90
  1
(
  0
TEXT
  8
_0-2_08_DIM
 62
    3
 10
505.95749593880072
 20
369.48023606059633
 40
5.9999999999999991
 41
1
 50
90
  1
ミガキ
  0
TEXT
  8
_0-2_08_DIM
 62
    3
 10
505.95749593880072
 20
391.72823606059632
 40
5.9999999999999991
 41
1
 50
90
  1
)
  0
TEXT
  8
_0-2_08_DIM
 62
    3
 10
478.68597678316519
 20
411.3240123560812
 40
5.9999999999999991
 41
1
 50
90
  1
?20H7
  0
TEXT
  8
_0-2_08_DIM
 62
    3
 10
489.25740535459369
 20
402.8094409275098
 40
5.9999999999999991
 41
1
 50
90
  1
(
  0
TEXT
  8
_0-2_08_DIM
 62
    3
 10
489.25740535459369
 20
406.8094409275098
 40
5.9999999999999991
 41
1
 50
89.999999999999943
  1
両口元
  0
TEXT
  8
_0-2_08_DIM
 62
    3
 10
489.25740535459369
 20
432.98144092750977
 40
5.9999999999999991
 41
1
 50
89.999999999999858
  1
C1)
  0
TEXT
  8
_0-2_08_DIM
 62
    3
 10
439.32405709723088
 20
422.52712028183197
 40
5.9999999999999991
 41
1
 50
0
  1
20
  0
TEXT
  8
_0-2_08_DIM
 62
    3
 10
472.60205572696088
 20
347.03973395816581
 40
5.9999999999999991
 41
1
 50
0
  1
3-M10
  0
TEXT
  8
_0-2_08_DIM
 62
    3
 10
465.87805572696095
 20
336.46830538673726
 40
5.9999999999999991
 41
1
 50
0
  1
(120°
  0
TEXT
  8
_0-2_08_DIM
 62
    3
 10
489.3066271555324
 20
336.46830538673726
 40
5.9999999999999991
 41
1
 50
0
  1
等配
  0
TEXT
  8
_0-2_08_DIM
 62
    3
 10
506.75462715553232
 20
336.46830538673726
 40
5.9999999999999991
 41
1
 50
0
  1
)
  0
TEXT
  8
_0-2_08_DIM
 62
    3
 10
410.95349098443944
 20
335.78715118648546
 40
5.9999999999999991
 41
1
 50
44.999999999999922
  1
2-C1
  0
TEXT
  8
_0-2_08_DIM
 62
    3
 10
588.99519765941341
 20
370.46137891335906
 40
5.9999999999999991
 41
1
 50
90
  1
120°
  0
TEXT
  8
_0-2_08_DIM
 62
    3
 10
618.83995611024534
 20
643.46543754619586
 40
5.9999999999999991
 41
1
 50
0
  1
30
  0
TEXT
  8
_0-2_08_DIM
 62
    3
 10
573.88605879327019
 20
592.11023196637632
 40
5.9999999999999991
 41
1
 50
0
  1
4
  0
TEXT
  8
_0-2_08_DIM
 62
    3
 10
579.60034450755597
 20
592.11023196637632
 40
5.9999999999999991
 41
1
 50
0
  1
キリ
  0
TEXT
  8
_0-2_08_DIM
 62
    3
 10
770.09603648715381
 20
406.76480286427051
 40
5.9999999999999991
 41
1
 50
90
  1
?50
  0
TEXT
  8
_0-2_08_DIM
 62
    3
 10
777.60020315382042
 20
400.06937429284187
 40
5.9999999999999991
 41
1
 50
90
  1
(
  0
TEXT
  8
_0-2_08_DIM
 62
    3
 10
777.60020315382042
 20
404.06937429284187
 40
5.9999999999999991
 41
1
 50
90
  1
ミガキ
  0
TEXT
  8
_0-2_08_DIM
 62
    3
 10
777.60020315382042
 20
426.31737429284181
 40
5.9999999999999991
 41
1
 50
90
  1
)
  0
TEXT
  8
_0-2_08_DIM
 62
    3
 10
750.32868399818506
 20
445.91315058832311
 40
5.9999999999999991
 41
1
 50
90
  1
?30H7
  0
TEXT
  8
_0-2_08_DIM
 62
    3
 10
760.90011256961373
 20
437.3985791597517
 40
5.9999999999999991
 41
1
 50
90
  1
(
  0
TEXT
  8
_0-2_08_DIM
 62
    3
 10
760.90011256961373
 20
441.39857915975165
 40
5.9999999999999991
 41
1
 50
90
  1
両口元
  0
TEXT
  8
_0-2_08_DIM
 62
    3
 10
760.90011256961373
 20
467.57057915975162
 40
5.9999999999999991
 41
1
 50
90
  1
C1)
  0
TEXT
  8
_0-2_08_DIM
 62
    3
 10
738.18865814398589
 20
381.62887219040772
 40
5.9999999999999991
 41
1
 50
0
  1
3-M10
  0
TEXT
  8
_0-2_08_DIM
 62
    3
 10
731.46465814398573
 20
371.05744361897916
 40
5.9999999999999991
 41
1
 50
0
  1
(120°
  0
TEXT
  8
_0-2_08_DIM
 62
    3
 10
754.89322957255717
 20
371.05744361897916
 40
5.9999999999999991
 41
1
 50
0
  1
等配
  0
TEXT
  8
_0-2_08_DIM
 62
    3
 10
772.34122957255727
 20
371.05744361897916
 40
5.9999999999999991
 41
1
 50
0
  1
)
  0
TEXT
  8
_0-2_08_DIM
 62
    3
 10
710.96676431225069
 20
459.61625850969398
 40
5.9999999999999991
 41
1
 50
0
  1
20
  0
TEXT
  8
_0-2_08_DIM
 62
    3
 10
682.59619819945908
 20
367.87628942311454
 40
5.9999999999999991
 41
1
 50
45.000000000000156
  1
2-C1
  0
TEXT
  8
_0-2_08_DIM
 62
    3
 10
801.14316035853528
 20
455.16623626331767
 40
5.9999999999999991
 41
1
 50
0
  1
23.5
  0
TEXT
  8
_0-2_08_DIM
 62
    3
 10
865.23585615549837
 20
405.05051714560136
 40
5.9999999999999991
 41
1
 50
89.999999999998423
  1
120°
  0
TEXT
  8
_0-2_08_DIM
 62
    4
 10
889.02381771820262
 20
680.05752965929798
 40
5.9999999999999991
 41
1
 50
35.557357291341283
  1
M6
  0
TEXT
  8
_0-2_08_DIM
 62
    4
 10
991.27020142210313
 20
680.05752965743909
 40
5.9999999999999991
 41
1
 50
35.557357291342072
  1
M6
  0
TEXT
  8
_0-0_90_FRAME
 62
    3
 10
482.47531165983816
 20
92.784026967010732
 40
5.9999999999999991
 41
1
 50
0
  1
寺田
  0
TEXT
  8
_0-0_90_FRAME
 62
    3
 10
329.21876666509854
 20
92.784026967010732
 40
5.9999999999999991
 41
0.65
 50
0
  1
2013.09.01
  0
TEXT
  8
_0-0_90_FRAME
 62
    3
 10
369.20214135812023
 20
92.784026967010732
 40
5.9999999999999991
 41
1
 50
0
  1
エアー抜き追加
  0
TEXT
  8
_0-9_
 62
    7
 10
570.74615134636747
 20
90.851537373663049
 40
9.6858222020243172
 41
1
 50
0
  1
A3　150%
  0
ENDSEC
  0
EOF
