  0
SECTION
  2
HEADER
  9
$TEXTSIZE
 40
2.5
  9
$ACADVER
  1
AC1009
  9
$DIMASZ
 40
1.931851648807023
  9
$DIMEXE
 40
2.000000000000000
  9
$DIMEXO
 40
1.000000000000000
  9
$DIMLFAC
 40
1.000000000000000
  9
$DIMSCALE
 40
1.000000000000000
  9
$DIMTAD
 70
1
  9
$DIMTFAC
 40
0.714285731315613
  9
$DIMTXT
 40
2.799999952316284
  9
$LUPREC
 70
3
  9
$REGENMODE
 70
1
  9
$TEXTSTYLE
  7
STANDARD1
  0
ENDSEC
  0
SECTION
  2
TABLES
  0
TABLE
  2
LTYPE
 70
4
  0
LTYPE
  2
CONTINUOUS
 70
64
  3
Solid line
 72
65
 73
0
 40
0.0
  0
LTYPE
  2
DASHED
 70
64
  3
-- -- -- -- -- -- -- -- -- -- -- -- -- -- --
 72
65
 73
2
 40
0.75
 49
0.5
 49
-0.25
  0
LTYPE
  2
DASHDOT
 70
64
  3
__ . __ . __ . __ . __ . __ . __ . __ . __ . __
 72
65
 73
4
 40
1.0
 49
0.5
 49
-0.25
 49
0.0
 49
-0.25
  0
LTYPE
  2
DIVIDE
 70
64
  3
__ . . __ . . __ . . __ . . __ . . __ . . __
 72
65
 73
6
 40
1.25
 49
0.5
 49
-0.25
 49
0.0
 49
-0.25
 49
0.0
 49
-0.25
  0
ENDTAB
  0
TABLE
  2
LAYER
 70
2
  0
LAYER
  2
0
 70
64
 62
3
  6
CONTINUOUS
  0
LAYER
  2
1
 70
64
 62
3
  6
CONTINUOUS
  0
ENDTAB
  0
TABLE
  2
STYLE
 70
4
  0
STYLE
  2
STANDARD1
 70
64
 40
0.0
 41
1.0
 50
0.0
 71
0
 42
2.799999952316284
  3
MONOTXT
  4
BIGFONT
  0
STYLE
  2
STANDARD2
 70
68
 40
0.0
 41
1.0
 50
0.0
 71
0
 42
2.799999952316284
  3
MONOTXT
  4
BIGFONT
  0
STYLE
  2
STANDARD3
 70
64
 40
0.0
 41
1.0
 50
0.0
 71
0
 42
2.799999952316284
  3
MONOTXT
  4

  0
STYLE
  2
STANDARD4
 70
68
 40
0.0
 41
1.0
 50
0.0
 71
0
 42
2.799999952316284
  3
MONOTXT
  4

  0
ENDTAB
  0
TABLE
  2
VIEW
 70
0
  0
ENDTAB
  0
ENDSEC
  0
SECTION
  2
BLOCKS
  0
BLOCK
  8
1
  2
*D1
 70
65
 10
0.000000000000000
 20
0.000000000000000
  0
TEXT
  8
1
  6
CONTINUOUS
 62
5
 10
-128.558898379388860
 20
-248.985885620117190
 40
25.000000000000000
  1
ƒÓ50
 50
0.000002504478167
 41
0.815625000000000
  7
STANDARD1
  0
LINE
  8
1
  6
CONTINUOUS
 62
3
 10
-66.126892089843750
 20
-298.985900878906250
 11
-66.126892089843750
 21
-247.985885620117190
  0
LINE
  8
1
  6
CONTINUOUS
 62
3
 10
-125.740890502929690
 20
-298.985900878906250
 11
-125.740890502929690
 21
-247.985885620117190
  0
LINE
  8
1
  6
CONTINUOUS
 62
3
 10
-61.126892089843750
 20
-249.985885620117190
 11
-130.740890502929690
 21
-249.985885620117190
  0
LINE
  8
1
  6
CONTINUOUS
 62
3
 10
-66.126892089843750
 20
-249.985885620117190
 11
-62.263188792229705
 21
-251.021161828675250
  0
LINE
  8
1
  6
CONTINUOUS
 62
3
 10
-66.126892089843750
 20
-249.985885620117190
 11
-62.263188792229705
 21
-248.950609411559130
  0
LINE
  8
1
  6
CONTINUOUS
 62
3
 10
-125.740890502929690
 20
-249.985885620117190
 11
-129.604593800543740
 21
-248.950609411559130
  0
LINE
  8
1
  6
CONTINUOUS
 62
3
 10
-125.740890502929690
 20
-249.985885620117190
 11
-129.604593800543740
 21
-251.021161828675250
  0
POINT
  8
DEFPOINTS
  6
BYBLOCK
 10
-125.740890502929690
 20
-299.985900878906250
  0
POINT
  8
DEFPOINTS
  6
BYBLOCK
 10
-66.126892089843750
 20
-299.985900878906250
  0
POINT
  8
DEFPOINTS
  6
BYBLOCK
 10
-66.126892089843750
 20
-249.985885620117190
  0
ENDBLK
  8
1
  0
BLOCK
  8
1
  2
*D2
 70
65
 10
0.000000000000000
 20
0.000000000000000
  0
TEXT
  8
1
  6
CONTINUOUS
 62
5
 10
-186.433898925781310
 20
-405.110899786121480
 40
25.000000000000000
  1
102
 50
90.000005008956336
 41
0.870000000000000
  7
STANDARD1
  0
LINE
  8
1
  6
CONTINUOUS
 62
3
 10
-135.933898925781250
 20
-423.485900878906250
 11
-187.433898925781250
 21
-423.485900878906250
  0
LINE
  8
1
  6
CONTINUOUS
 62
3
 10
-135.933898925781250
 20
-321.485900878906250
 11
-187.433898925781250
 21
-321.485900878906250
  0
LINE
  8
1
  6
CONTINUOUS
 62
3
 10
-185.433898925781250
 20
-423.485900878906250
 11
-185.433898925781250
 21
-321.485900878906250
  0
LINE
  8
1
  6
CONTINUOUS
 62
3
 10
-185.433898925781250
 20
-423.485900878906250
 11
-186.469175134339310
 21
-419.622197581292200
  0
LINE
  8
1
  6
CONTINUOUS
 62
3
 10
-185.433898925781250
 20
-423.485900878906250
 11
-184.398622717223190
 21
-419.622197581292200
  0
LINE
  8
1
  6
CONTINUOUS
 62
3
 10
-185.433898925781250
 20
-321.485900878906250
 11
-184.398622717223190
 21
-325.349604176520300
  0
LINE
  8
1
  6
CONTINUOUS
 62
3
 10
-185.433898925781250
 20
-321.485900878906250
 11
-186.469175134339310
 21
-325.349604176520300
  0
POINT
  8
DEFPOINTS
  6
BYBLOCK
 10
-134.933898925781250
 20
-321.485900878906250
  0
POINT
  8
DEFPOINTS
  6
BYBLOCK
 10
-134.933898925781250
 20
-423.485900878906250
  0
POINT
  8
DEFPOINTS
  6
BYBLOCK
 10
-185.433898925781250
 20
-423.485900878906250
  0
ENDBLK
  8
1
  0
BLOCK
  8
1
  2
*D3
 70
65
 10
0.000000000000000
 20
0.000000000000000
  0
TEXT
  8
1
  6
CONTINUOUS
 62
5
 10
-71.058890749994347
 20
55.228019714355483
 40
25.000000000000000
  1
115
 50
0.000002504478167
 41
0.870000000000000
  7
STANDARD1
  0
LINE
  8
1
  6
CONTINUOUS
 62
3
 10
19.066108703613281
 20
128.050811767578120
 11
19.066108703613281
 21
52.228023529052734
  0
LINE
  8
1
  6
CONTINUOUS
 62
3
 10
-95.933891296386719
 20
162.228027343750000
 11
-95.933891296386719
 21
52.228023529052734
  0
LINE
  8
1
  6
CONTINUOUS
 62
3
 10
19.066108703613281
 20
54.228023529052734
 11
-95.933891296386719
 21
54.228023529052734
  0
LINE
  8
1
  6
CONTINUOUS
 62
3
 10
19.066108703613281
 20
54.228023529052734
 11
15.202405405999235
 21
53.192747320494675
  0
LINE
  8
1
  6
CONTINUOUS
 62
3
 10
19.066108703613281
 20
54.228023529052734
 11
15.202405405999235
 21
55.263299737610794
  0
LINE
  8
1
  6
CONTINUOUS
 62
3
 10
-95.933891296386719
 20
54.228023529052734
 11
-92.070187998772667
 21
55.263299737610794
  0
LINE
  8
1
  6
CONTINUOUS
 62
3
 10
-95.933891296386719
 20
54.228023529052734
 11
-92.070187998772667
 21
53.192747320494675
  0
POINT
  8
DEFPOINTS
  6
BYBLOCK
 10
-95.933891296386719
 20
163.228027343750000
  0
POINT
  8
DEFPOINTS
  6
BYBLOCK
 10
19.066108703613281
 20
129.050811767578130
  0
POINT
  8
DEFPOINTS
  6
BYBLOCK
 10
19.066108703613281
 20
54.228023529052734
  0
ENDBLK
  8
1
  0
BLOCK
  8
1
  2
*D4
 70
65
 10
0.000000000000000
 20
0.000000000000000
  0
TEXT
  8
1
  6
CONTINUOUS
 62
5
 10
37.816109250005660
 20
55.228019714355483
 40
25.000000000000000
  1
81
 50
0.000002504478167
 41
0.870000000000000
  7
STANDARD1
  0
LINE
  8
1
  6
CONTINUOUS
 62
3
 10
100.066108703613280
 20
214.228027343750000
 11
100.066108703613280
 21
52.228023529052734
  0
LINE
  8
1
  6
CONTINUOUS
 62
3
 10
19.066108703613281
 20
128.050811767578120
 11
19.066108703613281
 21
52.228023529052734
  0
LINE
  8
1
  6
CONTINUOUS
 62
3
 10
100.066108703613280
 20
54.228023529052734
 11
19.066108703613281
 21
54.228023529052734
  0
LINE
  8
1
  6
CONTINUOUS
 62
3
 10
100.066108703613280
 20
54.228023529052734
 11
96.202405405999230
 21
53.192747320494675
  0
LINE
  8
1
  6
CONTINUOUS
 62
3
 10
100.066108703613280
 20
54.228023529052734
 11
96.202405405999230
 21
55.263299737610794
  0
LINE
  8
1
  6
CONTINUOUS
 62
3
 10
19.066108703613281
 20
54.228023529052734
 11
22.929812001227326
 21
55.263299737610794
  0
LINE
  8
1
  6
CONTINUOUS
 62
3
 10
19.066108703613281
 20
54.228023529052734
 11
22.929812001227326
 21
53.192747320494675
  0
POINT
  8
DEFPOINTS
  6
BYBLOCK
 10
19.066108703613281
 20
129.050811767578130
  0
POINT
  8
DEFPOINTS
  6
BYBLOCK
 10
100.066108703613280
 20
215.228027343750000
  0
POINT
  8
DEFPOINTS
  6
BYBLOCK
 10
100.066108703613280
 20
54.228023529052734
  0
ENDBLK
  8
1
  0
BLOCK
  8
1
  2
*D5
 70
65
 10
0.000000000000000
 20
0.000000000000000
  0
TEXT
  8
1
  6
CONTINUOUS
 62
5
 10
-50.308890749994340
 20
5.228023529052747
 40
25.000000000000000
  1
236
 50
0.000002504478167
 41
0.870000000000000
  7
STANDARD1
  0
LINE
  8
1
  6
CONTINUOUS
 62
3
 10
100.066108703613280
 20
214.228027343750000
 11
100.066108703613280
 21
2.228024244308472
  0
LINE
  8
1
  6
CONTINUOUS
 62
3
 10
-135.433898925781250
 20
219.228027343750000
 11
-135.433898925781250
 21
2.228024244308472
  0
LINE
  8
1
  6
CONTINUOUS
 62
3
 10
100.066108703613280
 20
4.228024005889893
 11
-135.433898925781250
 21
4.228024005889893
  0
LINE
  8
1
  6
CONTINUOUS
 62
3
 10
100.066108703613280
 20
4.228024005889893
 11
96.202405405999230
 21
3.192747797331836
  0
LINE
  8
1
  6
CONTINUOUS
 62
3
 10
100.066108703613280
 20
4.228024005889893
 11
96.202405405999230
 21
5.263300214447950
  0
LINE
  8
1
  6
CONTINUOUS
 62
3
 10
-135.433898925781250
 20
4.228024005889893
 11
-131.570195628167200
 21
5.263300214447949
  0
LINE
  8
1
  6
CONTINUOUS
 62
3
 10
-135.433898925781250
 20
4.228024005889893
 11
-131.570195628167200
 21
3.192747797331835
  0
POINT
  8
DEFPOINTS
  6
BYBLOCK
 10
-135.433898925781250
 20
220.228027343750000
  0
POINT
  8
DEFPOINTS
  6
BYBLOCK
 10
100.066108703613280
 20
215.228027343750000
  0
POINT
  8
DEFPOINTS
  6
BYBLOCK
 10
100.066108703613280
 20
4.228024005889893
  0
ENDBLK
  8
1
  0
BLOCK
  8
1
  2
*D6
 70
65
 10
0.000000000000000
 20
0.000000000000000
  0
TEXT
  8
1
  6
CONTINUOUS
 62
5
 10
-186.433898925781310
 20
198.478028436534740
 40
25.000000000000000
  1
90
 50
90.000005008956336
 41
0.870000000000000
  7
STANDARD1
  0
LINE
  8
1
  6
CONTINUOUS
 62
3
 10
-108.433891296386720
 20
265.228027343750000
 11
-187.433898925781250
 21
265.228027343750000
  0
LINE
  8
1
  6
CONTINUOUS
 62
3
 10
-108.433891296386720
 20
175.228027343750000
 11
-187.433898925781250
 21
175.228027343750000
  0
LINE
  8
1
  6
CONTINUOUS
 62
3
 10
-185.433898925781250
 20
265.228027343750000
 11
-185.433898925781250
 21
175.228027343750000
  0
LINE
  8
1
  6
CONTINUOUS
 62
3
 10
-185.433898925781250
 20
265.228027343750000
 11
-184.398622717223190
 21
261.364324046135950
  0
LINE
  8
1
  6
CONTINUOUS
 62
3
 10
-185.433898925781250
 20
265.228027343750000
 11
-186.469175134339310
 21
261.364324046135950
  0
LINE
  8
1
  6
CONTINUOUS
 62
3
 10
-185.433898925781250
 20
175.228027343750000
 11
-186.469175134339310
 21
179.091730641364050
  0
LINE
  8
1
  6
CONTINUOUS
 62
3
 10
-185.433898925781250
 20
175.228027343750000
 11
-184.398622717223190
 21
179.091730641364050
  0
POINT
  8
DEFPOINTS
  6
BYBLOCK
 10
-107.433891296386720
 20
175.228027343750000
  0
POINT
  8
DEFPOINTS
  6
BYBLOCK
 10
-107.433891296386720
 20
265.228027343750000
  0
POINT
  8
DEFPOINTS
  6
BYBLOCK
 10
-185.433898925781250
 20
265.228027343750000
  0
ENDBLK
  8
1
  0
BLOCK
  8
1
  2
*D7
 70
65
 10
0.000000000000000
 20
0.000000000000000
  0
TEXT
  8
1
  6
CONTINUOUS
 62
5
 10
179.066101074218690
 20
155.478028436534740
 40
25.000000000000000
  1
86
 50
90.000005008956336
 41
0.870000000000000
  7
STANDARD1
  0
LINE
  8
1
  6
CONTINUOUS
 62
3
 10
109.559806823730470
 20
220.228027343750000
 11
182.066101074218750
 21
220.228027343750000
  0
LINE
  8
1
  6
CONTINUOUS
 62
3
 10
20.066108703613281
 20
134.228027343750000
 11
182.066101074218750
 21
134.228027343750000
  0
LINE
  8
1
  6
CONTINUOUS
 62
3
 10
180.066101074218750
 20
220.228027343750000
 11
180.066101074218750
 21
134.228027343750000
  0
LINE
  8
1
  6
CONTINUOUS
 62
3
 10
180.066101074218750
 20
220.228027343750000
 11
181.101377282776810
 21
216.364324046135950
  0
LINE
  8
1
  6
CONTINUOUS
 62
3
 10
180.066101074218750
 20
220.228027343750000
 11
179.030824865660690
 21
216.364324046135950
  0
LINE
  8
1
  6
CONTINUOUS
 62
3
 10
180.066101074218750
 20
134.228027343750000
 11
179.030824865660690
 21
138.091730641364050
  0
LINE
  8
1
  6
CONTINUOUS
 62
3
 10
180.066101074218750
 20
134.228027343750000
 11
181.101377282776810
 21
138.091730641364050
  0
POINT
  8
DEFPOINTS
  6
BYBLOCK
 10
19.066108703613281
 20
134.228027343750000
  0
POINT
  8
DEFPOINTS
  6
BYBLOCK
 10
108.559806823730470
 20
220.228027343750000
  0
POINT
  8
DEFPOINTS
  6
BYBLOCK
 10
180.066101074218750
 20
220.228027343750000
  0
ENDBLK
  8
1
  0
BLOCK
  8
1
  2
*D8
 70
65
 10
0.000000000000000
 20
0.000000000000000
  0
TEXT
  8
1
  6
CONTINUOUS
 62
5
 10
179.066101074218690
 20
236.478028436534740
 40
25.000000000000000
  1
76
 50
90.000005008956336
 41
0.870000000000000
  7
STANDARD1
  0
LINE
  8
1
  6
CONTINUOUS
 62
3
 10
20.066108703613281
 20
296.228027343750000
 11
182.066101074218750
 21
296.228027343750000
  0
LINE
  8
1
  6
CONTINUOUS
 62
3
 10
109.559806823730470
 20
220.228027343750000
 11
182.066101074218750
 21
220.228027343750000
  0
LINE
  8
1
  6
CONTINUOUS
 62
3
 10
180.066101074218750
 20
296.228027343750000
 11
180.066101074218750
 21
220.228027343750000
  0
LINE
  8
1
  6
CONTINUOUS
 62
3
 10
180.066101074218750
 20
296.228027343750000
 11
181.101377282776810
 21
292.364324046135950
  0
LINE
  8
1
  6
CONTINUOUS
 62
3
 10
180.066101074218750
 20
296.228027343750000
 11
179.030824865660690
 21
292.364324046135950
  0
LINE
  8
1
  6
CONTINUOUS
 62
3
 10
180.066101074218750
 20
220.228027343750000
 11
179.030824865660690
 21
224.091730641364050
  0
LINE
  8
1
  6
CONTINUOUS
 62
3
 10
180.066101074218750
 20
220.228027343750000
 11
181.101377282776810
 21
224.091730641364050
  0
POINT
  8
DEFPOINTS
  6
BYBLOCK
 10
108.559806823730470
 20
220.228027343750000
  0
POINT
  8
DEFPOINTS
  6
BYBLOCK
 10
19.066108703613281
 20
296.228027343750000
  0
POINT
  8
DEFPOINTS
  6
BYBLOCK
 10
180.066101074218750
 20
296.228027343750000
  0
ENDBLK
  8
1
  0
BLOCK
  8
1
  2
*D9
 70
65
 10
0.000000000000000
 20
0.000000000000000
  0
TEXT
  8
1
  6
CONTINUOUS
 62
5
 10
229.066101074218690
 20
182.603028436534740
 40
25.000000000000000
  1
162
 50
90.000005008956336
 41
0.870000000000000
  7
STANDARD1
  0
LINE
  8
1
  6
CONTINUOUS
 62
3
 10
20.066108703613281
 20
296.228027343750000
 11
232.066101074218750
 21
296.228027343750000
  0
LINE
  8
1
  6
CONTINUOUS
 62
3
 10
20.066108703613281
 20
134.228027343750000
 11
232.066101074218750
 21
134.228027343750000
  0
LINE
  8
1
  6
CONTINUOUS
 62
3
 10
230.066101074218750
 20
296.228027343750000
 11
230.066101074218750
 21
134.228027343750000
  0
LINE
  8
1
  6
CONTINUOUS
 62
3
 10
230.066101074218750
 20
296.228027343750000
 11
231.101377282776810
 21
292.364324046135950
  0
LINE
  8
1
  6
CONTINUOUS
 62
3
 10
230.066101074218750
 20
296.228027343750000
 11
229.030824865660690
 21
292.364324046135950
  0
LINE
  8
1
  6
CONTINUOUS
 62
3
 10
230.066101074218750
 20
134.228027343750000
 11
229.030824865660690
 21
138.091730641364050
  0
LINE
  8
1
  6
CONTINUOUS
 62
3
 10
230.066101074218750
 20
134.228027343750000
 11
231.101377282776810
 21
138.091730641364050
  0
POINT
  8
DEFPOINTS
  6
BYBLOCK
 10
19.066108703613281
 20
134.228027343750000
  0
POINT
  8
DEFPOINTS
  6
BYBLOCK
 10
19.066108703613281
 20
296.228027343750000
  0
POINT
  8
DEFPOINTS
  6
BYBLOCK
 10
230.066101074218750
 20
296.228027343750000
  0
ENDBLK
  8
1
  0
BLOCK
  8
1
  2
*D10
 70
65
 10
0.000000000000000
 20
0.000000000000000
  0
TEXT
  8
1
  6
CONTINUOUS
 62
5
 10
179.066101074218690
 20
-269.360899786121480
 40
25.000000000000000
  1
374
 50
90.000005008956336
 41
0.870000000000000
  7
STANDARD1
  0
LINE
  8
1
  6
CONTINUOUS
 62
3
 10
20.066108703613281
 20
-49.985893249511719
 11
182.066101074218750
 21
-49.985893249511719
  0
LINE
  8
1
  6
CONTINUOUS
 62
3
 10
60.825069427490234
 20
-423.485900878906250
 11
182.066101074218750
 21
-423.485900878906250
  0
LINE
  8
1
  6
CONTINUOUS
 62
3
 10
180.066101074218750
 20
-49.985893249511719
 11
180.066101074218750
 21
-423.485900878906250
  0
LINE
  8
1
  6
CONTINUOUS
 62
3
 10
180.066101074218750
 20
-49.985893249511719
 11
181.101377282776810
 21
-53.849596547125763
  0
LINE
  8
1
  6
CONTINUOUS
 62
3
 10
180.066101074218750
 20
-49.985893249511719
 11
179.030824865660690
 21
-53.849596547125763
  0
LINE
  8
1
  6
CONTINUOUS
 62
3
 10
180.066101074218750
 20
-423.485900878906250
 11
179.030824865660690
 21
-419.622197581292200
  0
LINE
  8
1
  6
CONTINUOUS
 62
3
 10
180.066101074218750
 20
-423.485900878906250
 11
181.101377282776810
 21
-419.622197581292200
  0
POINT
  8
DEFPOINTS
  6
BYBLOCK
 10
59.825069427490234
 20
-423.485900878906250
  0
POINT
  8
DEFPOINTS
  6
BYBLOCK
 10
19.066108703613281
 20
-49.985893249511719
  0
POINT
  8
DEFPOINTS
  6
BYBLOCK
 10
180.066101074218750
 20
-49.985893249511719
  0
ENDBLK
  8
1
  0
ENDSEC
  0
SECTION
  2
ENTITIES
  0
ARC
  8
0
  6
CONTINUOUS
 62
5
 10
78.142223289966410
 20
-369.313994498496410
 40
15.000000000000028
 50
331.411687509896520
 51
359.999999999999770
  0
ARC
  8
0
  6
CONTINUOUS
 62
5
 10
71.117578462984625
 20
-365.485892481209250
 40
23.000000000000057
 50
270.000000000000000
 51
331.411687509896640
  0
LINE
  8
0
  6
CONTINUOUS
 62
5
 10
71.117578462984625
 20
-388.485892481209310
 11
60.435997104968123
 21
-388.485892481209310
  0
LINE
  8
0
  6
CONTINUOUS
 62
5
 10
95.400363046845996
 20
-345.485892481209310
 11
61.186564896882032
 21
-345.485892481209310
  0
ARC
  8
0
  6
CONTINUOUS
 62
5
 10
94.400363046846110
 20
-348.485892481209130
 40
1.000000000000000
 50
270.000000000000000
 51
0.000000000000000
  0
LINE
  8
0
  6
CONTINUOUS
 62
5
 10
95.211683801563026
 20
-344.485892481209310
 11
95.400363046845996
 21
-345.485892481209360
  0
LINE
  8
0
  6
CONTINUOUS
 62
5
 10
95.400363046845996
 20
-345.485892481209360
 11
95.400363046846110
 21
-348.485892481209130
  0
LINE
  8
0
  6
CONTINUOUS
 62
5
 10
59.825069832480040
 20
-423.485892481209310
 11
61.186564896882032
 21
-345.485892481209310
  0
LINE
  8
0
  6
CONTINUOUS
 62
5
 10
93.142223289966410
 20
-349.485892481209130
 11
93.142223289966410
 21
-369.313994498496470
  0
LINE
  8
0
  6
CONTINUOUS
 62
5
 10
94.400363046846110
 20
-349.485892481209130
 11
93.142223289966410
 21
-349.485892481209130
  0
LINE
  8
0
  6
CONTINUOUS
 62
5
 10
59.825069832480040
 20
-423.485892481209310
 11
19.066107890244211
 21
-423.485892481209310
  0
LINE
  8
0
  6
CONTINUOUS
 62
5
 10
19.066107890244211
 20
-423.485892481209310
 11
17.704612825843242
 21
-345.485892481209310
  0
LINE
  8
0
  6
CONTINUOUS
 62
5
 10
-99.933892109755107
 20
-423.485892481209310
 11
-134.933892109755110
 21
-423.485892481209310
  0
ARC
  8
0
  6
CONTINUOUS
 62
5
 10
-77.251483832209658
 20
-393.485892481209310
 40
5.000000000000000
 50
90.000000000000000
 51
146.425483800892100
  0
LINE
  8
0
  6
CONTINUOUS
 62
5
 10
-81.417320300825168
 20
-390.720787326472300
 11
-99.846616785114009
 21
-418.485892481209360
  0
LINE
  8
0
  6
CONTINUOUS
 62
5
 10
-99.846616785114009
 20
-418.485892481209360
 11
-99.933892109755107
 21
-423.485892481209310
  0
LINE
  8
0
  6
CONTINUOUS
 62
5
 10
18.455180617756582
 20
-388.485892481209310
 11
-77.251483832209658
 21
-388.485892481209310
  0
LINE
  8
0
  6
CONTINUOUS
 62
5
 10
-131.933892109755110
 20
-345.485892481209310
 11
-131.933892109755110
 21
-344.485892481209310
  0
LINE
  8
0
  6
CONTINUOUS
 62
5
 10
-135.433892109755110
 20
-345.485892481209310
 11
-134.933892109755110
 21
-423.485892481209310
  0
LINE
  8
0
  6
CONTINUOUS
 62
5
 10
17.704612825843242
 20
-345.485892481209310
 11
-135.433892109755110
 21
-345.485892481209310
  0
POINT
  8
0
  6
DASHED
 62
1
 10
-125.740892109755560
 20
-299.985892481209310
  0
POINT
  8
0
  6
DASHED
 62
1
 10
-66.126892109755545
 20
-299.985892481209310
  0
LINE
  8
0
  6
CONTINUOUS
 62
5
 10
-134.933892109755530
 20
-319.985892481209310
 11
-134.933892109755530
 21
-301.985892481209310
  0
LINE
  8
0
  6
CONTINUOUS
 62
5
 10
-50.351683841446693
 20
-305.882229455889390
 11
-53.408895409241268
 21
-307.004674639630250
  0
LINE
  8
0
  6
CONTINUOUS
 62
5
 10
-49.960199583958911
 20
-283.959111036583920
 11
-50.351683841446693
 21
-305.882229455889390
  0
LINE
  8
0
  6
CONTINUOUS
 62
5
 10
88.066107890244439
 20
-310.485892481209310
 11
-54.719591711577777
 21
-310.485892481209310
  0
LINE
  8
0
  6
CONTINUOUS
 62
5
 10
88.066107890244439
 20
-310.485892481209310
 11
88.066107890244439
 21
-283.985892481209250
  0
ARC
  8
0
  6
CONTINUOUS
 62
5
 10
86.566107890244439
 20
-283.985892481209250
 40
1.500000000000000
 50
0.000000000000000
 51
90.000000000000000
  0
LINE
  8
0
  6
CONTINUOUS
 62
5
 10
-48.460438684940982
 20
-282.485892481209250
 11
86.566107890244439
 21
-282.485892481209250
  0
LINE
  8
0
  6
CONTINUOUS
 62
5
 10
-54.719591711577777
 20
-310.485892481209310
 11
-54.719591711577777
 21
-308.882135800982840
  0
ARC
  8
0
  6
CONTINUOUS
 62
5
 10
-52.719591711577777
 20
-308.882135800982840
 40
1.999999999999989
 50
110.160544779947050
 51
180.000000000000000
  0
ARC
  8
0
  6
CONTINUOUS
 62
5
 10
-48.460438684940982
 20
-283.985892481209250
 40
1.500000000000000
 50
90.000000000000000
 51
178.976969811331860
  0
LINE
  8
0
  6
CONTINUOUS
 62
5
 10
-134.933892109756020
 20
-321.485892481209310
 11
-135.422786305457980
 21
-343.975025483504680
  0
LINE
  8
0
  6
DASHDOT
 62
3
 10
19.066107890244211
 20
-21.132036147580948
 11
19.066107890244211
 21
-404.099085983845440
  0
ARC
  8
0
  6
CONTINUOUS
 62
5
 10
97.066107890244211
 20
-340.185892481209580
 40
3.000000000000000
 50
0.000000000000000
 51
86.619633168100393
  0
LINE
  8
0
  6
CONTINUOUS
 62
5
 10
100.066107890244210
 20
-344.485892481209310
 11
100.066107890244210
 21
-340.185892481209580
  0
LINE
  8
0
  6
CONTINUOUS
 62
5
 10
-56.933892109755561
 20
-315.062359888258360
 11
-81.095920094219764
 21
-321.485892481209310
  0
LINE
  8
0
  6
CONTINUOUS
 62
5
 10
-50.433892109756016
 20
-310.485892481209310
 11
-50.486257304540317
 21
-313.485892481209310
  0
ARC
  8
0
  6
CONTINUOUS
 62
5
 10
-134.922904411046150
 20
-343.985892481209310
 40
0.499999999999871
 50
178.754635733229380
 51
270.000000000000000
  0
LINE
  8
0
  6
CONTINUOUS
 62
5
 10
88.566107890243984
 20
-310.485892481209310
 11
-50.433892109756016
 21
-310.485892481209310
  0
LINE
  8
0
  6
CONTINUOUS
 62
5
 10
100.066107890244210
 20
-344.485892481209310
 11
-134.922904411046150
 21
-344.485892481209310
  0
LINE
  8
0
  6
DASHDOT
 62
3
 10
-95.933892109755561
 20
-354.866022531598500
 11
-95.933892109755561
 21
-288.526418166026530
  0
LINE
  8
0
  6
CONTINUOUS
 62
5
 10
83.566107890244666
 20
-147.985892481209360
 11
83.566107890244680
 21
-280.985892481209310
  0
LINE
  8
0
  6
CONTINUOUS
 62
5
 10
-45.433892109756243
 20
-147.985892481209360
 11
-45.433892109756243
 21
-280.985892481209310
  0
LINE
  8
0
  6
CONTINUOUS
 62
5
 10
-46.233892109755743
 20
-280.985892481209310
 11
84.366107890244166
 21
-280.985892481209310
  0
ARC
  8
0
  6
CONTINUOUS
 62
5
 10
-47.733892109755743
 20
-281.485892481209310
 40
1.000000000000000
 50
270.000000000000000
 51
0.000000000000000
  0
ARC
  8
0
  6
CONTINUOUS
 62
5
 10
-46.233892109755743
 20
-281.485892481209310
 40
0.500000000000000
 50
90.000000000000000
 51
180.000000000000000
  0
ARC
  8
0
  6
CONTINUOUS
 62
5
 10
85.866107890244166
 20
-281.485892481209310
 40
1.000000000000000
 50
180.000000000000000
 51
270.000000000000000
  0
ARC
  8
0
  6
CONTINUOUS
 62
5
 10
84.366107890244166
 20
-281.485892481209310
 40
0.500000000000000
 50
0.000000000000000
 51
90.000000000000000
  0
ARC
  8
0
  6
CONTINUOUS
 62
5
 10
85.839654067781566
 20
-138.377242050691110
 40
3.000000000000019
 50
1.500000000001082
 51
48.783399686516915
  0
LINE
  8
0
  6
CONTINUOUS
 62
5
 10
84.084004789523675
 20
-132.851215017139050
 11
87.816376356990986
 21
-136.120569945279610
  0
LINE
  8
0
  6
CONTINUOUS
 62
5
 10
-23.827775321584568
 20
-91.985892481209305
 11
55.066107890244211
 21
-91.985892481209305
  0
LINE
  8
0
  6
CONTINUOUS
 62
5
 10
-48.605617681823333
 20
-146.985892481209310
 11
-49.182967951012870
 21
-147.985892481209360
  0
LINE
  8
0
  6
CONTINUOUS
 62
5
 10
86.737833462311755
 20
-146.985892481209310
 11
87.315183731501293
 21
-147.985892481209360
  0
LINE
  8
0
  6
CONTINUOUS
 62
5
 10
87.315183731501293
 20
-147.985892481209360
 11
-49.182967951012415
 21
-147.985892481209360
  0
LINE
  8
0
  6
CONTINUOUS
 62
5
 10
89.066107890244211
 20
-146.985892481209310
 11
-50.933892109756016
 21
-146.985892481209310
  0
ARC
  8
0
  6
CONTINUOUS
 62
5
 10
86.060727078733180
 20
-130.594542911727530
 40
3.000000000000018
 50
181.499999999999970
 51
228.783399686516020
  0
LINE
  8
0
  6
CONTINUOUS
 62
5
 10
88.838626042708029
 20
-138.298711205767400
 11
89.066107890244211
 21
-146.985892481209310
  0
LINE
  8
0
  6
CONTINUOUS
 62
5
 10
-45.951789009035259
 20
-132.851215017139050
 11
-49.684160576502563
 21
-136.120569945279610
  0
ARC
  8
0
  6
CONTINUOUS
 62
5
 10
-47.707438287293144
 20
-138.377242050691110
 40
2.999999999999947
 50
131.216600313483100
 51
178.499999999998920
  0
ARC
  8
0
  6
CONTINUOUS
 62
5
 10
-47.928511298244757
 20
-130.594542911727560
 40
2.999999999999947
 50
311.216600313483070
 51
358.500000000000570
  0
LINE
  8
0
  6
CONTINUOUS
 62
5
 10
-50.706410262219833
 20
-138.298711205767430
 11
-50.933892109756016
 21
-146.985892481209310
  0
LINE
  8
0
  6
CONTINUOUS
 62
5
 10
-44.057163429943330
 20
-97.358382460800925
 11
-44.929539323318068
 21
-130.673073756651150
  0
ARC
  8
0
  6
CONTINUOUS
 62
5
 10
19.066107890244211
 20
220.228024135271600
 40
70.000000000000000
 50
294.474342562847200
 51
245.525657437152770
  0
ARC
  8
0
  6
CONTINUOUS
 62
5
 10
-35.381114261119592
 20
165.780801983907050
 40
9.999999999999970
 50
170.000000000000110
 51
280.000000000001140
  0
ARC
  8
0
  6
CONTINUOUS
 62
5
 10
-35.381114261119592
 20
274.675246286635970
 40
9.999999999999970
 50
80.000000000000114
 51
189.999999999999890
  0
ARC
  8
0
  6
CONTINUOUS
 62
5
 10
19.066107890244211
 20
215.228024135271600
 40
80.999999999999730
 50
322.708141315303070
 51
38.853284209930571
  0
LINE
  8
0
  6
CONTINUOUS
 62
5
 10
80.559071039331002
 20
257.045924281320770
 11
83.361407571730069
 21
272.938764509966860
  0
ARC
  8
0
  6
CONTINUOUS
 62
5
 10
73.513330041607787
 20
274.675246286636080
 40
10.000000000000185
 50
350.000000000000680
 51
99.999999999999829
  0
LINE
  8
0
  6
CONTINUOUS
 62
5
 10
80.559071039331002
 20
183.410123989222540
 11
83.361407571730069
 21
167.517283760576500
  0
ARC
  8
0
  6
CONTINUOUS
 62
5
 10
73.513330041608015
 20
165.780801983907220
 40
10.000000000000011
 50
259.999999999998860
 51
9.999999999999890
  0
LINE
  8
0
  6
CONTINUOUS
 62
5
 10
-20.901135306226934
 20
143.474617654108780
 11
-83.633442057828233
 21
174.142909877438000
  0
ARC
  8
0
  6
CONTINUOUS
 62
5
 10
19.066107890244211
 20
215.228024135271600
 40
71.500000000000000
 50
330.327052763409540
 51
19.379168933460821
  0
ARC
  8
0
  6
CONTINUOUS
 62
5
 10
90.407148569453057
 20
255.309442504651540
 40
9.999999999999961
 50
170.000000000000450
 51
189.151496956514730
  0
ARC
  8
0
  6
CONTINUOUS
 62
5
 10
19.066107890244211
 20
220.228024135271600
 40
70.000000000000057
 50
21.272139314990014
 51
23.727860685010384
  0
ARC
  8
0
  6
CONTINUOUS
 62
5
 10
90.407148569453057
 20
185.146605765891820
 40
10.000000000000087
 50
170.848503043485580
 51
189.999999999999890
  0
LINE
  8
0
  6
DASHDOT
 62
3
 10
108.559803530807590
 20
220.228024135271600
 11
-148.919187977676300
 21
220.228024135271540
  0
LINE
  8
0
  6
DASHDOT
 62
3
 10
19.066107890244211
 20
302.029841171336900
 11
19.066107890244211
 21
129.050815133877850
  0
LINE
  8
0
  6
DASHDOT
 62
3
 10
-84.433892109755561
 20
265.228024135271540
 11
-107.433892109755560
 21
265.228024135271540
  0
LINE
  8
0
  6
CONTINUOUS
 62
5
 10
-72.404882087602843
 20
179.228024135271540
 11
-79.218970265674685
 21
179.228024135271540
  0
LINE
  8
0
  6
CONTINUOUS
 62
5
 10
-45.378361635779811
 20
166.015418543095960
 11
-72.404882087602843
 21
179.228024135271540
  0
LINE
  8
0
  6
CONTINUOUS
 62
5
 10
-42.426855258842579
 20
183.410123989222370
 11
-45.229191791241647
 21
167.517283760576330
  0
LINE
  8
0
  6
CONTINUOUS
 62
5
 10
-44.863377213373724
 20
270.864126945152800
 11
-75.463608285730061
 21
261.228024135271480
  0
LINE
  8
0
  6
CONTINUOUS
 62
5
 10
-43.768659889454284
 20
280.120343010533870
 11
-84.488124760479877
 21
267.297663700278060
  0
LINE
  8
0
  6
CONTINUOUS
 62
5
 10
-42.426855258842579
 20
257.045924281320650
 11
-45.229191791241647
 21
272.938764509966690
  0
LINE
  8
0
  6
DASHDOT
 62
3
 10
-95.933892109755561
 20
163.228024135271540
 11
-95.933892109755561
 21
277.228024135271480
  0
LINE
  8
0
  6
DASHDOT
 62
3
 10
-84.433892109755561
 20
175.228024135271540
 11
-107.433892109755560
 21
175.228024135271540
  0
LINE
  8
0
  6
CONTINUOUS
 62
5
 10
-75.463608285730061
 20
261.228024135271480
 11
-79.218970265674699
 21
261.228024135271480
  0
ARC
  8
0
  6
CONTINUOUS
 62
5
 10
-95.933892109755561
 20
265.228024135271480
 40
9.999999999999931
 50
40.961788552350477
 51
139.038211447651240
  0
ARC
  8
0
  6
CONTINUOUS
 62
5
 10
-95.933892109755561
 20
175.228024135271540
 40
9.999999999999931
 50
220.961788552350470
 51
319.038211447652200
  0
ARC
  8
0
  6
CONTINUOUS
 62
5
 10
-95.933892109755561
 20
220.228024135271540
 40
39.499999999999986
 50
139.038211447650410
 51
220.961788552349650
  0
LINE
  8
0
  6
CONTINUOUS
 62
5
 10
-103.485361593109700
 20
271.783579690827140
 11
-125.762196569003210
 21
246.122468579716100
  0
LINE
  8
0
  6
CONTINUOUS
 62
5
 10
-103.485361593109250
 20
168.672468579715880
 11
-125.762196569003210
 21
194.333579690826920
  0
LINE
  8
0
  6
CONTINUOUS
 62
5
 10
-88.382422626401876
 20
168.672468579715880
 11
-79.218970265674685
 21
179.228024135271540
  0
LINE
  8
0
  6
CONTINUOUS
 62
5
 10
-88.382422626401876
 20
271.783579690827140
 11
-79.218970265674699
 21
261.228024135271480
  0
ARC
  8
0
  6
CONTINUOUS
 62
5
 10
-52.274932788964634
 20
185.146605765891650
 40
9.999999999999970
 50
350.000000000000110
 51
9.151496956515706
  0
ARC
  8
0
  6
CONTINUOUS
 62
5
 10
-52.274932788964634
 20
255.309442504651370
 40
10.000000000000107
 50
350.848503043484930
 51
9.999999999999890
  0
LINE
  8
0
  6
CONTINUOUS
 62
5
 10
-3.761430945688971
 20
292.718737131447650
 11
-31.171463144827385
 21
284.087237334321630
  0
LINE
  8
0
  6
CONTINUOUS
 62
5
 10
-17.751792255804048
 20
281.720987284358730
 11
-33.644632484450312
 21
284.523323816758020
  0
ARC
  8
0
  6
CONTINUOUS
 62
5
 10
19.066107890244211
 20
215.228024135271600
 40
80.999999999999972
 50
56.844415434458547
 51
90.000000000000000
  0
LINE
  8
0
  6
CONTINUOUS
 62
5
 10
55.884008036292471
 20
281.720987284358730
 11
71.776848264938508
 21
284.523323816758190
  0
ARC
  8
0
  6
CONTINUOUS
 62
5
 10
19.066107890244211
 20
220.228024135271600
 40
75.999999999999886
 50
90.000000000000000
 51
107.479368184046250
  0
ARC
  8
0
  6
CONTINUOUS
 62
5
 10
-16.015310479134769
 20
291.569064814481010
 40
10.000000000000194
 50
260.000000000000340
 51
279.151496956517240
  0
ARC
  8
0
  6
CONTINUOUS
 62
5
 10
54.147526259623191
 20
291.569064814481070
 40
10.000000000000028
 50
260.848503043481570
 51
279.999999999999600
  0
ARC
  8
0
  6
CONTINUOUS
 62
5
 10
19.066107890244211
 20
220.228024135271600
 40
70.000000000000014
 50
253.641705471505020
 51
286.358294528494980
  0
LINE
  8
0
  6
CONTINUOUS
 62
5
 10
28.566107890244211
 20
150.165552012172780
 11
28.566107890244211
 21
143.728024135271600
  0
LINE
  8
0
  6
CONTINUOUS
 62
5
 10
9.566107890244211
 20
150.165552012172720
 11
9.566107890244211
 21
143.728024135271540
  0
ARC
  8
0
  6
CONTINUOUS
 62
5
 10
19.066107890244211
 20
143.728024135271540
 40
9.500000000000000
 50
180.000000000000000
 51
0.000000000000343
  0
LINE
  8
0
  6
CONTINUOUS
 62
5
 10
-16.728730796705349
 20
152.009313935109390
 11
-27.110742082486922
 21
157.084825620643300
  0
LINE
  8
0
  6
CONTINUOUS
 62
5
 10
-17.751792255804048
 20
158.735060986184290
 11
-33.644632484450085
 21
155.932724453785000
  0
ARC
  8
0
  6
CONTINUOUS
 62
5
 10
19.066107890244211
 20
215.228024135271600
 40
81.000000000000000
 50
270.000000000000000
 51
312.560897366112160
  0
ARC
  8
0
  6
CONTINUOUS
 62
5
 10
19.066107890244211
 20
215.228024135271600
 40
71.500000000000000
 50
277.635304546051660
 51
306.473486651496560
  0
LINE
  8
0
  6
CONTINUOUS
 62
5
 10
55.884008036292471
 20
158.735060986184460
 11
71.776848264938508
 21
155.932724453785170
  0
ARC
  8
0
  6
CONTINUOUS
 62
5
 10
19.066107890244211
 20
225.228024135271600
 40
81.500000000000583
 50
243.947120597530670
 51
263.306133532527500
  0
ARC
  8
0
  6
CONTINUOUS
 62
5
 10
19.066107890244211
 20
225.228024135271140
 40
91.000000000000156
 50
243.947120597530810
 51
270.000000000000000
  0
LINE
  8
0
  6
CONTINUOUS
 62
5
 10
-9.933892109755789
 20
153.780676558411870
 11
-9.933892109755789
 21
156.517742390485690
  0
ARC
  8
0
  6
CONTINUOUS
 62
5
 10
19.066107890244211
 20
220.228024135271600
 40
72.500000000000043
 50
246.421821521798170
 51
253.162687172155640
  0
LINE
  8
0
  6
CONTINUOUS
 62
5
 10
-1.933892109755789
 20
150.836021714243200
 11
-0.648909080470270
 21
153.061677607829470
  0
LINE
  8
0
  6
CONTINUOUS
 62
5
 10
40.066107890244211
 20
150.836021714243260
 11
38.781124860958741
 21
153.061677607829470
  0
ARC
  8
0
  6
CONTINUOUS
 62
5
 10
19.066107890244211
 20
220.228024135271600
 40
72.500000000000014
 50
286.837312827844360
 51
293.578178478201830
  0
LINE
  8
0
  6
CONTINUOUS
 62
5
 10
48.066107890244211
 20
153.780676558411930
 11
48.066107890244211
 21
156.517742390485690
  0
ARC
  8
0
  6
CONTINUOUS
 62
5
 10
54.147526259623191
 20
148.886983456062070
 40
10.000000000000306
 50
80.000000000000455
 51
99.151496956518386
  0
ARC
  8
0
  6
CONTINUOUS
 62
5
 10
30.566107890244211
 20
150.165552012172780
 40
1.999999999999955
 50
158.620003401829250
 51
180.000000000000000
  0
ARC
  8
0
  6
CONTINUOUS
 62
5
 10
19.066107890244211
 20
143.728024135271540
 40
7.000000000000091
 50
110.792209826688580
 51
69.207790173311423
  0
ARC
  8
0
  6
CONTINUOUS
 62
5
 10
7.566107890244211
 20
150.165552012172720
 40
2.000000000000000
 50
0.000000000000000
 51
21.379996598170738
  0
ARC
  8
0
  6
CONTINUOUS
 62
5
 10
-16.015310479134541
 20
148.886983456062010
 40
10.000000000000048
 50
80.848503043482907
 51
100.000000000000950
  0
ARC
  8
0
  6
CONTINUOUS
 62
5
 10
19.066107890244211
 20
-214.985892481209310
 40
153.000000000000000
 50
77.869154498981047
 51
87.002775457334749
  0
ARC
  8
0
  6
CONTINUOUS
 62
5
 10
19.066107890244211
 20
-125.985892481209310
 40
64.000000000000014
 50
97.180755781458288
 51
129.191420961791440
  0
ARC
  8
0
  6
CONTINUOUS
 62
5
 10
19.066107890244211
 20
-499.985892481209250
 40
449.999999999999890
 50
85.535766512263393
 51
89.056984098240633
  0
ARC
  8
0
  6
CONTINUOUS
 62
5
 10
19.066107890244211
 20
-125.985892481209310
 40
76.000000000000000
 50
95.615278907063413
 51
129.992987088029000
  0
ARC
  8
0
  6
CONTINUOUS
 62
5
 10
55.066107890244211
 20
-83.985892481209305
 40
8.000000000000000
 50
270.000000000000000
 51
0.000000000000000
  0
LINE
  8
0
  6
CONTINUOUS
 62
5
 10
81.747267433568823
 20
-80.474814865336441
 11
83.061755103806490
 21
-130.673073756651150
  0
ARC
  8
0
  6
CONTINUOUS
 62
5
 10
48.066107890244211
 20
-80.067398567291036
 40
15.000000000000000
 50
0.000000000000000
 51
77.869154498980976
  0
ARC
  8
0
  6
CONTINUOUS
 62
5
 10
51.757547684301926
 20
-81.260123314572638
 40
30.000000000000178
 50
1.499999999999996
 51
85.535766512263450
  0
LINE
  8
0
  6
CONTINUOUS
 62
5
 10
63.066107890244211
 20
-80.067398567291036
 11
63.066107890244211
 21
-83.985892481209305
  0
ARC
  8
0
  6
CONTINUOUS
 62
5
 10
-3.682769514144184
 20
-98.084484329646216
 40
28.000000000000007
 50
129.191420961791320
 51
151.148085997655730
  0
ARC
  8
0
  6
CONTINUOUS
 62
5
 10
-23.827775321584568
 20
-86.985892481209305
 40
4.999999999999919
 50
151.148085997655330
 51
270.000000000000000
  0
ARC
  8
0
  6
CONTINUOUS
 62
5
 10
-4.070870430920877
 20
-98.405460393115845
 40
40.000000000000050
 50
129.992987088029140
 51
178.500000000000030
  0
LINE
  8
0
  6
CONTINUOUS
 62
5
 10
-134.933892109755560
 20
-321.485892481209310
 11
-81.095920094219764
 21
-321.485892481209310
  0
LINE
  8
0
  6
CONTINUOUS
 62
5
 10
27.066107890244211
 20
-55.985889429451504
 11
27.066107890244211
 21
-81.785889429451515
  0
LINE
  8
0
  6
CONTINUOUS
 62
5
 10
-5.133892103183371
 20
-89.785889429451515
 11
43.266107883671793
 21
-89.785889429451544
  0
LINE
  8
0
  6
CONTINUOUS
 62
5
 10
41.266107883671793
 20
-84.785889429451530
 11
29.766107890244257
 21
-84.785889429451530
  0
LINE
  8
0
  6
CONTINUOUS
 62
5
 10
9.366107890244166
 20
-81.785889429451515
 11
28.766107890244257
 21
-81.785889429451515
  0
ARC
  8
0
  6
CONTINUOUS
 62
5
 10
29.766107890244257
 20
-83.785889429451530
 40
1.000000000000000
 50
180.000000000000000
 51
270.000000000000000
  0
LINE
  8
0
  6
CONTINUOUS
 62
5
 10
28.766107890244257
 20
-81.785889429451530
 11
28.766107890244257
 21
-83.785889429451530
  0
LINE
  8
0
  6
CONTINUOUS
 62
5
 10
43.266107883671793
 20
-89.785889429451515
 11
43.266107883671793
 21
-86.785889429451515
  0
ARC
  8
0
  6
CONTINUOUS
 62
5
 10
41.266107883671793
 20
-86.785889429451515
 40
2.000000000000000
 50
0.000000000000000
 51
90.000000000000000
  0
LINE
  8
0
  6
CONTINUOUS
 62
5
 10
42.066092638027612
 20
-91.985892481209319
 11
42.066092638027612
 21
-89.785889429451515
  0
ARC
  8
0
  6
CONTINUOUS
 62
5
 10
8.366107890244166
 20
-83.785889429451530
 40
1.000000000000000
 50
270.000000000000000
 51
0.000000000000000
  0
LINE
  8
0
  6
CONTINUOUS
 62
5
 10
9.366107890244166
 20
-81.785889429451530
 11
9.366107890244166
 21
-83.785889429451530
  0
LINE
  8
0
  6
CONTINUOUS
 62
5
 10
-5.133892103183371
 20
-89.785889429451530
 11
-5.133892103183371
 21
-86.785889429451530
  0
ARC
  8
0
  6
CONTINUOUS
 62
5
 10
-3.133892103183371
 20
-86.785889429451530
 40
2.000000000000000
 50
90.000000000000000
 51
180.000000000000000
  0
LINE
  8
0
  6
CONTINUOUS
 62
5
 10
11.066107890244211
 20
-55.985889429451504
 11
11.066107890244211
 21
-81.785889429451515
  0
LINE
  8
0
  6
CONTINUOUS
 62
5
 10
-3.933876857538962
 20
-91.985892481209319
 11
-3.933876857538962
 21
-89.785889429451515
  0
LINE
  8
0
  6
CONTINUOUS
 62
5
 10
42.066092624882913
 20
-91.985892481209319
 11
-3.933876857538962
 21
-91.985892481209319
  0
LINE
  8
0
  6
CONTINUOUS
 62
5
 10
99.566107890244893
 20
-344.485892481209590
 11
64.523591994965727
 21
-344.485892481209590
  0
LINE
  8
0
  6
DIVIDE
 62
3
 10
99.566107890244893
 20
-344.485892481209590
 11
62.793930929306498
 21
-344.485892481209590
  0
LINE
  8
0
  6
CONTINUOUS
 62
5
 10
99.566107890244666
 20
-344.485892481209480
 11
62.793930929306271
 21
-344.485892481209480
  0
LINE
  8
0
  6
CONTINUOUS
 62
5
 10
-50.486257304540317
 20
-313.485892481209310
 11
-56.933892109755561
 21
-313.485892481209310
  0
LINE
  8
0
  6
CONTINUOUS
 62
5
 10
88.618473085028654
 20
-313.485892481209310
 11
88.566107890243984
 21
-310.485892481209310
  0
LINE
  8
0
  6
CONTINUOUS
 62
5
 10
96.729177562240011
 20
-334.215380181431500
 11
96.772559127041177
 21
-336.700708364378560
  0
ARC
  8
0
  6
CONTINUOUS
 62
5
 10
81.231538287315743
 20
-334.485892481209530
 40
15.500000000000206
 50
1.000000000000501
 51
45.954234118276425
  0
LINE
  8
0
  6
CONTINUOUS
 62
5
 10
88.618473085028654
 20
-313.485892481209190
 11
90.655824346602913
 21
-321.051021943288160
  0
ARC
  8
0
  6
CONTINUOUS
 62
5
 10
95.483809303145108
 20
-319.750806092207480
 40
4.999999999999920
 50
195.072623727327540
 51
225.954234118277550
  0
LINE
  8
0
  6
CONTINUOUS
 62
5
 10
25.066107890244155
 20
-43.985889429451504
 11
13.066107890244211
 21
-43.985889429451504
  0
LINE
  8
0
  6
CONTINUOUS
 62
5
 10
13.066107890244211
 20
-43.985889429451504
 11
12.066107890244183
 21
-45.985889429451504
  0
LINE
  8
0
  6
CONTINUOUS
 62
5
 10
12.066107890244183
 20
-45.985889429451504
 11
11.066107890244155
 21
-55.985889429451504
  0
LINE
  8
0
  6
CONTINUOUS
 62
5
 10
26.066107890244183
 20
-45.985889429451504
 11
27.066107890244211
 21
-55.985889429451504
  0
LINE
  8
0
  6
CONTINUOUS
 62
5
 10
25.066107890244155
 20
-43.985889429451504
 11
26.066107890244183
 21
-45.985889429451504
  0
ARC
  8
0
  6
CONTINUOUS
 62
5
 10
19.066107890244211
 20
175.228024135271650
 40
15.699999999999980
 50
61.927513064147107
 51
118.072486935852870
  0
ARC
  8
0
  6
CONTINUOUS
 62
5
 10
36.066107890244211
 20
175.228024135271680
 40
7.700000000000032
 50
298.072486935853140
 51
61.927513064147135
  0
LINE
  8
0
  6
CONTINUOUS
 62
5
 10
39.689637302008897
 20
182.022141782330490
 11
26.454343184361832
 21
189.080965311742230
  0
LINE
  8
0
  6
CONTINUOUS
 62
5
 10
39.689637302008954
 20
168.433906488212840
 11
26.454343184361939
 21
161.375082958801040
  0
ARC
  8
0
  6
CONTINUOUS
 62
5
 10
2.066107890244226
 20
175.228024135271680
 40
7.699999999999980
 50
118.072486935852870
 51
241.927513064146840
  0
LINE
  8
0
  6
CONTINUOUS
 62
5
 10
-1.557421521520460
 20
182.022141782330490
 11
11.677872596126601
 21
189.080965311742230
  0
LINE
  8
0
  6
CONTINUOUS
 62
5
 10
-1.557421521520517
 20
168.433906488212840
 11
11.677872596126502
 21
161.375082958801040
  0
ARC
  8
0
  6
CONTINUOUS
 62
5
 10
19.066107890244211
 20
175.228024135271650
 40
15.700000000000047
 50
241.927513064146890
 51
298.072486935853190
  0
CIRCLE
  8
0
  6
CONTINUOUS
 62
5
 10
19.066107890244098
 20
175.228024135271680
 40
9.699999999999999
  0
LINE
  8
0
  6
CONTINUOUS
 62
5
 10
8.366107890244166
 20
-84.785889429451530
 11
-3.133892103183371
 21
-84.785889429451530
  0
ARC
  8
0
  6
CONTINUOUS
 62
5
 10
97.272482974619379
 20
-336.691982161159960
 40
0.500000000000006
 50
180.999999999995230
 51
266.619633168100280
  0
POINT
  8
0
  6
DASHED
 62
1
 10
19.066107890244211
 20
-49.985892481209262
  0
CIRCLE
  8
0
  6
CONTINUOUS
 62
3
 10
-95.933892109755547
 20
220.228024135271570
 40
29.807000000000002
  0
CIRCLE
  8
0
  6
CONTINUOUS
 62
5
 10
-95.933892109755547
 20
220.228024135271570
 40
28.328000000000003
  0
LINE
  8
0
  6
CONTINUOUS
 62
5
 10
-134.933892109755530
 20
-321.485892481209310
 11
-134.933892109755530
 21
-319.985892481209310
  0
ARC
  8
0
  6
CONTINUOUS
 62
5
 10
-132.933892109755530
 20
-301.985892481209310
 40
2.000000000000106
 50
90.000000000000000
 51
180.000000683243000
  0
LINE
  8
0
  6
CONTINUOUS
 62
5
 10
-56.933892109755561
 20
-315.062359888258360
 11
-56.933892109755561
 21
-301.985892481209310
  0
LINE
  8
0
  6
CONTINUOUS
 62
5
 10
-58.933892109755561
 20
-299.985892481209310
 11
-132.933892109755530
 21
-299.985892481209310
  0
ARC
  8
0
  6
CONTINUOUS
 62
5
 10
-58.933892109755561
 20
-301.985892481209310
 40
2.000000000000013
 50
359.999982013914230
 51
90.000000000000000
  0
LINE
  8
0
  6
CONTINUOUS
 62
5
 10
-134.933892109755530
 20
-319.985892481209310
 11
-75.453691078916137
 21
-319.985892481209310
  0
ARC
  8
0
  6
CONTINUOUS
 62
5
 10
-95.933892109755618
 20
265.228024135271540
 40
7.999999999999997
 50
43.542219028156538
 51
136.457780971843480
  0
LINE
  8
0
  6
CONTINUOUS
 62
5
 10
-101.732827729417810
 20
270.739135246382720
 11
-124.203703255609010
 21
247.094690801938300
  0
LINE
  8
0
  6
CONTINUOUS
 62
5
 10
-90.134956490093430
 20
270.739135246382490
 11
-67.664080963902222
 21
247.094690801938870
  0
ARC
  8
0
  6
CONTINUOUS
 62
5
 10
-95.933892109755504
 20
220.228024135271570
 40
38.999999999999787
 50
316.457780971844500
 51
43.542219028155920
  0
LINE
  8
0
  6
CONTINUOUS
 62
5
 10
-90.134956490093316
 20
169.716913024160620
 11
-67.664080963902222
 21
193.361357468604330
  0
ARC
  8
0
  6
CONTINUOUS
 62
5
 10
-95.933892109755504
 20
220.228024135271570
 40
39.000000000000057
 50
136.457780971844100
 51
223.542219028155470
  0
ARC
  8
0
  6
CONTINUOUS
 62
5
 10
-95.933892109755504
 20
175.228024135271570
 40
7.999999999999841
 50
223.542219028155360
 51
316.457780971844610
  0
LINE
  8
0
  6
CONTINUOUS
 62
5
 10
-101.732827729417690
 20
169.716913024160620
 11
-124.203703255609010
 21
193.361357468605230
  0
CIRCLE
  8
0
  6
CONTINUOUS
 62
5
 10
19.066107890244098
 20
175.228024135271680
 40
5.550000000000001
  0
LINE
  8
0
  6
CONTINUOUS
 62
5
 10
13.516107890244211
 20
-25.848353788794469
 11
13.516107890244211
 21
-43.985889429451504
  0
ARC
  8
0
  6
CONTINUOUS
 62
3
 10
16.291107890244213
 20
-21.041912797790836
 40
5.550000000000000
 50
239.999999999999970
 51
300.000000000000000
  0
ARC
  8
0
  6
CONTINUOUS
 62
3
 10
16.291107890244213
 20
-30.654794779798102
 40
5.549999999999998
 50
60.000000000000007
 51
120.000000000000040
  0
ARC
  8
0
  6
CONTINUOUS
 62
3
 10
21.841107890244210
 20
-30.654794779798102
 40
5.550000000000000
 50
59.999999999999972
 51
119.999999999999990
  0
LINE
  8
0
  6
CONTINUOUS
 62
5
 10
24.616107890244212
 20
-25.848353788794469
 11
24.616107890244212
 21
-43.985889429451504
  0
DIMENSION
  8
1
  2
*D1
 10
-66.126892089843750
 20
-249.985885620117190
 11
-95.933891842779090
 21
-236.485885620117220
 70
0
 13
-125.740890502929690
 23
-299.985900878906250
 14
-66.126892089843750
 24
-299.985900878906250
 50
180.000000000000000
  0
DIMENSION
  8
1
  2
*D2
 10
-185.433898925781250
 20
-423.485900878906250
 11
-198.933898925781190
 21
-372.485901971691020
 70
128
 13
-134.933898925781250
 23
-321.485900878906250
 14
-134.933898925781250
 24
-423.485900878906250
 50
90.000000000000000
  0
DIMENSION
  8
1
  2
*D3
 10
19.066108703613281
 20
54.228023529052734
 11
-38.433891842779090
 21
67.728023529052720
 70
128
 13
-95.933891296386719
 23
163.228027343750000
 14
19.066108703613281
 24
129.050811767578130
 50
180.000000000000000
  0
DIMENSION
  8
1
  2
*D4
 10
100.066108703613280
 20
54.228023529052734
 11
59.566108157220910
 21
67.728023529052720
 70
128
 13
19.066108703613281
 23
129.050811767578130
 14
100.066108703613280
 24
215.228027343750000
 50
180.000000000000000
  0
DIMENSION
  8
1
  2
*D5
 10
100.066108703613280
 20
4.228024005889893
 11
-17.683891842779083
 21
17.728024005889882
 70
128
 13
-135.433898925781250
 23
220.228027343750000
 14
100.066108703613280
 24
215.228027343750000
 50
180.000000000000000
  0
DIMENSION
  8
1
  2
*D6
 10
-185.433898925781250
 20
265.228027343750000
 11
-198.933898925781190
 21
220.228026250965230
 70
128
 13
-107.433891296386720
 23
175.228027343750000
 14
-107.433891296386720
 24
265.228027343750000
 50
270.000000000000000
  0
DIMENSION
  8
1
  2
*D7
 10
180.066101074218750
 20
220.228027343750000
 11
166.566101074218810
 21
177.228026250965230
 70
128
 13
19.066108703613281
 23
134.228027343750000
 14
108.559806823730470
 24
220.228027343750000
 50
270.000000000000000
  0
DIMENSION
  8
1
  2
*D8
 10
180.066101074218750
 20
296.228027343750000
 11
166.566101074218810
 21
258.228026250965230
 70
128
 13
108.559806823730470
 23
220.228027343750000
 14
19.066108703613281
 24
296.228027343750000
 50
270.000000000000000
  0
DIMENSION
  8
1
  2
*D9
 10
230.066101074218750
 20
296.228027343750000
 11
216.566101074218810
 21
215.228026250965230
 70
128
 13
19.066108703613281
 23
134.228027343750000
 14
19.066108703613281
 24
296.228027343750000
 50
270.000000000000000
  0
TEXT
  8
1
  6
CONTINUOUS
 62
5
 10
-128.558883666992190
 20
-218.985885620117190
 40
25.000000000000000
  1
ŒÄ‚ÑŒa
 50
0.000002504478167
 41
0.725000000000000
  7
STANDARD1
  0
TEXT
  8
1
  6
CONTINUOUS
 62
5
 10
8.151761054992676
 20
377.923645019531250
 40
25.000000000000000
  1
50PU2.75 -53/63
 50
0.000002504478167
 41
0.715068503806036
  7
STANDARD1
  0
TEXT
  8
1
  6
CONTINUOUS
 62
5
 10
147.351760864257810
 20
412.923645019531250
 40
25.000000000000000
  1
G031211
 50
0.000002504478167
 41
0.696000010371208
  7
STANDARD1
  0
DIMENSION
  8
1
  2
*D10
 10
180.066101074218750
 20
-49.985893249511719
 11
166.566101074218810
 21
-236.735886712901960
 70
128
 13
59.825069427490234
 23
-423.485900878906250
 14
19.066108703613281
 24
-49.985893249511719
 50
270.000000000000000
  0
ENDSEC
  0
EOF
