  0
SECTION
  2
HEADER
  9
$TEXTSIZE
 40
2.5
  9
$ACADVER
  1
AC1009
  9
$DIMASZ
 40
3.863703297614046
  9
$DIMEXE
 40
2.000000000000000
  9
$DIMEXO
 40
1.000000000000000
  9
$DIMLFAC
 40
1.000000000000000
  9
$DIMSCALE
 40
1.000000000000000
  9
$DIMTAD
 70
1
  9
$DIMTFAC
 40
0.714285731315613
  9
$DIMTXT
 40
25.000000000000000
  9
$LUPREC
 70
3
  9
$REGENMODE
 70
1
  9
$TEXTSTYLE
  7
STANDARD1
  0
ENDSEC
  0
SECTION
  2
TABLES
  0
TABLE
  2
LTYPE
 70
4
  0
LTYPE
  2
CONTINUOUS
 70
64
  3
Solid line
 72
65
 73
0
 40
0.0
  0
LTYPE
  2
DASHED
 70
64
  3
-- -- -- -- -- -- -- -- -- -- -- -- -- -- --
 72
65
 73
2
 40
0.75
 49
0.5
 49
-0.25
  0
LTYPE
  2
DASHDOT
 70
64
  3
__ . __ . __ . __ . __ . __ . __ . __ . __ . __
 72
65
 73
4
 40
1.0
 49
0.5
 49
-0.25
 49
0.0
 49
-0.25
  0
LTYPE
  2
DIVIDE
 70
64
  3
__ . . __ . . __ . . __ . . __ . . __ . . __
 72
65
 73
6
 40
1.25
 49
0.5
 49
-0.25
 49
0.0
 49
-0.25
 49
0.0
 49
-0.25
  0
ENDTAB
  0
TABLE
  2
LAYER
 70
2
  0
LAYER
  2
0
 70
64
 62
3
  6
CONTINUOUS
  0
LAYER
  2
1
 70
64
 62
3
  6
CONTINUOUS
  0
ENDTAB
  0
TABLE
  2
STYLE
 70
4
  0
STYLE
  2
STANDARD1
 70
64
 40
0.0
 41
1.0
 50
0.0
 71
0
 42
25.000000000000000
  3
MONOTXT
  4
BIGFONT
  0
STYLE
  2
STANDARD2
 70
68
 40
0.0
 41
1.0
 50
0.0
 71
0
 42
25.000000000000000
  3
MONOTXT
  4
BIGFONT
  0
STYLE
  2
STANDARD3
 70
64
 40
0.0
 41
1.0
 50
0.0
 71
0
 42
25.000000000000000
  3
MONOTXT
  4

  0
STYLE
  2
STANDARD4
 70
68
 40
0.0
 41
1.0
 50
0.0
 71
0
 42
25.000000000000000
  3
MONOTXT
  4

  0
ENDTAB
  0
TABLE
  2
VIEW
 70
0
  0
ENDTAB
  0
ENDSEC
  0
SECTION
  2
BLOCKS
  0
BLOCK
  8
1
  2
*D1
 70
65
 10
0.000000000000000
 20
0.000000000000000
  0
TEXT
  8
1
  6
CONTINUOUS
 62
5
 10
-136.243774414062560
 20
-581.355101446277790
 40
25.000000000000000
  1
134
 50
90.000005008956336
 41
0.870000000000000
  7
STANDARD1
  0
LINE
  8
1
  6
CONTINUOUS
 62
3
 10
-47.743770599365234
 20
-615.730102539062500
 11
-137.243774414062500
 21
-615.730102539062500
  0
LINE
  8
1
  6
CONTINUOUS
 62
3
 10
-85.261070251464844
 20
-481.730102539062500
 11
-137.243774414062500
 21
-481.730102539062500
  0
LINE
  8
1
  6
CONTINUOUS
 62
3
 10
-135.243774414062500
 20
-615.730102539062500
 11
-135.243774414062500
 21
-481.730102539062500
  0
LINE
  8
1
  6
CONTINUOUS
 62
3
 10
-135.243774414062500
 20
-615.730102539062500
 11
-136.279050622620560
 21
-611.866399241448450
  0
LINE
  8
1
  6
CONTINUOUS
 62
3
 10
-135.243774414062500
 20
-615.730102539062500
 11
-134.208498205504440
 21
-611.866399241448450
  0
LINE
  8
1
  6
CONTINUOUS
 62
3
 10
-135.243774414062500
 20
-481.730102539062500
 11
-134.208498205504440
 21
-485.593805836676550
  0
LINE
  8
1
  6
CONTINUOUS
 62
3
 10
-135.243774414062500
 20
-481.730102539062500
 11
-136.279050622620560
 21
-485.593805836676550
  0
POINT
  8
DEFPOINTS
  6
BYBLOCK
 10
-84.261070251464844
 20
-481.730102539062500
  0
POINT
  8
DEFPOINTS
  6
BYBLOCK
 10
-46.743770599365234
 20
-615.730102539062500
  0
POINT
  8
DEFPOINTS
  6
BYBLOCK
 10
-135.243774414062500
 20
-615.730102539062500
  0
ENDBLK
  8
1
  0
BLOCK
  8
1
  2
*D2
 70
65
 10
0.000000000000000
 20
0.000000000000000
  0
TEXT
  8
1
  6
CONTINUOUS
 62
5
 10
304.774841308593690
 20
-357.105101446277730
 40
25.000000000000000
  1
583
 50
90.000005008956336
 41
0.870000000000000
  7
STANDARD1
  0
LINE
  8
1
  6
CONTINUOUS
 62
3
 10
122.256233215332030
 20
-33.230113983154297
 11
307.774841308593750
 21
-33.230113983154297
  0
LINE
  8
1
  6
CONTINUOUS
 62
3
 10
202.309265136718750
 20
-615.730102539062500
 11
307.774841308593750
 21
-615.730102539062500
  0
LINE
  8
1
  6
CONTINUOUS
 62
3
 10
305.774841308593750
 20
-33.230113983154297
 11
305.774841308593750
 21
-615.730102539062500
  0
LINE
  8
1
  6
CONTINUOUS
 62
3
 10
305.774841308593750
 20
-33.230113983154297
 11
306.810117517151810
 21
-37.093817280768342
  0
LINE
  8
1
  6
CONTINUOUS
 62
3
 10
305.774841308593750
 20
-33.230113983154297
 11
304.739565100035690
 21
-37.093817280768342
  0
LINE
  8
1
  6
CONTINUOUS
 62
3
 10
305.774841308593750
 20
-615.730102539062500
 11
304.739565100035690
 21
-611.866399241448450
  0
LINE
  8
1
  6
CONTINUOUS
 62
3
 10
305.774841308593750
 20
-615.730102539062500
 11
306.810117517151810
 21
-611.866399241448450
  0
POINT
  8
DEFPOINTS
  6
BYBLOCK
 10
201.309265136718750
 20
-615.730102539062500
  0
POINT
  8
DEFPOINTS
  6
BYBLOCK
 10
121.256233215332030
 20
-33.230113983154297
  0
POINT
  8
DEFPOINTS
  6
BYBLOCK
 10
305.774841308593750
 20
-33.230113983154297
  0
ENDBLK
  8
1
  0
BLOCK
  8
1
  2
*D3
 70
65
 10
0.000000000000000
 20
0.000000000000000
  0
TEXT
  8
1
  6
CONTINUOUS
 62
5
 10
37.640533993658003
 20
72.560241699218764
 40
25.000000000000000
  1
311
 50
0.000002504478167
 41
0.870000000000000
  7
STANDARD1
  0
LINE
  8
1
  6
CONTINUOUS
 62
3
 10
225.774841308593750
 20
306.792755126953120
 11
225.774841308593750
 21
69.560241699218750
  0
LINE
  8
1
  6
CONTINUOUS
 62
3
 10
-85.243766784667969
 20
308.578857421875000
 11
-85.243766784667969
 21
69.560241699218750
  0
LINE
  8
1
  6
CONTINUOUS
 62
3
 10
225.774841308593750
 20
71.560241699218750
 11
-85.243766784667969
 21
71.560241699218750
  0
LINE
  8
1
  6
CONTINUOUS
 62
3
 10
225.774841308593750
 20
71.560241699218750
 11
221.911138010979700
 21
70.524965490660691
  0
LINE
  8
1
  6
CONTINUOUS
 62
3
 10
225.774841308593750
 20
71.560241699218750
 11
221.911138010979700
 21
72.595517907776809
  0
LINE
  8
1
  6
CONTINUOUS
 62
3
 10
-85.243766784667969
 20
71.560241699218750
 11
-81.380063487053917
 21
72.595517907776809
  0
LINE
  8
1
  6
CONTINUOUS
 62
3
 10
-85.243766784667969
 20
71.560241699218750
 11
-81.380063487053917
 21
70.524965490660691
  0
POINT
  8
DEFPOINTS
  6
BYBLOCK
 10
-85.243766784667969
 20
309.578857421875000
  0
POINT
  8
DEFPOINTS
  6
BYBLOCK
 10
225.774841308593750
 20
307.792755126953120
  0
POINT
  8
DEFPOINTS
  6
BYBLOCK
 10
225.774841308593750
 20
71.560241699218750
  0
ENDBLK
  8
1
  0
BLOCK
  8
1
  2
*D4
 70
65
 10
0.000000000000000
 20
0.000000000000000
  0
TEXT
  8
1
  6
CONTINUOUS
 62
5
 10
140.890533993658010
 20
122.560241699218760
 40
25.000000000000000
  1
105
 50
0.000002504478167
 41
0.870000000000000
  7
STANDARD1
  0
LINE
  8
1
  6
CONTINUOUS
 62
3
 10
225.774841308593750
 20
306.792755126953120
 11
225.774841308593750
 21
119.560241699218750
  0
LINE
  8
1
  6
CONTINUOUS
 62
3
 10
121.256233215332030
 20
195.082931518554690
 11
121.256233215332030
 21
119.560241699218750
  0
LINE
  8
1
  6
CONTINUOUS
 62
3
 10
225.774841308593750
 20
121.560241699218750
 11
121.256233215332030
 21
121.560241699218750
  0
LINE
  8
1
  6
CONTINUOUS
 62
3
 10
225.774841308593750
 20
121.560241699218750
 11
221.911138010979700
 21
120.524965490660690
  0
LINE
  8
1
  6
CONTINUOUS
 62
3
 10
225.774841308593750
 20
121.560241699218750
 11
221.911138010979700
 21
122.595517907776810
  0
LINE
  8
1
  6
CONTINUOUS
 62
3
 10
121.256233215332030
 20
121.560241699218750
 11
125.119936512946080
 21
122.595517907776810
  0
LINE
  8
1
  6
CONTINUOUS
 62
3
 10
121.256233215332030
 20
121.560241699218750
 11
125.119936512946080
 21
120.524965490660690
  0
POINT
  8
DEFPOINTS
  6
BYBLOCK
 10
121.256233215332030
 20
196.082931518554690
  0
POINT
  8
DEFPOINTS
  6
BYBLOCK
 10
225.774841308593750
 20
307.792755126953120
  0
POINT
  8
DEFPOINTS
  6
BYBLOCK
 10
225.774841308593750
 20
121.560241699218750
  0
ENDBLK
  8
1
  0
BLOCK
  8
1
  2
*D5
 70
65
 10
0.000000000000000
 20
0.000000000000000
  0
TEXT
  8
1
  6
CONTINUOUS
 62
5
 10
11.131228993352824
 20
122.560241699218760
 40
25.000000000000000
  1
155
 50
0.000002504478167
 41
0.870000000000000
  7
STANDARD1
  0
LINE
  8
1
  6
CONTINUOUS
 62
3
 10
121.256233215332030
 20
195.082931518554690
 11
121.256233215332030
 21
119.560241699218750
  0
LINE
  8
1
  6
CONTINUOUS
 62
3
 10
-33.743770599365234
 20
236.849380493164060
 11
-33.743770599365234
 21
119.560241699218750
  0
LINE
  8
1
  6
CONTINUOUS
 62
3
 10
121.256233215332030
 20
121.560241699218750
 11
-33.743770599365234
 21
121.560241699218750
  0
LINE
  8
1
  6
CONTINUOUS
 62
3
 10
121.256233215332030
 20
121.560241699218750
 11
117.392529917717980
 21
120.524965490660690
  0
LINE
  8
1
  6
CONTINUOUS
 62
3
 10
121.256233215332030
 20
121.560241699218750
 11
117.392529917717980
 21
122.595517907776810
  0
LINE
  8
1
  6
CONTINUOUS
 62
3
 10
-33.743770599365234
 20
121.560241699218750
 11
-29.880067301751190
 21
122.595517907776810
  0
LINE
  8
1
  6
CONTINUOUS
 62
3
 10
-33.743770599365234
 20
121.560241699218750
 11
-29.880067301751190
 21
120.524965490660690
  0
POINT
  8
DEFPOINTS
  6
BYBLOCK
 10
-33.743770599365234
 20
237.849380493164060
  0
POINT
  8
DEFPOINTS
  6
BYBLOCK
 10
121.256233215332030
 20
196.082931518554690
  0
POINT
  8
DEFPOINTS
  6
BYBLOCK
 10
121.256233215332030
 20
121.560241699218750
  0
ENDBLK
  8
1
  0
BLOCK
  8
1
  2
*D6
 70
65
 10
0.000000000000000
 20
0.000000000000000
  0
TEXT
  8
1
  6
CONTINUOUS
 62
5
 10
354.774841308593690
 20
275.167390008800400
 40
25.000000000000000
  1
212
 50
90.000005008956336
 41
0.870000000000000
  7
STANDARD1
  0
LINE
  8
1
  6
CONTINUOUS
 62
3
 10
120.543067932128910
 20
414.024536132812500
 11
357.774841308593750
 21
414.024536132812500
  0
LINE
  8
1
  6
CONTINUOUS
 62
3
 10
120.470153808593750
 20
201.560241699218750
 11
357.774841308593750
 21
201.560241699218750
  0
LINE
  8
1
  6
CONTINUOUS
 62
3
 10
355.774841308593750
 20
414.024536132812500
 11
355.774841308593750
 21
201.560241699218750
  0
LINE
  8
1
  6
CONTINUOUS
 62
3
 10
355.774841308593750
 20
414.024536132812500
 11
356.810117517151810
 21
410.160832835198450
  0
LINE
  8
1
  6
CONTINUOUS
 62
3
 10
355.774841308593750
 20
414.024536132812500
 11
354.739565100035690
 21
410.160832835198450
  0
LINE
  8
1
  6
CONTINUOUS
 62
3
 10
355.774841308593750
 20
201.560241699218750
 11
354.739565100035690
 21
205.423944996832800
  0
LINE
  8
1
  6
CONTINUOUS
 62
3
 10
355.774841308593750
 20
201.560241699218750
 11
356.810117517151810
 21
205.423944996832800
  0
POINT
  8
DEFPOINTS
  6
BYBLOCK
 10
119.470153808593750
 20
201.560241699218750
  0
POINT
  8
DEFPOINTS
  6
BYBLOCK
 10
119.543067932128910
 20
414.024536132812500
  0
POINT
  8
DEFPOINTS
  6
BYBLOCK
 10
355.774841308593750
 20
414.024536132812500
  0
ENDBLK
  8
1
  0
BLOCK
  8
1
  2
*D7
 70
65
 10
0.000000000000000
 20
0.000000000000000
  0
TEXT
  8
1
  6
CONTINUOUS
 62
5
 10
304.774841308593690
 20
329.176697870128520
 40
25.000000000000000
  1
104
 50
90.000005008956336
 41
0.870000000000000
  7
STANDARD1
  0
LINE
  8
1
  6
CONTINUOUS
 62
3
 10
120.543067932128910
 20
414.024536132812500
 11
307.774841308593750
 21
414.024536132812500
  0
LINE
  8
1
  6
CONTINUOUS
 62
3
 10
230.889770507812500
 20
309.578857421875000
 11
307.774841308593750
 21
309.578857421875000
  0
LINE
  8
1
  6
CONTINUOUS
 62
3
 10
305.774841308593750
 20
414.024536132812500
 11
305.774841308593750
 21
309.578857421875000
  0
LINE
  8
1
  6
CONTINUOUS
 62
3
 10
305.774841308593750
 20
414.024536132812500
 11
306.810117517151810
 21
410.160832835198450
  0
LINE
  8
1
  6
CONTINUOUS
 62
3
 10
305.774841308593750
 20
414.024536132812500
 11
304.739565100035690
 21
410.160832835198450
  0
LINE
  8
1
  6
CONTINUOUS
 62
3
 10
305.774841308593750
 20
309.578857421875000
 11
304.739565100035690
 21
313.442560719489050
  0
LINE
  8
1
  6
CONTINUOUS
 62
3
 10
305.774841308593750
 20
309.578857421875000
 11
306.810117517151810
 21
313.442560719489050
  0
POINT
  8
DEFPOINTS
  6
BYBLOCK
 10
229.889770507812500
 20
309.578857421875000
  0
POINT
  8
DEFPOINTS
  6
BYBLOCK
 10
119.543067932128910
 20
414.024536132812500
  0
POINT
  8
DEFPOINTS
  6
BYBLOCK
 10
305.774841308593750
 20
414.024536132812500
  0
ENDBLK
  8
1
  0
BLOCK
  8
1
  2
*D8
 70
65
 10
0.000000000000000
 20
0.000000000000000
  0
TEXT
  8
1
  6
CONTINUOUS
 62
5
 10
304.774841308593690
 20
222.944535394542560
 40
25.000000000000000
  1
108
 50
90.000005008956336
 41
0.870000000000000
  7
STANDARD1
  0
LINE
  8
1
  6
CONTINUOUS
 62
3
 10
230.889770507812500
 20
309.578857421875000
 11
307.774841308593750
 21
309.578857421875000
  0
LINE
  8
1
  6
CONTINUOUS
 62
3
 10
120.470153808593750
 20
201.560241699218750
 11
307.774841308593750
 21
201.560241699218750
  0
LINE
  8
1
  6
CONTINUOUS
 62
3
 10
305.774841308593750
 20
309.578857421875000
 11
305.774841308593750
 21
201.560241699218750
  0
LINE
  8
1
  6
CONTINUOUS
 62
3
 10
305.774841308593750
 20
309.578857421875000
 11
306.810117517151810
 21
305.715154124260950
  0
LINE
  8
1
  6
CONTINUOUS
 62
3
 10
305.774841308593750
 20
309.578857421875000
 11
304.739565100035690
 21
305.715154124260950
  0
LINE
  8
1
  6
CONTINUOUS
 62
3
 10
305.774841308593750
 20
201.560241699218750
 11
304.739565100035690
 21
205.423944996832800
  0
LINE
  8
1
  6
CONTINUOUS
 62
3
 10
305.774841308593750
 20
201.560241699218750
 11
306.810117517151810
 21
205.423944996832800
  0
POINT
  8
DEFPOINTS
  6
BYBLOCK
 10
119.470153808593750
 20
201.560241699218750
  0
POINT
  8
DEFPOINTS
  6
BYBLOCK
 10
229.889770507812500
 20
309.578857421875000
  0
POINT
  8
DEFPOINTS
  6
BYBLOCK
 10
305.774841308593750
 20
309.578857421875000
  0
ENDBLK
  8
1
  0
ENDSEC
  0
SECTION
  2
ENTITIES
  0
LINE
  8
0
  6
CONTINUOUS
 62
5
 10
220.983754845567920
 20
-519.230112613494160
 11
221.515614458282810
 21
-519.230112613494160
  0
LINE
  8
0
  6
CONTINUOUS
 62
5
 10
203.856230253307020
 20
-412.530112613486270
 11
204.856230253306880
 21
-412.530112613486270
  0
LINE
  8
0
  6
CONTINUOUS
 62
5
 10
37.156230253307058
 20
-197.230112613486370
 11
35.656230253307058
 21
-197.230112613486370
  0
ARC
  8
0
  6
CONTINUOUS
 62
5
 10
-75.946348086490616
 20
-512.376155461357940
 40
0.499999999999916
 50
3.000000000006106
 51
30.000000000010317
  0
ARC
  8
0
  6
CONTINUOUS
 62
5
 10
-82.670194059698815
 20
-509.730112613494160
 40
5.000000000000016
 50
29.999999999999890
 51
90.000000000000000
  0
LINE
  8
0
  6
CONTINUOUS
 62
5
 10
-75.513335384598577
 20
-512.126155461357940
 11
-78.340067040776603
 21
-507.230112613494160
  0
ARC
  8
0
  6
CONTINUOUS
 62
5
 10
-74.294720010981337
 20
-515.230112613494160
 40
1.000000000000059
 50
183.000000000005400
 51
270.000000000000000
  0
LINE
  8
0
  6
CONTINUOUS
 62
5
 10
21.668954928665926
 20
-459.730112613494160
 11
20.543980863892241
 21
-472.669470663228030
  0
LINE
  8
0
  6
CONTINUOUS
 62
5
 10
21.756230253306967
 20
-454.730112613494160
 11
21.668954928665926
 21
-459.730112613491090
  0
LINE
  8
0
  6
CONTINUOUS
 62
5
 10
224.325948822020110
 20
-488.600931073347740
 11
221.826050513019940
 21
-458.730112613494160
  0
LINE
  8
0
  6
CONTINUOUS
 62
5
 10
224.359263224088410
 20
-489.260394636059120
 11
224.615350630600230
 21
-503.931632329245420
  0
ARC
  8
0
  6
CONTINUOUS
 62
5
 10
214.360786272524360
 20
-489.434918700432040
 40
10.000000000000133
 50
1.000000000000459
 51
4.783953769529554
  0
LINE
  8
0
  6
CONTINUOUS
 62
5
 10
221.756230253306970
 20
-454.730112613494160
 11
221.826050513019940
 21
-458.730112613490630
  0
ARC
  8
0
  6
CONTINUOUS
 62
5
 10
224.560240541079340
 20
-504.930112613493980
 40
0.999999999999782
 50
0.999999999988963
 51
86.840823949799159
  0
ARC
  8
0
  6
CONTINUOUS
 62
5
 10
224.740027709839750
 20
-515.230112613494160
 40
1.000000000000000
 50
270.000000000000000
 51
1.000000000001762
  0
ARC
  8
0
  6
CONTINUOUS
 62
5
 10
-84.627628847069900
 20
-503.730112613494160
 40
1.000000000000014
 50
178.999999999998270
 51
270.000000000000000
  0
ARC
  8
0
  6
CONTINUOUS
 62
5
 10
-84.261072483577891
 20
-482.730112613494160
 40
1.000000000000000
 50
90.000000000000000
 51
178.999999999998040
  0
LINE
  8
0
  6
CONTINUOUS
 62
5
 10
-84.261072483577891
 20
-481.730112613494160
 11
11.486122190957985
 21
-481.730112613497340
  0
LINE
  8
0
  6
CONTINUOUS
 62
5
 10
-85.627476542226304
 20
-503.712660207056840
 11
-85.260920178734068
 21
-482.712660207056840
  0
LINE
  8
0
  6
CONTINUOUS
 62
5
 10
225.560088236235520
 20
-504.912660207056890
 11
225.739875404996160
 21
-515.212660207056840
  0
LINE
  8
0
  6
CONTINUOUS
 62
5
 10
224.740027709839750
 20
-516.230112613494160
 11
-74.294720010981337
 21
-516.230112613494160
  0
LINE
  8
0
  6
CONTINUOUS
 62
5
 10
-84.627628847069900
 20
-504.730112613494160
 11
-82.670194059698588
 21
-504.730112613494160
  0
LINE
  8
0
  6
CONTINUOUS
 62
5
 10
20.543980863892241
 20
-472.669470663228030
 11
11.486122190957872
 21
-481.730112613497340
  0
LINE
  8
0
  6
CONTINUOUS
 62
5
 10
-75.447033319113416
 20
-512.349987483236420
 11
-75.293349545735964
 21
-515.282448569737200
  0
LINE
  8
0
  6
CONTINUOUS
 62
5
 10
-48.243769746693033
 20
-569.730112613494160
 11
-46.418320395975115
 21
-595.730112613494160
  0
ARC
  8
0
  6
CONTINUOUS
 62
5
 10
15.256991893526560
 20
-574.730112613494270
 40
5.000000000000000
 50
90.000000000000000
 51
178.999999999999550
  0
ARC
  8
0
  6
CONTINUOUS
 62
5
 10
-15.789176418339821
 20
-579.730112613494040
 40
5.000000000000000
 50
90.000000000000000
 51
179.000000000000850
  0
LINE
  8
0
  6
CONTINUOUS
 62
5
 10
-15.789176418339821
 20
-574.730112613494040
 11
10.256230253306967
 21
-574.730112613494040
  0
LINE
  8
0
  6
CONTINUOUS
 62
5
 10
-46.659200365410697
 20
-605.730112613494160
 11
-21.243769746693033
 21
-605.730112613494160
  0
ARC
  8
0
  6
CONTINUOUS
 62
5
 10
-70.984546947900071
 20
-518.730112613494160
 40
0.500000000000234
 50
181.000000000001310
 51
270.000000000000000
  0
LINE
  8
0
  6
CONTINUOUS
 62
5
 10
-71.528260774242653
 20
-516.230112613494160
 11
-71.484470795478501
 21
-518.738838816712810
  0
LINE
  8
0
  6
CONTINUOUS
 62
5
 10
220.983754845567920
 20
-519.230112613494160
 11
220.399827813655410
 21
-535.951594998081650
  0
LINE
  8
0
  6
CONTINUOUS
 62
5
 10
-70.970769746692895
 20
-519.230112613494160
 11
-70.788132034675300
 21
-524.362690238407250
  0
LINE
  8
0
  6
CONTINUOUS
 62
5
 10
-48.243769746693033
 20
-569.730112613494160
 11
-48.243769746693033
 21
-555.835129097564280
  0
ARC
  8
0
  6
CONTINUOUS
 62
5
 10
-35.810269898724300
 20
-523.118037516395930
 40
35.000000000000071
 50
182.037953920397060
 51
249.191671002326980
  0
LINE
  8
0
  6
CONTINUOUS
 62
5
 10
-46.418320395975343
 20
-595.730112613499610
 11
-46.243769746693033
 21
-605.730112613494160
  0
LINE
  8
0
  6
CONTINUOUS
 62
5
 10
-21.243769746693033
 20
-605.730112613494160
 11
-20.788414894121615
 21
-579.642850581307580
  0
LINE
  8
0
  6
CONTINUOUS
 62
5
 10
37.616470226969312
 20
-569.730112613494380
 11
15.256991893526564
 21
-569.730112613494380
  0
LINE
  8
0
  6
CONTINUOUS
 62
5
 10
37.616470226969312
 20
-569.730112613494380
 11
38.244852564385155
 21
-605.730112613494160
  0
LINE
  8
0
  6
CONTINUOUS
 62
5
 10
81.296879099343158
 20
-569.730112613494160
 11
80.668496761927486
 21
-605.730112613494160
  0
LINE
  8
0
  6
CONTINUOUS
 62
5
 10
38.244852564385042
 20
-605.730112613494160
 11
80.668496761927486
 21
-605.730112613494160
  0
LINE
  8
0
  6
CONTINUOUS
 62
5
 10
222.059328284625280
 20
-516.230112613494160
 11
222.015538305861010
 21
-518.738838816715430
  0
ARC
  8
0
  6
CONTINUOUS
 62
5
 10
221.515614458282810
 20
-518.730112613494160
 40
0.500000000000000
 50
270.000000000000000
 51
358.999999999998240
  0
LINE
  8
0
  6
CONTINUOUS
 62
5
 10
159.276192927183560
 20
-605.730112613494160
 11
201.309261171816050
 21
-605.730112613494160
  0
LINE
  8
0
  6
CONTINUOUS
 62
5
 10
158.647810589767720
 20
-569.730112613494160
 11
159.276192927183560
 21
-605.730112613494160
  0
ARC
  8
0
  6
CONTINUOUS
 62
5
 10
185.421148867986970
 20
-534.730112613494160
 40
35.000000000000007
 50
298.293294055193880
 51
358.000000000000060
  0
LINE
  8
0
  6
CONTINUOUS
 62
5
 10
158.647810589767720
 20
-569.730112613494160
 11
81.296879099343158
 21
-569.730112613494160
  0
LINE
  8
0
  6
CONTINUOUS
 62
5
 10
202.010629258406200
 20
-565.548761843723240
 11
201.309261171816050
 21
-605.730112613494160
  0
LINE
  8
0
  6
CONTINUOUS
 62
5
 10
-70.984546947900071
 20
-519.230112613494160
 11
-70.970769746692895
 21
-519.230112613494160
  0
LINE
  8
0
  6
CONTINUOUS
 62
5
 10
10.256230253306967
 20
-574.730112613494040
 11
10.257753417744544
 21
-574.642850581307810
  0
LINE
  8
0
  6
CONTINUOUS
 62
5
 10
206.807265686592130
 20
-414.430112613484650
 11
132.909923838611290
 21
-414.430112613484650
  0
LINE
  8
0
  6
CONTINUOUS
 62
5
 10
110.556475869417110
 20
-413.730112613492570
 11
131.955984637196820
 21
-413.730112613492570
  0
ARC
  8
0
  6
CONTINUOUS
 62
5
 10
131.955984637196820
 20
-414.730112613492570
 40
1.000000000000013
 50
17.457603124197107
 51
90.000000000000000
  0
LINE
  8
0
  6
CONTINUOUS
 62
5
 10
109.602536668002660
 20
-414.430112613484650
 11
35.705194820021802
 21
-414.430112613484650
  0
ARC
  8
0
  6
CONTINUOUS
 62
5
 10
110.556475869417110
 20
-414.730112613492570
 40
1.000000000000000
 50
90.000000000000000
 51
162.542396875802640
  0
LINE
  8
0
  6
CONTINUOUS
 62
5
 10
33.296726715405157
 20
-442.279099116418020
 11
34.706565285267402
 21
-415.377776657241210
  0
ARC
  8
0
  6
CONTINUOUS
 62
5
 10
32.298097180651894
 20
-442.226763160175150
 40
0.999999999999871
 50
308.389041638655440
 51
356.999999999997160
  0
LINE
  8
0
  6
CONTINUOUS
 62
5
 10
21.756230253306967
 20
-454.730112613484100
 11
221.756230253307880
 21
-454.730112613504330
  0
LINE
  8
0
  6
CONTINUOUS
 62
5
 10
32.919095060762288
 20
-443.010575403571580
 11
22.267448629992145
 21
-451.449649823397690
  0
ARC
  8
0
  6
CONTINUOUS
 62
5
 10
22.888446510102654
 20
-452.233462066794230
 40
1.000000000000030
 50
128.389041638656470
 51
177.000000000000740
  0
LINE
  8
0
  6
CONTINUOUS
 62
5
 10
21.889816975348140
 20
-452.181126110551300
 11
21.756230253306967
 21
-454.730112613485690
  0
ARC
  8
0
  6
CONTINUOUS
 62
5
 10
206.807265686592130
 20
-415.430112613484200
 40
0.999999999999808
 50
2.999999999980087
 51
90.000000000000000
  0
ARC
  8
0
  6
CONTINUOUS
 62
5
 10
210.213071293199050
 20
-442.202109706393570
 40
1.000000000000053
 50
182.999999999998920
 51
233.938763177796090
  0
ARC
  8
0
  6
CONTINUOUS
 62
5
 10
220.625306029275520
 20
-452.258115520577920
 40
1.000000000000053
 50
2.999999999998919
 51
53.938763177796055
  0
LINE
  8
0
  6
CONTINUOUS
 62
5
 10
221.213955610247580
 20
-451.449727203726750
 11
209.624421712226990
 21
-443.010498023244740
  0
ARC
  8
0
  6
CONTINUOUS
 62
5
 10
35.705194820021802
 20
-415.430112613484200
 40
1.000000000000000
 50
90.000000000000000
 51
177.000000000019920
  0
LINE
  8
0
  6
CONTINUOUS
 62
5
 10
221.623935564030150
 20
-452.205779564334990
 11
221.756230253306850
 21
-454.730112613485630
  0
LINE
  8
0
  6
CONTINUOUS
 62
5
 10
209.214441758444420
 20
-442.254445662636500
 11
207.805895221346530
 21
-415.377776657241270
  0
LINE
  8
0
  6
CONTINUOUS
 62
5
 10
-47.743769746693033
 20
-609.730112613494160
 11
-47.743769746693033
 21
-614.730112613494160
  0
LINE
  8
0
  6
CONTINUOUS
 62
5
 10
-47.743769746693033
 20
-609.730112613494160
 11
-47.659200365410811
 21
-609.730112613494160
  0
LINE
  8
0
  6
CONTINUOUS
 62
5
 10
-46.743769746693033
 20
-615.730112613494160
 11
-21.743769746693147
 21
-615.730112613494160
  0
ARC
  8
0
  6
CONTINUOUS
 62
5
 10
-46.743769746693033
 20
-614.730112613494160
 40
1.000000000000000
 50
180.000000000000000
 51
270.000000000000000
  0
ARC
  8
0
  6
CONTINUOUS
 62
5
 10
-46.659200365410697
 20
-606.730112613494160
 40
1.000000000000000
 50
90.000000000000000
 51
180.000000000000000
  0
LINE
  8
0
  6
CONTINUOUS
 62
5
 10
-47.659200365410697
 20
-606.730112613494160
 11
-47.659200365410697
 21
-609.730112613494160
  0
ARC
  8
0
  6
CONTINUOUS
 62
5
 10
-21.743769746693147
 20
-606.730112613494160
 40
1.000000000000000
 50
0.000000000000000
 51
90.000000000000000
  0
LINE
  8
0
  6
CONTINUOUS
 62
5
 10
-20.743769746693147
 20
-606.730112613494160
 11
-20.743769746693147
 21
-614.730112613494160
  0
ARC
  8
0
  6
CONTINUOUS
 62
5
 10
-21.743769746693147
 20
-614.730112613494160
 40
1.000000000000000
 50
270.000000000000000
 51
0.000000000000000
  0
LINE
  8
0
  6
CONTINUOUS
 62
5
 10
81.668496761927827
 20
-609.730112613494160
 11
81.668496761927827
 21
-614.730112613494160
  0
ARC
  8
0
  6
CONTINUOUS
 62
5
 10
80.668496761927827
 20
-614.730112613494160
 40
1.000000000000000
 50
270.000000000000000
 51
0.000000000000000
  0
LINE
  8
0
  6
CONTINUOUS
 62
5
 10
80.663393562819920
 20
-609.730112613494160
 11
80.663393562819920
 21
-606.730112613494160
  0
ARC
  8
0
  6
CONTINUOUS
 62
5
 10
79.663393562819920
 20
-606.730112613494160
 40
1.000000000000000
 50
0.000000000000000
 51
90.000000000000000
  0
LINE
  8
0
  6
CONTINUOUS
 62
5
 10
80.663393562820033
 20
-609.730112613494160
 11
81.668496761927827
 21
-609.730112613494160
  0
LINE
  8
0
  6
CONTINUOUS
 62
5
 10
38.244852564385383
 20
-615.730112613494160
 11
80.668496761927827
 21
-615.730112613494160
  0
LINE
  8
0
  6
CONTINUOUS
 62
5
 10
37.244852564385383
 20
-609.730112613494160
 11
38.688501973150210
 21
-609.730112613494160
  0
LINE
  8
0
  6
CONTINUOUS
 62
5
 10
37.244852564385383
 20
-609.730112613494160
 11
37.244852564385383
 21
-614.730112613494160
  0
ARC
  8
0
  6
CONTINUOUS
 62
5
 10
38.244852564385383
 20
-614.730112613494160
 40
1.000000000000000
 50
180.000000000000000
 51
270.000000000000000
  0
ARC
  8
0
  6
CONTINUOUS
 62
5
 10
39.688501973150096
 20
-606.730112613494160
 40
1.000000000000000
 50
90.000000000000000
 51
180.000000000000000
  0
LINE
  8
0
  6
CONTINUOUS
 62
5
 10
38.688501973150096
 20
-609.730112613494160
 11
38.688501973150096
 21
-606.730112613494160
  0
LINE
  8
0
  6
CONTINUOUS
 62
5
 10
200.970295215787020
 20
-609.730112613494160
 11
200.970295215787020
 21
-606.730112613494160
  0
ARC
  8
0
  6
CONTINUOUS
 62
5
 10
199.970295215787020
 20
-606.730112613494160
 40
1.000000000000000
 50
0.000000000000000
 51
90.000000000000000
  0
LINE
  8
0
  6
CONTINUOUS
 62
5
 10
200.970295215787020
 20
-609.730112613494160
 11
202.309261171816160
 21
-609.730112613494160
  0
LINE
  8
0
  6
CONTINUOUS
 62
5
 10
202.309261171816160
 20
-609.730112613494160
 11
202.309261171816160
 21
-614.730112613494160
  0
ARC
  8
0
  6
CONTINUOUS
 62
5
 10
201.309261171816160
 20
-614.730112613494160
 40
1.000000000000000
 50
270.000000000000000
 51
0.000000000000000
  0
LINE
  8
0
  6
CONTINUOUS
 62
5
 10
159.276192927183960
 20
-615.730112613494160
 11
201.309261171816160
 21
-615.730112613494160
  0
ARC
  8
0
  6
CONTINUOUS
 62
5
 10
160.372352259662650
 20
-606.730112613494160
 40
1.000000000000000
 50
90.000000000000000
 51
180.000000000000000
  0
LINE
  8
0
  6
CONTINUOUS
 62
5
 10
159.372352259662650
 20
-609.730112613494160
 11
159.372352259662650
 21
-606.730112613494160
  0
LINE
  8
0
  6
CONTINUOUS
 62
5
 10
158.276192927183960
 20
-609.730112613494160
 11
159.372352259662530
 21
-609.730112613494160
  0
LINE
  8
0
  6
CONTINUOUS
 62
5
 10
158.276192927183960
 20
-609.730112613494160
 11
158.276192927183960
 21
-614.730112613494160
  0
ARC
  8
0
  6
CONTINUOUS
 62
5
 10
159.276192927183960
 20
-614.730112613494160
 40
1.000000000000000
 50
180.000000000000000
 51
270.000000000000000
  0
ARC
  8
0
  6
CONTINUOUS
 62
5
 10
-82.783488856893769
 20
-443.730112613495810
 40
1.000000000000000
 50
90.000000000000000
 51
177.678469410166940
  0
LINE
  8
0
  6
CONTINUOUS
 62
5
 10
-85.243769746693033
 20
-479.730112613495810
 11
-83.782668100748083
 21
-443.689605346853060
  0
ARC
  8
0
  6
CONTINUOUS
 62
5
 10
15.295949363507702
 20
-443.730112613495810
 40
1.000000000000073
 50
2.321530589833071
 51
90.000000000000000
  0
LINE
  8
0
  6
CONTINUOUS
 62
5
 10
17.589789334499869
 20
-475.624569949588590
 11
16.295128607362017
 21
-443.689605346853060
  0
LINE
  8
0
  6
CONTINUOUS
 62
5
 10
15.295949363507702
 20
-442.730112613495810
 11
-82.783488856893769
 21
-442.730112613495810
  0
LINE
  8
0
  6
CONTINUOUS
 62
5
 10
-82.894412036000290
 20
-479.730112613495810
 11
-82.894412036000290
 21
-481.730112613495810
  0
LINE
  8
0
  6
CONTINUOUS
 62
5
 10
-82.894412036000290
 20
-479.730112613495810
 11
-85.243769746693033
 21
-479.730112613495810
  0
LINE
  8
0
  6
CONTINUOUS
 62
5
 10
211.256230253306970
 20
-173.230112613486310
 11
210.024647440155490
 21
-196.730112613486310
  0
ARC
  8
0
  6
CONTINUOUS
 62
5
 10
204.956230253306900
 20
-414.243316387074970
 40
1.000000000000024
 50
349.234125639712890
 51
0.000000000000000
  0
ARC
  8
0
  6
CONTINUOUS
 62
5
 10
205.856230253306880
 20
-413.530112613486270
 40
0.500000000000000
 50
180.000000000000000
 51
270.000000000000000
  0
LINE
  8
0
  6
CONTINUOUS
 62
5
 10
205.956230253306900
 20
-414.030112613486270
 11
205.956230253306900
 21
-414.243316387074970
  0
ARC
  8
0
  6
CONTINUOUS
 62
5
 10
204.856230253306880
 20
-413.030112613486270
 40
0.500000000000000
 50
0.000000000000000
 51
90.000000000000000
  0
LINE
  8
0
  6
CONTINUOUS
 62
5
 10
205.356230253306880
 20
-413.030112613486270
 11
205.356230253306880
 21
-413.530112613486270
  0
LINE
  8
0
  6
CONTINUOUS
 62
5
 10
205.856230253306880
 20
-414.030112613486270
 11
205.956230253307010
 21
-414.030112613486270
  0
LINE
  8
0
  6
CONTINUOUS
 62
5
 10
37.156230253307058
 20
-413.030112613486270
 11
37.156230253307058
 21
-413.530112613486270
  0
ARC
  8
0
  6
CONTINUOUS
 62
5
 10
36.656230253307058
 20
-413.530112613486270
 40
0.500000000000000
 50
270.000000000000000
 51
0.000000000000000
  0
ARC
  8
0
  6
CONTINUOUS
 62
5
 10
37.656230253307058
 20
-413.030112613486270
 40
0.500000000000000
 50
90.000000000000000
 51
180.000000000000000
  0
LINE
  8
0
  6
CONTINUOUS
 62
5
 10
36.656230253307058
 20
-414.030112613486270
 11
36.556230253306921
 21
-414.030112613486270
  0
LINE
  8
0
  6
CONTINUOUS
 62
5
 10
37.656230253307058
 20
-412.530112613486270
 11
38.656230253307065
 21
-412.530112613486270
  0
ARC
  8
0
  6
CONTINUOUS
 62
5
 10
37.556230253306921
 20
-414.243316387074970
 40
1.000000000000000
 50
180.000000000000000
 51
190.765874360287740
  0
LINE
  8
0
  6
CONTINUOUS
 62
5
 10
36.556230253306921
 20
-414.030112613486270
 11
36.556230253306921
 21
-414.243316387074970
  0
ARC
  8
0
  6
CONTINUOUS
 62
5
 10
38.656230253307058
 20
-198.230112613486370
 40
0.500000000000000
 50
180.000000000000000
 51
270.000000000000000
  0
ARC
  8
0
  6
CONTINUOUS
 62
5
 10
37.156230253307058
 20
-198.230112613486370
 40
1.000000000000000
 50
0.000000000000000
 51
90.000000000000000
  0
LINE
  8
0
  6
CONTINUOUS
 62
5
 10
35.656230253307058
 20
-197.016908839897670
 11
35.656230253307058
 21
-197.230112613486370
  0
ARC
  8
0
  6
CONTINUOUS
 62
5
 10
36.656230253307058
 20
-197.016908839897670
 40
0.999999999999955
 50
163.333752368155220
 51
180.000000000000000
  0
LINE
  8
0
  6
CONTINUOUS
 62
5
 10
38.656230253307058
 20
-198.730112613486370
 11
38.656230253307065
 21
-412.530112613486270
  0
ARC
  8
0
  6
CONTINUOUS
 62
5
 10
205.856230253306990
 20
-197.016908839897670
 40
1.000000000000000
 50
0.000000000000000
 51
16.666247631843852
  0
LINE
  8
0
  6
CONTINUOUS
 62
5
 10
206.856230253306990
 20
-197.016908839897670
 11
206.856230253306990
 21
-197.230112613486370
  0
ARC
  8
0
  6
CONTINUOUS
 62
5
 10
205.356230253306990
 20
-198.230112613486370
 40
1.000000000000000
 50
90.000000000000000
 51
180.000000000000000
  0
ARC
  8
0
  6
CONTINUOUS
 62
5
 10
203.856230253306990
 20
-198.230112613486370
 40
0.500000000000000
 50
270.000000000000000
 51
0.000000000000000
  0
LINE
  8
0
  6
CONTINUOUS
 62
5
 10
203.856230253306990
 20
-198.730112613486370
 11
203.856230253307020
 21
-412.530112613486270
  0
LINE
  8
0
  6
CONTINUOUS
 62
5
 10
206.856230253306990
 20
-197.230112613486370
 11
205.356230253306990
 21
-197.230112613486370
  0
LINE
  8
0
  6
CONTINUOUS
 62
5
 10
32.487813066458330
 20
-196.730112613486310
 11
210.024647440155490
 21
-196.730112613486310
  0
LINE
  8
0
  6
CONTINUOUS
 62
5
 10
31.256230253306967
 20
-173.230112613486310
 11
32.487813066458330
 21
-196.730112613486310
  0
LINE
  8
0
  6
DASHDOT
 62
3
 10
-33.743769746693033
 20
-433.661865298411670
 11
-33.743769746693033
 21
-526.230112613494160
  0
CIRCLE
  8
0
  6
CONTINUOUS
 62
5
 10
104.756230253306970
 20
264.578844829628110
 40
27.000000000000000
  0
CIRCLE
  8
0
  6
CONTINUOUS
 62
5
 10
104.756230253306970
 20
264.578844829628110
 40
9.900000000000006
  0
CIRCLE
  8
0
  6
CONTINUOUS
 62
5
 10
104.756230253306970
 20
264.578844829628110
 40
9.500000000000000
  0
CIRCLE
  8
0
  6
CONTINUOUS
 62
5
 10
104.756230253306970
 20
264.578844829628110
 40
6.950000000000003
  0
CIRCLE
  8
0
  6
CONTINUOUS
 62
5
 10
121.256230253306970
 20
309.578844829627540
 40
90.000000000000000
  0
CIRCLE
  8
0
  6
CONTINUOUS
 62
5
 10
-33.743769746692806
 20
309.578844829627540
 40
44.399999999999999
  0
ARC
  8
0
  6
CONTINUOUS
 62
5
 10
-2.493769746692806
 20
363.705432566155200
 40
10.500000000000071
 50
20.422740997205821
 51
77.055075592643576
  0
ARC
  8
0
  6
CONTINUOUS
 62
5
 10
-64.993769746693033
 20
363.705432566155200
 40
10.500000000000192
 50
102.944924407356340
 51
159.577259002794340
  0
ARC
  8
0
  6
CONTINUOUS
 62
5
 10
-64.993769746693033
 20
255.452257093099890
 40
10.499999999999817
 50
200.422740997205660
 51
257.055075592644300
  0
ARC
  8
0
  6
CONTINUOUS
 62
5
 10
-2.493769746692806
 20
255.452257093099890
 40
10.500000000000080
 50
282.944924407356500
 51
339.577259002794160
  0
ARC
  8
0
  6
CONTINUOUS
 62
5
 10
-33.743769746693033
 20
391.406983013164790
 40
149.999999999999600
 50
257.055075592643500
 51
282.944924407356550
  0
ARC
  8
0
  6
CONTINUOUS
 62
5
 10
-33.743769746692806
 20
227.750706646089840
 40
150.000000000000060
 50
77.055075592643590
 51
102.944924407356510
  0
ARC
  8
0
  6
CONTINUOUS
 62
5
 10
-33.743769746692806
 20
309.578844829627540
 40
42.499999999999872
 50
341.645479460129540
 51
355.854520539870120
  0
ARC
  8
0
  6
CONTINUOUS
 62
5
 10
-147.859154362077790
 20
309.578844829627540
 40
165.615384615385100
 50
339.577259002794340
 51
20.422740997205683
  0
ARC
  8
0
  6
CONTINUOUS
 62
5
 10
80.371614868692177
 20
309.578844829627540
 40
165.615384615385100
 50
159.577259002794340
 51
200.422740997205660
  0
LINE
  8
0
  6
CONTINUOUS
 62
5
 10
53.475338682808001
 20
228.782800756240620
 11
53.263152108228837
 21
228.725945534937410
  0
LINE
  8
0
  6
CONTINUOUS
 62
5
 10
189.037121823805930
 20
228.782800756240650
 11
189.249308398385210
 21
228.725945534937410
  0
LINE
  8
0
  6
CONTINUOUS
 62
5
 10
201.717186711264760
 20
243.048517264894060
 11
202.109129547996420
 21
241.585766684548840
  0
LINE
  8
0
  6
CONTINUOUS
 62
5
 10
54.725902688573434
 20
390.039801287585190
 11
53.263152108228496
 21
390.431744124316770
  0
ARC
  8
0
  6
CONTINUOUS
 62
5
 10
121.256230253306970
 20
214.578844829627310
 40
7.000000000000102
 50
132.917846931250810
 51
47.082153068750571
  0
LINE
  8
0
  6
CONTINUOUS
 62
5
 10
187.786557818039510
 20
390.039801287584850
 11
189.249308398385660
 21
390.431744124316770
  0
ARC
  8
0
  6
CONTINUOUS
 62
5
 10
191.966908371961840
 20
380.289522948281960
 40
10.500000000000027
 50
345.000000000000400
 51
104.999999999999560
  0
LINE
  8
0
  6
CONTINUOUS
 62
5
 10
201.717186711264360
 20
376.109172394360310
 11
202.109129547996190
 21
377.571922974706240
  0
ARC
  8
0
  6
CONTINUOUS
 62
5
 10
50.545552134651984
 20
380.289522948281960
 40
10.500000000000027
 50
75.000000000000441
 51
162.126753117273300
  0
ARC
  8
0
  6
CONTINUOUS
 62
5
 10
50.545552134651984
 20
238.868166710973130
 40
10.500000000000695
 50
197.873246882725110
 51
284.999999999999600
  0
ARC
  8
0
  6
CONTINUOUS
 62
5
 10
191.966908371961610
 20
238.868166710973130
 40
10.500000000000027
 50
255.000000000000430
 51
14.999999999999567
  0
LINE
  8
0
  6
CONTINUOUS
 62
5
 10
115.614970671478890
 20
205.909153047158040
 11
115.044792675379310
 21
204.724368871684650
  0
ARC
  8
0
  6
CONTINUOUS
 62
5
 10
115.164429170960600
 20
206.125976376877820
 40
0.500000000000036
 50
334.300790061407500
 51
54.220515908414072
  0
ARC
  8
0
  6
CONTINUOUS
 62
5
 10
121.256230253307190
 20
214.578844829627310
 40
9.919262234264444
 50
215.779484091578870
 51
234.220515908422210
  0
ARC
  8
0
  6
CONTINUOUS
 62
5
 10
112.803361800557700
 20
208.487043747280500
 40
0.500000000000014
 50
35.779484091585935
 51
115.699209938569000
  0
LINE
  8
0
  6
CONTINUOUS
 62
5
 10
112.586538470838150
 20
208.937585247798780
 11
111.401754295364750
 21
208.367407251698980
  0
ARC
  8
0
  6
CONTINUOUS
 62
5
 10
121.256230253306740
 20
214.578844829627310
 40
11.648718950604675
 50
237.776097510283730
 51
0.000000000000000
  0
ARC
  8
0
  6
CONTINUOUS
 62
5
 10
121.256230253306630
 20
309.578844829627090
 40
101.499999999999960
 50
234.219055191602190
 51
264.083495724836380
  0
ARC
  8
0
  6
CONTINUOUS
 62
5
 10
121.256230253306740
 20
214.578844829627310
 40
11.648718950604916
 50
180.000000000000000
 51
212.223902489721210
  0
ARC
  8
0
  6
CONTINUOUS
 62
5
 10
110.690626543188050
 20
207.624845309055440
 40
1.000000000000042
 50
46.273637044285799
 51
84.083495724841853
  0
ARC
  8
0
  6
CONTINUOUS
 62
5
 10
121.256230253306850
 20
309.578844829627540
 40
101.500000000000040
 50
275.916504275163790
 51
305.780944808397810
  0
ARC
  8
0
  6
CONTINUOUS
 62
5
 10
131.821833963425660
 20
207.624845309055900
 40
0.999999999999959
 50
95.916504275158147
 51
146.648150135345250
  0
ARC
  8
0
  6
CONTINUOUS
 62
5
 10
186.448931372781320
 20
219.123542493352720
 40
10.000000000000146
 50
74.999999999997669
 51
125.780944808397880
  0
ARC
  8
0
  6
CONTINUOUS
 62
5
 10
211.376444974154770
 20
245.636707715919100
 40
10.000000000000124
 50
144.643519055303730
 51
194.999999999999800
  0
ARC
  8
0
  6
CONTINUOUS
 62
5
 10
121.256230253306850
 20
309.578844829627540
 40
100.499999999999990
 50
324.643519055304130
 51
35.356480944695328
  0
ARC
  8
0
  6
CONTINUOUS
 62
5
 10
211.376444974155450
 20
373.520981943335070
 40
10.000000000000027
 50
165.000000000000200
 51
215.356480944695220
  0
ARC
  8
0
  6
CONTINUOUS
 62
5
 10
185.198367367014270
 20
399.699059550476020
 40
9.999999999999993
 50
234.643519055304750
 51
285.000000000001420
  0
ARC
  8
0
  6
CONTINUOUS
 62
5
 10
121.256230253306850
 20
309.578844829627540
 40
100.499999999999990
 50
54.643519055304687
 51
125.356480944695970
  0
ARC
  8
0
  6
CONTINUOUS
 62
5
 10
57.314093139598413
 20
399.699059550475340
 40
9.999999999999996
 50
255.000000000000820
 51
305.356480944695760
  0
LINE
  8
0
  6
CONTINUOUS
 62
5
 10
26.558317744476991
 20
340.116614336747720
 11
40.552305085981963
 21
383.512101639987970
  0
ARC
  8
0
  6
CONTINUOUS
 62
5
 10
121.256230253306850
 20
309.578844829627540
 40
99.499999999999957
 50
162.126753117273380
 51
197.873246882725080
  0
LINE
  8
0
  6
CONTINUOUS
 62
5
 10
26.558317744476199
 20
279.041075322509870
 11
40.552305085980748
 21
235.645588019267020
  0
ARC
  8
0
  6
CONTINUOUS
 62
5
 10
56.063529133832503
 20
219.123542493352720
 40
10.000000000000027
 50
54.219055191602664
 51
105.000000000001880
  0
ARC
  8
0
  6
CONTINUOUS
 62
5
 10
132.756230253306740
 20
398.578844829628000
 40
0.999999999999984
 50
7.405264672473113
 51
90.000000000000000
  0
LINE
  8
0
  6
CONTINUOUS
 62
5
 10
132.756230253306740
 20
399.578844829628000
 11
109.756230253306740
 21
399.578844829628000
  0
ARC
  8
0
  6
CONTINUOUS
 62
5
 10
109.756230253306740
 20
398.578844829628000
 40
1.000000000000000
 50
90.000000000000000
 51
172.594735327526910
  0
ARC
  8
0
  6
CONTINUOUS
 62
5
 10
119.543068402162820
 20
307.792766311816880
 40
106.231768854912700
 50
321.109082583564940
 51
39.476659507337423
  0
ARC
  8
0
  6
CONTINUOUS
 62
5
 10
119.543068402162820
 20
307.792766311816880
 40
106.231768854912890
 50
271.193748437141040
 51
311.727181645804540
  0
ARC
  8
0
  6
CONTINUOUS
 62
5
 10
119.470151735496300
 20
311.292006680771460
 40
109.731768854912740
 50
240.552147938697230
 51
271.193748437140980
  0
ARC
  8
0
  6
CONTINUOUS
 62
5
 10
-419.471587398408020
 20
-643.310472294688680
 40
986.500000000000230
 50
60.552147938697274
 51
64.555548257078229
  0
LINE
  8
0
  6
CONTINUOUS
 62
5
 10
189.037121823803770
 20
228.782800756241390
 11
189.249308398385210
 21
228.725945534937640
  0
LINE
  8
0
  6
CONTINUOUS
 62
5
 10
3.828228734715822
 20
372.088888607732310
 11
75.810312903946851
 21
404.605135410898580
  0
ARC
  8
0
  6
CONTINUOUS
 62
5
 10
119.543068402162820
 20
307.792766311816880
 40
106.231768854912790
 50
50.583238966139668
 51
114.309976129177120
  0
CIRCLE
  8
0
  6
CONTINUOUS
 62
5
 10
-33.743769746692806
 20
309.578844829627540
 40
42.462997436523438
  0
CIRCLE
  8
0
  6
CONTINUOUS
 62
3
 10
-33.743769746692806
 20
309.578844829627540
 40
43.942001342773438
  0
LINE
  8
0
  6
CONTINUOUS
 62
5
 10
132.904949203911660
 20
214.578844829627770
 11
132.904949203911660
 21
220.335876777181970
  0
LINE
  8
0
  6
CONTINUOUS
 62
5
 10
109.607511302702050
 20
214.578844829627770
 11
109.607511302702050
 21
220.335876777181970
  0
ARC
  8
0
  6
CONTINUOUS
 62
5
 10
121.256230253306970
 20
-442.230112613486310
 40
409.000000000000060
 50
83.599193439728012
 51
90.000000000000000
  0
ARC
  8
0
  6
CONTINUOUS
 62
5
 10
168.256230253306970
 20
-90.230112613486313
 40
8.000000000000000
 50
270.000000000000000
 51
0.000000000000000
  0
ARC
  8
0
  6
CONTINUOUS
 62
5
 10
121.256230253306970
 20
-447.230112613486310
 40
385.000000000000000
 50
84.497429419975688
 51
90.000000000000000
  0
LINE
  8
0
  6
CONTINUOUS
 62
5
 10
176.256230253306970
 20
-83.912070121787337
 11
176.256230253306970
 21
-90.230112613486313
  0
ARC
  8
0
  6
CONTINUOUS
 62
5
 10
156.256230253306970
 20
-83.912070121787337
 40
20.000000000000000
 50
0.000000000000000
 51
84.497429419975546
  0
ARC
  8
0
  6
CONTINUOUS
 62
5
 10
89.116141399035769
 20
-94.928484861658944
 40
50.000000000000085
 50
130.001059649304380
 51
177.000000000000540
  0
ARC
  8
0
  6
CONTINUOUS
 62
5
 10
74.256230253306967
 20
-90.230112613486313
 40
8.000000000000000
 50
180.000000000000000
 51
270.000000000000000
  0
LINE
  8
0
  6
CONTINUOUS
 62
5
 10
66.256230253306967
 20
-87.230112613486313
 11
66.256230253306967
 21
-90.230112613486313
  0
ARC
  8
0
  6
CONTINUOUS
 62
5
 10
81.256230253306967
 20
-87.230112613486313
 40
14.999999999999988
 50
118.072486935852770
 51
180.000000000000000
  0
LINE
  8
0
  6
CONTINUOUS
 62
5
 10
31.675492487571319
 20
-165.230112613486310
 11
35.756230253306967
 21
-157.730112613486310
  0
LINE
  8
0
  6
CONTINUOUS
 62
5
 10
31.675492487571319
 20
-165.230112613486310
 11
31.256230253306967
 21
-173.230112613486310
  0
LINE
  8
0
  6
CONTINUOUS
 62
5
 10
211.256230253306970
 20
-173.230112613486310
 11
31.256230253306967
 21
-173.230112613486310
  0
ARC
  8
0
  6
CONTINUOUS
 62
3
 10
101.006230253306970
 20
-27.019884151970928
 40
7.500000000000025
 50
60.000000000000107
 51
119.999999999999890
  0
ARC
  8
0
  6
CONTINUOUS
 62
3
 10
101.006230253306970
 20
-14.029503095204291
 40
7.500000000000025
 50
240.000000000000140
 51
299.999999999999890
  0
ARC
  8
0
  6
CONTINUOUS
 62
3
 10
108.506230253306970
 20
-27.019884151970928
 40
7.500000000000025
 50
60.000000000000107
 51
119.999999999999890
  0
LINE
  8
0
  6
CONTINUOUS
 62
5
 10
131.756230253306970
 20
-92.230112613486881
 11
131.756230253306970
 21
-98.230112613486426
  0
ARC
  8
0
  6
CONTINUOUS
 62
5
 10
128.756230253306970
 20
-92.230112613486881
 40
3.000000000000000
 50
0.000000000000000
 51
90.000000000000000
  0
LINE
  8
0
  6
CONTINUOUS
 62
5
 10
77.756230253306967
 20
-92.230112613486426
 11
77.756230253306967
 21
-98.230112613486426
  0
LINE
  8
0
  6
CONTINUOUS
 62
5
 10
128.756230253306970
 20
-89.230112613486881
 11
80.756230253306967
 21
-89.230112613486881
  0
ARC
  8
0
  6
CONTINUOUS
 62
5
 10
80.756230253306967
 20
-92.230112613486426
 40
3.000000000000000
 50
90.000000000000000
 51
180.000000000000000
  0
LINE
  8
0
  6
CONTINUOUS
 62
5
 10
95.256230253306967
 20
-46.730112613486426
 11
96.256230253306967
 21
-44.730112613486426
  0
LINE
  8
0
  6
CONTINUOUS
 62
5
 10
114.256230253306970
 20
-46.730112613486426
 11
114.256230253306970
 21
-89.230112613486881
  0
LINE
  8
0
  6
CONTINUOUS
 62
5
 10
114.256230253306970
 20
-46.730112613486426
 11
113.256230253306970
 21
-44.730112613486426
  0
LINE
  8
0
  6
CONTINUOUS
 62
5
 10
96.256230253306967
 20
-44.730112613486426
 11
113.256230253306970
 21
-44.730112613486426
  0
LINE
  8
0
  6
CONTINUOUS
 62
5
 10
97.256230253306967
 20
-20.524693623587552
 11
97.256230253306967
 21
-44.730112613486426
  0
LINE
  8
0
  6
CONTINUOUS
 62
5
 10
112.256230253306970
 20
-20.524693623587609
 11
112.256230253306970
 21
-44.730112613486426
  0
ARC
  8
0
  6
CONTINUOUS
 62
5
 10
121.256230253306970
 20
-133.230112613486310
 40
100.000000000000000
 50
90.000000000000000
 51
95.163607090846384
  0
ARC
  8
0
  6
CONTINUOUS
 62
5
 10
121.256230253306970
 20
-162.230112613486310
 40
100.000000000000000
 50
90.000000000000000
 51
94.013987218056315
  0
ARC
  8
0
  6
CONTINUOUS
 62
5
 10
121.256230253306970
 20
-133.230112613486310
 40
100.000000000000000
 50
103.886540362628990
 51
130.001059649304440
  0
ARC
  8
0
  6
CONTINUOUS
 62
5
 10
121.256230253306970
 20
-162.230112613486310
 40
99.999999999999986
 50
105.070062144888840
 51
118.072486935852940
  0
LINE
  8
0
  6
CONTINUOUS
 62
5
 10
95.256230253306967
 20
-46.730112613486426
 11
95.256230253306967
 21
-89.230112613486881
  0
LINE
  8
0
  6
DASHDOT
 62
3
 10
121.256230253306970
 20
-17.359936885171010
 11
121.256230253306970
 21
-577.267841573379660
  0
LINE
  8
0
  6
DASHDOT
 62
3
 10
-33.743769746692806
 20
237.849388113287090
 11
-33.743769746692806
 21
383.133352636314610
  0
LINE
  8
0
  6
DASHDOT
 62
3
 10
229.889773592213260
 20
309.578844829627540
 11
-95.243769746692806
 21
309.578844829627540
  0
LINE
  8
0
  6
DASHDOT
 62
3
 10
121.256230253306970
 20
420.115549679137980
 11
121.256230253306970
 21
196.082935261413700
  0
LINE
  8
0
  6
CONTINUOUS
 62
5
 10
210.836968019042620
 20
-165.230112613486310
 11
206.756230253306970
 21
-157.730112613486310
  0
LINE
  8
0
  6
CONTINUOUS
 62
5
 10
210.836968019042620
 20
-165.230112613486310
 11
211.256230253306970
 21
-173.230112613486310
  0
LINE
  8
0
  6
CONTINUOUS
 62
5
 10
168.256230253306970
 20
-98.230112613486313
 11
74.256230253306967
 21
-98.230112613486313
  0
LINE
  8
0
  6
CONTINUOUS
 62
5
 10
39.184664661307124
 20
-92.311687049512273
 11
35.756230253306967
 21
-157.730112613486310
  0
LINE
  8
0
  6
CONTINUOUS
 62
5
 10
202.338609713083880
 20
-73.436891250957501
 11
206.756230253306970
 21
-157.730112613486310
  0
ARC
  8
0
  6
CONTINUOUS
 62
5
 10
162.393428322900950
 20
-75.530329500674839
 40
39.999999999999964
 50
2.999999999999406
 51
83.599193439728083
  0
TEXT
  8
1
  6
CONTINUOUS
 62
5
 10
-201.270843505859370
 20
-418.730133056640620
 40
25.000000000000000
  1
é╦éČŹ×é▌æŖātāēāōāW
 50
0.000002504478167
 41
0.725000000000000
  7
STANDARD1
  0
DIMENSION
  8
1
  2
*D1
 10
-135.243774414062500
 20
-615.730102539062500
 11
-148.743774414062440
 21
-548.730103631847210
 70
128
 13
-84.261070251464844
 23
-481.730102539062500
 14
-46.743770599365234
 24
-615.730102539062500
 50
90.000000000000000
  0
LINE
  8
1
  6
CONTINUOUS
 62
3
 10
-201.270843505859370
 20
-392.730133056640620
 11
18.404159545898437
 21
-392.730133056640620
  0
LINE
  8
1
  6
CONTINUOUS
 62
3
 10
18.404159545898437
 20
-392.730133056640620
 11
-33.743770599365234
 21
-442.730102539062500
  0
LINE
  8
1
  6
CONTINUOUS
 62
3
 10
-33.743770599365234
 20
-442.730102539062500
 11
-31.671385804954337
 21
-439.308813123667390
  0
LINE
  8
1
  6
CONTINUOUS
 62
3
 10
-33.743770599365234
 20
-442.730102539062500
 11
-30.238387985217894
 21
-440.803371439912040
  0
TEXT
  8
1
  6
CONTINUOUS
 62
5
 10
-201.270843505859370
 20
-391.730133056640620
 40
25.000000000000000
  1
ī─éčīaāė80ü@ü@ü@
 50
0.000002504478167
 41
0.719423078917540
  7
STANDARD1
  0
TEXT
  8
1
  6
CONTINUOUS
 62
5
 10
214.639694213867190
 20
547.404602050781250
 40
25.000000000000000
  1
G025601
 50
0.000002504478167
 41
0.696000010371208
  7
STANDARD1
  0
TEXT
  8
1
  6
CONTINUOUS
 62
5
 10
58.039691925048828
 20
512.404602050781250
 40
25.000000000000000
  1
80PUT22.2 -51/61
 50
0.000002504478167
 41
0.713846164483290
  7
STANDARD1
  0
DIMENSION
  8
1
  2
*D2
 10
305.774841308593750
 20
-33.230113983154297
 11
292.274841308593810
 21
-324.480103631847270
 70
128
 13
201.309265136718750
 23
-615.730102539062500
 14
121.256233215332030
 24
-33.230113983154297
 50
270.000000000000000
  0
DIMENSION
  8
1
  2
*D3
 10
225.774841308593750
 20
71.560241699218750
 11
70.265532900873268
 21
85.060241699218750
 70
128
 13
-85.243766784667969
 23
309.578857421875000
 14
225.774841308593750
 24
307.792755126953120
 50
180.000000000000000
  0
DIMENSION
  8
1
  2
*D4
 10
225.774841308593750
 20
121.560241699218750
 11
173.515532900873270
 21
135.060241699218750
 70
128
 13
121.256233215332030
 23
196.082931518554690
 14
225.774841308593750
 24
307.792755126953120
 50
180.000000000000000
  0
DIMENSION
  8
1
  2
*D5
 10
121.256233215332030
 20
121.560241699218750
 11
43.756228854242401
 21
135.060241699218750
 70
128
 13
-33.743770599365234
 23
237.849380493164060
 14
121.256233215332030
 24
196.082931518554690
 50
180.000000000000000
  0
DIMENSION
  8
1
  2
*D6
 10
355.774841308593750
 20
414.024536132812500
 11
342.274841308593810
 21
307.792387823230850
 70
128
 13
119.470153808593750
 23
201.560241699218750
 14
119.543067932128910
 24
414.024536132812500
 50
270.000000000000000
  0
DIMENSION
  8
1
  2
*D7
 10
305.774841308593750
 20
414.024536132812500
 11
292.274841308593810
 21
361.801695684558980
 70
128
 13
229.889770507812500
 23
309.578857421875000
 14
119.543067932128910
 24
414.024536132812500
 50
270.000000000000000
  0
DIMENSION
  8
1
  2
*D8
 10
305.774841308593750
 20
309.578857421875000
 11
292.274841308593810
 21
255.569533208973040
 70
128
 13
119.470153808593750
 23
201.560241699218750
 14
229.889770507812500
 24
309.578857421875000
 50
270.000000000000000
  0
ENDSEC
  0
EOF
