  0
SECTION
  2
HEADER
  9
$ACADVER
  1
AC1009
  9
$INSBASE
 10
0
 20
0
 30
0
  9
$EXTMIN
 10
0
 20
0
  9
$EXTMAX
 10
3823.0686358495768
 20
2703.4556782079148
  9
$LIMMIN
 10
0
 20
0
  9
$LIMMAX
 10
3823.0686358495768
 20
2703.4556782079148
  9
$LTSCALE
 40
9.1025443710704206
  0
ENDSEC
  0
SECTION
  2
TABLES
  0
TABLE
  2
LTYPE
 70
     9
  0
LTYPE
  2
CONTINUOUS
 70
    64
  3
Ä└É³
 72
    65
 73
     0
 40
0.0
  0
LTYPE
  2
DASHED1
 70
    64
  3
--  --  --  --  --  --  --  --  
 72
    65
 73
     2
 40
2.5
 49
1.25
 49
-1.25
  0
LTYPE
  2
DASHED2
 70
    64
  3
----    ----    ----    ----    
 72
    65
 73
     2
 40
5.0
 49
2.5
 49
-2.5
  0
LTYPE
  2
DASHED3
 70
    64
  3
------  ------  ------  ------  
 72
    65
 73
     2
 40
5.0
 49
3.75
 49
-1.25
  0
LTYPE
  2
CENTER1
 70
    64
  3
----- - ----- - ----- - ----- - 
 72
    65
 73
     4
 40
10.0
 49
6.25
 49
-1.25
 49
1.25
 49
-1.25
  0
LTYPE
  2
CENTER2
 70
    64
  3
----------  --  ----------  --  
 72
    65
 73
     4
 40
20.0
 49
12.5
 49
-2.5
 49
2.5
 49
-2.5
  0
LTYPE
  2
PHANTOM1
 70
    64
  3
--- - - --- - - --- - - --- - - 
 72
    65
 73
     6
 40
10.0
 49
3.25
 49
-1.25
 49
1.25
 49
-1.25
 49
1.25
 49
-1.25
  0
LTYPE
  2
PHANTOM2
 70
    64
  3
--------  -  -  --------  -  -  
 72
    65
 73
     6
 40
20.0
 49
10.0
 49
-2.5
 49
1.25
 49
-2.5
 49
1.25
 49
-2.5
  0
LTYPE
  2
DOT
 70
    64
  3
-   -   -   -   -   -   -   -   
 72
    65
 73
     2
 40
2.5
 49
0.625
 49
-1.875
  0
LTYPE
  2
DUMMY
 70
    64
  3
ā_ā~ü[
 72
    65
 73
     0
 40
0.0
  0
LTYPE
  2
RAND1
 70
    64
  3
āēāōā_āĆÉ³1
 72
    65
 73
     4
 40
10.0
 49
1.0
 49
-2.0
 49
3.0
 49
-4.0
  0
LTYPE
  2
RAND2
 70
    64
  3
āēāōā_āĆÉ³2
 72
    65
 73
     4
 40
14.0
 49
2.0
 49
-3.0
 49
4.0
 49
-5.0
  0
LTYPE
  2
RAND3
 70
    64
  3
āēāōā_āĆÉ³3
 72
    65
 73
     4
 40
18.0
 49
3.0
 49
-4.0
 49
5.0
 49
-6.0
  0
LTYPE
  2
RAND4
 70
    64
  3
āēāōā_āĆÉ³4
 72
    65
 73
     4
 40
22.0
 49
4.0
 49
-5.0
 49
6.0
 49
-7.0
  0
LTYPE
  2
RAND5
 70
    64
  3
āēāōā_āĆÉ³5
 72
    65
 73
     4
 40
26.0
 49
5.0
 49
-6.0
 49
7.0
 49
-8.0
  0
LTYPE
  2
LONG1
 70
    64
  3
----------  --  ----------  --  
 72
    65
 73
     4
 40
40.0
 49
32.5
 49
-2.5
 49
2.5
 49
-2.5
  0
LTYPE
  2
LONG2
 70
    64
  3
--------  -  -  --------  -  -  
 72
    65
 73
     6
 40
40.0
 49
30.0
 49
-2.5
 49
1.25
 49
-2.5
 49
1.25
 49
-2.5
  0
LTYPE
  2
LONG3
 70
    64
  3
+++++++++++++++..+++++++++++++++
 72
    65
 73
     2
 40
40.0
 49
37.5
 49
-2.5
  0
LTYPE
  2
LONG4
 70
    64
  3
+++++++++++++++..+++++++++++++++
 72
    65
 73
     2
 40
80.0
 49
75.0
 49
-5.0
  0
LTYPE
  2
LONG5
 70
    64
  3
----------  --  ----------  --  
 72
    65
 73
     4
 40
60.0
 49
37.5
 49
-7.5
 49
7.5
 49
-7.5
  0
LTYPE
  2
dashed
 70
   64
  3
-------   -------------   ------
 72
   65
 73
    2
 40
7.5
 49
6
 49
-1.5
  0
LTYPE
  2
dashed_spaced
 70
   64
  3
----        --------        ----
 72
   65
 73
    2
 40
12
 49
6
 49
-6
  0
LTYPE
  2
long_dashed_dotted
 70
   64
  3
------------- --- --------------
 72
   65
 73
    4
 40
15.25
 49
12
 49
-1.5
 49
0.25
 49
-1.5
  0
LTYPE
  2
long_dashed_double-dotted
 70
   64
  3
----------- --- --- ------------
 72
   65
 73
    6
 40
17
 49
12
 49
-1.5
 49
0.25
 49
-1.5
 49
0.25
 49
-1.5
  0
LTYPE
  2
long_dashed_triplicate-dotted
 70
   64
  3
--------- --- --- --- ----------
 72
   65
 73
    8
 40
18.75
 49
12
 49
-1.5
 49
0.25
 49
-1.5
 49
0.25
 49
-1.5
 49
0.25
 49
-1.5
  0
LTYPE
  2
dotted
 70
   64
  3
   -       -       -       -    
 72
   65
 73
    2
 40
1.75
 49
0.25
 49
-1.5
  0
LTYPE
  2
chain
 70
   64
  3
-------------- -- --------------
 72
   65
 73
    4
 40
18.5
 49
12
 49
-1.5
 49
3.5
 49
-1.5
  0
LTYPE
  2
chain_double_dash
 70
   64
  3
------------ -- -- -------------
 72
   65
 73
    6
 40
23.5
 49
12
 49
-1.5
 49
3.5
 49
-1.5
 49
3.5
 49
-1.5
  0
LTYPE
  2
dashed_dotted
 70
   64
  3
-----------     -     ----------
 72
   65
 73
    4
 40
9.25
 49
6
 49
-1.5
 49
0.25
 49
-1.5
  0
LTYPE
  2
double-dashed_dotted
 70
   64
  3
------   -----------   -   -----
 72
   65
 73
    6
 40
16.75
 49
6
 49
-1.5
 49
6
 49
-1.5
 49
0.25
 49
-1.5
  0
LTYPE
  2
dashed_double-dotted
 70
   64
  3
---------    -    -    ---------
 72
   65
 73
    6
 40
11
 49
6
 49
-1.5
 49
0.25
 49
-1.5
 49
0.25
 49
-1.5
  0
LTYPE
  2
double-dashed_double-dotted
 70
   64
  3
-----   ---------   -   -   ----
 72
   65
 73
    8
 40
18.5
 49
6
 49
-1.5
 49
6
 49
-1.5
 49
0.25
 49
-1.5
 49
0.25
 49
-1.5
  0
LTYPE
  2
dashed_triplicate-dotted
 70
   64
  3
-------    -    -    -    ------
 72
   65
 73
    8
 40
12.75
 49
6
 49
-1.5
 49
0.25
 49
-1.5
 49
0.25
 49
-1.5
 49
0.25
 49
-1.5
  0
LTYPE
  2
double-dashed_triplicate-dotted
 70
   64
  3
-----  ---------  -  -  -  -----
 72
   65
 73
   10
 40
20.25
 49
6
 49
-1.5
 49
6
 49
-1.5
 49
0.25
 49
-1.5
 49
0.25
 49
-1.5
 49
0.25
 49
-1.5
  0
LTYPE
  2
undefined
 70
   64
  3
--------------------------------
 72
   65
 73
    0
 40
0
  0
LTYPE
  2
_
 70
   64
  3
                                
 72
   65
 73
    0
 40
0
  0
LTYPE
  2
__18
 70
   64
  3
                                
 72
   65
 73
    0
 40
0
  0
LTYPE
  2
__19
 70
   64
  3
                                
 72
   65
 73
    0
 40
0
  0
LTYPE
  2
__20
 70
   64
  3
                                
 72
   65
 73
    0
 40
0
  0
LTYPE
  2
__21
 70
   64
  3
                                
 72
   65
 73
    0
 40
0
  0
LTYPE
  2
__22
 70
   64
  3
                                
 72
   65
 73
    0
 40
0
  0
LTYPE
  2
__23
 70
   64
  3
                                
 72
   65
 73
    0
 40
0
  0
LTYPE
  2
__24
 70
   64
  3
                                
 72
   65
 73
    0
 40
0
  0
LTYPE
  2
__25
 70
   64
  3
                                
 72
   65
 73
    0
 40
0
  0
LTYPE
  2
__26
 70
   64
  3
                                
 72
   65
 73
    0
 40
0
  0
LTYPE
  2
__27
 70
   64
  3
                                
 72
   65
 73
    0
 40
0
  0
LTYPE
  2
__28
 70
   64
  3
                                
 72
   65
 73
    0
 40
0
  0
LTYPE
  2
__29
 70
   64
  3
                                
 72
   65
 73
    0
 40
0
  0
LTYPE
  2
__30
 70
   64
  3
                                
 72
   65
 73
    0
 40
0
  0
LTYPE
  2
__31
 70
   64
  3
                                
 72
   65
 73
    0
 40
0
  0
LTYPE
  2
__32
 70
   64
  3
                                
 72
   65
 73
    0
 40
0
  0
ENDTAB
  0
TABLE
  2
STYLE
  5
3
100
AcDbSymbolTable
 70
     1
  0
STYLE
  5
10
100
AcDbSymbolTableRecord
100
AcDbTextStyleTableRecord
  2
STANDARD
 70
     0
 40
0.0
 41
1.0
 50
0.0
 71
     0
 42
0.2
  3
txt
  4
bigfont.shx
  0
STYLE
  5
26
100
AcDbSymbolTableRecord
100
AcDbTextStyleTableRecord
  2
TATEGAKI
 70
    68
 40
0.0
 41
1.0
 50
0.0
 71
     0
 42
1.0
  3
txt
  4
bigfont.shx
  0
ENDTAB
  0
TABLE
  2
LAYER
 70
    9
  0
LAYER
  2
_0-0_90_FRAME
 70
   64
 62
    7
  6
CONTINUOUS
  0
LAYER
  2
_0-1_91_BLANK
 70
   64
 62
    7
  6
CONTINUOUS
  0
LAYER
  2
_0-2_08_DIM
 70
   64
 62
    7
  6
CONTINUOUS
  0
LAYER
  2
_0-3_07_TEXT
 70
   64
 62
    7
  6
CONTINUOUS
  0
LAYER
  2
_0-4_0
 70
   64
 62
    7
  6
CONTINUOUS
  0
LAYER
  2
_0-5_04_HIDDEN
 70
   64
 62
    7
  6
CONTINUOUS
  0
LAYER
  2
_0-6_05_CENTER
 70
   64
 62
    7
  6
CONTINUOUS
  0
LAYER
  2
_0-8_
 70
   64
 62
    7
  6
CONTINUOUS
  0
LAYER
  2
ADD_LINE
 70
   64
 62
    7
  6
CONTINUOUS
  0
ENDTAB
  0
ENDSEC
  0
SECTION
  2
BLOCKS
  0
BLOCK
  2
-000-p1ba01
 70
   64
 10
0
 20
0
 30
0
  0
LINE
  8
_0-2_08_DIM
  6
CONTINUOUS
 62
    3
 10
0
 20
0
 11
-1.5
 21
2.5980762113532592
  0
LINE
  8
_0-2_08_DIM
  6
CONTINUOUS
 62
    3
 10
1.5
 20
2.5980762113532592
 11
0
 21
0
  0
LINE
  8
_0-2_08_DIM
  6
CONTINUOUS
 62
    3
 10
-1.5
 20
2.5980762113532592
 11
1.5
 21
2.5980762113532592
  0
ENDBLK
  0
BLOCK
  2
-001-p1ba02
 70
   64
 10
0
 20
0
 30
0
  0
LINE
  8
_0-2_08_DIM
  6
CONTINUOUS
 62
    3
 10
3.0000000000000142
 20
0
 11
1.5000000000000142
 21
2.5980762113532592
  0
LINE
  8
_0-2_08_DIM
  6
CONTINUOUS
 62
    3
 10
4.5000000000000142
 20
2.5980762113532592
 11
3.0000000000000142
 21
0
  0
LINE
  8
_0-2_08_DIM
  6
CONTINUOUS
 62
    3
 10
1.5000000000000142
 20
2.5980762113532592
 11
4.5000000000000142
 21
2.5980762113532592
  0
LINE
  8
_0-2_08_DIM
  6
CONTINUOUS
 62
    3
 10
-1.4999999999999858
 20
2.5980762113532592
 11
1.5000000000000142
 21
2.5980762113532592
  0
LINE
  8
_0-2_08_DIM
  6
CONTINUOUS
 62
    3
 10
1.5000000000000142
 20
2.5980762113532592
 11
0.0000000000000142
 21
0
  0
LINE
  8
_0-2_08_DIM
  6
CONTINUOUS
 62
    3
 10
0.0000000000000142
 20
0
 11
-1.4999999999999858
 21
2.5980762113532592
  0
ENDBLK
  0
BLOCK
  2
-002-p1ba05
 70
   64
 10
0
 20
0
 30
0
  0
ARC
  8
_0-2_08_DIM
  6
CONTINUOUS
 62
    3
 10
0
 20
1.6206695983957429
 40
1.6206695983958537
 50
204.22763733453323
 51
335.57577857182139
  0
ARC
  8
_0-2_08_DIM
  6
CONTINUOUS
 62
    3
 10
-2.9535588745990817
 20
0.2854771617432376
 40
1.6206695983958537
 50
24.227637334533135
 51
155.57577857182133
  0
ENDBLK
  0
BLOCK
  2
-003-M10Tz
 70
   64
 10
0
 20
0
 30
0
  0
CIRCLE
  8
_0-4_0
  6
CONTINUOUS
 62
   18
 10
0
 20
0.0000000000036379
 40
5
  0
LINE
  8
_0-6_05_CENTER
  6
CENTER2
 62
    4
 10
0
 20
-8.3410508113993274
 11
0
 21
8.3410508113993274
  0
CIRCLE
  8
_0-4_0
  6
CONTINUOUS
 62
   18
 10
0
 20
0.0000000000036379
 40
4
  0
LINE
  8
_0-6_05_CENTER
  6
CENTER2
 62
    4
 10
8.3410508113993274
 20
0.0000000000036379
 11
-8.3410508113956894
 21
0.0000000000036379
  0
ENDBLK
  0
BLOCK
  2
-004-M6Za
 70
   64
 10
0
 20
0
 30
0
  0
LINE
  8
_0-6_05_CENTER
  6
CENTER2
 62
    4
 10
0
 20
-7.8431732539141876
 11
0
 21
7.8431732539141876
  0
CIRCLE
  8
_0-4_0
  6
CONTINUOUS
 62
   18
 10
0
 20
0.0000000000183035
 40
5.5
  0
LINE
  8
_0-6_05_CENTER
  6
CENTER2
 62
    4
 10
7.8431732539177119
 20
0.0000000000183035
 11
-7.8431732539320356
 21
0.0000000000183035
  0
CIRCLE
  8
_0-4_0
  6
CONTINUOUS
 62
   18
 10
0
 20
0
 40
3.3999999979091622
  0
ENDBLK
  0
BLOCK
  2
-005-AM_BALLOON1
 70
   64
 10
0
 20
0
 30
0
  0
CIRCLE
  8
_0-2_08_DIM
  6
CONTINUOUS
 62
    3
 10
0
 20
0
 40
5
  0
ENDBLK
  0
BLOCK
  2
-006-_Open30
 70
   64
 10
0
 20
0
 30
0
  0
LINE
  8
_0-2_08_DIM
  6
CONTINUOUS
 62
    3
 10
-1
 20
0.26794919
 11
0
 21
0
  0
LINE
  8
_0-2_08_DIM
  6
CONTINUOUS
 62
    3
 10
0
 20
0
 11
-1
 21
-0.26794919
  0
LINE
  8
_0-2_08_DIM
  6
CONTINUOUS
 62
    3
 10
0
 20
0
 11
-1
 21
0
  0
ENDBLK
  0
BLOCK
  2
-007-AM_DATUM
 70
   64
 10
0
 20
0
 30
0
  0
LINE
  8
_0-2_08_DIM
  6
CONTINUOUS
 62
    3
 10
3
 20
-3
 11
-3
 21
-3
  0
LINE
  8
_0-2_08_DIM
  6
CONTINUOUS
 62
    3
 10
-3
 20
-3
 11
-3
 21
3
  0
LINE
  8
_0-2_08_DIM
  6
CONTINUOUS
 62
    3
 10
-3
 20
3
 11
3
 21
3
  0
LINE
  8
_0-2_08_DIM
  6
CONTINUOUS
 62
    3
 10
3
 20
3
 11
3
 21
-3
  0
ENDBLK
  0
BLOCK
  2
-008-_DatumFilled
 70
   64
 10
0
 20
0
 30
0
  0
SOLID
  8
_0-2_08_DIM
  6
CONTINUOUS
 62
    3
 10
0
 20
-0.57735027
 11
0
 21
0.57735027
 12
0
 22
-0.57735027
 13
-1
 23
0
  0
ENDBLK
  0
BLOCK
  2
-009-_DotSmall
 70
   64
 10
0
 20
0
 30
0
  0
ARC
  8
_0-2_08_DIM
  6
CONTINUOUS
 62
    3
 10
0
 20
0
 40
0.0625
 50
180
 51
0
  0
ARC
  8
_0-2_08_DIM
  6
CONTINUOUS
 62
    3
 10
0
 20
0
 40
0.0625
 50
0
 51
180
  0
ENDBLK
  0
ENDSEC
  0
SECTION
  2
ENTITIES
  0
TEXT
  8
_0-0_90_FRAME
 62
    7
 10
2807.8230493699261
 20
634.61127324923746
 40
20
 41
1
 50
0
  1
AT-221121-08-11
  0
TEXT
  8
_0-0_90_FRAME
 62
    7
 10
2670.8675011276509
 20
588.57625046666612
 40
20
 41
1
 50
0
  1
2025.04.26
  0
LINE
  8
_0-0_90_FRAME
  6
CONTINUOUS
 62
    5
 10
845.81146084682916
 20
577.71280284555814
 11
3050.767661983095
 21
577.71280284555814
  0
LINE
  8
_0-0_90_FRAME
  6
CONTINUOUS
 62
    5
 10
3050.767661983095
 20
577.71280284555814
 11
3050.767661983095
 21
2154.065861393628
  0
LINE
  8
_0-0_90_FRAME
  6
CONTINUOUS
 62
    5
 10
3050.767661983095
 20
2154.065861393628
 11
845.81146084682916
 21
2154.065861393628
  0
LINE
  8
_0-0_90_FRAME
  6
CONTINUOUS
 62
    5
 10
845.81146084682916
 20
2154.065861393628
 11
845.81146084682916
 21
577.71280284555814
  0
LINE
  8
_0-0_90_FRAME
  6
CONTINUOUS
 62
    5
 10
735.48909673299579
 20
1365.8893321195933
 11
845.81146084682916
 21
1365.8893321195933
  0
LINE
  8
_0-0_90_FRAME
  6
CONTINUOUS
 62
    5
 10
3087.5795391258025
 20
1365.8893321195933
 11
3050.767661983095
 21
1365.8893321195933
  0
LINE
  8
_0-0_90_FRAME
  6
CONTINUOUS
 62
    5
 10
1948.2895614149616
 20
2196.557738543931
 11
1948.2895614149618
 21
2154.065861393628
  0
LINE
  8
_0-0_90_FRAME
  6
CONTINUOUS
 62
    5
 10
1948.2895614149618
 20
541.06550653633303
 11
1948.2895614149618
 21
577.71280284555814
  0
LINE
  8
_0-0_90_FRAME
  6
CONTINUOUS
 62
    5
 10
1665.1212757018179
 20
560.72270570276623
 11
2231.4578471281066
 21
560.72270570276623
  0
LINE
  8
_0-0_90_FRAME
  6
CONTINUOUS
 62
    5
 10
1665.1212757018179
 20
560.72270570276623
 11
1665.1212757018179
 21
577.71280284555814
  0
LINE
  8
_0-0_90_FRAME
  6
CONTINUOUS
 62
    5
 10
1721.7549328444479
 20
560.72270570276623
 11
1721.7549328444479
 21
577.71280284555814
  0
LINE
  8
_0-0_90_FRAME
  6
CONTINUOUS
 62
    5
 10
1778.3885899870784
 20
560.72270570276623
 11
1778.3885899870784
 21
577.71280284555814
  0
LINE
  8
_0-0_90_FRAME
  6
CONTINUOUS
 62
    5
 10
1835.0222471297013
 20
560.72270570276623
 11
1835.0222471297013
 21
577.71280284555814
  0
LINE
  8
_0-0_90_FRAME
  6
CONTINUOUS
 62
    5
 10
1891.6559042723316
 20
560.72270570276623
 11
1891.6559042723316
 21
577.71280284555814
  0
LINE
  8
_0-0_90_FRAME
  6
CONTINUOUS
 62
    5
 10
2004.9232185575847
 20
560.72270570276623
 11
2004.9232185575847
 21
577.71280284555814
  0
LINE
  8
_0-0_90_FRAME
  6
CONTINUOUS
 62
    5
 10
2061.5568757002152
 20
560.72270570276623
 11
2061.5568757002152
 21
577.71280284555814
  0
LINE
  8
_0-0_90_FRAME
  6
CONTINUOUS
 62
    5
 10
2118.1905328428456
 20
560.72270570276623
 11
2118.1905328428456
 21
577.71280284555814
  0
LINE
  8
_0-0_90_FRAME
  6
CONTINUOUS
 62
    5
 10
2174.8241899854756
 20
560.72270570276623
 11
2174.8241899854756
 21
577.71280284555814
  0
LINE
  8
_0-0_90_FRAME
  6
CONTINUOUS
 62
    5
 10
2231.4578471281066
 20
560.72270570276623
 11
2231.4578471281066
 21
577.71280284555814
  0
LINE
  8
_0-0_90_FRAME
  6
CONTINUOUS
 62
    4
 10
1378.016950817263
 20
2154.065861393628
 11
1378.016950817263
 21
2190.8777385363283
  0
TEXT
  8
_0-0_90_FRAME
 62
    7
 10
950.5056133944197
 20
2161.3978799839219
 40
11.359999999999999
 41
1
 50
0
  1
1
  0
TEXT
  8
_0-0_90_FRAME
 62
    7
 10
1089.0939788517505
 20
2161.3978799839219
 40
11.359999999999999
 41
1
 50
0
  1
2
  0
TEXT
  8
_0-0_90_FRAME
 62
    7
 10
1279.1848490509835
 20
2161.3978799839219
 40
11.359999999999999
 41
1
 50
0
  1
3
  0
TEXT
  8
_0-0_90_FRAME
 62
    7
 10
1469.2757192502092
 20
2161.3978799839219
 40
11.359999999999999
 41
1
 50
0
  1
4
  0
TEXT
  8
_0-0_90_FRAME
 62
    7
 10
1659.3665894494495
 20
2161.3978799839219
 40
11.359999999999999
 41
1
 50
0
  1
5
  0
TEXT
  8
_0-0_90_FRAME
 62
    7
 10
1849.4574596486752
 20
2161.3978799839219
 40
11.359999999999999
 41
1
 50
0
  1
6
  0
TEXT
  8
_0-0_90_FRAME
 62
    7
 10
2039.5483298479082
 20
2161.3978799839219
 40
11.359999999999999
 41
1
 50
0
  1
7
  0
TEXT
  8
_0-0_90_FRAME
 62
    7
 10
2229.639200047141
 20
2161.3978799839219
 40
11.359999999999999
 41
1
 50
0
  1
8
  0
TEXT
  8
_0-0_90_FRAME
 62
    7
 10
2419.730070246374
 20
2161.3978799839219
 40
11.359999999999999
 41
1
 50
0
  1
9
  0
TEXT
  8
_0-0_90_FRAME
 62
    7
 10
2606.9809404456073
 20
2161.3978799839219
 40
11.359999999999999
 41
1
 50
0
  1
10
  0
TEXT
  8
_0-0_90_FRAME
 62
    7
 10
2798.0184773115002
 20
2161.3978799839219
 40
11.359999999999999
 41
1
 50
0
  1
11
  0
TEXT
  8
_0-0_90_FRAME
 62
    7
 10
2986.2160141773993
 20
2161.3978799839219
 40
11.359999999999999
 41
1
 50
0
  1
12
  0
TEXT
  8
_0-0_90_FRAME
 62
    7
 10
3058.085668367919
 20
1864.2895861300547
 40
11.359999999999999
 41
1
 50
0
  1
B
  0
LINE
  8
_0-0_90_FRAME
  6
CONTINUOUS
 62
    4
 10
3087.5795391258025
 20
962.62512891122378
 11
3050.767661983095
 21
962.62512891122378
  0
LINE
  8
_0-0_90_FRAME
  6
CONTINUOUS
 62
    4
 10
3087.5795391258025
 20
1164.2572305154085
 11
3050.767661983095
 21
1164.2572305154085
  0
LINE
  8
_0-0_90_FRAME
  6
CONTINUOUS
 62
    4
 10
3087.5795391258025
 20
760.99302730703903
 11
3050.767661983095
 21
760.99302730703903
  0
LINE
  8
_0-0_90_FRAME
  6
CONTINUOUS
 62
    4
 10
3087.5795391258025
 20
1769.1535353279626
 11
3050.767661983095
 21
1769.1535353279626
  0
LINE
  8
_0-0_90_FRAME
  6
CONTINUOUS
 62
    4
 10
3087.5795391258025
 20
1567.5214337237776
 11
3050.767661983095
 21
1567.5214337237776
  0
LINE
  8
_0-0_90_FRAME
  6
CONTINUOUS
 62
    4
 10
3087.5795391258025
 20
1970.7856369321473
 11
3050.767661983095
 21
1970.7856369321473
  0
TEXT
  8
_0-0_90_FRAME
 62
    7
 10
3058.085668367919
 20
2065.9216877342396
 40
11.359999999999999
 41
1
 50
0
  1
A
  0
TEXT
  8
_0-0_90_FRAME
 62
    7
 10
3058.085668367919
 20
1662.6574845258704
 40
11.359999999999999
 41
1
 50
0
  1
C
  0
TEXT
  8
_0-0_90_FRAME
 62
    7
 10
3058.085668367919
 20
1461.0253829216856
 40
11.359999999999999
 41
1
 50
0
  1
D
  0
TEXT
  8
_0-0_90_FRAME
 62
    7
 10
3058.085668367919
 20
1057.7611797133161
 40
11.359999999999999
 41
1
 50
0
  1
F
  0
TEXT
  8
_0-0_90_FRAME
 62
    7
 10
3058.085668367919
 20
856.12907810913134
 40
11.359999999999999
 41
1
 50
0
  1
G
  0
TEXT
  8
_0-0_90_FRAME
 62
    7
 10
3058.085668367919
 20
654.4969765049467
 40
11.359999999999999
 41
1
 50
0
  1
H
  0
TEXT
  8
_0-0_90_FRAME
 62
    7
 10
3058.085668367919
 20
1259.3932813175009
 40
11.359999999999999
 41
1
 50
0
  1
E
  0
TEXT
  8
_0-0_90_FRAME
 62
    7
 10
829.08794554130463
 20
1864.2895861300547
 40
11.359999999999999
 41
1
 50
0
  1
B
  0
LINE
  8
_0-0_90_FRAME
  6
CONTINUOUS
 62
    4
 10
845.81146084682916
 20
962.62512891122378
 11
808.99958370412901
 21
962.62512891122378
  0
LINE
  8
_0-0_90_FRAME
  6
CONTINUOUS
 62
    4
 10
845.81146084682916
 20
1164.2572305154085
 11
808.99958370412901
 21
1164.2572305154085
  0
LINE
  8
_0-0_90_FRAME
  6
CONTINUOUS
 62
    4
 10
845.81146084682916
 20
760.99302730703903
 11
808.99958370412901
 21
760.99302730703903
  0
LINE
  8
_0-0_90_FRAME
  6
CONTINUOUS
 62
    4
 10
845.81146084682916
 20
1769.1535353279626
 11
808.99958370412901
 21
1769.1535353279626
  0
LINE
  8
_0-0_90_FRAME
  6
CONTINUOUS
 62
    4
 10
845.81146084682916
 20
1567.5214337237776
 11
808.99958370412901
 21
1567.5214337237776
  0
LINE
  8
_0-0_90_FRAME
  6
CONTINUOUS
 62
    4
 10
845.81146084682916
 20
1970.7856369321473
 11
808.99958370412901
 21
1970.7856369321473
  0
TEXT
  8
_0-0_90_FRAME
 62
    7
 10
829.08794554130463
 20
2065.9216877342396
 40
11.359999999999999
 41
1
 50
0
  1
A
  0
TEXT
  8
_0-0_90_FRAME
 62
    7
 10
829.08794554130463
 20
1662.6574845258704
 40
11.359999999999999
 41
1
 50
0
  1
C
  0
TEXT
  8
_0-0_90_FRAME
 62
    7
 10
829.08794554130463
 20
1461.0253829216856
 40
11.359999999999999
 41
1
 50
0
  1
D
  0
TEXT
  8
_0-0_90_FRAME
 62
    7
 10
829.08794554130463
 20
1057.7611797133161
 40
11.359999999999999
 41
1
 50
0
  1
F
  0
TEXT
  8
_0-0_90_FRAME
 62
    7
 10
829.08794554130463
 20
856.12907810913134
 40
11.359999999999999
 41
1
 50
0
  1
G
  0
TEXT
  8
_0-0_90_FRAME
 62
    7
 10
829.08794554130463
 20
1259.3932813175009
 40
11.359999999999999
 41
1
 50
0
  1
E
  0
TEXT
  8
_0-0_90_FRAME
 62
    7
 10
829.08794554130463
 20
654.4969765049467
 40
11.359999999999999
 41
1
 50
0
  1
H
  0
LINE
  8
_0-0_90_FRAME
  6
CONTINUOUS
 62
    4
 10
1187.9260806180303
 20
2154.065861393628
 11
1187.9260806180303
 21
2190.8777385363283
  0
LINE
  8
_0-0_90_FRAME
  6
CONTINUOUS
 62
    4
 10
997.83521041879726
 20
2154.065861393628
 11
997.83521041879726
 21
2190.8777385363283
  0
LINE
  8
_0-0_90_FRAME
  6
CONTINUOUS
 62
    4
 10
1568.107821016496
 20
2154.065861393628
 11
1568.107821016496
 21
2190.8777385363283
  0
LINE
  8
_0-0_90_FRAME
  6
CONTINUOUS
 62
    4
 10
1758.198691215729
 20
2154.065861393628
 11
1758.198691215729
 21
2190.8777385363283
  0
LINE
  8
_0-0_90_FRAME
  6
CONTINUOUS
 62
    4
 10
2518.5621720126537
 20
2154.065861393628
 11
2518.5621720126537
 21
2190.8777385363283
  0
LINE
  8
_0-0_90_FRAME
  6
CONTINUOUS
 62
    4
 10
2708.6530422118867
 20
2154.065861393628
 11
2708.6530422118867
 21
2190.8777385363283
  0
LINE
  8
_0-0_90_FRAME
  6
CONTINUOUS
 62
    4
 10
2898.7439124111197
 20
2154.065861393628
 11
2898.7439124111197
 21
2190.8777385363283
  0
LINE
  8
_0-0_90_FRAME
  6
CONTINUOUS
 62
    4
 10
2328.4713018134203
 20
2154.065861393628
 11
2328.4713018134203
 21
2190.8777385363283
  0
LINE
  8
_0-0_90_FRAME
  6
CONTINUOUS
 62
    4
 10
2138.3804316141945
 20
2154.065861393628
 11
2138.3804316141945
 21
2190.8777385363283
  0
LINE
  8
_0-0_90_FRAME
  6
CONTINUOUS
 62
    4
 10
1378.016950817263
 20
541.06550653633303
 11
1378.016950817263
 21
577.71280284555814
  0
LINE
  8
_0-0_90_FRAME
  6
CONTINUOUS
 62
    4
 10
1187.9260806180303
 20
541.06550653633303
 11
1187.9260806180303
 21
577.71280284555814
  0
LINE
  8
_0-0_90_FRAME
  6
CONTINUOUS
 62
    4
 10
997.83521041879726
 20
541.06550653633303
 11
997.83521041879726
 21
577.71280284555814
  0
LINE
  8
_0-0_90_FRAME
  6
CONTINUOUS
 62
    4
 10
1568.107821016496
 20
541.06550653633303
 11
1568.107821016496
 21
577.71280284555814
  0
LINE
  8
_0-0_90_FRAME
  6
CONTINUOUS
 62
    4
 10
2518.5621720126537
 20
541.06550653633303
 11
2518.5621720126537
 21
577.71280284555814
  0
LINE
  8
_0-0_90_FRAME
  6
CONTINUOUS
 62
    4
 10
2708.6530422118867
 20
541.06550653633303
 11
2708.6530422118867
 21
577.71280284555814
  0
LINE
  8
_0-0_90_FRAME
  6
CONTINUOUS
 62
    4
 10
2898.7439124111197
 20
541.06550653633303
 11
2898.7439124111197
 21
577.71280284555814
  0
LINE
  8
_0-0_90_FRAME
  6
CONTINUOUS
 62
    4
 10
2328.4713018134203
 20
541.06550653633303
 11
2328.4713018134203
 21
577.71280284555814
  0
LINE
  8
_0-1_91_BLANK
  6
CONTINUOUS
 62
    5
 10
735.48909672377431
 20
541.06550653633303
 11
3087.5795391218949
 21
541.06550653633303
  0
LINE
  8
_0-1_91_BLANK
  6
CONTINUOUS
 62
    5
 10
3087.5795391218949
 20
541.06550653633303
 11
3087.5795391218949
 21
2196.557738543931
  0
LINE
  8
_0-1_91_BLANK
  6
CONTINUOUS
 62
    5
 10
3087.5795391218949
 20
2196.557738543931
 11
735.48909672377431
 21
2196.557738543931
  0
LINE
  8
_0-1_91_BLANK
  6
CONTINUOUS
 62
    5
 10
735.48909672377431
 20
2196.557738543931
 11
735.48909672377431
 21
541.06550653633303
  0
LINE
  8
_0-0_90_FRAME
  6
CONTINUOUS
 62
   18
 10
2258.7676619862923
 20
577.71280284555814
 11
3050.767661983095
 21
577.71280284555814
  0
LINE
  8
_0-0_90_FRAME
  6
CONTINUOUS
 62
   18
 10
3050.767661983095
 20
577.71280284555814
 11
3050.767661983095
 21
724.79851713067819
  0
LINE
  8
_0-0_90_FRAME
  6
CONTINUOUS
 62
   18
 10
3050.767661983095
 20
724.79851713067819
 11
2258.7676619862923
 21
724.79851713067819
  0
LINE
  8
_0-0_90_FRAME
  6
CONTINUOUS
 62
   18
 10
2258.7676619862923
 20
724.79851713067819
 11
2258.7676619862923
 21
577.71280284555814
  0
LINE
  8
_0-0_90_FRAME
  6
CONTINUOUS
 62
   18
 10
2321.1376619860439
 20
699.34137427363657
 11
2360.7376619858824
 21
709.24137427359801
  0
LINE
  8
_0-0_90_FRAME
  6
CONTINUOUS
 62
   18
 10
2360.7376619858824
 20
709.24137427359801
 11
2360.7376619858824
 21
669.64137427375954
  0
LINE
  8
_0-0_90_FRAME
  6
CONTINUOUS
 62
   18
 10
2360.7376619858824
 20
669.64137427375954
 11
2321.1376619860439
 21
679.54137427371745
  0
LINE
  8
_0-0_90_FRAME
  6
CONTINUOUS
 62
   18
 10
2321.1376619860439
 20
679.54137427371745
 11
2321.1376619860439
 21
699.34137427363657
  0
CIRCLE
  8
_0-0_90_FRAME
  6
CONTINUOUS
 62
   18
 10
2295.3976619861442
 20
689.44137427367514
 40
9.8999999999600004
  0
CIRCLE
  8
_0-0_90_FRAME
  6
CONTINUOUS
 62
   18
 10
2295.3976619861442
 20
689.44137427367514
 40
19.799999999920001
  0
LINE
  8
_0-0_90_FRAME
  6
CONTINUOUS
 62
   18
 10
2271.6376619862403
 20
689.44137427367514
 11
2364.6976619858633
 21
689.44137427367514
  0
LINE
  8
_0-0_90_FRAME
  6
CONTINUOUS
 62
   18
 10
2295.3976619861442
 20
665.68137427377496
 11
2295.3976619861442
 21
713.20137427358259
  0
LINE
  8
_0-0_90_FRAME
  6
CONTINUOUS
 62
   18
 10
2583.1962334134932
 20
577.71280284555814
 11
2583.1962334134932
 21
724.79851713067819
  0
LINE
  8
_0-0_90_FRAME
  6
CONTINUOUS
 62
   18
 10
2583.1962334134932
 20
622.96994570251718
 11
3050.767661983095
 21
622.96994570251718
  0
TEXT
  8
_0-0_90_FRAME
 62
    7
 10
2585.2244004432164
 20
608.89810471542933
 40
10
 41
1
 50
0
  1
Źņ É¼ ō·
  0
LINE
  8
_0-0_90_FRAME
  6
CONTINUOUS
 62
   18
 10
2859.7390905552511
 20
622.96994570251718
 11
2859.7390905552511
 21
577.71280284555814
  0
TEXT
  8
_0-0_90_FRAME
 62
    7
 10
2862.1139775427855
 20
608.62154097617076
 40
10
 41
1
 50
0
  1
ī┬Éö
  0
TEXT
  8
_0-0_90_FRAME
 62
    7
 10
2489.6760223831061
 20
711.68744478593999
 40
10
 41
1
 50
0
  1
āTāCāY
  0
TEXT
  8
_0-0_90_FRAME
 62
    7
 10
2379.3617366692688
 20
710.9416294563116
 40
10
 41
1
 50
0
  1
Ä┌ü@ōx
  0
TEXT
  8
_0-0_90_FRAME
 62
    7
 10
2489.6760833287826
 20
640.97315907194127
 40
10
 41
1
 50
0
  1
É╗ü@É}
  0
LINE
  8
_0-0_90_FRAME
  6
CONTINUOUS
 62
   18
 10
2583.1962334134932
 20
654.08423141667572
 11
2258.7676619862923
 21
654.08423141667572
  0
LINE
  8
_0-0_90_FRAME
  6
CONTINUOUS
 62
   18
 10
2734.2438357107658
 20
668.22708855947621
 11
3050.767661983095
 21
668.22708855947621
  0
TEXT
  8
_0-0_90_FRAME
 62
    7
 10
2522.5441666987031
 20
671.05718283063663
 40
20
 41
1
 50
0
  1
A2
  0
LINE
  8
_0-0_90_FRAME
  6
CONTINUOUS
 62
   18
 10
2487.8819476996523
 20
577.71280284555814
 11
2487.8819476996523
 21
724.79851713067819
  0
TEXT
  8
_0-0_90_FRAME
 62
    2
 10
2328.7487148212012
 20
593.27742480018856
 40
20
 41
1
 50
0
  1
āAāNāAāgāŖāĆ
  0
LINE
  8
_0-0_90_FRAME
  6
CONTINUOUS
 62
    4
 10
2322.5959486385382
 20
644.39735452568402
 11
2322.5959486385382
 21
585.2246403099208
  0
LINE
  8
_0-0_90_FRAME
  6
CONTINUOUS
 62
    4
 10
2322.5959486385382
 20
585.2246403099208
 11
2268.8025720787537
 21
585.2246403099208
  0
LINE
  8
_0-0_90_FRAME
  6
CONTINUOUS
 62
    4
 10
2268.8025720787537
 20
585.2246403099208
 11
2268.8025720787537
 21
644.39735452568402
  0
LINE
  8
_0-0_90_FRAME
  6
CONTINUOUS
 62
    4
 10
2269.058731014753
 20
644.14119558968287
 11
2269.058731014753
 21
644.14119558968287
  0
LINE
  8
_0-0_90_FRAME
  6
CONTINUOUS
 62
    4
 10
2269.058731014753
 20
644.14119558968287
 11
2269.191046428763
 21
642.80674961680324
  0
LINE
  8
_0-0_90_FRAME
  6
CONTINUOUS
 62
    4
 10
2269.191046428763
 20
642.80674961680324
 11
2269.5839723338936
 21
641.51285010954734
  0
LINE
  8
_0-0_90_FRAME
  6
CONTINUOUS
 62
    4
 10
2269.5839723338936
 20
641.51285010954734
 11
2270.225569875347
 21
640.29881154969837
  0
LINE
  8
_0-0_90_FRAME
  6
CONTINUOUS
 62
    4
 10
2270.225569875347
 20
640.29881154969837
 11
2271.0963444364902
 21
639.20152188456416
  0
LINE
  8
_0-0_90_FRAME
  6
CONTINUOUS
 62
    4
 10
2271.0963444364902
 20
639.20152188456416
 11
2272.1698379729164
 21
638.25432170536453
  0
LINE
  8
_0-0_90_FRAME
  6
CONTINUOUS
 62
    4
 10
2272.1698379729164
 20
638.25432170536453
 11
2273.4134329267354
 21
637.48599121023801
  0
LINE
  8
_0-0_90_FRAME
  6
CONTINUOUS
 62
    4
 10
2273.4134329267354
 20
637.48599121023801
 11
2274.7893432945643
 21
636.91987573248491
  0
LINE
  8
_0-0_90_FRAME
  6
CONTINUOUS
 62
    4
 10
2274.7893432945643
 20
636.91987573248491
 11
2276.2557627361207
 21
636.57317640442875
  0
LINE
  8
_0-0_90_FRAME
  6
CONTINUOUS
 62
    4
 10
2276.2557627361207
 20
636.57317640442875
 11
2277.7681348387177
 21
636.45642750971388
  0
LINE
  8
_0-0_90_FRAME
  6
CONTINUOUS
 62
    4
 10
2277.7681348387177
 20
636.45642750971388
 11
2279.2805069413148
 21
636.57317640442875
  0
LINE
  8
_0-0_90_FRAME
  6
CONTINUOUS
 62
    4
 10
2279.2805069413148
 20
636.57317640442875
 11
2280.7469263828712
 21
636.91987573248491
  0
LINE
  8
_0-0_90_FRAME
  6
CONTINUOUS
 62
    4
 10
2280.7469263828712
 20
636.91987573248491
 11
2282.1228367507001
 21
637.48599121023801
  0
LINE
  8
_0-0_90_FRAME
  6
CONTINUOUS
 62
    4
 10
2282.1228367507001
 20
637.48599121023801
 11
2283.3664317045191
 21
638.25432170536453
  0
LINE
  8
_0-0_90_FRAME
  6
CONTINUOUS
 62
    4
 10
2283.3664317045191
 20
638.25432170536453
 11
2284.4399252409453
 21
639.20152188456416
  0
LINE
  8
_0-0_90_FRAME
  6
CONTINUOUS
 62
    4
 10
2284.4399252409453
 20
639.20152188456416
 11
2285.3106998020885
 21
640.29881154969837
  0
LINE
  8
_0-0_90_FRAME
  6
CONTINUOUS
 62
    4
 10
2285.3106998020885
 20
640.29881154969837
 11
2285.9522973435419
 21
641.51285010954734
  0
LINE
  8
_0-0_90_FRAME
  6
CONTINUOUS
 62
    4
 10
2285.9522973435419
 20
641.51285010954734
 11
2286.3452232486725
 21
642.80674961680324
  0
LINE
  8
_0-0_90_FRAME
  6
CONTINUOUS
 62
    4
 10
2286.3452232486725
 20
642.80674961680324
 11
2286.4775386626825
 21
644.14119558968287
  0
LINE
  8
_0-0_90_FRAME
  6
CONTINUOUS
 62
    4
 10
2286.4775386626825
 20
644.14119558968287
 11
2286.4775386626825
 21
644.14119558968287
  0
ARC
  8
_0-0_90_FRAME
  6
CONTINUOUS
 62
    4
 10
2286.7336975986818
 20
644.14119558968287
 40
0.2561589359989651
 50
0
 51
180
  0
LINE
  8
_0-0_90_FRAME
  6
CONTINUOUS
 62
    4
 10
2286.9898565346812
 20
644.14119558968287
 11
2286.9898565346812
 21
644.14119558968287
  0
LINE
  8
_0-0_90_FRAME
  6
CONTINUOUS
 62
    4
 10
2286.9898565346812
 20
644.14119558968287
 11
2287.1221719486912
 21
642.80674961680324
  0
LINE
  8
_0-0_90_FRAME
  6
CONTINUOUS
 62
    4
 10
2287.1221719486912
 20
642.80674961680324
 11
2287.5150978538218
 21
641.51285010954734
  0
LINE
  8
_0-0_90_FRAME
  6
CONTINUOUS
 62
    4
 10
2287.5150978538218
 20
641.51285010954734
 11
2288.1566953952752
 21
640.29881154969837
  0
LINE
  8
_0-0_90_FRAME
  6
CONTINUOUS
 62
    4
 10
2288.1566953952752
 20
640.29881154969837
 11
2289.0274699564184
 21
639.20152188456416
  0
LINE
  8
_0-0_90_FRAME
  6
CONTINUOUS
 62
    4
 10
2289.0274699564184
 20
639.20152188456416
 11
2290.1009634928446
 21
638.25432170536453
  0
LINE
  8
_0-0_90_FRAME
  6
CONTINUOUS
 62
    4
 10
2290.1009634928446
 20
638.25432170536453
 11
2291.3445584466635
 21
637.48599121023801
  0
LINE
  8
_0-0_90_FRAME
  6
CONTINUOUS
 62
    4
 10
2291.3445584466635
 20
637.48599121023801
 11
2292.7204688144925
 21
636.91987573248491
  0
LINE
  8
_0-0_90_FRAME
  6
CONTINUOUS
 62
    4
 10
2292.7204688144925
 20
636.91987573248491
 11
2294.1868882560489
 21
636.57317640442875
  0
LINE
  8
_0-0_90_FRAME
  6
CONTINUOUS
 62
    4
 10
2294.1868882560489
 20
636.57317640442875
 11
2295.6992603586459
 21
636.45642750971388
  0
LINE
  8
_0-0_90_FRAME
  6
CONTINUOUS
 62
    4
 10
2295.6992603586459
 20
636.45642750971388
 11
2297.211632461243
 21
636.57317640442875
  0
LINE
  8
_0-0_90_FRAME
  6
CONTINUOUS
 62
    4
 10
2297.211632461243
 20
636.57317640442875
 11
2298.6780519027993
 21
636.91987573248491
  0
LINE
  8
_0-0_90_FRAME
  6
CONTINUOUS
 62
    4
 10
2298.6780519027993
 20
636.91987573248491
 11
2300.0539622706283
 21
637.48599121023801
  0
LINE
  8
_0-0_90_FRAME
  6
CONTINUOUS
 62
    4
 10
2300.0539622706283
 20
637.48599121023801
 11
2301.2975572244472
 21
638.25432170536453
  0
LINE
  8
_0-0_90_FRAME
  6
CONTINUOUS
 62
    4
 10
2301.2975572244472
 20
638.25432170536453
 11
2302.3710507608735
 21
639.20152188456416
  0
LINE
  8
_0-0_90_FRAME
  6
CONTINUOUS
 62
    4
 10
2302.3710507608735
 20
639.20152188456416
 11
2303.2418253220167
 21
640.29881154969837
  0
LINE
  8
_0-0_90_FRAME
  6
CONTINUOUS
 62
    4
 10
2303.2418253220167
 20
640.29881154969837
 11
2303.8834228634701
 21
641.51285010954734
  0
LINE
  8
_0-0_90_FRAME
  6
CONTINUOUS
 62
    4
 10
2303.8834228634701
 20
641.51285010954734
 11
2304.2763487686007
 21
642.80674961680324
  0
LINE
  8
_0-0_90_FRAME
  6
CONTINUOUS
 62
    4
 10
2304.2763487686007
 20
642.80674961680324
 11
2304.4086641826107
 21
644.14119558968287
  0
LINE
  8
_0-0_90_FRAME
  6
CONTINUOUS
 62
    4
 10
2304.4086641826107
 20
644.14119558968287
 11
2304.4086641826107
 21
644.14119558968287
  0
ARC
  8
_0-0_90_FRAME
  6
CONTINUOUS
 62
    4
 10
2304.66482311861
 20
644.14119558968287
 40
0.2561589359989651
 50
0
 51
180
  0
LINE
  8
_0-0_90_FRAME
  6
CONTINUOUS
 62
    4
 10
2304.9209820546093
 20
644.14119558968287
 11
2304.9209820546093
 21
644.14119558968287
  0
LINE
  8
_0-0_90_FRAME
  6
CONTINUOUS
 62
    4
 10
2304.9209820546093
 20
644.14119558968287
 11
2305.0532974686193
 21
642.80674961680324
  0
LINE
  8
_0-0_90_FRAME
  6
CONTINUOUS
 62
    4
 10
2305.0532974686193
 20
642.80674961680324
 11
2305.4462233737499
 21
641.51285010954734
  0
LINE
  8
_0-0_90_FRAME
  6
CONTINUOUS
 62
    4
 10
2305.4462233737499
 20
641.51285010954734
 11
2306.0878209152033
 21
640.29881154969837
  0
LINE
  8
_0-0_90_FRAME
  6
CONTINUOUS
 62
    4
 10
2306.0878209152033
 20
640.29881154969837
 11
2306.9585954763465
 21
639.20152188456416
  0
LINE
  8
_0-0_90_FRAME
  6
CONTINUOUS
 62
    4
 10
2306.9585954763465
 20
639.20152188456416
 11
2308.0320890127728
 21
638.25432170536453
  0
LINE
  8
_0-0_90_FRAME
  6
CONTINUOUS
 62
    4
 10
2308.0320890127728
 20
638.25432170536453
 11
2309.2756839665917
 21
637.48599121023801
  0
LINE
  8
_0-0_90_FRAME
  6
CONTINUOUS
 62
    4
 10
2309.2756839665917
 20
637.48599121023801
 11
2310.6515943344207
 21
636.91987573248491
  0
LINE
  8
_0-0_90_FRAME
  6
CONTINUOUS
 62
    4
 10
2310.6515943344207
 20
636.91987573248491
 11
2312.118013775977
 21
636.57317640442875
  0
LINE
  8
_0-0_90_FRAME
  6
CONTINUOUS
 62
    4
 10
2312.118013775977
 20
636.57317640442875
 11
2313.6303858785741
 21
636.45642750971388
  0
LINE
  8
_0-0_90_FRAME
  6
CONTINUOUS
 62
    4
 10
2313.6303858785741
 20
636.45642750971388
 11
2315.1427579811711
 21
636.57317640442875
  0
LINE
  8
_0-0_90_FRAME
  6
CONTINUOUS
 62
    4
 10
2315.1427579811711
 20
636.57317640442875
 11
2316.6091774227275
 21
636.91987573248491
  0
LINE
  8
_0-0_90_FRAME
  6
CONTINUOUS
 62
    4
 10
2316.6091774227275
 20
636.91987573248491
 11
2317.9850877905565
 21
637.48599121023801
  0
LINE
  8
_0-0_90_FRAME
  6
CONTINUOUS
 62
    4
 10
2317.9850877905565
 20
637.48599121023801
 11
2319.2286827443754
 21
638.25432170536453
  0
LINE
  8
_0-0_90_FRAME
  6
CONTINUOUS
 62
    4
 10
2319.2286827443754
 20
638.25432170536453
 11
2320.3021762808016
 21
639.20152188456416
  0
LINE
  8
_0-0_90_FRAME
  6
CONTINUOUS
 62
    4
 10
2320.3021762808016
 20
639.20152188456416
 11
2321.1729508419448
 21
640.29881154969837
  0
LINE
  8
_0-0_90_FRAME
  6
CONTINUOUS
 62
    4
 10
2321.1729508419448
 20
640.29881154969837
 11
2321.8145483833982
 21
641.51285010954734
  0
LINE
  8
_0-0_90_FRAME
  6
CONTINUOUS
 62
    4
 10
2321.8145483833982
 20
641.51285010954734
 11
2322.2074742885288
 21
642.80674961680324
  0
LINE
  8
_0-0_90_FRAME
  6
CONTINUOUS
 62
    4
 10
2322.2074742885288
 20
642.80674961680324
 11
2322.3397897025388
 21
644.14119558968287
  0
LINE
  8
_0-0_90_FRAME
  6
CONTINUOUS
 62
    4
 10
2322.3397897025388
 20
644.14119558968287
 11
2322.3397897025388
 21
644.14119558968287
  0
ARC
  8
_0-0_90_FRAME
  6
CONTINUOUS
 62
    4
 10
2322.5959486385382
 20
644.14119558968287
 40
0.2561589359989651
 50
90
 51
180
  0
ARC
  8
_0-0_90_FRAME
  6
CONTINUOUS
 62
    4
 10
2286.7336975986818
 20
644.14119558968287
 40
0.2561589359989651
 50
0
 51
90
  0
ARC
  8
_0-0_90_FRAME
  6
CONTINUOUS
 62
    4
 10
2268.8025720787537
 20
644.14119558968287
 40
0.2561589359989651
 50
0
 51
90
  0
LINE
  8
_0-0_90_FRAME
  6
CONTINUOUS
 62
    4
 10
2274.9503865427305
 20
592.9094083898899
 11
2278.0242937747153
 21
592.9094083898899
  0
LINE
  8
_0-0_90_FRAME
  6
CONTINUOUS
 62
    4
 10
2278.0242937747153
 20
592.9094083898899
 11
2278.0242937747153
 21
589.83550115790331
  0
LINE
  8
_0-0_90_FRAME
  6
CONTINUOUS
 62
    4
 10
2278.0242937747153
 20
589.83550115790331
 11
2274.9503865427305
 21
589.83550115790331
  0
LINE
  8
_0-0_90_FRAME
  6
CONTINUOUS
 62
    4
 10
2274.9503865427305
 20
592.9094083898899
 11
2274.9503865427305
 21
589.83550115790331
  0
LINE
  8
_0-0_90_FRAME
  6
CONTINUOUS
 62
    4
 10
2316.4481341745613
 20
592.9094083898899
 11
2313.3742269425766
 21
592.9094083898899
  0
LINE
  8
_0-0_90_FRAME
  6
CONTINUOUS
 62
    4
 10
2313.3742269425766
 20
592.9094083898899
 11
2313.3742269425766
 21
589.83550115790331
  0
LINE
  8
_0-0_90_FRAME
  6
CONTINUOUS
 62
    4
 10
2313.3742269425766
 20
589.83550115790331
 11
2316.4481341745613
 21
589.83550115790331
  0
LINE
  8
_0-0_90_FRAME
  6
CONTINUOUS
 62
    4
 10
2316.4481341745613
 20
592.9094083898899
 11
2316.4481341745613
 21
589.83550115790331
  0
LINE
  8
_0-0_90_FRAME
  6
CONTINUOUS
 62
    4
 10
2282.6351546226997
 20
592.9094083898899
 11
2285.7090618546845
 21
592.9094083898899
  0
LINE
  8
_0-0_90_FRAME
  6
CONTINUOUS
 62
    4
 10
2285.7090618546845
 20
592.9094083898899
 11
2285.7090618546845
 21
589.83550115790331
  0
LINE
  8
_0-0_90_FRAME
  6
CONTINUOUS
 62
    4
 10
2285.7090618546845
 20
589.83550115790331
 11
2282.6351546226997
 21
589.83550115790331
  0
LINE
  8
_0-0_90_FRAME
  6
CONTINUOUS
 62
    4
 10
2282.6351546226997
 20
592.9094083898899
 11
2282.6351546226997
 21
589.83550115790331
  0
LINE
  8
_0-0_90_FRAME
  6
CONTINUOUS
 62
    4
 10
2290.3199227026689
 20
592.9094083898899
 11
2293.3938299346537
 21
592.9094083898899
  0
LINE
  8
_0-0_90_FRAME
  6
CONTINUOUS
 62
    4
 10
2293.3938299346537
 20
592.9094083898899
 11
2293.3938299346537
 21
589.83550115790331
  0
LINE
  8
_0-0_90_FRAME
  6
CONTINUOUS
 62
    4
 10
2293.3938299346537
 20
589.83550115790331
 11
2290.3199227026689
 21
589.83550115790331
  0
LINE
  8
_0-0_90_FRAME
  6
CONTINUOUS
 62
    4
 10
2290.3199227026689
 20
592.9094083898899
 11
2290.3199227026689
 21
589.83550115790331
  0
LINE
  8
_0-0_90_FRAME
  6
CONTINUOUS
 62
    4
 10
2298.0046907826381
 20
592.9094083898899
 11
2301.0785980146229
 21
592.9094083898899
  0
LINE
  8
_0-0_90_FRAME
  6
CONTINUOUS
 62
    4
 10
2301.0785980146229
 20
592.9094083898899
 11
2301.0785980146229
 21
589.83550115790331
  0
LINE
  8
_0-0_90_FRAME
  6
CONTINUOUS
 62
    4
 10
2301.0785980146229
 20
589.83550115790331
 11
2298.0046907826381
 21
589.83550115790331
  0
LINE
  8
_0-0_90_FRAME
  6
CONTINUOUS
 62
    4
 10
2298.0046907826381
 20
592.9094083898899
 11
2298.0046907826381
 21
589.83550115790331
  0
LINE
  8
_0-0_90_FRAME
  6
CONTINUOUS
 62
    4
 10
2305.6894588626074
 20
592.9094083898899
 11
2308.7633660945921
 21
592.9094083898899
  0
LINE
  8
_0-0_90_FRAME
  6
CONTINUOUS
 62
    4
 10
2308.7633660945921
 20
592.9094083898899
 11
2308.7633660945921
 21
589.83550115790331
  0
LINE
  8
_0-0_90_FRAME
  6
CONTINUOUS
 62
    4
 10
2308.7633660945921
 20
589.83550115790331
 11
2305.6894588626074
 21
589.83550115790331
  0
LINE
  8
_0-0_90_FRAME
  6
CONTINUOUS
 62
    4
 10
2305.6894588626074
 20
592.9094083898899
 11
2305.6894588626074
 21
589.83550115790331
  0
LINE
  8
_0-0_90_FRAME
  6
CONTINUOUS
 62
    4
 10
2295.6674310911717
 20
622.1591159842128
 11
2295.6674310911717
 21
622.1591159842128
  0
LINE
  8
_0-0_90_FRAME
  6
CONTINUOUS
 62
    4
 10
2295.6674310911717
 20
622.1591159842128
 11
2295.577923605224
 21
623.1377096976579
  0
LINE
  8
_0-0_90_FRAME
  6
CONTINUOUS
 62
    4
 10
2295.577923605224
 20
623.1377096976579
 11
2295.3121207870472
 21
624.08656933631221
  0
LINE
  8
_0-0_90_FRAME
  6
CONTINUOUS
 62
    4
 10
2295.3121207870472
 20
624.08656933631221
 11
2294.8780989207698
 21
624.97686428020143
  0
LINE
  8
_0-0_90_FRAME
  6
CONTINUOUS
 62
    4
 10
2294.8780989207698
 20
624.97686428020143
 11
2294.289045541173
 21
625.78154336796649
  0
LINE
  8
_0-0_90_FRAME
  6
CONTINUOUS
 62
    4
 10
2294.289045541173
 20
625.78154336796649
 11
2293.5628587371198
 21
626.47615683271295
  0
LINE
  8
_0-0_90_FRAME
  6
CONTINUOUS
 62
    4
 10
2293.5628587371198
 20
626.47615683271295
 11
2292.7216033271839
 21
627.03959919580575
  0
LINE
  8
_0-0_90_FRAME
  6
CONTINUOUS
 62
    4
 10
2292.7216033271839
 20
627.03959919580575
 11
2291.7908404312993
 21
627.45475054615792
  0
LINE
  8
_0-0_90_FRAME
  6
CONTINUOUS
 62
    4
 10
2291.7908404312993
 20
627.45475054615792
 11
2290.7988508090698
 21
627.7089967200659
  0
LINE
  8
_0-0_90_FRAME
  6
CONTINUOUS
 62
    4
 10
2290.7988508090698
 20
627.7089967200659
 11
2289.7757755631956
 21
627.79461257619005
  0
LINE
  8
_0-0_90_FRAME
  6
CONTINUOUS
 62
    4
 10
2289.7757755631956
 20
627.79461257619005
 11
2288.7527003173213
 21
627.7089967200659
  0
LINE
  8
_0-0_90_FRAME
  6
CONTINUOUS
 62
    4
 10
2288.7527003173213
 20
627.7089967200659
 11
2287.7607106950918
 21
627.45475054615792
  0
LINE
  8
_0-0_90_FRAME
  6
CONTINUOUS
 62
    4
 10
2287.7607106950918
 20
627.45475054615792
 11
2286.8299477992073
 21
627.03959919580575
  0
LINE
  8
_0-0_90_FRAME
  6
CONTINUOUS
 62
    4
 10
2286.8299477992073
 20
627.03959919580575
 11
2285.9886923892714
 21
626.47615683271295
  0
LINE
  8
_0-0_90_FRAME
  6
CONTINUOUS
 62
    4
 10
2285.9886923892714
 20
626.47615683271295
 11
2285.2625055852182
 21
625.78154336796649
  0
LINE
  8
_0-0_90_FRAME
  6
CONTINUOUS
 62
    4
 10
2285.2625055852182
 20
625.78154336796649
 11
2284.6734522056213
 21
624.97686428020143
  0
LINE
  8
_0-0_90_FRAME
  6
CONTINUOUS
 62
    4
 10
2284.6734522056213
 20
624.97686428020143
 11
2284.2394303393439
 21
624.08656933631221
  0
LINE
  8
_0-0_90_FRAME
  6
CONTINUOUS
 62
    4
 10
2284.2394303393439
 20
624.08656933631221
 11
2283.9736275211671
 21
623.1377096976579
  0
LINE
  8
_0-0_90_FRAME
  6
CONTINUOUS
 62
    4
 10
2283.9736275211671
 20
623.1377096976579
 11
2283.8841200352194
 21
622.1591159842128
  0
LINE
  8
_0-0_90_FRAME
  6
CONTINUOUS
 62
    4
 10
2283.8841200352194
 20
622.1591159842128
 11
2283.8841200352194
 21
622.1591159842128
  0
LINE
  8
_0-0_90_FRAME
  6
CONTINUOUS
 62
    4
 10
2295.6674310911712
 20
622.1591159842128
 11
2295.6674310911712
 21
620.6221623682186
  0
LINE
  8
_0-0_90_FRAME
  6
CONTINUOUS
 62
    4
 10
2292.8877225325377
 20
615.83693438874047
 11
2292.8877225325377
 21
615.83693438874047
  0
LINE
  8
_0-0_90_FRAME
  6
CONTINUOUS
 62
    4
 10
2292.8877225325377
 20
615.83693438874047
 11
2291.9717286691025
 21
615.39274378692835
  0
LINE
  8
_0-0_90_FRAME
  6
CONTINUOUS
 62
    4
 10
2291.9717286691025
 20
615.39274378692835
 11
2290.9890118817498
 21
615.10744642249529
  0
LINE
  8
_0-0_90_FRAME
  6
CONTINUOUS
 62
    4
 10
2290.9890118817498
 20
615.10744642249529
 11
2289.9694315227853
 21
614.98971091149201
  0
LINE
  8
_0-0_90_FRAME
  6
CONTINUOUS
 62
    4
 10
2289.9694315227853
 20
614.98971091149201
 11
2288.9439670254828
 21
615.04311458784355
  0
LINE
  8
_0-0_90_FRAME
  6
CONTINUOUS
 62
    4
 10
2288.9439670254828
 20
615.04311458784355
 11
2287.9437766096839
 21
615.2660348078673
  0
LINE
  8
_0-0_90_FRAME
  6
CONTINUOUS
 62
    4
 10
2287.9437766096839
 20
615.2660348078673
 11
2286.9992505550508
 21
615.65169825348096
  0
LINE
  8
_0-0_90_FRAME
  6
CONTINUOUS
 62
    4
 10
2286.9992505550508
 20
615.65169825348096
 11
2286.1390878078009
 21
616.18838673604478
  0
LINE
  8
_0-0_90_FRAME
  6
CONTINUOUS
 62
    4
 10
2286.1390878078009
 20
616.18838673604478
 11
2285.389423977746
 21
616.85979324759342
  0
LINE
  8
_0-0_90_FRAME
  6
CONTINUOUS
 62
    4
 10
2285.389423977746
 20
616.85979324759342
 11
2284.773037221014
 21
617.64551744102175
  0
LINE
  8
_0-0_90_FRAME
  6
CONTINUOUS
 62
    4
 10
2284.773037221014
 20
617.64551744102175
 11
2284.3086561373011
 21
618.5216854843078
  0
LINE
  8
_0-0_90_FRAME
  6
CONTINUOUS
 62
    4
 10
2284.3086561373011
 20
618.5216854843078
 11
2284.0103907108482
 21
619.46167545481899
  0
LINE
  8
_0-0_90_FRAME
  6
CONTINUOUS
 62
    4
 10
2284.0103907108482
 20
619.46167545481899
 11
2283.8873035857087
 21
620.43692623295908
  0
LINE
  8
_0-0_90_FRAME
  6
CONTINUOUS
 62
    4
 10
2283.8873035857087
 20
620.43692623295908
 11
2283.8841200352194
 21
620.6221623682186
  0
LINE
  8
_0-0_90_FRAME
  6
CONTINUOUS
 62
    4
 10
2293.5325620346866
 20
622.0083969765974
 11
2293.5325620346866
 21
620.77883408380239
  0
LINE
  8
_0-0_90_FRAME
  6
CONTINUOUS
 62
    4
 10
2307.6102277427035
 20
620.1587647858496
 11
2307.6102277427035
 21
627.79461257619096
  0
LINE
  8
_0-0_90_FRAME
  6
CONTINUOUS
 62
    4
 10
2305.3047973187113
 20
620.6221623682186
 11
2305.3047973187113
 21
627.79461257619096
  0
LINE
  8
_0-0_90_FRAME
  6
CONTINUOUS
 62
    4
 10
2305.3047973187113
 20
627.79461257619096
 11
2307.6102277427035
 21
627.79461257619096
  0
LINE
  8
_0-0_90_FRAME
  6
CONTINUOUS
 62
    4
 10
2296.8515524307459
 20
620.1587647858496
 11
2296.8515524307459
 21
627.79461257619096
  0
LINE
  8
_0-0_90_FRAME
  6
CONTINUOUS
 62
    4
 10
2299.1569828547381
 20
620.6221623682186
 11
2299.1569828547381
 21
627.79461257619096
  0
ARC
  8
_0-0_90_FRAME
  6
CONTINUOUS
 62
    4
 10
2302.2666963698484
 20
620.39046357703683
 40
5.4200985425585984
 50
182.45003099226136
 51
265.55525728852427
  0
LINE
  8
_0-0_90_FRAME
  6
CONTINUOUS
 62
    4
 10
2299.1569828547381
 20
627.79461257619096
 11
2296.8515524307459
 21
627.79461257619096
  0
LINE
  8
_0-0_90_FRAME
  6
CONTINUOUS
 62
    4
 10
2302.6151284907228
 20
614.98666577624226
 11
2301.8466516827266
 21
614.98666577624226
  0
ARC
  8
_0-0_90_FRAME
  6
CONTINUOUS
 62
    4
 10
2303.7299348595461
 20
620.56252217359452
 40
4.5733409003826422
 50
179.25279388138676
 51
218.96457184688023
  0
ARC
  8
_0-0_90_FRAME
  6
CONTINUOUS
 62
    4
 10
2300.7318453139032
 20
620.56252217359452
 40
4.573340900382127
 50
321.03542815311977
 51
0.747206118613265
  0
ARC
  8
_0-0_90_FRAME
  6
CONTINUOUS
 62
    4
 10
2302.2308900867265
 20
621.42155839745737
 40
4.2638625348001273
 50
241.1577278083189
 51
298.8422721916811
  0
LINE
  8
_0-0_90_FRAME
  6
CONTINUOUS
 62
    4
 10
2290.2723308135774
 20
618.38233678939559
 11
2291.3182853179042
 21
617.36437260185721
  0
LINE
  8
_0-0_90_FRAME
  6
CONTINUOUS
 62
    4
 10
2290.2723308135774
 20
618.38233678939559
 11
2291.4069760041912
 21
619.58717195989539
  0
LINE
  8
_0-0_90_FRAME
  6
CONTINUOUS
 62
    4
 10
2294.6686738731059
 20
614.10364228382878
 11
2296.1511999400736
 21
615.67787849567958
  0
LINE
  8
_0-0_90_FRAME
  6
CONTINUOUS
 62
    4
 10
2286.0189890917045
 20
622.0083969765974
 11
2286.0189890917045
 21
620.77883408380239
  0
LINE
  8
_0-0_90_FRAME
  6
CONTINUOUS
 62
    4
 10
2293.5325620346862
 20
622.0083969765974
 11
2293.5325620346862
 21
622.0083969765974
  0
LINE
  8
_0-0_90_FRAME
  6
CONTINUOUS
 62
    4
 10
2293.5325620346862
 20
622.0083969765974
 11
2293.4754880067312
 21
622.65731051162015
  0
LINE
  8
_0-0_90_FRAME
  6
CONTINUOUS
 62
    4
 10
2293.4754880067312
 20
622.65731051162015
 11
2293.3060000883238
 21
623.28650713724733
  0
LINE
  8
_0-0_90_FRAME
  6
CONTINUOUS
 62
    4
 10
2293.3060000883238
 20
623.28650713724733
 11
2293.0292480841003
 21
623.87686903239819
  0
LINE
  8
_0-0_90_FRAME
  6
CONTINUOUS
 62
    4
 10
2293.0292480841003
 20
623.87686903239819
 11
2292.6536409636656
 21
624.41045834962597
  0
LINE
  8
_0-0_90_FRAME
  6
CONTINUOUS
 62
    4
 10
2292.6536409636656
 20
624.41045834962597
 11
2292.1905913593077
 21
624.87106224753597
  0
LINE
  8
_0-0_90_FRAME
  6
CONTINUOUS
 62
    4
 10
2292.1905913593077
 20
624.87106224753597
 11
2291.6541687989411
 21
625.24468550976701
  0
LINE
  8
_0-0_90_FRAME
  6
CONTINUOUS
 62
    4
 10
2291.6541687989411
 20
625.24468550976701
 11
2291.0606722106186
 21
625.51997578255873
  0
LINE
  8
_0-0_90_FRAME
  6
CONTINUOUS
 62
    4
 10
2291.0606722106186
 20
625.51997578255873
 11
2290.4281346878538
 21
625.6885685102759
  0
LINE
  8
_0-0_90_FRAME
  6
CONTINUOUS
 62
    4
 10
2290.4281346878538
 20
625.6885685102759
 11
2289.7757755631956
 21
625.74534108819887
  0
LINE
  8
_0-0_90_FRAME
  6
CONTINUOUS
 62
    4
 10
2289.7757755631956
 20
625.74534108819887
 11
2289.1234164385373
 21
625.6885685102759
  0
LINE
  8
_0-0_90_FRAME
  6
CONTINUOUS
 62
    4
 10
2289.1234164385373
 20
625.6885685102759
 11
2288.4908789157726
 21
625.51997578255873
  0
LINE
  8
_0-0_90_FRAME
  6
CONTINUOUS
 62
    4
 10
2288.4908789157726
 20
625.51997578255873
 11
2287.89738232745
 21
625.24468550976701
  0
LINE
  8
_0-0_90_FRAME
  6
CONTINUOUS
 62
    4
 10
2287.89738232745
 20
625.24468550976701
 11
2287.3609597670834
 21
624.87106224753597
  0
LINE
  8
_0-0_90_FRAME
  6
CONTINUOUS
 62
    4
 10
2287.3609597670834
 20
624.87106224753597
 11
2286.8979101627256
 21
624.41045834962597
  0
LINE
  8
_0-0_90_FRAME
  6
CONTINUOUS
 62
    4
 10
2286.8979101627256
 20
624.41045834962597
 11
2286.5223030422908
 21
623.87686903239819
  0
LINE
  8
_0-0_90_FRAME
  6
CONTINUOUS
 62
    4
 10
2286.5223030422908
 20
623.87686903239819
 11
2286.2455510380673
 21
623.28650713724733
  0
LINE
  8
_0-0_90_FRAME
  6
CONTINUOUS
 62
    4
 10
2286.2455510380673
 20
623.28650713724733
 11
2286.0760631196599
 21
622.65731051162015
  0
LINE
  8
_0-0_90_FRAME
  6
CONTINUOUS
 62
    4
 10
2286.0760631196599
 20
622.65731051162015
 11
2286.018989091705
 21
622.0083969765974
  0
LINE
  8
_0-0_90_FRAME
  6
CONTINUOUS
 62
    4
 10
2286.018989091705
 20
622.0083969765974
 11
2286.018989091705
 21
622.0083969765974
  0
LINE
  8
_0-0_90_FRAME
  6
CONTINUOUS
 62
    4
 10
2291.3182853179032
 20
617.36437260185653
 11
2291.3182853179032
 21
617.36437260185653
  0
LINE
  8
_0-0_90_FRAME
  6
CONTINUOUS
 62
    4
 10
2291.3182853179032
 20
617.36437260185653
 11
2290.7000169279268
 21
617.14963117639979
  0
LINE
  8
_0-0_90_FRAME
  6
CONTINUOUS
 62
    4
 10
2290.7000169279268
 20
617.14963117639979
 11
2290.0536659317713
 21
617.04498037479971
  0
LINE
  8
_0-0_90_FRAME
  6
CONTINUOUS
 62
    4
 10
2290.0536659317713
 20
617.04498037479971
 11
2289.3988713773861
 21
617.05359995870708
  0
LINE
  8
_0-0_90_FRAME
  6
CONTINUOUS
 62
    4
 10
2289.3988713773861
 20
617.05359995870708
 11
2288.7555288659637
 21
617.17522802642679
  0
LINE
  8
_0-0_90_FRAME
  6
CONTINUOUS
 62
    4
 10
2288.7555288659637
 20
617.17522802642679
 11
2288.1431860341672
 21
617.40616897066764
  0
LINE
  8
_0-0_90_FRAME
  6
CONTINUOUS
 62
    4
 10
2288.1431860341672
 20
617.40616897066764
 11
2287.5804486090801
 21
617.73940576770087
  0
LINE
  8
_0-0_90_FRAME
  6
CONTINUOUS
 62
    4
 10
2287.5804486090801
 20
617.73940576770087
 11
2287.0844150826047
 21
618.16481318607453
  0
LINE
  8
_0-0_90_FRAME
  6
CONTINUOUS
 62
    4
 10
2287.0844150826047
 20
618.16481318607453
 11
2286.6701571824378
 21
618.66946543664778
  0
LINE
  8
_0-0_90_FRAME
  6
CONTINUOUS
 62
    4
 10
2286.6701571824378
 20
618.66946543664778
 11
2286.3502619252517
 21
619.23802891615344
  0
LINE
  8
_0-0_90_FRAME
  6
CONTINUOUS
 62
    4
 10
2286.3502619252517
 20
619.23802891615344
 11
2286.1344491665609
 21
619.85322811097365
  0
LINE
  8
_0-0_90_FRAME
  6
CONTINUOUS
 62
    4
 10
2286.1344491665609
 20
619.85322811097365
 11
2286.0292762678318
 21
620.49637050487968
  0
LINE
  8
_0-0_90_FRAME
  6
CONTINUOUS
 62
    4
 10
2286.0292762678318
 20
620.49637050487968
 11
2286.0189843756116
 21
620.772881375834
  0
LINE
  8
_0-0_90_FRAME
  6
CONTINUOUS
 62
    4
 10
2272.6470940048002
 20
614.98666577624226
 11
2274.9464310798958
 21
614.98666577624226
  0
LINE
  8
_0-0_90_FRAME
  6
CONTINUOUS
 62
    4
 10
2272.6470940048002
 20
614.98666577624226
 11
2272.6470940048002
 21
615.04814392088065
  0
LINE
  8
_0-0_90_FRAME
  6
CONTINUOUS
 62
    4
 10
2272.6470940048002
 20
615.04814392088065
 11
2277.4768158461393
 21
627.79461257619096
  0
LINE
  8
_0-0_90_FRAME
  6
CONTINUOUS
 62
    4
 10
2272.6470940048002
 20
614.98666577624226
 11
2272.6470940048002
 21
615.04814392088065
  0
LINE
  8
_0-0_90_FRAME
  6
CONTINUOUS
 62
    4
 10
2276.200025350312
 20
618.36329019565255
 11
2280.9287055024379
 21
618.36329019565255
  0
LINE
  8
_0-0_90_FRAME
  6
CONTINUOUS
 62
    4
 10
2276.893252818516
 20
620.31009810924388
 11
2280.2354780342375
 21
620.31009810924388
  0
LINE
  8
_0-0_90_FRAME
  6
CONTINUOUS
 62
    4
 10
2284.4304050607516
 20
614.98666577624226
 11
2282.1310679856597
 21
614.98666577624226
  0
LINE
  8
_0-0_90_FRAME
  6
CONTINUOUS
 62
    4
 10
2282.1310679856597
 20
614.98666577624226
 11
2280.9287055024379
 21
618.36329019565255
  0
LINE
  8
_0-0_90_FRAME
  6
CONTINUOUS
 62
    4
 10
2284.4304050607516
 20
615.04814392088065
 11
2279.6006832194125
 21
627.79461257619096
  0
LINE
  8
_0-0_90_FRAME
  6
CONTINUOUS
 62
    4
 10
2284.4304050607516
 20
614.98666577624226
 11
2284.4304050607516
 21
615.04814392088065
  0
LINE
  8
_0-0_90_FRAME
  6
CONTINUOUS
 62
    4
 10
2277.4768158461393
 20
627.79461257619096
 11
2279.6006832194125
 21
627.79461257619096
  0
LINE
  8
_0-0_90_FRAME
  6
CONTINUOUS
 62
    4
 10
2280.2354780342375
 20
620.31009810924388
 11
2278.5387495327759
 21
625.07506289407957
  0
LINE
  8
_0-0_90_FRAME
  6
CONTINUOUS
 62
    4
 10
2291.4069760041912
 20
619.58717195989539
 11
2296.1511999400736
 21
615.67787849567958
  0
LINE
  8
_0-0_90_FRAME
  6
CONTINUOUS
 62
    4
 10
2292.8877225325396
 20
615.83693438874161
 11
2294.6686738731059
 21
614.10364228382878
  0
LINE
  8
_0-0_90_FRAME
  6
CONTINUOUS
 62
    4
 10
2276.200025350312
 20
618.36329019565255
 11
2276.893252818516
 21
620.31009810924388
  0
LINE
  8
_0-0_90_FRAME
  6
CONTINUOUS
 62
    4
 10
2295.6674310911717
 20
620.6221623682186
 11
2295.6674310911717
 21
620.6221623682186
  0
LINE
  8
_0-0_90_FRAME
  6
CONTINUOUS
 62
    4
 10
2295.6674310911717
 20
620.6221623682186
 11
2295.577923605224
 21
619.6435686547735
  0
LINE
  8
_0-0_90_FRAME
  6
CONTINUOUS
 62
    4
 10
2295.577923605224
 20
619.6435686547735
 11
2295.3121207870472
 21
618.69470901611919
  0
LINE
  8
_0-0_90_FRAME
  6
CONTINUOUS
 62
    4
 10
2295.3121207870472
 20
618.69470901611919
 11
2294.8780989207698
 21
617.80441407222997
  0
LINE
  8
_0-0_90_FRAME
  6
CONTINUOUS
 62
    4
 10
2294.8780989207698
 20
617.80441407222997
 11
2294.4251191125545
 21
617.16076811056564
  0
LINE
  8
_0-0_90_FRAME
  6
CONTINUOUS
 62
    4
 10
2293.5325667507796
 20
620.772881375834
 11
2293.5325667507796
 21
620.772881375834
  0
LINE
  8
_0-0_90_FRAME
  6
CONTINUOUS
 62
    4
 10
2293.5325667507796
 20
620.772881375834
 11
2293.4754926511764
 21
620.12375986397694
  0
LINE
  8
_0-0_90_FRAME
  6
CONTINUOUS
 62
    4
 10
2293.4754926511764
 20
620.12375986397694
 11
2293.3060045200018
 21
619.4943615807864
  0
LINE
  8
_0-0_90_FRAME
  6
CONTINUOUS
 62
    4
 10
2293.3060045200018
 20
619.4943615807864
 11
2293.0292521683568
 21
618.90381047460608
  0
LINE
  8
_0-0_90_FRAME
  6
CONTINUOUS
 62
    4
 10
2293.0292521683568
 20
618.90381047460608
 11
2292.7743941331896
 21
618.52098391408902
  0
LINE
  8
_0-0_90_FRAME
  6
CONTINUOUS
 62
    4
 10
2283.8841200352199
 20
622.1591159842128
 11
2283.8841200352199
 21
620.6221623682186
  0
LINE
  8
_0-0_90_FRAME
  6
CONTINUOUS
 62
    4
 10
2274.9464310798958
 20
614.98666577624226
 11
2278.5387495327759
 21
625.07506289407957
  0
LINE
  8
_0-0_90_FRAME
  6
CONTINUOUS
 62
    4
 10
2307.4804335285353
 20
614.98666577624226
 11
2309.7797706036308
 21
614.98666577624226
  0
LINE
  8
_0-0_90_FRAME
  6
CONTINUOUS
 62
    4
 10
2307.4804335285353
 20
614.98666577624226
 11
2307.4804335285353
 21
615.04814392088065
  0
LINE
  8
_0-0_90_FRAME
  6
CONTINUOUS
 62
    4
 10
2307.4804335285353
 20
615.04814392088065
 11
2312.310155369878
 21
627.79461257619096
  0
LINE
  8
_0-0_90_FRAME
  6
CONTINUOUS
 62
    4
 10
2307.4804335285353
 20
614.98666577624226
 11
2307.4804335285353
 21
615.04814392088065
  0
LINE
  8
_0-0_90_FRAME
  6
CONTINUOUS
 62
    4
 10
2311.0333648740507
 20
618.36329019565255
 11
2315.7620450261766
 21
618.36329019565255
  0
LINE
  8
_0-0_90_FRAME
  6
CONTINUOUS
 62
    4
 10
2311.726592342251
 20
620.31009810924388
 11
2315.0688175579762
 21
620.31009810924388
  0
LINE
  8
_0-0_90_FRAME
  6
CONTINUOUS
 62
    4
 10
2319.2637445844903
 20
614.98666577624226
 11
2316.9644075093947
 21
614.98666577624226
  0
LINE
  8
_0-0_90_FRAME
  6
CONTINUOUS
 62
    4
 10
2316.9644075093947
 20
614.98666577624226
 11
2315.7620450261766
 21
618.36329019565255
  0
LINE
  8
_0-0_90_FRAME
  6
CONTINUOUS
 62
    4
 10
2319.2637445844903
 20
615.04814392088065
 11
2314.4340227431512
 21
627.79461257619096
  0
LINE
  8
_0-0_90_FRAME
  6
CONTINUOUS
 62
    4
 10
2319.2637445844903
 20
614.98666577624226
 11
2319.2637445844903
 21
615.04814392088065
  0
LINE
  8
_0-0_90_FRAME
  6
CONTINUOUS
 62
    4
 10
2312.310155369878
 20
627.79461257619096
 11
2314.4340227431512
 21
627.79461257619096
  0
LINE
  8
_0-0_90_FRAME
  6
CONTINUOUS
 62
    4
 10
2315.0688175579762
 20
620.31009810924388
 11
2313.3720890565146
 21
625.07506289407957
  0
LINE
  8
_0-0_90_FRAME
  6
CONTINUOUS
 62
    4
 10
2311.0333648740507
 20
618.36329019565255
 11
2311.726592342251
 21
620.31009810924388
  0
LINE
  8
_0-0_90_FRAME
  6
CONTINUOUS
 62
    4
 10
2309.7797706036308
 20
614.98666577624226
 11
2313.3720890565146
 21
625.07506289407957
  0
ARC
  8
_0-0_90_FRAME
  6
CONTINUOUS
 62
    4
 10
2302.1950838036009
 20
620.39046357703683
 40
5.4200985425585984
 50
274.44474271147573
 51
357.5499690077387
  0
LINE
  8
_0-0_90_FRAME
  6
CONTINUOUS
 62
    4
 10
2292.7743941331919
 20
618.52098391409072
 11
2294.4251191125568
 21
617.1607681105661
  0
LINE
  8
_0-0_90_FRAME
  6
CONTINUOUS
 62
    4
 10
2293.6709602024575
 20
605.91861068993819
 11
2293.6709602024575
 21
605.91861068993819
  0
LINE
  8
_0-0_90_FRAME
  6
CONTINUOUS
 62
    4
 10
2293.6709602024575
 20
605.91861068993819
 11
2294.3166339153554
 21
606.17962393626328
  0
LINE
  8
_0-0_90_FRAME
  6
CONTINUOUS
 62
    4
 10
2294.3166339153554
 20
606.17962393626328
 11
2294.8968732767485
 21
606.52802950887724
  0
LINE
  8
_0-0_90_FRAME
  6
CONTINUOUS
 62
    4
 10
2294.8968732767485
 20
606.52802950887724
 11
2295.3940480072561
 21
606.95324128075777
  0
LINE
  8
_0-0_90_FRAME
  6
CONTINUOUS
 62
    4
 10
2295.3940480072561
 20
606.95324128075777
 11
2295.7930517042751
 21
607.442339407384
  0
LINE
  8
_0-0_90_FRAME
  6
CONTINUOUS
 62
    4
 10
2295.7930517042751
 20
607.442339407384
 11
2296.0817608423763
 21
607.98046288967373
  0
LINE
  8
_0-0_90_FRAME
  6
CONTINUOUS
 62
    4
 10
2296.0817608423763
 20
607.98046288967373
 11
2296.251403140493
 21
608.55126111792151
  0
LINE
  8
_0-0_90_FRAME
  6
CONTINUOUS
 62
    4
 10
2296.251403140493
 20
608.55126111792151
 11
2296.2968241032399
 21
609.13739067679967
  0
LINE
  8
_0-0_90_FRAME
  6
CONTINUOUS
 62
    4
 10
2296.2968241032399
 20
609.13739067679967
 11
2296.2166436376478
 21
609.72104231625758
  0
LINE
  8
_0-0_90_FRAME
  6
CONTINUOUS
 62
    4
 10
2296.2166436376478
 20
609.72104231625758
 11
2296.0132979865907
 21
610.28448207657232
  0
LINE
  8
_0-0_90_FRAME
  6
CONTINUOUS
 62
    4
 10
2296.0132979865907
 20
610.28448207657232
 11
2295.6929657047781
 21
610.81059012574099
  0
LINE
  8
_0-0_90_FRAME
  6
CONTINUOUS
 62
    4
 10
2295.6929657047781
 20
610.81059012574099
 11
2295.2653799264967
 21
611.28338093691309
  0
LINE
  8
_0-0_90_FRAME
  6
CONTINUOUS
 62
    4
 10
2295.2653799264967
 20
611.28338093691309
 11
2294.7435326292511
 21
611.68848900053501
  0
LINE
  8
_0-0_90_FRAME
  6
CONTINUOUS
 62
    4
 10
2294.7435326292511
 20
611.68848900053501
 11
2294.1432798791002
 21
612.01360531308796
  0
LINE
  8
_0-0_90_FRAME
  6
CONTINUOUS
 62
    4
 10
2294.1432798791002
 20
612.01360531308796
 11
2293.4828600521155
 21
612.24885137993203
  0
LINE
  8
_0-0_90_FRAME
  6
CONTINUOUS
 62
    4
 10
2293.4828600521155
 20
612.24885137993203
 11
2292.7823396705503
 21
612.38707936836613
  0
LINE
  8
_0-0_90_FRAME
  6
CONTINUOUS
 62
    4
 10
2292.7823396705503
 20
612.38707936836613
 11
2292.1630896912156
 21
612.42507641625161
  0
LINE
  8
_0-0_90_FRAME
  6
CONTINUOUS
 62
    4
 10
2301.0583598169596
 20
601.66640110429489
 11
2301.0583598169596
 21
610.37580492825964
  0
LINE
  8
_0-0_90_FRAME
  6
CONTINUOUS
 62
    4
 10
2298.7529293929674
 20
601.66640110429489
 11
2298.7529293929674
 21
610.37580492825964
  0
LINE
  8
_0-0_90_FRAME
  6
CONTINUOUS
 62
    4
 10
2298.4967704569663
 20
612.42507641625252
 11
2301.3145187529572
 21
612.42507641625252
  0
LINE
  8
_0-0_90_FRAME
  6
CONTINUOUS
 62
    4
 10
2286.2714341632436
 20
612.42507641625252
 11
2286.2714341632436
 21
599.61712961630383
  0
LINE
  8
_0-0_90_FRAME
  6
CONTINUOUS
 62
    4
 10
2298.4967704569663
 20
599.61712961630383
 11
2301.3145187529572
 21
599.61712961630383
  0
LINE
  8
_0-0_90_FRAME
  6
CONTINUOUS
 62
    4
 10
2301.3145187529572
 20
599.61712961630383
 11
2301.3145187529572
 21
601.41024216829737
  0
ARC
  8
_0-0_90_FRAME
  6
CONTINUOUS
 62
    4
 10
2301.3145187529572
 20
601.66640110429489
 40
0.2561589359989651
 50
180
 51
270
  0
LINE
  8
_0-0_90_FRAME
  6
CONTINUOUS
 62
    4
 10
2298.4967704569663
 20
599.61712961630383
 11
2298.4967704569663
 21
601.41024216829737
  0
ARC
  8
_0-0_90_FRAME
  6
CONTINUOUS
 62
    4
 10
2298.4967704569663
 20
601.66640110429489
 40
0.2561589359989651
 50
270
 51
0
  0
LINE
  8
_0-0_90_FRAME
  6
CONTINUOUS
 62
    4
 10
2301.3145187529572
 20
612.42507641625252
 11
2301.3145187529572
 21
610.63196386425909
  0
ARC
  8
_0-0_90_FRAME
  6
CONTINUOUS
 62
    4
 10
2301.3145187529572
 20
610.37580492825964
 40
0.2561589359989651
 50
90
 51
180
  0
LINE
  8
_0-0_90_FRAME
  6
CONTINUOUS
 62
    4
 10
2298.4967704569663
 20
612.42507641625252
 11
2298.4967704569663
 21
610.63196386425909
  0
ARC
  8
_0-0_90_FRAME
  6
CONTINUOUS
 62
    4
 10
2298.4967704569663
 20
610.37580492825964
 40
0.2561589359989651
 50
0
 51
90
  0
LINE
  8
_0-0_90_FRAME
  6
CONTINUOUS
 62
    4
 10
2280.7128268716278
 20
599.61712961630383
 11
2280.7128268716278
 21
610.37580492825964
  0
LINE
  8
_0-0_90_FRAME
  6
CONTINUOUS
 62
    4
 10
2278.4073964476393
 20
599.61712961630383
 11
2278.4073964476393
 21
610.37580492825964
  0
LINE
  8
_0-0_90_FRAME
  6
CONTINUOUS
 62
    4
 10
2274.3088534716571
 20
612.42507641625252
 11
2284.8113698476136
 21
612.42507641625252
  0
LINE
  8
_0-0_90_FRAME
  6
CONTINUOUS
 62
    4
 10
2278.4073964476393
 20
599.61712961630383
 11
2280.7128268716278
 21
599.61712961630383
  0
LINE
  8
_0-0_90_FRAME
  6
CONTINUOUS
 62
    4
 10
2284.8113698476136
 20
612.42507641625252
 11
2284.8113698476136
 21
610.63196386425909
  0
ARC
  8
_0-0_90_FRAME
  6
CONTINUOUS
 62
    4
 10
2280.968985807629
 20
610.37580492825964
 40
0.2561589359989651
 50
90
 51
180
  0
LINE
  8
_0-0_90_FRAME
  6
CONTINUOUS
 62
    4
 10
2274.3088534716571
 20
612.42507641625252
 11
2274.3088534716571
 21
610.63196386425909
  0
ARC
  8
_0-0_90_FRAME
  6
CONTINUOUS
 62
    4
 10
2278.1512375116417
 20
610.37580492825964
 40
0.2561589359989651
 50
0
 51
90
  0
LINE
  8
_0-0_90_FRAME
  6
CONTINUOUS
 62
    4
 10
2274.3088534716571
 20
610.63196386425909
 11
2278.1512375116417
 21
610.63196386425909
  0
LINE
  8
_0-0_90_FRAME
  6
CONTINUOUS
 62
    4
 10
2280.968985807629
 20
610.63196386425909
 11
2284.8113698476136
 21
610.63196386425909
  0
LINE
  8
_0-0_90_FRAME
  6
CONTINUOUS
 62
    4
 10
2286.2714341632436
 20
599.61712961630383
 11
2288.5768645872322
 21
599.61712961630383
  0
LINE
  8
_0-0_90_FRAME
  6
CONTINUOUS
 62
    4
 10
2288.5768645872322
 20
599.61712961630383
 11
2288.5768645872322
 21
610.63196386425909
  0
LINE
  8
_0-0_90_FRAME
  6
CONTINUOUS
 62
    4
 10
2286.2714341632436
 20
612.42507641625252
 11
2292.1630896912156
 21
612.42507641625252
  0
LINE
  8
_0-0_90_FRAME
  6
CONTINUOUS
 62
    4
 10
2288.5768645872322
 20
610.63196386425909
 11
2292.4704804144185
 21
610.63196386425909
  0
LINE
  8
_0-0_90_FRAME
  6
CONTINUOUS
 62
    4
 10
2288.6537122680293
 20
605.68660072885086
 11
2288.6537122680293
 21
607.47971328084441
  0
LINE
  8
_0-0_90_FRAME
  6
CONTINUOUS
 62
    4
 10
2288.6537122680293
 20
605.68660072885086
 11
2291.1690822657674
 21
605.68660072885086
  0
LINE
  8
_0-0_90_FRAME
  6
CONTINUOUS
 62
    4
 10
2288.6537122680293
 20
607.47971328084441
 11
2292.4704804144185
 21
607.47971328084441
  0
ARC
  8
_0-0_90_FRAME
  6
CONTINUOUS
 62
    4
 10
2292.4155219598561
 20
609.05583857255169
 40
1.577083183248922
 50
271.9970571043541
 51
88.002942895541636
  0
LINE
  8
_0-0_90_FRAME
  6
CONTINUOUS
 62
    4
 10
2294.0694528239055
 20
599.61712961630383
 11
2296.5541945030945
 21
599.61712961630383
  0
LINE
  8
_0-0_90_FRAME
  6
CONTINUOUS
 62
    4
 10
2294.3470520869323
 20
605.12457141941832
 11
2296.5541945030945
 21
599.71959319070356
  0
LINE
  8
_0-0_90_FRAME
  6
CONTINUOUS
 62
    4
 10
2292.119587586576
 20
605.04461109157558
 11
2294.0694528239055
 21
599.61712961630383
  0
ARC
  8
_0-0_90_FRAME
  6
CONTINUOUS
 62
    4
 10
2291.1690822657674
 20
604.66196498485715
 40
1.0246357439958607
 50
21.928297866550263
 51
90
  0
ARC
  8
_0-0_90_FRAME
  6
CONTINUOUS
 62
    4
 10
2292.7971943270077
 20
604.48978297431233
 40
1.6748180337109206
 50
22.272952259980947
 51
58.553113012863236
  0
LINE
  8
_0-0_90_FRAME
  6
CONTINUOUS
 62
    4
 10
2296.5541945030945
 20
599.71959319070356
 11
2296.5541945030945
 21
599.61712961630383
  0
LINE
  8
_0-0_90_FRAME
  6
CONTINUOUS
 62
    4
 10
2303.622445301904
 20
612.42507641625252
 11
2303.622445301904
 21
599.61712961630383
  0
LINE
  8
_0-0_90_FRAME
  6
CONTINUOUS
 62
    4
 10
2303.622445301904
 20
599.61712961630383
 11
2305.9278757258962
 21
599.61712961630383
  0
LINE
  8
_0-0_90_FRAME
  6
CONTINUOUS
 62
    4
 10
2305.9278757258962
 20
599.61712961630383
 11
2305.9257528218241
 21
608.58269237626791
  0
LINE
  8
_0-0_90_FRAME
  6
CONTINUOUS
 62
    4
 10
2303.622445301904
 20
612.42507641625252
 11
2306.9677758166454
 21
612.42507641625252
  0
LINE
  8
_0-0_90_FRAME
  6
CONTINUOUS
 62
    4
 10
2314.1270845819326
 20
608.58269237626791
 11
2314.1270845819326
 21
599.61712961630383
  0
LINE
  8
_0-0_90_FRAME
  6
CONTINUOUS
 62
    4
 10
2314.1270845819326
 20
599.61712961630383
 11
2316.4325150059212
 21
599.61712961630383
  0
LINE
  8
_0-0_90_FRAME
  6
CONTINUOUS
 62
    4
 10
2316.4325150059212
 20
599.61712961630383
 11
2316.4325150059212
 21
612.42507641625252
  0
LINE
  8
_0-0_90_FRAME
  6
CONTINUOUS
 62
    4
 10
2308.8737034898859
 20
599.61712961630383
 11
2311.1791339138745
 21
599.61712961630383
  0
LINE
  8
_0-0_90_FRAME
  6
CONTINUOUS
 62
    4
 10
2316.4325150059212
 20
612.42507641625252
 11
2313.0850615871113
 21
612.42507641625252
  0
LINE
  8
_0-0_90_FRAME
  6
CONTINUOUS
 62
    4
 10
2311.1791339138745
 20
599.61712961630383
 11
2314.1270845819326
 21
608.58269237626791
  0
LINE
  8
_0-0_90_FRAME
  6
CONTINUOUS
 62
    4
 10
2308.8737034898859
 20
599.61712961630383
 11
2305.9257528218241
 21
608.58269237626791
  0
LINE
  8
_0-0_90_FRAME
  6
CONTINUOUS
 62
    4
 10
2310.0264187018784
 20
603.1228669033909
 11
2313.0850615871113
 21
612.42507641625252
  0
LINE
  8
_0-0_90_FRAME
  6
CONTINUOUS
 62
    4
 10
2310.0264187018784
 20
603.1228669033909
 11
2306.9677758166454
 21
612.42507641625252
  0
TEXT
  8
_0-0_90_FRAME
 62
    2
 10
2331.5338815764926
 20
622.64864147129879
 40
15.121542857081758
 41
1
 50
0
  1
ŖöÄ«ē’Äą
  0
LINE
  8
_0-0_90_FRAME
  6
CONTINUOUS
 62
   18
 10
2377.5676619858114
 20
654.08423141667572
 11
2377.5676619858114
 21
724.79851713067819
  0
TEXT
  8
_0-0_90_FRAME
 62
    7
 10
2509.5492428408352
 20
599.33470277291474
 40
20
 41
1
 50
0
  1
Äøōc
  0
TEXT
  8
_0-0_90_FRAME
 62
    7
 10
2406.7349571269974
 20
671.05718283063663
 40
20
 41
1
 50
0
  1
1üF4
  0
TEXT
  8
_0-0_90_FRAME
 62
    7
 10
2585.9145492922521
 20
711.10687649483509
 40
10
 41
1
 50
0
  1
ŗ@ŖĒ
  0
LINE
  8
_0-0_90_FRAME
  6
CONTINUOUS
 62
   18
 10
2734.2438357107658
 20
724.79851713067819
 11
2734.2438357107658
 21
622.96994570251718
  0
TEXT
  8
_0-0_90_FRAME
 62
    7
 10
2736.9621515895324
 20
711.10687649483509
 40
10
 41
1
 50
0
  1
ĢöĢi¢╝
  0
TEXT
  8
_0-0_90_FRAME
 62
    7
 10
2736.9621515895283
 20
654.035447923633
 40
10
 41
1
 50
0
  1
É}¢╩öįŹå
  0
LINE
  8
_0-0_90_FRAME
  6
CONTINUOUS
 62
   18
 10
2583.1962334134932
 20
673.8842314165986
 11
2734.2438357107658
 21
673.8842314165986
  0
TEXT
  8
_0-0_90_FRAME
 62
    7
 10
2585.9145492922521
 20
659.69259078075549
 40
10
 41
1
 50
0
  1
ī^Ä«
  0
LINE
  8
_0-0_90_FRAME
  6
CONTINUOUS
 62
   18
 10
845.81146084682939
 20
577.71280284555814
 11
1253.8114608432595
 21
577.71280284555814
  0
LINE
  8
_0-0_90_FRAME
  6
CONTINUOUS
 62
   18
 10
1253.8114608432595
 20
577.71280284555814
 11
1253.8114608432595
 21
690.85565998795482
  0
LINE
  8
_0-0_90_FRAME
  6
CONTINUOUS
 62
   18
 10
1253.8114608432595
 20
690.85565998795482
 11
845.81146084682939
 21
690.85565998795482
  0
LINE
  8
_0-0_90_FRAME
  6
CONTINUOUS
 62
   18
 10
845.81146084682939
 20
690.85565998795482
 11
845.81146084682939
 21
577.71280284555814
  0
LINE
  8
_0-0_90_FRAME
  6
CONTINUOUS
 62
   18
 10
1197.8114608432595
 20
577.71280284555814
 11
1197.8114608432595
 21
690.85565998795482
  0
LINE
  8
_0-0_90_FRAME
  6
CONTINUOUS
 62
   18
 10
901.81146084325951
 20
577.71280284555814
 11
901.81146084325951
 21
690.85565998795482
  0
LINE
  8
_0-0_90_FRAME
  6
CONTINUOUS
 62
   18
 10
965.81146084325951
 20
577.71280284555814
 11
965.81146084325951
 21
690.85565998795482
  0
LINE
  8
_0-0_90_FRAME
  6
CONTINUOUS
 62
   18
 10
845.81146084682939
 20
662.56994570236111
 11
1253.8114608432595
 21
662.56994570236122
  0
LINE
  8
_0-0_90_FRAME
  6
CONTINUOUS
 62
   18
 10
845.81146084682939
 20
634.28423141675285
 11
1253.8114608432595
 21
634.28423141675285
  0
LINE
  8
_0-0_90_FRAME
  6
CONTINUOUS
 62
   18
 10
845.81146084682939
 20
605.99851713115913
 11
1253.8114608432595
 21
605.99851713115925
  0
TEXT
  8
_0-0_90_FRAME
 62
    7
 10
859.847824481408
 20
671.9128028451579
 40
9.5999999999999979
 41
1
 50
0
  1
ŗLŹå
  0
TEXT
  8
_0-0_90_FRAME
 62
    7
 10
918.47391936629231
 20
671.9128028451579
 40
9.5999999999999979
 41
1
 50
0
  1
ō·Ģt
  0
TEXT
  8
_0-0_90_FRAME
 62
    7
 10
1204.8660062978049
 20
671.9128028451579
 40
9.5999999999999979
 41
1
 50
0
  1
ŹņÉ¼Äę
  0
TEXT
  8
_0-0_90_FRAME
 62
    7
 10
1049.8841881159869
 20
671.74916648152157
 40
9.5999999999999979
 41
1
 50
0
  1
ē³Æ∙ōÓŚe
  0
LINE
  8
_0-0_90_FRAME
  6
CONTINUOUS
 62
   18
 10
861.08288941651995
 20
609.00274905056995
 11
873.81146084504439
 21
631.04928147253224
  0
LINE
  8
_0-0_90_FRAME
  6
CONTINUOUS
 62
   18
 10
873.81146084504439
 20
631.04928147253224
 11
886.54003227356168
 21
609.00274905056995
  0
LINE
  8
_0-0_90_FRAME
  6
CONTINUOUS
 62
   18
 10
886.54003227356168
 20
609.00274905056995
 11
861.08288941651995
 21
609.00274905056995
  0
TEXT
  8
_0-0_90_FRAME
 62
    7
 10
871.05468056949348
 20
641.39873467996301
 40
8.4857142856800003
 41
1
 50
0
  1
1
  0
TEXT
  8
_0-0_90_FRAME
 62
    7
 10
871.05468056949348
 20
613.11302039436214
 40
8.4857142856800003
 41
1
 50
0
  1
2
  0
TEXT
  8
_0-0_90_FRAME
 62
    7
 10
871.05468056949348
 20
584.82730610876104
 40
8.4857142856800003
 41
1
 50
0
  1
3
  0
LINE
  8
_0-0_90_FRAME
  6
CONTINUOUS
 62
   18
 10
861.08288941651995
 20
637.28846333617093
 11
873.81146084504439
 21
659.33499575814039
  0
LINE
  8
_0-0_90_FRAME
  6
CONTINUOUS
 62
   18
 10
873.81146084504439
 20
659.33499575814039
 11
886.54003227356168
 21
637.28846333617093
  0
LINE
  8
_0-0_90_FRAME
  6
CONTINUOUS
 62
   18
 10
886.54003227356168
 20
637.28846333617093
 11
861.08288941651995
 21
637.28846333617093
  0
LINE
  8
_0-0_90_FRAME
  6
CONTINUOUS
 62
   18
 10
861.08288941651995
 20
580.71703476496896
 11
873.81146084504439
 21
602.76356718693842
  0
LINE
  8
_0-0_90_FRAME
  6
CONTINUOUS
 62
   18
 10
873.81146084504439
 20
602.76356718693842
 11
886.54003227356168
 21
580.71703476496896
  0
LINE
  8
_0-0_90_FRAME
  6
CONTINUOUS
 62
   18
 10
886.54003227356168
 20
580.71703476496896
 11
861.08288941651995
 21
580.71703476496896
  0
LINE
  8
_0-0_90_FRAME
  6
CONTINUOUS
 62
    4
 10
2445.881952949645
 20
920.79851412218159
 11
2445.881952949645
 21
724.79851713067819
  0
LINE
  8
_0-0_90_FRAME
  6
CONTINUOUS
 62
    4
 10
2734.2438357107658
 20
920.79851412218159
 11
2734.2438357107658
 21
724.79851713067819
  0
LINE
  8
_0-0_90_FRAME
  6
CONTINUOUS
 62
    4
 10
2844.0202871686806
 20
920.79851412218159
 11
2844.0202871687097
 21
724.79851713067819
  0
LINE
  8
_0-0_90_FRAME
  6
CONTINUOUS
 62
    4
 10
2816.0202906686809
 20
920.79851412218159
 11
2816.0202906687073
 21
724.79851713067819
  0
LINE
  8
_0-0_90_FRAME
  6
CONTINUOUS
 62
    4
 10
2487.8819476996514
 20
920.79851412218159
 11
2487.8819476996523
 21
724.79851713067819
  0
LINE
  8
_0-0_90_FRAME
  6
CONTINUOUS
 62
    4
 10
2886.0202819187034
 20
920.79851412218159
 11
2886.0202819187034
 21
724.79851713067819
  0
LINE
  8
_0-2_08_DIM
  6
CONTINUOUS
 62
    3
 10
1152.3678126538944
 20
1896.1663906386432
 11
1354.8158716848172
 21
1896.1663906386432
  0
INSERT
  2
-000-p1ba01
  8
_0-2_08_DIM
 10
1185.7800420075937
 20
1900.9352632912828
 41
6
 42
6
 50
0
  0
INSERT
  2
-001-p1ba02
  8
_0-2_08_DIM
 10
1241.4049282574076
 20
1900.8400403473072
 41
6
 42
6
 50
0
  0
TEXT
  8
_0-3_07_TEXT
 62
    3
 10
1212.3922438118261
 20
1900.4837919587592
 40
18
 41
1
 50
0
  1
(          )
  0
TEXT
  8
_0-0_90_FRAME
 62
    3
 10
2825.4771590160158
 20
759.48921475317479
 40
12
 41
1
 50
0
  1
4
  0
TEXT
  8
_0-0_90_FRAME
 62
    3
 10
2740.6893327422936
 20
759.75587996422269
 40
12
 41
1
 50
0
  1
SS400
  0
TEXT
  8
_0-0_90_FRAME
 62
    3
 10
2507.3894817216315
 20
759.59671044644335
 40
12
 41
1
 50
0
  1
ā^āCāŹābāh
  0
TEXT
  8
_0-0_90_FRAME
 62
    3
 10
2455.8516499275715
 20
759.28801771440328
 40
12
 41
1
 50
0
  1
22
  0
TEXT
  8
_0-0_90_FRAME
 62
    3
 10
2853.167048546783
 20
739.16997972590809
 40
10
 41
1
 50
0
  1
ÅdŚ╩
  0
TEXT
  8
_0-0_90_FRAME
 62
    3
 10
2752.9175834164316
 20
732.71578808841491
 40
12
 41
1
 50
0
  1
Ź▐ü@Ä┐
  0
TEXT
  8
_0-0_90_FRAME
 62
    3
 10
2817.4908591192825
 20
732.625600376634
 40
12
 41
1
 50
0
  1
ÉöŚ╩
  0
TEXT
  8
_0-0_90_FRAME
 62
    3
 10
2857.5869076085
 20
729.38528153675929
 40
8
 41
1
 50
0
  1
kg
  0
TEXT
  8
_0-0_90_FRAME
 62
    3
 10
2939.5420194490757
 20
732.42440333783941
 40
12
 41
1
 50
0
  1
ö§  Źl
  0
TEXT
  8
_0-0_90_FRAME
 62
    3
 10
2454.4339313278201
 20
732.42440333783941
 40
12
 41
1
 50
0
  1
ĢäŹå
  0
TEXT
  8
_0-0_90_FRAME
 62
    3
 10
2556.162787726777
 20
732.85995883895282
 40
12
 41
1
 50
0
  1
Ģöü@ü@Ģiü@ü@¢╝
  0
LINE
  8
_0-0_90_FRAME
  6
CONTINUOUS
 62
    4
 10
2445.8819298434119
 20
836.79851412218147
 11
3050.7676388768618
 21
836.79851412218147
  0
LINE
  8
_0-0_90_FRAME
  6
CONTINUOUS
 62
    4
 10
2445.8819298434119
 20
808.79851262704722
 11
3050.7676388768618
 21
808.79851262704722
  0
LINE
  8
_0-0_90_FRAME
  6
CONTINUOUS
 62
    4
 10
2445.8819298434119
 20
780.79851412218159
 11
3050.7676388768618
 21
780.79851412218159
  0
LINE
  8
_0-0_90_FRAME
  6
CONTINUOUS
 62
    4
 10
2445.8819298434119
 20
752.79851412218159
 11
3050.7676388768618
 21
752.79851412218159
  0
TEXT
  8
_0-0_90_FRAME
 62
    7
 10
2830.976437903822
 20
687.95526325959531
 40
16
 41
1
 50
0
  1
āvāīāXŗ@ ĢöĢiÉ}
  0
TEXT
  8
_0-0_90_FRAME
 62
    7
 10
2592.9594006727975
 20
687.38115294173804
 40
12.800000000000001
 41
0.9000000000000001
 50
0
  1
ŚLŗ@É½ēśōDöRŚ┐Ä{É▌
  0
INSERT
  2
-002-p1ba05
  8
_0-2_08_DIM
 10
1309.3965279554354
 20
1900.8400403473072
 41
6
 42
6
 50
0
  0
LINE
  8
_0-4_0
  6
CONTINUOUS
 62
   18
 10
1655.3398636035406
 20
895.07552274557827
 11
1655.3398636035406
 21
1019.0755227525414
  0
LINE
  8
_0-4_0
  6
CONTINUOUS
 62
   18
 10
1651.3398636035406
 20
900.07552274557827
 11
1550.3398636035408
 21
900.07552274557827
  0
ARC
  8
_0-4_0
  6
CONTINUOUS
 62
   18
 10
1651.7408010779845
 20
896.49802271637145
 40
3.599896848159434
 50
1.2335819182389456
 51
96.394567750341096
  0
LINE
  8
_0-4_0
  6
CONTINUOUS
 62
   18
 10
1540.3398636035406
 20
910.07552274557838
 11
1550.3398636035408
 21
900.07552274557827
  0
LINE
  8
_0-4_0
  6
CONTINUOUS
 62
   18
 10
1540.3398636035406
 20
910.07552274557838
 11
1540.3398636035406
 21
1004.0755227525415
  0
LINE
  8
_0-4_0
  6
CONTINUOUS
 62
   18
 10
1550.3398636035408
 20
1014.0755227525414
 11
1540.3398636035406
 21
1004.0755227525415
  0
LINE
  8
_0-4_0
  6
CONTINUOUS
 62
   18
 10
1550.3398636035408
 20
900.07552274557827
 11
1550.3398636035408
 21
1014.0755227525414
  0
LINE
  8
_0-4_0
  6
CONTINUOUS
 62
   18
 10
1655.3398636035406
 20
1019.0755227525414
 11
1665.3398636035406
 21
1019.0755227525414
  0
LINE
  8
_0-4_0
  6
CONTINUOUS
 62
   18
 10
1665.3398636035406
 20
1019.0755227525414
 11
1665.3398636035406
 21
895.07552274557827
  0
LINE
  8
_0-4_0
  6
CONTINUOUS
 62
   18
 10
1665.3398636035406
 20
895.07552274557827
 11
1655.3398636035406
 21
895.07552274557827
  0
LINE
  8
_0-4_0
  6
CONTINUOUS
 62
   18
 10
1651.3398636035406
 20
1014.0755227482886
 11
1550.3398636035408
 21
1014.0755227482886
  0
ARC
  8
_0-4_0
  6
CONTINUOUS
 62
   18
 10
1651.3398636035406
 20
1018.0755227482886
 40
4
 50
270
 51
0
  0
LINE
  8
_0-5_04_HIDDEN
  6
CONTINUOUS
 62
    7
 10
1590.3398635993562
 20
986.07552275296337
 11
1582.339863599356
 21
986.07552275296337
  0
LINE
  8
_0-5_04_HIDDEN
  6
CONTINUOUS
 62
    7
 10
1582.339863599356
 20
986.07552275296337
 11
1582.339863599356
 21
928.07552275296325
  0
LINE
  8
_0-5_04_HIDDEN
  6
CONTINUOUS
 62
    7
 10
1582.339863599356
 20
928.07552275296325
 11
1590.3398635993562
 21
928.07552275296325
  0
LINE
  8
_0-5_04_HIDDEN
  6
CONTINUOUS
 62
    7
 10
1590.3398635993562
 20
928.07552275296325
 11
1590.3398635993562
 21
986.07552275296337
  0
LINE
  8
_0-5_04_HIDDEN
  6
CONTINUOUS
 62
    7
 10
1540.3398636035406
 20
985.57552275296337
 11
1582.339863599356
 21
985.57552275083515
  0
LINE
  8
_0-5_04_HIDDEN
  6
CONTINUOUS
 62
    7
 10
1540.3398636035406
 20
984.49302275402522
 11
1582.339863599356
 21
984.49302275190075
  0
LINE
  8
_0-5_04_HIDDEN
  6
CONTINUOUS
 62
    7
 10
1540.3398636035406
 20
928.57552274871784
 11
1582.339863599356
 21
928.57552275084242
  0
LINE
  8
_0-5_04_HIDDEN
  6
CONTINUOUS
 62
    7
 10
1540.3398636035406
 20
929.65802274765235
 11
1582.339863599356
 21
929.65802274978057
  0
LINE
  8
_0-6_05_CENTER
  6
CENTER2
 62
    4
 10
1533.969714426034
 20
957.07552275296348
 11
1673.1140031673772
 21
957.07552275296348
  0
INSERT
  2
-003-M10Tz
  8
_0-4_0
 10
1565.3398635998781
 20
957.07552275296348
 41
1
 42
1
 50
90
  0
LINE
  8
_0-6_05_CENTER
  6
CENTER2
 62
    4
 10
1414.9258411009255
 20
957.07552274900524
 11
1386.6502908109419
 21
957.07552274893249
  0
LINE
  8
_0-5_04_HIDDEN
  6
CONTINUOUS
 62
    7
 10
1418.3975418583348
 20
953.07552274902275
 11
1389.7559680780328
 21
953.07552274892168
  0
LINE
  8
_0-5_04_HIDDEN
  6
CONTINUOUS
 62
    7
 10
1418.3183442212608
 20
952.07552274902275
 11
1389.5960416520616
 21
952.07552274892157
  0
LINE
  8
_0-5_04_HIDDEN
  6
CONTINUOUS
 62
    7
 10
1418.39754185888
 20
961.07552274903003
 11
1389.7559680791599
 21
961.07552274892885
  0
LINE
  8
_0-5_04_HIDDEN
  6
CONTINUOUS
 62
    7
 10
1418.3183442219433
 20
962.07552274903003
 11
1389.5960416534779
 21
962.07552274892896
  0
CIRCLE
  8
_0-4_0
  6
CONTINUOUS
 62
   18
 10
1361.5380659557748
 20
957.07552275290163
 40
27.417500004803514
  0
CIRCLE
  8
_0-4_0
  6
CONTINUOUS
 62
   18
 10
1361.5380659557748
 20
957.07552275290163
 40
28.50000000374007
  0
CIRCLE
  8
_0-4_0
  6
CONTINUOUS
 62
   18
 10
1361.5380659557748
 20
957.07552275290163
 40
56.999999999516149
  0
CIRCLE
  8
_0-4_0
  6
CONTINUOUS
 62
   18
 10
1361.5380659557748
 20
957.07552275290163
 40
61.999999999516149
  0
LINE
  8
_0-6_05_CENTER
  6
CENTER2
 62
    4
 10
1361.5380659521004
 20
1024.1523015745572
 11
1361.5380659521004
 21
889.99874392343872
  0
LINE
  8
_0-6_05_CENTER
  6
CENTER2
 62
    4
 10
1428.6148447776598
 20
957.07552274899797
 11
1294.461287126541
 21
957.07552274899797
  0
CIRCLE
  8
_0-5_04_HIDDEN
  6
CONTINUOUS
 62
    7
 10
1361.5380659557748
 20
957.07552275290163
 40
29
  0
LINE
  8
_0-6_05_CENTER
  6
CENTER2
 62
    4
 10
1565.3398635998744
 20
1165.1811129834916
 11
1565.339863599798
 21
1200.4566632832702
  0
LINE
  8
_0-5_04_HIDDEN
  6
CONTINUOUS
 62
    7
 10
1561.3398635998672
 20
1168.5688881310546
 11
1561.3398635997905
 21
1197.0688881357109
  0
LINE
  8
_0-5_04_HIDDEN
  6
CONTINUOUS
 62
    7
 10
1560.3398635998672
 20
1168.5688881310546
 11
1560.3398635997905
 21
1197.0688881357109
  0
LINE
  8
_0-5_04_HIDDEN
  6
CONTINUOUS
 62
    7
 10
1569.3398635998744
 20
1168.5688881310546
 11
1569.3398635997978
 21
1197.0688881357109
  0
LINE
  8
_0-5_04_HIDDEN
  6
CONTINUOUS
 62
    7
 10
1570.3398635998744
 20
1168.5688881310546
 11
1570.3398635997978
 21
1197.0688881357109
  0
LINE
  8
_0-5_04_HIDDEN
  6
CONTINUOUS
 62
    7
 10
1590.3398635993562
 20
1254.5688881384397
 11
1582.339863599356
 21
1254.5688881384397
  0
LINE
  8
_0-5_04_HIDDEN
  6
CONTINUOUS
 62
    7
 10
1582.339863599356
 20
1254.5688881384397
 11
1582.339863599356
 21
1196.5688881384397
  0
LINE
  8
_0-5_04_HIDDEN
  6
CONTINUOUS
 62
    7
 10
1582.339863599356
 20
1196.5688881384397
 11
1590.3398635993562
 21
1196.5688881384397
  0
LINE
  8
_0-5_04_HIDDEN
  6
CONTINUOUS
 62
    7
 10
1590.3398635993562
 20
1196.5688881384397
 11
1590.3398635993562
 21
1254.5688881384397
  0
LINE
  8
_0-5_04_HIDDEN
  6
CONTINUOUS
 62
    7
 10
1540.3398636035406
 20
1254.0688881384394
 11
1582.339863599356
 21
1254.0688881363112
  0
LINE
  8
_0-5_04_HIDDEN
  6
CONTINUOUS
 62
    7
 10
1540.3398636035406
 20
1252.9863881395013
 11
1582.339863599356
 21
1252.9863881373767
  0
LINE
  8
_0-5_04_HIDDEN
  6
CONTINUOUS
 62
    7
 10
1540.3398636035406
 20
1197.0688881341941
 11
1582.339863599356
 21
1197.0688881363187
  0
LINE
  8
_0-5_04_HIDDEN
  6
CONTINUOUS
 62
    7
 10
1540.3398636035406
 20
1198.1513881331286
 11
1582.339863599356
 21
1198.1513881352569
  0
LINE
  8
_0-6_05_CENTER
  6
CENTER2
 62
    4
 10
1533.969714426034
 20
1225.5688881384397
 11
1673.1140031673772
 21
1225.5688881384397
  0
LINE
  8
_0-5_04_HIDDEN
  6
CONTINUOUS
 62
    7
 10
2644.576067581083
 20
1739.0378896681671
 11
2644.576067581083
 21
1723.771577602201
  0
LINE
  8
_0-5_04_HIDDEN
  6
CONTINUOUS
 62
    7
 10
2644.576067581083
 20
1674.0378896635359
 11
2644.576067581083
 21
1689.304201729502
  0
INSERT
  2
-004-M6Za
  8
_0-4_0
 10
2628.576067581083
 20
1706.5378896658697
 41
1
 42
1
 50
0
  0
CIRCLE
  8
_0-4_0
  6
CONTINUOUS
 62
   18
 10
2656.5760675857723
 20
1706.5378896658515
 40
21
  0
LINE
  8
_0-6_05_CENTER
  6
CENTER2
 62
    4
 10
2614.2955319936536
 20
1706.5378896658515
 11
2698.8566031778914
 21
1706.5378896658515
  0
LINE
  8
_0-6_05_CENTER
  6
CENTER2
 62
    4
 10
2656.5760675857687
 20
1745.0820830539637
 11
2656.5760675857687
 21
1667.9936962777392
  0
LINE
  8
_0-4_0
  6
CONTINUOUS
 62
   18
 10
2637.8121838357674
 20
1739.0378896681671
 11
2619.0483000857689
 21
1706.5378896658515
  0
LINE
  8
_0-4_0
  6
CONTINUOUS
 62
   18
 10
2619.0483000857689
 20
1706.5378896658515
 11
2637.8121838357674
 21
1674.0378896635359
  0
LINE
  8
_0-4_0
  6
CONTINUOUS
 62
   18
 10
2637.8121838357674
 20
1674.0378896635359
 11
2675.3399513357672
 21
1674.0378896635359
  0
LINE
  8
_0-4_0
  6
CONTINUOUS
 62
   18
 10
2675.3399513357672
 20
1674.0378896635359
 11
2694.1038350857684
 21
1706.5378896658515
  0
LINE
  8
_0-4_0
  6
CONTINUOUS
 62
   18
 10
2694.1038350857684
 20
1706.5378896658515
 11
2675.3399513357672
 21
1739.0378896681671
  0
LINE
  8
_0-4_0
  6
CONTINUOUS
 62
   18
 10
2675.3399513357672
 20
1739.0378896681671
 11
2637.8121838357674
 21
1739.0378896681671
  0
CIRCLE
  8
_0-4_0
  6
CONTINUOUS
 62
   18
 10
2656.5760675857723
 20
1706.5378896658515
 40
19.692499999999999
  0
LINE
  8
_0-5_04_HIDDEN
  6
CONTINUOUS
 62
    7
 10
2623.0760675810834
 20
1563.813819022813
 11
2623.0760675810834
 21
1570.313819022813
  0
LINE
  8
_0-5_04_HIDDEN
  6
CONTINUOUS
 62
    7
 10
2634.0760675810834
 20
1563.813819022813
 11
2634.0760675810834
 21
1570.313819022813
  0
LINE
  8
_0-6_05_CENTER
  6
CENTER2
 62
    4
 10
2628.576067581083
 20
1535.0441642763255
 11
2628.576067581083
 21
1573.354708047493
  0
LINE
  8
_0-5_04_HIDDEN
  6
CONTINUOUS
 62
    7
 10
2623.0760675810834
 20
1563.813819022813
 11
2634.0760675810834
 21
1563.813819022813
  0
LINE
  8
_0-5_04_HIDDEN
  6
CONTINUOUS
 62
    7
 10
2625.1760675789933
 20
1559.3138190202765
 11
2625.1760675789933
 21
1563.813819022813
  0
LINE
  8
_0-5_04_HIDDEN
  6
CONTINUOUS
 62
    7
 10
2631.9760675789967
 20
1559.3138190202765
 11
2631.9760675789967
 21
1563.813819022813
  0
LINE
  8
_0-4_0
  6
CONTINUOUS
 62
   18
 10
2619.0483000857689
 20
1559.3138190202765
 11
2644.576067581083
 21
1559.3138190202765
  0
LINE
  8
_0-4_0
  6
CONTINUOUS
 62
   18
 10
2644.576067581083
 20
1559.3138190202765
 11
2644.576067581083
 21
1557.3138190202765
  0
LINE
  8
_0-4_0
  6
CONTINUOUS
 62
   18
 10
2644.576067581083
 20
1557.3138190202765
 11
2619.0483000857689
 21
1557.3138190202765
  0
LINE
  8
_0-5_04_HIDDEN
  6
CONTINUOUS
 62
    7
 10
2631.0760675810902
 20
1557.3138190202765
 11
2631.0760675810902
 21
1538.3138190228128
  0
LINE
  8
_0-5_04_HIDDEN
  6
CONTINUOUS
 62
    7
 10
2626.0760675810684
 20
1557.3138190202765
 11
2626.0760675810684
 21
1538.3138190228128
  0
LINE
  8
_0-5_04_HIDDEN
  6
CONTINUOUS
 62
    7
 10
2625.5760675810834
 20
1557.3138190202765
 11
2625.5760675810834
 21
1538.3138190228128
  0
LINE
  8
_0-5_04_HIDDEN
  6
CONTINUOUS
 62
    7
 10
2631.576067581083
 20
1557.3138190202765
 11
2631.576067581083
 21
1538.3138190228128
  0
LINE
  8
_0-4_0
  6
CONTINUOUS
 62
   18
 10
2619.0483000857689
 20
1557.3138190202765
 11
2619.0483000857689
 21
1538.3138190228128
  0
LINE
  8
_0-4_0
  6
CONTINUOUS
 62
   18
 10
2619.0483000857689
 20
1538.3138190228128
 11
2694.1038350857684
 21
1538.3138190228128
  0
LINE
  8
_0-4_0
  6
CONTINUOUS
 62
   18
 10
2694.1038350857684
 20
1538.3138190228128
 11
2694.1038350857684
 21
1570.313819022813
  0
LINE
  8
_0-4_0
  6
CONTINUOUS
 62
   18
 10
2694.1038350857684
 20
1570.313819022813
 11
2619.0483000857689
 21
1570.313819022813
  0
LINE
  8
_0-4_0
  6
CONTINUOUS
 62
   18
 10
2619.0483000857689
 20
1570.313819022813
 11
2619.0483000857689
 21
1559.3138190202765
  0
LINE
  8
_0-6_05_CENTER
  6
CENTER2
 62
    4
 10
2656.5760675857687
 20
1576.5988467557765
 11
2656.5760675857687
 21
1532.0605339951983
  0
LINE
  8
_0-4_0
  6
CONTINUOUS
 62
   18
 10
2637.8121838357706
 20
1570.313819022813
 11
2637.8121838357674
 21
1559.3138190202765
  0
LINE
  8
_0-4_0
  6
CONTINUOUS
 62
   18
 10
2637.8121838357674
 20
1557.3138190202765
 11
2637.8121838357706
 21
1538.3138190228128
  0
LINE
  8
_0-4_0
  6
CONTINUOUS
 62
   18
 10
2675.3399513357672
 20
1570.313819022813
 11
2675.3399513357672
 21
1538.3138190228128
  0
LINE
  8
_0-5_04_HIDDEN
  6
CONTINUOUS
 62
    7
 10
2636.8835675857717
 20
1570.313819022813
 11
2636.8835675857717
 21
1559.3138190202765
  0
LINE
  8
_0-5_04_HIDDEN
  6
CONTINUOUS
 62
    7
 10
2636.8835675857717
 20
1557.3138190202765
 11
2636.8835675857717
 21
1538.3138190228128
  0
LINE
  8
_0-5_04_HIDDEN
  6
CONTINUOUS
 62
    7
 10
2635.5760675857728
 20
1570.313819022813
 11
2635.5760675857728
 21
1559.3138190202765
  0
LINE
  8
_0-5_04_HIDDEN
  6
CONTINUOUS
 62
    7
 10
2635.5760675857728
 20
1557.3138190202765
 11
2635.5760675857728
 21
1538.3138190228128
  0
LINE
  8
_0-5_04_HIDDEN
  6
CONTINUOUS
 62
    7
 10
2676.268567585766
 20
1570.313819022813
 11
2676.268567585766
 21
1538.3138190228128
  0
LINE
  8
_0-5_04_HIDDEN
  6
CONTINUOUS
 62
    7
 10
2677.576067585765
 20
1570.313819022813
 11
2677.576067585765
 21
1538.3138190228128
  0
LINE
  8
_0-4_0
  6
CONTINUOUS
 62
   18
 10
2462.1615905923227
 20
1570.313819022813
 11
2527.1615905969543
 21
1570.313819022813
  0
LINE
  8
_0-4_0
  6
CONTINUOUS
 62
   18
 10
2527.1615905969543
 20
1570.313819022813
 11
2527.1615905969543
 21
1538.3138190228128
  0
LINE
  8
_0-4_0
  6
CONTINUOUS
 62
   18
 10
2527.1615905969543
 20
1538.3138190228128
 11
2462.1615905923227
 21
1538.3138190228128
  0
LINE
  8
_0-4_0
  6
CONTINUOUS
 62
   18
 10
2462.1615905923227
 20
1538.3138190228128
 11
2462.1615905923227
 21
1570.313819022813
  0
LINE
  8
_0-4_0
  6
CONTINUOUS
 62
   18
 10
2527.1615905969543
 20
1559.3138190202772
 11
2462.1615905923227
 21
1559.3138190202772
  0
LINE
  8
_0-4_0
  6
CONTINUOUS
 62
   18
 10
2527.1615905969543
 20
1557.3138190202774
 11
2462.1615905923227
 21
1557.3138190202774
  0
LINE
  8
_0-5_04_HIDDEN
  6
CONTINUOUS
 62
    7
 10
2489.1615905946378
 20
1563.813819022813
 11
2489.1615905946378
 21
1570.313819022813
  0
LINE
  8
_0-5_04_HIDDEN
  6
CONTINUOUS
 62
    7
 10
2500.1615905946378
 20
1563.813819022813
 11
2500.1615905946378
 21
1570.313819022813
  0
LINE
  8
_0-6_05_CENTER
  6
CENTER2
 62
    4
 10
2494.6615905946383
 20
1535.0441642763255
 11
2494.6615905946383
 21
1573.354708047493
  0
LINE
  8
_0-5_04_HIDDEN
  6
CONTINUOUS
 62
    7
 10
2489.1615905946378
 20
1563.813819022813
 11
2500.1615905946378
 21
1563.813819022813
  0
LINE
  8
_0-5_04_HIDDEN
  6
CONTINUOUS
 62
    7
 10
2491.2615905925486
 20
1559.3138190202772
 11
2491.2615905925486
 21
1563.813819022813
  0
LINE
  8
_0-5_04_HIDDEN
  6
CONTINUOUS
 62
    7
 10
2498.0615905925515
 20
1559.3138190202772
 11
2498.0615905925515
 21
1563.813819022813
  0
LINE
  8
_0-5_04_HIDDEN
  6
CONTINUOUS
 62
    7
 10
2497.1615905946455
 20
1557.3138190202774
 11
2497.1615905946455
 21
1538.3138190228128
  0
LINE
  8
_0-5_04_HIDDEN
  6
CONTINUOUS
 62
    7
 10
2492.1615905946232
 20
1557.3138190202774
 11
2492.1615905946232
 21
1538.3138190228128
  0
LINE
  8
_0-5_04_HIDDEN
  6
CONTINUOUS
 62
    7
 10
2491.6615905946378
 20
1557.3138190202774
 11
2491.6615905946378
 21
1538.3138190228128
  0
LINE
  8
_0-5_04_HIDDEN
  6
CONTINUOUS
 62
    7
 10
2497.6615905946378
 20
1557.3138190202774
 11
2497.6615905946378
 21
1538.3138190228128
  0
LINE
  8
_0-5_04_HIDDEN
  6
CONTINUOUS
 62
    7
 10
2515.6615905963122
 20
1570.313819022813
 11
2515.6615905963122
 21
1538.3138190228128
  0
LINE
  8
_0-5_04_HIDDEN
  6
CONTINUOUS
 62
    7
 10
2514.3540905963123
 20
1570.313819022813
 11
2514.3540905963123
 21
1538.3138190228128
  0
LINE
  8
_0-5_04_HIDDEN
  6
CONTINUOUS
 62
    7
 10
2473.6615905929634
 20
1570.313819022813
 11
2473.6615905929634
 21
1538.3138190228128
  0
LINE
  8
_0-5_04_HIDDEN
  6
CONTINUOUS
 62
    7
 10
2474.9690905929633
 20
1570.313819022813
 11
2474.9690905929633
 21
1538.3138190228128
  0
LINE
  8
_0-4_0
  6
CONTINUOUS
 62
   18
 10
2494.6615905946383
 20
1570.313819022813
 11
2494.6615905946383
 21
1559.3138190202772
  0
LINE
  8
_0-4_0
  6
CONTINUOUS
 62
   18
 10
2494.6615905946383
 20
1557.3138190202774
 11
2494.6615905946383
 21
1538.3138190228128
  0
LINE
  8
_0-4_0
  6
CONTINUOUS
 62
   18
 10
2117.0921338235039
 20
1649.0153995791072
 11
2117.0921338235039
 21
1607.0153995791161
  0
LINE
  8
_0-4_0
  6
CONTINUOUS
 62
   18
 10
2117.0921338235039
 20
1607.0153995791161
 11
2119.0921338235034
 21
1609.015399579107
  0
LINE
  8
_0-4_0
  6
CONTINUOUS
 62
   18
 10
2119.0921338235034
 20
1609.015399579107
 11
2119.0921338235034
 21
1647.0153995791072
  0
LINE
  8
_0-4_0
  6
CONTINUOUS
 62
   18
 10
2119.0921338235034
 20
1647.0153995791072
 11
2117.0921338235039
 21
1649.0153995791072
  0
LINE
  8
_0-4_0
  6
CONTINUOUS
 62
   18
 10
2113.0921338194471
 20
1647.7078995795612
 11
2118.3996338252414
 21
1647.7078995808381
  0
LINE
  8
_0-4_0
  6
CONTINUOUS
 62
   18
 10
2029.0921338235037
 20
1602.5153995791115
 11
2029.0921338235037
 21
1653.5153995791118
  0
LINE
  8
_0-4_0
  6
CONTINUOUS
 62
   18
 10
2029.0921338235037
 20
1653.5153995791118
 11
2027.0921338235034
 21
1655.5153995791115
  0
LINE
  8
_0-4_0
  6
CONTINUOUS
 62
   18
 10
2027.0921338235034
 20
1655.5153995791115
 11
1371.0921338278874
 21
1655.5153995791115
  0
LINE
  8
_0-4_0
  6
CONTINUOUS
 62
   18
 10
1371.0921338278874
 20
1655.5153995791115
 11
1369.0921338278872
 21
1653.5153995791118
  0
LINE
  8
_0-4_0
  6
CONTINUOUS
 62
   18
 10
1369.0921338278872
 20
1653.5153995791118
 11
1369.0921338278872
 21
1602.5153995791115
  0
LINE
  8
_0-4_0
  6
CONTINUOUS
 62
   18
 10
1369.0921338278872
 20
1602.5153995791115
 11
1371.0921338278874
 21
1600.5153995791118
  0
LINE
  8
_0-4_0
  6
CONTINUOUS
 62
   18
 10
1371.0921338278874
 20
1600.5153995791118
 11
2027.0921338235034
 21
1600.5153995791118
  0
LINE
  8
_0-4_0
  6
CONTINUOUS
 62
   18
 10
2027.0921338235034
 20
1600.5153995791118
 11
2029.0921338235037
 21
1602.5153995791115
  0
LINE
  8
_0-4_0
  6
CONTINUOUS
 62
   18
 10
2029.0921338235037
 20
1607.0153995791072
 11
2117.0921338235039
 21
1607.0153995791072
  0
LINE
  8
_0-4_0
  6
CONTINUOUS
 62
   18
 10
2117.0921338235039
 20
1649.0153995791072
 11
2029.0921338235037
 21
1649.0153995791072
  0
LINE
  8
_0-4_0
  6
CONTINUOUS
 62
   18
 10
2079.0921338235034
 20
1649.0153995791072
 11
2079.0921338235034
 21
1607.0153995791161
  0
LINE
  8
_0-4_0
  6
CONTINUOUS
 62
   18
 10
2079.0921338235034
 20
1608.3228995808458
 11
2118.3996338252414
 21
1608.3228995808458
  0
LINE
  8
_0-4_0
  6
CONTINUOUS
 62
   18
 10
2079.0921338235034
 20
1647.7078995808381
 11
2118.3996338252414
 21
1647.7078995808381
  0
LINE
  8
_0-4_0
  6
CONTINUOUS
 62
   18
 10
1369.0921338278872
 20
1607.0153995791072
 11
1281.0921338278872
 21
1607.0153995791072
  0
LINE
  8
_0-4_0
  6
CONTINUOUS
 62
   18
 10
1281.0921338278872
 20
1607.0153995791072
 11
1279.0921338278874
 21
1609.015399579107
  0
LINE
  8
_0-4_0
  6
CONTINUOUS
 62
   18
 10
1279.0921338278874
 20
1609.015399579107
 11
1279.0921338278874
 21
1647.0153995791072
  0
LINE
  8
_0-4_0
  6
CONTINUOUS
 62
   18
 10
1279.0921338278874
 20
1647.0153995791072
 11
1281.0921338278872
 21
1649.0153995791072
  0
LINE
  8
_0-4_0
  6
CONTINUOUS
 62
   18
 10
1281.0921338278872
 20
1649.0153995791072
 11
1369.0921338278872
 21
1649.0153995791072
  0
LINE
  8
_0-4_0
  6
CONTINUOUS
 62
   18
 10
1319.0921338278874
 20
1649.0153995791072
 11
1319.0921338278874
 21
1607.0153995791161
  0
LINE
  8
_0-4_0
  6
CONTINUOUS
 62
   18
 10
1319.0921338278874
 20
1608.322899580847
 11
1279.7846338261495
 21
1608.322899580847
  0
LINE
  8
_0-4_0
  6
CONTINUOUS
 62
   18
 10
1319.0921338278874
 20
1647.7078995808388
 11
1279.7846338261495
 21
1647.7078995808388
  0
LINE
  8
_0-4_0
  6
CONTINUOUS
 62
   18
 10
2027.0921338235034
 20
1655.5153995791115
 11
2027.0921338235034
 21
1600.5153995791118
  0
LINE
  8
_0-4_0
  6
CONTINUOUS
 62
   18
 10
1371.0921338278874
 20
1655.5153995791115
 11
1371.0921338278874
 21
1600.5153995791118
  0
LINE
  8
_0-4_0
  6
CONTINUOUS
 62
   18
 10
1281.0921338278872
 20
1649.0153995791072
 11
1281.0921338278872
 21
1607.0153995791161
  0
LINE
  8
_0-6_05_CENTER
  6
CENTER2
 62
    4
 10
1271.1696824465923
 20
1628.015399579107
 11
2127.0145852047985
 21
1628.015399579107
  0
LINE
  8
_0-4_0
  6
CONTINUOUS
 62
   18
 10
1281.0921338278872
 20
1649.0153995791072
 11
1281.0921338278872
 21
1607.0153995791161
  0
LINE
  8
_0-4_0
  6
CONTINUOUS
 62
   18
 10
1281.0921338278872
 20
1607.0153995791161
 11
1279.0921338278874
 21
1609.015399579107
  0
LINE
  8
_0-4_0
  6
CONTINUOUS
 62
   18
 10
1279.0921338278874
 20
1609.015399579107
 11
1279.0921338278874
 21
1647.0153995791072
  0
LINE
  8
_0-4_0
  6
CONTINUOUS
 62
   18
 10
1279.0921338278874
 20
1647.0153995791072
 11
1281.0921338278872
 21
1649.0153995791072
  0
LINE
  8
_0-4_0
  6
CONTINUOUS
 62
   18
 10
1279.0921338278874
 20
1609.015399579107
 11
1279.0921338278874
 21
1647.0153995791072
  0
LINE
  8
_0-4_0
  6
CONTINUOUS
 62
   18
 10
1281.0921338278872
 20
1649.0153995791072
 11
1281.0921338278872
 21
1607.0153995791161
  0
LINE
  8
_0-6_05_CENTER
  6
CENTER2
 62
    4
 10
2395.1454263872433
 20
1132.3768082295057
 11
2516.6162283550798
 21
1132.3768082295057
  0
LINE
  8
_0-4_0
  6
CONTINUOUS
 62
   18
 10
2406.2786679144097
 20
1232.3768082259785
 11
2406.2786679144097
 21
1032.3768082330328
  0
LINE
  8
_0-4_0
  6
CONTINUOUS
 62
   18
 10
2406.2786679144097
 20
1032.3768082330328
 11
2421.2786679144101
 21
1032.3768082330328
  0
LINE
  8
_0-4_0
  6
CONTINUOUS
 62
   18
 10
2421.2786679144101
 20
1032.3768082330328
 11
2421.2786679144101
 21
1232.3768082259785
  0
LINE
  8
_0-4_0
  6
CONTINUOUS
 62
   18
 10
2421.2786679144101
 20
1232.3768082259785
 11
2406.2786679144097
 21
1232.3768082259785
  0
LINE
  8
_0-4_0
  6
CONTINUOUS
 62
   18
 10
2421.2786679184665
 20
1062.3768082330328
 11
2496.2786679152614
 21
1062.3768082330328
  0
LINE
  8
_0-4_0
  6
CONTINUOUS
 62
   18
 10
2496.2786679152614
 20
1062.3768082330328
 11
2506.2786679152609
 21
1072.3768082330325
  0
LINE
  8
_0-6_05_CENTER
  6
CENTER2
 62
    4
 10
2397.307903672503
 20
1044.8768082330328
 11
2430.4271602763424
 21
1044.8768082330328
  0
LINE
  8
_0-4_0
  6
CONTINUOUS
 62
   18
 10
2421.2786679184665
 20
1202.3768082259785
 11
2496.2786679152614
 21
1202.3768082259785
  0
LINE
  8
_0-4_0
  6
CONTINUOUS
 62
   18
 10
2496.2786679152614
 20
1202.3768082259785
 11
2506.2786679152609
 21
1192.3768082259787
  0
LINE
  8
_0-6_05_CENTER
  6
CENTER2
 62
    4
 10
2397.307903672503
 20
1219.8768082259787
 11
2430.4271602763424
 21
1219.8768082259787
  0
LINE
  8
_0-5_04_HIDDEN
  6
CONTINUOUS
 62
    7
 10
2406.278667918466
 20
1192.3768082259787
 11
2506.2786679152609
 21
1192.3768082259787
  0
LINE
  8
_0-5_04_HIDDEN
  6
CONTINUOUS
 62
    7
 10
2406.278667918466
 20
1072.3768082330325
 11
2506.2786679152609
 21
1072.3768082330325
  0
LINE
  8
_0-4_0
  6
CONTINUOUS
 62
   18
 10
2506.2786679152609
 20
1192.3768082259787
 11
2506.2786679152609
 21
1072.3768082330325
  0
LINE
  8
_0-4_0
  6
CONTINUOUS
 62
   18
 10
2496.2786679152614
 20
1062.3768082330328
 11
2496.2786679152614
 21
1202.3768082259785
  0
INSERT
  2
-001-p1ba02
  8
_0-2_08_DIM
 10
1341.2307225892362
 20
1649.0153995791072
 41
4
 42
4
 50
0
  0
INSERT
  2
-001-p1ba02
  8
_0-2_08_DIM
 10
1369.0921338278872
 20
1707.474709995505
 41
-4
 42
4
 50
89.999999999999986
  0
INSERT
  2
-002-p1ba05
  8
_0-2_08_DIM
 10
1695.4044815296963
 20
1655.5153995791115
 41
4
 42
4
 50
0
  0
LINE
  8
_0-2_08_DIM
  6
CONTINUOUS
 62
    3
 10
1369.0921338278872
 20
1602.5153995791115
 11
1369.0921338278872
 21
1487.9162009117274
  0
LINE
  8
_0-2_08_DIM
  6
CONTINUOUS
 62
    3
 10
2029.0921338235037
 20
1602.5153995791115
 11
2029.0921338235037
 21
1487.9162009117274
  0
LINE
  8
_0-2_08_DIM
  6
CONTINUOUS
 62
    3
 10
2346.7404437024961
 20
1834.6786802756974
 11
2497.1332056254591
 21
1834.6786802756974
  0
INSERT
  2
-000-p1ba01
  8
_0-2_08_DIM
 10
2380.152673056195
 20
1839.4475529283368
 41
6
 42
6
 50
0
  0
INSERT
  2
-001-p1ba02
  8
_0-2_08_DIM
 10
2435.7775593060092
 20
1839.3523299843612
 41
6
 42
6
 50
0
  0
TEXT
  8
_0-3_07_TEXT
 62
    3
 10
2406.7648748604279
 20
1838.9960815958132
 40
18
 41
1
 50
0
  1
(      )
  0
INSERT
  2
-001-p1ba02
  8
_0-2_08_DIM
 10
2724.2009004608567
 20
1538.3138190228128
 41
4
 42
4
 50
179.99999999999997
  0
INSERT
  2
-001-p1ba02
  8
_0-2_08_DIM
 10
1690.9716907581394
 20
1019.5755227525414
 41
4
 42
4
 50
0
  0
INSERT
  2
-001-p1ba02
  8
_0-2_08_DIM
 10
1502.4012127655128
 20
1014.0755227525414
 41
4
 42
4
 50
0
  0
INSERT
  2
-001-p1ba02
  8
_0-2_08_DIM
 10
1665.3398636035406
 20
1058.3134813701636
 41
4
 42
4
 50
270
  0
INSERT
  2
-001-p1ba02
  8
_0-2_08_DIM
 10
1590.3398635993562
 20
1315.0398336792362
 41
4
 42
4
 50
90
  0
LINE
  8
_0-2_08_DIM
  6
CONTINUOUS
 62
    3
 10
1221.0998177780511
 20
1270.3602248282737
 11
1371.4925797010144
 21
1270.3602248282737
  0
INSERT
  2
-000-p1ba01
  8
_0-2_08_DIM
 10
1254.5120471317505
 20
1275.1290974809128
 41
6
 42
6
 50
0
  0
INSERT
  2
-001-p1ba02
  8
_0-2_08_DIM
 10
1310.1369333815642
 20
1275.0338745369374
 41
6
 42
6
 50
0
  0
TEXT
  8
_0-3_07_TEXT
 62
    3
 10
1281.1242489359829
 20
1274.6776261483897
 40
18
 41
1
 50
0
  1
(      )
  0
LINE
  8
_0-2_08_DIM
  6
CONTINUOUS
 62
    3
 10
2012.6861000718434
 20
1306.0049641670003
 11
2163.0788619948066
 21
1306.0049641670003
  0
INSERT
  2
-000-p1ba01
  8
_0-2_08_DIM
 10
2046.0983294255427
 20
1310.7738368196394
 41
6
 42
6
 50
0
  0
INSERT
  2
-001-p1ba02
  8
_0-2_08_DIM
 10
2101.7232156753566
 20
1310.678613875664
 41
6
 42
6
 50
0
  0
TEXT
  8
_0-3_07_TEXT
 62
    3
 10
2072.7105312297749
 20
1310.322365487116
 40
18
 41
1
 50
0
  1
(      )
  0
INSERT
  2
-001-p1ba02
  8
_0-2_08_DIM
 10
2406.2786679144097
 20
1250.1234270241087
 41
4
 42
4
 50
90
  0
TEXT
  8
_0-0_90_FRAME
 62
    3
 10
2825.4771821222489
 20
787.48921625742298
 40
12
 41
1
 50
0
  1
8
  0
TEXT
  8
_0-0_90_FRAME
 62
    3
 10
2740.6893558485272
 20
787.7558814684711
 40
12
 41
1
 50
0
  1
SS400
  0
TEXT
  8
_0-0_90_FRAME
 62
    3
 10
2507.3895048278641
 20
787.59671195069177
 40
12
 41
1
 50
0
  1
āiābāg
  0
TEXT
  8
_0-0_90_FRAME
 62
    3
 10
2455.8516730338051
 20
787.2880192186517
 40
12
 41
1
 50
0
  1
23
  0
TEXT
  8
_0-0_90_FRAME
 62
    3
 10
2827.4771821222489
 20
815.48921325804042
 40
12
 41
1
 50
0
  1
1
  0
TEXT
  8
_0-0_90_FRAME
 62
    3
 10
2740.6893558485272
 20
815.75587846908843
 40
12
 41
1
 50
0
  1
SUS304
  0
TEXT
  8
_0-0_90_FRAME
 62
    3
 10
2507.3895048278641
 20
815.5967089513091
 40
12
 41
1
 50
0
  1
āsāXāgāōāxü[āX
  0
TEXT
  8
_0-0_90_FRAME
 62
    3
 10
2455.8516730338051
 20
815.28801621926902
 40
12
 41
1
 50
0
  1
24
  0
TEXT
  8
_0-0_90_FRAME
 62
    3
 10
2827.4771821222489
 20
843.48921475317468
 40
12
 41
1
 50
0
  1
1
  0
TEXT
  8
_0-0_90_FRAME
 62
    3
 10
2740.6893558485272
 20
843.75587996422269
 40
12
 41
1
 50
0
  1
SS400
  0
TEXT
  8
_0-0_90_FRAME
 62
    3
 10
2455.8516730338051
 20
843.2880177144034
 40
12
 41
1
 50
0
  1
25
  0
LINE
  8
_0-0_90_FRAME
  6
CONTINUOUS
 62
    4
 10
2445.881952949645
 20
920.79851412218159
 11
3050.767661983095
 21
920.79851412218159
  0
LINE
  8
_0-0_90_FRAME
  6
CONTINUOUS
 62
    4
 10
2445.881952949645
 20
892.79851262704722
 11
3050.767661983095
 21
892.79851262704722
  0
LINE
  8
_0-0_90_FRAME
  6
CONTINUOUS
 62
    4
 10
2445.881952949645
 20
864.79851412218159
 11
3050.767661983095
 21
864.79851412218159
  0
TEXT
  8
_0-0_90_FRAME
 62
    3
 10
2507.3895048278641
 20
843.59671044644335
 40
12
 41
1
 50
0
  1
āsāXāgāōāxü[āXāPü[āX
  0
INSERT
  2
-001-p1ba02
  8
_0-2_08_DIM
 10
2050.8451304300993
 20
1649.0153995791072
 41
4
 42
4
 50
0
  0
CIRCLE
  8
_0-4_0
  6
CONTINUOUS
 62
   18
 10
2077.0164502653492
 20
1132.3768082290583
 40
5.9999999999999991
  0
LINE
  8
_0-6_05_CENTER
  6
CENTER2
 62
    4
 10
2086.0725035612409
 20
1132.3768082290565
 11
2062.9603969693885
 21
1132.3768082290583
  0
CIRCLE
  8
_0-4_0
  6
CONTINUOUS
 62
   18
 10
2120.766450263985
 20
1056.5995854012447
 40
5.9999999999999982
  0
LINE
  8
_0-6_05_CENTER
  6
CENTER2
 62
    4
 10
2126.5444769119495
 20
1066.6074211230036
 11
2114.988423616021
 21
1046.5917496794857
  0
CIRCLE
  8
_0-4_0
  6
CONTINUOUS
 62
   18
 10
2208.2664502604198
 20
1056.5995854016849
 40
5.9999999999999991
  0
LINE
  8
_0-6_05_CENTER
  6
CENTER2
 62
    4
 10
2202.4884236124594
 20
1066.6074211234456
 11
2214.0444769083838
 21
1046.5917496799259
  0
CIRCLE
  8
_0-4_0
  6
CONTINUOUS
 62
   18
 10
2252.0164502582916
 20
1132.3768082299405
 40
5.9999999999999982
  0
LINE
  8
_0-6_05_CENTER
  6
CENTER2
 62
    4
 10
2242.9603969624
 20
1132.376808229955
 11
2266.0725035542528
 21
1132.3768082299532
  0
CIRCLE
  8
_0-4_0
  6
CONTINUOUS
 62
   18
 10
2164.5164502618204
 20
1132.3768082295585
 40
59.999999996472525
  0
CIRCLE
  8
_0-5_04_HIDDEN
  6
CONTINUOUS
 62
    7
 10
2164.5164502618204
 20
1132.3768082295585
 40
69.999999996472525
  0
CIRCLE
  8
_0-6_05_CENTER
  6
CENTER2
 62
    4
 10
2164.5164502618204
 20
1132.3768082295585
 40
87.499999996472525
  0
CIRCLE
  8
_0-4_0
  6
CONTINUOUS
 62
   18
 10
2164.5164502618204
 20
1132.3768082295585
 40
99.999999996472525
  0
LINE
  8
_0-6_05_CENTER
  6
CENTER2
 62
    4
 10
2269.8683802108239
 20
1132.3768082295057
 11
2059.1645203128169
 21
1132.3768082295057
  0
LINE
  8
_0-6_05_CENTER
  6
CENTER2
 62
    4
 10
2164.5164502613552
 20
1027.0248782805568
 11
2164.5164502613552
 21
1237.7287381785602
  0
CIRCLE
  8
_0-4_0
  6
CONTINUOUS
 62
   18
 10
2120.766450263985
 20
1208.1540310577668
 40
5.9999999999999982
  0
LINE
  8
_0-6_05_CENTER
  6
CENTER2
 62
    4
 10
2126.5444769119495
 20
1198.1461953360078
 11
2114.988423616021
 21
1218.1618667795256
  0
CIRCLE
  8
_0-4_0
  6
CONTINUOUS
 62
   18
 10
2208.2664502604198
 20
1208.1540310573268
 40
5.9999999999999991
  0
LINE
  8
_0-6_05_CENTER
  6
CENTER2
 62
    4
 10
2202.4884236124594
 20
1198.1461953355656
 11
2214.0444769083838
 21
1218.1618667790856
  0
LINE
  8
_0-4_0
  6
CONTINUOUS
 62
   18
 10
1655.3398636035406
 20
1163.5688881310546
 11
1655.3398636035406
 21
1287.5688881380174
  0
LINE
  8
_0-4_0
  6
CONTINUOUS
 62
   18
 10
1651.3398636035406
 20
1168.5688881310546
 11
1550.3398636035408
 21
1168.5688881310546
  0
ARC
  8
_0-4_0
  6
CONTINUOUS
 62
   18
 10
1651.7408010779845
 20
1164.9913881018479
 40
3.599896848159434
 50
1.233581918238041
 51
96.394567750341295
  0
LINE
  8
_0-4_0
  6
CONTINUOUS
 62
   18
 10
1540.3398636035406
 20
1178.5688881310546
 11
1540.3398636035406
 21
1272.5688881380177
  0
LINE
  8
_0-4_0
  6
CONTINUOUS
 62
   18
 10
1550.3398636035408
 20
1282.5688881380177
 11
1540.3398636035406
 21
1272.5688881380177
  0
LINE
  8
_0-4_0
  6
CONTINUOUS
 62
   18
 10
1550.3398636035408
 20
1168.5688881310546
 11
1550.3398636035408
 21
1282.5688881380177
  0
LINE
  8
_0-4_0
  6
CONTINUOUS
 62
   18
 10
1655.3398636035406
 20
1287.5688881380174
 11
1665.3398636035406
 21
1287.5688881380174
  0
LINE
  8
_0-4_0
  6
CONTINUOUS
 62
   18
 10
1665.3398636035406
 20
1287.5688881380174
 11
1665.3398636035406
 21
1163.5688881310546
  0
LINE
  8
_0-4_0
  6
CONTINUOUS
 62
   18
 10
1665.3398636035406
 20
1163.5688881310546
 11
1655.3398636035406
 21
1163.5688881310546
  0
LINE
  8
_0-4_0
  6
CONTINUOUS
 62
   18
 10
1651.3398636035406
 20
1282.5688881337649
 11
1550.3398636035408
 21
1282.5688881337649
  0
ARC
  8
_0-4_0
  6
CONTINUOUS
 62
   18
 10
1651.3398636035406
 20
1286.5688881337646
 40
4
 50
270
 51
0
  0
LINE
  8
_0-4_0
  6
CONTINUOUS
 62
   18
 10
1540.3398636035406
 20
1178.5688881310546
 11
1550.3398636035408
 21
1168.5688881310546
  0
INSERT
  2
-005-AM_BALLOON1
  8
_0-2_08_DIM
 10
1127.3384698379984
 20
1896.1863652304507
 41
5
 42
5
 50
0
  0
TEXT
  8
_0-4_0
 62
    7
 10
1113.0527555522845
 20
1888.6863652304505
 40
14.999999999999998
 41
1
 50
0
  1
22
  0
LINE
  8
_0-2_08_DIM
  6
CONTINUOUS
 62
    3
 10
1319.0921338278874
 20
1651.5153995791072
 11
1319.0921338278874
 21
1692.2753822280993
  0
LINE
  8
_0-2_08_DIM
  6
CONTINUOUS
 62
    3
 10
1279.0921338278874
 20
1649.515399579107
 11
1279.0921338278874
 21
1692.2753822280993
  0
LINE
  8
_0-2_08_DIM
  6
CONTINUOUS
 62
    3
 10
1309.0921338278874
 20
1687.2753822280995
 11
1289.0921338278874
 21
1687.2753822280995
  0
INSERT
  2
-006-_Open30
  8
_0-2_08_DIM
 10
1319.0921338278874
 20
1687.2753822280995
 41
10
 42
10
 50
0
  0
INSERT
  2
-006-_Open30
  8
_0-2_08_DIM
 10
1279.0921338278874
 20
1687.2753822280995
 41
10
 42
10
 50
180
  0
LINE
  8
_0-2_08_DIM
  6
CONTINUOUS
 62
    3
 10
1279.0921338278874
 20
1649.515399579107
 11
1279.0921338278874
 21
1729.7009059490204
  0
LINE
  8
_0-2_08_DIM
  6
CONTINUOUS
 62
    3
 10
1369.0921338278872
 20
1656.0153995791118
 11
1369.0921338278872
 21
1729.7009059490204
  0
LINE
  8
_0-2_08_DIM
  6
CONTINUOUS
 62
    3
 10
1289.0921338278874
 20
1724.7009059490206
 11
1359.0921338278872
 21
1724.7009059490206
  0
INSERT
  2
-006-_Open30
  8
_0-2_08_DIM
 10
1279.0921338278874
 20
1724.7009059490206
 41
10
 42
10
 50
180
  0
INSERT
  2
-006-_Open30
  8
_0-2_08_DIM
 10
1369.0921338278872
 20
1724.7009059490206
 41
10
 42
10
 50
0
  0
LINE
  8
_0-2_08_DIM
  6
CONTINUOUS
 62
    3
 10
1279.0921338278874
 20
1649.515399579107
 11
1279.0921338278874
 21
1760.6534463416001
  0
LINE
  8
_0-2_08_DIM
  6
CONTINUOUS
 62
    3
 10
2119.0921338235034
 20
1649.515399579107
 11
2119.0921338235034
 21
1760.6534463416001
  0
LINE
  8
_0-2_08_DIM
  6
CONTINUOUS
 62
    3
 10
1289.0921338278874
 20
1755.6534463416003
 11
2109.0921338235034
 21
1755.6534463416003
  0
INSERT
  2
-006-_Open30
  8
_0-2_08_DIM
 10
1279.0921338278874
 20
1755.6534463416003
 41
10
 42
10
 50
180
  0
INSERT
  2
-006-_Open30
  8
_0-2_08_DIM
 10
2119.0921338235034
 20
1755.6534463416003
 41
10
 42
10
 50
0
  0
LINE
  8
_0-2_08_DIM
  6
CONTINUOUS
 62
    3
 10
1278.5921338278874
 20
1649.0153995791072
 11
1227.7192934442717
 21
1649.0153995791072
  0
LINE
  8
_0-2_08_DIM
  6
CONTINUOUS
 62
    3
 10
1278.5921338278874
 20
1607.0153995791072
 11
1227.7192934442717
 21
1607.0153995791072
  0
LINE
  8
_0-2_08_DIM
  6
CONTINUOUS
 62
    3
 10
1232.7192934442714
 20
1607.0153995791072
 11
1232.7192934442714
 21
1536.0153995791072
  0
LINE
  8
_0-2_08_DIM
  6
CONTINUOUS
 62
    3
 10
1232.7192934442714
 20
1639.0153995791072
 11
1232.7192934442714
 21
1617.0153995791072
  0
INSERT
  2
-006-_Open30
  8
_0-2_08_DIM
 10
1232.7192934442714
 20
1649.0153995791072
 41
10
 42
10
 50
90
  0
INSERT
  2
-006-_Open30
  8
_0-2_08_DIM
 10
1232.7192934442714
 20
1607.0153995791072
 41
10
 42
10
 50
270
  0
LINE
  8
_0-2_08_DIM
  6
CONTINUOUS
 62
    3
 10
1325.0921338278872
 20
1649.0153995791072
 11
1335.8913951383272
 21
1649.0153995791072
  0
LINE
  8
_0-2_08_DIM
  6
CONTINUOUS
 62
    3
 10
1325.0921338278872
 20
1607.0153995791072
 11
1335.8913951383272
 21
1607.0153995791072
  0
LINE
  8
_0-2_08_DIM
  6
CONTINUOUS
 62
    3
 10
1330.891395138327
 20
1607.0153995791072
 11
1330.891395138327
 21
1536.0153995791072
  0
LINE
  8
_0-2_08_DIM
  6
CONTINUOUS
 62
    3
 10
1330.891395138327
 20
1639.0153995791072
 11
1330.891395138327
 21
1617.0153995791072
  0
INSERT
  2
-006-_Open30
  8
_0-2_08_DIM
 10
1330.891395138327
 20
1649.0153995791072
 41
10
 42
10
 50
90
  0
INSERT
  2
-006-_Open30
  8
_0-2_08_DIM
 10
1330.891395138327
 20
1607.0153995791072
 41
10
 42
10
 50
270
  0
LINE
  8
_0-2_08_DIM
  6
CONTINUOUS
 62
    3
 10
2079.0921338235034
 20
1651.5153995791072
 11
2079.0921338235034
 21
1692.2753822280993
  0
LINE
  8
_0-2_08_DIM
  6
CONTINUOUS
 62
    3
 10
2119.0921338235034
 20
1649.515399579107
 11
2119.0921338235034
 21
1692.2753822280993
  0
LINE
  8
_0-2_08_DIM
  6
CONTINUOUS
 62
    3
 10
2089.0921338235034
 20
1687.2753822280995
 11
2109.0921338235034
 21
1687.2753822280995
  0
INSERT
  2
-006-_Open30
  8
_0-2_08_DIM
 10
2079.0921338235034
 20
1687.2753822280995
 41
10
 42
10
 50
180
  0
INSERT
  2
-006-_Open30
  8
_0-2_08_DIM
 10
2119.0921338235034
 20
1687.2753822280995
 41
10
 42
10
 50
0
  0
LINE
  8
_0-2_08_DIM
  6
CONTINUOUS
 62
    3
 10
2119.0921338235034
 20
1649.515399579107
 11
2119.0921338235034
 21
1729.7009059490204
  0
LINE
  8
_0-2_08_DIM
  6
CONTINUOUS
 62
    3
 10
2029.0921338235037
 20
1656.0153995791118
 11
2029.0921338235037
 21
1729.7009059490204
  0
LINE
  8
_0-2_08_DIM
  6
CONTINUOUS
 62
    3
 10
2109.0921338235034
 20
1724.7009059490206
 11
2039.0921338235037
 21
1724.7009059490206
  0
INSERT
  2
-006-_Open30
  8
_0-2_08_DIM
 10
2119.0921338235034
 20
1724.7009059490206
 41
10
 42
10
 50
0
  0
INSERT
  2
-006-_Open30
  8
_0-2_08_DIM
 10
2029.0921338235037
 20
1724.7009059490206
 41
10
 42
10
 50
180
  0
LINE
  8
_0-2_08_DIM
  6
CONTINUOUS
 62
    3
 10
2119.5921338235034
 20
1649.0153995791072
 11
2172.4845107088636
 21
1649.0153995791072
  0
LINE
  8
_0-2_08_DIM
  6
CONTINUOUS
 62
    3
 10
2119.5921338235034
 20
1607.0153995791072
 11
2172.4845107088636
 21
1607.0153995791072
  0
LINE
  8
_0-2_08_DIM
  6
CONTINUOUS
 62
    3
 10
2167.4845107088636
 20
1607.0153995791072
 11
2167.4845107088636
 21
1536.0153995791072
  0
LINE
  8
_0-2_08_DIM
  6
CONTINUOUS
 62
    3
 10
2167.4845107088636
 20
1639.0153995791072
 11
2167.4845107088636
 21
1617.0153995791072
  0
INSERT
  2
-006-_Open30
  8
_0-2_08_DIM
 10
2167.4845107088636
 20
1649.0153995791072
 41
10
 42
10
 50
90
  0
INSERT
  2
-006-_Open30
  8
_0-2_08_DIM
 10
2167.4845107088636
 20
1607.0153995791072
 41
10
 42
10
 50
270
  0
LINE
  8
_0-2_08_DIM
  6
CONTINUOUS
 62
    3
 10
2073.0921338235034
 20
1649.0153995791072
 11
2054.1059134167026
 21
1649.0153995791072
  0
LINE
  8
_0-2_08_DIM
  6
CONTINUOUS
 62
    3
 10
2073.0921338235034
 20
1607.0153995791072
 11
2054.1059134167026
 21
1607.0153995791072
  0
LINE
  8
_0-2_08_DIM
  6
CONTINUOUS
 62
    3
 10
2059.1059134167026
 20
1607.0153995791072
 11
2059.1059134167026
 21
1536.0153995791072
  0
LINE
  8
_0-2_08_DIM
  6
CONTINUOUS
 62
    3
 10
2059.1059134167026
 20
1639.0153995791072
 11
2059.1059134167026
 21
1617.0153995791072
  0
INSERT
  2
-006-_Open30
  8
_0-2_08_DIM
 10
2059.1059134167026
 20
1649.0153995791072
 41
10
 42
10
 50
90
  0
INSERT
  2
-006-_Open30
  8
_0-2_08_DIM
 10
2059.1059134167026
 20
1607.0153995791072
 41
10
 42
10
 50
270
  0
LINE
  8
_0-2_08_DIM
  6
CONTINUOUS
 62
    3
 10
2029.0921338235037
 20
1656.0153995791118
 11
2029.0921338235037
 21
1729.7009059490204
  0
LINE
  8
_0-2_08_DIM
  6
CONTINUOUS
 62
    3
 10
1369.0921338278872
 20
1656.0153995791118
 11
1369.0921338278872
 21
1729.7009059490204
  0
LINE
  8
_0-2_08_DIM
  6
CONTINUOUS
 62
    3
 10
2019.0921338235037
 20
1724.7009059490206
 11
1379.0921338278874
 21
1724.7009059490206
  0
INSERT
  2
-006-_Open30
  8
_0-2_08_DIM
 10
2029.0921338235037
 20
1724.7009059490206
 41
10
 42
10
 50
0
  0
INSERT
  2
-006-_Open30
  8
_0-2_08_DIM
 10
1369.0921338278872
 20
1724.7009059490206
 41
10
 42
10
 50
180
  0
LINE
  8
_0-2_08_DIM
  6
CONTINUOUS
 62
    3
 10
1273.021066016038
 20
1600.9443317672299
 11
1251.2820901017503
 21
1579.2053558528437
  0
INSERT
  2
-006-_Open30
  8
_0-2_08_DIM
 10
1280.0921338278874
 20
1608.0153995791115
 41
10
 42
10
 50
45.000000000130008
  0
LINE
  8
_0-2_08_DIM
  6
CONTINUOUS
 62
    3
 10
1363.0210660160219
 20
1594.4443317672462
 11
1342.1687847864255
 21
1573.5920505376496
  0
INSERT
  2
-006-_Open30
  8
_0-2_08_DIM
 10
1370.0921338278874
 20
1601.5153995791118
 41
10
 42
10
 50
45
  0
LINE
  8
_0-2_08_DIM
  6
CONTINUOUS
 62
    3
 10
2035.1632016353692
 20
1661.5864673909768
 11
2059.0294843844777
 21
1685.4527501400855
  0
INSERT
  2
-006-_Open30
  8
_0-2_08_DIM
 10
2028.0921338235039
 20
1654.5153995791115
 41
10
 42
10
 50
225.00000000000014
  0
LINE
  8
_0-2_08_DIM
  6
CONTINUOUS
 62
    3
 10
2125.1632016353692
 20
1655.0864673909728
 11
2149.0294843844772
 21
1678.9527501400808
  0
INSERT
  2
-006-_Open30
  8
_0-2_08_DIM
 10
2118.0921338235034
 20
1648.0153995791072
 41
10
 42
10
 50
225.00000000000014
  0
LINE
  8
_0-2_08_DIM
  6
CONTINUOUS
 62
    3
 10
1714.2775716842841
 20
1655.5153995791115
 11
1725.0768329947239
 21
1655.5153995791115
  0
LINE
  8
_0-2_08_DIM
  6
CONTINUOUS
 62
    3
 10
1714.2775716842841
 20
1600.5153995791118
 11
1725.0768329947239
 21
1600.5153995791118
  0
LINE
  8
_0-2_08_DIM
  6
CONTINUOUS
 62
    3
 10
1720.0768329947239
 20
1600.5153995791118
 11
1720.0768329947239
 21
1531.3153995791117
  0
LINE
  8
_0-2_08_DIM
  6
CONTINUOUS
 62
    3
 10
1720.0768329947239
 20
1645.5153995791118
 11
1720.0768329947239
 21
1610.5153995791118
  0
INSERT
  2
-006-_Open30
  8
_0-2_08_DIM
 10
1720.0768329947239
 20
1655.5153995791115
 41
10
 42
10
 50
90
  0
INSERT
  2
-006-_Open30
  8
_0-2_08_DIM
 10
1720.0768329947239
 20
1600.5153995791118
 41
10
 42
10
 50
270
  0
INSERT
  2
-007-AM_DATUM
  8
_0-2_08_DIM
 10
1800.7678176880434
 20
1683.8040471668492
 41
4
 42
4
 50
0
  0
TEXT
  8
_0-4_0
 62
    7
 10
1795.624960545186
 20
1677.8040471668494
 40
12
 41
1
 50
0
  1
A
  0
INSERT
  2
-008-_DatumFilled
  8
_0-2_08_DIM
 10
1800.7678176880434
 20
1628.015399579107
 41
8
 42
8
 50
270
  0
LINE
  8
_0-2_08_DIM
  6
CONTINUOUS
 62
    3
 10
1800.7678176880434
 20
1636.015399579107
 11
1800.7678176880434
 21
1671.8040471668494
  0
INSERT
  2
-006-_Open30
  8
_0-2_08_DIM
 10
1369.0921338278872
 20
1493.2455189639581
 41
10
 42
10
 50
0
  0
LINE
  8
_0-2_08_DIM
  6
CONTINUOUS
 62
    3
 10
1359.0921338278872
 20
1493.2455189639581
 11
1316.281769036616
 21
1493.2455189639581
  0
INSERT
  2
-006-_Open30
  8
_0-2_08_DIM
 10
2029.0921338235037
 20
1493.2455189639581
 41
10
 42
10
 50
180
  0
LINE
  8
_0-2_08_DIM
  6
CONTINUOUS
 62
    3
 10
2039.0921338235037
 20
1493.2455189639581
 11
2074.5583517214559
 21
1493.2455189639581
  0
LINE
  8
_0-2_08_DIM
  6
CONTINUOUS
 62
    3
 10
2656.5760675857687
 20
1579.0988467557765
 11
2656.5760675857687
 21
1604.5222754766321
  0
LINE
  8
_0-2_08_DIM
  6
CONTINUOUS
 62
    3
 10
2644.576067581083
 20
1561.8138190202765
 11
2644.576067581083
 21
1604.5222754766321
  0
LINE
  8
_0-2_08_DIM
  6
CONTINUOUS
 62
    3
 10
2634.5760675810834
 20
1599.5222754766319
 11
2588.576067581083
 21
1599.5222754766319
  0
LINE
  8
_0-2_08_DIM
  6
CONTINUOUS
 62
    3
 10
2656.5760675857687
 20
1599.5222754766319
 11
2644.576067581083
 21
1599.5222754766319
  0
LINE
  8
_0-2_08_DIM
  6
CONTINUOUS
 62
    3
 10
2666.5760675857687
 20
1599.5222754766319
 11
2676.5760675857691
 21
1599.5222754766319
  0
INSERT
  2
-006-_Open30
  8
_0-2_08_DIM
 10
2656.5760675857687
 20
1599.5222754766319
 41
10
 42
10
 50
180
  0
INSERT
  2
-006-_Open30
  8
_0-2_08_DIM
 10
2644.576067581083
 20
1599.5222754766319
 41
10
 42
10
 50
0
  0
LINE
  8
_0-2_08_DIM
  6
CONTINUOUS
 62
    3
 10
2616.5483000857689
 20
1557.3138190202765
 11
2557.2264117585919
 21
1557.3138190202765
  0
LINE
  8
_0-2_08_DIM
  6
CONTINUOUS
 62
    3
 10
2616.5483000857689
 20
1559.3138190202765
 11
2557.2264117585919
 21
1559.3138190202765
  0
LINE
  8
_0-2_08_DIM
  6
CONTINUOUS
 62
    3
 10
2562.2264117585914
 20
1569.3138190202762
 11
2562.2264117585914
 21
1638.5138190202763
  0
LINE
  8
_0-2_08_DIM
  6
CONTINUOUS
 62
    3
 10
2562.2264117585914
 20
1557.3138190202765
 11
2562.2264117585914
 21
1559.3138190202765
  0
LINE
  8
_0-2_08_DIM
  6
CONTINUOUS
 62
    3
 10
2562.2264117585914
 20
1557.3138190202765
 11
2562.2264117585914
 21
1547.3138190202765
  0
INSERT
  2
-009-_DotSmall
  8
_0-2_08_DIM
 10
2562.2264117585914
 20
1557.3138190202765
 41
10
 42
10
 50
90
  0
INSERT
  2
-006-_Open30
  8
_0-2_08_DIM
 10
2562.2264117585914
 20
1559.3138190202765
 41
10
 42
10
 50
270
  0
LINE
  8
_0-2_08_DIM
  6
CONTINUOUS
 62
    3
 10
2616.5483000857689
 20
1557.3138190202765
 11
2557.2264117585919
 21
1557.3138190202765
  0
LINE
  8
_0-2_08_DIM
  6
CONTINUOUS
 62
    3
 10
2616.5483000857689
 20
1538.3138190228128
 11
2557.2264117585919
 21
1538.3138190228128
  0
LINE
  8
_0-2_08_DIM
  6
CONTINUOUS
 62
    3
 10
2562.2264117585914
 20
1538.3138190228128
 11
2562.2264117585914
 21
1507.3082634672576
  0
LINE
  8
_0-2_08_DIM
  6
CONTINUOUS
 62
    3
 10
2562.2264117585914
 20
1557.3138190202765
 11
2562.2264117585914
 21
1548.3138190228128
  0
INSERT
  2
-009-_DotSmall
  8
_0-2_08_DIM
 10
2562.2264117585914
 20
1557.3138190202765
 41
10
 42
10
 50
0
  0
INSERT
  2
-006-_Open30
  8
_0-2_08_DIM
 10
2562.2264117585914
 20
1538.3138190228128
 41
10
 42
10
 50
270
  0
LINE
  8
_0-2_08_DIM
  6
CONTINUOUS
 62
    3
 10
2628.576067581083
 20
1696.1947164119551
 11
2628.576067581083
 21
1635.7476559068111
  0
LINE
  8
_0-2_08_DIM
  6
CONTINUOUS
 62
    3
 10
2656.5760675857687
 20
1665.4936962777394
 11
2656.5760675857687
 21
1635.7476559068111
  0
LINE
  8
_0-2_08_DIM
  6
CONTINUOUS
 62
    3
 10
2638.576067581083
 20
1640.7476559068111
 11
2646.5760675857687
 21
1640.7476559068111
  0
INSERT
  2
-006-_Open30
  8
_0-2_08_DIM
 10
2628.576067581083
 20
1640.7476559068111
 41
10
 42
10
 50
180
  0
INSERT
  2
-006-_Open30
  8
_0-2_08_DIM
 10
2656.5760675857687
 20
1640.7476559068111
 41
10
 42
10
 50
0
  0
LINE
  8
_0-2_08_DIM
  6
CONTINUOUS
 62
    3
 10
2677.8399513357672
 20
1674.0378896635359
 11
2731.449483315178
 21
1674.0378896635359
  0
LINE
  8
_0-2_08_DIM
  6
CONTINUOUS
 62
    3
 10
2677.8399513357672
 20
1739.0378896681671
 11
2731.449483315178
 21
1739.0378896681671
  0
LINE
  8
_0-2_08_DIM
  6
CONTINUOUS
 62
    3
 10
2726.4494833151784
 20
1684.0378896635359
 11
2726.4494833151784
 21
1729.0378896681671
  0
INSERT
  2
-006-_Open30
  8
_0-2_08_DIM
 10
2726.4494833151784
 20
1674.0378896635359
 41
10
 42
10
 50
270
  0
INSERT
  2
-006-_Open30
  8
_0-2_08_DIM
 10
2726.4494833151784
 20
1739.0378896681671
 41
10
 42
10
 50
90
  0
LINE
  8
_0-2_08_DIM
  6
CONTINUOUS
 62
    3
 10
2619.0483000857689
 20
1709.0378896658513
 11
2619.0483000857689
 21
1768.7587565012727
  0
LINE
  8
_0-2_08_DIM
  6
CONTINUOUS
 62
    3
 10
2694.1038350857684
 20
1709.0378896658513
 11
2694.1038350857684
 21
1768.7587565012727
  0
LINE
  8
_0-2_08_DIM
  6
CONTINUOUS
 62
    3
 10
2629.0483000857689
 20
1763.758756501273
 11
2684.1038350857684
 21
1763.758756501273
  0
INSERT
  2
-006-_Open30
  8
_0-2_08_DIM
 10
2619.0483000857689
 20
1763.758756501273
 41
10
 42
10
 50
180
  0
INSERT
  2
-006-_Open30
  8
_0-2_08_DIM
 10
2694.1038350857684
 20
1763.758756501273
 41
10
 42
10
 50
0
  0
LINE
  8
_0-2_08_DIM
  6
CONTINUOUS
 62
    3
 10
2515.6615905963122
 20
1572.813819022813
 11
2515.6615905963122
 21
1606.184790577425
  0
LINE
  8
_0-2_08_DIM
  6
CONTINUOUS
 62
    3
 10
2473.6615905929634
 20
1572.813819022813
 11
2473.6615905929634
 21
1606.184790577425
  0
LINE
  8
_0-2_08_DIM
  6
CONTINUOUS
 62
    3
 10
2473.6615905929634
 20
1601.184790577425
 11
2402.6615905929634
 21
1601.184790577425
  0
LINE
  8
_0-2_08_DIM
  6
CONTINUOUS
 62
    3
 10
2505.6615905963122
 20
1601.184790577425
 11
2483.6615905929639
 21
1601.184790577425
  0
INSERT
  2
-006-_Open30
  8
_0-2_08_DIM
 10
2515.6615905963122
 20
1601.184790577425
 41
10
 42
10
 50
0
  0
INSERT
  2
-006-_Open30
  8
_0-2_08_DIM
 10
2473.6615905929634
 20
1601.184790577425
 41
10
 42
10
 50
180
  0
LINE
  8
_0-2_08_DIM
  6
CONTINUOUS
 62
    3
 10
2696.6038350857689
 20
1538.3138190228128
 11
2743.1672391218976
 21
1538.3138190228128
  0
LINE
  8
_0-2_08_DIM
  6
CONTINUOUS
 62
    3
 10
2696.6038350857689
 20
1570.313819022813
 11
2743.1672391218976
 21
1570.313819022813
  0
LINE
  8
_0-2_08_DIM
  6
CONTINUOUS
 62
    3
 10
2738.1672391218981
 20
1548.3138190228128
 11
2738.1672391218981
 21
1560.313819022813
  0
INSERT
  2
-006-_Open30
  8
_0-2_08_DIM
 10
2738.1672391218981
 20
1538.3138190228128
 41
10
 42
10
 50
270
  0
INSERT
  2
-006-_Open30
  8
_0-2_08_DIM
 10
2738.1672391218981
 20
1570.313819022813
 41
10
 42
10
 50
90
  0
LINE
  8
_0-2_08_DIM
  6
CONTINUOUS
 62
    3
 10
2477.5062038659398
 20
1745.1000661352757
 11
2589.2478705326062
 21
1745.1000661352757
  0
LINE
  8
_0-2_08_DIM
  6
CONTINUOUS
 62
    3
 10
2589.2478705326062
 20
1745.1000661352757
 11
2619.0081143117777
 21
1715.919481757853
  0
INSERT
  2
-006-_Open30
  8
_0-2_08_DIM
 10
2626.1483779467012
 20
1708.9182936284149
 41
10
 42
10
 50
315.5634628427764
  0
INSERT
  2
-005-AM_BALLOON1
  8
_0-2_08_DIM
 10
2321.7111008866004
 20
1834.6986548675043
 41
5
 42
5
 50
0
  0
TEXT
  8
_0-4_0
 62
    7
 10
2307.4253866008862
 20
1827.1986548675045
 40
14.999999999999998
 41
1
 50
0
  1
23
  0
LINE
  8
_0-2_08_DIM
  6
CONTINUOUS
 62
    3
 10
1537.8398636035406
 20
1197.0688881341941
 11
1502.566228187188
 21
1197.0688881341941
  0
LINE
  8
_0-2_08_DIM
  6
CONTINUOUS
 62
    3
 10
1537.8398636064289
 20
1254.0688881384394
 11
1502.566228187188
 21
1254.0688881384394
  0
LINE
  8
_0-2_08_DIM
  6
CONTINUOUS
 62
    3
 10
1507.566228187188
 20
1254.0688881384394
 11
1507.566228187188
 21
1325.1522214717729
  0
LINE
  8
_0-2_08_DIM
  6
CONTINUOUS
 62
    3
 10
1507.566228187188
 20
1207.0688881341941
 11
1507.566228187188
 21
1244.0688881384397
  0
INSERT
  2
-006-_Open30
  8
_0-2_08_DIM
 10
1507.566228187188
 20
1197.0688881341941
 41
10
 42
10
 50
270
  0
INSERT
  2
-006-_Open30
  8
_0-2_08_DIM
 10
1507.566228187188
 20
1254.0688881384394
 41
10
 42
10
 50
90
  0
LINE
  8
_0-2_08_DIM
  6
CONTINUOUS
 62
    3
 10
1547.8398636035406
 20
1014.0755227525414
 11
1478.0583234995881
 21
1014.0755227525414
  0
LINE
  8
_0-2_08_DIM
  6
CONTINUOUS
 62
    3
 10
1547.8398636035406
 20
900.07552274557827
 11
1478.0583234995881
 21
900.07552274557827
  0
LINE
  8
_0-2_08_DIM
  6
CONTINUOUS
 62
    3
 10
1483.0583234995881
 20
1004.0755227525415
 11
1483.0583234995881
 21
910.07552274557838
  0
INSERT
  2
-006-_Open30
  8
_0-2_08_DIM
 10
1483.0583234995881
 20
1014.0755227525414
 41
10
 42
10
 50
90
  0
INSERT
  2
-006-_Open30
  8
_0-2_08_DIM
 10
1483.0583234995881
 20
900.07552274557827
 41
10
 42
10
 50
270
  0
LINE
  8
_0-2_08_DIM
  6
CONTINUOUS
 62
    3
 10
1667.8398636035408
 20
1019.0755227525414
 11
1723.2318752652689
 21
1019.0755227525414
  0
LINE
  8
_0-2_08_DIM
  6
CONTINUOUS
 62
    3
 10
1667.8398636035408
 20
895.07552274557827
 11
1723.2318752652689
 21
895.07552274557827
  0
LINE
  8
_0-2_08_DIM
  6
CONTINUOUS
 62
    3
 10
1718.2318752652691
 20
1009.0755227525414
 11
1718.2318752652691
 21
905.07552274557838
  0
INSERT
  2
-006-_Open30
  8
_0-2_08_DIM
 10
1718.2318752652691
 20
1019.0755227525414
 41
10
 42
10
 50
90
  0
INSERT
  2
-006-_Open30
  8
_0-2_08_DIM
 10
1718.2318752652691
 20
895.07552274557827
 41
10
 42
10
 50
270
  0
LINE
  8
_0-2_08_DIM
  6
CONTINUOUS
 62
    3
 10
1655.3398636035406
 20
1021.5755227525415
 11
1655.3398636035406
 21
1079.6583714208427
  0
LINE
  8
_0-2_08_DIM
  6
CONTINUOUS
 62
    3
 10
1665.3398636035406
 20
1021.5755227525415
 11
1665.3398636035406
 21
1079.6583714208427
  0
LINE
  8
_0-2_08_DIM
  6
CONTINUOUS
 62
    3
 10
1675.3398636035404
 20
1074.6583714208427
 11
1719.3398636035404
 21
1074.6583714208427
  0
LINE
  8
_0-2_08_DIM
  6
CONTINUOUS
 62
    3
 10
1655.3398636035406
 20
1074.6583714208427
 11
1665.3398636035406
 21
1074.6583714208427
  0
LINE
  8
_0-2_08_DIM
  6
CONTINUOUS
 62
    3
 10
1645.3398636035406
 20
1074.6583714208427
 11
1635.3398636035406
 21
1074.6583714208427
  0
INSERT
  2
-006-_Open30
  8
_0-2_08_DIM
 10
1655.3398636035406
 20
1074.6583714208427
 41
10
 42
10
 50
0
  0
INSERT
  2
-006-_Open30
  8
_0-2_08_DIM
 10
1665.3398636035406
 20
1074.6583714208427
 41
10
 42
10
 50
180
  0
LINE
  8
_0-2_08_DIM
  6
CONTINUOUS
 62
    3
 10
1655.3398636035406
 20
1021.5755227525415
 11
1655.3398636035406
 21
1079.6583714208427
  0
LINE
  8
_0-2_08_DIM
  6
CONTINUOUS
 62
    3
 10
1540.3398636035406
 20
1006.5755227525414
 11
1540.3398636035406
 21
1079.6583714208427
  0
LINE
  8
_0-2_08_DIM
  6
CONTINUOUS
 62
    3
 10
1645.3398636035406
 20
1074.6583714208427
 11
1550.3398636035408
 21
1074.6583714208427
  0
INSERT
  2
-006-_Open30
  8
_0-2_08_DIM
 10
1655.3398636035406
 20
1074.6583714208427
 41
10
 42
10
 50
0
  0
INSERT
  2
-006-_Open30
  8
_0-2_08_DIM
 10
1540.3398636035406
 20
1074.6583714208427
 41
10
 42
10
 50
180
  0
LINE
  8
_0-2_08_DIM
  6
CONTINUOUS
 62
    3
 10
1540.3398636035406
 20
1006.5755227525414
 11
1540.3398636035406
 21
1115.6812606801795
  0
LINE
  8
_0-2_08_DIM
  6
CONTINUOUS
 62
    3
 10
1665.3398636035406
 20
1021.5755227525415
 11
1665.3398636035406
 21
1115.6812606801795
  0
LINE
  8
_0-2_08_DIM
  6
CONTINUOUS
 62
    3
 10
1550.3398636035408
 20
1110.6812606801793
 11
1655.3398636035406
 21
1110.6812606801793
  0
INSERT
  2
-006-_Open30
  8
_0-2_08_DIM
 10
1540.3398636035406
 20
1110.6812606801793
 41
10
 42
10
 50
180
  0
INSERT
  2
-006-_Open30
  8
_0-2_08_DIM
 10
1665.3398636035406
 20
1110.6812606801793
 41
10
 42
10
 50
0
  0
LINE
  8
_0-2_08_DIM
  6
CONTINUOUS
 62
    3
 10
1565.3398635998744
 20
967.91657356435894
 11
1565.3398635998744
 21
1056.5712496697295
  0
LINE
  8
_0-2_08_DIM
  6
CONTINUOUS
 62
    3
 10
1540.3398636035406
 20
1006.5755227525414
 11
1540.3398636035406
 21
1056.5712496697295
  0
LINE
  8
_0-2_08_DIM
  6
CONTINUOUS
 62
    3
 10
1530.3398636035406
 20
1051.5712496697295
 11
1495.3398636035406
 21
1051.5712496697295
  0
LINE
  8
_0-2_08_DIM
  6
CONTINUOUS
 62
    3
 10
1565.3398635998744
 20
1051.5712496697295
 11
1540.3398636035406
 21
1051.5712496697295
  0
LINE
  8
_0-2_08_DIM
  6
CONTINUOUS
 62
    3
 10
1575.3398635998742
 20
1051.5712496697295
 11
1585.3398635998742
 21
1051.5712496697295
  0
INSERT
  2
-006-_Open30
  8
_0-2_08_DIM
 10
1565.3398635998744
 20
1051.5712496697295
 41
10
 42
10
 50
180
  0
INSERT
  2
-006-_Open30
  8
_0-2_08_DIM
 10
1540.3398636035406
 20
1051.5712496697295
 41
10
 42
10
 50
0
  0
LINE
  8
_0-2_08_DIM
  6
CONTINUOUS
 62
    3
 10
1592.839863599356
 20
1196.5688881384397
 11
1633.6239915879999
 21
1196.5688881384397
  0
LINE
  8
_0-2_08_DIM
  6
CONTINUOUS
 62
    3
 10
1592.839863599356
 20
1254.5688881384397
 11
1633.6239915879999
 21
1254.5688881384397
  0
LINE
  8
_0-2_08_DIM
  6
CONTINUOUS
 62
    3
 10
1628.6239915879996
 20
1206.5688881384394
 11
1628.6239915879996
 21
1244.5688881384397
  0
INSERT
  2
-006-_Open30
  8
_0-2_08_DIM
 10
1628.6239915879996
 20
1196.5688881384397
 41
10
 42
10
 50
270
  0
INSERT
  2
-006-_Open30
  8
_0-2_08_DIM
 10
1628.6239915879996
 20
1254.5688881384397
 41
10
 42
10
 50
90
  0
LINE
  8
_0-2_08_DIM
  6
CONTINUOUS
 62
    3
 10
1590.3398635993562
 20
1257.0688881384397
 11
1590.3398635993562
 21
1303.3164660353568
  0
LINE
  8
_0-2_08_DIM
  6
CONTINUOUS
 62
    3
 10
1582.339863599356
 20
1257.0688881384397
 11
1582.339863599356
 21
1303.3164660353568
  0
LINE
  8
_0-2_08_DIM
  6
CONTINUOUS
 62
    3
 10
1572.339863599356
 20
1298.3164660353571
 11
1549.3398635993558
 21
1298.3164660353571
  0
LINE
  8
_0-2_08_DIM
  6
CONTINUOUS
 62
    3
 10
1590.3398635993562
 20
1298.3164660353571
 11
1582.339863599356
 21
1298.3164660353571
  0
LINE
  8
_0-2_08_DIM
  6
CONTINUOUS
 62
    3
 10
1600.339863599356
 20
1298.3164660353571
 11
1610.3398635993558
 21
1298.3164660353571
  0
INSERT
  2
-006-_Open30
  8
_0-2_08_DIM
 10
1590.3398635993562
 20
1298.3164660353571
 41
10
 42
10
 50
180
  0
INSERT
  2
-006-_Open30
  8
_0-2_08_DIM
 10
1582.339863599356
 20
1298.3164660353571
 41
10
 42
10
 50
0
  0
LINE
  8
_0-2_08_DIM
  6
CONTINUOUS
 62
    3
 10
1590.3398635993562
 20
1257.0688881384397
 11
1590.3398635993562
 21
1346.5634796087709
  0
LINE
  8
_0-2_08_DIM
  6
CONTINUOUS
 62
    3
 10
1540.3398636035406
 20
1268.0688881384397
 11
1540.3398636035406
 21
1346.5634796087709
  0
LINE
  8
_0-2_08_DIM
  6
CONTINUOUS
 62
    3
 10
1580.339863599356
 20
1341.5634796087711
 11
1550.3398636035408
 21
1341.5634796087711
  0
INSERT
  2
-006-_Open30
  8
_0-2_08_DIM
 10
1590.3398635993562
 20
1341.5634796087711
 41
10
 42
10
 50
0
  0
INSERT
  2
-006-_Open30
  8
_0-2_08_DIM
 10
1540.3398636035406
 20
1341.5634796087711
 41
10
 42
10
 50
180
  0
LINE
  8
_0-2_08_DIM
  6
CONTINUOUS
 62
    3
 10
1611.4426144636022
 20
872.61611672957758
 11
1633.9426144636034
 21
872.61611672957758
  0
LINE
  8
_0-2_08_DIM
  6
CONTINUOUS
 62
    3
 10
1633.9426144636034
 20
872.61611672957758
 11
1647.7658575888192
 21
891.25613678814489
  0
INSERT
  2
-006-_Open30
  8
_0-2_08_DIM
 10
1653.7225342800243
 20
899.28844671720367
 41
10
 42
10
 50
53.439756635740316
  0
LINE
  8
_0-2_08_DIM
  6
CONTINUOUS
 62
    3
 10
1537.8200119804815
 20
898.4837224173541
 11
1505.1361554977157
 21
869.83349543281054
  0
INSERT
  2
-006-_Open30
  8
_0-2_08_DIM
 10
1545.3398636035406
 20
905.07552274557838
 41
10
 42
10
 50
41.237367379874982
  0
LINE
  8
_0-2_08_DIM
  6
CONTINUOUS
 62
    3
 10
1495.7478522732617
 20
929.75475323747924
 11
1530.4978522732617
 21
929.75475323747924
  0
LINE
  8
_0-2_08_DIM
  6
CONTINUOUS
 62
    3
 10
1530.4978522732617
 20
929.75475323747924
 11
1553.5360262855961
 21
947.8197448462688
  0
INSERT
  2
-006-_Open30
  8
_0-2_08_DIM
 10
1561.4052511617815
 20
953.99026345073185
 41
10
 42
10
 50
38.101163879877326
  0
INSERT
  2
-007-AM_DATUM
  8
_0-2_08_DIM
 10
1715.999958406838
 20
1110.6812606801793
 41
4
 42
4
 50
0
  0
TEXT
  8
_0-4_0
 62
    7
 10
1709.7142441211238
 20
1104.6812606801795
 40
12
 41
1
 50
0
  1
B
  0
INSERT
  2
-008-_DatumFilled
  8
_0-2_08_DIM
 10
1665.3398636035406
 20
1110.6812606801793
 41
8
 42
8
 50
180
  0
LINE
  8
_0-2_08_DIM
  6
CONTINUOUS
 62
    3
 10
1673.3398636035406
 20
1110.6812606801793
 11
1703.9999584068378
 21
1110.6812606801793
  0
INSERT
  2
-006-_Open30
  8
_0-2_08_DIM
 10
1590.3398635993562
 20
1341.5634796087711
 41
10
 42
10
 50
180
  0
LINE
  8
_0-2_08_DIM
  6
CONTINUOUS
 62
    3
 10
1600.339863599356
 20
1341.5634796087711
 11
1624.7339368139089
 21
1341.5634796087711
  0
INSERT
  2
-006-_Open30
  8
_0-2_08_DIM
 10
1718.2318752652691
 20
1019.5755227525414
 41
10
 42
10
 50
270
  0
LINE
  8
_0-2_08_DIM
  6
CONTINUOUS
 62
    3
 10
1718.2318752652691
 20
1029.5755227525412
 11
1718.2318752652691
 21
1048.7778492623681
  0
LINE
  8
_0-2_08_DIM
  6
CONTINUOUS
 62
    3
 10
1718.2318752652691
 20
1048.7778492623681
 11
1742.8126919528627
 21
1048.7778492623681
  0
INSERT
  2
-005-AM_BALLOON1
  8
_0-2_08_DIM
 10
1196.0704749621555
 20
1270.3801994200808
 41
5
 42
5
 50
0
  0
TEXT
  8
_0-4_0
 62
    7
 10
1181.4276178192981
 20
1262.8801994200805
 40
14.999999999999998
 41
1
 50
0
  1
24
  0
INSERT
  2
-006-_Open30
  8
_0-2_08_DIM
 10
1507.566228187188
 20
1197.0688881341941
 41
10
 42
10
 50
90
  0
LINE
  8
_0-2_08_DIM
  6
CONTINUOUS
 62
    3
 10
1507.566228187188
 20
1187.0688881341941
 11
1507.566228187188
 21
1164.8212125264354
  0
LINE
  8
_0-2_08_DIM
  6
CONTINUOUS
 62
    3
 10
1507.566228187188
 20
1164.8212125264354
 11
1488.9409629883939
 21
1164.8212125264354
  0
LINE
  8
_0-2_08_DIM
  6
CONTINUOUS
 62
    3
 10
2508.7786679152609
 20
1072.3768082330325
 11
2555.6551927977871
 21
1072.3768082330325
  0
LINE
  8
_0-2_08_DIM
  6
CONTINUOUS
 62
    3
 10
2508.7786679152609
 20
1192.3768082259787
 11
2555.6551927977871
 21
1192.3768082259787
  0
LINE
  8
_0-2_08_DIM
  6
CONTINUOUS
 62
    3
 10
2550.6551927977871
 20
1082.3768082330328
 11
2550.6551927977871
 21
1182.3768082259787
  0
INSERT
  2
-006-_Open30
  8
_0-2_08_DIM
 10
2550.6551927977871
 20
1072.3768082330325
 41
10
 42
10
 50
270
  0
INSERT
  2
-006-_Open30
  8
_0-2_08_DIM
 10
2550.6551927977871
 20
1192.3768082259787
 41
10
 42
10
 50
90
  0
LINE
  8
_0-2_08_DIM
  6
CONTINUOUS
 62
    3
 10
2508.7786679152609
 20
1072.3768082330325
 11
2555.6551927977871
 21
1072.3768082330325
  0
LINE
  8
_0-2_08_DIM
  6
CONTINUOUS
 62
    3
 10
2498.7786679152614
 20
1062.3768082330328
 11
2555.6551927977871
 21
1062.3768082330328
  0
LINE
  8
_0-2_08_DIM
  6
CONTINUOUS
 62
    3
 10
2550.6551927977871
 20
1052.3768082330328
 11
2550.6551927977871
 21
1022.8768082330328
  0
LINE
  8
_0-2_08_DIM
  6
CONTINUOUS
 62
    3
 10
2550.6551927977871
 20
1072.3768082330325
 11
2550.6551927977871
 21
1062.3768082330328
  0
LINE
  8
_0-2_08_DIM
  6
CONTINUOUS
 62
    3
 10
2550.6551927977871
 20
1082.3768082330328
 11
2550.6551927977871
 21
1092.3768082330328
  0
INSERT
  2
-006-_Open30
  8
_0-2_08_DIM
 10
2550.6551927977871
 20
1072.3768082330325
 41
10
 42
10
 50
270
  0
INSERT
  2
-006-_Open30
  8
_0-2_08_DIM
 10
2550.6551927977871
 20
1062.3768082330328
 41
10
 42
10
 50
90
  0
LINE
  8
_0-2_08_DIM
  6
CONTINUOUS
 62
    3
 10
2498.7786679152614
 20
1202.3768082259785
 11
2590.1353880882343
 21
1202.3768082259785
  0
LINE
  8
_0-2_08_DIM
  6
CONTINUOUS
 62
    3
 10
2498.7786679152614
 20
1062.3768082330328
 11
2590.1353880882343
 21
1062.3768082330328
  0
LINE
  8
_0-2_08_DIM
  6
CONTINUOUS
 62
    3
 10
2585.1353880882339
 20
1192.3768082259787
 11
2585.1353880882339
 21
1072.3768082330325
  0
INSERT
  2
-006-_Open30
  8
_0-2_08_DIM
 10
2585.1353880882339
 20
1202.3768082259785
 41
10
 42
10
 50
90
  0
INSERT
  2
-006-_Open30
  8
_0-2_08_DIM
 10
2585.1353880882339
 20
1062.3768082330328
 41
10
 42
10
 50
270
  0
LINE
  8
_0-2_08_DIM
  6
CONTINUOUS
 62
    3
 10
2403.7786679144097
 20
1232.3768082259785
 11
2355.3151114092029
 21
1232.3768082259785
  0
LINE
  8
_0-2_08_DIM
  6
CONTINUOUS
 62
    3
 10
2403.7786679144097
 20
1032.3768082330328
 11
2355.3151114092029
 21
1032.3768082330328
  0
LINE
  8
_0-2_08_DIM
  6
CONTINUOUS
 62
    3
 10
2360.3151114092029
 20
1222.3768082259785
 11
2360.3151114092029
 21
1042.3768082330325
  0
INSERT
  2
-006-_Open30
  8
_0-2_08_DIM
 10
2360.3151114092029
 20
1232.3768082259785
 41
10
 42
10
 50
90
  0
INSERT
  2
-006-_Open30
  8
_0-2_08_DIM
 10
2360.3151114092029
 20
1032.3768082330328
 41
10
 42
10
 50
270
  0
LINE
  8
_0-2_08_DIM
  6
CONTINUOUS
 62
    3
 10
2421.2786679144101
 20
1234.8768082259787
 11
2421.2786679144101
 21
1281.7567709696896
  0
LINE
  8
_0-2_08_DIM
  6
CONTINUOUS
 62
    3
 10
2406.2786679144097
 20
1234.8768082259787
 11
2406.2786679144097
 21
1281.7567709696896
  0
LINE
  8
_0-2_08_DIM
  6
CONTINUOUS
 62
    3
 10
2396.2786679144101
 20
1276.7567709696898
 11
2350.1953345810762
 21
1276.7567709696898
  0
LINE
  8
_0-2_08_DIM
  6
CONTINUOUS
 62
    3
 10
2421.2786679144101
 20
1276.7567709696898
 11
2406.2786679144097
 21
1276.7567709696898
  0
LINE
  8
_0-2_08_DIM
  6
CONTINUOUS
 62
    3
 10
2431.2786679144097
 20
1276.7567709696898
 11
2441.2786679144101
 21
1276.7567709696898
  0
INSERT
  2
-006-_Open30
  8
_0-2_08_DIM
 10
2421.2786679144101
 20
1276.7567709696898
 41
10
 42
10
 50
180
  0
INSERT
  2
-006-_Open30
  8
_0-2_08_DIM
 10
2406.2786679144097
 20
1276.7567709696898
 41
10
 42
10
 50
0
  0
LINE
  8
_0-2_08_DIM
  6
CONTINUOUS
 62
    3
 10
2421.2786679144101
 20
1234.8768082259787
 11
2421.2786679144101
 21
1281.7567709696896
  0
LINE
  8
_0-2_08_DIM
  6
CONTINUOUS
 62
    3
 10
2506.2786679152609
 20
1194.8768082259787
 11
2506.2786679152609
 21
1281.7567709696896
  0
LINE
  8
_0-2_08_DIM
  6
CONTINUOUS
 62
    3
 10
2431.2786679144097
 20
1276.7567709696898
 11
2496.2786679152614
 21
1276.7567709696898
  0
INSERT
  2
-006-_Open30
  8
_0-2_08_DIM
 10
2421.2786679144101
 20
1276.7567709696898
 41
10
 42
10
 50
180
  0
INSERT
  2
-006-_Open30
  8
_0-2_08_DIM
 10
2506.2786679152609
 20
1276.7567709696898
 41
10
 42
10
 50
0
  0
LINE
  8
_0-2_08_DIM
  6
CONTINUOUS
 62
    3
 10
2406.2786679144097
 20
1234.8768082259787
 11
2406.2786679144097
 21
1312.4313731327456
  0
LINE
  8
_0-2_08_DIM
  6
CONTINUOUS
 62
    3
 10
2506.2786679152609
 20
1194.8768082259787
 11
2506.2786679152609
 21
1312.4313731327456
  0
LINE
  8
_0-2_08_DIM
  6
CONTINUOUS
 62
    3
 10
2416.2786679144101
 20
1307.4313731327459
 11
2496.2786679152614
 21
1307.4313731327459
  0
INSERT
  2
-006-_Open30
  8
_0-2_08_DIM
 10
2406.2786679144097
 20
1307.4313731327459
 41
10
 42
10
 50
180
  0
INSERT
  2
-006-_Open30
  8
_0-2_08_DIM
 10
2506.2786679152609
 20
1307.4313731327459
 41
10
 42
10
 50
0
  0
LINE
  8
_0-2_08_DIM
  6
CONTINUOUS
 62
    3
 10
2508.3497357271281
 20
1204.4478760378431
 11
2545.1948144243702
 21
1241.2929547350855
  0
INSERT
  2
-006-_Open30
  8
_0-2_08_DIM
 10
2501.2786679152623
 20
1197.376808225978
 41
10.000000000000002
 42
10.000000000000002
 50
224.99999999999952
  0
LINE
  8
_0-2_08_DIM
  6
CONTINUOUS
 62
    3
 10
2320.3048256656643
 20
1240.6393881870026
 11
2247.9214923323311
 21
1240.6393881870026
  0
LINE
  8
_0-2_08_DIM
  6
CONTINUOUS
 62
    3
 10
2247.9214923323311
 20
1240.6393881870026
 11
2220.6435965930491
 21
1218.2933726858716
  0
INSERT
  2
-006-_Open30
  8
_0-2_08_DIM
 10
2212.9078801351543
 20
1211.9562841680229
 41
10
 42
10
 50
219.32428806672851
  0
INSERT
  2
-005-AM_BALLOON1
  8
_0-2_08_DIM
 10
1987.6567572559475
 20
1306.0249387588071
 41
5
 42
5
 50
0
  0
TEXT
  8
_0-4_0
 62
    7
 10
1973.3710429702335
 20
1298.5249387588071
 40
14.999999999999998
 41
1
 50
0
  1
25
  0
LINE
  8
_0-2_08_DIM
  6
CONTINUOUS
 62
    3
 10
2442.3521975241119
 20
1509.4791326285504
 11
2471.4950546669693
 21
1509.4791326285504
  0
INSERT
  2
-006-_Open30
  8
_0-2_08_DIM
 10
2491.6615905946378
 20
1542.377320665961
 41
10
 42
10
 50
58.869443472797037
  0
LINE
  8
_0-2_08_DIM
  6
CONTINUOUS
 62
    3
 10
2486.4916914655746
 20
1533.8174057717981
 11
2471.7921975241115
 21
1509.4791326285504
  0
LINE
  8
_0-2_08_DIM
  6
CONTINUOUS
 62
    3
 10
2471.7921975241115
 20
1509.4791326285504
 11
2470.3521975241115
 21
1509.4791326285504
  0
LINE
  8
_0-2_08_DIM
  6
CONTINUOUS
 62
    3
 10
2313.104508275158
 20
1196.0834640135943
 11
2270.6045082751575
 21
1196.0834640135943
  0
LINE
  8
_0-2_08_DIM
  6
CONTINUOUS
 62
    3
 10
2270.6045082751575
 20
1196.0834640135943
 11
2239.5302865010171
 21
1177.4231662628965
  0
LINE
  8
_0-2_08_DIM
  6
CONTINUOUS
 62
    3
 10
2089.5026140226678
 20
1087.3304501962339
 11
2230.9572766447668
 21
1172.2750110588804
  0
INSERT
  2
-006-_Open30
  8
_0-2_08_DIM
 10
2089.5026140226678
 20
1087.3304501962339
 41
10
 42
10
 50
210.98512491123302
  0
INSERT
  2
-006-_Open30
  8
_0-2_08_DIM
 10
2239.5302865010171
 20
1177.4231662628965
 41
10
 42
10
 50
30.985124911233008
  0
INSERT
  2
-006-_Open30
  8
_0-2_08_DIM
 10
1665.3398636035406
 20
895.07552274557827
 41
10
 42
10
 50
135.00000000000009
  0
LINE
  8
_0-2_08_DIM
  6
CONTINUOUS
 62
    3
 10
1672.4109314154061
 20
888.00445493371285
 11
1687.865655627744
 21
872.54973072137523
  0
LINE
  8
_0-2_08_DIM
  6
CONTINUOUS
 62
    3
 10
1687.865655627744
 20
872.54973072137523
 11
1746.3575285674951
 21
814.05785778162397
  0
TEXT
  8
_0-3_07_TEXT
 62
    3
 10
2767.9648871505447
 20
1036.2577021464358
 40
12
 41
1
 50
0
  1
ÆŹŗL
  0
TEXT
  8
_0-3_07_TEXT
 62
    3
 10
2768.9248871505447
 20
1013.9417021464358
 40
12
 41
1
 50
0
  1
ü@ÄwÄ”é╚é½ŖpĢöé═
  0
TEXT
  8
_0-3_07_TEXT
 62
    3
 10
2898.2248871505449
 20
1013.9417021464358
 40
12
 41
1
 50
0
  1
C0.5
  0
TEXT
  8
_0-3_07_TEXT
 62
    3
 10
2938.7963157219729
 20
1013.9417021464358
 40
12
 41
1
 50
0
  1
é╠é▒éŲ
  0
TEXT
  8
_0-3_07_TEXT
 62
    3
 10
2768.9248871505447
 20
991.4217021464359
 40
12
 41
1
 50
0
  1
ü@ē┴ŹHĢöŗyéčé╦éČĢöé═ōhæĢĢs
  0
TEXT
  8
_0-3_07_TEXT
 62
    3
 10
2767.7608871505449
 20
970.60570214643576
 40
12
 41
1
 50
0
  1
ē┬
  0
TEXT
  8
_0-2_08_DIM
 62
    3
 10
1691.4945276287931
 20
874.47588959332734
 40
12
 41
1
 50
-45.000000000000028
  1
¢╩ÄµéĶĢsē┬
  0
TEXT
  8
_0-3_07_TEXT
 62
    3
 10
1158.2473954445798
 20
1869.5921690543805
 40
18
 41
1
 50
0
  1
Ģ\¢╩ÅłŚØüFü¢ü¢ü¢
  0
TEXT
  8
_0-3_07_TEXT
 62
    3
 10
2352.6200264931813
 20
1808.1044586914347
 40
18
 41
1
 50
0
  1
Ģ\¢╩ÅłŚØüFü¢ü¢ü¢
  0
TEXT
  8
_0-3_07_TEXT
 62
    3
 10
2023.781670742105
 20
1279.4307425827376
 40
18
 41
1
 50
0
  1
Ģ\¢╩ÅłŚØüFü¢ü¢ü¢
  0
TEXT
  8
_0-2_08_DIM
 62
    3
 10
1287.6635623993161
 20
1689.7753822280995
 40
12
 41
1
 50
0
  1
40
  0
TEXT
  8
_0-2_08_DIM
 62
    3
 10
1312.6635623993161
 20
1727.2009059490204
 40
12
 41
1
 50
0
  1
90
  0
TEXT
  8
_0-2_08_DIM
 62
    3
 10
1681.9492766828384
 20
1758.1534463416003
 40
12
 41
1
 50
0
  1
840
  0
TEXT
  8
_0-2_08_DIM
 62
    3
 10
1230.2192934442717
 20
1537.3725424362501
 40
12
 41
1
 50
90
  1
M42x2
  0
TEXT
  8
_0-2_08_DIM
 62
    3
 10
1328.3913951383272
 20
1538.5153995791072
 40
12
 41
1
 50
90
  1
?42h7
  0
TEXT
  8
_0-2_08_DIM
 62
    3
 10
2087.6635623949319
 20
1689.7753822280995
 40
12
 41
1
 50
0
  1
40
  0
TEXT
  8
_0-2_08_DIM
 62
    3
 10
2054.6635623949323
 20
1729.2009059490206
 40
12
 41
1
 50
0
  1
(90)
  0
TEXT
  8
_0-2_08_DIM
 62
    3
 10
2164.9845107088636
 20
1537.3725424362501
 40
12
 41
1
 50
90
  1
M42x2
  0
TEXT
  8
_0-2_08_DIM
 62
    3
 10
2056.6059134167022
 20
1538.5153995791072
 40
12
 41
1
 50
90
  1
?42h7
  0
TEXT
  8
_0-2_08_DIM
 62
    3
 10
1658.663562397124
 20
1727.4390011871155
 40
12
 41
1
 50
0
  1
660
  0
TEXT
  8
_0-2_08_DIM
 62
    3
 10
1692.9492766828384
 20
1727.4390011871155
 40
10
 41
1
 50
0
  1
ü}0.05
  0
TEXT
  8
_0-2_08_DIM
 62
    3
 10
1250.0699070482822
 20
1581.5287067053112
 40
12
 41
1
 50
45.000000000130363
  1
C2
  0
TEXT
  8
_0-2_08_DIM
 62
    3
 10
1340.9566017329626
 20
1575.91540139012
 40
12
 41
1
 50
45
  1
C2
  0
TEXT
  8
_0-2_08_DIM
 62
    3
 10
2040.1396318013512
 20
1670.0984314628918
 40
12
 41
1
 50
44.999999999999673
  1
C2
  0
TEXT
  8
_0-2_08_DIM
 62
    3
 10
2130.1396318013508
 20
1663.5984314628874
 40
12
 41
1
 50
45
  1
C2
  0
TEXT
  8
_0-2_08_DIM
 62
    3
 10
1717.5601663280568
 20
1544.058256721969
 40
12
 41
1
 50
90
  1
?55
  0
TEXT
  8
_0-2_08_DIM
 62
    3
 10
1732.5768329947241
 20
1530.6673995791116
 40
12
 41
1
 50
90
  1
(
  0
TEXT
  8
_0-2_08_DIM
 62
    3
 10
1732.5768329947241
 20
1538.6673995791114
 40
12
 41
1
 50
90
  1
ā~āKāL
  0
TEXT
  8
_0-2_08_DIM
 62
    3
 10
1732.5768329947241
 20
1583.1633995791121
 40
12
 41
1
 50
90
  1
)
  0
TEXT
  8
_0-2_08_DIM
 62
    3
 10
2587.1474961525118
 20
1604.0222754766319
 40
12
 41
1
 50
0
  1
(12)
  0
TEXT
  8
_0-2_08_DIM
 62
    3
 10
2557.7264117585914
 20
1595.1995333059908
 40
12
 41
1
 50
90
  1
(2)
  0
TEXT
  8
_0-2_08_DIM
 62
    3
 10
2574.7264117585914
 20
1579.7518190202761
 40
12
 41
1
 50
90
  1
(
  0
TEXT
  8
_0-2_08_DIM
 62
    3
 10
2574.7264117585914
 20
1587.7518190202761
 40
12
 41
1
 50
89.999999999999588
  1
āRāōā^
  0
TEXT
  8
_0-2_08_DIM
 62
    3
 10
2574.7264117585914
 20
1630.0758190202762
 40
12
 41
1
 50
90
  1
)
  0
TEXT
  8
_0-2_08_DIM
 62
    3
 10
2559.7264117585914
 20
1505.8110412450353
 40
12
 41
1
 50
90
  1
19
  0
TEXT
  8
_0-2_08_DIM
 62
    3
 10
2631.1474961548547
 20
1643.2476559068111
 40
12
 41
1
 50
0
  1
28
  0
TEXT
  8
_0-2_08_DIM
 62
    3
 10
2723.9411499818448
 20
1694.8236039515659
 40
12
 41
1
 50
90
  1
65
  0
TEXT
  8
_0-2_08_DIM
 62
    3
 10
2628.5760675857687
 20
1768.2670898346064
 40
12
 41
1
 50
0
  1
(75.1)
  0
TEXT
  8
_0-2_08_DIM
 62
    3
 10
2404.0187334501065
 20
1603.6847905774248
 40
12
 41
1
 50
0
  1
M42x2
  0
TEXT
  8
_0-2_08_DIM
 62
    3
 10
2735.6672391218981
 20
1542.8852475942413
 40
12
 41
1
 50
90
  1
32
  0
TEXT
  8
_0-2_08_DIM
 62
    3
 10
2502.5812991040348
 20
1752.1600661352761
 40
12
 41
1
 50
0
  1
6.8
  0
TEXT
  8
_0-2_08_DIM
 62
    3
 10
2531.1527276754641
 20
1752.1600661352761
 40
12
 41
1
 50
0
  1
āLāŖ
  0
TEXT
  8
_0-2_08_DIM
 62
    3
 10
2469.1947276754636
 20
1729.8440661352756
 40
12
 41
1
 50
0
  1
āė
  0
TEXT
  8
_0-2_08_DIM
 62
    3
 10
2480.0547276754642
 20
1729.8440661352756
 40
12
 41
1
 50
0
  1
11
  0
TEXT
  8
_0-2_08_DIM
 62
    3
 10
2502.9118705326068
 20
1729.8440661352756
 40
12
 41
1
 50
0
  1
āUāOāŖÉ[
  0
TEXT
  8
_0-2_08_DIM
 62
    3
 10
2567.2558705326069
 20
1729.8440661352756
 40
12
 41
1
 50
0
  1
6.5
  0
TEXT
  8
_0-2_08_DIM
 62
    3
 10
1505.0578948538546
 20
1265.4676976622491
 40
12
 41
1
 50
90
  1
M57x2
  0
TEXT
  8
_0-2_08_DIM
 62
    3
 10
1480.5583234995879
 20
934.21837989191704
 40
12
 41
1
 50
90
  1
?114
  0
TEXT
  8
_0-2_08_DIM
 62
    3
 10
1715.7318752652691
 20
921.64695132048848
 40
12
 41
1
 50
90
  1
?124
  0
TEXT
  8
_0-2_08_DIM
 62
    3
 10
1705.0652085986021
 20
966.78980846334571
 40
8
 41
1
 50
90
  1
 0
  0
TEXT
  8
_0-2_08_DIM
 62
    3
 10
1715.7318752652691
 20
965.26599893953608
 40
8
 41
1
 50
90
  1
-0.1
  0
TEXT
  8
_0-2_08_DIM
 62
    3
 10
1682.911292174969
 20
1079.1583714208425
 40
12
 41
1
 50
0
  1
(10)
  0
TEXT
  8
_0-2_08_DIM
 62
    3
 10
1579.8398636035406
 20
1077.166704754176
 40
12
 41
1
 50
0
  1
115
  0
TEXT
  8
_0-2_08_DIM
 62
    3
 10
1584.8398636035404
 20
1113.1895940135128
 40
12
 41
1
 50
0
  1
125
  0
TEXT
  8
_0-2_08_DIM
 62
    3
 10
1496.411292174969
 20
1054.0795830030629
 40
12
 41
1
 50
0
  1
25
  0
TEXT
  8
_0-2_08_DIM
 62
    3
 10
1626.1156582546664
 20
1208.7117452812968
 40
12
 41
1
 50
90
  1
?58
  0
TEXT
  8
_0-2_08_DIM
 62
    3
 10
1550.1255778850705
 20
1300.8164660353571
 40
12
 41
1
 50
0
  1
8
  0
TEXT
  8
_0-2_08_DIM
 62
    3
 10
1553.911292172877
 20
1344.0718129421043
 40
12
 41
1
 50
0
  1
50
  0
TEXT
  8
_0-2_08_DIM
 62
    3
 10
1609.156900177888
 20
875.11611672957758
 40
12
 41
1
 50
0
  1
R4
  0
TEXT
  8
_0-2_08_DIM
 62
    3
 10
1502.2259446075034
 20
870.60697756919478
 40
12
 41
1
 50
41.237367379874946
  1
C10
  0
TEXT
  8
_0-2_08_DIM
 62
    3
 10
1490.4264237018331
 20
932.25475323747912
 40
12
 41
1
 50
0
  1
M10
  0
TEXT
  8
_0-2_08_DIM
 62
    3
 10
2548.1551927977866
 20
1109.8053796580771
 40
12
 41
1
 50
90
  1
?120
  0
TEXT
  8
_0-2_08_DIM
 62
    3
 10
2548.1551927977866
 20
1020.3410939473184
 40
12
 41
1
 50
90
  1
10
  0
TEXT
  8
_0-2_08_DIM
 62
    3
 10
2582.6353880882339
 20
1109.8053796580771
 40
12
 41
1
 50
90
  1
?140
  0
TEXT
  8
_0-2_08_DIM
 62
    3
 10
2357.8151114092029
 20
1109.8053796580771
 40
12
 41
1
 50
90
  1
?200
  0
TEXT
  8
_0-2_08_DIM
 62
    3
 10
2348.808429819172
 20
1281.2651043030228
 40
12
 41
1
 50
0
  1
(15)
  0
TEXT
  8
_0-2_08_DIM
 62
    3
 10
2452.3500964862642
 20
1279.2651043030232
 40
12
 41
1
 50
0
  1
85
  0
TEXT
  8
_0-2_08_DIM
 62
    3
 10
2438.2786679148358
 20
1309.9313731327456
 40
12
 41
1
 50
0
  1
100
  0
TEXT
  8
_0-2_08_DIM
 62
    3
 10
2519.9662546241789
 20
1219.599928840827
 40
12
 41
1
 50
44.999999999999382
  1
C10
  0
TEXT
  8
_0-2_08_DIM
 62
    3
 10
2245.7108732847119
 20
1247.7822453298597
 40
12
 41
1
 50
0
  1
6-12
  0
TEXT
  8
_0-2_08_DIM
 62
    3
 10
2294.8537304275692
 20
1247.7822453298597
 40
12
 41
1
 50
0
  1
āLāŖ
  0
TEXT
  8
_0-2_08_DIM
 62
    3
 10
2246.2008732847121
 20
1225.7213881870025
 40
12
 41
1
 50
0
  1
(60üŗ
  0
TEXT
  8
_0-2_08_DIM
 62
    3
 10
2281.6294447132832
 20
1225.7213881870025
 40
12
 41
1
 50
0
  1
ōÖöz
  0
TEXT
  8
_0-2_08_DIM
 62
    3
 10
2316.5254447132834
 20
1225.7213881870025
 40
12
 41
1
 50
0
  1
)
  0
TEXT
  8
_0-2_08_DIM
 62
    3
 10
2438.9236260955404
 20
1511.8791326285507
 40
12
 41
1
 50
0
  1
M6
  0
TEXT
  8
_0-2_08_DIM
 62
    3
 10
2270.5330797037291
 20
1198.5917973469277
 40
12
 41
1
 50
0
  1
?175
  0
TEXT
  8
_0-0_90_FRAME
 62
    3
 10
1208.6481694146134
 20
196.57161296573508
 40
12
 41
1
 50
0
  1
Äøōc
  0
TEXT
  8
_0-0_90_FRAME
 62
    3
 10
902.13507942513399
 20
196.57161296573508
 40
12
 41
0.65
 50
0
  1
2013.09.01
  0
TEXT
  8
_0-0_90_FRAME
 62
    3
 10
982.10182881117748
 20
196.57161296573508
 40
12
 41
1
 50
0
  1
āGāAü[ö▓é½ÆŪē┴
  0
TEXT
  8
_0-8_
 62
    7
 10
1746.8216102577996
 20
185.73525061922257
 40
27.30763311321126
 41
1
 50
0
  1
A3ü@150%
  0
ENDSEC
  0
EOF
