  0
SECTION
  2
HEADER
  9
$ACADVER
  1
AC1009
  9
$INSBASE
 10
0
 20
0
 30
0
  9
$EXTMIN
 10
0
 20
0
  9
$EXTMAX
 10
3823.0686358495768
 20
2703.4556782079148
  9
$LIMMIN
 10
0
 20
0
  9
$LIMMAX
 10
3823.0686358495768
 20
2703.4556782079148
  9
$LTSCALE
 40
9.1025443710704206
  0
ENDSEC
  0
SECTION
  2
TABLES
  0
TABLE
  2
LTYPE
 70
     9
  0
LTYPE
  2
CONTINUOUS
 70
    64
  3
Ä└É³
 72
    65
 73
     0
 40
0.0
  0
LTYPE
  2
DASHED1
 70
    64
  3
--  --  --  --  --  --  --  --  
 72
    65
 73
     2
 40
2.5
 49
1.25
 49
-1.25
  0
LTYPE
  2
DASHED2
 70
    64
  3
----    ----    ----    ----    
 72
    65
 73
     2
 40
5.0
 49
2.5
 49
-2.5
  0
LTYPE
  2
DASHED3
 70
    64
  3
------  ------  ------  ------  
 72
    65
 73
     2
 40
5.0
 49
3.75
 49
-1.25
  0
LTYPE
  2
CENTER1
 70
    64
  3
----- - ----- - ----- - ----- - 
 72
    65
 73
     4
 40
10.0
 49
6.25
 49
-1.25
 49
1.25
 49
-1.25
  0
LTYPE
  2
CENTER2
 70
    64
  3
----------  --  ----------  --  
 72
    65
 73
     4
 40
20.0
 49
12.5
 49
-2.5
 49
2.5
 49
-2.5
  0
LTYPE
  2
PHANTOM1
 70
    64
  3
--- - - --- - - --- - - --- - - 
 72
    65
 73
     6
 40
10.0
 49
3.25
 49
-1.25
 49
1.25
 49
-1.25
 49
1.25
 49
-1.25
  0
LTYPE
  2
PHANTOM2
 70
    64
  3
--------  -  -  --------  -  -  
 72
    65
 73
     6
 40
20.0
 49
10.0
 49
-2.5
 49
1.25
 49
-2.5
 49
1.25
 49
-2.5
  0
LTYPE
  2
DOT
 70
    64
  3
-   -   -   -   -   -   -   -   
 72
    65
 73
     2
 40
2.5
 49
0.625
 49
-1.875
  0
LTYPE
  2
DUMMY
 70
    64
  3
ā_ā~ü[
 72
    65
 73
     0
 40
0.0
  0
LTYPE
  2
RAND1
 70
    64
  3
āēāōā_āĆÉ³1
 72
    65
 73
     4
 40
10.0
 49
1.0
 49
-2.0
 49
3.0
 49
-4.0
  0
LTYPE
  2
RAND2
 70
    64
  3
āēāōā_āĆÉ³2
 72
    65
 73
     4
 40
14.0
 49
2.0
 49
-3.0
 49
4.0
 49
-5.0
  0
LTYPE
  2
RAND3
 70
    64
  3
āēāōā_āĆÉ³3
 72
    65
 73
     4
 40
18.0
 49
3.0
 49
-4.0
 49
5.0
 49
-6.0
  0
LTYPE
  2
RAND4
 70
    64
  3
āēāōā_āĆÉ³4
 72
    65
 73
     4
 40
22.0
 49
4.0
 49
-5.0
 49
6.0
 49
-7.0
  0
LTYPE
  2
RAND5
 70
    64
  3
āēāōā_āĆÉ³5
 72
    65
 73
     4
 40
26.0
 49
5.0
 49
-6.0
 49
7.0
 49
-8.0
  0
LTYPE
  2
LONG1
 70
    64
  3
----------  --  ----------  --  
 72
    65
 73
     4
 40
40.0
 49
32.5
 49
-2.5
 49
2.5
 49
-2.5
  0
LTYPE
  2
LONG2
 70
    64
  3
--------  -  -  --------  -  -  
 72
    65
 73
     6
 40
40.0
 49
30.0
 49
-2.5
 49
1.25
 49
-2.5
 49
1.25
 49
-2.5
  0
LTYPE
  2
LONG3
 70
    64
  3
+++++++++++++++..+++++++++++++++
 72
    65
 73
     2
 40
40.0
 49
37.5
 49
-2.5
  0
LTYPE
  2
LONG4
 70
    64
  3
+++++++++++++++..+++++++++++++++
 72
    65
 73
     2
 40
80.0
 49
75.0
 49
-5.0
  0
LTYPE
  2
LONG5
 70
    64
  3
----------  --  ----------  --  
 72
    65
 73
     4
 40
60.0
 49
37.5
 49
-7.5
 49
7.5
 49
-7.5
  0
LTYPE
  2
dashed
 70
   64
  3
-------   -------------   ------
 72
   65
 73
    2
 40
7.5
 49
6
 49
-1.5
  0
LTYPE
  2
dashed_spaced
 70
   64
  3
----        --------        ----
 72
   65
 73
    2
 40
12
 49
6
 49
-6
  0
LTYPE
  2
long_dashed_dotted
 70
   64
  3
------------- --- --------------
 72
   65
 73
    4
 40
15.25
 49
12
 49
-1.5
 49
0.25
 49
-1.5
  0
LTYPE
  2
long_dashed_double-dotted
 70
   64
  3
----------- --- --- ------------
 72
   65
 73
    6
 40
17
 49
12
 49
-1.5
 49
0.25
 49
-1.5
 49
0.25
 49
-1.5
  0
LTYPE
  2
long_dashed_triplicate-dotted
 70
   64
  3
--------- --- --- --- ----------
 72
   65
 73
    8
 40
18.75
 49
12
 49
-1.5
 49
0.25
 49
-1.5
 49
0.25
 49
-1.5
 49
0.25
 49
-1.5
  0
LTYPE
  2
dotted
 70
   64
  3
   -       -       -       -    
 72
   65
 73
    2
 40
1.75
 49
0.25
 49
-1.5
  0
LTYPE
  2
chain
 70
   64
  3
-------------- -- --------------
 72
   65
 73
    4
 40
18.5
 49
12
 49
-1.5
 49
3.5
 49
-1.5
  0
LTYPE
  2
chain_double_dash
 70
   64
  3
------------ -- -- -------------
 72
   65
 73
    6
 40
23.5
 49
12
 49
-1.5
 49
3.5
 49
-1.5
 49
3.5
 49
-1.5
  0
LTYPE
  2
dashed_dotted
 70
   64
  3
-----------     -     ----------
 72
   65
 73
    4
 40
9.25
 49
6
 49
-1.5
 49
0.25
 49
-1.5
  0
LTYPE
  2
double-dashed_dotted
 70
   64
  3
------   -----------   -   -----
 72
   65
 73
    6
 40
16.75
 49
6
 49
-1.5
 49
6
 49
-1.5
 49
0.25
 49
-1.5
  0
LTYPE
  2
dashed_double-dotted
 70
   64
  3
---------    -    -    ---------
 72
   65
 73
    6
 40
11
 49
6
 49
-1.5
 49
0.25
 49
-1.5
 49
0.25
 49
-1.5
  0
LTYPE
  2
double-dashed_double-dotted
 70
   64
  3
-----   ---------   -   -   ----
 72
   65
 73
    8
 40
18.5
 49
6
 49
-1.5
 49
6
 49
-1.5
 49
0.25
 49
-1.5
 49
0.25
 49
-1.5
  0
LTYPE
  2
dashed_triplicate-dotted
 70
   64
  3
-------    -    -    -    ------
 72
   65
 73
    8
 40
12.75
 49
6
 49
-1.5
 49
0.25
 49
-1.5
 49
0.25
 49
-1.5
 49
0.25
 49
-1.5
  0
LTYPE
  2
double-dashed_triplicate-dotted
 70
   64
  3
-----  ---------  -  -  -  -----
 72
   65
 73
   10
 40
20.25
 49
6
 49
-1.5
 49
6
 49
-1.5
 49
0.25
 49
-1.5
 49
0.25
 49
-1.5
 49
0.25
 49
-1.5
  0
LTYPE
  2
undefined
 70
   64
  3
--------------------------------
 72
   65
 73
    0
 40
0
  0
LTYPE
  2
_
 70
   64
  3
                                
 72
   65
 73
    0
 40
0
  0
LTYPE
  2
__18
 70
   64
  3
                                
 72
   65
 73
    0
 40
0
  0
LTYPE
  2
__19
 70
   64
  3
                                
 72
   65
 73
    0
 40
0
  0
LTYPE
  2
__20
 70
   64
  3
                                
 72
   65
 73
    0
 40
0
  0
LTYPE
  2
__21
 70
   64
  3
                                
 72
   65
 73
    0
 40
0
  0
LTYPE
  2
__22
 70
   64
  3
                                
 72
   65
 73
    0
 40
0
  0
LTYPE
  2
__23
 70
   64
  3
                                
 72
   65
 73
    0
 40
0
  0
LTYPE
  2
__24
 70
   64
  3
                                
 72
   65
 73
    0
 40
0
  0
LTYPE
  2
__25
 70
   64
  3
                                
 72
   65
 73
    0
 40
0
  0
LTYPE
  2
__26
 70
   64
  3
                                
 72
   65
 73
    0
 40
0
  0
LTYPE
  2
__27
 70
   64
  3
                                
 72
   65
 73
    0
 40
0
  0
LTYPE
  2
__28
 70
   64
  3
                                
 72
   65
 73
    0
 40
0
  0
LTYPE
  2
__29
 70
   64
  3
                                
 72
   65
 73
    0
 40
0
  0
LTYPE
  2
__30
 70
   64
  3
                                
 72
   65
 73
    0
 40
0
  0
LTYPE
  2
__31
 70
   64
  3
                                
 72
   65
 73
    0
 40
0
  0
LTYPE
  2
__32
 70
   64
  3
                                
 72
   65
 73
    0
 40
0
  0
ENDTAB
  0
TABLE
  2
STYLE
  5
3
100
AcDbSymbolTable
 70
     1
  0
STYLE
  5
10
100
AcDbSymbolTableRecord
100
AcDbTextStyleTableRecord
  2
STANDARD
 70
     0
 40
0.0
 41
1.0
 50
0.0
 71
     0
 42
0.2
  3
txt
  4
bigfont.shx
  0
STYLE
  5
26
100
AcDbSymbolTableRecord
100
AcDbTextStyleTableRecord
  2
TATEGAKI
 70
    68
 40
0.0
 41
1.0
 50
0.0
 71
     0
 42
1.0
  3
txt
  4
bigfont.shx
  0
ENDTAB
  0
TABLE
  2
LAYER
 70
    9
  0
LAYER
  2
_0-0_90_FRAME
 70
   64
 62
    7
  6
CONTINUOUS
  0
LAYER
  2
_0-1_91_BLANK
 70
   64
 62
    7
  6
CONTINUOUS
  0
LAYER
  2
_0-2_08_DIM
 70
   64
 62
    7
  6
CONTINUOUS
  0
LAYER
  2
_0-3_07_TEXT
 70
   64
 62
    7
  6
CONTINUOUS
  0
LAYER
  2
_0-4_05_CENTER
 70
   64
 62
    7
  6
CONTINUOUS
  0
LAYER
  2
_0-5_0
 70
   64
 62
    7
  6
CONTINUOUS
  0
LAYER
  2
_0-6_04_HIDDEN
 70
   64
 62
    7
  6
CONTINUOUS
  0
LAYER
  2
_0-7_01_NORMAL
 70
   64
 62
    7
  6
CONTINUOUS
  0
LAYER
  2
ADD_LINE
 70
   64
 62
    7
  6
CONTINUOUS
  0
ENDTAB
  0
ENDSEC
  0
SECTION
  2
BLOCKS
  0
BLOCK
  2
-000-Weld-line
 70
   64
 10
0
 20
0
 30
0
  0
LINE
  8
_0-2_08_DIM
  6
CONTINUOUS
 62
    3
 10
0
 20
0
 11
1
 21
0
  0
ENDBLK
  0
BLOCK
  2
-001-Weld10-s5
 70
   64
 10
0
 20
0
 30
0
  0
CIRCLE
  8
_0-2_08_DIM
  6
CONTINUOUS
 62
    3
 10
0
 20
0
 40
2
  0
ENDBLK
  0
BLOCK
  2
-002-Weld10-a1
 70
   64
 10
0
 20
0
 30
0
  0
LINE
  8
_0-2_08_DIM
  6
CONTINUOUS
 62
    3
 10
5
 20
0
 11
0
 21
5
  0
LINE
  8
_0-2_08_DIM
  6
CONTINUOUS
 62
    3
 10
0
 20
5
 11
0
 21
0
  0
LINE
  8
_0-2_08_DIM
  6
CONTINUOUS
 62
    3
 10
0
 20
0
 11
5
 21
0
  0
ENDBLK
  0
BLOCK
  2
-003-Jis_w20130906110600
 70
   64
 10
0
 20
0
 30
0
  0
INSERT
  2
-000-Weld-line
  8
_0-2_08_DIM
 10
0
 20
0
 41
14.000000000000002
 42
14.000000000000002
 50
0
  0
INSERT
  2
-001-Weld10-s5
  8
_0-2_08_DIM
 10
0
 20
0
 41
1
 42
1
 50
0
  0
INSERT
  2
-002-Weld10-a1
  8
_0-2_08_DIM
 10
6
 20
0
 41
-1
 42
1
 50
180
  0
TEXT
  8
_0-2_08_DIM
 62
    3
 10
4.0000000000001137
 20
-1
 40
2.7999999999999994
 41
0.9
 50
0
  1

  0
TEXT
  8
_0-2_08_DIM
 62
    3
 10
14.000000000000114
 20
-1
 40
2.7999999999999994
 41
0.9
 50
0
  1

  0
LINE
  8
_0-2_08_DIM
  6
CONTINUOUS
 62
    3
 10
-4.6308054280802926
 20
-5.7653612299384349
 11
0
 21
0
  0
ENDBLK
  0
BLOCK
  2
-004-p1ba01
 70
   64
 10
0
 20
0
 30
0
  0
LINE
  8
_0-2_08_DIM
  6
CONTINUOUS
 62
    3
 10
0
 20
0
 11
-1.5
 21
2.5980762113532592
  0
LINE
  8
_0-2_08_DIM
  6
CONTINUOUS
 62
    3
 10
1.5
 20
2.5980762113532592
 11
0
 21
0
  0
LINE
  8
_0-2_08_DIM
  6
CONTINUOUS
 62
    3
 10
-1.5
 20
2.5980762113532592
 11
1.5
 21
2.5980762113532592
  0
ENDBLK
  0
BLOCK
  2
-005-p1ba02
 70
   64
 10
0
 20
0
 30
0
  0
LINE
  8
_0-2_08_DIM
  6
CONTINUOUS
 62
    3
 10
3.0000000000000142
 20
0
 11
1.5000000000000142
 21
2.5980762113532592
  0
LINE
  8
_0-2_08_DIM
  6
CONTINUOUS
 62
    3
 10
4.5000000000000142
 20
2.5980762113532592
 11
3.0000000000000142
 21
0
  0
LINE
  8
_0-2_08_DIM
  6
CONTINUOUS
 62
    3
 10
1.5000000000000142
 20
2.5980762113532592
 11
4.5000000000000142
 21
2.5980762113532592
  0
LINE
  8
_0-2_08_DIM
  6
CONTINUOUS
 62
    3
 10
-1.4999999999999858
 20
2.5980762113532592
 11
1.5000000000000142
 21
2.5980762113532592
  0
LINE
  8
_0-2_08_DIM
  6
CONTINUOUS
 62
    3
 10
1.5000000000000142
 20
2.5980762113532592
 11
0.0000000000000142
 21
0
  0
LINE
  8
_0-2_08_DIM
  6
CONTINUOUS
 62
    3
 10
0.0000000000000142
 20
0
 11
-1.4999999999999858
 21
2.5980762113532592
  0
ENDBLK
  0
BLOCK
  2
-006-p1ba05
 70
   64
 10
0
 20
0
 30
0
  0
ARC
  8
_0-2_08_DIM
  6
CONTINUOUS
 62
    3
 10
0
 20
1.6206695983957429
 40
1.6206695983958537
 50
204.22763733453323
 51
335.57577857182139
  0
ARC
  8
_0-2_08_DIM
  6
CONTINUOUS
 62
    3
 10
-2.9535588745990817
 20
0.2854771617432376
 40
1.6206695983958537
 50
24.227637334533135
 51
155.57577857182133
  0
ENDBLK
  0
BLOCK
  2
-007-M10Tz
 70
   64
 10
0
 20
0
 30
0
  0
CIRCLE
  8
_0-5_0
  6
CONTINUOUS
 62
   18
 10
0
 20
0.0000000000036379
 40
5
  0
LINE
  8
_0-4_05_CENTER
  6
CENTER2
 62
    4
 10
0
 20
-8.3410508113993274
 11
0
 21
8.3410508113993274
  0
CIRCLE
  8
_0-5_0
  6
CONTINUOUS
 62
   18
 10
0
 20
0.0000000000036379
 40
4
  0
LINE
  8
_0-4_05_CENTER
  6
CENTER2
 62
    4
 10
8.3410508113993274
 20
0.0000000000036379
 11
-8.3410508113956894
 21
0.0000000000036379
  0
ENDBLK
  0
BLOCK
  2
-008-seca03
 70
   64
 10
0
 20
0
 30
0
  0
SOLID
  8
_0-5_0
  6
CONTINUOUS
 62
   18
 10
-3.7632055756284899
 20
-0.5000000028963995
 11
3.7632055741971726
 21
-0.5000000028963995
 12
-3.7632055756284899
 22
0.4999999971036004
 13
3.7632055741971726
 23
0.4999999971036004
  0
LINE
  8
_0-5_0
  6
CONTINUOUS
 62
   18
 10
-0.0000000007156586
 20
0.4999999971036004
 11
0.8038475765776524
 21
3.4999999971036004
  0
LINE
  8
_0-5_0
  6
CONTINUOUS
 62
   18
 10
-0.0000000007156586
 20
0.4999999971036004
 11
-0.8038475780089697
 21
3.4999999971036004
  0
LINE
  8
_0-5_0
  6
CONTINUOUS
 62
   18
 10
-0.0000000007156586
 20
0.4999999971036004
 11
-0.0000000007156586
 21
10.635249830619841
  0
ENDBLK
  0
BLOCK
  2
-009-seca04
 70
   64
 10
0
 20
0
 30
0
  0
SOLID
  8
_0-5_0
  6
CONTINUOUS
 62
   18
 10
3.7632055742406578
 20
-0.5000000028963995
 11
-3.7632055755850042
 21
-0.5000000028963995
 12
3.7632055742406578
 22
0.4999999971036004
 13
-3.7632055755850042
 23
0.4999999971036004
  0
LINE
  8
_0-5_0
  6
CONTINUOUS
 62
   18
 10
-0.0000000006721734
 20
0.4999999971036004
 11
0.8038475766211377
 21
3.4999999971036004
  0
LINE
  8
_0-5_0
  6
CONTINUOUS
 62
   18
 10
-0.0000000006721734
 20
0.4999999971036004
 11
-0.8038475779654845
 21
3.4999999971036004
  0
LINE
  8
_0-5_0
  6
CONTINUOUS
 62
   18
 10
-0.0000000006721734
 20
0.4999999971036004
 11
-0.0000000006721734
 21
10.635249830619841
  0
ENDBLK
  0
BLOCK
  2
-010-AM_BALLOON1
 70
   64
 10
0
 20
0
 30
0
  0
CIRCLE
  8
_0-2_08_DIM
  6
CONTINUOUS
 62
    3
 10
0
 20
0
 40
5
  0
ENDBLK
  0
BLOCK
  2
-011-_Open30
 70
   64
 10
0
 20
0
 30
0
  0
LINE
  8
_0-2_08_DIM
  6
CONTINUOUS
 62
    3
 10
-1
 20
0.26794919
 11
0
 21
0
  0
LINE
  8
_0-2_08_DIM
  6
CONTINUOUS
 62
    3
 10
0
 20
0
 11
-1
 21
-0.26794919
  0
LINE
  8
_0-2_08_DIM
  6
CONTINUOUS
 62
    3
 10
0
 20
0
 11
-1
 21
0
  0
ENDBLK
  0
BLOCK
  2
-012-AM_DATUM
 70
   64
 10
0
 20
0
 30
0
  0
LINE
  8
_0-2_08_DIM
  6
CONTINUOUS
 62
    3
 10
3
 20
-3
 11
-3
 21
-3
  0
LINE
  8
_0-2_08_DIM
  6
CONTINUOUS
 62
    3
 10
-3
 20
-3
 11
-3
 21
3
  0
LINE
  8
_0-2_08_DIM
  6
CONTINUOUS
 62
    3
 10
-3
 20
3
 11
3
 21
3
  0
LINE
  8
_0-2_08_DIM
  6
CONTINUOUS
 62
    3
 10
3
 20
3
 11
3
 21
-3
  0
ENDBLK
  0
BLOCK
  2
-013-_DatumFilled
 70
   64
 10
0
 20
0
 30
0
  0
SOLID
  8
_0-2_08_DIM
  6
CONTINUOUS
 62
    3
 10
0
 20
-0.57735027
 11
0
 21
0.57735027
 12
0
 22
-0.57735027
 13
-1
 23
0
  0
ENDBLK
  0
ENDSEC
  0
SECTION
  2
ENTITIES
  0
TEXT
  8
_0-0_90_FRAME
 62
    7
 10
2807.8230493699261
 20
634.61127324923746
 40
20
 41
1
 50
0
  1
AT-221121-08-9
  0
TEXT
  8
_0-0_90_FRAME
 62
    7
 10
2670.8675011276509
 20
588.57625046666612
 40
20
 41
1
 50
0
  1
2025.04.07
  0
LINE
  8
_0-0_90_FRAME
  6
CONTINUOUS
 62
    5
 10
845.81146084682916
 20
577.71280284555814
 11
3050.767661983095
 21
577.71280284555814
  0
LINE
  8
_0-0_90_FRAME
  6
CONTINUOUS
 62
    5
 10
3050.767661983095
 20
577.71280284555814
 11
3050.767661983095
 21
2154.065861393628
  0
LINE
  8
_0-0_90_FRAME
  6
CONTINUOUS
 62
    5
 10
3050.767661983095
 20
2154.065861393628
 11
845.81146084682916
 21
2154.065861393628
  0
LINE
  8
_0-0_90_FRAME
  6
CONTINUOUS
 62
    5
 10
845.81146084682916
 20
2154.065861393628
 11
845.81146084682916
 21
577.71280284555814
  0
LINE
  8
_0-0_90_FRAME
  6
CONTINUOUS
 62
    5
 10
735.48909673299579
 20
1365.8893321195933
 11
845.81146084682916
 21
1365.8893321195933
  0
LINE
  8
_0-0_90_FRAME
  6
CONTINUOUS
 62
    5
 10
3087.5795391258025
 20
1365.8893321195933
 11
3050.767661983095
 21
1365.8893321195933
  0
LINE
  8
_0-0_90_FRAME
  6
CONTINUOUS
 62
    5
 10
1948.2895614149616
 20
2196.557738543931
 11
1948.2895614149618
 21
2154.065861393628
  0
LINE
  8
_0-0_90_FRAME
  6
CONTINUOUS
 62
    5
 10
1948.2895614149618
 20
541.06550653633303
 11
1948.2895614149618
 21
577.71280284555814
  0
LINE
  8
_0-0_90_FRAME
  6
CONTINUOUS
 62
    5
 10
1665.1212757018179
 20
560.72270570276623
 11
2231.4578471281066
 21
560.72270570276623
  0
LINE
  8
_0-0_90_FRAME
  6
CONTINUOUS
 62
    5
 10
1665.1212757018179
 20
560.72270570276623
 11
1665.1212757018179
 21
577.71280284555814
  0
LINE
  8
_0-0_90_FRAME
  6
CONTINUOUS
 62
    5
 10
1721.7549328444479
 20
560.72270570276623
 11
1721.7549328444479
 21
577.71280284555814
  0
LINE
  8
_0-0_90_FRAME
  6
CONTINUOUS
 62
    5
 10
1778.3885899870784
 20
560.72270570276623
 11
1778.3885899870784
 21
577.71280284555814
  0
LINE
  8
_0-0_90_FRAME
  6
CONTINUOUS
 62
    5
 10
1835.0222471297013
 20
560.72270570276623
 11
1835.0222471297013
 21
577.71280284555814
  0
LINE
  8
_0-0_90_FRAME
  6
CONTINUOUS
 62
    5
 10
1891.6559042723316
 20
560.72270570276623
 11
1891.6559042723316
 21
577.71280284555814
  0
LINE
  8
_0-0_90_FRAME
  6
CONTINUOUS
 62
    5
 10
2004.9232185575847
 20
560.72270570276623
 11
2004.9232185575847
 21
577.71280284555814
  0
LINE
  8
_0-0_90_FRAME
  6
CONTINUOUS
 62
    5
 10
2061.5568757002152
 20
560.72270570276623
 11
2061.5568757002152
 21
577.71280284555814
  0
LINE
  8
_0-0_90_FRAME
  6
CONTINUOUS
 62
    5
 10
2118.1905328428456
 20
560.72270570276623
 11
2118.1905328428456
 21
577.71280284555814
  0
LINE
  8
_0-0_90_FRAME
  6
CONTINUOUS
 62
    5
 10
2174.8241899854756
 20
560.72270570276623
 11
2174.8241899854756
 21
577.71280284555814
  0
LINE
  8
_0-0_90_FRAME
  6
CONTINUOUS
 62
    5
 10
2231.4578471281066
 20
560.72270570276623
 11
2231.4578471281066
 21
577.71280284555814
  0
LINE
  8
_0-0_90_FRAME
  6
CONTINUOUS
 62
    4
 10
1378.016950817263
 20
2154.065861393628
 11
1378.016950817263
 21
2190.8777385363283
  0
TEXT
  8
_0-0_90_FRAME
 62
    7
 10
950.5056133944197
 20
2161.3978799839219
 40
11.359999999999999
 41
1
 50
0
  1
1
  0
TEXT
  8
_0-0_90_FRAME
 62
    7
 10
1089.0939788517505
 20
2161.3978799839219
 40
11.359999999999999
 41
1
 50
0
  1
2
  0
TEXT
  8
_0-0_90_FRAME
 62
    7
 10
1279.1848490509835
 20
2161.3978799839219
 40
11.359999999999999
 41
1
 50
0
  1
3
  0
TEXT
  8
_0-0_90_FRAME
 62
    7
 10
1469.2757192502092
 20
2161.3978799839219
 40
11.359999999999999
 41
1
 50
0
  1
4
  0
TEXT
  8
_0-0_90_FRAME
 62
    7
 10
1659.3665894494495
 20
2161.3978799839219
 40
11.359999999999999
 41
1
 50
0
  1
5
  0
TEXT
  8
_0-0_90_FRAME
 62
    7
 10
1849.4574596486752
 20
2161.3978799839219
 40
11.359999999999999
 41
1
 50
0
  1
6
  0
TEXT
  8
_0-0_90_FRAME
 62
    7
 10
2039.5483298479082
 20
2161.3978799839219
 40
11.359999999999999
 41
1
 50
0
  1
7
  0
TEXT
  8
_0-0_90_FRAME
 62
    7
 10
2229.639200047141
 20
2161.3978799839219
 40
11.359999999999999
 41
1
 50
0
  1
8
  0
TEXT
  8
_0-0_90_FRAME
 62
    7
 10
2419.730070246374
 20
2161.3978799839219
 40
11.359999999999999
 41
1
 50
0
  1
9
  0
TEXT
  8
_0-0_90_FRAME
 62
    7
 10
2606.9809404456073
 20
2161.3978799839219
 40
11.359999999999999
 41
1
 50
0
  1
10
  0
TEXT
  8
_0-0_90_FRAME
 62
    7
 10
2798.0184773115002
 20
2161.3978799839219
 40
11.359999999999999
 41
1
 50
0
  1
11
  0
TEXT
  8
_0-0_90_FRAME
 62
    7
 10
2986.2160141773993
 20
2161.3978799839219
 40
11.359999999999999
 41
1
 50
0
  1
12
  0
TEXT
  8
_0-0_90_FRAME
 62
    7
 10
3058.085668367919
 20
1864.2895861300547
 40
11.359999999999999
 41
1
 50
0
  1
B
  0
LINE
  8
_0-0_90_FRAME
  6
CONTINUOUS
 62
    4
 10
3087.5795391258025
 20
962.62512891122378
 11
3050.767661983095
 21
962.62512891122378
  0
LINE
  8
_0-0_90_FRAME
  6
CONTINUOUS
 62
    4
 10
3087.5795391258025
 20
1164.2572305154085
 11
3050.767661983095
 21
1164.2572305154085
  0
LINE
  8
_0-0_90_FRAME
  6
CONTINUOUS
 62
    4
 10
3087.5795391258025
 20
760.99302730703903
 11
3050.767661983095
 21
760.99302730703903
  0
LINE
  8
_0-0_90_FRAME
  6
CONTINUOUS
 62
    4
 10
3087.5795391258025
 20
1769.1535353279626
 11
3050.767661983095
 21
1769.1535353279626
  0
LINE
  8
_0-0_90_FRAME
  6
CONTINUOUS
 62
    4
 10
3087.5795391258025
 20
1567.5214337237776
 11
3050.767661983095
 21
1567.5214337237776
  0
LINE
  8
_0-0_90_FRAME
  6
CONTINUOUS
 62
    4
 10
3087.5795391258025
 20
1970.7856369321473
 11
3050.767661983095
 21
1970.7856369321473
  0
TEXT
  8
_0-0_90_FRAME
 62
    7
 10
3058.085668367919
 20
2065.9216877342396
 40
11.359999999999999
 41
1
 50
0
  1
A
  0
TEXT
  8
_0-0_90_FRAME
 62
    7
 10
3058.085668367919
 20
1662.6574845258704
 40
11.359999999999999
 41
1
 50
0
  1
C
  0
TEXT
  8
_0-0_90_FRAME
 62
    7
 10
3058.085668367919
 20
1461.0253829216856
 40
11.359999999999999
 41
1
 50
0
  1
D
  0
TEXT
  8
_0-0_90_FRAME
 62
    7
 10
3058.085668367919
 20
1057.7611797133161
 40
11.359999999999999
 41
1
 50
0
  1
F
  0
TEXT
  8
_0-0_90_FRAME
 62
    7
 10
3058.085668367919
 20
856.12907810913134
 40
11.359999999999999
 41
1
 50
0
  1
G
  0
TEXT
  8
_0-0_90_FRAME
 62
    7
 10
3058.085668367919
 20
654.4969765049467
 40
11.359999999999999
 41
1
 50
0
  1
H
  0
TEXT
  8
_0-0_90_FRAME
 62
    7
 10
3058.085668367919
 20
1259.3932813175009
 40
11.359999999999999
 41
1
 50
0
  1
E
  0
TEXT
  8
_0-0_90_FRAME
 62
    7
 10
829.08794554130463
 20
1864.2895861300547
 40
11.359999999999999
 41
1
 50
0
  1
B
  0
LINE
  8
_0-0_90_FRAME
  6
CONTINUOUS
 62
    4
 10
845.81146084682916
 20
962.62512891122378
 11
808.99958370412901
 21
962.62512891122378
  0
LINE
  8
_0-0_90_FRAME
  6
CONTINUOUS
 62
    4
 10
845.81146084682916
 20
1164.2572305154085
 11
808.99958370412901
 21
1164.2572305154085
  0
LINE
  8
_0-0_90_FRAME
  6
CONTINUOUS
 62
    4
 10
845.81146084682916
 20
760.99302730703903
 11
808.99958370412901
 21
760.99302730703903
  0
LINE
  8
_0-0_90_FRAME
  6
CONTINUOUS
 62
    4
 10
845.81146084682916
 20
1769.1535353279626
 11
808.99958370412901
 21
1769.1535353279626
  0
LINE
  8
_0-0_90_FRAME
  6
CONTINUOUS
 62
    4
 10
845.81146084682916
 20
1567.5214337237776
 11
808.99958370412901
 21
1567.5214337237776
  0
LINE
  8
_0-0_90_FRAME
  6
CONTINUOUS
 62
    4
 10
845.81146084682916
 20
1970.7856369321473
 11
808.99958370412901
 21
1970.7856369321473
  0
TEXT
  8
_0-0_90_FRAME
 62
    7
 10
829.08794554130463
 20
2065.9216877342396
 40
11.359999999999999
 41
1
 50
0
  1
A
  0
TEXT
  8
_0-0_90_FRAME
 62
    7
 10
829.08794554130463
 20
1662.6574845258704
 40
11.359999999999999
 41
1
 50
0
  1
C
  0
TEXT
  8
_0-0_90_FRAME
 62
    7
 10
829.08794554130463
 20
1461.0253829216856
 40
11.359999999999999
 41
1
 50
0
  1
D
  0
TEXT
  8
_0-0_90_FRAME
 62
    7
 10
829.08794554130463
 20
1057.7611797133161
 40
11.359999999999999
 41
1
 50
0
  1
F
  0
TEXT
  8
_0-0_90_FRAME
 62
    7
 10
829.08794554130463
 20
856.12907810913134
 40
11.359999999999999
 41
1
 50
0
  1
G
  0
TEXT
  8
_0-0_90_FRAME
 62
    7
 10
829.08794554130463
 20
1259.3932813175009
 40
11.359999999999999
 41
1
 50
0
  1
E
  0
TEXT
  8
_0-0_90_FRAME
 62
    7
 10
829.08794554130463
 20
654.4969765049467
 40
11.359999999999999
 41
1
 50
0
  1
H
  0
LINE
  8
_0-0_90_FRAME
  6
CONTINUOUS
 62
    4
 10
1187.9260806180303
 20
2154.065861393628
 11
1187.9260806180303
 21
2190.8777385363283
  0
LINE
  8
_0-0_90_FRAME
  6
CONTINUOUS
 62
    4
 10
997.83521041879726
 20
2154.065861393628
 11
997.83521041879726
 21
2190.8777385363283
  0
LINE
  8
_0-0_90_FRAME
  6
CONTINUOUS
 62
    4
 10
1568.107821016496
 20
2154.065861393628
 11
1568.107821016496
 21
2190.8777385363283
  0
LINE
  8
_0-0_90_FRAME
  6
CONTINUOUS
 62
    4
 10
1758.198691215729
 20
2154.065861393628
 11
1758.198691215729
 21
2190.8777385363283
  0
LINE
  8
_0-0_90_FRAME
  6
CONTINUOUS
 62
    4
 10
2518.5621720126537
 20
2154.065861393628
 11
2518.5621720126537
 21
2190.8777385363283
  0
LINE
  8
_0-0_90_FRAME
  6
CONTINUOUS
 62
    4
 10
2708.6530422118867
 20
2154.065861393628
 11
2708.6530422118867
 21
2190.8777385363283
  0
LINE
  8
_0-0_90_FRAME
  6
CONTINUOUS
 62
    4
 10
2898.7439124111197
 20
2154.065861393628
 11
2898.7439124111197
 21
2190.8777385363283
  0
LINE
  8
_0-0_90_FRAME
  6
CONTINUOUS
 62
    4
 10
2328.4713018134203
 20
2154.065861393628
 11
2328.4713018134203
 21
2190.8777385363283
  0
LINE
  8
_0-0_90_FRAME
  6
CONTINUOUS
 62
    4
 10
2138.3804316141945
 20
2154.065861393628
 11
2138.3804316141945
 21
2190.8777385363283
  0
LINE
  8
_0-0_90_FRAME
  6
CONTINUOUS
 62
    4
 10
1378.016950817263
 20
541.06550653633303
 11
1378.016950817263
 21
577.71280284555814
  0
LINE
  8
_0-0_90_FRAME
  6
CONTINUOUS
 62
    4
 10
1187.9260806180303
 20
541.06550653633303
 11
1187.9260806180303
 21
577.71280284555814
  0
LINE
  8
_0-0_90_FRAME
  6
CONTINUOUS
 62
    4
 10
997.83521041879726
 20
541.06550653633303
 11
997.83521041879726
 21
577.71280284555814
  0
LINE
  8
_0-0_90_FRAME
  6
CONTINUOUS
 62
    4
 10
1568.107821016496
 20
541.06550653633303
 11
1568.107821016496
 21
577.71280284555814
  0
LINE
  8
_0-0_90_FRAME
  6
CONTINUOUS
 62
    4
 10
2518.5621720126537
 20
541.06550653633303
 11
2518.5621720126537
 21
577.71280284555814
  0
LINE
  8
_0-0_90_FRAME
  6
CONTINUOUS
 62
    4
 10
2708.6530422118867
 20
541.06550653633303
 11
2708.6530422118867
 21
577.71280284555814
  0
LINE
  8
_0-0_90_FRAME
  6
CONTINUOUS
 62
    4
 10
2898.7439124111197
 20
541.06550653633303
 11
2898.7439124111197
 21
577.71280284555814
  0
LINE
  8
_0-0_90_FRAME
  6
CONTINUOUS
 62
    4
 10
2328.4713018134203
 20
541.06550653633303
 11
2328.4713018134203
 21
577.71280284555814
  0
LINE
  8
_0-1_91_BLANK
  6
CONTINUOUS
 62
    5
 10
735.48909672377431
 20
541.06550653633303
 11
3087.5795391218949
 21
541.06550653633303
  0
LINE
  8
_0-1_91_BLANK
  6
CONTINUOUS
 62
    5
 10
3087.5795391218949
 20
541.06550653633303
 11
3087.5795391218949
 21
2196.557738543931
  0
LINE
  8
_0-1_91_BLANK
  6
CONTINUOUS
 62
    5
 10
3087.5795391218949
 20
2196.557738543931
 11
735.48909672377431
 21
2196.557738543931
  0
LINE
  8
_0-1_91_BLANK
  6
CONTINUOUS
 62
    5
 10
735.48909672377431
 20
2196.557738543931
 11
735.48909672377431
 21
541.06550653633303
  0
LINE
  8
_0-0_90_FRAME
  6
CONTINUOUS
 62
   18
 10
2258.7676619862923
 20
577.71280284555814
 11
3050.767661983095
 21
577.71280284555814
  0
LINE
  8
_0-0_90_FRAME
  6
CONTINUOUS
 62
   18
 10
3050.767661983095
 20
577.71280284555814
 11
3050.767661983095
 21
724.79851713067819
  0
LINE
  8
_0-0_90_FRAME
  6
CONTINUOUS
 62
   18
 10
3050.767661983095
 20
724.79851713067819
 11
2258.7676619862923
 21
724.79851713067819
  0
LINE
  8
_0-0_90_FRAME
  6
CONTINUOUS
 62
   18
 10
2258.7676619862923
 20
724.79851713067819
 11
2258.7676619862923
 21
577.71280284555814
  0
LINE
  8
_0-0_90_FRAME
  6
CONTINUOUS
 62
   18
 10
2321.1376619860439
 20
699.34137427363657
 11
2360.7376619858824
 21
709.24137427359801
  0
LINE
  8
_0-0_90_FRAME
  6
CONTINUOUS
 62
   18
 10
2360.7376619858824
 20
709.24137427359801
 11
2360.7376619858824
 21
669.64137427375954
  0
LINE
  8
_0-0_90_FRAME
  6
CONTINUOUS
 62
   18
 10
2360.7376619858824
 20
669.64137427375954
 11
2321.1376619860439
 21
679.54137427371745
  0
LINE
  8
_0-0_90_FRAME
  6
CONTINUOUS
 62
   18
 10
2321.1376619860439
 20
679.54137427371745
 11
2321.1376619860439
 21
699.34137427363657
  0
CIRCLE
  8
_0-0_90_FRAME
  6
CONTINUOUS
 62
   18
 10
2295.3976619861442
 20
689.44137427367514
 40
9.8999999999600004
  0
CIRCLE
  8
_0-0_90_FRAME
  6
CONTINUOUS
 62
   18
 10
2295.3976619861442
 20
689.44137427367514
 40
19.799999999920001
  0
LINE
  8
_0-0_90_FRAME
  6
CONTINUOUS
 62
   18
 10
2271.6376619862403
 20
689.44137427367514
 11
2364.6976619858633
 21
689.44137427367514
  0
LINE
  8
_0-0_90_FRAME
  6
CONTINUOUS
 62
   18
 10
2295.3976619861442
 20
665.68137427377496
 11
2295.3976619861442
 21
713.20137427358259
  0
LINE
  8
_0-0_90_FRAME
  6
CONTINUOUS
 62
   18
 10
2583.1962334134932
 20
577.71280284555814
 11
2583.1962334134932
 21
724.79851713067819
  0
LINE
  8
_0-0_90_FRAME
  6
CONTINUOUS
 62
   18
 10
2583.1962334134932
 20
622.96994570251718
 11
3050.767661983095
 21
622.96994570251718
  0
TEXT
  8
_0-0_90_FRAME
 62
    7
 10
2585.2244004432164
 20
608.89810471542933
 40
10
 41
1
 50
0
  1
Źņ É¼ ō·
  0
LINE
  8
_0-0_90_FRAME
  6
CONTINUOUS
 62
   18
 10
2859.7390905552511
 20
622.96994570251718
 11
2859.7390905552511
 21
577.71280284555814
  0
TEXT
  8
_0-0_90_FRAME
 62
    7
 10
2862.1139775427855
 20
608.62154097617076
 40
10
 41
1
 50
0
  1
ī┬Éö
  0
TEXT
  8
_0-0_90_FRAME
 62
    7
 10
2489.6760223831061
 20
711.68744478593999
 40
10
 41
1
 50
0
  1
āTāCāY
  0
TEXT
  8
_0-0_90_FRAME
 62
    7
 10
2379.3617366692688
 20
710.9416294563116
 40
10
 41
1
 50
0
  1
Ä┌ü@ōx
  0
TEXT
  8
_0-0_90_FRAME
 62
    7
 10
2489.6760833287826
 20
640.97315907194127
 40
10
 41
1
 50
0
  1
É╗ü@É}
  0
LINE
  8
_0-0_90_FRAME
  6
CONTINUOUS
 62
   18
 10
2583.1962334134932
 20
654.08423141667572
 11
2258.7676619862923
 21
654.08423141667572
  0
LINE
  8
_0-0_90_FRAME
  6
CONTINUOUS
 62
   18
 10
2734.2438357107658
 20
668.22708855947621
 11
3050.767661983095
 21
668.22708855947621
  0
TEXT
  8
_0-0_90_FRAME
 62
    7
 10
2522.5441666987031
 20
671.05718283063663
 40
20
 41
1
 50
0
  1
A2
  0
LINE
  8
_0-0_90_FRAME
  6
CONTINUOUS
 62
   18
 10
2487.8819476996523
 20
577.71280284555814
 11
2487.8819476996523
 21
724.79851713067819
  0
TEXT
  8
_0-0_90_FRAME
 62
    2
 10
2328.7487148212012
 20
593.27742480018856
 40
20
 41
1
 50
0
  1
āAāNāAāgāŖāĆ
  0
LINE
  8
_0-0_90_FRAME
  6
CONTINUOUS
 62
    4
 10
2322.5959486385382
 20
644.39735452568402
 11
2322.5959486385382
 21
585.2246403099208
  0
LINE
  8
_0-0_90_FRAME
  6
CONTINUOUS
 62
    4
 10
2322.5959486385382
 20
585.2246403099208
 11
2268.8025720787537
 21
585.2246403099208
  0
LINE
  8
_0-0_90_FRAME
  6
CONTINUOUS
 62
    4
 10
2268.8025720787537
 20
585.2246403099208
 11
2268.8025720787537
 21
644.39735452568402
  0
LINE
  8
_0-0_90_FRAME
  6
CONTINUOUS
 62
    4
 10
2269.058731014753
 20
644.14119558968287
 11
2269.058731014753
 21
644.14119558968287
  0
LINE
  8
_0-0_90_FRAME
  6
CONTINUOUS
 62
    4
 10
2269.058731014753
 20
644.14119558968287
 11
2269.191046428763
 21
642.80674961680324
  0
LINE
  8
_0-0_90_FRAME
  6
CONTINUOUS
 62
    4
 10
2269.191046428763
 20
642.80674961680324
 11
2269.5839723338936
 21
641.51285010954734
  0
LINE
  8
_0-0_90_FRAME
  6
CONTINUOUS
 62
    4
 10
2269.5839723338936
 20
641.51285010954734
 11
2270.225569875347
 21
640.29881154969837
  0
LINE
  8
_0-0_90_FRAME
  6
CONTINUOUS
 62
    4
 10
2270.225569875347
 20
640.29881154969837
 11
2271.0963444364902
 21
639.20152188456416
  0
LINE
  8
_0-0_90_FRAME
  6
CONTINUOUS
 62
    4
 10
2271.0963444364902
 20
639.20152188456416
 11
2272.1698379729164
 21
638.25432170536453
  0
LINE
  8
_0-0_90_FRAME
  6
CONTINUOUS
 62
    4
 10
2272.1698379729164
 20
638.25432170536453
 11
2273.4134329267354
 21
637.48599121023801
  0
LINE
  8
_0-0_90_FRAME
  6
CONTINUOUS
 62
    4
 10
2273.4134329267354
 20
637.48599121023801
 11
2274.7893432945643
 21
636.91987573248491
  0
LINE
  8
_0-0_90_FRAME
  6
CONTINUOUS
 62
    4
 10
2274.7893432945643
 20
636.91987573248491
 11
2276.2557627361207
 21
636.57317640442875
  0
LINE
  8
_0-0_90_FRAME
  6
CONTINUOUS
 62
    4
 10
2276.2557627361207
 20
636.57317640442875
 11
2277.7681348387177
 21
636.45642750971388
  0
LINE
  8
_0-0_90_FRAME
  6
CONTINUOUS
 62
    4
 10
2277.7681348387177
 20
636.45642750971388
 11
2279.2805069413148
 21
636.57317640442875
  0
LINE
  8
_0-0_90_FRAME
  6
CONTINUOUS
 62
    4
 10
2279.2805069413148
 20
636.57317640442875
 11
2280.7469263828712
 21
636.91987573248491
  0
LINE
  8
_0-0_90_FRAME
  6
CONTINUOUS
 62
    4
 10
2280.7469263828712
 20
636.91987573248491
 11
2282.1228367507001
 21
637.48599121023801
  0
LINE
  8
_0-0_90_FRAME
  6
CONTINUOUS
 62
    4
 10
2282.1228367507001
 20
637.48599121023801
 11
2283.3664317045191
 21
638.25432170536453
  0
LINE
  8
_0-0_90_FRAME
  6
CONTINUOUS
 62
    4
 10
2283.3664317045191
 20
638.25432170536453
 11
2284.4399252409453
 21
639.20152188456416
  0
LINE
  8
_0-0_90_FRAME
  6
CONTINUOUS
 62
    4
 10
2284.4399252409453
 20
639.20152188456416
 11
2285.3106998020885
 21
640.29881154969837
  0
LINE
  8
_0-0_90_FRAME
  6
CONTINUOUS
 62
    4
 10
2285.3106998020885
 20
640.29881154969837
 11
2285.9522973435419
 21
641.51285010954734
  0
LINE
  8
_0-0_90_FRAME
  6
CONTINUOUS
 62
    4
 10
2285.9522973435419
 20
641.51285010954734
 11
2286.3452232486725
 21
642.80674961680324
  0
LINE
  8
_0-0_90_FRAME
  6
CONTINUOUS
 62
    4
 10
2286.3452232486725
 20
642.80674961680324
 11
2286.4775386626825
 21
644.14119558968287
  0
LINE
  8
_0-0_90_FRAME
  6
CONTINUOUS
 62
    4
 10
2286.4775386626825
 20
644.14119558968287
 11
2286.4775386626825
 21
644.14119558968287
  0
ARC
  8
_0-0_90_FRAME
  6
CONTINUOUS
 62
    4
 10
2286.7336975986818
 20
644.14119558968287
 40
0.2561589359989651
 50
0
 51
180
  0
LINE
  8
_0-0_90_FRAME
  6
CONTINUOUS
 62
    4
 10
2286.9898565346812
 20
644.14119558968287
 11
2286.9898565346812
 21
644.14119558968287
  0
LINE
  8
_0-0_90_FRAME
  6
CONTINUOUS
 62
    4
 10
2286.9898565346812
 20
644.14119558968287
 11
2287.1221719486912
 21
642.80674961680324
  0
LINE
  8
_0-0_90_FRAME
  6
CONTINUOUS
 62
    4
 10
2287.1221719486912
 20
642.80674961680324
 11
2287.5150978538218
 21
641.51285010954734
  0
LINE
  8
_0-0_90_FRAME
  6
CONTINUOUS
 62
    4
 10
2287.5150978538218
 20
641.51285010954734
 11
2288.1566953952752
 21
640.29881154969837
  0
LINE
  8
_0-0_90_FRAME
  6
CONTINUOUS
 62
    4
 10
2288.1566953952752
 20
640.29881154969837
 11
2289.0274699564184
 21
639.20152188456416
  0
LINE
  8
_0-0_90_FRAME
  6
CONTINUOUS
 62
    4
 10
2289.0274699564184
 20
639.20152188456416
 11
2290.1009634928446
 21
638.25432170536453
  0
LINE
  8
_0-0_90_FRAME
  6
CONTINUOUS
 62
    4
 10
2290.1009634928446
 20
638.25432170536453
 11
2291.3445584466635
 21
637.48599121023801
  0
LINE
  8
_0-0_90_FRAME
  6
CONTINUOUS
 62
    4
 10
2291.3445584466635
 20
637.48599121023801
 11
2292.7204688144925
 21
636.91987573248491
  0
LINE
  8
_0-0_90_FRAME
  6
CONTINUOUS
 62
    4
 10
2292.7204688144925
 20
636.91987573248491
 11
2294.1868882560489
 21
636.57317640442875
  0
LINE
  8
_0-0_90_FRAME
  6
CONTINUOUS
 62
    4
 10
2294.1868882560489
 20
636.57317640442875
 11
2295.6992603586459
 21
636.45642750971388
  0
LINE
  8
_0-0_90_FRAME
  6
CONTINUOUS
 62
    4
 10
2295.6992603586459
 20
636.45642750971388
 11
2297.211632461243
 21
636.57317640442875
  0
LINE
  8
_0-0_90_FRAME
  6
CONTINUOUS
 62
    4
 10
2297.211632461243
 20
636.57317640442875
 11
2298.6780519027993
 21
636.91987573248491
  0
LINE
  8
_0-0_90_FRAME
  6
CONTINUOUS
 62
    4
 10
2298.6780519027993
 20
636.91987573248491
 11
2300.0539622706283
 21
637.48599121023801
  0
LINE
  8
_0-0_90_FRAME
  6
CONTINUOUS
 62
    4
 10
2300.0539622706283
 20
637.48599121023801
 11
2301.2975572244472
 21
638.25432170536453
  0
LINE
  8
_0-0_90_FRAME
  6
CONTINUOUS
 62
    4
 10
2301.2975572244472
 20
638.25432170536453
 11
2302.3710507608735
 21
639.20152188456416
  0
LINE
  8
_0-0_90_FRAME
  6
CONTINUOUS
 62
    4
 10
2302.3710507608735
 20
639.20152188456416
 11
2303.2418253220167
 21
640.29881154969837
  0
LINE
  8
_0-0_90_FRAME
  6
CONTINUOUS
 62
    4
 10
2303.2418253220167
 20
640.29881154969837
 11
2303.8834228634701
 21
641.51285010954734
  0
LINE
  8
_0-0_90_FRAME
  6
CONTINUOUS
 62
    4
 10
2303.8834228634701
 20
641.51285010954734
 11
2304.2763487686007
 21
642.80674961680324
  0
LINE
  8
_0-0_90_FRAME
  6
CONTINUOUS
 62
    4
 10
2304.2763487686007
 20
642.80674961680324
 11
2304.4086641826107
 21
644.14119558968287
  0
LINE
  8
_0-0_90_FRAME
  6
CONTINUOUS
 62
    4
 10
2304.4086641826107
 20
644.14119558968287
 11
2304.4086641826107
 21
644.14119558968287
  0
ARC
  8
_0-0_90_FRAME
  6
CONTINUOUS
 62
    4
 10
2304.66482311861
 20
644.14119558968287
 40
0.2561589359989651
 50
0
 51
180
  0
LINE
  8
_0-0_90_FRAME
  6
CONTINUOUS
 62
    4
 10
2304.9209820546093
 20
644.14119558968287
 11
2304.9209820546093
 21
644.14119558968287
  0
LINE
  8
_0-0_90_FRAME
  6
CONTINUOUS
 62
    4
 10
2304.9209820546093
 20
644.14119558968287
 11
2305.0532974686193
 21
642.80674961680324
  0
LINE
  8
_0-0_90_FRAME
  6
CONTINUOUS
 62
    4
 10
2305.0532974686193
 20
642.80674961680324
 11
2305.4462233737499
 21
641.51285010954734
  0
LINE
  8
_0-0_90_FRAME
  6
CONTINUOUS
 62
    4
 10
2305.4462233737499
 20
641.51285010954734
 11
2306.0878209152033
 21
640.29881154969837
  0
LINE
  8
_0-0_90_FRAME
  6
CONTINUOUS
 62
    4
 10
2306.0878209152033
 20
640.29881154969837
 11
2306.9585954763465
 21
639.20152188456416
  0
LINE
  8
_0-0_90_FRAME
  6
CONTINUOUS
 62
    4
 10
2306.9585954763465
 20
639.20152188456416
 11
2308.0320890127728
 21
638.25432170536453
  0
LINE
  8
_0-0_90_FRAME
  6
CONTINUOUS
 62
    4
 10
2308.0320890127728
 20
638.25432170536453
 11
2309.2756839665917
 21
637.48599121023801
  0
LINE
  8
_0-0_90_FRAME
  6
CONTINUOUS
 62
    4
 10
2309.2756839665917
 20
637.48599121023801
 11
2310.6515943344207
 21
636.91987573248491
  0
LINE
  8
_0-0_90_FRAME
  6
CONTINUOUS
 62
    4
 10
2310.6515943344207
 20
636.91987573248491
 11
2312.118013775977
 21
636.57317640442875
  0
LINE
  8
_0-0_90_FRAME
  6
CONTINUOUS
 62
    4
 10
2312.118013775977
 20
636.57317640442875
 11
2313.6303858785741
 21
636.45642750971388
  0
LINE
  8
_0-0_90_FRAME
  6
CONTINUOUS
 62
    4
 10
2313.6303858785741
 20
636.45642750971388
 11
2315.1427579811711
 21
636.57317640442875
  0
LINE
  8
_0-0_90_FRAME
  6
CONTINUOUS
 62
    4
 10
2315.1427579811711
 20
636.57317640442875
 11
2316.6091774227275
 21
636.91987573248491
  0
LINE
  8
_0-0_90_FRAME
  6
CONTINUOUS
 62
    4
 10
2316.6091774227275
 20
636.91987573248491
 11
2317.9850877905565
 21
637.48599121023801
  0
LINE
  8
_0-0_90_FRAME
  6
CONTINUOUS
 62
    4
 10
2317.9850877905565
 20
637.48599121023801
 11
2319.2286827443754
 21
638.25432170536453
  0
LINE
  8
_0-0_90_FRAME
  6
CONTINUOUS
 62
    4
 10
2319.2286827443754
 20
638.25432170536453
 11
2320.3021762808016
 21
639.20152188456416
  0
LINE
  8
_0-0_90_FRAME
  6
CONTINUOUS
 62
    4
 10
2320.3021762808016
 20
639.20152188456416
 11
2321.1729508419448
 21
640.29881154969837
  0
LINE
  8
_0-0_90_FRAME
  6
CONTINUOUS
 62
    4
 10
2321.1729508419448
 20
640.29881154969837
 11
2321.8145483833982
 21
641.51285010954734
  0
LINE
  8
_0-0_90_FRAME
  6
CONTINUOUS
 62
    4
 10
2321.8145483833982
 20
641.51285010954734
 11
2322.2074742885288
 21
642.80674961680324
  0
LINE
  8
_0-0_90_FRAME
  6
CONTINUOUS
 62
    4
 10
2322.2074742885288
 20
642.80674961680324
 11
2322.3397897025388
 21
644.14119558968287
  0
LINE
  8
_0-0_90_FRAME
  6
CONTINUOUS
 62
    4
 10
2322.3397897025388
 20
644.14119558968287
 11
2322.3397897025388
 21
644.14119558968287
  0
ARC
  8
_0-0_90_FRAME
  6
CONTINUOUS
 62
    4
 10
2322.5959486385382
 20
644.14119558968287
 40
0.2561589359989651
 50
90
 51
180
  0
ARC
  8
_0-0_90_FRAME
  6
CONTINUOUS
 62
    4
 10
2286.7336975986818
 20
644.14119558968287
 40
0.2561589359989651
 50
0
 51
90
  0
ARC
  8
_0-0_90_FRAME
  6
CONTINUOUS
 62
    4
 10
2268.8025720787537
 20
644.14119558968287
 40
0.2561589359989651
 50
0
 51
90
  0
LINE
  8
_0-0_90_FRAME
  6
CONTINUOUS
 62
    4
 10
2274.9503865427305
 20
592.9094083898899
 11
2278.0242937747153
 21
592.9094083898899
  0
LINE
  8
_0-0_90_FRAME
  6
CONTINUOUS
 62
    4
 10
2278.0242937747153
 20
592.9094083898899
 11
2278.0242937747153
 21
589.83550115790331
  0
LINE
  8
_0-0_90_FRAME
  6
CONTINUOUS
 62
    4
 10
2278.0242937747153
 20
589.83550115790331
 11
2274.9503865427305
 21
589.83550115790331
  0
LINE
  8
_0-0_90_FRAME
  6
CONTINUOUS
 62
    4
 10
2274.9503865427305
 20
592.9094083898899
 11
2274.9503865427305
 21
589.83550115790331
  0
LINE
  8
_0-0_90_FRAME
  6
CONTINUOUS
 62
    4
 10
2316.4481341745613
 20
592.9094083898899
 11
2313.3742269425766
 21
592.9094083898899
  0
LINE
  8
_0-0_90_FRAME
  6
CONTINUOUS
 62
    4
 10
2313.3742269425766
 20
592.9094083898899
 11
2313.3742269425766
 21
589.83550115790331
  0
LINE
  8
_0-0_90_FRAME
  6
CONTINUOUS
 62
    4
 10
2313.3742269425766
 20
589.83550115790331
 11
2316.4481341745613
 21
589.83550115790331
  0
LINE
  8
_0-0_90_FRAME
  6
CONTINUOUS
 62
    4
 10
2316.4481341745613
 20
592.9094083898899
 11
2316.4481341745613
 21
589.83550115790331
  0
LINE
  8
_0-0_90_FRAME
  6
CONTINUOUS
 62
    4
 10
2282.6351546226997
 20
592.9094083898899
 11
2285.7090618546845
 21
592.9094083898899
  0
LINE
  8
_0-0_90_FRAME
  6
CONTINUOUS
 62
    4
 10
2285.7090618546845
 20
592.9094083898899
 11
2285.7090618546845
 21
589.83550115790331
  0
LINE
  8
_0-0_90_FRAME
  6
CONTINUOUS
 62
    4
 10
2285.7090618546845
 20
589.83550115790331
 11
2282.6351546226997
 21
589.83550115790331
  0
LINE
  8
_0-0_90_FRAME
  6
CONTINUOUS
 62
    4
 10
2282.6351546226997
 20
592.9094083898899
 11
2282.6351546226997
 21
589.83550115790331
  0
LINE
  8
_0-0_90_FRAME
  6
CONTINUOUS
 62
    4
 10
2290.3199227026689
 20
592.9094083898899
 11
2293.3938299346537
 21
592.9094083898899
  0
LINE
  8
_0-0_90_FRAME
  6
CONTINUOUS
 62
    4
 10
2293.3938299346537
 20
592.9094083898899
 11
2293.3938299346537
 21
589.83550115790331
  0
LINE
  8
_0-0_90_FRAME
  6
CONTINUOUS
 62
    4
 10
2293.3938299346537
 20
589.83550115790331
 11
2290.3199227026689
 21
589.83550115790331
  0
LINE
  8
_0-0_90_FRAME
  6
CONTINUOUS
 62
    4
 10
2290.3199227026689
 20
592.9094083898899
 11
2290.3199227026689
 21
589.83550115790331
  0
LINE
  8
_0-0_90_FRAME
  6
CONTINUOUS
 62
    4
 10
2298.0046907826381
 20
592.9094083898899
 11
2301.0785980146229
 21
592.9094083898899
  0
LINE
  8
_0-0_90_FRAME
  6
CONTINUOUS
 62
    4
 10
2301.0785980146229
 20
592.9094083898899
 11
2301.0785980146229
 21
589.83550115790331
  0
LINE
  8
_0-0_90_FRAME
  6
CONTINUOUS
 62
    4
 10
2301.0785980146229
 20
589.83550115790331
 11
2298.0046907826381
 21
589.83550115790331
  0
LINE
  8
_0-0_90_FRAME
  6
CONTINUOUS
 62
    4
 10
2298.0046907826381
 20
592.9094083898899
 11
2298.0046907826381
 21
589.83550115790331
  0
LINE
  8
_0-0_90_FRAME
  6
CONTINUOUS
 62
    4
 10
2305.6894588626074
 20
592.9094083898899
 11
2308.7633660945921
 21
592.9094083898899
  0
LINE
  8
_0-0_90_FRAME
  6
CONTINUOUS
 62
    4
 10
2308.7633660945921
 20
592.9094083898899
 11
2308.7633660945921
 21
589.83550115790331
  0
LINE
  8
_0-0_90_FRAME
  6
CONTINUOUS
 62
    4
 10
2308.7633660945921
 20
589.83550115790331
 11
2305.6894588626074
 21
589.83550115790331
  0
LINE
  8
_0-0_90_FRAME
  6
CONTINUOUS
 62
    4
 10
2305.6894588626074
 20
592.9094083898899
 11
2305.6894588626074
 21
589.83550115790331
  0
LINE
  8
_0-0_90_FRAME
  6
CONTINUOUS
 62
    4
 10
2295.6674310911717
 20
622.1591159842128
 11
2295.6674310911717
 21
622.1591159842128
  0
LINE
  8
_0-0_90_FRAME
  6
CONTINUOUS
 62
    4
 10
2295.6674310911717
 20
622.1591159842128
 11
2295.577923605224
 21
623.1377096976579
  0
LINE
  8
_0-0_90_FRAME
  6
CONTINUOUS
 62
    4
 10
2295.577923605224
 20
623.1377096976579
 11
2295.3121207870472
 21
624.08656933631221
  0
LINE
  8
_0-0_90_FRAME
  6
CONTINUOUS
 62
    4
 10
2295.3121207870472
 20
624.08656933631221
 11
2294.8780989207698
 21
624.97686428020143
  0
LINE
  8
_0-0_90_FRAME
  6
CONTINUOUS
 62
    4
 10
2294.8780989207698
 20
624.97686428020143
 11
2294.289045541173
 21
625.78154336796649
  0
LINE
  8
_0-0_90_FRAME
  6
CONTINUOUS
 62
    4
 10
2294.289045541173
 20
625.78154336796649
 11
2293.5628587371198
 21
626.47615683271295
  0
LINE
  8
_0-0_90_FRAME
  6
CONTINUOUS
 62
    4
 10
2293.5628587371198
 20
626.47615683271295
 11
2292.7216033271839
 21
627.03959919580575
  0
LINE
  8
_0-0_90_FRAME
  6
CONTINUOUS
 62
    4
 10
2292.7216033271839
 20
627.03959919580575
 11
2291.7908404312993
 21
627.45475054615792
  0
LINE
  8
_0-0_90_FRAME
  6
CONTINUOUS
 62
    4
 10
2291.7908404312993
 20
627.45475054615792
 11
2290.7988508090698
 21
627.7089967200659
  0
LINE
  8
_0-0_90_FRAME
  6
CONTINUOUS
 62
    4
 10
2290.7988508090698
 20
627.7089967200659
 11
2289.7757755631956
 21
627.79461257619005
  0
LINE
  8
_0-0_90_FRAME
  6
CONTINUOUS
 62
    4
 10
2289.7757755631956
 20
627.79461257619005
 11
2288.7527003173213
 21
627.7089967200659
  0
LINE
  8
_0-0_90_FRAME
  6
CONTINUOUS
 62
    4
 10
2288.7527003173213
 20
627.7089967200659
 11
2287.7607106950918
 21
627.45475054615792
  0
LINE
  8
_0-0_90_FRAME
  6
CONTINUOUS
 62
    4
 10
2287.7607106950918
 20
627.45475054615792
 11
2286.8299477992073
 21
627.03959919580575
  0
LINE
  8
_0-0_90_FRAME
  6
CONTINUOUS
 62
    4
 10
2286.8299477992073
 20
627.03959919580575
 11
2285.9886923892714
 21
626.47615683271295
  0
LINE
  8
_0-0_90_FRAME
  6
CONTINUOUS
 62
    4
 10
2285.9886923892714
 20
626.47615683271295
 11
2285.2625055852182
 21
625.78154336796649
  0
LINE
  8
_0-0_90_FRAME
  6
CONTINUOUS
 62
    4
 10
2285.2625055852182
 20
625.78154336796649
 11
2284.6734522056213
 21
624.97686428020143
  0
LINE
  8
_0-0_90_FRAME
  6
CONTINUOUS
 62
    4
 10
2284.6734522056213
 20
624.97686428020143
 11
2284.2394303393439
 21
624.08656933631221
  0
LINE
  8
_0-0_90_FRAME
  6
CONTINUOUS
 62
    4
 10
2284.2394303393439
 20
624.08656933631221
 11
2283.9736275211671
 21
623.1377096976579
  0
LINE
  8
_0-0_90_FRAME
  6
CONTINUOUS
 62
    4
 10
2283.9736275211671
 20
623.1377096976579
 11
2283.8841200352194
 21
622.1591159842128
  0
LINE
  8
_0-0_90_FRAME
  6
CONTINUOUS
 62
    4
 10
2283.8841200352194
 20
622.1591159842128
 11
2283.8841200352194
 21
622.1591159842128
  0
LINE
  8
_0-0_90_FRAME
  6
CONTINUOUS
 62
    4
 10
2295.6674310911712
 20
622.1591159842128
 11
2295.6674310911712
 21
620.6221623682186
  0
LINE
  8
_0-0_90_FRAME
  6
CONTINUOUS
 62
    4
 10
2292.8877225325377
 20
615.83693438874047
 11
2292.8877225325377
 21
615.83693438874047
  0
LINE
  8
_0-0_90_FRAME
  6
CONTINUOUS
 62
    4
 10
2292.8877225325377
 20
615.83693438874047
 11
2291.9717286691025
 21
615.39274378692835
  0
LINE
  8
_0-0_90_FRAME
  6
CONTINUOUS
 62
    4
 10
2291.9717286691025
 20
615.39274378692835
 11
2290.9890118817498
 21
615.10744642249529
  0
LINE
  8
_0-0_90_FRAME
  6
CONTINUOUS
 62
    4
 10
2290.9890118817498
 20
615.10744642249529
 11
2289.9694315227853
 21
614.98971091149201
  0
LINE
  8
_0-0_90_FRAME
  6
CONTINUOUS
 62
    4
 10
2289.9694315227853
 20
614.98971091149201
 11
2288.9439670254828
 21
615.04311458784355
  0
LINE
  8
_0-0_90_FRAME
  6
CONTINUOUS
 62
    4
 10
2288.9439670254828
 20
615.04311458784355
 11
2287.9437766096839
 21
615.2660348078673
  0
LINE
  8
_0-0_90_FRAME
  6
CONTINUOUS
 62
    4
 10
2287.9437766096839
 20
615.2660348078673
 11
2286.9992505550508
 21
615.65169825348096
  0
LINE
  8
_0-0_90_FRAME
  6
CONTINUOUS
 62
    4
 10
2286.9992505550508
 20
615.65169825348096
 11
2286.1390878078009
 21
616.18838673604478
  0
LINE
  8
_0-0_90_FRAME
  6
CONTINUOUS
 62
    4
 10
2286.1390878078009
 20
616.18838673604478
 11
2285.389423977746
 21
616.85979324759342
  0
LINE
  8
_0-0_90_FRAME
  6
CONTINUOUS
 62
    4
 10
2285.389423977746
 20
616.85979324759342
 11
2284.773037221014
 21
617.64551744102175
  0
LINE
  8
_0-0_90_FRAME
  6
CONTINUOUS
 62
    4
 10
2284.773037221014
 20
617.64551744102175
 11
2284.3086561373011
 21
618.5216854843078
  0
LINE
  8
_0-0_90_FRAME
  6
CONTINUOUS
 62
    4
 10
2284.3086561373011
 20
618.5216854843078
 11
2284.0103907108482
 21
619.46167545481899
  0
LINE
  8
_0-0_90_FRAME
  6
CONTINUOUS
 62
    4
 10
2284.0103907108482
 20
619.46167545481899
 11
2283.8873035857087
 21
620.43692623295908
  0
LINE
  8
_0-0_90_FRAME
  6
CONTINUOUS
 62
    4
 10
2283.8873035857087
 20
620.43692623295908
 11
2283.8841200352194
 21
620.6221623682186
  0
LINE
  8
_0-0_90_FRAME
  6
CONTINUOUS
 62
    4
 10
2293.5325620346866
 20
622.0083969765974
 11
2293.5325620346866
 21
620.77883408380239
  0
LINE
  8
_0-0_90_FRAME
  6
CONTINUOUS
 62
    4
 10
2307.6102277427035
 20
620.1587647858496
 11
2307.6102277427035
 21
627.79461257619096
  0
LINE
  8
_0-0_90_FRAME
  6
CONTINUOUS
 62
    4
 10
2305.3047973187113
 20
620.6221623682186
 11
2305.3047973187113
 21
627.79461257619096
  0
LINE
  8
_0-0_90_FRAME
  6
CONTINUOUS
 62
    4
 10
2305.3047973187113
 20
627.79461257619096
 11
2307.6102277427035
 21
627.79461257619096
  0
LINE
  8
_0-0_90_FRAME
  6
CONTINUOUS
 62
    4
 10
2296.8515524307459
 20
620.1587647858496
 11
2296.8515524307459
 21
627.79461257619096
  0
LINE
  8
_0-0_90_FRAME
  6
CONTINUOUS
 62
    4
 10
2299.1569828547381
 20
620.6221623682186
 11
2299.1569828547381
 21
627.79461257619096
  0
ARC
  8
_0-0_90_FRAME
  6
CONTINUOUS
 62
    4
 10
2302.2666963698484
 20
620.39046357703683
 40
5.4200985425585984
 50
182.45003099226136
 51
265.55525728852427
  0
LINE
  8
_0-0_90_FRAME
  6
CONTINUOUS
 62
    4
 10
2299.1569828547381
 20
627.79461257619096
 11
2296.8515524307459
 21
627.79461257619096
  0
LINE
  8
_0-0_90_FRAME
  6
CONTINUOUS
 62
    4
 10
2302.6151284907228
 20
614.98666577624226
 11
2301.8466516827266
 21
614.98666577624226
  0
ARC
  8
_0-0_90_FRAME
  6
CONTINUOUS
 62
    4
 10
2303.7299348595461
 20
620.56252217359452
 40
4.5733409003826422
 50
179.25279388138676
 51
218.96457184688023
  0
ARC
  8
_0-0_90_FRAME
  6
CONTINUOUS
 62
    4
 10
2300.7318453139032
 20
620.56252217359452
 40
4.573340900382127
 50
321.03542815311977
 51
0.747206118613265
  0
ARC
  8
_0-0_90_FRAME
  6
CONTINUOUS
 62
    4
 10
2302.2308900867265
 20
621.42155839745737
 40
4.2638625348001273
 50
241.1577278083189
 51
298.8422721916811
  0
LINE
  8
_0-0_90_FRAME
  6
CONTINUOUS
 62
    4
 10
2290.2723308135774
 20
618.38233678939559
 11
2291.3182853179042
 21
617.36437260185721
  0
LINE
  8
_0-0_90_FRAME
  6
CONTINUOUS
 62
    4
 10
2290.2723308135774
 20
618.38233678939559
 11
2291.4069760041912
 21
619.58717195989539
  0
LINE
  8
_0-0_90_FRAME
  6
CONTINUOUS
 62
    4
 10
2294.6686738731059
 20
614.10364228382878
 11
2296.1511999400736
 21
615.67787849567958
  0
LINE
  8
_0-0_90_FRAME
  6
CONTINUOUS
 62
    4
 10
2286.0189890917045
 20
622.0083969765974
 11
2286.0189890917045
 21
620.77883408380239
  0
LINE
  8
_0-0_90_FRAME
  6
CONTINUOUS
 62
    4
 10
2293.5325620346862
 20
622.0083969765974
 11
2293.5325620346862
 21
622.0083969765974
  0
LINE
  8
_0-0_90_FRAME
  6
CONTINUOUS
 62
    4
 10
2293.5325620346862
 20
622.0083969765974
 11
2293.4754880067312
 21
622.65731051162015
  0
LINE
  8
_0-0_90_FRAME
  6
CONTINUOUS
 62
    4
 10
2293.4754880067312
 20
622.65731051162015
 11
2293.3060000883238
 21
623.28650713724733
  0
LINE
  8
_0-0_90_FRAME
  6
CONTINUOUS
 62
    4
 10
2293.3060000883238
 20
623.28650713724733
 11
2293.0292480841003
 21
623.87686903239819
  0
LINE
  8
_0-0_90_FRAME
  6
CONTINUOUS
 62
    4
 10
2293.0292480841003
 20
623.87686903239819
 11
2292.6536409636656
 21
624.41045834962597
  0
LINE
  8
_0-0_90_FRAME
  6
CONTINUOUS
 62
    4
 10
2292.6536409636656
 20
624.41045834962597
 11
2292.1905913593077
 21
624.87106224753597
  0
LINE
  8
_0-0_90_FRAME
  6
CONTINUOUS
 62
    4
 10
2292.1905913593077
 20
624.87106224753597
 11
2291.6541687989411
 21
625.24468550976701
  0
LINE
  8
_0-0_90_FRAME
  6
CONTINUOUS
 62
    4
 10
2291.6541687989411
 20
625.24468550976701
 11
2291.0606722106186
 21
625.51997578255873
  0
LINE
  8
_0-0_90_FRAME
  6
CONTINUOUS
 62
    4
 10
2291.0606722106186
 20
625.51997578255873
 11
2290.4281346878538
 21
625.6885685102759
  0
LINE
  8
_0-0_90_FRAME
  6
CONTINUOUS
 62
    4
 10
2290.4281346878538
 20
625.6885685102759
 11
2289.7757755631956
 21
625.74534108819887
  0
LINE
  8
_0-0_90_FRAME
  6
CONTINUOUS
 62
    4
 10
2289.7757755631956
 20
625.74534108819887
 11
2289.1234164385373
 21
625.6885685102759
  0
LINE
  8
_0-0_90_FRAME
  6
CONTINUOUS
 62
    4
 10
2289.1234164385373
 20
625.6885685102759
 11
2288.4908789157726
 21
625.51997578255873
  0
LINE
  8
_0-0_90_FRAME
  6
CONTINUOUS
 62
    4
 10
2288.4908789157726
 20
625.51997578255873
 11
2287.89738232745
 21
625.24468550976701
  0
LINE
  8
_0-0_90_FRAME
  6
CONTINUOUS
 62
    4
 10
2287.89738232745
 20
625.24468550976701
 11
2287.3609597670834
 21
624.87106224753597
  0
LINE
  8
_0-0_90_FRAME
  6
CONTINUOUS
 62
    4
 10
2287.3609597670834
 20
624.87106224753597
 11
2286.8979101627256
 21
624.41045834962597
  0
LINE
  8
_0-0_90_FRAME
  6
CONTINUOUS
 62
    4
 10
2286.8979101627256
 20
624.41045834962597
 11
2286.5223030422908
 21
623.87686903239819
  0
LINE
  8
_0-0_90_FRAME
  6
CONTINUOUS
 62
    4
 10
2286.5223030422908
 20
623.87686903239819
 11
2286.2455510380673
 21
623.28650713724733
  0
LINE
  8
_0-0_90_FRAME
  6
CONTINUOUS
 62
    4
 10
2286.2455510380673
 20
623.28650713724733
 11
2286.0760631196599
 21
622.65731051162015
  0
LINE
  8
_0-0_90_FRAME
  6
CONTINUOUS
 62
    4
 10
2286.0760631196599
 20
622.65731051162015
 11
2286.018989091705
 21
622.0083969765974
  0
LINE
  8
_0-0_90_FRAME
  6
CONTINUOUS
 62
    4
 10
2286.018989091705
 20
622.0083969765974
 11
2286.018989091705
 21
622.0083969765974
  0
LINE
  8
_0-0_90_FRAME
  6
CONTINUOUS
 62
    4
 10
2291.3182853179032
 20
617.36437260185653
 11
2291.3182853179032
 21
617.36437260185653
  0
LINE
  8
_0-0_90_FRAME
  6
CONTINUOUS
 62
    4
 10
2291.3182853179032
 20
617.36437260185653
 11
2290.7000169279268
 21
617.14963117639979
  0
LINE
  8
_0-0_90_FRAME
  6
CONTINUOUS
 62
    4
 10
2290.7000169279268
 20
617.14963117639979
 11
2290.0536659317713
 21
617.04498037479971
  0
LINE
  8
_0-0_90_FRAME
  6
CONTINUOUS
 62
    4
 10
2290.0536659317713
 20
617.04498037479971
 11
2289.3988713773861
 21
617.05359995870708
  0
LINE
  8
_0-0_90_FRAME
  6
CONTINUOUS
 62
    4
 10
2289.3988713773861
 20
617.05359995870708
 11
2288.7555288659637
 21
617.17522802642679
  0
LINE
  8
_0-0_90_FRAME
  6
CONTINUOUS
 62
    4
 10
2288.7555288659637
 20
617.17522802642679
 11
2288.1431860341672
 21
617.40616897066764
  0
LINE
  8
_0-0_90_FRAME
  6
CONTINUOUS
 62
    4
 10
2288.1431860341672
 20
617.40616897066764
 11
2287.5804486090801
 21
617.73940576770087
  0
LINE
  8
_0-0_90_FRAME
  6
CONTINUOUS
 62
    4
 10
2287.5804486090801
 20
617.73940576770087
 11
2287.0844150826047
 21
618.16481318607453
  0
LINE
  8
_0-0_90_FRAME
  6
CONTINUOUS
 62
    4
 10
2287.0844150826047
 20
618.16481318607453
 11
2286.6701571824378
 21
618.66946543664778
  0
LINE
  8
_0-0_90_FRAME
  6
CONTINUOUS
 62
    4
 10
2286.6701571824378
 20
618.66946543664778
 11
2286.3502619252517
 21
619.23802891615344
  0
LINE
  8
_0-0_90_FRAME
  6
CONTINUOUS
 62
    4
 10
2286.3502619252517
 20
619.23802891615344
 11
2286.1344491665609
 21
619.85322811097365
  0
LINE
  8
_0-0_90_FRAME
  6
CONTINUOUS
 62
    4
 10
2286.1344491665609
 20
619.85322811097365
 11
2286.0292762678318
 21
620.49637050487968
  0
LINE
  8
_0-0_90_FRAME
  6
CONTINUOUS
 62
    4
 10
2286.0292762678318
 20
620.49637050487968
 11
2286.0189843756116
 21
620.772881375834
  0
LINE
  8
_0-0_90_FRAME
  6
CONTINUOUS
 62
    4
 10
2272.6470940048002
 20
614.98666577624226
 11
2274.9464310798958
 21
614.98666577624226
  0
LINE
  8
_0-0_90_FRAME
  6
CONTINUOUS
 62
    4
 10
2272.6470940048002
 20
614.98666577624226
 11
2272.6470940048002
 21
615.04814392088065
  0
LINE
  8
_0-0_90_FRAME
  6
CONTINUOUS
 62
    4
 10
2272.6470940048002
 20
615.04814392088065
 11
2277.4768158461393
 21
627.79461257619096
  0
LINE
  8
_0-0_90_FRAME
  6
CONTINUOUS
 62
    4
 10
2272.6470940048002
 20
614.98666577624226
 11
2272.6470940048002
 21
615.04814392088065
  0
LINE
  8
_0-0_90_FRAME
  6
CONTINUOUS
 62
    4
 10
2276.200025350312
 20
618.36329019565255
 11
2280.9287055024379
 21
618.36329019565255
  0
LINE
  8
_0-0_90_FRAME
  6
CONTINUOUS
 62
    4
 10
2276.893252818516
 20
620.31009810924388
 11
2280.2354780342375
 21
620.31009810924388
  0
LINE
  8
_0-0_90_FRAME
  6
CONTINUOUS
 62
    4
 10
2284.4304050607516
 20
614.98666577624226
 11
2282.1310679856597
 21
614.98666577624226
  0
LINE
  8
_0-0_90_FRAME
  6
CONTINUOUS
 62
    4
 10
2282.1310679856597
 20
614.98666577624226
 11
2280.9287055024379
 21
618.36329019565255
  0
LINE
  8
_0-0_90_FRAME
  6
CONTINUOUS
 62
    4
 10
2284.4304050607516
 20
615.04814392088065
 11
2279.6006832194125
 21
627.79461257619096
  0
LINE
  8
_0-0_90_FRAME
  6
CONTINUOUS
 62
    4
 10
2284.4304050607516
 20
614.98666577624226
 11
2284.4304050607516
 21
615.04814392088065
  0
LINE
  8
_0-0_90_FRAME
  6
CONTINUOUS
 62
    4
 10
2277.4768158461393
 20
627.79461257619096
 11
2279.6006832194125
 21
627.79461257619096
  0
LINE
  8
_0-0_90_FRAME
  6
CONTINUOUS
 62
    4
 10
2280.2354780342375
 20
620.31009810924388
 11
2278.5387495327759
 21
625.07506289407957
  0
LINE
  8
_0-0_90_FRAME
  6
CONTINUOUS
 62
    4
 10
2291.4069760041912
 20
619.58717195989539
 11
2296.1511999400736
 21
615.67787849567958
  0
LINE
  8
_0-0_90_FRAME
  6
CONTINUOUS
 62
    4
 10
2292.8877225325396
 20
615.83693438874161
 11
2294.6686738731059
 21
614.10364228382878
  0
LINE
  8
_0-0_90_FRAME
  6
CONTINUOUS
 62
    4
 10
2276.200025350312
 20
618.36329019565255
 11
2276.893252818516
 21
620.31009810924388
  0
LINE
  8
_0-0_90_FRAME
  6
CONTINUOUS
 62
    4
 10
2295.6674310911717
 20
620.6221623682186
 11
2295.6674310911717
 21
620.6221623682186
  0
LINE
  8
_0-0_90_FRAME
  6
CONTINUOUS
 62
    4
 10
2295.6674310911717
 20
620.6221623682186
 11
2295.577923605224
 21
619.6435686547735
  0
LINE
  8
_0-0_90_FRAME
  6
CONTINUOUS
 62
    4
 10
2295.577923605224
 20
619.6435686547735
 11
2295.3121207870472
 21
618.69470901611919
  0
LINE
  8
_0-0_90_FRAME
  6
CONTINUOUS
 62
    4
 10
2295.3121207870472
 20
618.69470901611919
 11
2294.8780989207698
 21
617.80441407222997
  0
LINE
  8
_0-0_90_FRAME
  6
CONTINUOUS
 62
    4
 10
2294.8780989207698
 20
617.80441407222997
 11
2294.4251191125545
 21
617.16076811056564
  0
LINE
  8
_0-0_90_FRAME
  6
CONTINUOUS
 62
    4
 10
2293.5325667507796
 20
620.772881375834
 11
2293.5325667507796
 21
620.772881375834
  0
LINE
  8
_0-0_90_FRAME
  6
CONTINUOUS
 62
    4
 10
2293.5325667507796
 20
620.772881375834
 11
2293.4754926511764
 21
620.12375986397694
  0
LINE
  8
_0-0_90_FRAME
  6
CONTINUOUS
 62
    4
 10
2293.4754926511764
 20
620.12375986397694
 11
2293.3060045200018
 21
619.4943615807864
  0
LINE
  8
_0-0_90_FRAME
  6
CONTINUOUS
 62
    4
 10
2293.3060045200018
 20
619.4943615807864
 11
2293.0292521683568
 21
618.90381047460608
  0
LINE
  8
_0-0_90_FRAME
  6
CONTINUOUS
 62
    4
 10
2293.0292521683568
 20
618.90381047460608
 11
2292.7743941331896
 21
618.52098391408902
  0
LINE
  8
_0-0_90_FRAME
  6
CONTINUOUS
 62
    4
 10
2283.8841200352199
 20
622.1591159842128
 11
2283.8841200352199
 21
620.6221623682186
  0
LINE
  8
_0-0_90_FRAME
  6
CONTINUOUS
 62
    4
 10
2274.9464310798958
 20
614.98666577624226
 11
2278.5387495327759
 21
625.07506289407957
  0
LINE
  8
_0-0_90_FRAME
  6
CONTINUOUS
 62
    4
 10
2307.4804335285353
 20
614.98666577624226
 11
2309.7797706036308
 21
614.98666577624226
  0
LINE
  8
_0-0_90_FRAME
  6
CONTINUOUS
 62
    4
 10
2307.4804335285353
 20
614.98666577624226
 11
2307.4804335285353
 21
615.04814392088065
  0
LINE
  8
_0-0_90_FRAME
  6
CONTINUOUS
 62
    4
 10
2307.4804335285353
 20
615.04814392088065
 11
2312.310155369878
 21
627.79461257619096
  0
LINE
  8
_0-0_90_FRAME
  6
CONTINUOUS
 62
    4
 10
2307.4804335285353
 20
614.98666577624226
 11
2307.4804335285353
 21
615.04814392088065
  0
LINE
  8
_0-0_90_FRAME
  6
CONTINUOUS
 62
    4
 10
2311.0333648740507
 20
618.36329019565255
 11
2315.7620450261766
 21
618.36329019565255
  0
LINE
  8
_0-0_90_FRAME
  6
CONTINUOUS
 62
    4
 10
2311.726592342251
 20
620.31009810924388
 11
2315.0688175579762
 21
620.31009810924388
  0
LINE
  8
_0-0_90_FRAME
  6
CONTINUOUS
 62
    4
 10
2319.2637445844903
 20
614.98666577624226
 11
2316.9644075093947
 21
614.98666577624226
  0
LINE
  8
_0-0_90_FRAME
  6
CONTINUOUS
 62
    4
 10
2316.9644075093947
 20
614.98666577624226
 11
2315.7620450261766
 21
618.36329019565255
  0
LINE
  8
_0-0_90_FRAME
  6
CONTINUOUS
 62
    4
 10
2319.2637445844903
 20
615.04814392088065
 11
2314.4340227431512
 21
627.79461257619096
  0
LINE
  8
_0-0_90_FRAME
  6
CONTINUOUS
 62
    4
 10
2319.2637445844903
 20
614.98666577624226
 11
2319.2637445844903
 21
615.04814392088065
  0
LINE
  8
_0-0_90_FRAME
  6
CONTINUOUS
 62
    4
 10
2312.310155369878
 20
627.79461257619096
 11
2314.4340227431512
 21
627.79461257619096
  0
LINE
  8
_0-0_90_FRAME
  6
CONTINUOUS
 62
    4
 10
2315.0688175579762
 20
620.31009810924388
 11
2313.3720890565146
 21
625.07506289407957
  0
LINE
  8
_0-0_90_FRAME
  6
CONTINUOUS
 62
    4
 10
2311.0333648740507
 20
618.36329019565255
 11
2311.726592342251
 21
620.31009810924388
  0
LINE
  8
_0-0_90_FRAME
  6
CONTINUOUS
 62
    4
 10
2309.7797706036308
 20
614.98666577624226
 11
2313.3720890565146
 21
625.07506289407957
  0
ARC
  8
_0-0_90_FRAME
  6
CONTINUOUS
 62
    4
 10
2302.1950838036009
 20
620.39046357703683
 40
5.4200985425585984
 50
274.44474271147573
 51
357.5499690077387
  0
LINE
  8
_0-0_90_FRAME
  6
CONTINUOUS
 62
    4
 10
2292.7743941331919
 20
618.52098391409072
 11
2294.4251191125568
 21
617.1607681105661
  0
LINE
  8
_0-0_90_FRAME
  6
CONTINUOUS
 62
    4
 10
2293.6709602024575
 20
605.91861068993819
 11
2293.6709602024575
 21
605.91861068993819
  0
LINE
  8
_0-0_90_FRAME
  6
CONTINUOUS
 62
    4
 10
2293.6709602024575
 20
605.91861068993819
 11
2294.3166339153554
 21
606.17962393626328
  0
LINE
  8
_0-0_90_FRAME
  6
CONTINUOUS
 62
    4
 10
2294.3166339153554
 20
606.17962393626328
 11
2294.8968732767485
 21
606.52802950887724
  0
LINE
  8
_0-0_90_FRAME
  6
CONTINUOUS
 62
    4
 10
2294.8968732767485
 20
606.52802950887724
 11
2295.3940480072561
 21
606.95324128075777
  0
LINE
  8
_0-0_90_FRAME
  6
CONTINUOUS
 62
    4
 10
2295.3940480072561
 20
606.95324128075777
 11
2295.7930517042751
 21
607.442339407384
  0
LINE
  8
_0-0_90_FRAME
  6
CONTINUOUS
 62
    4
 10
2295.7930517042751
 20
607.442339407384
 11
2296.0817608423763
 21
607.98046288967373
  0
LINE
  8
_0-0_90_FRAME
  6
CONTINUOUS
 62
    4
 10
2296.0817608423763
 20
607.98046288967373
 11
2296.251403140493
 21
608.55126111792151
  0
LINE
  8
_0-0_90_FRAME
  6
CONTINUOUS
 62
    4
 10
2296.251403140493
 20
608.55126111792151
 11
2296.2968241032399
 21
609.13739067679967
  0
LINE
  8
_0-0_90_FRAME
  6
CONTINUOUS
 62
    4
 10
2296.2968241032399
 20
609.13739067679967
 11
2296.2166436376478
 21
609.72104231625758
  0
LINE
  8
_0-0_90_FRAME
  6
CONTINUOUS
 62
    4
 10
2296.2166436376478
 20
609.72104231625758
 11
2296.0132979865907
 21
610.28448207657232
  0
LINE
  8
_0-0_90_FRAME
  6
CONTINUOUS
 62
    4
 10
2296.0132979865907
 20
610.28448207657232
 11
2295.6929657047781
 21
610.81059012574099
  0
LINE
  8
_0-0_90_FRAME
  6
CONTINUOUS
 62
    4
 10
2295.6929657047781
 20
610.81059012574099
 11
2295.2653799264967
 21
611.28338093691309
  0
LINE
  8
_0-0_90_FRAME
  6
CONTINUOUS
 62
    4
 10
2295.2653799264967
 20
611.28338093691309
 11
2294.7435326292511
 21
611.68848900053501
  0
LINE
  8
_0-0_90_FRAME
  6
CONTINUOUS
 62
    4
 10
2294.7435326292511
 20
611.68848900053501
 11
2294.1432798791002
 21
612.01360531308796
  0
LINE
  8
_0-0_90_FRAME
  6
CONTINUOUS
 62
    4
 10
2294.1432798791002
 20
612.01360531308796
 11
2293.4828600521155
 21
612.24885137993203
  0
LINE
  8
_0-0_90_FRAME
  6
CONTINUOUS
 62
    4
 10
2293.4828600521155
 20
612.24885137993203
 11
2292.7823396705503
 21
612.38707936836613
  0
LINE
  8
_0-0_90_FRAME
  6
CONTINUOUS
 62
    4
 10
2292.7823396705503
 20
612.38707936836613
 11
2292.1630896912156
 21
612.42507641625161
  0
LINE
  8
_0-0_90_FRAME
  6
CONTINUOUS
 62
    4
 10
2301.0583598169596
 20
601.66640110429489
 11
2301.0583598169596
 21
610.37580492825964
  0
LINE
  8
_0-0_90_FRAME
  6
CONTINUOUS
 62
    4
 10
2298.7529293929674
 20
601.66640110429489
 11
2298.7529293929674
 21
610.37580492825964
  0
LINE
  8
_0-0_90_FRAME
  6
CONTINUOUS
 62
    4
 10
2298.4967704569663
 20
612.42507641625252
 11
2301.3145187529572
 21
612.42507641625252
  0
LINE
  8
_0-0_90_FRAME
  6
CONTINUOUS
 62
    4
 10
2286.2714341632436
 20
612.42507641625252
 11
2286.2714341632436
 21
599.61712961630383
  0
LINE
  8
_0-0_90_FRAME
  6
CONTINUOUS
 62
    4
 10
2298.4967704569663
 20
599.61712961630383
 11
2301.3145187529572
 21
599.61712961630383
  0
LINE
  8
_0-0_90_FRAME
  6
CONTINUOUS
 62
    4
 10
2301.3145187529572
 20
599.61712961630383
 11
2301.3145187529572
 21
601.41024216829737
  0
ARC
  8
_0-0_90_FRAME
  6
CONTINUOUS
 62
    4
 10
2301.3145187529572
 20
601.66640110429489
 40
0.2561589359989651
 50
180
 51
270
  0
LINE
  8
_0-0_90_FRAME
  6
CONTINUOUS
 62
    4
 10
2298.4967704569663
 20
599.61712961630383
 11
2298.4967704569663
 21
601.41024216829737
  0
ARC
  8
_0-0_90_FRAME
  6
CONTINUOUS
 62
    4
 10
2298.4967704569663
 20
601.66640110429489
 40
0.2561589359989651
 50
270
 51
0
  0
LINE
  8
_0-0_90_FRAME
  6
CONTINUOUS
 62
    4
 10
2301.3145187529572
 20
612.42507641625252
 11
2301.3145187529572
 21
610.63196386425909
  0
ARC
  8
_0-0_90_FRAME
  6
CONTINUOUS
 62
    4
 10
2301.3145187529572
 20
610.37580492825964
 40
0.2561589359989651
 50
90
 51
180
  0
LINE
  8
_0-0_90_FRAME
  6
CONTINUOUS
 62
    4
 10
2298.4967704569663
 20
612.42507641625252
 11
2298.4967704569663
 21
610.63196386425909
  0
ARC
  8
_0-0_90_FRAME
  6
CONTINUOUS
 62
    4
 10
2298.4967704569663
 20
610.37580492825964
 40
0.2561589359989651
 50
0
 51
90
  0
LINE
  8
_0-0_90_FRAME
  6
CONTINUOUS
 62
    4
 10
2280.7128268716278
 20
599.61712961630383
 11
2280.7128268716278
 21
610.37580492825964
  0
LINE
  8
_0-0_90_FRAME
  6
CONTINUOUS
 62
    4
 10
2278.4073964476393
 20
599.61712961630383
 11
2278.4073964476393
 21
610.37580492825964
  0
LINE
  8
_0-0_90_FRAME
  6
CONTINUOUS
 62
    4
 10
2274.3088534716571
 20
612.42507641625252
 11
2284.8113698476136
 21
612.42507641625252
  0
LINE
  8
_0-0_90_FRAME
  6
CONTINUOUS
 62
    4
 10
2278.4073964476393
 20
599.61712961630383
 11
2280.7128268716278
 21
599.61712961630383
  0
LINE
  8
_0-0_90_FRAME
  6
CONTINUOUS
 62
    4
 10
2284.8113698476136
 20
612.42507641625252
 11
2284.8113698476136
 21
610.63196386425909
  0
ARC
  8
_0-0_90_FRAME
  6
CONTINUOUS
 62
    4
 10
2280.968985807629
 20
610.37580492825964
 40
0.2561589359989651
 50
90
 51
180
  0
LINE
  8
_0-0_90_FRAME
  6
CONTINUOUS
 62
    4
 10
2274.3088534716571
 20
612.42507641625252
 11
2274.3088534716571
 21
610.63196386425909
  0
ARC
  8
_0-0_90_FRAME
  6
CONTINUOUS
 62
    4
 10
2278.1512375116417
 20
610.37580492825964
 40
0.2561589359989651
 50
0
 51
90
  0
LINE
  8
_0-0_90_FRAME
  6
CONTINUOUS
 62
    4
 10
2274.3088534716571
 20
610.63196386425909
 11
2278.1512375116417
 21
610.63196386425909
  0
LINE
  8
_0-0_90_FRAME
  6
CONTINUOUS
 62
    4
 10
2280.968985807629
 20
610.63196386425909
 11
2284.8113698476136
 21
610.63196386425909
  0
LINE
  8
_0-0_90_FRAME
  6
CONTINUOUS
 62
    4
 10
2286.2714341632436
 20
599.61712961630383
 11
2288.5768645872322
 21
599.61712961630383
  0
LINE
  8
_0-0_90_FRAME
  6
CONTINUOUS
 62
    4
 10
2288.5768645872322
 20
599.61712961630383
 11
2288.5768645872322
 21
610.63196386425909
  0
LINE
  8
_0-0_90_FRAME
  6
CONTINUOUS
 62
    4
 10
2286.2714341632436
 20
612.42507641625252
 11
2292.1630896912156
 21
612.42507641625252
  0
LINE
  8
_0-0_90_FRAME
  6
CONTINUOUS
 62
    4
 10
2288.5768645872322
 20
610.63196386425909
 11
2292.4704804144185
 21
610.63196386425909
  0
LINE
  8
_0-0_90_FRAME
  6
CONTINUOUS
 62
    4
 10
2288.6537122680293
 20
605.68660072885086
 11
2288.6537122680293
 21
607.47971328084441
  0
LINE
  8
_0-0_90_FRAME
  6
CONTINUOUS
 62
    4
 10
2288.6537122680293
 20
605.68660072885086
 11
2291.1690822657674
 21
605.68660072885086
  0
LINE
  8
_0-0_90_FRAME
  6
CONTINUOUS
 62
    4
 10
2288.6537122680293
 20
607.47971328084441
 11
2292.4704804144185
 21
607.47971328084441
  0
ARC
  8
_0-0_90_FRAME
  6
CONTINUOUS
 62
    4
 10
2292.4155219598561
 20
609.05583857255169
 40
1.577083183248922
 50
271.9970571043541
 51
88.002942895541636
  0
LINE
  8
_0-0_90_FRAME
  6
CONTINUOUS
 62
    4
 10
2294.0694528239055
 20
599.61712961630383
 11
2296.5541945030945
 21
599.61712961630383
  0
LINE
  8
_0-0_90_FRAME
  6
CONTINUOUS
 62
    4
 10
2294.3470520869323
 20
605.12457141941832
 11
2296.5541945030945
 21
599.71959319070356
  0
LINE
  8
_0-0_90_FRAME
  6
CONTINUOUS
 62
    4
 10
2292.119587586576
 20
605.04461109157558
 11
2294.0694528239055
 21
599.61712961630383
  0
ARC
  8
_0-0_90_FRAME
  6
CONTINUOUS
 62
    4
 10
2291.1690822657674
 20
604.66196498485715
 40
1.0246357439958607
 50
21.928297866550263
 51
90
  0
ARC
  8
_0-0_90_FRAME
  6
CONTINUOUS
 62
    4
 10
2292.7971943270077
 20
604.48978297431233
 40
1.6748180337109206
 50
22.272952259980947
 51
58.553113012863236
  0
LINE
  8
_0-0_90_FRAME
  6
CONTINUOUS
 62
    4
 10
2296.5541945030945
 20
599.71959319070356
 11
2296.5541945030945
 21
599.61712961630383
  0
LINE
  8
_0-0_90_FRAME
  6
CONTINUOUS
 62
    4
 10
2303.622445301904
 20
612.42507641625252
 11
2303.622445301904
 21
599.61712961630383
  0
LINE
  8
_0-0_90_FRAME
  6
CONTINUOUS
 62
    4
 10
2303.622445301904
 20
599.61712961630383
 11
2305.9278757258962
 21
599.61712961630383
  0
LINE
  8
_0-0_90_FRAME
  6
CONTINUOUS
 62
    4
 10
2305.9278757258962
 20
599.61712961630383
 11
2305.9257528218241
 21
608.58269237626791
  0
LINE
  8
_0-0_90_FRAME
  6
CONTINUOUS
 62
    4
 10
2303.622445301904
 20
612.42507641625252
 11
2306.9677758166454
 21
612.42507641625252
  0
LINE
  8
_0-0_90_FRAME
  6
CONTINUOUS
 62
    4
 10
2314.1270845819326
 20
608.58269237626791
 11
2314.1270845819326
 21
599.61712961630383
  0
LINE
  8
_0-0_90_FRAME
  6
CONTINUOUS
 62
    4
 10
2314.1270845819326
 20
599.61712961630383
 11
2316.4325150059212
 21
599.61712961630383
  0
LINE
  8
_0-0_90_FRAME
  6
CONTINUOUS
 62
    4
 10
2316.4325150059212
 20
599.61712961630383
 11
2316.4325150059212
 21
612.42507641625252
  0
LINE
  8
_0-0_90_FRAME
  6
CONTINUOUS
 62
    4
 10
2308.8737034898859
 20
599.61712961630383
 11
2311.1791339138745
 21
599.61712961630383
  0
LINE
  8
_0-0_90_FRAME
  6
CONTINUOUS
 62
    4
 10
2316.4325150059212
 20
612.42507641625252
 11
2313.0850615871113
 21
612.42507641625252
  0
LINE
  8
_0-0_90_FRAME
  6
CONTINUOUS
 62
    4
 10
2311.1791339138745
 20
599.61712961630383
 11
2314.1270845819326
 21
608.58269237626791
  0
LINE
  8
_0-0_90_FRAME
  6
CONTINUOUS
 62
    4
 10
2308.8737034898859
 20
599.61712961630383
 11
2305.9257528218241
 21
608.58269237626791
  0
LINE
  8
_0-0_90_FRAME
  6
CONTINUOUS
 62
    4
 10
2310.0264187018784
 20
603.1228669033909
 11
2313.0850615871113
 21
612.42507641625252
  0
LINE
  8
_0-0_90_FRAME
  6
CONTINUOUS
 62
    4
 10
2310.0264187018784
 20
603.1228669033909
 11
2306.9677758166454
 21
612.42507641625252
  0
TEXT
  8
_0-0_90_FRAME
 62
    2
 10
2331.5338815764926
 20
622.64864147129879
 40
15.121542857081758
 41
1
 50
0
  1
ŖöÄ«ē’Äą
  0
LINE
  8
_0-0_90_FRAME
  6
CONTINUOUS
 62
   18
 10
2377.5676619858114
 20
654.08423141667572
 11
2377.5676619858114
 21
724.79851713067819
  0
TEXT
  8
_0-0_90_FRAME
 62
    7
 10
2509.5492428408352
 20
599.33470277291474
 40
20
 41
1
 50
0
  1
Äøōc
  0
TEXT
  8
_0-0_90_FRAME
 62
    7
 10
2406.7349571269974
 20
671.05718283063663
 40
20
 41
1
 50
0
  1
1üF4
  0
TEXT
  8
_0-0_90_FRAME
 62
    7
 10
2585.9145492922521
 20
711.10687649483509
 40
10
 41
1
 50
0
  1
ŗ@ŖĒ
  0
LINE
  8
_0-0_90_FRAME
  6
CONTINUOUS
 62
   18
 10
2734.2438357107658
 20
724.79851713067819
 11
2734.2438357107658
 21
622.96994570251718
  0
TEXT
  8
_0-0_90_FRAME
 62
    7
 10
2736.9621515895324
 20
711.10687649483509
 40
10
 41
1
 50
0
  1
ĢöĢi¢╝
  0
TEXT
  8
_0-0_90_FRAME
 62
    7
 10
2736.9621515895283
 20
654.035447923633
 40
10
 41
1
 50
0
  1
É}¢╩öįŹå
  0
LINE
  8
_0-0_90_FRAME
  6
CONTINUOUS
 62
   18
 10
2583.1962334134932
 20
673.8842314165986
 11
2734.2438357107658
 21
673.8842314165986
  0
TEXT
  8
_0-0_90_FRAME
 62
    7
 10
2585.9145492922521
 20
659.69259078075549
 40
10
 41
1
 50
0
  1
ī^Ä«
  0
LINE
  8
_0-0_90_FRAME
  6
CONTINUOUS
 62
   18
 10
845.81146084682939
 20
577.71280284555814
 11
1253.8114608432595
 21
577.71280284555814
  0
LINE
  8
_0-0_90_FRAME
  6
CONTINUOUS
 62
   18
 10
1253.8114608432595
 20
577.71280284555814
 11
1253.8114608432595
 21
690.85565998795482
  0
LINE
  8
_0-0_90_FRAME
  6
CONTINUOUS
 62
   18
 10
1253.8114608432595
 20
690.85565998795482
 11
845.81146084682939
 21
690.85565998795482
  0
LINE
  8
_0-0_90_FRAME
  6
CONTINUOUS
 62
   18
 10
845.81146084682939
 20
690.85565998795482
 11
845.81146084682939
 21
577.71280284555814
  0
LINE
  8
_0-0_90_FRAME
  6
CONTINUOUS
 62
   18
 10
1197.8114608432595
 20
577.71280284555814
 11
1197.8114608432595
 21
690.85565998795482
  0
LINE
  8
_0-0_90_FRAME
  6
CONTINUOUS
 62
   18
 10
901.81146084325951
 20
577.71280284555814
 11
901.81146084325951
 21
690.85565998795482
  0
LINE
  8
_0-0_90_FRAME
  6
CONTINUOUS
 62
   18
 10
965.81146084325951
 20
577.71280284555814
 11
965.81146084325951
 21
690.85565998795482
  0
LINE
  8
_0-0_90_FRAME
  6
CONTINUOUS
 62
   18
 10
845.81146084682939
 20
662.56994570236111
 11
1253.8114608432595
 21
662.56994570236122
  0
LINE
  8
_0-0_90_FRAME
  6
CONTINUOUS
 62
   18
 10
845.81146084682939
 20
634.28423141675285
 11
1253.8114608432595
 21
634.28423141675285
  0
LINE
  8
_0-0_90_FRAME
  6
CONTINUOUS
 62
   18
 10
845.81146084682939
 20
605.99851713115913
 11
1253.8114608432595
 21
605.99851713115925
  0
TEXT
  8
_0-0_90_FRAME
 62
    7
 10
859.847824481408
 20
671.9128028451579
 40
9.5999999999999979
 41
1
 50
0
  1
ŗLŹå
  0
TEXT
  8
_0-0_90_FRAME
 62
    7
 10
918.47391936629231
 20
671.9128028451579
 40
9.5999999999999979
 41
1
 50
0
  1
ō·Ģt
  0
TEXT
  8
_0-0_90_FRAME
 62
    7
 10
1204.8660062978049
 20
671.9128028451579
 40
9.5999999999999979
 41
1
 50
0
  1
ŹņÉ¼Äę
  0
TEXT
  8
_0-0_90_FRAME
 62
    7
 10
1049.8841881159869
 20
671.74916648152157
 40
9.5999999999999979
 41
1
 50
0
  1
ē³Æ∙ōÓŚe
  0
LINE
  8
_0-0_90_FRAME
  6
CONTINUOUS
 62
   18
 10
861.08288941651995
 20
609.00274905056995
 11
873.81146084504439
 21
631.04928147253224
  0
LINE
  8
_0-0_90_FRAME
  6
CONTINUOUS
 62
   18
 10
873.81146084504439
 20
631.04928147253224
 11
886.54003227356168
 21
609.00274905056995
  0
LINE
  8
_0-0_90_FRAME
  6
CONTINUOUS
 62
   18
 10
886.54003227356168
 20
609.00274905056995
 11
861.08288941651995
 21
609.00274905056995
  0
TEXT
  8
_0-0_90_FRAME
 62
    7
 10
871.05468056949348
 20
641.39873467996301
 40
8.4857142856800003
 41
1
 50
0
  1
1
  0
TEXT
  8
_0-0_90_FRAME
 62
    7
 10
871.05468056949348
 20
613.11302039436214
 40
8.4857142856800003
 41
1
 50
0
  1
2
  0
TEXT
  8
_0-0_90_FRAME
 62
    7
 10
871.05468056949348
 20
584.82730610876104
 40
8.4857142856800003
 41
1
 50
0
  1
3
  0
LINE
  8
_0-0_90_FRAME
  6
CONTINUOUS
 62
   18
 10
861.08288941651995
 20
637.28846333617093
 11
873.81146084504439
 21
659.33499575814039
  0
LINE
  8
_0-0_90_FRAME
  6
CONTINUOUS
 62
   18
 10
873.81146084504439
 20
659.33499575814039
 11
886.54003227356168
 21
637.28846333617093
  0
LINE
  8
_0-0_90_FRAME
  6
CONTINUOUS
 62
   18
 10
886.54003227356168
 20
637.28846333617093
 11
861.08288941651995
 21
637.28846333617093
  0
LINE
  8
_0-0_90_FRAME
  6
CONTINUOUS
 62
   18
 10
861.08288941651995
 20
580.71703476496896
 11
873.81146084504439
 21
602.76356718693842
  0
LINE
  8
_0-0_90_FRAME
  6
CONTINUOUS
 62
   18
 10
873.81146084504439
 20
602.76356718693842
 11
886.54003227356168
 21
580.71703476496896
  0
LINE
  8
_0-0_90_FRAME
  6
CONTINUOUS
 62
   18
 10
886.54003227356168
 20
580.71703476496896
 11
861.08288941651995
 21
580.71703476496896
  0
LINE
  8
_0-0_90_FRAME
  6
CONTINUOUS
 62
    4
 10
2445.881952949645
 20
836.79851412218147
 11
2445.881952949645
 21
724.79851713067819
  0
LINE
  8
_0-0_90_FRAME
  6
CONTINUOUS
 62
    4
 10
2734.2438357107658
 20
836.79851412218159
 11
2734.2438357107658
 21
724.79851713067819
  0
LINE
  8
_0-0_90_FRAME
  6
CONTINUOUS
 62
    4
 10
2844.0202871686938
 20
836.79851412218159
 11
2844.0202871687097
 21
724.79851713067819
  0
LINE
  8
_0-0_90_FRAME
  6
CONTINUOUS
 62
    4
 10
2816.0202906686923
 20
836.79851412218159
 11
2816.0202906687073
 21
724.79851713067819
  0
LINE
  8
_0-0_90_FRAME
  6
CONTINUOUS
 62
    4
 10
2487.8819476996523
 20
836.79851412218159
 11
2487.8819476996523
 21
724.79851713067819
  0
LINE
  8
_0-0_90_FRAME
  6
CONTINUOUS
 62
    4
 10
2886.0202819187034
 20
836.79851412218159
 11
2886.0202819187034
 21
724.79851713067819
  0
LINE
  8
_0-2_08_DIM
  6
CONTINUOUS
 62
    3
 10
1152.3678126538944
 20
1971.9937883587236
 11
1337.4262027607181
 21
1971.9937883587236
  0
INSERT
  2
-004-p1ba01
  8
_0-2_08_DIM
 10
1244.1656865360724
 20
1976.7626610113632
 41
6
 42
6
 50
0
  0
INSERT
  2
-005-p1ba02
  8
_0-2_08_DIM
 10
1273.9112228894696
 20
1976.6674380673874
 41
6
 42
6
 50
0
  0
TEXT
  8
_0-3_07_TEXT
 62
    3
 10
1212.3922438118261
 20
1976.3111896788396
 40
18
 41
1
 50
0
  1
(        )
  0
TEXT
  8
_0-0_90_FRAME
 62
    3
 10
2827.4771590160158
 20
759.48921475317479
 40
12
 41
1
 50
0
  1
1
  0
TEXT
  8
_0-0_90_FRAME
 62
    3
 10
2741.5248673833826
 20
767.96474604102298
 40
8
 41
1
 50
0
  1
SS400
  0
TEXT
  8
_0-0_90_FRAME
 62
    3
 10
2507.3894817216315
 20
759.59671044644335
 40
12
 41
1
 50
0
  1
āVāŖāōā_ü[
  0
TEXT
  8
_0-0_90_FRAME
 62
    3
 10
2456.8516499275725
 20
759.28801771440328
 40
12
 41
1
 50
0
  1
20
  0
TEXT
  8
_0-0_90_FRAME
 62
    3
 10
2853.167048546783
 20
739.16997972590809
 40
10
 41
1
 50
0
  1
ÅdŚ╩
  0
TEXT
  8
_0-0_90_FRAME
 62
    3
 10
2752.9175834164316
 20
732.71578808841491
 40
12
 41
1
 50
0
  1
Ź▐ü@Ä┐
  0
TEXT
  8
_0-0_90_FRAME
 62
    3
 10
2817.4908591192825
 20
732.625600376634
 40
12
 41
1
 50
0
  1
ÉöŚ╩
  0
TEXT
  8
_0-0_90_FRAME
 62
    3
 10
2857.5869076085
 20
729.38528153675929
 40
8
 41
1
 50
0
  1
kg
  0
TEXT
  8
_0-0_90_FRAME
 62
    3
 10
2939.5420194490757
 20
732.42440333783941
 40
12
 41
1
 50
0
  1
ö§  Źl
  0
TEXT
  8
_0-0_90_FRAME
 62
    3
 10
2454.4339313278201
 20
732.42440333783941
 40
12
 41
1
 50
0
  1
ĢäŹå
  0
TEXT
  8
_0-0_90_FRAME
 62
    3
 10
2556.162787726777
 20
732.85995883895282
 40
12
 41
1
 50
0
  1
Ģöü@ü@Ģiü@ü@¢╝
  0
LINE
  8
_0-0_90_FRAME
  6
CONTINUOUS
 62
    4
 10
2445.8819298434119
 20
836.79851412218147
 11
3050.7676388768618
 21
836.79851412218147
  0
LINE
  8
_0-0_90_FRAME
  6
CONTINUOUS
 62
    4
 10
2445.8819298434119
 20
808.79851262704722
 11
3050.7676388768618
 21
808.79851262704722
  0
LINE
  8
_0-0_90_FRAME
  6
CONTINUOUS
 62
    4
 10
2445.8819298434119
 20
780.79851412218159
 11
3050.7676388768618
 21
780.79851412218159
  0
LINE
  8
_0-0_90_FRAME
  6
CONTINUOUS
 62
    4
 10
2445.8819298434119
 20
752.79851412218159
 11
3050.7676388768618
 21
752.79851412218159
  0
TEXT
  8
_0-0_90_FRAME
 62
    7
 10
2830.976437903822
 20
687.95526325959531
 40
16
 41
1
 50
0
  1
āvāīāXŗ@ ĢöĢiÉ}
  0
TEXT
  8
_0-0_90_FRAME
 62
    7
 10
2592.9594006727975
 20
687.38115294173804
 40
12.800000000000001
 41
0.9000000000000001
 50
0
  1
ŚLŗ@É½ēśōDöRŚ┐Ä{É▌
  0
LINE
  8
_0-4_05_CENTER
  6
CENTER2
 62
    4
 10
1524.0400462894424
 20
957.56994570393272
 11
2074.04004628947
 21
957.56994570393272
  0
LINE
  8
_0-4_05_CENTER
  6
CENTER2
 62
    4
 10
2074.04004628947
 20
957.56994570393272
 11
2074.04004628947
 21
707.56994570392908
  0
LINE
  8
_0-4_05_CENTER
  6
CENTER2
 62
    4
 10
2074.04004628947
 20
707.56994570392908
 11
1524.0400462894424
 21
707.56994570392908
  0
LINE
  8
_0-4_05_CENTER
  6
CENTER2
 62
    4
 10
1524.0400462894424
 20
707.56994570392908
 11
1524.0400462894424
 21
957.56994570393272
  0
INSERT
  2
-005-p1ba02
  8
_0-2_08_DIM
 10
1881.0400462895625
 20
1232.7546318424236
 41
4
 42
4
 50
89.999999999999986
  0
INSERT
  2
-005-p1ba02
  8
_0-2_08_DIM
 10
1881.0400462895625
 20
1232.7546318424236
 41
-4
 42
4
 50
270
  0
INSERT
  2
-005-p1ba02
  8
_0-2_08_DIM
 10
1603.0400462895625
 20
1229.9934777080905
 41
-4
 42
4
 50
270
  0
INSERT
  2
-004-p1ba01
  8
_0-2_08_DIM
 10
1938.0400462932841
 20
1208.673193052774
 41
4
 42
4
 50
90
  0
INSERT
  2
-000-Weld-line
  8
_0-2_08_DIM
 10
1661.3744695931005
 20
1395.5749442335039
 41
68
 42
68
 50
180
  0
LINE
  8
_0-5_0
  6
CONTINUOUS
 62
    3
 10
1625.3744695931005
 20
1395.5749442335039
 11
1645.3744695931007
 21
1375.5749442335039
  0
LINE
  8
_0-5_0
  6
CONTINUOUS
 62
    3
 10
1625.3744695931005
 20
1375.5749442335039
 11
1625.3744695931005
 21
1395.5749442335039
  0
LINE
  8
_0-5_0
  6
CONTINUOUS
 62
    3
 10
1625.3744695931005
 20
1395.5749442335039
 11
1625.3744695931005
 21
1339.5749442335041
  0
LINE
  8
_0-5_0
  6
CONTINUOUS
 62
    3
 10
1625.3744695931005
 20
1359.5749442335039
 11
1645.3744695931007
 21
1359.5749442335039
  0
LINE
  8
_0-5_0
  6
CONTINUOUS
 62
    3
 10
1645.3744695931007
 20
1359.5749442335039
 11
1625.3744695931005
 21
1339.5749442335041
  0
CIRCLE
  8
_0-5_0
  6
CONTINUOUS
 62
    3
 10
1661.3744695931005
 20
1395.5749442335039
 40
8
  0
TEXT
  8
_0-2_08_DIM
 62
    3
 10
1612.127425948863
 20
1378.4906933995323
 40
12
 41
1
 50
0
  1
5
  0
TEXT
  8
_0-2_08_DIM
 62
    3
 10
1629.1041085287045
 20
1375.4242306013214
 40
8
 41
1
 50
0
  1
0
  0
TEXT
  8
_0-2_08_DIM
 62
    3
 10
1628.9357114633378
 20
1363.6433016753001
 40
8
 41
1
 50
0
  1
45üŗ
  0
LINE
  8
_0-5_0
  6
CONTINUOUS
 62
    3
 10
1645.2243170790148
 20
1353.5380713281893
 11
1631.4086807143219
 21
1339.7224349634969
  0
TEXT
  8
_0-2_08_DIM
 62
    3
 10
1639.5504699563292
 20
1337.9453778974462
 40
8
 41
1
 50
0
  1
M
  0
INSERT
  2
-006-p1ba05
  8
_0-2_08_DIM
 10
1193.5447473467555
 20
1976.6674380673874
 41
6
 42
6
 50
0
  0
INSERT
  2
-005-p1ba02
  8
_0-2_08_DIM
 10
1862.0400462967802
 20
1547.6636790856894
 41
4.0000000000000018
 42
4.0000000000000018
 50
89.999999999999986
  0
INSERT
  2
-004-p1ba01
  8
_0-2_08_DIM
 10
1886.0400462895625
 20
1619.654794036438
 41
4.0000000000000018
 42
4.0000000000000018
 50
270
  0
ARC
  8
_0-5_0
  6
CONTINUOUS
 62
   18
 10
1799.0400612932347
 20
1910.7531843065804
 40
70.000000022918357
 50
214.03724415750941
 51
325.96275584249349
  0
LINE
  8
_0-6_04_HIDDEN
  6
CONTINUOUS
 62
    7
 10
1519.0400462931711
 20
1265.7531842970991
 11
1519.0400462931711
 21
1285.7531842971139
  0
LINE
  8
_0-6_04_HIDDEN
  6
CONTINUOUS
 62
    7
 10
1520.0400462931714
 20
1265.7531842970991
 11
1520.0400462931714
 21
1292.7531842971209
  0
LINE
  8
_0-6_04_HIDDEN
  6
CONTINUOUS
 62
    7
 10
1528.0400462931568
 20
1292.7531842971209
 11
1524.0400462931714
 21
1295.0621842971184
  0
LINE
  8
_0-6_04_HIDDEN
  6
CONTINUOUS
 62
    7
 10
1529.0400462931714
 20
1265.7531842970991
 11
1529.0400462931714
 21
1285.7531842971139
  0
LINE
  8
_0-4_05_CENTER
  6
CENTER2
 62
    4
 10
1524.0400462931714
 20
1262.3654091495364
 11
1524.0400462931714
 21
1297.8581842970987
  0
LINE
  8
_0-6_04_HIDDEN
  6
CONTINUOUS
 62
    7
 10
1528.0400462931568
 20
1265.7531842970991
 11
1528.0400462931568
 21
1292.7531842971209
  0
LINE
  8
_0-6_04_HIDDEN
  6
CONTINUOUS
 62
    7
 10
1519.0400462931711
 20
1285.7531842971139
 11
1529.0400462931714
 21
1285.7531842971139
  0
LINE
  8
_0-6_04_HIDDEN
  6
CONTINUOUS
 62
    7
 10
1520.0400462931714
 20
1292.7531842971209
 11
1528.0400462931568
 21
1292.7531842971209
  0
LINE
  8
_0-6_04_HIDDEN
  6
CONTINUOUS
 62
    7
 10
1524.0400462931714
 20
1295.0621842971184
 11
1520.0400462931714
 21
1292.7531842971209
  0
LINE
  8
_0-6_04_HIDDEN
  6
CONTINUOUS
 62
    7
 10
1731.0400462895625
 20
1750.7531842880933
 11
1731.917312611454
 21
1751.5719661885237
  0
LINE
  8
_0-5_0
  6
CONTINUOUS
 62
   18
 10
1619.917312611454
 20
1871.5719661885255
 11
1619.0400462895625
 21
1870.7531842880933
  0
LINE
  8
_0-5_0
  6
CONTINUOUS
 62
   18
 10
1619.0400462895625
 20
1870.7531842880933
 11
1731.0400462895625
 21
1750.7531842880933
  0
LINE
  8
_0-6_04_HIDDEN
  6
CONTINUOUS
 62
    7
 10
1619.917312611454
 20
1871.5719661885255
 11
1731.917312611454
 21
1751.5719661885246
  0
LINE
  8
_0-5_0
  6
CONTINUOUS
 62
   18
 10
1979.0400462967802
 20
1870.7531842880933
 11
1856.4856877736704
 21
1870.7531842880933
  0
ARC
  8
_0-5_0
  6
CONTINUOUS
 62
    3
 10
1731.0400462896023
 20
1750.7531842881042
 40
1.0296327230389579
 50
0.0000000006073257
 51
43.025065990123167
  0
LINE
  8
_0-4_05_CENTER
  6
CENTER2
 62
    9
 10
1974.0400462895625
 20
1327.2015891060644
 11
1974.0400462895625
 21
1259.3047794705587
  0
LINE
  8
_0-6_04_HIDDEN
  6
CONTINUOUS
 62
    9
 10
1995.0400462895552
 20
1320.75318428831
 11
1995.0400462895552
 21
1265.7531842923679
  0
LINE
  8
_0-6_04_HIDDEN
  6
CONTINUOUS
 62
    9
 10
1953.0400462895661
 20
1320.75318428831
 11
1953.0400462895661
 21
1265.7531842923679
  0
LINE
  8
_0-4_05_CENTER
  6
CENTER2
 62
    9
 10
1624.0400462895623
 20
1327.2015891060644
 11
1624.0400462895623
 21
1259.3047794705587
  0
LINE
  8
_0-6_04_HIDDEN
  6
CONTINUOUS
 62
    9
 10
1603.0400462895661
 20
1320.75318428831
 11
1603.0400462895661
 21
1265.7531842923679
  0
LINE
  8
_0-6_04_HIDDEN
  6
CONTINUOUS
 62
    9
 10
1645.0400462895589
 20
1320.75318428831
 11
1645.0400462895589
 21
1265.7531842923679
  0
LINE
  8
_0-5_0
  6
CONTINUOUS
 62
   18
 10
1499.0400462931714
 20
1320.7531842923681
 11
2099.0400462931711
 21
1320.7531842923681
  0
LINE
  8
_0-5_0
  6
CONTINUOUS
 62
   18
 10
2099.0400462931711
 20
1320.7531842923681
 11
2099.0400462931711
 21
1265.7531842923679
  0
LINE
  8
_0-5_0
  6
CONTINUOUS
 62
   18
 10
2099.0400462931711
 20
1265.7531842923679
 11
1499.0400462931714
 21
1265.7531842923679
  0
LINE
  8
_0-5_0
  6
CONTINUOUS
 62
   18
 10
1499.0400462931714
 20
1265.7531842923679
 11
1499.0400462931714
 21
1320.7531842923681
  0
LINE
  8
_0-5_0
  6
CONTINUOUS
 62
   18
 10
1712.0400462895623
 20
1320.7531842923681
 11
1886.0400462895623
 21
1320.7531842923681
  0
LINE
  8
_0-5_0
  6
CONTINUOUS
 62
   18
 10
1886.0400462895623
 20
1320.7531842923681
 11
1886.0400462895623
 21
1748.7531842880933
  0
LINE
  8
_0-5_0
  6
CONTINUOUS
 62
   18
 10
1886.0400462895623
 20
1748.7531842880933
 11
1884.0400462895625
 21
1750.7531842880933
  0
LINE
  8
_0-5_0
  6
CONTINUOUS
 62
   18
 10
1884.0400462895625
 20
1750.7531842880933
 11
1714.0400462895625
 21
1750.7531842880933
  0
LINE
  8
_0-5_0
  6
CONTINUOUS
 62
   18
 10
1714.0400462895625
 20
1750.7531842880933
 11
1712.0400462895623
 21
1748.7531842880933
  0
LINE
  8
_0-5_0
  6
CONTINUOUS
 62
   18
 10
1712.0400462895623
 20
1748.7531842880933
 11
1712.0400462895623
 21
1320.7531842923681
  0
LINE
  8
_0-4_05_CENTER
  6
CENTER2
 62
    4
 10
1799.0400462931714
 20
1252.0662727481001
 11
1799.0400462931714
 21
1917.9986475323863
  0
LINE
  8
_0-6_04_HIDDEN
  6
CONTINUOUS
 62
    7
 10
1736.0400462895625
 20
1745.7531842880931
 11
1736.0400462895625
 21
1270.7531842935557
  0
LINE
  8
_0-6_04_HIDDEN
  6
CONTINUOUS
 62
    7
 10
1881.0400462895625
 20
1320.7531842923681
 11
1881.0400462895625
 21
1270.7531842905619
  0
LINE
  8
_0-5_0
  6
CONTINUOUS
 62
    3
 10
1886.0400462895623
 20
1320.7531842923681
 11
1890.0400462895625
 21
1320.7531842923681
  0
LINE
  8
_0-5_0
  6
CONTINUOUS
 62
    3
 10
1890.0400462895625
 20
1320.7531842923681
 11
1886.0400462895623
 21
1324.7531842923679
  0
LINE
  8
_0-5_0
  6
CONTINUOUS
 62
    3
 10
1886.0400462895623
 20
1324.7531842923679
 11
1886.0400462895623
 21
1320.7531842923681
  0
LINE
  8
_0-6_04_HIDDEN
  6
CONTINUOUS
 62
    7
 10
1717.0400462970058
 20
1320.7531842923681
 11
1717.0400462970058
 21
1270.7531842905619
  0
LINE
  8
_0-5_0
  6
CONTINUOUS
 62
    3
 10
1712.0400462970056
 20
1320.7531842923681
 11
1708.0400462970058
 21
1320.7531842923681
  0
LINE
  8
_0-5_0
  6
CONTINUOUS
 62
    3
 10
1708.0400462970058
 20
1320.7531842923681
 11
1712.0400462970056
 21
1324.7531842923679
  0
LINE
  8
_0-5_0
  6
CONTINUOUS
 62
    3
 10
1712.0400462970056
 20
1324.7531842923679
 11
1712.0400462970056
 21
1320.7531842923681
  0
LINE
  8
_0-5_0
  6
CONTINUOUS
 62
    3
 10
1713.0400462970058
 20
1270.7531842905619
 11
1721.0400462970058
 21
1270.7531842905619
  0
LINE
  8
_0-5_0
  6
CONTINUOUS
 62
    3
 10
1721.0400462970058
 20
1270.7531842905619
 11
1717.0400462970058
 21
1274.7531842905616
  0
LINE
  8
_0-5_0
  6
CONTINUOUS
 62
    3
 10
1717.0400462970058
 20
1274.7531842905616
 11
1713.0400462970058
 21
1270.7531842905619
  0
LINE
  8
_0-6_04_HIDDEN
  6
CONTINUOUS
 62
    7
 10
1862.0400462967802
 20
1745.7531842880931
 11
1736.0400462895625
 21
1745.7531842880931
  0
LINE
  8
_0-6_04_HIDDEN
  6
CONTINUOUS
 62
    7
 10
1736.0400462895625
 20
1745.7531842880931
 11
1733.1532949436144
 21
1750.7531842880933
  0
LINE
  8
_0-5_0
  6
CONTINUOUS
 62
   18
 10
1886.0400462895623
 20
1748.7531842880933
 11
1712.0400462895623
 21
1748.7531842880933
  0
LINE
  8
_0-4_05_CENTER
  6
CENTER2
 62
    4
 10
1916.0400462895623
 20
1259.4525264083811
 11
1916.0400462895623
 21
1331.6564739131034
  0
LINE
  8
_0-4_05_CENTER
  6
CENTER2
 62
    4
 10
1682.0400462858408
 20
1259.4525264083811
 11
1682.0400462858408
 21
1331.6564739131034
  0
LINE
  8
_0-5_0
  6
CONTINUOUS
 62
    3
 10
1885.0400462895623
 20
1270.7531842905619
 11
1877.0400462895623
 21
1270.7531842905619
  0
LINE
  8
_0-5_0
  6
CONTINUOUS
 62
    3
 10
1877.0400462895623
 20
1270.7531842905619
 11
1881.0400462895625
 21
1274.7531842905616
  0
LINE
  8
_0-5_0
  6
CONTINUOUS
 62
    3
 10
1881.0400462895625
 20
1274.7531842905616
 11
1885.0400462895623
 21
1270.7531842905619
  0
LINE
  8
_0-6_04_HIDDEN
  6
CONTINUOUS
 62
    7
 10
1660.0400462895623
 20
1265.7531842923679
 11
1660.0400462895623
 21
1270.7531842905619
  0
LINE
  8
_0-6_04_HIDDEN
  6
CONTINUOUS
 62
    7
 10
1660.0400462895623
 20
1270.7531842905619
 11
1938.0400462932841
 21
1270.7531842905619
  0
LINE
  8
_0-6_04_HIDDEN
  6
CONTINUOUS
 62
    7
 10
1938.0400462932841
 20
1270.7531842905619
 11
1938.0400462932841
 21
1265.7531842923679
  0
LINE
  8
_0-6_04_HIDDEN
  6
CONTINUOUS
 62
    7
 10
2079.0400462931711
 20
1265.7531842970991
 11
2079.0400462931711
 21
1285.7531842971139
  0
LINE
  8
_0-6_04_HIDDEN
  6
CONTINUOUS
 62
    7
 10
2078.0400462931716
 20
1265.7531842970991
 11
2078.0400462931716
 21
1292.7531842971209
  0
LINE
  8
_0-6_04_HIDDEN
  6
CONTINUOUS
 62
    7
 10
2070.0400462931857
 20
1292.7531842971209
 11
2074.0400462931716
 21
1295.0621842971184
  0
LINE
  8
_0-6_04_HIDDEN
  6
CONTINUOUS
 62
    7
 10
2069.0400462931711
 20
1265.7531842970991
 11
2069.0400462931711
 21
1285.7531842971139
  0
LINE
  8
_0-4_05_CENTER
  6
CENTER2
 62
    4
 10
2074.0400462931716
 20
1262.3654091495364
 11
2074.0400462931716
 21
1297.8581842970987
  0
LINE
  8
_0-6_04_HIDDEN
  6
CONTINUOUS
 62
    7
 10
2070.0400462931857
 20
1265.7531842970991
 11
2070.0400462931857
 21
1292.7531842971209
  0
LINE
  8
_0-6_04_HIDDEN
  6
CONTINUOUS
 62
    7
 10
2079.0400462931711
 20
1285.7531842971139
 11
2069.0400462931711
 21
1285.7531842971139
  0
LINE
  8
_0-6_04_HIDDEN
  6
CONTINUOUS
 62
    7
 10
2078.0400462931716
 20
1292.7531842971209
 11
2070.0400462931857
 21
1292.7531842971209
  0
LINE
  8
_0-6_04_HIDDEN
  6
CONTINUOUS
 62
    7
 10
2074.0400462931716
 20
1295.0621842971184
 11
2078.0400462931716
 21
1292.7531842971209
  0
LINE
  8
_0-5_0
  6
CONTINUOUS
 62
   18
 10
1978.1627799748887
 20
1871.5719661885255
 11
1857.0472345565097
 21
1871.5719661885255
  0
LINE
  8
_0-6_04_HIDDEN
  6
CONTINUOUS
 62
    7
 10
1867.0400462967802
 20
1750.7531842880933
 11
1866.1627799748885
 21
1751.5719661885237
  0
LINE
  8
_0-5_0
  6
CONTINUOUS
 62
   18
 10
1978.1627799748887
 20
1871.5719661885255
 11
1979.0400462967802
 21
1870.7531842880933
  0
LINE
  8
_0-5_0
  6
CONTINUOUS
 62
   18
 10
1979.0400462967802
 20
1870.7531842880933
 11
1867.0400462967802
 21
1750.7531842880933
  0
LINE
  8
_0-6_04_HIDDEN
  6
CONTINUOUS
 62
    7
 10
1978.1627799748887
 20
1871.5719661885255
 11
1866.1627799748885
 21
1751.5719661885246
  0
ARC
  8
_0-5_0
  6
CONTINUOUS
 62
    3
 10
1867.0400462967402
 20
1750.7531842881042
 40
1.0296327230389579
 50
136.97493400988117
 51
179.99999999939268
  0
LINE
  8
_0-6_04_HIDDEN
  6
CONTINUOUS
 62
    7
 10
1862.0400462967802
 20
1745.7531842880931
 11
1862.0400462967802
 21
1270.7531842935557
  0
LINE
  8
_0-6_04_HIDDEN
  6
CONTINUOUS
 62
    7
 10
1862.0400462967802
 20
1745.7531842880931
 11
1864.9267976427284
 21
1750.7531842880933
  0
LINE
  8
_0-4_05_CENTER
  6
CENTER2
 62
    4
 10
1793.4417673016351
 20
1910.7531842836638
 11
1804.6383252847072
 21
1910.7531842836638
  0
LINE
  8
_0-4_05_CENTER
  6
CENTER2
 62
    4
 10
2476.3256416085269
 20
1259.4525264083811
 11
2476.3256416085269
 21
1331.6564739131034
  0
LINE
  8
_0-4_05_CENTER
  6
CENTER2
 62
    4
 10
2710.3256416122485
 20
1259.4525264083811
 11
2710.3256416122485
 21
1331.6564739131034
  0
LINE
  8
_0-6_04_HIDDEN
  6
CONTINUOUS
 62
    7
 10
2732.3256416085269
 20
1265.7531842923679
 11
2732.3256416085269
 21
1270.7531842905619
  0
LINE
  8
_0-6_04_HIDDEN
  6
CONTINUOUS
 62
    7
 10
2732.3256416085269
 20
1270.7531842905619
 11
2454.3256416048052
 21
1270.7531842905619
  0
LINE
  8
_0-6_04_HIDDEN
  6
CONTINUOUS
 62
    7
 10
2454.3256416048052
 20
1270.7531842905619
 11
2454.3256416048052
 21
1265.7531842923679
  0
LINE
  8
_0-6_04_HIDDEN
  6
CONTINUOUS
 62
    7
 10
2661.3256416055879
 20
1750.7531842880933
 11
2660.4483752836959
 21
1751.5719661885237
  0
LINE
  8
_0-5_0
  6
CONTINUOUS
 62
   18
 10
2772.4483752836959
 20
1871.5719661885255
 11
2773.3256416055874
 21
1870.7531842880933
  0
LINE
  8
_0-5_0
  6
CONTINUOUS
 62
   18
 10
2773.3256416055874
 20
1870.7531842880933
 11
2661.3256416055879
 21
1750.7531842880933
  0
LINE
  8
_0-6_04_HIDDEN
  6
CONTINUOUS
 62
    7
 10
2772.4483752836959
 20
1871.5719661885255
 11
2660.4483752836959
 21
1751.5719661885246
  0
LINE
  8
_0-5_0
  6
CONTINUOUS
 62
   18
 10
2425.5856416019788
 20
1870.7531842880933
 11
2773.3256416055874
 21
1870.7531842880933
  0
ARC
  8
_0-5_0
  6
CONTINUOUS
 62
    3
 10
2661.3256416055478
 20
1750.7531842881042
 40
1.0296327230389579
 50
136.97493400987253
 51
179.99999999939268
  0
LINE
  8
_0-5_0
  6
CONTINUOUS
 62
   18
 10
2680.3256416055879
 20
1320.7531842923681
 11
2506.3256416055879
 21
1320.7531842923681
  0
LINE
  8
_0-5_0
  6
CONTINUOUS
 62
   18
 10
2506.3256416055879
 20
1320.7531842923681
 11
2506.3256416055879
 21
1748.7531842880933
  0
LINE
  8
_0-5_0
  6
CONTINUOUS
 62
   18
 10
2506.3256416055879
 20
1748.7531842880933
 11
2508.3256416055879
 21
1750.7531842880933
  0
LINE
  8
_0-5_0
  6
CONTINUOUS
 62
   18
 10
2508.3256416055879
 20
1750.7531842880933
 11
2678.3256416055879
 21
1750.7531842880933
  0
LINE
  8
_0-5_0
  6
CONTINUOUS
 62
   18
 10
2678.3256416055879
 20
1750.7531842880933
 11
2680.3256416055879
 21
1748.7531842880933
  0
LINE
  8
_0-5_0
  6
CONTINUOUS
 62
   18
 10
2680.3256416055879
 20
1748.7531842880933
 11
2680.3256416055879
 21
1320.7531842923681
  0
LINE
  8
_0-4_05_CENTER
  6
CENTER2
 62
    4
 10
2593.325641601979
 20
1252.0662727481001
 11
2593.325641601979
 21
1884.157202057914
  0
LINE
  8
_0-6_04_HIDDEN
  6
CONTINUOUS
 62
    7
 10
2656.3256416055874
 20
1745.7531842880931
 11
2656.3256416055874
 21
1270.7531842935557
  0
LINE
  8
_0-6_04_HIDDEN
  6
CONTINUOUS
 62
    7
 10
2511.3256416055874
 20
1320.7531842923681
 11
2511.3256416055874
 21
1270.7531842905619
  0
LINE
  8
_0-5_0
  6
CONTINUOUS
 62
    3
 10
2506.3256416055879
 20
1320.7531842923681
 11
2502.3256416055874
 21
1320.7531842923681
  0
LINE
  8
_0-5_0
  6
CONTINUOUS
 62
    3
 10
2502.3256416055874
 20
1320.7531842923681
 11
2506.3256416055879
 21
1324.7531842923679
  0
LINE
  8
_0-5_0
  6
CONTINUOUS
 62
    3
 10
2506.3256416055879
 20
1324.7531842923679
 11
2506.3256416055879
 21
1320.7531842923681
  0
LINE
  8
_0-6_04_HIDDEN
  6
CONTINUOUS
 62
    7
 10
2675.3256415981446
 20
1320.7531842923681
 11
2675.3256415981446
 21
1270.7531842905619
  0
LINE
  8
_0-5_0
  6
CONTINUOUS
 62
    3
 10
2680.3256415981441
 20
1320.7531842923681
 11
2684.3256415981446
 21
1320.7531842923681
  0
LINE
  8
_0-5_0
  6
CONTINUOUS
 62
    3
 10
2684.3256415981446
 20
1320.7531842923681
 11
2680.3256415981441
 21
1324.7531842923679
  0
LINE
  8
_0-5_0
  6
CONTINUOUS
 62
    3
 10
2680.3256415981441
 20
1324.7531842923679
 11
2680.3256415981441
 21
1320.7531842923681
  0
LINE
  8
_0-5_0
  6
CONTINUOUS
 62
    3
 10
2679.3256415981446
 20
1270.7531842905619
 11
2671.3256415981441
 21
1270.7531842905619
  0
LINE
  8
_0-5_0
  6
CONTINUOUS
 62
    3
 10
2671.3256415981441
 20
1270.7531842905619
 11
2675.3256415981446
 21
1274.7531842905616
  0
LINE
  8
_0-5_0
  6
CONTINUOUS
 62
    3
 10
2675.3256415981446
 20
1274.7531842905616
 11
2679.3256415981446
 21
1270.7531842905619
  0
LINE
  8
_0-6_04_HIDDEN
  6
CONTINUOUS
 62
    7
 10
2542.3256416130307
 20
1745.7531842880931
 11
2656.3256416055874
 21
1745.7531842880931
  0
LINE
  8
_0-6_04_HIDDEN
  6
CONTINUOUS
 62
    7
 10
2656.3256416055874
 20
1745.7531842880931
 11
2659.212392951536
 21
1750.7531842880933
  0
LINE
  8
_0-5_0
  6
CONTINUOUS
 62
   18
 10
2506.3256416055879
 20
1748.7531842880933
 11
2680.3256416055879
 21
1748.7531842880933
  0
LINE
  8
_0-5_0
  6
CONTINUOUS
 62
    3
 10
2507.3256416055874
 20
1270.7531842905619
 11
2515.3256416055879
 21
1270.7531842905619
  0
LINE
  8
_0-5_0
  6
CONTINUOUS
 62
    3
 10
2515.3256416055879
 20
1270.7531842905619
 11
2511.3256416055874
 21
1274.7531842905616
  0
LINE
  8
_0-5_0
  6
CONTINUOUS
 62
    3
 10
2511.3256416055874
 20
1274.7531842905616
 11
2507.3256416055874
 21
1270.7531842905619
  0
LINE
  8
_0-5_0
  6
CONTINUOUS
 62
   18
 10
2426.3256416019785
 20
1871.5719661885255
 11
2772.4483752836959
 21
1871.5719661885255
  0
LINE
  8
_0-6_04_HIDDEN
  6
CONTINUOUS
 62
    7
 10
2525.3256415983697
 20
1750.7531842880933
 11
2526.2029079202612
 21
1751.5719661885237
  0
LINE
  8
_0-6_04_HIDDEN
  6
CONTINUOUS
 62
    7
 10
2442.9671043647973
 20
1840.7531842836638
 11
2441.3256416025029
 21
1840.7531842836638
  0
LINE
  8
_0-5_0
  6
CONTINUOUS
 62
   18
 10
2441.3256416025029
 20
1840.7531842836638
 11
2525.3256415983697
 21
1750.7531842880933
  0
LINE
  8
_0-6_04_HIDDEN
  6
CONTINUOUS
 62
    7
 10
2442.9671043647973
 20
1840.7531842836638
 11
2526.2029079202612
 21
1751.5719661885246
  0
ARC
  8
_0-5_0
  6
CONTINUOUS
 62
    3
 10
2525.3256415984097
 20
1750.7531842881042
 40
1.0296327230389579
 50
0.0000000006073257
 51
43.025065990127487
  0
LINE
  8
_0-6_04_HIDDEN
  6
CONTINUOUS
 62
    7
 10
2530.3256415983701
 20
1745.7531842880931
 11
2530.3256415983701
 21
1270.7531842935557
  0
LINE
  8
_0-6_04_HIDDEN
  6
CONTINUOUS
 62
    7
 10
2530.3256415983701
 20
1745.7531842880931
 11
2527.4388902524215
 21
1750.7531842880933
  0
LINE
  8
_0-6_04_HIDDEN
  6
CONTINUOUS
 62
    7
 10
2598.3256416018698
 20
1265.7531842970991
 11
2598.3256416018698
 21
1285.7531842971139
  0
LINE
  8
_0-6_04_HIDDEN
  6
CONTINUOUS
 62
    7
 10
2597.3256416018694
 20
1265.7531842970991
 11
2597.3256416018694
 21
1292.7531842971209
  0
LINE
  8
_0-6_04_HIDDEN
  6
CONTINUOUS
 62
    7
 10
2589.3256416018844
 20
1292.7531842971209
 11
2593.3256416018694
 21
1295.0621842971184
  0
LINE
  8
_0-6_04_HIDDEN
  6
CONTINUOUS
 62
    7
 10
2588.3256416018694
 20
1265.7531842970991
 11
2588.3256416018694
 21
1285.7531842971139
  0
LINE
  8
_0-6_04_HIDDEN
  6
CONTINUOUS
 62
    7
 10
2589.3256416018844
 20
1265.7531842970991
 11
2589.3256416018844
 21
1292.7531842971209
  0
LINE
  8
_0-6_04_HIDDEN
  6
CONTINUOUS
 62
    7
 10
2598.3256416018698
 20
1285.7531842971139
 11
2588.3256416018694
 21
1285.7531842971139
  0
LINE
  8
_0-6_04_HIDDEN
  6
CONTINUOUS
 62
    7
 10
2597.3256416018694
 20
1292.7531842971209
 11
2589.3256416018844
 21
1292.7531842971209
  0
LINE
  8
_0-6_04_HIDDEN
  6
CONTINUOUS
 62
    7
 10
2593.3256416018694
 20
1295.0621842971184
 11
2597.3256416018694
 21
1292.7531842971209
  0
LINE
  8
_0-4_05_CENTER
  6
CENTER2
 62
    9
 10
2468.325641604918
 20
1327.2015891060644
 11
2468.325641604918
 21
1259.3047794705587
  0
LINE
  8
_0-6_04_HIDDEN
  6
CONTINUOUS
 62
    9
 10
2489.3256416049112
 20
1320.75318428831
 11
2489.3256416049112
 21
1265.7531842923679
  0
LINE
  8
_0-6_04_HIDDEN
  6
CONTINUOUS
 62
    9
 10
2447.3256416049257
 20
1320.75318428831
 11
2447.3256416049257
 21
1265.7531842923679
  0
LINE
  8
_0-5_0
  6
CONTINUOUS
 62
   18
 10
2763.3256416049185
 20
1320.7531842923681
 11
2423.325641604918
 21
1320.7531842923681
  0
LINE
  8
_0-5_0
  6
CONTINUOUS
 62
   18
 10
2423.325641604918
 20
1320.7531842923681
 11
2423.325641604918
 21
1265.7531842923679
  0
LINE
  8
_0-5_0
  6
CONTINUOUS
 62
   18
 10
2423.325641604918
 20
1265.7531842923679
 11
2763.3256416049185
 21
1265.7531842923679
  0
LINE
  8
_0-5_0
  6
CONTINUOUS
 62
   18
 10
2763.3256416049185
 20
1265.7531842923679
 11
2763.3256416049185
 21
1320.7531842923681
  0
LINE
  8
_0-6_04_HIDDEN
  6
CONTINUOUS
 62
    7
 10
2723.325641601069
 20
1265.7531842970991
 11
2723.325641601069
 21
1285.7531842971139
  0
LINE
  8
_0-6_04_HIDDEN
  6
CONTINUOUS
 62
    7
 10
2722.325641601069
 20
1265.7531842970991
 11
2722.325641601069
 21
1292.7531842971209
  0
LINE
  8
_0-6_04_HIDDEN
  6
CONTINUOUS
 62
    7
 10
2714.325641601084
 20
1292.7531842971209
 11
2718.325641601069
 21
1295.0621842971184
  0
LINE
  8
_0-6_04_HIDDEN
  6
CONTINUOUS
 62
    7
 10
2713.325641601069
 20
1265.7531842970991
 11
2713.325641601069
 21
1285.7531842971139
  0
LINE
  8
_0-4_05_CENTER
  6
CENTER2
 62
    4
 10
2718.325641601069
 20
1262.3654091495364
 11
2718.325641601069
 21
1297.8581842970987
  0
LINE
  8
_0-6_04_HIDDEN
  6
CONTINUOUS
 62
    7
 10
2714.325641601084
 20
1265.7531842970991
 11
2714.325641601084
 21
1292.7531842971209
  0
LINE
  8
_0-6_04_HIDDEN
  6
CONTINUOUS
 62
    7
 10
2723.325641601069
 20
1285.7531842971139
 11
2713.325641601069
 21
1285.7531842971139
  0
LINE
  8
_0-6_04_HIDDEN
  6
CONTINUOUS
 62
    7
 10
2722.325641601069
 20
1292.7531842971209
 11
2714.325641601084
 21
1292.7531842971209
  0
LINE
  8
_0-6_04_HIDDEN
  6
CONTINUOUS
 62
    7
 10
2718.325641601069
 20
1295.0621842971184
 11
2722.325641601069
 21
1292.7531842971209
  0
LINE
  8
_0-6_04_HIDDEN
  6
CONTINUOUS
 62
    7
 10
2473.325641601069
 20
1265.7531842970991
 11
2473.325641601069
 21
1285.7531842971139
  0
LINE
  8
_0-6_04_HIDDEN
  6
CONTINUOUS
 62
    7
 10
2472.325641601069
 20
1265.7531842970991
 11
2472.325641601069
 21
1292.7531842971209
  0
LINE
  8
_0-6_04_HIDDEN
  6
CONTINUOUS
 62
    7
 10
2464.3256416010836
 20
1292.7531842971209
 11
2468.3256416010695
 21
1295.0621842971184
  0
LINE
  8
_0-6_04_HIDDEN
  6
CONTINUOUS
 62
    7
 10
2463.325641601069
 20
1265.7531842970991
 11
2463.325641601069
 21
1285.7531842971139
  0
LINE
  8
_0-4_05_CENTER
  6
CENTER2
 62
    4
 10
2468.3256416010695
 20
1262.3654091495364
 11
2468.3256416010695
 21
1297.8581842970987
  0
LINE
  8
_0-6_04_HIDDEN
  6
CONTINUOUS
 62
    7
 10
2464.3256416010836
 20
1265.7531842970991
 11
2464.3256416010836
 21
1292.7531842971209
  0
LINE
  8
_0-6_04_HIDDEN
  6
CONTINUOUS
 62
    7
 10
2473.325641601069
 20
1285.7531842971139
 11
2463.325641601069
 21
1285.7531842971139
  0
LINE
  8
_0-6_04_HIDDEN
  6
CONTINUOUS
 62
    7
 10
2472.325641601069
 20
1292.7531842971209
 11
2464.3256416010836
 21
1292.7531842971209
  0
LINE
  8
_0-6_04_HIDDEN
  6
CONTINUOUS
 62
    7
 10
2468.3256416010695
 20
1295.0621842971184
 11
2472.325641601069
 21
1292.7531842971209
  0
LINE
  8
_0-4_05_CENTER
  6
CENTER2
 62
    9
 10
2718.3256416062568
 20
1327.2015891060644
 11
2718.3256416062568
 21
1259.3047794705587
  0
LINE
  8
_0-6_04_HIDDEN
  6
CONTINUOUS
 62
    9
 10
2697.3256416062641
 20
1320.75318428831
 11
2697.3256416062641
 21
1265.7531842923679
  0
LINE
  8
_0-6_04_HIDDEN
  6
CONTINUOUS
 62
    9
 10
2739.32564160625
 20
1320.75318428831
 11
2739.32564160625
 21
1265.7531842923679
  0
CIRCLE
  8
_0-5_0
  6
CONTINUOUS
 62
   18
 10
1226.8261315540485
 20
1647.8303287581605
 40
62.999999999999993
  0
CIRCLE
  8
_0-6_04_HIDDEN
  6
CONTINUOUS
 62
    7
 10
1226.8261315540485
 20
1647.8303287581605
 40
87
  0
LINE
  8
_0-4_05_CENTER
  6
CENTER2
 62
    4
 10
1415.0716405748656
 20
1647.8303287581605
 11
1038.5806225332208
 21
1647.8303287581605
  0
LINE
  8
_0-4_05_CENTER
  6
CENTER2
 62
    4
 10
1226.8261315540378
 20
1459.5848197373382
 11
1226.8261315540378
 21
1836.0758377789825
  0
CIRCLE
  8
_0-5_0
  6
CONTINUOUS
 62
   18
 10
1226.8261315540415
 20
1647.8303287581605
 40
67.122733677999349
  0
CIRCLE
  8
_0-6_04_HIDDEN
  6
CONTINUOUS
 62
    7
 10
1226.8261315540415
 20
1647.8303287581605
 40
67.999999999890861
  0
INSERT
  2
-007-M10Tz
  8
_0-5_0
 10
1524.0400462894388
 20
707.56994570235747
 41
1
 42
1
 50
0
  0
INSERT
  2
-007-M10Tz
  8
_0-5_0
 10
1524.0400462894534
 20
832.56994570236111
 41
1
 42
1
 50
0
  0
INSERT
  2
-007-M10Tz
  8
_0-5_0
 10
1524.0400462894424
 20
957.56994570392908
 41
1
 42
1
 50
0
  0
INSERT
  2
-007-M10Tz
  8
_0-5_0
 10
2074.0400462894681
 20
707.56994570235747
 41
-1
 42
1
 50
0
  0
INSERT
  2
-007-M10Tz
  8
_0-5_0
 10
2074.0400462894604
 20
832.56994570236111
 41
-1
 42
1
 50
0
  0
INSERT
  2
-007-M10Tz
  8
_0-5_0
 10
2074.0400462894718
 20
957.56994570392908
 41
-1
 42
1
 50
0
  0
CIRCLE
  8
_0-5_0
  6
CONTINUOUS
 62
   18
 10
1974.0400462894568
 20
957.56994570392908
 40
21
  0
LINE
  8
_0-4_05_CENTER
  6
CENTER2
 62
    4
 10
1942.5400462894534
 20
957.56994570392908
 11
2005.5400462894534
 21
957.56994570392908
  0
LINE
  8
_0-4_05_CENTER
  6
CENTER2
 62
    4
 10
1974.0400462894531
 20
989.06994570392908
 11
1974.0400462894531
 21
926.06994570392897
  0
CIRCLE
  8
_0-5_0
  6
CONTINUOUS
 62
   18
 10
1974.0400462894568
 20
707.56994570079678
 40
21
  0
LINE
  8
_0-4_05_CENTER
  6
CENTER2
 62
    4
 10
1942.5400462894534
 20
707.56994570079678
 11
2005.5400462894534
 21
707.56994570079678
  0
LINE
  8
_0-4_05_CENTER
  6
CENTER2
 62
    4
 10
1974.0400462894531
 20
739.06994570079678
 11
1974.0400462894531
 21
676.06994570079678
  0
CIRCLE
  8
_0-5_0
  6
CONTINUOUS
 62
   18
 10
1624.0400462894715
 20
707.56994570079678
 40
21
  0
LINE
  8
_0-4_05_CENTER
  6
CENTER2
 62
    4
 10
1592.5400462894718
 20
707.56994570079678
 11
1655.5400462894715
 21
707.56994570079678
  0
LINE
  8
_0-4_05_CENTER
  6
CENTER2
 62
    4
 10
1624.0400462894715
 20
739.06994570079678
 11
1624.0400462894715
 21
676.06994570079678
  0
CIRCLE
  8
_0-5_0
  6
CONTINUOUS
 62
   18
 10
1624.0400462894715
 20
957.56994570392908
 40
21
  0
LINE
  8
_0-4_05_CENTER
  6
CENTER2
 62
    4
 10
1592.5400462894718
 20
957.56994570392908
 11
1655.5400462894715
 21
957.56994570392908
  0
LINE
  8
_0-4_05_CENTER
  6
CENTER2
 62
    4
 10
1624.0400462894715
 20
989.06994570392908
 11
1624.0400462894715
 21
926.06994570392897
  0
CIRCLE
  8
_0-5_0
  6
CONTINUOUS
 62
   18
 10
1799.0400462894604
 20
832.56994570396182
 40
62.999999999999993
  0
CIRCLE
  8
_0-6_04_HIDDEN
  6
CONTINUOUS
 62
    7
 10
1799.0400462894604
 20
832.56994570396182
 40
87
  0
CIRCLE
  8
_0-5_0
  6
CONTINUOUS
 62
   18
 10
1799.0400462894604
 20
832.56994570396182
 40
82
  0
LINE
  8
_0-4_05_CENTER
  6
CENTER2
 62
    4
 10
2107.6804221518992
 20
832.56994570236475
 11
1490.3996704270148
 21
832.56994570236475
  0
LINE
  8
_0-4_05_CENTER
  6
CENTER2
 62
    4
 10
1799.0400462894568
 20
682.52108102093098
 11
1799.0400462894568
 21
982.61881038699994
  0
LINE
  8
_0-5_0
  6
CONTINUOUS
 62
   18
 10
1504.0400462894604
 20
1002.5699457023611
 11
2094.0400462894604
 21
1002.5699457023611
  0
LINE
  8
_0-5_0
  6
CONTINUOUS
 62
   18
 10
2094.0400462894604
 20
1002.5699457023611
 11
2099.0400462894609
 21
997.56994570236111
  0
LINE
  8
_0-5_0
  6
CONTINUOUS
 62
   18
 10
2099.0400462894609
 20
997.56994570236111
 11
2099.0400462894609
 21
667.56994570236111
  0
LINE
  8
_0-5_0
  6
CONTINUOUS
 62
   18
 10
2099.0400462894609
 20
667.56994570236111
 11
2094.0400462894604
 21
662.56994570236122
  0
LINE
  8
_0-5_0
  6
CONTINUOUS
 62
   18
 10
2094.0400462894604
 20
662.56994570236122
 11
1504.0400462894604
 21
662.56994570236122
  0
LINE
  8
_0-5_0
  6
CONTINUOUS
 62
   18
 10
1504.0400462894604
 20
662.56994570236122
 11
1499.0400462894606
 21
667.56994570236111
  0
LINE
  8
_0-5_0
  6
CONTINUOUS
 62
   18
 10
1499.0400462894606
 20
667.56994570236111
 11
1499.0400462894606
 21
997.56994570236111
  0
LINE
  8
_0-5_0
  6
CONTINUOUS
 62
   18
 10
1499.0400462894606
 20
997.56994570236111
 11
1504.0400462894604
 21
1002.5699457023611
  0
CIRCLE
  8
_0-4_05_CENTER
  6
CENTER2
 62
    4
 10
1799.0400462894604
 20
832.56994570396182
 40
116.99999999999999
  0
LINE
  8
_0-4_05_CENTER
  6
CENTER2
 62
    4
 10
1708.0979113913302
 20
870.23941137060228
 11
1673.7943705804275
 21
884.44840321189884
  0
CIRCLE
  8
_0-5_0
  6
CONTINUOUS
 62
   18
 10
1690.9461409858843
 20
877.34390729126881
 40
11
  0
LINE
  8
_0-4_05_CENTER
  6
CENTER2
 62
    4
 10
1889.9821811880638
 20
870.23941136946007
 11
1924.2857219989667
 21
884.44840321075492
  0
CIRCLE
  8
_0-5_0
  6
CONTINUOUS
 62
   18
 10
1907.1339515935242
 20
877.3439072900901
 40
10.999999999999996
  0
LINE
  8
_0-4_05_CENTER
  6
CENTER2
 62
    4
 10
1836.7095119561013
 20
923.51208060209228
 11
1850.9185037973975
 21
957.81562141299685
  0
CIRCLE
  8
_0-5_0
  6
CONTINUOUS
 62
   18
 10
1843.814007876764
 20
940.66385100753814
 40
10.999999999999995
  0
LINE
  8
_0-4_05_CENTER
  6
CENTER2
 62
    4
 10
1761.3705806239589
 20
923.51208060256158
 11
1747.1615887826622
 21
957.81562141346797
  0
CIRCLE
  8
_0-5_0
  6
CONTINUOUS
 62
   18
 10
1754.2660847033287
 20
940.66385100802199
 40
10.999999999999995
  0
CIRCLE
  8
_0-5_0
  6
CONTINUOUS
 62
   18
 10
1799.0400462894568
 20
832.56994570396546
 40
139
  0
LINE
  8
_0-4_05_CENTER
  6
CENTER2
 62
    4
 10
1708.0979113913302
 20
794.90048003731783
 11
1673.7943705804275
 21
780.69148819602106
  0
CIRCLE
  8
_0-5_0
  6
CONTINUOUS
 62
   18
 10
1690.9461409858843
 20
787.79598411665131
 40
11
  0
LINE
  8
_0-4_05_CENTER
  6
CENTER2
 62
    4
 10
1889.9821811880638
 20
794.90048003846186
 11
1924.2857219989667
 21
780.69148819716702
  0
CIRCLE
  8
_0-5_0
  6
CONTINUOUS
 62
   18
 10
1907.1339515935242
 20
787.79598411783354
 40
10.999999999999996
  0
LINE
  8
_0-4_05_CENTER
  6
CENTER2
 62
    4
 10
1836.7095119561013
 20
741.62781080582954
 11
1850.9185037973975
 21
707.32426999492509
  0
CIRCLE
  8
_0-5_0
  6
CONTINUOUS
 62
   18
 10
1843.814007876764
 20
724.4760404003855
 40
10.999999999999995
  0
LINE
  8
_0-4_05_CENTER
  6
CENTER2
 62
    4
 10
1761.3705806239589
 20
741.62781080535842
 11
1747.1615887826622
 21
707.32426999445397
  0
CIRCLE
  8
_0-5_0
  6
CONTINUOUS
 62
   18
 10
1754.2660847033287
 20
724.47604039989812
 40
10.999999999999995
  0
LINE
  8
_0-5_0
  6
CONTINUOUS
 62
   18
 10
1741.0328880299633
 20
1871.5719661885255
 11
1619.917312611454
 21
1871.5719661885255
  0
LINE
  8
_0-5_0
  6
CONTINUOUS
 62
   18
 10
1741.5944348127987
 20
1870.7531842880933
 11
1619.0400462895625
 21
1870.7531842880933
  0
LINE
  8
_0-5_0
  6
CONTINUOUS
 62
   18
 10
1853.7052856497787
 20
1871.5719661885255
 11
1744.374806936564
 21
1871.5719661885255
  0
LINE
  8
_0-5_0
  6
CONTINUOUS
 62
   18
 10
1853.7052856497787
 20
1870.7531842880933
 11
1744.374806936564
 21
1870.7531842880933
  0
LINE
  8
_0-5_0
  6
CONTINUOUS
 62
   18
 10
1168.8189732945511
 20
1477.4332349137551
 11
1169.3805200773904
 21
1478.1690325166392
  0
LINE
  8
_0-5_0
  6
CONTINUOUS
 62
   18
 10
1284.8332898135241
 20
1477.4332349137551
 11
1284.2717430306848
 21
1478.1690325166392
  0
LINE
  8
_0-2_08_DIM
  6
CONTINUOUS
 62
    3
 10
1752.5816083804086
 20
1858.3927779277594
 11
1799.0400462931714
 21
1910.7531564302085
  0
INSERT
  2
-005-p1ba02
  8
_0-2_08_DIM
 10
2131.8405711152891
 20
1320.7531842923681
 41
4
 42
4
 50
0
  0
INSERT
  2
-005-p1ba02
  8
_0-2_08_DIM
 10
2020.3487783129517
 20
1270.7531842905619
 41
4
 42
4
 50
180
  0
INSERT
  2
-005-p1ba02
  8
_0-2_08_DIM
 10
2173.8249155651706
 20
1265.7531842895323
 41
4
 42
4
 50
180
  0
LINE
  8
_0-2_08_DIM
  6
CONTINUOUS
 62
    3
 10
2202.1003761387465
 20
1320.7531842923681
 11
2225.2478261385418
 21
1320.7531842923681
  0
INSERT
  2
-004-p1ba01
  8
_0-2_08_DIM
 10
2101.441828053371
 20
1750.7531842880933
 41
4
 42
4
 50
0
  0
INSERT
  2
-005-p1ba02
  8
_0-2_08_DIM
 10
1876.8892539278434
 20
1771.4727663572339
 41
3.9999999999999996
 42
3.9999999999999996
 50
59.999999999999709
  0
INSERT
  2
-000-Weld-line
  8
_0-2_08_DIM
 10
1915.3325961767507
 20
1384.7020914195325
 41
72
 42
72
 50
0
  0
CIRCLE
  8
_0-5_0
  6
CONTINUOUS
 62
    3
 10
1915.3325961767507
 20
1384.7020914195325
 40
8
  0
INSERT
  2
-005-p1ba02
  8
_0-2_08_DIM
 10
1963.212675810393
 20
1430.7717776255977
 41
4
 42
4
 50
0
  0
INSERT
  2
-005-p1ba02
  8
_0-2_08_DIM
 10
1568.7540815832142
 20
1430.7717776255977
 41
4
 42
4
 50
0
  0
LINE
  8
_0-4_05_CENTER
  6
CENTER2
 62
    4
 10
1624.0400462894715
 20
957.56994570392908
 11
1624.0400462894715
 21
707.56994570079678
  0
LINE
  8
_0-4_05_CENTER
  6
CENTER2
 62
    4
 10
1974.0400462894424
 20
957.56994570392908
 11
1974.0400462894424
 21
707.56994570079678
  0
INSERT
  2
-008-seca03
  8
_0-5_0
 10
1576.3469844534998
 20
1900.4800874069188
 41
4
 42
4
 50
0
  0
TEXT
  8
_0-5_0
 62
    7
 10
1562.3469844506378
 20
1923.9795008083511
 40
12
 41
1
 50
0
  1
A
  0
INSERT
  2
-009-seca04
  8
_0-5_0
 10
2025.0788311067333
 20
1900.4800873837466
 41
4
 42
4
 50
0
  0
TEXT
  8
_0-5_0
 62
    7
 10
2031.0788311040446
 20
1923.979500785181
 40
12
 41
1
 50
0
  1
A
  0
TEXT
  8
_0-2_08_DIM
 62
    3
 10
1178.9314240872113
 20
1397.2213070024384
 40
18
 41
1
 50
0
  1
¢ŅÄŗ A-A
  0
LINE
  8
_0-5_0
  6
CONTINUOUS
 62
    3
 10
1967.3325961728622
 20
1384.7020914217539
 11
1947.3325961728622
 21
1364.7020914217539
  0
LINE
  8
_0-5_0
  6
CONTINUOUS
 62
    3
 10
1947.3325961728622
 20
1364.7020914217539
 11
1947.3325961728622
 21
1384.7020914217539
  0
TEXT
  8
_0-5_0
 62
    3
 10
1932.6125961728621
 20
1380.7020914217542
 40
11.200000000000045
 41
0.8999999999999736
 50
0
  1
3
  0
TEXT
  8
_0-0_90_FRAME
 62
    3
 10
2751.8732159936603
 20
756.0013372430144
 40
8
 41
1
 50
0
  1
+SPCC
  0
ARC
  8
_0-7_01_NORMAL
  6
CONTINUOUS
 62
   18
 10
1226.8261315540378
 20
1402.1357087907863
 40
95.29461996737416
 50
52.92778473859218
 51
127.07221526140782
  0
ARC
  8
_0-7_01_NORMAL
  6
CONTINUOUS
 62
   18
 10
1226.8261315540378
 20
1394.9624598392031
 40
100.82786891895728
 50
54.878740883585941
 51
125.12125911641407
  0
ARC
  8
_0-5_0
  6
CONTINUOUS
 62
   18
 10
1226.8261315540415
 20
1647.8303287581605
 40
179.99999999989086
 50
288.79977576173928
 51
251.20022423825858
  0
ARC
  8
_0-5_0
  6
CONTINUOUS
 62
   18
 10
1226.8261315540553
 20
1647.8303287581555
 40
179.12273367799938
 50
288.70558427884401
 51
251.2944157211453
  0
LINE
  8
_0-6_04_HIDDEN
  6
CONTINUOUS
 62
    7
 10
2426.3256416019785
 20
1871.5719661885255
 11
2442.9671043647973
 21
1840.7531842836638
  0
LINE
  8
_0-5_0
  6
CONTINUOUS
 62
   18
 10
2426.3256416019785
 20
1871.5719661885255
 11
2425.5856416019788
 21
1870.7531842880933
  0
LINE
  8
_0-5_0
  6
CONTINUOUS
 62
   18
 10
2425.5856416019788
 20
1870.7531842880933
 11
2441.3256416025029
 21
1840.7531842836638
  0
ARC
  8
_0-5_0
  6
CONTINUOUS
 62
    1
 10
2771.6531611299765
 20
1888.8634321201448
 40
29.051448197695933
 50
343.9332024375081
 51
93.933202338018305
  0
ARC
  8
_0-5_0
  6
CONTINUOUS
 62
    1
 10
2794.512649132058
 20
1859.9598113957884
 40
21.467578818808402
 50
326.37454414739864
 51
76.374544047909367
  0
ARC
  8
_0-5_0
  6
CONTINUOUS
 62
    1
 10
2798.2868846242741
 20
1832.4801546355211
 40
21.022572569526528
 50
297.87356671453034
 51
47.87356661504068
  0
ARC
  8
_0-5_0
  6
CONTINUOUS
 62
    1
 10
2781.3380222240071
 20
1802.9364923668536
 40
28.933575001933377
 50
272.25950150223116
 51
22.259501402741403
  0
ARC
  8
_0-5_0
  6
CONTINUOUS
 62
    1
 10
2749.5062658091219
 20
1776.9527515797538
 40
33.10216902770383
 50
244.92650961070404
 51
354.92650951121414
  0
ARC
  8
_0-5_0
  6
CONTINUOUS
 62
    1
 10
2664.3361802054478
 20
1789.3567020412017
 40
82.811983297843256
 50
219.21332956510636
 51
329.21332946561637
  0
ARC
  8
_0-5_0
  6
CONTINUOUS
 62
    1
 10
2569.4807552012126
 20
1755.3103853338393
 40
35.73857219844102
 50
219.18407633750053
 51
329.18407623801016
  0
ARC
  8
_0-5_0
  6
CONTINUOUS
 62
    1
 10
2493.4965192383702
 20
1762.2938023294032
 40
56.614554196766917
 50
218.52074484374276
 51
328.52074474425257
  0
ARC
  8
_0-5_0
  6
CONTINUOUS
 62
    1
 10
2445.7134489569949
 20
1743.2711220667532
 40
16.607343744367935
 50
172.12686742110137
 51
282.12686732161211
  0
ARC
  8
_0-5_0
  6
CONTINUOUS
 62
    1
 10
2436.4567085499325
 20
1775.5238092253337
 40
30.828942860747279
 50
146.50537943411885
 51
256.50537933462846
  0
ARC
  8
_0-5_0
  6
CONTINUOUS
 62
    1
 10
2428.1965788135049
 20
1828.0668391034744
 40
39.583392639027913
 50
133.84357041413998
 51
243.8435703146499
  0
ARC
  8
_0-5_0
  6
CONTINUOUS
 62
    1
 10
2419.4364935107624
 20
1871.1382301073502
 40
23.644492068998854
 50
107.89402271485433
 51
217.89402261536426
  0
ARC
  8
_0-5_0
  6
CONTINUOUS
 62
    1
 10
2441.2984329790661
 20
1891.2821966940419
 40
29.222074468096771
 50
65.374076356484153
 51
175.37407625699424
  0
ARC
  8
_0-5_0
  6
CONTINUOUS
 62
    1
 10
2488.2984925677565
 20
1900.8902664918571
 40
38.732222725975177
 50
44.037684048219866
 51
154.03768394872955
  0
ARC
  8
_0-5_0
  6
CONTINUOUS
 62
    1
 10
2527.5364874440388
 20
1919.8360361901048
 40
13.909588296768197
 50
35.000000049744706
 51
144.9999999502553
  0
ARC
  8
_0-5_0
  6
CONTINUOUS
 62
    1
 10
2571.6884972515008
 20
1904.8768902312095
 40
39.990063351694651
 50
35.00000004974499
 51
144.99999995025502
  0
ARC
  8
_0-5_0
  6
CONTINUOUS
 62
    1
 10
2630.7952211369166
 20
1909.3646326416008
 40
32.165923236426423
 50
35.000000049745012
 51
144.99999995025499
  0
ARC
  8
_0-5_0
  6
CONTINUOUS
 62
    1
 10
2673.309382547483
 20
1917.5561917349248
 40
19.145423042448908
 50
37.602034990717314
 51
147.60203489122728
  0
ARC
  8
_0-5_0
  6
CONTINUOUS
 62
    1
 10
2725.0807564216702
 20
1895.1199551053603
 40
50.038389879057284
 50
27.012269080692462
 51
137.01226898120242
  0
INSERT
  2
-010-AM_BALLOON1
  8
_0-2_08_DIM
 10
1127.3384698379984
 20
1972.0137629505311
 41
5
 42
5
 50
0
  0
TEXT
  8
_0-5_0
 62
    7
 10
1113.0527555522845
 20
1964.5137629505309
 40
14.999999999999998
 41
1
 50
0
  1
20
  0
LINE
  8
_0-2_08_DIM
  6
CONTINUOUS
 62
    3
 10
1736.0400462895625
 20
1578.0452197670015
 11
1736.0400462895625
 21
1572.9931912397928
  0
LINE
  8
_0-2_08_DIM
  6
CONTINUOUS
 62
    3
 10
1862.0400462967805
 20
1578.0061983715952
 11
1862.0400462967805
 21
1572.9931912397928
  0
LINE
  8
_0-2_08_DIM
  6
CONTINUOUS
 62
    3
 10
1746.0400462895623
 20
1577.9931912397926
 11
1852.0400462967805
 21
1577.9931912397926
  0
INSERT
  2
-011-_Open30
  8
_0-2_08_DIM
 10
1736.0400462895625
 20
1577.9931912397926
 41
10
 42
10
 50
180
  0
INSERT
  2
-011-_Open30
  8
_0-2_08_DIM
 10
1862.0400462967805
 20
1577.9931912397926
 41
10
 42
10
 50
0
  0
LINE
  8
_0-2_08_DIM
  6
CONTINUOUS
 62
    3
 10
1712.040046289563
 20
1635.2022041966234
 11
1712.040046289563
 21
1640.8734939443766
  0
LINE
  8
_0-2_08_DIM
  6
CONTINUOUS
 62
    3
 10
1886.0400462895623
 20
1635.2022041966231
 11
1886.0400462895623
 21
1640.8734939443766
  0
LINE
  8
_0-2_08_DIM
  6
CONTINUOUS
 62
    3
 10
1722.040046289563
 20
1635.8734939443768
 11
1876.0400462895623
 21
1635.8734939443768
  0
INSERT
  2
-011-_Open30
  8
_0-2_08_DIM
 10
1712.040046289563
 20
1635.8734939443768
 41
10
 42
10
 50
180
  0
INSERT
  2
-011-_Open30
  8
_0-2_08_DIM
 10
1886.0400462895623
 20
1635.8734939443768
 41
10
 42
10
 50
0
  0
LINE
  8
_0-2_08_DIM
  6
CONTINUOUS
 62
    3
 10
1717.0400462970058
 20
1268.2531842905616
 11
1717.0400462970058
 21
1206.3593663378476
  0
LINE
  8
_0-2_08_DIM
  6
CONTINUOUS
 62
    3
 10
1881.0400462895625
 20
1268.2531842905616
 11
1881.0400462895625
 21
1206.3593663378476
  0
LINE
  8
_0-2_08_DIM
  6
CONTINUOUS
 62
    3
 10
1727.0400462970058
 20
1211.3593663378476
 11
1871.0400462895625
 21
1211.3593663378476
  0
INSERT
  2
-011-_Open30
  8
_0-2_08_DIM
 10
1717.0400462970058
 20
1211.3593663378476
 41
10
 42
10
 50
180
  0
INSERT
  2
-011-_Open30
  8
_0-2_08_DIM
 10
1881.0400462895625
 20
1211.3593663378476
 41
10
 42
10
 50
0
  0
LINE
  8
_0-2_08_DIM
  6
CONTINUOUS
 62
    3
 10
1660.0400462895623
 20
1263.2531842923679
 11
1660.0400462895623
 21
1177.4504259281211
  0
LINE
  8
_0-2_08_DIM
  6
CONTINUOUS
 62
    3
 10
1938.0400462932841
 20
1263.2531842923679
 11
1938.0400462932841
 21
1177.4504259281211
  0
LINE
  8
_0-2_08_DIM
  6
CONTINUOUS
 62
    3
 10
1670.0400462895625
 20
1182.4504259281209
 11
1928.0400462932841
 21
1182.4504259281209
  0
INSERT
  2
-011-_Open30
  8
_0-2_08_DIM
 10
1660.0400462895623
 20
1182.4504259281209
 41
10
 42
10
 50
180
  0
INSERT
  2
-011-_Open30
  8
_0-2_08_DIM
 10
1938.0400462932841
 20
1182.4504259281209
 41
10
 42
10
 50
0
  0
LINE
  8
_0-2_08_DIM
  6
CONTINUOUS
 62
    3
 10
1862.0400462967802
 20
1578.0192055033972
 11
1862.0400462967802
 21
1582.9931912397924
  0
LINE
  8
_0-2_08_DIM
  6
CONTINUOUS
 62
    3
 10
1886.0400462895623
 20
1578.0192055033972
 11
1886.0400462895623
 21
1582.9931912397924
  0
LINE
  8
_0-2_08_DIM
  6
CONTINUOUS
 62
    3
 10
1886.0400462895623
 20
1577.9931912397926
 11
1931.0400462895625
 21
1577.9931912397926
  0
LINE
  8
_0-2_08_DIM
  6
CONTINUOUS
 62
    3
 10
1862.0400462967802
 20
1577.9931912397926
 11
1886.0400462895623
 21
1577.9931912397926
  0
LINE
  8
_0-2_08_DIM
  6
CONTINUOUS
 62
    3
 10
1852.0400462967802
 20
1577.9931912397926
 11
1842.0400462967802
 21
1577.9931912397926
  0
LINE
  8
_0-2_08_DIM
  6
CONTINUOUS
 62
    3
 10
1896.0400462895625
 20
1577.9931912397926
 11
1906.0400462895625
 21
1577.9931912397926
  0
INSERT
  2
-011-_Open30
  8
_0-2_08_DIM
 10
1862.0400462967802
 20
1577.9931912397926
 41
10
 42
10
 50
0
  0
INSERT
  2
-011-_Open30
  8
_0-2_08_DIM
 10
1886.0400462895623
 20
1577.9931912397926
 41
10
 42
10
 50
180
  0
INSERT
  2
-011-_Open30
  8
_0-2_08_DIM
 10
1736.0400462895623
 20
1577.9931912397926
 41
10
 42
10
 50
0.0000000000002338
  0
LINE
  8
_0-2_08_DIM
  6
CONTINUOUS
 62
    3
 10
1726.040046289562
 20
1577.9931912397926
 11
1680.3284189035589
 21
1577.9931912397926
  0
LINE
  8
_0-2_08_DIM
  6
CONTINUOUS
 62
    3
 10
1624.0400462894715
 20
991.56994570392897
 11
1624.0400462894715
 21
1050.7826265788508
  0
LINE
  8
_0-2_08_DIM
  6
CONTINUOUS
 62
    3
 10
1974.0400462894531
 20
991.56994570392897
 11
1974.0400462894531
 21
1050.7826265788508
  0
LINE
  8
_0-2_08_DIM
  6
CONTINUOUS
 62
    3
 10
1634.0400462894715
 20
1045.7826265788508
 11
1964.0400462894534
 21
1045.7826265788508
  0
INSERT
  2
-011-_Open30
  8
_0-2_08_DIM
 10
1624.0400462894715
 20
1045.7826265788508
 41
10
 42
10
 50
180
  0
INSERT
  2
-011-_Open30
  8
_0-2_08_DIM
 10
1974.0400462894531
 20
1045.7826265788508
 41
10
 42
10
 50
0
  0
LINE
  8
_0-2_08_DIM
  6
CONTINUOUS
 62
    3
 10
2074.0400462894718
 20
968.41099651532841
 11
2074.0400462894718
 21
1082.2089266161456
  0
LINE
  8
_0-2_08_DIM
  6
CONTINUOUS
 62
    3
 10
1524.0400462894424
 20
968.41099651532841
 11
1524.0400462894424
 21
1082.2089266161456
  0
LINE
  8
_0-2_08_DIM
  6
CONTINUOUS
 62
    3
 10
2064.0400462894713
 20
1077.2089266161456
 11
1534.0400462894427
 21
1077.2089266161456
  0
INSERT
  2
-011-_Open30
  8
_0-2_08_DIM
 10
2074.0400462894718
 20
1077.2089266161456
 41
10
 42
10
 50
0
  0
INSERT
  2
-011-_Open30
  8
_0-2_08_DIM
 10
1524.0400462894424
 20
1077.2089266161456
 41
10
 42
10
 50
180
  0
LINE
  8
_0-2_08_DIM
  6
CONTINUOUS
 62
    3
 10
1499.0400462894586
 20
1000.0699457023612
 11
1499.0400462894586
 21
1115.8799652075104
  0
LINE
  8
_0-2_08_DIM
  6
CONTINUOUS
 62
    3
 10
2099.040046289459
 20
1000.0699457023612
 11
2099.040046289459
 21
1115.8799652075104
  0
LINE
  8
_0-2_08_DIM
  6
CONTINUOUS
 62
    3
 10
1509.0400462894586
 20
1110.8799652075104
 11
2089.0400462894586
 21
1110.8799652075104
  0
INSERT
  2
-011-_Open30
  8
_0-2_08_DIM
 10
1499.0400462894586
 20
1110.8799652075104
 41
10
 42
10
 50
180
  0
INSERT
  2
-011-_Open30
  8
_0-2_08_DIM
 10
2099.040046289459
 20
1110.8799652075104
 41
10
 42
10
 50
0
  0
LINE
  8
_0-2_08_DIM
  6
CONTINUOUS
 62
    3
 10
2084.8810971008652
 20
707.56994570393272
 11
2151.0591185148323
 21
707.56994570393272
  0
LINE
  8
_0-2_08_DIM
  6
CONTINUOUS
 62
    3
 10
2110.1804221518996
 20
832.56994570236475
 11
2151.0591185148323
 21
832.56994570236475
  0
LINE
  8
_0-2_08_DIM
  6
CONTINUOUS
 62
    3
 10
2146.0591185148323
 20
717.56994570393272
 11
2146.0591185148323
 21
822.56994570236475
  0
INSERT
  2
-011-_Open30
  8
_0-2_08_DIM
 10
2146.0591185148323
 20
707.56994570393272
 41
10
 42
10
 50
270
  0
INSERT
  2
-011-_Open30
  8
_0-2_08_DIM
 10
2146.0591185148323
 20
832.56994570236475
 41
10
 42
10
 50
90
  0
LINE
  8
_0-2_08_DIM
  6
CONTINUOUS
 62
    3
 10
2110.1804221518996
 20
832.56994570236475
 11
2151.0591185148323
 21
832.56994570236475
  0
LINE
  8
_0-2_08_DIM
  6
CONTINUOUS
 62
    3
 10
2084.8810971008652
 20
957.56994570393272
 11
2151.0591185148323
 21
957.56994570393272
  0
LINE
  8
_0-2_08_DIM
  6
CONTINUOUS
 62
    3
 10
2146.0591185148323
 20
842.56994570236475
 11
2146.0591185148323
 21
947.56994570393272
  0
INSERT
  2
-011-_Open30
  8
_0-2_08_DIM
 10
2146.0591185148323
 20
832.56994570236475
 41
10
 42
10
 50
270
  0
INSERT
  2
-011-_Open30
  8
_0-2_08_DIM
 10
2146.0591185148323
 20
957.56994570393272
 41
10
 42
10
 50
90
  0
LINE
  8
_0-2_08_DIM
  6
CONTINUOUS
 62
    3
 10
2084.881097100867
 20
957.56994570393272
 11
2181.5478172020494
 21
957.56994570393272
  0
LINE
  8
_0-2_08_DIM
  6
CONTINUOUS
 62
    3
 10
2084.8810971008634
 20
707.56994570236111
 11
2181.5478172020494
 21
707.56994570236111
  0
LINE
  8
_0-2_08_DIM
  6
CONTINUOUS
 62
    3
 10
2176.5478172020494
 20
947.56994570393272
 11
2176.5478172020494
 21
717.56994570236111
  0
INSERT
  2
-011-_Open30
  8
_0-2_08_DIM
 10
2176.5478172020494
 20
957.56994570393272
 41
10
 42
10
 50
90
  0
INSERT
  2
-011-_Open30
  8
_0-2_08_DIM
 10
2176.5478172020494
 20
707.56994570236111
 41
10
 42
10
 50
270
  0
LINE
  8
_0-2_08_DIM
  6
CONTINUOUS
 62
    3
 10
2096.5400462894586
 20
1002.5699457023611
 11
2222.7034431672409
 21
1002.5699457023611
  0
LINE
  8
_0-2_08_DIM
  6
CONTINUOUS
 62
    3
 10
2096.5400462894604
 20
662.56994570236122
 11
2222.7034431672409
 21
662.56994570236111
  0
LINE
  8
_0-2_08_DIM
  6
CONTINUOUS
 62
    3
 10
2217.7034431672405
 20
992.569945702361
 11
2217.7034431672405
 21
672.56994570236111
  0
INSERT
  2
-011-_Open30
  8
_0-2_08_DIM
 10
2217.7034431672405
 20
1002.5699457023611
 41
10
 42
10
 50
90
  0
INSERT
  2
-011-_Open30
  8
_0-2_08_DIM
 10
2217.7034431672405
 20
662.56994570236111
 41
10
 42
10
 50
270
  0
LINE
  8
_0-2_08_DIM
  6
CONTINUOUS
 62
    3
 10
1645.0400462895552
 20
1263.2531842923679
 11
1645.0400462895552
 21
1206.3593663378476
  0
LINE
  8
_0-2_08_DIM
  6
CONTINUOUS
 62
    3
 10
1603.0400462895661
 20
1263.2531842923679
 11
1603.0400462895661
 21
1206.3593663378476
  0
LINE
  8
_0-2_08_DIM
  6
CONTINUOUS
 62
    3
 10
1603.0400462895661
 20
1211.3593663378476
 11
1508.0400462895664
 21
1211.3593663378476
  0
LINE
  8
_0-2_08_DIM
  6
CONTINUOUS
 62
    3
 10
1635.0400462895552
 20
1211.3593663378476
 11
1613.0400462895661
 21
1211.3593663378476
  0
INSERT
  2
-011-_Open30
  8
_0-2_08_DIM
 10
1645.0400462895552
 20
1211.3593663378476
 41
10
 42
10
 50
0
  0
INSERT
  2
-011-_Open30
  8
_0-2_08_DIM
 10
1603.0400462895661
 20
1211.3593663378476
 41
10
 42
10
 50
180
  0
INSERT
  2
-011-_Open30
  8
_0-2_08_DIM
 10
1603.0400462895661
 20
1211.3593663378476
 41
10
 42
10
 50
0
  0
LINE
  8
_0-2_08_DIM
  6
CONTINUOUS
 62
    3
 10
1593.0400462895661
 20
1211.3593663378476
 11
1488.3287810423142
 21
1211.3593663378476
  0
LINE
  8
_0-2_08_DIM
  6
CONTINUOUS
 62
    3
 10
1620.0749005483171
 20
627.70464451179396
 11
1694.4582338816506
 21
627.70464451179396
  0
LINE
  8
_0-2_08_DIM
  6
CONTINUOUS
 62
    3
 10
1694.4582338816506
 20
627.70464451179396
 11
1743.225752851238
 21
706.61236013529651
  0
INSERT
  2
-011-_Open30
  8
_0-2_08_DIM
 10
1748.4830537331704
 20
715.11887454701844
 41
10
 42
10
 50
58.282594555275438
  0
INSERT
  2
-011-_Open30
  8
_0-2_08_DIM
 10
1719.0400462970058
 20
1272.7531842905616
 41
10
 42
10
 50
53.72503831781205
  0
LINE
  8
_0-2_08_DIM
  6
CONTINUOUS
 62
    3
 10
1713.1234369895226
 20
1264.6913151336846
 11
1696.3618519434403
 21
1241.8522702549778
  0
LINE
  8
_0-2_08_DIM
  6
CONTINUOUS
 62
    3
 10
1696.3618519434403
 20
1241.8522702549778
 11
1661.3744695931005
 21
1395.5749442335039
  0
LINE
  8
_0-2_08_DIM
  6
CONTINUOUS
 62
    3
 10
2212.9209186731746
 20
1025.4196282509015
 11
2117.729252006508
 21
1025.4196282509015
  0
LINE
  8
_0-2_08_DIM
  6
CONTINUOUS
 62
    3
 10
2117.729252006508
 20
1025.4196282509015
 11
2082.1608186744152
 21
970.18156954354595
  0
INSERT
  2
-011-_Open30
  8
_0-2_08_DIM
 10
2076.7469704177852
 20
961.77382031713717
 41
10
 42
10
 50
237.22204022603478
  0
LINE
  8
_0-2_08_DIM
  6
CONTINUOUS
 62
    3
 10
1494.4689784775951
 20
657.99887789049569
 11
1452.4299723138781
 21
615.95987172677872
  0
INSERT
  2
-011-_Open30
  8
_0-2_08_DIM
 10
1501.5400462894606
 20
665.06994570236122
 41
10
 42
10
 50
45.000000000000028
  0
LINE
  8
_0-2_08_DIM
  6
CONTINUOUS
 62
    3
 10
1626.1707357864586
 20
1828.5140373446193
 11
1726.0707357864587
 21
1828.5140373446193
  0
LINE
  8
_0-2_08_DIM
  6
CONTINUOUS
 62
    3
 10
1726.0707357864587
 20
1828.5140373446193
 11
1745.9446865378916
 21
1850.9127198760912
  0
INSERT
  2
-011-_Open30
  8
_0-2_08_DIM
 10
1752.5816083804086
 20
1858.3927779277594
 41
10
 42
10
 50
48.417928606242562
  0
LINE
  8
_0-2_08_DIM
  6
CONTINUOUS
 62
    3
 10
1886.5400462895623
 20
1750.7531842880933
 11
2166.2381736321377
 21
1750.7531842880933
  0
LINE
  8
_0-2_08_DIM
  6
CONTINUOUS
 62
    3
 10
2101.5400462931711
 20
1320.7531842923681
 11
2166.2381736321377
 21
1320.7531842923681
  0
LINE
  8
_0-2_08_DIM
  6
CONTINUOUS
 62
    3
 10
2161.2381736321381
 20
1740.7531842880933
 11
2161.2381736321381
 21
1330.7531842923681
  0
INSERT
  2
-011-_Open30
  8
_0-2_08_DIM
 10
2161.2381736321381
 20
1750.7531842880933
 41
10
 42
10
 50
90
  0
INSERT
  2
-011-_Open30
  8
_0-2_08_DIM
 10
2161.2381736321381
 20
1320.7531842923681
 41
10
 42
10
 50
270
  0
LINE
  8
_0-2_08_DIM
  6
CONTINUOUS
 62
    3
 10
1886.5400462895623
 20
1750.7531842880933
 11
2166.2381736321377
 21
1750.7531842880933
  0
LINE
  8
_0-2_08_DIM
  6
CONTINUOUS
 62
    3
 10
1981.54004629678
 20
1870.7531842880933
 11
2166.2381736321377
 21
1870.7531842880933
  0
LINE
  8
_0-2_08_DIM
  6
CONTINUOUS
 62
    3
 10
2161.2381736321381
 20
1760.7531842880935
 11
2161.2381736321381
 21
1860.7531842880931
  0
INSERT
  2
-011-_Open30
  8
_0-2_08_DIM
 10
2161.2381736321381
 20
1750.7531842880933
 41
10
 42
10
 50
270
  0
INSERT
  2
-011-_Open30
  8
_0-2_08_DIM
 10
2161.2381736321381
 20
1870.7531842880933
 41
10
 42
10
 50
90
  0
LINE
  8
_0-2_08_DIM
  6
CONTINUOUS
 62
    3
 10
2101.5400462931711
 20
1320.7531842923681
 11
2202.1003761387465
 21
1320.7531842923681
  0
LINE
  8
_0-2_08_DIM
  6
CONTINUOUS
 62
    3
 10
2101.5400462931711
 20
1265.7531842923679
 11
2202.1003761387465
 21
1265.7531842923679
  0
LINE
  8
_0-2_08_DIM
  6
CONTINUOUS
 62
    3
 10
2197.1003761387465
 20
1310.7531842923679
 11
2197.1003761387465
 21
1275.7531842923679
  0
INSERT
  2
-011-_Open30
  8
_0-2_08_DIM
 10
2197.1003761387465
 20
1320.7531842923681
 41
10
 42
10
 50
90
  0
INSERT
  2
-011-_Open30
  8
_0-2_08_DIM
 10
2197.1003761387465
 20
1265.7531842923679
 41
10
 42
10
 50
270
  0
LINE
  8
_0-2_08_DIM
  6
CONTINUOUS
 62
    3
 10
2101.5400462931711
 20
1320.7531842923681
 11
2202.1003761387465
 21
1320.7531842923681
  0
LINE
  8
_0-2_08_DIM
  6
CONTINUOUS
 62
    3
 10
1981.54004629678
 20
1870.7531842880933
 11
2202.1003761387465
 21
1870.7531842880933
  0
LINE
  8
_0-2_08_DIM
  6
CONTINUOUS
 62
    3
 10
2197.1003761387465
 20
1330.7531842923681
 11
2197.1003761387465
 21
1860.7531842880931
  0
INSERT
  2
-011-_Open30
  8
_0-2_08_DIM
 10
2197.1003761387465
 20
1320.7531842923681
 41
10
 42
10
 50
270
  0
INSERT
  2
-011-_Open30
  8
_0-2_08_DIM
 10
2197.1003761387465
 20
1870.7531842880933
 41
10
 42
10
 50
90
  0
LINE
  8
_0-2_08_DIM
  6
CONTINUOUS
 62
    3
 10
1940.5400462932839
 20
1270.7531842905619
 11
2047.6277377783351
 21
1270.7531842905619
  0
LINE
  8
_0-2_08_DIM
  6
CONTINUOUS
 62
    3
 10
2045.1277377783354
 20
1265.7531842923679
 11
2037.6277377783351
 21
1265.7531842923679
  0
LINE
  8
_0-2_08_DIM
  6
CONTINUOUS
 62
    3
 10
2042.6277377783351
 20
1255.7531842923677
 11
2042.6277377783351
 21
1192.0031842923679
  0
LINE
  8
_0-2_08_DIM
  6
CONTINUOUS
 62
    3
 10
2042.6277377783351
 20
1270.7531842905619
 11
2042.6277377783351
 21
1265.7531842923679
  0
LINE
  8
_0-2_08_DIM
  6
CONTINUOUS
 62
    3
 10
2042.6277377783351
 20
1280.7531842905616
 11
2042.6277377783351
 21
1290.7531842905616
  0
INSERT
  2
-011-_Open30
  8
_0-2_08_DIM
 10
2042.6277377783351
 20
1270.7531842905619
 41
10
 42
10
 50
270
  0
INSERT
  2
-011-_Open30
  8
_0-2_08_DIM
 10
2042.6277377783351
 20
1265.7531842923679
 41
10
 42
10
 50
90
  0
INSERT
  2
-012-AM_DATUM
  8
_0-2_08_DIM
 10
2132.2638993419346
 20
1219.0423067120043
 41
4
 42
4
 50
0
  0
TEXT
  8
_0-5_0
 62
    7
 10
2127.1210421990772
 20
1213.0423067120043
 40
12
 41
1
 50
0
  1
A
  0
INSERT
  2
-013-_DatumFilled
  8
_0-2_08_DIM
 10
2132.2638993419346
 20
1265.7531842923679
 41
8
 42
8
 50
90
  0
LINE
  8
_0-2_08_DIM
  6
CONTINUOUS
 62
    3
 10
2132.2638993419346
 20
1257.7531842923679
 11
2132.2638993419346
 21
1231.0423067120043
  0
INSERT
  2
-011-_Open30
  8
_0-2_08_DIM
 10
2042.6277377783351
 20
1270.7531842905619
 41
10
 42
10
 50
270
  0
LINE
  8
_0-2_08_DIM
  6
CONTINUOUS
 62
    3
 10
2042.6277377783351
 20
1280.7531842905616
 11
2042.6277377783351
 21
1366.3417222328198
  0
LINE
  8
_0-2_08_DIM
  6
CONTINUOUS
 62
    3
 10
2042.6277377783351
 20
1366.3417222328198
 11
2236.9649903264517
 21
1366.3417222328198
  0
INSERT
  2
-011-_Open30
  8
_0-2_08_DIM
 10
2218.2724231255515
 20
1320.7531842923681
 41
10
 42
10
 50
270
  0
LINE
  8
_0-2_08_DIM
  6
CONTINUOUS
 62
    3
 10
2218.2724231255515
 20
1330.7531842923681
 11
2218.2724231255515
 21
1366.3417222328198
  0
LINE
  8
_0-2_08_DIM
  6
CONTINUOUS
 62
    3
 10
1619.0400462895625
 20
1873.2531842880931
 11
1619.0400462895625
 21
1960.5894699525638
  0
LINE
  8
_0-2_08_DIM
  6
CONTINUOUS
 62
    3
 10
1979.0400462967802
 20
1873.2531842880931
 11
1979.0400462967802
 21
1960.5894699525638
  0
LINE
  8
_0-2_08_DIM
  6
CONTINUOUS
 62
    3
 10
1629.0400462895625
 20
1955.5894699525634
 11
1969.04004629678
 21
1955.5894699525634
  0
INSERT
  2
-011-_Open30
  8
_0-2_08_DIM
 10
1619.0400462895625
 20
1955.5894699525634
 41
10
 42
10
 50
180
  0
INSERT
  2
-011-_Open30
  8
_0-2_08_DIM
 10
1979.0400462967802
 20
1955.5894699525634
 41
10
 42
10
 50
0
  0
LINE
  8
_0-2_08_DIM
  6
CONTINUOUS
 62
    3
 10
1867.0400462967802
 20
1753.2531842880933
 11
1867.0400462967802
 21
1930.3538141149456
  0
LINE
  8
_0-2_08_DIM
  6
CONTINUOUS
 62
    3
 10
1731.0400462895625
 20
1753.2531842880933
 11
1731.0400462895625
 21
1930.3538141149456
  0
LINE
  8
_0-2_08_DIM
  6
CONTINUOUS
 62
    3
 10
1857.0400462967802
 20
1925.3538141149459
 11
1741.0400462895625
 21
1925.3538141149459
  0
INSERT
  2
-011-_Open30
  8
_0-2_08_DIM
 10
1867.0400462967802
 20
1925.3538141149459
 41
10
 42
10
 50
0
  0
INSERT
  2
-011-_Open30
  8
_0-2_08_DIM
 10
1731.0400462895625
 20
1925.3538141149459
 41
10
 42
10
 50
180
  0
LINE
  8
_0-2_08_DIM
  6
CONTINUOUS
 62
    3
 10
1864.5400462967805
 20
1745.7531842880931
 11
1983.1057205229881
 21
1745.7531842880931
  0
LINE
  8
_0-2_08_DIM
  6
CONTINUOUS
 62
    3
 10
1886.5400462895616
 20
1750.7531842880981
 11
1983.1057205229881
 21
1750.7531842880981
  0
LINE
  8
_0-2_08_DIM
  6
CONTINUOUS
 62
    3
 10
1978.1057205229883
 20
1760.7531842880981
 11
1978.1057205229883
 21
1783.7531842880978
  0
LINE
  8
_0-2_08_DIM
  6
CONTINUOUS
 62
    3
 10
1978.1057205229883
 20
1745.7531842880931
 11
1978.1057205229883
 21
1750.7531842880981
  0
LINE
  8
_0-2_08_DIM
  6
CONTINUOUS
 62
    3
 10
1978.1057205229883
 20
1735.7531842880935
 11
1978.1057205229883
 21
1725.7531842880933
  0
INSERT
  2
-011-_Open30
  8
_0-2_08_DIM
 10
1978.1057205229883
 20
1745.7531842880931
 41
10
 42
10
 50
90
  0
INSERT
  2
-011-_Open30
  8
_0-2_08_DIM
 10
1978.1057205229883
 20
1750.7531842880981
 41
10
 42
10
 50
270
  0
LINE
  8
_0-2_08_DIM
  6
CONTINUOUS
 62
    3
 10
1866.1767976427284
 20
1752.9182477975542
 11
1892.5703358213134
 21
1798.6331969143725
  0
LINE
  8
_0-2_08_DIM
  6
CONTINUOUS
 62
    3
 10
1731.9032949436144
 20
1752.9182477975542
 11
1705.5097567650291
 21
1798.6331969143725
  0
ARC
  8
_0-2_08_DIM
  6
CONTINUOUS
 62
    3
 10
1799.0400462931714
 20
1636.6339834050038
 40
182.06057905628342
 50
63.147467985334686
 51
116.85253201466533
  0
INSERT
  2
-011-_Open30
  8
_0-2_08_DIM
 10
1890.0703358213132
 20
1794.3030698954499
 41
10
 42
10
 50
331.57373399266731
  0
INSERT
  2
-011-_Open30
  8
_0-2_08_DIM
 10
1708.0097567650294
 20
1794.3030698954499
 41
10
 42
10
 50
208.42626600733271
  0
LINE
  8
_0-2_08_DIM
  6
CONTINUOUS
 62
    3
 10
1887.0400462895625
 20
1747.7531842880931
 11
1932.9915198763026
 21
1701.8017107013529
  0
LINE
  8
_0-2_08_DIM
  6
CONTINUOUS
 62
    3
 10
1934.9972668076769
 20
1713.9380993937098
 11
1957.1627371214702
 21
1736.1035697075033
  0
INSERT
  2
-011-_Open30
  8
_0-2_08_DIM
 10
1927.9261989958111
 20
1706.8670315818442
 41
10
 42
10
 50
225.00000000000014
  0
LINE
  8
_0-2_08_DIM
  6
CONTINUOUS
 62
    3
 10
1920.8358349480432
 20
1810.2765084421171
 11
1918.6407446394671
 21
1808.0814181335404
  0
LINE
  8
_0-2_08_DIM
  6
CONTINUOUS
 62
    3
 10
1921.6848841822291
 20
1809.4274939477152
 11
1919.4897765037597
 21
1807.2323862692479
  0
LINE
  8
_0-2_08_DIM
  6
CONTINUOUS
 62
    3
 10
1930.096378221559
 20
1803.6968523633138
 11
1954.8451155630885
 21
1778.9481150217846
  0
LINE
  8
_0-2_08_DIM
  6
CONTINUOUS
 62
    3
 10
1922.1762785453996
 20
1811.6169520394733
 11
1923.0253104096937
 21
1810.7679201751791
  0
LINE
  8
_0-2_08_DIM
  6
CONTINUOUS
 62
    3
 10
1915.1052107335342
 20
1818.6880198513386
 11
1908.0341429216687
 21
1825.7590876632041
  0
INSERT
  2
-011-_Open30
  8
_0-2_08_DIM
 10
1922.1762785453996
 20
1811.6169520394733
 41
10
 42
10
 50
315
  0
INSERT
  2
-011-_Open30
  8
_0-2_08_DIM
 10
1923.0253104096937
 20
1810.7679201751791
 41
10
 42
10
 50
135
  0
INSERT
  2
-011-_Open30
  8
_0-2_08_DIM
 10
1888.0400462974501
 20
1322.7531842923681
 41
10
 42
10
 50
246.22336681511089
  0
LINE
  8
_0-2_08_DIM
  6
CONTINUOUS
 62
    3
 10
1892.0717674650543
 20
1331.9044259800676
 11
1915.3325961728622
 21
1384.7020914217539
  0
LINE
  8
_0-2_08_DIM
  6
CONTINUOUS
 62
    3
 10
1703.0400462931714
 20
1323.2531842895326
 11
1703.0400462931714
 21
1450.3284933407256
  0
LINE
  8
_0-2_08_DIM
  6
CONTINUOUS
 62
    3
 10
1895.0400462931714
 20
1323.2531842895326
 11
1895.0400462931714
 21
1450.3284933407256
  0
LINE
  8
_0-2_08_DIM
  6
CONTINUOUS
 62
    3
 10
1713.0400462931714
 20
1445.3284933407256
 11
1885.0400462931714
 21
1445.3284933407256
  0
INSERT
  2
-011-_Open30
  8
_0-2_08_DIM
 10
1703.0400462931714
 20
1445.3284933407256
 41
10
 42
10
 50
180
  0
INSERT
  2
-011-_Open30
  8
_0-2_08_DIM
 10
1895.0400462931714
 20
1445.3284933407256
 41
10
 42
10
 50
0
  0
LINE
  8
_0-2_08_DIM
  6
CONTINUOUS
 62
    3
 10
2099.0400463011715
 20
1323.2531842923679
 11
2099.0400463011715
 21
1450.3284933407256
  0
LINE
  8
_0-2_08_DIM
  6
CONTINUOUS
 62
    3
 10
1895.0400462931714
 20
1323.2531842895326
 11
1895.0400462931714
 21
1450.3284933407256
  0
LINE
  8
_0-2_08_DIM
  6
CONTINUOUS
 62
    3
 10
2089.0400463011715
 20
1445.3284933407256
 11
1905.0400462931711
 21
1445.3284933407256
  0
INSERT
  2
-011-_Open30
  8
_0-2_08_DIM
 10
2099.0400463011715
 20
1445.3284933407256
 41
10
 42
10
 50
0
  0
INSERT
  2
-011-_Open30
  8
_0-2_08_DIM
 10
1895.0400462931714
 20
1445.3284933407256
 41
10
 42
10
 50
180
  0
LINE
  8
_0-2_08_DIM
  6
CONTINUOUS
 62
    3
 10
1703.0400462931714
 20
1323.2531842895326
 11
1703.0400462931714
 21
1450.3284933407256
  0
LINE
  8
_0-2_08_DIM
  6
CONTINUOUS
 62
    3
 10
1499.0400463011717
 20
1323.2531842923679
 11
1499.0400463011717
 21
1450.3284933407256
  0
LINE
  8
_0-2_08_DIM
  6
CONTINUOUS
 62
    3
 10
1693.0400462931711
 20
1445.3284933407256
 11
1509.0400463011715
 21
1445.3284933407256
  0
INSERT
  2
-011-_Open30
  8
_0-2_08_DIM
 10
1703.0400462931714
 20
1445.3284933407256
 41
10
 42
10
 50
0
  0
INSERT
  2
-011-_Open30
  8
_0-2_08_DIM
 10
1499.0400463011717
 20
1445.3284933407256
 41
10
 42
10
 50
180
  0
LINE
  8
_0-2_08_DIM
  6
CONTINUOUS
 62
    3
 10
1885.4820411240344
 20
630.39645894498608
 11
1838.9820411240344
 21
630.39645894498597
  0
LINE
  8
_0-2_08_DIM
  6
CONTINUOUS
 62
    3
 10
1838.9820411240344
 20
630.39645894498597
 11
1821.7166041531809
 21
717.78852855184721
  0
LINE
  8
_0-2_08_DIM
  6
CONTINUOUS
 62
    3
 10
1776.3634884258431
 20
947.35136285615454
 11
1819.7784368144059
 21
727.5989060862189
  0
INSERT
  2
-011-_Open30
  8
_0-2_08_DIM
 10
1776.3634884258431
 20
947.35136285615454
 41
10
 42
10
 50
101.17560876932191
  0
INSERT
  2
-011-_Open30
  8
_0-2_08_DIM
 10
1821.7166041531809
 20
717.78852855184721
 41
10
 42
10
 50
281.17560876932191
  0
LINE
  8
_0-2_08_DIM
  6
CONTINUOUS
 62
    3
 10
1807.1383252847074
 20
1910.7531842836638
 11
2202.1003761387465
 21
1910.7531842836638
  0
LINE
  8
_0-2_08_DIM
  6
CONTINUOUS
 62
    3
 10
1981.54004629678
 20
1870.7531842880933
 11
2202.1003761387465
 21
1870.7531842880933
  0
LINE
  8
_0-2_08_DIM
  6
CONTINUOUS
 62
    3
 10
2197.1003761387465
 20
1900.7531842836638
 11
2197.1003761387465
 21
1880.7531842880933
  0
INSERT
  2
-011-_Open30
  8
_0-2_08_DIM
 10
2197.1003761387465
 20
1910.7531842836638
 41
10
 42
10
 50
90
  0
INSERT
  2
-011-_Open30
  8
_0-2_08_DIM
 10
2197.1003761387465
 20
1870.7531842880933
 41
10
 42
10
 50
270
  0
TEXT
  8
_0-3_07_TEXT
 62
    3
 10
2690.4906192524259
 20
970.07947844668558
 40
12
 41
1
 50
0
  1
ÆŹŗL
  0
TEXT
  8
_0-3_07_TEXT
 62
    3
 10
2691.4506192524259
 20
947.76347844668567
 40
12
 41
1
 50
0
  1
ü@ÄwÄ”é╚é½ŖpĢöé═
  0
TEXT
  8
_0-3_07_TEXT
 62
    3
 10
2820.7506192524256
 20
947.76347844668567
 40
12
 41
1
 50
0
  1
C0.5
  0
TEXT
  8
_0-3_07_TEXT
 62
    3
 10
2861.3220478238541
 20
947.76347844668567
 40
12
 41
1
 50
0
  1
é╠é▒éŲ
  0
TEXT
  8
_0-3_07_TEXT
 62
    3
 10
2691.4506192524259
 20
925.38747844668569
 40
12
 41
1
 50
0
  1
ü@ŚnÉ┌īŃē┴ŹHé╠é▒éŲ
  0
TEXT
  8
_0-3_07_TEXT
 62
    3
 10
2691.4506192524259
 20
903.21547844668567
 40
12
 41
1
 50
0
  1
ü@ÄwÄ”é╚é½ŚnÉ┌Ģöé═ü@ü@ü@ü@é╠é▒éŲ
  0
TEXT
  8
_0-2_08_DIM
 62
    3
 10
2195.2986130509489
 20
763.63489199738365
 40
12
 41
1
 50
90
  1
(
  0
TEXT
  8
_0-2_08_DIM
 62
    3
 10
2195.2986130509489
 20
771.63489199738365
 40
12
 41
1
 50
90
  1
ī÷ŹĘé═
  0
TEXT
  8
_0-2_08_DIM
 62
    3
 10
2195.2986130509489
 20
823.97889199738381
 40
12
 41
1
 50
90
  1
H7
  0
TEXT
  8
_0-2_08_DIM
 62
    3
 10
2195.2986130509489
 20
847.97889199738381
 40
12
 41
1
 50
90
  1
īŖé╔ōKŚp
  0
TEXT
  8
_0-2_08_DIM
 62
    3
 10
2195.2986130509489
 20
916.75089199738431
 40
12
 41
1
 50
90
  1
)
  0
TEXT
  8
_0-3_07_TEXT
 62
    3
 10
1158.7704116689858
 20
1942.8549850924562
 40
18
 41
1
 50
0
  1
Ģ\¢╩ÅłŚØüFü¢ü¢ü¢
  0
TEXT
  8
_0-3_07_TEXT
 62
    4
 10
2539.0173634575135
 20
2033.240332054758
 40
36
 41
1
 50
0
  1
é▒é╠Ģöł╩üA
  0
TEXT
  8
_0-3_07_TEXT
 62
    4
 10
2772.5493634575137
 20
2033.240332054758
 40
36
 41
1
 50
0
  1
SUS
  0
TEXT
  8
_0-3_07_TEXT
 62
    4
 10
2878.8350777432283
 20
2033.240332054758
 40
36
 41
1
 50
0
  1
é╔ĢŽŹX
  0
TEXT
  8
_0-3_07_TEXT
 62
    4
 10
2540.8533634575138
 20
1974.1383220210314
 40
36
 41
1
 50
0
  1
ī·é▌é═ŗ▀ÄŚÆlé╔é─öCłė
  0
TEXT
  8
_0-2_08_DIM
 62
    3
 10
1762.4686177217425
 20
1580.4931912397926
 40
12
 41
1
 50
0
  1
?126
  0
TEXT
  8
_0-2_08_DIM
 62
    3
 10
1806.08766534079
 20
1591.1598579064591
 40
8
 41
1
 50
0
  1
+0.2
  0
TEXT
  8
_0-2_08_DIM
 62
    3
 10
1806.08766534079
 20
1580.4931912397926
 40
8
 41
1
 50
0
  1
+0.1
  0
TEXT
  8
_0-2_08_DIM
 62
    3
 10
1776.1829034324196
 20
1638.3734939443766
 40
12
 41
1
 50
0
  1
?174
  0
TEXT
  8
_0-2_08_DIM
 62
    3
 10
1747.0400462932841
 20
1215.8593663378476
 40
12
 41
1
 50
0
  1
?164h7/H7
  0
TEXT
  8
_0-2_08_DIM
 62
    3
 10
1776.4686177199944
 20
1184.9504259281209
 40
12
 41
1
 50
0
  1
?278
  0
TEXT
  8
_0-2_08_DIM
 62
    3
 10
1906.8257605752767
 20
1580.4931912397926
 40
12
 41
1
 50
0
  1
24
  0
TEXT
  8
_0-2_08_DIM
 62
    3
 10
1758.8971891466053
 20
1048.5290551502794
 40
12
 41
1
 50
0
  1
350
  0
TEXT
  8
_0-2_08_DIM
 62
    3
 10
1793.1829034323196
 20
1048.5290551502794
 40
10
 41
1
 50
0
  1
ü}0.05
  0
TEXT
  8
_0-2_08_DIM
 62
    3
 10
1781.8971891465999
 20
1079.7255932828123
 40
12
 41
1
 50
0
  1
550
  0
TEXT
  8
_0-2_08_DIM
 62
    3
 10
1781.6114748608875
 20
1113.3799652075104
 40
12
 41
1
 50
0
  1
600
  0
TEXT
  8
_0-2_08_DIM
 62
    3
 10
2143.5507851814991
 20
752.06994570314873
 40
12
 41
1
 50
90
  1
125
  0
TEXT
  8
_0-2_08_DIM
 62
    3
 10
2143.5507851814991
 20
877.06994570314862
 40
12
 41
1
 50
90
  1
125
  0
TEXT
  8
_0-2_08_DIM
 62
    3
 10
2173.8013886306203
 20
792.4270885602898
 40
12
 41
1
 50
90
  1
250
  0
TEXT
  8
_0-2_08_DIM
 62
    3
 10
2173.8013886306203
 20
826.71280284600402
 40
10
 41
1
 50
90
  1
ü}0.05
  0
TEXT
  8
_0-2_08_DIM
 62
    3
 10
2215.2034431672405
 20
815.42708855950389
 40
12
 41
1
 50
90
  1
340
  0
TEXT
  8
_0-2_08_DIM
 62
    3
 10
1508.5400462895659
 20
1213.8593663378476
 40
12
 41
1
 50
0
  1
4-?42H7
  0
TEXT
  8
_0-2_08_DIM
 62
    3
 10
1504.6537605752801
 20
1198.8593663378476
 40
12
 41
1
 50
0
  1
(
  0
TEXT
  8
_0-2_08_DIM
 62
    3
 10
1512.6537605752801
 20
1198.8593663378476
 40
12
 41
1
 50
0
  1
Ś╝ī¹ī│
  0
TEXT
  8
_0-2_08_DIM
 62
    3
 10
1564.9977605752802
 20
1198.8593663378476
 40
12
 41
1
 50
0
  1
C1)
  0
TEXT
  8
_0-2_08_DIM
 62
    3
 10
1616.6499957864125
 20
634.84750165465118
 40
12
 41
1
 50
0
  1
8-22
  0
TEXT
  8
_0-2_08_DIM
 62
    3
 10
1665.7928529292697
 20
634.84750165465118
 40
12
 41
1
 50
0
  1
āLāŖ
  0
TEXT
  8
_0-2_08_DIM
 62
    3
 10
1616.8542815006981
 20
612.78664451179395
 40
12
 41
1
 50
0
  1
(45üŗ
  0
TEXT
  8
_0-2_08_DIM
 62
    3
 10
1652.2828529292697
 20
612.78664451179395
 40
12
 41
1
 50
0
  1
ōÖöz
  0
TEXT
  8
_0-2_08_DIM
 62
    3
 10
1687.1788529292696
 20
612.78664451179395
 40
12
 41
1
 50
0
  1
)
  0
TEXT
  8
_0-2_08_DIM
 62
    3
 10
2117.5623948636508
 20
1028.7716282509016
 40
12
 41
1
 50
0
  1
6-M10
  0
TEXT
  8
_0-2_08_DIM
 62
    3
 10
2180.4195377207939
 20
1028.7716282509016
 40
12
 41
1
 50
0
  1
É[
  0
TEXT
  8
_0-2_08_DIM
 62
    3
 10
2197.8675377207937
 20
1028.7716282509016
 40
12
 41
1
 50
0
  1
20
  0
TEXT
  8
_0-2_08_DIM
 62
    3
 10
1450.4037746682641
 20
617.48099310011708
 40
12
 41
1
 50
45
  1
4-C5
  0
TEXT
  8
_0-2_08_DIM
 62
    3
 10
1657.1564500721729
 20
1835.6568944874766
 40
12
 41
1
 50
0
  1
R70
  0
TEXT
  8
_0-2_08_DIM
 62
    3
 10
1614.5267357864586
 20
1814.5140373446195
 40
12
 41
1
 50
0
  1
(
  0
TEXT
  8
_0-2_08_DIM
 62
    3
 10
1622.5267357864586
 20
1814.5140373446195
 40
12
 41
1
 50
0
  1
ÄĶæOé╠é▌Éžīć
  0
TEXT
  8
_0-2_08_DIM
 62
    3
 10
1727.2147357864585
 20
1814.5140373446195
 40
12
 41
1
 50
0
  1
)
  0
TEXT
  8
_0-2_08_DIM
 62
    3
 10
2158.7381736321377
 20
1518.6103271473735
 40
12
 41
1
 50
90
  1
430
  0
TEXT
  8
_0-2_08_DIM
 62
    3
 10
2156.7381736321381
 20
1785.6103271452359
 40
12
 41
1
 50
90
  1
(120)
  0
TEXT
  8
_0-2_08_DIM
 62
    3
 10
2194.5837094720805
 20
1281.8246128637963
 40
12
 41
1
 50
90
  1
55
  0
TEXT
  8
_0-2_08_DIM
 62
    3
 10
2192.58370947208
 20
1570.6103271473735
 40
12
 41
1
 50
90
  1
(550)
  0
TEXT
  8
_0-2_08_DIM
 62
    3
 10
2039.8813092069065
 20
1190.1638985780824
 40
12
 41
1
 50
90
  1
5
  0
TEXT
  8
_0-2_08_DIM
 62
    3
 10
2039.8813092069065
 20
1201.5924700066535
 40
10
 41
1
 50
90
  1
ü}0.05
  0
TEXT
  8
_0-2_08_DIM
 62
    3
 10
1776.4686177217429
 20
1958.0894699525634
 40
12
 41
1
 50
0
  1
?360
  0
TEXT
  8
_0-2_08_DIM
 62
    3
 10
1776.4686177217429
 20
1927.8538141149456
 40
12
 41
1
 50
0
  1
?136
  0
TEXT
  8
_0-2_08_DIM
 62
    3
 10
1975.5973871896547
 20
1771.5388985738123
 40
12
 41
1
 50
90
  1
5
  0
TEXT
  8
_0-2_08_DIM
 62
    3
 10
1785.0400462931714
 20
1821.194562461287
 40
12
 41
1
 50
0
  1
60üŗ
  0
TEXT
  8
_0-2_08_DIM
 62
    3
 10
1938.2728845383442
 20
1720.7492510303102
 40
12
 41
1
 50
45.000000000000966
  1
C2
  0
TEXT
  8
_0-2_08_DIM
 62
    3
 10
1937.0664307789693
 20
1800.2623337118364
 40
12
 41
1
 50
-44.999999999998622
  1
1.2
  0
TEXT
  8
_0-2_08_DIM
 62
    3
 10
1768.4686177217429
 20
1449.8284933407256
 40
12
 41
1
 50
0
  1
(?192)
  0
TEXT
  8
_0-2_08_DIM
 62
    3
 10
1971.8971891543142
 20
1449.8284933407256
 40
12
 41
1
 50
0
  1
(204)
  0
TEXT
  8
_0-2_08_DIM
 62
    3
 10
1936.7560462971715
 20
1432.8284933407256
 40
12
 41
1
 50
0
  1
(
  0
TEXT
  8
_0-2_08_DIM
 62
    3
 10
1944.7560462971715
 20
1432.8284933407256
 40
12
 41
1
 50
0
  1
ü@ü@ü@ē┴ŹHö═ł═
  0
TEXT
  8
_0-2_08_DIM
 62
    3
 10
2049.3240462971721
 20
1432.8284933407256
 40
12
 41
1
 50
0
  1
)
  0
TEXT
  8
_0-2_08_DIM
 62
    3
 10
1575.8971891543142
 20
1449.8284933407256
 40
12
 41
1
 50
0
  1
(204)
  0
TEXT
  8
_0-2_08_DIM
 62
    3
 10
1540.7560462971715
 20
1432.8284933407256
 40
12
 41
1
 50
0
  1
(
  0
TEXT
  8
_0-2_08_DIM
 62
    3
 10
1548.7560462971715
 20
1432.8284933407256
 40
12
 41
1
 50
0
  1
ü@ü@ü@ē┴ŹHö═ł═
  0
TEXT
  8
_0-2_08_DIM
 62
    3
 10
1653.3240462971714
 20
1432.8284933407256
 40
12
 41
1
 50
0
  1
)
  0
TEXT
  8
_0-2_08_DIM
 62
    3
 10
1840.6248982668917
 20
632.89645894498597
 40
12
 41
1
 50
0
  1
?234
  0
TEXT
  8
_0-2_08_DIM
 62
    3
 10
2192.6003761387465
 20
1871.3246128573073
 40
12
 41
1
 50
90
  1
(40)
  0
TEXT
  8
_0-0_90_FRAME
 62
    3
 10
1199.9790795374033
 20
265.9243319834145
 40
12
 41
1
 50
0
  1
Äøōc
  0
TEXT
  8
_0-0_90_FRAME
 62
    3
 10
893.46598954792398
 20
265.9243319834145
 40
12
 41
0.65
 50
0
  1
2013.09.01
  0
TEXT
  8
_0-0_90_FRAME
 62
    3
 10
973.43273893396747
 20
265.9243319834145
 40
12
 41
1
 50
0
  1
āGāAü[ö▓é½ÆŪē┴
  0
TEXT
  8
_0-3_07_TEXT
 62
    3
 10
2689.3798650900976
 20
881.49396952669179
 40
12
 41
1
 50
0
  1
ü@ōÓ¢╩ŗyéčē┴ŹH¢╩é═ōhæĢĢsē┬
  0
INSERT
  2
-003-Jis_w20130906110600
  8
_0-2_08_DIM
 10
2811.5441097745611
 20
915.91610141311162
 41
2.3999999999999999
 42
2.3999999999999999
 50
0
  0
TEXT
  8
_0-5_0
 62
    7
 10
1752.1233679497518
 20
261.06018964159199
 40
27.30763311321126
 41
1
 50
0
  1
A3ü@150%
  0
ENDSEC
  0
EOF
