  0
SECTION
  2
HEADER
  9
$ACADVER
  1
AC1009
  9
$INSBASE
 10
0
 20
0
 30
0
  9
$EXTMIN
 10
0
 20
0
  9
$EXTMAX
 10
5319.1586489804095
 20
3761.4050446361466
  9
$LIMMIN
 10
0
 20
0
  9
$LIMMAX
 10
5319.1586489804095
 20
3761.4050446361466
  9
$LTSCALE
 40
12.664663449953355
  0
ENDSEC
  0
SECTION
  2
TABLES
  0
TABLE
  2
LTYPE
 70
     9
  0
LTYPE
  2
CONTINUOUS
 70
    64
  3
Ä└É³
 72
    65
 73
     0
 40
0.0
  0
LTYPE
  2
DASHED1
 70
    64
  3
--  --  --  --  --  --  --  --  
 72
    65
 73
     2
 40
2.5
 49
1.25
 49
-1.25
  0
LTYPE
  2
DASHED2
 70
    64
  3
----    ----    ----    ----    
 72
    65
 73
     2
 40
5.0
 49
2.5
 49
-2.5
  0
LTYPE
  2
DASHED3
 70
    64
  3
------  ------  ------  ------  
 72
    65
 73
     2
 40
5.0
 49
3.75
 49
-1.25
  0
LTYPE
  2
CENTER1
 70
    64
  3
----- - ----- - ----- - ----- - 
 72
    65
 73
     4
 40
10.0
 49
6.25
 49
-1.25
 49
1.25
 49
-1.25
  0
LTYPE
  2
CENTER2
 70
    64
  3
----------  --  ----------  --  
 72
    65
 73
     4
 40
20.0
 49
12.5
 49
-2.5
 49
2.5
 49
-2.5
  0
LTYPE
  2
PHANTOM1
 70
    64
  3
--- - - --- - - --- - - --- - - 
 72
    65
 73
     6
 40
10.0
 49
3.25
 49
-1.25
 49
1.25
 49
-1.25
 49
1.25
 49
-1.25
  0
LTYPE
  2
PHANTOM2
 70
    64
  3
--------  -  -  --------  -  -  
 72
    65
 73
     6
 40
20.0
 49
10.0
 49
-2.5
 49
1.25
 49
-2.5
 49
1.25
 49
-2.5
  0
LTYPE
  2
DOT
 70
    64
  3
-   -   -   -   -   -   -   -   
 72
    65
 73
     2
 40
2.5
 49
0.625
 49
-1.875
  0
LTYPE
  2
DUMMY
 70
    64
  3
ā_ā~ü[
 72
    65
 73
     0
 40
0.0
  0
LTYPE
  2
RAND1
 70
    64
  3
āēāōā_āĆÉ³1
 72
    65
 73
     4
 40
10.0
 49
1.0
 49
-2.0
 49
3.0
 49
-4.0
  0
LTYPE
  2
RAND2
 70
    64
  3
āēāōā_āĆÉ³2
 72
    65
 73
     4
 40
14.0
 49
2.0
 49
-3.0
 49
4.0
 49
-5.0
  0
LTYPE
  2
RAND3
 70
    64
  3
āēāōā_āĆÉ³3
 72
    65
 73
     4
 40
18.0
 49
3.0
 49
-4.0
 49
5.0
 49
-6.0
  0
LTYPE
  2
RAND4
 70
    64
  3
āēāōā_āĆÉ³4
 72
    65
 73
     4
 40
22.0
 49
4.0
 49
-5.0
 49
6.0
 49
-7.0
  0
LTYPE
  2
RAND5
 70
    64
  3
āēāōā_āĆÉ³5
 72
    65
 73
     4
 40
26.0
 49
5.0
 49
-6.0
 49
7.0
 49
-8.0
  0
LTYPE
  2
LONG1
 70
    64
  3
----------  --  ----------  --  
 72
    65
 73
     4
 40
40.0
 49
32.5
 49
-2.5
 49
2.5
 49
-2.5
  0
LTYPE
  2
LONG2
 70
    64
  3
--------  -  -  --------  -  -  
 72
    65
 73
     6
 40
40.0
 49
30.0
 49
-2.5
 49
1.25
 49
-2.5
 49
1.25
 49
-2.5
  0
LTYPE
  2
LONG3
 70
    64
  3
+++++++++++++++..+++++++++++++++
 72
    65
 73
     2
 40
40.0
 49
37.5
 49
-2.5
  0
LTYPE
  2
LONG4
 70
    64
  3
+++++++++++++++..+++++++++++++++
 72
    65
 73
     2
 40
80.0
 49
75.0
 49
-5.0
  0
LTYPE
  2
LONG5
 70
    64
  3
----------  --  ----------  --  
 72
    65
 73
     4
 40
60.0
 49
37.5
 49
-7.5
 49
7.5
 49
-7.5
  0
LTYPE
  2
dashed
 70
   64
  3
-------   -------------   ------
 72
   65
 73
    2
 40
7.5
 49
6
 49
-1.5
  0
LTYPE
  2
dashed_spaced
 70
   64
  3
----        --------        ----
 72
   65
 73
    2
 40
12
 49
6
 49
-6
  0
LTYPE
  2
long_dashed_dotted
 70
   64
  3
------------- --- --------------
 72
   65
 73
    4
 40
15.25
 49
12
 49
-1.5
 49
0.25
 49
-1.5
  0
LTYPE
  2
long_dashed_double-dotted
 70
   64
  3
----------- --- --- ------------
 72
   65
 73
    6
 40
17
 49
12
 49
-1.5
 49
0.25
 49
-1.5
 49
0.25
 49
-1.5
  0
LTYPE
  2
long_dashed_triplicate-dotted
 70
   64
  3
--------- --- --- --- ----------
 72
   65
 73
    8
 40
18.75
 49
12
 49
-1.5
 49
0.25
 49
-1.5
 49
0.25
 49
-1.5
 49
0.25
 49
-1.5
  0
LTYPE
  2
dotted
 70
   64
  3
   -       -       -       -    
 72
   65
 73
    2
 40
1.75
 49
0.25
 49
-1.5
  0
LTYPE
  2
chain
 70
   64
  3
-------------- -- --------------
 72
   65
 73
    4
 40
18.5
 49
12
 49
-1.5
 49
3.5
 49
-1.5
  0
LTYPE
  2
chain_double_dash
 70
   64
  3
------------ -- -- -------------
 72
   65
 73
    6
 40
23.5
 49
12
 49
-1.5
 49
3.5
 49
-1.5
 49
3.5
 49
-1.5
  0
LTYPE
  2
dashed_dotted
 70
   64
  3
-----------     -     ----------
 72
   65
 73
    4
 40
9.25
 49
6
 49
-1.5
 49
0.25
 49
-1.5
  0
LTYPE
  2
double-dashed_dotted
 70
   64
  3
------   -----------   -   -----
 72
   65
 73
    6
 40
16.75
 49
6
 49
-1.5
 49
6
 49
-1.5
 49
0.25
 49
-1.5
  0
LTYPE
  2
dashed_double-dotted
 70
   64
  3
---------    -    -    ---------
 72
   65
 73
    6
 40
11
 49
6
 49
-1.5
 49
0.25
 49
-1.5
 49
0.25
 49
-1.5
  0
LTYPE
  2
double-dashed_double-dotted
 70
   64
  3
-----   ---------   -   -   ----
 72
   65
 73
    8
 40
18.5
 49
6
 49
-1.5
 49
6
 49
-1.5
 49
0.25
 49
-1.5
 49
0.25
 49
-1.5
  0
LTYPE
  2
dashed_triplicate-dotted
 70
   64
  3
-------    -    -    -    ------
 72
   65
 73
    8
 40
12.75
 49
6
 49
-1.5
 49
0.25
 49
-1.5
 49
0.25
 49
-1.5
 49
0.25
 49
-1.5
  0
LTYPE
  2
double-dashed_triplicate-dotted
 70
   64
  3
-----  ---------  -  -  -  -----
 72
   65
 73
   10
 40
20.25
 49
6
 49
-1.5
 49
6
 49
-1.5
 49
0.25
 49
-1.5
 49
0.25
 49
-1.5
 49
0.25
 49
-1.5
  0
LTYPE
  2
undefined
 70
   64
  3
--------------------------------
 72
   65
 73
    0
 40
0
  0
LTYPE
  2
_
 70
   64
  3
                                
 72
   65
 73
    0
 40
0
  0
LTYPE
  2
__18
 70
   64
  3
                                
 72
   65
 73
    0
 40
0
  0
LTYPE
  2
__19
 70
   64
  3
                                
 72
   65
 73
    0
 40
0
  0
LTYPE
  2
__20
 70
   64
  3
                                
 72
   65
 73
    0
 40
0
  0
LTYPE
  2
__21
 70
   64
  3
                                
 72
   65
 73
    0
 40
0
  0
LTYPE
  2
__22
 70
   64
  3
                                
 72
   65
 73
    0
 40
0
  0
LTYPE
  2
__23
 70
   64
  3
                                
 72
   65
 73
    0
 40
0
  0
LTYPE
  2
__24
 70
   64
  3
                                
 72
   65
 73
    0
 40
0
  0
LTYPE
  2
__25
 70
   64
  3
                                
 72
   65
 73
    0
 40
0
  0
LTYPE
  2
__26
 70
   64
  3
                                
 72
   65
 73
    0
 40
0
  0
LTYPE
  2
__27
 70
   64
  3
                                
 72
   65
 73
    0
 40
0
  0
LTYPE
  2
__28
 70
   64
  3
                                
 72
   65
 73
    0
 40
0
  0
LTYPE
  2
__29
 70
   64
  3
                                
 72
   65
 73
    0
 40
0
  0
LTYPE
  2
__30
 70
   64
  3
                                
 72
   65
 73
    0
 40
0
  0
LTYPE
  2
__31
 70
   64
  3
                                
 72
   65
 73
    0
 40
0
  0
LTYPE
  2
__32
 70
   64
  3
                                
 72
   65
 73
    0
 40
0
  0
ENDTAB
  0
TABLE
  2
STYLE
  5
3
100
AcDbSymbolTable
 70
     1
  0
STYLE
  5
10
100
AcDbSymbolTableRecord
100
AcDbTextStyleTableRecord
  2
STANDARD
 70
     0
 40
0.0
 41
1.0
 50
0.0
 71
     0
 42
0.2
  3
txt
  4
bigfont.shx
  0
STYLE
  5
26
100
AcDbSymbolTableRecord
100
AcDbTextStyleTableRecord
  2
TATEGAKI
 70
    68
 40
0.0
 41
1.0
 50
0.0
 71
     0
 42
1.0
  3
txt
  4
bigfont.shx
  0
ENDTAB
  0
TABLE
  2
LAYER
 70
   11
  0
LAYER
  2
_0-0_90_FRAME
 70
   64
 62
    7
  6
CONTINUOUS
  0
LAYER
  2
_0-1_91_BLANK
 70
   64
 62
    7
  6
CONTINUOUS
  0
LAYER
  2
_0-2_08_DIM
 70
   64
 62
    7
  6
CONTINUOUS
  0
LAYER
  2
_0-3_0
 70
   64
 62
    7
  6
CONTINUOUS
  0
LAYER
  2
_0-4_05_CENTER
 70
   64
 62
    7
  6
CONTINUOUS
  0
LAYER
  2
_0-5_04_HIDDEN
 70
   64
 62
    7
  6
CONTINUOUS
  0
LAYER
  2
_0-6_10_DRAFT
 70
   64
 62
    7
  6
CONTINUOUS
  0
LAYER
  2
_0-7_06_PHANTOM
 70
   64
 62
    7
  6
CONTINUOUS
  0
LAYER
  2
_0-8_07_TEXT
 70
   64
 62
    7
  6
CONTINUOUS
  0
LAYER
  2
_0-9_
 70
   64
 62
    7
  6
CONTINUOUS
  0
LAYER
  2
ADD_LINE
 70
   64
 62
    7
  6
CONTINUOUS
  0
ENDTAB
  0
ENDSEC
  0
SECTION
  2
BLOCKS
  0
BLOCK
  2
-000-p1ba05
 70
   64
 10
0
 20
0
 30
0
  0
ARC
  8
_0-2_08_DIM
  6
CONTINUOUS
 62
    3
 10
0
 20
1.6206695983957433
 40
1.6206695983958537
 50
204.22763733453323
 51
335.57577857182139
  0
ARC
  8
_0-2_08_DIM
  6
CONTINUOUS
 62
    3
 10
-2.9535588745990822
 20
0.2854771617432377
 40
1.6206695983958537
 50
24.227637334533135
 51
155.57577857182133
  0
ENDBLK
  0
BLOCK
  2
-001-Weld-line
 70
   64
 10
0
 20
0
 30
0
  0
LINE
  8
_0-2_08_DIM
  6
CONTINUOUS
 62
    3
 10
0
 20
0
 11
1
 21
0
  0
ENDBLK
  0
BLOCK
  2
-002-Weld10-s5
 70
   64
 10
0
 20
0
 30
0
  0
CIRCLE
  8
_0-2_08_DIM
  6
CONTINUOUS
 62
    3
 10
0
 20
0
 40
2
  0
ENDBLK
  0
BLOCK
  2
-003-Weld10-a1
 70
   64
 10
0
 20
0
 30
0
  0
LINE
  8
_0-2_08_DIM
  6
CONTINUOUS
 62
    3
 10
5
 20
0
 11
0
 21
5
  0
LINE
  8
_0-2_08_DIM
  6
CONTINUOUS
 62
    3
 10
0
 20
5
 11
0
 21
0
  0
LINE
  8
_0-2_08_DIM
  6
CONTINUOUS
 62
    3
 10
0
 20
0
 11
5
 21
0
  0
ENDBLK
  0
BLOCK
  2
-004-Jis_w20130906110600
 70
   64
 10
0
 20
0
 30
0
  0
INSERT
  2
-001-Weld-line
  8
_0-2_08_DIM
 10
0
 20
0
 41
14.000000000000002
 42
14.000000000000002
 50
0
  0
INSERT
  2
-002-Weld10-s5
  8
_0-2_08_DIM
 10
0
 20
0
 41
1
 42
1
 50
0
  0
INSERT
  2
-003-Weld10-a1
  8
_0-2_08_DIM
 10
6.0000000000000009
 20
0
 41
-1
 42
1
 50
180
  0
TEXT
  8
_0-2_08_DIM
 62
    3
 10
4.0000000000001146
 20
-1
 40
2.7999999999999998
 41
0.9000000000000001
 50
0
  1

  0
TEXT
  8
_0-2_08_DIM
 62
    3
 10
14.000000000000115
 20
-1
 40
2.7999999999999998
 41
0.9000000000000001
 50
0
  1

  0
LINE
  8
_0-2_08_DIM
  6
CONTINUOUS
 62
    3
 10
-4.6308054280802935
 20
-5.7653612299384349
 11
0
 21
0
  0
ENDBLK
  0
BLOCK
  2
-005-KK015066_54_5_1_1
 70
   64
 10
0
 20
0
 30
0
  0
LINE
  8
_0-5_04_HIDDEN
  6
CONTINUOUS
 62
    7
 10
0
 20
0
 11
50
 21
0
  0
ARC
  8
_0-5_04_HIDDEN
  6
CONTINUOUS
 62
    7
 10
45.5
 20
1.5000000000000002
 40
4.5000000000000009
 50
0
 51
90
  0
LINE
  8
_0-5_04_HIDDEN
  6
CONTINUOUS
 62
    7
 10
50
 20
1.5000000000000002
 11
50
 21
0
  0
LINE
  8
_0-5_04_HIDDEN
  6
CONTINUOUS
 62
    7
 10
45.5
 20
6.0000000000000009
 11
12.5
 21
6.0000000000000009
  0
ARC
  8
_0-5_04_HIDDEN
  6
CONTINUOUS
 62
    7
 10
12.5
 20
12.5
 40
6.5000000000000009
 50
180
 51
270
  0
LINE
  8
_0-5_04_HIDDEN
  6
CONTINUOUS
 62
    7
 10
6.0000000000000009
 20
12.5
 11
6.0000000000000009
 21
45.5
  0
ARC
  8
_0-5_04_HIDDEN
  6
CONTINUOUS
 62
    7
 10
1.5000000000000002
 20
45.5
 40
4.5000000000000009
 50
0
 51
90
  0
LINE
  8
_0-5_04_HIDDEN
  6
CONTINUOUS
 62
    7
 10
1.5000000000000002
 20
50
 11
0
 21
50
  0
LINE
  8
_0-5_04_HIDDEN
  6
CONTINUOUS
 62
    7
 10
0
 20
0
 11
0
 21
50
  0
ENDBLK
  0
BLOCK
  2
-006-AM_BALLOON1
 70
   64
 10
0
 20
0
 30
0
  0
CIRCLE
  8
_0-2_08_DIM
  6
CONTINUOUS
 62
    3
 10
0
 20
0
 40
5
  0
ENDBLK
  0
BLOCK
  2
-007-_Open30
 70
   64
 10
0
 20
0
 30
0
  0
LINE
  8
_0-2_08_DIM
  6
CONTINUOUS
 62
    3
 10
-1
 20
0.26794919
 11
0
 21
0
  0
LINE
  8
_0-2_08_DIM
  6
CONTINUOUS
 62
    3
 10
0
 20
0
 11
-1
 21
-0.26794919
  0
LINE
  8
_0-2_08_DIM
  6
CONTINUOUS
 62
    3
 10
0
 20
0
 11
-1
 21
0
  0
ENDBLK
  0
ENDSEC
  0
SECTION
  2
ENTITIES
  0
TEXT
  8
_0-0_90_FRAME
 62
    7
 10
4021.1887175929614
 20
832.97677945453097
 40
20
 41
1
 50
0
  1
AT-221121-04-26
  0
TEXT
  8
_0-0_90_FRAME
 62
    7
 10
3884.2331693506867
 20
786.94175667195964
 40
20
 41
1
 50
0
  1
2025.03.27
  0
LINE
  8
_0-0_90_FRAME
  6
CONTINUOUS
 62
    5
 10
1158.5612159296995
 20
776.07830905085154
 11
4264.1333302061303
 21
776.07830905085154
  0
LINE
  8
_0-0_90_FRAME
  6
CONTINUOUS
 62
    5
 10
4264.1333302061303
 20
776.07830905085154
 11
4264.1333302061303
 21
2996.2938844706687
  0
LINE
  8
_0-0_90_FRAME
  6
CONTINUOUS
 62
    5
 10
4264.1333302061303
 20
2996.2938844706687
 11
1158.5612159296995
 21
2996.2938844706687
  0
LINE
  8
_0-0_90_FRAME
  6
CONTINUOUS
 62
    5
 10
1158.5612159296995
 20
2996.2938844706687
 11
1158.5612159296995
 21
776.07830905085154
  0
LINE
  8
_0-0_90_FRAME
  6
CONTINUOUS
 62
    5
 10
1003.1776045017647
 20
1886.1860967607602
 11
1158.5612159296995
 21
1886.1860967607602
  0
LINE
  8
_0-0_90_FRAME
  6
CONTINUOUS
 62
    5
 10
4315.9810444916338
 20
1886.1860967607602
 11
4264.1333302061303
 21
1886.1860967607602
  0
LINE
  8
_0-0_90_FRAME
  6
CONTINUOUS
 62
    5
 10
2711.3472730679141
 20
3056.1415987668693
 11
2711.3472730679146
 21
2996.2938844706687
  0
LINE
  8
_0-0_90_FRAME
  6
CONTINUOUS
 62
    5
 10
2711.3472730679146
 20
724.46239875616834
 11
2711.3472730679146
 21
776.07830905085154
  0
LINE
  8
_0-0_90_FRAME
  6
CONTINUOUS
 62
    5
 10
2312.5187016409509
 20
752.14859476522918
 11
3110.1758444948787
 21
752.14859476522918
  0
LINE
  8
_0-0_90_FRAME
  6
CONTINUOUS
 62
    5
 10
2312.5187016409509
 20
752.14859476522918
 11
2312.5187016409509
 21
776.07830905085154
  0
LINE
  8
_0-0_90_FRAME
  6
CONTINUOUS
 62
    5
 10
2392.2844159263454
 20
752.14859476522918
 11
2392.2844159263454
 21
776.07830905085154
  0
LINE
  8
_0-0_90_FRAME
  6
CONTINUOUS
 62
    5
 10
2472.0501302117405
 20
752.14859476522918
 11
2472.0501302117405
 21
776.07830905085154
  0
LINE
  8
_0-0_90_FRAME
  6
CONTINUOUS
 62
    5
 10
2551.815844497125
 20
752.14859476522918
 11
2551.815844497125
 21
776.07830905085154
  0
LINE
  8
_0-0_90_FRAME
  6
CONTINUOUS
 62
    5
 10
2631.5815587825196
 20
752.14859476522918
 11
2631.5815587825196
 21
776.07830905085154
  0
LINE
  8
_0-0_90_FRAME
  6
CONTINUOUS
 62
    5
 10
2791.1129873532991
 20
752.14859476522918
 11
2791.1129873532991
 21
776.07830905085154
  0
LINE
  8
_0-0_90_FRAME
  6
CONTINUOUS
 62
    5
 10
2870.8787016386941
 20
752.14859476522918
 11
2870.8787016386941
 21
776.07830905085154
  0
LINE
  8
_0-0_90_FRAME
  6
CONTINUOUS
 62
    5
 10
2950.6444159240887
 20
752.14859476522918
 11
2950.6444159240887
 21
776.07830905085154
  0
LINE
  8
_0-0_90_FRAME
  6
CONTINUOUS
 62
    5
 10
3030.4101302094837
 20
752.14859476522918
 11
3030.4101302094837
 21
776.07830905085154
  0
LINE
  8
_0-0_90_FRAME
  6
CONTINUOUS
 62
    5
 10
3110.1758444948787
 20
752.14859476522918
 11
3110.1758444948787
 21
776.07830905085154
  0
LINE
  8
_0-0_90_FRAME
  6
CONTINUOUS
 62
    4
 10
1908.1464130711554
 20
2996.2938844706687
 11
1908.1464130711554
 21
3048.1415987561613
  0
TEXT
  8
_0-0_90_FRAME
 62
    7
 10
1306.0177688136298
 20
3006.6206712175617
 40
16
 41
1
 50
0
  1
1
  0
TEXT
  8
_0-0_90_FRAME
 62
    7
 10
1501.2126497394479
 20
3006.6206712175617
 40
16
 41
1
 50
0
  1
2
  0
TEXT
  8
_0-0_90_FRAME
 62
    7
 10
1768.9462697383674
 20
3006.6206712175617
 40
16
 41
1
 50
0
  1
3
  0
TEXT
  8
_0-0_90_FRAME
 62
    7
 10
2036.6798897372771
 20
3006.6206712175617
 40
16
 41
1
 50
0
  1
4
  0
TEXT
  8
_0-0_90_FRAME
 62
    7
 10
2304.4135097362068
 20
3006.6206712175617
 40
16
 41
1
 50
0
  1
5
  0
TEXT
  8
_0-0_90_FRAME
 62
    7
 10
2572.1471297351163
 20
3006.6206712175617
 40
16
 41
1
 50
0
  1
6
  0
TEXT
  8
_0-0_90_FRAME
 62
    7
 10
2839.8807497340363
 20
3006.6206712175617
 40
16
 41
1
 50
0
  1
7
  0
TEXT
  8
_0-0_90_FRAME
 62
    7
 10
3107.6143697329558
 20
3006.6206712175617
 40
16
 41
1
 50
0
  1
8
  0
TEXT
  8
_0-0_90_FRAME
 62
    7
 10
3375.3479897318753
 20
3006.6206712175617
 40
16
 41
1
 50
0
  1
9
  0
TEXT
  8
_0-0_90_FRAME
 62
    7
 10
3639.0816097307952
 20
3006.6206712175617
 40
16
 41
1
 50
0
  1
10
  0
TEXT
  8
_0-0_90_FRAME
 62
    7
 10
3908.1485630630386
 20
3006.6206712175617
 40
16
 41
1
 50
0
  1
11
  0
TEXT
  8
_0-0_90_FRAME
 62
    7
 10
4173.2155163952921
 20
3006.6206712175617
 40
16
 41
1
 50
0
  1
12
  0
TEXT
  8
_0-0_90_FRAME
 62
    7
 10
4274.4403814523621
 20
2588.1582855078891
 40
16
 41
1
 50
0
  1
B
  0
LINE
  8
_0-0_90_FRAME
  6
CONTINUOUS
 62
   18
 10
1158.5612159296995
 20
776.07830905085154
 11
1566.5612159261298
 21
776.07830905085177
  0
LINE
  8
_0-0_90_FRAME
  6
CONTINUOUS
 62
   18
 10
1566.5612159261298
 20
776.07830905085177
 11
1566.5612159261298
 21
889.22116619324822
  0
LINE
  8
_0-0_90_FRAME
  6
CONTINUOUS
 62
   18
 10
1566.5612159261298
 20
889.22116619324822
 11
1158.5612159296995
 21
889.22116619324822
  0
LINE
  8
_0-0_90_FRAME
  6
CONTINUOUS
 62
   18
 10
1158.5612159296995
 20
889.22116619324822
 11
1158.5612159296995
 21
776.07830905085154
  0
LINE
  8
_0-0_90_FRAME
  6
CONTINUOUS
 62
   18
 10
1510.5612159261298
 20
776.07830905085154
 11
1510.5612159261298
 21
889.22116619324822
  0
LINE
  8
_0-0_90_FRAME
  6
CONTINUOUS
 62
   18
 10
1214.5612159261295
 20
776.07830905085154
 11
1214.5612159261295
 21
889.22116619324822
  0
LINE
  8
_0-0_90_FRAME
  6
CONTINUOUS
 62
   18
 10
1278.5612159261295
 20
776.07830905085154
 11
1278.5612159261295
 21
889.22116619324822
  0
LINE
  8
_0-0_90_FRAME
  6
CONTINUOUS
 62
   18
 10
1158.5612159296995
 20
860.93545190765451
 11
1566.5612159261298
 21
860.93545190765451
  0
LINE
  8
_0-0_90_FRAME
  6
CONTINUOUS
 62
   18
 10
1158.5612159296995
 20
832.64973762204636
 11
1566.5612159261298
 21
832.64973762204636
  0
LINE
  8
_0-0_90_FRAME
  6
CONTINUOUS
 62
   18
 10
1158.5612159296995
 20
804.36402333645265
 11
1566.5612159261298
 21
804.36402333645265
  0
TEXT
  8
_0-0_90_FRAME
 62
    7
 10
1172.5975795642782
 20
870.27830905045141
 40
9.5999999999999996
 41
1
 50
0
  1
ŗLŹå
  0
TEXT
  8
_0-0_90_FRAME
 62
    7
 10
1231.2236744491624
 20
870.27830905045141
 40
9.5999999999999996
 41
1
 50
0
  1
ō·Ģt
  0
TEXT
  8
_0-0_90_FRAME
 62
    7
 10
1517.6157613806749
 20
870.27830905045141
 40
9.5999999999999996
 41
1
 50
0
  1
ŹņÉ¼Äę
  0
TEXT
  8
_0-0_90_FRAME
 62
    7
 10
1362.633943198857
 20
870.11467268681508
 40
9.5999999999999996
 41
1
 50
0
  1
ē³Æ∙ōÓŚe
  0
LINE
  8
_0-0_90_FRAME
  6
CONTINUOUS
 62
   18
 10
1173.83264449939
 20
807.36825525586335
 11
1186.5612159279144
 21
829.41478767782564
  0
LINE
  8
_0-0_90_FRAME
  6
CONTINUOUS
 62
   18
 10
1186.5612159279144
 20
829.41478767782564
 11
1199.2897873564316
 21
807.36825525586335
  0
LINE
  8
_0-0_90_FRAME
  6
CONTINUOUS
 62
   18
 10
1199.2897873564316
 20
807.36825525586335
 11
1173.83264449939
 21
807.36825525586335
  0
TEXT
  8
_0-0_90_FRAME
 62
    7
 10
1183.8044356523637
 20
839.76424088525664
 40
8.4857142856800003
 41
1
 50
0
  1
1
  0
TEXT
  8
_0-0_90_FRAME
 62
    7
 10
1183.8044356523637
 20
811.47852659965554
 40
8.4857142856800003
 41
1
 50
0
  1
2
  0
TEXT
  8
_0-0_90_FRAME
 62
    7
 10
1183.8044356523637
 20
783.19281231405466
 40
8.4857142856800003
 41
1
 50
0
  1
3
  0
LINE
  8
_0-0_90_FRAME
  6
CONTINUOUS
 62
   18
 10
1173.83264449939
 20
835.65396954146445
 11
1186.5612159279144
 21
857.70050196343379
  0
LINE
  8
_0-0_90_FRAME
  6
CONTINUOUS
 62
   18
 10
1186.5612159279144
 20
857.70050196343379
 11
1199.2897873564316
 21
835.65396954146445
  0
LINE
  8
_0-0_90_FRAME
  6
CONTINUOUS
 62
   18
 10
1199.2897873564316
 20
835.65396954146445
 11
1173.83264449939
 21
835.65396954146445
  0
LINE
  8
_0-0_90_FRAME
  6
CONTINUOUS
 62
   18
 10
1173.83264449939
 20
779.08254097026247
 11
1186.5612159279144
 21
801.12907339223193
  0
LINE
  8
_0-0_90_FRAME
  6
CONTINUOUS
 62
   18
 10
1186.5612159279144
 20
801.12907339223193
 11
1199.2897873564316
 21
779.08254097026247
  0
LINE
  8
_0-0_90_FRAME
  6
CONTINUOUS
 62
   18
 10
1199.2897873564316
 20
779.08254097026247
 11
1173.83264449939
 21
779.08254097026247
  0
LINE
  8
_0-0_90_FRAME
  6
CONTINUOUS
 62
    4
 10
4315.9810444916338
 20
1318.2083457630567
 11
4264.1333302061303
 21
1318.2083457630567
  0
LINE
  8
_0-0_90_FRAME
  6
CONTINUOUS
 62
    4
 10
4315.9810444916338
 20
1602.1972212619085
 11
4264.1333302061303
 21
1602.1972212619085
  0
LINE
  8
_0-0_90_FRAME
  6
CONTINUOUS
 62
    4
 10
4315.9810444916338
 20
1034.219470264205
 11
4264.1333302061303
 21
1034.219470264205
  0
LINE
  8
_0-0_90_FRAME
  6
CONTINUOUS
 62
    4
 10
4315.9810444916338
 20
2454.1638477584634
 11
4264.1333302061303
 21
2454.1638477584634
  0
LINE
  8
_0-0_90_FRAME
  6
CONTINUOUS
 62
    4
 10
4315.9810444916338
 20
2170.1749722596119
 11
4264.1333302061303
 21
2170.1749722596119
  0
LINE
  8
_0-0_90_FRAME
  6
CONTINUOUS
 62
    4
 10
4315.9810444916338
 20
2738.1527232573158
 11
4264.1333302061303
 21
2738.1527232573158
  0
TEXT
  8
_0-0_90_FRAME
 62
    7
 10
4274.4403814523621
 20
2872.147161006741
 40
16
 41
1
 50
0
  1
A
  0
TEXT
  8
_0-0_90_FRAME
 62
    7
 10
4274.4403814523621
 20
2304.1694100090376
 40
16
 41
1
 50
0
  1
C
  0
TEXT
  8
_0-0_90_FRAME
 62
    7
 10
4274.4403814523621
 20
2020.1805345101861
 40
16
 41
1
 50
0
  1
D
  0
TEXT
  8
_0-0_90_FRAME
 62
    7
 10
4274.4403814523621
 20
1452.2027835124825
 40
16
 41
1
 50
0
  1
F
  0
TEXT
  8
_0-0_90_FRAME
 62
    7
 10
4274.4403814523621
 20
1168.213908013631
 40
16
 41
1
 50
0
  1
G
  0
TEXT
  8
_0-0_90_FRAME
 62
    7
 10
4274.4403814523621
 20
884.22503251477917
 40
16
 41
1
 50
0
  1
H
  0
TEXT
  8
_0-0_90_FRAME
 62
    7
 10
4274.4403814523621
 20
1736.1916590113344
 40
16
 41
1
 50
0
  1
E
  0
TEXT
  8
_0-0_90_FRAME
 62
    7
 10
1135.0069690205098
 20
2588.1582855078891
 40
16
 41
1
 50
0
  1
B
  0
LINE
  8
_0-0_90_FRAME
  6
CONTINUOUS
 62
    4
 10
1158.5612159296995
 20
1318.2083457630567
 11
1106.7135016442062
 21
1318.2083457630567
  0
LINE
  8
_0-0_90_FRAME
  6
CONTINUOUS
 62
    4
 10
1158.5612159296995
 20
1602.1972212619085
 11
1106.7135016442062
 21
1602.1972212619085
  0
LINE
  8
_0-0_90_FRAME
  6
CONTINUOUS
 62
    4
 10
1158.5612159296995
 20
1034.219470264205
 11
1106.7135016442062
 21
1034.219470264205
  0
LINE
  8
_0-0_90_FRAME
  6
CONTINUOUS
 62
    4
 10
1158.5612159296995
 20
2454.1638477584634
 11
1106.7135016442062
 21
2454.1638477584634
  0
LINE
  8
_0-0_90_FRAME
  6
CONTINUOUS
 62
    4
 10
1158.5612159296995
 20
2170.1749722596119
 11
1106.7135016442062
 21
2170.1749722596119
  0
LINE
  8
_0-0_90_FRAME
  6
CONTINUOUS
 62
    4
 10
1158.5612159296995
 20
2738.1527232573158
 11
1106.7135016442062
 21
2738.1527232573158
  0
TEXT
  8
_0-0_90_FRAME
 62
    7
 10
1135.0069690205098
 20
2872.147161006741
 40
16
 41
1
 50
0
  1
A
  0
TEXT
  8
_0-0_90_FRAME
 62
    7
 10
1135.0069690205098
 20
2304.1694100090376
 40
16
 41
1
 50
0
  1
C
  0
TEXT
  8
_0-0_90_FRAME
 62
    7
 10
1135.0069690205098
 20
2020.1805345101861
 40
16
 41
1
 50
0
  1
D
  0
TEXT
  8
_0-0_90_FRAME
 62
    7
 10
1135.0069690205098
 20
1452.2027835124825
 40
16
 41
1
 50
0
  1
F
  0
TEXT
  8
_0-0_90_FRAME
 62
    7
 10
1135.0069690205098
 20
1168.213908013631
 40
16
 41
1
 50
0
  1
G
  0
TEXT
  8
_0-0_90_FRAME
 62
    7
 10
1135.0069690205098
 20
1736.1916590113344
 40
16
 41
1
 50
0
  1
E
  0
TEXT
  8
_0-0_90_FRAME
 62
    7
 10
1135.0069690205098
 20
884.22503251477917
 40
16
 41
1
 50
0
  1
H
  0
LINE
  8
_0-0_90_FRAME
  6
CONTINUOUS
 62
    4
 10
1640.4127930722359
 20
2996.2938844706687
 11
1640.4127930722359
 21
3048.1415987561613
  0
LINE
  8
_0-0_90_FRAME
  6
CONTINUOUS
 62
    4
 10
1372.6791730733162
 20
2996.2938844706687
 11
1372.6791730733162
 21
3048.1415987561613
  0
LINE
  8
_0-0_90_FRAME
  6
CONTINUOUS
 62
    4
 10
2175.8800330700751
 20
2996.2938844706687
 11
2175.8800330700751
 21
3048.1415987561613
  0
LINE
  8
_0-0_90_FRAME
  6
CONTINUOUS
 62
    4
 10
2443.6136530689946
 20
2996.2938844706687
 11
2443.6136530689946
 21
3048.1415987561613
  0
LINE
  8
_0-0_90_FRAME
  6
CONTINUOUS
 62
    4
 10
3514.5481330646635
 20
2996.2938844706687
 11
3514.5481330646635
 21
3048.1415987561613
  0
LINE
  8
_0-0_90_FRAME
  6
CONTINUOUS
 62
    4
 10
3782.2817530635843
 20
2996.2938844706687
 11
3782.2817530635843
 21
3048.1415987561613
  0
LINE
  8
_0-0_90_FRAME
  6
CONTINUOUS
 62
    4
 10
4050.0153730625034
 20
2996.2938844706687
 11
4050.0153730625034
 21
3048.1415987561613
  0
LINE
  8
_0-0_90_FRAME
  6
CONTINUOUS
 62
    4
 10
3246.814513065744
 20
2996.2938844706687
 11
3246.814513065744
 21
3048.1415987561613
  0
LINE
  8
_0-0_90_FRAME
  6
CONTINUOUS
 62
    4
 10
2979.0808930668341
 20
2996.2938844706687
 11
2979.0808930668341
 21
3048.1415987561613
  0
LINE
  8
_0-0_90_FRAME
  6
CONTINUOUS
 62
    4
 10
1908.1464130711554
 20
724.46239875616834
 11
1908.1464130711554
 21
776.07830905085154
  0
LINE
  8
_0-0_90_FRAME
  6
CONTINUOUS
 62
    4
 10
1640.4127930722359
 20
724.46239875616834
 11
1640.4127930722359
 21
776.07830905085154
  0
LINE
  8
_0-0_90_FRAME
  6
CONTINUOUS
 62
    4
 10
1372.6791730733162
 20
724.46239875616834
 11
1372.6791730733162
 21
776.07830905085154
  0
LINE
  8
_0-0_90_FRAME
  6
CONTINUOUS
 62
    4
 10
2175.8800330700751
 20
724.46239875616834
 11
2175.8800330700751
 21
776.07830905085154
  0
LINE
  8
_0-0_90_FRAME
  6
CONTINUOUS
 62
    4
 10
3514.5481330646635
 20
724.46239875616834
 11
3514.5481330646635
 21
776.07830905085154
  0
LINE
  8
_0-0_90_FRAME
  6
CONTINUOUS
 62
    4
 10
3782.2817530635843
 20
724.46239875616834
 11
3782.2817530635843
 21
776.07830905085154
  0
LINE
  8
_0-0_90_FRAME
  6
CONTINUOUS
 62
    4
 10
4050.0153730625034
 20
724.46239875616834
 11
4050.0153730625034
 21
776.07830905085154
  0
LINE
  8
_0-0_90_FRAME
  6
CONTINUOUS
 62
    4
 10
3246.814513065744
 20
724.46239875616834
 11
3246.814513065744
 21
776.07830905085154
  0
LINE
  8
_0-1_91_BLANK
  6
CONTINUOUS
 62
    5
 10
1003.177604488777
 20
724.46239875616834
 11
4315.9810444861296
 21
724.46239875616834
  0
LINE
  8
_0-1_91_BLANK
  6
CONTINUOUS
 62
    5
 10
4315.9810444861296
 20
724.46239875616834
 11
4315.9810444861296
 21
3056.1415987668693
  0
LINE
  8
_0-1_91_BLANK
  6
CONTINUOUS
 62
    5
 10
4315.9810444861296
 20
3056.1415987668693
 11
1003.177604488777
 21
3056.1415987668693
  0
LINE
  8
_0-1_91_BLANK
  6
CONTINUOUS
 62
    5
 10
1003.177604488777
 20
3056.1415987668693
 11
1003.177604488777
 21
724.46239875616834
  0
LINE
  8
_0-0_90_FRAME
  6
CONTINUOUS
 62
   18
 10
3472.1333302093276
 20
776.07830905085154
 11
4264.1333302061303
 21
776.07830905085154
  0
LINE
  8
_0-0_90_FRAME
  6
CONTINUOUS
 62
   18
 10
4264.1333302061303
 20
776.07830905085154
 11
4264.1333302061303
 21
923.16402333597159
  0
LINE
  8
_0-0_90_FRAME
  6
CONTINUOUS
 62
   18
 10
4264.1333302061303
 20
923.16402333597159
 11
3472.1333302093276
 21
923.16402333597159
  0
LINE
  8
_0-0_90_FRAME
  6
CONTINUOUS
 62
   18
 10
3472.1333302093276
 20
923.16402333597159
 11
3472.1333302093276
 21
776.07830905085154
  0
LINE
  8
_0-0_90_FRAME
  6
CONTINUOUS
 62
   18
 10
3534.5033302090796
 20
897.70688047892997
 11
3574.1033302089177
 21
907.60688047889153
  0
LINE
  8
_0-0_90_FRAME
  6
CONTINUOUS
 62
   18
 10
3574.1033302089177
 20
907.60688047889153
 11
3574.1033302089177
 21
868.00688047905305
  0
LINE
  8
_0-0_90_FRAME
  6
CONTINUOUS
 62
   18
 10
3574.1033302089177
 20
868.00688047905305
 11
3534.5033302090796
 21
877.90688047901085
  0
LINE
  8
_0-0_90_FRAME
  6
CONTINUOUS
 62
   18
 10
3534.5033302090796
 20
877.90688047901085
 11
3534.5033302090796
 21
897.70688047892997
  0
CIRCLE
  8
_0-0_90_FRAME
  6
CONTINUOUS
 62
   18
 10
3508.7633302091795
 20
887.80688047896865
 40
9.8999999999600004
  0
CIRCLE
  8
_0-0_90_FRAME
  6
CONTINUOUS
 62
   18
 10
3508.7633302091795
 20
887.80688047896865
 40
19.799999999920001
  0
LINE
  8
_0-0_90_FRAME
  6
CONTINUOUS
 62
   18
 10
3485.0033302092761
 20
887.80688047896865
 11
3578.0633302088995
 21
887.80688047896865
  0
LINE
  8
_0-0_90_FRAME
  6
CONTINUOUS
 62
   18
 10
3508.7633302091795
 20
864.04688047906836
 11
3508.7633302091795
 21
911.56688047887599
  0
LINE
  8
_0-0_90_FRAME
  6
CONTINUOUS
 62
   18
 10
3796.561901636529
 20
776.07830905085154
 11
3796.561901636529
 21
923.16402333597159
  0
LINE
  8
_0-0_90_FRAME
  6
CONTINUOUS
 62
   18
 10
3796.561901636529
 20
821.33545190781069
 11
4264.1333302061303
 21
821.33545190781069
  0
TEXT
  8
_0-0_90_FRAME
 62
    7
 10
3798.5900686662517
 20
807.26361092072273
 40
10
 41
1
 50
0
  1
Źņ É¼ ō·
  0
LINE
  8
_0-0_90_FRAME
  6
CONTINUOUS
 62
   18
 10
4073.1047587782864
 20
821.33545190781069
 11
4073.1047587782864
 21
776.07830905085154
  0
TEXT
  8
_0-0_90_FRAME
 62
    7
 10
4075.4796457658213
 20
806.98704718146416
 40
10
 41
1
 50
0
  1
ī┬Éö
  0
TEXT
  8
_0-0_90_FRAME
 62
    7
 10
3703.0416906061419
 20
910.05295099123339
 40
10
 41
1
 50
0
  1
āTāCāY
  0
TEXT
  8
_0-0_90_FRAME
 62
    7
 10
3592.7274048923045
 20
909.30713566160512
 40
10
 41
1
 50
0
  1
Ä┌ü@ōx
  0
TEXT
  8
_0-0_90_FRAME
 62
    7
 10
3703.0417515518188
 20
839.33866527723455
 40
10
 41
1
 50
0
  1
É╗ü@É}
  0
LINE
  8
_0-0_90_FRAME
  6
CONTINUOUS
 62
   18
 10
3796.561901636529
 20
852.44973762196923
 11
3472.1333302093276
 21
852.44973762196923
  0
LINE
  8
_0-0_90_FRAME
  6
CONTINUOUS
 62
   18
 10
3947.6095039338015
 20
866.59259476476973
 11
4264.1333302061303
 21
866.59259476476973
  0
TEXT
  8
_0-0_90_FRAME
 62
    7
 10
3735.9098349217388
 20
869.42268903593003
 40
20
 41
1
 50
0
  1
A1
  0
LINE
  8
_0-0_90_FRAME
  6
CONTINUOUS
 62
   18
 10
3701.2476159226881
 20
776.07830905085154
 11
3701.2476159226881
 21
923.16402333597159
  0
TEXT
  8
_0-0_90_FRAME
 62
    2
 10
3542.114383044237
 20
791.64293100548207
 40
20
 41
1
 50
0
  1
āAāNāAāgāŖāĆ
  0
LINE
  8
_0-0_90_FRAME
  6
CONTINUOUS
 62
    4
 10
3535.9616168615735
 20
842.76286073097742
 11
3535.9616168615735
 21
783.5901465152142
  0
LINE
  8
_0-0_90_FRAME
  6
CONTINUOUS
 62
    4
 10
3535.9616168615735
 20
783.5901465152142
 11
3482.1682403017894
 21
783.5901465152142
  0
LINE
  8
_0-0_90_FRAME
  6
CONTINUOUS
 62
    4
 10
3482.1682403017894
 20
783.5901465152142
 11
3482.1682403017894
 21
842.76286073097742
  0
LINE
  8
_0-0_90_FRAME
  6
CONTINUOUS
 62
    4
 10
3482.4243992377883
 20
842.50670179497638
 11
3482.4243992377883
 21
842.50670179497638
  0
LINE
  8
_0-0_90_FRAME
  6
CONTINUOUS
 62
    4
 10
3482.4243992377883
 20
842.50670179497638
 11
3482.5567146517983
 21
841.17225582209676
  0
LINE
  8
_0-0_90_FRAME
  6
CONTINUOUS
 62
    4
 10
3482.5567146517983
 20
841.17225582209676
 11
3482.9496405569289
 21
839.87835631484086
  0
LINE
  8
_0-0_90_FRAME
  6
CONTINUOUS
 62
    4
 10
3482.9496405569289
 20
839.87835631484086
 11
3483.5912380983823
 21
838.66431775499188
  0
LINE
  8
_0-0_90_FRAME
  6
CONTINUOUS
 62
    4
 10
3483.5912380983823
 20
838.66431775499188
 11
3484.4620126595255
 21
837.56702808985767
  0
LINE
  8
_0-0_90_FRAME
  6
CONTINUOUS
 62
    4
 10
3484.4620126595255
 20
837.56702808985767
 11
3485.5355061959517
 21
836.61982791065805
  0
LINE
  8
_0-0_90_FRAME
  6
CONTINUOUS
 62
    4
 10
3485.5355061959517
 20
836.61982791065805
 11
3486.7791011497707
 21
835.85149741553153
  0
LINE
  8
_0-0_90_FRAME
  6
CONTINUOUS
 62
    4
 10
3486.7791011497707
 20
835.85149741553153
 11
3488.1550115175996
 21
835.28538193777842
  0
LINE
  8
_0-0_90_FRAME
  6
CONTINUOUS
 62
    4
 10
3488.1550115175996
 20
835.28538193777842
 11
3489.621430959156
 21
834.93868260972226
  0
LINE
  8
_0-0_90_FRAME
  6
CONTINUOUS
 62
    4
 10
3489.621430959156
 20
834.93868260972226
 11
3491.133803061753
 21
834.82193371500739
  0
LINE
  8
_0-0_90_FRAME
  6
CONTINUOUS
 62
    4
 10
3491.133803061753
 20
834.82193371500739
 11
3492.6461751643501
 21
834.93868260972226
  0
LINE
  8
_0-0_90_FRAME
  6
CONTINUOUS
 62
    4
 10
3492.6461751643501
 20
834.93868260972226
 11
3494.1125946059065
 21
835.28538193777842
  0
LINE
  8
_0-0_90_FRAME
  6
CONTINUOUS
 62
    4
 10
3494.1125946059065
 20
835.28538193777842
 11
3495.4885049737354
 21
835.85149741553153
  0
LINE
  8
_0-0_90_FRAME
  6
CONTINUOUS
 62
    4
 10
3495.4885049737354
 20
835.85149741553153
 11
3496.7320999275544
 21
836.61982791065805
  0
LINE
  8
_0-0_90_FRAME
  6
CONTINUOUS
 62
    4
 10
3496.7320999275544
 20
836.61982791065805
 11
3497.8055934639806
 21
837.56702808985767
  0
LINE
  8
_0-0_90_FRAME
  6
CONTINUOUS
 62
    4
 10
3497.8055934639806
 20
837.56702808985767
 11
3498.6763680251238
 21
838.66431775499188
  0
LINE
  8
_0-0_90_FRAME
  6
CONTINUOUS
 62
    4
 10
3498.6763680251238
 20
838.66431775499188
 11
3499.3179655665772
 21
839.87835631484086
  0
LINE
  8
_0-0_90_FRAME
  6
CONTINUOUS
 62
    4
 10
3499.3179655665772
 20
839.87835631484086
 11
3499.7108914717078
 21
841.17225582209676
  0
LINE
  8
_0-0_90_FRAME
  6
CONTINUOUS
 62
    4
 10
3499.7108914717078
 20
841.17225582209676
 11
3499.8432068857178
 21
842.50670179497638
  0
LINE
  8
_0-0_90_FRAME
  6
CONTINUOUS
 62
    4
 10
3499.8432068857178
 20
842.50670179497638
 11
3499.8432068857178
 21
842.50670179497638
  0
ARC
  8
_0-0_90_FRAME
  6
CONTINUOUS
 62
    4
 10
3500.0993658217176
 20
842.50670179497638
 40
0.2561589359989651
 50
0
 51
180
  0
LINE
  8
_0-0_90_FRAME
  6
CONTINUOUS
 62
    4
 10
3500.3555247577169
 20
842.50670179497638
 11
3500.3555247577169
 21
842.50670179497638
  0
LINE
  8
_0-0_90_FRAME
  6
CONTINUOUS
 62
    4
 10
3500.3555247577169
 20
842.50670179497638
 11
3500.4878401717269
 21
841.17225582209676
  0
LINE
  8
_0-0_90_FRAME
  6
CONTINUOUS
 62
    4
 10
3500.4878401717269
 20
841.17225582209676
 11
3500.8807660768575
 21
839.87835631484086
  0
LINE
  8
_0-0_90_FRAME
  6
CONTINUOUS
 62
    4
 10
3500.8807660768575
 20
839.87835631484086
 11
3501.5223636183109
 21
838.66431775499188
  0
LINE
  8
_0-0_90_FRAME
  6
CONTINUOUS
 62
    4
 10
3501.5223636183109
 20
838.66431775499188
 11
3502.3931381794541
 21
837.56702808985767
  0
LINE
  8
_0-0_90_FRAME
  6
CONTINUOUS
 62
    4
 10
3502.3931381794541
 20
837.56702808985767
 11
3503.4666317158803
 21
836.61982791065805
  0
LINE
  8
_0-0_90_FRAME
  6
CONTINUOUS
 62
    4
 10
3503.4666317158803
 20
836.61982791065805
 11
3504.7102266696993
 21
835.85149741553153
  0
LINE
  8
_0-0_90_FRAME
  6
CONTINUOUS
 62
    4
 10
3504.7102266696993
 20
835.85149741553153
 11
3506.0861370375283
 21
835.28538193777842
  0
LINE
  8
_0-0_90_FRAME
  6
CONTINUOUS
 62
    4
 10
3506.0861370375283
 20
835.28538193777842
 11
3507.5525564790846
 21
834.93868260972226
  0
LINE
  8
_0-0_90_FRAME
  6
CONTINUOUS
 62
    4
 10
3507.5525564790846
 20
834.93868260972226
 11
3509.0649285816817
 21
834.82193371500739
  0
LINE
  8
_0-0_90_FRAME
  6
CONTINUOUS
 62
    4
 10
3509.0649285816817
 20
834.82193371500739
 11
3510.5773006842787
 21
834.93868260972226
  0
LINE
  8
_0-0_90_FRAME
  6
CONTINUOUS
 62
    4
 10
3510.5773006842787
 20
834.93868260972226
 11
3512.0437201258351
 21
835.28538193777842
  0
LINE
  8
_0-0_90_FRAME
  6
CONTINUOUS
 62
    4
 10
3512.0437201258351
 20
835.28538193777842
 11
3513.419630493664
 21
835.85149741553153
  0
LINE
  8
_0-0_90_FRAME
  6
CONTINUOUS
 62
    4
 10
3513.419630493664
 20
835.85149741553153
 11
3514.663225447483
 21
836.61982791065805
  0
LINE
  8
_0-0_90_FRAME
  6
CONTINUOUS
 62
    4
 10
3514.663225447483
 20
836.61982791065805
 11
3515.7367189839092
 21
837.56702808985767
  0
LINE
  8
_0-0_90_FRAME
  6
CONTINUOUS
 62
    4
 10
3515.7367189839092
 20
837.56702808985767
 11
3516.6074935450524
 21
838.66431775499188
  0
LINE
  8
_0-0_90_FRAME
  6
CONTINUOUS
 62
    4
 10
3516.6074935450524
 20
838.66431775499188
 11
3517.2490910865058
 21
839.87835631484086
  0
LINE
  8
_0-0_90_FRAME
  6
CONTINUOUS
 62
    4
 10
3517.2490910865058
 20
839.87835631484086
 11
3517.6420169916364
 21
841.17225582209676
  0
LINE
  8
_0-0_90_FRAME
  6
CONTINUOUS
 62
    4
 10
3517.6420169916364
 20
841.17225582209676
 11
3517.7743324056464
 21
842.50670179497638
  0
LINE
  8
_0-0_90_FRAME
  6
CONTINUOUS
 62
    4
 10
3517.7743324056464
 20
842.50670179497638
 11
3517.7743324056464
 21
842.50670179497638
  0
ARC
  8
_0-0_90_FRAME
  6
CONTINUOUS
 62
    4
 10
3518.0304913416453
 20
842.50670179497638
 40
0.2561589359989651
 50
0
 51
180
  0
LINE
  8
_0-0_90_FRAME
  6
CONTINUOUS
 62
    4
 10
3518.2866502776451
 20
842.50670179497638
 11
3518.2866502776451
 21
842.50670179497638
  0
LINE
  8
_0-0_90_FRAME
  6
CONTINUOUS
 62
    4
 10
3518.2866502776451
 20
842.50670179497638
 11
3518.4189656916551
 21
841.17225582209676
  0
LINE
  8
_0-0_90_FRAME
  6
CONTINUOUS
 62
    4
 10
3518.4189656916551
 20
841.17225582209676
 11
3518.8118915967857
 21
839.87835631484086
  0
LINE
  8
_0-0_90_FRAME
  6
CONTINUOUS
 62
    4
 10
3518.8118915967857
 20
839.87835631484086
 11
3519.4534891382391
 21
838.66431775499188
  0
LINE
  8
_0-0_90_FRAME
  6
CONTINUOUS
 62
    4
 10
3519.4534891382391
 20
838.66431775499188
 11
3520.3242636993823
 21
837.56702808985767
  0
LINE
  8
_0-0_90_FRAME
  6
CONTINUOUS
 62
    4
 10
3520.3242636993823
 20
837.56702808985767
 11
3521.3977572358085
 21
836.61982791065805
  0
LINE
  8
_0-0_90_FRAME
  6
CONTINUOUS
 62
    4
 10
3521.3977572358085
 20
836.61982791065805
 11
3522.6413521896275
 21
835.85149741553153
  0
LINE
  8
_0-0_90_FRAME
  6
CONTINUOUS
 62
    4
 10
3522.6413521896275
 20
835.85149741553153
 11
3524.0172625574564
 21
835.28538193777842
  0
LINE
  8
_0-0_90_FRAME
  6
CONTINUOUS
 62
    4
 10
3524.0172625574564
 20
835.28538193777842
 11
3525.4836819990128
 21
834.93868260972226
  0
LINE
  8
_0-0_90_FRAME
  6
CONTINUOUS
 62
    4
 10
3525.4836819990128
 20
834.93868260972226
 11
3526.9960541016098
 21
834.82193371500739
  0
LINE
  8
_0-0_90_FRAME
  6
CONTINUOUS
 62
    4
 10
3526.9960541016098
 20
834.82193371500739
 11
3528.5084262042069
 21
834.93868260972226
  0
LINE
  8
_0-0_90_FRAME
  6
CONTINUOUS
 62
    4
 10
3528.5084262042069
 20
834.93868260972226
 11
3529.9748456457633
 21
835.28538193777842
  0
LINE
  8
_0-0_90_FRAME
  6
CONTINUOUS
 62
    4
 10
3529.9748456457633
 20
835.28538193777842
 11
3531.3507560135922
 21
835.85149741553153
  0
LINE
  8
_0-0_90_FRAME
  6
CONTINUOUS
 62
    4
 10
3531.3507560135922
 20
835.85149741553153
 11
3532.5943509674112
 21
836.61982791065805
  0
LINE
  8
_0-0_90_FRAME
  6
CONTINUOUS
 62
    4
 10
3532.5943509674112
 20
836.61982791065805
 11
3533.6678445038374
 21
837.56702808985767
  0
LINE
  8
_0-0_90_FRAME
  6
CONTINUOUS
 62
    4
 10
3533.6678445038374
 20
837.56702808985767
 11
3534.5386190649806
 21
838.66431775499188
  0
LINE
  8
_0-0_90_FRAME
  6
CONTINUOUS
 62
    4
 10
3534.5386190649806
 20
838.66431775499188
 11
3535.180216606434
 21
839.87835631484086
  0
LINE
  8
_0-0_90_FRAME
  6
CONTINUOUS
 62
    4
 10
3535.180216606434
 20
839.87835631484086
 11
3535.5731425115646
 21
841.17225582209676
  0
LINE
  8
_0-0_90_FRAME
  6
CONTINUOUS
 62
    4
 10
3535.5731425115646
 20
841.17225582209676
 11
3535.7054579255746
 21
842.50670179497638
  0
LINE
  8
_0-0_90_FRAME
  6
CONTINUOUS
 62
    4
 10
3535.7054579255746
 20
842.50670179497638
 11
3535.7054579255746
 21
842.50670179497638
  0
ARC
  8
_0-0_90_FRAME
  6
CONTINUOUS
 62
    4
 10
3535.9616168615735
 20
842.50670179497638
 40
0.2561589359989651
 50
90
 51
180
  0
ARC
  8
_0-0_90_FRAME
  6
CONTINUOUS
 62
    4
 10
3500.0993658217176
 20
842.50670179497638
 40
0.2561589359989651
 50
0
 51
90
  0
ARC
  8
_0-0_90_FRAME
  6
CONTINUOUS
 62
    4
 10
3482.1682403017894
 20
842.50670179497638
 40
0.2561589359989651
 50
0
 51
90
  0
LINE
  8
_0-0_90_FRAME
  6
CONTINUOUS
 62
    4
 10
3488.3160547657658
 20
791.27491459518342
 11
3491.3899619977515
 21
791.27491459518342
  0
LINE
  8
_0-0_90_FRAME
  6
CONTINUOUS
 62
    4
 10
3491.3899619977515
 20
791.27491459518342
 11
3491.3899619977515
 21
788.20100736319682
  0
LINE
  8
_0-0_90_FRAME
  6
CONTINUOUS
 62
    4
 10
3491.3899619977515
 20
788.20100736319682
 11
3488.3160547657658
 21
788.20100736319682
  0
LINE
  8
_0-0_90_FRAME
  6
CONTINUOUS
 62
    4
 10
3488.3160547657658
 20
791.27491459518342
 11
3488.3160547657658
 21
788.20100736319682
  0
LINE
  8
_0-0_90_FRAME
  6
CONTINUOUS
 62
    4
 10
3529.8138023975971
 20
791.27491459518342
 11
3526.7398951656123
 21
791.27491459518342
  0
LINE
  8
_0-0_90_FRAME
  6
CONTINUOUS
 62
    4
 10
3526.7398951656123
 20
791.27491459518342
 11
3526.7398951656123
 21
788.20100736319682
  0
LINE
  8
_0-0_90_FRAME
  6
CONTINUOUS
 62
    4
 10
3526.7398951656123
 20
788.20100736319682
 11
3529.8138023975971
 21
788.20100736319682
  0
LINE
  8
_0-0_90_FRAME
  6
CONTINUOUS
 62
    4
 10
3529.8138023975971
 20
791.27491459518342
 11
3529.8138023975971
 21
788.20100736319682
  0
LINE
  8
_0-0_90_FRAME
  6
CONTINUOUS
 62
    4
 10
3496.000822845735
 20
791.27491459518342
 11
3499.0747300777207
 21
791.27491459518342
  0
LINE
  8
_0-0_90_FRAME
  6
CONTINUOUS
 62
    4
 10
3499.0747300777207
 20
791.27491459518342
 11
3499.0747300777207
 21
788.20100736319682
  0
LINE
  8
_0-0_90_FRAME
  6
CONTINUOUS
 62
    4
 10
3499.0747300777207
 20
788.20100736319682
 11
3496.000822845735
 21
788.20100736319682
  0
LINE
  8
_0-0_90_FRAME
  6
CONTINUOUS
 62
    4
 10
3496.000822845735
 20
791.27491459518342
 11
3496.000822845735
 21
788.20100736319682
  0
LINE
  8
_0-0_90_FRAME
  6
CONTINUOUS
 62
    4
 10
3503.6855909257042
 20
791.27491459518342
 11
3506.7594981576899
 21
791.27491459518342
  0
LINE
  8
_0-0_90_FRAME
  6
CONTINUOUS
 62
    4
 10
3506.7594981576899
 20
791.27491459518342
 11
3506.7594981576899
 21
788.20100736319682
  0
LINE
  8
_0-0_90_FRAME
  6
CONTINUOUS
 62
    4
 10
3506.7594981576899
 20
788.20100736319682
 11
3503.6855909257042
 21
788.20100736319682
  0
LINE
  8
_0-0_90_FRAME
  6
CONTINUOUS
 62
    4
 10
3503.6855909257042
 20
791.27491459518342
 11
3503.6855909257042
 21
788.20100736319682
  0
LINE
  8
_0-0_90_FRAME
  6
CONTINUOUS
 62
    4
 10
3511.3703590056734
 20
791.27491459518342
 11
3514.4442662376587
 21
791.27491459518342
  0
LINE
  8
_0-0_90_FRAME
  6
CONTINUOUS
 62
    4
 10
3514.4442662376587
 20
791.27491459518342
 11
3514.4442662376587
 21
788.20100736319682
  0
LINE
  8
_0-0_90_FRAME
  6
CONTINUOUS
 62
    4
 10
3514.4442662376587
 20
788.20100736319682
 11
3511.3703590056734
 21
788.20100736319682
  0
LINE
  8
_0-0_90_FRAME
  6
CONTINUOUS
 62
    4
 10
3511.3703590056734
 20
791.27491459518342
 11
3511.3703590056734
 21
788.20100736319682
  0
LINE
  8
_0-0_90_FRAME
  6
CONTINUOUS
 62
    4
 10
3519.0551270856422
 20
791.27491459518342
 11
3522.1290343176279
 21
791.27491459518342
  0
LINE
  8
_0-0_90_FRAME
  6
CONTINUOUS
 62
    4
 10
3522.1290343176279
 20
791.27491459518342
 11
3522.1290343176279
 21
788.20100736319682
  0
LINE
  8
_0-0_90_FRAME
  6
CONTINUOUS
 62
    4
 10
3522.1290343176279
 20
788.20100736319682
 11
3519.0551270856422
 21
788.20100736319682
  0
LINE
  8
_0-0_90_FRAME
  6
CONTINUOUS
 62
    4
 10
3519.0551270856422
 20
791.27491459518342
 11
3519.0551270856422
 21
788.20100736319682
  0
LINE
  8
_0-0_90_FRAME
  6
CONTINUOUS
 62
    4
 10
3509.033099314207
 20
820.52462218950632
 11
3509.033099314207
 21
820.52462218950632
  0
LINE
  8
_0-0_90_FRAME
  6
CONTINUOUS
 62
    4
 10
3509.033099314207
 20
820.52462218950632
 11
3508.9435918282593
 21
821.50321590295141
  0
LINE
  8
_0-0_90_FRAME
  6
CONTINUOUS
 62
    4
 10
3508.9435918282593
 20
821.50321590295141
 11
3508.6777890100825
 21
822.45207554160572
  0
LINE
  8
_0-0_90_FRAME
  6
CONTINUOUS
 62
    4
 10
3508.6777890100825
 20
822.45207554160572
 11
3508.2437671438051
 21
823.34237048549494
  0
LINE
  8
_0-0_90_FRAME
  6
CONTINUOUS
 62
    4
 10
3508.2437671438051
 20
823.34237048549494
 11
3507.6547137642083
 21
824.14704957326001
  0
LINE
  8
_0-0_90_FRAME
  6
CONTINUOUS
 62
    4
 10
3507.6547137642083
 20
824.14704957326001
 11
3506.9285269601551
 21
824.84166303800646
  0
LINE
  8
_0-0_90_FRAME
  6
CONTINUOUS
 62
    4
 10
3506.9285269601551
 20
824.84166303800646
 11
3506.0872715502192
 21
825.40510540109926
  0
LINE
  8
_0-0_90_FRAME
  6
CONTINUOUS
 62
    4
 10
3506.0872715502192
 20
825.40510540109926
 11
3505.1565086543346
 21
825.82025675145144
  0
LINE
  8
_0-0_90_FRAME
  6
CONTINUOUS
 62
    4
 10
3505.1565086543346
 20
825.82025675145144
 11
3504.1645190321051
 21
826.07450292535941
  0
LINE
  8
_0-0_90_FRAME
  6
CONTINUOUS
 62
    4
 10
3504.1645190321051
 20
826.07450292535941
 11
3503.1414437862309
 21
826.16011878148356
  0
LINE
  8
_0-0_90_FRAME
  6
CONTINUOUS
 62
    4
 10
3503.1414437862309
 20
826.16011878148356
 11
3502.1183685403566
 21
826.07450292535941
  0
LINE
  8
_0-0_90_FRAME
  6
CONTINUOUS
 62
    4
 10
3502.1183685403566
 20
826.07450292535941
 11
3501.1263789181271
 21
825.82025675145144
  0
LINE
  8
_0-0_90_FRAME
  6
CONTINUOUS
 62
    4
 10
3501.1263789181271
 20
825.82025675145144
 11
3500.1956160222426
 21
825.40510540109926
  0
LINE
  8
_0-0_90_FRAME
  6
CONTINUOUS
 62
    4
 10
3500.1956160222426
 20
825.40510540109926
 11
3499.3543606123067
 21
824.84166303800646
  0
LINE
  8
_0-0_90_FRAME
  6
CONTINUOUS
 62
    4
 10
3499.3543606123067
 20
824.84166303800646
 11
3498.6281738082535
 21
824.14704957326001
  0
LINE
  8
_0-0_90_FRAME
  6
CONTINUOUS
 62
    4
 10
3498.6281738082535
 20
824.14704957326001
 11
3498.0391204286566
 21
823.34237048549494
  0
LINE
  8
_0-0_90_FRAME
  6
CONTINUOUS
 62
    4
 10
3498.0391204286566
 20
823.34237048549494
 11
3497.6050985623792
 21
822.45207554160572
  0
LINE
  8
_0-0_90_FRAME
  6
CONTINUOUS
 62
    4
 10
3497.6050985623792
 20
822.45207554160572
 11
3497.3392957442024
 21
821.50321590295141
  0
LINE
  8
_0-0_90_FRAME
  6
CONTINUOUS
 62
    4
 10
3497.3392957442024
 20
821.50321590295141
 11
3497.2497882582547
 21
820.52462218950632
  0
LINE
  8
_0-0_90_FRAME
  6
CONTINUOUS
 62
    4
 10
3497.2497882582547
 20
820.52462218950632
 11
3497.2497882582547
 21
820.52462218950632
  0
LINE
  8
_0-0_90_FRAME
  6
CONTINUOUS
 62
    4
 10
3509.033099314207
 20
820.52462218950632
 11
3509.033099314207
 21
818.987668573512
  0
LINE
  8
_0-0_90_FRAME
  6
CONTINUOUS
 62
    4
 10
3506.253390755573
 20
814.20244059403387
 11
3506.253390755573
 21
814.20244059403387
  0
LINE
  8
_0-0_90_FRAME
  6
CONTINUOUS
 62
    4
 10
3506.253390755573
 20
814.20244059403387
 11
3505.3373968921378
 21
813.75824999222175
  0
LINE
  8
_0-0_90_FRAME
  6
CONTINUOUS
 62
    4
 10
3505.3373968921378
 20
813.75824999222175
 11
3504.3546801047851
 21
813.47295262778869
  0
LINE
  8
_0-0_90_FRAME
  6
CONTINUOUS
 62
    4
 10
3504.3546801047851
 20
813.47295262778869
 11
3503.3350997458206
 21
813.35521711678541
  0
LINE
  8
_0-0_90_FRAME
  6
CONTINUOUS
 62
    4
 10
3503.3350997458206
 20
813.35521711678541
 11
3502.3096352485181
 21
813.40862079313695
  0
LINE
  8
_0-0_90_FRAME
  6
CONTINUOUS
 62
    4
 10
3502.3096352485181
 20
813.40862079313695
 11
3501.3094448327192
 21
813.6315410131607
  0
LINE
  8
_0-0_90_FRAME
  6
CONTINUOUS
 62
    4
 10
3501.3094448327192
 20
813.6315410131607
 11
3500.3649187780861
 21
814.01720445877436
  0
LINE
  8
_0-0_90_FRAME
  6
CONTINUOUS
 62
    4
 10
3500.3649187780861
 20
814.01720445877436
 11
3499.5047560308362
 21
814.55389294133818
  0
LINE
  8
_0-0_90_FRAME
  6
CONTINUOUS
 62
    4
 10
3499.5047560308362
 20
814.55389294133818
 11
3498.7550922007813
 21
815.22529945288682
  0
LINE
  8
_0-0_90_FRAME
  6
CONTINUOUS
 62
    4
 10
3498.7550922007813
 20
815.22529945288682
 11
3498.1387054440493
 21
816.01102364631515
  0
LINE
  8
_0-0_90_FRAME
  6
CONTINUOUS
 62
    4
 10
3498.1387054440493
 20
816.01102364631515
 11
3497.6743243603364
 21
816.8871916896012
  0
LINE
  8
_0-0_90_FRAME
  6
CONTINUOUS
 62
    4
 10
3497.6743243603364
 20
816.8871916896012
 11
3497.3760589338835
 21
817.82718166011239
  0
LINE
  8
_0-0_90_FRAME
  6
CONTINUOUS
 62
    4
 10
3497.3760589338835
 20
817.82718166011239
 11
3497.252971808744
 21
818.80243243825248
  0
LINE
  8
_0-0_90_FRAME
  6
CONTINUOUS
 62
    4
 10
3497.252971808744
 20
818.80243243825248
 11
3497.2497882582547
 21
818.987668573512
  0
LINE
  8
_0-0_90_FRAME
  6
CONTINUOUS
 62
    4
 10
3506.8982302577219
 20
820.3739031818908
 11
3506.8982302577219
 21
819.14434028909591
  0
LINE
  8
_0-0_90_FRAME
  6
CONTINUOUS
 62
    4
 10
3520.9758959657393
 20
818.524270991143
 11
3520.9758959657393
 21
826.16011878148447
  0
LINE
  8
_0-0_90_FRAME
  6
CONTINUOUS
 62
    4
 10
3518.6704655417475
 20
818.987668573512
 11
3518.6704655417475
 21
826.16011878148447
  0
LINE
  8
_0-0_90_FRAME
  6
CONTINUOUS
 62
    4
 10
3518.6704655417475
 20
826.16011878148447
 11
3520.9758959657393
 21
826.16011878148447
  0
LINE
  8
_0-0_90_FRAME
  6
CONTINUOUS
 62
    4
 10
3510.2172206537816
 20
818.524270991143
 11
3510.2172206537816
 21
826.16011878148447
  0
LINE
  8
_0-0_90_FRAME
  6
CONTINUOUS
 62
    4
 10
3512.5226510777734
 20
818.987668573512
 11
3512.5226510777734
 21
826.16011878148447
  0
ARC
  8
_0-0_90_FRAME
  6
CONTINUOUS
 62
    4
 10
3515.6323645928837
 20
818.75596978233034
 40
5.4200985425585984
 50
182.45003099226136
 51
265.55525728852427
  0
LINE
  8
_0-0_90_FRAME
  6
CONTINUOUS
 62
    4
 10
3512.5226510777734
 20
826.16011878148447
 11
3510.2172206537816
 21
826.16011878148447
  0
LINE
  8
_0-0_90_FRAME
  6
CONTINUOUS
 62
    4
 10
3515.9807967137581
 20
813.35217198153578
 11
3515.2123199057623
 21
813.35217198153578
  0
ARC
  8
_0-0_90_FRAME
  6
CONTINUOUS
 62
    4
 10
3517.0956030825814
 20
818.92802837888803
 40
4.5733409003826422
 50
179.25279388138676
 51
218.96457184688023
  0
ARC
  8
_0-0_90_FRAME
  6
CONTINUOUS
 62
    4
 10
3514.097513536939
 20
818.92802837888803
 40
4.5733409003821279
 50
321.03542815311977
 51
0.747206118613265
  0
ARC
  8
_0-0_90_FRAME
  6
CONTINUOUS
 62
    4
 10
3515.5965583097618
 20
819.78706460275089
 40
4.2638625348001273
 50
241.15772780831895
 51
298.84227219168099
  0
LINE
  8
_0-0_90_FRAME
  6
CONTINUOUS
 62
    4
 10
3503.6379990366136
 20
816.74784299468899
 11
3504.6839535409399
 21
815.72987880715073
  0
LINE
  8
_0-0_90_FRAME
  6
CONTINUOUS
 62
    4
 10
3503.6379990366136
 20
816.74784299468899
 11
3504.7726442272265
 21
817.9526781651889
  0
LINE
  8
_0-0_90_FRAME
  6
CONTINUOUS
 62
    4
 10
3508.0343420961422
 20
812.46914848912229
 11
3509.5168681631094
 21
814.04338470097309
  0
LINE
  8
_0-0_90_FRAME
  6
CONTINUOUS
 62
    4
 10
3499.3846573147398
 20
820.3739031818908
 11
3499.3846573147398
 21
819.14434028909591
  0
LINE
  8
_0-0_90_FRAME
  6
CONTINUOUS
 62
    4
 10
3506.8982302577215
 20
820.3739031818908
 11
3506.8982302577215
 21
820.3739031818908
  0
LINE
  8
_0-0_90_FRAME
  6
CONTINUOUS
 62
    4
 10
3506.8982302577215
 20
820.3739031818908
 11
3506.8411562297665
 21
821.02281671691355
  0
LINE
  8
_0-0_90_FRAME
  6
CONTINUOUS
 62
    4
 10
3506.8411562297665
 20
821.02281671691355
 11
3506.6716683113591
 21
821.65201334254073
  0
LINE
  8
_0-0_90_FRAME
  6
CONTINUOUS
 62
    4
 10
3506.6716683113591
 20
821.65201334254073
 11
3506.3949163071356
 21
822.24237523769159
  0
LINE
  8
_0-0_90_FRAME
  6
CONTINUOUS
 62
    4
 10
3506.3949163071356
 20
822.24237523769159
 11
3506.0193091867009
 21
822.77596455491937
  0
LINE
  8
_0-0_90_FRAME
  6
CONTINUOUS
 62
    4
 10
3506.0193091867009
 20
822.77596455491937
 11
3505.556259582343
 21
823.23656845282937
  0
LINE
  8
_0-0_90_FRAME
  6
CONTINUOUS
 62
    4
 10
3505.556259582343
 20
823.23656845282937
 11
3505.0198370219764
 21
823.61019171506041
  0
LINE
  8
_0-0_90_FRAME
  6
CONTINUOUS
 62
    4
 10
3505.0198370219764
 20
823.61019171506041
 11
3504.4263404336539
 21
823.88548198785213
  0
LINE
  8
_0-0_90_FRAME
  6
CONTINUOUS
 62
    4
 10
3504.4263404336539
 20
823.88548198785213
 11
3503.7938029108891
 21
824.0540747155693
  0
LINE
  8
_0-0_90_FRAME
  6
CONTINUOUS
 62
    4
 10
3503.7938029108891
 20
824.0540747155693
 11
3503.1414437862309
 21
824.11084729349227
  0
LINE
  8
_0-0_90_FRAME
  6
CONTINUOUS
 62
    4
 10
3503.1414437862309
 20
824.11084729349227
 11
3502.4890846615726
 21
824.0540747155693
  0
LINE
  8
_0-0_90_FRAME
  6
CONTINUOUS
 62
    4
 10
3502.4890846615726
 20
824.0540747155693
 11
3501.8565471388079
 21
823.88548198785213
  0
LINE
  8
_0-0_90_FRAME
  6
CONTINUOUS
 62
    4
 10
3501.8565471388079
 20
823.88548198785213
 11
3501.2630505504853
 21
823.61019171506041
  0
LINE
  8
_0-0_90_FRAME
  6
CONTINUOUS
 62
    4
 10
3501.2630505504853
 20
823.61019171506041
 11
3500.7266279901187
 21
823.23656845282937
  0
LINE
  8
_0-0_90_FRAME
  6
CONTINUOUS
 62
    4
 10
3500.7266279901187
 20
823.23656845282937
 11
3500.2635783857609
 21
822.77596455491937
  0
LINE
  8
_0-0_90_FRAME
  6
CONTINUOUS
 62
    4
 10
3500.2635783857609
 20
822.77596455491937
 11
3499.8879712653261
 21
822.24237523769159
  0
LINE
  8
_0-0_90_FRAME
  6
CONTINUOUS
 62
    4
 10
3499.8879712653261
 20
822.24237523769159
 11
3499.6112192611026
 21
821.65201334254073
  0
LINE
  8
_0-0_90_FRAME
  6
CONTINUOUS
 62
    4
 10
3499.6112192611026
 20
821.65201334254073
 11
3499.4417313426952
 21
821.02281671691355
  0
LINE
  8
_0-0_90_FRAME
  6
CONTINUOUS
 62
    4
 10
3499.4417313426952
 20
821.02281671691355
 11
3499.3846573147403
 21
820.3739031818908
  0
LINE
  8
_0-0_90_FRAME
  6
CONTINUOUS
 62
    4
 10
3499.3846573147403
 20
820.3739031818908
 11
3499.3846573147403
 21
820.3739031818908
  0
LINE
  8
_0-0_90_FRAME
  6
CONTINUOUS
 62
    4
 10
3504.6839535409385
 20
815.72987880714993
 11
3504.6839535409385
 21
815.72987880714993
  0
LINE
  8
_0-0_90_FRAME
  6
CONTINUOUS
 62
    4
 10
3504.6839535409385
 20
815.72987880714993
 11
3504.0656851509621
 21
815.51513738169319
  0
LINE
  8
_0-0_90_FRAME
  6
CONTINUOUS
 62
    4
 10
3504.0656851509621
 20
815.51513738169319
 11
3503.4193341548066
 21
815.41048658009311
  0
LINE
  8
_0-0_90_FRAME
  6
CONTINUOUS
 62
    4
 10
3503.4193341548066
 20
815.41048658009311
 11
3502.7645396004214
 21
815.41910616400048
  0
LINE
  8
_0-0_90_FRAME
  6
CONTINUOUS
 62
    4
 10
3502.7645396004214
 20
815.41910616400048
 11
3502.121197088999
 21
815.54073423172019
  0
LINE
  8
_0-0_90_FRAME
  6
CONTINUOUS
 62
    4
 10
3502.121197088999
 20
815.54073423172019
 11
3501.5088542572025
 21
815.77167517596104
  0
LINE
  8
_0-0_90_FRAME
  6
CONTINUOUS
 62
    4
 10
3501.5088542572025
 20
815.77167517596104
 11
3500.9461168321154
 21
816.10491197299427
  0
LINE
  8
_0-0_90_FRAME
  6
CONTINUOUS
 62
    4
 10
3500.9461168321154
 20
816.10491197299427
 11
3500.45008330564
 21
816.53031939136793
  0
LINE
  8
_0-0_90_FRAME
  6
CONTINUOUS
 62
    4
 10
3500.45008330564
 20
816.53031939136793
 11
3500.0358254054731
 21
817.03497164194118
  0
LINE
  8
_0-0_90_FRAME
  6
CONTINUOUS
 62
    4
 10
3500.0358254054731
 20
817.03497164194118
 11
3499.715930148287
 21
817.60353512144684
  0
LINE
  8
_0-0_90_FRAME
  6
CONTINUOUS
 62
    4
 10
3499.715930148287
 20
817.60353512144684
 11
3499.5001173895962
 21
818.21873431626705
  0
LINE
  8
_0-0_90_FRAME
  6
CONTINUOUS
 62
    4
 10
3499.5001173895962
 20
818.21873431626705
 11
3499.3949444908671
 21
818.86187671017308
  0
LINE
  8
_0-0_90_FRAME
  6
CONTINUOUS
 62
    4
 10
3499.3949444908671
 20
818.86187671017308
 11
3499.3846525986469
 21
819.1383875811274
  0
LINE
  8
_0-0_90_FRAME
  6
CONTINUOUS
 62
    4
 10
3486.012762227836
 20
813.35217198153578
 11
3488.3120993029311
 21
813.35217198153578
  0
LINE
  8
_0-0_90_FRAME
  6
CONTINUOUS
 62
    4
 10
3486.012762227836
 20
813.35217198153578
 11
3486.012762227836
 21
813.41365012617416
  0
LINE
  8
_0-0_90_FRAME
  6
CONTINUOUS
 62
    4
 10
3486.012762227836
 20
813.41365012617416
 11
3490.8424840691746
 21
826.16011878148447
  0
LINE
  8
_0-0_90_FRAME
  6
CONTINUOUS
 62
    4
 10
3486.012762227836
 20
813.35217198153578
 11
3486.012762227836
 21
813.41365012617416
  0
LINE
  8
_0-0_90_FRAME
  6
CONTINUOUS
 62
    4
 10
3489.5656935733477
 20
816.72879640094595
 11
3494.2943737254732
 21
816.72879640094595
  0
LINE
  8
_0-0_90_FRAME
  6
CONTINUOUS
 62
    4
 10
3490.2589210415508
 20
818.67560431453728
 11
3493.6011462572728
 21
818.67560431453728
  0
LINE
  8
_0-0_90_FRAME
  6
CONTINUOUS
 62
    4
 10
3497.7960732837873
 20
813.35217198153578
 11
3495.496736208695
 21
813.35217198153578
  0
LINE
  8
_0-0_90_FRAME
  6
CONTINUOUS
 62
    4
 10
3495.496736208695
 20
813.35217198153578
 11
3494.2943737254732
 21
816.72879640094595
  0
LINE
  8
_0-0_90_FRAME
  6
CONTINUOUS
 62
    4
 10
3497.7960732837873
 20
813.41365012617416
 11
3492.9663514424478
 21
826.16011878148447
  0
LINE
  8
_0-0_90_FRAME
  6
CONTINUOUS
 62
    4
 10
3497.7960732837873
 20
813.35217198153578
 11
3497.7960732837873
 21
813.41365012617416
  0
LINE
  8
_0-0_90_FRAME
  6
CONTINUOUS
 62
    4
 10
3490.8424840691746
 20
826.16011878148447
 11
3492.9663514424478
 21
826.16011878148447
  0
LINE
  8
_0-0_90_FRAME
  6
CONTINUOUS
 62
    4
 10
3493.6011462572728
 20
818.67560431453728
 11
3491.9044177558112
 21
823.44056909937296
  0
LINE
  8
_0-0_90_FRAME
  6
CONTINUOUS
 62
    4
 10
3504.7726442272265
 20
817.9526781651889
 11
3509.5168681631094
 21
814.04338470097309
  0
LINE
  8
_0-0_90_FRAME
  6
CONTINUOUS
 62
    4
 10
3506.2533907555753
 20
814.20244059403501
 11
3508.0343420961422
 21
812.46914848912229
  0
LINE
  8
_0-0_90_FRAME
  6
CONTINUOUS
 62
    4
 10
3489.5656935733477
 20
816.72879640094595
 11
3490.2589210415508
 21
818.67560431453728
  0
LINE
  8
_0-0_90_FRAME
  6
CONTINUOUS
 62
    4
 10
3509.033099314207
 20
818.987668573512
 11
3509.033099314207
 21
818.987668573512
  0
LINE
  8
_0-0_90_FRAME
  6
CONTINUOUS
 62
    4
 10
3509.033099314207
 20
818.987668573512
 11
3508.9435918282593
 21
818.0090748600669
  0
LINE
  8
_0-0_90_FRAME
  6
CONTINUOUS
 62
    4
 10
3508.9435918282593
 20
818.0090748600669
 11
3508.6777890100825
 21
817.06021522141259
  0
LINE
  8
_0-0_90_FRAME
  6
CONTINUOUS
 62
    4
 10
3508.6777890100825
 20
817.06021522141259
 11
3508.2437671438051
 21
816.16992027752337
  0
LINE
  8
_0-0_90_FRAME
  6
CONTINUOUS
 62
    4
 10
3508.2437671438051
 20
816.16992027752337
 11
3507.7907873355898
 21
815.52627431585904
  0
LINE
  8
_0-0_90_FRAME
  6
CONTINUOUS
 62
    4
 10
3506.8982349738149
 20
819.1383875811274
 11
3506.8982349738149
 21
819.1383875811274
  0
LINE
  8
_0-0_90_FRAME
  6
CONTINUOUS
 62
    4
 10
3506.8982349738149
 20
819.1383875811274
 11
3506.8411608742117
 21
818.48926606927034
  0
LINE
  8
_0-0_90_FRAME
  6
CONTINUOUS
 62
    4
 10
3506.8411608742117
 20
818.48926606927034
 11
3506.6716727430371
 21
817.8598677860798
  0
LINE
  8
_0-0_90_FRAME
  6
CONTINUOUS
 62
    4
 10
3506.6716727430371
 20
817.8598677860798
 11
3506.3949203913921
 21
817.26931667989948
  0
LINE
  8
_0-0_90_FRAME
  6
CONTINUOUS
 62
    4
 10
3506.3949203913921
 20
817.26931667989948
 11
3506.1400623562249
 21
816.88649011938242
  0
LINE
  8
_0-0_90_FRAME
  6
CONTINUOUS
 62
    4
 10
3497.2497882582556
 20
820.52462218950632
 11
3497.2497882582556
 21
818.987668573512
  0
LINE
  8
_0-0_90_FRAME
  6
CONTINUOUS
 62
    4
 10
3488.3120993029311
 20
813.35217198153578
 11
3491.9044177558112
 21
823.44056909937296
  0
LINE
  8
_0-0_90_FRAME
  6
CONTINUOUS
 62
    4
 10
3520.8461017515706
 20
813.35217198153578
 11
3523.1454388266666
 21
813.35217198153578
  0
LINE
  8
_0-0_90_FRAME
  6
CONTINUOUS
 62
    4
 10
3520.8461017515706
 20
813.35217198153578
 11
3520.8461017515706
 21
813.41365012617416
  0
LINE
  8
_0-0_90_FRAME
  6
CONTINUOUS
 62
    4
 10
3520.8461017515706
 20
813.41365012617416
 11
3525.6758235929133
 21
826.16011878148447
  0
LINE
  8
_0-0_90_FRAME
  6
CONTINUOUS
 62
    4
 10
3520.8461017515706
 20
813.35217198153578
 11
3520.8461017515706
 21
813.41365012617416
  0
LINE
  8
_0-0_90_FRAME
  6
CONTINUOUS
 62
    4
 10
3524.399033097086
 20
816.72879640094595
 11
3529.1277132492119
 21
816.72879640094595
  0
LINE
  8
_0-0_90_FRAME
  6
CONTINUOUS
 62
    4
 10
3525.0922605652863
 20
818.67560431453728
 11
3528.434485781012
 21
818.67560431453728
  0
LINE
  8
_0-0_90_FRAME
  6
CONTINUOUS
 62
    4
 10
3532.6294128075256
 20
813.35217198153578
 11
3530.33007573243
 21
813.35217198153578
  0
LINE
  8
_0-0_90_FRAME
  6
CONTINUOUS
 62
    4
 10
3530.33007573243
 20
813.35217198153578
 11
3529.1277132492119
 21
816.72879640094595
  0
LINE
  8
_0-0_90_FRAME
  6
CONTINUOUS
 62
    4
 10
3532.6294128075256
 20
813.41365012617416
 11
3527.7996909661865
 21
826.16011878148447
  0
LINE
  8
_0-0_90_FRAME
  6
CONTINUOUS
 62
    4
 10
3532.6294128075256
 20
813.35217198153578
 11
3532.6294128075256
 21
813.41365012617416
  0
LINE
  8
_0-0_90_FRAME
  6
CONTINUOUS
 62
    4
 10
3525.6758235929133
 20
826.16011878148447
 11
3527.7996909661865
 21
826.16011878148447
  0
LINE
  8
_0-0_90_FRAME
  6
CONTINUOUS
 62
    4
 10
3528.434485781012
 20
818.67560431453728
 11
3526.7377572795504
 21
823.44056909937296
  0
LINE
  8
_0-0_90_FRAME
  6
CONTINUOUS
 62
    4
 10
3524.399033097086
 20
816.72879640094595
 11
3525.0922605652863
 21
818.67560431453728
  0
LINE
  8
_0-0_90_FRAME
  6
CONTINUOUS
 62
    4
 10
3523.1454388266666
 20
813.35217198153578
 11
3526.7377572795504
 21
823.44056909937296
  0
ARC
  8
_0-0_90_FRAME
  6
CONTINUOUS
 62
    4
 10
3515.5607520266367
 20
818.75596978233034
 40
5.4200985425585984
 50
274.44474271147573
 51
357.5499690077387
  0
LINE
  8
_0-0_90_FRAME
  6
CONTINUOUS
 62
    4
 10
3506.1400623562272
 20
816.88649011938423
 11
3507.7907873355925
 21
815.5262743158595
  0
LINE
  8
_0-0_90_FRAME
  6
CONTINUOUS
 62
    4
 10
3507.0366284254928
 20
804.2841168952317
 11
3507.0366284254928
 21
804.2841168952317
  0
LINE
  8
_0-0_90_FRAME
  6
CONTINUOUS
 62
    4
 10
3507.0366284254928
 20
804.2841168952317
 11
3507.6823021383907
 21
804.5451301415568
  0
LINE
  8
_0-0_90_FRAME
  6
CONTINUOUS
 62
    4
 10
3507.6823021383907
 20
804.5451301415568
 11
3508.2625414997838
 21
804.89353571417075
  0
LINE
  8
_0-0_90_FRAME
  6
CONTINUOUS
 62
    4
 10
3508.2625414997838
 20
804.89353571417075
 11
3508.7597162302914
 21
805.31874748605128
  0
LINE
  8
_0-0_90_FRAME
  6
CONTINUOUS
 62
    4
 10
3508.7597162302914
 20
805.31874748605128
 11
3509.1587199273104
 21
805.80784561267751
  0
LINE
  8
_0-0_90_FRAME
  6
CONTINUOUS
 62
    4
 10
3509.1587199273104
 20
805.80784561267751
 11
3509.4474290654116
 21
806.34596909496724
  0
LINE
  8
_0-0_90_FRAME
  6
CONTINUOUS
 62
    4
 10
3509.4474290654116
 20
806.34596909496724
 11
3509.6170713635283
 21
806.91676732321503
  0
LINE
  8
_0-0_90_FRAME
  6
CONTINUOUS
 62
    4
 10
3509.6170713635283
 20
806.91676732321503
 11
3509.6624923262752
 21
807.50289688209318
  0
LINE
  8
_0-0_90_FRAME
  6
CONTINUOUS
 62
    4
 10
3509.6624923262752
 20
807.50289688209318
 11
3509.5823118606831
 21
808.08654852155109
  0
LINE
  8
_0-0_90_FRAME
  6
CONTINUOUS
 62
    4
 10
3509.5823118606831
 20
808.08654852155109
 11
3509.378966209626
 21
808.64998828186583
  0
LINE
  8
_0-0_90_FRAME
  6
CONTINUOUS
 62
    4
 10
3509.378966209626
 20
808.64998828186583
 11
3509.0586339278134
 21
809.1760963310345
  0
LINE
  8
_0-0_90_FRAME
  6
CONTINUOUS
 62
    4
 10
3509.0586339278134
 20
809.1760963310345
 11
3508.631048149532
 21
809.6488871422066
  0
LINE
  8
_0-0_90_FRAME
  6
CONTINUOUS
 62
    4
 10
3508.631048149532
 20
809.6488871422066
 11
3508.1092008522864
 21
810.05399520582853
  0
LINE
  8
_0-0_90_FRAME
  6
CONTINUOUS
 62
    4
 10
3508.1092008522864
 20
810.05399520582853
 11
3507.5089481021355
 21
810.37911151838148
  0
LINE
  8
_0-0_90_FRAME
  6
CONTINUOUS
 62
    4
 10
3507.5089481021355
 20
810.37911151838148
 11
3506.8485282751508
 21
810.61435758522555
  0
LINE
  8
_0-0_90_FRAME
  6
CONTINUOUS
 62
    4
 10
3506.8485282751508
 20
810.61435758522555
 11
3506.1480078935856
 21
810.75258557365964
  0
LINE
  8
_0-0_90_FRAME
  6
CONTINUOUS
 62
    4
 10
3506.1480078935856
 20
810.75258557365964
 11
3505.5287579142509
 21
810.79058262154513
  0
LINE
  8
_0-0_90_FRAME
  6
CONTINUOUS
 62
    4
 10
3514.4240280399958
 20
800.03190730958829
 11
3514.4240280399958
 21
808.74131113355315
  0
LINE
  8
_0-0_90_FRAME
  6
CONTINUOUS
 62
    4
 10
3512.1185976160032
 20
800.03190730958829
 11
3512.1185976160032
 21
808.74131113355315
  0
LINE
  8
_0-0_90_FRAME
  6
CONTINUOUS
 62
    4
 10
3511.862438680002
 20
810.79058262154604
 11
3514.6801869759925
 21
810.79058262154604
  0
LINE
  8
_0-0_90_FRAME
  6
CONTINUOUS
 62
    4
 10
3499.6371023862794
 20
810.79058262154604
 11
3499.6371023862794
 21
797.98263582159723
  0
LINE
  8
_0-0_90_FRAME
  6
CONTINUOUS
 62
    4
 10
3511.862438680002
 20
797.98263582159723
 11
3514.6801869759925
 21
797.98263582159723
  0
LINE
  8
_0-0_90_FRAME
  6
CONTINUOUS
 62
    4
 10
3514.6801869759925
 20
797.98263582159723
 11
3514.6801869759925
 21
799.77574837359077
  0
ARC
  8
_0-0_90_FRAME
  6
CONTINUOUS
 62
    4
 10
3514.6801869759925
 20
800.03190730958829
 40
0.2561589359989651
 50
180
 51
270
  0
LINE
  8
_0-0_90_FRAME
  6
CONTINUOUS
 62
    4
 10
3511.862438680002
 20
797.98263582159723
 11
3511.862438680002
 21
799.77574837359077
  0
ARC
  8
_0-0_90_FRAME
  6
CONTINUOUS
 62
    4
 10
3511.862438680002
 20
800.03190730958829
 40
0.2561589359989651
 50
270
 51
0
  0
LINE
  8
_0-0_90_FRAME
  6
CONTINUOUS
 62
    4
 10
3514.6801869759925
 20
810.79058262154604
 11
3514.6801869759925
 21
808.99747006955249
  0
ARC
  8
_0-0_90_FRAME
  6
CONTINUOUS
 62
    4
 10
3514.6801869759925
 20
808.74131113355315
 40
0.2561589359989651
 50
90
 51
180
  0
LINE
  8
_0-0_90_FRAME
  6
CONTINUOUS
 62
    4
 10
3511.862438680002
 20
810.79058262154604
 11
3511.862438680002
 21
808.99747006955249
  0
ARC
  8
_0-0_90_FRAME
  6
CONTINUOUS
 62
    4
 10
3511.862438680002
 20
808.74131113355315
 40
0.2561589359989651
 50
0
 51
90
  0
LINE
  8
_0-0_90_FRAME
  6
CONTINUOUS
 62
    4
 10
3494.0784950946631
 20
797.98263582159723
 11
3494.0784950946631
 21
808.74131113355315
  0
LINE
  8
_0-0_90_FRAME
  6
CONTINUOUS
 62
    4
 10
3491.773064670675
 20
797.98263582159723
 11
3491.773064670675
 21
808.74131113355315
  0
LINE
  8
_0-0_90_FRAME
  6
CONTINUOUS
 62
    4
 10
3487.6745216946929
 20
810.79058262154604
 11
3498.1770380706494
 21
810.79058262154604
  0
LINE
  8
_0-0_90_FRAME
  6
CONTINUOUS
 62
    4
 10
3491.773064670675
 20
797.98263582159723
 11
3494.0784950946631
 21
797.98263582159723
  0
LINE
  8
_0-0_90_FRAME
  6
CONTINUOUS
 62
    4
 10
3498.1770380706494
 20
810.79058262154604
 11
3498.1770380706494
 21
808.99747006955249
  0
ARC
  8
_0-0_90_FRAME
  6
CONTINUOUS
 62
    4
 10
3494.3346540306648
 20
808.74131113355315
 40
0.2561589359989651
 50
90
 51
180
  0
LINE
  8
_0-0_90_FRAME
  6
CONTINUOUS
 62
    4
 10
3487.6745216946929
 20
810.79058262154604
 11
3487.6745216946929
 21
808.99747006955249
  0
ARC
  8
_0-0_90_FRAME
  6
CONTINUOUS
 62
    4
 10
3491.5169057346775
 20
808.74131113355315
 40
0.2561589359989651
 50
0
 51
90
  0
LINE
  8
_0-0_90_FRAME
  6
CONTINUOUS
 62
    4
 10
3487.6745216946929
 20
808.99747006955249
 11
3491.5169057346775
 21
808.99747006955249
  0
LINE
  8
_0-0_90_FRAME
  6
CONTINUOUS
 62
    4
 10
3494.3346540306648
 20
808.99747006955249
 11
3498.1770380706494
 21
808.99747006955249
  0
LINE
  8
_0-0_90_FRAME
  6
CONTINUOUS
 62
    4
 10
3499.6371023862794
 20
797.98263582159723
 11
3501.9425328102675
 21
797.98263582159723
  0
LINE
  8
_0-0_90_FRAME
  6
CONTINUOUS
 62
    4
 10
3501.9425328102675
 20
797.98263582159723
 11
3501.9425328102675
 21
808.99747006955249
  0
LINE
  8
_0-0_90_FRAME
  6
CONTINUOUS
 62
    4
 10
3499.6371023862794
 20
810.79058262154604
 11
3505.5287579142509
 21
810.79058262154604
  0
LINE
  8
_0-0_90_FRAME
  6
CONTINUOUS
 62
    4
 10
3501.9425328102675
 20
808.99747006955249
 11
3505.8361486374538
 21
808.99747006955249
  0
LINE
  8
_0-0_90_FRAME
  6
CONTINUOUS
 62
    4
 10
3502.0193804910641
 20
804.05210693414438
 11
3502.0193804910641
 21
805.84521948613792
  0
LINE
  8
_0-0_90_FRAME
  6
CONTINUOUS
 62
    4
 10
3502.0193804910641
 20
804.05210693414438
 11
3504.5347504888032
 21
804.05210693414438
  0
LINE
  8
_0-0_90_FRAME
  6
CONTINUOUS
 62
    4
 10
3502.0193804910641
 20
805.84521948613792
 11
3505.8361486374538
 21
805.84521948613792
  0
ARC
  8
_0-0_90_FRAME
  6
CONTINUOUS
 62
    4
 10
3505.7811901828918
 20
807.42134477784521
 40
1.5770831832489223
 50
271.99705710435398
 51
88.002942895541636
  0
LINE
  8
_0-0_90_FRAME
  6
CONTINUOUS
 62
    4
 10
3507.4351210469413
 20
797.98263582159723
 11
3509.9198627261303
 21
797.98263582159723
  0
LINE
  8
_0-0_90_FRAME
  6
CONTINUOUS
 62
    4
 10
3507.7127203099681
 20
803.49007762471183
 11
3509.9198627261303
 21
798.08509939599708
  0
LINE
  8
_0-0_90_FRAME
  6
CONTINUOUS
 62
    4
 10
3505.4852558096118
 20
803.41011729686898
 11
3507.4351210469413
 21
797.98263582159723
  0
ARC
  8
_0-0_90_FRAME
  6
CONTINUOUS
 62
    4
 10
3504.5347504888032
 20
803.02747119015066
 40
1.0246357439958607
 50
21.928297866550245
 51
90
  0
ARC
  8
_0-0_90_FRAME
  6
CONTINUOUS
 62
    4
 10
3506.162862550043
 20
802.85528917960573
 40
1.6748180337109209
 50
22.272952259980951
 51
58.553113012863221
  0
LINE
  8
_0-0_90_FRAME
  6
CONTINUOUS
 62
    4
 10
3509.9198627261303
 20
798.08509939599708
 11
3509.9198627261303
 21
797.98263582159723
  0
LINE
  8
_0-0_90_FRAME
  6
CONTINUOUS
 62
    4
 10
3516.9881135249398
 20
810.79058262154604
 11
3516.9881135249398
 21
797.98263582159723
  0
LINE
  8
_0-0_90_FRAME
  6
CONTINUOUS
 62
    4
 10
3516.9881135249398
 20
797.98263582159723
 11
3519.2935439489324
 21
797.98263582159723
  0
LINE
  8
_0-0_90_FRAME
  6
CONTINUOUS
 62
    4
 10
3519.2935439489324
 20
797.98263582159723
 11
3519.2914210448598
 21
806.94819858156143
  0
LINE
  8
_0-0_90_FRAME
  6
CONTINUOUS
 62
    4
 10
3516.9881135249398
 20
810.79058262154604
 11
3520.3334440396816
 21
810.79058262154604
  0
LINE
  8
_0-0_90_FRAME
  6
CONTINUOUS
 62
    4
 10
3527.4927528049684
 20
806.94819858156143
 11
3527.4927528049684
 21
797.98263582159723
  0
LINE
  8
_0-0_90_FRAME
  6
CONTINUOUS
 62
    4
 10
3527.4927528049684
 20
797.98263582159723
 11
3529.7981832289565
 21
797.98263582159723
  0
LINE
  8
_0-0_90_FRAME
  6
CONTINUOUS
 62
    4
 10
3529.7981832289565
 20
797.98263582159723
 11
3529.7981832289565
 21
810.79058262154604
  0
LINE
  8
_0-0_90_FRAME
  6
CONTINUOUS
 62
    4
 10
3522.2393717129212
 20
797.98263582159723
 11
3524.5448021369098
 21
797.98263582159723
  0
LINE
  8
_0-0_90_FRAME
  6
CONTINUOUS
 62
    4
 10
3529.7981832289565
 20
810.79058262154604
 11
3526.4507298101475
 21
810.79058262154604
  0
LINE
  8
_0-0_90_FRAME
  6
CONTINUOUS
 62
    4
 10
3524.5448021369098
 20
797.98263582159723
 11
3527.4927528049684
 21
806.94819858156143
  0
LINE
  8
_0-0_90_FRAME
  6
CONTINUOUS
 62
    4
 10
3522.2393717129212
 20
797.98263582159723
 11
3519.2914210448598
 21
806.94819858156143
  0
LINE
  8
_0-0_90_FRAME
  6
CONTINUOUS
 62
    4
 10
3523.3920869249137
 20
801.4883731086843
 11
3526.4507298101475
 21
810.79058262154604
  0
LINE
  8
_0-0_90_FRAME
  6
CONTINUOUS
 62
    4
 10
3523.3920869249137
 20
801.4883731086843
 11
3520.3334440396816
 21
810.79058262154604
  0
TEXT
  8
_0-0_90_FRAME
 62
    2
 10
3544.8995497995279
 20
821.0141476765923
 40
15.121542857081762
 41
1
 50
0
  1
ŖöÄ«ē’Äą
  0
LINE
  8
_0-0_90_FRAME
  6
CONTINUOUS
 62
   18
 10
3590.9333302088471
 20
852.44973762196923
 11
3590.9333302088471
 21
923.16402333597159
  0
TEXT
  8
_0-0_90_FRAME
 62
    7
 10
3722.91491106387
 20
797.70020897820814
 40
20
 41
1
 50
0
  1
Äøōc
  0
TEXT
  8
_0-0_90_FRAME
 62
    7
 10
3620.1006253500332
 20
869.42268903593003
 40
20
 41
1
 50
0
  1
1üF4
  0
TEXT
  8
_0-0_90_FRAME
 62
    7
 10
3799.2802175152883
 20
909.47238270012861
 40
10
 41
1
 50
0
  1
ŗ@ŖĒ
  0
LINE
  8
_0-0_90_FRAME
  6
CONTINUOUS
 62
   18
 10
3947.6095039338015
 20
923.16402333597159
 11
3947.6095039338015
 21
821.33545190781069
  0
TEXT
  8
_0-0_90_FRAME
 62
    7
 10
3950.3278198125681
 20
909.47238270012861
 40
10
 41
1
 50
0
  1
ĢöĢi¢╝
  0
TEXT
  8
_0-0_90_FRAME
 62
    7
 10
3950.3278198125645
 20
852.40095412892651
 40
10
 41
1
 50
0
  1
É}¢╩öįŹå
  0
LINE
  8
_0-0_90_FRAME
  6
CONTINUOUS
 62
   18
 10
3796.561901636529
 20
872.24973762189222
 11
3947.6095039338015
 21
872.24973762189222
  0
TEXT
  8
_0-0_90_FRAME
 62
    7
 10
3799.2802175152883
 20
858.05809698604889
 40
10
 41
1
 50
0
  1
ī^Ä«
  0
LINE
  8
_0-0_90_FRAME
  6
CONTINUOUS
 62
   18
 10
3659.2476211726812
 20
923.16402333597159
 11
4264.1333302061303
 21
923.16402333597159
  0
LINE
  8
_0-0_90_FRAME
  6
CONTINUOUS
 62
    4
 10
3659.2476211726798
 20
1035.1640203274751
 11
3659.2476211726812
 21
923.16402333597182
  0
LINE
  8
_0-0_90_FRAME
  6
CONTINUOUS
 62
    4
 10
3947.6095039338015
 20
1035.1640203274751
 11
3947.6095039338015
 21
923.16402333597159
  0
LINE
  8
_0-0_90_FRAME
  6
CONTINUOUS
 62
    4
 10
4057.3859553917296
 20
1035.1640203274751
 11
4057.3859553917455
 21
923.16402333597159
  0
LINE
  8
_0-0_90_FRAME
  6
CONTINUOUS
 62
    4
 10
4029.3859588917276
 20
1035.1640203274751
 11
4029.3859588917426
 21
923.16402333597159
  0
LINE
  8
_0-0_90_FRAME
  6
CONTINUOUS
 62
    4
 10
3701.2476159226881
 20
1035.1640203274751
 11
3701.2476159226881
 21
923.16402333597159
  0
LINE
  8
_0-0_90_FRAME
  6
CONTINUOUS
 62
    4
 10
4099.3859501417392
 20
1035.1640203274751
 11
4099.3859501417382
 21
923.16402333597159
  0
TEXT
  8
_0-0_90_FRAME
 62
    3
 10
4040.8428272390515
 20
957.85472095846831
 40
12.000000000000002
 41
1
 50
0
  1
1
  0
TEXT
  8
_0-0_90_FRAME
 62
    3
 10
3954.0550009653293
 20
958.1213861695162
 40
12.000000000000002
 41
1
 50
0
  1
SUS304
  0
TEXT
  8
_0-0_90_FRAME
 62
    3
 10
3720.7551499446677
 20
957.96221665173687
 40
12.000000000000002
 41
1
 50
0
  1
ēśōDözŖŪāXāeü[1
  0
TEXT
  8
_0-0_90_FRAME
 62
    3
 10
3669.2173181506078
 20
957.65352391969668
 40
12.000000000000002
 41
1
 50
0
  1
98
  0
TEXT
  8
_0-0_90_FRAME
 62
    3
 10
4066.5327167698188
 20
937.53548593120172
 40
10
 41
1
 50
0
  1
ÅdŚ╩
  0
TEXT
  8
_0-0_90_FRAME
 62
    3
 10
3966.2832516394678
 20
931.08129429370842
 40
12.000000000000002
 41
1
 50
0
  1
Ź▐ü@Ä┐
  0
TEXT
  8
_0-0_90_FRAME
 62
    3
 10
4030.8565273423178
 20
930.99110658192762
 40
12.000000000000002
 41
1
 50
0
  1
ÉöŚ╩
  0
TEXT
  8
_0-0_90_FRAME
 62
    3
 10
4070.9525758315363
 20
927.75078774205269
 40
8
 41
1
 50
0
  1
kg
  0
TEXT
  8
_0-0_90_FRAME
 62
    3
 10
4152.907687672111
 20
930.78990954313292
 40
12.000000000000002
 41
1
 50
0
  1
ö§  Źl
  0
TEXT
  8
_0-0_90_FRAME
 62
    3
 10
3667.7995995508563
 20
930.78990954313292
 40
12.000000000000002
 41
1
 50
0
  1
ĢäŹå
  0
TEXT
  8
_0-0_90_FRAME
 62
    3
 10
3769.5284559498132
 20
931.22546504424633
 40
12.000000000000002
 41
1
 50
0
  1
Ģöü@ü@Ģiü@ü@¢╝
  0
LINE
  8
_0-0_90_FRAME
  6
CONTINUOUS
 62
    4
 10
3659.2475980664472
 20
1035.1640203274751
 11
4264.1333070998971
 21
1035.1640203274751
  0
LINE
  8
_0-0_90_FRAME
  6
CONTINUOUS
 62
    4
 10
3659.2475980664472
 20
1007.1640188323408
 11
4264.1333070998971
 21
1007.1640188323408
  0
LINE
  8
_0-0_90_FRAME
  6
CONTINUOUS
 62
    4
 10
3659.2475980664472
 20
979.1640203274751
 11
4264.1333070998971
 21
979.1640203274751
  0
LINE
  8
_0-0_90_FRAME
  6
CONTINUOUS
 62
    4
 10
3659.2475980664472
 20
951.1640203274751
 11
4264.1333070998971
 21
951.1640203274751
  0
TEXT
  8
_0-0_90_FRAME
 62
    7
 10
4060.6366733356358
 20
886.32076946488905
 40
16
 41
1
 50
0
  1
ÆEÉģŗ@ ĢöĢiÉ}
  0
TEXT
  8
_0-0_90_FRAME
 62
    7
 10
3806.3250688958337
 20
885.74665914703166
 40
12.800000000000002
 41
0.9
 50
0
  1
ŚLŗ@É½ēśōDöRŚ┐Ä{É▌
  0
LINE
  8
_0-2_08_DIM
  6
CONTINUOUS
 62
    3
 10
1438.2947994837725
 20
2628.431541656968
 11
1543.1221865646639
 21
2628.431541656968
  0
INSERT
  2
-000-p1ba05
  8
_0-2_08_DIM
 10
1500.7768090913878
 20
2633.9018983576889
 41
6
 42
6
 50
0
  0
INSERT
  2
-004-Jis_w20130906110600
  8
_0-2_08_DIM
 10
4104.8515652034466
 20
1119.5789192841432
 41
2.3999999999999999
 42
2.3999999999999999
 50
0
  0
LINE
  8
_0-3_0
  6
CONTINUOUS
 62
   18
 10
3827.3901315000862
 20
2163.8980851060455
 11
1982.3901315113019
 21
2163.8980851060455
  0
LINE
  8
_0-3_0
  6
CONTINUOUS
 62
   18
 10
3782.3901315010462
 20
2213.8980851060451
 11
1732.3901315120984
 21
2213.8980851060451
  0
LINE
  8
_0-3_0
  6
CONTINUOUS
 62
   18
 10
3782.3901315010462
 20
2207.8980851060505
 11
1732.3901315120984
 21
2207.8980851060451
  0
CIRCLE
  8
_0-3_0
  6
CONTINUOUS
 62
   18
 10
3557.3901315123458
 20
2376.8980851082006
 40
5
  0
LINE
  8
_0-4_05_CENTER
  6
CENTER2
 62
    4
 10
3566.7323618484543
 20
2376.8980851082079
 11
3548.0479011762532
 21
2376.8980851082079
  0
LINE
  8
_0-4_05_CENTER
  6
CENTER2
 62
    4
 10
3557.390131512353
 20
2386.2403154443082
 11
3557.390131512353
 21
2367.5558547721075
  0
CIRCLE
  8
_0-3_0
  6
CONTINUOUS
 62
   18
 10
3557.3901315123458
 20
2290.8980850577891
 40
5
  0
LINE
  8
_0-4_05_CENTER
  6
CENTER2
 62
    4
 10
3566.7323618484543
 20
2290.8980850577964
 11
3548.0479011762532
 21
2290.8980850577964
  0
LINE
  8
_0-4_05_CENTER
  6
CENTER2
 62
    4
 10
3557.390131512353
 20
2300.2403153938967
 11
3557.390131512353
 21
2281.5558547216961
  0
CIRCLE
  8
_0-3_0
  6
CONTINUOUS
 62
   18
 10
2363.3901315028652
 20
2188.8980851060342
 40
5
  0
LINE
  8
_0-4_05_CENTER
  6
CENTER2
 62
    4
 10
2363.3901315028725
 20
2179.5558547699266
 11
2363.3901315028725
 21
2198.2403154421272
  0
LINE
  8
_0-4_05_CENTER
  6
CENTER2
 62
    4
 10
2372.7323618389728
 20
2188.8980851060273
 11
2354.0479011667721
 21
2188.8980851060273
  0
CIRCLE
  8
_0-3_0
  6
CONTINUOUS
 62
   18
 10
2291.3901315028579
 20
2188.8980851060342
 40
5
  0
LINE
  8
_0-4_05_CENTER
  6
CENTER2
 62
    4
 10
2291.3901315028656
 20
2179.5558547699266
 11
2291.3901315028656
 21
2198.2403154421272
  0
LINE
  8
_0-4_05_CENTER
  6
CENTER2
 62
    4
 10
2300.7323618389655
 20
2188.8980851060273
 11
2282.0479011667653
 21
2188.8980851060273
  0
INSERT
  2
-005-KK015066_54_5_1_1
  8
_0-5_04_HIDDEN
 10
1732.3901315120984
 20
2213.8980851060437
 41
1
 42
1
 50
89.999999999999986
  0
CIRCLE
  8
_0-3_0
  6
CONTINUOUS
 62
   18
 10
1957.3901315102544
 20
2376.8980851082006
 40
5
  0
LINE
  8
_0-4_05_CENTER
  6
CENTER2
 62
    4
 10
1948.0479011741468
 20
2376.8980851082079
 11
1966.7323618463472
 21
2376.8980851082079
  0
LINE
  8
_0-4_05_CENTER
  6
CENTER2
 62
    4
 10
1957.3901315102469
 20
2386.2403154443082
 11
1957.3901315102469
 21
2367.5558547721075
  0
CIRCLE
  8
_0-3_0
  6
CONTINUOUS
 62
   18
 10
1957.3901315102544
 20
2290.8980850577891
 40
5
  0
LINE
  8
_0-4_05_CENTER
  6
CENTER2
 62
    4
 10
1948.0479011741468
 20
2290.8980850577964
 11
1966.7323618463472
 21
2290.8980850577964
  0
LINE
  8
_0-4_05_CENTER
  6
CENTER2
 62
    4
 10
1957.3901315102469
 20
2300.2403153938967
 11
1957.3901315102469
 21
2281.5558547216961
  0
LINE
  8
_0-3_0
  6
CONTINUOUS
 62
   18
 10
1932.3901315113021
 20
2213.8980851060414
 11
1982.3901315113019
 21
2213.8980851060414
  0
LINE
  8
_0-3_0
  6
CONTINUOUS
 62
   18
 10
1982.3901315113019
 20
2213.8980851060414
 11
1982.3901315113019
 21
2394.8980851060323
  0
LINE
  8
_0-3_0
  6
CONTINUOUS
 62
   18
 10
1982.3901315113019
 20
2394.8980851060323
 11
1937.3901315113017
 21
2394.8980851060323
  0
LINE
  8
_0-3_0
  6
CONTINUOUS
 62
   18
 10
1937.3901315113017
 20
2394.8980851060323
 11
1932.3901315113021
 21
2389.8980851060323
  0
LINE
  8
_0-3_0
  6
CONTINUOUS
 62
   18
 10
1932.3901315113021
 20
2389.8980851060323
 11
1932.3901315113021
 21
2213.8980851060487
  0
LINE
  8
_0-3_0
  6
CONTINUOUS
 62
   18
 10
1976.3901315113019
 20
2213.8980851060414
 11
1976.3901315113019
 21
2394.8980851060323
  0
LINE
  8
_0-3_0
  6
CONTINUOUS
 62
   18
 10
3582.390131511298
 20
2213.8980851060451
 11
3532.3901315112985
 21
2213.8980851060451
  0
LINE
  8
_0-3_0
  6
CONTINUOUS
 62
   18
 10
3532.3901315112985
 20
2213.8980851060451
 11
3532.3901315112985
 21
2394.8980851060323
  0
LINE
  8
_0-3_0
  6
CONTINUOUS
 62
   18
 10
3532.3901315112985
 20
2394.8980851060323
 11
3577.3901315112985
 21
2394.8980851060323
  0
LINE
  8
_0-3_0
  6
CONTINUOUS
 62
   18
 10
3577.3901315112985
 20
2394.8980851060323
 11
3582.390131511298
 21
2389.8980851060323
  0
LINE
  8
_0-3_0
  6
CONTINUOUS
 62
   18
 10
3582.390131511298
 20
2389.8980851060323
 11
3582.390131511298
 21
2213.8980851060451
  0
LINE
  8
_0-3_0
  6
CONTINUOUS
 62
   18
 10
3538.390131511298
 20
2213.8980851060451
 11
3538.390131511298
 21
2394.8980851060323
  0
CIRCLE
  8
_0-3_0
  6
CONTINUOUS
 62
   18
 10
3151.3901315091375
 20
2188.8980851026326
 40
5
  0
LINE
  8
_0-4_05_CENTER
  6
CENTER2
 62
    4
 10
3151.3901315091302
 20
2179.555854766525
 11
3151.3901315091302
 21
2198.2403154387262
  0
LINE
  8
_0-4_05_CENTER
  6
CENTER2
 62
    4
 10
3142.0479011730299
 20
2188.8980851026258
 11
3160.7323618452301
 21
2188.8980851026258
  0
CIRCLE
  8
_0-3_0
  6
CONTINUOUS
 62
   18
 10
3223.3901315091448
 20
2188.8980851026308
 40
5
  0
LINE
  8
_0-4_05_CENTER
  6
CENTER2
 62
    4
 10
3223.3901315091375
 20
2179.5558547665232
 11
3223.3901315091375
 21
2198.2403154387239
  0
LINE
  8
_0-4_05_CENTER
  6
CENTER2
 62
    4
 10
3214.0479011730372
 20
2188.8980851026236
 11
3232.7323618452374
 21
2188.8980851026236
  0
LINE
  8
_0-3_0
  6
CONTINUOUS
 62
   18
 10
1932.3901315113021
 20
2163.8980851060469
 11
1687.3901315130554
 21
2163.8980851060455
  0
LINE
  8
_0-3_0
  6
CONTINUOUS
 62
   18
 10
1982.3901315113019
 20
2163.8980851060455
 11
1932.3901315113021
 21
2163.8980851060469
  0
CIRCLE
  8
_0-3_0
  6
CONTINUOUS
 62
   18
 10
1707.3901315089624
 20
2255.8980850975013
 40
6.0000000000000009
  0
LINE
  8
_0-4_05_CENTER
  6
CENTER2
 62
    4
 10
1697.1010403349958
 20
2255.8980850929288
 11
1717.679222682933
 21
2255.8980850929288
  0
LINE
  8
_0-4_05_CENTER
  6
CENTER2
 62
    4
 10
1707.3901315105304
 20
2266.1871762714704
 11
1707.3901315105304
 21
2245.6089939235326
  0
LINE
  8
_0-3_0
  6
CONTINUOUS
 62
   18
 10
1732.3901315130556
 20
2185.8980850929247
 11
1732.3901315130556
 21
2265.8980850918733
  0
LINE
  8
_0-3_0
  6
CONTINUOUS
 62
   18
 10
1732.3901315130556
 20
2265.8980850918733
 11
1730.3901315130554
 21
2267.8980850918733
  0
LINE
  8
_0-3_0
  6
CONTINUOUS
 62
   18
 10
1730.3901315130554
 20
2267.8980850918733
 11
1684.3901315130554
 21
2267.8980850918715
  0
LINE
  8
_0-3_0
  6
CONTINUOUS
 62
   18
 10
1684.3901315130554
 20
2267.8980850918715
 11
1682.3901315130554
 21
2265.898085091872
  0
LINE
  8
_0-3_0
  6
CONTINUOUS
 62
   18
 10
1682.3901315130554
 20
2265.898085091872
 11
1682.3901315130554
 21
2185.8980850929306
  0
LINE
  8
_0-3_0
  6
CONTINUOUS
 62
   18
 10
1682.3901315130554
 20
2185.8980850929306
 11
1684.3901315130554
 21
2183.8980850929302
  0
LINE
  8
_0-3_0
  6
CONTINUOUS
 62
   18
 10
1684.3901315130554
 20
2183.8980850929302
 11
1730.3901315130554
 21
2183.8980850929247
  0
LINE
  8
_0-3_0
  6
CONTINUOUS
 62
   18
 10
1730.3901315130554
 20
2183.8980850929247
 11
1732.3901315130556
 21
2185.8980850929247
  0
CIRCLE
  8
_0-3_0
  6
CONTINUOUS
 62
   18
 10
1707.3901315105304
 20
2195.8980850975013
 40
6.0000000000000009
  0
LINE
  8
_0-4_05_CENTER
  6
CENTER2
 62
    4
 10
1697.1010403365638
 20
2195.8980850929283
 11
1717.6792226845009
 21
2195.8980850929283
  0
LINE
  8
_0-4_05_CENTER
  6
CENTER2
 62
    4
 10
1707.3901315120984
 20
2206.18717627147
 11
1707.3901315120984
 21
2185.6089939235326
  0
LINE
  8
_0-4_05_CENTER
  6
CENTER2
 62
    4
 10
1707.3901315120984
 20
2227.1137000058179
 11
1707.3901315120984
 21
2206.5355176578805
  0
CIRCLE
  8
_0-3_0
  6
CONTINUOUS
 62
   18
 10
3807.3901315041826
 20
2255.8980850975013
 40
6.0000000000000009
  0
LINE
  8
_0-4_05_CENTER
  6
CENTER2
 62
    4
 10
3817.679222678149
 20
2255.8980850929288
 11
3797.1010403302157
 21
2255.8980850929288
  0
LINE
  8
_0-4_05_CENTER
  6
CENTER2
 62
    4
 10
3807.390131502611
 20
2266.1871762714704
 11
3807.390131502611
 21
2245.6089939235326
  0
LINE
  8
_0-3_0
  6
CONTINUOUS
 62
   18
 10
3782.3901315000858
 20
2185.8980850929247
 11
3782.3901315000858
 21
2265.8980850918733
  0
LINE
  8
_0-3_0
  6
CONTINUOUS
 62
   18
 10
3782.3901315000858
 20
2265.8980850918733
 11
3784.3901315000858
 21
2267.8980850918733
  0
LINE
  8
_0-3_0
  6
CONTINUOUS
 62
   18
 10
3784.3901315000858
 20
2267.8980850918733
 11
3830.3901315000867
 21
2267.8980850918715
  0
LINE
  8
_0-3_0
  6
CONTINUOUS
 62
   18
 10
3830.3901315000867
 20
2267.8980850918715
 11
3832.3901315000858
 21
2265.898085091872
  0
LINE
  8
_0-3_0
  6
CONTINUOUS
 62
   18
 10
3832.3901315000858
 20
2265.898085091872
 11
3832.3901315000858
 21
2185.8980850929306
  0
LINE
  8
_0-3_0
  6
CONTINUOUS
 62
   18
 10
3832.3901315000858
 20
2185.8980850929306
 11
3830.3901315000867
 21
2183.8980850929302
  0
LINE
  8
_0-3_0
  6
CONTINUOUS
 62
   18
 10
3830.3901315000867
 20
2183.8980850929302
 11
3784.3901315000858
 21
2183.8980850929247
  0
LINE
  8
_0-3_0
  6
CONTINUOUS
 62
   18
 10
3784.3901315000858
 20
2183.8980850929247
 11
3782.3901315000858
 21
2185.8980850929247
  0
CIRCLE
  8
_0-3_0
  6
CONTINUOUS
 62
   18
 10
3807.390131502611
 20
2195.8980850975013
 40
6.0000000000000009
  0
LINE
  8
_0-4_05_CENTER
  6
CENTER2
 62
    4
 10
3817.6792226765856
 20
2195.8980850929283
 11
3797.1010403286436
 21
2195.8980850929283
  0
LINE
  8
_0-4_05_CENTER
  6
CENTER2
 62
    4
 10
3807.3901315010467
 20
2206.18717627147
 11
3807.3901315010467
 21
2185.6089939235326
  0
INSERT
  2
-005-KK015066_54_5_1_1
  8
_0-5_04_HIDDEN
 10
3782.3901315010462
 20
2213.8980851060437
 41
-1
 42
1
 50
270
  0
LINE
  8
_0-4_05_CENTER
  6
CENTER2
 62
    4
 10
3807.3901315010467
 20
2227.1137000058179
 11
3807.3901315010467
 21
2206.5355176578805
  0
LINE
  8
_0-5_04_HIDDEN
  6
CONTINUOUS
 62
    7
 10
1732.3901315120984
 20
2207.8980851060451
 11
1682.3901315130554
 21
2207.8980851060451
  0
LINE
  8
_0-3_0
  6
CONTINUOUS
 62
   18
 10
1687.3901315130554
 20
2163.8980851060455
 11
1682.3901315130554
 21
2168.8980851060451
  0
LINE
  8
_0-5_04_HIDDEN
  6
CONTINUOUS
 62
    7
 10
3782.3901315010462
 20
2207.8980851060451
 11
3832.3901315000858
 21
2207.8980851060451
  0
LINE
  8
_0-3_0
  6
CONTINUOUS
 62
   18
 10
3832.3901315000858
 20
2185.8980850929306
 11
3832.3901315000858
 21
2168.8980851060451
  0
LINE
  8
_0-3_0
  6
CONTINUOUS
 62
   18
 10
3827.3901315000862
 20
2163.8980851060455
 11
3832.3901315000858
 21
2168.8980851060451
  0
LINE
  8
_0-3_0
  6
CONTINUOUS
 62
   18
 10
1682.3901315130554
 20
2185.8980850929306
 11
1682.3901315130554
 21
2168.8980851060451
  0
LINE
  8
_0-5_04_HIDDEN
  6
CONTINUOUS
 62
    7
 10
3996.9198938015347
 20
1535.166559025186
 11
3996.9198938015202
 21
1539.7446021686765
  0
LINE
  8
_0-3_0
  6
CONTINUOUS
 62
   18
 10
4171.9198938039499
 20
1542.6665590260927
 11
4171.9198938039099
 21
1497.6665590260966
  0
LINE
  8
_0-3_0
  6
CONTINUOUS
 62
   18
 10
4171.9198938039099
 20
1497.6665590260966
 11
4040.9198938015675
 21
1497.6665590260766
  0
LINE
  8
_0-3_0
  6
CONTINUOUS
 62
   18
 10
4171.9198938039099
 20
1503.6665590260964
 11
4040.9198938015602
 21
1503.6665590266193
  0
LINE
  8
_0-6_10_DRAFT
  6
CONTINUOUS
 62
    8
 10
4110.9198938039472
 20
1503.6847099623892
 11
4110.9198938039472
 21
1497.6568760512866
  0
LINE
  8
_0-3_0
  6
CONTINUOUS
 62
   18
 10
4040.9198938017748
 20
1547.6665590260964
 11
4166.9198938039572
 21
1547.6665590260927
  0
LINE
  8
_0-3_0
  6
CONTINUOUS
 62
   18
 10
4171.9198938039499
 20
1542.6665590260927
 11
4166.9198938039572
 21
1547.6665590260927
  0
INSERT
  2
-005-KK015066_54_5_1_1
  8
_0-3_0
 10
3990.9198938015347
 20
1489.666559025186
 41
-1
 42
1
 50
0
  0
LINE
  8
_0-3_0
  6
CONTINUOUS
 62
   18
 10
3990.9198938015347
 20
1489.666559025186
 11
4035.9198938015124
 21
1489.6665590251851
  0
LINE
  8
_0-3_0
  6
CONTINUOUS
 62
   18
 10
4035.9198938015124
 20
1489.6665590251851
 11
4040.9198938015561
 21
1494.6665590251851
  0
LINE
  8
_0-3_0
  6
CONTINUOUS
 62
   18
 10
4040.9198938015561
 20
1494.6665590251851
 11
4040.9198938028803
 21
1843.6665590300461
  0
LINE
  8
_0-3_0
  6
CONTINUOUS
 62
   18
 10
4040.9198938028803
 20
1843.6665590300461
 11
3990.9198938028812
 21
1843.6665590300461
  0
LINE
  8
_0-3_0
  6
CONTINUOUS
 62
   18
 10
3990.9198938028812
 20
1843.6665590300461
 11
3990.9198938015347
 21
1489.666559025186
  0
LINE
  8
_0-3_0
  6
CONTINUOUS
 62
   18
 10
3996.9198938028808
 20
1489.6665590242301
 11
3996.9198938028808
 21
1843.6665590290893
  0
LINE
  8
_0-4_05_CENTER
  6
CENTER2
 62
    4
 10
3965.9198938015343
 20
1483.1034490057637
 11
3965.9198938015343
 21
1502.2364848981406
  0
LINE
  8
_0-5_04_HIDDEN
  6
CONTINUOUS
 62
    7
 10
3990.9198938015602
 20
1503.6665590268267
 11
4040.9198938015934
 21
1503.6665590266193
  0
INSERT
  2
-005-KK015066_54_5_1_1
  8
_0-3_0
 10
1476.4174569036895
 20
1489.666559025186
 41
1
 42
1
 50
0
  0
LINE
  8
_0-3_0
  6
CONTINUOUS
 62
   18
 10
1476.4174569036895
 20
1489.666559025186
 11
1431.4174569036898
 21
1489.666559025186
  0
LINE
  8
_0-3_0
  6
CONTINUOUS
 62
   18
 10
1431.4174569036898
 20
1489.666559025186
 11
1426.4174569036788
 21
1494.6665590251969
  0
LINE
  8
_0-3_0
  6
CONTINUOUS
 62
   18
 10
1426.4174569036788
 20
1494.6665590251969
 11
1426.417456902951
 21
1843.6665590300461
  0
LINE
  8
_0-3_0
  6
CONTINUOUS
 62
   18
 10
1426.417456902951
 20
1843.6665590300461
 11
1476.4174569029512
 21
1843.6665590300461
  0
LINE
  8
_0-3_0
  6
CONTINUOUS
 62
   18
 10
1476.4174569029512
 20
1843.6665590300461
 11
1476.4174569036895
 21
1489.666559025186
  0
LINE
  8
_0-3_0
  6
CONTINUOUS
 62
   18
 10
1470.4174569023437
 20
1489.666559025186
 11
1470.4174569029512
 21
1843.6665590290893
  0
LINE
  8
_0-4_05_CENTER
  6
CENTER2
 62
    4
 10
1501.4174569036898
 20
1483.1034490057637
 11
1501.4174569036898
 21
1502.2364848981406
  0
LINE
  8
_0-5_04_HIDDEN
  6
CONTINUOUS
 62
    7
 10
1471.4174569036895
 20
1547.6665590260955
 11
1426.4174569034133
 21
1547.6665590260955
  0
LINE
  8
_0-3_0
  6
CONTINUOUS
 62
   18
 10
1295.4174569029437
 20
1542.6665590260955
 11
1295.4174569029437
 21
1497.6665590260966
  0
LINE
  8
_0-3_0
  6
CONTINUOUS
 62
   18
 10
1295.4174569029437
 20
1497.6665590260966
 11
1426.4174569036495
 21
1497.6665590216071
  0
LINE
  8
_0-3_0
  6
CONTINUOUS
 62
   18
 10
1295.4174569029437
 20
1503.6665590260964
 11
1426.4174569036243
 21
1503.6665590260964
  0
LINE
  8
_0-4_05_CENTER
  6
CENTER2
 62
    4
 10
1313.417456902944
 20
1507.9242238991774
 11
1313.417456902944
 21
1493.092593027892
  0
LINE
  8
_0-4_05_CENTER
  6
CENTER2
 62
    4
 10
1399.4174569029437
 20
1507.9242238991774
 11
1399.4174569029437
 21
1493.092593027892
  0
LINE
  8
_0-6_10_DRAFT
  6
CONTINUOUS
 62
    8
 10
1356.417456902944
 20
1503.6665590260964
 11
1356.417456902944
 21
1497.6387251149936
  0
LINE
  8
_0-3_0
  6
CONTINUOUS
 62
   18
 10
1300.4174569029437
 20
1547.6665590260955
 11
1295.4174569029437
 21
1542.6665590260955
  0
LINE
  8
_0-5_04_HIDDEN
  6
CONTINUOUS
 62
    7
 10
1471.4174569036895
 20
1547.6665590260955
 11
1476.4174569036895
 21
1542.6665590260955
  0
LINE
  8
_0-3_0
  6
CONTINUOUS
 62
   18
 10
1426.4174569034133
 20
1547.6665590260955
 11
1300.4174569029437
 21
1547.6665590260955
  0
LINE
  8
_0-5_04_HIDDEN
  6
CONTINUOUS
 62
    7
 10
1426.4174569036243
 20
1503.6665590260964
 11
1476.4174569036895
 21
1503.6665590260964
  0
LINE
  8
_0-5_04_HIDDEN
  6
CONTINUOUS
 62
    7
 10
1426.4174569036495
 20
1497.6665590216071
 11
1476.4174569036895
 21
1497.6665590203675
  0
LINE
  8
_0-3_0
  6
CONTINUOUS
 62
   18
 10
1506.417456906971
 20
1849.6665590317307
 11
1422.4174569080296
 21
1849.6665590345374
  0
LINE
  8
_0-3_0
  6
CONTINUOUS
 62
   18
 10
1422.4174569080296
 20
1849.6665590345374
 11
1422.4174569080296
 21
1843.6665590345376
  0
LINE
  8
_0-3_0
  6
CONTINUOUS
 62
   18
 10
1422.4174569080296
 20
1843.6665590345376
 11
1506.417456906971
 21
1843.6665590317307
  0
LINE
  8
_0-3_0
  6
CONTINUOUS
 62
   18
 10
1506.417456906971
 20
1843.6665590317307
 11
1506.417456906971
 21
1849.6665590317307
  0
LINE
  8
_0-4_05_CENTER
  6
CENTER2
 62
    4
 10
1494.4174569069712
 20
1834.3607717984478
 11
1494.4174569069712
 21
1858.5084814510053
  0
LINE
  8
_0-4_05_CENTER
  6
CENTER2
 62
    4
 10
1434.4174569069712
 20
1834.3607717984478
 11
1434.4174569069712
 21
1858.5084814510053
  0
LINE
  8
_0-4_05_CENTER
  6
CENTER2
 62
    4
 10
1482.9805669228826
 20
1659.6665740363994
 11
1463.8475310305096
 21
1659.6665740363994
  0
LINE
  8
_0-3_0
  6
CONTINUOUS
 62
   18
 10
3960.9198937988572
 20
1849.6665590187977
 11
4044.9198937977985
 21
1849.6665590216044
  0
LINE
  8
_0-3_0
  6
CONTINUOUS
 62
   18
 10
4044.9198937977985
 20
1849.6665590216044
 11
4044.9198937977985
 21
1843.6665590216046
  0
LINE
  8
_0-3_0
  6
CONTINUOUS
 62
   18
 10
4044.9198937977985
 20
1843.6665590216046
 11
3960.9198937988572
 21
1843.6665590187977
  0
LINE
  8
_0-3_0
  6
CONTINUOUS
 62
   18
 10
3960.9198937988572
 20
1843.6665590187977
 11
3960.9198937988572
 21
1849.6665590187977
  0
LINE
  8
_0-4_05_CENTER
  6
CENTER2
 62
    4
 10
3972.9198937988567
 20
1834.3607717855148
 11
3972.9198937988567
 21
1858.5084814380723
  0
LINE
  8
_0-4_05_CENTER
  6
CENTER2
 62
    4
 10
4032.9198937988572
 20
1834.3607717855148
 11
4032.9198937988572
 21
1858.5084814380723
  0
LINE
  8
_0-4_05_CENTER
  6
CENTER2
 62
    4
 10
3984.3567837823416
 20
1659.6665740247036
 11
4003.4898196747185
 21
1659.6665740247036
  0
CIRCLE
  8
_0-3_0
  6
CONTINUOUS
 62
   18
 10
1707.3901315056955
 20
1659.6665740327835
 40
6.0000000000000009
  0
LINE
  8
_0-4_05_CENTER
  6
CENTER2
 62
    4
 10
1697.1010403317289
 20
1659.6665740373562
 11
1717.6792226796661
 21
1659.6665740373562
  0
LINE
  8
_0-4_05_CENTER
  6
CENTER2
 62
    4
 10
1707.3901315072635
 20
1649.377482858815
 11
1707.3901315072635
 21
1669.9556652067522
  0
LINE
  8
_0-4_05_CENTER
  6
CENTER2
 62
    4
 10
1707.3901315055721
 20
1856.3263654193895
 11
1707.3901315055684
 21
1837.2371361371072
  0
LINE
  8
_0-3_0
  6
CONTINUOUS
 62
   18
 10
3757.3901315127687
 20
1489.6665590251878
 11
1757.3901315033092
 21
1489.666559025186
  0
LINE
  8
_0-3_0
  6
CONTINUOUS
 62
   18
 10
3757.3901315127687
 20
1539.6665590251878
 11
1757.3901315033092
 21
1539.666559025186
  0
LINE
  8
_0-3_0
  6
CONTINUOUS
 62
   18
 10
3832.390131507238
 20
1495.6665590251878
 11
1682.3901315088387
 21
1495.6665590251878
  0
LINE
  8
_0-4_05_CENTER
  6
CENTER2
 62
    4
 10
3151.3901315060521
 20
1501.8889904514228
 11
3151.3901315060521
 21
1483.204529779222
  0
LINE
  8
_0-4_05_CENTER
  6
CENTER2
 62
    4
 10
3223.3901315060593
 20
1501.8889904514228
 11
3223.3901315060593
 21
1483.204529779222
  0
LINE
  8
_0-4_05_CENTER
  6
CENTER2
 62
    4
 10
2363.3901314986597
 20
1501.888990451421
 11
2363.3901314986597
 21
1483.2045297792201
  0
LINE
  8
_0-4_05_CENTER
  6
CENTER2
 62
    4
 10
2291.3901314986529
 20
1501.888990451421
 11
2291.3901314986529
 21
1483.2045297792201
  0
LINE
  8
_0-5_04_HIDDEN
  6
CONTINUOUS
 62
    7
 10
1732.390131508839
 20
1489.666559025186
 11
1732.390131508839
 21
1539.666559025186
  0
LINE
  8
_0-3_0
  6
CONTINUOUS
 62
   18
 10
1732.390131508839
 20
1539.666559025186
 11
1732.390131508839
 21
1843.6665590266994
  0
LINE
  8
_0-3_0
  6
CONTINUOUS
 62
   18
 10
1732.390131508839
 20
1843.6665590266994
 11
1682.3901315088387
 21
1843.6665590266994
  0
LINE
  8
_0-3_0
  6
CONTINUOUS
 62
   18
 10
1682.3901315088387
 20
1843.6665590266994
 11
1682.3901315088387
 21
1489.666559025186
  0
LINE
  8
_0-3_0
  6
CONTINUOUS
 62
   18
 10
1682.3901315088387
 20
1489.666559025186
 11
1732.390131508839
 21
1489.666559025186
  0
LINE
  8
_0-3_0
  6
CONTINUOUS
 62
   18
 10
1732.390131508839
 20
1843.6665590266994
 11
1732.390131508839
 21
1849.6665590266994
  0
LINE
  8
_0-3_0
  6
CONTINUOUS
 62
   18
 10
1732.390131508839
 20
1849.6665590266994
 11
1682.3901315088387
 21
1849.6665590266994
  0
LINE
  8
_0-3_0
  6
CONTINUOUS
 62
   18
 10
1682.3901315088387
 20
1849.6665590266994
 11
1682.3901315088387
 21
1843.6665590266994
  0
LINE
  8
_0-3_0
  6
CONTINUOUS
 62
   18
 10
1682.3901315088387
 20
1843.6665590266994
 11
1732.390131508839
 21
1843.6665590266994
  0
LINE
  8
_0-5_04_HIDDEN
  6
CONTINUOUS
 62
    7
 10
1726.390131508839
 20
1843.6665590266994
 11
1726.390131508839
 21
1489.666559025186
  0
LINE
  8
_0-3_0
  6
CONTINUOUS
 62
   18
 10
1757.3901315033092
 20
1539.666559025186
 11
1732.390131508839
 21
1539.666559025186
  0
LINE
  8
_0-3_0
  6
CONTINUOUS
 62
   18
 10
1757.3901315033092
 20
1489.666559025186
 11
1732.390131508839
 21
1489.666559025186
  0
LINE
  8
_0-5_04_HIDDEN
  6
CONTINUOUS
 62
    7
 10
3788.3901315072385
 20
1843.6665590266994
 11
3788.3901315072385
 21
1489.6665590251878
  0
LINE
  8
_0-3_0
  6
CONTINUOUS
 62
   18
 10
3757.3901315127687
 20
1539.666559025186
 11
3782.3901315072385
 21
1539.666559025186
  0
LINE
  8
_0-3_0
  6
CONTINUOUS
 62
   18
 10
3757.3901315127687
 20
1489.6665590251878
 11
3782.3901315072385
 21
1489.6665590251878
  0
INSERT
  2
-005-KK015066_54_5_1_1
  8
_0-5_04_HIDDEN
 10
1982.390131508035
 20
1497.6665590261427
 41
-1
 42
1
 50
0
  0
LINE
  8
_0-4_05_CENTER
  6
CENTER2
 62
    4
 10
1957.3901315069797
 20
1509.888990451419
 11
1957.3901315069797
 21
1491.2045297792183
  0
INSERT
  2
-005-KK015066_54_5_1_1
  8
_0-5_04_HIDDEN
 10
3532.3901315080461
 20
1497.6665590260966
 41
-1
 42
1
 50
0
  0
LINE
  8
_0-4_05_CENTER
  6
CENTER2
 62
    4
 10
3557.3901315091011
 20
1501.8889904514228
 11
3557.3901315091011
 21
1483.204529779222
  0
CIRCLE
  8
_0-3_0
  6
CONTINUOUS
 62
   18
 10
3807.3901315103817
 20
1659.6665740327855
 40
6.0000000000000009
  0
LINE
  8
_0-4_05_CENTER
  6
CENTER2
 62
    4
 10
3817.679222684349
 20
1659.6665740373585
 11
3797.1010403364148
 21
1659.6665740373585
  0
LINE
  8
_0-4_05_CENTER
  6
CENTER2
 62
    4
 10
3807.3901315088101
 20
1649.3774828588168
 11
3807.3901315088101
 21
1669.955665206754
  0
LINE
  8
_0-4_05_CENTER
  6
CENTER2
 62
    4
 10
3807.3901315039716
 20
1856.3263654193895
 11
3807.3901315039643
 21
1837.2371361371072
  0
LINE
  8
_0-3_0
  6
CONTINUOUS
 62
   18
 10
3832.390131507238
 20
1843.6665590266994
 11
3832.390131507238
 21
1849.6665590266994
  0
LINE
  8
_0-3_0
  6
CONTINUOUS
 62
   18
 10
3832.390131507238
 20
1849.6665590266994
 11
3782.3901315072385
 21
1849.6665590266994
  0
LINE
  8
_0-3_0
  6
CONTINUOUS
 62
   18
 10
3782.3901315072385
 20
1849.6665590266994
 11
3782.3901315072385
 21
1843.6665590266994
  0
LINE
  8
_0-3_0
  6
CONTINUOUS
 62
   18
 10
3782.3901315072385
 20
1843.6665590266994
 11
3832.390131507238
 21
1843.6665590266994
  0
LINE
  8
_0-3_0
  6
CONTINUOUS
 62
   18
 10
1732.390131508839
 20
1539.666559025186
 11
1682.3901315088387
 21
1539.666559025186
  0
LINE
  8
_0-3_0
  6
CONTINUOUS
 62
   18
 10
3782.3901315072385
 20
1539.666559025186
 11
3832.390131507238
 21
1539.666559025186
  0
LINE
  8
_0-5_04_HIDDEN
  6
CONTINUOUS
 62
    7
 10
3782.3901315072385
 20
1489.666559025186
 11
3782.3901315072385
 21
1539.666559025186
  0
LINE
  8
_0-3_0
  6
CONTINUOUS
 62
   18
 10
3782.3901315072385
 20
1539.666559025186
 11
3782.3901315072385
 21
1843.6665590266994
  0
LINE
  8
_0-3_0
  6
CONTINUOUS
 62
   18
 10
3782.3901315072385
 20
1843.6665590266994
 11
3832.390131507238
 21
1843.6665590266994
  0
LINE
  8
_0-3_0
  6
CONTINUOUS
 62
   18
 10
3832.390131507238
 20
1843.6665590266994
 11
3832.390131507238
 21
1489.666559025186
  0
LINE
  8
_0-3_0
  6
CONTINUOUS
 62
   18
 10
3832.390131507238
 20
1489.666559025186
 11
3782.3901315072385
 21
1489.666559025186
  0
LINE
  8
_0-3_0
  6
CONTINUOUS
 62
   18
 10
1976.390131508035
 20
1539.666559025186
 11
1976.390131508035
 21
1543.1665590261427
  0
LINE
  8
_0-3_0
  6
CONTINUOUS
 62
   18
 10
1980.8901315080348
 20
1547.6665590261427
 11
1982.390131508035
 21
1547.6665590261427
  0
LINE
  8
_0-3_0
  6
CONTINUOUS
 62
   18
 10
1982.390131508035
 20
1547.6665590261427
 11
1982.390131508035
 21
1539.666559025186
  0
ARC
  8
_0-3_0
  6
CONTINUOUS
 62
   18
 10
1980.8901315080348
 20
1543.1665590261409
 40
4.500000000001819
 50
90
 51
180
  0
LINE
  8
_0-4_05_CENTER
  6
CENTER2
 62
    4
 10
2291.3901315028656
 20
2188.8980851060273
 11
3223.3901315091375
 21
2188.8980851026236
  0
LINE
  8
_0-4_05_CENTER
  6
CENTER2
 62
    4
 10
1707.3901315056883
 20
1659.6665740361886
 11
3807.3901315088065
 21
1659.6665740316157
  0
LINE
  8
_0-4_05_CENTER
  6
CENTER2
 62
    4
 10
3807.390131502611
 20
2255.8980850975013
 11
1707.3901315120984
 21
2255.8980850975013
  0
LINE
  8
_0-4_05_CENTER
  6
CENTER2
 62
    4
 10
1707.3901315120984
 20
2255.8980850975013
 11
1707.3901315120984
 21
2195.8980850975013
  0
LINE
  8
_0-4_05_CENTER
  6
CENTER2
 62
    4
 10
1707.3901315120984
 20
2195.8980850975013
 11
3807.390131502611
 21
2195.8980850975013
  0
LINE
  8
_0-4_05_CENTER
  6
CENTER2
 62
    4
 10
3807.390131502611
 20
2195.8980850975013
 11
3807.390131502611
 21
2255.8980850975013
  0
LINE
  8
_0-7_06_PHANTOM
  6
PHANTOM2
 62
    7
 10
1732.390131508839
 20
1849.6665590266994
 11
3782.3901315072385
 21
1849.6665590266994
  0
TEXT
  8
_0-2_08_DIM
 62
    3
 10
2725.2264568172413
 20
1854.3848763354463
 40
12.000000000000002
 41
1
 50
0
  1
¢╩łĻé╠é▒éŲ
  0
LINE
  8
_0-3_0
  6
CONTINUOUS
 62
   18
 10
3538.3901315080452
 20
1539.6665590261464
 11
3538.3901315080452
 21
1543.1665590271032
  0
LINE
  8
_0-3_0
  6
CONTINUOUS
 62
   18
 10
3533.8901315080452
 20
1547.6665590271032
 11
3532.3901315080448
 21
1547.6665590271032
  0
LINE
  8
_0-3_0
  6
CONTINUOUS
 62
   18
 10
3532.3901315080448
 20
1547.6665590271032
 11
3532.3901315080448
 21
1539.6665590261464
  0
ARC
  8
_0-3_0
  6
CONTINUOUS
 62
   18
 10
3533.8901315080452
 20
1543.1665590271014
 40
4.5000000000018172
 50
0
 51
90
  0
LINE
  8
_0-5_04_HIDDEN
  6
CONTINUOUS
 62
    7
 10
3995.9198938014979
 20
1547.6665590260964
 11
4040.9198938017748
 21
1547.6665590260964
  0
LINE
  8
_0-5_04_HIDDEN
  6
CONTINUOUS
 62
    7
 10
3995.9198938014979
 20
1547.6665590260964
 11
3990.9198938014974
 21
1542.6665590260964
  0
LINE
  8
_0-5_04_HIDDEN
  6
CONTINUOUS
 62
    7
 10
3990.9198938015347
 20
1497.6665590262839
 11
4040.9198938015675
 21
1497.6665590260766
  0
LINE
  8
_0-4_05_CENTER
  6
CENTER2
 62
    4
 10
4067.9198912877628
 20
1507.9520578102708
 11
4067.9198912877628
 21
1493.1204269389855
  0
LINE
  8
_0-4_05_CENTER
  6
CENTER2
 62
    4
 10
4153.9198912877628
 20
1507.9520578102708
 11
4153.9198912877628
 21
1493.1204269389855
  0
LINE
  8
_0-4_05_CENTER
  6
CENTER2
 62
    4
 10
3557.390131512353
 20
2376.8980851082079
 11
1957.3901315102469
 21
2376.8980851082079
  0
LINE
  8
_0-4_05_CENTER
  6
CENTER2
 62
    4
 10
1957.3901315102469
 20
2376.8980851082079
 11
1957.3901315102469
 21
2290.8980850577964
  0
LINE
  8
_0-4_05_CENTER
  6
CENTER2
 62
    4
 10
1957.3901315102469
 20
2290.8980850577964
 11
3557.390131512353
 21
2290.8980850577964
  0
LINE
  8
_0-4_05_CENTER
  6
CENTER2
 62
    4
 10
3557.390131512353
 20
2290.8980850577964
 11
3557.390131512353
 21
2376.8980851082079
  0
INSERT
  2
-006-AM_BALLOON1
  8
_0-2_08_DIM
 10
1413.2596481141038
 20
2628.4637521761506
 41
5
 42
5
 50
0
  0
TEXT
  8
_0-3_0
 62
    7
 10
1398.9739338283894
 20
2620.9637521761506
 40
15
 41
1
 50
0
  1
98
  0
LINE
  8
_0-2_08_DIM
  6
CONTINUOUS
 62
    3
 10
1679.890131508839
 20
1489.666559025186
 11
1590.8139134461528
 21
1489.666559025186
  0
LINE
  8
_0-2_08_DIM
  6
CONTINUOUS
 62
    3
 10
1679.890131508839
 20
1843.6665590266994
 11
1590.8139134461528
 21
1843.6665590266994
  0
LINE
  8
_0-2_08_DIM
  6
CONTINUOUS
 62
    3
 10
1595.8139134461528
 20
1499.666559025186
 11
1595.8139134461528
 21
1833.6665590266991
  0
INSERT
  2
-007-_Open30
  8
_0-2_08_DIM
 10
1595.8139134461528
 20
1489.666559025186
 41
10
 42
10
 50
270
  0
INSERT
  2
-007-_Open30
  8
_0-2_08_DIM
 10
1595.8139134461528
 20
1843.6665590266994
 41
10
 42
10
 50
90
  0
LINE
  8
_0-2_08_DIM
  6
CONTINUOUS
 62
    3
 10
1694.6010403317287
 20
1659.6665740373562
 11
1631.4562317299205
 21
1659.6665740373562
  0
LINE
  8
_0-2_08_DIM
  6
CONTINUOUS
 62
    3
 10
1679.890131508839
 20
1489.666559025186
 11
1631.4562317299205
 21
1489.666559025186
  0
LINE
  8
_0-2_08_DIM
  6
CONTINUOUS
 62
    3
 10
1636.4562317299205
 20
1649.6665740373564
 11
1636.4562317299205
 21
1499.666559025186
  0
INSERT
  2
-007-_Open30
  8
_0-2_08_DIM
 10
1636.4562317299205
 20
1659.6665740373562
 41
10
 42
10
 50
90
  0
INSERT
  2
-007-_Open30
  8
_0-2_08_DIM
 10
1636.4562317299205
 20
1489.666559025186
 41
10
 42
10
 50
270
  0
LINE
  8
_0-2_08_DIM
  6
CONTINUOUS
 62
    3
 10
1679.890131508839
 20
1843.6665590266994
 11
1590.8139134461528
 21
1843.6665590266994
  0
LINE
  8
_0-2_08_DIM
  6
CONTINUOUS
 62
    3
 10
1679.890131508839
 20
1849.6665590266994
 11
1590.8139134461528
 21
1849.6665590266994
  0
LINE
  8
_0-2_08_DIM
  6
CONTINUOUS
 62
    3
 10
1595.8139134461528
 20
1859.6665590266994
 11
1595.8139134461528
 21
1882.6665590266994
  0
LINE
  8
_0-2_08_DIM
  6
CONTINUOUS
 62
    3
 10
1595.8139134461528
 20
1843.6665590266994
 11
1595.8139134461528
 21
1849.6665590266994
  0
LINE
  8
_0-2_08_DIM
  6
CONTINUOUS
 62
    3
 10
1595.8139134461528
 20
1833.6665590266991
 11
1595.8139134461528
 21
1823.6665590266991
  0
INSERT
  2
-007-_Open30
  8
_0-2_08_DIM
 10
1595.8139134461528
 20
1843.6665590266994
 41
10
 42
10
 50
90
  0
INSERT
  2
-007-_Open30
  8
_0-2_08_DIM
 10
1595.8139134461528
 20
1849.6665590266994
 41
10
 42
10
 50
270
  0
LINE
  8
_0-2_08_DIM
  6
CONTINUOUS
 62
    3
 10
1732.390131508839
 20
1852.1665590266991
 11
1732.390131508839
 21
1911.8038673688525
  0
LINE
  8
_0-2_08_DIM
  6
CONTINUOUS
 62
    3
 10
1682.3901315088387
 20
1852.1665590266991
 11
1682.3901315088387
 21
1911.8038673688525
  0
LINE
  8
_0-2_08_DIM
  6
CONTINUOUS
 62
    3
 10
1722.390131508839
 20
1906.8038673688527
 11
1692.390131508839
 21
1906.8038673688527
  0
INSERT
  2
-007-_Open30
  8
_0-2_08_DIM
 10
1732.390131508839
 20
1906.8038673688527
 41
10
 42
10
 50
0
  0
INSERT
  2
-007-_Open30
  8
_0-2_08_DIM
 10
1682.3901315088387
 20
1906.8038673688527
 41
10
 42
10
 50
180
  0
LINE
  8
_0-2_08_DIM
  6
CONTINUOUS
 62
    3
 10
1732.390131508839
 20
1852.1665590266991
 11
1732.390131508839
 21
1911.8038673688525
  0
LINE
  8
_0-2_08_DIM
  6
CONTINUOUS
 62
    3
 10
3782.3901315072385
 20
1852.1665590266991
 11
3782.3901315072385
 21
1911.8038673688525
  0
LINE
  8
_0-2_08_DIM
  6
CONTINUOUS
 62
    3
 10
1742.3901315088392
 20
1906.8038673688527
 11
3772.390131507238
 21
1906.8038673688527
  0
INSERT
  2
-007-_Open30
  8
_0-2_08_DIM
 10
1732.390131508839
 20
1906.8038673688527
 41
10
 42
10
 50
180
  0
INSERT
  2
-007-_Open30
  8
_0-2_08_DIM
 10
3782.3901315072385
 20
1906.8038673688527
 41
10
 42
10
 50
0
  0
LINE
  8
_0-2_08_DIM
  6
CONTINUOUS
 62
    3
 10
3782.3901315072385
 20
1852.1665590266991
 11
3782.3901315072385
 21
1911.8038673688525
  0
LINE
  8
_0-2_08_DIM
  6
CONTINUOUS
 62
    3
 10
3832.390131507238
 20
1852.1665590266991
 11
3832.390131507238
 21
1911.8038673688525
  0
LINE
  8
_0-2_08_DIM
  6
CONTINUOUS
 62
    3
 10
3792.390131507238
 20
1906.8038673688527
 11
3822.3901315072389
 21
1906.8038673688527
  0
INSERT
  2
-007-_Open30
  8
_0-2_08_DIM
 10
3782.3901315072385
 20
1906.8038673688527
 41
10
 42
10
 50
180
  0
INSERT
  2
-007-_Open30
  8
_0-2_08_DIM
 10
3832.390131507238
 20
1906.8038673688527
 41
10
 42
10
 50
0
  0
LINE
  8
_0-2_08_DIM
  6
CONTINUOUS
 62
    3
 10
1707.3901315072635
 20
1672.4556652067524
 11
1707.3901315072635
 21
1728.9719800104203
  0
LINE
  8
_0-2_08_DIM
  6
CONTINUOUS
 62
    3
 10
3807.3901315088101
 20
1672.4556652067538
 11
3807.3901315088101
 21
1728.9719800104203
  0
LINE
  8
_0-2_08_DIM
  6
CONTINUOUS
 62
    3
 10
1717.3901315072635
 20
1723.9719800104203
 11
3797.3901315088101
 21
1723.9719800104203
  0
INSERT
  2
-007-_Open30
  8
_0-2_08_DIM
 10
1707.3901315072635
 20
1723.9719800104203
 41
10
 42
10
 50
180
  0
INSERT
  2
-007-_Open30
  8
_0-2_08_DIM
 10
3807.3901315088101
 20
1723.9719800104203
 41
10
 42
10
 50
0
  0
LINE
  8
_0-2_08_DIM
  6
CONTINUOUS
 62
    3
 10
1707.3901315072635
 20
1672.4556652067524
 11
1707.3901315072635
 21
1728.9719800104203
  0
LINE
  8
_0-2_08_DIM
  6
CONTINUOUS
 62
    3
 10
1682.3901315088387
 20
1672.4556652067524
 11
1682.3901315088387
 21
1728.9719800104203
  0
LINE
  8
_0-2_08_DIM
  6
CONTINUOUS
 62
    3
 10
1672.3901315088387
 20
1723.9719800104203
 11
1637.390131508839
 21
1723.9719800104203
  0
LINE
  8
_0-2_08_DIM
  6
CONTINUOUS
 62
    3
 10
1707.3901315072635
 20
1723.9719800104203
 11
1682.3901315088387
 21
1723.9719800104203
  0
LINE
  8
_0-2_08_DIM
  6
CONTINUOUS
 62
    3
 10
1717.3901315072635
 20
1723.9719800104203
 11
1727.3901315072635
 21
1723.9719800104203
  0
INSERT
  2
-007-_Open30
  8
_0-2_08_DIM
 10
1707.3901315072635
 20
1723.9719800104203
 41
10
 42
10
 50
180
  0
INSERT
  2
-007-_Open30
  8
_0-2_08_DIM
 10
1682.3901315088387
 20
1723.9719800104203
 41
10
 42
10
 50
0
  0
LINE
  8
_0-2_08_DIM
  6
CONTINUOUS
 62
    3
 10
3807.3901315088101
 20
1672.4556652067538
 11
3807.3901315088101
 21
1728.9719800104203
  0
LINE
  8
_0-2_08_DIM
  6
CONTINUOUS
 62
    3
 10
3832.390131507238
 20
1672.4556652067538
 11
3832.390131507238
 21
1728.9719800104203
  0
LINE
  8
_0-2_08_DIM
  6
CONTINUOUS
 62
    3
 10
3842.390131507238
 20
1723.9719800104203
 11
3877.3901315072389
 21
1723.9719800104203
  0
LINE
  8
_0-2_08_DIM
  6
CONTINUOUS
 62
    3
 10
3807.3901315088101
 20
1723.9719800104203
 11
3832.390131507238
 21
1723.9719800104203
  0
LINE
  8
_0-2_08_DIM
  6
CONTINUOUS
 62
    3
 10
3797.3901315088101
 20
1723.9719800104203
 11
3787.3901315088101
 21
1723.9719800104203
  0
INSERT
  2
-007-_Open30
  8
_0-2_08_DIM
 10
3807.3901315088101
 20
1723.9719800104203
 41
10
 42
10
 50
0
  0
INSERT
  2
-007-_Open30
  8
_0-2_08_DIM
 10
3832.390131507238
 20
1723.9719800104203
 41
10
 42
10
 50
180
  0
LINE
  8
_0-2_08_DIM
  6
CONTINUOUS
 62
    3
 10
2291.3901315028656
 20
2177.0558547699266
 11
2291.3901315028656
 21
2093.0860676581015
  0
LINE
  8
_0-2_08_DIM
  6
CONTINUOUS
 62
    3
 10
2363.3901315028725
 20
2177.0558547699266
 11
2363.3901315028725
 21
2093.0860676581015
  0
LINE
  8
_0-2_08_DIM
  6
CONTINUOUS
 62
    3
 10
2301.3901315028652
 20
2098.0860676581015
 11
2353.3901315028725
 21
2098.0860676581015
  0
INSERT
  2
-007-_Open30
  8
_0-2_08_DIM
 10
2291.3901315028656
 20
2098.0860676581015
 41
10
 42
10
 50
180
  0
INSERT
  2
-007-_Open30
  8
_0-2_08_DIM
 10
2363.3901315028725
 20
2098.0860676581015
 41
10
 42
10
 50
0
  0
LINE
  8
_0-2_08_DIM
  6
CONTINUOUS
 62
    3
 10
2363.3901315028725
 20
2177.0558547699266
 11
2363.3901315028725
 21
2093.0860676581015
  0
LINE
  8
_0-2_08_DIM
  6
CONTINUOUS
 62
    3
 10
3151.3901315091302
 20
2177.0558547699266
 11
3151.3901315091302
 21
2093.0860676581015
  0
LINE
  8
_0-2_08_DIM
  6
CONTINUOUS
 62
    3
 10
2373.3901315028725
 20
2098.0860676581015
 11
3141.3901315091302
 21
2098.0860676581015
  0
INSERT
  2
-007-_Open30
  8
_0-2_08_DIM
 10
2363.3901315028725
 20
2098.0860676581015
 41
10
 42
10
 50
180
  0
INSERT
  2
-007-_Open30
  8
_0-2_08_DIM
 10
3151.3901315091302
 20
2098.0860676581015
 41
10
 42
10
 50
0
  0
LINE
  8
_0-2_08_DIM
  6
CONTINUOUS
 62
    3
 10
3151.3901315091302
 20
2177.055854766525
 11
3151.3901315091302
 21
2093.0860676581015
  0
LINE
  8
_0-2_08_DIM
  6
CONTINUOUS
 62
    3
 10
3223.3901315091375
 20
2177.0558547665232
 11
3223.3901315091375
 21
2093.0860676581015
  0
LINE
  8
_0-2_08_DIM
  6
CONTINUOUS
 62
    3
 10
3161.3901315091302
 20
2098.0860676581015
 11
3213.3901315091375
 21
2098.0860676581015
  0
INSERT
  2
-007-_Open30
  8
_0-2_08_DIM
 10
3151.3901315091302
 20
2098.0860676581015
 41
10
 42
10
 50
180
  0
INSERT
  2
-007-_Open30
  8
_0-2_08_DIM
 10
3223.3901315091375
 20
2098.0860676581015
 41
10
 42
10
 50
0
  0
LINE
  8
_0-2_08_DIM
  6
CONTINUOUS
 62
    3
 10
2279.5479011667649
 20
2188.8980851060273
 11
2228.0856784544267
 21
2188.8980851060273
  0
LINE
  8
_0-2_08_DIM
  6
CONTINUOUS
 62
    3
 10
2279.5479011667649
 20
2163.8980851060455
 11
2228.0856784544267
 21
2163.8980851060455
  0
LINE
  8
_0-2_08_DIM
  6
CONTINUOUS
 62
    3
 10
2233.0856784544267
 20
2153.8980851060455
 11
2233.0856784544267
 21
2118.8980851060451
  0
LINE
  8
_0-2_08_DIM
  6
CONTINUOUS
 62
    3
 10
2233.0856784544267
 20
2188.8980851060273
 11
2233.0856784544267
 21
2163.8980851060455
  0
LINE
  8
_0-2_08_DIM
  6
CONTINUOUS
 62
    3
 10
2233.0856784544267
 20
2198.8980851060273
 11
2233.0856784544267
 21
2208.8980851060269
  0
INSERT
  2
-007-_Open30
  8
_0-2_08_DIM
 10
2233.0856784544267
 20
2188.8980851060273
 41
10
 42
10
 50
270
  0
INSERT
  2
-007-_Open30
  8
_0-2_08_DIM
 10
2233.0856784544267
 20
2163.8980851060455
 41
10
 42
10
 50
90
  0
LINE
  8
_0-2_08_DIM
  6
CONTINUOUS
 62
    3
 10
2291.3901315028656
 20
2176.7991233183434
 11
2291.3901315028656
 21
2093.0860676581015
  0
LINE
  8
_0-2_08_DIM
  6
CONTINUOUS
 62
    3
 10
1682.3901315130554
 20
2166.3980851060451
 11
1682.3901315130554
 21
2093.0860676581015
  0
LINE
  8
_0-2_08_DIM
  6
CONTINUOUS
 62
    3
 10
2281.3901315028656
 20
2098.0860676581015
 11
1692.3901315130554
 21
2098.0860676581015
  0
INSERT
  2
-007-_Open30
  8
_0-2_08_DIM
 10
2291.3901315028656
 20
2098.0860676581015
 41
10
 42
10
 50
0
  0
INSERT
  2
-007-_Open30
  8
_0-2_08_DIM
 10
1682.3901315130554
 20
2098.0860676581015
 41
10
 42
10
 50
180
  0
LINE
  8
_0-2_08_DIM
  6
CONTINUOUS
 62
    3
 10
3223.3901315091375
 20
2177.0558547665232
 11
3223.3901315091375
 21
2093.0860676581015
  0
LINE
  8
_0-2_08_DIM
  6
CONTINUOUS
 62
    3
 10
3832.3901315000858
 20
2166.3980851060451
 11
3832.3901315000858
 21
2093.0860676581015
  0
LINE
  8
_0-2_08_DIM
  6
CONTINUOUS
 62
    3
 10
3233.3901315091375
 20
2098.0860676581015
 11
3822.3901315000858
 21
2098.0860676581015
  0
INSERT
  2
-007-_Open30
  8
_0-2_08_DIM
 10
3223.3901315091375
 20
2098.0860676581015
 41
10
 42
10
 50
180
  0
INSERT
  2
-007-_Open30
  8
_0-2_08_DIM
 10
3832.3901315000858
 20
2098.0860676581015
 41
10
 42
10
 50
0
  0
LINE
  8
_0-2_08_DIM
  6
CONTINUOUS
 62
    3
 10
1694.6010403365635
 20
2195.8980850929283
 11
1638.409795990272
 21
2195.8980850929283
  0
LINE
  8
_0-2_08_DIM
  6
CONTINUOUS
 62
    3
 10
1694.6010403365635
 20
2255.8980850929288
 11
1638.409795990272
 21
2255.8980850929288
  0
LINE
  8
_0-2_08_DIM
  6
CONTINUOUS
 62
    3
 10
1643.409795990272
 20
2205.8980850929283
 11
1643.409795990272
 21
2245.8980850929288
  0
INSERT
  2
-007-_Open30
  8
_0-2_08_DIM
 10
1643.409795990272
 20
2195.8980850929283
 41
10
 42
10
 50
270
  0
INSERT
  2
-007-_Open30
  8
_0-2_08_DIM
 10
1643.409795990272
 20
2255.8980850929288
 41
10
 42
10
 50
90
  0
LINE
  8
_0-2_08_DIM
  6
CONTINUOUS
 62
    3
 10
1694.6010403349956
 20
2195.8980850918733
 11
1638.409795990272
 21
2195.8980850918733
  0
LINE
  8
_0-2_08_DIM
  6
CONTINUOUS
 62
    3
 10
1681.8901315130552
 20
2183.8980850929302
 11
1638.409795990272
 21
2183.8980850929302
  0
LINE
  8
_0-2_08_DIM
  6
CONTINUOUS
 62
    3
 10
1643.409795990272
 20
2173.8980850929302
 11
1643.409795990272
 21
2142.8980850929302
  0
LINE
  8
_0-2_08_DIM
  6
CONTINUOUS
 62
    3
 10
1643.409795990272
 20
2195.8980850918733
 11
1643.409795990272
 21
2183.8980850929302
  0
LINE
  8
_0-2_08_DIM
  6
CONTINUOUS
 62
    3
 10
1643.409795990272
 20
2205.8980850918733
 11
1643.409795990272
 21
2215.8980850918733
  0
INSERT
  2
-007-_Open30
  8
_0-2_08_DIM
 10
1643.409795990272
 20
2195.8980850918733
 41
10
 42
10
 50
270
  0
INSERT
  2
-007-_Open30
  8
_0-2_08_DIM
 10
1643.409795990272
 20
2183.8980850929302
 41
10
 42
10
 50
90
  0
LINE
  8
_0-2_08_DIM
  6
CONTINUOUS
 62
    3
 10
1681.8901315130552
 20
2267.8980850918715
 11
1603.6927649904901
 21
2267.8980850918715
  0
LINE
  8
_0-2_08_DIM
  6
CONTINUOUS
 62
    3
 10
1681.8901315130552
 20
2183.8980850929302
 11
1603.6927649904901
 21
2183.8980850929302
  0
LINE
  8
_0-2_08_DIM
  6
CONTINUOUS
 62
    3
 10
1608.6927649904901
 20
2257.8980850918715
 11
1608.6927649904901
 21
2193.8980850929302
  0
INSERT
  2
-007-_Open30
  8
_0-2_08_DIM
 10
1608.6927649904901
 20
2267.8980850918715
 41
10
 42
10
 50
90
  0
INSERT
  2
-007-_Open30
  8
_0-2_08_DIM
 10
1608.6927649904901
 20
2183.8980850929302
 41
10
 42
10
 50
270
  0
LINE
  8
_0-2_08_DIM
  6
CONTINUOUS
 62
    3
 10
1707.3901315105304
 20
2183.1089939133317
 11
1707.3901315105304
 21
2049.6015024784374
  0
LINE
  8
_0-2_08_DIM
  6
CONTINUOUS
 62
    3
 10
1682.3901315130554
 20
2166.3980851060451
 11
1682.3901315130554
 21
2049.6015024784374
  0
LINE
  8
_0-2_08_DIM
  6
CONTINUOUS
 62
    3
 10
1672.3901315130552
 20
2054.6015024784374
 11
1637.3901315130554
 21
2054.6015024784374
  0
LINE
  8
_0-2_08_DIM
  6
CONTINUOUS
 62
    3
 10
1707.3901315105304
 20
2054.6015024784374
 11
1682.3901315130554
 21
2054.6015024784374
  0
LINE
  8
_0-2_08_DIM
  6
CONTINUOUS
 62
    3
 10
1717.3901315105304
 20
2054.6015024784374
 11
1727.3901315105304
 21
2054.6015024784374
  0
INSERT
  2
-007-_Open30
  8
_0-2_08_DIM
 10
1707.3901315105304
 20
2054.6015024784374
 41
10
 42
10
 50
180
  0
INSERT
  2
-007-_Open30
  8
_0-2_08_DIM
 10
1682.3901315130554
 20
2054.6015024784374
 41
10
 42
10
 50
0
  0
LINE
  8
_0-2_08_DIM
  6
CONTINUOUS
 62
    3
 10
1707.3901315105304
 20
2183.1089939133317
 11
1707.3901315105304
 21
2049.6015024784374
  0
LINE
  8
_0-2_08_DIM
  6
CONTINUOUS
 62
    3
 10
3807.390131502611
 20
2183.1089939133317
 11
3807.390131502611
 21
2049.6015024784374
  0
LINE
  8
_0-2_08_DIM
  6
CONTINUOUS
 62
    3
 10
1717.3901315105304
 20
2054.6015024784374
 11
3797.390131502611
 21
2054.6015024784374
  0
INSERT
  2
-007-_Open30
  8
_0-2_08_DIM
 10
1707.3901315105304
 20
2054.6015024784374
 41
10
 42
10
 50
180
  0
INSERT
  2
-007-_Open30
  8
_0-2_08_DIM
 10
3807.390131502611
 20
2054.6015024784374
 41
10
 42
10
 50
0
  0
LINE
  8
_0-2_08_DIM
  6
CONTINUOUS
 62
    3
 10
3807.390131502611
 20
2183.1089939133317
 11
3807.390131502611
 21
2049.6015024784374
  0
LINE
  8
_0-2_08_DIM
  6
CONTINUOUS
 62
    3
 10
3832.3901315000858
 20
2166.3980851060451
 11
3832.3901315000858
 21
2049.6015024784374
  0
LINE
  8
_0-2_08_DIM
  6
CONTINUOUS
 62
    3
 10
3842.3901315000858
 20
2054.6015024784374
 11
3892.4734648334188
 21
2054.6015024784374
  0
LINE
  8
_0-2_08_DIM
  6
CONTINUOUS
 62
    3
 10
3807.390131502611
 20
2054.6015024784374
 11
3832.3901315000858
 21
2054.6015024784374
  0
LINE
  8
_0-2_08_DIM
  6
CONTINUOUS
 62
    3
 10
3797.390131502611
 20
2054.6015024784374
 11
3787.390131502611
 21
2054.6015024784374
  0
INSERT
  2
-007-_Open30
  8
_0-2_08_DIM
 10
3807.390131502611
 20
2054.6015024784374
 41
10
 42
10
 50
0
  0
INSERT
  2
-007-_Open30
  8
_0-2_08_DIM
 10
3832.3901315000858
 20
2054.6015024784374
 41
10
 42
10
 50
180
  0
LINE
  8
_0-2_08_DIM
  6
CONTINUOUS
 62
    3
 10
1945.5479011741465
 20
2290.8980850577964
 11
1877.6835598274467
 21
2290.8980850577964
  0
LINE
  8
_0-2_08_DIM
  6
CONTINUOUS
 62
    3
 10
1945.5479011741465
 20
2376.8980851082079
 11
1877.6835598274467
 21
2376.8980851082079
  0
LINE
  8
_0-2_08_DIM
  6
CONTINUOUS
 62
    3
 10
1882.6835598274467
 20
2300.8980850577964
 11
1882.6835598274467
 21
2366.8980851082079
  0
INSERT
  2
-007-_Open30
  8
_0-2_08_DIM
 10
1882.6835598274467
 20
2290.8980850577964
 41
10
 42
10
 50
270
  0
INSERT
  2
-007-_Open30
  8
_0-2_08_DIM
 10
1882.6835598274467
 20
2376.8980851082079
 41
10
 42
10
 50
90
  0
LINE
  8
_0-2_08_DIM
  6
CONTINUOUS
 62
    3
 10
1945.5479011741465
 20
2290.8980850577964
 11
1877.6835598274467
 21
2290.8980850577964
  0
LINE
  8
_0-2_08_DIM
  6
CONTINUOUS
 62
    3
 10
1929.8901315091919
 20
2213.8980851060414
 11
1877.6835598274467
 21
2213.8980851060414
  0
LINE
  8
_0-2_08_DIM
  6
CONTINUOUS
 62
    3
 10
1882.6835598274467
 20
2280.8980850577964
 11
1882.6835598274467
 21
2223.8980851060414
  0
INSERT
  2
-007-_Open30
  8
_0-2_08_DIM
 10
1882.6835598274467
 20
2290.8980850577964
 41
10
 42
10
 50
90
  0
INSERT
  2
-007-_Open30
  8
_0-2_08_DIM
 10
1882.6835598274467
 20
2213.8980851060414
 41
10
 42
10
 50
270
  0
LINE
  8
_0-2_08_DIM
  6
CONTINUOUS
 62
    3
 10
1957.3901315102469
 20
2388.7403154443082
 11
1957.3901315102469
 21
2466.4701944903068
  0
LINE
  8
_0-2_08_DIM
  6
CONTINUOUS
 62
    3
 10
1932.3901315113021
 20
2392.3980851060328
 11
1932.3901315113021
 21
2466.4701944903068
  0
LINE
  8
_0-2_08_DIM
  6
CONTINUOUS
 62
    3
 10
1922.3901315113019
 20
2461.4701944903063
 11
1887.3901315113019
 21
2461.4701944903063
  0
LINE
  8
_0-2_08_DIM
  6
CONTINUOUS
 62
    3
 10
1957.3901315102469
 20
2461.4701944903063
 11
1932.3901315113021
 21
2461.4701944903063
  0
LINE
  8
_0-2_08_DIM
  6
CONTINUOUS
 62
    3
 10
1967.3901315102469
 20
2461.4701944903063
 11
1977.3901315102469
 21
2461.4701944903063
  0
INSERT
  2
-007-_Open30
  8
_0-2_08_DIM
 10
1957.3901315102469
 20
2461.4701944903063
 41
10
 42
10
 50
180
  0
INSERT
  2
-007-_Open30
  8
_0-2_08_DIM
 10
1932.3901315113021
 20
2461.4701944903063
 41
10
 42
10
 50
0
  0
LINE
  8
_0-2_08_DIM
  6
CONTINUOUS
 62
    3
 10
1932.3901315113021
 20
2392.3980851060328
 11
1932.3901315113021
 21
2508.2499247285282
  0
LINE
  8
_0-2_08_DIM
  6
CONTINUOUS
 62
    3
 10
1982.3901315113019
 20
2397.3980851060323
 11
1982.3901315113019
 21
2508.2499247285282
  0
LINE
  8
_0-2_08_DIM
  6
CONTINUOUS
 62
    3
 10
1942.3901315113021
 20
2503.2499247285277
 11
1972.3901315113019
 21
2503.2499247285277
  0
INSERT
  2
-007-_Open30
  8
_0-2_08_DIM
 10
1932.3901315113021
 20
2503.2499247285277
 41
10
 42
10
 50
180
  0
INSERT
  2
-007-_Open30
  8
_0-2_08_DIM
 10
1982.3901315113019
 20
2503.2499247285277
 41
10
 42
10
 50
0
  0
LINE
  8
_0-2_08_DIM
  6
CONTINUOUS
 62
    3
 10
1957.3901315102469
 20
2388.7403154443082
 11
1957.3901315102469
 21
2466.4701944903068
  0
LINE
  8
_0-2_08_DIM
  6
CONTINUOUS
 62
    3
 10
3557.390131512353
 20
2388.7403154443082
 11
3557.390131512353
 21
2466.4701944903068
  0
LINE
  8
_0-2_08_DIM
  6
CONTINUOUS
 62
    3
 10
1967.3901315102469
 20
2461.4701944903063
 11
3547.3901315123535
 21
2461.4701944903063
  0
INSERT
  2
-007-_Open30
  8
_0-2_08_DIM
 10
1957.3901315102469
 20
2461.4701944903063
 41
10
 42
10
 50
180
  0
INSERT
  2
-007-_Open30
  8
_0-2_08_DIM
 10
3557.390131512353
 20
2461.4701944903063
 41
10
 42
10
 50
0
  0
LINE
  8
_0-2_08_DIM
  6
CONTINUOUS
 62
    3
 10
1982.3901315113019
 20
2397.3980851060323
 11
1982.3901315113019
 21
2508.2499247285282
  0
LINE
  8
_0-2_08_DIM
  6
CONTINUOUS
 62
    3
 10
3532.3901315112985
 20
2397.3980851060323
 11
3532.3901315112985
 21
2508.2499247285282
  0
LINE
  8
_0-2_08_DIM
  6
CONTINUOUS
 62
    3
 10
1992.3901315113017
 20
2503.2499247285277
 11
3522.3901315112985
 21
2503.2499247285277
  0
INSERT
  2
-007-_Open30
  8
_0-2_08_DIM
 10
1982.3901315113019
 20
2503.2499247285277
 41
10
 42
10
 50
180
  0
INSERT
  2
-007-_Open30
  8
_0-2_08_DIM
 10
3532.3901315112985
 20
2503.2499247285277
 41
10
 42
10
 50
0
  0
LINE
  8
_0-2_08_DIM
  6
CONTINUOUS
 62
    3
 10
3532.3901315112985
 20
2397.3980851060323
 11
3532.3901315112985
 21
2508.2499247285282
  0
LINE
  8
_0-2_08_DIM
  6
CONTINUOUS
 62
    3
 10
3582.390131511298
 20
2392.3980851060328
 11
3582.390131511298
 21
2508.2499247285282
  0
LINE
  8
_0-2_08_DIM
  6
CONTINUOUS
 62
    3
 10
3542.390131511298
 20
2503.2499247285277
 11
3572.3901315112985
 21
2503.2499247285277
  0
INSERT
  2
-007-_Open30
  8
_0-2_08_DIM
 10
3532.3901315112985
 20
2503.2499247285277
 41
10
 42
10
 50
180
  0
INSERT
  2
-007-_Open30
  8
_0-2_08_DIM
 10
3582.390131511298
 20
2503.2499247285277
 41
10
 42
10
 50
0
  0
LINE
  8
_0-2_08_DIM
  6
CONTINUOUS
 62
    3
 10
3557.390131512353
 20
2388.7403154443082
 11
3557.390131512353
 21
2466.4701944903068
  0
LINE
  8
_0-2_08_DIM
  6
CONTINUOUS
 62
    3
 10
3582.390131511298
 20
2392.3980851060328
 11
3582.390131511298
 21
2466.4701944903068
  0
LINE
  8
_0-2_08_DIM
  6
CONTINUOUS
 62
    3
 10
3592.3901315112989
 20
2461.4701944903063
 11
3642.4734648446315
 21
2461.4701944903063
  0
LINE
  8
_0-2_08_DIM
  6
CONTINUOUS
 62
    3
 10
3557.390131512353
 20
2461.4701944903063
 11
3582.390131511298
 21
2461.4701944903063
  0
LINE
  8
_0-2_08_DIM
  6
CONTINUOUS
 62
    3
 10
3547.3901315123535
 20
2461.4701944903063
 11
3537.390131512353
 21
2461.4701944903063
  0
INSERT
  2
-007-_Open30
  8
_0-2_08_DIM
 10
3557.390131512353
 20
2461.4701944903063
 41
10
 42
10
 50
0
  0
INSERT
  2
-007-_Open30
  8
_0-2_08_DIM
 10
3582.390131511298
 20
2461.4701944903063
 41
10
 42
10
 50
180
  0
LINE
  8
_0-2_08_DIM
  6
CONTINUOUS
 62
    3
 10
1901.2868456683193
 20
2213.8980851060414
 11
1840.021586245146
 21
2213.8980851060414
  0
LINE
  8
_0-2_08_DIM
  6
CONTINUOUS
 62
    3
 10
1929.8901315091919
 20
2394.8980851060323
 11
1840.021586245146
 21
2394.8980851060323
  0
LINE
  8
_0-2_08_DIM
  6
CONTINUOUS
 62
    3
 10
1845.0215862451464
 20
2223.8980851060414
 11
1845.0215862451464
 21
2384.8980851060319
  0
INSERT
  2
-007-_Open30
  8
_0-2_08_DIM
 10
1845.0215862451464
 20
2213.8980851060414
 41
10
 42
10
 50
270
  0
INSERT
  2
-007-_Open30
  8
_0-2_08_DIM
 10
1845.0215862451464
 20
2394.8980851060323
 41
10
 42
10
 50
90
  0
LINE
  8
_0-2_08_DIM
  6
CONTINUOUS
 62
    3
 10
3584.8901315134076
 20
2394.8980851060323
 11
3639.0710553851277
 21
2394.8980851060323
  0
LINE
  8
_0-2_08_DIM
  6
CONTINUOUS
 62
    3
 10
3607.7559391440932
 20
2213.8980851060451
 11
3639.0710553851277
 21
2213.8980851060451
  0
LINE
  8
_0-2_08_DIM
  6
CONTINUOUS
 62
    3
 10
3634.0710553851281
 20
2384.8980851060319
 11
3634.0710553851281
 21
2223.8980851060451
  0
INSERT
  2
-007-_Open30
  8
_0-2_08_DIM
 10
3634.0710553851281
 20
2394.8980851060323
 41
10
 42
10
 50
90
  0
INSERT
  2
-007-_Open30
  8
_0-2_08_DIM
 10
3634.0710553851281
 20
2213.8980851060451
 41
10
 42
10
 50
270
  0
LINE
  8
_0-2_08_DIM
  6
CONTINUOUS
 62
    3
 10
1932.3901315113021
 20
2392.3980851060328
 11
1932.3901315113021
 21
2508.2499247285282
  0
LINE
  8
_0-2_08_DIM
  6
CONTINUOUS
 62
    3
 10
1682.3901315130554
 20
2268.3980850918715
 11
1682.3901315130554
 21
2508.2499247285282
  0
LINE
  8
_0-2_08_DIM
  6
CONTINUOUS
 62
    3
 10
1922.3901315113019
 20
2503.2499247285277
 11
1692.3901315130554
 21
2503.2499247285277
  0
INSERT
  2
-007-_Open30
  8
_0-2_08_DIM
 10
1932.3901315113021
 20
2503.2499247285277
 41
10
 42
10
 50
0
  0
INSERT
  2
-007-_Open30
  8
_0-2_08_DIM
 10
1682.3901315130554
 20
2503.2499247285277
 41
10
 42
10
 50
180
  0
LINE
  8
_0-2_08_DIM
  6
CONTINUOUS
 62
    3
 10
3582.390131511298
 20
2392.3980851060328
 11
3582.390131511298
 21
2508.2499247285282
  0
LINE
  8
_0-2_08_DIM
  6
CONTINUOUS
 62
    3
 10
3832.3901315000858
 20
2268.3980850918715
 11
3832.3901315000858
 21
2508.2499247285282
  0
LINE
  8
_0-2_08_DIM
  6
CONTINUOUS
 62
    3
 10
3592.3901315112989
 20
2503.2499247285277
 11
3822.3901315000858
 21
2503.2499247285277
  0
INSERT
  2
-007-_Open30
  8
_0-2_08_DIM
 10
3582.390131511298
 20
2503.2499247285277
 41
10
 42
10
 50
180
  0
INSERT
  2
-007-_Open30
  8
_0-2_08_DIM
 10
3832.3901315000858
 20
2503.2499247285277
 41
10
 42
10
 50
0
  0
LINE
  8
_0-2_08_DIM
  6
CONTINUOUS
 62
    3
 10
1476.4174569029512
 20
1841.1665590300465
 11
1476.4174569029512
 21
1798.901484650768
  0
LINE
  8
_0-2_08_DIM
  6
CONTINUOUS
 62
    3
 10
1506.417456906971
 20
1841.1665590317305
 11
1506.417456906971
 21
1798.901484650768
  0
LINE
  8
_0-2_08_DIM
  6
CONTINUOUS
 62
    3
 10
1486.417456902951
 20
1803.901484650768
 11
1496.417456906971
 21
1803.901484650768
  0
INSERT
  2
-007-_Open30
  8
_0-2_08_DIM
 10
1476.4174569029512
 20
1803.901484650768
 41
10
 42
10
 50
180
  0
INSERT
  2
-007-_Open30
  8
_0-2_08_DIM
 10
1506.417456906971
 20
1803.901484650768
 41
10
 42
10
 50
0
  0
LINE
  8
_0-2_08_DIM
  6
CONTINUOUS
 62
    3
 10
1506.417456906971
 20
1852.1665590317307
 11
1506.417456906971
 21
1907.3980827398802
  0
LINE
  8
_0-2_08_DIM
  6
CONTINUOUS
 62
    3
 10
1422.4174569080296
 20
1852.1665590345376
 11
1422.4174569080296
 21
1907.3980827398802
  0
LINE
  8
_0-2_08_DIM
  6
CONTINUOUS
 62
    3
 10
1496.417456906971
 20
1902.39808273988
 11
1432.4174569080299
 21
1902.39808273988
  0
INSERT
  2
-007-_Open30
  8
_0-2_08_DIM
 10
1506.417456906971
 20
1902.39808273988
 41
10
 42
10
 50
0
  0
INSERT
  2
-007-_Open30
  8
_0-2_08_DIM
 10
1422.4174569080296
 20
1902.39808273988
 41
10
 42
10
 50
180
  0
LINE
  8
_0-2_08_DIM
  6
CONTINUOUS
 62
    3
 10
1476.4174569036895
 20
1487.1665590251862
 11
1476.4174569036895
 21
1428.7977541006003
  0
LINE
  8
_0-2_08_DIM
  6
CONTINUOUS
 62
    3
 10
1426.4174569036788
 20
1492.1665590251969
 11
1426.4174569036788
 21
1428.7977541006003
  0
LINE
  8
_0-2_08_DIM
  6
CONTINUOUS
 62
    3
 10
1466.4174569036895
 20
1433.7977541006003
 11
1436.4174569036786
 21
1433.7977541006003
  0
INSERT
  2
-007-_Open30
  8
_0-2_08_DIM
 10
1476.4174569036895
 20
1433.7977541006003
 41
10
 42
10
 50
0
  0
INSERT
  2
-007-_Open30
  8
_0-2_08_DIM
 10
1426.4174569036788
 20
1433.7977541006003
 41
10
 42
10
 50
180
  0
LINE
  8
_0-2_08_DIM
  6
CONTINUOUS
 62
    3
 10
1476.4174569036895
 20
1487.1665590251862
 11
1476.4174569036895
 21
1395.2145412445343
  0
LINE
  8
_0-2_08_DIM
  6
CONTINUOUS
 62
    3
 10
1526.4174569036898
 20
1487.1665590251862
 11
1526.4174569036898
 21
1395.2145412445343
  0
LINE
  8
_0-2_08_DIM
  6
CONTINUOUS
 62
    3
 10
1486.4174569036898
 20
1400.2145412445343
 11
1516.4174569036898
 21
1400.2145412445343
  0
INSERT
  2
-007-_Open30
  8
_0-2_08_DIM
 10
1476.4174569036895
 20
1400.2145412445343
 41
10
 42
10
 50
180
  0
INSERT
  2
-007-_Open30
  8
_0-2_08_DIM
 10
1526.4174569036898
 20
1400.2145412445343
 41
10
 42
10
 50
0
  0
LINE
  8
_0-2_08_DIM
  6
CONTINUOUS
 62
    3
 10
1292.9174569029437
 20
1497.6665590260966
 11
1248.5065366013862
 21
1497.6665590260966
  0
LINE
  8
_0-2_08_DIM
  6
CONTINUOUS
 62
    3
 10
1428.9174569036895
 20
1489.666559025186
 11
1248.5065366013862
 21
1489.666559025186
  0
LINE
  8
_0-2_08_DIM
  6
CONTINUOUS
 62
    3
 10
1253.5065366013862
 20
1479.666559025186
 11
1253.5065366013862
 21
1456.666559025186
  0
LINE
  8
_0-2_08_DIM
  6
CONTINUOUS
 62
    3
 10
1253.5065366013862
 20
1497.6665590260966
 11
1253.5065366013862
 21
1489.666559025186
  0
LINE
  8
_0-2_08_DIM
  6
CONTINUOUS
 62
    3
 10
1253.5065366013862
 20
1507.6665590260964
 11
1253.5065366013862
 21
1517.6665590260964
  0
INSERT
  2
-007-_Open30
  8
_0-2_08_DIM
 10
1253.5065366013862
 20
1497.6665590260966
 41
10
 42
10
 50
270
  0
INSERT
  2
-007-_Open30
  8
_0-2_08_DIM
 10
1253.5065366013862
 20
1489.666559025186
 41
10
 42
10
 50
90
  0
LINE
  8
_0-2_08_DIM
  6
CONTINUOUS
 62
    3
 10
1292.9174569029437
 20
1497.6665590260966
 11
1248.5065366013862
 21
1497.6665590260966
  0
LINE
  8
_0-2_08_DIM
  6
CONTINUOUS
 62
    3
 10
1297.9174569029437
 20
1547.6665590260955
 11
1248.5065366013862
 21
1547.6665590260955
  0
LINE
  8
_0-2_08_DIM
  6
CONTINUOUS
 62
    3
 10
1253.5065366013862
 20
1507.6665590260964
 11
1253.5065366013862
 21
1537.6665590260955
  0
INSERT
  2
-007-_Open30
  8
_0-2_08_DIM
 10
1253.5065366013862
 20
1497.6665590260966
 41
10
 42
10
 50
270
  0
INSERT
  2
-007-_Open30
  8
_0-2_08_DIM
 10
1253.5065366013862
 20
1547.6665590260955
 41
10
 42
10
 50
90
  0
LINE
  8
_0-2_08_DIM
  6
CONTINUOUS
 62
    3
 10
1480.9885247155553
 20
1552.237626837961
 11
1511.8790822152305
 21
1583.128184337636
  0
INSERT
  2
-007-_Open30
  8
_0-2_08_DIM
 10
1473.9174569036898
 20
1545.1665590260955
 41
10
 42
10
 50
224.99999999999991
  0
LINE
  8
_0-2_08_DIM
  6
CONTINUOUS
 62
    3
 10
1738.4611993249202
 20
2273.9691529037391
 11
1785.5757525310532
 21
2321.0837061098719
  0
INSERT
  2
-007-_Open30
  8
_0-2_08_DIM
 10
1731.3901315130547
 20
2266.8980850918733
 41
10.000000000000002
 42
10.000000000000002
 50
224.99999999999997
  0
LINE
  8
_0-2_08_DIM
  6
CONTINUOUS
 62
    3
 10
1565.5686992362253
 20
2111.3780999017386
 11
1642.6686992362249
 21
2111.3780999017386
  0
LINE
  8
_0-2_08_DIM
  6
CONTINUOUS
 62
    3
 10
1642.6686992362249
 20
2111.3780999017386
 11
1697.6625383762012
 21
2183.1947811251894
  0
INSERT
  2
-007-_Open30
  8
_0-2_08_DIM
 10
1703.7422840851566
 20
2191.1343461078841
 41
10
 42
10
 50
52.556805097746235
  0
LINE
  8
_0-2_08_DIM
  6
CONTINUOUS
 62
    3
 10
1927.8190636994368
 20
2399.4691529178981
 11
1902.8682053071657
 21
2424.4200113101692
  0
INSERT
  2
-007-_Open30
  8
_0-2_08_DIM
 10
1934.8901315113021
 20
2392.3980851060328
 41
10
 42
10
 50
314.99999999999972
  0
LINE
  8
_0-2_08_DIM
  6
CONTINUOUS
 62
    3
 10
3586.9611993231642
 20
2399.4691529178976
 11
3613.4694315444358
 21
2425.9773851391697
  0
INSERT
  2
-007-_Open30
  8
_0-2_08_DIM
 10
3579.8901315112985
 20
2392.3980851060319
 41
10.000000000000002
 42
10.000000000000002
 50
224.99999999999997
  0
LINE
  8
_0-2_08_DIM
  6
CONTINUOUS
 62
    3
 10
2075.5764161794709
 20
2426.9715295269557
 11
2000.4764161794697
 21
2426.9715295269557
  0
LINE
  8
_0-2_08_DIM
  6
CONTINUOUS
 62
    3
 10
2000.4764161794697
 20
2426.9715295269557
 11
1967.1737383755988
 21
2388.2682670198665
  0
INSERT
  2
-007-_Open30
  8
_0-2_08_DIM
 10
1960.6513337987026
 20
2380.6881457454228
 41
10
 42
10
 50
229.28926345604279
  0
LINE
  8
_0-2_08_DIM
  6
CONTINUOUS
 62
    3
 10
2473.8408866555974
 20
2119.0051746974032
 11
2398.740886655597
 21
2119.0051746974032
  0
LINE
  8
_0-2_08_DIM
  6
CONTINUOUS
 62
    3
 10
2398.740886655597
 20
2119.0051746974032
 11
2370.1602063993928
 21
2175.5127914635545
  0
INSERT
  2
-007-_Open30
  8
_0-2_08_DIM
 10
2365.6468231350409
 20
2184.436320558541
 41
10
 42
10
 50
116.82958205510442
  0
LINE
  8
_0-2_08_DIM
  6
CONTINUOUS
 62
    3
 10
1295.4174569029437
 20
1495.1665590260964
 11
1295.4174569029437
 21
1395.2145412445343
  0
LINE
  8
_0-2_08_DIM
  6
CONTINUOUS
 62
    3
 10
1476.4174569036895
 20
1487.1665590251862
 11
1476.4174569036895
 21
1395.2145412445343
  0
LINE
  8
_0-2_08_DIM
  6
CONTINUOUS
 62
    3
 10
1305.4174569029437
 20
1400.2145412445343
 11
1466.4174569036895
 21
1400.2145412445343
  0
INSERT
  2
-007-_Open30
  8
_0-2_08_DIM
 10
1295.4174569029437
 20
1400.2145412445343
 41
10
 42
10
 50
180
  0
INSERT
  2
-007-_Open30
  8
_0-2_08_DIM
 10
1476.4174569036895
 20
1400.2145412445343
 41
10
 42
10
 50
0
  0
LINE
  8
_0-2_08_DIM
  6
CONTINUOUS
 62
    3
 10
3990.9198938015347
 20
1487.1665590251862
 11
3990.9198938015347
 21
1393.2199633388793
  0
LINE
  8
_0-2_08_DIM
  6
CONTINUOUS
 62
    3
 10
4171.9198938039099
 20
1495.1665590260964
 11
4171.9198938039099
 21
1393.2199633388793
  0
LINE
  8
_0-2_08_DIM
  6
CONTINUOUS
 62
    3
 10
4000.9198938015343
 20
1398.2199633388791
 11
4161.9198938039108
 21
1398.2199633388791
  0
INSERT
  2
-007-_Open30
  8
_0-2_08_DIM
 10
3990.9198938015347
 20
1398.2199633388791
 41
10
 42
10
 50
180
  0
INSERT
  2
-007-_Open30
  8
_0-2_08_DIM
 10
4171.9198938039099
 20
1398.2199633388791
 41
10
 42
10
 50
0
  0
LINE
  8
_0-2_08_DIM
  6
CONTINUOUS
 62
    3
 10
3832.3901315000858
 20
2166.3980851060451
 11
3832.3901315000858
 21
2008.6628380523573
  0
LINE
  8
_0-2_08_DIM
  6
CONTINUOUS
 62
    3
 10
1682.3901315130554
 20
2166.3980851060451
 11
1682.3901315130554
 21
2008.6628380523573
  0
LINE
  8
_0-2_08_DIM
  6
CONTINUOUS
 62
    3
 10
3822.3901315000858
 20
2013.6628380523573
 11
1692.3901315130554
 21
2013.6628380523573
  0
INSERT
  2
-007-_Open30
  8
_0-2_08_DIM
 10
3832.3901315000858
 20
2013.6628380523573
 41
10
 42
10
 50
0
  0
INSERT
  2
-007-_Open30
  8
_0-2_08_DIM
 10
1682.3901315130554
 20
2013.6628380523573
 41
10
 42
10
 50
180
  0
LINE
  8
_0-2_08_DIM
  6
CONTINUOUS
 62
    3
 10
3990.9198938015347
 20
1487.1665590251862
 11
3990.9198938015347
 21
1436.0193639833144
  0
LINE
  8
_0-2_08_DIM
  6
CONTINUOUS
 62
    3
 10
4040.9198938015561
 20
1492.1665590251851
 11
4040.9198938015561
 21
1436.0193639833144
  0
LINE
  8
_0-2_08_DIM
  6
CONTINUOUS
 62
    3
 10
4000.9198938015343
 20
1441.0193639833142
 11
4030.9198938015566
 21
1441.0193639833142
  0
INSERT
  2
-007-_Open30
  8
_0-2_08_DIM
 10
3990.9198938015347
 20
1441.0193639833142
 41
10
 42
10
 50
180
  0
INSERT
  2
-007-_Open30
  8
_0-2_08_DIM
 10
4040.9198938015561
 20
1441.0193639833142
 41
10
 42
10
 50
0
  0
LINE
  8
_0-2_08_DIM
  6
CONTINUOUS
 62
    3
 10
3990.9198938015347
 20
1487.1665590251862
 11
3990.9198938015347
 21
1393.2199633388793
  0
LINE
  8
_0-2_08_DIM
  6
CONTINUOUS
 62
    3
 10
3940.9198938015347
 20
1487.1665590251862
 11
3940.9198938015347
 21
1393.2199633388793
  0
LINE
  8
_0-2_08_DIM
  6
CONTINUOUS
 62
    3
 10
3980.9198938015347
 20
1398.2199633388791
 11
3950.9198938015347
 21
1398.2199633388791
  0
INSERT
  2
-007-_Open30
  8
_0-2_08_DIM
 10
3990.9198938015347
 20
1398.2199633388791
 41
10
 42
10
 50
0
  0
INSERT
  2
-007-_Open30
  8
_0-2_08_DIM
 10
3940.9198938015347
 20
1398.2199633388791
 41
10
 42
10
 50
180
  0
LINE
  8
_0-2_08_DIM
  6
CONTINUOUS
 62
    3
 10
4176.4909616158238
 20
1552.2376268379519
 11
4213.1193711743545
 21
1588.8660363964291
  0
INSERT
  2
-007-_Open30
  8
_0-2_08_DIM
 10
4169.4198938039526
 20
1545.1665590260916
 41
10
 42
10
 50
224.99999999995825
  0
LINE
  8
_0-2_08_DIM
  6
CONTINUOUS
 62
    3
 10
1290.8463890910784
 20
1552.2376268379612
 11
1258.769040790477
 21
1584.3149751385627
  0
INSERT
  2
-007-_Open30
  8
_0-2_08_DIM
 10
1297.917456902944
 20
1545.1665590260957
 41
10
 42
10
 50
315.00000000000006
  0
LINE
  8
_0-2_08_DIM
  6
CONTINUOUS
 62
    3
 10
1833.0333738967552
 20
1608.2159852361572
 11
1755.9333738967568
 21
1608.2159852361572
  0
LINE
  8
_0-2_08_DIM
  6
CONTINUOUS
 62
    3
 10
1755.9333738967568
 20
1608.2159852361572
 11
1718.3702508604231
 21
1648.0288346064197
  0
INSERT
  2
-007-_Open30
  8
_0-2_08_DIM
 10
1711.5076762637184
 20
1655.3024217478967
 41
10
 42
10
 50
133.33457964157822
  0
LINE
  8
_0-2_08_DIM
  6
CONTINUOUS
 62
    3
 10
3986.3488259896326
 20
1552.2376268379619
 11
3954.2714776890307
 21
1584.3149751385638
  0
INSERT
  2
-007-_Open30
  8
_0-2_08_DIM
 10
3993.4198938014983
 20
1545.1665590260964
 41
10
 42
10
 50
315.00000000000006
  0
LINE
  8
_0-2_08_DIM
  6
CONTINUOUS
 62
    3
 10
4101.4198938027394
 20
1497.6665590260864
 11
4098.5106426937937
 21
1497.6665590260864
  0
LINE
  8
_0-2_08_DIM
  6
CONTINUOUS
 62
    3
 10
4101.4198938027403
 20
1547.6665590260943
 11
4098.5106426937937
 21
1547.6665590260943
  0
LINE
  8
_0-2_08_DIM
  6
CONTINUOUS
 62
    3
 10
4103.5106426937937
 20
1507.6665590260866
 11
4103.5106426937937
 21
1537.6665590260945
  0
INSERT
  2
-007-_Open30
  8
_0-2_08_DIM
 10
4103.5106426937937
 20
1497.6665590260864
 41
10
 42
10
 50
270
  0
INSERT
  2
-007-_Open30
  8
_0-2_08_DIM
 10
4103.5106426937937
 20
1547.6665590260943
 41
10
 42
10
 50
90
  0
LINE
  8
_0-2_08_DIM
  6
CONTINUOUS
 62
    3
 10
4103.7505415705482
 20
1497.6665590260864
 11
4098.5106426937937
 21
1497.6665590260864
  0
LINE
  8
_0-2_08_DIM
  6
CONTINUOUS
 62
    3
 10
4038.4198938015134
 20
1489.6665590251851
 11
4108.5106426937928
 21
1489.6665590251851
  0
LINE
  8
_0-2_08_DIM
  6
CONTINUOUS
 62
    3
 10
4103.5106426937937
 20
1479.6665590251853
 11
4103.5106426937937
 21
1456.6665590251853
  0
LINE
  8
_0-2_08_DIM
  6
CONTINUOUS
 62
    3
 10
4103.5106426937937
 20
1497.6665590260864
 11
4103.5106426937937
 21
1489.6665590251851
  0
LINE
  8
_0-2_08_DIM
  6
CONTINUOUS
 62
    3
 10
4103.5106426937937
 20
1507.6665590260866
 11
4103.5106426937937
 21
1517.6665590260866
  0
INSERT
  2
-007-_Open30
  8
_0-2_08_DIM
 10
4103.5106426937937
 20
1497.6665590260864
 41
10
 42
10
 50
270
  0
INSERT
  2
-007-_Open30
  8
_0-2_08_DIM
 10
4103.5106426937937
 20
1489.6665590251851
 41
10
 42
10
 50
90
  0
TEXT
  8
_0-8_07_TEXT
 62
    3
 10
3956.0177032492429
 20
1167.0666244137549
 40
12.000000000000002
 41
1
 50
0
  1
ÆŹŗL
  0
TEXT
  8
_0-8_07_TEXT
 62
    3
 10
3956.9777032492429
 20
1144.7506244137548
 40
12.000000000000002
 41
1
 50
0
  1
ü@ÄwÄ”é╚é½ŖpĢöé═
  0
TEXT
  8
_0-8_07_TEXT
 62
    3
 10
4086.2777032492422
 20
1144.7506244137548
 40
12.000000000000002
 41
1
 50
0
  1
C0.5
  0
TEXT
  8
_0-8_07_TEXT
 62
    3
 10
4126.8491318206707
 20
1144.7506244137548
 40
12.000000000000002
 41
1
 50
0
  1
é╠é▒éŲ
  0
TEXT
  8
_0-8_07_TEXT
 62
    3
 10
3956.9777032492429
 20
1121.9546244137548
 40
12.000000000000002
 41
1
 50
0
  1
ü@āKāXÉžÆf¢╩é═āOāēāCāōā_ÄdÅŃé░é╠é▒éŲ
  0
TEXT
  8
_0-8_07_TEXT
 62
    3
 10
3956.9777032492429
 20
1099.7826244137548
 40
12.000000000000002
 41
1
 50
0
  1
ü@ÄwÄ”é╚é½ŚnÉ┌Ģöé═ü@ü@ü@ü@é╠é▒éŲ
  0
TEXT
  8
_0-8_07_TEXT
 62
    3
 10
3956.9777032492429
 20
1077.6106244137547
 40
12.000000000000002
 41
1
 50
0
  1
ü@ÄwÄ”é╚é½ĢöŹ▐é═
  0
TEXT
  8
_0-8_07_TEXT
 62
    3
 10
4086.2777032492422
 20
1077.6106244137547
 40
12.000000000000002
 41
1
 50
0
  1
L-6x50x50
  0
TEXT
  8
_0-8_07_TEXT
 62
    3
 10
4187.4205603921
 20
1077.6106244137547
 40
12.000000000000002
 41
1
 50
0
  1
é­ÄgŚp
  0
TEXT
  8
_0-2_08_DIM
 62
    3
 10
1593.3055801128196
 20
1649.2379875973711
 40
12.000000000000002
 41
1
 50
90
  1
354
  0
TEXT
  8
_0-2_08_DIM
 62
    3
 10
1633.9562317299208
 20
1556.6665665312712
 40
12.000000000000002
 41
1
 50
90
  1
170
  0
TEXT
  8
_0-2_08_DIM
 62
    3
 10
1593.3139134461526
 20
1870.1665590266996
 40
12.000000000000002
 41
1
 50
90
  1
6
  0
TEXT
  8
_0-2_08_DIM
 62
    3
 10
1695.9615600802674
 20
1909.3122007021859
 40
12.000000000000002
 41
1
 50
0
  1
50
  0
TEXT
  8
_0-2_08_DIM
 62
    3
 10
2726.5329886508957
 20
1911.3122007021861
 40
12.000000000000002
 41
1
 50
0
  1
(2050)
  0
TEXT
  8
_0-2_08_DIM
 62
    3
 10
3795.9615600786674
 20
1909.3122007021859
 40
12.000000000000002
 41
1
 50
0
  1
50
  0
TEXT
  8
_0-2_08_DIM
 62
    3
 10
2734.5329886508939
 20
1726.4719800104206
 40
12.000000000000002
 41
1
 50
0
  1
2100
  0
TEXT
  8
_0-2_08_DIM
 62
    3
 10
1638.4615600802676
 20
1726.4803133437538
 40
12.000000000000002
 41
1
 50
0
  1
25
  0
TEXT
  8
_0-2_08_DIM
 62
    3
 10
3853.4615600786665
 20
1726.4803133437538
 40
12.000000000000002
 41
1
 50
0
  1
25
  0
TEXT
  8
_0-2_08_DIM
 62
    3
 10
2315.9615600742973
 20
2100.5860676581015
 40
12.000000000000002
 41
1
 50
0
  1
72
  0
TEXT
  8
_0-2_08_DIM
 62
    3
 10
2740.2472743631442
 20
2100.5860676581015
 40
12.000000000000002
 41
1
 50
0
  1
788
  0
TEXT
  8
_0-2_08_DIM
 62
    3
 10
3175.9615600805619
 20
2100.5860676581015
 40
12.000000000000002
 41
1
 50
0
  1
72
  0
TEXT
  8
_0-2_08_DIM
 62
    3
 10
2230.5773451210939
 20
2119.9695136774735
 40
12.000000000000002
 41
1
 50
90
  1
25
  0
TEXT
  8
_0-2_08_DIM
 62
    3
 10
1969.7472743651031
 20
2100.5860676581015
 40
12.000000000000002
 41
1
 50
0
  1
609
  0
TEXT
  8
_0-2_08_DIM
 62
    3
 10
3502.7472743617545
 20
2102.5860676581015
 40
12.000000000000002
 41
1
 50
0
  1
(609)
  0
TEXT
  8
_0-2_08_DIM
 62
    3
 10
1640.9097959902722
 20
2214.183799378643
 40
12.000000000000002
 41
1
 50
90
  1
60
  0
TEXT
  8
_0-2_08_DIM
 62
    3
 10
1640.9097959902722
 20
2141.1123708072159
 40
12.000000000000002
 41
1
 50
90
  1
12
  0
TEXT
  8
_0-2_08_DIM
 62
    3
 10
1606.1927649904903
 20
2214.1837993781151
 40
12.000000000000002
 41
1
 50
90
  1
84
  0
TEXT
  8
_0-2_08_DIM
 62
    3
 10
1638.4615600844838
 20
2057.1098358117706
 40
12.000000000000002
 41
1
 50
0
  1
25
  0
TEXT
  8
_0-2_08_DIM
 62
    3
 10
2734.5329886494278
 20
2057.1015024784374
 40
12.000000000000002
 41
1
 50
0
  1
2100
  0
TEXT
  8
_0-2_08_DIM
 62
    3
 10
3853.0032267381807
 20
2059.1098358117711
 40
12.000000000000002
 41
1
 50
0
  1
(25)
  0
TEXT
  8
_0-2_08_DIM
 62
    3
 10
1880.183559827447
 20
2322.469513654431
 40
12.000000000000002
 41
1
 50
90
  1
86
  0
TEXT
  8
_0-2_08_DIM
 62
    3
 10
1880.183559827447
 20
2240.9695136533478
 40
12.000000000000002
 41
1
 50
90
  1
77
  0
TEXT
  8
_0-2_08_DIM
 62
    3
 10
1888.4615600827306
 20
2463.97852782364
 40
12.000000000000002
 41
1
 50
0
  1
25
  0
TEXT
  8
_0-2_08_DIM
 62
    3
 10
1945.9615600827306
 20
2505.7582580618609
 40
12.000000000000002
 41
1
 50
0
  1
50
  0
TEXT
  8
_0-2_08_DIM
 62
    3
 10
2733.6758457970145
 20
2463.9701944903063
 40
12.000000000000002
 41
1
 50
0
  1
1600
  0
TEXT
  8
_0-2_08_DIM
 62
    3
 10
2733.6758457970145
 20
2505.7665913951946
 40
12.000000000000002
 41
1
 50
0
  1
1550
  0
TEXT
  8
_0-2_08_DIM
 62
    3
 10
3545.9615600827269
 20
2505.7582580618609
 40
12.000000000000002
 41
1
 50
0
  1
50
  0
TEXT
  8
_0-2_08_DIM
 62
    3
 10
3603.0032267493939
 20
2465.97852782364
 40
12.000000000000002
 41
1
 50
0
  1
(25)
  0
TEXT
  8
_0-2_08_DIM
 62
    3
 10
1842.5215862451462
 20
2288.1123708203227
 40
12.000000000000002
 41
1
 50
90
  1
181
  0
TEXT
  8
_0-2_08_DIM
 62
    3
 10
3631.5710553851281
 20
2288.1123708203245
 40
12.000000000000002
 41
1
 50
90
  1
181
  0
TEXT
  8
_0-2_08_DIM
 62
    3
 10
1790.2472743693215
 20
2505.7582580618609
 40
12.000000000000002
 41
1
 50
0
  1
250
  0
TEXT
  8
_0-2_08_DIM
 62
    3
 10
3682.2472743628355
 20
2507.7582580618614
 40
12.000000000000002
 41
1
 50
0
  1
(250)
  0
TEXT
  8
_0-2_08_DIM
 62
    3
 10
1479.9888854763897
 20
1806.401484650768
 40
12.000000000000002
 41
1
 50
0
  1
30
  0
TEXT
  8
_0-2_08_DIM
 62
    3
 10
1452.7031711932148
 20
1904.8980827398802
 40
12.000000000000002
 41
1
 50
0
  1
84
  0
TEXT
  8
_0-2_08_DIM
 62
    3
 10
1439.9888854751127
 20
1436.3060874339337
 40
12.000000000000002
 41
1
 50
0
  1
50
  0
TEXT
  8
_0-2_08_DIM
 62
    3
 10
1489.9888854751182
 20
1402.7228745778675
 40
12.000000000000002
 41
1
 50
0
  1
50
  0
TEXT
  8
_0-2_08_DIM
 62
    3
 10
1251.0065366013862
 20
1457.4522733109002
 40
12.000000000000002
 41
1
 50
90
  1
8
  0
TEXT
  8
_0-2_08_DIM
 62
    3
 10
1250.998203268053
 20
1511.2379875975244
 40
12.000000000000002
 41
1
 50
90
  1
50
  0
TEXT
  8
_0-2_08_DIM
 62
    3
 10
1492.9833370755941
 20
1567.7797582169526
 40
12.000000000000002
 41
1
 50
44.999999999999702
  1
C5
  0
TEXT
  8
_0-2_08_DIM
 62
    3
 10
1748.9072151638079
 20
2287.9507026485589
 40
12.000000000000002
 41
1
 50
45
  1
4-C2
  0
TEXT
  8
_0-2_08_DIM
 62
    3
 10
1560.0021278076538
 20
2114.5620999017383
 40
12.000000000000002
 41
1
 50
0
  1
4-12
  0
TEXT
  8
_0-2_08_DIM
 62
    3
 10
1609.1449849505109
 20
2114.5620999017383
 40
12.000000000000002
 41
1
 50
0
  1
āLāŖ
  0
TEXT
  8
_0-2_08_DIM
 62
    3
 10
1905.1974487161463
 20
2425.6380869201416
 40
12.000000000000002
 41
1
 50
-45.000000000000313
  1
C5
  0
TEXT
  8
_0-2_08_DIM
 62
    3
 10
3594.5736864047994
 20
2410.6289590184856
 40
12.000000000000002
 41
1
 50
45.000000000001826
  1
C5
  0
TEXT
  8
_0-2_08_DIM
 62
    3
 10
2003.4098447508998
 20
2430.1555295269554
 40
12.000000000000002
 41
1
 50
0
  1
4-10
  0
TEXT
  8
_0-2_08_DIM
 62
    3
 10
2052.5527018937569
 20
2430.1555295269554
 40
12.000000000000002
 41
1
 50
0
  1
āLāŖ
  0
TEXT
  8
_0-2_08_DIM
 62
    3
 10
2401.674315227026
 20
2122.1891746974034
 40
12.000000000000002
 41
1
 50
0
  1
4-10
  0
TEXT
  8
_0-2_08_DIM
 62
    3
 10
2450.8171723698833
 20
2122.1891746974034
 40
12.000000000000002
 41
1
 50
0
  1
āLāŖ
  0
TEXT
  8
_0-2_08_DIM
 62
    3
 10
1360.7745997604595
 20
1404.7145412445343
 40
12.000000000000002
 41
1
 50
0
  1
(181)
  0
TEXT
  8
_0-2_08_DIM
 62
    3
 10
4056.2770366598652
 20
1402.7199633388789
 40
12.000000000000002
 41
1
 50
0
  1
(181)
  0
TEXT
  8
_0-2_08_DIM
 62
    3
 10
2734.5329886494278
 20
2016.1711713856903
 40
12.000000000000002
 41
1
 50
0
  1
2150
  0
TEXT
  8
_0-2_08_DIM
 62
    3
 10
4004.4913223729736
 20
1443.5276973166476
 40
12.000000000000002
 41
1
 50
0
  1
50
  0
TEXT
  8
_0-2_08_DIM
 62
    3
 10
3954.4913223729632
 20
1400.7282966722125
 40
12.000000000000002
 41
1
 50
0
  1
50
  0
TEXT
  8
_0-2_08_DIM
 62
    3
 10
4194.2236260347063
 20
1573.5176102757591
 40
12.000000000000002
 41
1
 50
44.999999999957922
  1
C5
  0
TEXT
  8
_0-2_08_DIM
 62
    3
 10
1261.0982841994571
 20
1585.5330507485351
 40
12.000000000000002
 41
1
 50
-44.999999999999552
  1
C5
  0
TEXT
  8
_0-2_08_DIM
 62
    3
 10
1759.866802468184
 20
1611.3999852361571
 40
12.000000000000002
 41
1
 50
0
  1
2-12
  0
TEXT
  8
_0-2_08_DIM
 62
    3
 10
1809.0096596110411
 20
1611.3999852361571
 40
12.000000000000002
 41
1
 50
0
  1
āLāŖ
  0
TEXT
  8
_0-2_08_DIM
 62
    3
 10
3956.6007210980106
 20
1585.5330507485357
 40
12.000000000000002
 41
1
 50
-44.999999999999396
  1
C5
  0
TEXT
  8
_0-2_08_DIM
 62
    3
 10
4101.0023093604595
 20
1511.2379875975189
 40
12.000000000000002
 41
1
 50
90
  1
50
  0
TEXT
  8
_0-2_08_DIM
 62
    3
 10
4101.0106426937937
 20
1457.4522733108995
 40
12.000000000000002
 41
1
 50
90
  1
8
  0
TEXT
  8
_0-0_90_FRAME
 62
    3
 10
1537.2532681806363
 20
240.32706594316255
 40
12.000000000000002
 41
1
 50
0
  1
Äøōc
  0
TEXT
  8
_0-0_90_FRAME
 62
    3
 10
1230.7401781911567
 20
240.32706594316255
 40
12.000000000000002
 41
0.65
 50
0
  1
2013.09.01
  0
TEXT
  8
_0-0_90_FRAME
 62
    3
 10
1310.7069275772003
 20
240.32706594316255
 40
12.000000000000002
 41
1
 50
0
  1
āGāAü[ö▓é½ÆŪē┴
  0
TEXT
  8
_0-9_
 62
    7
 10
2385.1782830745487
 20
219.21929352657338
 40
37.99399034986007
 41
1
 50
0
  1
A3ü@150%
  0
ENDSEC
  0
EOF
