  0
SECTION
  2
HEADER
  9
$ACADVER
  1
AC1009
  9
$INSBASE
 10
0
 20
0
 30
0
  9
$EXTMIN
 10
0
 20
0
  9
$EXTMAX
 10
3989.3689867353087
 20
2821.0537834771112
  9
$LIMMIN
 10
0
 20
0
  9
$LIMMAX
 10
3989.3689867353087
 20
2821.0537834771112
  9
$LTSCALE
 40
9.498497587465021
  0
ENDSEC
  0
SECTION
  2
TABLES
  0
TABLE
  2
LTYPE
 70
     9
  0
LTYPE
  2
CONTINUOUS
 70
    64
  3
Ä└ÉŘ
 72
    65
 73
     0
 40
0.0
  0
LTYPE
  2
DASHED1
 70
    64
  3
--  --  --  --  --  --  --  --  
 72
    65
 73
     2
 40
2.5
 49
1.25
 49
-1.25
  0
LTYPE
  2
DASHED2
 70
    64
  3
----    ----    ----    ----    
 72
    65
 73
     2
 40
5.0
 49
2.5
 49
-2.5
  0
LTYPE
  2
DASHED3
 70
    64
  3
------  ------  ------  ------  
 72
    65
 73
     2
 40
5.0
 49
3.75
 49
-1.25
  0
LTYPE
  2
CENTER1
 70
    64
  3
----- - ----- - ----- - ----- - 
 72
    65
 73
     4
 40
10.0
 49
6.25
 49
-1.25
 49
1.25
 49
-1.25
  0
LTYPE
  2
CENTER2
 70
    64
  3
----------  --  ----------  --  
 72
    65
 73
     4
 40
20.0
 49
12.5
 49
-2.5
 49
2.5
 49
-2.5
  0
LTYPE
  2
PHANTOM1
 70
    64
  3
--- - - --- - - --- - - --- - - 
 72
    65
 73
     6
 40
10.0
 49
3.25
 49
-1.25
 49
1.25
 49
-1.25
 49
1.25
 49
-1.25
  0
LTYPE
  2
PHANTOM2
 70
    64
  3
--------  -  -  --------  -  -  
 72
    65
 73
     6
 40
20.0
 49
10.0
 49
-2.5
 49
1.25
 49
-2.5
 49
1.25
 49
-2.5
  0
LTYPE
  2
DOT
 70
    64
  3
-   -   -   -   -   -   -   -   
 72
    65
 73
     2
 40
2.5
 49
0.625
 49
-1.875
  0
LTYPE
  2
DUMMY
 70
    64
  3
â_â~ü[
 72
    65
 73
     0
 40
0.0
  0
LTYPE
  2
RAND1
 70
    64
  3
âëâôâ_âÇÉŘ1
 72
    65
 73
     4
 40
10.0
 49
1.0
 49
-2.0
 49
3.0
 49
-4.0
  0
LTYPE
  2
RAND2
 70
    64
  3
âëâôâ_âÇÉŘ2
 72
    65
 73
     4
 40
14.0
 49
2.0
 49
-3.0
 49
4.0
 49
-5.0
  0
LTYPE
  2
RAND3
 70
    64
  3
âëâôâ_âÇÉŘ3
 72
    65
 73
     4
 40
18.0
 49
3.0
 49
-4.0
 49
5.0
 49
-6.0
  0
LTYPE
  2
RAND4
 70
    64
  3
âëâôâ_âÇÉŘ4
 72
    65
 73
     4
 40
22.0
 49
4.0
 49
-5.0
 49
6.0
 49
-7.0
  0
LTYPE
  2
RAND5
 70
    64
  3
âëâôâ_âÇÉŘ5
 72
    65
 73
     4
 40
26.0
 49
5.0
 49
-6.0
 49
7.0
 49
-8.0
  0
LTYPE
  2
LONG1
 70
    64
  3
----------  --  ----------  --  
 72
    65
 73
     4
 40
40.0
 49
32.5
 49
-2.5
 49
2.5
 49
-2.5
  0
LTYPE
  2
LONG2
 70
    64
  3
--------  -  -  --------  -  -  
 72
    65
 73
     6
 40
40.0
 49
30.0
 49
-2.5
 49
1.25
 49
-2.5
 49
1.25
 49
-2.5
  0
LTYPE
  2
LONG3
 70
    64
  3
+++++++++++++++..+++++++++++++++
 72
    65
 73
     2
 40
40.0
 49
37.5
 49
-2.5
  0
LTYPE
  2
LONG4
 70
    64
  3
+++++++++++++++..+++++++++++++++
 72
    65
 73
     2
 40
80.0
 49
75.0
 49
-5.0
  0
LTYPE
  2
LONG5
 70
    64
  3
----------  --  ----------  --  
 72
    65
 73
     4
 40
60.0
 49
37.5
 49
-7.5
 49
7.5
 49
-7.5
  0
LTYPE
  2
dashed
 70
   64
  3
-------   -------------   ------
 72
   65
 73
    2
 40
7.5
 49
6
 49
-1.5
  0
LTYPE
  2
dashed_spaced
 70
   64
  3
----        --------        ----
 72
   65
 73
    2
 40
12
 49
6
 49
-6
  0
LTYPE
  2
long_dashed_dotted
 70
   64
  3
------------- --- --------------
 72
   65
 73
    4
 40
15.25
 49
12
 49
-1.5
 49
0.25
 49
-1.5
  0
LTYPE
  2
long_dashed_double-dotted
 70
   64
  3
----------- --- --- ------------
 72
   65
 73
    6
 40
17
 49
12
 49
-1.5
 49
0.25
 49
-1.5
 49
0.25
 49
-1.5
  0
LTYPE
  2
long_dashed_triplicate-dotted
 70
   64
  3
--------- --- --- --- ----------
 72
   65
 73
    8
 40
18.75
 49
12
 49
-1.5
 49
0.25
 49
-1.5
 49
0.25
 49
-1.5
 49
0.25
 49
-1.5
  0
LTYPE
  2
dotted
 70
   64
  3
   -       -       -       -    
 72
   65
 73
    2
 40
1.75
 49
0.25
 49
-1.5
  0
LTYPE
  2
chain
 70
   64
  3
-------------- -- --------------
 72
   65
 73
    4
 40
18.5
 49
12
 49
-1.5
 49
3.5
 49
-1.5
  0
LTYPE
  2
chain_double_dash
 70
   64
  3
------------ -- -- -------------
 72
   65
 73
    6
 40
23.5
 49
12
 49
-1.5
 49
3.5
 49
-1.5
 49
3.5
 49
-1.5
  0
LTYPE
  2
dashed_dotted
 70
   64
  3
-----------     -     ----------
 72
   65
 73
    4
 40
9.25
 49
6
 49
-1.5
 49
0.25
 49
-1.5
  0
LTYPE
  2
double-dashed_dotted
 70
   64
  3
------   -----------   -   -----
 72
   65
 73
    6
 40
16.75
 49
6
 49
-1.5
 49
6
 49
-1.5
 49
0.25
 49
-1.5
  0
LTYPE
  2
dashed_double-dotted
 70
   64
  3
---------    -    -    ---------
 72
   65
 73
    6
 40
11
 49
6
 49
-1.5
 49
0.25
 49
-1.5
 49
0.25
 49
-1.5
  0
LTYPE
  2
double-dashed_double-dotted
 70
   64
  3
-----   ---------   -   -   ----
 72
   65
 73
    8
 40
18.5
 49
6
 49
-1.5
 49
6
 49
-1.5
 49
0.25
 49
-1.5
 49
0.25
 49
-1.5
  0
LTYPE
  2
dashed_triplicate-dotted
 70
   64
  3
-------    -    -    -    ------
 72
   65
 73
    8
 40
12.75
 49
6
 49
-1.5
 49
0.25
 49
-1.5
 49
0.25
 49
-1.5
 49
0.25
 49
-1.5
  0
LTYPE
  2
double-dashed_triplicate-dotted
 70
   64
  3
-----  ---------  -  -  -  -----
 72
   65
 73
   10
 40
20.25
 49
6
 49
-1.5
 49
6
 49
-1.5
 49
0.25
 49
-1.5
 49
0.25
 49
-1.5
 49
0.25
 49
-1.5
  0
LTYPE
  2
undefined
 70
   64
  3
--------------------------------
 72
   65
 73
    0
 40
0
  0
LTYPE
  2
_
 70
   64
  3
                                
 72
   65
 73
    0
 40
0
  0
LTYPE
  2
__18
 70
   64
  3
                                
 72
   65
 73
    0
 40
0
  0
LTYPE
  2
__19
 70
   64
  3
                                
 72
   65
 73
    0
 40
0
  0
LTYPE
  2
__20
 70
   64
  3
                                
 72
   65
 73
    0
 40
0
  0
LTYPE
  2
__21
 70
   64
  3
                                
 72
   65
 73
    0
 40
0
  0
LTYPE
  2
__22
 70
   64
  3
                                
 72
   65
 73
    0
 40
0
  0
LTYPE
  2
__23
 70
   64
  3
                                
 72
   65
 73
    0
 40
0
  0
LTYPE
  2
__24
 70
   64
  3
                                
 72
   65
 73
    0
 40
0
  0
LTYPE
  2
__25
 70
   64
  3
                                
 72
   65
 73
    0
 40
0
  0
LTYPE
  2
__26
 70
   64
  3
                                
 72
   65
 73
    0
 40
0
  0
LTYPE
  2
__27
 70
   64
  3
                                
 72
   65
 73
    0
 40
0
  0
LTYPE
  2
__28
 70
   64
  3
                                
 72
   65
 73
    0
 40
0
  0
LTYPE
  2
__29
 70
   64
  3
                                
 72
   65
 73
    0
 40
0
  0
LTYPE
  2
__30
 70
   64
  3
                                
 72
   65
 73
    0
 40
0
  0
LTYPE
  2
__31
 70
   64
  3
                                
 72
   65
 73
    0
 40
0
  0
LTYPE
  2
__32
 70
   64
  3
                                
 72
   65
 73
    0
 40
0
  0
ENDTAB
  0
TABLE
  2
STYLE
  5
3
100
AcDbSymbolTable
 70
     1
  0
STYLE
  5
10
100
AcDbSymbolTableRecord
100
AcDbTextStyleTableRecord
  2
STANDARD
 70
     0
 40
0.0
 41
1.0
 50
0.0
 71
     0
 42
0.2
  3
txt
  4
bigfont.shx
  0
STYLE
  5
26
100
AcDbSymbolTableRecord
100
AcDbTextStyleTableRecord
  2
TATEGAKI
 70
    68
 40
0.0
 41
1.0
 50
0.0
 71
     0
 42
1.0
  3
txt
  4
bigfont.shx
  0
ENDTAB
  0
TABLE
  2
LAYER
 70
   10
  0
LAYER
  2
_0-0_90_FRAME
 70
   64
 62
    7
  6
CONTINUOUS
  0
LAYER
  2
_0-1_91_BLANK
 70
   64
 62
    7
  6
CONTINUOUS
  0
LAYER
  2
_0-2_08_DIM
 70
   64
 62
    7
  6
CONTINUOUS
  0
LAYER
  2
_0-3_0
 70
   64
 62
    7
  6
CONTINUOUS
  0
LAYER
  2
_0-4_05_CENTER
 70
   64
 62
    7
  6
CONTINUOUS
  0
LAYER
  2
_0-5_10_DRAFT
 70
   64
 62
    7
  6
CONTINUOUS
  0
LAYER
  2
_0-6_04_HIDDEN
 70
   64
 62
    7
  6
CONTINUOUS
  0
LAYER
  2
_0-7_07_TEXT
 70
   64
 62
    7
  6
CONTINUOUS
  0
LAYER
  2
_0-8_
 70
   64
 62
    7
  6
CONTINUOUS
  0
LAYER
  2
ADD_LINE
 70
   64
 62
    7
  6
CONTINUOUS
  0
ENDTAB
  0
ENDSEC
  0
SECTION
  2
BLOCKS
  0
BLOCK
  2
-000-p1ba05
 70
   64
 10
0
 20
0
 30
0
  0
ARC
  8
_0-2_08_DIM
  6
CONTINUOUS
 62
    3
 10
0
 20
1.6206695983957433
 40
1.6206695983958537
 50
204.22763733453323
 51
335.57577857182139
  0
ARC
  8
_0-2_08_DIM
  6
CONTINUOUS
 62
    3
 10
-2.9535588745990826
 20
0.2854771617432377
 40
1.6206695983958537
 50
24.227637334533135
 51
155.57577857182133
  0
ENDBLK
  0
BLOCK
  2
-001-p1ba02
 70
   64
 10
0
 20
0
 30
0
  0
LINE
  8
_0-2_08_DIM
  6
CONTINUOUS
 62
    3
 10
3.0000000000000142
 20
0
 11
1.5000000000000142
 21
2.5980762113532592
  0
LINE
  8
_0-2_08_DIM
  6
CONTINUOUS
 62
    3
 10
4.5000000000000142
 20
2.5980762113532592
 11
3.0000000000000142
 21
0
  0
LINE
  8
_0-2_08_DIM
  6
CONTINUOUS
 62
    3
 10
1.5000000000000142
 20
2.5980762113532592
 11
4.5000000000000142
 21
2.5980762113532592
  0
LINE
  8
_0-2_08_DIM
  6
CONTINUOUS
 62
    3
 10
-1.4999999999999858
 20
2.5980762113532592
 11
1.5000000000000142
 21
2.5980762113532592
  0
LINE
  8
_0-2_08_DIM
  6
CONTINUOUS
 62
    3
 10
1.5000000000000142
 20
2.5980762113532592
 11
0.0000000000000142
 21
0
  0
LINE
  8
_0-2_08_DIM
  6
CONTINUOUS
 62
    3
 10
0.0000000000000142
 20
0
 11
-1.4999999999999858
 21
2.5980762113532592
  0
ENDBLK
  0
BLOCK
  2
-002-p1ba01
 70
   64
 10
0
 20
0
 30
0
  0
LINE
  8
_0-2_08_DIM
  6
CONTINUOUS
 62
    3
 10
0
 20
0
 11
-1.5
 21
2.5980762113532592
  0
LINE
  8
_0-2_08_DIM
  6
CONTINUOUS
 62
    3
 10
1.5
 20
2.5980762113532592
 11
0
 21
0
  0
LINE
  8
_0-2_08_DIM
  6
CONTINUOUS
 62
    3
 10
-1.5
 20
2.5980762113532592
 11
1.5
 21
2.5980762113532592
  0
ENDBLK
  0
BLOCK
  2
-003-Weld-line
 70
   64
 10
0
 20
0
 30
0
  0
LINE
  8
_0-2_08_DIM
  6
CONTINUOUS
 62
    3
 10
0
 20
0
 11
1
 21
0
  0
ENDBLK
  0
BLOCK
  2
-004-Weld10-s5
 70
   64
 10
0
 20
0
 30
0
  0
CIRCLE
  8
_0-2_08_DIM
  6
CONTINUOUS
 62
    3
 10
0
 20
0
 40
2
  0
ENDBLK
  0
BLOCK
  2
-005-Weld10-a1
 70
   64
 10
0
 20
0
 30
0
  0
LINE
  8
_0-2_08_DIM
  6
CONTINUOUS
 62
    3
 10
5.0000000000000009
 20
0
 11
0
 21
5.0000000000000009
  0
LINE
  8
_0-2_08_DIM
  6
CONTINUOUS
 62
    3
 10
0
 20
5.0000000000000009
 11
0
 21
0
  0
LINE
  8
_0-2_08_DIM
  6
CONTINUOUS
 62
    3
 10
0
 20
0
 11
5.0000000000000009
 21
0
  0
ENDBLK
  0
BLOCK
  2
-006-Jis_w20130906110600
 70
   64
 10
0
 20
0
 30
0
  0
INSERT
  2
-003-Weld-line
  8
_0-2_08_DIM
 10
0
 20
0
 41
14.000000000000002
 42
14.000000000000002
 50
0
  0
INSERT
  2
-004-Weld10-s5
  8
_0-2_08_DIM
 10
0
 20
0
 41
1
 42
1
 50
0
  0
INSERT
  2
-005-Weld10-a1
  8
_0-2_08_DIM
 10
6
 20
0
 41
-1
 42
1
 50
180
  0
TEXT
  8
_0-2_08_DIM
 62
    3
 10
4.0000000000001146
 20
-1
 40
2.7999999999999998
 41
0.9000000000000001
 50
0
  1

  0
TEXT
  8
_0-2_08_DIM
 62
    3
 10
14.000000000000115
 20
-1
 40
2.7999999999999998
 41
0.9000000000000001
 50
0
  1

  0
LINE
  8
_0-2_08_DIM
  6
CONTINUOUS
 62
    3
 10
-4.6308054280802944
 20
-5.7653612299384358
 11
0
 21
0
  0
ENDBLK
  0
BLOCK
  2
-007-AM_BALLOON1
 70
   64
 10
0
 20
0
 30
0
  0
CIRCLE
  8
_0-2_08_DIM
  6
CONTINUOUS
 62
    3
 10
0
 20
0
 40
5.0000000000000009
  0
ENDBLK
  0
BLOCK
  2
-008-_Open30
 70
   64
 10
0
 20
0
 30
0
  0
LINE
  8
_0-2_08_DIM
  6
CONTINUOUS
 62
    3
 10
-1
 20
0.26794919
 11
0
 21
0
  0
LINE
  8
_0-2_08_DIM
  6
CONTINUOUS
 62
    3
 10
0
 20
0
 11
-1
 21
-0.26794919
  0
LINE
  8
_0-2_08_DIM
  6
CONTINUOUS
 62
    3
 10
0
 20
0
 11
-1
 21
0
  0
ENDBLK
  0
ENDSEC
  0
SECTION
  2
ENTITIES
  0
TEXT
  8
_0-0_90_FRAME
 62
    7
 10
3015.8915381947213
 20
624.73258459089868
 40
15.000000000000002
 41
1
 50
0
  1
AT-221121-04-29
  0
TEXT
  8
_0-0_90_FRAME
 62
    7
 10
2913.1748770130157
 20
590.20631750397013
 40
15.000000000000002
 41
1
 50
0
  1
2024.09.04
  0
LINE
  8
_0-0_90_FRAME
  6
CONTINUOUS
 62
    5
 10
868.92091194727527
 20
582.0587317881392
 11
3198.0999976545977
 21
582.0587317881392
  0
LINE
  8
_0-0_90_FRAME
  6
CONTINUOUS
 62
    5
 10
3198.0999976545977
 20
582.0587317881392
 11
3198.0999976545977
 21
2247.2204133530017
  0
LINE
  8
_0-0_90_FRAME
  6
CONTINUOUS
 62
    5
 10
3198.0999976545977
 20
2247.2204133530017
 11
868.92091194727527
 21
2247.2204133530017
  0
LINE
  8
_0-0_90_FRAME
  6
CONTINUOUS
 62
    5
 10
868.92091194727527
 20
2247.2204133530017
 11
868.92091194727527
 21
582.0587317881392
  0
LINE
  8
_0-0_90_FRAME
  6
CONTINUOUS
 62
    5
 10
752.38320337632445
 20
1414.6395725705709
 11
868.92091194727527
 21
1414.6395725705709
  0
LINE
  8
_0-0_90_FRAME
  6
CONTINUOUS
 62
    5
 10
3236.9857833687256
 20
1414.6395725705709
 11
3198.0999976545977
 21
1414.6395725705709
  0
LINE
  8
_0-0_90_FRAME
  6
CONTINUOUS
 62
    5
 10
2033.5104548009363
 20
2292.1061990751527
 11
2033.5104548009367
 21
2247.2204133530017
  0
LINE
  8
_0-0_90_FRAME
  6
CONTINUOUS
 62
    5
 10
2033.5104548009367
 20
543.34679906712677
 11
2033.5104548009367
 21
582.0587317881392
  0
LINE
  8
_0-0_90_FRAME
  6
CONTINUOUS
 62
    5
 10
1734.3890262307141
 20
564.11144607392237
 11
2332.6318833711598
 21
564.11144607392237
  0
LINE
  8
_0-0_90_FRAME
  6
CONTINUOUS
 62
    5
 10
1734.3890262307141
 20
564.11144607392237
 11
1734.3890262307141
 21
582.0587317881392
  0
LINE
  8
_0-0_90_FRAME
  6
CONTINUOUS
 62
    5
 10
1794.2133119447601
 20
564.11144607392237
 11
1794.2133119447601
 21
582.0587317881392
  0
LINE
  8
_0-0_90_FRAME
  6
CONTINUOUS
 62
    5
 10
1854.0375976588059
 20
564.11144607392237
 11
1854.0375976588059
 21
582.0587317881392
  0
LINE
  8
_0-0_90_FRAME
  6
CONTINUOUS
 62
    5
 10
1913.8618833728442
 20
564.11144607392237
 11
1913.8618833728442
 21
582.0587317881392
  0
LINE
  8
_0-0_90_FRAME
  6
CONTINUOUS
 62
    5
 10
1973.6861690868907
 20
564.11144607392237
 11
1973.6861690868907
 21
582.0587317881392
  0
LINE
  8
_0-0_90_FRAME
  6
CONTINUOUS
 62
    5
 10
2093.3347405149748
 20
564.11144607392237
 11
2093.3347405149748
 21
582.0587317881392
  0
LINE
  8
_0-0_90_FRAME
  6
CONTINUOUS
 62
    5
 10
2153.159026229021
 20
564.11144607392237
 11
2153.159026229021
 21
582.0587317881392
  0
LINE
  8
_0-0_90_FRAME
  6
CONTINUOUS
 62
    5
 10
2212.9833119430673
 20
564.11144607392237
 11
2212.9833119430673
 21
582.0587317881392
  0
LINE
  8
_0-0_90_FRAME
  6
CONTINUOUS
 62
    5
 10
2272.8075976571131
 20
564.11144607392237
 11
2272.8075976571131
 21
582.0587317881392
  0
LINE
  8
_0-0_90_FRAME
  6
CONTINUOUS
 62
    5
 10
2332.6318833711598
 20
564.11144607392237
 11
2332.6318833711598
 21
582.0587317881392
  0
LINE
  8
_0-0_90_FRAME
  6
CONTINUOUS
 62
    4
 10
1431.1098098033672
 20
2247.2204133530017
 11
1431.1098098033672
 21
2286.1061990671215
  0
TEXT
  8
_0-0_90_FRAME
 62
    7
 10
979.51332661022298
 20
2254.9655034131715
 40
12
 41
1
 50
0
  1
1
  0
TEXT
  8
_0-0_90_FRAME
 62
    7
 10
1125.9094873045867
 20
2254.9655034131715
 40
12
 41
1
 50
0
  1
2
  0
TEXT
  8
_0-0_90_FRAME
 62
    7
 10
1326.7097023037763
 20
2254.9655034131715
 40
12
 41
1
 50
0
  1
3
  0
TEXT
  8
_0-0_90_FRAME
 62
    7
 10
1527.5099173029585
 20
2254.9655034131715
 40
12
 41
1
 50
0
  1
4
  0
TEXT
  8
_0-0_90_FRAME
 62
    7
 10
1728.3101323021558
 20
2254.9655034131715
 40
12
 41
1
 50
0
  1
5
  0
TEXT
  8
_0-0_90_FRAME
 62
    7
 10
1929.1103473013379
 20
2254.9655034131715
 40
12
 41
1
 50
0
  1
6
  0
TEXT
  8
_0-0_90_FRAME
 62
    7
 10
2129.9105623005275
 20
2254.9655034131715
 40
12
 41
1
 50
0
  1
7
  0
TEXT
  8
_0-0_90_FRAME
 62
    7
 10
2330.7107772997174
 20
2254.9655034131715
 40
12
 41
1
 50
0
  1
8
  0
TEXT
  8
_0-0_90_FRAME
 62
    7
 10
2531.5109922989068
 20
2254.9655034131715
 40
12
 41
1
 50
0
  1
9
  0
TEXT
  8
_0-0_90_FRAME
 62
    7
 10
2729.3112072980971
 20
2254.9655034131715
 40
12
 41
1
 50
0
  1
10
  0
TEXT
  8
_0-0_90_FRAME
 62
    7
 10
2931.1114222972792
 20
2254.9655034131715
 40
12
 41
1
 50
0
  1
11
  0
TEXT
  8
_0-0_90_FRAME
 62
    7
 10
3129.9116372964691
 20
2254.9655034131715
 40
12
 41
1
 50
0
  1
12
  0
TEXT
  8
_0-0_90_FRAME
 62
    7
 10
3205.8302860892718
 20
1941.1187141309174
 40
12
 41
1
 50
0
  1
B
  0
LINE
  8
_0-0_90_FRAME
  6
CONTINUOUS
 62
   18
 10
868.92091194727527
 20
582.0587317881392
 11
1174.9209119445982
 21
582.0587317881392
  0
LINE
  8
_0-0_90_FRAME
  6
CONTINUOUS
 62
   18
 10
1174.9209119445982
 20
582.0587317881392
 11
1174.9209119445982
 21
666.91587464493682
  0
LINE
  8
_0-0_90_FRAME
  6
CONTINUOUS
 62
   18
 10
1174.9209119445982
 20
666.91587464493682
 11
868.92091194727527
 21
666.91587464493682
  0
LINE
  8
_0-0_90_FRAME
  6
CONTINUOUS
 62
   18
 10
868.92091194727527
 20
666.91587464493682
 11
868.92091194727527
 21
582.0587317881392
  0
LINE
  8
_0-0_90_FRAME
  6
CONTINUOUS
 62
   18
 10
1132.9209119445982
 20
582.0587317881392
 11
1132.9209119445982
 21
666.91587464493682
  0
LINE
  8
_0-0_90_FRAME
  6
CONTINUOUS
 62
   18
 10
910.92091194459806
 20
582.0587317881392
 11
910.92091194459806
 21
666.91587464493682
  0
LINE
  8
_0-0_90_FRAME
  6
CONTINUOUS
 62
   18
 10
958.92091194459795
 20
582.0587317881392
 11
958.92091194459795
 21
666.91587464493682
  0
LINE
  8
_0-0_90_FRAME
  6
CONTINUOUS
 62
   18
 10
868.92091194727527
 20
645.70158893074142
 11
1174.9209119445982
 21
645.70158893074142
  0
LINE
  8
_0-0_90_FRAME
  6
CONTINUOUS
 62
   18
 10
868.92091194727527
 20
624.48730321653522
 11
1174.9209119445982
 21
624.48730321653522
  0
LINE
  8
_0-0_90_FRAME
  6
CONTINUOUS
 62
   18
 10
868.92091194727527
 20
603.27301750233994
 11
1174.9209119445982
 21
603.27301750234005
  0
TEXT
  8
_0-0_90_FRAME
 62
    7
 10
879.44818467320931
 20
652.70873178783916
 40
7.1999999999999993
 41
1
 50
0
  1
őLŹć
  0
TEXT
  8
_0-0_90_FRAME
 62
    7
 10
923.41775583687252
 20
652.70873178783916
 40
7.1999999999999993
 41
1
 50
0
  1
ô˙Ľt
  0
TEXT
  8
_0-0_90_FRAME
 62
    7
 10
1138.211821035507
 20
652.70873178783916
 40
7.1999999999999993
 41
1
 50
0
  1
ŹýÉČÄĎ
  0
TEXT
  8
_0-0_90_FRAME
 62
    7
 10
1021.9754573991435
 20
652.58600451511188
 40
7.1999999999999993
 41
1
 50
0
  1
ëŘĺ¨ôÓŚe
  0
LINE
  8
_0-0_90_FRAME
  6
CONTINUOUS
 62
   18
 10
880.37448337454339
 20
605.52619144189805
 11
889.92091194593661
 21
622.06109075836969
  0
LINE
  8
_0-0_90_FRAME
  6
CONTINUOUS
 62
   18
 10
889.92091194593661
 20
622.06109075836969
 11
899.4673405173246
 21
605.52619144189805
  0
LINE
  8
_0-0_90_FRAME
  6
CONTINUOUS
 62
   18
 10
899.4673405173246
 20
605.52619144189805
 11
880.37448337454339
 21
605.52619144189805
  0
TEXT
  8
_0-0_90_FRAME
 62
    7
 10
887.85332673927348
 20
629.82318066394294
 40
6.3642857142600002
 41
1
 50
0
  1
1
  0
TEXT
  8
_0-0_90_FRAME
 62
    7
 10
887.85332673927348
 20
608.60889494974219
 40
6.3642857142600002
 41
1
 50
0
  1
2
  0
TEXT
  8
_0-0_90_FRAME
 62
    7
 10
887.85332673927348
 20
587.39460923554145
 40
6.3642857142600002
 41
1
 50
0
  1
3
  0
LINE
  8
_0-0_90_FRAME
  6
CONTINUOUS
 62
   18
 10
880.37448337454339
 20
626.74047715609879
 11
889.92091194593661
 21
643.27537647257589
  0
LINE
  8
_0-0_90_FRAME
  6
CONTINUOUS
 62
   18
 10
889.92091194593661
 20
643.27537647257589
 11
899.4673405173246
 21
626.74047715609879
  0
LINE
  8
_0-0_90_FRAME
  6
CONTINUOUS
 62
   18
 10
899.4673405173246
 20
626.74047715609879
 11
880.37448337454339
 21
626.74047715609879
  0
LINE
  8
_0-0_90_FRAME
  6
CONTINUOUS
 62
   18
 10
880.37448337454339
 20
584.31190572769742
 11
889.92091194593661
 21
600.8468050441744
  0
LINE
  8
_0-0_90_FRAME
  6
CONTINUOUS
 62
   18
 10
889.92091194593661
 20
600.8468050441744
 11
899.4673405173246
 21
584.31190572769742
  0
LINE
  8
_0-0_90_FRAME
  6
CONTINUOUS
 62
   18
 10
899.4673405173246
 20
584.31190572769742
 11
880.37448337454339
 21
584.31190572769742
  0
LINE
  8
_0-0_90_FRAME
  6
CONTINUOUS
 62
    4
 10
3236.9857833687256
 20
988.65625932229307
 11
3198.0999976545977
 21
988.65625932229307
  0
LINE
  8
_0-0_90_FRAME
  6
CONTINUOUS
 62
    4
 10
3236.9857833687256
 20
1201.6479159464318
 11
3198.0999976545977
 21
1201.6479159464318
  0
LINE
  8
_0-0_90_FRAME
  6
CONTINUOUS
 62
    4
 10
3236.9857833687256
 20
775.66460269815445
 11
3198.0999976545977
 21
775.66460269815445
  0
LINE
  8
_0-0_90_FRAME
  6
CONTINUOUS
 62
    4
 10
3236.9857833687256
 20
1840.6228858188483
 11
3198.0999976545977
 21
1840.6228858188483
  0
LINE
  8
_0-0_90_FRAME
  6
CONTINUOUS
 62
    4
 10
3236.9857833687256
 20
1627.6312291947097
 11
3198.0999976545977
 21
1627.6312291947097
  0
LINE
  8
_0-0_90_FRAME
  6
CONTINUOUS
 62
    4
 10
3236.9857833687256
 20
2053.6145424429874
 11
3198.0999976545977
 21
2053.6145424429874
  0
TEXT
  8
_0-0_90_FRAME
 62
    7
 10
3205.8302860892718
 20
2154.1103707550565
 40
12
 41
1
 50
0
  1
A
  0
TEXT
  8
_0-0_90_FRAME
 62
    7
 10
3205.8302860892718
 20
1728.1270575067788
 40
12
 41
1
 50
0
  1
C
  0
TEXT
  8
_0-0_90_FRAME
 62
    7
 10
3205.8302860892718
 20
1515.1354008826404
 40
12
 41
1
 50
0
  1
D
  0
TEXT
  8
_0-0_90_FRAME
 62
    7
 10
3205.8302860892718
 20
1089.1520876343625
 40
12
 41
1
 50
0
  1
F
  0
TEXT
  8
_0-0_90_FRAME
 62
    7
 10
3205.8302860892718
 20
876.16043101022365
 40
12
 41
1
 50
0
  1
G
  0
TEXT
  8
_0-0_90_FRAME
 62
    7
 10
3205.8302860892718
 20
663.16877438608492
 40
12
 41
1
 50
0
  1
H
  0
TEXT
  8
_0-0_90_FRAME
 62
    7
 10
3205.8302860892718
 20
1302.1437442585013
 40
12
 41
1
 50
0
  1
E
  0
TEXT
  8
_0-0_90_FRAME
 62
    7
 10
851.2552267653831
 20
1941.1187141309174
 40
12
 41
1
 50
0
  1
B
  0
LINE
  8
_0-0_90_FRAME
  6
CONTINUOUS
 62
    4
 10
868.92091194727527
 20
988.65625932229307
 11
830.03512623315532
 21
988.65625932229307
  0
LINE
  8
_0-0_90_FRAME
  6
CONTINUOUS
 62
    4
 10
868.92091194727527
 20
1201.6479159464318
 11
830.03512623315532
 21
1201.6479159464318
  0
LINE
  8
_0-0_90_FRAME
  6
CONTINUOUS
 62
    4
 10
868.92091194727527
 20
775.66460269815445
 11
830.03512623315532
 21
775.66460269815445
  0
LINE
  8
_0-0_90_FRAME
  6
CONTINUOUS
 62
    4
 10
868.92091194727527
 20
1840.6228858188483
 11
830.03512623315532
 21
1840.6228858188483
  0
LINE
  8
_0-0_90_FRAME
  6
CONTINUOUS
 62
    4
 10
868.92091194727527
 20
1627.6312291947097
 11
830.03512623315532
 21
1627.6312291947097
  0
LINE
  8
_0-0_90_FRAME
  6
CONTINUOUS
 62
    4
 10
868.92091194727527
 20
2053.6145424429874
 11
830.03512623315532
 21
2053.6145424429874
  0
TEXT
  8
_0-0_90_FRAME
 62
    7
 10
851.2552267653831
 20
2154.1103707550565
 40
12
 41
1
 50
0
  1
A
  0
TEXT
  8
_0-0_90_FRAME
 62
    7
 10
851.2552267653831
 20
1728.1270575067788
 40
12
 41
1
 50
0
  1
C
  0
TEXT
  8
_0-0_90_FRAME
 62
    7
 10
851.2552267653831
 20
1515.1354008826404
 40
12
 41
1
 50
0
  1
D
  0
TEXT
  8
_0-0_90_FRAME
 62
    7
 10
851.2552267653831
 20
1089.1520876343625
 40
12
 41
1
 50
0
  1
F
  0
TEXT
  8
_0-0_90_FRAME
 62
    7
 10
851.2552267653831
 20
876.16043101022365
 40
12
 41
1
 50
0
  1
G
  0
TEXT
  8
_0-0_90_FRAME
 62
    7
 10
851.2552267653831
 20
1302.1437442585013
 40
12
 41
1
 50
0
  1
E
  0
TEXT
  8
_0-0_90_FRAME
 62
    7
 10
851.2552267653831
 20
663.16877438608492
 40
12
 41
1
 50
0
  1
H
  0
LINE
  8
_0-0_90_FRAME
  6
CONTINUOUS
 62
    4
 10
1230.3095948041778
 20
2247.2204133530017
 11
1230.3095948041778
 21
2286.1061990671215
  0
LINE
  8
_0-0_90_FRAME
  6
CONTINUOUS
 62
    4
 10
1029.5093798049879
 20
2247.2204133530017
 11
1029.5093798049879
 21
2286.1061990671215
  0
LINE
  8
_0-0_90_FRAME
  6
CONTINUOUS
 62
    4
 10
1631.9100248025572
 20
2247.2204133530017
 11
1631.9100248025572
 21
2286.1061990671215
  0
LINE
  8
_0-0_90_FRAME
  6
CONTINUOUS
 62
    4
 10
1832.7102398017466
 20
2247.2204133530017
 11
1832.7102398017466
 21
2286.1061990671215
  0
LINE
  8
_0-0_90_FRAME
  6
CONTINUOUS
 62
    4
 10
2635.9110997984981
 20
2247.2204133530017
 11
2635.9110997984981
 21
2286.1061990671215
  0
LINE
  8
_0-0_90_FRAME
  6
CONTINUOUS
 62
    4
 10
2836.7113147976884
 20
2247.2204133530017
 11
2836.7113147976884
 21
2286.1061990671215
  0
LINE
  8
_0-0_90_FRAME
  6
CONTINUOUS
 62
    4
 10
3037.5115297968778
 20
2247.2204133530017
 11
3037.5115297968778
 21
2286.1061990671215
  0
LINE
  8
_0-0_90_FRAME
  6
CONTINUOUS
 62
    4
 10
2435.1108847993087
 20
2247.2204133530017
 11
2435.1108847993087
 21
2286.1061990671215
  0
LINE
  8
_0-0_90_FRAME
  6
CONTINUOUS
 62
    4
 10
2234.3106698001261
 20
2247.2204133530017
 11
2234.3106698001261
 21
2286.1061990671215
  0
LINE
  8
_0-0_90_FRAME
  6
CONTINUOUS
 62
    4
 10
1431.1098098033672
 20
543.34679906712677
 11
1431.1098098033672
 21
582.0587317881392
  0
LINE
  8
_0-0_90_FRAME
  6
CONTINUOUS
 62
    4
 10
1230.3095948041778
 20
543.34679906712677
 11
1230.3095948041778
 21
582.0587317881392
  0
LINE
  8
_0-0_90_FRAME
  6
CONTINUOUS
 62
    4
 10
1029.5093798049879
 20
543.34679906712677
 11
1029.5093798049879
 21
582.0587317881392
  0
LINE
  8
_0-0_90_FRAME
  6
CONTINUOUS
 62
    4
 10
1631.9100248025572
 20
543.34679906712677
 11
1631.9100248025572
 21
582.0587317881392
  0
LINE
  8
_0-0_90_FRAME
  6
CONTINUOUS
 62
    4
 10
2635.9110997984981
 20
543.34679906712677
 11
2635.9110997984981
 21
582.0587317881392
  0
LINE
  8
_0-0_90_FRAME
  6
CONTINUOUS
 62
    4
 10
2836.7113147976884
 20
543.34679906712677
 11
2836.7113147976884
 21
582.0587317881392
  0
LINE
  8
_0-0_90_FRAME
  6
CONTINUOUS
 62
    4
 10
3037.5115297968778
 20
543.34679906712677
 11
3037.5115297968778
 21
582.0587317881392
  0
LINE
  8
_0-0_90_FRAME
  6
CONTINUOUS
 62
    4
 10
2435.1108847993087
 20
543.34679906712677
 11
2435.1108847993087
 21
582.0587317881392
  0
LINE
  8
_0-1_91_BLANK
  6
CONTINUOUS
 62
    5
 10
752.3832033665833
 20
543.34679906712677
 11
3236.9857833645983
 21
543.34679906712677
  0
LINE
  8
_0-1_91_BLANK
  6
CONTINUOUS
 62
    5
 10
3236.9857833645983
 20
543.34679906712677
 11
3236.9857833645983
 21
2292.1061990751527
  0
LINE
  8
_0-1_91_BLANK
  6
CONTINUOUS
 62
    5
 10
3236.9857833645983
 20
2292.1061990751527
 11
752.3832033665833
 21
2292.1061990751527
  0
LINE
  8
_0-1_91_BLANK
  6
CONTINUOUS
 62
    5
 10
752.3832033665833
 20
2292.1061990751527
 11
752.3832033665833
 21
543.34679906712677
  0
LINE
  8
_0-0_90_FRAME
  6
CONTINUOUS
 62
   18
 10
2604.0999976569969
 20
582.0587317881392
 11
3198.0999976545977
 21
582.0587317881392
  0
LINE
  8
_0-0_90_FRAME
  6
CONTINUOUS
 62
   18
 10
3198.0999976545977
 20
582.0587317881392
 11
3198.0999976545977
 21
692.37301750197935
  0
LINE
  8
_0-0_90_FRAME
  6
CONTINUOUS
 62
   18
 10
3198.0999976545977
 20
692.37301750197935
 11
2604.0999976569969
 21
692.37301750197935
  0
LINE
  8
_0-0_90_FRAME
  6
CONTINUOUS
 62
   18
 10
2604.0999976569969
 20
692.37301750197935
 11
2604.0999976569969
 21
582.0587317881392
  0
LINE
  8
_0-0_90_FRAME
  6
CONTINUOUS
 62
   18
 10
2650.8774976568097
 20
673.28016035919813
 11
2680.577497656689
 21
680.70516035916921
  0
LINE
  8
_0-0_90_FRAME
  6
CONTINUOUS
 62
   18
 10
2680.577497656689
 20
680.70516035916921
 11
2680.577497656689
 21
651.00516035929024
  0
LINE
  8
_0-0_90_FRAME
  6
CONTINUOUS
 62
   18
 10
2680.577497656689
 20
651.00516035929024
 11
2650.8774976568097
 21
658.43016035925871
  0
LINE
  8
_0-0_90_FRAME
  6
CONTINUOUS
 62
   18
 10
2650.8774976568097
 20
658.43016035925871
 11
2650.8774976568097
 21
673.28016035919813
  0
CIRCLE
  8
_0-0_90_FRAME
  6
CONTINUOUS
 62
   18
 10
2631.5724976568854
 20
665.85516035922694
 40
7.4249999999699998
  0
CIRCLE
  8
_0-0_90_FRAME
  6
CONTINUOUS
 62
   18
 10
2631.5724976568854
 20
665.85516035922694
 40
14.84999999994
  0
LINE
  8
_0-0_90_FRAME
  6
CONTINUOUS
 62
   18
 10
2613.7524976569575
 20
665.85516035922694
 11
2683.5474976566748
 21
665.85516035922694
  0
LINE
  8
_0-0_90_FRAME
  6
CONTINUOUS
 62
   18
 10
2631.5724976568854
 20
648.03516035930193
 11
2631.5724976568854
 21
683.67516035915764
  0
LINE
  8
_0-0_90_FRAME
  6
CONTINUOUS
 62
   18
 10
2847.4214262273968
 20
582.0587317881392
 11
2847.4214262273968
 21
692.37301750197935
  0
LINE
  8
_0-0_90_FRAME
  6
CONTINUOUS
 62
   18
 10
2847.4214262273968
 20
616.00158893085847
 11
3198.0999976545977
 21
616.00158893085847
  0
TEXT
  8
_0-0_90_FRAME
 62
    7
 10
2848.9425514996888
 20
605.44770819054258
 40
7.5000000000000009
 41
1
 50
0
  1
Źý ÉČ ô˙
  0
LINE
  8
_0-0_90_FRAME
  6
CONTINUOUS
 62
   18
 10
3054.8285690837151
 20
616.00158893085847
 11
3054.8285690837151
 21
582.0587317881392
  0
TEXT
  8
_0-0_90_FRAME
 62
    7
 10
3056.6097343243664
 20
605.24028538609866
 40
7.5000000000000009
 41
1
 50
0
  1
î┬Éö
  0
TEXT
  8
_0-0_90_FRAME
 62
    7
 10
2777.2812679546064
 20
682.53971324342569
 40
7.5000000000000009
 41
1
 50
0
  1
âTâCâY
  0
TEXT
  8
_0-0_90_FRAME
 62
    7
 10
2694.5455536692289
 20
681.98035174620429
 40
7.5000000000000009
 41
1
 50
0
  1
Ä┌ü@ôx
  0
TEXT
  8
_0-0_90_FRAME
 62
    7
 10
2777.2813136638642
 20
629.50399895792657
 40
7.5000000000000009
 41
1
 50
0
  1
É╗ü@É}
  0
LINE
  8
_0-0_90_FRAME
  6
CONTINUOUS
 62
   18
 10
2847.4214262273968
 20
639.33730321647749
 11
2604.0999976569969
 21
639.33730321647749
  0
LINE
  8
_0-0_90_FRAME
  6
CONTINUOUS
 62
   18
 10
2960.7071279503516
 20
649.94444607357775
 11
3198.0999976545977
 21
649.94444607357775
  0
TEXT
  8
_0-0_90_FRAME
 62
    7
 10
2801.9323761913047
 20
652.06701677694809
 40
15.000000000000002
 41
1
 50
0
  1
A1
  0
LINE
  8
_0-0_90_FRAME
  6
CONTINUOUS
 62
   18
 10
2775.9357119420165
 20
582.0587317881392
 11
2775.9357119420165
 21
692.37301750197935
  0
TEXT
  8
_0-0_90_FRAME
 62
    2
 10
2656.585787283178
 20
593.73219825411206
 40
15.000000000000002
 41
1
 50
0
  1
âAâNâAâgâŐâÇ
  0
LINE
  8
_0-0_90_FRAME
  6
CONTINUOUS
 62
    4
 10
2651.9712126461809
 20
632.07214554823361
 11
2651.9712126461809
 21
587.69260988641111
  0
LINE
  8
_0-0_90_FRAME
  6
CONTINUOUS
 62
    4
 10
2651.9712126461809
 20
587.69260988641111
 11
2611.6261802263425
 21
587.69260988641111
  0
LINE
  8
_0-0_90_FRAME
  6
CONTINUOUS
 62
    4
 10
2611.6261802263425
 20
587.69260988641111
 11
2611.6261802263425
 21
632.07214554823361
  0
LINE
  8
_0-0_90_FRAME
  6
CONTINUOUS
 62
    4
 10
2611.818299428342
 20
631.88002634623285
 11
2611.818299428342
 21
631.88002634623285
  0
LINE
  8
_0-0_90_FRAME
  6
CONTINUOUS
 62
    4
 10
2611.818299428342
 20
631.88002634623285
 11
2611.9175359888495
 21
630.87919186657314
  0
LINE
  8
_0-0_90_FRAME
  6
CONTINUOUS
 62
    4
 10
2611.9175359888495
 20
630.87919186657314
 11
2612.2122304176974
 21
629.90876723613121
  0
LINE
  8
_0-0_90_FRAME
  6
CONTINUOUS
 62
    4
 10
2612.2122304176974
 20
629.90876723613121
 11
2612.6934285737875
 21
628.99823831624451
  0
LINE
  8
_0-0_90_FRAME
  6
CONTINUOUS
 62
    4
 10
2612.6934285737875
 20
628.99823831624451
 11
2613.346509494645
 21
628.17527106739385
  0
LINE
  8
_0-0_90_FRAME
  6
CONTINUOUS
 62
    4
 10
2613.346509494645
 20
628.17527106739385
 11
2614.1516296469649
 21
627.46487093299413
  0
LINE
  8
_0-0_90_FRAME
  6
CONTINUOUS
 62
    4
 10
2614.1516296469649
 20
627.46487093299413
 11
2615.0843258623286
 21
626.88862306164924
  0
LINE
  8
_0-0_90_FRAME
  6
CONTINUOUS
 62
    4
 10
2615.0843258623286
 20
626.88862306164924
 11
2616.1162586382002
 21
626.46403645333442
  0
LINE
  8
_0-0_90_FRAME
  6
CONTINUOUS
 62
    4
 10
2616.1162586382002
 20
626.46403645333442
 11
2617.2160732193679
 21
626.20401195729221
  0
LINE
  8
_0-0_90_FRAME
  6
CONTINUOUS
 62
    4
 10
2617.2160732193679
 20
626.20401195729221
 11
2618.3503522963156
 21
626.11645028625617
  0
LINE
  8
_0-0_90_FRAME
  6
CONTINUOUS
 62
    4
 10
2618.3503522963156
 20
626.11645028625617
 11
2619.4846313732633
 21
626.20401195729221
  0
LINE
  8
_0-0_90_FRAME
  6
CONTINUOUS
 62
    4
 10
2619.4846313732633
 20
626.20401195729221
 11
2620.584445954431
 21
626.46403645333442
  0
LINE
  8
_0-0_90_FRAME
  6
CONTINUOUS
 62
    4
 10
2620.584445954431
 20
626.46403645333442
 11
2621.6163787303026
 21
626.88862306164924
  0
LINE
  8
_0-0_90_FRAME
  6
CONTINUOUS
 62
    4
 10
2621.6163787303026
 20
626.88862306164924
 11
2622.5490749456662
 21
627.46487093299413
  0
LINE
  8
_0-0_90_FRAME
  6
CONTINUOUS
 62
    4
 10
2622.5490749456662
 20
627.46487093299413
 11
2623.3541950979861
 21
628.17527106739385
  0
LINE
  8
_0-0_90_FRAME
  6
CONTINUOUS
 62
    4
 10
2623.3541950979861
 20
628.17527106739385
 11
2624.0072760188436
 21
628.99823831624451
  0
LINE
  8
_0-0_90_FRAME
  6
CONTINUOUS
 62
    4
 10
2624.0072760188436
 20
628.99823831624451
 11
2624.4884741749338
 21
629.90876723613121
  0
LINE
  8
_0-0_90_FRAME
  6
CONTINUOUS
 62
    4
 10
2624.4884741749338
 20
629.90876723613121
 11
2624.7831686037816
 21
630.87919186657314
  0
LINE
  8
_0-0_90_FRAME
  6
CONTINUOUS
 62
    4
 10
2624.7831686037816
 20
630.87919186657314
 11
2624.8824051642891
 21
631.88002634623285
  0
LINE
  8
_0-0_90_FRAME
  6
CONTINUOUS
 62
    4
 10
2624.8824051642891
 20
631.88002634623285
 11
2624.8824051642891
 21
631.88002634623285
  0
ARC
  8
_0-0_90_FRAME
  6
CONTINUOUS
 62
    4
 10
2625.0745243662882
 20
631.88002634623285
 40
0.1921192019992239
 50
0
 51
180
  0
LINE
  8
_0-0_90_FRAME
  6
CONTINUOUS
 62
    4
 10
2625.2666435682881
 20
631.88002634623285
 11
2625.2666435682881
 21
631.88002634623285
  0
LINE
  8
_0-0_90_FRAME
  6
CONTINUOUS
 62
    4
 10
2625.2666435682881
 20
631.88002634623285
 11
2625.3658801287957
 21
630.87919186657314
  0
LINE
  8
_0-0_90_FRAME
  6
CONTINUOUS
 62
    4
 10
2625.3658801287957
 20
630.87919186657314
 11
2625.6605745576435
 21
629.90876723613121
  0
LINE
  8
_0-0_90_FRAME
  6
CONTINUOUS
 62
    4
 10
2625.6605745576435
 20
629.90876723613121
 11
2626.1417727137336
 21
628.99823831624451
  0
LINE
  8
_0-0_90_FRAME
  6
CONTINUOUS
 62
    4
 10
2626.1417727137336
 20
628.99823831624451
 11
2626.7948536345912
 21
628.17527106739385
  0
LINE
  8
_0-0_90_FRAME
  6
CONTINUOUS
 62
    4
 10
2626.7948536345912
 20
628.17527106739385
 11
2627.5999737869111
 21
627.46487093299413
  0
LINE
  8
_0-0_90_FRAME
  6
CONTINUOUS
 62
    4
 10
2627.5999737869111
 20
627.46487093299413
 11
2628.5326700022747
 21
626.88862306164924
  0
LINE
  8
_0-0_90_FRAME
  6
CONTINUOUS
 62
    4
 10
2628.5326700022747
 20
626.88862306164924
 11
2629.5646027781463
 21
626.46403645333442
  0
LINE
  8
_0-0_90_FRAME
  6
CONTINUOUS
 62
    4
 10
2629.5646027781463
 20
626.46403645333442
 11
2630.664417359314
 21
626.20401195729221
  0
LINE
  8
_0-0_90_FRAME
  6
CONTINUOUS
 62
    4
 10
2630.664417359314
 20
626.20401195729221
 11
2631.7986964362617
 21
626.11645028625617
  0
LINE
  8
_0-0_90_FRAME
  6
CONTINUOUS
 62
    4
 10
2631.7986964362617
 20
626.11645028625617
 11
2632.9329755132094
 21
626.20401195729221
  0
LINE
  8
_0-0_90_FRAME
  6
CONTINUOUS
 62
    4
 10
2632.9329755132094
 20
626.20401195729221
 11
2634.0327900943771
 21
626.46403645333442
  0
LINE
  8
_0-0_90_FRAME
  6
CONTINUOUS
 62
    4
 10
2634.0327900943771
 20
626.46403645333442
 11
2635.0647228702487
 21
626.88862306164924
  0
LINE
  8
_0-0_90_FRAME
  6
CONTINUOUS
 62
    4
 10
2635.0647228702487
 20
626.88862306164924
 11
2635.9974190856124
 21
627.46487093299413
  0
LINE
  8
_0-0_90_FRAME
  6
CONTINUOUS
 62
    4
 10
2635.9974190856124
 20
627.46487093299413
 11
2636.8025392379323
 21
628.17527106739385
  0
LINE
  8
_0-0_90_FRAME
  6
CONTINUOUS
 62
    4
 10
2636.8025392379323
 20
628.17527106739385
 11
2637.4556201587898
 21
628.99823831624451
  0
LINE
  8
_0-0_90_FRAME
  6
CONTINUOUS
 62
    4
 10
2637.4556201587898
 20
628.99823831624451
 11
2637.9368183148799
 21
629.90876723613121
  0
LINE
  8
_0-0_90_FRAME
  6
CONTINUOUS
 62
    4
 10
2637.9368183148799
 20
629.90876723613121
 11
2638.2315127437278
 21
630.87919186657314
  0
LINE
  8
_0-0_90_FRAME
  6
CONTINUOUS
 62
    4
 10
2638.2315127437278
 20
630.87919186657314
 11
2638.3307493042353
 21
631.88002634623285
  0
LINE
  8
_0-0_90_FRAME
  6
CONTINUOUS
 62
    4
 10
2638.3307493042353
 20
631.88002634623285
 11
2638.3307493042353
 21
631.88002634623285
  0
ARC
  8
_0-0_90_FRAME
  6
CONTINUOUS
 62
    4
 10
2638.5228685062348
 20
631.88002634623285
 40
0.1921192019992239
 50
0
 51
180
  0
LINE
  8
_0-0_90_FRAME
  6
CONTINUOUS
 62
    4
 10
2638.7149877082338
 20
631.88002634623285
 11
2638.7149877082338
 21
631.88002634623285
  0
LINE
  8
_0-0_90_FRAME
  6
CONTINUOUS
 62
    4
 10
2638.7149877082338
 20
631.88002634623285
 11
2638.8142242687413
 21
630.87919186657314
  0
LINE
  8
_0-0_90_FRAME
  6
CONTINUOUS
 62
    4
 10
2638.8142242687413
 20
630.87919186657314
 11
2639.1089186975892
 21
629.90876723613121
  0
LINE
  8
_0-0_90_FRAME
  6
CONTINUOUS
 62
    4
 10
2639.1089186975892
 20
629.90876723613121
 11
2639.5901168536793
 21
628.99823831624451
  0
LINE
  8
_0-0_90_FRAME
  6
CONTINUOUS
 62
    4
 10
2639.5901168536793
 20
628.99823831624451
 11
2640.2431977745368
 21
628.17527106739385
  0
LINE
  8
_0-0_90_FRAME
  6
CONTINUOUS
 62
    4
 10
2640.2431977745368
 20
628.17527106739385
 11
2641.0483179268567
 21
627.46487093299413
  0
LINE
  8
_0-0_90_FRAME
  6
CONTINUOUS
 62
    4
 10
2641.0483179268567
 20
627.46487093299413
 11
2641.9810141422204
 21
626.88862306164924
  0
LINE
  8
_0-0_90_FRAME
  6
CONTINUOUS
 62
    4
 10
2641.9810141422204
 20
626.88862306164924
 11
2643.012946918092
 21
626.46403645333442
  0
LINE
  8
_0-0_90_FRAME
  6
CONTINUOUS
 62
    4
 10
2643.012946918092
 20
626.46403645333442
 11
2644.1127614992597
 21
626.20401195729221
  0
LINE
  8
_0-0_90_FRAME
  6
CONTINUOUS
 62
    4
 10
2644.1127614992597
 20
626.20401195729221
 11
2645.2470405762074
 21
626.11645028625617
  0
LINE
  8
_0-0_90_FRAME
  6
CONTINUOUS
 62
    4
 10
2645.2470405762074
 20
626.11645028625617
 11
2646.3813196531551
 21
626.20401195729221
  0
LINE
  8
_0-0_90_FRAME
  6
CONTINUOUS
 62
    4
 10
2646.3813196531551
 20
626.20401195729221
 11
2647.4811342343228
 21
626.46403645333442
  0
LINE
  8
_0-0_90_FRAME
  6
CONTINUOUS
 62
    4
 10
2647.4811342343228
 20
626.46403645333442
 11
2648.5130670101944
 21
626.88862306164924
  0
LINE
  8
_0-0_90_FRAME
  6
CONTINUOUS
 62
    4
 10
2648.5130670101944
 20
626.88862306164924
 11
2649.445763225558
 21
627.46487093299413
  0
LINE
  8
_0-0_90_FRAME
  6
CONTINUOUS
 62
    4
 10
2649.445763225558
 20
627.46487093299413
 11
2650.2508833778779
 21
628.17527106739385
  0
LINE
  8
_0-0_90_FRAME
  6
CONTINUOUS
 62
    4
 10
2650.2508833778779
 20
628.17527106739385
 11
2650.9039642987354
 21
628.99823831624451
  0
LINE
  8
_0-0_90_FRAME
  6
CONTINUOUS
 62
    4
 10
2650.9039642987354
 20
628.99823831624451
 11
2651.3851624548256
 21
629.90876723613121
  0
LINE
  8
_0-0_90_FRAME
  6
CONTINUOUS
 62
    4
 10
2651.3851624548256
 20
629.90876723613121
 11
2651.6798568836734
 21
630.87919186657314
  0
LINE
  8
_0-0_90_FRAME
  6
CONTINUOUS
 62
    4
 10
2651.6798568836734
 20
630.87919186657314
 11
2651.7790934441809
 21
631.88002634623285
  0
LINE
  8
_0-0_90_FRAME
  6
CONTINUOUS
 62
    4
 10
2651.7790934441809
 20
631.88002634623285
 11
2651.7790934441809
 21
631.88002634623285
  0
ARC
  8
_0-0_90_FRAME
  6
CONTINUOUS
 62
    4
 10
2651.9712126461809
 20
631.88002634623285
 40
0.1921192019992239
 50
90
 51
180
  0
ARC
  8
_0-0_90_FRAME
  6
CONTINUOUS
 62
    4
 10
2625.0745243662882
 20
631.88002634623285
 40
0.1921192019992239
 50
0
 51
90
  0
ARC
  8
_0-0_90_FRAME
  6
CONTINUOUS
 62
    4
 10
2611.6261802263425
 20
631.88002634623285
 40
0.1921192019992239
 50
0
 51
90
  0
LINE
  8
_0-0_90_FRAME
  6
CONTINUOUS
 62
    4
 10
2616.2370410743256
 20
593.45618594638813
 11
2618.5424714983137
 21
593.45618594638813
  0
LINE
  8
_0-0_90_FRAME
  6
CONTINUOUS
 62
    4
 10
2618.5424714983137
 20
593.45618594638813
 11
2618.5424714983137
 21
591.15075552239807
  0
LINE
  8
_0-0_90_FRAME
  6
CONTINUOUS
 62
    4
 10
2618.5424714983137
 20
591.15075552239807
 11
2616.2370410743256
 21
591.15075552239807
  0
LINE
  8
_0-0_90_FRAME
  6
CONTINUOUS
 62
    4
 10
2616.2370410743256
 20
593.45618594638813
 11
2616.2370410743256
 21
591.15075552239807
  0
LINE
  8
_0-0_90_FRAME
  6
CONTINUOUS
 62
    4
 10
2647.3603517981983
 20
593.45618594638813
 11
2645.0549213742102
 21
593.45618594638813
  0
LINE
  8
_0-0_90_FRAME
  6
CONTINUOUS
 62
    4
 10
2645.0549213742102
 20
593.45618594638813
 11
2645.0549213742102
 21
591.15075552239807
  0
LINE
  8
_0-0_90_FRAME
  6
CONTINUOUS
 62
    4
 10
2645.0549213742102
 20
591.15075552239807
 11
2647.3603517981983
 21
591.15075552239807
  0
LINE
  8
_0-0_90_FRAME
  6
CONTINUOUS
 62
    4
 10
2647.3603517981983
 20
593.45618594638813
 11
2647.3603517981983
 21
591.15075552239807
  0
LINE
  8
_0-0_90_FRAME
  6
CONTINUOUS
 62
    4
 10
2622.0006171343025
 20
593.45618594638813
 11
2624.3060475582906
 21
593.45618594638813
  0
LINE
  8
_0-0_90_FRAME
  6
CONTINUOUS
 62
    4
 10
2624.3060475582906
 20
593.45618594638813
 11
2624.3060475582906
 21
591.15075552239807
  0
LINE
  8
_0-0_90_FRAME
  6
CONTINUOUS
 62
    4
 10
2624.3060475582906
 20
591.15075552239807
 11
2622.0006171343025
 21
591.15075552239807
  0
LINE
  8
_0-0_90_FRAME
  6
CONTINUOUS
 62
    4
 10
2622.0006171343025
 20
593.45618594638813
 11
2622.0006171343025
 21
591.15075552239807
  0
LINE
  8
_0-0_90_FRAME
  6
CONTINUOUS
 62
    4
 10
2627.7641931942794
 20
593.45618594638813
 11
2630.0696236182675
 21
593.45618594638813
  0
LINE
  8
_0-0_90_FRAME
  6
CONTINUOUS
 62
    4
 10
2630.0696236182675
 20
593.45618594638813
 11
2630.0696236182675
 21
591.15075552239807
  0
LINE
  8
_0-0_90_FRAME
  6
CONTINUOUS
 62
    4
 10
2630.0696236182675
 20
591.15075552239807
 11
2627.7641931942794
 21
591.15075552239807
  0
LINE
  8
_0-0_90_FRAME
  6
CONTINUOUS
 62
    4
 10
2627.7641931942794
 20
593.45618594638813
 11
2627.7641931942794
 21
591.15075552239807
  0
LINE
  8
_0-0_90_FRAME
  6
CONTINUOUS
 62
    4
 10
2633.5277692542563
 20
593.45618594638813
 11
2635.8331996782445
 21
593.45618594638813
  0
LINE
  8
_0-0_90_FRAME
  6
CONTINUOUS
 62
    4
 10
2635.8331996782445
 20
593.45618594638813
 11
2635.8331996782445
 21
591.15075552239807
  0
LINE
  8
_0-0_90_FRAME
  6
CONTINUOUS
 62
    4
 10
2635.8331996782445
 20
591.15075552239807
 11
2633.5277692542563
 21
591.15075552239807
  0
LINE
  8
_0-0_90_FRAME
  6
CONTINUOUS
 62
    4
 10
2633.5277692542563
 20
593.45618594638813
 11
2633.5277692542563
 21
591.15075552239807
  0
LINE
  8
_0-0_90_FRAME
  6
CONTINUOUS
 62
    4
 10
2639.2913453142332
 20
593.45618594638813
 11
2641.5967757382214
 21
593.45618594638813
  0
LINE
  8
_0-0_90_FRAME
  6
CONTINUOUS
 62
    4
 10
2641.5967757382214
 20
593.45618594638813
 11
2641.5967757382214
 21
591.15075552239807
  0
LINE
  8
_0-0_90_FRAME
  6
CONTINUOUS
 62
    4
 10
2641.5967757382214
 20
591.15075552239807
 11
2639.2913453142332
 21
591.15075552239807
  0
LINE
  8
_0-0_90_FRAME
  6
CONTINUOUS
 62
    4
 10
2639.2913453142332
 20
593.45618594638813
 11
2639.2913453142332
 21
591.15075552239807
  0
LINE
  8
_0-0_90_FRAME
  6
CONTINUOUS
 62
    4
 10
2631.7748244856562
 20
615.39346664213031
 11
2631.7748244856562
 21
615.39346664213031
  0
LINE
  8
_0-0_90_FRAME
  6
CONTINUOUS
 62
    4
 10
2631.7748244856562
 20
615.39346664213031
 11
2631.7076938711953
 21
616.1274119272141
  0
LINE
  8
_0-0_90_FRAME
  6
CONTINUOUS
 62
    4
 10
2631.7076938711953
 20
616.1274119272141
 11
2631.5083417575629
 21
616.83905665620489
  0
LINE
  8
_0-0_90_FRAME
  6
CONTINUOUS
 62
    4
 10
2631.5083417575629
 20
616.83905665620489
 11
2631.1828253578547
 21
617.50677786412177
  0
LINE
  8
_0-0_90_FRAME
  6
CONTINUOUS
 62
    4
 10
2631.1828253578547
 20
617.50677786412177
 11
2630.7410353231571
 21
618.11028717994554
  0
LINE
  8
_0-0_90_FRAME
  6
CONTINUOUS
 62
    4
 10
2630.7410353231571
 20
618.11028717994554
 11
2630.1963952201172
 21
618.63124727850538
  0
LINE
  8
_0-0_90_FRAME
  6
CONTINUOUS
 62
    4
 10
2630.1963952201172
 20
618.63124727850538
 11
2629.5654536626648
 21
619.05382905082502
  0
LINE
  8
_0-0_90_FRAME
  6
CONTINUOUS
 62
    4
 10
2629.5654536626648
 20
619.05382905082502
 11
2628.867381490752
 21
619.36519256358918
  0
LINE
  8
_0-0_90_FRAME
  6
CONTINUOUS
 62
    4
 10
2628.867381490752
 20
619.36519256358918
 11
2628.1233892740797
 21
619.55587719402013
  0
LINE
  8
_0-0_90_FRAME
  6
CONTINUOUS
 62
    4
 10
2628.1233892740797
 20
619.55587719402013
 11
2627.3560828396739
 21
619.62008908611324
  0
LINE
  8
_0-0_90_FRAME
  6
CONTINUOUS
 62
    4
 10
2627.3560828396739
 20
619.62008908611324
 11
2626.5887764052682
 21
619.55587719402013
  0
LINE
  8
_0-0_90_FRAME
  6
CONTINUOUS
 62
    4
 10
2626.5887764052682
 20
619.55587719402013
 11
2625.8447841885959
 21
619.36519256358918
  0
LINE
  8
_0-0_90_FRAME
  6
CONTINUOUS
 62
    4
 10
2625.8447841885959
 20
619.36519256358918
 11
2625.1467120166831
 21
619.05382905082502
  0
LINE
  8
_0-0_90_FRAME
  6
CONTINUOUS
 62
    4
 10
2625.1467120166831
 20
619.05382905082502
 11
2624.5157704592307
 21
618.63124727850538
  0
LINE
  8
_0-0_90_FRAME
  6
CONTINUOUS
 62
    4
 10
2624.5157704592307
 20
618.63124727850538
 11
2623.9711303561908
 21
618.11028717994554
  0
LINE
  8
_0-0_90_FRAME
  6
CONTINUOUS
 62
    4
 10
2623.9711303561908
 20
618.11028717994554
 11
2623.5293403214932
 21
617.50677786412177
  0
LINE
  8
_0-0_90_FRAME
  6
CONTINUOUS
 62
    4
 10
2623.5293403214932
 20
617.50677786412177
 11
2623.203823921785
 21
616.83905665620489
  0
LINE
  8
_0-0_90_FRAME
  6
CONTINUOUS
 62
    4
 10
2623.203823921785
 20
616.83905665620489
 11
2623.0044718081526
 21
616.1274119272141
  0
LINE
  8
_0-0_90_FRAME
  6
CONTINUOUS
 62
    4
 10
2623.0044718081526
 20
616.1274119272141
 11
2622.9373411936917
 21
615.39346664213031
  0
LINE
  8
_0-0_90_FRAME
  6
CONTINUOUS
 62
    4
 10
2622.9373411936917
 20
615.39346664213031
 11
2622.9373411936917
 21
615.39346664213031
  0
LINE
  8
_0-0_90_FRAME
  6
CONTINUOUS
 62
    4
 10
2631.7748244856557
 20
615.39346664213031
 11
2631.7748244856557
 21
614.24075143013454
  0
LINE
  8
_0-0_90_FRAME
  6
CONTINUOUS
 62
    4
 10
2629.6900430666806
 20
610.651830445526
 11
2629.6900430666806
 21
610.651830445526
  0
LINE
  8
_0-0_90_FRAME
  6
CONTINUOUS
 62
    4
 10
2629.6900430666806
 20
610.651830445526
 11
2629.003047669104
 21
610.31868749416685
  0
LINE
  8
_0-0_90_FRAME
  6
CONTINUOUS
 62
    4
 10
2629.003047669104
 20
610.31868749416685
 11
2628.2660100785897
 21
610.10471447084205
  0
LINE
  8
_0-0_90_FRAME
  6
CONTINUOUS
 62
    4
 10
2628.2660100785897
 20
610.10471447084205
 11
2627.501324809366
 21
610.01641283758966
  0
LINE
  8
_0-0_90_FRAME
  6
CONTINUOUS
 62
    4
 10
2627.501324809366
 20
610.01641283758966
 11
2626.7322264363893
 21
610.05646559485319
  0
LINE
  8
_0-0_90_FRAME
  6
CONTINUOUS
 62
    4
 10
2626.7322264363893
 20
610.05646559485319
 11
2625.9820836245403
 21
610.22365575987101
  0
LINE
  8
_0-0_90_FRAME
  6
CONTINUOUS
 62
    4
 10
2625.9820836245403
 20
610.22365575987101
 11
2625.2736890835654
 21
610.51290334408134
  0
LINE
  8
_0-0_90_FRAME
  6
CONTINUOUS
 62
    4
 10
2625.2736890835654
 20
610.51290334408134
 11
2624.6285670231282
 21
610.91541970600417
  0
LINE
  8
_0-0_90_FRAME
  6
CONTINUOUS
 62
    4
 10
2624.6285670231282
 20
610.91541970600417
 11
2624.0663191505869
 21
611.41897458966571
  0
LINE
  8
_0-0_90_FRAME
  6
CONTINUOUS
 62
    4
 10
2624.0663191505869
 20
611.41897458966571
 11
2623.6040290830379
 21
612.00826773473682
  0
LINE
  8
_0-0_90_FRAME
  6
CONTINUOUS
 62
    4
 10
2623.6040290830379
 20
612.00826773473682
 11
2623.2557432702533
 21
612.66539376720141
  0
LINE
  8
_0-0_90_FRAME
  6
CONTINUOUS
 62
    4
 10
2623.2557432702533
 20
612.66539376720141
 11
2623.0320442004136
 21
613.37038624508477
  0
LINE
  8
_0-0_90_FRAME
  6
CONTINUOUS
 62
    4
 10
2623.0320442004136
 20
613.37038624508477
 11
2622.9397288565588
 21
614.10182432868987
  0
LINE
  8
_0-0_90_FRAME
  6
CONTINUOUS
 62
    4
 10
2622.9397288565588
 20
614.10182432868987
 11
2622.9373411936917
 21
614.24075143013454
  0
LINE
  8
_0-0_90_FRAME
  6
CONTINUOUS
 62
    4
 10
2630.1736726932927
 20
615.28042738641864
 11
2630.1736726932927
 21
614.35825521682239
  0
LINE
  8
_0-0_90_FRAME
  6
CONTINUOUS
 62
    4
 10
2640.7319219743049
 20
613.89320324335779
 11
2640.7319219743049
 21
619.62008908611392
  0
LINE
  8
_0-0_90_FRAME
  6
CONTINUOUS
 62
    4
 10
2639.0028491563107
 20
614.24075143013454
 11
2639.0028491563107
 21
619.62008908611392
  0
LINE
  8
_0-0_90_FRAME
  6
CONTINUOUS
 62
    4
 10
2639.0028491563107
 20
619.62008908611392
 11
2640.7319219743049
 21
619.62008908611392
  0
LINE
  8
_0-0_90_FRAME
  6
CONTINUOUS
 62
    4
 10
2632.6629154903367
 20
613.89320324335779
 11
2632.6629154903367
 21
619.62008908611392
  0
LINE
  8
_0-0_90_FRAME
  6
CONTINUOUS
 62
    4
 10
2634.3919883083313
 20
614.24075143013454
 11
2634.3919883083313
 21
619.62008908611392
  0
ARC
  8
_0-0_90_FRAME
  6
CONTINUOUS
 62
    4
 10
2636.7242734446636
 20
614.06697733674832
 40
4.0650739069189497
 50
182.45003099226136
 51
265.55525728852427
  0
LINE
  8
_0-0_90_FRAME
  6
CONTINUOUS
 62
    4
 10
2634.3919883083313
 20
619.62008908611392
 11
2632.6629154903367
 21
619.62008908611392
  0
LINE
  8
_0-0_90_FRAME
  6
CONTINUOUS
 62
    4
 10
2636.9855975353194
 20
610.01412898615229
 11
2636.4092399293218
 21
610.01412898615229
  0
ARC
  8
_0-0_90_FRAME
  6
CONTINUOUS
 62
    4
 10
2637.8217023119369
 20
614.19602128416659
 40
3.4300056752869819
 50
179.25279388138676
 51
218.96457184688023
  0
ARC
  8
_0-0_90_FRAME
  6
CONTINUOUS
 62
    4
 10
2635.5731351527043
 20
614.19602128416659
 40
3.4300056752865951
 50
321.03542815311977
 51
0.747206118613265
  0
ARC
  8
_0-0_90_FRAME
  6
CONTINUOUS
 62
    4
 10
2636.6974187323226
 20
614.84029845206373
 40
3.1978969011000959
 50
241.15772780831895
 51
298.84227219168099
  0
LINE
  8
_0-0_90_FRAME
  6
CONTINUOUS
 62
    4
 10
2627.7284992774603
 20
612.56088224601729
 11
2628.5129651557054
 21
611.79740910536361
  0
LINE
  8
_0-0_90_FRAME
  6
CONTINUOUS
 62
    4
 10
2627.7284992774603
 20
612.56088224601729
 11
2628.5794831704211
 21
613.46450862389224
  0
LINE
  8
_0-0_90_FRAME
  6
CONTINUOUS
 62
    4
 10
2631.0257565721067
 20
609.35186136684229
 11
2632.137651122332
 21
610.53253852573027
  0
LINE
  8
_0-0_90_FRAME
  6
CONTINUOUS
 62
    4
 10
2624.5384929860556
 20
615.28042738641864
 11
2624.5384929860556
 21
614.35825521682239
  0
LINE
  8
_0-0_90_FRAME
  6
CONTINUOUS
 62
    4
 10
2630.1736726932922
 20
615.28042738641864
 11
2630.1736726932922
 21
615.28042738641864
  0
LINE
  8
_0-0_90_FRAME
  6
CONTINUOUS
 62
    4
 10
2630.1736726932922
 20
615.28042738641864
 11
2630.1308671723255
 21
615.76711253768576
  0
LINE
  8
_0-0_90_FRAME
  6
CONTINUOUS
 62
    4
 10
2630.1308671723255
 20
615.76711253768576
 11
2630.0037512335202
 21
616.23901000690614
  0
LINE
  8
_0-0_90_FRAME
  6
CONTINUOUS
 62
    4
 10
2630.0037512335202
 20
616.23901000690614
 11
2629.7961872303526
 21
616.68178142826923
  0
LINE
  8
_0-0_90_FRAME
  6
CONTINUOUS
 62
    4
 10
2629.7961872303526
 20
616.68178142826923
 11
2629.5144818900267
 21
617.08197341619007
  0
LINE
  8
_0-0_90_FRAME
  6
CONTINUOUS
 62
    4
 10
2629.5144818900267
 20
617.08197341619007
 11
2629.1671946867582
 21
617.42742633962257
  0
LINE
  8
_0-0_90_FRAME
  6
CONTINUOUS
 62
    4
 10
2629.1671946867582
 20
617.42742633962257
 11
2628.7648777664831
 21
617.70764378629588
  0
LINE
  8
_0-0_90_FRAME
  6
CONTINUOUS
 62
    4
 10
2628.7648777664831
 20
617.70764378629588
 11
2628.3197553252412
 21
617.91411149088958
  0
LINE
  8
_0-0_90_FRAME
  6
CONTINUOUS
 62
    4
 10
2628.3197553252412
 20
617.91411149088958
 11
2627.8453521831675
 21
618.04055603667746
  0
LINE
  8
_0-0_90_FRAME
  6
CONTINUOUS
 62
    4
 10
2627.8453521831675
 20
618.04055603667746
 11
2627.3560828396739
 21
618.08313547011983
  0
LINE
  8
_0-0_90_FRAME
  6
CONTINUOUS
 62
    4
 10
2627.3560828396739
 20
618.08313547011983
 11
2626.8668134961804
 21
618.04055603667746
  0
LINE
  8
_0-0_90_FRAME
  6
CONTINUOUS
 62
    4
 10
2626.8668134961804
 20
618.04055603667746
 11
2626.3924103541067
 21
617.91411149088958
  0
LINE
  8
_0-0_90_FRAME
  6
CONTINUOUS
 62
    4
 10
2626.3924103541067
 20
617.91411149088958
 11
2625.9472879128648
 21
617.70764378629588
  0
LINE
  8
_0-0_90_FRAME
  6
CONTINUOUS
 62
    4
 10
2625.9472879128648
 20
617.70764378629588
 11
2625.5449709925897
 21
617.42742633962257
  0
LINE
  8
_0-0_90_FRAME
  6
CONTINUOUS
 62
    4
 10
2625.5449709925897
 20
617.42742633962257
 11
2625.1976837893212
 21
617.08197341619007
  0
LINE
  8
_0-0_90_FRAME
  6
CONTINUOUS
 62
    4
 10
2625.1976837893212
 20
617.08197341619007
 11
2624.9159784489952
 21
616.68178142826923
  0
LINE
  8
_0-0_90_FRAME
  6
CONTINUOUS
 62
    4
 10
2624.9159784489952
 20
616.68178142826923
 11
2624.7084144458277
 21
616.23901000690614
  0
LINE
  8
_0-0_90_FRAME
  6
CONTINUOUS
 62
    4
 10
2624.7084144458277
 20
616.23901000690614
 11
2624.5812985070224
 21
615.76711253768576
  0
LINE
  8
_0-0_90_FRAME
  6
CONTINUOUS
 62
    4
 10
2624.5812985070224
 20
615.76711253768576
 11
2624.5384929860556
 21
615.28042738641864
  0
LINE
  8
_0-0_90_FRAME
  6
CONTINUOUS
 62
    4
 10
2624.5384929860556
 20
615.28042738641864
 11
2624.5384929860556
 21
615.28042738641864
  0
LINE
  8
_0-0_90_FRAME
  6
CONTINUOUS
 62
    4
 10
2628.5129651557049
 20
611.79740910536304
 11
2628.5129651557049
 21
611.79740910536304
  0
LINE
  8
_0-0_90_FRAME
  6
CONTINUOUS
 62
    4
 10
2628.5129651557049
 20
611.79740910536304
 11
2628.0492638632222
 21
611.63635303627041
  0
LINE
  8
_0-0_90_FRAME
  6
CONTINUOUS
 62
    4
 10
2628.0492638632222
 20
611.63635303627041
 11
2627.5645006161058
 21
611.55786493507037
  0
LINE
  8
_0-0_90_FRAME
  6
CONTINUOUS
 62
    4
 10
2627.5645006161058
 20
611.55786493507037
 11
2627.0734047003166
 21
611.56432962300096
  0
LINE
  8
_0-0_90_FRAME
  6
CONTINUOUS
 62
    4
 10
2627.0734047003166
 20
611.56432962300096
 11
2626.5908978167499
 21
611.65555067379069
  0
LINE
  8
_0-0_90_FRAME
  6
CONTINUOUS
 62
    4
 10
2626.5908978167499
 20
611.65555067379069
 11
2626.1316406929027
 21
611.8287563819714
  0
LINE
  8
_0-0_90_FRAME
  6
CONTINUOUS
 62
    4
 10
2626.1316406929027
 20
611.8287563819714
 11
2625.7095876240874
 21
612.0786839797463
  0
LINE
  8
_0-0_90_FRAME
  6
CONTINUOUS
 62
    4
 10
2625.7095876240874
 20
612.0786839797463
 11
2625.3375624792307
 21
612.39773954352654
  0
LINE
  8
_0-0_90_FRAME
  6
CONTINUOUS
 62
    4
 10
2625.3375624792307
 20
612.39773954352654
 11
2625.0268690541056
 21
612.77622873145651
  0
LINE
  8
_0-0_90_FRAME
  6
CONTINUOUS
 62
    4
 10
2625.0268690541056
 20
612.77622873145651
 11
2624.786947611216
 21
613.2026513410857
  0
LINE
  8
_0-0_90_FRAME
  6
CONTINUOUS
 62
    4
 10
2624.786947611216
 20
613.2026513410857
 11
2624.6250880421981
 21
613.6640507372008
  0
LINE
  8
_0-0_90_FRAME
  6
CONTINUOUS
 62
    4
 10
2624.6250880421981
 20
613.6640507372008
 11
2624.5462083681509
 21
614.14640753263029
  0
LINE
  8
_0-0_90_FRAME
  6
CONTINUOUS
 62
    4
 10
2624.5462083681509
 20
614.14640753263029
 11
2624.5384894489862
 21
614.35379068584609
  0
LINE
  8
_0-0_90_FRAME
  6
CONTINUOUS
 62
    4
 10
2614.5095716708774
 20
610.01412898615229
 11
2616.2340744771996
 21
610.01412898615229
  0
LINE
  8
_0-0_90_FRAME
  6
CONTINUOUS
 62
    4
 10
2614.5095716708774
 20
610.01412898615229
 11
2614.5095716708774
 21
610.06023759463119
  0
LINE
  8
_0-0_90_FRAME
  6
CONTINUOUS
 62
    4
 10
2614.5095716708774
 20
610.06023759463119
 11
2618.1318630518817
 21
619.62008908611392
  0
LINE
  8
_0-0_90_FRAME
  6
CONTINUOUS
 62
    4
 10
2614.5095716708774
 20
610.01412898615229
 11
2614.5095716708774
 21
610.06023759463119
  0
LINE
  8
_0-0_90_FRAME
  6
CONTINUOUS
 62
    4
 10
2617.1742701800113
 20
612.54659730071
 11
2620.7207802941057
 21
612.54659730071
  0
LINE
  8
_0-0_90_FRAME
  6
CONTINUOUS
 62
    4
 10
2617.6941907811647
 20
614.0067032359035
 11
2620.2008596929559
 21
614.0067032359035
  0
LINE
  8
_0-0_90_FRAME
  6
CONTINUOUS
 62
    4
 10
2623.347054962841
 20
610.01412898615229
 11
2621.622552156522
 21
610.01412898615229
  0
LINE
  8
_0-0_90_FRAME
  6
CONTINUOUS
 62
    4
 10
2621.622552156522
 20
610.01412898615229
 11
2620.7207802941057
 21
612.54659730071
  0
LINE
  8
_0-0_90_FRAME
  6
CONTINUOUS
 62
    4
 10
2623.347054962841
 20
610.06023759463119
 11
2619.7247635818371
 21
619.62008908611392
  0
LINE
  8
_0-0_90_FRAME
  6
CONTINUOUS
 62
    4
 10
2623.347054962841
 20
610.01412898615229
 11
2623.347054962841
 21
610.06023759463119
  0
LINE
  8
_0-0_90_FRAME
  6
CONTINUOUS
 62
    4
 10
2618.1318630518817
 20
619.62008908611392
 11
2619.7247635818371
 21
619.62008908611392
  0
LINE
  8
_0-0_90_FRAME
  6
CONTINUOUS
 62
    4
 10
2620.2008596929559
 20
614.0067032359035
 11
2618.9283133168592
 21
617.58042682453026
  0
LINE
  8
_0-0_90_FRAME
  6
CONTINUOUS
 62
    4
 10
2628.5794831704211
 20
613.46450862389224
 11
2632.137651122332
 21
610.53253852573027
  0
LINE
  8
_0-0_90_FRAME
  6
CONTINUOUS
 62
    4
 10
2629.6900430666819
 20
610.6518304455268
 11
2631.0257565721067
 21
609.35186136684229
  0
LINE
  8
_0-0_90_FRAME
  6
CONTINUOUS
 62
    4
 10
2617.1742701800113
 20
612.54659730071
 11
2617.6941907811647
 21
614.0067032359035
  0
LINE
  8
_0-0_90_FRAME
  6
CONTINUOUS
 62
    4
 10
2631.7748244856562
 20
614.24075143013454
 11
2631.7748244856562
 21
614.24075143013454
  0
LINE
  8
_0-0_90_FRAME
  6
CONTINUOUS
 62
    4
 10
2631.7748244856562
 20
614.24075143013454
 11
2631.7076938711953
 21
613.50680614505075
  0
LINE
  8
_0-0_90_FRAME
  6
CONTINUOUS
 62
    4
 10
2631.7076938711953
 20
613.50680614505075
 11
2631.5083417575629
 21
612.79516141605995
  0
LINE
  8
_0-0_90_FRAME
  6
CONTINUOUS
 62
    4
 10
2631.5083417575629
 20
612.79516141605995
 11
2631.1828253578547
 21
612.12744020814307
  0
LINE
  8
_0-0_90_FRAME
  6
CONTINUOUS
 62
    4
 10
2631.1828253578547
 20
612.12744020814307
 11
2630.8430905016935
 21
611.64470573689482
  0
LINE
  8
_0-0_90_FRAME
  6
CONTINUOUS
 62
    4
 10
2630.1736762303617
 20
614.35379068584609
 11
2630.1736762303617
 21
614.35379068584609
  0
LINE
  8
_0-0_90_FRAME
  6
CONTINUOUS
 62
    4
 10
2630.1736762303617
 20
614.35379068584609
 11
2630.1308706556592
 21
613.86694955195333
  0
LINE
  8
_0-0_90_FRAME
  6
CONTINUOUS
 62
    4
 10
2630.1308706556592
 20
613.86694955195333
 11
2630.0037545572786
 21
613.39490083956036
  0
LINE
  8
_0-0_90_FRAME
  6
CONTINUOUS
 62
    4
 10
2630.0037545572786
 20
613.39490083956036
 11
2629.7961902935449
 21
612.95198750992517
  0
LINE
  8
_0-0_90_FRAME
  6
CONTINUOUS
 62
    4
 10
2629.7961902935449
 20
612.95198750992517
 11
2629.6050467671694
 21
612.66486758953738
  0
LINE
  8
_0-0_90_FRAME
  6
CONTINUOUS
 62
    4
 10
2622.9373411936922
 20
615.39346664213031
 11
2622.9373411936922
 21
614.24075143013454
  0
LINE
  8
_0-0_90_FRAME
  6
CONTINUOUS
 62
    4
 10
2616.2340744771996
 20
610.01412898615229
 11
2618.9283133168592
 21
617.58042682453026
  0
LINE
  8
_0-0_90_FRAME
  6
CONTINUOUS
 62
    4
 10
2640.6345763136787
 20
610.01412898615229
 11
2642.3590791200004
 21
610.01412898615229
  0
LINE
  8
_0-0_90_FRAME
  6
CONTINUOUS
 62
    4
 10
2640.6345763136787
 20
610.01412898615229
 11
2640.6345763136787
 21
610.06023759463119
  0
LINE
  8
_0-0_90_FRAME
  6
CONTINUOUS
 62
    4
 10
2640.6345763136787
 20
610.06023759463119
 11
2644.2568676946862
 21
619.62008908611392
  0
LINE
  8
_0-0_90_FRAME
  6
CONTINUOUS
 62
    4
 10
2640.6345763136787
 20
610.01412898615229
 11
2640.6345763136787
 21
610.06023759463119
  0
LINE
  8
_0-0_90_FRAME
  6
CONTINUOUS
 62
    4
 10
2643.2992748228153
 20
612.54659730071
 11
2646.8457849369101
 21
612.54659730071
  0
LINE
  8
_0-0_90_FRAME
  6
CONTINUOUS
 62
    4
 10
2643.8191954239655
 20
614.0067032359035
 11
2646.3258643357594
 21
614.0067032359035
  0
LINE
  8
_0-0_90_FRAME
  6
CONTINUOUS
 62
    4
 10
2649.472059605645
 20
610.01412898615229
 11
2647.7475567993238
 21
610.01412898615229
  0
LINE
  8
_0-0_90_FRAME
  6
CONTINUOUS
 62
    4
 10
2647.7475567993238
 20
610.01412898615229
 11
2646.8457849369101
 21
612.54659730071
  0
LINE
  8
_0-0_90_FRAME
  6
CONTINUOUS
 62
    4
 10
2649.472059605645
 20
610.06023759463119
 11
2645.8497682246407
 21
619.62008908611392
  0
LINE
  8
_0-0_90_FRAME
  6
CONTINUOUS
 62
    4
 10
2649.472059605645
 20
610.01412898615229
 11
2649.472059605645
 21
610.06023759463119
  0
LINE
  8
_0-0_90_FRAME
  6
CONTINUOUS
 62
    4
 10
2644.2568676946862
 20
619.62008908611392
 11
2645.8497682246407
 21
619.62008908611392
  0
LINE
  8
_0-0_90_FRAME
  6
CONTINUOUS
 62
    4
 10
2646.3258643357594
 20
614.0067032359035
 11
2645.0533179596632
 21
617.58042682453026
  0
LINE
  8
_0-0_90_FRAME
  6
CONTINUOUS
 62
    4
 10
2643.2992748228153
 20
612.54659730071
 11
2643.8191954239655
 21
614.0067032359035
  0
LINE
  8
_0-0_90_FRAME
  6
CONTINUOUS
 62
    4
 10
2642.3590791200004
 20
610.01412898615229
 11
2645.0533179596632
 21
617.58042682453026
  0
ARC
  8
_0-0_90_FRAME
  6
CONTINUOUS
 62
    4
 10
2636.6705640199775
 20
614.06697733674832
 40
4.0650739069189497
 50
274.44474271147573
 51
357.5499690077387
  0
LINE
  8
_0-0_90_FRAME
  6
CONTINUOUS
 62
    4
 10
2629.6050467671712
 20
612.66486758953863
 11
2630.8430905016949
 21
611.64470573689516
  0
LINE
  8
_0-0_90_FRAME
  6
CONTINUOUS
 62
    4
 10
2630.2774713191211
 20
603.21308767142432
 11
2630.2774713191211
 21
603.21308767142432
  0
LINE
  8
_0-0_90_FRAME
  6
CONTINUOUS
 62
    4
 10
2630.2774713191211
 20
603.21308767142432
 11
2630.7617266037942
 21
603.40884760616814
  0
LINE
  8
_0-0_90_FRAME
  6
CONTINUOUS
 62
    4
 10
2630.7617266037942
 20
603.40884760616814
 11
2631.1969061248387
 21
603.6701517856286
  0
LINE
  8
_0-0_90_FRAME
  6
CONTINUOUS
 62
    4
 10
2631.1969061248387
 20
603.6701517856286
 11
2631.5697871727198
 21
603.98906061453908
  0
LINE
  8
_0-0_90_FRAME
  6
CONTINUOUS
 62
    4
 10
2631.5697871727198
 20
603.98906061453908
 11
2631.869039945484
 21
604.35588420950864
  0
LINE
  8
_0-0_90_FRAME
  6
CONTINUOUS
 62
    4
 10
2631.869039945484
 20
604.35588420950864
 11
2632.0855717990598
 21
604.75947682122603
  0
LINE
  8
_0-0_90_FRAME
  6
CONTINUOUS
 62
    4
 10
2632.0855717990598
 20
604.75947682122603
 11
2632.2128035226474
 21
605.18757549241184
  0
LINE
  8
_0-0_90_FRAME
  6
CONTINUOUS
 62
    4
 10
2632.2128035226474
 20
605.18757549241184
 11
2632.2468692447078
 21
605.6271726615704
  0
LINE
  8
_0-0_90_FRAME
  6
CONTINUOUS
 62
    4
 10
2632.2468692447078
 20
605.6271726615704
 11
2632.1867338955135
 21
606.06491139116383
  0
LINE
  8
_0-0_90_FRAME
  6
CONTINUOUS
 62
    4
 10
2632.1867338955135
 20
606.06491139116383
 11
2632.0342246572209
 21
606.48749121139986
  0
LINE
  8
_0-0_90_FRAME
  6
CONTINUOUS
 62
    4
 10
2632.0342246572209
 20
606.48749121139986
 11
2631.7939754458612
 21
606.88207224827647
  0
LINE
  8
_0-0_90_FRAME
  6
CONTINUOUS
 62
    4
 10
2631.7939754458612
 20
606.88207224827647
 11
2631.4732861121506
 21
607.23666535665552
  0
LINE
  8
_0-0_90_FRAME
  6
CONTINUOUS
 62
    4
 10
2631.4732861121506
 20
607.23666535665552
 11
2631.0819006392162
 21
607.54049640437199
  0
LINE
  8
_0-0_90_FRAME
  6
CONTINUOUS
 62
    4
 10
2631.0819006392162
 20
607.54049640437199
 11
2630.6317110766031
 21
607.78433363878673
  0
LINE
  8
_0-0_90_FRAME
  6
CONTINUOUS
 62
    4
 10
2630.6317110766031
 20
607.78433363878673
 11
2630.1363962063642
 21
607.9607681889197
  0
LINE
  8
_0-0_90_FRAME
  6
CONTINUOUS
 62
    4
 10
2630.1363962063642
 20
607.9607681889197
 11
2629.6110059201906
 21
608.06443918024536
  0
LINE
  8
_0-0_90_FRAME
  6
CONTINUOUS
 62
    4
 10
2629.6110059201906
 20
608.06443918024536
 11
2629.1465684356895
 21
608.09293696615941
  0
LINE
  8
_0-0_90_FRAME
  6
CONTINUOUS
 62
    4
 10
2635.818021029997
 20
600.02393048219176
 11
2635.818021029997
 21
606.55598335016532
  0
LINE
  8
_0-0_90_FRAME
  6
CONTINUOUS
 62
    4
 10
2634.0889482120024
 20
600.02393048219176
 11
2634.0889482120024
 21
606.55598335016532
  0
LINE
  8
_0-0_90_FRAME
  6
CONTINUOUS
 62
    4
 10
2633.896829010002
 20
608.0929369661601
 11
2636.0101402319951
 21
608.0929369661601
  0
LINE
  8
_0-0_90_FRAME
  6
CONTINUOUS
 62
    4
 10
2624.72782678971
 20
608.0929369661601
 11
2624.72782678971
 21
598.48697686619846
  0
LINE
  8
_0-0_90_FRAME
  6
CONTINUOUS
 62
    4
 10
2633.896829010002
 20
598.48697686619846
 11
2636.0101402319951
 21
598.48697686619846
  0
LINE
  8
_0-0_90_FRAME
  6
CONTINUOUS
 62
    4
 10
2636.0101402319951
 20
598.48697686619846
 11
2636.0101402319951
 21
599.83181128019362
  0
ARC
  8
_0-0_90_FRAME
  6
CONTINUOUS
 62
    4
 10
2636.0101402319951
 20
600.02393048219176
 40
0.1921192019992239
 50
180
 51
270
  0
LINE
  8
_0-0_90_FRAME
  6
CONTINUOUS
 62
    4
 10
2633.896829010002
 20
598.48697686619846
 11
2633.896829010002
 21
599.83181128019362
  0
ARC
  8
_0-0_90_FRAME
  6
CONTINUOUS
 62
    4
 10
2633.896829010002
 20
600.02393048219176
 40
0.1921192019992239
 50
270
 51
0
  0
LINE
  8
_0-0_90_FRAME
  6
CONTINUOUS
 62
    4
 10
2636.0101402319951
 20
608.0929369661601
 11
2636.0101402319951
 21
606.74810255216494
  0
ARC
  8
_0-0_90_FRAME
  6
CONTINUOUS
 62
    4
 10
2636.0101402319951
 20
606.55598335016532
 40
0.1921192019992239
 50
90
 51
180
  0
LINE
  8
_0-0_90_FRAME
  6
CONTINUOUS
 62
    4
 10
2633.896829010002
 20
608.0929369661601
 11
2633.896829010002
 21
606.74810255216494
  0
ARC
  8
_0-0_90_FRAME
  6
CONTINUOUS
 62
    4
 10
2633.896829010002
 20
606.55598335016532
 40
0.1921192019992239
 50
0
 51
90
  0
LINE
  8
_0-0_90_FRAME
  6
CONTINUOUS
 62
    4
 10
2620.5588713209986
 20
598.48697686619846
 11
2620.5588713209986
 21
606.55598335016532
  0
LINE
  8
_0-0_90_FRAME
  6
CONTINUOUS
 62
    4
 10
2618.8297985030067
 20
598.48697686619846
 11
2618.8297985030067
 21
606.55598335016532
  0
LINE
  8
_0-0_90_FRAME
  6
CONTINUOUS
 62
    4
 10
2615.7558912710201
 20
608.0929369661601
 11
2623.6327785529875
 21
608.0929369661601
  0
LINE
  8
_0-0_90_FRAME
  6
CONTINUOUS
 62
    4
 10
2618.8297985030067
 20
598.48697686619846
 11
2620.5588713209986
 21
598.48697686619846
  0
LINE
  8
_0-0_90_FRAME
  6
CONTINUOUS
 62
    4
 10
2623.6327785529875
 20
608.0929369661601
 11
2623.6327785529875
 21
606.74810255216494
  0
ARC
  8
_0-0_90_FRAME
  6
CONTINUOUS
 62
    4
 10
2620.7509905229995
 20
606.55598335016532
 40
0.1921192019992239
 50
90
 51
180
  0
LINE
  8
_0-0_90_FRAME
  6
CONTINUOUS
 62
    4
 10
2615.7558912710201
 20
608.0929369661601
 11
2615.7558912710201
 21
606.74810255216494
  0
ARC
  8
_0-0_90_FRAME
  6
CONTINUOUS
 62
    4
 10
2618.6376793010086
 20
606.55598335016532
 40
0.1921192019992239
 50
0
 51
90
  0
LINE
  8
_0-0_90_FRAME
  6
CONTINUOUS
 62
    4
 10
2615.7558912710201
 20
606.74810255216494
 11
2618.6376793010086
 21
606.74810255216494
  0
LINE
  8
_0-0_90_FRAME
  6
CONTINUOUS
 62
    4
 10
2620.7509905229995
 20
606.74810255216494
 11
2623.6327785529875
 21
606.74810255216494
  0
LINE
  8
_0-0_90_FRAME
  6
CONTINUOUS
 62
    4
 10
2624.72782678971
 20
598.48697686619846
 11
2626.4568996077019
 21
598.48697686619846
  0
LINE
  8
_0-0_90_FRAME
  6
CONTINUOUS
 62
    4
 10
2626.4568996077019
 20
598.48697686619846
 11
2626.4568996077019
 21
606.74810255216494
  0
LINE
  8
_0-0_90_FRAME
  6
CONTINUOUS
 62
    4
 10
2624.72782678971
 20
608.0929369661601
 11
2629.1465684356895
 21
608.0929369661601
  0
LINE
  8
_0-0_90_FRAME
  6
CONTINUOUS
 62
    4
 10
2626.4568996077019
 20
606.74810255216494
 11
2629.3771114780911
 21
606.74810255216494
  0
LINE
  8
_0-0_90_FRAME
  6
CONTINUOUS
 62
    4
 10
2626.5145353682997
 20
603.03908020060885
 11
2626.5145353682997
 21
604.38391461460401
  0
LINE
  8
_0-0_90_FRAME
  6
CONTINUOUS
 62
    4
 10
2626.5145353682997
 20
603.03908020060885
 11
2628.4010628666028
 21
603.03908020060885
  0
LINE
  8
_0-0_90_FRAME
  6
CONTINUOUS
 62
    4
 10
2626.5145353682997
 20
604.38391461460401
 11
2629.3771114780911
 21
604.38391461460401
  0
ARC
  8
_0-0_90_FRAME
  6
CONTINUOUS
 62
    4
 10
2629.3358926371693
 20
605.56600858338447
 40
1.1828123874366916
 50
271.99705710435398
 51
88.002942895541636
  0
LINE
  8
_0-0_90_FRAME
  6
CONTINUOUS
 62
    4
 10
2630.5763407852064
 20
598.48697686619846
 11
2632.4398970445982
 21
598.48697686619846
  0
LINE
  8
_0-0_90_FRAME
  6
CONTINUOUS
 62
    4
 10
2630.784540232476
 20
602.61755821853444
 11
2632.4398970445982
 21
598.56382454699826
  0
LINE
  8
_0-0_90_FRAME
  6
CONTINUOUS
 62
    4
 10
2629.1139418572093
 20
602.5575879726523
 11
2630.5763407852064
 21
598.48697686619846
  0
ARC
  8
_0-0_90_FRAME
  6
CONTINUOUS
 62
    4
 10
2628.4010628666028
 20
602.27060339261357
 40
0.7684768079968956
 50
21.928297866550245
 51
90
  0
ARC
  8
_0-0_90_FRAME
  6
CONTINUOUS
 62
    4
 10
2629.622146912533
 20
602.14146688470476
 40
1.2561135252831908
 50
22.272952259980951
 51
58.553113012863221
  0
LINE
  8
_0-0_90_FRAME
  6
CONTINUOUS
 62
    4
 10
2632.4398970445982
 20
598.56382454699826
 11
2632.4398970445982
 21
598.48697686619846
  0
LINE
  8
_0-0_90_FRAME
  6
CONTINUOUS
 62
    4
 10
2637.7410851437048
 20
608.0929369661601
 11
2637.7410851437048
 21
598.48697686619846
  0
LINE
  8
_0-0_90_FRAME
  6
CONTINUOUS
 62
    4
 10
2637.7410851437048
 20
598.48697686619846
 11
2639.4701579616994
 21
598.48697686619846
  0
LINE
  8
_0-0_90_FRAME
  6
CONTINUOUS
 62
    4
 10
2639.4701579616994
 20
598.48697686619846
 11
2639.4685657836453
 21
605.21114893617164
  0
LINE
  8
_0-0_90_FRAME
  6
CONTINUOUS
 62
    4
 10
2637.7410851437048
 20
608.0929369661601
 11
2640.2500830297613
 21
608.0929369661601
  0
LINE
  8
_0-0_90_FRAME
  6
CONTINUOUS
 62
    4
 10
2645.6195646037263
 20
605.21114893617164
 11
2645.6195646037263
 21
598.48697686619846
  0
LINE
  8
_0-0_90_FRAME
  6
CONTINUOUS
 62
    4
 10
2645.6195646037263
 20
598.48697686619846
 11
2647.3486374217182
 21
598.48697686619846
  0
LINE
  8
_0-0_90_FRAME
  6
CONTINUOUS
 62
    4
 10
2647.3486374217182
 20
598.48697686619846
 11
2647.3486374217182
 21
608.0929369661601
  0
LINE
  8
_0-0_90_FRAME
  6
CONTINUOUS
 62
    4
 10
2641.6795287846921
 20
598.48697686619846
 11
2643.4086016026831
 21
598.48697686619846
  0
LINE
  8
_0-0_90_FRAME
  6
CONTINUOUS
 62
    4
 10
2647.3486374217182
 20
608.0929369661601
 11
2644.8380473576108
 21
608.0929369661601
  0
LINE
  8
_0-0_90_FRAME
  6
CONTINUOUS
 62
    4
 10
2643.4086016026831
 20
598.48697686619846
 11
2645.6195646037263
 21
605.21114893617164
  0
LINE
  8
_0-0_90_FRAME
  6
CONTINUOUS
 62
    4
 10
2641.6795287846921
 20
598.48697686619846
 11
2639.4685657836453
 21
605.21114893617164
  0
LINE
  8
_0-0_90_FRAME
  6
CONTINUOUS
 62
    4
 10
2642.544065193686
 20
601.11627983151379
 11
2644.8380473576108
 21
608.0929369661601
  0
LINE
  8
_0-0_90_FRAME
  6
CONTINUOUS
 62
    4
 10
2642.544065193686
 20
601.11627983151379
 11
2640.2500830297613
 21
608.0929369661601
  0
TEXT
  8
_0-0_90_FRAME
 62
    2
 10
2658.674662349647
 20
615.76061075744462
 40
11.341157142811321
 41
1
 50
0
  1
ŐöÄ«ë´Äđ
  0
LINE
  8
_0-0_90_FRAME
  6
CONTINUOUS
 62
   18
 10
2693.1999976566358
 20
639.33730321647749
 11
2693.1999976566358
 21
692.37301750197935
  0
TEXT
  8
_0-0_90_FRAME
 62
    7
 10
2792.186183297903
 20
598.27515673365667
 40
15.000000000000002
 41
1
 50
0
  1
ÄŤôc
  0
TEXT
  8
_0-0_90_FRAME
 62
    7
 10
2715.0754690125254
 20
652.06701677694809
 40
15.000000000000002
 41
1
 50
0
  1
1üF3
  0
TEXT
  8
_0-0_90_FRAME
 62
    7
 10
2849.4601631364662
 20
682.10428702509694
 40
7.5000000000000009
 41
1
 50
0
  1
ő@ŐÝ
  0
LINE
  8
_0-0_90_FRAME
  6
CONTINUOUS
 62
   18
 10
2960.7071279503516
 20
692.37301750197935
 11
2960.7071279503516
 21
616.00158893085847
  0
TEXT
  8
_0-0_90_FRAME
 62
    7
 10
2962.7458648594265
 20
682.10428702509694
 40
7.5000000000000009
 41
1
 50
0
  1
ĽöĽiľ╝
  0
TEXT
  8
_0-0_90_FRAME
 62
    7
 10
2962.7458648594238
 20
639.30071559669545
 40
7.5000000000000009
 41
1
 50
0
  1
É}ľ╩öďŹć
  0
LINE
  8
_0-0_90_FRAME
  6
CONTINUOUS
 62
   18
 10
2847.4214262273968
 20
654.18730321641954
 11
2960.7071279503516
 21
654.18730321641954
  0
TEXT
  8
_0-0_90_FRAME
 62
    7
 10
2849.4601631364662
 20
643.54357273953713
 40
7.5000000000000009
 41
1
 50
0
  1
î^Ä«
  0
LINE
  8
_0-0_90_FRAME
  6
CONTINUOUS
 62
   18
 10
2744.435715879511
 20
692.37301750197935
 11
3198.0999976545977
 21
692.37301750197935
  0
LINE
  8
_0-0_90_FRAME
  6
CONTINUOUS
 62
    4
 10
2744.435715879511
 20
776.37301524560689
 11
2744.435715879511
 21
692.37301750197935
  0
LINE
  8
_0-0_90_FRAME
  6
CONTINUOUS
 62
    4
 10
2960.7071279503512
 20
776.37301524560678
 11
2960.7071279503516
 21
692.37301750197935
  0
LINE
  8
_0-0_90_FRAME
  6
CONTINUOUS
 62
    4
 10
3043.0394665437975
 20
776.37301524560678
 11
3043.0394665438093
 21
692.37301750197935
  0
LINE
  8
_0-0_90_FRAME
  6
CONTINUOUS
 62
    4
 10
3022.0394691687961
 20
776.37301524560678
 11
3022.039469168808
 21
692.37301750197935
  0
LINE
  8
_0-0_90_FRAME
  6
CONTINUOUS
 62
    4
 10
2775.9357119420151
 20
776.37301524560678
 11
2775.9357119420165
 21
692.37301750197935
  0
LINE
  8
_0-0_90_FRAME
  6
CONTINUOUS
 62
    4
 10
3074.5394626063048
 20
776.37301524560678
 11
3074.5394626063044
 21
692.37301750197935
  0
TEXT
  8
_0-0_90_FRAME
 62
    3
 10
3049.8995375773643
 20
703.1516144484018
 40
7.5000000000000009
 41
1
 50
0
  1
ĆdŚ╩
  0
TEXT
  8
_0-0_90_FRAME
 62
    3
 10
2974.7124387296012
 20
698.31097072028183
 40
9
 41
1
 50
0
  1
ŹŮü@Ä┐
  0
TEXT
  8
_0-0_90_FRAME
 62
    3
 10
3023.1423955067394
 20
698.24332993644612
 40
9
 41
1
 50
0
  1
ÉöŚ╩
  0
TEXT
  8
_0-0_90_FRAME
 62
    3
 10
3053.2144318736523
 20
695.81309080654012
 40
6
 41
1
 50
0
  1
kg
  0
TEXT
  8
_0-0_90_FRAME
 62
    3
 10
3114.6807657540835
 20
698.09243215735023
 40
9
 41
1
 50
0
  1
ö§  Źl
  0
TEXT
  8
_0-0_90_FRAME
 62
    3
 10
2750.8496996631429
 20
698.09243215735023
 40
9
 41
1
 50
0
  1
ĽäŹć
  0
TEXT
  8
_0-0_90_FRAME
 62
    3
 10
2827.1463419623601
 20
698.41909878318518
 40
9
 41
1
 50
0
  1
Ľöü@ü@Ľiü@ü@ľ╝
  0
LINE
  8
_0-0_90_FRAME
  6
CONTINUOUS
 62
    4
 10
2744.4356985498362
 20
776.37301524560689
 11
3198.0999803249233
 21
776.37301524560689
  0
LINE
  8
_0-0_90_FRAME
  6
CONTINUOUS
 62
    4
 10
2744.4356985498362
 20
755.37301412425609
 11
3198.0999803249233
 21
755.37301412425609
  0
LINE
  8
_0-0_90_FRAME
  6
CONTINUOUS
 62
    4
 10
2744.4356985498362
 20
734.37301524560678
 11
3198.0999803249233
 21
734.37301524560678
  0
LINE
  8
_0-0_90_FRAME
  6
CONTINUOUS
 62
    4
 10
2744.4356985498362
 20
713.37301524560678
 11
3198.0999803249233
 21
713.37301524560678
  0
TEXT
  8
_0-0_90_FRAME
 62
    7
 10
3045.4775050017274
 20
664.74057709866736
 40
12
 41
1
 50
0
  1
ĺEÉůő@ ĽöĽiÉ}
  0
TEXT
  8
_0-0_90_FRAME
 62
    7
 10
2854.7438016718756
 20
664.30999436027423
 40
9.5999999999999996
 41
0.9000000000000001
 50
0
  1
ŚLő@ÉźëśôDöRŚ┐Ä{ÉŢ
  0
LINE
  8
_0-2_08_DIM
  6
CONTINUOUS
 62
    3
 10
1008.2939460740764
 20
2063.1651233695734
 11
1084.9935965389986
 21
2063.1651233695734
  0
INSERT
  2
-000-p1ba05
  8
_0-2_08_DIM
 10
1052.9311539124149
 20
2067.2678908951143
 41
4.5
 42
4.5
 50
0
  0
LINE
  8
_0-3_0
  6
CONTINUOUS
 62
   18
 10
1142.1600922418659
 20
944.94114534627204
 11
1142.1600922418659
 21
939.94114534627215
  0
LINE
  8
_0-3_0
  6
CONTINUOUS
 62
   18
 10
1142.1600922418659
 20
939.94114534627215
 11
3102.1600922418656
 21
939.94114534627215
  0
LINE
  8
_0-3_0
  6
CONTINUOUS
 62
   18
 10
3102.1600922418656
 20
939.94114534627215
 11
3102.1600922418656
 21
944.94114534627204
  0
LINE
  8
_0-3_0
  6
CONTINUOUS
 62
   18
 10
3102.1600922418656
 20
944.94114534627204
 11
1142.1600922418659
 21
944.94114534627204
  0
LINE
  8
_0-4_05_CENTER
  6
CENTER2
 62
    4
 10
1162.1600922410364
 20
933.14276150913292
 11
1162.1600922410364
 21
951.65192712616818
  0
LINE
  8
_0-4_05_CENTER
  6
CENTER2
 62
    4
 10
1322.1600922402067
 20
933.14276150913292
 11
1322.1600922402067
 21
951.65192712616818
  0
LINE
  8
_0-4_05_CENTER
  6
CENTER2
 62
    4
 10
1482.160092240207
 20
933.14276150913292
 11
1482.160092240207
 21
951.65192712616818
  0
LINE
  8
_0-4_05_CENTER
  6
CENTER2
 62
    4
 10
1642.1600922402067
 20
933.14276150913292
 11
1642.1600922402067
 21
951.65192712616818
  0
LINE
  8
_0-4_05_CENTER
  6
CENTER2
 62
    4
 10
1802.1600922402067
 20
933.14276150913292
 11
1802.1600922402067
 21
951.65192712616818
  0
LINE
  8
_0-4_05_CENTER
  6
CENTER2
 62
    4
 10
1962.160092240207
 20
933.14276150913292
 11
1962.160092240207
 21
951.65192712616818
  0
LINE
  8
_0-4_05_CENTER
  6
CENTER2
 62
    4
 10
2122.1600922402072
 20
933.14276150913292
 11
2122.1600922402072
 21
951.65192712616818
  0
LINE
  8
_0-4_05_CENTER
  6
CENTER2
 62
    4
 10
3082.1600922426883
 20
933.14276150913292
 11
3082.1600922426883
 21
951.65192712616818
  0
LINE
  8
_0-4_05_CENTER
  6
CENTER2
 62
    4
 10
2922.1600922435246
 20
933.14276150913292
 11
2922.1600922435246
 21
951.65192712616818
  0
LINE
  8
_0-4_05_CENTER
  6
CENTER2
 62
    4
 10
2762.160092243525
 20
933.14276150913292
 11
2762.160092243525
 21
951.65192712616818
  0
LINE
  8
_0-4_05_CENTER
  6
CENTER2
 62
    4
 10
2602.160092243525
 20
933.14276150913292
 11
2602.160092243525
 21
951.65192712616818
  0
LINE
  8
_0-4_05_CENTER
  6
CENTER2
 62
    4
 10
2442.160092243525
 20
933.14276150913292
 11
2442.160092243525
 21
951.65192712616818
  0
LINE
  8
_0-4_05_CENTER
  6
CENTER2
 62
    4
 10
2282.1600922435246
 20
933.14276150913292
 11
2282.1600922435246
 21
951.65192712616818
  0
LINE
  8
_0-5_10_DRAFT
  6
CONTINUOUS
 62
    8
 10
988.48927315392052
 20
1128.570098791522
 11
993.48927315392041
 21
1128.570098791522
  0
LINE
  8
_0-4_05_CENTER
  6
CENTER2
 62
    4
 10
981.69088931677663
 20
1138.5700987915229
 11
1000.2000549338173
 21
1138.5700987915229
  0
LINE
  8
_0-3_0
  6
CONTINUOUS
 62
   18
 10
993.48927315684534
 20
1153.5700987913419
 11
988.48927315684534
 21
1153.5700987913419
  0
LINE
  8
_0-3_0
  6
CONTINUOUS
 62
   18
 10
988.48927315684534
 20
1153.5700987913419
 11
988.48927315684534
 21
1033.5700987913419
  0
LINE
  8
_0-3_0
  6
CONTINUOUS
 62
   18
 10
988.48927315684534
 20
1033.5700987913419
 11
993.48927315684534
 21
1033.5700987913419
  0
LINE
  8
_0-3_0
  6
CONTINUOUS
 62
   18
 10
993.48927315684534
 20
1033.5700987913419
 11
993.48927315684534
 21
1153.5700987913419
  0
LINE
  8
_0-4_05_CENTER
  6
CENTER2
 62
    4
 10
981.69088931970884
 20
1118.5700987913419
 11
1000.2000549367424
 21
1118.5700987913419
  0
LINE
  8
_0-4_05_CENTER
  6
CENTER2
 62
    4
 10
981.69088931970884
 20
1048.5700987915229
 11
1000.2000549367424
 21
1048.5700987915229
  0
LINE
  8
_0-3_0
  6
CONTINUOUS
 62
   18
 10
1156.160092243641
 20
1138.5700987915284
 11
1156.160092243641
 21
1118.5700987915284
  0
ARC
  8
_0-3_0
  6
CONTINUOUS
 62
   18
 10
1162.1600922436412
 20
1118.5700987915284
 40
6
 50
180
 51
0
  0
LINE
  8
_0-3_0
  6
CONTINUOUS
 62
   18
 10
1168.1600922436412
 20
1118.5700987915284
 11
1168.1600922436412
 21
1138.5700987915284
  0
ARC
  8
_0-3_0
  6
CONTINUOUS
 62
   18
 10
1162.1600922436412
 20
1138.5700987915284
 40
6
 50
0
 51
180
  0
LINE
  8
_0-4_05_CENTER
  6
CENTER2
 62
    4
 10
1150.1600922436412
 20
1128.5700987915284
 11
1174.160092243641
 21
1128.5700987915284
  0
LINE
  8
_0-4_05_CENTER
  6
CENTER2
 62
    4
 10
1162.1600922436412
 20
1106.5700987915293
 11
1162.1600922436412
 21
1150.5700987915293
  0
LINE
  8
_0-4_05_CENTER
  6
CENTER2
 62
    4
 10
1150.1600922436412
 20
1138.5700987915293
 11
1174.160092243641
 21
1138.5700987915293
  0
LINE
  8
_0-4_05_CENTER
  6
CENTER2
 62
    4
 10
1150.1600922436412
 20
1118.5700987915293
 11
1174.160092243641
 21
1118.5700987915293
  0
LINE
  8
_0-3_0
  6
CONTINUOUS
 62
   18
 10
1316.1600922428117
 20
1138.5700987915284
 11
1316.1600922428117
 21
1118.5700987915284
  0
ARC
  8
_0-3_0
  6
CONTINUOUS
 62
   18
 10
1322.1600922428117
 20
1118.5700987915284
 40
6
 50
180
 51
0
  0
LINE
  8
_0-3_0
  6
CONTINUOUS
 62
   18
 10
1328.1600922428117
 20
1118.5700987915284
 11
1328.1600922428117
 21
1138.5700987915284
  0
ARC
  8
_0-3_0
  6
CONTINUOUS
 62
   18
 10
1322.1600922428117
 20
1138.5700987915284
 40
6
 50
0
 51
180
  0
LINE
  8
_0-4_05_CENTER
  6
CENTER2
 62
    4
 10
1310.1600922428115
 20
1128.5700987915284
 11
1334.1600922428115
 21
1128.5700987915284
  0
LINE
  8
_0-4_05_CENTER
  6
CENTER2
 62
    4
 10
1322.1600922428117
 20
1106.5700987915293
 11
1322.1600922428117
 21
1150.5700987915293
  0
LINE
  8
_0-4_05_CENTER
  6
CENTER2
 62
    4
 10
1310.1600922428115
 20
1138.5700987915293
 11
1334.1600922428115
 21
1138.5700987915293
  0
LINE
  8
_0-4_05_CENTER
  6
CENTER2
 62
    4
 10
1310.1600922428115
 20
1118.5700987915293
 11
1334.1600922428115
 21
1118.5700987915293
  0
LINE
  8
_0-3_0
  6
CONTINUOUS
 62
   18
 10
1476.1600922428115
 20
1138.5700987915284
 11
1476.1600922428115
 21
1118.5700987915284
  0
ARC
  8
_0-3_0
  6
CONTINUOUS
 62
   18
 10
1482.1600922428117
 20
1118.5700987915284
 40
6
 50
180
 51
0
  0
LINE
  8
_0-3_0
  6
CONTINUOUS
 62
   18
 10
1488.1600922428117
 20
1118.5700987915284
 11
1488.1600922428117
 21
1138.5700987915284
  0
ARC
  8
_0-3_0
  6
CONTINUOUS
 62
   18
 10
1482.1600922428117
 20
1138.5700987915284
 40
6
 50
0
 51
180
  0
LINE
  8
_0-4_05_CENTER
  6
CENTER2
 62
    4
 10
1470.1600922428117
 20
1128.5700987915284
 11
1494.1600922428117
 21
1128.5700987915284
  0
LINE
  8
_0-4_05_CENTER
  6
CENTER2
 62
    4
 10
1482.1600922428117
 20
1106.5700987915293
 11
1482.1600922428117
 21
1150.5700987915293
  0
LINE
  8
_0-4_05_CENTER
  6
CENTER2
 62
    4
 10
1470.1600922428117
 20
1138.5700987915293
 11
1494.1600922428117
 21
1138.5700987915293
  0
LINE
  8
_0-4_05_CENTER
  6
CENTER2
 62
    4
 10
1470.1600922428117
 20
1118.5700987915293
 11
1494.1600922428117
 21
1118.5700987915293
  0
LINE
  8
_0-3_0
  6
CONTINUOUS
 62
   18
 10
1636.1600922428117
 20
1138.5700987915284
 11
1636.1600922428117
 21
1118.5700987915284
  0
ARC
  8
_0-3_0
  6
CONTINUOUS
 62
   18
 10
1642.160092242812
 20
1118.5700987915284
 40
6
 50
180
 51
0
  0
LINE
  8
_0-3_0
  6
CONTINUOUS
 62
   18
 10
1648.1600922428117
 20
1118.5700987915284
 11
1648.1600922428117
 21
1138.5700987915284
  0
ARC
  8
_0-3_0
  6
CONTINUOUS
 62
   18
 10
1642.160092242812
 20
1138.5700987915284
 40
6
 50
0
 51
180
  0
LINE
  8
_0-4_05_CENTER
  6
CENTER2
 62
    4
 10
1630.1600922428115
 20
1128.5700987915284
 11
1654.1600922428117
 21
1128.5700987915284
  0
LINE
  8
_0-4_05_CENTER
  6
CENTER2
 62
    4
 10
1642.160092242812
 20
1106.5700987915293
 11
1642.160092242812
 21
1150.5700987915293
  0
LINE
  8
_0-4_05_CENTER
  6
CENTER2
 62
    4
 10
1630.1600922428115
 20
1138.5700987915293
 11
1654.1600922428117
 21
1138.5700987915293
  0
LINE
  8
_0-4_05_CENTER
  6
CENTER2
 62
    4
 10
1630.1600922428115
 20
1118.5700987915293
 11
1654.1600922428117
 21
1118.5700987915293
  0
LINE
  8
_0-3_0
  6
CONTINUOUS
 62
   18
 10
1796.1600922428115
 20
1138.5700987915284
 11
1796.1600922428115
 21
1118.5700987915284
  0
ARC
  8
_0-3_0
  6
CONTINUOUS
 62
   18
 10
1802.1600922428117
 20
1118.5700987915284
 40
6
 50
180
 51
0
  0
LINE
  8
_0-3_0
  6
CONTINUOUS
 62
   18
 10
1808.160092242812
 20
1118.5700987915284
 11
1808.160092242812
 21
1138.5700987915284
  0
ARC
  8
_0-3_0
  6
CONTINUOUS
 62
   18
 10
1802.1600922428117
 20
1138.5700987915284
 40
6
 50
0
 51
180
  0
LINE
  8
_0-4_05_CENTER
  6
CENTER2
 62
    4
 10
1790.1600922428115
 20
1128.5700987915284
 11
1814.1600922428117
 21
1128.5700987915284
  0
LINE
  8
_0-4_05_CENTER
  6
CENTER2
 62
    4
 10
1802.1600922428117
 20
1106.5700987915293
 11
1802.1600922428117
 21
1150.5700987915293
  0
LINE
  8
_0-4_05_CENTER
  6
CENTER2
 62
    4
 10
1790.1600922428115
 20
1138.5700987915293
 11
1814.1600922428117
 21
1138.5700987915293
  0
LINE
  8
_0-4_05_CENTER
  6
CENTER2
 62
    4
 10
1790.1600922428115
 20
1118.5700987915293
 11
1814.1600922428117
 21
1118.5700987915293
  0
LINE
  8
_0-3_0
  6
CONTINUOUS
 62
   18
 10
1956.1600922428115
 20
1138.5700987915284
 11
1956.1600922428115
 21
1118.5700987915284
  0
ARC
  8
_0-3_0
  6
CONTINUOUS
 62
   18
 10
1962.1600922428115
 20
1118.5700987915284
 40
6
 50
180
 51
0
  0
LINE
  8
_0-3_0
  6
CONTINUOUS
 62
   18
 10
1968.1600922428117
 20
1118.5700987915284
 11
1968.1600922428117
 21
1138.5700987915284
  0
ARC
  8
_0-3_0
  6
CONTINUOUS
 62
   18
 10
1962.1600922428115
 20
1138.5700987915284
 40
6
 50
0
 51
180
  0
LINE
  8
_0-4_05_CENTER
  6
CENTER2
 62
    4
 10
1950.1600922428117
 20
1128.5700987915284
 11
1974.1600922428115
 21
1128.5700987915284
  0
LINE
  8
_0-4_05_CENTER
  6
CENTER2
 62
    4
 10
1962.1600922428115
 20
1106.5700987915293
 11
1962.1600922428115
 21
1150.5700987915293
  0
LINE
  8
_0-4_05_CENTER
  6
CENTER2
 62
    4
 10
1950.1600922428117
 20
1138.5700987915293
 11
1974.1600922428115
 21
1138.5700987915293
  0
LINE
  8
_0-4_05_CENTER
  6
CENTER2
 62
    4
 10
1950.1600922428117
 20
1118.5700987915293
 11
1974.1600922428115
 21
1118.5700987915293
  0
LINE
  8
_0-3_0
  6
CONTINUOUS
 62
   18
 10
2116.1600922428115
 20
1138.5700987915284
 11
2116.1600922428115
 21
1118.5700987915284
  0
ARC
  8
_0-3_0
  6
CONTINUOUS
 62
   18
 10
2122.1600922428115
 20
1118.5700987915284
 40
6
 50
180
 51
0
  0
LINE
  8
_0-3_0
  6
CONTINUOUS
 62
   18
 10
2128.160092242812
 20
1118.5700987915284
 11
2128.160092242812
 21
1138.5700987915284
  0
ARC
  8
_0-3_0
  6
CONTINUOUS
 62
   18
 10
2122.1600922428115
 20
1138.5700987915284
 40
6
 50
0
 51
180
  0
LINE
  8
_0-4_05_CENTER
  6
CENTER2
 62
    4
 10
2110.1600922428115
 20
1128.5700987915284
 11
2134.1600922428115
 21
1128.5700987915284
  0
LINE
  8
_0-4_05_CENTER
  6
CENTER2
 62
    4
 10
2122.1600922428115
 20
1106.5700987915293
 11
2122.1600922428115
 21
1150.5700987915293
  0
LINE
  8
_0-4_05_CENTER
  6
CENTER2
 62
    4
 10
2110.1600922428115
 20
1138.5700987915293
 11
2134.1600922428115
 21
1138.5700987915293
  0
LINE
  8
_0-4_05_CENTER
  6
CENTER2
 62
    4
 10
2110.1600922428115
 20
1118.5700987915293
 11
2134.1600922428115
 21
1118.5700987915293
  0
LINE
  8
_0-3_0
  6
CONTINUOUS
 62
   18
 10
3088.160092243394
 20
1138.5700987915284
 11
3088.160092243394
 21
1118.5700987915284
  0
ARC
  8
_0-3_0
  6
CONTINUOUS
 62
   18
 10
3082.1600922433936
 20
1118.5700987915284
 40
6
 50
180
 51
0
  0
LINE
  8
_0-3_0
  6
CONTINUOUS
 62
   18
 10
3076.160092243394
 20
1118.5700987915284
 11
3076.160092243394
 21
1138.5700987915284
  0
ARC
  8
_0-3_0
  6
CONTINUOUS
 62
   18
 10
3082.1600922433936
 20
1138.5700987915284
 40
6
 50
0
 51
180
  0
LINE
  8
_0-4_05_CENTER
  6
CENTER2
 62
    4
 10
3094.160092243394
 20
1128.5700987915284
 11
3070.1600922433936
 21
1128.5700987915284
  0
LINE
  8
_0-4_05_CENTER
  6
CENTER2
 62
    4
 10
3082.1600922433936
 20
1106.5700987915293
 11
3082.1600922433936
 21
1150.5700987915293
  0
LINE
  8
_0-4_05_CENTER
  6
CENTER2
 62
    4
 10
3094.160092243394
 20
1138.5700987915293
 11
3070.1600922433936
 21
1138.5700987915293
  0
LINE
  8
_0-4_05_CENTER
  6
CENTER2
 62
    4
 10
3094.160092243394
 20
1118.5700987915293
 11
3070.1600922433936
 21
1118.5700987915293
  0
LINE
  8
_0-3_0
  6
CONTINUOUS
 62
   18
 10
2928.1600922442308
 20
1138.5700987915284
 11
2928.1600922442308
 21
1118.5700987915284
  0
ARC
  8
_0-3_0
  6
CONTINUOUS
 62
   18
 10
2922.1600922442303
 20
1118.5700987915284
 40
6
 50
180
 51
0
  0
LINE
  8
_0-3_0
  6
CONTINUOUS
 62
   18
 10
2916.1600922442303
 20
1118.5700987915284
 11
2916.1600922442303
 21
1138.5700987915284
  0
ARC
  8
_0-3_0
  6
CONTINUOUS
 62
   18
 10
2922.1600922442303
 20
1138.5700987915284
 40
6
 50
0
 51
180
  0
LINE
  8
_0-4_05_CENTER
  6
CENTER2
 62
    4
 10
2934.1600922442303
 20
1128.5700987915284
 11
2910.1600922442303
 21
1128.5700987915284
  0
LINE
  8
_0-4_05_CENTER
  6
CENTER2
 62
    4
 10
2922.1600922442303
 20
1106.5700987915293
 11
2922.1600922442303
 21
1150.5700987915293
  0
LINE
  8
_0-4_05_CENTER
  6
CENTER2
 62
    4
 10
2934.1600922442303
 20
1138.5700987915293
 11
2910.1600922442303
 21
1138.5700987915293
  0
LINE
  8
_0-4_05_CENTER
  6
CENTER2
 62
    4
 10
2934.1600922442303
 20
1118.5700987915293
 11
2910.1600922442303
 21
1118.5700987915293
  0
LINE
  8
_0-3_0
  6
CONTINUOUS
 62
   18
 10
2768.1600922442308
 20
1138.5700987915284
 11
2768.1600922442308
 21
1118.5700987915284
  0
ARC
  8
_0-3_0
  6
CONTINUOUS
 62
   18
 10
2762.1600922442303
 20
1118.5700987915284
 40
6
 50
180
 51
0
  0
LINE
  8
_0-3_0
  6
CONTINUOUS
 62
   18
 10
2756.1600922442308
 20
1118.5700987915284
 11
2756.1600922442308
 21
1138.5700987915284
  0
ARC
  8
_0-3_0
  6
CONTINUOUS
 62
   18
 10
2762.1600922442303
 20
1138.5700987915284
 40
6
 50
0
 51
180
  0
LINE
  8
_0-4_05_CENTER
  6
CENTER2
 62
    4
 10
2774.1600922442308
 20
1128.5700987915284
 11
2750.1600922442303
 21
1128.5700987915284
  0
LINE
  8
_0-4_05_CENTER
  6
CENTER2
 62
    4
 10
2762.1600922442303
 20
1106.5700987915293
 11
2762.1600922442303
 21
1150.5700987915293
  0
LINE
  8
_0-4_05_CENTER
  6
CENTER2
 62
    4
 10
2774.1600922442308
 20
1138.5700987915293
 11
2750.1600922442303
 21
1138.5700987915293
  0
LINE
  8
_0-4_05_CENTER
  6
CENTER2
 62
    4
 10
2774.1600922442308
 20
1118.5700987915293
 11
2750.1600922442303
 21
1118.5700987915293
  0
LINE
  8
_0-3_0
  6
CONTINUOUS
 62
   18
 10
2608.1600922442308
 20
1138.5700987915284
 11
2608.1600922442308
 21
1118.5700987915284
  0
ARC
  8
_0-3_0
  6
CONTINUOUS
 62
   18
 10
2602.1600922442303
 20
1118.5700987915284
 40
6
 50
180
 51
0
  0
LINE
  8
_0-3_0
  6
CONTINUOUS
 62
   18
 10
2596.1600922442308
 20
1118.5700987915284
 11
2596.1600922442308
 21
1138.5700987915284
  0
ARC
  8
_0-3_0
  6
CONTINUOUS
 62
   18
 10
2602.1600922442303
 20
1138.5700987915284
 40
6
 50
0
 51
180
  0
LINE
  8
_0-4_05_CENTER
  6
CENTER2
 62
    4
 10
2614.1600922442308
 20
1128.5700987915284
 11
2590.1600922442303
 21
1128.5700987915284
  0
LINE
  8
_0-4_05_CENTER
  6
CENTER2
 62
    4
 10
2602.1600922442303
 20
1106.5700987915293
 11
2602.1600922442303
 21
1150.5700987915293
  0
LINE
  8
_0-4_05_CENTER
  6
CENTER2
 62
    4
 10
2614.1600922442308
 20
1138.5700987915293
 11
2590.1600922442303
 21
1138.5700987915293
  0
LINE
  8
_0-4_05_CENTER
  6
CENTER2
 62
    4
 10
2614.1600922442308
 20
1118.5700987915293
 11
2590.1600922442303
 21
1118.5700987915293
  0
LINE
  8
_0-3_0
  6
CONTINUOUS
 62
   18
 10
2448.1600922442308
 20
1138.5700987915284
 11
2448.1600922442308
 21
1118.5700987915284
  0
ARC
  8
_0-3_0
  6
CONTINUOUS
 62
   18
 10
2442.1600922442308
 20
1118.5700987915284
 40
6
 50
180
 51
0
  0
LINE
  8
_0-3_0
  6
CONTINUOUS
 62
   18
 10
2436.1600922442308
 20
1118.5700987915284
 11
2436.1600922442308
 21
1138.5700987915284
  0
ARC
  8
_0-3_0
  6
CONTINUOUS
 62
   18
 10
2442.1600922442308
 20
1138.5700987915284
 40
6
 50
0
 51
180
  0
LINE
  8
_0-4_05_CENTER
  6
CENTER2
 62
    4
 10
2454.1600922442303
 20
1128.5700987915284
 11
2430.1600922442308
 21
1128.5700987915284
  0
LINE
  8
_0-4_05_CENTER
  6
CENTER2
 62
    4
 10
2442.1600922442308
 20
1106.5700987915293
 11
2442.1600922442308
 21
1150.5700987915293
  0
LINE
  8
_0-4_05_CENTER
  6
CENTER2
 62
    4
 10
2454.1600922442303
 20
1138.5700987915293
 11
2430.1600922442308
 21
1138.5700987915293
  0
LINE
  8
_0-4_05_CENTER
  6
CENTER2
 62
    4
 10
2454.1600922442303
 20
1118.5700987915293
 11
2430.1600922442308
 21
1118.5700987915293
  0
LINE
  8
_0-3_0
  6
CONTINUOUS
 62
   18
 10
2288.1600922442303
 20
1138.5700987915284
 11
2288.1600922442303
 21
1118.5700987915284
  0
ARC
  8
_0-3_0
  6
CONTINUOUS
 62
   18
 10
2282.1600922442308
 20
1118.5700987915284
 40
6
 50
180
 51
0
  0
LINE
  8
_0-3_0
  6
CONTINUOUS
 62
   18
 10
2276.1600922442303
 20
1118.5700987915284
 11
2276.1600922442303
 21
1138.5700987915284
  0
ARC
  8
_0-3_0
  6
CONTINUOUS
 62
   18
 10
2282.1600922442308
 20
1138.5700987915284
 40
6
 50
0
 51
180
  0
LINE
  8
_0-4_05_CENTER
  6
CENTER2
 62
    4
 10
2294.1600922442303
 20
1128.5700987915284
 11
2270.1600922442303
 21
1128.5700987915284
  0
LINE
  8
_0-4_05_CENTER
  6
CENTER2
 62
    4
 10
2282.1600922442308
 20
1106.5700987915293
 11
2282.1600922442308
 21
1150.5700987915293
  0
LINE
  8
_0-4_05_CENTER
  6
CENTER2
 62
    4
 10
2294.1600922442303
 20
1138.5700987915293
 11
2270.1600922442303
 21
1138.5700987915293
  0
LINE
  8
_0-4_05_CENTER
  6
CENTER2
 62
    4
 10
2294.1600922442303
 20
1118.5700987915293
 11
2270.1600922442303
 21
1118.5700987915293
  0
LINE
  8
_0-4_05_CENTER
  6
CENTER2
 62
    4
 10
2122.160092243525
 20
1172.7553985190602
 11
2122.160092243525
 21
1016.7649867674331
  0
LINE
  8
_0-4_05_CENTER
  6
CENTER2
 62
    4
 10
1162.1600922427099
 20
1039.2290479801409
 11
1162.1600922427099
 21
1057.9111496029468
  0
CIRCLE
  8
_0-3_0
  6
CONTINUOUS
 62
   18
 10
1162.1600922427099
 20
1048.5700987915293
 40
6
  0
LINE
  8
_0-4_05_CENTER
  6
CENTER2
 62
    4
 10
1171.5011430540981
 20
1048.5700987915293
 11
1152.8190414312924
 21
1048.5700987915293
  0
LINE
  8
_0-4_05_CENTER
  6
CENTER2
 62
    4
 10
3082.1600922443395
 20
1039.2290479801409
 11
3082.1600922443395
 21
1057.9111496029468
  0
CIRCLE
  8
_0-3_0
  6
CONTINUOUS
 62
   18
 10
3082.1600922443395
 20
1048.5700987915293
 40
6
  0
LINE
  8
_0-4_05_CENTER
  6
CENTER2
 62
    4
 10
3072.8190414329515
 20
1048.5700987915293
 11
3091.5011430557429
 21
1048.5700987915293
  0
LINE
  8
_0-3_0
  6
CONTINUOUS
 62
   18
 10
1144.1600922435248
 20
1033.5700987915293
 11
3100.1600922435246
 21
1033.5700987915302
  0
LINE
  8
_0-3_0
  6
CONTINUOUS
 62
   18
 10
3100.1600922435246
 20
1033.5700987915302
 11
3102.160092243525
 21
1035.5700987915302
  0
LINE
  8
_0-3_0
  6
CONTINUOUS
 62
   18
 10
3102.160092243525
 20
1035.5700987915302
 11
3102.160092243525
 21
1151.5700987915302
  0
LINE
  8
_0-3_0
  6
CONTINUOUS
 62
   18
 10
3102.160092243525
 20
1151.5700987915302
 11
3100.1600922435246
 21
1153.5700987915302
  0
LINE
  8
_0-3_0
  6
CONTINUOUS
 62
   18
 10
3100.1600922435246
 20
1153.5700987915302
 11
1144.1600922435248
 21
1153.5700987915293
  0
LINE
  8
_0-3_0
  6
CONTINUOUS
 62
   18
 10
1144.1600922435248
 20
1153.5700987915293
 11
1142.1600922435246
 21
1151.5700987915293
  0
LINE
  8
_0-3_0
  6
CONTINUOUS
 62
   18
 10
1142.1600922435246
 20
1151.5700987915293
 11
1142.1600922435246
 21
1035.5700987915293
  0
LINE
  8
_0-3_0
  6
CONTINUOUS
 62
   18
 10
1142.1600922435246
 20
1035.5700987915293
 11
1144.1600922435248
 21
1033.5700987915293
  0
LINE
  8
_0-3_0
  6
CONTINUOUS
 62
   18
 10
1120.6600922410507
 20
1988.4710681755712
 11
3123.6600922410362
 21
1988.4710681755712
  0
LINE
  8
_0-3_0
  6
CONTINUOUS
 62
   18
 10
3123.6600922410362
 20
1988.4710681755712
 11
3125.1600922410366
 21
1989.9710681755712
  0
LINE
  8
_0-3_0
  6
CONTINUOUS
 62
   18
 10
3125.1600922410366
 20
1989.9710681755712
 11
3125.1600922410366
 21
2006.9710681755712
  0
LINE
  8
_0-3_0
  6
CONTINUOUS
 62
   18
 10
3125.1600922410366
 20
2006.9710681755712
 11
3123.6600922410362
 21
2008.4710681755707
  0
LINE
  8
_0-3_0
  6
CONTINUOUS
 62
   18
 10
3123.6600922410362
 20
2008.4710681755707
 11
1120.6600922410362
 21
2008.4710681755707
  0
LINE
  8
_0-3_0
  6
CONTINUOUS
 62
   18
 10
1120.6600922410362
 20
2008.4710681755707
 11
1119.1600922410364
 21
2006.9710681755712
  0
LINE
  8
_0-3_0
  6
CONTINUOUS
 62
   18
 10
1119.1600922410364
 20
2006.9710681755712
 11
1119.160092241051
 21
1989.9710681755712
  0
LINE
  8
_0-3_0
  6
CONTINUOUS
 62
   18
 10
1119.160092241051
 20
1989.9710681755712
 11
1120.6600922410507
 21
1988.4710681755712
  0
LINE
  8
_0-3_0
  6
CONTINUOUS
 62
   18
 10
1142.1600922410437
 20
1988.4710681755712
 11
3102.1600922410435
 21
1988.4710681755712
  0
LINE
  8
_0-3_0
  6
CONTINUOUS
 62
   18
 10
3102.1600922410435
 20
1988.4710681755712
 11
3102.1600922410435
 21
1983.471068175571
  0
LINE
  8
_0-3_0
  6
CONTINUOUS
 62
   18
 10
3102.1600922410435
 20
1983.471068175571
 11
1142.1600922410437
 21
1983.471068175571
  0
LINE
  8
_0-3_0
  6
CONTINUOUS
 62
   18
 10
1142.1600922410437
 20
1983.471068175571
 11
1142.1600922410437
 21
1988.4710681755712
  0
LINE
  8
_0-3_0
  6
CONTINUOUS
 62
    3
 10
1142.1600922410437
 20
1988.4710681755712
 11
1142.1600922410437
 21
1986.971068175571
  0
LINE
  8
_0-3_0
  6
CONTINUOUS
 62
    3
 10
1142.1600922410437
 20
1986.971068175571
 11
1140.6600922410435
 21
1988.4710681755712
  0
LINE
  8
_0-3_0
  6
CONTINUOUS
 62
    3
 10
1140.6600922410435
 20
1988.4710681755712
 11
1142.1600922410437
 21
1988.4710681755712
  0
LINE
  8
_0-3_0
  6
CONTINUOUS
 62
    3
 10
3102.1600922410435
 20
1988.4710681755712
 11
3102.1600922410435
 21
1986.971068175571
  0
LINE
  8
_0-3_0
  6
CONTINUOUS
 62
    3
 10
3102.1600922410435
 20
1986.971068175571
 11
3103.6600922410435
 21
1988.4710681755712
  0
LINE
  8
_0-3_0
  6
CONTINUOUS
 62
    3
 10
3103.6600922410435
 20
1988.4710681755712
 11
3102.1600922410435
 21
1988.4710681755712
  0
LINE
  8
_0-5_10_DRAFT
  6
CONTINUOUS
 62
    8
 10
2122.1600922410435
 20
1983.471068175571
 11
2122.1600922410435
 21
2008.4710681755707
  0
LINE
  8
_0-4_05_CENTER
  6
CENTER2
 62
    4
 10
1162.1600922382424
 20
1977.6608917918595
 11
1162.1600922382424
 21
1994.2701791427348
  0
LINE
  8
_0-4_05_CENTER
  6
CENTER2
 62
    4
 10
1322.1600922365687
 20
1977.6608917918595
 11
1322.1600922365687
 21
1994.2701791427348
  0
LINE
  8
_0-4_05_CENTER
  6
CENTER2
 62
    4
 10
1482.160092236569
 20
1977.6608917918595
 11
1482.160092236569
 21
1994.2701791427348
  0
LINE
  8
_0-4_05_CENTER
  6
CENTER2
 62
    4
 10
1642.160092236569
 20
1977.6608917918595
 11
1642.160092236569
 21
1994.2701791427348
  0
LINE
  8
_0-4_05_CENTER
  6
CENTER2
 62
    4
 10
1802.1600922365687
 20
1977.6608917918595
 11
1802.1600922365687
 21
1994.2701791427348
  0
LINE
  8
_0-4_05_CENTER
  6
CENTER2
 62
    4
 10
1962.160092236569
 20
1977.6608917918595
 11
1962.160092236569
 21
1994.2701791427348
  0
LINE
  8
_0-4_05_CENTER
  6
CENTER2
 62
    4
 10
2122.1600922365687
 20
1977.6608917918595
 11
2122.1600922365687
 21
1994.2701791427348
  0
LINE
  8
_0-4_05_CENTER
  6
CENTER2
 62
    4
 10
3082.1600922438452
 20
1977.6608917918595
 11
3082.1600922438452
 21
1994.2701791427348
  0
LINE
  8
_0-4_05_CENTER
  6
CENTER2
 62
    4
 10
2922.1600922455186
 20
1977.6608917918595
 11
2922.1600922455186
 21
1994.2701791427348
  0
LINE
  8
_0-4_05_CENTER
  6
CENTER2
 62
    4
 10
2762.1600922455186
 20
1977.6608917918595
 11
2762.1600922455186
 21
1994.2701791427348
  0
LINE
  8
_0-4_05_CENTER
  6
CENTER2
 62
    4
 10
2602.1600922455186
 20
1977.6608917918595
 11
2602.1600922455186
 21
1994.2701791427348
  0
LINE
  8
_0-4_05_CENTER
  6
CENTER2
 62
    4
 10
2442.1600922455182
 20
1977.6608917918595
 11
2442.1600922455182
 21
1994.2701791427348
  0
LINE
  8
_0-4_05_CENTER
  6
CENTER2
 62
    4
 10
2282.1600922455182
 20
1977.6608917918595
 11
2282.1600922455182
 21
1994.2701791427348
  0
LINE
  8
_0-4_05_CENTER
  6
CENTER2
 62
    4
 10
3142.2519062178544
 20
1998.471068172435
 11
1102.0682782677834
 21
1998.471068172435
  0
LINE
  8
_0-3_0
  6
CONTINUOUS
 62
   18
 10
1119.1600922520668
 20
1990.971068174016
 11
1108.1600922442815
 21
1990.971068174003
  0
LINE
  8
_0-3_0
  6
CONTINUOUS
 62
   18
 10
1108.1600922442815
 20
1990.971068174003
 11
1107.1600922442815
 21
1991.9710681740032
  0
LINE
  8
_0-3_0
  6
CONTINUOUS
 62
   18
 10
1107.1600922442815
 20
1991.9710681740032
 11
1107.1600922442815
 21
2004.97106817548
  0
LINE
  8
_0-3_0
  6
CONTINUOUS
 62
   18
 10
1107.1600922442815
 20
2004.97106817548
 11
1108.1600922442815
 21
2005.9710681754802
  0
LINE
  8
_0-3_0
  6
CONTINUOUS
 62
   18
 10
1108.1600922442815
 20
2005.9710681754802
 11
1119.1600922520668
 21
2005.9710681754927
  0
LINE
  8
_0-3_0
  6
CONTINUOUS
 62
   18
 10
1108.1600922442815
 20
2005.9710681754802
 11
1108.1600922442815
 21
1990.971068174003
  0
LINE
  8
_0-3_0
  6
CONTINUOUS
 62
   18
 10
3125.1600922408693
 20
1990.971068174016
 11
3136.1600922486546
 21
1990.971068174003
  0
LINE
  8
_0-3_0
  6
CONTINUOUS
 62
   18
 10
3136.1600922486546
 20
1990.971068174003
 11
3137.1600922486541
 21
1991.9710681740032
  0
LINE
  8
_0-3_0
  6
CONTINUOUS
 62
   18
 10
3137.1600922486541
 20
1991.9710681740032
 11
3137.1600922486541
 21
2004.97106817548
  0
LINE
  8
_0-3_0
  6
CONTINUOUS
 62
   18
 10
3137.1600922486541
 20
2004.97106817548
 11
3136.1600922486546
 21
2005.9710681754802
  0
LINE
  8
_0-3_0
  6
CONTINUOUS
 62
   18
 10
3136.1600922486546
 20
2005.9710681754802
 11
3125.1600922408693
 21
2005.9710681754927
  0
LINE
  8
_0-3_0
  6
CONTINUOUS
 62
   18
 10
3136.1600922486546
 20
2005.9710681754802
 11
3136.1600922486546
 21
1990.971068174003
  0
LINE
  8
_0-3_0
  6
CONTINUOUS
 62
   18
 10
3123.6600922410362
 20
2008.4710681755707
 11
3123.6600922410362
 21
1988.4710681755712
  0
LINE
  8
_0-3_0
  6
CONTINUOUS
 62
   18
 10
1120.6600922410362
 20
2008.4710681755707
 11
1120.6600922410362
 21
1988.4710681755712
  0
LINE
  8
_0-4_05_CENTER
  6
CENTER2
 62
    4
 10
931.03480710359156
 20
1714.4533034013261
 11
955.05521040728502
 21
1714.453303401832
  0
LINE
  8
_0-4_05_CENTER
  6
CENTER2
 62
    4
 10
943.04500875619863
 20
1702.4431017456777
 11
943.04500875568931
 21
1726.4635050493714
  0
LINE
  8
_0-3_0
  6
CONTINUOUS
 62
   18
 10
953.04500875564565
 20
1704.4533033977355
 11
933.04500875564565
 21
1704.4533033973146
  0
LINE
  8
_0-3_0
  6
CONTINUOUS
 62
   18
 10
933.04500875564565
 20
1704.4533033973146
 11
933.04500875522365
 21
1724.4533033973144
  0
LINE
  8
_0-3_0
  6
CONTINUOUS
 62
   18
 10
933.04500875522365
 20
1724.4533033973144
 11
953.04500875522365
 21
1724.4533033977355
  0
LINE
  8
_0-3_0
  6
CONTINUOUS
 62
   18
 10
953.04500875522365
 20
1724.4533033977355
 11
953.04500875564565
 21
1704.4533033977355
  0
CIRCLE
  8
_0-3_0
  6
CONTINUOUS
 62
   18
 10
943.04500875544193
 20
1714.4533033975245
 40
7.5000000000000009
  0
LINE
  8
_0-3_0
  6
CONTINUOUS
 62
   18
 10
953.04500875564565
 20
1701.4533033977375
 11
958.04500875564565
 21
1701.4533033977375
  0
LINE
  8
_0-3_0
  6
CONTINUOUS
 62
   18
 10
958.04500875564565
 20
1701.4533033977375
 11
958.04500875564565
 21
1759.4533033977364
  0
LINE
  8
_0-3_0
  6
CONTINUOUS
 62
   18
 10
958.04500875564565
 20
1759.4533033977364
 11
953.04500875564565
 21
1759.4533033977375
  0
LINE
  8
_0-3_0
  6
CONTINUOUS
 62
   18
 10
953.04500875564565
 20
1759.4533033977375
 11
953.04500875564565
 21
1701.4533033977375
  0
LINE
  8
_0-3_0
  6
CONTINUOUS
 62
    3
 10
953.04500875522365
 20
1724.4533033977355
 11
951.54500875522365
 21
1724.4533033977366
  0
LINE
  8
_0-3_0
  6
CONTINUOUS
 62
    3
 10
951.54500875522365
 20
1724.4533033977366
 11
953.04500875522365
 21
1725.9533033977357
  0
LINE
  8
_0-3_0
  6
CONTINUOUS
 62
    3
 10
953.04500875522365
 20
1725.9533033977357
 11
953.04500875522365
 21
1724.4533033977355
  0
LINE
  8
_0-3_0
  6
CONTINUOUS
 62
    3
 10
953.04500875522365
 20
1704.453303405928
 11
951.54500875522365
 21
1704.4533034059264
  0
LINE
  8
_0-3_0
  6
CONTINUOUS
 62
    3
 10
951.54500875522365
 20
1704.4533034059264
 11
953.04500875522365
 21
1702.9533034059282
  0
LINE
  8
_0-3_0
  6
CONTINUOUS
 62
    3
 10
953.04500875522365
 20
1702.9533034059282
 11
953.04500875522365
 21
1704.453303405928
  0
LINE
  8
_0-4_05_CENTER
  6
CENTER2
 62
    4
 10
963.77978539767378
 20
1739.4533033977355
 11
947.67190210625279
 21
1739.4533033977364
  0
LINE
  8
_0-3_0
  6
CONTINUOUS
 62
    3
 10
951.04500875560188
 20
1706.4533033976936
 11
935.045008755602
 21
1706.4533033973562
  0
LINE
  8
_0-3_0
  6
CONTINUOUS
 62
    3
 10
935.045008755602
 20
1706.4533033973562
 11
935.04500875526742
 21
1722.4533033973562
  0
LINE
  8
_0-3_0
  6
CONTINUOUS
 62
    3
 10
935.04500875526742
 20
1722.4533033973562
 11
951.0450087552673
 21
1722.4533033976936
  0
LINE
  8
_0-3_0
  6
CONTINUOUS
 62
    3
 10
951.0450087552673
 20
1722.4533033976936
 11
951.04500875560188
 21
1706.4533033976936
  0
LINE
  8
_0-3_0
  6
CONTINUOUS
 62
    3
 10
935.04500875526742
 20
1722.4533033973562
 11
933.04500875522365
 21
1724.4533033973144
  0
LINE
  8
_0-3_0
  6
CONTINUOUS
 62
    3
 10
951.04500875611132
 20
1722.4533033973562
 11
953.04500875615508
 21
1724.4533033973144
  0
LINE
  8
_0-3_0
  6
CONTINUOUS
 62
    3
 10
935.04500875526742
 20
1706.4533034058018
 11
933.04500875522365
 21
1704.4533034058438
  0
LINE
  8
_0-3_0
  6
CONTINUOUS
 62
    3
 10
951.04500875611132
 20
1706.4533034058018
 11
953.04500875615508
 21
1704.4533034058438
  0
LINE
  8
_0-4_05_CENTER
  6
CENTER2
 62
    4
 10
3142.2519062178544
 20
1714.4533034027122
 11
1102.0682782677759
 21
1714.4533034027122
  0
LINE
  8
_0-3_0
  6
CONTINUOUS
 62
   18
 10
1142.1600922464643
 20
1724.4533034042802
 11
1120.660092246464
 21
1724.4533034042795
  0
LINE
  8
_0-3_0
  6
CONTINUOUS
 62
   18
 10
1120.660092246464
 20
1724.4533034042795
 11
1119.1600922464643
 21
1722.9533034042793
  0
LINE
  8
_0-3_0
  6
CONTINUOUS
 62
   18
 10
1119.1600922464643
 20
1722.9533034042793
 11
1119.1600922464643
 21
1705.9533034042804
  0
LINE
  8
_0-3_0
  6
CONTINUOUS
 62
   18
 10
1119.1600922464643
 20
1705.9533034042804
 11
1120.660092246464
 21
1704.4533034042802
  0
LINE
  8
_0-3_0
  6
CONTINUOUS
 62
   18
 10
1120.660092246464
 20
1704.4533034042802
 11
1142.1600922464643
 21
1704.4533034042802
  0
LINE
  8
_0-6_04_HIDDEN
  6
CONTINUOUS
 62
    7
 10
1142.1600922464643
 20
1704.4533034042802
 11
3102.1600922464645
 21
1704.4533034042802
  0
LINE
  8
_0-3_0
  6
CONTINUOUS
 62
   18
 10
3102.1600922464645
 20
1704.4533034042802
 11
3123.6600922464645
 21
1704.4533034042795
  0
LINE
  8
_0-3_0
  6
CONTINUOUS
 62
   18
 10
3123.6600922464645
 20
1704.4533034042795
 11
3125.1600922464645
 21
1705.9533034042793
  0
LINE
  8
_0-3_0
  6
CONTINUOUS
 62
   18
 10
3125.1600922464645
 20
1705.9533034042793
 11
3125.1600922464645
 21
1722.9533034042804
  0
LINE
  8
_0-3_0
  6
CONTINUOUS
 62
   18
 10
3125.1600922464645
 20
1722.9533034042804
 11
3123.6600922464645
 21
1724.4533034042802
  0
LINE
  8
_0-3_0
  6
CONTINUOUS
 62
   18
 10
3123.6600922464645
 20
1724.4533034042802
 11
3102.1600922464645
 21
1724.4533034042802
  0
LINE
  8
_0-6_04_HIDDEN
  6
CONTINUOUS
 62
    7
 10
3102.1600922464645
 20
1724.4533034042802
 11
1142.1600922464643
 21
1724.4533034042802
  0
LINE
  8
_0-3_0
  6
CONTINUOUS
 62
   18
 10
1144.1600922464643
 20
1759.4533034033252
 11
3100.160092246464
 21
1759.4533034033252
  0
LINE
  8
_0-3_0
  6
CONTINUOUS
 62
   18
 10
3100.160092246464
 20
1759.4533034033252
 11
3102.1600922464645
 21
1757.4533034033252
  0
LINE
  8
_0-3_0
  6
CONTINUOUS
 62
   18
 10
3102.1600922464645
 20
1757.4533034033252
 11
3102.1600922464645
 21
1703.4533034033254
  0
LINE
  8
_0-3_0
  6
CONTINUOUS
 62
   18
 10
3102.1600922464645
 20
1703.4533034033254
 11
3100.160092246464
 21
1701.4533034033254
  0
LINE
  8
_0-3_0
  6
CONTINUOUS
 62
   18
 10
3100.160092246464
 20
1701.4533034033254
 11
1144.1600922464643
 21
1701.4533034033254
  0
LINE
  8
_0-3_0
  6
CONTINUOUS
 62
   18
 10
1144.1600922464643
 20
1701.4533034033254
 11
1142.1600922464643
 21
1703.4533034033254
  0
LINE
  8
_0-3_0
  6
CONTINUOUS
 62
   18
 10
1142.1600922464643
 20
1703.4533034033254
 11
1142.1600922464643
 21
1757.4533034033252
  0
LINE
  8
_0-3_0
  6
CONTINUOUS
 62
   18
 10
1142.1600922464643
 20
1757.4533034033252
 11
1144.1600922464643
 21
1759.4533034033252
  0
LINE
  8
_0-4_05_CENTER
  6
CENTER2
 62
    4
 10
2122.160092246464
 20
1772.3791498859396
 11
2122.160092246464
 21
1688.0054182732172
  0
LINE
  8
_0-4_05_CENTER
  6
CENTER2
 62
    4
 10
1162.1600922436558
 20
1730.1122525919368
 11
1162.1600922436558
 21
1748.7943542147427
  0
CIRCLE
  8
_0-3_0
  6
CONTINUOUS
 62
   18
 10
1162.1600922436558
 20
1739.4533034033254
 40
6
  0
LINE
  8
_0-4_05_CENTER
  6
CENTER2
 62
    4
 10
1171.5011430550442
 20
1739.4533034033254
 11
1152.8190414322526
 21
1739.4533034033254
  0
LINE
  8
_0-4_05_CENTER
  6
CENTER2
 62
    4
 10
1322.1600922419893
 20
1730.1122525919368
 11
1322.1600922419893
 21
1748.7943542147427
  0
CIRCLE
  8
_0-3_0
  6
CONTINUOUS
 62
   18
 10
1322.1600922419893
 20
1739.4533034033254
 40
6
  0
LINE
  8
_0-4_05_CENTER
  6
CENTER2
 62
    4
 10
1331.501143053378
 20
1739.4533034033254
 11
1312.8190414305793
 21
1739.4533034033254
  0
LINE
  8
_0-4_05_CENTER
  6
CENTER2
 62
    4
 10
1482.1600922419896
 20
1730.1122525919368
 11
1482.1600922419896
 21
1748.7943542147427
  0
CIRCLE
  8
_0-3_0
  6
CONTINUOUS
 62
   18
 10
1482.1600922419896
 20
1739.4533034033254
 40
6
  0
LINE
  8
_0-4_05_CENTER
  6
CENTER2
 62
    4
 10
1491.501143053378
 20
1739.4533034033254
 11
1472.8190414305793
 21
1739.4533034033254
  0
LINE
  8
_0-4_05_CENTER
  6
CENTER2
 62
    4
 10
1642.1600922419896
 20
1730.1122525919368
 11
1642.1600922419896
 21
1748.7943542147427
  0
CIRCLE
  8
_0-3_0
  6
CONTINUOUS
 62
   18
 10
1642.1600922419896
 20
1739.4533034033254
 40
6
  0
LINE
  8
_0-4_05_CENTER
  6
CENTER2
 62
    4
 10
1651.501143053378
 20
1739.4533034033254
 11
1632.8190414305793
 21
1739.4533034033254
  0
LINE
  8
_0-4_05_CENTER
  6
CENTER2
 62
    4
 10
1802.1600922419896
 20
1730.1122525919368
 11
1802.1600922419896
 21
1748.7943542147427
  0
CIRCLE
  8
_0-3_0
  6
CONTINUOUS
 62
   18
 10
1802.1600922419896
 20
1739.4533034033254
 40
6
  0
LINE
  8
_0-4_05_CENTER
  6
CENTER2
 62
    4
 10
1811.501143053378
 20
1739.4533034033254
 11
1792.8190414305791
 21
1739.4533034033254
  0
LINE
  8
_0-4_05_CENTER
  6
CENTER2
 62
    4
 10
1962.1600922419896
 20
1730.1122525919368
 11
1962.1600922419896
 21
1748.7943542147427
  0
CIRCLE
  8
_0-3_0
  6
CONTINUOUS
 62
   18
 10
1962.1600922419896
 20
1739.4533034033254
 40
6
  0
LINE
  8
_0-4_05_CENTER
  6
CENTER2
 62
    4
 10
1971.501143053378
 20
1739.4533034033254
 11
1952.8190414305793
 21
1739.4533034033254
  0
LINE
  8
_0-4_05_CENTER
  6
CENTER2
 62
    4
 10
2122.1600922419893
 20
1730.1122525919368
 11
2122.1600922419893
 21
1748.7943542147427
  0
CIRCLE
  8
_0-3_0
  6
CONTINUOUS
 62
   18
 10
2122.1600922419893
 20
1739.4533034033254
 40
6
  0
LINE
  8
_0-4_05_CENTER
  6
CENTER2
 62
    4
 10
2131.5011430533777
 20
1739.4533034033254
 11
2112.8190414305795
 21
1739.4533034033254
  0
LINE
  8
_0-4_05_CENTER
  6
CENTER2
 62
    4
 10
3082.160092249273
 20
1730.1122525919368
 11
3082.160092249273
 21
1748.7943542147427
  0
CIRCLE
  8
_0-3_0
  6
CONTINUOUS
 62
   18
 10
3082.160092249273
 20
1739.4533034033254
 40
6
  0
LINE
  8
_0-4_05_CENTER
  6
CENTER2
 62
    4
 10
3072.8190414378842
 20
1739.4533034033254
 11
3091.5011430606755
 21
1739.4533034033254
  0
LINE
  8
_0-4_05_CENTER
  6
CENTER2
 62
    4
 10
2922.1600922509388
 20
1730.1122525919368
 11
2922.1600922509388
 21
1748.7943542147427
  0
CIRCLE
  8
_0-3_0
  6
CONTINUOUS
 62
   18
 10
2922.1600922509388
 20
1739.4533034033254
 40
6
  0
LINE
  8
_0-4_05_CENTER
  6
CENTER2
 62
    4
 10
2912.8190414395503
 20
1739.4533034033254
 11
2931.501143062349
 21
1739.4533034033254
  0
LINE
  8
_0-4_05_CENTER
  6
CENTER2
 62
    4
 10
2762.1600922509388
 20
1730.1122525919368
 11
2762.1600922509388
 21
1748.7943542147427
  0
CIRCLE
  8
_0-3_0
  6
CONTINUOUS
 62
   18
 10
2762.1600922509388
 20
1739.4533034033254
 40
6
  0
LINE
  8
_0-4_05_CENTER
  6
CENTER2
 62
    4
 10
2752.8190414395503
 20
1739.4533034033254
 11
2771.501143062349
 21
1739.4533034033254
  0
LINE
  8
_0-4_05_CENTER
  6
CENTER2
 62
    4
 10
2602.1600922509392
 20
1730.1122525919368
 11
2602.1600922509392
 21
1748.7943542147427
  0
CIRCLE
  8
_0-3_0
  6
CONTINUOUS
 62
   18
 10
2602.1600922509392
 20
1739.4533034033254
 40
6
  0
LINE
  8
_0-4_05_CENTER
  6
CENTER2
 62
    4
 10
2592.8190414395503
 20
1739.4533034033254
 11
2611.501143062349
 21
1739.4533034033254
  0
LINE
  8
_0-4_05_CENTER
  6
CENTER2
 62
    4
 10
2442.1600922509392
 20
1730.1122525919368
 11
2442.1600922509392
 21
1748.7943542147427
  0
CIRCLE
  8
_0-3_0
  6
CONTINUOUS
 62
   18
 10
2442.1600922509392
 20
1739.4533034033254
 40
6
  0
LINE
  8
_0-4_05_CENTER
  6
CENTER2
 62
    4
 10
2432.8190414395508
 20
1739.4533034033254
 11
2451.501143062349
 21
1739.4533034033254
  0
LINE
  8
_0-4_05_CENTER
  6
CENTER2
 62
    4
 10
2282.1600922509388
 20
1730.1122525919368
 11
2282.1600922509388
 21
1748.7943542147427
  0
CIRCLE
  8
_0-3_0
  6
CONTINUOUS
 62
   18
 10
2282.1600922509388
 20
1739.4533034033254
 40
6
  0
LINE
  8
_0-4_05_CENTER
  6
CENTER2
 62
    4
 10
2272.8190414395508
 20
1739.4533034033254
 11
2291.501143062349
 21
1739.4533034033254
  0
LINE
  8
_0-3_0
  6
CONTINUOUS
 62
   18
 10
1119.1600922520668
 20
1706.9533034042929
 11
1108.1600922442815
 21
1706.9533034042804
  0
LINE
  8
_0-3_0
  6
CONTINUOUS
 62
   18
 10
1108.1600922442815
 20
1706.9533034042804
 11
1107.1600922442815
 21
1707.9533034042802
  0
LINE
  8
_0-3_0
  6
CONTINUOUS
 62
   18
 10
1107.1600922442815
 20
1707.9533034042802
 11
1107.1600922442815
 21
1720.9533034057572
  0
LINE
  8
_0-3_0
  6
CONTINUOUS
 62
   18
 10
1107.1600922442815
 20
1720.9533034057572
 11
1108.1600922442815
 21
1721.9533034057574
  0
LINE
  8
_0-3_0
  6
CONTINUOUS
 62
   18
 10
1108.1600922442815
 20
1721.9533034057574
 11
1119.1600922520668
 21
1721.9533034057699
  0
LINE
  8
_0-3_0
  6
CONTINUOUS
 62
   18
 10
1108.1600922442815
 20
1721.9533034057574
 11
1108.1600922442815
 21
1706.9533034042804
  0
LINE
  8
_0-3_0
  6
CONTINUOUS
 62
   18
 10
3125.160092240862
 20
1706.9533034042929
 11
3136.1600922486468
 21
1706.9533034042804
  0
LINE
  8
_0-3_0
  6
CONTINUOUS
 62
   18
 10
3136.1600922486468
 20
1706.9533034042804
 11
3137.1600922486473
 21
1707.9533034042802
  0
LINE
  8
_0-3_0
  6
CONTINUOUS
 62
   18
 10
3137.1600922486473
 20
1707.9533034042802
 11
3137.1600922486473
 21
1720.9533034057572
  0
LINE
  8
_0-3_0
  6
CONTINUOUS
 62
   18
 10
3137.1600922486473
 20
1720.9533034057572
 11
3136.1600922486468
 21
1721.9533034057574
  0
LINE
  8
_0-3_0
  6
CONTINUOUS
 62
   18
 10
3136.1600922486468
 20
1721.9533034057574
 11
3125.160092240862
 21
1721.9533034057699
  0
LINE
  8
_0-3_0
  6
CONTINUOUS
 62
   18
 10
3136.1600922486468
 20
1721.9533034057574
 11
3136.1600922486468
 21
1706.9533034042804
  0
LINE
  8
_0-3_0
  6
CONTINUOUS
 62
   18
 10
3123.6600922464645
 20
1724.4533034042802
 11
3123.6600922464645
 21
1704.4533034042795
  0
LINE
  8
_0-3_0
  6
CONTINUOUS
 62
   18
 10
1120.660092246464
 20
1724.4533034042802
 11
1120.660092246464
 21
1704.4533034042795
  0
LINE
  8
_0-4_05_CENTER
  6
CENTER2
 62
    4
 10
1162.1600922436558
 20
1739.45330340334
 11
3082.1600922492798
 21
1739.4533034033254
  0
LINE
  8
_0-4_05_CENTER
  6
CENTER2
 62
    4
 10
1162.1600922436412
 20
1128.5700987915284
 11
3082.1600922443472
 21
1128.5700987915284
  0
LINE
  8
_0-4_05_CENTER
  6
CENTER2
 62
    4
 10
3082.1600922443472
 20
1128.5700987915284
 11
3082.1600922443472
 21
1048.5700987915293
  0
LINE
  8
_0-4_05_CENTER
  6
CENTER2
 62
    4
 10
3082.1600922443472
 20
1048.5700987915293
 11
1162.1600922436412
 21
1048.5700987915293
  0
LINE
  8
_0-4_05_CENTER
  6
CENTER2
 62
    4
 10
1162.1600922436412
 20
1048.5700987915293
 11
1162.1600922436412
 21
1128.5700987915284
  0
INSERT
  2
-001-p1ba02
  8
_0-2_08_DIM
 10
1081.6956486391573
 20
1721.9533034011479
 41
3
 42
3
 50
0
  0
INSERT
  2
-002-p1ba01
  8
_0-2_08_DIM
 10
1119.1600922464643
 20
1877.9687253332354
 41
3
 42
3
 50
90
  0
INSERT
  2
-002-p1ba01
  8
_0-2_08_DIM
 10
1107.1600922442815
 20
1909.3525354607386
 41
3
 42
3
 50
90
  0
INSERT
  2
-001-p1ba02
  8
_0-2_08_DIM
 10
3167.9044852915381
 20
1721.9533034011479
 41
-3
 42
3
 50
0
  0
LINE
  8
_0-2_08_DIM
  6
CONTINUOUS
 62
    3
 10
1008.2939460740764
 20
1269.8076474405423
 11
1084.9935965389986
 21
1269.8076474405423
  0
INSERT
  2
-000-p1ba05
  8
_0-2_08_DIM
 10
1052.9311539124149
 20
1273.910414966083
 41
4.5
 42
4.5
 50
0
  0
TEXT
  8
_0-0_90_FRAME
 62
    3
 10
2749.6630059426307
 20
718.24014181842233
 40
9
 41
1
 50
0
  1
103
  0
TEXT
  8
_0-0_90_FRAME
 62
    3
 10
2749.6630059426316
 20
739.24014293977314
 40
9
 41
1
 50
0
  1
104
  0
INSERT
  2
-006-Jis_w20130906110600
  8
_0-2_08_DIM
 10
3075.8146495077226
 20
824.41190171928997
 41
1.7999999999999998
 42
1.7999999999999998
 50
0
  0
TEXT
  8
_0-0_90_FRAME
 62
    3
 10
3029.1321377589643
 20
718.39104184020232
 40
9
 41
1
 50
0
  1
2
  0
TEXT
  8
_0-0_90_FRAME
 62
    3
 10
2965.5412680536724
 20
718.59104186983916
 40
9
 41
1
 50
0
  1
SUS304
  0
TEXT
  8
_0-0_90_FRAME
 62
    3
 10
2790.5663797881753
 20
718.47166473150457
 40
9
 41
1
 50
0
  1
ÉůÉěéŔâEâFâCâg
  0
TEXT
  8
_0-0_90_FRAME
 62
    3
 10
3029.1321550886387
 20
739.39104184020232
 40
9
 41
1
 50
0
  1
2
  0
TEXT
  8
_0-0_90_FRAME
 62
    3
 10
2965.5412853833482
 20
739.59104186983916
 40
9
 41
1
 50
0
  1
SUS304
  0
TEXT
  8
_0-0_90_FRAME
 62
    3
 10
2790.5663971178506
 20
739.47166473150457
 40
9
 41
1
 50
0
  1
ëčéŽö┬3
  0
LINE
  8
_0-4_05_CENTER
  6
CENTER2
 62
    4
 10
931.03480710359156
 20
1531.6503991407267
 11
955.05521040728502
 21
1531.6503991412326
  0
LINE
  8
_0-4_05_CENTER
  6
CENTER2
 62
    4
 10
943.04500875619863
 20
1519.6401974850783
 11
943.04500875568931
 21
1543.6606007887717
  0
LINE
  8
_0-3_0
  6
CONTINUOUS
 62
   18
 10
953.04500875564565
 20
1521.650399137136
 11
933.04500875564565
 21
1521.6503991367151
  0
LINE
  8
_0-3_0
  6
CONTINUOUS
 62
   18
 10
933.04500875564565
 20
1521.6503991367151
 11
933.04500875522365
 21
1541.6503991367149
  0
LINE
  8
_0-3_0
  6
CONTINUOUS
 62
   18
 10
933.04500875522365
 20
1541.6503991367149
 11
953.04500875522365
 21
1541.650399137136
  0
LINE
  8
_0-3_0
  6
CONTINUOUS
 62
   18
 10
953.04500875522365
 20
1541.650399137136
 11
953.04500875564565
 21
1521.650399137136
  0
CIRCLE
  8
_0-3_0
  6
CONTINUOUS
 62
   18
 10
943.04500875544193
 20
1531.650399136925
 40
7.5000000000000009
  0
LINE
  8
_0-3_0
  6
CONTINUOUS
 62
   18
 10
953.04500875564565
 20
1521.6503991461757
 11
958.04500875564565
 21
1521.6503991461757
  0
LINE
  8
_0-3_0
  6
CONTINUOUS
 62
   18
 10
958.04500875564565
 20
1521.6503991461757
 11
958.04500875564565
 21
1576.6503991371369
  0
LINE
  8
_0-3_0
  6
CONTINUOUS
 62
   18
 10
958.04500875564565
 20
1576.6503991371369
 11
953.04500875564565
 21
1576.650399137138
  0
LINE
  8
_0-3_0
  6
CONTINUOUS
 62
   18
 10
953.04500875564565
 20
1576.650399137138
 11
953.04500875564565
 21
1521.6503991461757
  0
LINE
  8
_0-3_0
  6
CONTINUOUS
 62
    3
 10
953.04500875522365
 20
1541.650399137136
 11
951.54500875522365
 21
1541.6503991371371
  0
LINE
  8
_0-3_0
  6
CONTINUOUS
 62
    3
 10
951.54500875522365
 20
1541.6503991371371
 11
953.04500875522365
 21
1543.1503991371362
  0
LINE
  8
_0-3_0
  6
CONTINUOUS
 62
    3
 10
953.04500875522365
 20
1543.1503991371362
 11
953.04500875522365
 21
1541.650399137136
  0
LINE
  8
_0-3_0
  6
CONTINUOUS
 62
    3
 10
953.04500875522365
 20
1521.650399112305
 11
954.54500875522365
 21
1521.6503991123068
  0
LINE
  8
_0-3_0
  6
CONTINUOUS
 62
    3
 10
954.54500875522365
 20
1521.6503991123068
 11
953.04500875522365
 21
1523.1503991123052
  0
LINE
  8
_0-3_0
  6
CONTINUOUS
 62
    3
 10
953.04500875522365
 20
1523.1503991123052
 11
953.04500875522365
 21
1521.650399112305
  0
LINE
  8
_0-4_05_CENTER
  6
CENTER2
 62
    4
 10
963.77978539767378
 20
1556.650399137136
 11
947.67190210625279
 21
1556.6503991371371
  0
LINE
  8
_0-3_0
  6
CONTINUOUS
 62
    3
 10
951.04500875560188
 20
1523.6503991370942
 11
935.045008755602
 21
1523.6503991367567
  0
LINE
  8
_0-3_0
  6
CONTINUOUS
 62
    3
 10
935.045008755602
 20
1523.6503991367567
 11
935.04500875526742
 21
1539.6503991367567
  0
LINE
  8
_0-3_0
  6
CONTINUOUS
 62
    3
 10
935.04500875526742
 20
1539.6503991367567
 11
951.0450087552673
 21
1539.6503991370942
  0
LINE
  8
_0-3_0
  6
CONTINUOUS
 62
    3
 10
951.0450087552673
 20
1539.6503991370942
 11
951.04500875560188
 21
1523.6503991370942
  0
LINE
  8
_0-3_0
  6
CONTINUOUS
 62
    3
 10
935.04500875526742
 20
1539.6503991367567
 11
933.04500875522365
 21
1541.6503991367149
  0
LINE
  8
_0-3_0
  6
CONTINUOUS
 62
    3
 10
951.04500875611132
 20
1539.6503991367567
 11
953.04500875615508
 21
1541.6503991367149
  0
LINE
  8
_0-3_0
  6
CONTINUOUS
 62
    3
 10
935.04500875526742
 20
1523.6503991452023
 11
933.04500875522365
 21
1521.6503991452444
  0
LINE
  8
_0-3_0
  6
CONTINUOUS
 62
    3
 10
951.04500875611132
 20
1523.6503991452023
 11
953.04500875615508
 21
1521.6503991452444
  0
LINE
  8
_0-4_05_CENTER
  6
CENTER2
 62
    4
 10
2131.6997418052692
 20
1531.6503991421125
 11
1102.0682782716244
 21
1531.6503991421125
  0
LINE
  8
_0-3_0
  6
CONTINUOUS
 62
   18
 10
1142.1600922503126
 20
1521.6503991436807
 11
2166.9318997743812
 21
1521.6503991436807
  0
LINE
  8
_0-6_04_HIDDEN
  6
CONTINUOUS
 62
    7
 10
2122.1600922503126
 20
1541.6503991436807
 11
1142.1600922503126
 21
1541.6503991436807
  0
LINE
  8
_0-4_05_CENTER
  6
CENTER2
 62
    4
 10
1162.1600922475041
 20
1547.3093483313373
 11
1162.1600922475041
 21
1565.991449954143
  0
CIRCLE
  8
_0-3_0
  6
CONTINUOUS
 62
   18
 10
1162.1600922475041
 20
1556.650399142726
 40
6
  0
LINE
  8
_0-4_05_CENTER
  6
CENTER2
 62
    4
 10
1171.5011430588925
 20
1556.650399142726
 11
1152.8190414361009
 21
1556.650399142726
  0
LINE
  8
_0-4_05_CENTER
  6
CENTER2
 62
    4
 10
1322.1600922458376
 20
1547.3093483313373
 11
1322.1600922458376
 21
1565.991449954143
  0
CIRCLE
  8
_0-3_0
  6
CONTINUOUS
 62
   18
 10
1322.1600922458376
 20
1556.650399142726
 40
6
  0
LINE
  8
_0-4_05_CENTER
  6
CENTER2
 62
    4
 10
1331.501143057226
 20
1556.650399142726
 11
1312.8190414344276
 21
1556.650399142726
  0
LINE
  8
_0-4_05_CENTER
  6
CENTER2
 62
    4
 10
1482.1600922458379
 20
1547.3093483313373
 11
1482.1600922458379
 21
1565.991449954143
  0
CIRCLE
  8
_0-3_0
  6
CONTINUOUS
 62
   18
 10
1482.1600922458379
 20
1556.650399142726
 40
6
  0
LINE
  8
_0-4_05_CENTER
  6
CENTER2
 62
    4
 10
1491.501143057226
 20
1556.650399142726
 11
1472.8190414344274
 21
1556.650399142726
  0
LINE
  8
_0-4_05_CENTER
  6
CENTER2
 62
    4
 10
1642.1600922458376
 20
1547.3093483313373
 11
1642.1600922458376
 21
1565.991449954143
  0
CIRCLE
  8
_0-3_0
  6
CONTINUOUS
 62
   18
 10
1642.1600922458376
 20
1556.650399142726
 40
6
  0
LINE
  8
_0-4_05_CENTER
  6
CENTER2
 62
    4
 10
1651.5011430572263
 20
1556.650399142726
 11
1632.8190414344274
 21
1556.650399142726
  0
LINE
  8
_0-4_05_CENTER
  6
CENTER2
 62
    4
 10
1802.1600922458376
 20
1547.3093483313373
 11
1802.1600922458376
 21
1565.991449954143
  0
CIRCLE
  8
_0-3_0
  6
CONTINUOUS
 62
   18
 10
1802.1600922458376
 20
1556.650399142726
 40
6
  0
LINE
  8
_0-4_05_CENTER
  6
CENTER2
 62
    4
 10
1811.5011430572263
 20
1556.650399142726
 11
1792.8190414344276
 21
1556.650399142726
  0
LINE
  8
_0-4_05_CENTER
  6
CENTER2
 62
    4
 10
1962.1600922458379
 20
1547.3093483313373
 11
1962.1600922458379
 21
1565.991449954143
  0
CIRCLE
  8
_0-3_0
  6
CONTINUOUS
 62
   18
 10
1962.1600922458379
 20
1556.650399142726
 40
6
  0
LINE
  8
_0-4_05_CENTER
  6
CENTER2
 62
    4
 10
1971.501143057226
 20
1556.650399142726
 11
1952.8190414344276
 21
1556.650399142726
  0
LINE
  8
_0-3_0
  6
CONTINUOUS
 62
   18
 10
1119.1600922559151
 20
1524.1503991436934
 11
1108.1600922481298
 21
1524.1503991436807
  0
LINE
  8
_0-3_0
  6
CONTINUOUS
 62
   18
 10
1107.1600922481298
 20
1525.1503991436807
 11
1107.1600922481298
 21
1538.1503991451575
  0
LINE
  8
_0-3_0
  6
CONTINUOUS
 62
   18
 10
1107.1600922481298
 20
1538.1503991451575
 11
1108.1600922481298
 21
1539.150399145158
  0
LINE
  8
_0-3_0
  6
CONTINUOUS
 62
   18
 10
1108.1600922481298
 20
1539.150399145158
 11
1119.1600922559151
 21
1539.1503991451705
  0
LINE
  8
_0-3_0
  6
CONTINUOUS
 62
   18
 10
1108.1600922481298
 20
1539.150399145158
 11
1108.1600922481298
 21
1524.1503991436807
  0
LINE
  8
_0-3_0
  6
CONTINUOUS
 62
   18
 10
1120.6600922503126
 20
1541.6503991436807
 11
1120.6600922503126
 21
1521.6503991436798
  0
LINE
  8
_0-4_05_CENTER
  6
CENTER2
 62
    4
 10
1162.1600922475041
 20
1556.6503991427405
 11
2071.66708841951
 21
1556.6503991427335
  0
LINE
  8
_0-3_0
  6
CONTINUOUS
 62
   18
 10
1108.1600922481298
 20
1524.1503991436807
 11
1107.1600922481298
 21
1525.1503991436807
  0
LINE
  8
_0-3_0
  6
CONTINUOUS
 62
   18
 10
1142.1600922503126
 20
1541.6503991436807
 11
1120.6600922503126
 21
1541.6503991436798
  0
LINE
  8
_0-3_0
  6
CONTINUOUS
 62
   18
 10
1120.6600922503126
 20
1541.6503991436798
 11
1119.1600922503126
 21
1540.1503991436798
  0
LINE
  8
_0-3_0
  6
CONTINUOUS
 62
   18
 10
1119.1600922503126
 20
1540.1503991436798
 11
1119.1600922503126
 21
1523.1503991436807
  0
LINE
  8
_0-3_0
  6
CONTINUOUS
 62
   18
 10
1119.1600922503126
 20
1523.1503991436807
 11
1120.6600922503126
 21
1521.6503991436807
  0
LINE
  8
_0-3_0
  6
CONTINUOUS
 62
   18
 10
1120.6600922503126
 20
1521.6503991436807
 11
1142.1600922503126
 21
1521.6503991436807
  0
LINE
  8
_0-3_0
  6
CONTINUOUS
 62
    3
 10
953.04500875522365
 20
1521.6503991288171
 11
951.54500875522365
 21
1521.6503991288187
  0
LINE
  8
_0-3_0
  6
CONTINUOUS
 62
    3
 10
951.54500875522365
 20
1521.6503991288187
 11
953.04500875522365
 21
1523.1503991288168
  0
LINE
  8
_0-3_0
  6
CONTINUOUS
 62
    3
 10
953.04500875522365
 20
1523.1503991288168
 11
953.04500875522365
 21
1521.6503991288171
  0
LINE
  8
_0-3_0
  6
CONTINUOUS
 62
   18
 10
1144.1600922503126
 20
1576.6503991427257
 11
2067.5454450575767
 21
1576.6503991427257
  0
LINE
  8
_0-3_0
  6
CONTINUOUS
 62
   18
 10
2131.6997418052692
 20
1521.6503991436807
 11
1144.1600922503126
 21
1521.6503991436807
  0
LINE
  8
_0-3_0
  6
CONTINUOUS
 62
   18
 10
1144.1600922503126
 20
1521.6503991436807
 11
1142.1600922503126
 21
1523.6503991436807
  0
LINE
  8
_0-3_0
  6
CONTINUOUS
 62
   18
 10
1142.1600922503126
 20
1523.6503991436807
 11
1142.1600922503126
 21
1574.6503991427257
  0
LINE
  8
_0-3_0
  6
CONTINUOUS
 62
   18
 10
1142.1600922503126
 20
1574.6503991427257
 11
1144.1600922503126
 21
1576.6503991427257
  0
ARC
  8
_0-3_0
  6
CONTINUOUS
 62
    1
 10
1019.4805842879396
 20
1600.9439470105929
 40
24.910771956114719
 50
358.68511189121341
 51
108.6851117917231
  0
ARC
  8
_0-3_0
  6
CONTINUOUS
 62
    1
 10
1040.3240723624847
 20
1580.1631779266058
 40
20.613072879419381
 50
328.63856284399606
 51
78.638562744506231
  0
ARC
  8
_0-3_0
  6
CONTINUOUS
 62
    1
 10
1049.2226889255335
 20
1546.7136583726769
 40
24.331436550692846
 50
319.04210333642089
 51
69.042103236930785
  0
ARC
  8
_0-3_0
  6
CONTINUOUS
 62
    1
 10
1054.5904910418465
 20
1513.2175172090233
 40
21.842022441774755
 50
303.45117060824856
 51
53.451170508758551
  0
ARC
  8
_0-3_0
  6
CONTINUOUS
 62
    1
 10
1042.4026501380722
 20
1502.5928727838393
 40
25.391605232242718
 50
232.58521996431108
 51
342.585219864821
  0
ARC
  8
_0-3_0
  6
CONTINUOUS
 62
    1
 10
1000.4254091262005
 20
1503.176923183277
 40
33.697441063420349
 50
211.98852544387964
 51
321.98852534438976
  0
ARC
  8
_0-3_0
  6
CONTINUOUS
 62
    1
 10
949.74383896454515
 20
1507.2844819305133
 40
31.155076488710957
 50
205.18489902298737
 51
315.18489892349754
  0
ARC
  8
_0-3_0
  6
CONTINUOUS
 62
    1
 10
907.57371871462851
 20
1513.1783611042965
 40
23.709331742546105
 50
196.12158848594498
 51
306.12158838645507
  0
ARC
  8
_0-3_0
  6
CONTINUOUS
 62
    1
 10
904.91179839123129
 20
1534.2927726638934
 40
34.231423686111761
 50
124.01177877579711
 51
234.01177867630705
  0
ARC
  8
_0-3_0
  6
CONTINUOUS
 62
    1
 10
886.44093591242461
 20
1563.6347444469172
 40
1.1802096667496056
 50
125.00000004974373
 51
234.99999995025402
  0
ARC
  8
_0-3_0
  6
CONTINUOUS
 62
    1
 10
918.98536918418881
 20
1570.8756588666565
 40
33.808646023936774
 50
80.69483706227183
 51
190.69483696278164
  0
ARC
  8
_0-3_0
  6
CONTINUOUS
 62
    1
 10
928.99725267852739
 20
1609.7014705187426
 40
7.1058750007847937
 50
120.23429811627655
 51
230.23429801678634
  0
ARC
  8
_0-3_0
  6
CONTINUOUS
 62
    1
 10
956.07791483804203
 20
1617.4257698568927
 40
30.699678771864843
 50
72.959472733389063
 51
182.95947263389874
  0
ARC
  8
_0-3_0
  6
CONTINUOUS
 62
    1
 10
980.5023244207182
 20
1619.4059331259502
 40
31.420256856872776
 50
9.4075486685660081
 51
119.40754856907597
  0
LINE
  8
_0-3_0
  6
CONTINUOUS
 62
    1
 10
898.12243575307195
 20
1830.5451512598408
 11
1029.9994729213413
 21
1672.3617300862095
  0
LINE
  8
_0-3_0
  6
CONTINUOUS
 62
    1
 10
899.34759514377049
 20
1837.2804921477866
 11
1031.2246323120398
 21
1679.0970709741557
  0
LINE
  8
_0-3_0
  6
CONTINUOUS
 62
    1
 10
1030.3413356833935
 20
1830.5451512598408
 11
898.46429851512414
 21
1672.3617300862095
  0
LINE
  8
_0-3_0
  6
CONTINUOUS
 62
    1
 10
1029.1161762926952
 20
1837.2804921477866
 11
897.23913912442572
 21
1679.0970709741557
  0
INSERT
  2
-007-AM_BALLOON1
  8
_0-2_08_DIM
 10
989.51758254682477
 20
2063.1892812589604
 41
3.75
 42
3.75
 50
0
  0
TEXT
  8
_0-3_0
 62
    7
 10
972.64258254682488
 20
2057.5642812589604
 40
11.250000000000002
 41
1
 50
0
  1
103
  0
LINE
  8
_0-2_08_DIM
  6
CONTINUOUS
 62
    3
 10
3102.1600922464645
 20
1759.3283034033236
 11
3102.1600922464645
 21
1861.5256805237036
  0
LINE
  8
_0-2_08_DIM
  6
CONTINUOUS
 62
    3
 10
3125.1600922464645
 20
1724.8283034042768
 11
3125.1600922464645
 21
1861.5256805237036
  0
LINE
  8
_0-2_08_DIM
  6
CONTINUOUS
 62
    3
 10
3109.660092246464
 20
1857.7756805237038
 11
3117.6600922464645
 21
1857.7756805237038
  0
LINE
  8
_0-2_08_DIM
  6
CONTINUOUS
 62
    3
 10
3125.1600922464645
 20
1857.7756805237038
 11
3163.410092246464
 21
1857.7756805237038
  0
INSERT
  2
-008-_Open30
  8
_0-2_08_DIM
 10
3102.1600922464645
 20
1857.7756805237038
 41
7.5
 42
7.5
 50
180
  0
INSERT
  2
-008-_Open30
  8
_0-2_08_DIM
 10
3125.1600922464645
 20
1857.7756805237038
 41
7.5
 42
7.5
 50
0
  0
LINE
  8
_0-2_08_DIM
  6
CONTINUOUS
 62
    3
 10
988.48927315735466
 20
1155.4450987915584
 11
988.48927315735466
 21
1194.878360722983
  0
LINE
  8
_0-2_08_DIM
  6
CONTINUOUS
 62
    3
 10
993.48927315735466
 20
1155.4450987915584
 11
993.48927315735466
 21
1194.878360722983
  0
LINE
  8
_0-2_08_DIM
  6
CONTINUOUS
 62
    3
 10
980.98927315735466
 20
1191.128360722983
 11
973.48927315735466
 21
1191.128360722983
  0
LINE
  8
_0-2_08_DIM
  6
CONTINUOUS
 62
    3
 10
1000.9892731573547
 20
1191.128360722983
 11
1018.2392731573547
 21
1191.128360722983
  0
LINE
  8
_0-2_08_DIM
  6
CONTINUOUS
 62
    3
 10
988.48927315735466
 20
1191.128360722983
 11
993.48927315735466
 21
1191.128360722983
  0
INSERT
  2
-008-_Open30
  8
_0-2_08_DIM
 10
988.48927315735466
 20
1191.128360722983
 41
7.5
 42
7.5
 50
0
  0
INSERT
  2
-008-_Open30
  8
_0-2_08_DIM
 10
993.48927315735466
 20
1191.128360722983
 41
7.5
 42
7.5
 50
180
  0
LINE
  8
_0-2_08_DIM
  6
CONTINUOUS
 62
    3
 10
3125.1600922464645
 20
1724.8283034011408
 11
3125.1600922464645
 21
1897.159364328578
  0
LINE
  8
_0-2_08_DIM
  6
CONTINUOUS
 62
    3
 10
3137.1600922486473
 20
1722.8283034011408
 11
3137.1600922486473
 21
1897.159364328578
  0
LINE
  8
_0-2_08_DIM
  6
CONTINUOUS
 62
    3
 10
3117.6600922464645
 20
1893.4093643285782
 11
3110.1600922464645
 21
1893.4093643285782
  0
LINE
  8
_0-2_08_DIM
  6
CONTINUOUS
 62
    3
 10
3144.6600922486473
 20
1893.4093643285782
 11
3179.9100922486473
 21
1893.4093643285782
  0
LINE
  8
_0-2_08_DIM
  6
CONTINUOUS
 62
    3
 10
3125.1600922464645
 20
1893.4093643285782
 11
3137.1600922486473
 21
1893.4093643285782
  0
INSERT
  2
-008-_Open30
  8
_0-2_08_DIM
 10
3125.1600922464645
 20
1893.4093643285782
 41
7.5
 42
7.5
 50
0
  0
INSERT
  2
-008-_Open30
  8
_0-2_08_DIM
 10
3137.1600922486473
 20
1893.4093643285782
 41
7.5
 42
7.5
 50
180
  0
LINE
  8
_0-2_08_DIM
  6
CONTINUOUS
 62
    3
 10
1107.1600922442815
 20
1722.8283034011408
 11
1107.1600922442815
 21
1927.6893186986194
  0
LINE
  8
_0-2_08_DIM
  6
CONTINUOUS
 62
    3
 10
3137.1600922486473
 20
1722.8283034011408
 11
3137.1600922486473
 21
1927.6893186986194
  0
LINE
  8
_0-2_08_DIM
  6
CONTINUOUS
 62
    3
 10
1114.6600922442815
 20
1923.9393186986197
 11
3129.6600922486473
 21
1923.9393186986197
  0
INSERT
  2
-008-_Open30
  8
_0-2_08_DIM
 10
1107.1600922442815
 20
1923.9393186986197
 41
7.5
 42
7.5
 50
180
  0
INSERT
  2
-008-_Open30
  8
_0-2_08_DIM
 10
3137.1600922486473
 20
1923.9393186986197
 41
7.5
 42
7.5
 50
0
  0
LINE
  8
_0-2_08_DIM
  6
CONTINUOUS
 62
    3
 10
1142.285092243525
 20
1153.5700987915295
 11
1059.6514343745441
 21
1153.5700987915295
  0
LINE
  8
_0-2_08_DIM
  6
CONTINUOUS
 62
    3
 10
1142.285092243525
 20
1033.5700987915295
 11
1059.6514343745441
 21
1033.5700987915295
  0
LINE
  8
_0-2_08_DIM
  6
CONTINUOUS
 62
    3
 10
1063.4014343745441
 20
1146.0700987915295
 11
1063.4014343745441
 21
1041.0700987915295
  0
INSERT
  2
-008-_Open30
  8
_0-2_08_DIM
 10
1063.4014343745441
 20
1153.5700987915295
 41
7.5
 42
7.5
 50
90
  0
INSERT
  2
-008-_Open30
  8
_0-2_08_DIM
 10
1063.4014343745441
 20
1033.5700987915295
 41
7.5
 42
7.5
 50
270
  0
LINE
  8
_0-2_08_DIM
  6
CONTINUOUS
 62
    3
 10
1148.2850922436485
 20
1128.5700987915222
 11
1090.6264063836209
 21
1128.5700987915222
  0
LINE
  8
_0-2_08_DIM
  6
CONTINUOUS
 62
    3
 10
1150.9440414312999
 20
1048.5700987915295
 11
1090.6264063836209
 21
1048.5700987915295
  0
LINE
  8
_0-2_08_DIM
  6
CONTINUOUS
 62
    3
 10
1094.3764063836209
 20
1121.0700987915222
 11
1094.3764063836209
 21
1056.0700987915295
  0
INSERT
  2
-008-_Open30
  8
_0-2_08_DIM
 10
1094.3764063836209
 20
1128.5700987915222
 41
7.5
 42
7.5
 50
90
  0
INSERT
  2
-008-_Open30
  8
_0-2_08_DIM
 10
1094.3764063836209
 20
1048.5700987915295
 41
7.5
 42
7.5
 50
270
  0
LINE
  8
_0-2_08_DIM
  6
CONTINUOUS
 62
    3
 10
1148.2850922436485
 20
1128.5700987915222
 11
1090.6264063836209
 21
1128.5700987915222
  0
LINE
  8
_0-2_08_DIM
  6
CONTINUOUS
 62
    3
 10
1142.285092243525
 20
1153.5700987915295
 11
1090.6264063836209
 21
1153.5700987915295
  0
LINE
  8
_0-2_08_DIM
  6
CONTINUOUS
 62
    3
 10
1094.3764063836209
 20
1136.0700987915222
 11
1094.3764063836209
 21
1146.0700987915295
  0
INSERT
  2
-008-_Open30
  8
_0-2_08_DIM
 10
1094.3764063836209
 20
1128.5700987915222
 41
7.5
 42
7.5
 50
270
  0
INSERT
  2
-008-_Open30
  8
_0-2_08_DIM
 10
1094.3764063836209
 20
1153.5700987915295
 41
7.5
 42
7.5
 50
90
  0
LINE
  8
_0-2_08_DIM
  6
CONTINUOUS
 62
    3
 10
1162.1600922436485
 20
1152.4450987915293
 11
1162.1600922436485
 21
1206.1894530961449
  0
LINE
  8
_0-2_08_DIM
  6
CONTINUOUS
 62
    3
 10
1322.1600922428117
 20
1152.4450987915293
 11
1322.1600922428117
 21
1206.1894530961449
  0
LINE
  8
_0-2_08_DIM
  6
CONTINUOUS
 62
    3
 10
1169.6600922436483
 20
1202.4394530961449
 11
1314.6600922428117
 21
1202.4394530961449
  0
INSERT
  2
-008-_Open30
  8
_0-2_08_DIM
 10
1162.1600922436485
 20
1202.4394530961449
 41
7.5
 42
7.5
 50
180
  0
INSERT
  2
-008-_Open30
  8
_0-2_08_DIM
 10
1322.1600922428117
 20
1202.4394530961449
 41
7.5
 42
7.5
 50
0
  0
LINE
  8
_0-2_08_DIM
  6
CONTINUOUS
 62
    3
 10
1142.1600922435246
 20
1153.4450987915293
 11
1142.1600922435246
 21
1268.6815061716602
  0
LINE
  8
_0-2_08_DIM
  6
CONTINUOUS
 62
    3
 10
3102.160092243525
 20
1153.4450987915293
 11
3102.160092243525
 21
1268.6815061716602
  0
LINE
  8
_0-2_08_DIM
  6
CONTINUOUS
 62
    3
 10
1149.6600922435246
 20
1264.9315061716602
 11
3094.6600922435246
 21
1264.9315061716602
  0
INSERT
  2
-008-_Open30
  8
_0-2_08_DIM
 10
1142.1600922435246
 20
1264.9315061716602
 41
7.5
 42
7.5
 50
180
  0
INSERT
  2
-008-_Open30
  8
_0-2_08_DIM
 10
3102.160092243525
 20
1264.9315061716602
 41
7.5
 42
7.5
 50
0
  0
LINE
  8
_0-2_08_DIM
  6
CONTINUOUS
 62
    3
 10
1162.1600922436485
 20
1152.4450987915293
 11
1162.1600922436485
 21
1237.68007026239
  0
LINE
  8
_0-2_08_DIM
  6
CONTINUOUS
 62
    3
 10
3082.1600922434013
 20
1152.4450987915293
 11
3082.1600922434013
 21
1237.68007026239
  0
LINE
  8
_0-2_08_DIM
  6
CONTINUOUS
 62
    3
 10
1169.6600922436483
 20
1233.93007026239
 11
3074.6600922434009
 21
1233.93007026239
  0
INSERT
  2
-008-_Open30
  8
_0-2_08_DIM
 10
1162.1600922436485
 20
1233.93007026239
 41
7.5
 42
7.5
 50
180
  0
INSERT
  2
-008-_Open30
  8
_0-2_08_DIM
 10
3082.1600922434013
 20
1233.93007026239
 41
7.5
 42
7.5
 50
0
  0
LINE
  8
_0-2_08_DIM
  6
CONTINUOUS
 62
    3
 10
1162.1600922436485
 20
1152.4450987915293
 11
1162.1600922436485
 21
1237.68007026239
  0
LINE
  8
_0-2_08_DIM
  6
CONTINUOUS
 62
    3
 10
1142.1600922435246
 20
1153.4450987915293
 11
1142.1600922435246
 21
1237.68007026239
  0
LINE
  8
_0-2_08_DIM
  6
CONTINUOUS
 62
    3
 10
1154.6600922436485
 20
1233.93007026239
 11
1149.6600922435246
 21
1233.93007026239
  0
INSERT
  2
-008-_Open30
  8
_0-2_08_DIM
 10
1162.1600922436485
 20
1233.93007026239
 41
7.5
 42
7.5
 50
0
  0
INSERT
  2
-008-_Open30
  8
_0-2_08_DIM
 10
1142.1600922435246
 20
1233.93007026239
 41
7.5
 42
7.5
 50
180
  0
LINE
  8
_0-2_08_DIM
  6
CONTINUOUS
 62
    3
 10
1148.2850922436485
 20
1118.5700987915295
 11
1117.5793147900515
 21
1118.5700987915295
  0
LINE
  8
_0-2_08_DIM
  6
CONTINUOUS
 62
    3
 10
1148.2850922436485
 20
1138.5700987915295
 11
1117.5793147900515
 21
1138.5700987915295
  0
LINE
  8
_0-2_08_DIM
  6
CONTINUOUS
 62
    3
 10
1121.3293147900515
 20
1126.0700987915295
 11
1121.3293147900515
 21
1131.0700987915295
  0
INSERT
  2
-008-_Open30
  8
_0-2_08_DIM
 10
1121.3293147900515
 20
1118.5700987915295
 41
7.5
 42
7.5
 50
270
  0
INSERT
  2
-008-_Open30
  8
_0-2_08_DIM
 10
1121.3293147900515
 20
1138.5700987915295
 41
7.5
 42
7.5
 50
90
  0
LINE
  8
_0-2_08_DIM
  6
CONTINUOUS
 62
    3
 10
1156.1600922436483
 20
1140.445098791522
 11
1156.1600922436483
 21
1177.5435936120543
  0
LINE
  8
_0-2_08_DIM
  6
CONTINUOUS
 62
    3
 10
1168.1600922436485
 20
1140.445098791522
 11
1168.1600922436485
 21
1177.5435936120543
  0
LINE
  8
_0-2_08_DIM
  6
CONTINUOUS
 62
    3
 10
1148.6600922436483
 20
1173.7935936120543
 11
1141.1600922436485
 21
1173.7935936120543
  0
LINE
  8
_0-2_08_DIM
  6
CONTINUOUS
 62
    3
 10
1175.6600922436485
 20
1173.7935936120543
 11
1198.9100922436485
 21
1173.7935936120543
  0
LINE
  8
_0-2_08_DIM
  6
CONTINUOUS
 62
    3
 10
1156.1600922436483
 20
1173.7935936120543
 11
1168.1600922436485
 21
1173.7935936120543
  0
INSERT
  2
-008-_Open30
  8
_0-2_08_DIM
 10
1156.1600922436483
 20
1173.7935936120543
 41
7.5
 42
7.5
 50
0
  0
INSERT
  2
-008-_Open30
  8
_0-2_08_DIM
 10
1168.1600922436485
 20
1173.7935936120543
 41
7.5
 42
7.5
 50
180
  0
LINE
  8
_0-2_08_DIM
  6
CONTINUOUS
 62
    3
 10
1142.1600922464643
 20
1759.3283034033236
 11
1142.1600922464643
 21
1861.5256805237036
  0
LINE
  8
_0-2_08_DIM
  6
CONTINUOUS
 62
    3
 10
1119.1600922464643
 20
1724.8283034042768
 11
1119.1600922464643
 21
1861.5256805237036
  0
LINE
  8
_0-2_08_DIM
  6
CONTINUOUS
 62
    3
 10
1134.6600922464643
 20
1857.7756805237038
 11
1126.660092246464
 21
1857.7756805237038
  0
INSERT
  2
-008-_Open30
  8
_0-2_08_DIM
 10
1142.1600922464643
 20
1857.7756805237038
 41
7.5
 42
7.5
 50
0
  0
INSERT
  2
-008-_Open30
  8
_0-2_08_DIM
 10
1119.1600922464643
 20
1857.7756805237038
 41
7.5
 42
7.5
 50
180
  0
LINE
  8
_0-2_08_DIM
  6
CONTINUOUS
 62
    3
 10
1119.1600922464643
 20
1724.8283034011408
 11
1119.1600922464643
 21
1897.159364328578
  0
LINE
  8
_0-2_08_DIM
  6
CONTINUOUS
 62
    3
 10
3125.1600922464645
 20
1724.8283034011408
 11
3125.1600922464645
 21
1897.159364328578
  0
LINE
  8
_0-2_08_DIM
  6
CONTINUOUS
 62
    3
 10
1126.660092246464
 20
1893.4093643285782
 11
3117.6600922464645
 21
1893.4093643285782
  0
INSERT
  2
-008-_Open30
  8
_0-2_08_DIM
 10
1119.1600922464643
 20
1893.4093643285782
 41
7.5
 42
7.5
 50
180
  0
INSERT
  2
-008-_Open30
  8
_0-2_08_DIM
 10
3125.1600922464645
 20
1893.4093643285782
 41
7.5
 42
7.5
 50
0
  0
LINE
  8
_0-2_08_DIM
  6
CONTINUOUS
 62
    3
 10
1119.1600922464643
 20
1724.8283034011408
 11
1119.1600922464643
 21
1897.159364328578
  0
LINE
  8
_0-2_08_DIM
  6
CONTINUOUS
 62
    3
 10
1107.1600922442815
 20
1722.8283034011408
 11
1107.1600922442815
 21
1897.159364328578
  0
LINE
  8
_0-2_08_DIM
  6
CONTINUOUS
 62
    3
 10
1126.660092246464
 20
1893.4093643285782
 11
1134.1600922464643
 21
1893.4093643285782
  0
LINE
  8
_0-2_08_DIM
  6
CONTINUOUS
 62
    3
 10
1099.6600922442815
 20
1893.4093643285782
 11
1076.4100922442815
 21
1893.4093643285782
  0
LINE
  8
_0-2_08_DIM
  6
CONTINUOUS
 62
    3
 10
1119.1600922464643
 20
1893.4093643285782
 11
1107.1600922442815
 21
1893.4093643285782
  0
INSERT
  2
-008-_Open30
  8
_0-2_08_DIM
 10
1119.1600922464643
 20
1893.4093643285782
 41
7.5
 42
7.5
 50
180
  0
INSERT
  2
-008-_Open30
  8
_0-2_08_DIM
 10
1107.1600922442815
 20
1893.4093643285782
 41
7.5
 42
7.5
 50
0
  0
LINE
  8
_0-2_08_DIM
  6
CONTINUOUS
 62
    3
 10
1100.1932782677761
 20
1714.4533034027127
 11
1044.8681864384273
 21
1714.4533034027127
  0
LINE
  8
_0-2_08_DIM
  6
CONTINUOUS
 62
    3
 10
1150.944041432253
 20
1739.4533034033238
 11
1044.8681864384273
 21
1739.4533034033238
  0
LINE
  8
_0-2_08_DIM
  6
CONTINUOUS
 62
    3
 10
1048.6181864384273
 20
1721.9533034027127
 11
1048.6181864384273
 21
1731.9533034033238
  0
INSERT
  2
-008-_Open30
  8
_0-2_08_DIM
 10
1048.6181864384273
 20
1714.4533034027127
 41
7.5
 42
7.5
 50
270
  0
INSERT
  2
-008-_Open30
  8
_0-2_08_DIM
 10
1048.6181864384273
 20
1739.4533034033238
 41
7.5
 42
7.5
 50
90
  0
LINE
  8
_0-2_08_DIM
  6
CONTINUOUS
 62
    3
 10
1142.1600922464643
 20
1759.3283034033236
 11
1142.1600922464643
 21
1861.5256805237036
  0
LINE
  8
_0-2_08_DIM
  6
CONTINUOUS
 62
    3
 10
3102.1600922464645
 20
1759.3283034033236
 11
3102.1600922464645
 21
1861.5256805237036
  0
LINE
  8
_0-2_08_DIM
  6
CONTINUOUS
 62
    3
 10
1149.6600922464643
 20
1857.7756805237038
 11
3094.6600922464645
 21
1857.7756805237038
  0
INSERT
  2
-008-_Open30
  8
_0-2_08_DIM
 10
1142.1600922464643
 20
1857.7756805237038
 41
7.5
 42
7.5
 50
180
  0
INSERT
  2
-008-_Open30
  8
_0-2_08_DIM
 10
3102.1600922464645
 20
1857.7756805237038
 41
7.5
 42
7.5
 50
0
  0
LINE
  8
_0-2_08_DIM
  6
CONTINUOUS
 62
    3
 10
1162.160092243663
 20
1750.6693542147411
 11
1162.160092243663
 21
1827.0422347606941
  0
LINE
  8
_0-2_08_DIM
  6
CONTINUOUS
 62
    3
 10
3082.160092249273
 20
1750.6693542147411
 11
3082.160092249273
 21
1827.0422347606941
  0
LINE
  8
_0-2_08_DIM
  6
CONTINUOUS
 62
    3
 10
1169.6600922436628
 20
1823.2922347606943
 11
3074.660092249273
 21
1823.2922347606943
  0
INSERT
  2
-008-_Open30
  8
_0-2_08_DIM
 10
1162.160092243663
 20
1823.2922347606943
 41
7.5
 42
7.5
 50
180
  0
INSERT
  2
-008-_Open30
  8
_0-2_08_DIM
 10
3082.160092249273
 20
1823.2922347606943
 41
7.5
 42
7.5
 50
0
  0
LINE
  8
_0-2_08_DIM
  6
CONTINUOUS
 62
    3
 10
1162.160092243663
 20
1750.6693542147411
 11
1162.160092243663
 21
1827.0422347606941
  0
LINE
  8
_0-2_08_DIM
  6
CONTINUOUS
 62
    3
 10
1142.1600922464643
 20
1759.3283034033236
 11
1142.1600922464643
 21
1827.0422347606941
  0
LINE
  8
_0-2_08_DIM
  6
CONTINUOUS
 62
    3
 10
1154.660092243663
 20
1823.2922347606943
 11
1149.6600922464643
 21
1823.2922347606943
  0
INSERT
  2
-008-_Open30
  8
_0-2_08_DIM
 10
1162.160092243663
 20
1823.2922347606943
 41
7.5
 42
7.5
 50
0
  0
INSERT
  2
-008-_Open30
  8
_0-2_08_DIM
 10
1142.1600922464643
 20
1823.2922347606943
 41
7.5
 42
7.5
 50
180
  0
LINE
  8
_0-2_08_DIM
  6
CONTINUOUS
 62
    3
 10
1162.160092243663
 20
1750.6693542147411
 11
1162.160092243663
 21
1792.9462482261395
  0
LINE
  8
_0-2_08_DIM
  6
CONTINUOUS
 62
    3
 10
1322.1600922419893
 20
1750.6693542147411
 11
1322.1600922419893
 21
1792.9462482261395
  0
LINE
  8
_0-2_08_DIM
  6
CONTINUOUS
 62
    3
 10
1169.6600922436628
 20
1789.1962482261392
 11
1314.6600922419893
 21
1789.1962482261392
  0
INSERT
  2
-008-_Open30
  8
_0-2_08_DIM
 10
1162.160092243663
 20
1789.1962482261392
 41
7.5
 42
7.5
 50
180
  0
INSERT
  2
-008-_Open30
  8
_0-2_08_DIM
 10
1322.1600922419893
 20
1789.1962482261392
 41
7.5
 42
7.5
 50
0
  0
LINE
  8
_0-2_08_DIM
  6
CONTINUOUS
 62
    3
 10
1106.2850922442815
 20
1721.9533034011486
 11
1065.7224936161986
 21
1721.9533034011486
  0
LINE
  8
_0-2_08_DIM
  6
CONTINUOUS
 62
    3
 10
1106.2850922442815
 20
1706.9533033996713
 11
1065.7224936161986
 21
1706.9533033996713
  0
LINE
  8
_0-2_08_DIM
  6
CONTINUOUS
 62
    3
 10
1069.4724936161986
 20
1729.4533034011486
 11
1069.4724936161986
 21
1736.9533034011483
  0
LINE
  8
_0-2_08_DIM
  6
CONTINUOUS
 62
    3
 10
1069.4724936161986
 20
1699.4533033996711
 11
1069.4724936161988
 21
1667.2033033996713
  0
LINE
  8
_0-2_08_DIM
  6
CONTINUOUS
 62
    3
 10
1069.4724936161986
 20
1721.9533034011486
 11
1069.4724936161986
 21
1706.9533033996713
  0
INSERT
  2
-008-_Open30
  8
_0-2_08_DIM
 10
1069.4724936161986
 20
1721.9533034011486
 41
7.5
 42
7.5
 50
270
  0
INSERT
  2
-008-_Open30
  8
_0-2_08_DIM
 10
1069.4724936161986
 20
1706.9533033996713
 41
7.5
 42
7.5
 50
90
  0
LINE
  8
_0-2_08_DIM
  6
CONTINUOUS
 62
    3
 10
931.17000875564577
 20
1704.4533033973141
 11
903.69176779008023
 21
1704.4533033973141
  0
LINE
  8
_0-2_08_DIM
  6
CONTINUOUS
 62
    3
 10
931.17000875522376
 20
1724.4533033973139
 11
903.69176779008023
 21
1724.4533033973139
  0
LINE
  8
_0-2_08_DIM
  6
CONTINUOUS
 62
    3
 10
907.44176779008035
 20
1711.9533033973141
 11
907.44176779008035
 21
1716.9533033973141
  0
INSERT
  2
-008-_Open30
  8
_0-2_08_DIM
 10
907.44176779008035
 20
1704.4533033973141
 41
7.5
 42
7.5
 50
270
  0
INSERT
  2
-008-_Open30
  8
_0-2_08_DIM
 10
907.44176779008035
 20
1724.4533033973139
 41
7.5
 42
7.5
 50
90
  0
LINE
  8
_0-2_08_DIM
  6
CONTINUOUS
 62
    3
 10
959.92000875564565
 20
1759.4533033977359
 11
1017.6427046532139
 21
1759.4533033977359
  0
LINE
  8
_0-2_08_DIM
  6
CONTINUOUS
 62
    3
 10
959.92000875564565
 20
1701.4533033977361
 11
1017.6427046532139
 21
1701.4533033977361
  0
LINE
  8
_0-2_08_DIM
  6
CONTINUOUS
 62
    3
 10
1013.8927046532139
 20
1751.9533033977359
 11
1013.8927046532139
 21
1708.9533033977361
  0
INSERT
  2
-008-_Open30
  8
_0-2_08_DIM
 10
1013.8927046532139
 20
1759.4533033977359
 41
7.5
 42
7.5
 50
90
  0
INSERT
  2
-008-_Open30
  8
_0-2_08_DIM
 10
1013.8927046532139
 20
1701.4533033977361
 41
7.5
 42
7.5
 50
270
  0
LINE
  8
_0-2_08_DIM
  6
CONTINUOUS
 62
    3
 10
956.93021040728513
 20
1714.4533034018323
 11
989.22163585269323
 21
1714.4533034018323
  0
LINE
  8
_0-2_08_DIM
  6
CONTINUOUS
 62
    3
 10
959.92000875564565
 20
1759.4533033977359
 11
989.22163585269323
 21
1759.4533033977359
  0
LINE
  8
_0-2_08_DIM
  6
CONTINUOUS
 62
    3
 10
985.47163585269334
 20
1721.9533034018323
 11
985.47163585269334
 21
1751.9533033977359
  0
INSERT
  2
-008-_Open30
  8
_0-2_08_DIM
 10
985.47163585269334
 20
1714.4533034018323
 41
7.5
 42
7.5
 50
270
  0
INSERT
  2
-008-_Open30
  8
_0-2_08_DIM
 10
985.47163585269311
 20
1759.4533033977359
 41
7.5
 42
7.5
 50
90
  0
LINE
  8
_0-2_08_DIM
  6
CONTINUOUS
 62
    3
 10
953.04500875615508
 20
1761.3283033979465
 11
953.04500875615508
 21
1794.28925289478
  0
LINE
  8
_0-2_08_DIM
  6
CONTINUOUS
 62
    3
 10
958.04500875615497
 20
1761.3283033979465
 11
958.04500875615497
 21
1794.28925289478
  0
LINE
  8
_0-2_08_DIM
  6
CONTINUOUS
 62
    3
 10
945.54500875615497
 20
1790.5392528947802
 11
938.04500875615497
 21
1790.5392528947802
  0
LINE
  8
_0-2_08_DIM
  6
CONTINUOUS
 62
    3
 10
965.54500875615497
 20
1790.5392528947802
 11
982.79500875615497
 21
1790.5392528947802
  0
LINE
  8
_0-2_08_DIM
  6
CONTINUOUS
 62
    3
 10
953.04500875615508
 20
1790.5392528947802
 11
958.04500875615497
 21
1790.5392528947802
  0
INSERT
  2
-008-_Open30
  8
_0-2_08_DIM
 10
953.04500875615508
 20
1790.5392528947802
 41
7.5
 42
7.5
 50
0
  0
INSERT
  2
-008-_Open30
  8
_0-2_08_DIM
 10
958.04500875615497
 20
1790.5392528947802
 41
7.5
 42
7.5
 50
180
  0
LINE
  8
_0-2_08_DIM
  6
CONTINUOUS
 62
    3
 10
953.04500875615508
 20
1761.3283033979465
 11
953.04500875615508
 21
1794.28925289478
  0
LINE
  8
_0-2_08_DIM
  6
CONTINUOUS
 62
    3
 10
933.04500875573297
 20
1726.3283033975245
 11
933.04500875573297
 21
1794.28925289478
  0
LINE
  8
_0-2_08_DIM
  6
CONTINUOUS
 62
    3
 10
945.54500875615497
 20
1790.5392528947802
 11
940.54500875573297
 21
1790.5392528947802
  0
INSERT
  2
-008-_Open30
  8
_0-2_08_DIM
 10
953.04500875615508
 20
1790.5392528947802
 41
7.5
 42
7.5
 50
0
  0
INSERT
  2
-008-_Open30
  8
_0-2_08_DIM
 10
933.04500875573297
 20
1790.5392528947802
 41
7.5
 42
7.5
 50
180
  0
LINE
  8
_0-2_08_DIM
  6
CONTINUOUS
 62
    3
 10
1102.3567913853826
 20
1702.1500025453809
 11
1086.1295144496951
 21
1685.9227256096931
  0
INSERT
  2
-008-_Open30
  8
_0-2_08_DIM
 10
1107.6600922442817
 20
1707.4533034042799
 41
7.4999999999999991
 42
7.4999999999999991
 50
45.00000000000032
  0
LINE
  8
_0-2_08_DIM
  6
CONTINUOUS
 62
    3
 10
1120.660092246464
 20
1704.453303404279
 11
1133.741692585904
 21
1691.3717030648393
  0
LINE
  8
_0-2_08_DIM
  6
CONTINUOUS
 62
    3
 10
1125.7585185630667
 20
1688.7482753698782
 11
1103.765371309358
 21
1666.7551281161695
  0
INSERT
  2
-008-_Open30
  8
_0-2_08_DIM
 10
1131.0618194219658
 20
1694.0515762287773
 41
7.5
 42
7.5
 50
45
  0
LINE
  8
_0-2_08_DIM
  6
CONTINUOUS
 62
    3
 10
1417.1384049497121
 20
1789.928020480435
 11
1352.5634049497119
 21
1789.9280204804354
  0
LINE
  8
_0-2_08_DIM
  6
CONTINUOUS
 62
    3
 10
1352.5634049497119
 20
1789.9280204804354
 11
1329.125734380242
 21
1751.0174648343063
  0
INSERT
  2
-008-_Open30
  8
_0-2_08_DIM
 10
1325.2559331923242
 20
1744.5929307059837
 41
7.5
 42
7.5
 50
238.9374532495948
  0
LINE
  8
_0-2_08_DIM
  6
CONTINUOUS
 62
    3
 10
1137.856791387565
 20
1763.7566042622245
 11
1103.2533789321974
 21
1798.3600167175919
  0
INSERT
  2
-008-_Open30
  8
_0-2_08_DIM
 10
1143.160092246464
 20
1758.4533034033254
 41
7.5
 42
7.5
 50
315.00000000000017
  0
LINE
  8
_0-2_08_DIM
  6
CONTINUOUS
 62
    3
 10
3138.0350922486482
 20
1721.9533034011486
 11
3185.8278792743213
 21
1721.9533034011486
  0
LINE
  8
_0-2_08_DIM
  6
CONTINUOUS
 62
    3
 10
3138.0350922486482
 20
1706.9533033996713
 11
3185.8278792743213
 21
1706.9533033996713
  0
LINE
  8
_0-2_08_DIM
  6
CONTINUOUS
 62
    3
 10
3182.0778792743217
 20
1729.4533034011486
 11
3182.0778792743217
 21
1736.9533034011483
  0
LINE
  8
_0-2_08_DIM
  6
CONTINUOUS
 62
    3
 10
3182.0778792743217
 20
1699.4533033996711
 11
3182.0778792743217
 21
1667.2033033996713
  0
LINE
  8
_0-2_08_DIM
  6
CONTINUOUS
 62
    3
 10
3182.0778792743217
 20
1721.9533034011486
 11
3182.0778792743217
 21
1706.9533033996713
  0
INSERT
  2
-008-_Open30
  8
_0-2_08_DIM
 10
3182.0778792743217
 20
1721.9533034011486
 41
7.5
 42
7.5
 50
270
  0
INSERT
  2
-008-_Open30
  8
_0-2_08_DIM
 10
3182.0778792743217
 20
1706.9533033996713
 41
7.5
 42
7.5
 50
90
  0
LINE
  8
_0-2_08_DIM
  6
CONTINUOUS
 62
    3
 10
3141.9633931075464
 20
1726.7566042646563
 11
3157.2809906522198
 21
1742.0742018093301
  0
INSERT
  2
-008-_Open30
  8
_0-2_08_DIM
 10
3136.6600922486473
 20
1721.4533034057572
 41
7.5
 42
7.5
 50
224.99999999999997
  0
LINE
  8
_0-2_08_DIM
  6
CONTINUOUS
 62
    3
 10
3123.6600922464618
 20
1724.4533034042802
 11
3110.123676996232
 21
1737.989718654514
  0
LINE
  8
_0-2_08_DIM
  6
CONTINUOUS
 62
    3
 10
3118.7450832556442
 20
1739.9749141128982
 11
3141.7071798110669
 21
1762.9370106683202
  0
INSERT
  2
-008-_Open30
  8
_0-2_08_DIM
 10
3113.4417823967451
 20
1734.6716132539991
 41
7.5
 42
7.5
 50
224.99999999999997
  0
LINE
  8
_0-2_08_DIM
  6
CONTINUOUS
 62
    3
 10
3082.160092249273
 20
1750.6693542147427
 11
3082.160092249273
 21
1827.0422347606941
  0
LINE
  8
_0-2_08_DIM
  6
CONTINUOUS
 62
    3
 10
3102.1600922464645
 20
1759.3283034033254
 11
3102.1600922464645
 21
1827.0422347606941
  0
LINE
  8
_0-2_08_DIM
  6
CONTINUOUS
 62
    3
 10
3089.660092249273
 20
1823.2922347606943
 11
3094.6600922464645
 21
1823.2922347606943
  0
LINE
  8
_0-2_08_DIM
  6
CONTINUOUS
 62
    3
 10
3102.1600922464645
 20
1823.2922347606943
 11
3138.910092246464
 21
1823.2922347606943
  0
INSERT
  2
-008-_Open30
  8
_0-2_08_DIM
 10
3082.160092249273
 20
1823.2922347606943
 41
7.5
 42
7.5
 50
180
  0
INSERT
  2
-008-_Open30
  8
_0-2_08_DIM
 10
3102.1600922464645
 20
1823.2922347606943
 41
7.5
 42
7.5
 50
0
  0
LINE
  8
_0-2_08_DIM
  6
CONTINUOUS
 62
    3
 10
1060.7833086875983
 20
993.18653026483105
 11
1119.3583086875988
 21
993.18653026483082
  0
LINE
  8
_0-2_08_DIM
  6
CONTINUOUS
 62
    3
 10
1119.3583086875988
 20
993.18653026483082
 11
1153.904900122001
 21
1037.8882542387285
  0
INSERT
  2
-008-_Open30
  8
_0-2_08_DIM
 10
1158.4911179668393
 20
1043.8226123236177
 41
7.4999999999999991
 42
7.4999999999999991
 50
52.302268522523924
  0
LINE
  8
_0-2_08_DIM
  6
CONTINUOUS
 62
    3
 10
1137.8567913846255
 20
1157.8733996504284
 11
1101.7403459108336
 21
1193.9898451242202
  0
INSERT
  2
-008-_Open30
  8
_0-2_08_DIM
 10
1143.1600922435246
 20
1152.5700987915293
 41
7.4999999999999991
 42
7.4999999999999991
 50
315
  0
INSERT
  2
-007-AM_BALLOON1
  8
_0-2_08_DIM
 10
989.51758254682477
 20
1269.8318053299292
 41
3.75
 42
3.75
 50
0
  0
TEXT
  8
_0-3_0
 62
    7
 10
972.37472540396777
 20
1264.206805329929
 40
11.250000000000002
 41
1
 50
0
  1
104
  0
LINE
  8
_0-2_08_DIM
  6
CONTINUOUS
 62
    3
 10
3082.1600922434013
 20
1152.4450987915293
 11
3082.1600922434013
 21
1237.68007026239
  0
LINE
  8
_0-2_08_DIM
  6
CONTINUOUS
 62
    3
 10
3102.160092243525
 20
1153.4450987915293
 11
3102.160092243525
 21
1237.68007026239
  0
LINE
  8
_0-2_08_DIM
  6
CONTINUOUS
 62
    3
 10
3089.6600922434013
 20
1233.93007026239
 11
3094.6600922435246
 21
1233.93007026239
  0
LINE
  8
_0-2_08_DIM
  6
CONTINUOUS
 62
    3
 10
3102.160092243525
 20
1233.93007026239
 11
3138.9100922435246
 21
1233.93007026239
  0
INSERT
  2
-008-_Open30
  8
_0-2_08_DIM
 10
3082.1600922434013
 20
1233.93007026239
 41
7.5
 42
7.5
 50
180
  0
INSERT
  2
-008-_Open30
  8
_0-2_08_DIM
 10
3102.160092243525
 20
1233.93007026239
 41
7.5
 42
7.5
 50
0
  0
LINE
  8
_0-2_08_DIM
  6
CONTINUOUS
 62
    3
 10
1150.944041432253
 20
1739.4533034033257
 11
1044.8681864384273
 21
1739.4533034033257
  0
LINE
  8
_0-2_08_DIM
  6
CONTINUOUS
 62
    3
 10
1142.2850922464643
 20
1759.4533034033257
 11
1044.8681864384273
 21
1759.4533034033257
  0
LINE
  8
_0-2_08_DIM
  6
CONTINUOUS
 62
    3
 10
1048.6181864384273
 20
1746.9533034033257
 11
1048.6181864384273
 21
1751.9533034033257
  0
LINE
  8
_0-2_08_DIM
  6
CONTINUOUS
 62
    3
 10
1048.6181864384273
 20
1759.4533034033257
 11
1048.6181864384273
 21
1796.2033034033259
  0
INSERT
  2
-008-_Open30
  8
_0-2_08_DIM
 10
1048.6181864384273
 20
1739.4533034033257
 41
7.5
 42
7.5
 50
270
  0
INSERT
  2
-008-_Open30
  8
_0-2_08_DIM
 10
1048.6181864384273
 20
1759.4533034033257
 41
7.5
 42
7.5
 50
90
  0
LINE
  8
_0-2_08_DIM
  6
CONTINUOUS
 62
    3
 10
931.17000875564577
 20
1521.6503991367147
 11
903.69176779008046
 21
1521.6503991367147
  0
LINE
  8
_0-2_08_DIM
  6
CONTINUOUS
 62
    3
 10
931.17000875522376
 20
1541.6503991367142
 11
903.69176779008046
 21
1541.6503991367142
  0
LINE
  8
_0-2_08_DIM
  6
CONTINUOUS
 62
    3
 10
907.44176779008046
 20
1529.1503991367147
 11
907.44176779008046
 21
1534.1503991367144
  0
INSERT
  2
-008-_Open30
  8
_0-2_08_DIM
 10
907.44176779008046
 20
1521.6503991367147
 41
7.5
 42
7.5
 50
270
  0
INSERT
  2
-008-_Open30
  8
_0-2_08_DIM
 10
907.44176779008046
 20
1541.6503991367142
 41
7.5
 42
7.5
 50
90
  0
LINE
  8
_0-2_08_DIM
  6
CONTINUOUS
 62
    3
 10
959.92000875564565
 20
1576.6503991371364
 11
1017.6427046532141
 21
1576.6503991371364
  0
LINE
  8
_0-2_08_DIM
  6
CONTINUOUS
 62
    3
 10
959.92000875564565
 20
1521.6503991461761
 11
1017.6427046532141
 21
1521.6503991461761
  0
LINE
  8
_0-2_08_DIM
  6
CONTINUOUS
 62
    3
 10
1013.8927046532141
 20
1569.1503991371362
 11
1013.8927046532141
 21
1529.1503991461764
  0
INSERT
  2
-008-_Open30
  8
_0-2_08_DIM
 10
1013.8927046532141
 20
1576.6503991371364
 41
7.5
 42
7.5
 50
90
  0
INSERT
  2
-008-_Open30
  8
_0-2_08_DIM
 10
1013.8927046532141
 20
1521.6503991461761
 41
7.5
 42
7.5
 50
270
  0
LINE
  8
_0-2_08_DIM
  6
CONTINUOUS
 62
    3
 10
956.93021040728513
 20
1531.6503991412328
 11
989.22163585269345
 21
1531.6503991412328
  0
LINE
  8
_0-2_08_DIM
  6
CONTINUOUS
 62
    3
 10
959.92000875564565
 20
1576.6503991371364
 11
989.22163585269345
 21
1576.6503991371364
  0
LINE
  8
_0-2_08_DIM
  6
CONTINUOUS
 62
    3
 10
985.47163585269345
 20
1539.1503991412328
 11
985.47163585269345
 21
1569.1503991371362
  0
INSERT
  2
-008-_Open30
  8
_0-2_08_DIM
 10
985.47163585269345
 20
1531.6503991412328
 41
7.5
 42
7.5
 50
270
  0
INSERT
  2
-008-_Open30
  8
_0-2_08_DIM
 10
985.47163585269345
 20
1576.6503991371364
 41
7.5
 42
7.5
 50
90
  0
LINE
  8
_0-2_08_DIM
  6
CONTINUOUS
 62
    3
 10
953.04500875615508
 20
1578.525399137347
 11
953.04500875615508
 21
1611.4863486341806
  0
LINE
  8
_0-2_08_DIM
  6
CONTINUOUS
 62
    3
 10
958.04500875615497
 20
1578.525399137347
 11
958.04500875615497
 21
1611.4863486341806
  0
LINE
  8
_0-2_08_DIM
  6
CONTINUOUS
 62
    3
 10
945.54500875615497
 20
1607.7363486341808
 11
938.04500875615497
 21
1607.7363486341808
  0
LINE
  8
_0-2_08_DIM
  6
CONTINUOUS
 62
    3
 10
965.54500875615497
 20
1607.7363486341808
 11
982.79500875615497
 21
1607.7363486341808
  0
LINE
  8
_0-2_08_DIM
  6
CONTINUOUS
 62
    3
 10
953.04500875615508
 20
1607.7363486341808
 11
958.04500875615497
 21
1607.7363486341808
  0
INSERT
  2
-008-_Open30
  8
_0-2_08_DIM
 10
953.04500875615508
 20
1607.7363486341808
 41
7.5
 42
7.5
 50
0
  0
INSERT
  2
-008-_Open30
  8
_0-2_08_DIM
 10
958.04500875615497
 20
1607.7363486341808
 41
7.5
 42
7.5
 50
180
  0
LINE
  8
_0-2_08_DIM
  6
CONTINUOUS
 62
    3
 10
953.04500875615508
 20
1578.525399137347
 11
953.04500875615508
 21
1611.4863486341806
  0
LINE
  8
_0-2_08_DIM
  6
CONTINUOUS
 62
    3
 10
933.04500875573297
 20
1543.525399136925
 11
933.04500875573297
 21
1611.4863486341806
  0
LINE
  8
_0-2_08_DIM
  6
CONTINUOUS
 62
    3
 10
945.54500875615497
 20
1607.7363486341808
 11
940.54500875573297
 21
1607.7363486341808
  0
INSERT
  2
-008-_Open30
  8
_0-2_08_DIM
 10
953.04500875615508
 20
1607.7363486341808
 41
7.5
 42
7.5
 50
0
  0
INSERT
  2
-008-_Open30
  8
_0-2_08_DIM
 10
933.04500875573297
 20
1607.7363486341808
 41
7.5
 42
7.5
 50
180
  0
TEXT
  8
_0-7_07_TEXT
 62
    3
 10
2964.18925304207
 20
860.0276805664987
 40
9
 41
1
 50
0
  1
ĺŹőL
  0
TEXT
  8
_0-7_07_TEXT
 62
    3
 10
2964.9092530420703
 20
843.29068056649874
 40
9
 41
1
 50
0
  1
ü@ÄwÄŽé╚éźŐpĽöé═
  0
TEXT
  8
_0-7_07_TEXT
 62
    3
 10
3061.8842530420693
 20
843.29068056649874
 40
9
 41
1
 50
0
  1
C0.5
  0
TEXT
  8
_0-7_07_TEXT
 62
    3
 10
3092.3128244706404
 20
843.29068056649874
 40
9
 41
1
 50
0
  1
é╠é▒éĂ
  0
TEXT
  8
_0-7_07_TEXT
 62
    3
 10
2964.9092530420703
 20
826.19368056649876
 40
9
 41
1
 50
0
  1
ü@âKâXÉěĺfľ╩é═âOâëâCâôâ_ÄdĆŃé░é╠é▒
  0
TEXT
  8
_0-7_07_TEXT
 62
    3
 10
2963.8382530420699
 20
809.96968056649871
 40
9
 41
1
 50
0
  1
éĂ
  0
TEXT
  8
_0-7_07_TEXT
 62
    3
 10
2964.9092530420703
 20
793.3406805664988
 40
9
 41
1
 50
0
  1
ü@ÄwÄŽé╚éźŚnÉ┌Ľöé═ü@ü@ü@ü@é╠é▒éĂ
  0
TEXT
  8
_0-7_07_TEXT
 62
    4
 10
902.38698951433958
 20
1435.6121270959561
 40
24
 41
1
 50
0
  1
ŚoÉ┌Ľűľ@éĂö┬ĺĚüAĽ¤ŹX
  0
TEXT
  8
_0-7_07_TEXT
 62
    4
 10
901.97898951433956
 20
1391.2681270959561
 40
24
 41
1
 50
0
  1
é╗é╠Ĺ╝é╠Éíľ@é═Ľ¤ŹXé╚éÁ
  0
TEXT
  8
_0-7_07_TEXT
 62
    4
 10
3162.6167635122265
 20
624.7571953351769
 40
15.000000000000002
 41
1
 50
0
  1
A
  0
TEXT
  8
_0-2_08_DIM
 62
    3
 10
3133.4636636750361
 20
1861.1506805237036
 40
9
 41
1
 50
0
  1
(23)
  0
TEXT
  8
_0-2_08_DIM
 62
    3
 10
1009.0785588716403
 20
1193.003360722983
 40
9
 41
1
 50
0
  1
5
  0
TEXT
  8
_0-2_08_DIM
 62
    3
 10
3151.4636636772188
 20
1896.7843643285785
 40
9
 41
1
 50
0
  1
(12)
  0
TEXT
  8
_0-2_08_DIM
 62
    3
 10
2105.0172351036072
 20
1925.8143186986192
 40
9
 41
1
 50
0
  1
2030
  0
TEXT
  8
_0-2_08_DIM
 62
    3
 10
1061.5264343745444
 20
1080.0700987915293
 40
9
 41
1
 50
90
  1
120
  0
TEXT
  8
_0-2_08_DIM
 62
    3
 10
1092.5014063836211
 20
1079.998670220097
 40
9
 41
1
 50
90
  1
80
  0
TEXT
  8
_0-2_08_DIM
 62
    3
 10
1092.5014063836211
 20
1132.498670220097
 40
9
 41
1
 50
90
  1
25
  0
TEXT
  8
_0-2_08_DIM
 62
    3
 10
1228.6600922432301
 20
1204.3144530961449
 40
9
 41
1
 50
0
  1
160
  0
TEXT
  8
_0-2_08_DIM
 62
    3
 10
2104.3743779578103
 20
1266.8065061716604
 40
9
 41
1
 50
0
  1
1960
  0
TEXT
  8
_0-2_08_DIM
 62
    3
 10
2073.731520814953
 20
1235.80507026239
 40
9
 41
1
 50
0
  1
12x160=1920
  0
TEXT
  8
_0-2_08_DIM
 62
    3
 10
1143.588663672158
 20
1235.80507026239
 40
9
 41
1
 50
0
  1
20
  0
TEXT
  8
_0-2_08_DIM
 62
    3
 10
1119.4543147900517
 20
1119.9986702201006
 40
9
 41
1
 50
90
  1
20
  0
TEXT
  8
_0-2_08_DIM
 62
    3
 10
1181.8208065293627
 20
1175.6685936120543
 40
9
 41
1
 50
0
  1
12
  0
TEXT
  8
_0-2_08_DIM
 62
    3
 10
1122.0886636750356
 20
1859.6506805237038
 40
9
 41
1
 50
0
  1
23
  0
TEXT
  8
_0-2_08_DIM
 62
    3
 10
2105.0172351036072
 20
1895.2843643285785
 40
9
 41
1
 50
0
  1
2006
  0
TEXT
  8
_0-2_08_DIM
 62
    3
 10
1075.0708065299955
 20
1895.2843643285785
 40
9
 41
1
 50
0
  1
12
  0
TEXT
  8
_0-2_08_DIM
 62
    3
 10
1046.7431864384275
 20
1718.3818748315896
 40
9
 41
1
 50
90
  1
25
  0
TEXT
  8
_0-2_08_DIM
 62
    3
 10
2104.3743779607498
 20
1859.6506805237038
 40
9
 41
1
 50
0
  1
1960
  0
TEXT
  8
_0-2_08_DIM
 62
    3
 10
2073.7315208178961
 20
1825.1672347606939
 40
9
 41
1
 50
0
  1
12x160=1920
  0
TEXT
  8
_0-2_08_DIM
 62
    3
 10
1143.588663673635
 20
1825.1672347606939
 40
9
 41
1
 50
0
  1
20
  0
TEXT
  8
_0-2_08_DIM
 62
    3
 10
1228.6600922428263
 20
1791.0712482261395
 40
9
 41
1
 50
0
  1
160
  0
TEXT
  8
_0-2_08_DIM
 62
    3
 10
1067.5974936161988
 20
1666.935446256814
 40
9
 41
1
 50
90
  1
?15
  0
TEXT
  8
_0-2_08_DIM
 62
    3
 10
905.56676779008069
 20
1705.881874825885
 40
9
 41
1
 50
90
  1
20
  0
TEXT
  8
_0-2_08_DIM
 62
    3
 10
1012.0177046532141
 20
1721.8818748263072
 40
9
 41
1
 50
90
  1
58
  0
TEXT
  8
_0-2_08_DIM
 62
    3
 10
983.59663585269357
 20
1728.3818748283552
 40
9
 41
1
 50
90
  1
45
  0
TEXT
  8
_0-2_08_DIM
 62
    3
 10
973.63429447044075
 20
1792.4142528947798
 40
9
 41
1
 50
0
  1
5
  0
TEXT
  8
_0-2_08_DIM
 62
    3
 10
934.47358018451541
 20
1792.4142528947798
 40
9
 41
1
 50
0
  1
20
  0
TEXT
  8
_0-2_08_DIM
 62
    3
 10
1085.0688542779153
 20
1687.5137158673629
 40
9
 41
1
 50
45.000000000000611
  1
C1
  0
TEXT
  8
_0-2_08_DIM
 62
    3
 10
1101.4925280841157
 20
1667.1339353203768
 40
9
 41
1
 50
45.000000000000149
  1
C1.5
  0
TEXT
  8
_0-2_08_DIM
 62
    3
 10
1353.5849049497124
 20
1792.3160204804353
 40
9
 41
1
 50
0
  1
13-12
  0
TEXT
  8
_0-2_08_DIM
 62
    3
 10
1399.0134763782837
 20
1792.3160204804353
 40
9
 41
1
 50
0
  1
âLâŐ
  0
TEXT
  8
_0-2_08_DIM
 62
    3
 10
1104.3898005448189
 20
1799.8752455344202
 40
9
 41
1
 50
-44.999999999999552
  1
4-C2
  0
TEXT
  8
_0-2_08_DIM
 62
    3
 10
3180.2028792743213
 20
1666.9354462568137
 40
9
 41
1
 50
90
  1
?15
  0
TEXT
  8
_0-2_08_DIM
 62
    3
 10
3145.0833986767525
 20
1732.5282602633117
 40
9
 41
1
 50
45.000000000000917
  1
C1
  0
TEXT
  8
_0-2_08_DIM
 62
    3
 10
3119.8121234078976
 20
1743.6936046946003
 40
9
 41
1
 50
45
  1
C1.5
  0
TEXT
  8
_0-2_08_DIM
 62
    3
 10
3109.7136636750361
 20
1826.6672347606941
 40
9
 41
1
 50
0
  1
(20)
  0
TEXT
  8
_0-2_08_DIM
 62
    3
 10
1057.3583801161697
 20
995.57453026483086
 40
9
 41
1
 50
0
  1
2-12
  0
TEXT
  8
_0-2_08_DIM
 62
    3
 10
1094.2155229733125
 20
995.57453026483086
 40
9
 41
1
 50
0
  1
âLâŐ
  0
TEXT
  8
_0-2_08_DIM
 62
    3
 10
1102.8767675234546
 20
1195.5050739410485
 40
9
 41
1
 50
-45
  1
4-C2
  0
TEXT
  8
_0-2_08_DIM
 62
    3
 10
3109.7136636720961
 20
1237.3050702623902
 40
9
 41
1
 50
0
  1
(20)
  0
TEXT
  8
_0-2_08_DIM
 62
    3
 10
1045.2431864384275
 20
1767.006874831897
 40
9
 41
1
 50
90
  1
(20)
  0
TEXT
  8
_0-2_08_DIM
 62
    3
 10
905.56676779008069
 20
1523.0789705652855
 40
9
 41
1
 50
90
  1
20
  0
TEXT
  8
_0-2_08_DIM
 62
    3
 10
1012.0177046532143
 20
1540.5789705702273
 40
9
 41
1
 50
90
  1
55
  0
TEXT
  8
_0-2_08_DIM
 62
    3
 10
983.59663585269379
 20
1545.5789705677557
 40
9
 41
1
 50
90
  1
45
  0
TEXT
  8
_0-2_08_DIM
 62
    3
 10
973.63429447044075
 20
1609.6113486341806
 40
9
 41
1
 50
0
  1
5
  0
TEXT
  8
_0-2_08_DIM
 62
    3
 10
934.47358018451541
 20
1609.6113486341806
 40
9
 41
1
 50
0
  1
20
  0
TEXT
  8
_0-0_90_FRAME
 62
    3
 10
1164.2476863586501
 20
234.52242852860064
 40
9
 41
1
 50
0
  1
ÄŤôc
  0
TEXT
  8
_0-0_90_FRAME
 62
    3
 10
934.36286886654079
 20
234.52242852860064
 40
9
 41
0.6500000000000001
 50
0
  1
2013.09.01
  0
TEXT
  8
_0-0_90_FRAME
 62
    3
 10
994.33793090607332
 20
234.52242852860064
 40
9
 41
1
 50
0
  1
âGâAü[ö▓éźĺăë┴
  0
TEXT
  8
_0-8_
 62
    7
 10
1613.3159894875391
 20
225.43749864480125
 40
28.495492762395063
 41
1
 50
0
  1
A3ü@150%
  0
ENDSEC
  0
EOF
