  0
SECTION
  2
HEADER
  9
$ACADVER
  1
AC1009
  9
$INSBASE
 10
0
 20
0
 30
0
  9
$EXTMIN
 10
0
 20
0
  9
$EXTMAX
 10
3989.3689867353087
 20
2821.0537834771112
  9
$LIMMIN
 10
0
 20
0
  9
$LIMMAX
 10
3989.3689867353087
 20
2821.0537834771112
  9
$LTSCALE
 40
9.498497587465021
  0
ENDSEC
  0
SECTION
  2
TABLES
  0
TABLE
  2
LTYPE
 70
     9
  0
LTYPE
  2
CONTINUOUS
 70
    64
  3
実線
 72
    65
 73
     0
 40
0.0
  0
LTYPE
  2
DASHED1
 70
    64
  3
--  --  --  --  --  --  --  --  
 72
    65
 73
     2
 40
2.5
 49
1.25
 49
-1.25
  0
LTYPE
  2
DASHED2
 70
    64
  3
----    ----    ----    ----    
 72
    65
 73
     2
 40
5.0
 49
2.5
 49
-2.5
  0
LTYPE
  2
DASHED3
 70
    64
  3
------  ------  ------  ------  
 72
    65
 73
     2
 40
5.0
 49
3.75
 49
-1.25
  0
LTYPE
  2
CENTER1
 70
    64
  3
----- - ----- - ----- - ----- - 
 72
    65
 73
     4
 40
10.0
 49
6.25
 49
-1.25
 49
1.25
 49
-1.25
  0
LTYPE
  2
CENTER2
 70
    64
  3
----------  --  ----------  --  
 72
    65
 73
     4
 40
20.0
 49
12.5
 49
-2.5
 49
2.5
 49
-2.5
  0
LTYPE
  2
PHANTOM1
 70
    64
  3
--- - - --- - - --- - - --- - - 
 72
    65
 73
     6
 40
10.0
 49
3.25
 49
-1.25
 49
1.25
 49
-1.25
 49
1.25
 49
-1.25
  0
LTYPE
  2
PHANTOM2
 70
    64
  3
--------  -  -  --------  -  -  
 72
    65
 73
     6
 40
20.0
 49
10.0
 49
-2.5
 49
1.25
 49
-2.5
 49
1.25
 49
-2.5
  0
LTYPE
  2
DOT
 70
    64
  3
-   -   -   -   -   -   -   -   
 72
    65
 73
     2
 40
2.5
 49
0.625
 49
-1.875
  0
LTYPE
  2
DUMMY
 70
    64
  3
ダミー
 72
    65
 73
     0
 40
0.0
  0
LTYPE
  2
RAND1
 70
    64
  3
ランダム線1
 72
    65
 73
     4
 40
10.0
 49
1.0
 49
-2.0
 49
3.0
 49
-4.0
  0
LTYPE
  2
RAND2
 70
    64
  3
ランダム線2
 72
    65
 73
     4
 40
14.0
 49
2.0
 49
-3.0
 49
4.0
 49
-5.0
  0
LTYPE
  2
RAND3
 70
    64
  3
ランダム線3
 72
    65
 73
     4
 40
18.0
 49
3.0
 49
-4.0
 49
5.0
 49
-6.0
  0
LTYPE
  2
RAND4
 70
    64
  3
ランダム線4
 72
    65
 73
     4
 40
22.0
 49
4.0
 49
-5.0
 49
6.0
 49
-7.0
  0
LTYPE
  2
RAND5
 70
    64
  3
ランダム線5
 72
    65
 73
     4
 40
26.0
 49
5.0
 49
-6.0
 49
7.0
 49
-8.0
  0
LTYPE
  2
LONG1
 70
    64
  3
----------  --  ----------  --  
 72
    65
 73
     4
 40
40.0
 49
32.5
 49
-2.5
 49
2.5
 49
-2.5
  0
LTYPE
  2
LONG2
 70
    64
  3
--------  -  -  --------  -  -  
 72
    65
 73
     6
 40
40.0
 49
30.0
 49
-2.5
 49
1.25
 49
-2.5
 49
1.25
 49
-2.5
  0
LTYPE
  2
LONG3
 70
    64
  3
+++++++++++++++..+++++++++++++++
 72
    65
 73
     2
 40
40.0
 49
37.5
 49
-2.5
  0
LTYPE
  2
LONG4
 70
    64
  3
+++++++++++++++..+++++++++++++++
 72
    65
 73
     2
 40
80.0
 49
75.0
 49
-5.0
  0
LTYPE
  2
LONG5
 70
    64
  3
----------  --  ----------  --  
 72
    65
 73
     4
 40
60.0
 49
37.5
 49
-7.5
 49
7.5
 49
-7.5
  0
LTYPE
  2
dashed
 70
   64
  3
-------   -------------   ------
 72
   65
 73
    2
 40
7.5
 49
6
 49
-1.5
  0
LTYPE
  2
dashed_spaced
 70
   64
  3
----        --------        ----
 72
   65
 73
    2
 40
12
 49
6
 49
-6
  0
LTYPE
  2
long_dashed_dotted
 70
   64
  3
------------- --- --------------
 72
   65
 73
    4
 40
15.25
 49
12
 49
-1.5
 49
0.25
 49
-1.5
  0
LTYPE
  2
long_dashed_double-dotted
 70
   64
  3
----------- --- --- ------------
 72
   65
 73
    6
 40
17
 49
12
 49
-1.5
 49
0.25
 49
-1.5
 49
0.25
 49
-1.5
  0
LTYPE
  2
long_dashed_triplicate-dotted
 70
   64
  3
--------- --- --- --- ----------
 72
   65
 73
    8
 40
18.75
 49
12
 49
-1.5
 49
0.25
 49
-1.5
 49
0.25
 49
-1.5
 49
0.25
 49
-1.5
  0
LTYPE
  2
dotted
 70
   64
  3
   -       -       -       -    
 72
   65
 73
    2
 40
1.75
 49
0.25
 49
-1.5
  0
LTYPE
  2
chain
 70
   64
  3
-------------- -- --------------
 72
   65
 73
    4
 40
18.5
 49
12
 49
-1.5
 49
3.5
 49
-1.5
  0
LTYPE
  2
chain_double_dash
 70
   64
  3
------------ -- -- -------------
 72
   65
 73
    6
 40
23.5
 49
12
 49
-1.5
 49
3.5
 49
-1.5
 49
3.5
 49
-1.5
  0
LTYPE
  2
dashed_dotted
 70
   64
  3
-----------     -     ----------
 72
   65
 73
    4
 40
9.25
 49
6
 49
-1.5
 49
0.25
 49
-1.5
  0
LTYPE
  2
double-dashed_dotted
 70
   64
  3
------   -----------   -   -----
 72
   65
 73
    6
 40
16.75
 49
6
 49
-1.5
 49
6
 49
-1.5
 49
0.25
 49
-1.5
  0
LTYPE
  2
dashed_double-dotted
 70
   64
  3
---------    -    -    ---------
 72
   65
 73
    6
 40
11
 49
6
 49
-1.5
 49
0.25
 49
-1.5
 49
0.25
 49
-1.5
  0
LTYPE
  2
double-dashed_double-dotted
 70
   64
  3
-----   ---------   -   -   ----
 72
   65
 73
    8
 40
18.5
 49
6
 49
-1.5
 49
6
 49
-1.5
 49
0.25
 49
-1.5
 49
0.25
 49
-1.5
  0
LTYPE
  2
dashed_triplicate-dotted
 70
   64
  3
-------    -    -    -    ------
 72
   65
 73
    8
 40
12.75
 49
6
 49
-1.5
 49
0.25
 49
-1.5
 49
0.25
 49
-1.5
 49
0.25
 49
-1.5
  0
LTYPE
  2
double-dashed_triplicate-dotted
 70
   64
  3
-----  ---------  -  -  -  -----
 72
   65
 73
   10
 40
20.25
 49
6
 49
-1.5
 49
6
 49
-1.5
 49
0.25
 49
-1.5
 49
0.25
 49
-1.5
 49
0.25
 49
-1.5
  0
LTYPE
  2
undefined
 70
   64
  3
--------------------------------
 72
   65
 73
    0
 40
0
  0
LTYPE
  2
_
 70
   64
  3
                                
 72
   65
 73
    0
 40
0
  0
LTYPE
  2
__18
 70
   64
  3
                                
 72
   65
 73
    0
 40
0
  0
LTYPE
  2
__19
 70
   64
  3
                                
 72
   65
 73
    0
 40
0
  0
LTYPE
  2
__20
 70
   64
  3
                                
 72
   65
 73
    0
 40
0
  0
LTYPE
  2
__21
 70
   64
  3
                                
 72
   65
 73
    0
 40
0
  0
LTYPE
  2
__22
 70
   64
  3
                                
 72
   65
 73
    0
 40
0
  0
LTYPE
  2
__23
 70
   64
  3
                                
 72
   65
 73
    0
 40
0
  0
LTYPE
  2
__24
 70
   64
  3
                                
 72
   65
 73
    0
 40
0
  0
LTYPE
  2
__25
 70
   64
  3
                                
 72
   65
 73
    0
 40
0
  0
LTYPE
  2
__26
 70
   64
  3
                                
 72
   65
 73
    0
 40
0
  0
LTYPE
  2
__27
 70
   64
  3
                                
 72
   65
 73
    0
 40
0
  0
LTYPE
  2
__28
 70
   64
  3
                                
 72
   65
 73
    0
 40
0
  0
LTYPE
  2
__29
 70
   64
  3
                                
 72
   65
 73
    0
 40
0
  0
LTYPE
  2
__30
 70
   64
  3
                                
 72
   65
 73
    0
 40
0
  0
LTYPE
  2
__31
 70
   64
  3
                                
 72
   65
 73
    0
 40
0
  0
LTYPE
  2
__32
 70
   64
  3
                                
 72
   65
 73
    0
 40
0
  0
ENDTAB
  0
TABLE
  2
STYLE
  5
3
100
AcDbSymbolTable
 70
     1
  0
STYLE
  5
10
100
AcDbSymbolTableRecord
100
AcDbTextStyleTableRecord
  2
STANDARD
 70
     0
 40
0.0
 41
1.0
 50
0.0
 71
     0
 42
0.2
  3
txt
  4
bigfont.shx
  0
STYLE
  5
26
100
AcDbSymbolTableRecord
100
AcDbTextStyleTableRecord
  2
TATEGAKI
 70
    68
 40
0.0
 41
1.0
 50
0.0
 71
     0
 42
1.0
  3
txt
  4
bigfont.shx
  0
ENDTAB
  0
TABLE
  2
LAYER
 70
    9
  0
LAYER
  2
_0-0_90_FRAME
 70
   64
 62
    7
  6
CONTINUOUS
  0
LAYER
  2
_0-1_91_BLANK
 70
   64
 62
    7
  6
CONTINUOUS
  0
LAYER
  2
_0-2_08_DIM
 70
   64
 62
    7
  6
CONTINUOUS
  0
LAYER
  2
_0-3_04_HIDDEN
 70
   64
 62
    7
  6
CONTINUOUS
  0
LAYER
  2
_0-4_05_CENTER
 70
   64
 62
    7
  6
CONTINUOUS
  0
LAYER
  2
_0-5_0
 70
   64
 62
    7
  6
CONTINUOUS
  0
LAYER
  2
_0-6_07_TEXT
 70
   64
 62
    7
  6
CONTINUOUS
  0
LAYER
  2
_0-8_
 70
   64
 62
    7
  6
CONTINUOUS
  0
LAYER
  2
ADD_LINE
 70
   64
 62
    7
  6
CONTINUOUS
  0
ENDTAB
  0
ENDSEC
  0
SECTION
  2
BLOCKS
  0
BLOCK
  2
-000-p1ba05
 70
   64
 10
0
 20
0
 30
0
  0
ARC
  8
_0-2_08_DIM
  6
CONTINUOUS
 62
    3
 10
0
 20
1.6206695983957433
 40
1.6206695983958537
 50
204.22763733453323
 51
335.57577857182139
  0
ARC
  8
_0-2_08_DIM
  6
CONTINUOUS
 62
    3
 10
-2.9535588745990826
 20
0.2854771617432377
 40
1.6206695983958537
 50
24.227637334533135
 51
155.57577857182133
  0
ENDBLK
  0
BLOCK
  2
-001-p1ba02
 70
   64
 10
0
 20
0
 30
0
  0
LINE
  8
_0-2_08_DIM
  6
CONTINUOUS
 62
    3
 10
3.0000000000000142
 20
0
 11
1.5000000000000142
 21
2.5980762113532592
  0
LINE
  8
_0-2_08_DIM
  6
CONTINUOUS
 62
    3
 10
4.5000000000000142
 20
2.5980762113532592
 11
3.0000000000000142
 21
0
  0
LINE
  8
_0-2_08_DIM
  6
CONTINUOUS
 62
    3
 10
1.5000000000000142
 20
2.5980762113532592
 11
4.5000000000000142
 21
2.5980762113532592
  0
LINE
  8
_0-2_08_DIM
  6
CONTINUOUS
 62
    3
 10
-1.4999999999999858
 20
2.5980762113532592
 11
1.5000000000000142
 21
2.5980762113532592
  0
LINE
  8
_0-2_08_DIM
  6
CONTINUOUS
 62
    3
 10
1.5000000000000142
 20
2.5980762113532592
 11
0.0000000000000142
 21
0
  0
LINE
  8
_0-2_08_DIM
  6
CONTINUOUS
 62
    3
 10
0.0000000000000142
 20
0
 11
-1.4999999999999858
 21
2.5980762113532592
  0
ENDBLK
  0
BLOCK
  2
-002-AM_BALLOON1
 70
   64
 10
0
 20
0
 30
0
  0
CIRCLE
  8
_0-2_08_DIM
  6
CONTINUOUS
 62
    3
 10
0
 20
0
 40
5.0000000000000009
  0
ENDBLK
  0
BLOCK
  2
-003-_Open30
 70
   64
 10
0
 20
0
 30
0
  0
LINE
  8
_0-2_08_DIM
  6
CONTINUOUS
 62
    3
 10
-1
 20
0.26794919
 11
0
 21
0
  0
LINE
  8
_0-2_08_DIM
  6
CONTINUOUS
 62
    3
 10
0
 20
0
 11
-1
 21
-0.26794919
  0
LINE
  8
_0-2_08_DIM
  6
CONTINUOUS
 62
    3
 10
0
 20
0
 11
-1
 21
0
  0
ENDBLK
  0
ENDSEC
  0
SECTION
  2
ENTITIES
  0
TEXT
  8
_0-0_90_FRAME
 62
    7
 10
3015.8915381947213
 20
624.73258459089868
 40
15.000000000000002
 41
1
 50
0
  1
AT-221121-04-35
  0
TEXT
  8
_0-0_90_FRAME
 62
    7
 10
2913.1748770130157
 20
590.20631750397013
 40
15.000000000000002
 41
1
 50
0
  1
2025.03.27
  0
LINE
  8
_0-0_90_FRAME
  6
CONTINUOUS
 62
    5
 10
868.92091194727527
 20
582.0587317881392
 11
3198.0999976545977
 21
582.0587317881392
  0
LINE
  8
_0-0_90_FRAME
  6
CONTINUOUS
 62
    5
 10
3198.0999976545977
 20
582.0587317881392
 11
3198.0999976545977
 21
2247.2204133530017
  0
LINE
  8
_0-0_90_FRAME
  6
CONTINUOUS
 62
    5
 10
3198.0999976545977
 20
2247.2204133530017
 11
868.92091194727527
 21
2247.2204133530017
  0
LINE
  8
_0-0_90_FRAME
  6
CONTINUOUS
 62
    5
 10
868.92091194727527
 20
2247.2204133530017
 11
868.92091194727527
 21
582.0587317881392
  0
LINE
  8
_0-0_90_FRAME
  6
CONTINUOUS
 62
    5
 10
752.38320337632445
 20
1414.6395725705709
 11
868.92091194727527
 21
1414.6395725705709
  0
LINE
  8
_0-0_90_FRAME
  6
CONTINUOUS
 62
    5
 10
3236.9857833687256
 20
1414.6395725705709
 11
3198.0999976545977
 21
1414.6395725705709
  0
LINE
  8
_0-0_90_FRAME
  6
CONTINUOUS
 62
    5
 10
2033.5104548009363
 20
2292.1061990751527
 11
2033.5104548009367
 21
2247.2204133530017
  0
LINE
  8
_0-0_90_FRAME
  6
CONTINUOUS
 62
    5
 10
2033.5104548009367
 20
543.34679906712677
 11
2033.5104548009367
 21
582.0587317881392
  0
LINE
  8
_0-0_90_FRAME
  6
CONTINUOUS
 62
    5
 10
1734.3890262307141
 20
564.11144607392237
 11
2332.6318833711598
 21
564.11144607392237
  0
LINE
  8
_0-0_90_FRAME
  6
CONTINUOUS
 62
    5
 10
1734.3890262307141
 20
564.11144607392237
 11
1734.3890262307141
 21
582.0587317881392
  0
LINE
  8
_0-0_90_FRAME
  6
CONTINUOUS
 62
    5
 10
1794.2133119447601
 20
564.11144607392237
 11
1794.2133119447601
 21
582.0587317881392
  0
LINE
  8
_0-0_90_FRAME
  6
CONTINUOUS
 62
    5
 10
1854.0375976588059
 20
564.11144607392237
 11
1854.0375976588059
 21
582.0587317881392
  0
LINE
  8
_0-0_90_FRAME
  6
CONTINUOUS
 62
    5
 10
1913.8618833728442
 20
564.11144607392237
 11
1913.8618833728442
 21
582.0587317881392
  0
LINE
  8
_0-0_90_FRAME
  6
CONTINUOUS
 62
    5
 10
1973.6861690868907
 20
564.11144607392237
 11
1973.6861690868907
 21
582.0587317881392
  0
LINE
  8
_0-0_90_FRAME
  6
CONTINUOUS
 62
    5
 10
2093.3347405149748
 20
564.11144607392237
 11
2093.3347405149748
 21
582.0587317881392
  0
LINE
  8
_0-0_90_FRAME
  6
CONTINUOUS
 62
    5
 10
2153.159026229021
 20
564.11144607392237
 11
2153.159026229021
 21
582.0587317881392
  0
LINE
  8
_0-0_90_FRAME
  6
CONTINUOUS
 62
    5
 10
2212.9833119430673
 20
564.11144607392237
 11
2212.9833119430673
 21
582.0587317881392
  0
LINE
  8
_0-0_90_FRAME
  6
CONTINUOUS
 62
    5
 10
2272.8075976571131
 20
564.11144607392237
 11
2272.8075976571131
 21
582.0587317881392
  0
LINE
  8
_0-0_90_FRAME
  6
CONTINUOUS
 62
    5
 10
2332.6318833711598
 20
564.11144607392237
 11
2332.6318833711598
 21
582.0587317881392
  0
LINE
  8
_0-0_90_FRAME
  6
CONTINUOUS
 62
    4
 10
1431.1098098033672
 20
2247.2204133530017
 11
1431.1098098033672
 21
2286.1061990671215
  0
TEXT
  8
_0-0_90_FRAME
 62
    7
 10
979.51332661022298
 20
2254.9655034131715
 40
12
 41
1
 50
0
  1
1
  0
TEXT
  8
_0-0_90_FRAME
 62
    7
 10
1125.9094873045867
 20
2254.9655034131715
 40
12
 41
1
 50
0
  1
2
  0
TEXT
  8
_0-0_90_FRAME
 62
    7
 10
1326.7097023037763
 20
2254.9655034131715
 40
12
 41
1
 50
0
  1
3
  0
TEXT
  8
_0-0_90_FRAME
 62
    7
 10
1527.5099173029585
 20
2254.9655034131715
 40
12
 41
1
 50
0
  1
4
  0
TEXT
  8
_0-0_90_FRAME
 62
    7
 10
1728.3101323021558
 20
2254.9655034131715
 40
12
 41
1
 50
0
  1
5
  0
TEXT
  8
_0-0_90_FRAME
 62
    7
 10
1929.1103473013379
 20
2254.9655034131715
 40
12
 41
1
 50
0
  1
6
  0
TEXT
  8
_0-0_90_FRAME
 62
    7
 10
2129.9105623005275
 20
2254.9655034131715
 40
12
 41
1
 50
0
  1
7
  0
TEXT
  8
_0-0_90_FRAME
 62
    7
 10
2330.7107772997174
 20
2254.9655034131715
 40
12
 41
1
 50
0
  1
8
  0
TEXT
  8
_0-0_90_FRAME
 62
    7
 10
2531.5109922989068
 20
2254.9655034131715
 40
12
 41
1
 50
0
  1
9
  0
TEXT
  8
_0-0_90_FRAME
 62
    7
 10
2729.3112072980971
 20
2254.9655034131715
 40
12
 41
1
 50
0
  1
10
  0
TEXT
  8
_0-0_90_FRAME
 62
    7
 10
2931.1114222972792
 20
2254.9655034131715
 40
12
 41
1
 50
0
  1
11
  0
TEXT
  8
_0-0_90_FRAME
 62
    7
 10
3129.9116372964691
 20
2254.9655034131715
 40
12
 41
1
 50
0
  1
12
  0
TEXT
  8
_0-0_90_FRAME
 62
    7
 10
3205.8302860892718
 20
1941.1187141309174
 40
12
 41
1
 50
0
  1
B
  0
LINE
  8
_0-0_90_FRAME
  6
CONTINUOUS
 62
   18
 10
868.92091194727527
 20
582.0587317881392
 11
1174.9209119445982
 21
582.0587317881392
  0
LINE
  8
_0-0_90_FRAME
  6
CONTINUOUS
 62
   18
 10
1174.9209119445982
 20
582.0587317881392
 11
1174.9209119445982
 21
666.91587464493682
  0
LINE
  8
_0-0_90_FRAME
  6
CONTINUOUS
 62
   18
 10
1174.9209119445982
 20
666.91587464493682
 11
868.92091194727527
 21
666.91587464493682
  0
LINE
  8
_0-0_90_FRAME
  6
CONTINUOUS
 62
   18
 10
868.92091194727527
 20
666.91587464493682
 11
868.92091194727527
 21
582.0587317881392
  0
LINE
  8
_0-0_90_FRAME
  6
CONTINUOUS
 62
   18
 10
1132.9209119445982
 20
582.0587317881392
 11
1132.9209119445982
 21
666.91587464493682
  0
LINE
  8
_0-0_90_FRAME
  6
CONTINUOUS
 62
   18
 10
910.92091194459806
 20
582.0587317881392
 11
910.92091194459806
 21
666.91587464493682
  0
LINE
  8
_0-0_90_FRAME
  6
CONTINUOUS
 62
   18
 10
958.92091194459795
 20
582.0587317881392
 11
958.92091194459795
 21
666.91587464493682
  0
LINE
  8
_0-0_90_FRAME
  6
CONTINUOUS
 62
   18
 10
868.92091194727527
 20
645.70158893074142
 11
1174.9209119445982
 21
645.70158893074142
  0
LINE
  8
_0-0_90_FRAME
  6
CONTINUOUS
 62
   18
 10
868.92091194727527
 20
624.48730321653522
 11
1174.9209119445982
 21
624.48730321653522
  0
LINE
  8
_0-0_90_FRAME
  6
CONTINUOUS
 62
   18
 10
868.92091194727527
 20
603.27301750233994
 11
1174.9209119445982
 21
603.27301750234005
  0
TEXT
  8
_0-0_90_FRAME
 62
    7
 10
879.44818467320931
 20
652.70873178783916
 40
7.1999999999999993
 41
1
 50
0
  1
記号
  0
TEXT
  8
_0-0_90_FRAME
 62
    7
 10
923.41775583687252
 20
652.70873178783916
 40
7.1999999999999993
 41
1
 50
0
  1
日付
  0
TEXT
  8
_0-0_90_FRAME
 62
    7
 10
1138.211821035507
 20
652.70873178783916
 40
7.1999999999999993
 41
1
 50
0
  1
作成者
  0
TEXT
  8
_0-0_90_FRAME
 62
    7
 10
1021.9754573991435
 20
652.58600451511188
 40
7.1999999999999993
 41
1
 50
0
  1
改訂内容
  0
LINE
  8
_0-0_90_FRAME
  6
CONTINUOUS
 62
   18
 10
880.37448337454339
 20
605.52619144189805
 11
889.92091194593661
 21
622.06109075836969
  0
LINE
  8
_0-0_90_FRAME
  6
CONTINUOUS
 62
   18
 10
889.92091194593661
 20
622.06109075836969
 11
899.4673405173246
 21
605.52619144189805
  0
LINE
  8
_0-0_90_FRAME
  6
CONTINUOUS
 62
   18
 10
899.4673405173246
 20
605.52619144189805
 11
880.37448337454339
 21
605.52619144189805
  0
TEXT
  8
_0-0_90_FRAME
 62
    7
 10
887.85332673927348
 20
629.82318066394294
 40
6.3642857142600002
 41
1
 50
0
  1
1
  0
TEXT
  8
_0-0_90_FRAME
 62
    7
 10
887.85332673927348
 20
608.60889494974219
 40
6.3642857142600002
 41
1
 50
0
  1
2
  0
TEXT
  8
_0-0_90_FRAME
 62
    7
 10
887.85332673927348
 20
587.39460923554145
 40
6.3642857142600002
 41
1
 50
0
  1
3
  0
LINE
  8
_0-0_90_FRAME
  6
CONTINUOUS
 62
   18
 10
880.37448337454339
 20
626.74047715609879
 11
889.92091194593661
 21
643.27537647257589
  0
LINE
  8
_0-0_90_FRAME
  6
CONTINUOUS
 62
   18
 10
889.92091194593661
 20
643.27537647257589
 11
899.4673405173246
 21
626.74047715609879
  0
LINE
  8
_0-0_90_FRAME
  6
CONTINUOUS
 62
   18
 10
899.4673405173246
 20
626.74047715609879
 11
880.37448337454339
 21
626.74047715609879
  0
LINE
  8
_0-0_90_FRAME
  6
CONTINUOUS
 62
   18
 10
880.37448337454339
 20
584.31190572769742
 11
889.92091194593661
 21
600.8468050441744
  0
LINE
  8
_0-0_90_FRAME
  6
CONTINUOUS
 62
   18
 10
889.92091194593661
 20
600.8468050441744
 11
899.4673405173246
 21
584.31190572769742
  0
LINE
  8
_0-0_90_FRAME
  6
CONTINUOUS
 62
   18
 10
899.4673405173246
 20
584.31190572769742
 11
880.37448337454339
 21
584.31190572769742
  0
LINE
  8
_0-0_90_FRAME
  6
CONTINUOUS
 62
    4
 10
3236.9857833687256
 20
988.65625932229307
 11
3198.0999976545977
 21
988.65625932229307
  0
LINE
  8
_0-0_90_FRAME
  6
CONTINUOUS
 62
    4
 10
3236.9857833687256
 20
1201.6479159464318
 11
3198.0999976545977
 21
1201.6479159464318
  0
LINE
  8
_0-0_90_FRAME
  6
CONTINUOUS
 62
    4
 10
3236.9857833687256
 20
775.66460269815445
 11
3198.0999976545977
 21
775.66460269815445
  0
LINE
  8
_0-0_90_FRAME
  6
CONTINUOUS
 62
    4
 10
3236.9857833687256
 20
1840.6228858188483
 11
3198.0999976545977
 21
1840.6228858188483
  0
LINE
  8
_0-0_90_FRAME
  6
CONTINUOUS
 62
    4
 10
3236.9857833687256
 20
1627.6312291947097
 11
3198.0999976545977
 21
1627.6312291947097
  0
LINE
  8
_0-0_90_FRAME
  6
CONTINUOUS
 62
    4
 10
3236.9857833687256
 20
2053.6145424429874
 11
3198.0999976545977
 21
2053.6145424429874
  0
TEXT
  8
_0-0_90_FRAME
 62
    7
 10
3205.8302860892718
 20
2154.1103707550565
 40
12
 41
1
 50
0
  1
A
  0
TEXT
  8
_0-0_90_FRAME
 62
    7
 10
3205.8302860892718
 20
1728.1270575067788
 40
12
 41
1
 50
0
  1
C
  0
TEXT
  8
_0-0_90_FRAME
 62
    7
 10
3205.8302860892718
 20
1515.1354008826404
 40
12
 41
1
 50
0
  1
D
  0
TEXT
  8
_0-0_90_FRAME
 62
    7
 10
3205.8302860892718
 20
1089.1520876343625
 40
12
 41
1
 50
0
  1
F
  0
TEXT
  8
_0-0_90_FRAME
 62
    7
 10
3205.8302860892718
 20
876.16043101022365
 40
12
 41
1
 50
0
  1
G
  0
TEXT
  8
_0-0_90_FRAME
 62
    7
 10
3205.8302860892718
 20
663.16877438608492
 40
12
 41
1
 50
0
  1
H
  0
TEXT
  8
_0-0_90_FRAME
 62
    7
 10
3205.8302860892718
 20
1302.1437442585013
 40
12
 41
1
 50
0
  1
E
  0
TEXT
  8
_0-0_90_FRAME
 62
    7
 10
851.2552267653831
 20
1941.1187141309174
 40
12
 41
1
 50
0
  1
B
  0
LINE
  8
_0-0_90_FRAME
  6
CONTINUOUS
 62
    4
 10
868.92091194727527
 20
988.65625932229307
 11
830.03512623315532
 21
988.65625932229307
  0
LINE
  8
_0-0_90_FRAME
  6
CONTINUOUS
 62
    4
 10
868.92091194727527
 20
1201.6479159464318
 11
830.03512623315532
 21
1201.6479159464318
  0
LINE
  8
_0-0_90_FRAME
  6
CONTINUOUS
 62
    4
 10
868.92091194727527
 20
775.66460269815445
 11
830.03512623315532
 21
775.66460269815445
  0
LINE
  8
_0-0_90_FRAME
  6
CONTINUOUS
 62
    4
 10
868.92091194727527
 20
1840.6228858188483
 11
830.03512623315532
 21
1840.6228858188483
  0
LINE
  8
_0-0_90_FRAME
  6
CONTINUOUS
 62
    4
 10
868.92091194727527
 20
1627.6312291947097
 11
830.03512623315532
 21
1627.6312291947097
  0
LINE
  8
_0-0_90_FRAME
  6
CONTINUOUS
 62
    4
 10
868.92091194727527
 20
2053.6145424429874
 11
830.03512623315532
 21
2053.6145424429874
  0
TEXT
  8
_0-0_90_FRAME
 62
    7
 10
851.2552267653831
 20
2154.1103707550565
 40
12
 41
1
 50
0
  1
A
  0
TEXT
  8
_0-0_90_FRAME
 62
    7
 10
851.2552267653831
 20
1728.1270575067788
 40
12
 41
1
 50
0
  1
C
  0
TEXT
  8
_0-0_90_FRAME
 62
    7
 10
851.2552267653831
 20
1515.1354008826404
 40
12
 41
1
 50
0
  1
D
  0
TEXT
  8
_0-0_90_FRAME
 62
    7
 10
851.2552267653831
 20
1089.1520876343625
 40
12
 41
1
 50
0
  1
F
  0
TEXT
  8
_0-0_90_FRAME
 62
    7
 10
851.2552267653831
 20
876.16043101022365
 40
12
 41
1
 50
0
  1
G
  0
TEXT
  8
_0-0_90_FRAME
 62
    7
 10
851.2552267653831
 20
1302.1437442585013
 40
12
 41
1
 50
0
  1
E
  0
TEXT
  8
_0-0_90_FRAME
 62
    7
 10
851.2552267653831
 20
663.16877438608492
 40
12
 41
1
 50
0
  1
H
  0
LINE
  8
_0-0_90_FRAME
  6
CONTINUOUS
 62
    4
 10
1230.3095948041778
 20
2247.2204133530017
 11
1230.3095948041778
 21
2286.1061990671215
  0
LINE
  8
_0-0_90_FRAME
  6
CONTINUOUS
 62
    4
 10
1029.5093798049879
 20
2247.2204133530017
 11
1029.5093798049879
 21
2286.1061990671215
  0
LINE
  8
_0-0_90_FRAME
  6
CONTINUOUS
 62
    4
 10
1631.9100248025572
 20
2247.2204133530017
 11
1631.9100248025572
 21
2286.1061990671215
  0
LINE
  8
_0-0_90_FRAME
  6
CONTINUOUS
 62
    4
 10
1832.7102398017466
 20
2247.2204133530017
 11
1832.7102398017466
 21
2286.1061990671215
  0
LINE
  8
_0-0_90_FRAME
  6
CONTINUOUS
 62
    4
 10
2635.9110997984981
 20
2247.2204133530017
 11
2635.9110997984981
 21
2286.1061990671215
  0
LINE
  8
_0-0_90_FRAME
  6
CONTINUOUS
 62
    4
 10
2836.7113147976884
 20
2247.2204133530017
 11
2836.7113147976884
 21
2286.1061990671215
  0
LINE
  8
_0-0_90_FRAME
  6
CONTINUOUS
 62
    4
 10
3037.5115297968778
 20
2247.2204133530017
 11
3037.5115297968778
 21
2286.1061990671215
  0
LINE
  8
_0-0_90_FRAME
  6
CONTINUOUS
 62
    4
 10
2435.1108847993087
 20
2247.2204133530017
 11
2435.1108847993087
 21
2286.1061990671215
  0
LINE
  8
_0-0_90_FRAME
  6
CONTINUOUS
 62
    4
 10
2234.3106698001261
 20
2247.2204133530017
 11
2234.3106698001261
 21
2286.1061990671215
  0
LINE
  8
_0-0_90_FRAME
  6
CONTINUOUS
 62
    4
 10
1431.1098098033672
 20
543.34679906712677
 11
1431.1098098033672
 21
582.0587317881392
  0
LINE
  8
_0-0_90_FRAME
  6
CONTINUOUS
 62
    4
 10
1230.3095948041778
 20
543.34679906712677
 11
1230.3095948041778
 21
582.0587317881392
  0
LINE
  8
_0-0_90_FRAME
  6
CONTINUOUS
 62
    4
 10
1029.5093798049879
 20
543.34679906712677
 11
1029.5093798049879
 21
582.0587317881392
  0
LINE
  8
_0-0_90_FRAME
  6
CONTINUOUS
 62
    4
 10
1631.9100248025572
 20
543.34679906712677
 11
1631.9100248025572
 21
582.0587317881392
  0
LINE
  8
_0-0_90_FRAME
  6
CONTINUOUS
 62
    4
 10
2635.9110997984981
 20
543.34679906712677
 11
2635.9110997984981
 21
582.0587317881392
  0
LINE
  8
_0-0_90_FRAME
  6
CONTINUOUS
 62
    4
 10
2836.7113147976884
 20
543.34679906712677
 11
2836.7113147976884
 21
582.0587317881392
  0
LINE
  8
_0-0_90_FRAME
  6
CONTINUOUS
 62
    4
 10
3037.5115297968778
 20
543.34679906712677
 11
3037.5115297968778
 21
582.0587317881392
  0
LINE
  8
_0-0_90_FRAME
  6
CONTINUOUS
 62
    4
 10
2435.1108847993087
 20
543.34679906712677
 11
2435.1108847993087
 21
582.0587317881392
  0
LINE
  8
_0-1_91_BLANK
  6
CONTINUOUS
 62
    5
 10
752.3832033665833
 20
543.34679906712677
 11
3236.9857833645983
 21
543.34679906712677
  0
LINE
  8
_0-1_91_BLANK
  6
CONTINUOUS
 62
    5
 10
3236.9857833645983
 20
543.34679906712677
 11
3236.9857833645983
 21
2292.1061990751527
  0
LINE
  8
_0-1_91_BLANK
  6
CONTINUOUS
 62
    5
 10
3236.9857833645983
 20
2292.1061990751527
 11
752.3832033665833
 21
2292.1061990751527
  0
LINE
  8
_0-1_91_BLANK
  6
CONTINUOUS
 62
    5
 10
752.3832033665833
 20
2292.1061990751527
 11
752.3832033665833
 21
543.34679906712677
  0
LINE
  8
_0-0_90_FRAME
  6
CONTINUOUS
 62
   18
 10
2604.0999976569969
 20
582.0587317881392
 11
3198.0999976545977
 21
582.0587317881392
  0
LINE
  8
_0-0_90_FRAME
  6
CONTINUOUS
 62
   18
 10
3198.0999976545977
 20
582.0587317881392
 11
3198.0999976545977
 21
692.37301750197935
  0
LINE
  8
_0-0_90_FRAME
  6
CONTINUOUS
 62
   18
 10
3198.0999976545977
 20
692.37301750197935
 11
2604.0999976569969
 21
692.37301750197935
  0
LINE
  8
_0-0_90_FRAME
  6
CONTINUOUS
 62
   18
 10
2604.0999976569969
 20
692.37301750197935
 11
2604.0999976569969
 21
582.0587317881392
  0
LINE
  8
_0-0_90_FRAME
  6
CONTINUOUS
 62
   18
 10
2650.8774976568097
 20
673.28016035919813
 11
2680.577497656689
 21
680.70516035916921
  0
LINE
  8
_0-0_90_FRAME
  6
CONTINUOUS
 62
   18
 10
2680.577497656689
 20
680.70516035916921
 11
2680.577497656689
 21
651.00516035929024
  0
LINE
  8
_0-0_90_FRAME
  6
CONTINUOUS
 62
   18
 10
2680.577497656689
 20
651.00516035929024
 11
2650.8774976568097
 21
658.43016035925871
  0
LINE
  8
_0-0_90_FRAME
  6
CONTINUOUS
 62
   18
 10
2650.8774976568097
 20
658.43016035925871
 11
2650.8774976568097
 21
673.28016035919813
  0
CIRCLE
  8
_0-0_90_FRAME
  6
CONTINUOUS
 62
   18
 10
2631.5724976568854
 20
665.85516035922694
 40
7.4249999999699998
  0
CIRCLE
  8
_0-0_90_FRAME
  6
CONTINUOUS
 62
   18
 10
2631.5724976568854
 20
665.85516035922694
 40
14.84999999994
  0
LINE
  8
_0-0_90_FRAME
  6
CONTINUOUS
 62
   18
 10
2613.7524976569575
 20
665.85516035922694
 11
2683.5474976566748
 21
665.85516035922694
  0
LINE
  8
_0-0_90_FRAME
  6
CONTINUOUS
 62
   18
 10
2631.5724976568854
 20
648.03516035930193
 11
2631.5724976568854
 21
683.67516035915764
  0
LINE
  8
_0-0_90_FRAME
  6
CONTINUOUS
 62
   18
 10
2847.4214262273968
 20
582.0587317881392
 11
2847.4214262273968
 21
692.37301750197935
  0
LINE
  8
_0-0_90_FRAME
  6
CONTINUOUS
 62
   18
 10
2847.4214262273968
 20
616.00158893085847
 11
3198.0999976545977
 21
616.00158893085847
  0
TEXT
  8
_0-0_90_FRAME
 62
    7
 10
2848.9425514996888
 20
605.44770819054258
 40
7.5000000000000009
 41
1
 50
0
  1
作 成 日
  0
LINE
  8
_0-0_90_FRAME
  6
CONTINUOUS
 62
   18
 10
3054.8285690837151
 20
616.00158893085847
 11
3054.8285690837151
 21
582.0587317881392
  0
TEXT
  8
_0-0_90_FRAME
 62
    7
 10
3056.6097343243664
 20
605.24028538609866
 40
7.5000000000000009
 41
1
 50
0
  1
個数
  0
TEXT
  8
_0-0_90_FRAME
 62
    7
 10
2777.2812679546064
 20
682.53971324342569
 40
7.5000000000000009
 41
1
 50
0
  1
サイズ
  0
TEXT
  8
_0-0_90_FRAME
 62
    7
 10
2694.5455536692289
 20
681.98035174620429
 40
7.5000000000000009
 41
1
 50
0
  1
尺　度
  0
TEXT
  8
_0-0_90_FRAME
 62
    7
 10
2777.2813136638642
 20
629.50399895792657
 40
7.5000000000000009
 41
1
 50
0
  1
製　図
  0
LINE
  8
_0-0_90_FRAME
  6
CONTINUOUS
 62
   18
 10
2847.4214262273968
 20
639.33730321647749
 11
2604.0999976569969
 21
639.33730321647749
  0
LINE
  8
_0-0_90_FRAME
  6
CONTINUOUS
 62
   18
 10
2960.7071279503516
 20
649.94444607357775
 11
3198.0999976545977
 21
649.94444607357775
  0
TEXT
  8
_0-0_90_FRAME
 62
    7
 10
2801.9323761913047
 20
652.06701677694809
 40
15.000000000000002
 41
1
 50
0
  1
A1
  0
LINE
  8
_0-0_90_FRAME
  6
CONTINUOUS
 62
   18
 10
2775.9357119420165
 20
582.0587317881392
 11
2775.9357119420165
 21
692.37301750197935
  0
TEXT
  8
_0-0_90_FRAME
 62
    2
 10
2656.585787283178
 20
593.73219825411206
 40
15.000000000000002
 41
1
 50
0
  1
アクアトリム
  0
LINE
  8
_0-0_90_FRAME
  6
CONTINUOUS
 62
    4
 10
2651.9712126461809
 20
632.07214554823361
 11
2651.9712126461809
 21
587.69260988641111
  0
LINE
  8
_0-0_90_FRAME
  6
CONTINUOUS
 62
    4
 10
2651.9712126461809
 20
587.69260988641111
 11
2611.6261802263425
 21
587.69260988641111
  0
LINE
  8
_0-0_90_FRAME
  6
CONTINUOUS
 62
    4
 10
2611.6261802263425
 20
587.69260988641111
 11
2611.6261802263425
 21
632.07214554823361
  0
LINE
  8
_0-0_90_FRAME
  6
CONTINUOUS
 62
    4
 10
2611.818299428342
 20
631.88002634623285
 11
2611.818299428342
 21
631.88002634623285
  0
LINE
  8
_0-0_90_FRAME
  6
CONTINUOUS
 62
    4
 10
2611.818299428342
 20
631.88002634623285
 11
2611.9175359888495
 21
630.87919186657314
  0
LINE
  8
_0-0_90_FRAME
  6
CONTINUOUS
 62
    4
 10
2611.9175359888495
 20
630.87919186657314
 11
2612.2122304176974
 21
629.90876723613121
  0
LINE
  8
_0-0_90_FRAME
  6
CONTINUOUS
 62
    4
 10
2612.2122304176974
 20
629.90876723613121
 11
2612.6934285737875
 21
628.99823831624451
  0
LINE
  8
_0-0_90_FRAME
  6
CONTINUOUS
 62
    4
 10
2612.6934285737875
 20
628.99823831624451
 11
2613.346509494645
 21
628.17527106739385
  0
LINE
  8
_0-0_90_FRAME
  6
CONTINUOUS
 62
    4
 10
2613.346509494645
 20
628.17527106739385
 11
2614.1516296469649
 21
627.46487093299413
  0
LINE
  8
_0-0_90_FRAME
  6
CONTINUOUS
 62
    4
 10
2614.1516296469649
 20
627.46487093299413
 11
2615.0843258623286
 21
626.88862306164924
  0
LINE
  8
_0-0_90_FRAME
  6
CONTINUOUS
 62
    4
 10
2615.0843258623286
 20
626.88862306164924
 11
2616.1162586382002
 21
626.46403645333442
  0
LINE
  8
_0-0_90_FRAME
  6
CONTINUOUS
 62
    4
 10
2616.1162586382002
 20
626.46403645333442
 11
2617.2160732193679
 21
626.20401195729221
  0
LINE
  8
_0-0_90_FRAME
  6
CONTINUOUS
 62
    4
 10
2617.2160732193679
 20
626.20401195729221
 11
2618.3503522963156
 21
626.11645028625617
  0
LINE
  8
_0-0_90_FRAME
  6
CONTINUOUS
 62
    4
 10
2618.3503522963156
 20
626.11645028625617
 11
2619.4846313732633
 21
626.20401195729221
  0
LINE
  8
_0-0_90_FRAME
  6
CONTINUOUS
 62
    4
 10
2619.4846313732633
 20
626.20401195729221
 11
2620.584445954431
 21
626.46403645333442
  0
LINE
  8
_0-0_90_FRAME
  6
CONTINUOUS
 62
    4
 10
2620.584445954431
 20
626.46403645333442
 11
2621.6163787303026
 21
626.88862306164924
  0
LINE
  8
_0-0_90_FRAME
  6
CONTINUOUS
 62
    4
 10
2621.6163787303026
 20
626.88862306164924
 11
2622.5490749456662
 21
627.46487093299413
  0
LINE
  8
_0-0_90_FRAME
  6
CONTINUOUS
 62
    4
 10
2622.5490749456662
 20
627.46487093299413
 11
2623.3541950979861
 21
628.17527106739385
  0
LINE
  8
_0-0_90_FRAME
  6
CONTINUOUS
 62
    4
 10
2623.3541950979861
 20
628.17527106739385
 11
2624.0072760188436
 21
628.99823831624451
  0
LINE
  8
_0-0_90_FRAME
  6
CONTINUOUS
 62
    4
 10
2624.0072760188436
 20
628.99823831624451
 11
2624.4884741749338
 21
629.90876723613121
  0
LINE
  8
_0-0_90_FRAME
  6
CONTINUOUS
 62
    4
 10
2624.4884741749338
 20
629.90876723613121
 11
2624.7831686037816
 21
630.87919186657314
  0
LINE
  8
_0-0_90_FRAME
  6
CONTINUOUS
 62
    4
 10
2624.7831686037816
 20
630.87919186657314
 11
2624.8824051642891
 21
631.88002634623285
  0
LINE
  8
_0-0_90_FRAME
  6
CONTINUOUS
 62
    4
 10
2624.8824051642891
 20
631.88002634623285
 11
2624.8824051642891
 21
631.88002634623285
  0
ARC
  8
_0-0_90_FRAME
  6
CONTINUOUS
 62
    4
 10
2625.0745243662882
 20
631.88002634623285
 40
0.1921192019992239
 50
0
 51
180
  0
LINE
  8
_0-0_90_FRAME
  6
CONTINUOUS
 62
    4
 10
2625.2666435682881
 20
631.88002634623285
 11
2625.2666435682881
 21
631.88002634623285
  0
LINE
  8
_0-0_90_FRAME
  6
CONTINUOUS
 62
    4
 10
2625.2666435682881
 20
631.88002634623285
 11
2625.3658801287957
 21
630.87919186657314
  0
LINE
  8
_0-0_90_FRAME
  6
CONTINUOUS
 62
    4
 10
2625.3658801287957
 20
630.87919186657314
 11
2625.6605745576435
 21
629.90876723613121
  0
LINE
  8
_0-0_90_FRAME
  6
CONTINUOUS
 62
    4
 10
2625.6605745576435
 20
629.90876723613121
 11
2626.1417727137336
 21
628.99823831624451
  0
LINE
  8
_0-0_90_FRAME
  6
CONTINUOUS
 62
    4
 10
2626.1417727137336
 20
628.99823831624451
 11
2626.7948536345912
 21
628.17527106739385
  0
LINE
  8
_0-0_90_FRAME
  6
CONTINUOUS
 62
    4
 10
2626.7948536345912
 20
628.17527106739385
 11
2627.5999737869111
 21
627.46487093299413
  0
LINE
  8
_0-0_90_FRAME
  6
CONTINUOUS
 62
    4
 10
2627.5999737869111
 20
627.46487093299413
 11
2628.5326700022747
 21
626.88862306164924
  0
LINE
  8
_0-0_90_FRAME
  6
CONTINUOUS
 62
    4
 10
2628.5326700022747
 20
626.88862306164924
 11
2629.5646027781463
 21
626.46403645333442
  0
LINE
  8
_0-0_90_FRAME
  6
CONTINUOUS
 62
    4
 10
2629.5646027781463
 20
626.46403645333442
 11
2630.664417359314
 21
626.20401195729221
  0
LINE
  8
_0-0_90_FRAME
  6
CONTINUOUS
 62
    4
 10
2630.664417359314
 20
626.20401195729221
 11
2631.7986964362617
 21
626.11645028625617
  0
LINE
  8
_0-0_90_FRAME
  6
CONTINUOUS
 62
    4
 10
2631.7986964362617
 20
626.11645028625617
 11
2632.9329755132094
 21
626.20401195729221
  0
LINE
  8
_0-0_90_FRAME
  6
CONTINUOUS
 62
    4
 10
2632.9329755132094
 20
626.20401195729221
 11
2634.0327900943771
 21
626.46403645333442
  0
LINE
  8
_0-0_90_FRAME
  6
CONTINUOUS
 62
    4
 10
2634.0327900943771
 20
626.46403645333442
 11
2635.0647228702487
 21
626.88862306164924
  0
LINE
  8
_0-0_90_FRAME
  6
CONTINUOUS
 62
    4
 10
2635.0647228702487
 20
626.88862306164924
 11
2635.9974190856124
 21
627.46487093299413
  0
LINE
  8
_0-0_90_FRAME
  6
CONTINUOUS
 62
    4
 10
2635.9974190856124
 20
627.46487093299413
 11
2636.8025392379323
 21
628.17527106739385
  0
LINE
  8
_0-0_90_FRAME
  6
CONTINUOUS
 62
    4
 10
2636.8025392379323
 20
628.17527106739385
 11
2637.4556201587898
 21
628.99823831624451
  0
LINE
  8
_0-0_90_FRAME
  6
CONTINUOUS
 62
    4
 10
2637.4556201587898
 20
628.99823831624451
 11
2637.9368183148799
 21
629.90876723613121
  0
LINE
  8
_0-0_90_FRAME
  6
CONTINUOUS
 62
    4
 10
2637.9368183148799
 20
629.90876723613121
 11
2638.2315127437278
 21
630.87919186657314
  0
LINE
  8
_0-0_90_FRAME
  6
CONTINUOUS
 62
    4
 10
2638.2315127437278
 20
630.87919186657314
 11
2638.3307493042353
 21
631.88002634623285
  0
LINE
  8
_0-0_90_FRAME
  6
CONTINUOUS
 62
    4
 10
2638.3307493042353
 20
631.88002634623285
 11
2638.3307493042353
 21
631.88002634623285
  0
ARC
  8
_0-0_90_FRAME
  6
CONTINUOUS
 62
    4
 10
2638.5228685062348
 20
631.88002634623285
 40
0.1921192019992239
 50
0
 51
180
  0
LINE
  8
_0-0_90_FRAME
  6
CONTINUOUS
 62
    4
 10
2638.7149877082338
 20
631.88002634623285
 11
2638.7149877082338
 21
631.88002634623285
  0
LINE
  8
_0-0_90_FRAME
  6
CONTINUOUS
 62
    4
 10
2638.7149877082338
 20
631.88002634623285
 11
2638.8142242687413
 21
630.87919186657314
  0
LINE
  8
_0-0_90_FRAME
  6
CONTINUOUS
 62
    4
 10
2638.8142242687413
 20
630.87919186657314
 11
2639.1089186975892
 21
629.90876723613121
  0
LINE
  8
_0-0_90_FRAME
  6
CONTINUOUS
 62
    4
 10
2639.1089186975892
 20
629.90876723613121
 11
2639.5901168536793
 21
628.99823831624451
  0
LINE
  8
_0-0_90_FRAME
  6
CONTINUOUS
 62
    4
 10
2639.5901168536793
 20
628.99823831624451
 11
2640.2431977745368
 21
628.17527106739385
  0
LINE
  8
_0-0_90_FRAME
  6
CONTINUOUS
 62
    4
 10
2640.2431977745368
 20
628.17527106739385
 11
2641.0483179268567
 21
627.46487093299413
  0
LINE
  8
_0-0_90_FRAME
  6
CONTINUOUS
 62
    4
 10
2641.0483179268567
 20
627.46487093299413
 11
2641.9810141422204
 21
626.88862306164924
  0
LINE
  8
_0-0_90_FRAME
  6
CONTINUOUS
 62
    4
 10
2641.9810141422204
 20
626.88862306164924
 11
2643.012946918092
 21
626.46403645333442
  0
LINE
  8
_0-0_90_FRAME
  6
CONTINUOUS
 62
    4
 10
2643.012946918092
 20
626.46403645333442
 11
2644.1127614992597
 21
626.20401195729221
  0
LINE
  8
_0-0_90_FRAME
  6
CONTINUOUS
 62
    4
 10
2644.1127614992597
 20
626.20401195729221
 11
2645.2470405762074
 21
626.11645028625617
  0
LINE
  8
_0-0_90_FRAME
  6
CONTINUOUS
 62
    4
 10
2645.2470405762074
 20
626.11645028625617
 11
2646.3813196531551
 21
626.20401195729221
  0
LINE
  8
_0-0_90_FRAME
  6
CONTINUOUS
 62
    4
 10
2646.3813196531551
 20
626.20401195729221
 11
2647.4811342343228
 21
626.46403645333442
  0
LINE
  8
_0-0_90_FRAME
  6
CONTINUOUS
 62
    4
 10
2647.4811342343228
 20
626.46403645333442
 11
2648.5130670101944
 21
626.88862306164924
  0
LINE
  8
_0-0_90_FRAME
  6
CONTINUOUS
 62
    4
 10
2648.5130670101944
 20
626.88862306164924
 11
2649.445763225558
 21
627.46487093299413
  0
LINE
  8
_0-0_90_FRAME
  6
CONTINUOUS
 62
    4
 10
2649.445763225558
 20
627.46487093299413
 11
2650.2508833778779
 21
628.17527106739385
  0
LINE
  8
_0-0_90_FRAME
  6
CONTINUOUS
 62
    4
 10
2650.2508833778779
 20
628.17527106739385
 11
2650.9039642987354
 21
628.99823831624451
  0
LINE
  8
_0-0_90_FRAME
  6
CONTINUOUS
 62
    4
 10
2650.9039642987354
 20
628.99823831624451
 11
2651.3851624548256
 21
629.90876723613121
  0
LINE
  8
_0-0_90_FRAME
  6
CONTINUOUS
 62
    4
 10
2651.3851624548256
 20
629.90876723613121
 11
2651.6798568836734
 21
630.87919186657314
  0
LINE
  8
_0-0_90_FRAME
  6
CONTINUOUS
 62
    4
 10
2651.6798568836734
 20
630.87919186657314
 11
2651.7790934441809
 21
631.88002634623285
  0
LINE
  8
_0-0_90_FRAME
  6
CONTINUOUS
 62
    4
 10
2651.7790934441809
 20
631.88002634623285
 11
2651.7790934441809
 21
631.88002634623285
  0
ARC
  8
_0-0_90_FRAME
  6
CONTINUOUS
 62
    4
 10
2651.9712126461809
 20
631.88002634623285
 40
0.1921192019992239
 50
90
 51
180
  0
ARC
  8
_0-0_90_FRAME
  6
CONTINUOUS
 62
    4
 10
2625.0745243662882
 20
631.88002634623285
 40
0.1921192019992239
 50
0
 51
90
  0
ARC
  8
_0-0_90_FRAME
  6
CONTINUOUS
 62
    4
 10
2611.6261802263425
 20
631.88002634623285
 40
0.1921192019992239
 50
0
 51
90
  0
LINE
  8
_0-0_90_FRAME
  6
CONTINUOUS
 62
    4
 10
2616.2370410743256
 20
593.45618594638813
 11
2618.5424714983137
 21
593.45618594638813
  0
LINE
  8
_0-0_90_FRAME
  6
CONTINUOUS
 62
    4
 10
2618.5424714983137
 20
593.45618594638813
 11
2618.5424714983137
 21
591.15075552239807
  0
LINE
  8
_0-0_90_FRAME
  6
CONTINUOUS
 62
    4
 10
2618.5424714983137
 20
591.15075552239807
 11
2616.2370410743256
 21
591.15075552239807
  0
LINE
  8
_0-0_90_FRAME
  6
CONTINUOUS
 62
    4
 10
2616.2370410743256
 20
593.45618594638813
 11
2616.2370410743256
 21
591.15075552239807
  0
LINE
  8
_0-0_90_FRAME
  6
CONTINUOUS
 62
    4
 10
2647.3603517981983
 20
593.45618594638813
 11
2645.0549213742102
 21
593.45618594638813
  0
LINE
  8
_0-0_90_FRAME
  6
CONTINUOUS
 62
    4
 10
2645.0549213742102
 20
593.45618594638813
 11
2645.0549213742102
 21
591.15075552239807
  0
LINE
  8
_0-0_90_FRAME
  6
CONTINUOUS
 62
    4
 10
2645.0549213742102
 20
591.15075552239807
 11
2647.3603517981983
 21
591.15075552239807
  0
LINE
  8
_0-0_90_FRAME
  6
CONTINUOUS
 62
    4
 10
2647.3603517981983
 20
593.45618594638813
 11
2647.3603517981983
 21
591.15075552239807
  0
LINE
  8
_0-0_90_FRAME
  6
CONTINUOUS
 62
    4
 10
2622.0006171343025
 20
593.45618594638813
 11
2624.3060475582906
 21
593.45618594638813
  0
LINE
  8
_0-0_90_FRAME
  6
CONTINUOUS
 62
    4
 10
2624.3060475582906
 20
593.45618594638813
 11
2624.3060475582906
 21
591.15075552239807
  0
LINE
  8
_0-0_90_FRAME
  6
CONTINUOUS
 62
    4
 10
2624.3060475582906
 20
591.15075552239807
 11
2622.0006171343025
 21
591.15075552239807
  0
LINE
  8
_0-0_90_FRAME
  6
CONTINUOUS
 62
    4
 10
2622.0006171343025
 20
593.45618594638813
 11
2622.0006171343025
 21
591.15075552239807
  0
LINE
  8
_0-0_90_FRAME
  6
CONTINUOUS
 62
    4
 10
2627.7641931942794
 20
593.45618594638813
 11
2630.0696236182675
 21
593.45618594638813
  0
LINE
  8
_0-0_90_FRAME
  6
CONTINUOUS
 62
    4
 10
2630.0696236182675
 20
593.45618594638813
 11
2630.0696236182675
 21
591.15075552239807
  0
LINE
  8
_0-0_90_FRAME
  6
CONTINUOUS
 62
    4
 10
2630.0696236182675
 20
591.15075552239807
 11
2627.7641931942794
 21
591.15075552239807
  0
LINE
  8
_0-0_90_FRAME
  6
CONTINUOUS
 62
    4
 10
2627.7641931942794
 20
593.45618594638813
 11
2627.7641931942794
 21
591.15075552239807
  0
LINE
  8
_0-0_90_FRAME
  6
CONTINUOUS
 62
    4
 10
2633.5277692542563
 20
593.45618594638813
 11
2635.8331996782445
 21
593.45618594638813
  0
LINE
  8
_0-0_90_FRAME
  6
CONTINUOUS
 62
    4
 10
2635.8331996782445
 20
593.45618594638813
 11
2635.8331996782445
 21
591.15075552239807
  0
LINE
  8
_0-0_90_FRAME
  6
CONTINUOUS
 62
    4
 10
2635.8331996782445
 20
591.15075552239807
 11
2633.5277692542563
 21
591.15075552239807
  0
LINE
  8
_0-0_90_FRAME
  6
CONTINUOUS
 62
    4
 10
2633.5277692542563
 20
593.45618594638813
 11
2633.5277692542563
 21
591.15075552239807
  0
LINE
  8
_0-0_90_FRAME
  6
CONTINUOUS
 62
    4
 10
2639.2913453142332
 20
593.45618594638813
 11
2641.5967757382214
 21
593.45618594638813
  0
LINE
  8
_0-0_90_FRAME
  6
CONTINUOUS
 62
    4
 10
2641.5967757382214
 20
593.45618594638813
 11
2641.5967757382214
 21
591.15075552239807
  0
LINE
  8
_0-0_90_FRAME
  6
CONTINUOUS
 62
    4
 10
2641.5967757382214
 20
591.15075552239807
 11
2639.2913453142332
 21
591.15075552239807
  0
LINE
  8
_0-0_90_FRAME
  6
CONTINUOUS
 62
    4
 10
2639.2913453142332
 20
593.45618594638813
 11
2639.2913453142332
 21
591.15075552239807
  0
LINE
  8
_0-0_90_FRAME
  6
CONTINUOUS
 62
    4
 10
2631.7748244856562
 20
615.39346664213031
 11
2631.7748244856562
 21
615.39346664213031
  0
LINE
  8
_0-0_90_FRAME
  6
CONTINUOUS
 62
    4
 10
2631.7748244856562
 20
615.39346664213031
 11
2631.7076938711953
 21
616.1274119272141
  0
LINE
  8
_0-0_90_FRAME
  6
CONTINUOUS
 62
    4
 10
2631.7076938711953
 20
616.1274119272141
 11
2631.5083417575629
 21
616.83905665620489
  0
LINE
  8
_0-0_90_FRAME
  6
CONTINUOUS
 62
    4
 10
2631.5083417575629
 20
616.83905665620489
 11
2631.1828253578547
 21
617.50677786412177
  0
LINE
  8
_0-0_90_FRAME
  6
CONTINUOUS
 62
    4
 10
2631.1828253578547
 20
617.50677786412177
 11
2630.7410353231571
 21
618.11028717994554
  0
LINE
  8
_0-0_90_FRAME
  6
CONTINUOUS
 62
    4
 10
2630.7410353231571
 20
618.11028717994554
 11
2630.1963952201172
 21
618.63124727850538
  0
LINE
  8
_0-0_90_FRAME
  6
CONTINUOUS
 62
    4
 10
2630.1963952201172
 20
618.63124727850538
 11
2629.5654536626648
 21
619.05382905082502
  0
LINE
  8
_0-0_90_FRAME
  6
CONTINUOUS
 62
    4
 10
2629.5654536626648
 20
619.05382905082502
 11
2628.867381490752
 21
619.36519256358918
  0
LINE
  8
_0-0_90_FRAME
  6
CONTINUOUS
 62
    4
 10
2628.867381490752
 20
619.36519256358918
 11
2628.1233892740797
 21
619.55587719402013
  0
LINE
  8
_0-0_90_FRAME
  6
CONTINUOUS
 62
    4
 10
2628.1233892740797
 20
619.55587719402013
 11
2627.3560828396739
 21
619.62008908611324
  0
LINE
  8
_0-0_90_FRAME
  6
CONTINUOUS
 62
    4
 10
2627.3560828396739
 20
619.62008908611324
 11
2626.5887764052682
 21
619.55587719402013
  0
LINE
  8
_0-0_90_FRAME
  6
CONTINUOUS
 62
    4
 10
2626.5887764052682
 20
619.55587719402013
 11
2625.8447841885959
 21
619.36519256358918
  0
LINE
  8
_0-0_90_FRAME
  6
CONTINUOUS
 62
    4
 10
2625.8447841885959
 20
619.36519256358918
 11
2625.1467120166831
 21
619.05382905082502
  0
LINE
  8
_0-0_90_FRAME
  6
CONTINUOUS
 62
    4
 10
2625.1467120166831
 20
619.05382905082502
 11
2624.5157704592307
 21
618.63124727850538
  0
LINE
  8
_0-0_90_FRAME
  6
CONTINUOUS
 62
    4
 10
2624.5157704592307
 20
618.63124727850538
 11
2623.9711303561908
 21
618.11028717994554
  0
LINE
  8
_0-0_90_FRAME
  6
CONTINUOUS
 62
    4
 10
2623.9711303561908
 20
618.11028717994554
 11
2623.5293403214932
 21
617.50677786412177
  0
LINE
  8
_0-0_90_FRAME
  6
CONTINUOUS
 62
    4
 10
2623.5293403214932
 20
617.50677786412177
 11
2623.203823921785
 21
616.83905665620489
  0
LINE
  8
_0-0_90_FRAME
  6
CONTINUOUS
 62
    4
 10
2623.203823921785
 20
616.83905665620489
 11
2623.0044718081526
 21
616.1274119272141
  0
LINE
  8
_0-0_90_FRAME
  6
CONTINUOUS
 62
    4
 10
2623.0044718081526
 20
616.1274119272141
 11
2622.9373411936917
 21
615.39346664213031
  0
LINE
  8
_0-0_90_FRAME
  6
CONTINUOUS
 62
    4
 10
2622.9373411936917
 20
615.39346664213031
 11
2622.9373411936917
 21
615.39346664213031
  0
LINE
  8
_0-0_90_FRAME
  6
CONTINUOUS
 62
    4
 10
2631.7748244856557
 20
615.39346664213031
 11
2631.7748244856557
 21
614.24075143013454
  0
LINE
  8
_0-0_90_FRAME
  6
CONTINUOUS
 62
    4
 10
2629.6900430666806
 20
610.651830445526
 11
2629.6900430666806
 21
610.651830445526
  0
LINE
  8
_0-0_90_FRAME
  6
CONTINUOUS
 62
    4
 10
2629.6900430666806
 20
610.651830445526
 11
2629.003047669104
 21
610.31868749416685
  0
LINE
  8
_0-0_90_FRAME
  6
CONTINUOUS
 62
    4
 10
2629.003047669104
 20
610.31868749416685
 11
2628.2660100785897
 21
610.10471447084205
  0
LINE
  8
_0-0_90_FRAME
  6
CONTINUOUS
 62
    4
 10
2628.2660100785897
 20
610.10471447084205
 11
2627.501324809366
 21
610.01641283758966
  0
LINE
  8
_0-0_90_FRAME
  6
CONTINUOUS
 62
    4
 10
2627.501324809366
 20
610.01641283758966
 11
2626.7322264363893
 21
610.05646559485319
  0
LINE
  8
_0-0_90_FRAME
  6
CONTINUOUS
 62
    4
 10
2626.7322264363893
 20
610.05646559485319
 11
2625.9820836245403
 21
610.22365575987101
  0
LINE
  8
_0-0_90_FRAME
  6
CONTINUOUS
 62
    4
 10
2625.9820836245403
 20
610.22365575987101
 11
2625.2736890835654
 21
610.51290334408134
  0
LINE
  8
_0-0_90_FRAME
  6
CONTINUOUS
 62
    4
 10
2625.2736890835654
 20
610.51290334408134
 11
2624.6285670231282
 21
610.91541970600417
  0
LINE
  8
_0-0_90_FRAME
  6
CONTINUOUS
 62
    4
 10
2624.6285670231282
 20
610.91541970600417
 11
2624.0663191505869
 21
611.41897458966571
  0
LINE
  8
_0-0_90_FRAME
  6
CONTINUOUS
 62
    4
 10
2624.0663191505869
 20
611.41897458966571
 11
2623.6040290830379
 21
612.00826773473682
  0
LINE
  8
_0-0_90_FRAME
  6
CONTINUOUS
 62
    4
 10
2623.6040290830379
 20
612.00826773473682
 11
2623.2557432702533
 21
612.66539376720141
  0
LINE
  8
_0-0_90_FRAME
  6
CONTINUOUS
 62
    4
 10
2623.2557432702533
 20
612.66539376720141
 11
2623.0320442004136
 21
613.37038624508477
  0
LINE
  8
_0-0_90_FRAME
  6
CONTINUOUS
 62
    4
 10
2623.0320442004136
 20
613.37038624508477
 11
2622.9397288565588
 21
614.10182432868987
  0
LINE
  8
_0-0_90_FRAME
  6
CONTINUOUS
 62
    4
 10
2622.9397288565588
 20
614.10182432868987
 11
2622.9373411936917
 21
614.24075143013454
  0
LINE
  8
_0-0_90_FRAME
  6
CONTINUOUS
 62
    4
 10
2630.1736726932927
 20
615.28042738641864
 11
2630.1736726932927
 21
614.35825521682239
  0
LINE
  8
_0-0_90_FRAME
  6
CONTINUOUS
 62
    4
 10
2640.7319219743049
 20
613.89320324335779
 11
2640.7319219743049
 21
619.62008908611392
  0
LINE
  8
_0-0_90_FRAME
  6
CONTINUOUS
 62
    4
 10
2639.0028491563107
 20
614.24075143013454
 11
2639.0028491563107
 21
619.62008908611392
  0
LINE
  8
_0-0_90_FRAME
  6
CONTINUOUS
 62
    4
 10
2639.0028491563107
 20
619.62008908611392
 11
2640.7319219743049
 21
619.62008908611392
  0
LINE
  8
_0-0_90_FRAME
  6
CONTINUOUS
 62
    4
 10
2632.6629154903367
 20
613.89320324335779
 11
2632.6629154903367
 21
619.62008908611392
  0
LINE
  8
_0-0_90_FRAME
  6
CONTINUOUS
 62
    4
 10
2634.3919883083313
 20
614.24075143013454
 11
2634.3919883083313
 21
619.62008908611392
  0
ARC
  8
_0-0_90_FRAME
  6
CONTINUOUS
 62
    4
 10
2636.7242734446636
 20
614.06697733674832
 40
4.0650739069189497
 50
182.45003099226136
 51
265.55525728852427
  0
LINE
  8
_0-0_90_FRAME
  6
CONTINUOUS
 62
    4
 10
2634.3919883083313
 20
619.62008908611392
 11
2632.6629154903367
 21
619.62008908611392
  0
LINE
  8
_0-0_90_FRAME
  6
CONTINUOUS
 62
    4
 10
2636.9855975353194
 20
610.01412898615229
 11
2636.4092399293218
 21
610.01412898615229
  0
ARC
  8
_0-0_90_FRAME
  6
CONTINUOUS
 62
    4
 10
2637.8217023119369
 20
614.19602128416659
 40
3.4300056752869819
 50
179.25279388138676
 51
218.96457184688023
  0
ARC
  8
_0-0_90_FRAME
  6
CONTINUOUS
 62
    4
 10
2635.5731351527043
 20
614.19602128416659
 40
3.4300056752865951
 50
321.03542815311977
 51
0.747206118613265
  0
ARC
  8
_0-0_90_FRAME
  6
CONTINUOUS
 62
    4
 10
2636.6974187323226
 20
614.84029845206373
 40
3.1978969011000959
 50
241.15772780831895
 51
298.84227219168099
  0
LINE
  8
_0-0_90_FRAME
  6
CONTINUOUS
 62
    4
 10
2627.7284992774603
 20
612.56088224601729
 11
2628.5129651557054
 21
611.79740910536361
  0
LINE
  8
_0-0_90_FRAME
  6
CONTINUOUS
 62
    4
 10
2627.7284992774603
 20
612.56088224601729
 11
2628.5794831704211
 21
613.46450862389224
  0
LINE
  8
_0-0_90_FRAME
  6
CONTINUOUS
 62
    4
 10
2631.0257565721067
 20
609.35186136684229
 11
2632.137651122332
 21
610.53253852573027
  0
LINE
  8
_0-0_90_FRAME
  6
CONTINUOUS
 62
    4
 10
2624.5384929860556
 20
615.28042738641864
 11
2624.5384929860556
 21
614.35825521682239
  0
LINE
  8
_0-0_90_FRAME
  6
CONTINUOUS
 62
    4
 10
2630.1736726932922
 20
615.28042738641864
 11
2630.1736726932922
 21
615.28042738641864
  0
LINE
  8
_0-0_90_FRAME
  6
CONTINUOUS
 62
    4
 10
2630.1736726932922
 20
615.28042738641864
 11
2630.1308671723255
 21
615.76711253768576
  0
LINE
  8
_0-0_90_FRAME
  6
CONTINUOUS
 62
    4
 10
2630.1308671723255
 20
615.76711253768576
 11
2630.0037512335202
 21
616.23901000690614
  0
LINE
  8
_0-0_90_FRAME
  6
CONTINUOUS
 62
    4
 10
2630.0037512335202
 20
616.23901000690614
 11
2629.7961872303526
 21
616.68178142826923
  0
LINE
  8
_0-0_90_FRAME
  6
CONTINUOUS
 62
    4
 10
2629.7961872303526
 20
616.68178142826923
 11
2629.5144818900267
 21
617.08197341619007
  0
LINE
  8
_0-0_90_FRAME
  6
CONTINUOUS
 62
    4
 10
2629.5144818900267
 20
617.08197341619007
 11
2629.1671946867582
 21
617.42742633962257
  0
LINE
  8
_0-0_90_FRAME
  6
CONTINUOUS
 62
    4
 10
2629.1671946867582
 20
617.42742633962257
 11
2628.7648777664831
 21
617.70764378629588
  0
LINE
  8
_0-0_90_FRAME
  6
CONTINUOUS
 62
    4
 10
2628.7648777664831
 20
617.70764378629588
 11
2628.3197553252412
 21
617.91411149088958
  0
LINE
  8
_0-0_90_FRAME
  6
CONTINUOUS
 62
    4
 10
2628.3197553252412
 20
617.91411149088958
 11
2627.8453521831675
 21
618.04055603667746
  0
LINE
  8
_0-0_90_FRAME
  6
CONTINUOUS
 62
    4
 10
2627.8453521831675
 20
618.04055603667746
 11
2627.3560828396739
 21
618.08313547011983
  0
LINE
  8
_0-0_90_FRAME
  6
CONTINUOUS
 62
    4
 10
2627.3560828396739
 20
618.08313547011983
 11
2626.8668134961804
 21
618.04055603667746
  0
LINE
  8
_0-0_90_FRAME
  6
CONTINUOUS
 62
    4
 10
2626.8668134961804
 20
618.04055603667746
 11
2626.3924103541067
 21
617.91411149088958
  0
LINE
  8
_0-0_90_FRAME
  6
CONTINUOUS
 62
    4
 10
2626.3924103541067
 20
617.91411149088958
 11
2625.9472879128648
 21
617.70764378629588
  0
LINE
  8
_0-0_90_FRAME
  6
CONTINUOUS
 62
    4
 10
2625.9472879128648
 20
617.70764378629588
 11
2625.5449709925897
 21
617.42742633962257
  0
LINE
  8
_0-0_90_FRAME
  6
CONTINUOUS
 62
    4
 10
2625.5449709925897
 20
617.42742633962257
 11
2625.1976837893212
 21
617.08197341619007
  0
LINE
  8
_0-0_90_FRAME
  6
CONTINUOUS
 62
    4
 10
2625.1976837893212
 20
617.08197341619007
 11
2624.9159784489952
 21
616.68178142826923
  0
LINE
  8
_0-0_90_FRAME
  6
CONTINUOUS
 62
    4
 10
2624.9159784489952
 20
616.68178142826923
 11
2624.7084144458277
 21
616.23901000690614
  0
LINE
  8
_0-0_90_FRAME
  6
CONTINUOUS
 62
    4
 10
2624.7084144458277
 20
616.23901000690614
 11
2624.5812985070224
 21
615.76711253768576
  0
LINE
  8
_0-0_90_FRAME
  6
CONTINUOUS
 62
    4
 10
2624.5812985070224
 20
615.76711253768576
 11
2624.5384929860556
 21
615.28042738641864
  0
LINE
  8
_0-0_90_FRAME
  6
CONTINUOUS
 62
    4
 10
2624.5384929860556
 20
615.28042738641864
 11
2624.5384929860556
 21
615.28042738641864
  0
LINE
  8
_0-0_90_FRAME
  6
CONTINUOUS
 62
    4
 10
2628.5129651557049
 20
611.79740910536304
 11
2628.5129651557049
 21
611.79740910536304
  0
LINE
  8
_0-0_90_FRAME
  6
CONTINUOUS
 62
    4
 10
2628.5129651557049
 20
611.79740910536304
 11
2628.0492638632222
 21
611.63635303627041
  0
LINE
  8
_0-0_90_FRAME
  6
CONTINUOUS
 62
    4
 10
2628.0492638632222
 20
611.63635303627041
 11
2627.5645006161058
 21
611.55786493507037
  0
LINE
  8
_0-0_90_FRAME
  6
CONTINUOUS
 62
    4
 10
2627.5645006161058
 20
611.55786493507037
 11
2627.0734047003166
 21
611.56432962300096
  0
LINE
  8
_0-0_90_FRAME
  6
CONTINUOUS
 62
    4
 10
2627.0734047003166
 20
611.56432962300096
 11
2626.5908978167499
 21
611.65555067379069
  0
LINE
  8
_0-0_90_FRAME
  6
CONTINUOUS
 62
    4
 10
2626.5908978167499
 20
611.65555067379069
 11
2626.1316406929027
 21
611.8287563819714
  0
LINE
  8
_0-0_90_FRAME
  6
CONTINUOUS
 62
    4
 10
2626.1316406929027
 20
611.8287563819714
 11
2625.7095876240874
 21
612.0786839797463
  0
LINE
  8
_0-0_90_FRAME
  6
CONTINUOUS
 62
    4
 10
2625.7095876240874
 20
612.0786839797463
 11
2625.3375624792307
 21
612.39773954352654
  0
LINE
  8
_0-0_90_FRAME
  6
CONTINUOUS
 62
    4
 10
2625.3375624792307
 20
612.39773954352654
 11
2625.0268690541056
 21
612.77622873145651
  0
LINE
  8
_0-0_90_FRAME
  6
CONTINUOUS
 62
    4
 10
2625.0268690541056
 20
612.77622873145651
 11
2624.786947611216
 21
613.2026513410857
  0
LINE
  8
_0-0_90_FRAME
  6
CONTINUOUS
 62
    4
 10
2624.786947611216
 20
613.2026513410857
 11
2624.6250880421981
 21
613.6640507372008
  0
LINE
  8
_0-0_90_FRAME
  6
CONTINUOUS
 62
    4
 10
2624.6250880421981
 20
613.6640507372008
 11
2624.5462083681509
 21
614.14640753263029
  0
LINE
  8
_0-0_90_FRAME
  6
CONTINUOUS
 62
    4
 10
2624.5462083681509
 20
614.14640753263029
 11
2624.5384894489862
 21
614.35379068584609
  0
LINE
  8
_0-0_90_FRAME
  6
CONTINUOUS
 62
    4
 10
2614.5095716708774
 20
610.01412898615229
 11
2616.2340744771996
 21
610.01412898615229
  0
LINE
  8
_0-0_90_FRAME
  6
CONTINUOUS
 62
    4
 10
2614.5095716708774
 20
610.01412898615229
 11
2614.5095716708774
 21
610.06023759463119
  0
LINE
  8
_0-0_90_FRAME
  6
CONTINUOUS
 62
    4
 10
2614.5095716708774
 20
610.06023759463119
 11
2618.1318630518817
 21
619.62008908611392
  0
LINE
  8
_0-0_90_FRAME
  6
CONTINUOUS
 62
    4
 10
2614.5095716708774
 20
610.01412898615229
 11
2614.5095716708774
 21
610.06023759463119
  0
LINE
  8
_0-0_90_FRAME
  6
CONTINUOUS
 62
    4
 10
2617.1742701800113
 20
612.54659730071
 11
2620.7207802941057
 21
612.54659730071
  0
LINE
  8
_0-0_90_FRAME
  6
CONTINUOUS
 62
    4
 10
2617.6941907811647
 20
614.0067032359035
 11
2620.2008596929559
 21
614.0067032359035
  0
LINE
  8
_0-0_90_FRAME
  6
CONTINUOUS
 62
    4
 10
2623.347054962841
 20
610.01412898615229
 11
2621.622552156522
 21
610.01412898615229
  0
LINE
  8
_0-0_90_FRAME
  6
CONTINUOUS
 62
    4
 10
2621.622552156522
 20
610.01412898615229
 11
2620.7207802941057
 21
612.54659730071
  0
LINE
  8
_0-0_90_FRAME
  6
CONTINUOUS
 62
    4
 10
2623.347054962841
 20
610.06023759463119
 11
2619.7247635818371
 21
619.62008908611392
  0
LINE
  8
_0-0_90_FRAME
  6
CONTINUOUS
 62
    4
 10
2623.347054962841
 20
610.01412898615229
 11
2623.347054962841
 21
610.06023759463119
  0
LINE
  8
_0-0_90_FRAME
  6
CONTINUOUS
 62
    4
 10
2618.1318630518817
 20
619.62008908611392
 11
2619.7247635818371
 21
619.62008908611392
  0
LINE
  8
_0-0_90_FRAME
  6
CONTINUOUS
 62
    4
 10
2620.2008596929559
 20
614.0067032359035
 11
2618.9283133168592
 21
617.58042682453026
  0
LINE
  8
_0-0_90_FRAME
  6
CONTINUOUS
 62
    4
 10
2628.5794831704211
 20
613.46450862389224
 11
2632.137651122332
 21
610.53253852573027
  0
LINE
  8
_0-0_90_FRAME
  6
CONTINUOUS
 62
    4
 10
2629.6900430666819
 20
610.6518304455268
 11
2631.0257565721067
 21
609.35186136684229
  0
LINE
  8
_0-0_90_FRAME
  6
CONTINUOUS
 62
    4
 10
2617.1742701800113
 20
612.54659730071
 11
2617.6941907811647
 21
614.0067032359035
  0
LINE
  8
_0-0_90_FRAME
  6
CONTINUOUS
 62
    4
 10
2631.7748244856562
 20
614.24075143013454
 11
2631.7748244856562
 21
614.24075143013454
  0
LINE
  8
_0-0_90_FRAME
  6
CONTINUOUS
 62
    4
 10
2631.7748244856562
 20
614.24075143013454
 11
2631.7076938711953
 21
613.50680614505075
  0
LINE
  8
_0-0_90_FRAME
  6
CONTINUOUS
 62
    4
 10
2631.7076938711953
 20
613.50680614505075
 11
2631.5083417575629
 21
612.79516141605995
  0
LINE
  8
_0-0_90_FRAME
  6
CONTINUOUS
 62
    4
 10
2631.5083417575629
 20
612.79516141605995
 11
2631.1828253578547
 21
612.12744020814307
  0
LINE
  8
_0-0_90_FRAME
  6
CONTINUOUS
 62
    4
 10
2631.1828253578547
 20
612.12744020814307
 11
2630.8430905016935
 21
611.64470573689482
  0
LINE
  8
_0-0_90_FRAME
  6
CONTINUOUS
 62
    4
 10
2630.1736762303617
 20
614.35379068584609
 11
2630.1736762303617
 21
614.35379068584609
  0
LINE
  8
_0-0_90_FRAME
  6
CONTINUOUS
 62
    4
 10
2630.1736762303617
 20
614.35379068584609
 11
2630.1308706556592
 21
613.86694955195333
  0
LINE
  8
_0-0_90_FRAME
  6
CONTINUOUS
 62
    4
 10
2630.1308706556592
 20
613.86694955195333
 11
2630.0037545572786
 21
613.39490083956036
  0
LINE
  8
_0-0_90_FRAME
  6
CONTINUOUS
 62
    4
 10
2630.0037545572786
 20
613.39490083956036
 11
2629.7961902935449
 21
612.95198750992517
  0
LINE
  8
_0-0_90_FRAME
  6
CONTINUOUS
 62
    4
 10
2629.7961902935449
 20
612.95198750992517
 11
2629.6050467671694
 21
612.66486758953738
  0
LINE
  8
_0-0_90_FRAME
  6
CONTINUOUS
 62
    4
 10
2622.9373411936922
 20
615.39346664213031
 11
2622.9373411936922
 21
614.24075143013454
  0
LINE
  8
_0-0_90_FRAME
  6
CONTINUOUS
 62
    4
 10
2616.2340744771996
 20
610.01412898615229
 11
2618.9283133168592
 21
617.58042682453026
  0
LINE
  8
_0-0_90_FRAME
  6
CONTINUOUS
 62
    4
 10
2640.6345763136787
 20
610.01412898615229
 11
2642.3590791200004
 21
610.01412898615229
  0
LINE
  8
_0-0_90_FRAME
  6
CONTINUOUS
 62
    4
 10
2640.6345763136787
 20
610.01412898615229
 11
2640.6345763136787
 21
610.06023759463119
  0
LINE
  8
_0-0_90_FRAME
  6
CONTINUOUS
 62
    4
 10
2640.6345763136787
 20
610.06023759463119
 11
2644.2568676946862
 21
619.62008908611392
  0
LINE
  8
_0-0_90_FRAME
  6
CONTINUOUS
 62
    4
 10
2640.6345763136787
 20
610.01412898615229
 11
2640.6345763136787
 21
610.06023759463119
  0
LINE
  8
_0-0_90_FRAME
  6
CONTINUOUS
 62
    4
 10
2643.2992748228153
 20
612.54659730071
 11
2646.8457849369101
 21
612.54659730071
  0
LINE
  8
_0-0_90_FRAME
  6
CONTINUOUS
 62
    4
 10
2643.8191954239655
 20
614.0067032359035
 11
2646.3258643357594
 21
614.0067032359035
  0
LINE
  8
_0-0_90_FRAME
  6
CONTINUOUS
 62
    4
 10
2649.472059605645
 20
610.01412898615229
 11
2647.7475567993238
 21
610.01412898615229
  0
LINE
  8
_0-0_90_FRAME
  6
CONTINUOUS
 62
    4
 10
2647.7475567993238
 20
610.01412898615229
 11
2646.8457849369101
 21
612.54659730071
  0
LINE
  8
_0-0_90_FRAME
  6
CONTINUOUS
 62
    4
 10
2649.472059605645
 20
610.06023759463119
 11
2645.8497682246407
 21
619.62008908611392
  0
LINE
  8
_0-0_90_FRAME
  6
CONTINUOUS
 62
    4
 10
2649.472059605645
 20
610.01412898615229
 11
2649.472059605645
 21
610.06023759463119
  0
LINE
  8
_0-0_90_FRAME
  6
CONTINUOUS
 62
    4
 10
2644.2568676946862
 20
619.62008908611392
 11
2645.8497682246407
 21
619.62008908611392
  0
LINE
  8
_0-0_90_FRAME
  6
CONTINUOUS
 62
    4
 10
2646.3258643357594
 20
614.0067032359035
 11
2645.0533179596632
 21
617.58042682453026
  0
LINE
  8
_0-0_90_FRAME
  6
CONTINUOUS
 62
    4
 10
2643.2992748228153
 20
612.54659730071
 11
2643.8191954239655
 21
614.0067032359035
  0
LINE
  8
_0-0_90_FRAME
  6
CONTINUOUS
 62
    4
 10
2642.3590791200004
 20
610.01412898615229
 11
2645.0533179596632
 21
617.58042682453026
  0
ARC
  8
_0-0_90_FRAME
  6
CONTINUOUS
 62
    4
 10
2636.6705640199775
 20
614.06697733674832
 40
4.0650739069189497
 50
274.44474271147573
 51
357.5499690077387
  0
LINE
  8
_0-0_90_FRAME
  6
CONTINUOUS
 62
    4
 10
2629.6050467671712
 20
612.66486758953863
 11
2630.8430905016949
 21
611.64470573689516
  0
LINE
  8
_0-0_90_FRAME
  6
CONTINUOUS
 62
    4
 10
2630.2774713191211
 20
603.21308767142432
 11
2630.2774713191211
 21
603.21308767142432
  0
LINE
  8
_0-0_90_FRAME
  6
CONTINUOUS
 62
    4
 10
2630.2774713191211
 20
603.21308767142432
 11
2630.7617266037942
 21
603.40884760616814
  0
LINE
  8
_0-0_90_FRAME
  6
CONTINUOUS
 62
    4
 10
2630.7617266037942
 20
603.40884760616814
 11
2631.1969061248387
 21
603.6701517856286
  0
LINE
  8
_0-0_90_FRAME
  6
CONTINUOUS
 62
    4
 10
2631.1969061248387
 20
603.6701517856286
 11
2631.5697871727198
 21
603.98906061453908
  0
LINE
  8
_0-0_90_FRAME
  6
CONTINUOUS
 62
    4
 10
2631.5697871727198
 20
603.98906061453908
 11
2631.869039945484
 21
604.35588420950864
  0
LINE
  8
_0-0_90_FRAME
  6
CONTINUOUS
 62
    4
 10
2631.869039945484
 20
604.35588420950864
 11
2632.0855717990598
 21
604.75947682122603
  0
LINE
  8
_0-0_90_FRAME
  6
CONTINUOUS
 62
    4
 10
2632.0855717990598
 20
604.75947682122603
 11
2632.2128035226474
 21
605.18757549241184
  0
LINE
  8
_0-0_90_FRAME
  6
CONTINUOUS
 62
    4
 10
2632.2128035226474
 20
605.18757549241184
 11
2632.2468692447078
 21
605.6271726615704
  0
LINE
  8
_0-0_90_FRAME
  6
CONTINUOUS
 62
    4
 10
2632.2468692447078
 20
605.6271726615704
 11
2632.1867338955135
 21
606.06491139116383
  0
LINE
  8
_0-0_90_FRAME
  6
CONTINUOUS
 62
    4
 10
2632.1867338955135
 20
606.06491139116383
 11
2632.0342246572209
 21
606.48749121139986
  0
LINE
  8
_0-0_90_FRAME
  6
CONTINUOUS
 62
    4
 10
2632.0342246572209
 20
606.48749121139986
 11
2631.7939754458612
 21
606.88207224827647
  0
LINE
  8
_0-0_90_FRAME
  6
CONTINUOUS
 62
    4
 10
2631.7939754458612
 20
606.88207224827647
 11
2631.4732861121506
 21
607.23666535665552
  0
LINE
  8
_0-0_90_FRAME
  6
CONTINUOUS
 62
    4
 10
2631.4732861121506
 20
607.23666535665552
 11
2631.0819006392162
 21
607.54049640437199
  0
LINE
  8
_0-0_90_FRAME
  6
CONTINUOUS
 62
    4
 10
2631.0819006392162
 20
607.54049640437199
 11
2630.6317110766031
 21
607.78433363878673
  0
LINE
  8
_0-0_90_FRAME
  6
CONTINUOUS
 62
    4
 10
2630.6317110766031
 20
607.78433363878673
 11
2630.1363962063642
 21
607.9607681889197
  0
LINE
  8
_0-0_90_FRAME
  6
CONTINUOUS
 62
    4
 10
2630.1363962063642
 20
607.9607681889197
 11
2629.6110059201906
 21
608.06443918024536
  0
LINE
  8
_0-0_90_FRAME
  6
CONTINUOUS
 62
    4
 10
2629.6110059201906
 20
608.06443918024536
 11
2629.1465684356895
 21
608.09293696615941
  0
LINE
  8
_0-0_90_FRAME
  6
CONTINUOUS
 62
    4
 10
2635.818021029997
 20
600.02393048219176
 11
2635.818021029997
 21
606.55598335016532
  0
LINE
  8
_0-0_90_FRAME
  6
CONTINUOUS
 62
    4
 10
2634.0889482120024
 20
600.02393048219176
 11
2634.0889482120024
 21
606.55598335016532
  0
LINE
  8
_0-0_90_FRAME
  6
CONTINUOUS
 62
    4
 10
2633.896829010002
 20
608.0929369661601
 11
2636.0101402319951
 21
608.0929369661601
  0
LINE
  8
_0-0_90_FRAME
  6
CONTINUOUS
 62
    4
 10
2624.72782678971
 20
608.0929369661601
 11
2624.72782678971
 21
598.48697686619846
  0
LINE
  8
_0-0_90_FRAME
  6
CONTINUOUS
 62
    4
 10
2633.896829010002
 20
598.48697686619846
 11
2636.0101402319951
 21
598.48697686619846
  0
LINE
  8
_0-0_90_FRAME
  6
CONTINUOUS
 62
    4
 10
2636.0101402319951
 20
598.48697686619846
 11
2636.0101402319951
 21
599.83181128019362
  0
ARC
  8
_0-0_90_FRAME
  6
CONTINUOUS
 62
    4
 10
2636.0101402319951
 20
600.02393048219176
 40
0.1921192019992239
 50
180
 51
270
  0
LINE
  8
_0-0_90_FRAME
  6
CONTINUOUS
 62
    4
 10
2633.896829010002
 20
598.48697686619846
 11
2633.896829010002
 21
599.83181128019362
  0
ARC
  8
_0-0_90_FRAME
  6
CONTINUOUS
 62
    4
 10
2633.896829010002
 20
600.02393048219176
 40
0.1921192019992239
 50
270
 51
0
  0
LINE
  8
_0-0_90_FRAME
  6
CONTINUOUS
 62
    4
 10
2636.0101402319951
 20
608.0929369661601
 11
2636.0101402319951
 21
606.74810255216494
  0
ARC
  8
_0-0_90_FRAME
  6
CONTINUOUS
 62
    4
 10
2636.0101402319951
 20
606.55598335016532
 40
0.1921192019992239
 50
90
 51
180
  0
LINE
  8
_0-0_90_FRAME
  6
CONTINUOUS
 62
    4
 10
2633.896829010002
 20
608.0929369661601
 11
2633.896829010002
 21
606.74810255216494
  0
ARC
  8
_0-0_90_FRAME
  6
CONTINUOUS
 62
    4
 10
2633.896829010002
 20
606.55598335016532
 40
0.1921192019992239
 50
0
 51
90
  0
LINE
  8
_0-0_90_FRAME
  6
CONTINUOUS
 62
    4
 10
2620.5588713209986
 20
598.48697686619846
 11
2620.5588713209986
 21
606.55598335016532
  0
LINE
  8
_0-0_90_FRAME
  6
CONTINUOUS
 62
    4
 10
2618.8297985030067
 20
598.48697686619846
 11
2618.8297985030067
 21
606.55598335016532
  0
LINE
  8
_0-0_90_FRAME
  6
CONTINUOUS
 62
    4
 10
2615.7558912710201
 20
608.0929369661601
 11
2623.6327785529875
 21
608.0929369661601
  0
LINE
  8
_0-0_90_FRAME
  6
CONTINUOUS
 62
    4
 10
2618.8297985030067
 20
598.48697686619846
 11
2620.5588713209986
 21
598.48697686619846
  0
LINE
  8
_0-0_90_FRAME
  6
CONTINUOUS
 62
    4
 10
2623.6327785529875
 20
608.0929369661601
 11
2623.6327785529875
 21
606.74810255216494
  0
ARC
  8
_0-0_90_FRAME
  6
CONTINUOUS
 62
    4
 10
2620.7509905229995
 20
606.55598335016532
 40
0.1921192019992239
 50
90
 51
180
  0
LINE
  8
_0-0_90_FRAME
  6
CONTINUOUS
 62
    4
 10
2615.7558912710201
 20
608.0929369661601
 11
2615.7558912710201
 21
606.74810255216494
  0
ARC
  8
_0-0_90_FRAME
  6
CONTINUOUS
 62
    4
 10
2618.6376793010086
 20
606.55598335016532
 40
0.1921192019992239
 50
0
 51
90
  0
LINE
  8
_0-0_90_FRAME
  6
CONTINUOUS
 62
    4
 10
2615.7558912710201
 20
606.74810255216494
 11
2618.6376793010086
 21
606.74810255216494
  0
LINE
  8
_0-0_90_FRAME
  6
CONTINUOUS
 62
    4
 10
2620.7509905229995
 20
606.74810255216494
 11
2623.6327785529875
 21
606.74810255216494
  0
LINE
  8
_0-0_90_FRAME
  6
CONTINUOUS
 62
    4
 10
2624.72782678971
 20
598.48697686619846
 11
2626.4568996077019
 21
598.48697686619846
  0
LINE
  8
_0-0_90_FRAME
  6
CONTINUOUS
 62
    4
 10
2626.4568996077019
 20
598.48697686619846
 11
2626.4568996077019
 21
606.74810255216494
  0
LINE
  8
_0-0_90_FRAME
  6
CONTINUOUS
 62
    4
 10
2624.72782678971
 20
608.0929369661601
 11
2629.1465684356895
 21
608.0929369661601
  0
LINE
  8
_0-0_90_FRAME
  6
CONTINUOUS
 62
    4
 10
2626.4568996077019
 20
606.74810255216494
 11
2629.3771114780911
 21
606.74810255216494
  0
LINE
  8
_0-0_90_FRAME
  6
CONTINUOUS
 62
    4
 10
2626.5145353682997
 20
603.03908020060885
 11
2626.5145353682997
 21
604.38391461460401
  0
LINE
  8
_0-0_90_FRAME
  6
CONTINUOUS
 62
    4
 10
2626.5145353682997
 20
603.03908020060885
 11
2628.4010628666028
 21
603.03908020060885
  0
LINE
  8
_0-0_90_FRAME
  6
CONTINUOUS
 62
    4
 10
2626.5145353682997
 20
604.38391461460401
 11
2629.3771114780911
 21
604.38391461460401
  0
ARC
  8
_0-0_90_FRAME
  6
CONTINUOUS
 62
    4
 10
2629.3358926371693
 20
605.56600858338447
 40
1.1828123874366916
 50
271.99705710435398
 51
88.002942895541636
  0
LINE
  8
_0-0_90_FRAME
  6
CONTINUOUS
 62
    4
 10
2630.5763407852064
 20
598.48697686619846
 11
2632.4398970445982
 21
598.48697686619846
  0
LINE
  8
_0-0_90_FRAME
  6
CONTINUOUS
 62
    4
 10
2630.784540232476
 20
602.61755821853444
 11
2632.4398970445982
 21
598.56382454699826
  0
LINE
  8
_0-0_90_FRAME
  6
CONTINUOUS
 62
    4
 10
2629.1139418572093
 20
602.5575879726523
 11
2630.5763407852064
 21
598.48697686619846
  0
ARC
  8
_0-0_90_FRAME
  6
CONTINUOUS
 62
    4
 10
2628.4010628666028
 20
602.27060339261357
 40
0.7684768079968956
 50
21.928297866550245
 51
90
  0
ARC
  8
_0-0_90_FRAME
  6
CONTINUOUS
 62
    4
 10
2629.622146912533
 20
602.14146688470476
 40
1.2561135252831908
 50
22.272952259980951
 51
58.553113012863221
  0
LINE
  8
_0-0_90_FRAME
  6
CONTINUOUS
 62
    4
 10
2632.4398970445982
 20
598.56382454699826
 11
2632.4398970445982
 21
598.48697686619846
  0
LINE
  8
_0-0_90_FRAME
  6
CONTINUOUS
 62
    4
 10
2637.7410851437048
 20
608.0929369661601
 11
2637.7410851437048
 21
598.48697686619846
  0
LINE
  8
_0-0_90_FRAME
  6
CONTINUOUS
 62
    4
 10
2637.7410851437048
 20
598.48697686619846
 11
2639.4701579616994
 21
598.48697686619846
  0
LINE
  8
_0-0_90_FRAME
  6
CONTINUOUS
 62
    4
 10
2639.4701579616994
 20
598.48697686619846
 11
2639.4685657836453
 21
605.21114893617164
  0
LINE
  8
_0-0_90_FRAME
  6
CONTINUOUS
 62
    4
 10
2637.7410851437048
 20
608.0929369661601
 11
2640.2500830297613
 21
608.0929369661601
  0
LINE
  8
_0-0_90_FRAME
  6
CONTINUOUS
 62
    4
 10
2645.6195646037263
 20
605.21114893617164
 11
2645.6195646037263
 21
598.48697686619846
  0
LINE
  8
_0-0_90_FRAME
  6
CONTINUOUS
 62
    4
 10
2645.6195646037263
 20
598.48697686619846
 11
2647.3486374217182
 21
598.48697686619846
  0
LINE
  8
_0-0_90_FRAME
  6
CONTINUOUS
 62
    4
 10
2647.3486374217182
 20
598.48697686619846
 11
2647.3486374217182
 21
608.0929369661601
  0
LINE
  8
_0-0_90_FRAME
  6
CONTINUOUS
 62
    4
 10
2641.6795287846921
 20
598.48697686619846
 11
2643.4086016026831
 21
598.48697686619846
  0
LINE
  8
_0-0_90_FRAME
  6
CONTINUOUS
 62
    4
 10
2647.3486374217182
 20
608.0929369661601
 11
2644.8380473576108
 21
608.0929369661601
  0
LINE
  8
_0-0_90_FRAME
  6
CONTINUOUS
 62
    4
 10
2643.4086016026831
 20
598.48697686619846
 11
2645.6195646037263
 21
605.21114893617164
  0
LINE
  8
_0-0_90_FRAME
  6
CONTINUOUS
 62
    4
 10
2641.6795287846921
 20
598.48697686619846
 11
2639.4685657836453
 21
605.21114893617164
  0
LINE
  8
_0-0_90_FRAME
  6
CONTINUOUS
 62
    4
 10
2642.544065193686
 20
601.11627983151379
 11
2644.8380473576108
 21
608.0929369661601
  0
LINE
  8
_0-0_90_FRAME
  6
CONTINUOUS
 62
    4
 10
2642.544065193686
 20
601.11627983151379
 11
2640.2500830297613
 21
608.0929369661601
  0
TEXT
  8
_0-0_90_FRAME
 62
    2
 10
2658.674662349647
 20
615.76061075744462
 40
11.341157142811321
 41
1
 50
0
  1
株式会社
  0
LINE
  8
_0-0_90_FRAME
  6
CONTINUOUS
 62
   18
 10
2693.1999976566358
 20
639.33730321647749
 11
2693.1999976566358
 21
692.37301750197935
  0
TEXT
  8
_0-0_90_FRAME
 62
    7
 10
2792.186183297903
 20
598.27515673365667
 40
15.000000000000002
 41
1
 50
0
  1
寺田
  0
TEXT
  8
_0-0_90_FRAME
 62
    7
 10
2715.0754690125254
 20
652.06701677694809
 40
15.000000000000002
 41
1
 50
0
  1
1：3
  0
TEXT
  8
_0-0_90_FRAME
 62
    7
 10
2849.4601631364662
 20
682.10428702509694
 40
7.5000000000000009
 41
1
 50
0
  1
機器
  0
LINE
  8
_0-0_90_FRAME
  6
CONTINUOUS
 62
   18
 10
2960.7071279503516
 20
692.37301750197935
 11
2960.7071279503516
 21
616.00158893085847
  0
TEXT
  8
_0-0_90_FRAME
 62
    7
 10
2962.7458648594265
 20
682.10428702509694
 40
7.5000000000000009
 41
1
 50
0
  1
部品名
  0
TEXT
  8
_0-0_90_FRAME
 62
    7
 10
2962.7458648594238
 20
639.30071559669545
 40
7.5000000000000009
 41
1
 50
0
  1
図面番号
  0
LINE
  8
_0-0_90_FRAME
  6
CONTINUOUS
 62
   18
 10
2847.4214262273968
 20
654.18730321641954
 11
2960.7071279503516
 21
654.18730321641954
  0
TEXT
  8
_0-0_90_FRAME
 62
    7
 10
2849.4601631364662
 20
643.54357273953713
 40
7.5000000000000009
 41
1
 50
0
  1
型式
  0
LINE
  8
_0-0_90_FRAME
  6
CONTINUOUS
 62
   18
 10
2744.435715879511
 20
692.37301750197935
 11
3198.0999976545977
 21
692.37301750197935
  0
LINE
  8
_0-0_90_FRAME
  6
CONTINUOUS
 62
    4
 10
2744.4357158795115
 20
818.37301524560689
 11
2744.435715879511
 21
692.37301750197935
  0
LINE
  8
_0-0_90_FRAME
  6
CONTINUOUS
 62
    4
 10
2960.7071279503512
 20
818.37301524560689
 11
2960.7071279503516
 21
692.37301750197935
  0
LINE
  8
_0-0_90_FRAME
  6
CONTINUOUS
 62
    4
 10
3043.0394665437911
 20
818.37301524560689
 11
3043.0394665438093
 21
692.37301750197935
  0
LINE
  8
_0-0_90_FRAME
  6
CONTINUOUS
 62
    4
 10
3022.0394691687902
 20
818.37301524560689
 11
3022.039469168808
 21
692.37301750197935
  0
LINE
  8
_0-0_90_FRAME
  6
CONTINUOUS
 62
    4
 10
2775.9357119420147
 20
818.37301524560689
 11
2775.9357119420165
 21
692.37301750197935
  0
LINE
  8
_0-0_90_FRAME
  6
CONTINUOUS
 62
    4
 10
3074.5394626063057
 20
818.37301524560689
 11
3074.5394626063044
 21
692.37301750197935
  0
TEXT
  8
_0-0_90_FRAME
 62
    3
 10
3049.8995375773643
 20
703.1516144484018
 40
7.5000000000000009
 41
1
 50
0
  1
重量
  0
TEXT
  8
_0-0_90_FRAME
 62
    3
 10
2974.7124387296012
 20
698.31097072028183
 40
9
 41
1
 50
0
  1
材　質
  0
TEXT
  8
_0-0_90_FRAME
 62
    3
 10
3023.1423955067394
 20
698.24332993644612
 40
9
 41
1
 50
0
  1
数量
  0
TEXT
  8
_0-0_90_FRAME
 62
    3
 10
3053.2144318736523
 20
695.81309080654012
 40
6
 41
1
 50
0
  1
kg
  0
TEXT
  8
_0-0_90_FRAME
 62
    3
 10
3114.6807657540835
 20
698.09243215735023
 40
9
 41
1
 50
0
  1
備  考
  0
TEXT
  8
_0-0_90_FRAME
 62
    3
 10
2750.8496996631429
 20
698.09243215735023
 40
9
 41
1
 50
0
  1
符号
  0
TEXT
  8
_0-0_90_FRAME
 62
    3
 10
2827.1463419623601
 20
698.41909878318518
 40
9
 41
1
 50
0
  1
部　　品　　名
  0
LINE
  8
_0-0_90_FRAME
  6
CONTINUOUS
 62
    4
 10
2744.4356985498362
 20
776.37301524560689
 11
3198.0999803249233
 21
776.37301524560689
  0
LINE
  8
_0-0_90_FRAME
  6
CONTINUOUS
 62
    4
 10
2744.4356985498362
 20
755.37301412425609
 11
3198.0999803249233
 21
755.37301412425609
  0
LINE
  8
_0-0_90_FRAME
  6
CONTINUOUS
 62
    4
 10
2744.4356985498362
 20
734.37301524560678
 11
3198.0999803249233
 21
734.37301524560678
  0
LINE
  8
_0-0_90_FRAME
  6
CONTINUOUS
 62
    4
 10
2744.4356985498362
 20
713.37301524560678
 11
3198.0999803249233
 21
713.37301524560678
  0
TEXT
  8
_0-0_90_FRAME
 62
    7
 10
3045.4775050017274
 20
664.74057709866736
 40
12
 41
1
 50
0
  1
脱水機 部品図
  0
TEXT
  8
_0-0_90_FRAME
 62
    7
 10
2854.7438016718756
 20
664.30999436027423
 40
9.5999999999999996
 41
0.9000000000000001
 50
0
  1
有機性汚泥燃料施設
  0
LINE
  8
_0-2_08_DIM
  6
CONTINUOUS
 62
    3
 10
1231.2649676948624
 20
2030.0784976156951
 11
1307.9646181597848
 21
2030.0784976156951
  0
INSERT
  2
-000-p1ba05
  8
_0-2_08_DIM
 10
1275.9021755332008
 20
2034.1812651412363
 41
4.5
 42
4.5
 50
0
  0
TEXT
  8
_0-0_90_FRAME
 62
    3
 10
2750.4130059426311
 20
718.24014181842233
 40
9
 41
1
 50
0
  1
121
  0
TEXT
  8
_0-0_90_FRAME
 62
    3
 10
3030.6321377589638
 20
718.39104184020232
 40
9
 41
1
 50
0
  1
1
  0
TEXT
  8
_0-0_90_FRAME
 62
    3
 10
2965.5412680536724
 20
718.59104186983916
 40
9
 41
1
 50
0
  1
SUS304
  0
TEXT
  8
_0-0_90_FRAME
 62
    3
 10
2790.5663797881753
 20
718.47166473150457
 40
9
 41
1
 50
0
  1
モーター台
  0
LINE
  8
_0-3_04_HIDDEN
  6
CONTINUOUS
 62
    7
 10
2373.1827031486232
 20
971.98575192272392
 11
2382.1827031486227
 21
971.98575192272392
  0
LINE
  8
_0-4_05_CENTER
  6
CENTER2
 62
    4
 10
2371.1827031486227
 20
1051.7357519210977
 11
2384.1827031486227
 21
1051.7357519210977
  0
LINE
  8
_0-4_05_CENTER
  6
CENTER2
 62
    4
 10
2371.1827031486227
 20
1009.7357519210976
 11
2384.1827031486227
 21
1009.7357519210976
  0
LINE
  8
_0-4_05_CENTER
  6
CENTER2
 62
    4
 10
2371.1827031486227
 20
946.7357519211015
 11
2384.1827031486227
 21
946.7357519211015
  0
LINE
  8
_0-3_04_HIDDEN
  6
CONTINUOUS
 62
    7
 10
2373.1827031486232
 20
1047.4857519194716
 11
2382.1827031486227
 21
1047.4857519194716
  0
LINE
  8
_0-5_0
  6
CONTINUOUS
 62
   18
 10
2373.1827031486232
 20
934.73575192272381
 11
2373.1827031486232
 21
1063.7357519227239
  0
LINE
  8
_0-5_0
  6
CONTINUOUS
 62
   18
 10
2373.1827031486232
 20
1063.7357519227239
 11
2382.1827031486227
 21
1063.7357519227239
  0
LINE
  8
_0-5_0
  6
CONTINUOUS
 62
   18
 10
2382.1827031486227
 20
1063.7357519227239
 11
2382.1827031486227
 21
934.73575192272381
  0
LINE
  8
_0-5_0
  6
CONTINUOUS
 62
   18
 10
2382.1827031486227
 20
934.73575192272381
 11
2373.1827031486232
 21
934.73575192272381
  0
LINE
  8
_0-4_05_CENTER
  6
CENTER2
 62
    4
 10
1821.1535550120736
 20
1051.7357519289558
 11
1827.1535550120734
 21
1051.7357519289558
  0
LINE
  8
_0-4_05_CENTER
  6
CENTER2
 62
    4
 10
1821.1535550120736
 20
1009.7357519289558
 11
1827.1535550120734
 21
1009.7357519289558
  0
LINE
  8
_0-4_05_CENTER
  6
CENTER2
 62
    4
 10
1821.1535550120736
 20
946.73575192895578
 11
1827.1535550120734
 21
946.73575192895578
  0
LINE
  8
_0-5_0
  6
CONTINUOUS
 62
   18
 10
1825.1535550120734
 20
1063.7357519289558
 11
1825.1535550120734
 21
934.73575192895578
  0
LINE
  8
_0-5_0
  6
CONTINUOUS
 62
   18
 10
1825.1535550120734
 20
934.73575192895578
 11
1823.1535550120736
 21
934.73575192895578
  0
LINE
  8
_0-5_0
  6
CONTINUOUS
 62
   18
 10
1823.1535550120736
 20
934.73575192895578
 11
1823.1535550120736
 21
1063.7357519289558
  0
LINE
  8
_0-5_0
  6
CONTINUOUS
 62
   18
 10
1823.1535550120736
 20
1063.7357519289558
 11
1825.1535550120734
 21
1063.7357519289558
  0
LINE
  8
_0-4_05_CENTER
  6
CENTER2
 62
    4
 10
1200.3520127579907
 20
1119.7357519223419
 11
1218.3665751145384
 21
1119.7357519223419
  0
LINE
  8
_0-5_0
  6
CONTINUOUS
 62
   18
 10
1204.9815086183155
 20
884.73575192234193
 11
1204.9815086183155
 21
1134.7357519223419
  0
LINE
  8
_0-5_0
  6
CONTINUOUS
 62
   18
 10
1204.9815086183155
 20
1134.7357519223419
 11
1213.9815086183155
 21
1134.7357519223419
  0
LINE
  8
_0-5_0
  6
CONTINUOUS
 62
   18
 10
1213.9815086183155
 20
1134.7357519223419
 11
1213.9815086183155
 21
884.73575192234193
  0
LINE
  8
_0-5_0
  6
CONTINUOUS
 62
   18
 10
1213.9815086183155
 20
884.73575192234193
 11
1204.9815086183155
 21
884.73575192234193
  0
LINE
  8
_0-4_05_CENTER
  6
CENTER2
 62
    4
 10
1200.3520127579832
 20
1009.7357519249904
 11
1218.3665751145311
 21
1009.7357519249904
  0
LINE
  8
_0-4_05_CENTER
  6
CENTER2
 62
    4
 10
1200.3520127579832
 20
899.73575192234205
 11
1218.3665751145311
 21
899.73575192234205
  0
LINE
  8
_0-4_05_CENTER
  6
CENTER2
 62
    4
 10
1217.3708694507877
 20
1051.7357519317643
 11
1201.5921477878803
 21
1051.7357519317643
  0
LINE
  8
_0-4_05_CENTER
  6
CENTER2
 62
    4
 10
1217.3708694507877
 20
946.73575192234193
 11
1201.5921477878803
 21
946.73575192234193
  0
CIRCLE
  8
_0-5_0
  6
CONTINUOUS
 62
   18
 10
2551.6535935125635
 20
1009.7357519257615
 40
37.600000003040464
  0
LINE
  8
_0-4_05_CENTER
  6
CENTER2
 62
    4
 10
2509.6535935125635
 20
1059.0768027371355
 11
2509.6535935125635
 21
1044.3947011143587
  0
LINE
  8
_0-4_05_CENTER
  6
CENTER2
 62
    4
 10
2502.3125427011605
 20
1051.7357519257616
 11
2516.994644323966
 21
1051.7357519257616
  0
CIRCLE
  8
_0-5_0
  6
CONTINUOUS
 62
   18
 10
2509.6535935125635
 20
1051.7357519257471
 40
4.5
  0
LINE
  8
_0-4_05_CENTER
  6
CENTER2
 62
    4
 10
2627.653593512563
 20
1059.0768027371355
 11
2627.653593512563
 21
1044.3947011143587
  0
LINE
  8
_0-4_05_CENTER
  6
CENTER2
 62
    4
 10
2620.3125427011601
 20
1051.7357519257616
 11
2634.9946443239664
 21
1051.7357519257616
  0
CIRCLE
  8
_0-5_0
  6
CONTINUOUS
 62
   18
 10
2627.653593512563
 20
1051.7357519257471
 40
4.5
  0
LINE
  8
_0-4_05_CENTER
  6
CENTER2
 62
    4
 10
2627.653593512563
 20
954.07680273713561
 11
2627.653593512563
 21
939.39470111435867
  0
LINE
  8
_0-4_05_CENTER
  6
CENTER2
 62
    4
 10
2620.3125427011601
 20
946.73575192576152
 11
2634.9946443239664
 21
946.73575192576152
  0
CIRCLE
  8
_0-5_0
  6
CONTINUOUS
 62
   18
 10
2627.653593512563
 20
946.73575192574697
 40
4.5
  0
LINE
  8
_0-4_05_CENTER
  6
CENTER2
 62
    4
 10
2509.6535935125635
 20
954.07680273713561
 11
2509.6535935125635
 21
939.39470111435867
  0
LINE
  8
_0-4_05_CENTER
  6
CENTER2
 62
    4
 10
2502.3125427011605
 20
946.73575192576152
 11
2516.994644323966
 21
946.73575192576152
  0
CIRCLE
  8
_0-5_0
  6
CONTINUOUS
 62
   18
 10
2509.6535935125635
 20
946.73575192574697
 40
4.5
  0
LINE
  8
_0-5_0
  6
CONTINUOUS
 62
   18
 10
2632.6535935125635
 20
934.73575192576175
 11
2504.6535935125635
 21
934.73575192576175
  0
ARC
  8
_0-5_0
  6
CONTINUOUS
 62
   18
 10
2504.6535935125635
 20
941.73575192576163
 40
7.0000000000000009
 50
180
 51
270
  0
LINE
  8
_0-5_0
  6
CONTINUOUS
 62
   18
 10
2497.653593512563
 20
941.73575192576163
 11
2497.653593512563
 21
1056.7357519257616
  0
ARC
  8
_0-5_0
  6
CONTINUOUS
 62
   18
 10
2504.6535935125635
 20
1056.7357519257616
 40
7.0000000000000009
 50
90
 51
180
  0
LINE
  8
_0-5_0
  6
CONTINUOUS
 62
   18
 10
2504.6535935125635
 20
1063.7357519257616
 11
2632.6535935125635
 21
1063.7357519257616
  0
ARC
  8
_0-5_0
  6
CONTINUOUS
 62
   18
 10
2632.6535935125635
 20
1056.7357519257616
 40
7.0000000000000009
 50
0
 51
90
  0
LINE
  8
_0-5_0
  6
CONTINUOUS
 62
   18
 10
2639.6535935125635
 20
1056.7357519257616
 11
2639.6535935125635
 21
941.73575192576163
  0
ARC
  8
_0-5_0
  6
CONTINUOUS
 62
   18
 10
2632.6535935125635
 20
941.73575192576163
 40
7.0000000000000009
 50
270
 51
0
  0
LINE
  8
_0-4_05_CENTER
  6
CENTER2
 62
    4
 10
1954.7026898584299
 20
1059.0768027433783
 11
1954.7026898584299
 21
1044.3947011206014
  0
LINE
  8
_0-4_05_CENTER
  6
CENTER2
 62
    4
 10
1947.3616390470274
 20
1051.7357519320044
 11
1962.0437406698331
 21
1051.7357519320044
  0
CIRCLE
  8
_0-5_0
  6
CONTINUOUS
 62
   18
 10
1954.7026898584299
 20
1051.7357519319899
 40
4.5
  0
LINE
  8
_0-4_05_CENTER
  6
CENTER2
 62
    4
 10
2072.7026898584299
 20
1059.0768027433783
 11
2072.7026898584299
 21
1044.3947011206014
  0
LINE
  8
_0-4_05_CENTER
  6
CENTER2
 62
    4
 10
2065.361639047027
 20
1051.7357519320044
 11
2080.0437406698329
 21
1051.7357519320044
  0
CIRCLE
  8
_0-5_0
  6
CONTINUOUS
 62
   18
 10
2072.7026898584299
 20
1051.7357519319899
 40
4.5
  0
LINE
  8
_0-4_05_CENTER
  6
CENTER2
 62
    4
 10
2072.7026898584299
 20
954.07680274337827
 11
2072.7026898584299
 21
939.39470112060144
  0
LINE
  8
_0-4_05_CENTER
  6
CENTER2
 62
    4
 10
2065.361639047027
 20
946.73575193200452
 11
2080.0437406698329
 21
946.73575193200452
  0
CIRCLE
  8
_0-5_0
  6
CONTINUOUS
 62
   18
 10
2072.7026898584299
 20
946.73575193198985
 40
4.5
  0
LINE
  8
_0-4_05_CENTER
  6
CENTER2
 62
    4
 10
1954.7026898584299
 20
954.07680274337827
 11
1954.7026898584299
 21
939.39470112060144
  0
LINE
  8
_0-4_05_CENTER
  6
CENTER2
 62
    4
 10
1947.3616390470274
 20
946.73575193200452
 11
1962.0437406698331
 21
946.73575193200452
  0
CIRCLE
  8
_0-5_0
  6
CONTINUOUS
 62
   18
 10
1954.7026898584299
 20
946.73575193198985
 40
4.5
  0
LINE
  8
_0-5_0
  6
CONTINUOUS
 62
   18
 10
2077.7026898584299
 20
934.7357519320044
 11
1949.7026898584302
 21
934.7357519320044
  0
ARC
  8
_0-5_0
  6
CONTINUOUS
 62
   18
 10
1949.7026898584302
 20
941.7357519320044
 40
7.0000000000000009
 50
180
 51
270
  0
LINE
  8
_0-5_0
  6
CONTINUOUS
 62
   18
 10
1942.7026898584302
 20
941.7357519320044
 11
1942.7026898584302
 21
1056.7357519320044
  0
ARC
  8
_0-5_0
  6
CONTINUOUS
 62
   18
 10
1949.7026898584302
 20
1056.7357519320044
 40
7.0000000000000009
 50
90
 51
180
  0
LINE
  8
_0-5_0
  6
CONTINUOUS
 62
   18
 10
1949.7026898584302
 20
1063.7357519320044
 11
2077.7026898584299
 21
1063.7357519320044
  0
ARC
  8
_0-5_0
  6
CONTINUOUS
 62
   18
 10
2077.7026898584299
 20
1056.7357519320044
 40
7.0000000000000009
 50
0
 51
90
  0
LINE
  8
_0-5_0
  6
CONTINUOUS
 62
   18
 10
2084.7026898584304
 20
1056.7357519320044
 11
2084.7026898584304
 21
941.7357519320044
  0
ARC
  8
_0-5_0
  6
CONTINUOUS
 62
   18
 10
2077.7026898584299
 20
941.7357519320044
 40
7.0000000000000009
 50
270
 51
0
  0
CIRCLE
  8
_0-5_0
  6
CONTINUOUS
 62
   18
 10
1483.4920256126536
 20
1009.735751925376
 40
22.999999999883588
  0
LINE
  8
_0-5_0
  6
CONTINUOUS
 62
   18
 10
1388.4920256126534
 20
1119.735751925376
 11
1388.4920256126534
 21
899.73575192537601
  0
ARC
  8
_0-5_0
  6
CONTINUOUS
 62
   18
 10
1403.4920256126536
 20
899.73575192537601
 40
15.000000000000002
 50
180
 51
270
  0
LINE
  8
_0-5_0
  6
CONTINUOUS
 62
   18
 10
1403.4920256126536
 20
884.73575192537601
 11
1563.4920256126536
 21
884.73575192537601
  0
ARC
  8
_0-5_0
  6
CONTINUOUS
 62
   18
 10
1563.4920256126536
 20
899.73575192537601
 40
15.000000000000002
 50
270
 51
0
  0
LINE
  8
_0-5_0
  6
CONTINUOUS
 62
   18
 10
1578.4920256126536
 20
899.73575192537601
 11
1578.4920256126607
 21
1119.735751925376
  0
ARC
  8
_0-5_0
  6
CONTINUOUS
 62
   18
 10
1563.4920256126607
 20
1119.735751925376
 40
15.000000000000002
 50
0
 51
90
  0
LINE
  8
_0-5_0
  6
CONTINUOUS
 62
   18
 10
1563.4920256126607
 20
1134.735751925376
 11
1403.4920256126536
 21
1134.735751925376
  0
ARC
  8
_0-5_0
  6
CONTINUOUS
 62
   18
 10
1403.4920256126536
 20
1119.735751925376
 40
15.000000000000002
 50
90
 51
180
  0
LINE
  8
_0-4_05_CENTER
  6
CENTER2
 62
    4
 10
1380.4581570981811
 20
1009.7357519280243
 11
1586.5258941336742
 21
1009.7357519280243
  0
LINE
  8
_0-4_05_CENTER
  6
CENTER2
 62
    4
 10
1483.4920256159278
 20
1143.5325355014202
 11
1483.4920256159278
 21
875.93896835462886
  0
LINE
  8
_0-4_05_CENTER
  6
CENTER2
 62
    4
 10
1403.4920256171281
 20
890.39470111398759
 11
1403.4920256171281
 21
909.07680273679364
  0
CIRCLE
  8
_0-5_0
  6
CONTINUOUS
 62
   18
 10
1403.4920256171281
 20
899.73575192537601
 40
6
  0
LINE
  8
_0-4_05_CENTER
  6
CENTER2
 62
    4
 10
1412.8330764285165
 20
899.73575192537601
 11
1394.1509748057181
 21
899.73575192537601
  0
LINE
  8
_0-4_05_CENTER
  6
CENTER2
 62
    4
 10
1483.4920256126609
 20
890.39470111398759
 11
1483.4920256126609
 21
909.07680273679364
  0
CIRCLE
  8
_0-5_0
  6
CONTINUOUS
 62
   18
 10
1483.4920256126609
 20
899.73575192537601
 40
6
  0
LINE
  8
_0-4_05_CENTER
  6
CENTER2
 62
    4
 10
1492.8330764240491
 20
899.73575192537601
 11
1474.1509748012504
 21
899.73575192537601
  0
LINE
  8
_0-4_05_CENTER
  6
CENTER2
 62
    4
 10
1563.4920256171356
 20
890.39470111398759
 11
1563.4920256171356
 21
909.07680273679364
  0
CIRCLE
  8
_0-5_0
  6
CONTINUOUS
 62
   18
 10
1563.4920256171356
 20
899.73575192537601
 40
6
  0
LINE
  8
_0-4_05_CENTER
  6
CENTER2
 62
    4
 10
1572.833076428524
 20
899.73575192537601
 11
1554.1509748057254
 21
899.73575192537601
  0
LINE
  8
_0-4_05_CENTER
  6
CENTER2
 62
    4
 10
1403.4920256171354
 20
1110.3947011139876
 11
1403.4920256171354
 21
1129.0768027367935
  0
CIRCLE
  8
_0-5_0
  6
CONTINUOUS
 62
   18
 10
1403.4920256171354
 20
1119.735751925376
 40
6
  0
LINE
  8
_0-4_05_CENTER
  6
CENTER2
 62
    4
 10
1412.833076428524
 20
1119.735751925376
 11
1394.1509748057254
 21
1119.735751925376
  0
LINE
  8
_0-4_05_CENTER
  6
CENTER2
 62
    4
 10
1483.4920256126682
 20
1110.3947011139876
 11
1483.4920256126682
 21
1129.0768027367935
  0
CIRCLE
  8
_0-5_0
  6
CONTINUOUS
 62
   18
 10
1483.4920256126682
 20
1119.735751925376
 40
6
  0
LINE
  8
_0-4_05_CENTER
  6
CENTER2
 62
    4
 10
1492.8330764240563
 20
1119.735751925376
 11
1474.1509748012579
 21
1119.735751925376
  0
LINE
  8
_0-4_05_CENTER
  6
CENTER2
 62
    4
 10
1563.4920256171356
 20
1110.3947011139876
 11
1563.4920256171356
 21
1129.0768027367935
  0
CIRCLE
  8
_0-5_0
  6
CONTINUOUS
 62
   18
 10
1563.4920256171356
 20
1119.735751925376
 40
6
  0
LINE
  8
_0-4_05_CENTER
  6
CENTER2
 62
    4
 10
1572.833076428524
 20
1119.735751925376
 11
1554.1509748057254
 21
1119.735751925376
  0
LINE
  8
_0-4_05_CENTER
  6
CENTER2
 62
    4
 10
1441.4920256144217
 20
1059.0768027433746
 11
1441.4920256144217
 21
1044.3947011205978
  0
LINE
  8
_0-4_05_CENTER
  6
CENTER2
 62
    4
 10
1434.1509748030187
 20
1051.7357519320008
 11
1448.8330764258244
 21
1051.7357519320008
  0
CIRCLE
  8
_0-5_0
  6
CONTINUOUS
 62
   18
 10
1441.4920256144217
 20
1051.7357519319862
 40
4.5
  0
LINE
  8
_0-4_05_CENTER
  6
CENTER2
 62
    4
 10
1559.4920256144217
 20
1059.0768027433746
 11
1559.4920256144217
 21
1044.3947011205978
  0
LINE
  8
_0-4_05_CENTER
  6
CENTER2
 62
    4
 10
1552.1509748030187
 20
1051.7357519320008
 11
1566.8330764258246
 21
1051.7357519320008
  0
CIRCLE
  8
_0-5_0
  6
CONTINUOUS
 62
   18
 10
1559.4920256144217
 20
1051.7357519319862
 40
4.5
  0
LINE
  8
_0-4_05_CENTER
  6
CENTER2
 62
    4
 10
1559.4920256144217
 20
954.07680274337474
 11
1559.4920256144217
 21
939.3947011205978
  0
LINE
  8
_0-4_05_CENTER
  6
CENTER2
 62
    4
 10
1552.1509748030187
 20
946.73575193200065
 11
1566.8330764258246
 21
946.73575193200065
  0
CIRCLE
  8
_0-5_0
  6
CONTINUOUS
 62
   18
 10
1559.4920256144217
 20
946.73575193198621
 40
4.5
  0
LINE
  8
_0-4_05_CENTER
  6
CENTER2
 62
    4
 10
1441.4920256144217
 20
954.07680274337474
 11
1441.4920256144217
 21
939.3947011205978
  0
LINE
  8
_0-4_05_CENTER
  6
CENTER2
 62
    4
 10
1434.1509748030187
 20
946.73575193200065
 11
1448.8330764258244
 21
946.73575193200065
  0
CIRCLE
  8
_0-5_0
  6
CONTINUOUS
 62
   18
 10
1441.4920256144217
 20
946.73575193198621
 40
4.5
  0
LINE
  8
_0-4_05_CENTER
  6
CENTER2
 62
    4
 10
1837.9239254252645
 20
1883.4585711541868
 11
1837.9239254252645
 21
1639.2889735337294
  0
LINE
  8
_0-4_05_CENTER
  6
CENTER2
 62
    4
 10
1403.4920256228763
 20
746.25784453896586
 11
1403.4920256228763
 21
728.24328218241806
  0
LINE
  8
_0-5_0
  6
CONTINUOUS
 62
   18
 10
1578.4920256228761
 20
741.62834867863739
 11
1388.4920256228763
 21
741.62834867863739
  0
LINE
  8
_0-5_0
  6
CONTINUOUS
 62
   18
 10
1388.4920256228763
 20
741.62834867863739
 11
1388.4920256228763
 21
732.62834867863739
  0
LINE
  8
_0-5_0
  6
CONTINUOUS
 62
   18
 10
1388.4920256228763
 20
732.62834867863739
 11
1578.4920256228761
 21
732.62834867863739
  0
LINE
  8
_0-5_0
  6
CONTINUOUS
 62
   18
 10
1578.4920256228761
 20
732.62834867863739
 11
1578.4920256228761
 21
741.62834867863739
  0
LINE
  8
_0-4_05_CENTER
  6
CENTER2
 62
    4
 10
1483.4920256228763
 20
746.25784453896586
 11
1483.4920256228763
 21
728.24328218241806
  0
LINE
  8
_0-4_05_CENTER
  6
CENTER2
 62
    4
 10
1563.4920256228763
 20
746.25784453896586
 11
1563.4920256228763
 21
728.24328218241806
  0
LINE
  8
_0-4_05_CENTER
  6
CENTER2
 62
    4
 10
1441.4920256161024
 20
729.23898784616495
 11
1441.4920256161024
 21
745.01770950907076
  0
LINE
  8
_0-4_05_CENTER
  6
CENTER2
 62
    4
 10
1559.4920256161022
 20
729.23898784616495
 11
1559.4920256161022
 21
745.01770950907076
  0
LINE
  8
_0-4_05_CENTER
  6
CENTER2
 62
    4
 10
1954.7026898600525
 20
873.31497012986574
 11
1954.7026898600525
 21
867.31497012986574
  0
LINE
  8
_0-4_05_CENTER
  6
CENTER2
 62
    4
 10
2072.7026898600525
 20
873.31497012986574
 11
2072.7026898600525
 21
867.31497012986574
  0
LINE
  8
_0-5_0
  6
CONTINUOUS
 62
   18
 10
1942.7026898600527
 20
869.31497012986586
 11
2084.7026898600525
 21
869.31497012986586
  0
LINE
  8
_0-5_0
  6
CONTINUOUS
 62
   18
 10
2084.7026898600525
 20
869.31497012986586
 11
2084.7026898600525
 21
871.31497012986586
  0
LINE
  8
_0-5_0
  6
CONTINUOUS
 62
   18
 10
2084.7026898600525
 20
871.31497012986586
 11
1942.7026898600527
 21
871.31497012986586
  0
LINE
  8
_0-5_0
  6
CONTINUOUS
 62
   18
 10
1942.7026898600527
 20
871.31497012986586
 11
1942.7026898600527
 21
869.31497012986586
  0
LINE
  8
_0-3_04_HIDDEN
  6
CONTINUOUS
 62
    7
 10
2589.403593514186
 20
871.48936567058865
 11
2589.403593514186
 21
862.48936567058843
  0
LINE
  8
_0-4_05_CENTER
  6
CENTER2
 62
    4
 10
2509.6535935158154
 20
873.48936567058854
 11
2509.6535935158154
 21
860.48936567058843
  0
LINE
  8
_0-4_05_CENTER
  6
CENTER2
 62
    4
 10
2551.6535935158154
 20
873.48936567058854
 11
2551.6535935158154
 21
860.48936567058843
  0
LINE
  8
_0-4_05_CENTER
  6
CENTER2
 62
    4
 10
2627.6535935158158
 20
873.48936567058854
 11
2627.6535935158158
 21
860.48936567058843
  0
LINE
  8
_0-3_04_HIDDEN
  6
CONTINUOUS
 62
    7
 10
2513.9035935174452
 20
871.48936567058865
 11
2513.9035935174452
 21
862.48936567058843
  0
LINE
  8
_0-5_0
  6
CONTINUOUS
 62
   18
 10
2639.6535935141856
 20
871.48936567058865
 11
2497.6535935141856
 21
871.48936567058865
  0
LINE
  8
_0-5_0
  6
CONTINUOUS
 62
   18
 10
2497.6535935141856
 20
871.48936567058865
 11
2497.6535935141856
 21
862.48936567058843
  0
LINE
  8
_0-5_0
  6
CONTINUOUS
 62
   18
 10
2497.6535935141856
 20
862.48936567058843
 11
2639.6535935141856
 21
862.48936567058843
  0
LINE
  8
_0-5_0
  6
CONTINUOUS
 62
   18
 10
2639.6535935141856
 20
862.48936567058843
 11
2639.6535935141856
 21
871.48936567058865
  0
LINE
  8
_0-4_05_CENTER
  6
CENTER2
 62
    4
 10
1542.9239254302267
 20
1886.3737723459408
 11
2682.9239254301756
 21
1886.3737723459408
  0
LINE
  8
_0-4_05_CENTER
  6
CENTER2
 62
    4
 10
2682.9239254301756
 20
1886.3737723459408
 11
2682.9239254301756
 21
1636.3737723459415
  0
LINE
  8
_0-4_05_CENTER
  6
CENTER2
 62
    4
 10
2682.9239254301756
 20
1636.3737723459415
 11
1542.9239254302267
 21
1636.3737723459415
  0
LINE
  8
_0-4_05_CENTER
  6
CENTER2
 62
    4
 10
1542.9239254302267
 20
1636.3737723459415
 11
1542.9239254302267
 21
1886.3737723459408
  0
LINE
  8
_0-4_05_CENTER
  6
CENTER2
 62
    4
 10
2307.9239104214757
 20
1871.3737723459424
 11
2467.9239104214794
 21
1871.3737723459424
  0
LINE
  8
_0-4_05_CENTER
  6
CENTER2
 62
    4
 10
2467.9239104214794
 20
1871.3737723459424
 11
2467.9239104214794
 21
1651.3737723459424
  0
LINE
  8
_0-4_05_CENTER
  6
CENTER2
 62
    4
 10
2467.9239104214794
 20
1651.3737723459424
 11
2307.9239104214757
 21
1651.3737723459424
  0
LINE
  8
_0-4_05_CENTER
  6
CENTER2
 62
    4
 10
2307.9239104214757
 20
1651.3737723459424
 11
2307.9239104214757
 21
1871.3737723459424
  0
LINE
  8
_0-4_05_CENTER
  6
CENTER2
 62
    4
 10
2345.9239104221815
 20
1803.3737723451256
 11
2463.92391042499
 21
1803.3737723451256
  0
LINE
  8
_0-4_05_CENTER
  6
CENTER2
 62
    4
 10
2463.92391042499
 20
1803.3737723451256
 11
2463.92391042499
 21
1698.3737723441961
  0
LINE
  8
_0-4_05_CENTER
  6
CENTER2
 62
    4
 10
2463.92391042499
 20
1698.3737723441961
 11
2345.9239104221815
 21
1698.3737723441961
  0
LINE
  8
_0-4_05_CENTER
  6
CENTER2
 62
    4
 10
2345.9239104221815
 20
1698.3737723441961
 11
2345.9239104221815
 21
1803.3737723451256
  0
LINE
  8
_0-4_05_CENTER
  6
CENTER2
 62
    4
 10
1510.691558907118
 20
1761.3737723459406
 11
2723.4726268452996
 21
1761.3737723459406
  0
LINE
  8
_0-4_05_CENTER
  6
CENTER2
 62
    4
 10
1757.9239254207898
 20
1871.3737723439585
 11
1917.9239254207935
 21
1871.3737723439585
  0
LINE
  8
_0-4_05_CENTER
  6
CENTER2
 62
    4
 10
1917.9239254207935
 20
1871.3737723439585
 11
1917.9239254207935
 21
1651.3737723439588
  0
LINE
  8
_0-4_05_CENTER
  6
CENTER2
 62
    4
 10
1917.9239254207935
 20
1651.3737723439588
 11
1757.9239254207898
 21
1651.3737723439588
  0
LINE
  8
_0-4_05_CENTER
  6
CENTER2
 62
    4
 10
1757.9239254207898
 20
1651.3737723439588
 11
1757.9239254207898
 21
1871.3737723439585
  0
LINE
  8
_0-4_05_CENTER
  6
CENTER2
 62
    4
 10
1795.9239254214956
 20
1803.373772343142
 11
1913.9239254243041
 21
1803.373772343142
  0
LINE
  8
_0-4_05_CENTER
  6
CENTER2
 62
    4
 10
1913.9239254243041
 20
1803.373772343142
 11
1913.9239254243041
 21
1698.3737723422125
  0
LINE
  8
_0-4_05_CENTER
  6
CENTER2
 62
    4
 10
1913.9239254243041
 20
1698.3737723422125
 11
1795.9239254214956
 21
1698.3737723422125
  0
LINE
  8
_0-4_05_CENTER
  6
CENTER2
 62
    4
 10
1795.9239254214956
 20
1698.3737723422125
 11
1795.9239254214956
 21
1803.373772343142
  0
LINE
  8
_0-4_05_CENTER
  6
CENTER2
 62
    4
 10
2090.9239254302265
 20
1887.869604233229
 11
2090.9239254302192
 21
1637.8696042332142
  0
LINE
  8
_0-4_05_CENTER
  6
CENTER2
 62
    4
 10
2387.9239104259505
 20
1883.4585711541836
 11
2387.9239104259505
 21
1639.2889735337267
  0
TEXT
  8
_0-2_08_DIM
 62
    3
 10
1237.6680611659217
 20
2011.3844221486477
 40
13.500000000000002
 41
1
 50
0
  1
レーザーカット可
  0
CIRCLE
  8
_0-5_0
  6
CONTINUOUS
 62
   18
 10
1996.7026898601691
 20
1009.7357519319462
 40
21.000000000046839
  0
LINE
  8
_0-4_05_CENTER
  6
CENTER2
 62
    4
 10
1935.9591887211448
 20
1009.7357519279699
 11
2091.0832434185504
 21
1009.7357519279699
  0
LINE
  8
_0-4_05_CENTER
  6
CENTER2
 62
    4
 10
1996.7026898619079
 20
1069.3656512433631
 11
1996.7026898619006
 21
928.57411726729651
  0
LINE
  8
_0-4_05_CENTER
  6
CENTER2
 62
    4
 10
1996.7026898619006
 20
873.31497013230683
 11
1996.7026898619006
 21
867.31497013230683
  0
LINE
  8
_0-4_05_CENTER
  6
CENTER2
 62
    4
 10
1403.4920256114531
 20
1119.7357519280254
 11
1563.4920256114565
 21
1119.7357519280254
  0
LINE
  8
_0-4_05_CENTER
  6
CENTER2
 62
    4
 10
1563.4920256114565
 20
1119.7357519280254
 11
1563.4920256114565
 21
899.73575192802525
  0
LINE
  8
_0-4_05_CENTER
  6
CENTER2
 62
    4
 10
1563.4920256114565
 20
899.73575192802525
 11
1403.4920256114531
 21
899.73575192802525
  0
LINE
  8
_0-4_05_CENTER
  6
CENTER2
 62
    4
 10
1403.4920256114531
 20
899.73575192802525
 11
1403.4920256114531
 21
1119.7357519280254
  0
LINE
  8
_0-4_05_CENTER
  6
CENTER2
 62
    4
 10
1441.4920256121588
 20
1051.7357519272086
 11
1559.4920256149671
 21
1051.7357519272086
  0
LINE
  8
_0-4_05_CENTER
  6
CENTER2
 62
    4
 10
1559.4920256149671
 20
1051.7357519272086
 11
1559.4920256149671
 21
946.73575192627914
  0
LINE
  8
_0-4_05_CENTER
  6
CENTER2
 62
    4
 10
1559.4920256149671
 20
946.73575192627914
 11
1441.4920256121588
 21
946.73575192627914
  0
LINE
  8
_0-4_05_CENTER
  6
CENTER2
 62
    4
 10
1441.4920256121588
 20
946.73575192627914
 11
1441.4920256121588
 21
1051.7357519272086
  0
TEXT
  8
_0-0_90_FRAME
 62
    3
 10
2748.913023272306
 20
739.24014294660856
 40
9
 41
1
 50
0
  1
122
  0
TEXT
  8
_0-0_90_FRAME
 62
    3
 10
3029.1321550886387
 20
739.39104296838855
 40
9
 41
1
 50
0
  1
2
  0
TEXT
  8
_0-0_90_FRAME
 62
    3
 10
2965.5412853833473
 20
739.5910429980255
 40
9
 41
1
 50
0
  1
SUS304
  0
TEXT
  8
_0-0_90_FRAME
 62
    3
 10
2790.5663971178506
 20
739.47166585969092
 40
9
 41
1
 50
0
  1
オイルシール取付板
  0
TEXT
  8
_0-0_90_FRAME
 62
    3
 10
2748.913023272306
 20
760.24014069707152
 40
9
 41
1
 50
0
  1
123
  0
TEXT
  8
_0-0_90_FRAME
 62
    3
 10
3029.1321550886387
 20
760.39104071885163
 40
9
 41
1
 50
0
  1
2
  0
TEXT
  8
_0-0_90_FRAME
 62
    3
 10
2965.5412853833473
 20
760.59104074848835
 40
9
 41
1
 50
0
  1
SUS304
  0
TEXT
  8
_0-0_90_FRAME
 62
    3
 10
2748.913023272306
 20
781.24014181842233
 40
9
 41
1
 50
0
  1
124
  0
TEXT
  8
_0-0_90_FRAME
 62
    3
 10
3029.1321550886387
 20
781.39104184020232
 40
9
 41
1
 50
0
  1
2
  0
TEXT
  8
_0-0_90_FRAME
 62
    3
 10
2965.5412853833473
 20
781.59104186983916
 40
9
 41
1
 50
0
  1
SUS304
  0
LINE
  8
_0-0_90_FRAME
  6
CONTINUOUS
 62
    4
 10
2744.435715879511
 20
818.37301524560689
 11
3198.0999976545982
 21
818.37301524560689
  0
LINE
  8
_0-0_90_FRAME
  6
CONTINUOUS
 62
    4
 10
2744.435715879511
 20
797.37301412425609
 11
3198.0999976545982
 21
797.37301412425609
  0
TEXT
  8
_0-0_90_FRAME
 62
    3
 10
2790.5663971178496
 20
781.47166585969092
 40
9
 41
1
 50
0
  1
モーター取付板
  0
TEXT
  8
_0-0_90_FRAME
 62
    3
 10
2790.5663971178506
 20
760.47166473834011
 40
9
 41
1
 50
0
  1
オイルシール押え板
  0
TEXT
  8
_0-2_08_DIM
 62
    3
 10
1158.1337211048435
 20
1203.218336938718
 40
13.500000000000002
 41
1
 50
0
  1
H7穴以外レーザーカット可
  0
INSERT
  2
-001-p1ba02
  8
_0-2_08_DIM
 10
1506.4920256228763
 20
754.7494922605033
 41
3
 42
3
 50
90
  0
LINE
  8
_0-2_08_DIM
  6
CONTINUOUS
 62
    3
 10
1151.7306276337843
 20
1221.912412405766
 11
1273.8815306721829
 21
1221.912412405766
  0
INSERT
  2
-000-p1ba05
  8
_0-2_08_DIM
 10
1187.4527804323097
 20
1226.0151799313066
 41
4.5
 42
4.5
 50
0
  0
INSERT
  2
-001-p1ba02
  8
_0-2_08_DIM
 10
1226.2248712740902
 20
1225.4890668952455
 41
4.5
 42
4.5
 50
0
  0
TEXT
  8
_0-6_07_TEXT
 62
    3
 10
1205.1603531623784
 20
1225.150463395853
 40
13.500000000000002
 41
1
 50
0
  1
(   )
  0
LINE
  8
_0-4_05_CENTER
  6
CENTER2
 62
    4
 10
1954.7026898584299
 20
1051.7357519320044
 11
2072.7026898584299
 21
1051.7357519320044
  0
LINE
  8
_0-4_05_CENTER
  6
CENTER2
 62
    4
 10
2072.7026898584299
 20
1051.7357519320044
 11
2072.7026898584299
 21
946.73575193200452
  0
LINE
  8
_0-4_05_CENTER
  6
CENTER2
 62
    4
 10
2072.7026898584299
 20
946.73575193200452
 11
1954.7026898584299
 21
946.73575193200452
  0
LINE
  8
_0-4_05_CENTER
  6
CENTER2
 62
    4
 10
1954.7026898584299
 20
946.73575193200452
 11
1954.7026898584299
 21
1051.7357519320044
  0
TEXT
  8
_0-2_08_DIM
 62
    3
 10
1750.6425064537693
 20
1159.7465117623819
 40
13.500000000000002
 41
1
 50
0
  1
レーザーカット可
  0
LINE
  8
_0-2_08_DIM
  6
CONTINUOUS
 62
    3
 10
1744.2394129827098
 20
1178.4405872294296
 11
1822.3005887278853
 21
1178.4405872294296
  0
INSERT
  2
-000-p1ba05
  8
_0-2_08_DIM
 10
1788.2788902886477
 20
1182.5433547549703
 41
4.5
 42
4.5
 50
0
  0
LINE
  8
_0-4_05_CENTER
  6
CENTER2
 62
    4
 10
2490.9100923735423
 20
1009.7357519279699
 11
2646.0341470709482
 21
1009.7357519279699
  0
LINE
  8
_0-4_05_CENTER
  6
CENTER2
 62
    4
 10
2551.6535935143052
 20
1069.3656512433631
 11
2551.6535935142979
 21
928.57411726729651
  0
LINE
  8
_0-4_05_CENTER
  6
CENTER2
 62
    4
 10
2509.6535935108272
 20
1051.7357519320044
 11
2627.6535935108272
 21
1051.7357519320044
  0
LINE
  8
_0-4_05_CENTER
  6
CENTER2
 62
    4
 10
2627.6535935108272
 20
1051.7357519320044
 11
2627.6535935108272
 21
946.73575193200452
  0
LINE
  8
_0-4_05_CENTER
  6
CENTER2
 62
    4
 10
2627.6535935108272
 20
946.73575193200452
 11
2509.6535935108272
 21
946.73575193200452
  0
LINE
  8
_0-4_05_CENTER
  6
CENTER2
 62
    4
 10
2509.6535935108272
 20
946.73575193200452
 11
2509.6535935108272
 21
1051.7357519320044
  0
TEXT
  8
_0-2_08_DIM
 62
    3
 10
2305.5934101079024
 20
1159.7465117561392
 40
13.500000000000002
 41
1
 50
0
  1
レーザーカット可
  0
LINE
  8
_0-2_08_DIM
  6
CONTINUOUS
 62
    3
 10
2299.1903166368429
 20
1178.4405872231869
 11
2377.2514923820181
 21
1178.4405872231869
  0
INSERT
  2
-000-p1ba05
  8
_0-2_08_DIM
 10
2343.2297939427813
 20
1182.5433547487276
 41
4.5
 42
4.5
 50
0
  0
CIRCLE
  8
_0-5_0
  6
CONTINUOUS
 62
   18
 10
2387.9239104214757
 20
1761.3737723459426
 40
21
  0
LINE
  8
_0-4_05_CENTER
  6
CENTER2
 62
    4
 10
2361.4097615526734
 20
1761.3737723439563
 11
2414.4380592992275
 21
1761.3737723439563
  0
LINE
  8
_0-4_05_CENTER
  6
CENTER2
 62
    4
 10
2387.9239104259505
 20
1787.8879212172624
 11
2387.9239104259505
 21
1734.8596234706501
  0
LINE
  8
_0-5_0
  6
CONTINUOUS
 62
   18
 10
2702.9239254301829
 20
1611.3737723459424
 11
1522.9239254302122
 21
1611.3737723459408
  0
LINE
  8
_0-5_0
  6
CONTINUOUS
 62
   18
 10
1522.9239254302122
 20
1611.3737723459408
 11
1522.9239254302122
 21
1911.3737723459406
  0
LINE
  8
_0-5_0
  6
CONTINUOUS
 62
   18
 10
1522.9239254302122
 20
1911.3737723459406
 11
2702.9239254301901
 21
1911.3737723459424
  0
LINE
  8
_0-5_0
  6
CONTINUOUS
 62
   18
 10
2702.9239254301901
 20
1911.3737723459424
 11
2702.9239254301829
 21
1611.3737723459424
  0
LINE
  8
_0-4_05_CENTER
  6
CENTER2
 62
    4
 10
2682.9239254301756
 20
1895.714823157331
 11
2682.9239254301756
 21
1877.0327215345251
  0
CIRCLE
  8
_0-5_0
  6
CONTINUOUS
 62
   18
 10
2682.9239254301756
 20
1886.3737723459424
 40
6
  0
LINE
  8
_0-4_05_CENTER
  6
CENTER2
 62
    4
 10
2673.5828746187872
 20
1886.3737723459424
 11
2692.2649762415858
 21
1886.3737723459424
  0
LINE
  8
_0-4_05_CENTER
  6
CENTER2
 62
    4
 10
2682.9239254301756
 20
1645.714823157331
 11
2682.9239254301756
 21
1627.0327215345249
  0
CIRCLE
  8
_0-5_0
  6
CONTINUOUS
 62
   18
 10
2682.9239254301756
 20
1636.3737723459424
 40
6
  0
LINE
  8
_0-4_05_CENTER
  6
CENTER2
 62
    4
 10
2673.5828746187872
 20
1636.3737723459424
 11
2692.2649762415858
 21
1636.3737723459424
  0
LINE
  8
_0-4_05_CENTER
  6
CENTER2
 62
    4
 10
2467.9239104214685
 20
1660.714823157331
 11
2467.9239104214685
 21
1642.0327215345249
  0
CIRCLE
  8
_0-5_0
  6
CONTINUOUS
 62
   18
 10
2467.9239104214685
 20
1651.3737723459424
 40
6
  0
LINE
  8
_0-4_05_CENTER
  6
CENTER2
 62
    4
 10
2458.5828596100805
 20
1651.3737723459424
 11
2477.2649612328792
 21
1651.3737723459424
  0
LINE
  8
_0-4_05_CENTER
  6
CENTER2
 62
    4
 10
2387.9239104259359
 20
1660.714823157331
 11
2387.9239104259359
 21
1642.0327215345249
  0
CIRCLE
  8
_0-5_0
  6
CONTINUOUS
 62
   18
 10
2387.9239104259359
 20
1651.3737723459424
 40
6
  0
LINE
  8
_0-4_05_CENTER
  6
CENTER2
 62
    4
 10
2378.5828596145475
 20
1651.3737723459424
 11
2397.2649612373466
 21
1651.3737723459424
  0
LINE
  8
_0-4_05_CENTER
  6
CENTER2
 62
    4
 10
2307.9239104214685
 20
1660.714823157331
 11
2307.9239104214612
 21
1642.0327215345249
  0
CIRCLE
  8
_0-5_0
  6
CONTINUOUS
 62
   18
 10
2307.9239104214612
 20
1651.3737723459424
 40
6
  0
LINE
  8
_0-4_05_CENTER
  6
CENTER2
 62
    4
 10
2298.5828596100728
 20
1651.3737723459424
 11
2317.2649612328719
 21
1651.3737723459424
  0
LINE
  8
_0-4_05_CENTER
  6
CENTER2
 62
    4
 10
2307.9239104214685
 20
1880.7148231573308
 11
2307.9239104214685
 21
1862.0327215345251
  0
CIRCLE
  8
_0-5_0
  6
CONTINUOUS
 62
   18
 10
2307.9239104214685
 20
1871.3737723459424
 40
6
  0
LINE
  8
_0-4_05_CENTER
  6
CENTER2
 62
    4
 10
2298.5828596100805
 20
1871.3737723459424
 11
2317.2649612328719
 21
1871.3737723459424
  0
LINE
  8
_0-4_05_CENTER
  6
CENTER2
 62
    4
 10
2387.9239104259359
 20
1880.7148231573308
 11
2387.9239104259359
 21
1862.0327215345251
  0
CIRCLE
  8
_0-5_0
  6
CONTINUOUS
 62
   18
 10
2387.9239104259359
 20
1871.3737723459424
 40
6
  0
LINE
  8
_0-4_05_CENTER
  6
CENTER2
 62
    4
 10
2378.5828596145475
 20
1871.3737723459424
 11
2397.2649612373466
 21
1871.3737723459424
  0
LINE
  8
_0-4_05_CENTER
  6
CENTER2
 62
    4
 10
2467.9239104214685
 20
1880.7148231573308
 11
2467.9239104214685
 21
1862.0327215345251
  0
CIRCLE
  8
_0-5_0
  6
CONTINUOUS
 62
   18
 10
2467.9239104214685
 20
1871.3737723459424
 40
6
  0
LINE
  8
_0-4_05_CENTER
  6
CENTER2
 62
    4
 10
2458.5828596100805
 20
1871.3737723459424
 11
2477.2649612328792
 21
1871.3737723459424
  0
LINE
  8
_0-4_05_CENTER
  6
CENTER2
 62
    4
 10
2090.9239254302192
 20
1895.7148231573708
 11
2090.9239254302192
 21
1877.0327215345651
  0
CIRCLE
  8
_0-5_0
  6
CONTINUOUS
 62
   18
 10
2090.9239254302192
 20
1886.3737723459824
 40
6
  0
LINE
  8
_0-4_05_CENTER
  6
CENTER2
 62
    4
 10
2081.5828746188308
 20
1886.3737723459824
 11
2100.2649762416227
 21
1886.3737723459824
  0
LINE
  8
_0-4_05_CENTER
  6
CENTER2
 62
    4
 10
2090.9239254302192
 20
1645.7148231573708
 11
2090.9239254302192
 21
1627.0327215345651
  0
CIRCLE
  8
_0-5_0
  6
CONTINUOUS
 62
   18
 10
2090.9239254302192
 20
1636.3737723459824
 40
6
  0
LINE
  8
_0-4_05_CENTER
  6
CENTER2
 62
    4
 10
2081.5828746188308
 20
1636.3737723459824
 11
2100.2649762416227
 21
1636.3737723459824
  0
LINE
  8
_0-4_05_CENTER
  6
CENTER2
 62
    4
 10
1542.9239254302195
 20
1895.7148231573292
 11
1542.9239254302195
 21
1877.032721534523
  0
CIRCLE
  8
_0-5_0
  6
CONTINUOUS
 62
   18
 10
1542.9239254302195
 20
1886.3737723459408
 40
6
  0
LINE
  8
_0-4_05_CENTER
  6
CENTER2
 62
    4
 10
1533.5828746188311
 20
1886.3737723459408
 11
1552.2649762416222
 21
1886.3737723459408
  0
LINE
  8
_0-4_05_CENTER
  6
CENTER2
 62
    4
 10
1542.9239254302195
 20
1645.714823157329
 11
1542.9239254302195
 21
1627.032721534523
  0
CIRCLE
  8
_0-5_0
  6
CONTINUOUS
 62
   18
 10
1542.9239254302195
 20
1636.3737723459408
 40
6
  0
LINE
  8
_0-4_05_CENTER
  6
CENTER2
 62
    4
 10
1533.5828746188311
 20
1636.3737723459408
 11
1552.2649762416222
 21
1636.3737723459408
  0
CIRCLE
  8
_0-5_0
  6
CONTINUOUS
 62
   18
 10
1837.9239254207898
 20
1761.3737723459442
 40
21
  0
LINE
  8
_0-4_05_CENTER
  6
CENTER2
 62
    4
 10
1811.4097765519875
 20
1761.3737723439579
 11
1864.4380742985416
 21
1761.3737723439579
  0
LINE
  8
_0-4_05_CENTER
  6
CENTER2
 62
    4
 10
1837.9239254252645
 20
1787.887921217264
 11
1837.9239254252645
 21
1734.8596234706517
  0
LINE
  8
_0-4_05_CENTER
  6
CENTER2
 62
    4
 10
1917.9239254207826
 20
1660.7148231573326
 11
1917.9239254207826
 21
1642.0327215345269
  0
CIRCLE
  8
_0-5_0
  6
CONTINUOUS
 62
   18
 10
1917.9239254207826
 20
1651.3737723459444
 40
6
  0
LINE
  8
_0-4_05_CENTER
  6
CENTER2
 62
    4
 10
1908.5828746093939
 20
1651.3737723459444
 11
1927.2649762321928
 21
1651.3737723459444
  0
LINE
  8
_0-4_05_CENTER
  6
CENTER2
 62
    4
 10
1837.92392542525
 20
1660.7148231573326
 11
1837.92392542525
 21
1642.0327215345269
  0
CIRCLE
  8
_0-5_0
  6
CONTINUOUS
 62
   18
 10
1837.92392542525
 20
1651.3737723459444
 40
6
  0
LINE
  8
_0-4_05_CENTER
  6
CENTER2
 62
    4
 10
1828.5828746138616
 20
1651.3737723459444
 11
1847.26497623666
 21
1651.3737723459444
  0
LINE
  8
_0-4_05_CENTER
  6
CENTER2
 62
    4
 10
1757.9239254207826
 20
1660.7148231573326
 11
1757.9239254207826
 21
1642.0327215345269
  0
CIRCLE
  8
_0-5_0
  6
CONTINUOUS
 62
   18
 10
1757.9239254207826
 20
1651.3737723459444
 40
6
  0
LINE
  8
_0-4_05_CENTER
  6
CENTER2
 62
    4
 10
1748.5828746093939
 20
1651.3737723459444
 11
1767.2649762321857
 21
1651.3737723459444
  0
LINE
  8
_0-4_05_CENTER
  6
CENTER2
 62
    4
 10
1757.9239254207826
 20
1880.7148231573324
 11
1757.9239254207826
 21
1862.0327215345267
  0
CIRCLE
  8
_0-5_0
  6
CONTINUOUS
 62
   18
 10
1757.9239254207826
 20
1871.3737723459444
 40
6
  0
LINE
  8
_0-4_05_CENTER
  6
CENTER2
 62
    4
 10
1748.5828746093939
 20
1871.3737723459444
 11
1767.2649762321857
 21
1871.3737723459444
  0
LINE
  8
_0-4_05_CENTER
  6
CENTER2
 62
    4
 10
1837.92392542525
 20
1880.7148231573324
 11
1837.92392542525
 21
1862.0327215345267
  0
CIRCLE
  8
_0-5_0
  6
CONTINUOUS
 62
   18
 10
1837.92392542525
 20
1871.3737723459444
 40
6
  0
LINE
  8
_0-4_05_CENTER
  6
CENTER2
 62
    4
 10
1828.5828746138616
 20
1871.3737723459444
 11
1847.26497623666
 21
1871.3737723459444
  0
LINE
  8
_0-4_05_CENTER
  6
CENTER2
 62
    4
 10
1917.9239254207826
 20
1880.7148231573324
 11
1917.9239254207826
 21
1862.0327215345267
  0
CIRCLE
  8
_0-5_0
  6
CONTINUOUS
 62
   18
 10
1917.9239254207826
 20
1871.3737723459444
 40
6
  0
LINE
  8
_0-4_05_CENTER
  6
CENTER2
 62
    4
 10
1908.5828746093939
 20
1871.3737723459444
 11
1927.2649762321928
 21
1871.3737723459444
  0
CIRCLE
  8
_0-5_0
  6
CONTINUOUS
 62
   18
 10
1795.9239254207971
 20
1803.3737723459442
 40
12.5
  0
LINE
  8
_0-4_05_CENTER
  6
CENTER2
 62
    4
 10
1814.3266834624267
 20
1803.3737723451272
 11
1777.5211673805647
 21
1803.3737723451272
  0
LINE
  8
_0-4_05_CENTER
  6
CENTER2
 62
    4
 10
1795.9239254214956
 20
1784.9710143041384
 11
1795.9239254214956
 21
1821.7765303860585
  0
CIRCLE
  8
_0-5_0
  6
CONTINUOUS
 62
   18
 10
1913.9239254236056
 20
1803.3737723467466
 40
12.5
  0
LINE
  8
_0-4_05_CENTER
  6
CENTER2
 62
    4
 10
1932.3266834652352
 20
1803.3737723459296
 11
1895.5211673833728
 21
1803.3737723459296
  0
LINE
  8
_0-4_05_CENTER
  6
CENTER2
 62
    4
 10
1913.9239254243041
 20
1784.9710143049401
 11
1913.9239254243041
 21
1821.7765303868607
  0
CIRCLE
  8
_0-5_0
  6
CONTINUOUS
 62
   18
 10
1913.9239254236056
 20
1698.3737723450147
 40
12.5
  0
LINE
  8
_0-4_05_CENTER
  6
CENTER2
 62
    4
 10
1932.3266834652352
 20
1698.3737723441982
 11
1895.5211673833728
 21
1698.3737723441982
  0
LINE
  8
_0-4_05_CENTER
  6
CENTER2
 62
    4
 10
1913.9239254243041
 20
1679.9710143032087
 11
1913.9239254243041
 21
1716.7765303851293
  0
CIRCLE
  8
_0-5_0
  6
CONTINUOUS
 62
   18
 10
1795.9239254200984
 20
1698.3737723450147
 40
12.5
  0
LINE
  8
_0-4_05_CENTER
  6
CENTER2
 62
    4
 10
1814.3266834617282
 20
1698.3737723441982
 11
1777.521167379866
 21
1698.3737723441982
  0
LINE
  8
_0-4_05_CENTER
  6
CENTER2
 62
    4
 10
1795.9239254207971
 20
1679.9710143032087
 11
1795.9239254207971
 21
1716.7765303851293
  0
CIRCLE
  8
_0-5_0
  6
CONTINUOUS
 62
   18
 10
2345.923910421483
 20
1803.3737723459426
 40
12.5
  0
LINE
  8
_0-4_05_CENTER
  6
CENTER2
 62
    4
 10
2364.3266684631126
 20
1803.3737723451256
 11
2327.5211523812509
 21
1803.3737723451256
  0
LINE
  8
_0-4_05_CENTER
  6
CENTER2
 62
    4
 10
2345.9239104221815
 20
1784.9710143041361
 11
2345.9239104221815
 21
1821.7765303860567
  0
CIRCLE
  8
_0-5_0
  6
CONTINUOUS
 62
   18
 10
2463.9239104242915
 20
1803.3737723467443
 40
12.5
  0
LINE
  8
_0-4_05_CENTER
  6
CENTER2
 62
    4
 10
2482.3266684659211
 20
1803.373772345928
 11
2445.5211523840594
 21
1803.373772345928
  0
LINE
  8
_0-4_05_CENTER
  6
CENTER2
 62
    4
 10
2463.92391042499
 20
1784.9710143049385
 11
2463.92391042499
 21
1821.7765303868591
  0
CIRCLE
  8
_0-5_0
  6
CONTINUOUS
 62
   18
 10
2463.9239104242915
 20
1698.3737723450129
 40
12.5
  0
LINE
  8
_0-4_05_CENTER
  6
CENTER2
 62
    4
 10
2482.3266684659211
 20
1698.3737723441961
 11
2445.5211523840594
 21
1698.3737723441961
  0
LINE
  8
_0-4_05_CENTER
  6
CENTER2
 62
    4
 10
2463.92391042499
 20
1679.9710143032071
 11
2463.92391042499
 21
1716.776530385127
  0
CIRCLE
  8
_0-5_0
  6
CONTINUOUS
 62
   18
 10
2345.923910420785
 20
1698.3737723450129
 40
12.5
  0
LINE
  8
_0-4_05_CENTER
  6
CENTER2
 62
    4
 10
2364.3266684624145
 20
1698.3737723441961
 11
2327.5211523805519
 21
1698.3737723441961
  0
LINE
  8
_0-4_05_CENTER
  6
CENTER2
 62
    4
 10
2345.923910421483
 20
1679.9710143032071
 11
2345.923910421483
 21
1716.776530385127
  0
LINE
  8
_0-5_0
  6
CONTINUOUS
 62
   18
 10
2702.9239254301829
 20
1614.3737723459426
 11
1522.9239254302122
 21
1614.3737723459406
  0
LINE
  8
_0-5_0
  6
CONTINUOUS
 62
   18
 10
2702.9239254301901
 20
1908.3737723459426
 11
1522.9239254302122
 21
1908.3737723459403
  0
LINE
  8
_0-4_05_CENTER
  6
CENTER2
 62
    4
 10
2387.9239104259505
 20
1396.0977250980043
 11
2387.9239104259505
 21
1380.452348703225
  0
LINE
  8
_0-4_05_CENTER
  6
CENTER2
 62
    4
 10
2463.9239104214835
 20
1396.0977250980043
 11
2463.9239104214835
 21
1380.452348703225
  0
LINE
  8
_0-5_0
  6
CONTINUOUS
 62
   18
 10
2697.9239254301829
 20
1436.6395399144742
 11
1527.9239254302051
 21
1436.6395399144685
  0
LINE
  8
_0-5_0
  6
CONTINUOUS
 62
   18
 10
1527.9239254302051
 20
1436.6395399144685
 11
1522.9239254302049
 21
1431.6395399144687
  0
LINE
  8
_0-5_0
  6
CONTINUOUS
 62
   18
 10
1522.9239254302049
 20
1431.6395399144687
 11
1522.9239254302049
 21
1386.6395399144722
  0
LINE
  8
_0-5_0
  6
CONTINUOUS
 62
   18
 10
1522.9239254302049
 20
1386.6395399144722
 11
2702.9239254301829
 21
1386.6395399144722
  0
LINE
  8
_0-5_0
  6
CONTINUOUS
 62
   18
 10
2702.9239254301829
 20
1386.6395399144722
 11
2702.9239254301829
 21
1431.639539914474
  0
LINE
  8
_0-5_0
  6
CONTINUOUS
 62
   18
 10
2702.9239254301829
 20
1431.639539914474
 11
2697.9239254301829
 21
1436.6395399144742
  0
LINE
  8
_0-3_04_HIDDEN
  6
CONTINUOUS
 62
    7
 10
2702.9239254301829
 20
1389.6395399144724
 11
1522.9239254302049
 21
1389.6395399144724
  0
LINE
  8
_0-4_05_CENTER
  6
CENTER2
 62
    4
 10
2467.9239104214835
 20
1396.0977250980043
 11
2467.9239104214835
 21
1380.452348703225
  0
LINE
  8
_0-4_05_CENTER
  6
CENTER2
 62
    4
 10
2345.923910421483
 20
1396.0977250980043
 11
2345.923910421483
 21
1380.452348703225
  0
LINE
  8
_0-4_05_CENTER
  6
CENTER2
 62
    4
 10
2307.923910421483
 20
1396.0977250980043
 11
2307.923910421483
 21
1380.452348703225
  0
LINE
  8
_0-4_05_CENTER
  6
CENTER2
 62
    4
 10
2682.9239254301829
 20
1396.0977250980043
 11
2682.9239254301829
 21
1380.452348703225
  0
LINE
  8
_0-4_05_CENTER
  6
CENTER2
 62
    4
 10
1542.9239254302049
 20
1396.0977250980043
 11
1542.9239254302049
 21
1380.452348703225
  0
LINE
  8
_0-4_05_CENTER
  6
CENTER2
 62
    4
 10
1837.9239254252645
 20
1396.0977250980043
 11
1837.9239254252645
 21
1380.452348703225
  0
LINE
  8
_0-4_05_CENTER
  6
CENTER2
 62
    4
 10
1913.9239254207971
 20
1396.0977250980043
 11
1913.9239254207971
 21
1380.452348703225
  0
LINE
  8
_0-4_05_CENTER
  6
CENTER2
 62
    4
 10
1917.9239254207971
 20
1396.0977250980043
 11
1917.9239254207971
 21
1380.452348703225
  0
LINE
  8
_0-4_05_CENTER
  6
CENTER2
 62
    4
 10
1795.9239254207971
 20
1396.0977250980043
 11
1795.9239254207971
 21
1380.452348703225
  0
LINE
  8
_0-4_05_CENTER
  6
CENTER2
 62
    4
 10
1757.9239254207971
 20
1396.0977250980043
 11
1757.9239254207971
 21
1380.452348703225
  0
LINE
  8
_0-4_05_CENTER
  6
CENTER2
 62
    4
 10
2090.9239254302192
 20
1396.0977250980043
 11
2090.9239254302192
 21
1380.452348703225
  0
LINE
  8
_0-3_04_HIDDEN
  6
CONTINUOUS
 62
    7
 10
1808.4239254207971
 20
1389.6395399144724
 11
1808.4239254207971
 21
1386.6395399144722
  0
LINE
  8
_0-3_04_HIDDEN
  6
CONTINUOUS
 62
    7
 10
1783.4239254207969
 20
1389.6395399144724
 11
1783.4239254207969
 21
1386.6395399144722
  0
LINE
  8
_0-3_04_HIDDEN
  6
CONTINUOUS
 62
    7
 10
1926.4239254207969
 20
1389.6395399144724
 11
1926.4239254207969
 21
1386.6395399144722
  0
LINE
  8
_0-3_04_HIDDEN
  6
CONTINUOUS
 62
    7
 10
1901.4239254207969
 20
1389.6395399144724
 11
1901.4239254207969
 21
1386.6395399144722
  0
LINE
  8
_0-3_04_HIDDEN
  6
CONTINUOUS
 62
    7
 10
2358.423910421483
 20
1389.6395399144724
 11
2358.423910421483
 21
1386.6395399144722
  0
LINE
  8
_0-3_04_HIDDEN
  6
CONTINUOUS
 62
    7
 10
2333.4239104214835
 20
1389.6395399144724
 11
2333.4239104214835
 21
1386.6395399144722
  0
LINE
  8
_0-3_04_HIDDEN
  6
CONTINUOUS
 62
    7
 10
2476.4239104214835
 20
1389.6395399144724
 11
2476.4239104214835
 21
1386.6395399144722
  0
LINE
  8
_0-3_04_HIDDEN
  6
CONTINUOUS
 62
    7
 10
2451.4239104214835
 20
1389.6395399144724
 11
2451.4239104214835
 21
1386.6395399144722
  0
LINE
  8
_0-3_04_HIDDEN
  6
CONTINUOUS
 62
    7
 10
1816.9239254240347
 20
1389.6395399144724
 11
1816.9239254240347
 21
1386.6395399144722
  0
LINE
  8
_0-3_04_HIDDEN
  6
CONTINUOUS
 62
    7
 10
1858.9239254240351
 20
1389.6395399144724
 11
1858.9239254240351
 21
1386.6395399144722
  0
LINE
  8
_0-3_04_HIDDEN
  6
CONTINUOUS
 62
    7
 10
2366.9239104247208
 20
1389.6395399144724
 11
2366.9239104247208
 21
1386.6395399144722
  0
LINE
  8
_0-3_04_HIDDEN
  6
CONTINUOUS
 62
    7
 10
2408.9239104247213
 20
1389.6395399144724
 11
2408.9239104247213
 21
1386.6395399144722
  0
LINE
  8
_0-4_05_CENTER
  6
CENTER2
 62
    4
 10
1310.4334285654854
 20
1651.3737723439633
 11
1294.7880521707059
 21
1651.3737723439633
  0
LINE
  8
_0-5_0
  6
CONTINUOUS
 62
   18
 10
1350.9752433819533
 20
1911.3737723439635
 11
1306.9752433819535
 21
1911.3737723439635
  0
LINE
  8
_0-5_0
  6
CONTINUOUS
 62
   18
 10
1300.9752433819535
 20
1905.3737723439635
 11
1300.9752433819535
 21
1617.3737723439635
  0
LINE
  8
_0-5_0
  6
CONTINUOUS
 62
   18
 10
1306.9752433819535
 20
1611.3737723439635
 11
1350.9752433819533
 21
1611.3737723439635
  0
LINE
  8
_0-5_0
  6
CONTINUOUS
 62
   18
 10
1350.9752433819533
 20
1611.3737723439635
 11
1350.9752433819533
 21
1614.3737723439633
  0
LINE
  8
_0-5_0
  6
CONTINUOUS
 62
   18
 10
1350.9752433819533
 20
1614.3737723439633
 11
1306.9752433819535
 21
1614.3737723439633
  0
LINE
  8
_0-5_0
  6
CONTINUOUS
 62
   18
 10
1303.9752433819535
 20
1617.3737723439635
 11
1303.9752433819535
 21
1905.3737723439635
  0
LINE
  8
_0-5_0
  6
CONTINUOUS
 62
   18
 10
1306.9752433819535
 20
1908.3737723439633
 11
1350.9752433819533
 21
1908.3737723439633
  0
LINE
  8
_0-5_0
  6
CONTINUOUS
 62
   18
 10
1350.9752433819533
 20
1908.3737723439633
 11
1350.9752433819533
 21
1911.3737723439635
  0
LINE
  8
_0-4_05_CENTER
  6
CENTER2
 62
    4
 10
1310.4334285654854
 20
1761.3737723439633
 11
1294.7880521707059
 21
1761.3737723439633
  0
LINE
  8
_0-4_05_CENTER
  6
CENTER2
 62
    4
 10
1310.4334285654854
 20
1871.3737723439558
 11
1294.7880521707059
 21
1871.3737723439635
  0
LINE
  8
_0-4_05_CENTER
  6
CENTER2
 62
    4
 10
1310.4334285654854
 20
1636.3737723439635
 11
1294.7880521707059
 21
1636.3737723439635
  0
LINE
  8
_0-4_05_CENTER
  6
CENTER2
 62
    4
 10
1310.4334285654854
 20
1698.3737723439633
 11
1294.7880521707059
 21
1698.3737723439633
  0
LINE
  8
_0-4_05_CENTER
  6
CENTER2
 62
    4
 10
1310.4334285654854
 20
1803.3737723439633
 11
1294.7880521707059
 21
1803.3737723439633
  0
LINE
  8
_0-4_05_CENTER
  6
CENTER2
 62
    4
 10
1310.4334285654854
 20
1886.3737723439635
 11
1294.7880521707059
 21
1886.3737723439635
  0
LINE
  8
_0-3_04_HIDDEN
  6
CONTINUOUS
 62
    7
 10
1303.9752433819535
 20
1815.8737723439558
 11
1300.9752433819535
 21
1815.8737723439635
  0
LINE
  8
_0-3_04_HIDDEN
  6
CONTINUOUS
 62
    7
 10
1303.9752433819535
 20
1790.873772343956
 11
1300.9752433819535
 21
1790.873772343956
  0
LINE
  8
_0-3_04_HIDDEN
  6
CONTINUOUS
 62
    7
 10
1303.9752433819535
 20
1710.8737723439635
 11
1300.9752433819535
 21
1710.8737723439635
  0
LINE
  8
_0-3_04_HIDDEN
  6
CONTINUOUS
 62
    7
 10
1303.9752433819535
 20
1685.8737723439635
 11
1300.9752433819535
 21
1685.8737723439635
  0
ARC
  8
_0-5_0
  6
CONTINUOUS
 62
   18
 10
1306.9752433819535
 20
1905.3737723439635
 40
3
 50
90
 51
180
  0
ARC
  8
_0-5_0
  6
CONTINUOUS
 62
   18
 10
1306.9752433819535
 20
1617.3737723439635
 40
3
 50
180
 51
270
  0
ARC
  8
_0-5_0
  6
CONTINUOUS
 62
   18
 10
1306.9752433819535
 20
1617.3737723439635
 40
6
 50
180
 51
270
  0
ARC
  8
_0-5_0
  6
CONTINUOUS
 62
   18
 10
1306.9752433819535
 20
1905.3737723439635
 40
6
 50
90
 51
180
  0
LINE
  8
_0-3_04_HIDDEN
  6
CONTINUOUS
 62
    7
 10
1303.9752433819535
 20
1782.3737723434033
 11
1300.9752433819535
 21
1782.3737723434033
  0
LINE
  8
_0-3_04_HIDDEN
  6
CONTINUOUS
 62
    7
 10
1303.9752433819535
 20
1740.3737723434031
 11
1300.9752433819535
 21
1740.3737723434031
  0
LINE
  8
_0-3_04_HIDDEN
  6
CONTINUOUS
 62
    7
 10
1204.9815086183155
 20
1032.7357519249904
 11
1213.9815086183155
 21
1032.7357519249904
  0
LINE
  8
_0-3_04_HIDDEN
  6
CONTINUOUS
 62
    7
 10
1204.9815086183155
 20
986.73575192499027
 11
1213.9815086183155
 21
986.73575192499027
  0
LINE
  8
_0-3_04_HIDDEN
  6
CONTINUOUS
 62
    7
 10
1460.4920256228763
 20
741.62834867863739
 11
1460.4920256228763
 21
732.62834867863739
  0
LINE
  8
_0-3_04_HIDDEN
  6
CONTINUOUS
 62
    7
 10
1506.4920256228763
 20
741.62834867863739
 11
1506.4920256228763
 21
732.62834867863739
  0
LINE
  8
_0-3_04_HIDDEN
  6
CONTINUOUS
 62
    7
 10
2017.7026898602317
 20
871.314970126807
 11
2017.7026898602317
 21
869.31497012680688
  0
LINE
  8
_0-3_04_HIDDEN
  6
CONTINUOUS
 62
    7
 10
1975.7026898602317
 20
871.314970126807
 11
1975.7026898602317
 21
869.31497012680688
  0
LINE
  8
_0-3_04_HIDDEN
  6
CONTINUOUS
 62
    7
 10
1825.1535550120734
 20
988.73575192934504
 11
1823.1535550120736
 21
988.73575192934504
  0
LINE
  8
_0-3_04_HIDDEN
  6
CONTINUOUS
 62
    7
 10
1825.1535550120734
 20
1030.735751929345
 11
1823.1535550120736
 21
1030.735751929345
  0
TEXT
  8
_0-6_07_TEXT
 62
    3
 10
2323.4211274353797
 20
1585.7311673131462
 40
9
 41
1
 50
0
  1
指示無き寸法は左図と同じ
  0
INSERT
  2
-002-AM_BALLOON1
  8
_0-2_08_DIM
 10
1212.4886041676109
 20
2030.1026555050821
 41
3.75
 42
3.75
 50
0
  0
TEXT
  8
_0-5_0
 62
    7
 10
1197.2207470247536
 20
2024.4776555050821
 40
11.250000000000002
 41
1
 50
0
  1
121
  0
LINE
  8
_0-2_08_DIM
  6
CONTINUOUS
 62
    3
 10
1934.0841887211448
 20
1009.7357519279699
 11
1914.2395900168106
 21
1009.7357519279699
  0
LINE
  8
_0-2_08_DIM
  6
CONTINUOUS
 62
    3
 10
1945.4866390470272
 20
946.73575193200452
 11
1914.2395900168106
 21
946.73575193200452
  0
LINE
  8
_0-2_08_DIM
  6
CONTINUOUS
 62
    3
 10
1917.9895900168103
 20
1002.2357519279698
 11
1917.9895900168103
 21
954.2357519320044
  0
INSERT
  2
-003-_Open30
  8
_0-2_08_DIM
 10
1917.9895900168103
 20
1009.7357519279699
 41
7.5
 42
7.5
 50
90
  0
INSERT
  2
-003-_Open30
  8
_0-2_08_DIM
 10
1917.9895900168103
 20
946.73575193200452
 41
7.5
 42
7.5
 50
270
  0
LINE
  8
_0-2_08_DIM
  6
CONTINUOUS
 62
    3
 10
1934.0841887211448
 20
1009.7357519279699
 11
1914.2395900168106
 21
1009.7357519279699
  0
LINE
  8
_0-2_08_DIM
  6
CONTINUOUS
 62
    3
 10
1945.4866390470272
 20
1051.7357519320044
 11
1914.2395900168106
 21
1051.7357519320044
  0
LINE
  8
_0-2_08_DIM
  6
CONTINUOUS
 62
    3
 10
1917.9895900168103
 20
1017.2357519279699
 11
1917.9895900168103
 21
1044.2357519320044
  0
INSERT
  2
-003-_Open30
  8
_0-2_08_DIM
 10
1917.9895900168103
 20
1009.7357519279699
 41
7.5
 42
7.5
 50
270
  0
INSERT
  2
-003-_Open30
  8
_0-2_08_DIM
 10
1917.9895900168103
 20
1051.7357519320044
 41
7.5
 42
7.5
 50
90
  0
LINE
  8
_0-2_08_DIM
  6
CONTINUOUS
 62
    3
 10
1996.7026898619006
 20
1071.7723865967123
 11
1996.7026898619006
 21
1097.8232678245545
  0
LINE
  8
_0-2_08_DIM
  6
CONTINUOUS
 62
    3
 10
2072.7026898584299
 20
1060.9518027434074
 11
2072.7026898584299
 21
1097.8232678245545
  0
LINE
  8
_0-2_08_DIM
  6
CONTINUOUS
 62
    3
 10
2004.2026898619006
 20
1094.0732678245545
 11
2065.2026898584299
 21
1094.0732678245545
  0
INSERT
  2
-003-_Open30
  8
_0-2_08_DIM
 10
1996.7026898619006
 20
1094.0732678245545
 41
7.5
 42
7.5
 50
180
  0
INSERT
  2
-003-_Open30
  8
_0-2_08_DIM
 10
2072.7026898584299
 20
1094.0732678245545
 41
7.5
 42
7.5
 50
0
  0
LINE
  8
_0-2_08_DIM
  6
CONTINUOUS
 62
    3
 10
1996.7026898619006
 20
1071.7723865967123
 11
1996.7026898619006
 21
1097.8232678245545
  0
LINE
  8
_0-2_08_DIM
  6
CONTINUOUS
 62
    3
 10
1954.7026898584299
 20
1060.9518027434074
 11
1954.7026898584299
 21
1097.8232678245545
  0
LINE
  8
_0-2_08_DIM
  6
CONTINUOUS
 62
    3
 10
1989.2026898619008
 20
1094.0732678245545
 11
1962.2026898584299
 21
1094.0732678245545
  0
INSERT
  2
-003-_Open30
  8
_0-2_08_DIM
 10
1996.7026898619006
 20
1094.0732678245545
 41
7.5
 42
7.5
 50
0
  0
INSERT
  2
-003-_Open30
  8
_0-2_08_DIM
 10
1954.7026898584299
 20
1094.0732678245545
 41
7.5
 42
7.5
 50
180
  0
LINE
  8
_0-2_08_DIM
  6
CONTINUOUS
 62
    3
 10
1940.8276898584299
 20
869.31497012986586
 11
1916.6773128892019
 21
869.31497012986586
  0
LINE
  8
_0-2_08_DIM
  6
CONTINUOUS
 62
    3
 10
1940.8276898600525
 20
871.31497012986586
 11
1916.6773128892019
 21
871.31497012986586
  0
LINE
  8
_0-2_08_DIM
  6
CONTINUOUS
 62
    3
 10
1920.4273128892021
 20
878.81497012986586
 11
1920.4273128892021
 21
896.06497012986586
  0
LINE
  8
_0-2_08_DIM
  6
CONTINUOUS
 62
    3
 10
1920.4273128892021
 20
869.31497012986586
 11
1920.4273128892021
 21
871.31497012986586
  0
LINE
  8
_0-2_08_DIM
  6
CONTINUOUS
 62
    3
 10
1920.4273128892021
 20
861.81497012986574
 11
1920.4273128892021
 21
854.31497012986574
  0
INSERT
  2
-003-_Open30
  8
_0-2_08_DIM
 10
1920.4273128892021
 20
869.31497012986586
 41
7.5
 42
7.5
 50
90
  0
INSERT
  2
-003-_Open30
  8
_0-2_08_DIM
 10
1920.4273128892021
 20
871.31497012986586
 41
7.5
 42
7.5
 50
270
  0
LINE
  8
_0-2_08_DIM
  6
CONTINUOUS
 62
    3
 10
2495.778593514186
 20
862.48936567058843
 11
2473.2543396555834
 21
862.48936567058843
  0
LINE
  8
_0-2_08_DIM
  6
CONTINUOUS
 62
    3
 10
2495.778593514186
 20
871.48936567058865
 11
2473.2543396555834
 21
871.48936567058865
  0
LINE
  8
_0-2_08_DIM
  6
CONTINUOUS
 62
    3
 10
2477.004339655583
 20
878.98936567058865
 11
2477.004339655583
 21
896.23936567058865
  0
LINE
  8
_0-2_08_DIM
  6
CONTINUOUS
 62
    3
 10
2477.004339655583
 20
862.48936567058843
 11
2477.004339655583
 21
871.48936567058865
  0
LINE
  8
_0-2_08_DIM
  6
CONTINUOUS
 62
    3
 10
2477.004339655583
 20
854.98936567058854
 11
2477.004339655583
 21
847.48936567058865
  0
INSERT
  2
-003-_Open30
  8
_0-2_08_DIM
 10
2477.004339655583
 20
862.48936567058843
 41
7.5
 42
7.5
 50
90
  0
INSERT
  2
-003-_Open30
  8
_0-2_08_DIM
 10
2477.004339655583
 20
871.48936567058865
 41
7.5
 42
7.5
 50
270
  0
LINE
  8
_0-2_08_DIM
  6
CONTINUOUS
 62
    3
 10
1947.8276898584302
 20
1063.7357519320044
 11
1865.4081514569082
 21
1063.7357519320044
  0
LINE
  8
_0-2_08_DIM
  6
CONTINUOUS
 62
    3
 10
1947.8276898584302
 20
934.7357519320044
 11
1865.4081514569082
 21
934.7357519320044
  0
LINE
  8
_0-2_08_DIM
  6
CONTINUOUS
 62
    3
 10
1869.1581514569079
 20
1056.2357519320044
 11
1869.1581514569079
 21
942.2357519320044
  0
INSERT
  2
-003-_Open30
  8
_0-2_08_DIM
 10
1869.1581514569079
 20
1063.7357519320044
 41
7.5
 42
7.5
 50
90
  0
INSERT
  2
-003-_Open30
  8
_0-2_08_DIM
 10
1869.1581514569079
 20
934.7357519320044
 41
7.5
 42
7.5
 50
270
  0
LINE
  8
_0-2_08_DIM
  6
CONTINUOUS
 62
    3
 10
1934.0841887211448
 20
1009.7357519279699
 11
1890.6671470211352
 21
1009.7357519279699
  0
LINE
  8
_0-2_08_DIM
  6
CONTINUOUS
 62
    3
 10
1947.8276898584302
 20
1063.7357519320044
 11
1890.6671470211352
 21
1063.7357519320044
  0
LINE
  8
_0-2_08_DIM
  6
CONTINUOUS
 62
    3
 10
1894.4171470211352
 20
1017.2357519279699
 11
1894.4171470211352
 21
1056.2357519320044
  0
INSERT
  2
-003-_Open30
  8
_0-2_08_DIM
 10
1894.4171470211352
 20
1009.7357519279699
 41
7.5
 42
7.5
 50
270
  0
INSERT
  2
-003-_Open30
  8
_0-2_08_DIM
 10
1894.4171470211352
 20
1063.7357519320044
 41
7.5
 42
7.5
 50
90
  0
LINE
  8
_0-2_08_DIM
  6
CONTINUOUS
 62
    3
 10
2084.7026898584304
 20
1058.6107519320044
 11
2084.7026898584304
 21
1147.2006096188411
  0
LINE
  8
_0-2_08_DIM
  6
CONTINUOUS
 62
    3
 10
1942.7026898584302
 20
1058.6107519320044
 11
1942.7026898584302
 21
1147.2006096188411
  0
LINE
  8
_0-2_08_DIM
  6
CONTINUOUS
 62
    3
 10
2077.2026898584299
 20
1143.4506096188411
 11
1950.2026898584302
 21
1143.4506096188411
  0
INSERT
  2
-003-_Open30
  8
_0-2_08_DIM
 10
2084.7026898584304
 20
1143.4506096188411
 41
7.5
 42
7.5
 50
0
  0
INSERT
  2
-003-_Open30
  8
_0-2_08_DIM
 10
1942.7026898584302
 20
1143.4506096188411
 41
7.5
 42
7.5
 50
180
  0
LINE
  8
_0-2_08_DIM
  6
CONTINUOUS
 62
    3
 10
1996.7026898619006
 20
1071.7723865967123
 11
1996.7026898619006
 21
1121.4580377295429
  0
LINE
  8
_0-2_08_DIM
  6
CONTINUOUS
 62
    3
 10
1942.7026898584302
 20
1058.6107519320044
 11
1942.7026898584302
 21
1121.4580377295429
  0
LINE
  8
_0-2_08_DIM
  6
CONTINUOUS
 62
    3
 10
1989.2026898619008
 20
1117.7080377295429
 11
1950.2026898584302
 21
1117.7080377295429
  0
INSERT
  2
-003-_Open30
  8
_0-2_08_DIM
 10
1996.7026898619006
 20
1117.7080377295429
 41
7.5
 42
7.5
 50
0
  0
INSERT
  2
-003-_Open30
  8
_0-2_08_DIM
 10
1942.7026898584302
 20
1117.7080377295429
 41
7.5
 42
7.5
 50
180
  0
LINE
  8
_0-2_08_DIM
  6
CONTINUOUS
 62
    3
 10
1386.6170256228763
 20
732.62834867863739
 11
1361.4244627829069
 21
732.62834867863739
  0
LINE
  8
_0-2_08_DIM
  6
CONTINUOUS
 62
    3
 10
1386.6170256228763
 20
741.62834867863739
 11
1361.4244627829069
 21
741.62834867863739
  0
LINE
  8
_0-2_08_DIM
  6
CONTINUOUS
 62
    3
 10
1365.1744627829069
 20
749.12834867863728
 11
1365.1744627829069
 21
766.37834867863739
  0
LINE
  8
_0-2_08_DIM
  6
CONTINUOUS
 62
    3
 10
1365.1744627829069
 20
732.62834867863739
 11
1365.1744627829069
 21
741.62834867863739
  0
LINE
  8
_0-2_08_DIM
  6
CONTINUOUS
 62
    3
 10
1365.1744627829069
 20
725.12834867863739
 11
1365.1744627829069
 21
717.62834867863728
  0
INSERT
  2
-003-_Open30
  8
_0-2_08_DIM
 10
1365.1744627829069
 20
732.62834867863739
 41
7.5
 42
7.5
 50
90
  0
INSERT
  2
-003-_Open30
  8
_0-2_08_DIM
 10
1365.1744627829069
 20
741.62834867863739
 41
7.5
 42
7.5
 50
270
  0
LINE
  8
_0-2_08_DIM
  6
CONTINUOUS
 62
    3
 10
1388.4920256126534
 20
897.8607519306729
 11
1388.4920256126534
 21
804.53407487157926
  0
LINE
  8
_0-2_08_DIM
  6
CONTINUOUS
 62
    3
 10
1578.4920256126607
 20
897.8607519306729
 11
1578.4920256126607
 21
804.53407487157926
  0
LINE
  8
_0-2_08_DIM
  6
CONTINUOUS
 62
    3
 10
1395.9920256126534
 20
808.28407487157926
 11
1570.9920256126607
 21
808.28407487157926
  0
INSERT
  2
-003-_Open30
  8
_0-2_08_DIM
 10
1388.4920256126534
 20
808.28407487157926
 41
7.5
 42
7.5
 50
180
  0
INSERT
  2
-003-_Open30
  8
_0-2_08_DIM
 10
1578.4920256126607
 20
808.28407487157926
 41
7.5
 42
7.5
 50
0
  0
LINE
  8
_0-2_08_DIM
  6
CONTINUOUS
 62
    3
 10
1483.4920256159278
 20
874.06396835462874
 11
1483.4920256159278
 21
827.85706357245863
  0
LINE
  8
_0-2_08_DIM
  6
CONTINUOUS
 62
    3
 10
1388.4920256126534
 20
897.8607519306729
 11
1388.4920256126534
 21
827.85706357245863
  0
LINE
  8
_0-2_08_DIM
  6
CONTINUOUS
 62
    3
 10
1475.9920256159276
 20
831.60706357245851
 11
1395.9920256126534
 21
831.60706357245851
  0
INSERT
  2
-003-_Open30
  8
_0-2_08_DIM
 10
1483.4920256159278
 20
831.60706357245851
 41
7.5
 42
7.5
 50
0
  0
INSERT
  2
-003-_Open30
  8
_0-2_08_DIM
 10
1388.4920256126534
 20
831.60706357245851
 41
7.5
 42
7.5
 50
180
  0
LINE
  8
_0-2_08_DIM
  6
CONTINUOUS
 62
    3
 10
1563.4920256171356
 20
888.5197011192555
 11
1563.4920256171356
 21
850.94447008082227
  0
LINE
  8
_0-2_08_DIM
  6
CONTINUOUS
 62
    3
 10
1403.4920256171281
 20
888.5197011192555
 11
1403.4920256171281
 21
850.94447008082227
  0
LINE
  8
_0-2_08_DIM
  6
CONTINUOUS
 62
    3
 10
1555.9920256171356
 20
854.69447008082227
 11
1410.9920256171283
 21
854.69447008082227
  0
INSERT
  2
-003-_Open30
  8
_0-2_08_DIM
 10
1563.4920256171356
 20
854.69447008082227
 41
7.5
 42
7.5
 50
0
  0
INSERT
  2
-003-_Open30
  8
_0-2_08_DIM
 10
1403.4920256171281
 20
854.69447008082227
 41
7.5
 42
7.5
 50
180
  0
LINE
  8
_0-2_08_DIM
  6
CONTINUOUS
 62
    3
 10
1378.5831570981811
 20
1009.7357519280243
 11
1285.3745277284761
 21
1009.7357519280243
  0
LINE
  8
_0-2_08_DIM
  6
CONTINUOUS
 62
    3
 10
1401.6170256126534
 20
1134.735751925376
 11
1285.3745277284761
 21
1134.735751925376
  0
LINE
  8
_0-2_08_DIM
  6
CONTINUOUS
 62
    3
 10
1289.1245277284763
 20
1017.2357519280245
 11
1289.1245277284763
 21
1127.235751925376
  0
INSERT
  2
-003-_Open30
  8
_0-2_08_DIM
 10
1289.1245277284763
 20
1009.7357519280243
 41
7.5
 42
7.5
 50
270
  0
INSERT
  2
-003-_Open30
  8
_0-2_08_DIM
 10
1289.1245277284763
 20
1134.735751925376
 41
7.5
 42
7.5
 50
90
  0
LINE
  8
_0-2_08_DIM
  6
CONTINUOUS
 62
    3
 10
1401.6170256126534
 20
884.73575192537601
 11
1257.2687272843089
 21
884.73575192537601
  0
LINE
  8
_0-2_08_DIM
  6
CONTINUOUS
 62
    3
 10
1401.6170256126534
 20
1134.735751925376
 11
1257.2687272843089
 21
1134.735751925376
  0
LINE
  8
_0-2_08_DIM
  6
CONTINUOUS
 62
    3
 10
1261.0187272843089
 20
892.23575192537612
 11
1261.0187272843089
 21
1127.235751925376
  0
INSERT
  2
-003-_Open30
  8
_0-2_08_DIM
 10
1261.0187272843089
 20
884.73575192537601
 41
7.5
 42
7.5
 50
270
  0
INSERT
  2
-003-_Open30
  8
_0-2_08_DIM
 10
1261.0187272843089
 20
1134.735751925376
 41
7.5
 42
7.5
 50
89.999999999999986
  0
LINE
  8
_0-2_08_DIM
  6
CONTINUOUS
 62
    3
 10
1392.2759748057251
 20
1119.735751925376
 11
1314.6184062824998
 21
1119.735751925376
  0
LINE
  8
_0-2_08_DIM
  6
CONTINUOUS
 62
    3
 10
1392.2759748057251
 20
899.73575192537601
 11
1314.6184062824998
 21
899.73575192537601
  0
LINE
  8
_0-2_08_DIM
  6
CONTINUOUS
 62
    3
 10
1318.3684062824998
 20
1112.235751925376
 11
1318.3684062824998
 21
907.23575192537601
  0
INSERT
  2
-003-_Open30
  8
_0-2_08_DIM
 10
1318.3684062824998
 20
1119.735751925376
 41
7.5
 42
7.5
 50
90
  0
INSERT
  2
-003-_Open30
  8
_0-2_08_DIM
 10
1318.3684062824998
 20
899.73575192537601
 41
7.5
 42
7.5
 50
270
  0
LINE
  8
_0-2_08_DIM
  6
CONTINUOUS
 62
    3
 10
1378.5831570981811
 20
1009.7357519280243
 11
1348.9464527051935
 21
1009.7357519280243
  0
LINE
  8
_0-2_08_DIM
  6
CONTINUOUS
 62
    3
 10
1432.6937219354697
 20
946.73575192537612
 11
1348.9464527051935
 21
946.73575192537612
  0
LINE
  8
_0-2_08_DIM
  6
CONTINUOUS
 62
    3
 10
1352.6964527051932
 20
1002.2357519280245
 11
1352.6964527051932
 21
954.23575192537612
  0
INSERT
  2
-003-_Open30
  8
_0-2_08_DIM
 10
1352.6964527051932
 20
1009.7357519280243
 41
7.5
 42
7.5
 50
90
  0
INSERT
  2
-003-_Open30
  8
_0-2_08_DIM
 10
1352.6964527051932
 20
946.73575192537612
 41
7.5
 42
7.5
 50
270
  0
LINE
  8
_0-2_08_DIM
  6
CONTINUOUS
 62
    3
 10
1378.5831570981811
 20
1009.7357519280243
 11
1348.9464527051935
 21
1009.7357519280243
  0
LINE
  8
_0-2_08_DIM
  6
CONTINUOUS
 62
    3
 10
1432.6937219354697
 20
1051.735751925376
 11
1348.9464527051935
 21
1051.735751925376
  0
LINE
  8
_0-2_08_DIM
  6
CONTINUOUS
 62
    3
 10
1352.6964527051932
 20
1017.2357519280245
 11
1352.6964527051932
 21
1044.235751925376
  0
INSERT
  2
-003-_Open30
  8
_0-2_08_DIM
 10
1352.6964527051932
 20
1009.7357519280243
 41
7.5
 42
7.5
 50
270
  0
INSERT
  2
-003-_Open30
  8
_0-2_08_DIM
 10
1352.6964527051932
 20
1051.735751925376
 41
7.5
 42
7.5
 50
90
  0
LINE
  8
_0-2_08_DIM
  6
CONTINUOUS
 62
    3
 10
1483.4920256159278
 20
1043.8877773029576
 11
1483.4920256159278
 21
1088.6453733683252
  0
LINE
  8
_0-2_08_DIM
  6
CONTINUOUS
 62
    3
 10
1559.4920256126607
 20
1060.5340556025672
 11
1559.4920256126607
 21
1088.6453733683252
  0
LINE
  8
_0-2_08_DIM
  6
CONTINUOUS
 62
    3
 10
1490.9920256159278
 20
1084.8953733683252
 11
1551.9920256126607
 21
1084.8953733683252
  0
INSERT
  2
-003-_Open30
  8
_0-2_08_DIM
 10
1483.4920256159278
 20
1084.8953733683252
 41
7.5
 42
7.5
 50
180
  0
INSERT
  2
-003-_Open30
  8
_0-2_08_DIM
 10
1559.4920256126607
 20
1084.8953733683252
 41
7.5
 42
7.5
 50
0
  0
LINE
  8
_0-2_08_DIM
  6
CONTINUOUS
 62
    3
 10
1483.4920256159278
 20
1043.8877773029576
 11
1483.4920256159278
 21
1088.6453733683252
  0
LINE
  8
_0-2_08_DIM
  6
CONTINUOUS
 62
    3
 10
1441.4920256126609
 20
1060.5340556025672
 11
1441.4920256126609
 21
1088.6453733683252
  0
LINE
  8
_0-2_08_DIM
  6
CONTINUOUS
 62
    3
 10
1475.9920256159276
 20
1084.8953733683252
 11
1448.9920256126607
 21
1084.8953733683252
  0
INSERT
  2
-003-_Open30
  8
_0-2_08_DIM
 10
1483.4920256159278
 20
1084.8953733683252
 41
7.5
 42
7.5
 50
0
  0
INSERT
  2
-003-_Open30
  8
_0-2_08_DIM
 10
1441.4920256126609
 20
1084.8953733683252
 41
7.5
 42
7.5
 50
180
  0
LINE
  8
_0-2_08_DIM
  6
CONTINUOUS
 62
    3
 10
2702.9239254301829
 20
1609.4987723459421
 11
2702.9239254301829
 21
1535.6526856198625
  0
LINE
  8
_0-2_08_DIM
  6
CONTINUOUS
 62
    3
 10
2387.9239104259505
 20
1637.4139735337264
 11
2387.9239104259505
 21
1535.6526856198625
  0
LINE
  8
_0-2_08_DIM
  6
CONTINUOUS
 62
    3
 10
2695.4239254301829
 20
1539.4026856198623
 11
2395.4239104259505
 21
1539.4026856198623
  0
INSERT
  2
-003-_Open30
  8
_0-2_08_DIM
 10
2702.9239254301829
 20
1539.4026856198623
 41
7.5
 42
7.5
 50
0
  0
INSERT
  2
-003-_Open30
  8
_0-2_08_DIM
 10
2387.9239104259505
 20
1539.4026856198623
 41
7.5
 42
7.5
 50
180
  0
LINE
  8
_0-2_08_DIM
  6
CONTINUOUS
 62
    3
 10
1300.9752433828994
 20
1903.2487723459506
 11
1300.9752433828994
 21
1958.070913483099
  0
LINE
  8
_0-2_08_DIM
  6
CONTINUOUS
 62
    3
 10
1350.9752433828994
 20
1913.2487723459506
 11
1350.9752433828994
 21
1958.070913483099
  0
LINE
  8
_0-2_08_DIM
  6
CONTINUOUS
 62
    3
 10
1308.4752433828992
 20
1954.3209134830995
 11
1343.4752433828994
 21
1954.3209134830995
  0
INSERT
  2
-003-_Open30
  8
_0-2_08_DIM
 10
1300.9752433828994
 20
1954.3209134830995
 41
7.5
 42
7.5
 50
180
  0
INSERT
  2
-003-_Open30
  8
_0-2_08_DIM
 10
1350.9752433828994
 20
1954.3209134830995
 41
7.5
 42
7.5
 50
0
  0
LINE
  8
_0-2_08_DIM
  6
CONTINUOUS
 62
    3
 10
1508.8165589071177
 20
1761.3737723459406
 11
1457.2113446397618
 21
1761.3737723459406
  0
LINE
  8
_0-2_08_DIM
  6
CONTINUOUS
 62
    3
 10
1521.0489254302122
 20
1611.3737723459408
 11
1457.2113446397618
 21
1611.3737723459408
  0
LINE
  8
_0-2_08_DIM
  6
CONTINUOUS
 62
    3
 10
1460.9613446397616
 20
1753.8737723459408
 11
1460.9613446397616
 21
1618.8737723459406
  0
INSERT
  2
-003-_Open30
  8
_0-2_08_DIM
 10
1460.9613446397616
 20
1761.3737723459406
 41
7.5
 42
7.5
 50
90
  0
INSERT
  2
-003-_Open30
  8
_0-2_08_DIM
 10
1460.9613446397616
 20
1611.3737723459408
 41
7.5
 42
7.5
 50
270
  0
LINE
  8
_0-2_08_DIM
  6
CONTINUOUS
 62
    3
 10
2090.9239254302192
 20
1897.589823157371
 11
2090.9239254302192
 21
1958.0709134830904
  0
LINE
  8
_0-2_08_DIM
  6
CONTINUOUS
 62
    3
 10
2682.9239254301651
 20
1897.5898231573569
 11
2682.9239254301651
 21
1958.0709134830904
  0
LINE
  8
_0-2_08_DIM
  6
CONTINUOUS
 62
    3
 10
2098.4239254302192
 20
1954.3209134830902
 11
2675.4239254301651
 21
1954.3209134830902
  0
INSERT
  2
-003-_Open30
  8
_0-2_08_DIM
 10
2090.9239254302192
 20
1954.3209134830902
 41
7.5
 42
7.5
 50
180
  0
INSERT
  2
-003-_Open30
  8
_0-2_08_DIM
 10
2682.9239254301651
 20
1954.3209134830902
 41
7.5
 42
7.5
 50
0
  0
LINE
  8
_0-2_08_DIM
  6
CONTINUOUS
 62
    3
 10
1542.9239254302195
 20
1897.5898231573569
 11
1542.9239254302195
 21
1958.0709134830904
  0
LINE
  8
_0-2_08_DIM
  6
CONTINUOUS
 62
    3
 10
2090.9239254302192
 20
1897.589823157371
 11
2090.9239254302192
 21
1958.0709134830904
  0
LINE
  8
_0-2_08_DIM
  6
CONTINUOUS
 62
    3
 10
1550.4239254302192
 20
1954.3209134830902
 11
2083.4239254302197
 21
1954.3209134830902
  0
INSERT
  2
-003-_Open30
  8
_0-2_08_DIM
 10
1542.9239254302195
 20
1954.3209134830902
 41
7.5
 42
7.5
 50
180
  0
INSERT
  2
-003-_Open30
  8
_0-2_08_DIM
 10
2090.9239254302192
 20
1954.3209134830902
 41
7.5
 42
7.5
 50
0
  0
LINE
  8
_0-2_08_DIM
  6
CONTINUOUS
 62
    3
 10
1522.9239254302122
 20
1609.4987723459406
 11
1522.9239254302122
 21
1499.2855155199222
  0
LINE
  8
_0-2_08_DIM
  6
CONTINUOUS
 62
    3
 10
2702.9239254301829
 20
1609.4987723459421
 11
2702.9239254301829
 21
1499.2855155199222
  0
LINE
  8
_0-2_08_DIM
  6
CONTINUOUS
 62
    3
 10
1530.4239254302122
 20
1503.0355155199222
 11
2695.4239254301829
 21
1503.035515519922
  0
INSERT
  2
-003-_Open30
  8
_0-2_08_DIM
 10
1522.9239254302122
 20
1503.0355155199222
 41
7.5
 42
7.5
 50
180
  0
INSERT
  2
-003-_Open30
  8
_0-2_08_DIM
 10
2702.9239254301829
 20
1503.035515519922
 41
7.5
 42
7.5
 50
0
  0
LINE
  8
_0-2_08_DIM
  6
CONTINUOUS
 62
    3
 10
1521.0489254302192
 20
1611.3737723459412
 11
1424.8809404222322
 21
1611.3737723459412
  0
LINE
  8
_0-2_08_DIM
  6
CONTINUOUS
 62
    3
 10
1521.0489254302192
 20
1911.3737723459417
 11
1424.8809404222322
 21
1911.3737723459417
  0
LINE
  8
_0-2_08_DIM
  6
CONTINUOUS
 62
    3
 10
1428.6309404222322
 20
1618.8737723459415
 11
1428.6309404222322
 21
1903.8737723459417
  0
INSERT
  2
-003-_Open30
  8
_0-2_08_DIM
 10
1428.6309404222322
 20
1611.3737723459412
 41
7.5
 42
7.5
 50
270
  0
INSERT
  2
-003-_Open30
  8
_0-2_08_DIM
 10
1428.6309404222322
 20
1911.3737723459417
 41
7.5
 42
7.5
 50
90
  0
LINE
  8
_0-2_08_DIM
  6
CONTINUOUS
 62
    3
 10
1531.7078746188311
 20
1636.3737723459415
 11
1489.5417372355914
 21
1636.3737723459415
  0
LINE
  8
_0-2_08_DIM
  6
CONTINUOUS
 62
    3
 10
1531.7078746188311
 20
1886.3737723459417
 11
1489.5417372355914
 21
1886.3737723459417
  0
LINE
  8
_0-2_08_DIM
  6
CONTINUOUS
 62
    3
 10
1493.2917372355914
 20
1643.8737723459415
 11
1493.2917372355914
 21
1878.8737723459417
  0
INSERT
  2
-003-_Open30
  8
_0-2_08_DIM
 10
1493.2917372355914
 20
1636.3737723459415
 41
7.5
 42
7.5
 50
270
  0
INSERT
  2
-003-_Open30
  8
_0-2_08_DIM
 10
1493.2917372355914
 20
1886.3737723459417
 41
7.5
 42
7.5
 50
90
  0
LINE
  8
_0-2_08_DIM
  6
CONTINUOUS
 62
    3
 10
1837.9239254252645
 20
1637.4139735337292
 11
1837.9239254252645
 21
1535.6526856198652
  0
LINE
  8
_0-2_08_DIM
  6
CONTINUOUS
 62
    3
 10
1522.9239254302122
 20
1609.4987723459406
 11
1522.9239254302122
 21
1535.6526856198652
  0
LINE
  8
_0-2_08_DIM
  6
CONTINUOUS
 62
    3
 10
1830.4239254252643
 20
1539.402685619865
 11
1530.4239254302122
 21
1539.402685619865
  0
INSERT
  2
-003-_Open30
  8
_0-2_08_DIM
 10
1837.9239254252645
 20
1539.402685619865
 41
7.5
 42
7.5
 50
0
  0
INSERT
  2
-003-_Open30
  8
_0-2_08_DIM
 10
1522.9239254302122
 20
1539.402685619865
 41
7.5
 42
7.5
 50
180
  0
LINE
  8
_0-2_08_DIM
  6
CONTINUOUS
 62
    3
 10
1837.9239254252645
 20
1637.4139735337292
 11
1837.9239254252645
 21
1535.6526856198652
  0
LINE
  8
_0-2_08_DIM
  6
CONTINUOUS
 62
    3
 10
2387.9239104259505
 20
1637.4139735337264
 11
2387.9239104259505
 21
1535.6526856198652
  0
LINE
  8
_0-2_08_DIM
  6
CONTINUOUS
 62
    3
 10
1845.4239254252645
 20
1539.4026856198652
 11
2380.4239104259505
 21
1539.402685619865
  0
INSERT
  2
-003-_Open30
  8
_0-2_08_DIM
 10
1837.9239254252645
 20
1539.4026856198652
 41
7.5
 42
7.5
 50
180
  0
INSERT
  2
-003-_Open30
  8
_0-2_08_DIM
 10
2387.9239104259505
 20
1539.402685619865
 41
7.5
 42
7.5
 50
0
  0
LINE
  8
_0-2_08_DIM
  6
CONTINUOUS
 62
    3
 10
1837.92392542525
 20
1662.5898231573328
 11
1837.92392542525
 21
1669.6525984817215
  0
LINE
  8
_0-2_08_DIM
  6
CONTINUOUS
 62
    3
 10
1913.9239254243041
 20
1678.0960143032087
 11
1913.9239254243041
 21
1662.1525984817213
  0
LINE
  8
_0-2_08_DIM
  6
CONTINUOUS
 62
    3
 10
1845.42392542525
 20
1665.9025984817217
 11
1906.4239254243039
 21
1665.9025984817217
  0
INSERT
  2
-003-_Open30
  8
_0-2_08_DIM
 10
1837.92392542525
 20
1665.9025984817217
 41
7.5
 42
7.5
 50
180
  0
INSERT
  2
-003-_Open30
  8
_0-2_08_DIM
 10
1913.9239254243041
 20
1665.9025984817217
 41
7.5
 42
7.5
 50
0
  0
LINE
  8
_0-2_08_DIM
  6
CONTINUOUS
 62
    3
 10
1837.92392542525
 20
1662.5898231573328
 11
1837.92392542525
 21
1669.6525984817215
  0
LINE
  8
_0-2_08_DIM
  6
CONTINUOUS
 62
    3
 10
1795.9239254207971
 20
1678.0960143032087
 11
1795.9239254207971
 21
1662.1525984817213
  0
LINE
  8
_0-2_08_DIM
  6
CONTINUOUS
 62
    3
 10
1830.4239254252498
 20
1665.9025984817217
 11
1803.4239254207971
 21
1665.9025984817217
  0
INSERT
  2
-003-_Open30
  8
_0-2_08_DIM
 10
1837.92392542525
 20
1665.9025984817217
 41
7.5
 42
7.5
 50
0
  0
INSERT
  2
-003-_Open30
  8
_0-2_08_DIM
 10
1795.9239254207971
 20
1665.9025984817217
 41
7.5
 42
7.5
 50
180
  0
LINE
  8
_0-2_08_DIM
  6
CONTINUOUS
 62
    3
 10
1917.9239254207826
 20
1640.1577215305842
 11
1917.9239254207826
 21
1570.29156396743
  0
LINE
  8
_0-2_08_DIM
  6
CONTINUOUS
 62
    3
 10
1757.9239254207826
 20
1640.1577215305842
 11
1757.9239254207826
 21
1570.29156396743
  0
LINE
  8
_0-2_08_DIM
  6
CONTINUOUS
 62
    3
 10
1910.4239254207826
 20
1574.04156396743
 11
1765.4239254207826
 21
1574.04156396743
  0
INSERT
  2
-003-_Open30
  8
_0-2_08_DIM
 10
1917.9239254207826
 20
1574.04156396743
 41
7.5
 42
7.5
 50
0
  0
INSERT
  2
-003-_Open30
  8
_0-2_08_DIM
 10
1757.9239254207826
 20
1574.04156396743
 41
7.5
 42
7.5
 50
180
  0
LINE
  8
_0-2_08_DIM
  6
CONTINUOUS
 62
    3
 10
1542.9239254302195
 20
1897.5898231573569
 11
1542.9239254302195
 21
1958.0709134830904
  0
LINE
  8
_0-2_08_DIM
  6
CONTINUOUS
 62
    3
 10
1522.9239254302122
 20
1913.2487723459408
 11
1522.9239254302122
 21
1958.0709134830904
  0
LINE
  8
_0-2_08_DIM
  6
CONTINUOUS
 62
    3
 10
1535.4239254302195
 20
1954.3209134830902
 11
1530.4239254302122
 21
1954.3209134830902
  0
INSERT
  2
-003-_Open30
  8
_0-2_08_DIM
 10
1542.9239254302195
 20
1954.3209134830902
 41
7.5
 42
7.5
 50
0
  0
INSERT
  2
-003-_Open30
  8
_0-2_08_DIM
 10
1522.9239254302122
 20
1954.3209134830902
 41
7.5
 42
7.5
 50
180
  0
LINE
  8
_0-2_08_DIM
  6
CONTINUOUS
 62
    3
 10
2682.9239254301651
 20
1897.5898231573569
 11
2682.9239254301651
 21
1958.0709134830904
  0
LINE
  8
_0-2_08_DIM
  6
CONTINUOUS
 62
    3
 10
2702.9239254301724
 20
1913.2487723459396
 11
2702.9239254301724
 21
1958.0709134830904
  0
LINE
  8
_0-2_08_DIM
  6
CONTINUOUS
 62
    3
 10
2702.9239254301724
 20
1954.3209134830902
 11
2738.9239254301724
 21
1954.3209134830902
  0
LINE
  8
_0-2_08_DIM
  6
CONTINUOUS
 62
    3
 10
2690.4239254301651
 20
1954.3209134830902
 11
2695.4239254301724
 21
1954.3209134830902
  0
INSERT
  2
-003-_Open30
  8
_0-2_08_DIM
 10
2682.9239254301651
 20
1954.3209134830902
 41
7.5
 42
7.5
 50
180
  0
INSERT
  2
-003-_Open30
  8
_0-2_08_DIM
 10
2702.9239254301724
 20
1954.3209134830902
 41
7.5
 42
7.5
 50
0
  0
LINE
  8
_0-2_08_DIM
  6
CONTINUOUS
 62
    3
 10
1300.9752433828994
 20
1619.4987723419742
 11
1300.9752433828994
 21
1564.6766312048258
  0
LINE
  8
_0-2_08_DIM
  6
CONTINUOUS
 62
    3
 10
1350.9752433828994
 20
1609.4987723419742
 11
1350.9752433828994
 21
1564.6766312048258
  0
LINE
  8
_0-2_08_DIM
  6
CONTINUOUS
 62
    3
 10
1308.4752433828992
 20
1568.4266312048255
 11
1343.4752433828994
 21
1568.4266312048255
  0
INSERT
  2
-003-_Open30
  8
_0-2_08_DIM
 10
1300.9752433828994
 20
1568.4266312048255
 41
7.5
 42
7.5
 50
180
  0
INSERT
  2
-003-_Open30
  8
_0-2_08_DIM
 10
1350.9752433828994
 20
1568.4266312048255
 41
7.5
 42
7.5
 50
0
  0
LINE
  8
_0-2_08_DIM
  6
CONTINUOUS
 62
    3
 10
1352.8502433828994
 20
1611.3737723419745
 11
1378.2944381203374
 21
1611.3737723419745
  0
LINE
  8
_0-2_08_DIM
  6
CONTINUOUS
 62
    3
 10
1352.8502433819535
 20
1614.3737723439633
 11
1378.2944381203374
 21
1614.3737723439633
  0
LINE
  8
_0-2_08_DIM
  6
CONTINUOUS
 62
    3
 10
1374.5444381203372
 20
1621.8737723439633
 11
1374.5444381203372
 21
1639.1237723439635
  0
LINE
  8
_0-2_08_DIM
  6
CONTINUOUS
 62
    3
 10
1374.5444381203372
 20
1611.3737723419745
 11
1374.5444381203372
 21
1614.3737723439633
  0
LINE
  8
_0-2_08_DIM
  6
CONTINUOUS
 62
    3
 10
1374.5444381203372
 20
1603.8737723419745
 11
1374.5444381203372
 21
1596.3737723419745
  0
INSERT
  2
-003-_Open30
  8
_0-2_08_DIM
 10
1374.5444381203372
 20
1611.3737723419745
 41
7.5
 42
7.5
 50
90
  0
INSERT
  2
-003-_Open30
  8
_0-2_08_DIM
 10
1374.5444381203372
 20
1614.3737723439633
 41
7.5
 42
7.5
 50
270
  0
LINE
  8
_0-2_08_DIM
  6
CONTINUOUS
 62
    3
 10
1929.1399762321928
 20
1871.3737723459444
 11
1997.0091886580815
 21
1871.3737723459444
  0
LINE
  8
_0-2_08_DIM
  6
CONTINUOUS
 62
    3
 10
1929.1399762321928
 20
1651.3737723459444
 11
1997.0091886580815
 21
1651.3737723459444
  0
LINE
  8
_0-2_08_DIM
  6
CONTINUOUS
 62
    3
 10
1993.2591886580815
 20
1863.8737723459444
 11
1993.2591886580815
 21
1658.873772345944
  0
INSERT
  2
-003-_Open30
  8
_0-2_08_DIM
 10
1993.2591886580815
 20
1871.3737723459444
 41
7.5
 42
7.5
 50
90
  0
INSERT
  2
-003-_Open30
  8
_0-2_08_DIM
 10
1993.2591886580815
 20
1651.3737723459444
 41
7.5
 42
7.5
 50
270
  0
LINE
  8
_0-2_08_DIM
  6
CONTINUOUS
 62
    3
 10
1960.7921445321338
 20
1761.373772343959
 11
1966.6810120390312
 21
1761.373772343959
  0
LINE
  8
_0-2_08_DIM
  6
CONTINUOUS
 62
    3
 10
1934.2016834652352
 20
1698.3737723441982
 11
1966.6810120390312
 21
1698.3737723441982
  0
LINE
  8
_0-2_08_DIM
  6
CONTINUOUS
 62
    3
 10
1962.9310120390312
 20
1753.8737723439588
 11
1962.9310120390312
 21
1705.8737723441982
  0
INSERT
  2
-003-_Open30
  8
_0-2_08_DIM
 10
1962.9310120390312
 20
1761.373772343959
 41
7.5
 42
7.5
 50
90
  0
INSERT
  2
-003-_Open30
  8
_0-2_08_DIM
 10
1962.9310120390312
 20
1698.3737723441982
 41
7.5
 42
7.5
 50
270
  0
LINE
  8
_0-2_08_DIM
  6
CONTINUOUS
 62
    3
 10
1960.7921445321338
 20
1761.373772343959
 11
1966.6810120390312
 21
1761.373772343959
  0
LINE
  8
_0-2_08_DIM
  6
CONTINUOUS
 62
    3
 10
1934.2016834652352
 20
1803.3737723459296
 11
1966.6810120390312
 21
1803.3737723459296
  0
LINE
  8
_0-2_08_DIM
  6
CONTINUOUS
 62
    3
 10
1962.9310120390312
 20
1768.873772343959
 11
1962.9310120390312
 21
1795.8737723459296
  0
INSERT
  2
-003-_Open30
  8
_0-2_08_DIM
 10
1962.9310120390312
 20
1761.373772343959
 41
7.5
 42
7.5
 50
270
  0
INSERT
  2
-003-_Open30
  8
_0-2_08_DIM
 10
1962.9310120390312
 20
1803.3737723459296
 41
7.5
 42
7.5
 50
90
  0
LINE
  8
_0-2_08_DIM
  6
CONTINUOUS
 62
    3
 10
2705.727226289082
 20
1439.4428407733731
 11
2738.609338953625
 21
1472.3249534379154
  0
INSERT
  2
-003-_Open30
  8
_0-2_08_DIM
 10
2700.4239254301833
 20
1434.1395399144742
 41
7.5
 42
7.5
 50
224.99999999999997
  0
LINE
  8
_0-2_08_DIM
  6
CONTINUOUS
 62
    3
 10
1434.3489978472278
 20
1564.2436226831094
 11
1492.2052478472256
 21
1564.2436226831094
  0
LINE
  8
_0-2_08_DIM
  6
CONTINUOUS
 62
    3
 10
1492.2052478472256
 20
1564.2436226831094
 11
1535.1588173601879
 21
1625.330534747269
  0
INSERT
  2
-003-_Open30
  8
_0-2_08_DIM
 10
1539.4727662879832
 20
1631.4656667465313
 41
7.4999999999999991
 42
7.4999999999999991
 50
54.886837442693718
  0
LINE
  8
_0-2_08_DIM
  6
CONTINUOUS
 62
    3
 10
2023.6107735525932
 20
1579.1581800852173
 11
1959.785773552594
 21
1579.1581800852173
  0
LINE
  8
_0-2_08_DIM
  6
CONTINUOUS
 62
    3
 10
1959.785773552594
 20
1579.1581800852173
 11
1924.6943123226743
 21
1639.6942235019735
  0
INSERT
  2
-003-_Open30
  8
_0-2_08_DIM
 10
1920.9329862660677
 20
1646.1828617486237
 41
7.4999999999999991
 42
7.4999999999999991
 50
120.09996051068131
  0
INSERT
  2
-002-AM_BALLOON1
  8
_0-2_08_DIM
 10
1132.9542641065325
 20
1221.9365702951527
 41
3.75
 42
3.75
 50
0
  0
TEXT
  8
_0-5_0
 62
    7
 10
1116.0792641065327
 20
1216.3115702951529
 40
11.250000000000002
 41
1
 50
0
  1
122
  0
LINE
  8
_0-2_08_DIM
  6
CONTINUOUS
 62
    3
 10
1460.4920256228763
 20
743.50334867863739
 11
1460.4920256228763
 21
779.05173351498115
  0
LINE
  8
_0-2_08_DIM
  6
CONTINUOUS
 62
    3
 10
1506.4920256228763
 20
743.50334867863739
 11
1506.4920256228763
 21
779.05173351498115
  0
LINE
  8
_0-2_08_DIM
  6
CONTINUOUS
 62
    3
 10
1506.4920256228763
 20
775.30173351498115
 11
1586.9545256228764
 21
775.30173351498115
  0
LINE
  8
_0-2_08_DIM
  6
CONTINUOUS
 62
    3
 10
1467.9920256228761
 20
775.30173351498115
 11
1498.9920256228761
 21
775.30173351498115
  0
INSERT
  2
-003-_Open30
  8
_0-2_08_DIM
 10
1460.4920256228763
 20
775.30173351498115
 41
7.5
 42
7.5
 50
180
  0
INSERT
  2
-003-_Open30
  8
_0-2_08_DIM
 10
1506.4920256228763
 20
775.30173351498115
 41
7.5
 42
7.5
 50
0
  0
LINE
  8
_0-2_08_DIM
  6
CONTINUOUS
 62
    3
 10
1307.7681457154983
 20
843.51457613178388
 11
1365.6243957154984
 21
843.51457613178388
  0
LINE
  8
_0-2_08_DIM
  6
CONTINUOUS
 62
    3
 10
1365.6243957154984
 20
843.51457613178388
 11
1395.9503191376707
 21
888.53875842811465
  0
INSERT
  2
-003-_Open30
  8
_0-2_08_DIM
 10
1400.1401560707027
 20
894.7593103710376
 41
7.5
 42
7.5
 50
56.037863053797558
  0
LINE
  8
_0-2_08_DIM
  6
CONTINUOUS
 62
    3
 10
1325.5526143500335
 20
1077.9106149596269
 11
1377.3796976833721
 21
1077.9106149596269
  0
LINE
  8
_0-2_08_DIM
  6
CONTINUOUS
 62
    3
 10
1377.3796976833721
 20
1077.9106149596269
 11
1430.3822520141612
 21
1056.2714911827534
  0
INSERT
  2
-003-_Open30
  8
_0-2_08_DIM
 10
1437.3258605143239
 20
1053.436654151024
 41
7.4999999999999991
 42
7.4999999999999991
 50
337.79149179560017
  0
LINE
  8
_0-2_08_DIM
  6
CONTINUOUS
 62
    3
 10
1326.7998585422401
 20
1151.7619996734395
 11
1367.6748585422404
 21
1151.7619996734395
  0
LINE
  8
_0-2_08_DIM
  6
CONTINUOUS
 62
    3
 10
1367.6748585422404
 20
1151.7619996734395
 11
1386.7192820146488
 21
1134.7332541239289
  0
INSERT
  2
-003-_Open30
  8
_0-2_08_DIM
 10
1392.3101965473172
 20
1129.7340867244111
 41
7.5
 42
7.5
 50
318.19821817517362
  0
LINE
  8
_0-2_08_DIM
  6
CONTINUOUS
 62
    3
 10
1873.3014955159852
 20
1091.1482994239766
 11
1925.128578849319
 21
1091.1482994239766
  0
LINE
  8
_0-2_08_DIM
  6
CONTINUOUS
 62
    3
 10
1925.128578849319
 20
1091.1482994239766
 11
1947.50039883817
 21
1061.3340332395721
  0
INSERT
  2
-003-_Open30
  8
_0-2_08_DIM
 10
1952.0018307258326
 20
1055.3351074223331
 41
7.5
 42
7.5
 50
306.88357238984401
  0
LINE
  8
_0-2_08_DIM
  6
CONTINUOUS
 62
    3
 10
1885.9656368168562
 20
913.3708797458645
 11
1920.8406368168562
 21
913.3708797458645
  0
LINE
  8
_0-2_08_DIM
  6
CONTINUOUS
 62
    3
 10
1920.8406368168562
 20
913.3708797458645
 11
1939.3609545287595
 21
931.57216445655877
  0
INSERT
  2
-003-_Open30
  8
_0-2_08_DIM
 10
1944.7101279751412
 20
936.82919246109964
 41
7.5
 42
7.5
 50
44.502233470001912
  0
INSERT
  2
-002-AM_BALLOON1
  8
_0-2_08_DIM
 10
1725.4630494554583
 20
1178.4647451188166
 41
3.75
 42
3.75
 50
0
  0
TEXT
  8
_0-5_0
 62
    7
 10
1708.5880494554585
 20
1172.8397451188166
 40
11.250000000000002
 41
1
 50
0
  1
123
  0
LINE
  8
_0-2_08_DIM
  6
CONTINUOUS
 62
    3
 10
2489.0350923735418
 20
1009.7357519279699
 11
2469.1904936692076
 21
1009.7357519279699
  0
LINE
  8
_0-2_08_DIM
  6
CONTINUOUS
 62
    3
 10
2500.4375426994243
 20
946.73575193200452
 11
2469.1904936692076
 21
946.73575193200452
  0
LINE
  8
_0-2_08_DIM
  6
CONTINUOUS
 62
    3
 10
2472.9404936692081
 20
1002.2357519279698
 11
2472.9404936692081
 21
954.2357519320044
  0
INSERT
  2
-003-_Open30
  8
_0-2_08_DIM
 10
2472.9404936692081
 20
1009.7357519279699
 41
7.5
 42
7.5
 50
90
  0
INSERT
  2
-003-_Open30
  8
_0-2_08_DIM
 10
2472.9404936692081
 20
946.73575193200452
 41
7.5
 42
7.5
 50
270
  0
LINE
  8
_0-2_08_DIM
  6
CONTINUOUS
 62
    3
 10
2489.0350923735418
 20
1009.7357519279699
 11
2469.1904936692076
 21
1009.7357519279699
  0
LINE
  8
_0-2_08_DIM
  6
CONTINUOUS
 62
    3
 10
2500.4375426994243
 20
1051.7357519320044
 11
2469.1904936692076
 21
1051.7357519320044
  0
LINE
  8
_0-2_08_DIM
  6
CONTINUOUS
 62
    3
 10
2472.9404936692081
 20
1017.2357519279699
 11
2472.9404936692081
 21
1044.2357519320044
  0
INSERT
  2
-003-_Open30
  8
_0-2_08_DIM
 10
2472.9404936692081
 20
1009.7357519279699
 41
7.5
 42
7.5
 50
270
  0
INSERT
  2
-003-_Open30
  8
_0-2_08_DIM
 10
2472.9404936692081
 20
1051.7357519320044
 41
7.5
 42
7.5
 50
90
  0
LINE
  8
_0-2_08_DIM
  6
CONTINUOUS
 62
    3
 10
2551.6535935142979
 20
1071.7723865967123
 11
2551.6535935142979
 21
1097.8232678245545
  0
LINE
  8
_0-2_08_DIM
  6
CONTINUOUS
 62
    3
 10
2627.6535935108272
 20
1060.9518027434074
 11
2627.6535935108272
 21
1097.8232678245545
  0
LINE
  8
_0-2_08_DIM
  6
CONTINUOUS
 62
    3
 10
2559.1535935142983
 20
1094.0732678245545
 11
2620.1535935108277
 21
1094.0732678245545
  0
INSERT
  2
-003-_Open30
  8
_0-2_08_DIM
 10
2551.6535935142979
 20
1094.0732678245545
 41
7.5
 42
7.5
 50
180
  0
INSERT
  2
-003-_Open30
  8
_0-2_08_DIM
 10
2627.6535935108272
 20
1094.0732678245545
 41
7.5
 42
7.5
 50
0
  0
LINE
  8
_0-2_08_DIM
  6
CONTINUOUS
 62
    3
 10
2551.6535935142979
 20
1071.7723865967123
 11
2551.6535935142979
 21
1097.8232678245545
  0
LINE
  8
_0-2_08_DIM
  6
CONTINUOUS
 62
    3
 10
2509.6535935108272
 20
1060.9518027434074
 11
2509.6535935108272
 21
1097.8232678245545
  0
LINE
  8
_0-2_08_DIM
  6
CONTINUOUS
 62
    3
 10
2544.1535935142983
 20
1094.0732678245545
 11
2517.1535935108277
 21
1094.0732678245545
  0
INSERT
  2
-003-_Open30
  8
_0-2_08_DIM
 10
2551.6535935142979
 20
1094.0732678245545
 41
7.5
 42
7.5
 50
0
  0
INSERT
  2
-003-_Open30
  8
_0-2_08_DIM
 10
2509.6535935108272
 20
1094.0732678245545
 41
7.5
 42
7.5
 50
180
  0
LINE
  8
_0-2_08_DIM
  6
CONTINUOUS
 62
    3
 10
2502.7785935108272
 20
1063.7357519320044
 11
2420.3590551093052
 21
1063.7357519320044
  0
LINE
  8
_0-2_08_DIM
  6
CONTINUOUS
 62
    3
 10
2502.7785935108272
 20
934.7357519320044
 11
2420.3590551093052
 21
934.7357519320044
  0
LINE
  8
_0-2_08_DIM
  6
CONTINUOUS
 62
    3
 10
2424.1090551093052
 20
1056.2357519320044
 11
2424.1090551093052
 21
942.2357519320044
  0
INSERT
  2
-003-_Open30
  8
_0-2_08_DIM
 10
2424.1090551093052
 20
1063.7357519320044
 41
7.5
 42
7.5
 50
90
  0
INSERT
  2
-003-_Open30
  8
_0-2_08_DIM
 10
2424.1090551093052
 20
934.7357519320044
 41
7.5
 42
7.5
 50
270
  0
LINE
  8
_0-2_08_DIM
  6
CONTINUOUS
 62
    3
 10
2489.0350923735418
 20
1009.7357519279699
 11
2445.6180506735323
 21
1009.7357519279699
  0
LINE
  8
_0-2_08_DIM
  6
CONTINUOUS
 62
    3
 10
2502.7785935108272
 20
1063.7357519320044
 11
2445.6180506735323
 21
1063.7357519320044
  0
LINE
  8
_0-2_08_DIM
  6
CONTINUOUS
 62
    3
 10
2449.3680506735327
 20
1017.2357519279699
 11
2449.3680506735327
 21
1056.2357519320044
  0
INSERT
  2
-003-_Open30
  8
_0-2_08_DIM
 10
2449.3680506735327
 20
1009.7357519279699
 41
7.5
 42
7.5
 50
270
  0
INSERT
  2
-003-_Open30
  8
_0-2_08_DIM
 10
2449.3680506735327
 20
1063.7357519320044
 41
7.5
 42
7.5
 50
90
  0
LINE
  8
_0-2_08_DIM
  6
CONTINUOUS
 62
    3
 10
2639.6535935108272
 20
1058.6107519320044
 11
2639.6535935108272
 21
1147.2006096188411
  0
LINE
  8
_0-2_08_DIM
  6
CONTINUOUS
 62
    3
 10
2497.6535935108272
 20
1058.6107519320044
 11
2497.6535935108272
 21
1147.2006096188411
  0
LINE
  8
_0-2_08_DIM
  6
CONTINUOUS
 62
    3
 10
2632.1535935108277
 20
1143.4506096188411
 11
2505.1535935108272
 21
1143.4506096188411
  0
INSERT
  2
-003-_Open30
  8
_0-2_08_DIM
 10
2639.6535935108272
 20
1143.4506096188411
 41
7.5
 42
7.5
 50
0
  0
INSERT
  2
-003-_Open30
  8
_0-2_08_DIM
 10
2497.6535935108272
 20
1143.4506096188411
 41
7.5
 42
7.5
 50
180
  0
LINE
  8
_0-2_08_DIM
  6
CONTINUOUS
 62
    3
 10
2551.6535935142979
 20
1071.7723865967123
 11
2551.6535935142979
 21
1121.4580377295429
  0
LINE
  8
_0-2_08_DIM
  6
CONTINUOUS
 62
    3
 10
2497.6535935108272
 20
1058.6107519320044
 11
2497.6535935108272
 21
1121.4580377295429
  0
LINE
  8
_0-2_08_DIM
  6
CONTINUOUS
 62
    3
 10
2544.1535935142983
 20
1117.7080377295429
 11
2505.1535935108272
 21
1117.7080377295429
  0
INSERT
  2
-003-_Open30
  8
_0-2_08_DIM
 10
2551.6535935142979
 20
1117.7080377295429
 41
7.5
 42
7.5
 50
0
  0
INSERT
  2
-003-_Open30
  8
_0-2_08_DIM
 10
2497.6535935108272
 20
1117.7080377295429
 41
7.5
 42
7.5
 50
180
  0
LINE
  8
_0-2_08_DIM
  6
CONTINUOUS
 62
    3
 10
2428.252399168382
 20
1091.1482994239766
 11
2480.0794825017151
 21
1091.1482994239766
  0
LINE
  8
_0-2_08_DIM
  6
CONTINUOUS
 62
    3
 10
2480.0794825017151
 20
1091.1482994239766
 11
2502.4513024905673
 21
1061.3340332395719
  0
INSERT
  2
-003-_Open30
  8
_0-2_08_DIM
 10
2506.9527343782302
 20
1055.3351074223331
 41
7.5000000000000009
 42
7.5000000000000009
 50
306.88357238984491
  0
LINE
  8
_0-2_08_DIM
  6
CONTINUOUS
 62
    3
 10
2440.9165404692535
 20
913.37087974586461
 11
2475.7915404692544
 21
913.37087974586461
  0
LINE
  8
_0-2_08_DIM
  6
CONTINUOUS
 62
    3
 10
2475.7915404692544
 20
913.37087974586461
 11
2494.3118581811573
 21
931.57216445655877
  0
INSERT
  2
-003-_Open30
  8
_0-2_08_DIM
 10
2499.6610316275383
 20
936.82919246109986
 41
7.5
 42
7.5
 50
44.502233470002587
  0
INSERT
  2
-002-AM_BALLOON1
  8
_0-2_08_DIM
 10
2280.4139531095916
 20
1178.4647451125738
 41
3.75
 42
3.75
 50
0
  0
TEXT
  8
_0-5_0
 62
    7
 10
2263.2710959667347
 20
1172.8397451125738
 40
11.250000000000002
 41
1
 50
0
  1
124
  0
LINE
  8
_0-2_08_DIM
  6
CONTINUOUS
 62
    3
 10
1705.1563695591565
 20
1728.2750674098593
 11
1749.0313695591562
 21
1728.2750674098593
  0
LINE
  8
_0-2_08_DIM
  6
CONTINUOUS
 62
    3
 10
1749.0313695591562
 20
1728.2750674098593
 11
1811.2153035544814
 21
1751.4289486671375
  0
INSERT
  2
-003-_Open30
  8
_0-2_08_DIM
 10
1818.2438882561414
 20
1754.0460075299814
 41
7.5000000000000009
 42
7.5000000000000009
 50
20.422566732889869
  0
LINE
  8
_0-2_08_DIM
  6
CONTINUOUS
 62
    3
 10
1705.1040596952253
 20
1822.5207981663013
 11
1748.9790596952253
 21
1822.5207981663013
  0
LINE
  8
_0-2_08_DIM
  6
CONTINUOUS
 62
    3
 10
1748.9790596952253
 20
1822.5207981663013
 11
1777.4050210369021
 21
1810.9269293296272
  0
INSERT
  2
-003-_Open30
  8
_0-2_08_DIM
 10
1784.3496101808628
 20
1808.094495460746
 41
7.5
 42
7.5
 50
337.81132029903199
  0
LINE
  8
_0-2_08_DIM
  6
CONTINUOUS
 62
    3
 10
2048.3369509937916
 20
1074.7176297976973
 11
2022.4619509937913
 21
1074.7176297976973
  0
LINE
  8
_0-2_08_DIM
  6
CONTINUOUS
 62
    3
 10
2022.4619509937913
 20
1074.7176297976973
 11
2007.205205907989
 21
1036.2300372906375
  0
INSERT
  2
-003-_Open30
  8
_0-2_08_DIM
 10
2004.4413858954051
 20
1029.2578569330997
 41
7.5
 42
7.5
 50
248.37628654759504
  0
LINE
  8
_0-2_08_DIM
  6
CONTINUOUS
 62
    3
 10
2609.7100760716203
 20
1075.0082489768881
 11
2571.7725760716198
 21
1075.0082489768881
  0
LINE
  8
_0-2_08_DIM
  6
CONTINUOUS
 62
    3
 10
2571.7725760716198
 20
1075.0082489768881
 11
2564.938058113662
 21
1052.8348586511604
  0
INSERT
  2
-003-_Open30
  8
_0-2_08_DIM
 10
2562.7288899427667
 20
1045.6676014356906
 41
7.4999999999999991
 42
7.4999999999999991
 50
252.86909951680084
  0
TEXT
  8
_0-6_07_TEXT
 62
    3
 10
2964.18925304207
 20
860.0276805664987
 40
9
 41
1
 50
0
  1
注記
  0
TEXT
  8
_0-6_07_TEXT
 62
    3
 10
2964.9092530420703
 20
843.29068056649874
 40
9
 41
1
 50
0
  1
　指示なき角部は
  0
TEXT
  8
_0-6_07_TEXT
 62
    3
 10
3061.8842530420693
 20
843.29068056649874
 40
9
 41
1
 50
0
  1
C0.5
  0
TEXT
  8
_0-6_07_TEXT
 62
    3
 10
3092.3128244706404
 20
843.29068056649874
 40
9
 41
1
 50
0
  1
のこと
  0
TEXT
  8
_0-2_08_DIM
 62
    3
 10
1916.1145900168106
 20
969.45003764427281
 40
9
 41
1
 50
90
  1
63
  0
TEXT
  8
_0-2_08_DIM
 62
    3
 10
1916.1145900168106
 20
1022.1643233585587
 40
9
 41
1
 50
90
  1
42
  0
TEXT
  8
_0-2_08_DIM
 62
    3
 10
2026.1312612887371
 20
1095.9482678245545
 40
9
 41
1
 50
0
  1
76
  0
TEXT
  8
_0-2_08_DIM
 62
    3
 10
1967.1312612887371
 20
1095.9482678245545
 40
9
 41
1
 50
0
  1
42
  0
TEXT
  8
_0-2_08_DIM
 62
    3
 10
1918.5523128892021
 20
886.90425584415152
 40
9
 41
1
 50
90
  1
2
  0
TEXT
  8
_0-2_08_DIM
 62
    3
 10
2475.1293396555834
 20
887.2929370991601
 40
9
 41
1
 50
90
  1
9
  0
TEXT
  8
_0-2_08_DIM
 62
    3
 10
1867.2831514569079
 20
985.95003764628996
 40
9
 41
1
 50
90
  1
129
  0
TEXT
  8
_0-2_08_DIM
 62
    3
 10
1892.5358970211353
 20
1027.9500376442729
 40
9
 41
1
 50
90
  1
54
  0
TEXT
  8
_0-2_08_DIM
 62
    3
 10
2000.2026898584302
 20
1145.3256096188411
 40
9
 41
1
 50
0
  1
142
  0
TEXT
  8
_0-2_08_DIM
 62
    3
 10
1960.916975574451
 20
1119.589287729543
 40
9
 41
1
 50
0
  1
54
  0
TEXT
  8
_0-2_08_DIM
 62
    3
 10
1363.2994627829066
 20
757.43192010720873
 40
9
 41
1
 50
90
  1
9
  0
TEXT
  8
_0-2_08_DIM
 62
    3
 10
1469.992025612657
 20
810.15907487157949
 40
9
 41
1
 50
0
  1
190
  0
TEXT
  8
_0-2_08_DIM
 62
    3
 10
1427.4205970428618
 20
833.48831357245865
 40
9
 41
1
 50
0
  1
95
  0
TEXT
  8
_0-2_08_DIM
 62
    3
 10
1469.9920256171317
 20
856.56947008082216
 40
9
 41
1
 50
0
  1
160
  0
TEXT
  8
_0-2_08_DIM
 62
    3
 10
1287.2432777284762
 20
1058.7357519267002
 40
9
 41
1
 50
90
  1
125
  0
TEXT
  8
_0-2_08_DIM
 62
    3
 10
1259.1374772843089
 20
996.87860906823323
 40
9
 41
1
 50
90
  1
250
  0
TEXT
  8
_0-2_08_DIM
 62
    3
 10
1316.4934062824996
 20
996.87860906823323
 40
9
 41
1
 50
90
  1
220
  0
TEXT
  8
_0-2_08_DIM
 62
    3
 10
1350.8214527051935
 20
969.45003764098601
 40
9
 41
1
 50
90
  1
63
  0
TEXT
  8
_0-2_08_DIM
 62
    3
 10
1350.8214527051935
 20
1022.1643233552716
 40
9
 41
1
 50
90
  1
42
  0
TEXT
  8
_0-2_08_DIM
 62
    3
 10
1512.9205970428654
 20
1086.7703733683252
 40
9
 41
1
 50
0
  1
76
  0
TEXT
  8
_0-2_08_DIM
 62
    3
 10
1453.9205970428654
 20
1086.7703733683252
 40
9
 41
1
 50
0
  1
42
  0
TEXT
  8
_0-2_08_DIM
 62
    3
 10
2526.566775070924
 20
1542.7839356198624
 40
9
 41
1
 50
0
  1
(315)
  0
TEXT
  8
_0-2_08_DIM
 62
    3
 10
1317.4038148114707
 20
1956.202163483099
 40
9
 41
1
 50
0
  1
50
  0
TEXT
  8
_0-2_08_DIM
 62
    3
 10
1459.0800946397617
 20
1672.8737723459406
 40
9
 41
1
 50
90
  1
150
  0
TEXT
  8
_0-2_08_DIM
 62
    3
 10
2374.0667825730493
 20
1956.2021634830903
 40
9
 41
1
 50
0
  1
592
  0
TEXT
  8
_0-2_08_DIM
 62
    3
 10
1804.0667825730766
 20
1956.2021634830903
 40
9
 41
1
 50
0
  1
548
  0
TEXT
  8
_0-2_08_DIM
 62
    3
 10
2095.1382111444832
 20
1504.910515519922
 40
9
 41
1
 50
0
  1
1180
  0
TEXT
  8
_0-2_08_DIM
 62
    3
 10
1426.755940422232
 20
1748.5166294887986
 40
9
 41
1
 50
90
  1
300
  0
TEXT
  8
_0-2_08_DIM
 62
    3
 10
1491.4104872355917
 20
1748.5166294887986
 40
9
 41
1
 50
90
  1
250
  0
TEXT
  8
_0-2_08_DIM
 62
    3
 10
1667.5667825705953
 20
1541.2839356198651
 40
9
 41
1
 50
0
  1
315
  0
TEXT
  8
_0-2_08_DIM
 62
    3
 10
2100.0667750684647
 20
1541.290185619865
 40
9
 41
1
 50
0
  1
550
  0
TEXT
  8
_0-2_08_DIM
 62
    3
 10
1867.3524968533486
 20
1667.7775984817215
 40
9
 41
1
 50
0
  1
76
  0
TEXT
  8
_0-2_08_DIM
 62
    3
 10
1808.3524968515949
 20
1667.7775984817215
 40
9
 41
1
 50
0
  1
42
  0
TEXT
  8
_0-2_08_DIM
 62
    3
 10
1824.4239254207826
 20
1575.9165639674302
 40
9
 41
1
 50
0
  1
160
  0
TEXT
  8
_0-2_08_DIM
 62
    3
 10
1524.3524968587872
 20
1956.1959134830904
 40
9
 41
1
 50
0
  1
20
  0
TEXT
  8
_0-2_08_DIM
 62
    3
 10
2710.1024968587435
 20
1957.6959134830904
 40
9
 41
1
 50
0
  1
(20)
  0
TEXT
  8
_0-2_08_DIM
 62
    3
 10
1317.4038148114707
 20
1570.3078812048257
 40
9
 41
1
 50
0
  1
50
  0
TEXT
  8
_0-2_08_DIM
 62
    3
 10
1372.6694381203374
 20
1629.9630580582489
 40
9
 41
1
 50
90
  1
3
  0
TEXT
  8
_0-2_08_DIM
 62
    3
 10
1991.3841886580813
 20
1748.5166294888013
 40
9
 41
1
 50
90
  1
220
  0
TEXT
  8
_0-2_08_DIM
 62
    3
 10
1961.0560120390312
 20
1721.0880580583639
 40
9
 41
1
 50
90
  1
63
  0
TEXT
  8
_0-2_08_DIM
 62
    3
 10
1961.0560120390312
 20
1773.802343773516
 40
9
 41
1
 50
90
  1
42
  0
TEXT
  8
_0-2_08_DIM
 62
    3
 10
2711.1035165108078
 20
1447.4796202593129
 40
9
 41
1
 50
44.999999999999488
  1
4-C5
  0
TEXT
  8
_0-2_08_DIM
 62
    3
 10
1429.9910335615139
 20
1566.6316226831091
 40
9
 41
1
 50
0
  1
6-12
  0
TEXT
  8
_0-2_08_DIM
 62
    3
 10
1466.8481764186567
 20
1566.6316226831091
 40
9
 41
1
 50
0
  1
キリ
  0
TEXT
  8
_0-2_08_DIM
 62
    3
 10
1960.8072735525932
 20
1581.546180085217
 40
9
 41
1
 50
0
  1
12-12
  0
TEXT
  8
_0-2_08_DIM
 62
    3
 10
2006.2358449811645
 20
1581.546180085217
 40
9
 41
1
 50
0
  1
キリ
  0
TEXT
  8
_0-2_08_DIM
 62
    3
 10
1528.830418480019
 20
777.17673351498115
 40
9
 41
1
 50
0
  1
?46H7
  0
TEXT
  8
_0-2_08_DIM
 62
    3
 10
1509.6299899085905
 20
765.92048351498113
 40
9
 41
1
 50
0
  1
(
  0
TEXT
  8
_0-2_08_DIM
 62
    3
 10
1515.6299899085905
 20
765.92048351498113
 40
9
 41
1
 50
0
  1
両口元
  0
TEXT
  8
_0-2_08_DIM
 62
    3
 10
1554.8879899085907
 20
765.92048351498113
 40
9
 41
1
 50
0
  1
C0.5)
  0
TEXT
  8
_0-2_08_DIM
 62
    3
 10
1303.4101814297837
 20
845.9025761317838
 40
9
 41
1
 50
0
  1
6-12
  0
TEXT
  8
_0-2_08_DIM
 62
    3
 10
1340.2673242869269
 20
845.9025761317838
 40
9
 41
1
 50
0
  1
キリ
  0
TEXT
  8
_0-2_08_DIM
 62
    3
 10
1322.6654833976525
 20
1080.2986149596268
 40
9
 41
1
 50
0
  1
4-9
  0
TEXT
  8
_0-2_08_DIM
 62
    3
 10
1350.9511976833669
 20
1080.2986149596268
 40
9
 41
1
 50
0
  1
キリ
  0
TEXT
  8
_0-2_08_DIM
 62
    3
 10
1323.3712871136688
 20
1153.6432496734396
 40
9
 41
1
 50
0
  1
4-R15
  0
TEXT
  8
_0-2_08_DIM
 62
    3
 10
1870.4143645636043
 20
1093.5362994239765
 40
9
 41
1
 50
0
  1
4-9
  0
TEXT
  8
_0-2_08_DIM
 62
    3
 10
1898.7000788493185
 20
1093.5362994239765
 40
9
 41
1
 50
0
  1
キリ
  0
TEXT
  8
_0-2_08_DIM
 62
    3
 10
1883.8227796739993
 20
915.24587974586461
 40
9
 41
1
 50
0
  1
4-R7
  0
TEXT
  8
_0-2_08_DIM
 62
    3
 10
2471.0654936692081
 20
969.45003764427281
 40
9
 41
1
 50
90
  1
63
  0
TEXT
  8
_0-2_08_DIM
 62
    3
 10
2471.0654936692081
 20
1022.1643233585587
 40
9
 41
1
 50
90
  1
42
  0
TEXT
  8
_0-2_08_DIM
 62
    3
 10
2581.0821649411346
 20
1095.9482678245545
 40
9
 41
1
 50
0
  1
76
  0
TEXT
  8
_0-2_08_DIM
 62
    3
 10
2522.0821649411341
 20
1095.9482678245545
 40
9
 41
1
 50
0
  1
42
  0
TEXT
  8
_0-2_08_DIM
 62
    3
 10
2422.2340551093057
 20
985.95003764628996
 40
9
 41
1
 50
90
  1
129
  0
TEXT
  8
_0-2_08_DIM
 62
    3
 10
2447.4868006735323
 20
1027.9500376442729
 40
9
 41
1
 50
90
  1
54
  0
TEXT
  8
_0-2_08_DIM
 62
    3
 10
2555.1535935108277
 20
1145.3256096188411
 40
9
 41
1
 50
0
  1
142
  0
TEXT
  8
_0-2_08_DIM
 62
    3
 10
2515.8678792268488
 20
1119.589287729543
 40
9
 41
1
 50
0
  1
54
  0
TEXT
  8
_0-2_08_DIM
 62
    3
 10
2425.3652682160014
 20
1093.5362994239767
 40
9
 41
1
 50
0
  1
4-9
  0
TEXT
  8
_0-2_08_DIM
 62
    3
 10
2453.6509825017156
 20
1093.5362994239767
 40
9
 41
1
 50
0
  1
キリ
  0
TEXT
  8
_0-2_08_DIM
 62
    3
 10
2438.7736833263966
 20
915.24587974586461
 40
9
 41
1
 50
0
  1
4-R7
  0
TEXT
  8
_0-2_08_DIM
 62
    3
 10
1703.6563695591567
 20
1730.150067409859
 40
9
 41
1
 50
0
  1
2-?42
  0
TEXT
  8
_0-2_08_DIM
 62
    3
 10
1703.6040596952253
 20
1824.4020481663008
 40
9
 41
1
 50
0
  1
8-?25
  0
TEXT
  8
_0-2_08_DIM
 62
    3
 10
2023.694093850934
 20
1076.5926297976973
 40
9
 41
1
 50
0
  1
?42
  0
TEXT
  8
_0-2_08_DIM
 62
    3
 10
2572.6073975001918
 20
1076.889498976888
 40
9
 41
1
 50
0
  1
?75.2
  0
TEXT
  8
_0-0_90_FRAME
 62
    3
 10
1137.1091218230358
 20
168.93756423419921
 40
9
 41
1
 50
0
  1
寺田
  0
TEXT
  8
_0-0_90_FRAME
 62
    3
 10
907.22430433092632
 20
168.93756423419921
 40
9
 41
0.6500000000000001
 50
0
  1
2013.09.01
  0
TEXT
  8
_0-0_90_FRAME
 62
    3
 10
967.19936637045896
 20
168.93756423419921
 40
9
 41
1
 50
0
  1
エアー抜き追加
  0
TEXT
  8
_0-8_
 62
    7
 10
1680.3294541634548
 20
144.06054674321967
 40
28.495492762395063
 41
1
 50
0
  1
A3　150%
  0
ENDSEC
  0
EOF
