  0
SECTION
  2
HEADER
  9
$ACADVER
  1
AC1009
  9
$INSBASE
 10
0
 20
0
 30
0
  9
$EXTMIN
 10
0
 20
0
  9
$EXTMAX
 10
2848.6724330572815
 20
2014.4183633762204
  9
$LIMMIN
 10
0
 20
0
  9
$LIMMAX
 10
2848.6724330572815
 20
2014.4183633762204
  9
$LTSCALE
 40
6.7825534120411461
  0
ENDSEC
  0
SECTION
  2
TABLES
  0
TABLE
  2
LTYPE
 70
     9
  0
LTYPE
  2
CONTINUOUS
 70
    64
  3
実線
 72
    65
 73
     0
 40
0.0
  0
LTYPE
  2
DASHED1
 70
    64
  3
--  --  --  --  --  --  --  --  
 72
    65
 73
     2
 40
2.5
 49
1.25
 49
-1.25
  0
LTYPE
  2
DASHED2
 70
    64
  3
----    ----    ----    ----    
 72
    65
 73
     2
 40
5.0
 49
2.5
 49
-2.5
  0
LTYPE
  2
DASHED3
 70
    64
  3
------  ------  ------  ------  
 72
    65
 73
     2
 40
5.0
 49
3.75
 49
-1.25
  0
LTYPE
  2
CENTER1
 70
    64
  3
----- - ----- - ----- - ----- - 
 72
    65
 73
     4
 40
10.0
 49
6.25
 49
-1.25
 49
1.25
 49
-1.25
  0
LTYPE
  2
CENTER2
 70
    64
  3
----------  --  ----------  --  
 72
    65
 73
     4
 40
20.0
 49
12.5
 49
-2.5
 49
2.5
 49
-2.5
  0
LTYPE
  2
PHANTOM1
 70
    64
  3
--- - - --- - - --- - - --- - - 
 72
    65
 73
     6
 40
10.0
 49
3.25
 49
-1.25
 49
1.25
 49
-1.25
 49
1.25
 49
-1.25
  0
LTYPE
  2
PHANTOM2
 70
    64
  3
--------  -  -  --------  -  -  
 72
    65
 73
     6
 40
20.0
 49
10.0
 49
-2.5
 49
1.25
 49
-2.5
 49
1.25
 49
-2.5
  0
LTYPE
  2
DOT
 70
    64
  3
-   -   -   -   -   -   -   -   
 72
    65
 73
     2
 40
2.5
 49
0.625
 49
-1.875
  0
LTYPE
  2
DUMMY
 70
    64
  3
ダミー
 72
    65
 73
     0
 40
0.0
  0
LTYPE
  2
RAND1
 70
    64
  3
ランダム線1
 72
    65
 73
     4
 40
10.0
 49
1.0
 49
-2.0
 49
3.0
 49
-4.0
  0
LTYPE
  2
RAND2
 70
    64
  3
ランダム線2
 72
    65
 73
     4
 40
14.0
 49
2.0
 49
-3.0
 49
4.0
 49
-5.0
  0
LTYPE
  2
RAND3
 70
    64
  3
ランダム線3
 72
    65
 73
     4
 40
18.0
 49
3.0
 49
-4.0
 49
5.0
 49
-6.0
  0
LTYPE
  2
RAND4
 70
    64
  3
ランダム線4
 72
    65
 73
     4
 40
22.0
 49
4.0
 49
-5.0
 49
6.0
 49
-7.0
  0
LTYPE
  2
RAND5
 70
    64
  3
ランダム線5
 72
    65
 73
     4
 40
26.0
 49
5.0
 49
-6.0
 49
7.0
 49
-8.0
  0
LTYPE
  2
LONG1
 70
    64
  3
----------  --  ----------  --  
 72
    65
 73
     4
 40
40.0
 49
32.5
 49
-2.5
 49
2.5
 49
-2.5
  0
LTYPE
  2
LONG2
 70
    64
  3
--------  -  -  --------  -  -  
 72
    65
 73
     6
 40
40.0
 49
30.0
 49
-2.5
 49
1.25
 49
-2.5
 49
1.25
 49
-2.5
  0
LTYPE
  2
LONG3
 70
    64
  3
+++++++++++++++..+++++++++++++++
 72
    65
 73
     2
 40
40.0
 49
37.5
 49
-2.5
  0
LTYPE
  2
LONG4
 70
    64
  3
+++++++++++++++..+++++++++++++++
 72
    65
 73
     2
 40
80.0
 49
75.0
 49
-5.0
  0
LTYPE
  2
LONG5
 70
    64
  3
----------  --  ----------  --  
 72
    65
 73
     4
 40
60.0
 49
37.5
 49
-7.5
 49
7.5
 49
-7.5
  0
LTYPE
  2
dashed
 70
   64
  3
-------   -------------   ------
 72
   65
 73
    2
 40
7.5
 49
6
 49
-1.5
  0
LTYPE
  2
dashed_spaced
 70
   64
  3
----        --------        ----
 72
   65
 73
    2
 40
12
 49
6
 49
-6
  0
LTYPE
  2
long_dashed_dotted
 70
   64
  3
------------- --- --------------
 72
   65
 73
    4
 40
15.25
 49
12
 49
-1.5
 49
0.25
 49
-1.5
  0
LTYPE
  2
long_dashed_double-dotted
 70
   64
  3
----------- --- --- ------------
 72
   65
 73
    6
 40
17
 49
12
 49
-1.5
 49
0.25
 49
-1.5
 49
0.25
 49
-1.5
  0
LTYPE
  2
long_dashed_triplicate-dotted
 70
   64
  3
--------- --- --- --- ----------
 72
   65
 73
    8
 40
18.75
 49
12
 49
-1.5
 49
0.25
 49
-1.5
 49
0.25
 49
-1.5
 49
0.25
 49
-1.5
  0
LTYPE
  2
dotted
 70
   64
  3
   -       -       -       -    
 72
   65
 73
    2
 40
1.75
 49
0.25
 49
-1.5
  0
LTYPE
  2
chain
 70
   64
  3
-------------- -- --------------
 72
   65
 73
    4
 40
18.5
 49
12
 49
-1.5
 49
3.5
 49
-1.5
  0
LTYPE
  2
chain_double_dash
 70
   64
  3
------------ -- -- -------------
 72
   65
 73
    6
 40
23.5
 49
12
 49
-1.5
 49
3.5
 49
-1.5
 49
3.5
 49
-1.5
  0
LTYPE
  2
dashed_dotted
 70
   64
  3
-----------     -     ----------
 72
   65
 73
    4
 40
9.25
 49
6
 49
-1.5
 49
0.25
 49
-1.5
  0
LTYPE
  2
double-dashed_dotted
 70
   64
  3
------   -----------   -   -----
 72
   65
 73
    6
 40
16.75
 49
6
 49
-1.5
 49
6
 49
-1.5
 49
0.25
 49
-1.5
  0
LTYPE
  2
dashed_double-dotted
 70
   64
  3
---------    -    -    ---------
 72
   65
 73
    6
 40
11
 49
6
 49
-1.5
 49
0.25
 49
-1.5
 49
0.25
 49
-1.5
  0
LTYPE
  2
double-dashed_double-dotted
 70
   64
  3
-----   ---------   -   -   ----
 72
   65
 73
    8
 40
18.5
 49
6
 49
-1.5
 49
6
 49
-1.5
 49
0.25
 49
-1.5
 49
0.25
 49
-1.5
  0
LTYPE
  2
dashed_triplicate-dotted
 70
   64
  3
-------    -    -    -    ------
 72
   65
 73
    8
 40
12.75
 49
6
 49
-1.5
 49
0.25
 49
-1.5
 49
0.25
 49
-1.5
 49
0.25
 49
-1.5
  0
LTYPE
  2
double-dashed_triplicate-dotted
 70
   64
  3
-----  ---------  -  -  -  -----
 72
   65
 73
   10
 40
20.25
 49
6
 49
-1.5
 49
6
 49
-1.5
 49
0.25
 49
-1.5
 49
0.25
 49
-1.5
 49
0.25
 49
-1.5
  0
LTYPE
  2
undefined
 70
   64
  3
--------------------------------
 72
   65
 73
    0
 40
0
  0
LTYPE
  2
_
 70
   64
  3
                                
 72
   65
 73
    0
 40
0
  0
LTYPE
  2
__18
 70
   64
  3
                                
 72
   65
 73
    0
 40
0
  0
LTYPE
  2
__19
 70
   64
  3
                                
 72
   65
 73
    0
 40
0
  0
LTYPE
  2
__20
 70
   64
  3
                                
 72
   65
 73
    0
 40
0
  0
LTYPE
  2
__21
 70
   64
  3
                                
 72
   65
 73
    0
 40
0
  0
LTYPE
  2
__22
 70
   64
  3
                                
 72
   65
 73
    0
 40
0
  0
LTYPE
  2
__23
 70
   64
  3
                                
 72
   65
 73
    0
 40
0
  0
LTYPE
  2
__24
 70
   64
  3
                                
 72
   65
 73
    0
 40
0
  0
LTYPE
  2
__25
 70
   64
  3
                                
 72
   65
 73
    0
 40
0
  0
LTYPE
  2
__26
 70
   64
  3
                                
 72
   65
 73
    0
 40
0
  0
LTYPE
  2
__27
 70
   64
  3
                                
 72
   65
 73
    0
 40
0
  0
LTYPE
  2
__28
 70
   64
  3
                                
 72
   65
 73
    0
 40
0
  0
LTYPE
  2
__29
 70
   64
  3
                                
 72
   65
 73
    0
 40
0
  0
LTYPE
  2
__30
 70
   64
  3
                                
 72
   65
 73
    0
 40
0
  0
LTYPE
  2
__31
 70
   64
  3
                                
 72
   65
 73
    0
 40
0
  0
LTYPE
  2
__32
 70
   64
  3
                                
 72
   65
 73
    0
 40
0
  0
ENDTAB
  0
TABLE
  2
STYLE
  5
3
100
AcDbSymbolTable
 70
     1
  0
STYLE
  5
10
100
AcDbSymbolTableRecord
100
AcDbTextStyleTableRecord
  2
STANDARD
 70
     0
 40
0.0
 41
1.0
 50
0.0
 71
     0
 42
0.2
  3
txt
  4
bigfont.shx
  0
STYLE
  5
26
100
AcDbSymbolTableRecord
100
AcDbTextStyleTableRecord
  2
TATEGAKI
 70
    68
 40
0.0
 41
1.0
 50
0.0
 71
     0
 42
1.0
  3
txt
  4
bigfont.shx
  0
ENDTAB
  0
TABLE
  2
LAYER
 70
   10
  0
LAYER
  2
_0-0_90_FRAME
 70
   64
 62
    7
  6
CONTINUOUS
  0
LAYER
  2
_0-1_91_BLANK
 70
   64
 62
    7
  6
CONTINUOUS
  0
LAYER
  2
_0-2_08_DIM
 70
   64
 62
    7
  6
CONTINUOUS
  0
LAYER
  2
_0-3_0
 70
   64
 62
    7
  6
CONTINUOUS
  0
LAYER
  2
_0-4_04_HIDDEN
 70
   64
 62
    7
  6
CONTINUOUS
  0
LAYER
  2
_0-5_05_CENTER
 70
   64
 62
    7
  6
CONTINUOUS
  0
LAYER
  2
_0-6_10_DRAFT
 70
   64
 62
    7
  6
CONTINUOUS
  0
LAYER
  2
_0-7_07_TEXT
 70
   64
 62
    7
  6
CONTINUOUS
  0
LAYER
  2
_0-8_
 70
   64
 62
    7
  6
CONTINUOUS
  0
LAYER
  2
ADD_LINE
 70
   64
 62
    7
  6
CONTINUOUS
  0
ENDTAB
  0
ENDSEC
  0
SECTION
  2
BLOCKS
  0
BLOCK
  2
-000-p1ba05
 70
   64
 10
0
 20
0
 30
0
  0
ARC
  8
_0-2_08_DIM
  6
CONTINUOUS
 62
    3
 10
0
 20
1.6206695983957431
 40
1.6206695983958537
 50
204.22763733453323
 51
335.57577857182139
  0
ARC
  8
_0-2_08_DIM
  6
CONTINUOUS
 62
    3
 10
-2.9535588745990822
 20
0.2854771617432376
 40
1.6206695983958537
 50
24.227637334533135
 51
155.57577857182133
  0
ENDBLK
  0
BLOCK
  2
-001-M16Tz_1_1
 70
   64
 10
0
 20
0
 30
0
  0
LINE
  8
_0-5_05_CENTER
  6
CENTER2
 62
    4
 10
-0.0000000000022737
 20
-14.812988629120129
 11
-0.0000000000022737
 21
14.812988629120129
  0
CIRCLE
  8
_0-3_0
  6
CONTINUOUS
 62
   18
 10
-0.0000000000022737
 20
0
 40
6.25
  0
CIRCLE
  8
_0-3_0
  6
CONTINUOUS
 62
   18
 10
-0.0000000000022737
 20
0
 40
8
  0
LINE
  8
_0-5_05_CENTER
  6
CENTER2
 62
    4
 10
14.812988629117854
 20
0
 11
-14.812988629122399
 21
0
  0
ENDBLK
  0
BLOCK
  2
-002-p1ba01
 70
   64
 10
0
 20
0
 30
0
  0
LINE
  8
_0-2_08_DIM
  6
CONTINUOUS
 62
    3
 10
0
 20
0
 11
-1.5
 21
2.5980762113532592
  0
LINE
  8
_0-2_08_DIM
  6
CONTINUOUS
 62
    3
 10
1.5
 20
2.5980762113532592
 11
0
 21
0
  0
LINE
  8
_0-2_08_DIM
  6
CONTINUOUS
 62
    3
 10
-1.5
 20
2.5980762113532592
 11
1.5
 21
2.5980762113532592
  0
ENDBLK
  0
BLOCK
  2
-003-AM_BALLOON1
 70
   64
 10
0
 20
0
 30
0
  0
CIRCLE
  8
_0-2_08_DIM
  6
CONTINUOUS
 62
    3
 10
0
 20
0
 40
5
  0
ENDBLK
  0
BLOCK
  2
-004-_Open30
 70
   64
 10
0
 20
0
 30
0
  0
LINE
  8
_0-2_08_DIM
  6
CONTINUOUS
 62
    3
 10
-1
 20
0.26794919
 11
0
 21
0
  0
LINE
  8
_0-2_08_DIM
  6
CONTINUOUS
 62
    3
 10
0
 20
0
 11
-1
 21
-0.26794919
  0
LINE
  8
_0-2_08_DIM
  6
CONTINUOUS
 62
    3
 10
0
 20
0
 11
-1
 21
0
  0
ENDBLK
  0
ENDSEC
  0
SECTION
  2
ENTITIES
  0
TEXT
  8
_0-0_90_FRAME
 62
    7
 10
2096.5527651124939
 20
465.25507127215906
 40
15
 41
1
 50
0
  1
AT-221121-04-13
  0
TEXT
  8
_0-0_90_FRAME
 62
    7
 10
1993.8361039307879
 20
430.72880418523056
 40
15
 41
1
 50
0
  1
2024.08.30
  0
LINE
  8
_0-0_90_FRAME
  6
CONTINUOUS
 62
    5
 10
625.04407372017158
 20
422.58121846939957
 11
2278.7612245723703
 21
422.58121846939957
  0
LINE
  8
_0-0_90_FRAME
  6
CONTINUOUS
 62
    5
 10
2278.7612245723703
 20
422.58121846939957
 11
2278.7612245723703
 21
1604.8460123804521
  0
LINE
  8
_0-0_90_FRAME
  6
CONTINUOUS
 62
    5
 10
2278.7612245723703
 20
1604.8460123804521
 11
625.04407372017158
 21
1604.8460123804521
  0
LINE
  8
_0-0_90_FRAME
  6
CONTINUOUS
 62
    5
 10
625.04407372017158
 20
1604.8460123804521
 11
625.04407372017158
 21
422.58121846939957
  0
LINE
  8
_0-0_90_FRAME
  6
CONTINUOUS
 62
    5
 10
542.30230063479632
 20
1013.7136154249258
 11
625.04407372017158
 21
1013.7136154249258
  0
LINE
  8
_0-0_90_FRAME
  6
CONTINUOUS
 62
    5
 10
2306.3701324294011
 20
1013.7136154249258
 11
2278.7612245723703
 21
1013.7136154249258
  0
LINE
  8
_0-0_90_FRAME
  6
CONTINUOUS
 62
    5
 10
1451.9026491462707
 20
1636.714920243179
 11
1451.9026491462712
 21
1604.8460123804521
  0
LINE
  8
_0-0_90_FRAME
  6
CONTINUOUS
 62
    5
 10
1451.9026491462712
 20
395.09574623748068
 11
1451.9026491462712
 21
422.58121846939957
  0
LINE
  8
_0-0_90_FRAME
  6
CONTINUOUS
 62
    5
 10
1239.5264348614128
 20
409.83864561230558
 11
1664.2788634311294
 21
409.83864561230558
  0
LINE
  8
_0-0_90_FRAME
  6
CONTINUOUS
 62
    5
 10
1239.5264348614128
 20
409.83864561230558
 11
1239.5264348614128
 21
422.58121846939957
  0
LINE
  8
_0-0_90_FRAME
  6
CONTINUOUS
 62
    5
 10
1282.0016777183855
 20
409.83864561230558
 11
1282.0016777183855
 21
422.58121846939957
  0
LINE
  8
_0-0_90_FRAME
  6
CONTINUOUS
 62
    5
 10
1324.4769205753582
 20
409.83864561230558
 11
1324.4769205753582
 21
422.58121846939957
  0
LINE
  8
_0-0_90_FRAME
  6
CONTINUOUS
 62
    5
 10
1366.9521634323255
 20
409.83864561230558
 11
1366.9521634323255
 21
422.58121846939957
  0
LINE
  8
_0-0_90_FRAME
  6
CONTINUOUS
 62
    5
 10
1409.4274062892982
 20
409.83864561230558
 11
1409.4274062892982
 21
422.58121846939957
  0
LINE
  8
_0-0_90_FRAME
  6
CONTINUOUS
 62
    5
 10
1494.3778920032382
 20
409.83864561230558
 11
1494.3778920032382
 21
422.58121846939957
  0
LINE
  8
_0-0_90_FRAME
  6
CONTINUOUS
 62
    5
 10
1536.853134860211
 20
409.83864561230558
 11
1536.853134860211
 21
422.58121846939957
  0
LINE
  8
_0-0_90_FRAME
  6
CONTINUOUS
 62
    5
 10
1579.3283777171837
 20
409.83864561230558
 11
1579.3283777171837
 21
422.58121846939957
  0
LINE
  8
_0-0_90_FRAME
  6
CONTINUOUS
 62
    5
 10
1621.8036205741564
 20
409.83864561230558
 11
1621.8036205741564
 21
422.58121846939957
  0
LINE
  8
_0-0_90_FRAME
  6
CONTINUOUS
 62
    5
 10
1664.2788634311294
 20
409.83864561230558
 11
1664.2788634311294
 21
422.58121846939957
  0
LINE
  8
_0-0_90_FRAME
  6
CONTINUOUS
 62
    4
 10
1024.1981911979969
 20
1604.8460123804521
 11
1024.1981911979969
 21
1632.4549202374769
  0
TEXT
  8
_0-0_90_FRAME
 62
    7
 10
703.5646881308644
 20
1610.3450263231725
 40
8.5199999999999996
 41
1
 50
0
  1
1
  0
TEXT
  8
_0-0_90_FRAME
 62
    7
 10
807.50596222386241
 20
1610.3450263231725
 40
8.5199999999999996
 41
1
 50
0
  1
2
  0
TEXT
  8
_0-0_90_FRAME
 62
    7
 10
950.07411487328727
 20
1610.3450263231725
 40
8.5199999999999996
 41
1
 50
0
  1
3
  0
TEXT
  8
_0-0_90_FRAME
 62
    7
 10
1092.6422675227066
 20
1610.3450263231725
 40
8.5199999999999996
 41
1
 50
0
  1
4
  0
TEXT
  8
_0-0_90_FRAME
 62
    7
 10
1235.2104201721365
 20
1610.3450263231725
 40
8.5199999999999996
 41
1
 50
0
  1
5
  0
TEXT
  8
_0-0_90_FRAME
 62
    7
 10
1377.7785728215558
 20
1610.3450263231725
 40
8.5199999999999996
 41
1
 50
0
  1
6
  0
TEXT
  8
_0-0_90_FRAME
 62
    7
 10
1520.3467254709808
 20
1610.3450263231725
 40
8.5199999999999996
 41
1
 50
0
  1
7
  0
TEXT
  8
_0-0_90_FRAME
 62
    7
 10
1662.9148781204053
 20
1610.3450263231725
 40
8.5199999999999996
 41
1
 50
0
  1
8
  0
TEXT
  8
_0-0_90_FRAME
 62
    7
 10
1805.4830307698298
 20
1610.3450263231725
 40
8.5199999999999996
 41
1
 50
0
  1
9
  0
TEXT
  8
_0-0_90_FRAME
 62
    7
 10
1945.9211834192549
 20
1610.3450263231725
 40
8.5199999999999996
 41
1
 50
0
  1
10
  0
TEXT
  8
_0-0_90_FRAME
 62
    7
 10
2089.1993360686738
 20
1610.3450263231725
 40
8.5199999999999996
 41
1
 50
0
  1
11
  0
TEXT
  8
_0-0_90_FRAME
 62
    7
 10
2230.3474887180992
 20
1610.3450263231725
 40
8.5199999999999996
 41
1
 50
0
  1
12
  0
TEXT
  8
_0-0_90_FRAME
 62
    7
 10
2284.2497293609886
 20
1387.5138059327721
 40
8.5199999999999996
 41
1
 50
0
  1
B
  0
LINE
  8
_0-0_90_FRAME
  6
CONTINUOUS
 62
    4
 10
2306.3701324294011
 20
711.26546301864869
 11
2278.7612245723703
 21
711.26546301864869
  0
LINE
  8
_0-0_90_FRAME
  6
CONTINUOUS
 62
    4
 10
2306.3701324294011
 20
862.48953922178737
 11
2278.7612245723703
 21
862.48953922178737
  0
LINE
  8
_0-0_90_FRAME
  6
CONTINUOUS
 62
    4
 10
2306.3701324294011
 20
560.04138681551024
 11
2278.7612245723703
 21
560.04138681551024
  0
LINE
  8
_0-0_90_FRAME
  6
CONTINUOUS
 62
    4
 10
2306.3701324294011
 20
1316.1617678312027
 11
2278.7612245723703
 21
1316.1617678312027
  0
LINE
  8
_0-0_90_FRAME
  6
CONTINUOUS
 62
    4
 10
2306.3701324294011
 20
1164.9376916280642
 11
2278.7612245723703
 21
1164.9376916280642
  0
LINE
  8
_0-0_90_FRAME
  6
CONTINUOUS
 62
    4
 10
2306.3701324294011
 20
1467.3858440343413
 11
2278.7612245723703
 21
1467.3858440343413
  0
TEXT
  8
_0-0_90_FRAME
 62
    7
 10
2284.2497293609886
 20
1538.7378821359107
 40
8.5199999999999996
 41
1
 50
0
  1
A
  0
TEXT
  8
_0-0_90_FRAME
 62
    7
 10
2284.2497293609886
 20
1236.2897297296338
 40
8.5199999999999996
 41
1
 50
0
  1
C
  0
TEXT
  8
_0-0_90_FRAME
 62
    7
 10
2284.2497293609886
 20
1085.0656535264952
 40
8.5199999999999996
 41
1
 50
0
  1
D
  0
TEXT
  8
_0-0_90_FRAME
 62
    7
 10
2284.2497293609886
 20
782.61750112021798
 40
8.5199999999999996
 41
1
 50
0
  1
F
  0
TEXT
  8
_0-0_90_FRAME
 62
    7
 10
2284.2497293609886
 20
631.39342491707964
 40
8.5199999999999996
 41
1
 50
0
  1
G
  0
TEXT
  8
_0-0_90_FRAME
 62
    7
 10
2284.2497293609886
 20
480.16934871394096
 40
8.5199999999999996
 41
1
 50
0
  1
H
  0
TEXT
  8
_0-0_90_FRAME
 62
    7
 10
2284.2497293609886
 20
933.84157732335643
 40
8.5199999999999996
 41
1
 50
0
  1
E
  0
TEXT
  8
_0-0_90_FRAME
 62
    7
 10
612.50143724102804
 20
1387.5138059327721
 40
8.5199999999999996
 41
1
 50
0
  1
B
  0
LINE
  8
_0-0_90_FRAME
  6
CONTINUOUS
 62
    4
 10
625.04407372017158
 20
711.26546301864869
 11
597.43516586314638
 21
711.26546301864869
  0
LINE
  8
_0-0_90_FRAME
  6
CONTINUOUS
 62
    4
 10
625.04407372017158
 20
862.48953922178737
 11
597.43516586314638
 21
862.48953922178737
  0
LINE
  8
_0-0_90_FRAME
  6
CONTINUOUS
 62
    4
 10
625.04407372017158
 20
560.04138681551024
 11
597.43516586314638
 21
560.04138681551024
  0
LINE
  8
_0-0_90_FRAME
  6
CONTINUOUS
 62
    4
 10
625.04407372017158
 20
1316.1617678312027
 11
597.43516586314638
 21
1316.1617678312027
  0
LINE
  8
_0-0_90_FRAME
  6
CONTINUOUS
 62
    4
 10
625.04407372017158
 20
1164.9376916280642
 11
597.43516586314638
 21
1164.9376916280642
  0
LINE
  8
_0-0_90_FRAME
  6
CONTINUOUS
 62
    4
 10
625.04407372017158
 20
1467.3858440343413
 11
597.43516586314638
 21
1467.3858440343413
  0
TEXT
  8
_0-0_90_FRAME
 62
    7
 10
612.50143724102804
 20
1538.7378821359107
 40
8.5199999999999996
 41
1
 50
0
  1
A
  0
TEXT
  8
_0-0_90_FRAME
 62
    7
 10
612.50143724102804
 20
1236.2897297296338
 40
8.5199999999999996
 41
1
 50
0
  1
C
  0
TEXT
  8
_0-0_90_FRAME
 62
    7
 10
612.50143724102804
 20
1085.0656535264952
 40
8.5199999999999996
 41
1
 50
0
  1
D
  0
TEXT
  8
_0-0_90_FRAME
 62
    7
 10
612.50143724102804
 20
782.61750112021798
 40
8.5199999999999996
 41
1
 50
0
  1
F
  0
TEXT
  8
_0-0_90_FRAME
 62
    7
 10
612.50143724102804
 20
631.39342491707964
 40
8.5199999999999996
 41
1
 50
0
  1
G
  0
TEXT
  8
_0-0_90_FRAME
 62
    7
 10
612.50143724102804
 20
933.84157732335643
 40
8.5199999999999996
 41
1
 50
0
  1
E
  0
TEXT
  8
_0-0_90_FRAME
 62
    7
 10
612.50143724102804
 20
480.16934871394096
 40
8.5199999999999996
 41
1
 50
0
  1
H
  0
LINE
  8
_0-0_90_FRAME
  6
CONTINUOUS
 62
    4
 10
881.6300385485722
 20
1604.8460123804521
 11
881.6300385485722
 21
1632.4549202374769
  0
LINE
  8
_0-0_90_FRAME
  6
CONTINUOUS
 62
    4
 10
739.06188589914746
 20
1604.8460123804521
 11
739.06188589914746
 21
1632.4549202374769
  0
LINE
  8
_0-0_90_FRAME
  6
CONTINUOUS
 62
    4
 10
1166.7663438474215
 20
1604.8460123804521
 11
1166.7663438474215
 21
1632.4549202374769
  0
LINE
  8
_0-0_90_FRAME
  6
CONTINUOUS
 62
    4
 10
1309.3344964968462
 20
1604.8460123804521
 11
1309.3344964968462
 21
1632.4549202374769
  0
LINE
  8
_0-0_90_FRAME
  6
CONTINUOUS
 62
    4
 10
1879.6071070945397
 20
1604.8460123804521
 11
1879.6071070945397
 21
1632.4549202374769
  0
LINE
  8
_0-0_90_FRAME
  6
CONTINUOUS
 62
    4
 10
2022.1752597439645
 20
1604.8460123804521
 11
2022.1752597439645
 21
1632.4549202374769
  0
LINE
  8
_0-0_90_FRAME
  6
CONTINUOUS
 62
    4
 10
2164.7434123933895
 20
1604.8460123804521
 11
2164.7434123933895
 21
1632.4549202374769
  0
LINE
  8
_0-0_90_FRAME
  6
CONTINUOUS
 62
    4
 10
1737.0389544451145
 20
1604.8460123804521
 11
1737.0389544451145
 21
1632.4549202374769
  0
LINE
  8
_0-0_90_FRAME
  6
CONTINUOUS
 62
    4
 10
1594.4708017956955
 20
1604.8460123804521
 11
1594.4708017956955
 21
1632.4549202374769
  0
LINE
  8
_0-0_90_FRAME
  6
CONTINUOUS
 62
    4
 10
1024.1981911979969
 20
395.09574623748068
 11
1024.1981911979969
 21
422.58121846939957
  0
LINE
  8
_0-0_90_FRAME
  6
CONTINUOUS
 62
    4
 10
881.6300385485722
 20
395.09574623748068
 11
881.6300385485722
 21
422.58121846939957
  0
LINE
  8
_0-0_90_FRAME
  6
CONTINUOUS
 62
    4
 10
739.06188589914746
 20
395.09574623748068
 11
739.06188589914746
 21
422.58121846939957
  0
LINE
  8
_0-0_90_FRAME
  6
CONTINUOUS
 62
    4
 10
1166.7663438474215
 20
395.09574623748068
 11
1166.7663438474215
 21
422.58121846939957
  0
LINE
  8
_0-0_90_FRAME
  6
CONTINUOUS
 62
    4
 10
1879.6071070945397
 20
395.09574623748068
 11
1879.6071070945397
 21
422.58121846939957
  0
LINE
  8
_0-0_90_FRAME
  6
CONTINUOUS
 62
    4
 10
2022.1752597439645
 20
395.09574623748068
 11
2022.1752597439645
 21
422.58121846939957
  0
LINE
  8
_0-0_90_FRAME
  6
CONTINUOUS
 62
    4
 10
2164.7434123933895
 20
395.09574623748068
 11
2164.7434123933895
 21
422.58121846939957
  0
LINE
  8
_0-0_90_FRAME
  6
CONTINUOUS
 62
    4
 10
1737.0389544451145
 20
395.09574623748068
 11
1737.0389544451145
 21
422.58121846939957
  0
LINE
  8
_0-1_91_BLANK
  6
CONTINUOUS
 62
    5
 10
542.3023006278803
 20
395.09574623748068
 11
2306.3701324264703
 21
395.09574623748068
  0
LINE
  8
_0-1_91_BLANK
  6
CONTINUOUS
 62
    5
 10
2306.3701324264703
 20
395.09574623748068
 11
2306.3701324264703
 21
1636.714920243179
  0
LINE
  8
_0-1_91_BLANK
  6
CONTINUOUS
 62
    5
 10
2306.3701324264703
 20
1636.714920243179
 11
542.3023006278803
 21
1636.714920243179
  0
LINE
  8
_0-1_91_BLANK
  6
CONTINUOUS
 62
    5
 10
542.3023006278803
 20
1636.714920243179
 11
542.3023006278803
 21
395.09574623748068
  0
LINE
  8
_0-0_90_FRAME
  6
CONTINUOUS
 62
   18
 10
1684.7612245747687
 20
422.58121846939957
 11
2278.7612245723703
 21
422.58121846939957
  0
LINE
  8
_0-0_90_FRAME
  6
CONTINUOUS
 62
   18
 10
2278.7612245723703
 20
422.58121846939957
 11
2278.7612245723703
 21
532.89550418323961
  0
LINE
  8
_0-0_90_FRAME
  6
CONTINUOUS
 62
   18
 10
2278.7612245723703
 20
532.89550418323961
 11
1684.7612245747687
 21
532.89550418323961
  0
LINE
  8
_0-0_90_FRAME
  6
CONTINUOUS
 62
   18
 10
1684.7612245747687
 20
532.89550418323961
 11
1684.7612245747687
 21
422.58121846939957
  0
LINE
  8
_0-0_90_FRAME
  6
CONTINUOUS
 62
   18
 10
1731.5387245745824
 20
513.8026470404584
 11
1761.2387245744612
 21
521.22764704042947
  0
LINE
  8
_0-0_90_FRAME
  6
CONTINUOUS
 62
   18
 10
1761.2387245744612
 20
521.22764704042947
 11
1761.2387245744612
 21
491.52764704055062
  0
LINE
  8
_0-0_90_FRAME
  6
CONTINUOUS
 62
   18
 10
1761.2387245744612
 20
491.52764704055062
 11
1731.5387245745824
 21
498.95264704051897
  0
LINE
  8
_0-0_90_FRAME
  6
CONTINUOUS
 62
   18
 10
1731.5387245745824
 20
498.95264704051897
 11
1731.5387245745824
 21
513.8026470404584
  0
CIRCLE
  8
_0-0_90_FRAME
  6
CONTINUOUS
 62
   18
 10
1712.2337245746578
 20
506.37764704048737
 40
7.4249999999699989
  0
CIRCLE
  8
_0-0_90_FRAME
  6
CONTINUOUS
 62
   18
 10
1712.2337245746578
 20
506.37764704048737
 40
14.849999999939998
  0
LINE
  8
_0-0_90_FRAME
  6
CONTINUOUS
 62
   18
 10
1694.4137245747299
 20
506.37764704048737
 11
1764.2087245744469
 21
506.37764704048737
  0
LINE
  8
_0-0_90_FRAME
  6
CONTINUOUS
 62
   18
 10
1712.2337245746578
 20
488.55764704056219
 11
1712.2337245746578
 21
524.19764704041791
  0
LINE
  8
_0-0_90_FRAME
  6
CONTINUOUS
 62
   18
 10
1928.0826531451694
 20
422.58121846939957
 11
1928.0826531451694
 21
532.89550418323961
  0
LINE
  8
_0-0_90_FRAME
  6
CONTINUOUS
 62
   18
 10
1928.0826531451694
 20
456.52407561211879
 11
2278.7612245723703
 21
456.52407561211879
  0
TEXT
  8
_0-0_90_FRAME
 62
    7
 10
1929.6037784174614
 20
445.97019487180302
 40
7.5
 41
1
 50
0
  1
作 成 日
  0
LINE
  8
_0-0_90_FRAME
  6
CONTINUOUS
 62
   18
 10
2135.4897960014878
 20
456.52407561211879
 11
2135.4897960014878
 21
422.58121846939957
  0
TEXT
  8
_0-0_90_FRAME
 62
    7
 10
2137.2709612421386
 20
445.76277206735904
 40
7.5
 41
1
 50
0
  1
個数
  0
TEXT
  8
_0-0_90_FRAME
 62
    7
 10
1857.9424948723788
 20
523.06219992468596
 40
7.5
 41
1
 50
0
  1
サイズ
  0
TEXT
  8
_0-0_90_FRAME
 62
    7
 10
1775.206780587001
 20
522.50283842746467
 40
7.5
 41
1
 50
0
  1
尺　度
  0
TEXT
  8
_0-0_90_FRAME
 62
    7
 10
1857.9425405816364
 20
470.02648563918677
 40
7.5
 41
1
 50
0
  1
製　図
  0
LINE
  8
_0-0_90_FRAME
  6
CONTINUOUS
 62
   18
 10
1928.0826531451694
 20
479.85978989773776
 11
1684.7612245747687
 21
479.85978989773776
  0
LINE
  8
_0-0_90_FRAME
  6
CONTINUOUS
 62
   18
 10
2041.3683548681236
 20
490.46693275483813
 11
2278.7612245723703
 21
490.46693275483813
  0
TEXT
  8
_0-0_90_FRAME
 62
    7
 10
1882.5936031090769
 20
492.58950345820841
 40
15
 41
1
 50
0
  1
A2
  0
LINE
  8
_0-0_90_FRAME
  6
CONTINUOUS
 62
   18
 10
1856.5969388597887
 20
422.58121846939957
 11
1856.5969388597887
 21
532.89550418323961
  0
TEXT
  8
_0-0_90_FRAME
 62
    2
 10
1737.2470142009506
 20
434.25468493537238
 40
15
 41
1
 50
0
  1
アクアトリム
  0
LINE
  8
_0-0_90_FRAME
  6
CONTINUOUS
 62
    4
 10
1732.6324395639531
 20
472.59463222949398
 11
1732.6324395639531
 21
428.21509656767148
  0
LINE
  8
_0-0_90_FRAME
  6
CONTINUOUS
 62
    4
 10
1732.6324395639531
 20
428.21509656767148
 11
1692.2874071441147
 21
428.21509656767148
  0
LINE
  8
_0-0_90_FRAME
  6
CONTINUOUS
 62
    4
 10
1692.2874071441147
 20
428.21509656767148
 11
1692.2874071441147
 21
472.59463222949398
  0
LINE
  8
_0-0_90_FRAME
  6
CONTINUOUS
 62
    4
 10
1692.4795263461142
 20
472.40251302749311
 11
1692.4795263461142
 21
472.40251302749311
  0
LINE
  8
_0-0_90_FRAME
  6
CONTINUOUS
 62
    4
 10
1692.4795263461142
 20
472.40251302749311
 11
1692.5787629066217
 21
471.4016785478334
  0
LINE
  8
_0-0_90_FRAME
  6
CONTINUOUS
 62
    4
 10
1692.5787629066217
 20
471.4016785478334
 11
1692.8734573354695
 21
470.43125391739147
  0
LINE
  8
_0-0_90_FRAME
  6
CONTINUOUS
 62
    4
 10
1692.8734573354695
 20
470.43125391739147
 11
1693.3546554915597
 21
469.52072499750477
  0
LINE
  8
_0-0_90_FRAME
  6
CONTINUOUS
 62
    4
 10
1693.3546554915597
 20
469.52072499750477
 11
1694.0077364124172
 21
468.69775774865411
  0
LINE
  8
_0-0_90_FRAME
  6
CONTINUOUS
 62
    4
 10
1694.0077364124172
 20
468.69775774865411
 11
1694.8128565647369
 21
467.98735761425439
  0
LINE
  8
_0-0_90_FRAME
  6
CONTINUOUS
 62
    4
 10
1694.8128565647369
 20
467.98735761425439
 11
1695.745552780101
 21
467.41110974290945
  0
LINE
  8
_0-0_90_FRAME
  6
CONTINUOUS
 62
    4
 10
1695.745552780101
 20
467.41110974290945
 11
1696.7774855559726
 21
466.98652313459468
  0
LINE
  8
_0-0_90_FRAME
  6
CONTINUOUS
 62
    4
 10
1696.7774855559726
 20
466.98652313459468
 11
1697.8773001371401
 21
466.72649863855247
  0
LINE
  8
_0-0_90_FRAME
  6
CONTINUOUS
 62
    4
 10
1697.8773001371401
 20
466.72649863855247
 11
1699.0115792140878
 21
466.63893696751637
  0
LINE
  8
_0-0_90_FRAME
  6
CONTINUOUS
 62
    4
 10
1699.0115792140878
 20
466.63893696751637
 11
1700.1458582910354
 21
466.72649863855247
  0
LINE
  8
_0-0_90_FRAME
  6
CONTINUOUS
 62
    4
 10
1700.1458582910354
 20
466.72649863855247
 11
1701.2456728722029
 21
466.98652313459468
  0
LINE
  8
_0-0_90_FRAME
  6
CONTINUOUS
 62
    4
 10
1701.2456728722029
 20
466.98652313459468
 11
1702.2776056480745
 21
467.41110974290945
  0
LINE
  8
_0-0_90_FRAME
  6
CONTINUOUS
 62
    4
 10
1702.2776056480745
 20
467.41110974290945
 11
1703.2103018634386
 21
467.98735761425439
  0
LINE
  8
_0-0_90_FRAME
  6
CONTINUOUS
 62
    4
 10
1703.2103018634386
 20
467.98735761425439
 11
1704.0154220157583
 21
468.69775774865411
  0
LINE
  8
_0-0_90_FRAME
  6
CONTINUOUS
 62
    4
 10
1704.0154220157583
 20
468.69775774865411
 11
1704.6685029366158
 21
469.52072499750477
  0
LINE
  8
_0-0_90_FRAME
  6
CONTINUOUS
 62
    4
 10
1704.6685029366158
 20
469.52072499750477
 11
1705.149701092706
 21
470.43125391739147
  0
LINE
  8
_0-0_90_FRAME
  6
CONTINUOUS
 62
    4
 10
1705.149701092706
 20
470.43125391739147
 11
1705.4443955215538
 21
471.4016785478334
  0
LINE
  8
_0-0_90_FRAME
  6
CONTINUOUS
 62
    4
 10
1705.4443955215538
 20
471.4016785478334
 11
1705.5436320820613
 21
472.40251302749311
  0
LINE
  8
_0-0_90_FRAME
  6
CONTINUOUS
 62
    4
 10
1705.5436320820613
 20
472.40251302749311
 11
1705.5436320820613
 21
472.40251302749311
  0
ARC
  8
_0-0_90_FRAME
  6
CONTINUOUS
 62
    4
 10
1705.7357512840608
 20
472.40251302749311
 40
0.1921192019992238
 50
0
 51
180
  0
LINE
  8
_0-0_90_FRAME
  6
CONTINUOUS
 62
    4
 10
1705.9278704860603
 20
472.40251302749311
 11
1705.9278704860603
 21
472.40251302749311
  0
LINE
  8
_0-0_90_FRAME
  6
CONTINUOUS
 62
    4
 10
1705.9278704860603
 20
472.40251302749311
 11
1706.0271070465678
 21
471.4016785478334
  0
LINE
  8
_0-0_90_FRAME
  6
CONTINUOUS
 62
    4
 10
1706.0271070465678
 20
471.4016785478334
 11
1706.3218014754157
 21
470.43125391739147
  0
LINE
  8
_0-0_90_FRAME
  6
CONTINUOUS
 62
    4
 10
1706.3218014754157
 20
470.43125391739147
 11
1706.8029996315058
 21
469.52072499750477
  0
LINE
  8
_0-0_90_FRAME
  6
CONTINUOUS
 62
    4
 10
1706.8029996315058
 20
469.52072499750477
 11
1707.4560805523633
 21
468.69775774865411
  0
LINE
  8
_0-0_90_FRAME
  6
CONTINUOUS
 62
    4
 10
1707.4560805523633
 20
468.69775774865411
 11
1708.261200704683
 21
467.98735761425439
  0
LINE
  8
_0-0_90_FRAME
  6
CONTINUOUS
 62
    4
 10
1708.261200704683
 20
467.98735761425439
 11
1709.1938969200471
 21
467.41110974290945
  0
LINE
  8
_0-0_90_FRAME
  6
CONTINUOUS
 62
    4
 10
1709.1938969200471
 20
467.41110974290945
 11
1710.2258296959187
 21
466.98652313459468
  0
LINE
  8
_0-0_90_FRAME
  6
CONTINUOUS
 62
    4
 10
1710.2258296959187
 20
466.98652313459468
 11
1711.3256442770862
 21
466.72649863855247
  0
LINE
  8
_0-0_90_FRAME
  6
CONTINUOUS
 62
    4
 10
1711.3256442770862
 20
466.72649863855247
 11
1712.4599233540339
 21
466.63893696751637
  0
LINE
  8
_0-0_90_FRAME
  6
CONTINUOUS
 62
    4
 10
1712.4599233540339
 20
466.63893696751637
 11
1713.5942024309816
 21
466.72649863855247
  0
LINE
  8
_0-0_90_FRAME
  6
CONTINUOUS
 62
    4
 10
1713.5942024309816
 20
466.72649863855247
 11
1714.6940170121491
 21
466.98652313459468
  0
LINE
  8
_0-0_90_FRAME
  6
CONTINUOUS
 62
    4
 10
1714.6940170121491
 20
466.98652313459468
 11
1715.7259497880207
 21
467.41110974290945
  0
LINE
  8
_0-0_90_FRAME
  6
CONTINUOUS
 62
    4
 10
1715.7259497880207
 20
467.41110974290945
 11
1716.6586460033848
 21
467.98735761425439
  0
LINE
  8
_0-0_90_FRAME
  6
CONTINUOUS
 62
    4
 10
1716.6586460033848
 20
467.98735761425439
 11
1717.4637661557044
 21
468.69775774865411
  0
LINE
  8
_0-0_90_FRAME
  6
CONTINUOUS
 62
    4
 10
1717.4637661557044
 20
468.69775774865411
 11
1718.116847076562
 21
469.52072499750477
  0
LINE
  8
_0-0_90_FRAME
  6
CONTINUOUS
 62
    4
 10
1718.116847076562
 20
469.52072499750477
 11
1718.5980452326521
 21
470.43125391739147
  0
LINE
  8
_0-0_90_FRAME
  6
CONTINUOUS
 62
    4
 10
1718.5980452326521
 20
470.43125391739147
 11
1718.8927396614999
 21
471.4016785478334
  0
LINE
  8
_0-0_90_FRAME
  6
CONTINUOUS
 62
    4
 10
1718.8927396614999
 20
471.4016785478334
 11
1718.9919762220075
 21
472.40251302749311
  0
LINE
  8
_0-0_90_FRAME
  6
CONTINUOUS
 62
    4
 10
1718.9919762220075
 20
472.40251302749311
 11
1718.9919762220075
 21
472.40251302749311
  0
ARC
  8
_0-0_90_FRAME
  6
CONTINUOUS
 62
    4
 10
1719.184095424007
 20
472.40251302749311
 40
0.1921192019992238
 50
0
 51
180
  0
LINE
  8
_0-0_90_FRAME
  6
CONTINUOUS
 62
    4
 10
1719.3762146260065
 20
472.40251302749311
 11
1719.3762146260065
 21
472.40251302749311
  0
LINE
  8
_0-0_90_FRAME
  6
CONTINUOUS
 62
    4
 10
1719.3762146260065
 20
472.40251302749311
 11
1719.475451186514
 21
471.4016785478334
  0
LINE
  8
_0-0_90_FRAME
  6
CONTINUOUS
 62
    4
 10
1719.475451186514
 20
471.4016785478334
 11
1719.7701456153618
 21
470.43125391739147
  0
LINE
  8
_0-0_90_FRAME
  6
CONTINUOUS
 62
    4
 10
1719.7701456153618
 20
470.43125391739147
 11
1720.251343771452
 21
469.52072499750477
  0
LINE
  8
_0-0_90_FRAME
  6
CONTINUOUS
 62
    4
 10
1720.251343771452
 20
469.52072499750477
 11
1720.9044246923095
 21
468.69775774865411
  0
LINE
  8
_0-0_90_FRAME
  6
CONTINUOUS
 62
    4
 10
1720.9044246923095
 20
468.69775774865411
 11
1721.7095448446291
 21
467.98735761425439
  0
LINE
  8
_0-0_90_FRAME
  6
CONTINUOUS
 62
    4
 10
1721.7095448446291
 20
467.98735761425439
 11
1722.6422410599932
 21
467.41110974290945
  0
LINE
  8
_0-0_90_FRAME
  6
CONTINUOUS
 62
    4
 10
1722.6422410599932
 20
467.41110974290945
 11
1723.6741738358648
 21
466.98652313459468
  0
LINE
  8
_0-0_90_FRAME
  6
CONTINUOUS
 62
    4
 10
1723.6741738358648
 20
466.98652313459468
 11
1724.7739884170323
 21
466.72649863855247
  0
LINE
  8
_0-0_90_FRAME
  6
CONTINUOUS
 62
    4
 10
1724.7739884170323
 20
466.72649863855247
 11
1725.90826749398
 21
466.63893696751637
  0
LINE
  8
_0-0_90_FRAME
  6
CONTINUOUS
 62
    4
 10
1725.90826749398
 20
466.63893696751637
 11
1727.0425465709277
 21
466.72649863855247
  0
LINE
  8
_0-0_90_FRAME
  6
CONTINUOUS
 62
    4
 10
1727.0425465709277
 20
466.72649863855247
 11
1728.1423611520952
 21
466.98652313459468
  0
LINE
  8
_0-0_90_FRAME
  6
CONTINUOUS
 62
    4
 10
1728.1423611520952
 20
466.98652313459468
 11
1729.1742939279668
 21
467.41110974290945
  0
LINE
  8
_0-0_90_FRAME
  6
CONTINUOUS
 62
    4
 10
1729.1742939279668
 20
467.41110974290945
 11
1730.1069901433309
 21
467.98735761425439
  0
LINE
  8
_0-0_90_FRAME
  6
CONTINUOUS
 62
    4
 10
1730.1069901433309
 20
467.98735761425439
 11
1730.9121102956506
 21
468.69775774865411
  0
LINE
  8
_0-0_90_FRAME
  6
CONTINUOUS
 62
    4
 10
1730.9121102956506
 20
468.69775774865411
 11
1731.5651912165081
 21
469.52072499750477
  0
LINE
  8
_0-0_90_FRAME
  6
CONTINUOUS
 62
    4
 10
1731.5651912165081
 20
469.52072499750477
 11
1732.0463893725982
 21
470.43125391739147
  0
LINE
  8
_0-0_90_FRAME
  6
CONTINUOUS
 62
    4
 10
1732.0463893725982
 20
470.43125391739147
 11
1732.3410838014461
 21
471.4016785478334
  0
LINE
  8
_0-0_90_FRAME
  6
CONTINUOUS
 62
    4
 10
1732.3410838014461
 20
471.4016785478334
 11
1732.4403203619536
 21
472.40251302749311
  0
LINE
  8
_0-0_90_FRAME
  6
CONTINUOUS
 62
    4
 10
1732.4403203619536
 20
472.40251302749311
 11
1732.4403203619536
 21
472.40251302749311
  0
ARC
  8
_0-0_90_FRAME
  6
CONTINUOUS
 62
    4
 10
1732.6324395639531
 20
472.40251302749311
 40
0.1921192019992238
 50
90
 51
180
  0
ARC
  8
_0-0_90_FRAME
  6
CONTINUOUS
 62
    4
 10
1705.7357512840608
 20
472.40251302749311
 40
0.1921192019992238
 50
0
 51
90
  0
ARC
  8
_0-0_90_FRAME
  6
CONTINUOUS
 62
    4
 10
1692.2874071441147
 20
472.40251302749311
 40
0.1921192019992238
 50
0
 51
90
  0
LINE
  8
_0-0_90_FRAME
  6
CONTINUOUS
 62
    4
 10
1696.8982679920973
 20
433.97867262764839
 11
1699.2036984160859
 21
433.97867262764839
  0
LINE
  8
_0-0_90_FRAME
  6
CONTINUOUS
 62
    4
 10
1699.2036984160859
 20
433.97867262764839
 11
1699.2036984160859
 21
431.67324220365845
  0
LINE
  8
_0-0_90_FRAME
  6
CONTINUOUS
 62
    4
 10
1699.2036984160859
 20
431.67324220365845
 11
1696.8982679920973
 21
431.67324220365845
  0
LINE
  8
_0-0_90_FRAME
  6
CONTINUOUS
 62
    4
 10
1696.8982679920973
 20
433.97867262764839
 11
1696.8982679920973
 21
431.67324220365845
  0
LINE
  8
_0-0_90_FRAME
  6
CONTINUOUS
 62
    4
 10
1728.0215787159707
 20
433.97867262764839
 11
1725.7161482919819
 21
433.97867262764839
  0
LINE
  8
_0-0_90_FRAME
  6
CONTINUOUS
 62
    4
 10
1725.7161482919819
 20
433.97867262764839
 11
1725.7161482919819
 21
431.67324220365845
  0
LINE
  8
_0-0_90_FRAME
  6
CONTINUOUS
 62
    4
 10
1725.7161482919819
 20
431.67324220365845
 11
1728.0215787159707
 21
431.67324220365845
  0
LINE
  8
_0-0_90_FRAME
  6
CONTINUOUS
 62
    4
 10
1728.0215787159707
 20
433.97867262764839
 11
1728.0215787159707
 21
431.67324220365845
  0
LINE
  8
_0-0_90_FRAME
  6
CONTINUOUS
 62
    4
 10
1702.6618440520742
 20
433.97867262764839
 11
1704.9672744760628
 21
433.97867262764839
  0
LINE
  8
_0-0_90_FRAME
  6
CONTINUOUS
 62
    4
 10
1704.9672744760628
 20
433.97867262764839
 11
1704.9672744760628
 21
431.67324220365845
  0
LINE
  8
_0-0_90_FRAME
  6
CONTINUOUS
 62
    4
 10
1704.9672744760628
 20
431.67324220365845
 11
1702.6618440520742
 21
431.67324220365845
  0
LINE
  8
_0-0_90_FRAME
  6
CONTINUOUS
 62
    4
 10
1702.6618440520742
 20
433.97867262764839
 11
1702.6618440520742
 21
431.67324220365845
  0
LINE
  8
_0-0_90_FRAME
  6
CONTINUOUS
 62
    4
 10
1708.4254201120511
 20
433.97867262764839
 11
1710.7308505360397
 21
433.97867262764839
  0
LINE
  8
_0-0_90_FRAME
  6
CONTINUOUS
 62
    4
 10
1710.7308505360397
 20
433.97867262764839
 11
1710.7308505360397
 21
431.67324220365845
  0
LINE
  8
_0-0_90_FRAME
  6
CONTINUOUS
 62
    4
 10
1710.7308505360397
 20
431.67324220365845
 11
1708.4254201120511
 21
431.67324220365845
  0
LINE
  8
_0-0_90_FRAME
  6
CONTINUOUS
 62
    4
 10
1708.4254201120511
 20
433.97867262764839
 11
1708.4254201120511
 21
431.67324220365845
  0
LINE
  8
_0-0_90_FRAME
  6
CONTINUOUS
 62
    4
 10
1714.1889961720281
 20
433.97867262764839
 11
1716.4944265960166
 21
433.97867262764839
  0
LINE
  8
_0-0_90_FRAME
  6
CONTINUOUS
 62
    4
 10
1716.4944265960166
 20
433.97867262764839
 11
1716.4944265960166
 21
431.67324220365845
  0
LINE
  8
_0-0_90_FRAME
  6
CONTINUOUS
 62
    4
 10
1716.4944265960166
 20
431.67324220365845
 11
1714.1889961720281
 21
431.67324220365845
  0
LINE
  8
_0-0_90_FRAME
  6
CONTINUOUS
 62
    4
 10
1714.1889961720281
 20
433.97867262764839
 11
1714.1889961720281
 21
431.67324220365845
  0
LINE
  8
_0-0_90_FRAME
  6
CONTINUOUS
 62
    4
 10
1719.952572232005
 20
433.97867262764839
 11
1722.2580026559936
 21
433.97867262764839
  0
LINE
  8
_0-0_90_FRAME
  6
CONTINUOUS
 62
    4
 10
1722.2580026559936
 20
433.97867262764839
 11
1722.2580026559936
 21
431.67324220365845
  0
LINE
  8
_0-0_90_FRAME
  6
CONTINUOUS
 62
    4
 10
1722.2580026559936
 20
431.67324220365845
 11
1719.952572232005
 21
431.67324220365845
  0
LINE
  8
_0-0_90_FRAME
  6
CONTINUOUS
 62
    4
 10
1719.952572232005
 20
433.97867262764839
 11
1719.952572232005
 21
431.67324220365845
  0
LINE
  8
_0-0_90_FRAME
  6
CONTINUOUS
 62
    4
 10
1712.4360514034283
 20
455.91595332339062
 11
1712.4360514034283
 21
455.91595332339062
  0
LINE
  8
_0-0_90_FRAME
  6
CONTINUOUS
 62
    4
 10
1712.4360514034283
 20
455.91595332339062
 11
1712.3689207889672
 21
456.64989860847442
  0
LINE
  8
_0-0_90_FRAME
  6
CONTINUOUS
 62
    4
 10
1712.3689207889672
 20
456.64989860847442
 11
1712.1695686753349
 21
457.36154333746515
  0
LINE
  8
_0-0_90_FRAME
  6
CONTINUOUS
 62
    4
 10
1712.1695686753349
 20
457.36154333746515
 11
1711.8440522756268
 21
458.02926454538209
  0
LINE
  8
_0-0_90_FRAME
  6
CONTINUOUS
 62
    4
 10
1711.8440522756268
 20
458.02926454538209
 11
1711.4022622409291
 21
458.63277386120586
  0
LINE
  8
_0-0_90_FRAME
  6
CONTINUOUS
 62
    4
 10
1711.4022622409291
 20
458.63277386120586
 11
1710.8576221378894
 21
459.1537339597657
  0
LINE
  8
_0-0_90_FRAME
  6
CONTINUOUS
 62
    4
 10
1710.8576221378894
 20
459.1537339597657
 11
1710.2266805804372
 21
459.57631573208533
  0
LINE
  8
_0-0_90_FRAME
  6
CONTINUOUS
 62
    4
 10
1710.2266805804372
 20
459.57631573208533
 11
1709.528608408524
 21
459.88767924484949
  0
LINE
  8
_0-0_90_FRAME
  6
CONTINUOUS
 62
    4
 10
1709.528608408524
 20
459.88767924484949
 11
1708.7846161918519
 21
460.07836387528039
  0
LINE
  8
_0-0_90_FRAME
  6
CONTINUOUS
 62
    4
 10
1708.7846161918519
 20
460.07836387528039
 11
1708.0173097574461
 21
460.14257576737356
  0
LINE
  8
_0-0_90_FRAME
  6
CONTINUOUS
 62
    4
 10
1708.0173097574461
 20
460.14257576737356
 11
1707.2500033230403
 21
460.07836387528039
  0
LINE
  8
_0-0_90_FRAME
  6
CONTINUOUS
 62
    4
 10
1707.2500033230403
 20
460.07836387528039
 11
1706.5060111063683
 21
459.88767924484949
  0
LINE
  8
_0-0_90_FRAME
  6
CONTINUOUS
 62
    4
 10
1706.5060111063683
 20
459.88767924484949
 11
1705.807938934455
 21
459.57631573208533
  0
LINE
  8
_0-0_90_FRAME
  6
CONTINUOUS
 62
    4
 10
1705.807938934455
 20
459.57631573208533
 11
1705.1769973770029
 21
459.1537339597657
  0
LINE
  8
_0-0_90_FRAME
  6
CONTINUOUS
 62
    4
 10
1705.1769973770029
 20
459.1537339597657
 11
1704.6323572739632
 21
458.63277386120592
  0
LINE
  8
_0-0_90_FRAME
  6
CONTINUOUS
 62
    4
 10
1704.6323572739632
 20
458.63277386120592
 11
1704.1905672392654
 21
458.02926454538209
  0
LINE
  8
_0-0_90_FRAME
  6
CONTINUOUS
 62
    4
 10
1704.1905672392654
 20
458.02926454538209
 11
1703.8650508395574
 21
457.36154333746515
  0
LINE
  8
_0-0_90_FRAME
  6
CONTINUOUS
 62
    4
 10
1703.8650508395574
 20
457.36154333746515
 11
1703.665698725925
 21
456.64989860847442
  0
LINE
  8
_0-0_90_FRAME
  6
CONTINUOUS
 62
    4
 10
1703.665698725925
 20
456.64989860847442
 11
1703.5985681114639
 21
455.91595332339062
  0
LINE
  8
_0-0_90_FRAME
  6
CONTINUOUS
 62
    4
 10
1703.5985681114639
 20
455.91595332339062
 11
1703.5985681114639
 21
455.91595332339062
  0
LINE
  8
_0-0_90_FRAME
  6
CONTINUOUS
 62
    4
 10
1712.4360514034279
 20
455.91595332339062
 11
1712.4360514034279
 21
454.76323811139491
  0
LINE
  8
_0-0_90_FRAME
  6
CONTINUOUS
 62
    4
 10
1710.3512699844528
 20
451.17431712678632
 11
1710.3512699844528
 21
451.17431712678632
  0
LINE
  8
_0-0_90_FRAME
  6
CONTINUOUS
 62
    4
 10
1710.3512699844528
 20
451.17431712678632
 11
1709.6642745868762
 21
450.84117417542723
  0
LINE
  8
_0-0_90_FRAME
  6
CONTINUOUS
 62
    4
 10
1709.6642745868762
 20
450.84117417542723
 11
1708.9272369963617
 21
450.62720115210243
  0
LINE
  8
_0-0_90_FRAME
  6
CONTINUOUS
 62
    4
 10
1708.9272369963617
 20
450.62720115210243
 11
1708.1625517271382
 21
450.53889951884997
  0
LINE
  8
_0-0_90_FRAME
  6
CONTINUOUS
 62
    4
 10
1708.1625517271382
 20
450.53889951884997
 11
1707.3934533541617
 21
450.57895227611357
  0
LINE
  8
_0-0_90_FRAME
  6
CONTINUOUS
 62
    4
 10
1707.3934533541617
 20
450.57895227611357
 11
1706.6433105423123
 21
450.74614244113138
  0
LINE
  8
_0-0_90_FRAME
  6
CONTINUOUS
 62
    4
 10
1706.6433105423123
 20
450.74614244113138
 11
1705.9349160013376
 21
451.03539002534166
  0
LINE
  8
_0-0_90_FRAME
  6
CONTINUOUS
 62
    4
 10
1705.9349160013376
 20
451.03539002534166
 11
1705.2897939409002
 21
451.43790638726455
  0
LINE
  8
_0-0_90_FRAME
  6
CONTINUOUS
 62
    4
 10
1705.2897939409002
 20
451.43790638726455
 11
1704.7275460683591
 21
451.94146127092608
  0
LINE
  8
_0-0_90_FRAME
  6
CONTINUOUS
 62
    4
 10
1704.7275460683591
 20
451.94146127092608
 11
1704.2652560008098
 21
452.53075441599725
  0
LINE
  8
_0-0_90_FRAME
  6
CONTINUOUS
 62
    4
 10
1704.2652560008098
 20
452.53075441599725
 11
1703.9169701880253
 21
453.18788044846184
  0
LINE
  8
_0-0_90_FRAME
  6
CONTINUOUS
 62
    4
 10
1703.9169701880253
 20
453.18788044846184
 11
1703.6932711181857
 21
453.89287292634521
  0
LINE
  8
_0-0_90_FRAME
  6
CONTINUOUS
 62
    4
 10
1703.6932711181857
 20
453.89287292634521
 11
1703.6009557743309
 21
454.62431100995025
  0
LINE
  8
_0-0_90_FRAME
  6
CONTINUOUS
 62
    4
 10
1703.6009557743309
 20
454.62431100995025
 11
1703.5985681114639
 21
454.76323811139491
  0
LINE
  8
_0-0_90_FRAME
  6
CONTINUOUS
 62
    4
 10
1710.8348996110644
 20
455.80291406767896
 11
1710.8348996110644
 21
454.88074189808282
  0
LINE
  8
_0-0_90_FRAME
  6
CONTINUOUS
 62
    4
 10
1721.3931488920771
 20
454.41568992461811
 11
1721.3931488920771
 21
460.14257576737424
  0
LINE
  8
_0-0_90_FRAME
  6
CONTINUOUS
 62
    4
 10
1719.6640760740829
 20
454.76323811139491
 11
1719.6640760740829
 21
460.14257576737424
  0
LINE
  8
_0-0_90_FRAME
  6
CONTINUOUS
 62
    4
 10
1719.6640760740829
 20
460.14257576737424
 11
1721.3931488920771
 21
460.14257576737424
  0
LINE
  8
_0-0_90_FRAME
  6
CONTINUOUS
 62
    4
 10
1713.3241424081091
 20
454.41568992461811
 11
1713.3241424081091
 21
460.14257576737424
  0
LINE
  8
_0-0_90_FRAME
  6
CONTINUOUS
 62
    4
 10
1715.0532152261032
 20
454.76323811139491
 11
1715.0532152261032
 21
460.14257576737424
  0
ARC
  8
_0-0_90_FRAME
  6
CONTINUOUS
 62
    4
 10
1717.3855003624358
 20
454.58946401800853
 40
4.0650739069189488
 50
182.45003099226136
 51
265.55525728852427
  0
LINE
  8
_0-0_90_FRAME
  6
CONTINUOUS
 62
    4
 10
1715.0532152261032
 20
460.14257576737424
 11
1713.3241424081091
 21
460.14257576737424
  0
LINE
  8
_0-0_90_FRAME
  6
CONTINUOUS
 62
    4
 10
1717.6468244530915
 20
450.53661566741266
 11
1717.0704668470944
 21
450.53661566741266
  0
ARC
  8
_0-0_90_FRAME
  6
CONTINUOUS
 62
    4
 10
1718.482929229709
 20
454.71850796542685
 40
3.4300056752869819
 50
179.25279388138676
 51
218.96457184688023
  0
ARC
  8
_0-0_90_FRAME
  6
CONTINUOUS
 62
    4
 10
1716.2343620704769
 20
454.71850796542685
 40
3.4300056752865955
 50
321.03542815311977
 51
0.747206118613265
  0
ARC
  8
_0-0_90_FRAME
  6
CONTINUOUS
 62
    4
 10
1717.3586456500943
 20
455.36278513332394
 40
3.1978969011000955
 50
241.1577278083189
 51
298.8422721916811
  0
LINE
  8
_0-0_90_FRAME
  6
CONTINUOUS
 62
    4
 10
1708.3897261952325
 20
453.08336892727766
 11
1709.1741920734776
 21
452.31989578662382
  0
LINE
  8
_0-0_90_FRAME
  6
CONTINUOUS
 62
    4
 10
1708.3897261952325
 20
453.08336892727766
 11
1709.2407100881928
 21
453.9869953051525
  0
LINE
  8
_0-0_90_FRAME
  6
CONTINUOUS
 62
    4
 10
1711.6869834898789
 20
449.8743480481026
 11
1712.7988780401047
 21
451.05502520699065
  0
LINE
  8
_0-0_90_FRAME
  6
CONTINUOUS
 62
    4
 10
1705.1997199038281
 20
455.80291406767896
 11
1705.1997199038281
 21
454.88074189808282
  0
LINE
  8
_0-0_90_FRAME
  6
CONTINUOUS
 62
    4
 10
1710.8348996110642
 20
455.80291406767896
 11
1710.8348996110642
 21
455.80291406767896
  0
LINE
  8
_0-0_90_FRAME
  6
CONTINUOUS
 62
    4
 10
1710.8348996110642
 20
455.80291406767896
 11
1710.7920940900979
 21
456.28959921894602
  0
LINE
  8
_0-0_90_FRAME
  6
CONTINUOUS
 62
    4
 10
1710.7920940900979
 20
456.28959921894602
 11
1710.6649781512924
 21
456.7614966881664
  0
LINE
  8
_0-0_90_FRAME
  6
CONTINUOUS
 62
    4
 10
1710.6649781512924
 20
456.7614966881664
 11
1710.4574141481246
 21
457.20426810952955
  0
LINE
  8
_0-0_90_FRAME
  6
CONTINUOUS
 62
    4
 10
1710.4574141481246
 20
457.20426810952955
 11
1710.1757088077986
 21
457.60446009745033
  0
LINE
  8
_0-0_90_FRAME
  6
CONTINUOUS
 62
    4
 10
1710.1757088077986
 20
457.60446009745033
 11
1709.8284216045304
 21
457.94991302088283
  0
LINE
  8
_0-0_90_FRAME
  6
CONTINUOUS
 62
    4
 10
1709.8284216045304
 20
457.94991302088283
 11
1709.4261046842553
 21
458.23013046755614
  0
LINE
  8
_0-0_90_FRAME
  6
CONTINUOUS
 62
    4
 10
1709.4261046842553
 20
458.23013046755614
 11
1708.9809822430136
 21
458.4365981721499
  0
LINE
  8
_0-0_90_FRAME
  6
CONTINUOUS
 62
    4
 10
1708.9809822430136
 20
458.4365981721499
 11
1708.5065791009397
 21
458.56304271793783
  0
LINE
  8
_0-0_90_FRAME
  6
CONTINUOUS
 62
    4
 10
1708.5065791009397
 20
458.56304271793783
 11
1708.0173097574461
 21
458.60562215138009
  0
LINE
  8
_0-0_90_FRAME
  6
CONTINUOUS
 62
    4
 10
1708.0173097574461
 20
458.60562215138009
 11
1707.5280404139526
 21
458.56304271793783
  0
LINE
  8
_0-0_90_FRAME
  6
CONTINUOUS
 62
    4
 10
1707.5280404139526
 20
458.56304271793783
 11
1707.0536372718786
 21
458.4365981721499
  0
LINE
  8
_0-0_90_FRAME
  6
CONTINUOUS
 62
    4
 10
1707.0536372718786
 20
458.4365981721499
 11
1706.608514830637
 21
458.23013046755614
  0
LINE
  8
_0-0_90_FRAME
  6
CONTINUOUS
 62
    4
 10
1706.608514830637
 20
458.23013046755614
 11
1706.2061979103619
 21
457.94991302088283
  0
LINE
  8
_0-0_90_FRAME
  6
CONTINUOUS
 62
    4
 10
1706.2061979103619
 20
457.94991302088283
 11
1705.8589107070936
 21
457.60446009745033
  0
LINE
  8
_0-0_90_FRAME
  6
CONTINUOUS
 62
    4
 10
1705.8589107070936
 20
457.60446009745033
 11
1705.5772053667677
 21
457.20426810952955
  0
LINE
  8
_0-0_90_FRAME
  6
CONTINUOUS
 62
    4
 10
1705.5772053667677
 20
457.20426810952955
 11
1705.3696413635998
 21
456.7614966881664
  0
LINE
  8
_0-0_90_FRAME
  6
CONTINUOUS
 62
    4
 10
1705.3696413635998
 20
456.7614966881664
 11
1705.2425254247944
 21
456.28959921894602
  0
LINE
  8
_0-0_90_FRAME
  6
CONTINUOUS
 62
    4
 10
1705.2425254247944
 20
456.28959921894602
 11
1705.1997199038281
 21
455.80291406767896
  0
LINE
  8
_0-0_90_FRAME
  6
CONTINUOUS
 62
    4
 10
1705.1997199038281
 20
455.80291406767896
 11
1705.1997199038281
 21
455.80291406767896
  0
LINE
  8
_0-0_90_FRAME
  6
CONTINUOUS
 62
    4
 10
1709.1741920734771
 20
452.31989578662342
 11
1709.1741920734771
 21
452.31989578662342
  0
LINE
  8
_0-0_90_FRAME
  6
CONTINUOUS
 62
    4
 10
1709.1741920734771
 20
452.31989578662342
 11
1708.7104907809944
 21
452.15883971753078
  0
LINE
  8
_0-0_90_FRAME
  6
CONTINUOUS
 62
    4
 10
1708.7104907809944
 20
452.15883971753078
 11
1708.2257275338779
 21
452.08035161633074
  0
LINE
  8
_0-0_90_FRAME
  6
CONTINUOUS
 62
    4
 10
1708.2257275338779
 20
452.08035161633074
 11
1707.734631618089
 21
452.08681630426133
  0
LINE
  8
_0-0_90_FRAME
  6
CONTINUOUS
 62
    4
 10
1707.734631618089
 20
452.08681630426133
 11
1707.2521247345223
 21
452.17803735505106
  0
LINE
  8
_0-0_90_FRAME
  6
CONTINUOUS
 62
    4
 10
1707.2521247345223
 20
452.17803735505106
 11
1706.7928676106749
 21
452.35124306323172
  0
LINE
  8
_0-0_90_FRAME
  6
CONTINUOUS
 62
    4
 10
1706.7928676106749
 20
452.35124306323172
 11
1706.3708145418595
 21
452.60117066100662
  0
LINE
  8
_0-0_90_FRAME
  6
CONTINUOUS
 62
    4
 10
1706.3708145418595
 20
452.60117066100662
 11
1705.9987893970028
 21
452.92022622478686
  0
LINE
  8
_0-0_90_FRAME
  6
CONTINUOUS
 62
    4
 10
1705.9987893970028
 20
452.92022622478686
 11
1705.6880959718778
 21
453.29871541271683
  0
LINE
  8
_0-0_90_FRAME
  6
CONTINUOUS
 62
    4
 10
1705.6880959718778
 20
453.29871541271683
 11
1705.4481745289881
 21
453.72513802234607
  0
LINE
  8
_0-0_90_FRAME
  6
CONTINUOUS
 62
    4
 10
1705.4481745289881
 20
453.72513802234607
 11
1705.28631495997
 21
454.18653741846123
  0
LINE
  8
_0-0_90_FRAME
  6
CONTINUOUS
 62
    4
 10
1705.28631495997
 20
454.18653741846123
 11
1705.2074352859233
 21
454.66889421389072
  0
LINE
  8
_0-0_90_FRAME
  6
CONTINUOUS
 62
    4
 10
1705.2074352859233
 20
454.66889421389072
 11
1705.1997163667581
 21
454.87627736710647
  0
LINE
  8
_0-0_90_FRAME
  6
CONTINUOUS
 62
    4
 10
1695.1707985886499
 20
450.53661566741266
 11
1696.8953013949715
 21
450.53661566741266
  0
LINE
  8
_0-0_90_FRAME
  6
CONTINUOUS
 62
    4
 10
1695.1707985886499
 20
450.53661566741266
 11
1695.1707985886499
 21
450.58272427589151
  0
LINE
  8
_0-0_90_FRAME
  6
CONTINUOUS
 62
    4
 10
1695.1707985886499
 20
450.58272427589151
 11
1698.7930899696541
 21
460.14257576737424
  0
LINE
  8
_0-0_90_FRAME
  6
CONTINUOUS
 62
    4
 10
1695.1707985886499
 20
450.53661566741266
 11
1695.1707985886499
 21
450.58272427589151
  0
LINE
  8
_0-0_90_FRAME
  6
CONTINUOUS
 62
    4
 10
1697.8354970977834
 20
453.06908398197038
 11
1701.3820072118779
 21
453.06908398197038
  0
LINE
  8
_0-0_90_FRAME
  6
CONTINUOUS
 62
    4
 10
1698.3554176989364
 20
454.52918991716388
 11
1700.8620866107278
 21
454.52918991716388
  0
LINE
  8
_0-0_90_FRAME
  6
CONTINUOUS
 62
    4
 10
1704.0082818806131
 20
450.53661566741266
 11
1702.2837790742942
 21
450.53661566741266
  0
LINE
  8
_0-0_90_FRAME
  6
CONTINUOUS
 62
    4
 10
1702.2837790742942
 20
450.53661566741266
 11
1701.3820072118779
 21
453.06908398197038
  0
LINE
  8
_0-0_90_FRAME
  6
CONTINUOUS
 62
    4
 10
1704.0082818806131
 20
450.58272427589151
 11
1700.3859904996089
 21
460.14257576737424
  0
LINE
  8
_0-0_90_FRAME
  6
CONTINUOUS
 62
    4
 10
1704.0082818806131
 20
450.53661566741266
 11
1704.0082818806131
 21
450.58272427589151
  0
LINE
  8
_0-0_90_FRAME
  6
CONTINUOUS
 62
    4
 10
1698.7930899696541
 20
460.14257576737424
 11
1700.3859904996089
 21
460.14257576737424
  0
LINE
  8
_0-0_90_FRAME
  6
CONTINUOUS
 62
    4
 10
1700.8620866107278
 20
454.52918991716388
 11
1699.5895402346314
 21
458.10291350579064
  0
LINE
  8
_0-0_90_FRAME
  6
CONTINUOUS
 62
    4
 10
1709.2407100881928
 20
453.9869953051525
 11
1712.7988780401047
 21
451.05502520699065
  0
LINE
  8
_0-0_90_FRAME
  6
CONTINUOUS
 62
    4
 10
1710.3512699844541
 20
451.17431712678712
 11
1711.6869834898789
 21
449.8743480481026
  0
LINE
  8
_0-0_90_FRAME
  6
CONTINUOUS
 62
    4
 10
1697.8354970977834
 20
453.06908398197038
 11
1698.3554176989364
 21
454.52918991716388
  0
LINE
  8
_0-0_90_FRAME
  6
CONTINUOUS
 62
    4
 10
1712.4360514034283
 20
454.76323811139491
 11
1712.4360514034283
 21
454.76323811139491
  0
LINE
  8
_0-0_90_FRAME
  6
CONTINUOUS
 62
    4
 10
1712.4360514034283
 20
454.76323811139491
 11
1712.3689207889672
 21
454.02929282631112
  0
LINE
  8
_0-0_90_FRAME
  6
CONTINUOUS
 62
    4
 10
1712.3689207889672
 20
454.02929282631112
 11
1712.1695686753349
 21
453.31764809732039
  0
LINE
  8
_0-0_90_FRAME
  6
CONTINUOUS
 62
    4
 10
1712.1695686753349
 20
453.31764809732039
 11
1711.8440522756268
 21
452.64992688940345
  0
LINE
  8
_0-0_90_FRAME
  6
CONTINUOUS
 62
    4
 10
1711.8440522756268
 20
452.64992688940345
 11
1711.5043174194655
 21
452.1671924181552
  0
LINE
  8
_0-0_90_FRAME
  6
CONTINUOUS
 62
    4
 10
1710.8349031481341
 20
454.87627736710647
 11
1710.8349031481341
 21
454.87627736710647
  0
LINE
  8
_0-0_90_FRAME
  6
CONTINUOUS
 62
    4
 10
1710.8349031481341
 20
454.87627736710647
 11
1710.7920975734316
 21
454.3894362332137
  0
LINE
  8
_0-0_90_FRAME
  6
CONTINUOUS
 62
    4
 10
1710.7920975734316
 20
454.3894362332137
 11
1710.6649814750508
 21
453.91738752082074
  0
LINE
  8
_0-0_90_FRAME
  6
CONTINUOUS
 62
    4
 10
1710.6649814750508
 20
453.91738752082074
 11
1710.4574172113171
 21
453.47447419118549
  0
LINE
  8
_0-0_90_FRAME
  6
CONTINUOUS
 62
    4
 10
1710.4574172113171
 20
453.47447419118549
 11
1710.2662736849416
 21
453.18735427079775
  0
LINE
  8
_0-0_90_FRAME
  6
CONTINUOUS
 62
    4
 10
1703.5985681114644
 20
455.91595332339062
 11
1703.5985681114644
 21
454.76323811139491
  0
LINE
  8
_0-0_90_FRAME
  6
CONTINUOUS
 62
    4
 10
1696.8953013949715
 20
450.53661566741266
 11
1699.5895402346314
 21
458.10291350579064
  0
LINE
  8
_0-0_90_FRAME
  6
CONTINUOUS
 62
    4
 10
1721.2958032314509
 20
450.53661566741266
 11
1723.0203060377726
 21
450.53661566741266
  0
LINE
  8
_0-0_90_FRAME
  6
CONTINUOUS
 62
    4
 10
1721.2958032314509
 20
450.53661566741266
 11
1721.2958032314509
 21
450.58272427589151
  0
LINE
  8
_0-0_90_FRAME
  6
CONTINUOUS
 62
    4
 10
1721.2958032314509
 20
450.58272427589151
 11
1724.9180946124579
 21
460.14257576737424
  0
LINE
  8
_0-0_90_FRAME
  6
CONTINUOUS
 62
    4
 10
1721.2958032314509
 20
450.53661566741266
 11
1721.2958032314509
 21
450.58272427589151
  0
LINE
  8
_0-0_90_FRAME
  6
CONTINUOUS
 62
    4
 10
1723.9605017405877
 20
453.06908398197038
 11
1727.5070118546819
 21
453.06908398197038
  0
LINE
  8
_0-0_90_FRAME
  6
CONTINUOUS
 62
    4
 10
1724.4804223417377
 20
454.52918991716388
 11
1726.9870912535316
 21
454.52918991716388
  0
LINE
  8
_0-0_90_FRAME
  6
CONTINUOUS
 62
    4
 10
1730.1332865234172
 20
450.53661566741266
 11
1728.4087837170955
 21
450.53661566741266
  0
LINE
  8
_0-0_90_FRAME
  6
CONTINUOUS
 62
    4
 10
1728.4087837170955
 20
450.53661566741266
 11
1727.5070118546819
 21
453.06908398197038
  0
LINE
  8
_0-0_90_FRAME
  6
CONTINUOUS
 62
    4
 10
1730.1332865234172
 20
450.58272427589151
 11
1726.5109951424129
 21
460.14257576737424
  0
LINE
  8
_0-0_90_FRAME
  6
CONTINUOUS
 62
    4
 10
1730.1332865234172
 20
450.53661566741266
 11
1730.1332865234172
 21
450.58272427589151
  0
LINE
  8
_0-0_90_FRAME
  6
CONTINUOUS
 62
    4
 10
1724.9180946124579
 20
460.14257576737424
 11
1726.5109951424129
 21
460.14257576737424
  0
LINE
  8
_0-0_90_FRAME
  6
CONTINUOUS
 62
    4
 10
1726.9870912535316
 20
454.52918991716388
 11
1725.7145448774354
 21
458.10291350579064
  0
LINE
  8
_0-0_90_FRAME
  6
CONTINUOUS
 62
    4
 10
1723.9605017405877
 20
453.06908398197038
 11
1724.4804223417377
 21
454.52918991716388
  0
LINE
  8
_0-0_90_FRAME
  6
CONTINUOUS
 62
    4
 10
1723.0203060377726
 20
450.53661566741266
 11
1725.7145448774354
 21
458.10291350579064
  0
ARC
  8
_0-0_90_FRAME
  6
CONTINUOUS
 62
    4
 10
1717.3317909377502
 20
454.58946401800853
 40
4.0650739069189488
 50
274.44474271147573
 51
357.5499690077387
  0
LINE
  8
_0-0_90_FRAME
  6
CONTINUOUS
 62
    4
 10
1710.2662736849434
 20
453.18735427079901
 11
1711.5043174194673
 21
452.16719241815554
  0
LINE
  8
_0-0_90_FRAME
  6
CONTINUOUS
 62
    4
 10
1710.9386982368926
 20
443.73557435268458
 11
1710.9386982368926
 21
443.73557435268458
  0
LINE
  8
_0-0_90_FRAME
  6
CONTINUOUS
 62
    4
 10
1710.9386982368926
 20
443.73557435268458
 11
1711.4229535215659
 21
443.93133428742846
  0
LINE
  8
_0-0_90_FRAME
  6
CONTINUOUS
 62
    4
 10
1711.4229535215659
 20
443.93133428742846
 11
1711.8581330426107
 21
444.19263846688892
  0
LINE
  8
_0-0_90_FRAME
  6
CONTINUOUS
 62
    4
 10
1711.8581330426107
 20
444.19263846688892
 11
1712.2310140904915
 21
444.51154729579935
  0
LINE
  8
_0-0_90_FRAME
  6
CONTINUOUS
 62
    4
 10
1712.2310140904915
 20
444.51154729579935
 11
1712.5302668632557
 21
444.87837089076896
  0
LINE
  8
_0-0_90_FRAME
  6
CONTINUOUS
 62
    4
 10
1712.5302668632557
 20
444.87837089076896
 11
1712.7467987168318
 21
445.28196350248629
  0
LINE
  8
_0-0_90_FRAME
  6
CONTINUOUS
 62
    4
 10
1712.7467987168318
 20
445.28196350248629
 11
1712.8740304404193
 21
445.7100621736721
  0
LINE
  8
_0-0_90_FRAME
  6
CONTINUOUS
 62
    4
 10
1712.8740304404193
 20
445.7100621736721
 11
1712.9080961624793
 21
446.14965934283066
  0
LINE
  8
_0-0_90_FRAME
  6
CONTINUOUS
 62
    4
 10
1712.9080961624793
 20
446.14965934283066
 11
1712.8479608132855
 21
446.58739807242409
  0
LINE
  8
_0-0_90_FRAME
  6
CONTINUOUS
 62
    4
 10
1712.8479608132855
 20
446.58739807242409
 11
1712.6954515749926
 21
447.00997789266017
  0
LINE
  8
_0-0_90_FRAME
  6
CONTINUOUS
 62
    4
 10
1712.6954515749926
 20
447.00997789266017
 11
1712.4552023636331
 21
447.40455892953668
  0
LINE
  8
_0-0_90_FRAME
  6
CONTINUOUS
 62
    4
 10
1712.4552023636331
 20
447.40455892953668
 11
1712.1345130299221
 21
447.75915203791584
  0
LINE
  8
_0-0_90_FRAME
  6
CONTINUOUS
 62
    4
 10
1712.1345130299221
 20
447.75915203791584
 11
1711.7431275569879
 21
448.0629830856322
  0
LINE
  8
_0-0_90_FRAME
  6
CONTINUOUS
 62
    4
 10
1711.7431275569879
 20
448.0629830856322
 11
1711.2929379943748
 21
448.30682032004694
  0
LINE
  8
_0-0_90_FRAME
  6
CONTINUOUS
 62
    4
 10
1711.2929379943748
 20
448.30682032004694
 11
1710.797623124136
 21
448.48325487017996
  0
LINE
  8
_0-0_90_FRAME
  6
CONTINUOUS
 62
    4
 10
1710.797623124136
 20
448.48325487017996
 11
1710.2722328379621
 21
448.58692586150556
  0
LINE
  8
_0-0_90_FRAME
  6
CONTINUOUS
 62
    4
 10
1710.2722328379621
 20
448.58692586150556
 11
1709.8077953534612
 21
448.61542364741968
  0
LINE
  8
_0-0_90_FRAME
  6
CONTINUOUS
 62
    4
 10
1716.4792479477692
 20
440.54641716345213
 11
1716.4792479477692
 21
447.0784700314257
  0
LINE
  8
_0-0_90_FRAME
  6
CONTINUOUS
 62
    4
 10
1714.750175129775
 20
440.54641716345213
 11
1714.750175129775
 21
447.0784700314257
  0
LINE
  8
_0-0_90_FRAME
  6
CONTINUOUS
 62
    4
 10
1714.5580559277741
 20
448.61542364742041
 11
1716.6713671497673
 21
448.61542364742041
  0
LINE
  8
_0-0_90_FRAME
  6
CONTINUOUS
 62
    4
 10
1705.3890537074822
 20
448.61542364742041
 11
1705.3890537074822
 21
439.00946354745884
  0
LINE
  8
_0-0_90_FRAME
  6
CONTINUOUS
 62
    4
 10
1714.5580559277741
 20
439.00946354745884
 11
1716.6713671497673
 21
439.00946354745884
  0
LINE
  8
_0-0_90_FRAME
  6
CONTINUOUS
 62
    4
 10
1716.6713671497673
 20
439.00946354745884
 11
1716.6713671497673
 21
440.35429796145405
  0
ARC
  8
_0-0_90_FRAME
  6
CONTINUOUS
 62
    4
 10
1716.6713671497673
 20
440.54641716345213
 40
0.1921192019992238
 50
180
 51
270
  0
LINE
  8
_0-0_90_FRAME
  6
CONTINUOUS
 62
    4
 10
1714.5580559277741
 20
439.00946354745884
 11
1714.5580559277741
 21
440.35429796145405
  0
ARC
  8
_0-0_90_FRAME
  6
CONTINUOUS
 62
    4
 10
1714.5580559277741
 20
440.54641716345213
 40
0.1921192019992238
 50
270
 51
0
  0
LINE
  8
_0-0_90_FRAME
  6
CONTINUOUS
 62
    4
 10
1716.6713671497673
 20
448.61542364742041
 11
1716.6713671497673
 21
447.2705892334252
  0
ARC
  8
_0-0_90_FRAME
  6
CONTINUOUS
 62
    4
 10
1716.6713671497673
 20
447.0784700314257
 40
0.1921192019992238
 50
90
 51
180
  0
LINE
  8
_0-0_90_FRAME
  6
CONTINUOUS
 62
    4
 10
1714.5580559277741
 20
448.61542364742041
 11
1714.5580559277741
 21
447.2705892334252
  0
ARC
  8
_0-0_90_FRAME
  6
CONTINUOUS
 62
    4
 10
1714.5580559277741
 20
447.0784700314257
 40
0.1921192019992238
 50
0
 51
90
  0
LINE
  8
_0-0_90_FRAME
  6
CONTINUOUS
 62
    4
 10
1701.2200982387703
 20
439.00946354745884
 11
1701.2200982387703
 21
447.0784700314257
  0
LINE
  8
_0-0_90_FRAME
  6
CONTINUOUS
 62
    4
 10
1699.4910254207789
 20
439.00946354745884
 11
1699.4910254207789
 21
447.0784700314257
  0
LINE
  8
_0-0_90_FRAME
  6
CONTINUOUS
 62
    4
 10
1696.4171181887923
 20
448.61542364742041
 11
1704.2940054707597
 21
448.61542364742041
  0
LINE
  8
_0-0_90_FRAME
  6
CONTINUOUS
 62
    4
 10
1699.4910254207789
 20
439.00946354745884
 11
1701.2200982387703
 21
439.00946354745884
  0
LINE
  8
_0-0_90_FRAME
  6
CONTINUOUS
 62
    4
 10
1704.2940054707597
 20
448.61542364742041
 11
1704.2940054707597
 21
447.2705892334252
  0
ARC
  8
_0-0_90_FRAME
  6
CONTINUOUS
 62
    4
 10
1701.4122174407712
 20
447.0784700314257
 40
0.1921192019992238
 50
90
 51
180
  0
LINE
  8
_0-0_90_FRAME
  6
CONTINUOUS
 62
    4
 10
1696.4171181887923
 20
448.61542364742041
 11
1696.4171181887923
 21
447.2705892334252
  0
ARC
  8
_0-0_90_FRAME
  6
CONTINUOUS
 62
    4
 10
1699.2989062187808
 20
447.0784700314257
 40
0.1921192019992238
 50
0
 51
90
  0
LINE
  8
_0-0_90_FRAME
  6
CONTINUOUS
 62
    4
 10
1696.4171181887923
 20
447.2705892334252
 11
1699.2989062187808
 21
447.2705892334252
  0
LINE
  8
_0-0_90_FRAME
  6
CONTINUOUS
 62
    4
 10
1701.4122174407712
 20
447.2705892334252
 11
1704.2940054707597
 21
447.2705892334252
  0
LINE
  8
_0-0_90_FRAME
  6
CONTINUOUS
 62
    4
 10
1705.3890537074822
 20
439.00946354745884
 11
1707.1181265254738
 21
439.00946354745884
  0
LINE
  8
_0-0_90_FRAME
  6
CONTINUOUS
 62
    4
 10
1707.1181265254738
 20
439.00946354745884
 11
1707.1181265254738
 21
447.2705892334252
  0
LINE
  8
_0-0_90_FRAME
  6
CONTINUOUS
 62
    4
 10
1705.3890537074822
 20
448.61542364742041
 11
1709.8077953534612
 21
448.61542364742041
  0
LINE
  8
_0-0_90_FRAME
  6
CONTINUOUS
 62
    4
 10
1707.1181265254738
 20
447.2705892334252
 11
1710.0383383958633
 21
447.2705892334252
  0
LINE
  8
_0-0_90_FRAME
  6
CONTINUOUS
 62
    4
 10
1707.1757622860716
 20
443.56156688186911
 11
1707.1757622860716
 21
444.90640129586421
  0
LINE
  8
_0-0_90_FRAME
  6
CONTINUOUS
 62
    4
 10
1707.1757622860716
 20
443.56156688186911
 11
1709.062289784375
 21
443.56156688186911
  0
LINE
  8
_0-0_90_FRAME
  6
CONTINUOUS
 62
    4
 10
1707.1757622860716
 20
444.90640129586421
 11
1710.0383383958633
 21
444.90640129586421
  0
ARC
  8
_0-0_90_FRAME
  6
CONTINUOUS
 62
    4
 10
1709.9971195549417
 20
446.08849526464473
 40
1.1828123874366916
 50
271.9970571043541
 51
88.002942895541636
  0
LINE
  8
_0-0_90_FRAME
  6
CONTINUOUS
 62
    4
 10
1711.2375677029786
 20
439.00946354745884
 11
1713.1011239623704
 21
439.00946354745884
  0
LINE
  8
_0-0_90_FRAME
  6
CONTINUOUS
 62
    4
 10
1711.4457671502487
 20
443.1400448997947
 11
1713.1011239623704
 21
439.08631122825864
  0
LINE
  8
_0-0_90_FRAME
  6
CONTINUOUS
 62
    4
 10
1709.7751687749815
 20
443.08007465391262
 11
1711.2375677029786
 21
439.00946354745884
  0
ARC
  8
_0-0_90_FRAME
  6
CONTINUOUS
 62
    4
 10
1709.062289784375
 20
442.79309007387383
 40
0.7684768079968955
 50
21.928297866550267
 51
90
  0
ARC
  8
_0-0_90_FRAME
  6
CONTINUOUS
 62
    4
 10
1710.2833738303052
 20
442.66395356596519
 40
1.2561135252831905
 50
22.272952259980947
 51
58.553113012863236
  0
LINE
  8
_0-0_90_FRAME
  6
CONTINUOUS
 62
    4
 10
1713.1011239623704
 20
439.08631122825864
 11
1713.1011239623704
 21
439.00946354745884
  0
LINE
  8
_0-0_90_FRAME
  6
CONTINUOUS
 62
    4
 10
1718.4023120614777
 20
448.61542364742041
 11
1718.4023120614777
 21
439.00946354745884
  0
LINE
  8
_0-0_90_FRAME
  6
CONTINUOUS
 62
    4
 10
1718.4023120614777
 20
439.00946354745884
 11
1720.1313848794719
 21
439.00946354745884
  0
LINE
  8
_0-0_90_FRAME
  6
CONTINUOUS
 62
    4
 10
1720.1313848794719
 20
439.00946354745884
 11
1720.1297927014175
 21
445.7336356174319
  0
LINE
  8
_0-0_90_FRAME
  6
CONTINUOUS
 62
    4
 10
1718.4023120614777
 20
448.61542364742041
 11
1720.9113099475335
 21
448.61542364742041
  0
LINE
  8
_0-0_90_FRAME
  6
CONTINUOUS
 62
    4
 10
1726.2807915214989
 20
445.7336356174319
 11
1726.2807915214989
 21
439.00946354745884
  0
LINE
  8
_0-0_90_FRAME
  6
CONTINUOUS
 62
    4
 10
1726.2807915214989
 20
439.00946354745884
 11
1728.0098643394904
 21
439.00946354745884
  0
LINE
  8
_0-0_90_FRAME
  6
CONTINUOUS
 62
    4
 10
1728.0098643394904
 20
439.00946354745884
 11
1728.0098643394904
 21
448.61542364742041
  0
LINE
  8
_0-0_90_FRAME
  6
CONTINUOUS
 62
    4
 10
1722.3407557024639
 20
439.00946354745884
 11
1724.0698285204553
 21
439.00946354745884
  0
LINE
  8
_0-0_90_FRAME
  6
CONTINUOUS
 62
    4
 10
1728.0098643394904
 20
448.61542364742041
 11
1725.499274275383
 21
448.61542364742041
  0
LINE
  8
_0-0_90_FRAME
  6
CONTINUOUS
 62
    4
 10
1724.0698285204553
 20
439.00946354745884
 11
1726.2807915214989
 21
445.7336356174319
  0
LINE
  8
_0-0_90_FRAME
  6
CONTINUOUS
 62
    4
 10
1722.3407557024639
 20
439.00946354745884
 11
1720.1297927014175
 21
445.7336356174319
  0
LINE
  8
_0-0_90_FRAME
  6
CONTINUOUS
 62
    4
 10
1723.2052921114582
 20
441.638766512774
 11
1725.499274275383
 21
448.61542364742041
  0
LINE
  8
_0-0_90_FRAME
  6
CONTINUOUS
 62
    4
 10
1723.2052921114582
 20
441.638766512774
 11
1720.9113099475335
 21
448.61542364742041
  0
TEXT
  8
_0-0_90_FRAME
 62
    2
 10
1739.3358892674189
 20
456.28309743870511
 40
11.341157142811319
 41
1
 50
0
  1
株式会社
  0
LINE
  8
_0-0_90_FRAME
  6
CONTINUOUS
 62
   18
 10
1773.861224574408
 20
479.85978989773776
 11
1773.861224574408
 21
532.89550418323961
  0
TEXT
  8
_0-0_90_FRAME
 62
    7
 10
1872.8474102156758
 20
438.79764341491699
 40
15
 41
1
 50
0
  1
寺田
  0
TEXT
  8
_0-0_90_FRAME
 62
    7
 10
1795.7366959302979
 20
492.58950345820841
 40
15
 41
1
 50
0
  1
1：3
  0
TEXT
  8
_0-0_90_FRAME
 62
    7
 10
1930.1213900542386
 20
522.6267737063572
 40
7.5
 41
1
 50
0
  1
機器
  0
LINE
  8
_0-0_90_FRAME
  6
CONTINUOUS
 62
   18
 10
2041.3683548681236
 20
532.89550418323961
 11
2041.3683548681236
 21
456.52407561211879
  0
TEXT
  8
_0-0_90_FRAME
 62
    7
 10
2043.4070917771987
 20
522.6267737063572
 40
7.5
 41
1
 50
0
  1
部品名
  0
TEXT
  8
_0-0_90_FRAME
 62
    7
 10
2043.407091777196
 20
479.82320227795572
 40
7.5
 41
1
 50
0
  1
図面番号
  0
LINE
  8
_0-0_90_FRAME
  6
CONTINUOUS
 62
   18
 10
1928.0826531451694
 20
494.70978989767997
 11
2041.3683548681236
 21
494.70978989767997
  0
TEXT
  8
_0-0_90_FRAME
 62
    7
 10
1930.1213900542386
 20
484.0660594207975
 40
7.5
 41
1
 50
0
  1
型式
  0
LINE
  8
_0-0_90_FRAME
  6
CONTINUOUS
 62
   18
 10
625.04407372017147
 20
422.58121846939957
 11
931.04407371749392
 21
422.58121846939957
  0
LINE
  8
_0-0_90_FRAME
  6
CONTINUOUS
 62
   18
 10
931.04407371749392
 20
422.58121846939957
 11
931.04407371749392
 21
507.43836132619714
  0
LINE
  8
_0-0_90_FRAME
  6
CONTINUOUS
 62
   18
 10
931.04407371749392
 20
507.43836132619714
 11
625.04407372017147
 21
507.43836132619714
  0
LINE
  8
_0-0_90_FRAME
  6
CONTINUOUS
 62
   18
 10
625.04407372017147
 20
507.43836132619714
 11
625.04407372017147
 21
422.58121846939957
  0
LINE
  8
_0-0_90_FRAME
  6
CONTINUOUS
 62
   18
 10
889.04407371749392
 20
422.58121846939957
 11
889.04407371749392
 21
507.43836132619714
  0
LINE
  8
_0-0_90_FRAME
  6
CONTINUOUS
 62
   18
 10
667.0440737174938
 20
422.58121846939957
 11
667.0440737174938
 21
507.43836132619714
  0
LINE
  8
_0-0_90_FRAME
  6
CONTINUOUS
 62
   18
 10
715.04407371749392
 20
422.58121846939957
 11
715.04407371749392
 21
507.43836132619714
  0
LINE
  8
_0-0_90_FRAME
  6
CONTINUOUS
 62
   18
 10
625.04407372017147
 20
486.2240756120018
 11
931.04407371749392
 21
486.2240756120018
  0
LINE
  8
_0-0_90_FRAME
  6
CONTINUOUS
 62
   18
 10
625.04407372017147
 20
465.0097898977956
 11
931.04407371749392
 21
465.0097898977956
  0
LINE
  8
_0-0_90_FRAME
  6
CONTINUOUS
 62
   18
 10
625.04407372017147
 20
443.79550418360031
 11
931.04407371749392
 21
443.79550418360037
  0
TEXT
  8
_0-0_90_FRAME
 62
    7
 10
635.57134644610539
 20
493.23121846909947
 40
7.1999999999999993
 41
1
 50
0
  1
記号
  0
TEXT
  8
_0-0_90_FRAME
 62
    7
 10
679.5409176097686
 20
493.23121846909947
 40
7.1999999999999993
 41
1
 50
0
  1
日付
  0
TEXT
  8
_0-0_90_FRAME
 62
    7
 10
894.33498280840308
 20
493.23121846909947
 40
7.1999999999999993
 41
1
 50
0
  1
作成者
  0
TEXT
  8
_0-0_90_FRAME
 62
    7
 10
778.09861917203943
 20
493.1084911963722
 40
7.1999999999999993
 41
1
 50
0
  1
改訂内容
  0
LINE
  8
_0-0_90_FRAME
  6
CONTINUOUS
 62
   18
 10
636.49764514743924
 20
446.04867812315842
 11
646.04407371883258
 21
462.58357743963006
  0
LINE
  8
_0-0_90_FRAME
  6
CONTINUOUS
 62
   18
 10
646.04407371883258
 20
462.58357743963006
 11
655.59050229022057
 21
446.04867812315842
  0
LINE
  8
_0-0_90_FRAME
  6
CONTINUOUS
 62
   18
 10
655.59050229022057
 20
446.04867812315842
 11
636.49764514743924
 21
446.04867812315842
  0
TEXT
  8
_0-0_90_FRAME
 62
    7
 10
643.97648851216945
 20
470.34566734520325
 40
6.3642857142600002
 41
1
 50
0
  1
1
  0
TEXT
  8
_0-0_90_FRAME
 62
    7
 10
643.97648851216945
 20
449.13138163100257
 40
6.3642857142600002
 41
1
 50
0
  1
2
  0
TEXT
  8
_0-0_90_FRAME
 62
    7
 10
643.97648851216945
 20
427.91709591680183
 40
6.3642857142600002
 41
1
 50
0
  1
3
  0
LINE
  8
_0-0_90_FRAME
  6
CONTINUOUS
 62
   18
 10
636.49764514743924
 20
467.26296383735922
 11
646.04407371883258
 21
483.79786315383626
  0
LINE
  8
_0-0_90_FRAME
  6
CONTINUOUS
 62
   18
 10
646.04407371883258
 20
483.79786315383626
 11
655.59050229022057
 21
467.26296383735922
  0
LINE
  8
_0-0_90_FRAME
  6
CONTINUOUS
 62
   18
 10
655.59050229022057
 20
467.26296383735922
 11
636.49764514743924
 21
467.26296383735922
  0
LINE
  8
_0-0_90_FRAME
  6
CONTINUOUS
 62
   18
 10
636.49764514743924
 20
424.83439240895768
 11
646.04407371883258
 21
441.36929172543478
  0
LINE
  8
_0-0_90_FRAME
  6
CONTINUOUS
 62
   18
 10
646.04407371883258
 20
441.36929172543478
 11
655.59050229022057
 21
424.83439240895768
  0
LINE
  8
_0-0_90_FRAME
  6
CONTINUOUS
 62
   18
 10
655.59050229022057
 20
424.83439240895768
 11
636.49764514743924
 21
424.83439240895768
  0
LINE
  8
_0-0_90_FRAME
  6
CONTINUOUS
 62
    4
 10
1825.096960126958
 20
658.89550417641283
 11
2278.7612419020452
 21
658.89550417641283
  0
LINE
  8
_0-0_90_FRAME
  6
CONTINUOUS
 62
    4
 10
1825.0969254676086
 20
637.89550192686727
 11
2278.7612072426959
 21
637.89550192686727
  0
LINE
  8
_0-0_90_FRAME
  6
CONTINUOUS
 62
    4
 10
1825.0969427972834
 20
700.8955064259585
 11
1825.0969427972834
 21
532.89550418323961
  0
LINE
  8
_0-0_90_FRAME
  6
CONTINUOUS
 62
    4
 10
2041.3683548681236
 20
700.8955064259585
 11
2041.3683548681236
 21
532.89550418323961
  0
LINE
  8
_0-0_90_FRAME
  6
CONTINUOUS
 62
    4
 10
2123.7006934615583
 20
700.8955064259585
 11
2123.7006934615815
 21
532.89550418323961
  0
LINE
  8
_0-0_90_FRAME
  6
CONTINUOUS
 62
    4
 10
2102.7006960865574
 20
700.8955064259585
 11
2102.7006960865797
 21
532.89550418323961
  0
LINE
  8
_0-0_90_FRAME
  6
CONTINUOUS
 62
    4
 10
1856.5969388597887
 20
700.8955064259585
 11
1856.5969388597887
 21
532.89550418323961
  0
LINE
  8
_0-0_90_FRAME
  6
CONTINUOUS
 62
    4
 10
2155.2006895240775
 20
700.8955064259585
 11
2155.2006895240775
 21
532.89550418323961
  0
LINE
  8
_0-2_08_DIM
  6
CONTINUOUS
 62
    3
 10
793.8410394435748
 20
1485.6506220483238
 11
855.17060141766353
 21
1485.6506220483238
  0
INSERT
  2
-000-p1ba05
  8
_0-2_08_DIM
 10
826.71072511681268
 20
1489.7533895738643
 41
4.5
 42
4.5
 50
0
  0
TEXT
  8
_0-0_90_FRAME
 62
    3
 10
2111.2933473470625
 20
558.913527400112
 40
9
 41
1
 50
0
  1
1
  0
TEXT
  8
_0-0_90_FRAME
 62
    3
 10
2046.2024776417691
 20
559.11352630839804
 40
9
 41
1
 50
0
  1
SUS304
  0
TEXT
  8
_0-0_90_FRAME
 62
    3
 10
1871.2275893762726
 20
558.99414917006345
 40
9
 41
1
 50
0
  1
スカートズレ止めL
  0
TEXT
  8
_0-0_90_FRAME
 62
    3
 10
1832.5742155307291
 20
558.7626296210334
 40
9
 41
1
 50
0
  1
36
  0
TEXT
  8
_0-0_90_FRAME
 62
    3
 10
2130.560764495136
 20
543.67410112966206
 40
7.5
 41
1
 50
0
  1
重量
  0
TEXT
  8
_0-0_90_FRAME
 62
    3
 10
2055.3736656473739
 20
538.8334574015422
 40
9
 41
1
 50
0
  1
材　質
  0
TEXT
  8
_0-0_90_FRAME
 62
    3
 10
2103.8036224245106
 20
538.76581661770649
 40
9
 41
1
 50
0
  1
数量
  0
TEXT
  8
_0-0_90_FRAME
 62
    3
 10
2133.8756587914249
 20
536.33557748780049
 40
6
 41
1
 50
0
  1
kg
  0
TEXT
  8
_0-0_90_FRAME
 62
    3
 10
2195.3419926718552
 20
538.61491883861049
 40
9
 41
1
 50
0
  1
備  考
  0
TEXT
  8
_0-0_90_FRAME
 62
    3
 10
1831.5109265809144
 20
538.61491883861049
 40
9
 41
1
 50
0
  1
符号
  0
TEXT
  8
_0-0_90_FRAME
 62
    3
 10
1907.8075688801318
 20
538.94158546444555
 40
9
 41
1
 50
0
  1
部　　品　　名
  0
LINE
  8
_0-0_90_FRAME
  6
CONTINUOUS
 62
    4
 10
1825.0969254676086
 20
616.89550192686727
 11
2278.7612072426959
 21
616.89550192686727
  0
LINE
  8
_0-0_90_FRAME
  6
CONTINUOUS
 62
    4
 10
1825.0969254676086
 20
595.89550080551646
 11
2278.7612072426959
 21
595.89550080551646
  0
LINE
  8
_0-0_90_FRAME
  6
CONTINUOUS
 62
    4
 10
1825.0969254676086
 20
574.89550192686715
 11
2278.7612072426959
 21
574.89550192686715
  0
LINE
  8
_0-0_90_FRAME
  6
CONTINUOUS
 62
    4
 10
1825.0969254676086
 20
553.89550192686704
 11
2278.7612072426959
 21
553.89550192686704
  0
TEXT
  8
_0-0_90_FRAME
 62
    3
 10
1832.5742155307291
 20
579.76262849968271
 40
9
 41
1
 50
0
  1
37
  0
TEXT
  8
_0-0_90_FRAME
 62
    3
 10
1832.5742155307291
 20
600.76263187057918
 40
9
 41
1
 50
0
  1
38
  0
TEXT
  8
_0-0_90_FRAME
 62
    3
 10
1832.5742155307291
 20
621.7626296210334
 40
9
 41
1
 50
0
  1
39
  0
TEXT
  8
_0-0_90_FRAME
 62
    7
 10
2126.1387319194996
 20
505.26306377992751
 40
12
 41
1
 50
0
  1
脱水機 部品図
  0
TEXT
  8
_0-0_90_FRAME
 62
    7
 10
1935.4050285896471
 20
504.83248104153455
 40
9.6000000000000014
 41
0.9000000000000001
 50
0
  1
有機性汚泥燃料施設
  0
LINE
  8
_0-3_0
  6
CONTINUOUS
 62
   18
 10
969.57689361969551
 20
1280.1577964856397
 11
1365.5768936196921
 21
1280.1577964856397
  0
LINE
  8
_0-3_0
  6
CONTINUOUS
 62
   18
 10
1365.5768936196921
 20
1280.1577964856397
 11
1367.5768936196919
 21
1278.1577964856399
  0
LINE
  8
_0-3_0
  6
CONTINUOUS
 62
   18
 10
1367.5768936196919
 20
1278.1577964856399
 11
1367.5768936196955
 21
1245.1577964856397
  0
LINE
  8
_0-3_0
  6
CONTINUOUS
 62
   18
 10
1367.5768936196955
 20
1245.1577964856397
 11
967.57689361969562
 21
1245.1577964856397
  0
LINE
  8
_0-3_0
  6
CONTINUOUS
 62
   18
 10
967.57689361969562
 20
1245.1577964856397
 11
967.57689361969562
 21
1278.1577964856399
  0
LINE
  8
_0-3_0
  6
CONTINUOUS
 62
   18
 10
967.57689361969562
 20
1278.1577964856399
 11
969.57689361969551
 21
1280.1577964856397
  0
LINE
  8
_0-4_04_HIDDEN
  6
CONTINUOUS
 62
    7
 10
967.57689361969562
 20
1247.1577964856397
 11
1367.5768936196955
 21
1247.1577964856397
  0
LINE
  8
_0-5_05_CENTER
  6
CENTER2
 62
    4
 10
1157.5768936246395
 20
1239.8167456742513
 11
1157.5768936246395
 21
1252.4159620210748
  0
LINE
  8
_0-5_05_CENTER
  6
CENTER2
 62
    4
 10
982.57689361475161
 20
1239.8167456742513
 11
982.57689361475161
 21
1252.4159620210748
  0
LINE
  8
_0-3_0
  6
CONTINUOUS
 62
   18
 10
969.57689105046029
 20
1397.6330699699329
 11
1365.5768910504567
 21
1397.6330699699349
  0
LINE
  8
_0-3_0
  6
CONTINUOUS
 62
   18
 10
1365.5768910504567
 20
1397.6330699699349
 11
1367.5768910504567
 21
1395.6330699699347
  0
LINE
  8
_0-3_0
  6
CONTINUOUS
 62
   18
 10
1367.5768910504567
 20
1395.6330699699347
 11
1367.5768910504603
 21
1357.6330699699331
  0
LINE
  8
_0-3_0
  6
CONTINUOUS
 62
   18
 10
1367.5768910504603
 20
1357.6330699699331
 11
967.5768910504604
 21
1357.6330699699331
  0
LINE
  8
_0-3_0
  6
CONTINUOUS
 62
   18
 10
967.5768910504604
 20
1357.6330699699331
 11
967.5768910504604
 21
1395.6330699699329
  0
LINE
  8
_0-3_0
  6
CONTINUOUS
 62
   18
 10
967.5768910504604
 20
1395.6330699699329
 11
969.57689105046029
 21
1397.6330699699329
  0
LINE
  8
_0-3_0
  6
CONTINUOUS
 62
   18
 10
967.5768910504604
 20
1359.6330699699329
 11
1367.5768910504603
 21
1359.6330699699329
  0
LINE
  8
_0-5_05_CENTER
  6
CENTER2
 62
    4
 10
982.57689105539714
 20
1379.2920191584408
 11
982.57689105539714
 21
1393.9741207812178
  0
LINE
  8
_0-5_05_CENTER
  6
CENTER2
 62
    4
 10
989.91794186679988
 20
1386.6330699698149
 11
975.23584024399042
 21
1386.6330699698149
  0
CIRCLE
  8
_0-3_0
  6
CONTINUOUS
 62
   18
 10
982.57689105539714
 20
1386.6330699698294
 40
5
  0
LINE
  8
_0-5_05_CENTER
  6
CENTER2
 62
    4
 10
1157.5768910554043
 20
1379.2920191584265
 11
1157.5768910554043
 21
1393.9741207812031
  0
LINE
  8
_0-5_05_CENTER
  6
CENTER2
 62
    4
 10
1164.9179418668073
 20
1386.6330699698001
 11
1150.2358402439977
 21
1386.6330699698001
  0
CIRCLE
  8
_0-3_0
  6
CONTINUOUS
 62
   18
 10
1157.5768910554043
 20
1386.6330699698149
 40
5
  0
LINE
  8
_0-3_0
  6
CONTINUOUS
 62
   18
 10
836.97766710964697
 20
1397.6330699766577
 11
834.97766710562348
 21
1397.6330699766577
  0
LINE
  8
_0-3_0
  6
CONTINUOUS
 62
   18
 10
834.97766710562348
 20
1397.6330699766577
 11
834.97766710562348
 21
1361.6330699766577
  0
ARC
  8
_0-3_0
  6
CONTINUOUS
 62
   18
 10
838.97766710562337
 20
1361.6330699766577
 40
4
 50
180
 51
270
  0
LINE
  8
_0-3_0
  6
CONTINUOUS
 62
   18
 10
838.97766710562337
 20
1357.6330699766577
 11
869.97766710562348
 21
1357.6330699766577
  0
LINE
  8
_0-3_0
  6
CONTINUOUS
 62
   18
 10
869.97766710562348
 20
1357.6330699766577
 11
869.97766710562348
 21
1359.6330699766579
  0
LINE
  8
_0-3_0
  6
CONTINUOUS
 62
   18
 10
869.97766710562348
 20
1359.6330699766579
 11
838.97766710964709
 21
1359.6330699766579
  0
LINE
  8
_0-3_0
  6
CONTINUOUS
 62
   18
 10
836.97766710964697
 20
1361.6330699766577
 11
836.97766710964697
 21
1397.6330699766577
  0
ARC
  8
_0-3_0
  6
CONTINUOUS
 62
   18
 10
838.97766710964709
 20
1361.6330699766577
 40
2
 50
180
 51
270
  0
LINE
  8
_0-5_05_CENTER
  6
CENTER2
 62
    4
 10
842.96954156909771
 20
1386.6330699766577
 11
829.00490594733412
 21
1386.6330699766577
  0
LINE
  8
_0-3_0
  6
CONTINUOUS
 62
   18
 10
1215.9644833548239
 20
1054.826761810541
 11
1128.3719541737928
 21
1054.826761810541
  0
LINE
  8
_0-5_05_CENTER
  6
CENTER2
 62
    4
 10
1054.0483341342415
 20
1004.826761809126
 11
1022.6955742331747
 21
1004.826761809126
  0
LINE
  8
_0-5_05_CENTER
  6
CENTER2
 62
    4
 10
1043.3719541837063
 20
994.32727935051207
 11
1043.3719541837063
 21
1015.3262442677379
  0
INSERT
  2
-001-M16Tz_1_1
  8
_0-3_0
 10
1148.3719541763394
 20
1022.3267618105411
 41
1
 42
1
 50
0
  0
ARC
  8
_0-3_0
  6
CONTINUOUS
 62
   18
 10
1148.3719541763357
 20
1022.3267618105411
 40
75.000000004965841
 50
334.3207113824551
 51
25.679288617544959
  0
LINE
  8
_0-3_0
  6
CONTINUOUS
 62
   18
 10
1128.3719541737928
 20
1054.826761810541
 11
1005.3719541813052
 21
1054.826761810541
  0
LINE
  8
_0-3_0
  6
CONTINUOUS
 62
   18
 10
1005.3719541813052
 20
1054.826761810541
 11
1003.3719541813053
 21
1052.826761810541
  0
LINE
  8
_0-3_0
  6
CONTINUOUS
 62
   18
 10
1003.3719541813053
 20
1052.826761810541
 11
1003.3719541813017
 21
991.82676181054114
  0
LINE
  8
_0-3_0
  6
CONTINUOUS
 62
   18
 10
1003.3719541813017
 20
991.82676181054114
 11
1005.3719541813016
 21
989.82676181054103
  0
LINE
  8
_0-3_0
  6
CONTINUOUS
 62
   18
 10
1005.3719541813016
 20
989.82676181054103
 11
1128.3719541737928
 21
989.82676181054103
  0
LINE
  8
_0-3_0
  6
CONTINUOUS
 62
   18
 10
1128.3719541737928
 20
989.82676181054103
 11
1215.9644833548239
 21
989.82676181054103
  0
LINE
  8
_0-3_0
  6
CONTINUOUS
 62
   18
 10
1033.3719541837063
 20
998.82676180977353
 11
1043.3719541837063
 21
998.82676180977353
  0
ARC
  8
_0-3_0
  6
CONTINUOUS
 62
   18
 10
1043.3719541837063
 20
1004.8267618097735
 40
6
 50
270
 51
90
  0
LINE
  8
_0-3_0
  6
CONTINUOUS
 62
   18
 10
1043.3719541837063
 20
1010.8267618097734
 11
1033.3719541837063
 21
1010.8267618097734
  0
ARC
  8
_0-3_0
  6
CONTINUOUS
 62
   18
 10
1033.3719541837063
 20
1004.8267618097735
 40
6
 50
90
 51
270
  0
LINE
  8
_0-5_05_CENTER
  6
CENTER2
 62
    4
 10
1038.3719541837099
 20
994.32727935051389
 11
1038.3719541837099
 21
1015.3262442677396
  0
LINE
  8
_0-5_05_CENTER
  6
CENTER2
 62
    4
 10
1033.3719541837063
 20
994.32727935051389
 11
1033.3719541837063
 21
1015.3262442677396
  0
LINE
  8
_0-3_0
  6
CONTINUOUS
 62
   18
 10
1033.3719541837063
 20
1045.8267618113086
 11
1043.3719541837063
 21
1045.8267618113086
  0
ARC
  8
_0-3_0
  6
CONTINUOUS
 62
   18
 10
1043.3719541837063
 20
1039.8267618113086
 40
6
 50
270
 51
90
  0
LINE
  8
_0-3_0
  6
CONTINUOUS
 62
   18
 10
1043.3719541837063
 20
1033.8267618113089
 11
1033.3719541837063
 21
1033.8267618113089
  0
ARC
  8
_0-3_0
  6
CONTINUOUS
 62
   18
 10
1033.3719541837063
 20
1039.8267618113086
 40
6
 50
90
 51
270
  0
LINE
  8
_0-5_05_CENTER
  6
CENTER2
 62
    4
 10
1054.0483341342415
 20
1039.8267618119564
 11
1022.6955742331747
 21
1039.8267618119564
  0
LINE
  8
_0-5_05_CENTER
  6
CENTER2
 62
    4
 10
1043.3719541837063
 20
1050.32624427057
 11
1043.3719541837063
 21
1029.3272793533442
  0
LINE
  8
_0-5_05_CENTER
  6
CENTER2
 62
    4
 10
1038.3719541837099
 20
1050.3262442705684
 11
1038.3719541837099
 21
1029.3272793533426
  0
LINE
  8
_0-5_05_CENTER
  6
CENTER2
 62
    4
 10
1033.3719541837063
 20
1050.3262442705684
 11
1033.3719541837063
 21
1029.3272793533426
  0
LINE
  8
_0-3_0
  6
CONTINUOUS
 62
   18
 10
885.38391375290416
 20
989.82676180739429
 11
885.38391375290416
 21
1054.8267618073944
  0
LINE
  8
_0-3_0
  6
CONTINUOUS
 62
   18
 10
885.38391375290416
 20
1054.8267618073944
 11
897.38391375290394
 21
1054.8267618073944
  0
LINE
  8
_0-3_0
  6
CONTINUOUS
 62
   18
 10
897.38391375290394
 20
1054.8267618073944
 11
897.38391375290394
 21
989.82676180739429
  0
LINE
  8
_0-3_0
  6
CONTINUOUS
 62
   18
 10
897.38391375290394
 20
989.82676180739429
 11
885.38391375290416
 21
989.82676180739429
  0
LINE
  8
_0-5_05_CENTER
  6
CENTER2
 62
    4
 10
904.92617402327335
 20
1004.8267618073943
 11
877.84165348253487
 21
1004.8267618073943
  0
LINE
  8
_0-5_05_CENTER
  6
CENTER2
 62
    4
 10
904.92617402349345
 20
1039.8267618091259
 11
877.84165348275474
 21
1039.8267618091259
  0
LINE
  8
_0-4_04_HIDDEN
  6
CONTINUOUS
 62
    7
 10
885.38391375312403
 20
1028.5767618130624
 11
897.38391375556887
 21
1028.5767618130624
  0
LINE
  8
_0-4_04_HIDDEN
  6
CONTINUOUS
 62
    7
 10
897.38391375556887
 20
1030.3267618130621
 11
885.38391375312403
 21
1030.3267618130621
  0
LINE
  8
_0-4_04_HIDDEN
  6
CONTINUOUS
 62
    7
 10
897.38391375556887
 20
1016.0767618130623
 11
885.38391375312403
 21
1016.0767618130623
  0
LINE
  8
_0-4_04_HIDDEN
  6
CONTINUOUS
 62
    7
 10
885.38391375312403
 20
1014.326761813055
 11
897.38391375556887
 21
1014.326761813055
  0
LINE
  8
_0-5_05_CENTER
  6
CENTER2
 62
    4
 10
880.30934045406229
 20
1022.326761809126
 11
901.50252220204777
 21
1022.326761809126
  0
LINE
  8
_0-3_0
  6
CONTINUOUS
 62
   18
 10
1884.7892634794116
 20
1087.9035593846497
 11
1884.7892634794116
 21
1056.72655938465
  0
LINE
  8
_0-3_0
  6
CONTINUOUS
 62
   18
 10
1884.7892634794116
 20
1056.72655938465
 11
1844.78926347941
 21
1056.72655938465
  0
LINE
  8
_0-3_0
  6
CONTINUOUS
 62
   18
 10
1844.78926347941
 20
1056.72655938465
 11
1844.7892634794116
 21
1087.9035593846497
  0
LINE
  8
_0-3_0
  6
CONTINUOUS
 62
   18
 10
1844.7892634794116
 20
1087.9035593846497
 11
1884.7892634794116
 21
1087.9035593846497
  0
CIRCLE
  8
_0-3_0
  6
CONTINUOUS
 62
   18
 10
1869.7892634797715
 20
1072.307800784602
 40
5
  0
LINE
  8
_0-5_05_CENTER
  6
CENTER2
 62
    4
 10
1869.7892634797715
 20
1062.871266237657
 11
1869.7892634797715
 21
1081.7443353299684
  0
LINE
  8
_0-3_0
  6
CONTINUOUS
 62
    3
 10
1884.7892634794116
 20
1080.1093093846509
 11
1844.7892634794116
 21
1080.1093093846509
  0
LINE
  8
_0-3_0
  6
CONTINUOUS
 62
    3
 10
1884.7892634794116
 20
1064.5208093846527
 11
1844.78926347941
 21
1064.5208093846527
  0
LINE
  8
_0-3_0
  6
CONTINUOUS
 62
   18
 10
1844.7892634748005
 20
1064.3150593846608
 11
1810.8717634701861
 21
1064.3150593846608
  0
LINE
  8
_0-3_0
  6
CONTINUOUS
 62
   18
 10
1834.7892634701896
 20
1065.397559384654
 11
1809.7892634701896
 21
1065.397559384654
  0
LINE
  8
_0-3_0
  6
CONTINUOUS
 62
   18
 10
1844.7892634748005
 20
1080.3150593846608
 11
1810.8717634701861
 21
1080.3150593846608
  0
LINE
  8
_0-3_0
  6
CONTINUOUS
 62
   18
 10
1834.7892634701911
 20
1079.2325593846567
 11
1809.7892634701896
 21
1079.2325593846567
  0
LINE
  8
_0-3_0
  6
CONTINUOUS
 62
   18
 10
1810.8717634701861
 20
1064.3150593846608
 11
1809.7892634701896
 21
1065.397559384654
  0
LINE
  8
_0-3_0
  6
CONTINUOUS
 62
   18
 10
1809.7892634701896
 20
1065.397559384654
 11
1809.7892634701896
 21
1079.2325593846567
  0
LINE
  8
_0-3_0
  6
CONTINUOUS
 62
   18
 10
1810.8717634701861
 20
1064.3150593846608
 11
1810.8717634701861
 21
1080.3150593846608
  0
LINE
  8
_0-3_0
  6
CONTINUOUS
 62
   18
 10
1810.8717634701861
 20
1080.3150593846608
 11
1809.7892634701896
 21
1079.2325593846679
  0
LINE
  8
_0-3_0
  6
CONTINUOUS
 62
   18
 10
1834.7892634701896
 20
1064.3150593846608
 11
1834.7892634701911
 21
1080.3150593846608
  0
LINE
  8
_0-5_05_CENTER
  6
CENTER2
 62
    4
 10
1805.1043869959758
 20
1072.3078007838089
 11
1889.5988672223687
 21
1072.3078007838089
  0
CIRCLE
  8
_0-3_0
  6
CONTINUOUS
 62
   18
 10
1716.5810333680367
 20
955.42465618627011
 40
8
  0
LINE
  8
_0-3_0
  6
CONTINUOUS
 62
   18
 10
1708.7867833680375
 20
968.92469319316399
 11
1700.9925333680385
 21
955.42465618627011
  0
LINE
  8
_0-3_0
  6
CONTINUOUS
 62
   18
 10
1700.9925333680385
 20
955.42465618627011
 11
1708.7867833680375
 21
941.92461917937646
  0
LINE
  8
_0-3_0
  6
CONTINUOUS
 62
   18
 10
1708.7867833680375
 20
941.92461917937646
 11
1724.3752833680355
 21
941.92461917937646
  0
LINE
  8
_0-3_0
  6
CONTINUOUS
 62
   18
 10
1724.3752833680355
 20
941.92461917937646
 11
1732.1695333680382
 21
955.42465618627011
  0
LINE
  8
_0-3_0
  6
CONTINUOUS
 62
   18
 10
1732.1695333680382
 20
955.42465618627011
 11
1724.3752833680355
 21
968.92469319316399
  0
LINE
  8
_0-3_0
  6
CONTINUOUS
 62
   18
 10
1724.3752833680355
 20
968.92469319316399
 11
1708.7867833680375
 21
968.92469319316399
  0
LINE
  8
_0-5_05_CENTER
  6
CENTER2
 62
    4
 10
1736.193667441441
 20
955.42465618754159
 11
1696.9683992946029
 21
955.42465618754159
  0
LINE
  8
_0-5_05_CENTER
  6
CENTER2
 62
    4
 10
1716.581033368022
 20
935.81202211410812
 11
1716.581033368022
 21
975.03729026097517
  0
LINE
  8
_0-4_04_HIDDEN
  6
CONTINUOUS
 62
    7
 10
1721.5810333680365
 20
968.92469319316399
 11
1721.5810333680365
 21
941.92461917937646
  0
LINE
  8
_0-4_04_HIDDEN
  6
CONTINUOUS
 62
    7
 10
1711.5810333680365
 20
968.92469319316399
 11
1711.5810333680365
 21
941.92461917937646
  0
CIRCLE
  8
_0-3_0
  6
CONTINUOUS
 62
   18
 10
1716.581033368022
 20
955.42465618754159
 40
6.9175000000068394
  0
LINE
  8
_0-3_0
  6
CONTINUOUS
 62
   18
 10
1844.7892634807467
 20
947.43191478839333
 11
1810.7892634761358
 21
947.43191478839333
  0
LINE
  8
_0-3_0
  6
CONTINUOUS
 62
   18
 10
1834.7892634761356
 20
948.51441478838672
 11
1809.7892634761356
 21
948.51441478838672
  0
LINE
  8
_0-3_0
  6
CONTINUOUS
 62
   18
 10
1844.7892634807467
 20
963.43191478839344
 11
1810.7892634761358
 21
963.43191478839344
  0
LINE
  8
_0-3_0
  6
CONTINUOUS
 62
   18
 10
1834.7892634761356
 20
962.34941478838937
 11
1809.7892634761356
 21
962.34941478838937
  0
LINE
  8
_0-3_0
  6
CONTINUOUS
 62
   18
 10
1809.7892634761356
 20
948.43191478839344
 11
1809.7892634761356
 21
962.43191478839367
  0
LINE
  8
_0-3_0
  6
CONTINUOUS
 62
   18
 10
1810.8717634761308
 20
947.43191478839333
 11
1810.8717634761308
 21
963.43191478839344
  0
LINE
  8
_0-3_0
  6
CONTINUOUS
 62
   18
 10
1834.7892634761356
 20
947.43191478839333
 11
1834.7892634761356
 21
963.43191478839344
  0
LINE
  8
_0-5_05_CENTER
  6
CENTER2
 62
    4
 10
1805.10438700192
 20
955.42465618754159
 11
1888.5988672283129
 21
955.42465618754159
  0
LINE
  8
_0-5_05_CENTER
  6
CENTER2
 62
    4
 10
1869.7892634797715
 20
935.81202211410618
 11
1869.7892634797715
 21
975.03729026097335
  0
LINE
  8
_0-4_04_HIDDEN
  6
CONTINUOUS
 62
    7
 10
1874.7892634797865
 20
968.92469319316399
 11
1874.7892634797865
 21
941.92461917937646
  0
LINE
  8
_0-4_04_HIDDEN
  6
CONTINUOUS
 62
    7
 10
1864.7892634797863
 20
968.92469319316399
 11
1864.7892634797863
 21
941.92461917937646
  0
LINE
  8
_0-3_0
  6
CONTINUOUS
 62
   18
 10
1844.7892634807467
 20
968.92469319316399
 11
1884.7892634797863
 21
968.92469319316399
  0
LINE
  8
_0-3_0
  6
CONTINUOUS
 62
   18
 10
1884.7892634797863
 20
968.92469319316399
 11
1884.7892634797863
 21
941.92461917937646
  0
LINE
  8
_0-3_0
  6
CONTINUOUS
 62
   18
 10
1884.7892634797863
 20
941.92461917937646
 11
1844.7892634807467
 21
941.92461917937646
  0
LINE
  8
_0-3_0
  6
CONTINUOUS
 62
   18
 10
1844.7892634807467
 20
941.92461917937646
 11
1844.7892634807467
 21
968.92469319316399
  0
LINE
  8
_0-3_0
  6
CONTINUOUS
 62
   18
 10
1844.7892634807467
 20
955.42465618627011
 11
1884.7892634797863
 21
955.42465618627011
  0
LINE
  8
_0-5_05_CENTER
  6
CENTER2
 62
    4
 10
982.57689105539714
 20
1386.6330699698294
 11
1157.5768910554025
 21
1386.6330699698001
  0
LINE
  8
_0-5_05_CENTER
  6
CENTER2
 62
    4
 10
1361.8024208702593
 20
609.62772407477144
 11
1352.1327219988925
 21
609.62772407477144
  0
LINE
  8
_0-3_0
  6
CONTINUOUS
 62
   18
 10
1358.4675714345758
 20
627.12772407477144
 11
1355.467571434576
 21
627.12772407477144
  0
LINE
  8
_0-3_0
  6
CONTINUOUS
 62
   18
 10
1355.467571434576
 20
627.12772407477144
 11
1355.467571434576
 21
592.12772407477144
  0
LINE
  8
_0-3_0
  6
CONTINUOUS
 62
   18
 10
1355.467571434576
 20
592.12772407477144
 11
1358.4675714345758
 21
592.12772407477144
  0
LINE
  8
_0-3_0
  6
CONTINUOUS
 62
   18
 10
1358.4675714345758
 20
592.12772407477144
 11
1358.4675714345758
 21
627.12772407477144
  0
LINE
  8
_0-3_0
  6
CONTINUOUS
 62
   18
 10
1427.8103906745619
 20
592.12772407478599
 11
1733.8103906745619
 21
592.12772407478599
  0
LINE
  8
_0-3_0
  6
CONTINUOUS
 62
   18
 10
1733.8103906745619
 20
592.12772407478599
 11
1735.8103906745619
 21
594.12772407478599
  0
LINE
  8
_0-3_0
  6
CONTINUOUS
 62
   18
 10
1735.8103906745619
 20
594.12772407478599
 11
1735.8103906745619
 21
625.12772407478587
  0
LINE
  8
_0-3_0
  6
CONTINUOUS
 62
   18
 10
1735.8103906745619
 20
625.12772407478587
 11
1733.8103906745619
 21
627.12772407478599
  0
LINE
  8
_0-3_0
  6
CONTINUOUS
 62
   18
 10
1733.8103906745619
 20
627.12772407478599
 11
1427.8103906745619
 21
627.12772407478599
  0
LINE
  8
_0-3_0
  6
CONTINUOUS
 62
   18
 10
1427.8103906745619
 20
627.12772407478599
 11
1425.8103906745621
 21
625.12772407478587
  0
LINE
  8
_0-3_0
  6
CONTINUOUS
 62
   18
 10
1425.8103906745621
 20
625.12772407478587
 11
1425.8103906745621
 21
594.12772407478599
  0
LINE
  8
_0-3_0
  6
CONTINUOUS
 62
   18
 10
1425.8103906745621
 20
594.12772407478599
 11
1427.8103906745619
 21
592.12772407478599
  0
LINE
  8
_0-5_05_CENTER
  6
CENTER2
 62
    4
 10
1440.8103906745619
 20
602.28667326339757
 11
1440.8103906745619
 21
616.9687748861744
  0
LINE
  8
_0-5_05_CENTER
  6
CENTER2
 62
    4
 10
1448.1514414859648
 20
609.62772407477144
 11
1433.4693398631555
 21
609.62772407477144
  0
CIRCLE
  8
_0-3_0
  6
CONTINUOUS
 62
   18
 10
1440.8103906745619
 20
609.62772407478599
 40
4.5
  0
LINE
  8
_0-5_05_CENTER
  6
CENTER2
 62
    4
 10
1720.8103906745619
 20
602.28667326339757
 11
1720.8103906745619
 21
616.9687748861744
  0
LINE
  8
_0-5_05_CENTER
  6
CENTER2
 62
    4
 10
1728.1514414859648
 20
609.62772407477144
 11
1713.4693398631555
 21
609.62772407477144
  0
CIRCLE
  8
_0-3_0
  6
CONTINUOUS
 62
   18
 10
1720.8103906745619
 20
609.62772407478599
 40
4.5
  0
LINE
  8
_0-5_05_CENTER
  6
CENTER2
 62
    4
 10
1418.6649710141683
 20
609.62772407478599
 11
1742.9088968724066
 21
609.62772407478599
  0
INSERT
  2
-002-p1ba01
  8
_0-2_08_DIM
 10
1223.3719541813016
 20
968.71601372496616
 41
3
 42
3
 50
270
  0
LINE
  8
_0-3_0
  6
CONTINUOUS
 62
   18
 10
2033.7737448889447
 20
1280.1577964856397
 11
1637.7737448889484
 21
1280.1577964856397
  0
LINE
  8
_0-3_0
  6
CONTINUOUS
 62
   18
 10
1637.7737448889484
 20
1280.1577964856397
 11
1635.7737448889484
 21
1278.1577964856399
  0
LINE
  8
_0-3_0
  6
CONTINUOUS
 62
   18
 10
1635.7737448889484
 20
1278.1577964856399
 11
1635.773744888945
 21
1245.1577964856397
  0
LINE
  8
_0-3_0
  6
CONTINUOUS
 62
   18
 10
1635.773744888945
 20
1245.1577964856397
 11
2035.773744888945
 21
1245.1577964856397
  0
LINE
  8
_0-3_0
  6
CONTINUOUS
 62
   18
 10
2035.773744888945
 20
1245.1577964856397
 11
2035.773744888945
 21
1278.1577964856399
  0
LINE
  8
_0-3_0
  6
CONTINUOUS
 62
   18
 10
2035.773744888945
 20
1278.1577964856399
 11
2033.7737448889447
 21
1280.1577964856397
  0
LINE
  8
_0-4_04_HIDDEN
  6
CONTINUOUS
 62
    7
 10
2035.773744888945
 20
1247.1577964856397
 11
1635.773744888945
 21
1247.1577964856397
  0
LINE
  8
_0-5_05_CENTER
  6
CENTER2
 62
    4
 10
1845.7737448840007
 20
1239.8167456742513
 11
1845.7737448840007
 21
1252.4159620210748
  0
LINE
  8
_0-5_05_CENTER
  6
CENTER2
 62
    4
 10
2020.7737448938888
 20
1239.8167456742513
 11
2020.7737448938888
 21
1252.4159620210748
  0
LINE
  8
_0-3_0
  6
CONTINUOUS
 62
   18
 10
2035.77374745818
 20
1359.6330699699329
 11
1635.77374745818
 21
1359.6330699699329
  0
LINE
  8
_0-5_05_CENTER
  6
CENTER2
 62
    4
 10
2020.773747453243
 20
1379.2920191584408
 11
2020.773747453243
 21
1393.9741207812178
  0
LINE
  8
_0-5_05_CENTER
  6
CENTER2
 62
    4
 10
2013.4326966418405
 20
1386.6330699698149
 11
2028.1147982646498
 21
1386.6330699698149
  0
CIRCLE
  8
_0-3_0
  6
CONTINUOUS
 62
   18
 10
2020.773747453243
 20
1386.6330699698294
 40
5
  0
LINE
  8
_0-5_05_CENTER
  6
CENTER2
 62
    4
 10
1845.7737474532357
 20
1379.2920191584265
 11
1845.7737474532357
 21
1393.9741207812031
  0
LINE
  8
_0-5_05_CENTER
  6
CENTER2
 62
    4
 10
1838.4326966418328
 20
1386.6330699698001
 11
1853.1147982646426
 21
1386.6330699698001
  0
CIRCLE
  8
_0-3_0
  6
CONTINUOUS
 62
   18
 10
1845.7737474532357
 20
1386.6330699698149
 40
5
  0
LINE
  8
_0-3_0
  6
CONTINUOUS
 62
   18
 10
2166.3729713989937
 20
1397.6330699766577
 11
2168.3729714030173
 21
1397.6330699766577
  0
LINE
  8
_0-3_0
  6
CONTINUOUS
 62
   18
 10
2168.3729714030173
 20
1397.6330699766577
 11
2168.3729714030173
 21
1361.6330699766577
  0
ARC
  8
_0-3_0
  6
CONTINUOUS
 62
   18
 10
2164.3729714030169
 20
1361.6330699766577
 40
4
 50
270
 51
0
  0
LINE
  8
_0-3_0
  6
CONTINUOUS
 62
   18
 10
2164.3729714030169
 20
1357.6330699766577
 11
2133.3729714030169
 21
1357.6330699766577
  0
LINE
  8
_0-3_0
  6
CONTINUOUS
 62
   18
 10
2133.3729714030169
 20
1357.6330699766577
 11
2133.3729714030169
 21
1359.6330699766579
  0
LINE
  8
_0-3_0
  6
CONTINUOUS
 62
   18
 10
2133.3729714030169
 20
1359.6330699766579
 11
2164.3729713989933
 21
1359.6330699766579
  0
LINE
  8
_0-3_0
  6
CONTINUOUS
 62
   18
 10
2166.3729713989937
 20
1361.6330699766577
 11
2166.3729713989937
 21
1397.6330699766577
  0
ARC
  8
_0-3_0
  6
CONTINUOUS
 62
   18
 10
2164.3729713989933
 20
1361.6330699766577
 40
2
 50
270
 51
0
  0
LINE
  8
_0-5_05_CENTER
  6
CENTER2
 62
    4
 10
2160.3810969395427
 20
1386.6330699766577
 11
2174.3457325613062
 21
1386.6330699766577
  0
LINE
  8
_0-5_05_CENTER
  6
CENTER2
 62
    4
 10
2020.773747453243
 20
1386.6330699698294
 11
1845.773747453238
 21
1386.6330699698001
  0
LINE
  8
_0-3_0
  6
CONTINUOUS
 62
   18
 10
2033.7737474581802
 20
1397.6330699699329
 11
1637.7737474581838
 21
1397.6330699699349
  0
LINE
  8
_0-3_0
  6
CONTINUOUS
 62
   18
 10
1637.7737474581838
 20
1397.6330699699349
 11
1635.7737474581836
 21
1395.6330699699347
  0
LINE
  8
_0-3_0
  6
CONTINUOUS
 62
   18
 10
1635.7737474581836
 20
1395.6330699699347
 11
1635.77374745818
 21
1357.6330699699331
  0
LINE
  8
_0-3_0
  6
CONTINUOUS
 62
   18
 10
1635.77374745818
 20
1357.6330699699331
 11
2035.77374745818
 21
1357.6330699699331
  0
LINE
  8
_0-3_0
  6
CONTINUOUS
 62
   18
 10
2035.77374745818
 20
1357.6330699699331
 11
2035.77374745818
 21
1395.6330699699329
  0
LINE
  8
_0-3_0
  6
CONTINUOUS
 62
   18
 10
2035.77374745818
 20
1395.6330699699329
 11
2033.7737474581802
 21
1397.6330699699329
  0
LINE
  8
_0-2_08_DIM
  6
CONTINUOUS
 62
    3
 10
1552.2031817969828
 20
1485.6506220483238
 11
1613.5327437710712
 21
1485.6506220483238
  0
INSERT
  2
-000-p1ba05
  8
_0-2_08_DIM
 10
1585.0728674702204
 20
1489.7533895738643
 41
4.5
 42
4.5
 50
0
  0
LINE
  8
_0-5_05_CENTER
  6
CENTER2
 62
    4
 10
995.65001139539902
 20
1022.326761809126
 11
1233.0791627701983
 21
1022.326761809126
  0
LINE
  8
_0-6_10_DRAFT
  6
CONTINUOUS
 62
    8
 10
1038.3719541837065
 20
877.80804631791455
 11
1038.3719541837065
 21
865.80804631791455
  0
LINE
  8
_0-4_04_HIDDEN
  6
CONTINUOUS
 62
    7
 10
1142.1219541748096
 20
865.80804631791455
 11
1142.1219541748096
 21
877.80804632035927
  0
LINE
  8
_0-4_04_HIDDEN
  6
CONTINUOUS
 62
    7
 10
1140.3719541748098
 20
877.80804632035927
 11
1140.3719541748098
 21
865.80804631791455
  0
LINE
  8
_0-4_04_HIDDEN
  6
CONTINUOUS
 62
    7
 10
1154.6219541748096
 20
877.80804632035927
 11
1154.6219541748096
 21
865.80804631791455
  0
LINE
  8
_0-4_04_HIDDEN
  6
CONTINUOUS
 62
    7
 10
1156.3719541748169
 20
865.80804631791455
 11
1156.3719541748169
 21
877.80804632035927
  0
LINE
  8
_0-5_05_CENTER
  6
CENTER2
 62
    4
 10
1148.3719541787459
 20
860.73347301885281
 11
1148.3719541787459
 21
881.92665476683794
  0
LINE
  8
_0-3_0
  6
CONTINUOUS
 62
   18
 10
1003.3719541837065
 20
865.80804631791455
 11
1003.3719541837065
 21
877.80804631791455
  0
LINE
  8
_0-3_0
  6
CONTINUOUS
 62
   18
 10
1003.3719541837065
 20
877.80804631791455
 11
1223.3719541837063
 21
877.80804631791455
  0
LINE
  8
_0-3_0
  6
CONTINUOUS
 62
   18
 10
1223.3719541837063
 20
877.80804631791455
 11
1223.3719541837063
 21
865.80804631791455
  0
LINE
  8
_0-3_0
  6
CONTINUOUS
 62
   18
 10
1223.3719541837063
 20
865.80804631791455
 11
1003.3719541837065
 21
865.80804631791455
  0
LINE
  8
_0-5_05_CENTER
  6
CENTER2
 62
    4
 10
1043.3719541837063
 20
885.35030658828384
 11
1043.3719541837063
 21
858.26578604754525
  0
LINE
  8
_0-5_05_CENTER
  6
CENTER2
 62
    4
 10
1033.3719541837063
 20
885.35030658828384
 11
1033.3719541837063
 21
858.26578604754525
  0
LINE
  8
_0-2_08_DIM
  6
CONTINUOUS
 62
    3
 10
793.8410394435748
 20
1112.8004698727455
 11
915.42028390992175
 21
1112.8004698727455
  0
INSERT
  2
-000-p1ba05
  8
_0-2_08_DIM
 10
826.71072511681268
 20
1116.9032373982859
 41
4.5
 42
4.5
 50
0
  0
TEXT
  8
_0-7_07_TEXT
 62
    3
 10
845.85941440115778
 20
1116.7374748243974
 40
13.5
 41
1
 50
0
  1
(   )
  0
INSERT
  2
-002-p1ba01
  8
_0-2_08_DIM
 10
872.87331713721835
 20
1117.0760783251299
 41
4.5
 42
4.5
 50
0
  0
LINE
  8
_0-3_0
  6
CONTINUOUS
 62
   18
 10
1810.7892634761358
 20
947.43191478839333
 11
1809.7892634761356
 21
948.43191478839344
  0
LINE
  8
_0-3_0
  6
CONTINUOUS
 62
   18
 10
1809.7892634761356
 20
962.43191478839367
 11
1810.7892634761358
 21
963.43191478839344
  0
INSERT
  2
-002-p1ba01
  8
_0-2_08_DIM
 10
1844.7892634807467
 20
993.67417709430447
 41
-3
 42
3
 50
90
  0
INSERT
  2
-002-p1ba01
  8
_0-2_08_DIM
 10
1790.9809096432255
 20
963.43191478839344
 41
3
 42
3
 50
0
  0
LINE
  8
_0-2_08_DIM
  6
CONTINUOUS
 62
    3
 10
1591.7050021711536
 20
1084.8134027329252
 11
1713.2842466375005
 21
1084.8134027329252
  0
INSERT
  2
-000-p1ba05
  8
_0-2_08_DIM
 10
1624.5746878443915
 20
1088.9161702584656
 41
4.5
 42
4.5
 50
0
  0
TEXT
  8
_0-7_07_TEXT
 62
    3
 10
1643.7233771287365
 20
1088.7504076845773
 40
13.5
 41
1
 50
0
  1
(   )
  0
INSERT
  2
-002-p1ba01
  8
_0-2_08_DIM
 10
1670.7372798647971
 20
1089.0890111853096
 41
4.5
 42
4.5
 50
0
  0
LINE
  8
_0-2_08_DIM
  6
CONTINUOUS
 62
    3
 10
1272.9078523336564
 20
725.52208880610203
 11
1334.2374143077452
 21
725.52208880610203
  0
INSERT
  2
-000-p1ba05
  8
_0-2_08_DIM
 10
1305.7775380068942
 20
729.62485633164272
 41
4.5
 42
4.5
 50
0
  0
TEXT
  8
_0-2_08_DIM
 62
    3
 10
1278.0959858841379
 20
708.84090536545602
 40
12
 41
1
 50
0
  1
レ-ザーカット可
  0
TEXT
  8
_0-2_08_DIM
 62
    3
 10
1557.3913153474641
 20
1468.9694386076776
 40
12
 41
1
 50
0
  1
レ-ザーカット可
  0
TEXT
  8
_0-2_08_DIM
 62
    3
 10
799.02917299405635
 20
1468.9694386076776
 40
12
 41
1
 50
0
  1
レ-ザーカット可
  0
LINE
  8
_0-0_90_FRAME
  6
CONTINUOUS
 62
    4
 10
1825.0969427972834
 20
700.8955064259585
 11
2278.7612419020452
 21
700.8955064259585
  0
LINE
  8
_0-0_90_FRAME
  6
CONTINUOUS
 62
    4
 10
1825.0969254676086
 20
679.89550417641283
 11
2278.7612072426959
 21
679.89550417641283
  0
TEXT
  8
_0-0_90_FRAME
 62
    3
 10
1833.3242155307291
 20
642.76263299192988
 40
9
 41
1
 50
0
  1
40
  0
TEXT
  8
_0-0_90_FRAME
 62
    3
 10
1834.0742155307291
 20
663.76263074238409
 40
9
 41
1
 50
0
  1
41
  0
TEXT
  8
_0-2_08_DIM
 62
    3
 10
1557.3913153474641
 20
1454.0005425323061
 40
12
 41
1
 50
0
  1
36と対称
  0
TEXT
  8
_0-0_90_FRAME
 62
    3
 10
2111.2933473470625
 20
579.9135262787612
 40
9
 41
1
 50
0
  1
1
  0
TEXT
  8
_0-0_90_FRAME
 62
    3
 10
2046.2024776417691
 20
580.11352518704723
 40
9
 41
1
 50
0
  1
SUS304
  0
TEXT
  8
_0-0_90_FRAME
 62
    3
 10
1871.2275893762726
 20
579.99414804871276
 40
9
 41
1
 50
0
  1
スカートズレ止めR
  0
TEXT
  8
_0-0_90_FRAME
 62
    3
 10
2109.7933473470571
 20
600.9135307778439
 40
9
 41
1
 50
0
  1
4
  0
TEXT
  8
_0-0_90_FRAME
 62
    3
 10
2046.2024776417636
 20
601.11352968612994
 40
9
 41
1
 50
0
  1
SUS304
  0
TEXT
  8
_0-0_90_FRAME
 62
    3
 10
1871.2275893762674
 20
600.99415254779535
 40
9
 41
1
 50
0
  1
汚泥スカート受台ズレ止め
  0
TEXT
  8
_0-0_90_FRAME
 62
    3
 10
2109.7933473470625
 20
621.913527400112
 40
9
 41
1
 50
0
  1
2
  0
TEXT
  8
_0-0_90_FRAME
 62
    3
 10
2046.2024776417691
 20
622.11352630839804
 40
9
 41
1
 50
0
  1
SUS304
  0
TEXT
  8
_0-0_90_FRAME
 62
    3
 10
1871.2275893762726
 20
621.99414917006345
 40
9
 41
1
 50
0
  1
ばね秤ブラケット
  0
TEXT
  8
_0-0_90_FRAME
 62
    3
 10
1871.2275893762726
 20
642.99415141960912
 40
9
 41
1
 50
0
  1
欠番
  0
TEXT
  8
_0-0_90_FRAME
 62
    3
 10
2109.7933473470625
 20
663.91352964965768
 40
9
 41
1
 50
0
  1
2
  0
TEXT
  8
_0-0_90_FRAME
 62
    3
 10
2046.2024776417691
 20
664.1135285579436
 40
9
 41
1
 50
0
  1
SUS304
  0
TEXT
  8
_0-0_90_FRAME
 62
    3
 10
1871.2275893762726
 20
663.99415141960912
 40
9
 41
1
 50
0
  1
当て板
  0
INSERT
  2
-003-AM_BALLOON1
  8
_0-2_08_DIM
 10
775.0690323316519
 20
1485.6656029921787
 41
3.75
 42
3.75
 50
0
  0
TEXT
  8
_0-3_0
 62
    7
 10
764.35474661736623
 20
1480.0406029921789
 40
11.25
 41
1
 50
0
  1
36
  0
LINE
  8
_0-2_08_DIM
  6
CONTINUOUS
 62
    3
 10
982.57689105539714
 20
1395.8491207812178
 11
982.57689105539714
 21
1441.7474871489376
  0
LINE
  8
_0-2_08_DIM
  6
CONTINUOUS
 62
    3
 10
967.5768910504604
 20
1397.5080699699329
 11
967.5768910504604
 21
1441.7474871489376
  0
LINE
  8
_0-2_08_DIM
  6
CONTINUOUS
 62
    3
 10
990.07689105539691
 20
1437.9974871489374
 11
997.57689105539703
 21
1437.9974871489374
  0
LINE
  8
_0-2_08_DIM
  6
CONTINUOUS
 62
    3
 10
960.0768910504604
 20
1437.9974871489374
 11
936.82689105046029
 21
1437.9974871489374
  0
LINE
  8
_0-2_08_DIM
  6
CONTINUOUS
 62
    3
 10
982.57689105539714
 20
1437.9974871489374
 11
967.5768910504604
 21
1437.9974871489374
  0
INSERT
  2
-004-_Open30
  8
_0-2_08_DIM
 10
982.57689105539714
 20
1437.9974871489374
 41
7.5
 42
7.5
 50
180
  0
INSERT
  2
-004-_Open30
  8
_0-2_08_DIM
 10
967.5768910504604
 20
1437.9974871489374
 41
7.5
 42
7.5
 50
0
  0
LINE
  8
_0-2_08_DIM
  6
CONTINUOUS
 62
    3
 10
982.57689105539714
 20
1395.8491207812178
 11
982.57689105539714
 21
1441.7474871489376
  0
LINE
  8
_0-2_08_DIM
  6
CONTINUOUS
 62
    3
 10
1157.5768910554043
 20
1395.8491207812033
 11
1157.5768910554043
 21
1441.7474871489376
  0
LINE
  8
_0-2_08_DIM
  6
CONTINUOUS
 62
    3
 10
990.07689105539691
 20
1437.9974871489374
 11
1150.0768910554045
 21
1437.9974871489374
  0
INSERT
  2
-004-_Open30
  8
_0-2_08_DIM
 10
982.57689105539714
 20
1437.9974871489374
 41
7.5
 42
7.5
 50
180
  0
INSERT
  2
-004-_Open30
  8
_0-2_08_DIM
 10
1157.5768910554043
 20
1437.9974871489374
 41
7.5
 42
7.5
 50
0
  0
LINE
  8
_0-2_08_DIM
  6
CONTINUOUS
 62
    3
 10
973.36084024399042
 20
1386.6330699698149
 11
940.29097415107026
 21
1386.6330699698149
  0
LINE
  8
_0-2_08_DIM
  6
CONTINUOUS
 62
    3
 10
967.7018910504604
 20
1397.6330699699329
 11
940.29097415107026
 21
1397.6330699699329
  0
LINE
  8
_0-2_08_DIM
  6
CONTINUOUS
 62
    3
 10
944.04097415107026
 20
1379.1330699698146
 11
944.04097415107026
 21
1371.6330699698146
  0
LINE
  8
_0-2_08_DIM
  6
CONTINUOUS
 62
    3
 10
944.04097415107026
 20
1405.1330699699329
 11
944.04097415107026
 21
1425.3830699699329
  0
LINE
  8
_0-2_08_DIM
  6
CONTINUOUS
 62
    3
 10
944.04097415107026
 20
1386.6330699698149
 11
944.04097415107026
 21
1397.6330699699329
  0
INSERT
  2
-004-_Open30
  8
_0-2_08_DIM
 10
944.04097415107026
 20
1386.6330699698149
 41
7.5
 42
7.5
 50
90
  0
INSERT
  2
-004-_Open30
  8
_0-2_08_DIM
 10
944.04097415107026
 20
1397.6330699699329
 41
7.5
 42
7.5
 50
270
  0
LINE
  8
_0-2_08_DIM
  6
CONTINUOUS
 62
    3
 10
967.7018910504604
 20
1397.6330699699329
 11
917.21585089250493
 21
1397.6330699699329
  0
LINE
  8
_0-2_08_DIM
  6
CONTINUOUS
 62
    3
 10
965.70189105046029
 20
1357.6330699699331
 11
917.21585089250493
 21
1357.6330699699331
  0
LINE
  8
_0-2_08_DIM
  6
CONTINUOUS
 62
    3
 10
920.96585089250493
 20
1390.1330699699329
 11
920.96585089250493
 21
1365.1330699699331
  0
INSERT
  2
-004-_Open30
  8
_0-2_08_DIM
 10
920.96585089250493
 20
1397.6330699699329
 41
7.5
 42
7.5
 50
90
  0
INSERT
  2
-004-_Open30
  8
_0-2_08_DIM
 10
920.96585089250493
 20
1357.6330699699331
 41
7.5
 42
7.5
 50
270
  0
LINE
  8
_0-2_08_DIM
  6
CONTINUOUS
 62
    3
 10
967.5768910504604
 20
1355.7580699699331
 11
967.5768910504604
 21
1319.471496919753
  0
LINE
  8
_0-2_08_DIM
  6
CONTINUOUS
 62
    3
 10
1367.5768910504603
 20
1355.7580699699331
 11
1367.5768910504603
 21
1319.471496919753
  0
LINE
  8
_0-2_08_DIM
  6
CONTINUOUS
 62
    3
 10
975.0768910504604
 20
1323.221496919753
 11
1360.0768910504603
 21
1323.221496919753
  0
INSERT
  2
-004-_Open30
  8
_0-2_08_DIM
 10
967.5768910504604
 20
1323.221496919753
 41
7.5
 42
7.5
 50
180
  0
INSERT
  2
-004-_Open30
  8
_0-2_08_DIM
 10
1367.5768910504603
 20
1323.221496919753
 41
7.5
 42
7.5
 50
0
  0
LINE
  8
_0-2_08_DIM
  6
CONTINUOUS
 62
    3
 10
965.70189361969551
 20
1245.1577964856397
 11
941.57840180722917
 21
1245.1577964856397
  0
LINE
  8
_0-2_08_DIM
  6
CONTINUOUS
 62
    3
 10
967.7018936196954
 20
1280.1577964856397
 11
941.57840180722917
 21
1280.1577964856397
  0
LINE
  8
_0-2_08_DIM
  6
CONTINUOUS
 62
    3
 10
945.32840180722917
 20
1252.6577964856397
 11
945.32840180722917
 21
1272.6577964856394
  0
INSERT
  2
-004-_Open30
  8
_0-2_08_DIM
 10
945.32840180722917
 20
1245.1577964856397
 41
7.5
 42
7.5
 50
270
  0
INSERT
  2
-004-_Open30
  8
_0-2_08_DIM
 10
945.32840180722917
 20
1280.1577964856397
 41
7.5
 42
7.5
 50
90
  0
LINE
  8
_0-2_08_DIM
  6
CONTINUOUS
 62
    3
 10
1239.0683500967275
 20
1425.9716570984756
 11
1181.9933500967263
 21
1425.971657098476
  0
LINE
  8
_0-2_08_DIM
  6
CONTINUOUS
 62
    3
 10
1181.9933500967263
 20
1425.971657098476
 11
1164.1688108575743
 21
1397.2536440278284
  0
INSERT
  2
-004-_Open30
  8
_0-2_08_DIM
 10
1160.2136589762722
 20
1390.88129959302
 41
7.5
 42
7.5
 50
238.17317905968764
  0
LINE
  8
_0-2_08_DIM
  6
CONTINUOUS
 62
    3
 10
871.85266710562337
 20
1357.6330699766577
 11
895.58985155415769
 21
1357.6330699766577
  0
LINE
  8
_0-2_08_DIM
  6
CONTINUOUS
 62
    3
 10
871.85266710562337
 20
1359.6330699766579
 11
895.58985155415769
 21
1359.6330699766579
  0
LINE
  8
_0-2_08_DIM
  6
CONTINUOUS
 62
    3
 10
891.83985155415758
 20
1350.1330699766577
 11
891.83985155415758
 21
1342.6330699766577
  0
LINE
  8
_0-2_08_DIM
  6
CONTINUOUS
 62
    3
 10
891.83985155415758
 20
1367.1330699766579
 11
891.83985155415758
 21
1384.3830699766577
  0
LINE
  8
_0-2_08_DIM
  6
CONTINUOUS
 62
    3
 10
891.83985155415758
 20
1357.6330699766577
 11
891.83985155415758
 21
1359.6330699766579
  0
INSERT
  2
-004-_Open30
  8
_0-2_08_DIM
 10
891.83985155415758
 20
1357.6330699766577
 41
7.5
 42
7.5
 50
90
  0
INSERT
  2
-004-_Open30
  8
_0-2_08_DIM
 10
891.83985155415758
 20
1359.6330699766579
 41
7.5
 42
7.5
 50
270
  0
LINE
  8
_0-2_08_DIM
  6
CONTINUOUS
 62
    3
 10
1371.8801919093557
 20
1401.9363708288336
 11
1404.7819988532544
 21
1434.8381777727323
  0
INSERT
  2
-004-_Open30
  8
_0-2_08_DIM
 10
1366.5768910504567
 20
1396.6330699699345
 41
7.5
 42
7.5
 50
224.99999999999997
  0
LINE
  8
_0-2_08_DIM
  6
CONTINUOUS
 62
    3
 10
1371.8801944785912
 20
1284.461097344539
 11
1404.7820014224897
 21
1317.3629042884377
  0
INSERT
  2
-004-_Open30
  8
_0-2_08_DIM
 10
1366.5768936196919
 20
1279.1577964856399
 41
7.5
 42
7.5
 50
224.99999999999997
  0
LINE
  8
_0-2_08_DIM
  6
CONTINUOUS
 62
    3
 10
2020.773747453243
 20
1395.8491207812178
 11
2020.773747453243
 21
1441.7474871489376
  0
LINE
  8
_0-2_08_DIM
  6
CONTINUOUS
 62
    3
 10
2035.77374745818
 20
1397.5080699699329
 11
2035.77374745818
 21
1441.7474871489376
  0
LINE
  8
_0-2_08_DIM
  6
CONTINUOUS
 62
    3
 10
2013.2737474532435
 20
1437.9974871489374
 11
2005.7737474532432
 21
1437.9974871489374
  0
LINE
  8
_0-2_08_DIM
  6
CONTINUOUS
 62
    3
 10
2043.27374745818
 20
1437.9974871489374
 11
2066.52374745818
 21
1437.9974871489374
  0
LINE
  8
_0-2_08_DIM
  6
CONTINUOUS
 62
    3
 10
2020.773747453243
 20
1437.9974871489374
 11
2035.77374745818
 21
1437.9974871489374
  0
INSERT
  2
-004-_Open30
  8
_0-2_08_DIM
 10
2020.773747453243
 20
1437.9974871489374
 41
7.5
 42
7.5
 50
0
  0
INSERT
  2
-004-_Open30
  8
_0-2_08_DIM
 10
2035.77374745818
 20
1437.9974871489374
 41
7.5
 42
7.5
 50
180
  0
LINE
  8
_0-2_08_DIM
  6
CONTINUOUS
 62
    3
 10
2020.773747453243
 20
1395.8491207812178
 11
2020.773747453243
 21
1441.7474871489376
  0
LINE
  8
_0-2_08_DIM
  6
CONTINUOUS
 62
    3
 10
1845.7737474532357
 20
1395.8491207812033
 11
1845.7737474532357
 21
1441.7474871489376
  0
LINE
  8
_0-2_08_DIM
  6
CONTINUOUS
 62
    3
 10
2013.2737474532435
 20
1437.9974871489374
 11
1853.2737474532362
 21
1437.9974871489374
  0
INSERT
  2
-004-_Open30
  8
_0-2_08_DIM
 10
2020.773747453243
 20
1437.9974871489374
 41
7.5
 42
7.5
 50
0
  0
INSERT
  2
-004-_Open30
  8
_0-2_08_DIM
 10
1845.7737474532357
 20
1437.9974871489374
 41
7.5
 42
7.5
 50
180
  0
LINE
  8
_0-2_08_DIM
  6
CONTINUOUS
 62
    3
 10
2029.9897982646498
 20
1386.6330699698149
 11
2063.05966435757
 21
1386.6330699698149
  0
LINE
  8
_0-2_08_DIM
  6
CONTINUOUS
 62
    3
 10
2035.64874745818
 20
1397.6330699699329
 11
2063.05966435757
 21
1397.6330699699329
  0
LINE
  8
_0-2_08_DIM
  6
CONTINUOUS
 62
    3
 10
2059.3096643575705
 20
1379.1330699698146
 11
2059.3096643575705
 21
1371.6330699698146
  0
LINE
  8
_0-2_08_DIM
  6
CONTINUOUS
 62
    3
 10
2059.3096643575705
 20
1405.1330699699329
 11
2059.3096643575705
 21
1425.3830699699333
  0
LINE
  8
_0-2_08_DIM
  6
CONTINUOUS
 62
    3
 10
2059.3096643575705
 20
1386.6330699698149
 11
2059.3096643575705
 21
1397.6330699699329
  0
INSERT
  2
-004-_Open30
  8
_0-2_08_DIM
 10
2059.3096643575705
 20
1386.6330699698149
 41
7.5
 42
7.5
 50
90
  0
INSERT
  2
-004-_Open30
  8
_0-2_08_DIM
 10
2059.3096643575705
 20
1397.6330699699329
 41
7.5
 42
7.5
 50
270
  0
LINE
  8
_0-2_08_DIM
  6
CONTINUOUS
 62
    3
 10
2035.64874745818
 20
1397.6330699699329
 11
2086.1347876161353
 21
1397.6330699699329
  0
LINE
  8
_0-2_08_DIM
  6
CONTINUOUS
 62
    3
 10
2037.64874745818
 20
1357.6330699699331
 11
2086.1347876161353
 21
1357.6330699699331
  0
LINE
  8
_0-2_08_DIM
  6
CONTINUOUS
 62
    3
 10
2082.3847876161353
 20
1390.1330699699329
 11
2082.3847876161353
 21
1365.1330699699331
  0
INSERT
  2
-004-_Open30
  8
_0-2_08_DIM
 10
2082.3847876161353
 20
1397.6330699699329
 41
7.5
 42
7.5
 50
90
  0
INSERT
  2
-004-_Open30
  8
_0-2_08_DIM
 10
2082.3847876161353
 20
1357.6330699699331
 41
7.5
 42
7.5
 50
270
  0
LINE
  8
_0-2_08_DIM
  6
CONTINUOUS
 62
    3
 10
2035.77374745818
 20
1355.7580699699331
 11
2035.77374745818
 21
1319.471496919753
  0
LINE
  8
_0-2_08_DIM
  6
CONTINUOUS
 62
    3
 10
1635.77374745818
 20
1355.7580699699331
 11
1635.77374745818
 21
1319.471496919753
  0
LINE
  8
_0-2_08_DIM
  6
CONTINUOUS
 62
    3
 10
2028.27374745818
 20
1323.221496919753
 11
1643.27374745818
 21
1323.221496919753
  0
INSERT
  2
-004-_Open30
  8
_0-2_08_DIM
 10
2035.77374745818
 20
1323.221496919753
 41
7.5
 42
7.5
 50
0
  0
INSERT
  2
-004-_Open30
  8
_0-2_08_DIM
 10
1635.77374745818
 20
1323.221496919753
 41
7.5
 42
7.5
 50
180
  0
LINE
  8
_0-2_08_DIM
  6
CONTINUOUS
 62
    3
 10
2037.6487448889445
 20
1245.1577964856397
 11
2061.7722367014112
 21
1245.1577964856397
  0
LINE
  8
_0-2_08_DIM
  6
CONTINUOUS
 62
    3
 10
2035.648744888945
 20
1280.1577964856397
 11
2061.7722367014112
 21
1280.1577964856397
  0
LINE
  8
_0-2_08_DIM
  6
CONTINUOUS
 62
    3
 10
2058.0222367014112
 20
1252.6577964856397
 11
2058.0222367014112
 21
1272.6577964856394
  0
INSERT
  2
-004-_Open30
  8
_0-2_08_DIM
 10
2058.0222367014112
 20
1245.1577964856397
 41
7.5
 42
7.5
 50
270
  0
INSERT
  2
-004-_Open30
  8
_0-2_08_DIM
 10
2058.0222367014112
 20
1280.1577964856397
 41
7.5
 42
7.5
 50
90
  0
LINE
  8
_0-2_08_DIM
  6
CONTINUOUS
 62
    3
 10
1764.2822884119128
 20
1425.9716570984756
 11
1821.3572884119137
 21
1425.9716570984756
  0
LINE
  8
_0-2_08_DIM
  6
CONTINUOUS
 62
    3
 10
1821.3572884119137
 20
1425.9716570984756
 11
1839.1818276510664
 21
1397.2536440278284
  0
INSERT
  2
-004-_Open30
  8
_0-2_08_DIM
 10
1843.1369795323683
 20
1390.88129959302
 41
7.5
 42
7.5
 50
301.82682094031287
  0
LINE
  8
_0-2_08_DIM
  6
CONTINUOUS
 62
    3
 10
2131.4979714030169
 20
1357.6330699766577
 11
2107.7607869544831
 21
1357.6330699766577
  0
LINE
  8
_0-2_08_DIM
  6
CONTINUOUS
 62
    3
 10
2131.4979714030169
 20
1359.6330699766579
 11
2107.7607869544831
 21
1359.6330699766579
  0
LINE
  8
_0-2_08_DIM
  6
CONTINUOUS
 62
    3
 10
2111.5107869544827
 20
1350.1330699766577
 11
2111.5107869544827
 21
1342.6330699766577
  0
LINE
  8
_0-2_08_DIM
  6
CONTINUOUS
 62
    3
 10
2111.5107869544827
 20
1367.1330699766579
 11
2111.5107869544827
 21
1384.3830699766577
  0
LINE
  8
_0-2_08_DIM
  6
CONTINUOUS
 62
    3
 10
2111.5107869544827
 20
1357.6330699766577
 11
2111.5107869544827
 21
1359.6330699766579
  0
INSERT
  2
-004-_Open30
  8
_0-2_08_DIM
 10
2111.5107869544827
 20
1357.6330699766577
 41
7.5
 42
7.5
 50
90
  0
INSERT
  2
-004-_Open30
  8
_0-2_08_DIM
 10
2111.5107869544827
 20
1359.6330699766579
 41
7.5
 42
7.5
 50
270
  0
INSERT
  2
-003-AM_BALLOON1
  8
_0-2_08_DIM
 10
1533.4311746850597
 20
1485.6656029921787
 41
3.75
 42
3.75
 50
0
  0
TEXT
  8
_0-3_0
 62
    7
 10
1522.7168889707741
 20
1480.0406029921789
 40
11.25
 41
1
 50
0
  1
37
  0
LINE
  8
_0-2_08_DIM
  6
CONTINUOUS
 62
    3
 10
1631.4704440300493
 20
1284.461097344539
 11
1599.8964122221112
 21
1316.0351291524767
  0
INSERT
  2
-004-_Open30
  8
_0-2_08_DIM
 10
1636.7737448889484
 20
1279.1577964856399
 41
7.4999999999999991
 42
7.4999999999999991
 50
315
  0
LINE
  8
_0-2_08_DIM
  6
CONTINUOUS
 62
    3
 10
1631.4704465992841
 20
1401.9363708288338
 11
1599.8964147913464
 21
1433.5104026367717
  0
INSERT
  2
-004-_Open30
  8
_0-2_08_DIM
 10
1636.7737474581834
 20
1396.6330699699349
 41
7.4999999999999991
 42
7.4999999999999991
 50
315
  0
LINE
  8
_0-2_08_DIM
  6
CONTINUOUS
 62
    3
 10
1033.3719541837063
 20
992.452279350514
 11
1033.3719541837063
 21
967.22061315984195
  0
LINE
  8
_0-2_08_DIM
  6
CONTINUOUS
 62
    3
 10
1043.3719541837063
 20
992.45227935051219
 11
1043.3719541837063
 21
967.22061315984195
  0
LINE
  8
_0-2_08_DIM
  6
CONTINUOUS
 62
    3
 10
1025.8719541837063
 20
970.97061315984172
 11
1018.3719541837063
 21
970.97061315984172
  0
LINE
  8
_0-2_08_DIM
  6
CONTINUOUS
 62
    3
 10
1050.8719541837063
 20
970.97061315984172
 11
1072.6219541837063
 21
970.97061315984172
  0
LINE
  8
_0-2_08_DIM
  6
CONTINUOUS
 62
    3
 10
1033.3719541837063
 20
970.97061315984172
 11
1043.3719541837063
 21
970.97061315984172
  0
INSERT
  2
-004-_Open30
  8
_0-2_08_DIM
 10
1033.3719541837063
 20
970.97061315984172
 41
7.5
 42
7.5
 50
0
  0
INSERT
  2
-004-_Open30
  8
_0-2_08_DIM
 10
1043.3719541837063
 20
970.97061315984172
 41
7.5
 42
7.5
 50
180
  0
LINE
  8
_0-2_08_DIM
  6
CONTINUOUS
 62
    3
 10
1038.3719541837099
 20
992.452279350514
 11
1038.3719541837099
 21
945.26825805412705
  0
LINE
  8
_0-2_08_DIM
  6
CONTINUOUS
 62
    3
 10
1003.3719541813017
 20
989.95176181054103
 11
1003.3719541813017
 21
945.26825805412705
  0
LINE
  8
_0-2_08_DIM
  6
CONTINUOUS
 62
    3
 10
1030.8719541837099
 20
949.01825805412682
 11
1010.8719541813017
 21
949.01825805412682
  0
INSERT
  2
-004-_Open30
  8
_0-2_08_DIM
 10
1038.3719541837099
 20
949.01825805412682
 41
7.5
 42
7.5
 50
0
  0
INSERT
  2
-004-_Open30
  8
_0-2_08_DIM
 10
1003.3719541813017
 20
949.01825805412682
 41
7.5
 42
7.5
 50
180
  0
LINE
  8
_0-2_08_DIM
  6
CONTINUOUS
 62
    3
 10
1038.3719541837099
 20
992.452279350514
 11
1038.3719541837099
 21
945.26825805412705
  0
LINE
  8
_0-2_08_DIM
  6
CONTINUOUS
 62
    3
 10
1148.3719541763371
 20
1005.6387731814211
 11
1148.3719541763371
 21
945.26825805412705
  0
LINE
  8
_0-2_08_DIM
  6
CONTINUOUS
 62
    3
 10
1045.8719541837099
 20
949.01825805412682
 11
1140.8719541763371
 21
949.01825805412682
  0
INSERT
  2
-004-_Open30
  8
_0-2_08_DIM
 10
1038.3719541837099
 20
949.01825805412682
 41
7.5
 42
7.5
 50
180
  0
INSERT
  2
-004-_Open30
  8
_0-2_08_DIM
 10
1148.3719541763371
 20
949.01825805412682
 41
7.5
 42
7.5
 50
0
  0
LINE
  8
_0-2_08_DIM
  6
CONTINUOUS
 62
    3
 10
1003.3719541813017
 20
989.95176181054103
 11
1003.3719541813017
 21
924.37811499203292
  0
LINE
  8
_0-2_08_DIM
  6
CONTINUOUS
 62
    3
 10
1223.3719541813016
 20
1020.4517618105411
 11
1223.3719541813016
 21
924.37811499203292
  0
LINE
  8
_0-2_08_DIM
  6
CONTINUOUS
 62
    3
 10
1010.8719541813017
 20
928.12811499203292
 11
1215.8719541813016
 21
928.12811499203292
  0
INSERT
  2
-004-_Open30
  8
_0-2_08_DIM
 10
1003.3719541813017
 20
928.12811499203292
 41
7.5
 42
7.5
 50
180
  0
INSERT
  2
-004-_Open30
  8
_0-2_08_DIM
 10
1223.3719541813016
 20
928.12811499203292
 41
7.5
 42
7.5
 50
0
  0
LINE
  8
_0-2_08_DIM
  6
CONTINUOUS
 62
    3
 10
1234.9541627701985
 20
1022.326761809126
 11
1265.5043521509388
 21
1022.326761809126
  0
LINE
  8
_0-2_08_DIM
  6
CONTINUOUS
 62
    3
 10
1217.8394833548236
 20
989.82676181054103
 11
1265.5043521509388
 21
989.82676181054103
  0
LINE
  8
_0-2_08_DIM
  6
CONTINUOUS
 62
    3
 10
1261.754352150939
 20
1014.826761809126
 11
1261.754352150939
 21
997.32676181054103
  0
INSERT
  2
-004-_Open30
  8
_0-2_08_DIM
 10
1261.754352150939
 20
1022.326761809126
 41
7.5
 42
7.5
 50
90
  0
INSERT
  2
-004-_Open30
  8
_0-2_08_DIM
 10
1261.754352150939
 20
989.82676181054103
 41
7.5
 42
7.5
 50
270
  0
LINE
  8
_0-2_08_DIM
  6
CONTINUOUS
 62
    3
 10
1031.4969541837065
 20
998.82676180977353
 11
983.99973856461111
 21
998.82676180977353
  0
LINE
  8
_0-2_08_DIM
  6
CONTINUOUS
 62
    3
 10
1031.4969541837065
 20
1010.8267618097734
 11
983.99973856461111
 21
1010.8267618097734
  0
LINE
  8
_0-2_08_DIM
  6
CONTINUOUS
 62
    3
 10
987.74973856461111
 20
991.32676180977353
 11
987.74973856461111
 21
983.82676180977353
  0
LINE
  8
_0-2_08_DIM
  6
CONTINUOUS
 62
    3
 10
987.74973856461111
 20
1018.3267618097734
 11
987.74973856461133
 21
1041.5767618097736
  0
LINE
  8
_0-2_08_DIM
  6
CONTINUOUS
 62
    3
 10
987.74973856461111
 20
998.82676180977353
 11
987.74973856461111
 21
1010.8267618097734
  0
INSERT
  2
-004-_Open30
  8
_0-2_08_DIM
 10
987.74973856461111
 20
998.82676180977353
 41
7.5
 42
7.5
 50
90
  0
INSERT
  2
-004-_Open30
  8
_0-2_08_DIM
 10
987.74973856461111
 20
1010.8267618097734
 41
7.5
 42
7.5
 50
270
  0
LINE
  8
_0-2_08_DIM
  6
CONTINUOUS
 62
    3
 10
1020.8205742331749
 20
1004.826761809126
 11
963.27434697198089
 21
1004.826761809126
  0
LINE
  8
_0-2_08_DIM
  6
CONTINUOUS
 62
    3
 10
1020.8205742331749
 20
1039.8267618119564
 11
963.27434697198089
 21
1039.8267618119564
  0
LINE
  8
_0-2_08_DIM
  6
CONTINUOUS
 62
    3
 10
967.02434697198066
 20
1012.3267618091257
 11
967.02434697198066
 21
1032.3267618119564
  0
INSERT
  2
-004-_Open30
  8
_0-2_08_DIM
 10
967.02434697198066
 20
1004.826761809126
 41
7.5
 42
7.5
 50
270
  0
INSERT
  2
-004-_Open30
  8
_0-2_08_DIM
 10
967.02434697198089
 20
1039.8267618119564
 41
7.5
 42
7.5
 50
90
  0
LINE
  8
_0-2_08_DIM
  6
CONTINUOUS
 62
    3
 10
1003.4969541813053
 20
1054.826761810541
 11
940.35892922903622
 21
1054.826761810541
  0
LINE
  8
_0-2_08_DIM
  6
CONTINUOUS
 62
    3
 10
1003.4969541813053
 20
989.82676181054103
 11
940.35892922903622
 21
989.82676181054103
  0
LINE
  8
_0-2_08_DIM
  6
CONTINUOUS
 62
    3
 10
944.10892922903645
 20
1047.326761810541
 11
944.10892922903622
 21
997.32676181054103
  0
INSERT
  2
-004-_Open30
  8
_0-2_08_DIM
 10
944.10892922903645
 20
1054.826761810541
 41
7.5
 42
7.5
 50
90
  0
INSERT
  2
-004-_Open30
  8
_0-2_08_DIM
 10
944.10892922903622
 20
989.82676181054103
 41
7.5
 42
7.5
 50
270
  0
LINE
  8
_0-2_08_DIM
  6
CONTINUOUS
 62
    3
 10
1203.9286723093901
 20
1083.8436934391516
 11
1176.5536723093899
 21
1083.8436934391516
  0
LINE
  8
_0-2_08_DIM
  6
CONTINUOUS
 62
    3
 10
1176.5536723093899
 20
1083.8436934391516
 11
1154.8275385018567
 21
1036.4184413064745
  0
INSERT
  2
-004-_Open30
  8
_0-2_08_DIM
 10
1151.703868666928
 20
1029.5998867116682
 41
7.4999999999999991
 42
7.4999999999999991
 50
245.38685942017651
  0
LINE
  8
_0-2_08_DIM
  6
CONTINUOUS
 62
    3
 10
1223.3719541813016
 20
1020.4517618105411
 11
1223.3719541813016
 21
947.53985264493758
  0
LINE
  8
_0-2_08_DIM
  6
CONTINUOUS
 62
    3
 10
1215.9644833548748
 20
987.95176181064505
 11
1215.9644833548748
 21
947.53985264493758
  0
LINE
  8
_0-2_08_DIM
  6
CONTINUOUS
 62
    3
 10
1230.8719541813016
 20
951.2898526449377
 11
1238.3719541813016
 21
951.2898526449377
  0
LINE
  8
_0-2_08_DIM
  6
CONTINUOUS
 62
    3
 10
1208.4644833548746
 20
951.2898526449377
 11
1167.2144833548748
 21
951.2898526449377
  0
LINE
  8
_0-2_08_DIM
  6
CONTINUOUS
 62
    3
 10
1223.3719541813016
 20
951.2898526449377
 11
1215.9644833548748
 21
951.2898526449377
  0
INSERT
  2
-004-_Open30
  8
_0-2_08_DIM
 10
1223.3719541813016
 20
951.2898526449377
 41
7.5
 42
7.5
 50
180
  0
INSERT
  2
-004-_Open30
  8
_0-2_08_DIM
 10
1215.9644833548748
 20
951.2898526449377
 41
7.5
 42
7.5
 50
0
  0
LINE
  8
_0-2_08_DIM
  6
CONTINUOUS
 62
    3
 10
1276.7344439429178
 20
1052.5319017519314
 11
1250.8594439429176
 21
1052.5319017519314
  0
LINE
  8
_0-2_08_DIM
  6
CONTINUOUS
 62
    3
 10
1250.8594439429176
 20
1052.5319017519314
 11
1227.5066867585167
 21
1045.6493710120467
  0
INSERT
  2
-004-_Open30
  8
_0-2_08_DIM
 10
1220.3126201605696
 20
1043.5291338120373
 41
7.5000000000000009
 42
7.5000000000000009
 50
196.42131350655359
  0
LINE
  8
_0-2_08_DIM
  6
CONTINUOUS
 62
    3
 10
1001.4969541837064
 20
865.80804631791455
 11
964.77902818037182
 21
865.80804631791455
  0
LINE
  8
_0-2_08_DIM
  6
CONTINUOUS
 62
    3
 10
1001.4969541837064
 20
877.80804631791455
 11
964.77902818037182
 21
877.80804631791455
  0
LINE
  8
_0-2_08_DIM
  6
CONTINUOUS
 62
    3
 10
968.52902818037182
 20
858.30804631791443
 11
968.52902818037182
 21
850.80804631791443
  0
LINE
  8
_0-2_08_DIM
  6
CONTINUOUS
 62
    3
 10
968.52902818037182
 20
885.30804631791455
 11
968.52902818037182
 21
908.55804631791455
  0
LINE
  8
_0-2_08_DIM
  6
CONTINUOUS
 62
    3
 10
968.52902818037182
 20
865.80804631791455
 11
968.52902818037182
 21
877.80804631791455
  0
INSERT
  2
-004-_Open30
  8
_0-2_08_DIM
 10
968.52902818037182
 20
865.80804631791455
 41
7.5
 42
7.5
 50
90
  0
INSERT
  2
-004-_Open30
  8
_0-2_08_DIM
 10
968.52902818037182
 20
877.80804631791455
 41
7.5
 42
7.5
 50
270
  0
INSERT
  2
-003-AM_BALLOON1
  8
_0-2_08_DIM
 10
775.0690323316519
 20
1112.8154508166006
 41
3.75
 42
3.75
 50
0
  0
TEXT
  8
_0-3_0
 62
    7
 10
764.35474661736623
 20
1107.1904508166006
 40
11.25
 41
1
 50
0
  1
38
  0
LINE
  8
_0-2_08_DIM
  6
CONTINUOUS
 62
    3
 10
1834.7892634761356
 20
965.30691478839356
 11
1834.7892634761356
 21
984.19897513922126
  0
LINE
  8
_0-2_08_DIM
  6
CONTINUOUS
 62
    3
 10
1809.7892634761356
 20
964.22441478838925
 11
1809.7892634761356
 21
984.19897513922126
  0
LINE
  8
_0-2_08_DIM
  6
CONTINUOUS
 62
    3
 10
1827.2892634761358
 20
980.44897513922126
 11
1817.2892634761358
 21
980.44897513922126
  0
INSERT
  2
-004-_Open30
  8
_0-2_08_DIM
 10
1834.7892634761356
 20
980.44897513922126
 41
7.5
 42
7.5
 50
0
  0
INSERT
  2
-004-_Open30
  8
_0-2_08_DIM
 10
1809.7892634761356
 20
980.44897513922126
 41
7.5
 42
7.5
 50
180
  0
LINE
  8
_0-2_08_DIM
  6
CONTINUOUS
 62
    3
 10
1809.7892634761356
 20
964.22441478838925
 11
1809.7892634761356
 21
1009.2875839141793
  0
LINE
  8
_0-2_08_DIM
  6
CONTINUOUS
 62
    3
 10
1844.7892634807467
 20
970.79969319316388
 11
1844.7892634807467
 21
1009.2875839141793
  0
LINE
  8
_0-2_08_DIM
  6
CONTINUOUS
 62
    3
 10
1817.2892634761358
 20
1005.5375839141795
 11
1837.2892634807467
 21
1005.5375839141795
  0
INSERT
  2
-004-_Open30
  8
_0-2_08_DIM
 10
1809.7892634761356
 20
1005.5375839141795
 41
7.5
 42
7.5
 50
180
  0
INSERT
  2
-004-_Open30
  8
_0-2_08_DIM
 10
1844.7892634807467
 20
1005.5375839141795
 41
7.5
 42
7.5
 50
0
  0
LINE
  8
_0-2_08_DIM
  6
CONTINUOUS
 62
    3
 10
1844.7892634807467
 20
970.79969319316388
 11
1844.7892634807467
 21
1009.2875839141793
  0
LINE
  8
_0-2_08_DIM
  6
CONTINUOUS
 62
    3
 10
1884.7892634797863
 20
970.79969319316388
 11
1884.7892634797863
 21
1009.2875839141793
  0
LINE
  8
_0-2_08_DIM
  6
CONTINUOUS
 62
    3
 10
1852.2892634807467
 20
1005.5375839141795
 11
1877.2892634797865
 21
1005.5375839141795
  0
INSERT
  2
-004-_Open30
  8
_0-2_08_DIM
 10
1844.7892634807467
 20
1005.5375839141795
 41
7.5
 42
7.5
 50
180
  0
INSERT
  2
-004-_Open30
  8
_0-2_08_DIM
 10
1884.7892634797863
 20
1005.5375839141795
 41
7.5
 42
7.5
 50
0
  0
LINE
  8
_0-2_08_DIM
  6
CONTINUOUS
 62
    3
 10
1808.9967634761306
 20
947.43191478839333
 11
1772.9650558103203
 21
947.43191478839333
  0
LINE
  8
_0-2_08_DIM
  6
CONTINUOUS
 62
    3
 10
1808.9967634761306
 20
963.43191478839344
 11
1772.9650558103203
 21
963.43191478839344
  0
LINE
  8
_0-2_08_DIM
  6
CONTINUOUS
 62
    3
 10
1776.7150558103203
 20
939.93191478839356
 11
1776.7150558103203
 21
932.43191478839356
  0
LINE
  8
_0-2_08_DIM
  6
CONTINUOUS
 62
    3
 10
1776.7150558103203
 20
970.93191478839356
 11
1776.7150558103203
 21
1003.1819147883936
  0
LINE
  8
_0-2_08_DIM
  6
CONTINUOUS
 62
    3
 10
1776.7150558103203
 20
947.43191478839333
 11
1776.7150558103203
 21
963.43191478839344
  0
INSERT
  2
-004-_Open30
  8
_0-2_08_DIM
 10
1776.7150558103203
 20
947.43191478839333
 41
7.5
 42
7.5
 50
90
  0
INSERT
  2
-004-_Open30
  8
_0-2_08_DIM
 10
1776.7150558103203
 20
963.43191478839344
 41
7.5
 42
7.5
 50
270
  0
LINE
  8
_0-2_08_DIM
  6
CONTINUOUS
 62
    3
 10
1726.2502833680355
 20
941.92461917937646
 11
1755.4144090746183
 21
941.92461917937646
  0
LINE
  8
_0-2_08_DIM
  6
CONTINUOUS
 62
    3
 10
1726.2502833680355
 20
968.92469319316399
 11
1755.4144090746183
 21
968.92469319316399
  0
LINE
  8
_0-2_08_DIM
  6
CONTINUOUS
 62
    3
 10
1751.6644090746186
 20
949.42461917937646
 11
1751.6644090746186
 21
961.42469319316399
  0
INSERT
  2
-004-_Open30
  8
_0-2_08_DIM
 10
1751.6644090746186
 20
941.92461917937646
 41
7.5
 42
7.5
 50
270
  0
INSERT
  2
-004-_Open30
  8
_0-2_08_DIM
 10
1751.6644090746186
 20
968.92469319316399
 41
7.5
 42
7.5
 50
90
  0
LINE
  8
_0-2_08_DIM
  6
CONTINUOUS
 62
    3
 10
1844.78926347941
 20
1054.85155938465
 11
1844.78926347941
 21
1028.317495854679
  0
LINE
  8
_0-2_08_DIM
  6
CONTINUOUS
 62
    3
 10
1869.7892634797715
 20
1060.996266237657
 11
1869.7892634797715
 21
1028.317495854679
  0
LINE
  8
_0-2_08_DIM
  6
CONTINUOUS
 62
    3
 10
1852.2892634794098
 20
1032.0674958546788
 11
1862.289263479772
 21
1032.0674958546788
  0
INSERT
  2
-004-_Open30
  8
_0-2_08_DIM
 10
1844.78926347941
 20
1032.0674958546788
 41
7.5
 42
7.5
 50
180
  0
INSERT
  2
-004-_Open30
  8
_0-2_08_DIM
 10
1869.7892634797715
 20
1032.0674958546788
 41
7.5
 42
7.5
 50
0
  0
LINE
  8
_0-2_08_DIM
  6
CONTINUOUS
 62
    3
 10
1934.4023799710772
 20
1031.3372960573965
 11
1895.3273799710782
 21
1031.3372960573965
  0
LINE
  8
_0-2_08_DIM
  6
CONTINUOUS
 62
    3
 10
1895.3273799710782
 20
1031.3372960573965
 11
1876.4015011284671
 21
1061.699864450085
  0
INSERT
  2
-004-_Open30
  8
_0-2_08_DIM
 10
1872.4341585392499
 20
1068.0646262507955
 41
7.5
 42
7.5
 50
121.93649669972044
  0
LINE
  8
_0-2_08_DIM
  6
CONTINUOUS
 62
    3
 10
1804.9859626172363
 20
942.62861392949435
 11
1787.8025626643071
 21
925.44521397656467
  0
INSERT
  2
-004-_Open30
  8
_0-2_08_DIM
 10
1810.2892634761358
 20
947.93191478839344
 41
7.5
 42
7.5
 50
45
  0
LINE
  8
_0-2_08_DIM
  6
CONTINUOUS
 62
    3
 10
1780.044608772693
 20
900.49222311721451
 11
1810.4731802012648
 21
900.49222311721451
  0
INSERT
  2
-004-_Open30
  8
_0-2_08_DIM
 10
1822.2892634761356
 20
947.43191478839333
 41
7.5000000000000009
 42
7.5000000000000009
 50
73.208137172977146
  0
LINE
  8
_0-2_08_DIM
  6
CONTINUOUS
 62
    3
 10
1820.1225447130773
 20
940.25171076609649
 11
1808.1246087726929
 21
900.49222311721451
  0
LINE
  8
_0-2_08_DIM
  6
CONTINUOUS
 62
    3
 10
1808.1246087726929
 20
900.49222311721451
 11
1807.044608772693
 21
900.49222311721451
  0
INSERT
  2
-003-AM_BALLOON1
  8
_0-2_08_DIM
 10
1572.9329950592307
 20
1084.8283836767805
 41
3.75
 42
3.75
 50
0
  0
TEXT
  8
_0-3_0
 62
    7
 10
1562.4865664878023
 20
1079.2033836767803
 40
11.25
 41
1
 50
0
  1
39
  0
INSERT
  2
-003-AM_BALLOON1
  8
_0-2_08_DIM
 10
1254.1358452217335
 20
725.53706974995737
 41
3.75
 42
3.75
 50
0
  0
TEXT
  8
_0-3_0
 62
    7
 10
1245.0287023645906
 20
719.91206974995737
 40
11.25
 41
1
 50
0
  1
41
  0
LINE
  8
_0-2_08_DIM
  6
CONTINUOUS
 62
    3
 10
1440.8103906745619
 20
618.8437748861744
 11
1440.8103906745619
 21
686.08477702476148
  0
LINE
  8
_0-2_08_DIM
  6
CONTINUOUS
 62
    3
 10
1425.8103906745621
 20
627.00272407478599
 11
1425.8103906745621
 21
686.08477702476148
  0
LINE
  8
_0-2_08_DIM
  6
CONTINUOUS
 62
    3
 10
1448.3103906745619
 20
682.33477702476159
 11
1455.8103906745619
 21
682.33477702476159
  0
LINE
  8
_0-2_08_DIM
  6
CONTINUOUS
 62
    3
 10
1418.3103906745619
 20
682.33477702476159
 11
1395.0603906745621
 21
682.33477702476159
  0
LINE
  8
_0-2_08_DIM
  6
CONTINUOUS
 62
    3
 10
1440.8103906745619
 20
682.33477702476159
 11
1425.8103906745621
 21
682.33477702476159
  0
INSERT
  2
-004-_Open30
  8
_0-2_08_DIM
 10
1440.8103906745619
 20
682.33477702476159
 41
7.5
 42
7.5
 50
180
  0
INSERT
  2
-004-_Open30
  8
_0-2_08_DIM
 10
1425.8103906745621
 20
682.33477702476159
 41
7.5
 42
7.5
 50
0
  0
LINE
  8
_0-2_08_DIM
  6
CONTINUOUS
 62
    3
 10
1425.8103906745621
 20
627.00272407478599
 11
1425.8103906745621
 21
716.71583021962908
  0
LINE
  8
_0-2_08_DIM
  6
CONTINUOUS
 62
    3
 10
1735.8103906745619
 20
627.00272407478599
 11
1735.8103906745619
 21
716.71583021962908
  0
LINE
  8
_0-2_08_DIM
  6
CONTINUOUS
 62
    3
 10
1433.3103906745621
 20
712.96583021962908
 11
1728.3103906745619
 21
712.96583021962908
  0
INSERT
  2
-004-_Open30
  8
_0-2_08_DIM
 10
1425.8103906745621
 20
712.96583021962908
 41
7.5
 42
7.5
 50
180
  0
INSERT
  2
-004-_Open30
  8
_0-2_08_DIM
 10
1735.8103906745619
 20
712.96583021962908
 41
7.5
 42
7.5
 50
0
  0
LINE
  8
_0-2_08_DIM
  6
CONTINUOUS
 62
    3
 10
1440.8103906745619
 20
618.8437748861744
 11
1440.8103906745619
 21
686.08477702476148
  0
LINE
  8
_0-2_08_DIM
  6
CONTINUOUS
 62
    3
 10
1720.8103906745619
 20
618.8437748861744
 11
1720.8103906745619
 21
686.08477702476148
  0
LINE
  8
_0-2_08_DIM
  6
CONTINUOUS
 62
    3
 10
1448.3103906745619
 20
682.33477702476159
 11
1713.3103906745619
 21
682.33477702476159
  0
INSERT
  2
-004-_Open30
  8
_0-2_08_DIM
 10
1440.8103906745619
 20
682.33477702476159
 41
7.5
 42
7.5
 50
180
  0
INSERT
  2
-004-_Open30
  8
_0-2_08_DIM
 10
1720.8103906745619
 20
682.33477702476159
 41
7.5
 42
7.5
 50
0
  0
LINE
  8
_0-2_08_DIM
  6
CONTINUOUS
 62
    3
 10
1720.8103906745619
 20
618.8437748861744
 11
1720.8103906745619
 21
686.08477702476148
  0
LINE
  8
_0-2_08_DIM
  6
CONTINUOUS
 62
    3
 10
1735.8103906745619
 20
627.00272407478599
 11
1735.8103906745619
 21
686.08477702476148
  0
LINE
  8
_0-2_08_DIM
  6
CONTINUOUS
 62
    3
 10
1713.3103906745619
 20
682.33477702476159
 11
1705.8103906745621
 21
682.33477702476159
  0
LINE
  8
_0-2_08_DIM
  6
CONTINUOUS
 62
    3
 10
1743.3103906745616
 20
682.33477702476159
 11
1766.5603906745619
 21
682.33477702476159
  0
LINE
  8
_0-2_08_DIM
  6
CONTINUOUS
 62
    3
 10
1720.8103906745619
 20
682.33477702476159
 11
1735.8103906745619
 21
682.33477702476159
  0
INSERT
  2
-004-_Open30
  8
_0-2_08_DIM
 10
1720.8103906745619
 20
682.33477702476159
 41
7.5
 42
7.5
 50
0
  0
INSERT
  2
-004-_Open30
  8
_0-2_08_DIM
 10
1735.8103906745619
 20
682.33477702476159
 41
7.5
 42
7.5
 50
180
  0
LINE
  8
_0-2_08_DIM
  6
CONTINUOUS
 62
    3
 10
1425.9353906745621
 20
627.12772407478599
 11
1393.8657658044394
 21
627.12772407478599
  0
LINE
  8
_0-2_08_DIM
  6
CONTINUOUS
 62
    3
 10
1425.9353906745621
 20
592.12772407478599
 11
1393.8657658044394
 21
592.12772407478599
  0
LINE
  8
_0-2_08_DIM
  6
CONTINUOUS
 62
    3
 10
1397.6157658044397
 20
619.62772407478587
 11
1397.6157658044397
 21
599.62772407478599
  0
INSERT
  2
-004-_Open30
  8
_0-2_08_DIM
 10
1397.6157658044397
 20
627.12772407478599
 41
7.5
 42
7.5
 50
90
  0
INSERT
  2
-004-_Open30
  8
_0-2_08_DIM
 10
1397.6157658044397
 20
592.12772407478599
 41
7.5
 42
7.5
 50
270
  0
LINE
  8
_0-2_08_DIM
  6
CONTINUOUS
 62
    3
 10
1514.9147505589838
 20
654.347558208539
 11
1466.8397505589835
 21
654.34755820853877
  0
LINE
  8
_0-2_08_DIM
  6
CONTINUOUS
 62
    3
 10
1466.8397505589835
 20
654.34755820853877
 11
1446.8469409647778
 21
619.99884072602913
  0
INSERT
  2
-004-_Open30
  8
_0-2_08_DIM
 10
1443.0740970333929
 20
613.51689281900224
 41
7.5
 42
7.5
 50
239.79828226223611
  0
LINE
  8
_0-2_08_DIM
  6
CONTINUOUS
 62
    3
 10
1421.5070898156628
 20
587.82442321588701
 11
1390.1608733200369
 21
556.47820672026126
  0
INSERT
  2
-004-_Open30
  8
_0-2_08_DIM
 10
1426.8103906745619
 20
593.12772407478599
 41
7.5
 42
7.5
 50
45
  0
LINE
  8
_0-2_08_DIM
  6
CONTINUOUS
 62
    3
 10
1358.4675714345758
 20
629.00272407477144
 11
1358.4675714345758
 21
653.20066705501495
  0
LINE
  8
_0-2_08_DIM
  6
CONTINUOUS
 62
    3
 10
1355.467571434576
 20
629.00272407477144
 11
1355.467571434576
 21
653.20066705501495
  0
LINE
  8
_0-2_08_DIM
  6
CONTINUOUS
 62
    3
 10
1365.9675714345758
 20
649.45066705501506
 11
1373.4675714345758
 21
649.45066705501506
  0
LINE
  8
_0-2_08_DIM
  6
CONTINUOUS
 62
    3
 10
1347.9675714345758
 20
649.45066705501506
 11
1330.7175714345758
 21
649.45066705501506
  0
LINE
  8
_0-2_08_DIM
  6
CONTINUOUS
 62
    3
 10
1358.4675714345758
 20
649.45066705501506
 11
1355.467571434576
 21
649.45066705501506
  0
INSERT
  2
-004-_Open30
  8
_0-2_08_DIM
 10
1358.4675714345758
 20
649.45066705501506
 41
7.5
 42
7.5
 50
180
  0
INSERT
  2
-004-_Open30
  8
_0-2_08_DIM
 10
1355.467571434576
 20
649.45066705501506
 41
7.5
 42
7.5
 50
0
  0
TEXT
  8
_0-7_07_TEXT
 62
    3
 10
2060.9468332985443
 20
748.55430561882793
 40
9
 41
1
 50
0
  1
注記
  0
TEXT
  8
_0-7_07_TEXT
 62
    3
 10
2061.6668332985446
 20
731.81730561882796
 40
9
 41
1
 50
0
  1
　指示なき角部は
  0
TEXT
  8
_0-7_07_TEXT
 62
    3
 10
2158.6418332985445
 20
731.81730561882796
 40
9
 41
1
 50
0
  1
C0.5
  0
TEXT
  8
_0-7_07_TEXT
 62
    3
 10
2189.0704047271161
 20
731.81730561882796
 40
9
 41
1
 50
0
  1
のこと
  0
TEXT
  8
_0-2_08_DIM
 62
    3
 10
935.48760533617474
 20
1439.8724871489376
 40
9
 41
1
 50
0
  1
15
  0
TEXT
  8
_0-2_08_DIM
 62
    3
 10
1056.5768910554007
 20
1439.8724871489376
 40
9
 41
1
 50
0
  1
175
  0
TEXT
  8
_0-2_08_DIM
 62
    3
 10
942.16597415107037
 20
1411.0794985413618
 40
9
 41
1
 50
90
  1
11
  0
TEXT
  8
_0-2_08_DIM
 62
    3
 10
919.09085089250493
 20
1369.0616413985047
 40
9
 41
1
 50
90
  1
40
  0
TEXT
  8
_0-2_08_DIM
 62
    3
 10
1154.7197481933174
 20
1325.0964969197532
 40
9
 41
1
 50
0
  1
400
  0
TEXT
  8
_0-2_08_DIM
 62
    3
 10
943.45340180722906
 20
1254.0863679142115
 40
9
 41
1
 50
90
  1
35
  0
TEXT
  8
_0-2_08_DIM
 62
    3
 10
1184.1934215252988
 20
1428.3596570984755
 40
9
 41
1
 50
0
  1
2-10
  0
TEXT
  8
_0-2_08_DIM
 62
    3
 10
1221.0505643824417
 20
1428.3596570984755
 40
9
 41
1
 50
0
  1
キリ
  0
TEXT
  8
_0-2_08_DIM
 62
    3
 10
889.96485155415746
 20
1375.2223556909435
 40
9
 41
1
 50
90
  1
2
  0
TEXT
  8
_0-2_08_DIM
 62
    3
 10
1377.2805958278207
 20
1409.9884251767478
 40
9
 41
1
 50
44.999999999999595
  1
2-C2
  0
TEXT
  8
_0-2_08_DIM
 62
    3
 10
1377.2805983970557
 20
1292.5131516924532
 40
9
 41
1
 50
44.999999999999879
  1
2-C2
  0
TEXT
  8
_0-2_08_DIM
 62
    3
 10
2049.4344617438946
 20
1439.8724871489376
 40
9
 41
1
 50
0
  1
15
  0
TEXT
  8
_0-2_08_DIM
 62
    3
 10
1919.7737474532398
 20
1439.8724871489376
 40
9
 41
1
 50
0
  1
175
  0
TEXT
  8
_0-2_08_DIM
 62
    3
 10
2057.43466435757
 20
1411.0794985413618
 40
9
 41
1
 50
90
  1
11
  0
TEXT
  8
_0-2_08_DIM
 62
    3
 10
2080.5097876161353
 20
1369.0616413985047
 40
9
 41
1
 50
90
  1
40
  0
TEXT
  8
_0-2_08_DIM
 62
    3
 10
1822.9166046010371
 20
1325.0964969197532
 40
9
 41
1
 50
0
  1
400
  0
TEXT
  8
_0-2_08_DIM
 62
    3
 10
2056.1472367014112
 20
1254.0863679142115
 40
9
 41
1
 50
90
  1
35
  0
TEXT
  8
_0-2_08_DIM
 62
    3
 10
1760.1073598404839
 20
1428.3596570984755
 40
9
 41
1
 50
0
  1
2-10
  0
TEXT
  8
_0-2_08_DIM
 62
    3
 10
1796.9645026976268
 20
1428.3596570984755
 40
9
 41
1
 50
0
  1
キリ
  0
TEXT
  8
_0-2_08_DIM
 62
    3
 10
2109.6357869544827
 20
1375.2223556909437
 40
9
 41
1
 50
90
  1
2
  0
TEXT
  8
_0-2_08_DIM
 62
    3
 10
1601.0328338347324
 20
1317.5503579693052
 40
9
 41
1
 50
-45.000000000000057
  1
2-C2
  0
TEXT
  8
_0-2_08_DIM
 62
    3
 10
1601.0328364039672
 20
1435.0256314536002
 40
9
 41
1
 50
-44.999999999999844
  1
2-C2
  0
TEXT
  8
_0-2_08_DIM
 62
    3
 10
1056.2826684694207
 20
972.84561315984183
 40
9
 41
1
 50
0
  1
10
  0
TEXT
  8
_0-2_08_DIM
 62
    3
 10
1012.3005256110773
 20
950.89325805412693
 40
9
 41
1
 50
0
  1
35
  0
TEXT
  8
_0-2_08_DIM
 62
    3
 10
1079.8719541800237
 20
950.89325805412693
 40
9
 41
1
 50
0
  1
110
  0
TEXT
  8
_0-2_08_DIM
 62
    3
 10
1100.5148113241589
 20
930.00311499203281
 40
9
 41
1
 50
0
  1
220
  0
TEXT
  8
_0-2_08_DIM
 62
    3
 10
1259.8793521509388
 20
991.07676180983367
 40
9
 41
1
 50
90
  1
32.5
  0
TEXT
  8
_0-2_08_DIM
 62
    3
 10
985.87473856461099
 20
1024.4874760954879
 40
9
 41
1
 50
90
  1
12
  0
TEXT
  8
_0-2_08_DIM
 62
    3
 10
965.14934697198055
 20
1013.7553332391127
 40
9
 41
1
 50
90
  1
35
  0
TEXT
  8
_0-2_08_DIM
 62
    3
 10
942.23392922903611
 20
1013.541047524827
 40
9
 41
1
 50
90
  1
65
  0
TEXT
  8
_0-2_08_DIM
 62
    3
 10
1179.5001008808185
 20
1085.7186934391518
 40
9
 41
1
 50
0
  1
M16
  0
TEXT
  8
_0-2_08_DIM
 62
    3
 10
1167.375197640589
 20
954.66485264493781
 40
9
 41
1
 50
0
  1
(7.4)
  0
TEXT
  8
_0-2_08_DIM
 62
    3
 10
1251.4487296572036
 20
1054.4069017519314
 40
9
 41
1
 50
0
  1
R75
  0
TEXT
  8
_0-2_08_DIM
 62
    3
 10
966.65402818037171
 20
891.46876060362888
 40
9
 41
1
 50
90
  1
12
  0
TEXT
  8
_0-2_08_DIM
 62
    3
 10
1813.7178349047072
 20
982.32397513922115
 40
9
 41
1
 50
0
  1
25
  0
TEXT
  8
_0-2_08_DIM
 62
    3
 10
1818.7178349070125
 20
1007.4125839141794
 40
9
 41
1
 50
0
  1
35
  0
TEXT
  8
_0-2_08_DIM
 62
    3
 10
1856.2178349088383
 20
1007.4125839141794
 40
9
 41
1
 50
0
  1
40
  0
TEXT
  8
_0-2_08_DIM
 62
    3
 10
1774.8400558103201
 20
978.16405764553645
 40
9
 41
1
 50
90
  1
?16
  0
TEXT
  8
_0-2_08_DIM
 62
    3
 10
1749.7894090746183
 20
946.8532276148419
 40
9
 41
1
 50
90
  1
27
  0
TEXT
  8
_0-2_08_DIM
 62
    3
 10
1848.7178349081623
 20
1033.9424958546788
 40
9
 41
1
 50
0
  1
25
  0
TEXT
  8
_0-2_08_DIM
 62
    3
 10
1897.7417371139341
 20
1033.7252960573969
 40
9
 41
1
 50
0
  1
10
  0
TEXT
  8
_0-2_08_DIM
 62
    3
 10
1914.8845942567909
 20
1033.7252960573969
 40
9
 41
1
 50
0
  1
キリ
  0
TEXT
  8
_0-2_08_DIM
 62
    3
 10
1786.7419024925268
 20
927.03620423423467
 40
9
 41
1
 50
44.999999999998813
  1
C1
  0
TEXT
  8
_0-2_08_DIM
 62
    3
 10
1774.9017516298361
 20
902.29222311721458
 40
9
 41
1
 50
0
  1
M16
  0
TEXT
  8
_0-2_08_DIM
 62
    3
 10
1393.7211049602761
 20
684.20977702476148
 40
9
 41
1
 50
0
  1
15
  0
TEXT
  8
_0-2_08_DIM
 62
    3
 10
1567.9532478174192
 20
714.84083021962897
 40
9
 41
1
 50
0
  1
310
  0
TEXT
  8
_0-2_08_DIM
 62
    3
 10
1567.9532478174192
 20
684.20977702476148
 40
9
 41
1
 50
0
  1
280
  0
TEXT
  8
_0-2_08_DIM
 62
    3
 10
1749.4711049602763
 20
684.20977702476148
 40
9
 41
1
 50
0
  1
15
  0
TEXT
  8
_0-2_08_DIM
 62
    3
 10
1395.7407658044394
 20
601.05629550335743
 40
9
 41
1
 50
90
  1
35
  0
TEXT
  8
_0-2_08_DIM
 62
    3
 10
1466.5755362732696
 20
656.73555820853892
 40
9
 41
1
 50
0
  1
2-9
  0
TEXT
  8
_0-2_08_DIM
 62
    3
 10
1494.861250558984
 20
656.73555820853892
 40
9
 41
1
 50
0
  1
キリ
  0
TEXT
  8
_0-2_08_DIM
 62
    3
 10
1388.6456445032088
 20
557.61462833288226
 40
9
 41
1
 50
45.000000000000242
  1
4-C2
  0
TEXT
  8
_0-2_08_DIM
 62
    3
 10
1331.3068571488616
 20
651.32566705501495
 40
9
 41
1
 50
0
  1
3
  0
TEXT
  8
_0-0_90_FRAME
 62
    3
 10
893.26860636342735
 20
167.46447353063505
 40
9
 41
1
 50
0
  1
寺田
  0
TEXT
  8
_0-0_90_FRAME
 62
    3
 10
663.38378887131785
 20
167.46447353063505
 40
9
 41
0.65
 50
0
  1
2013.09.01
  0
TEXT
  8
_0-0_90_FRAME
 62
    3
 10
723.35885091084947
 20
167.46447353063505
 40
9
 41
1
 50
0
  1
エアー抜き追加
  0
TEXT
  8
_0-8_
 62
    7
 10
1160.3374107323375
 20
166.38903042308678
 40
20.347660236123438
 41
1
 50
0
  1
A3　150%
  0
ENDSEC
  0
EOF
