  0
SECTION
  2
HEADER
  9
$ACADVER
  1
AC1009
  9
$INSBASE
 10
0
 20
0
 30
0
  9
$EXTMIN
 10
0
 20
0
  9
$EXTMAX
 10
6648.948311225513
 20
4701.7563057951838
  9
$LIMMIN
 10
0
 20
0
  9
$LIMMAX
 10
6648.948311225513
 20
4701.7563057951838
  9
$LTSCALE
 40
15.830829312441697
  0
ENDSEC
  0
SECTION
  2
TABLES
  0
TABLE
  2
LTYPE
 70
     9
  0
LTYPE
  2
CONTINUOUS
 70
    64
  3
Ä└É³
 72
    65
 73
     0
 40
0.0
  0
LTYPE
  2
DASHED1
 70
    64
  3
--  --  --  --  --  --  --  --  
 72
    65
 73
     2
 40
2.5
 49
1.25
 49
-1.25
  0
LTYPE
  2
DASHED2
 70
    64
  3
----    ----    ----    ----    
 72
    65
 73
     2
 40
5.0
 49
2.5
 49
-2.5
  0
LTYPE
  2
DASHED3
 70
    64
  3
------  ------  ------  ------  
 72
    65
 73
     2
 40
5.0
 49
3.75
 49
-1.25
  0
LTYPE
  2
CENTER1
 70
    64
  3
----- - ----- - ----- - ----- - 
 72
    65
 73
     4
 40
10.0
 49
6.25
 49
-1.25
 49
1.25
 49
-1.25
  0
LTYPE
  2
CENTER2
 70
    64
  3
----------  --  ----------  --  
 72
    65
 73
     4
 40
20.0
 49
12.5
 49
-2.5
 49
2.5
 49
-2.5
  0
LTYPE
  2
PHANTOM1
 70
    64
  3
--- - - --- - - --- - - --- - - 
 72
    65
 73
     6
 40
10.0
 49
3.25
 49
-1.25
 49
1.25
 49
-1.25
 49
1.25
 49
-1.25
  0
LTYPE
  2
PHANTOM2
 70
    64
  3
--------  -  -  --------  -  -  
 72
    65
 73
     6
 40
20.0
 49
10.0
 49
-2.5
 49
1.25
 49
-2.5
 49
1.25
 49
-2.5
  0
LTYPE
  2
DOT
 70
    64
  3
-   -   -   -   -   -   -   -   
 72
    65
 73
     2
 40
2.5
 49
0.625
 49
-1.875
  0
LTYPE
  2
DUMMY
 70
    64
  3
ā_ā~ü[
 72
    65
 73
     0
 40
0.0
  0
LTYPE
  2
RAND1
 70
    64
  3
āēāōā_āĆÉ³1
 72
    65
 73
     4
 40
10.0
 49
1.0
 49
-2.0
 49
3.0
 49
-4.0
  0
LTYPE
  2
RAND2
 70
    64
  3
āēāōā_āĆÉ³2
 72
    65
 73
     4
 40
14.0
 49
2.0
 49
-3.0
 49
4.0
 49
-5.0
  0
LTYPE
  2
RAND3
 70
    64
  3
āēāōā_āĆÉ³3
 72
    65
 73
     4
 40
18.0
 49
3.0
 49
-4.0
 49
5.0
 49
-6.0
  0
LTYPE
  2
RAND4
 70
    64
  3
āēāōā_āĆÉ³4
 72
    65
 73
     4
 40
22.0
 49
4.0
 49
-5.0
 49
6.0
 49
-7.0
  0
LTYPE
  2
RAND5
 70
    64
  3
āēāōā_āĆÉ³5
 72
    65
 73
     4
 40
26.0
 49
5.0
 49
-6.0
 49
7.0
 49
-8.0
  0
LTYPE
  2
LONG1
 70
    64
  3
----------  --  ----------  --  
 72
    65
 73
     4
 40
40.0
 49
32.5
 49
-2.5
 49
2.5
 49
-2.5
  0
LTYPE
  2
LONG2
 70
    64
  3
--------  -  -  --------  -  -  
 72
    65
 73
     6
 40
40.0
 49
30.0
 49
-2.5
 49
1.25
 49
-2.5
 49
1.25
 49
-2.5
  0
LTYPE
  2
LONG3
 70
    64
  3
+++++++++++++++..+++++++++++++++
 72
    65
 73
     2
 40
40.0
 49
37.5
 49
-2.5
  0
LTYPE
  2
LONG4
 70
    64
  3
+++++++++++++++..+++++++++++++++
 72
    65
 73
     2
 40
80.0
 49
75.0
 49
-5.0
  0
LTYPE
  2
LONG5
 70
    64
  3
----------  --  ----------  --  
 72
    65
 73
     4
 40
60.0
 49
37.5
 49
-7.5
 49
7.5
 49
-7.5
  0
LTYPE
  2
dashed
 70
   64
  3
-------   -------------   ------
 72
   65
 73
    2
 40
7.5
 49
6
 49
-1.5
  0
LTYPE
  2
dashed_spaced
 70
   64
  3
----        --------        ----
 72
   65
 73
    2
 40
12
 49
6
 49
-6
  0
LTYPE
  2
long_dashed_dotted
 70
   64
  3
------------- --- --------------
 72
   65
 73
    4
 40
15.25
 49
12
 49
-1.5
 49
0.25
 49
-1.5
  0
LTYPE
  2
long_dashed_double-dotted
 70
   64
  3
----------- --- --- ------------
 72
   65
 73
    6
 40
17
 49
12
 49
-1.5
 49
0.25
 49
-1.5
 49
0.25
 49
-1.5
  0
LTYPE
  2
long_dashed_triplicate-dotted
 70
   64
  3
--------- --- --- --- ----------
 72
   65
 73
    8
 40
18.75
 49
12
 49
-1.5
 49
0.25
 49
-1.5
 49
0.25
 49
-1.5
 49
0.25
 49
-1.5
  0
LTYPE
  2
dotted
 70
   64
  3
   -       -       -       -    
 72
   65
 73
    2
 40
1.75
 49
0.25
 49
-1.5
  0
LTYPE
  2
chain
 70
   64
  3
-------------- -- --------------
 72
   65
 73
    4
 40
18.5
 49
12
 49
-1.5
 49
3.5
 49
-1.5
  0
LTYPE
  2
chain_double_dash
 70
   64
  3
------------ -- -- -------------
 72
   65
 73
    6
 40
23.5
 49
12
 49
-1.5
 49
3.5
 49
-1.5
 49
3.5
 49
-1.5
  0
LTYPE
  2
dashed_dotted
 70
   64
  3
-----------     -     ----------
 72
   65
 73
    4
 40
9.25
 49
6
 49
-1.5
 49
0.25
 49
-1.5
  0
LTYPE
  2
double-dashed_dotted
 70
   64
  3
------   -----------   -   -----
 72
   65
 73
    6
 40
16.75
 49
6
 49
-1.5
 49
6
 49
-1.5
 49
0.25
 49
-1.5
  0
LTYPE
  2
dashed_double-dotted
 70
   64
  3
---------    -    -    ---------
 72
   65
 73
    6
 40
11
 49
6
 49
-1.5
 49
0.25
 49
-1.5
 49
0.25
 49
-1.5
  0
LTYPE
  2
double-dashed_double-dotted
 70
   64
  3
-----   ---------   -   -   ----
 72
   65
 73
    8
 40
18.5
 49
6
 49
-1.5
 49
6
 49
-1.5
 49
0.25
 49
-1.5
 49
0.25
 49
-1.5
  0
LTYPE
  2
dashed_triplicate-dotted
 70
   64
  3
-------    -    -    -    ------
 72
   65
 73
    8
 40
12.75
 49
6
 49
-1.5
 49
0.25
 49
-1.5
 49
0.25
 49
-1.5
 49
0.25
 49
-1.5
  0
LTYPE
  2
double-dashed_triplicate-dotted
 70
   64
  3
-----  ---------  -  -  -  -----
 72
   65
 73
   10
 40
20.25
 49
6
 49
-1.5
 49
6
 49
-1.5
 49
0.25
 49
-1.5
 49
0.25
 49
-1.5
 49
0.25
 49
-1.5
  0
LTYPE
  2
undefined
 70
   64
  3
--------------------------------
 72
   65
 73
    0
 40
0
  0
LTYPE
  2
_
 70
   64
  3
                                
 72
   65
 73
    0
 40
0
  0
LTYPE
  2
__18
 70
   64
  3
                                
 72
   65
 73
    0
 40
0
  0
LTYPE
  2
__19
 70
   64
  3
                                
 72
   65
 73
    0
 40
0
  0
LTYPE
  2
__20
 70
   64
  3
                                
 72
   65
 73
    0
 40
0
  0
LTYPE
  2
__21
 70
   64
  3
                                
 72
   65
 73
    0
 40
0
  0
LTYPE
  2
__22
 70
   64
  3
                                
 72
   65
 73
    0
 40
0
  0
LTYPE
  2
__23
 70
   64
  3
                                
 72
   65
 73
    0
 40
0
  0
LTYPE
  2
__24
 70
   64
  3
                                
 72
   65
 73
    0
 40
0
  0
LTYPE
  2
__25
 70
   64
  3
                                
 72
   65
 73
    0
 40
0
  0
LTYPE
  2
__26
 70
   64
  3
                                
 72
   65
 73
    0
 40
0
  0
LTYPE
  2
__27
 70
   64
  3
                                
 72
   65
 73
    0
 40
0
  0
LTYPE
  2
__28
 70
   64
  3
                                
 72
   65
 73
    0
 40
0
  0
LTYPE
  2
__29
 70
   64
  3
                                
 72
   65
 73
    0
 40
0
  0
LTYPE
  2
__30
 70
   64
  3
                                
 72
   65
 73
    0
 40
0
  0
LTYPE
  2
__31
 70
   64
  3
                                
 72
   65
 73
    0
 40
0
  0
LTYPE
  2
__32
 70
   64
  3
                                
 72
   65
 73
    0
 40
0
  0
ENDTAB
  0
TABLE
  2
STYLE
  5
3
100
AcDbSymbolTable
 70
     1
  0
STYLE
  5
10
100
AcDbSymbolTableRecord
100
AcDbTextStyleTableRecord
  2
STANDARD
 70
     0
 40
0.0
 41
1.0
 50
0.0
 71
     0
 42
0.2
  3
txt
  4
bigfont.shx
  0
STYLE
  5
26
100
AcDbSymbolTableRecord
100
AcDbTextStyleTableRecord
  2
TATEGAKI
 70
    68
 40
0.0
 41
1.0
 50
0.0
 71
     0
 42
1.0
  3
txt
  4
bigfont.shx
  0
ENDTAB
  0
TABLE
  2
LAYER
 70
   10
  0
LAYER
  2
_0-0_90_FRAME
 70
   64
 62
    7
  6
CONTINUOUS
  0
LAYER
  2
_0-1_91_BLANK
 70
   64
 62
    7
  6
CONTINUOUS
  0
LAYER
  2
_0-2_08_DIM
 70
   64
 62
    7
  6
CONTINUOUS
  0
LAYER
  2
_0-3_05_CENTER
 70
   64
 62
    7
  6
CONTINUOUS
  0
LAYER
  2
_0-4_0
 70
   64
 62
    7
  6
CONTINUOUS
  0
LAYER
  2
_0-5_04_HIDDEN
 70
   64
 62
    7
  6
CONTINUOUS
  0
LAYER
  2
_0-6_07_TEXT
 70
   64
 62
    7
  6
CONTINUOUS
  0
LAYER
  2
_0-7_10_DRAFT
 70
   64
 62
    7
  6
CONTINUOUS
  0
LAYER
  2
_0-8_
 70
   64
 62
    7
  6
CONTINUOUS
  0
LAYER
  2
ADD_LINE
 70
   64
 62
    7
  6
CONTINUOUS
  0
ENDTAB
  0
ENDSEC
  0
SECTION
  2
BLOCKS
  0
BLOCK
  2
-000-Weld-line
 70
   64
 10
0
 20
0
 30
0
  0
LINE
  8
_0-2_08_DIM
  6
CONTINUOUS
 62
    3
 10
0
 20
0
 11
0.9999999999999998
 21
0
  0
ENDBLK
  0
BLOCK
  2
-001-Weld10-s5
 70
   64
 10
0
 20
0
 30
0
  0
CIRCLE
  8
_0-2_08_DIM
  6
CONTINUOUS
 62
    3
 10
0
 20
0
 40
1.9999999999999998
  0
ENDBLK
  0
BLOCK
  2
-002-Weld10-a1
 70
   64
 10
0
 20
0
 30
0
  0
LINE
  8
_0-2_08_DIM
  6
CONTINUOUS
 62
    3
 10
4.9999999999999991
 20
0
 11
0
 21
4.9999999999999991
  0
LINE
  8
_0-2_08_DIM
  6
CONTINUOUS
 62
    3
 10
0
 20
4.9999999999999991
 11
0
 21
0
  0
LINE
  8
_0-2_08_DIM
  6
CONTINUOUS
 62
    3
 10
0
 20
0
 11
4.9999999999999991
 21
0
  0
ENDBLK
  0
BLOCK
  2
-003-Jis_w20130906110600
 70
   64
 10
0
 20
0
 30
0
  0
INSERT
  2
-000-Weld-line
  8
_0-2_08_DIM
 10
0
 20
0
 41
14.000000000000002
 42
14.000000000000002
 50
0
  0
INSERT
  2
-001-Weld10-s5
  8
_0-2_08_DIM
 10
0
 20
0
 41
1
 42
1
 50
0
  0
INSERT
  2
-002-Weld10-a1
  8
_0-2_08_DIM
 10
5.9999999999999991
 20
0
 41
-1
 42
1
 50
180
  0
TEXT
  8
_0-2_08_DIM
 62
    3
 10
4.0000000000001128
 20
-0.9999999999999998
 40
2.7999999999999994
 41
0.9000000000000001
 50
0
  1

  0
TEXT
  8
_0-2_08_DIM
 62
    3
 10
14.000000000000114
 20
-0.9999999999999998
 40
2.7999999999999994
 41
0.9000000000000001
 50
0
  1

  0
LINE
  8
_0-2_08_DIM
  6
CONTINUOUS
 62
    3
 10
-4.6308054280802926
 20
-5.765361229938434
 11
0
 21
0
  0
ENDBLK
  0
BLOCK
  2
-004-p1ba05
 70
   64
 10
0
 20
0
 30
0
  0
ARC
  8
_0-2_08_DIM
  6
CONTINUOUS
 62
    3
 10
0
 20
1.6206695983957429
 40
1.6206695983958537
 50
204.22763733453323
 51
335.57577857182139
  0
ARC
  8
_0-2_08_DIM
  6
CONTINUOUS
 62
    3
 10
-2.9535588745990817
 20
0.2854771617432376
 40
1.6206695983958537
 50
24.227637334533135
 51
155.57577857182133
  0
ENDBLK
  0
BLOCK
  2
-005-A$C67F20274_1_1_1
 70
   64
 10
0
 20
0
 30
0
  0
LINE
  8
_0-4_0
  6
CONTINUOUS
 62
    3
 10
0
 20
0
 11
-1.9999999999999998
 21
0
  0
LINE
  8
_0-4_0
  6
CONTINUOUS
 62
    3
 10
-1.9999999999999998
 20
0
 11
-1.9999999999999998
 21
0
  0
LINE
  8
_0-4_0
  6
CONTINUOUS
 62
    3
 10
-1.9999999999999998
 20
0
 11
0
 21
-1.9999999999999998
  0
LINE
  8
_0-4_0
  6
CONTINUOUS
 62
    3
 10
0
 20
-1.9999999999999998
 11
0
 21
0
  0
LINE
  8
_0-4_0
  6
CONTINUOUS
 62
    3
 10
-0.9999999999999998
 20
-0.9999999999999998
 11
0
 21
0.0000000000000002
  0
ENDBLK
  0
BLOCK
  2
-006-A$C4FEB355B_1
 70
   64
 10
0
 20
0
 30
0
  0
LINE
  8
_0-4_0
  6
CONTINUOUS
 62
   18
 10
-22.000000000003634
 20
15.999999999999998
 11
-22.000000000003634
 21
15.999999999999998
  0
ARC
  8
_0-4_0
  6
CONTINUOUS
 62
   18
 10
-15.000000000003636
 20
15.999999999999998
 40
6.9999999999999991
 50
180
 51
270
  0
LINE
  8
_0-4_0
  6
CONTINUOUS
 62
   18
 10
-15.000000000003636
 20
9
 11
18.999999999996358
 21
9
  0
LINE
  8
_0-3_05_CENTER
  6
CENTER2
 62
    4
 10
0
 20
-6.6610500020451573
 11
0
 21
15.661050002045158
  0
ARC
  8
_0-4_0
  6
CONTINUOUS
 62
   18
 10
-15.000000000003636
 20
15.999999999999998
 40
15.999999999999998
 50
180
 51
270
  0
LINE
  8
_0-4_0
  6
CONTINUOUS
 62
   18
 10
-22.000000000003634
 20
15.999999999999998
 11
-22.000000000003634
 21
89.999999999999986
  0
LINE
  8
_0-4_0
  6
CONTINUOUS
 62
   18
 10
-31.000000000003634
 20
89.999999999999986
 11
-22.000000000003634
 21
89.999999999999986
  0
LINE
  8
_0-4_0
  6
CONTINUOUS
 62
   18
 10
18.999999999996358
 20
9
 11
18.999999999996358
 21
0
  0
LINE
  8
_0-4_0
  6
CONTINUOUS
 62
   18
 10
18.999999999996358
 20
0
 11
-15.000000000003636
 21
0
  0
LINE
  8
_0-4_0
  6
CONTINUOUS
 62
   18
 10
-31.000000000003634
 20
15.999999999999998
 11
-31.000000000003634
 21
89.999999999999986
  0
LINE
  8
_0-4_0
  6
CONTINUOUS
 62
   18
 10
-22.000000000003634
 20
84
 11
-7.0000000000036371
 21
84.000000000000895
  0
LINE
  8
_0-4_0
  6
CONTINUOUS
 62
   18
 10
-7.0000000000036371
 20
84.000000000000895
 11
12.999999999996362
 21
64.000000000000909
  0
LINE
  8
_0-4_0
  6
CONTINUOUS
 62
   18
 10
12.999999999996362
 20
64.000000000000909
 11
12.999999999996362
 21
59.999999997701245
  0
LINE
  8
_0-4_0
  6
CONTINUOUS
 62
   18
 10
12.999999999996362
 20
19.999999998556632
 11
12.999999999996362
 21
9
  0
LINE
  8
_0-4_0
  6
CONTINUOUS
 62
   18
 10
12.999999999996362
 20
9
 11
-10.000000000003638
 21
9.0000000000009095
  0
LINE
  8
_0-4_0
  6
CONTINUOUS
 62
   18
 10
-10.000000000003638
 20
9.0000000000009095
 11
-22.000000000003634
 21
21.000000000000906
  0
LINE
  8
_0-4_0
  6
CONTINUOUS
 62
   18
 10
-22.000000000003634
 20
21.000000000000906
 11
-22.000000000003634
 21
84
  0
LINE
  8
_0-5_04_HIDDEN
  6
CONTINUOUS
 62
    7
 10
12.999999999996362
 20
59.999999997701245
 11
12.999999999996362
 21
19.999999998556632
  0
ENDBLK
  0
BLOCK
  2
-007-A$C3B8279DF_1_1
 70
   64
 10
0
 20
0
 30
0
  0
LINE
  8
_0-5_04_HIDDEN
  6
CONTINUOUS
 62
    7
 10
0
 20
0
 11
0
 21
-74.999999999999986
  0
ARC
  8
_0-5_04_HIDDEN
  6
CONTINUOUS
 62
    7
 10
1.9999999999999998
 20
-71
 40
3.9999999999999996
 50
270
 51
0
  0
LINE
  8
_0-5_04_HIDDEN
  6
CONTINUOUS
 62
    7
 10
1.9999999999999998
 20
-74.999999999999986
 11
0
 21
-74.999999999999986
  0
LINE
  8
_0-5_04_HIDDEN
  6
CONTINUOUS
 62
    7
 10
5.9999999999999991
 20
-71
 11
5.9999999999999991
 21
-14.499999999999998
  0
ARC
  8
_0-5_04_HIDDEN
  6
CONTINUOUS
 62
    7
 10
14.499999999999998
 20
-14.499999999999998
 40
8.5
 50
90
 51
180
  0
LINE
  8
_0-5_04_HIDDEN
  6
CONTINUOUS
 62
    7
 10
14.499999999999998
 20
-5.9999999999999991
 11
71
 21
-5.9999999999999991
  0
ARC
  8
_0-5_04_HIDDEN
  6
CONTINUOUS
 62
    7
 10
71
 20
-1.9999999999999998
 40
3.9999999999999996
 50
270
 51
0
  0
LINE
  8
_0-5_04_HIDDEN
  6
CONTINUOUS
 62
    7
 10
74.999999999999986
 20
-1.9999999999999998
 11
74.999999999999986
 21
0
  0
LINE
  8
_0-5_04_HIDDEN
  6
CONTINUOUS
 62
    7
 10
0
 20
0
 11
74.999999999999986
 21
0
  0
ENDBLK
  0
BLOCK
  2
-008-AM_BALLOON1
 70
   64
 10
0
 20
0
 30
0
  0
CIRCLE
  8
_0-2_08_DIM
  6
CONTINUOUS
 62
    3
 10
0
 20
0
 40
4.9999999999999991
  0
ENDBLK
  0
BLOCK
  2
-009-_Open30
 70
   64
 10
0
 20
0
 30
0
  0
LINE
  8
_0-2_08_DIM
  6
CONTINUOUS
 62
    3
 10
-0.9999999999999998
 20
0.2679491899999999
 11
0
 21
0
  0
LINE
  8
_0-2_08_DIM
  6
CONTINUOUS
 62
    3
 10
0
 20
0
 11
-0.9999999999999998
 21
-0.2679491899999999
  0
LINE
  8
_0-2_08_DIM
  6
CONTINUOUS
 62
    3
 10
0
 20
0
 11
-0.9999999999999998
 21
0
  0
ENDBLK
  0
ENDSEC
  0
SECTION
  2
ENTITIES
  0
TEXT
  8
_0-0_90_FRAME
 62
    7
 10
5021.7745044354651
 20
1041.2209743181638
 40
25
 41
1
 50
0
  1
AT-221121-04-4
  0
TEXT
  8
_0-0_90_FRAME
 62
    7
 10
4850.5800691326222
 20
983.67719583994972
 40
25
 41
1
 50
0
  1
2025.03.25
  0
LINE
  8
_0-0_90_FRAME
  6
CONTINUOUS
 62
    5
 10
1443.4901273563892
 20
970.0978863135648
 11
5325.4552702019264
 21
970.0978863135648
  0
LINE
  8
_0-0_90_FRAME
  6
CONTINUOUS
 62
    5
 10
5325.4552702019264
 20
970.0978863135648
 11
5325.4552702019264
 21
3745.3673555883356
  0
LINE
  8
_0-0_90_FRAME
  6
CONTINUOUS
 62
    5
 10
5325.4552702019264
 20
3745.3673555883356
 11
1443.4901273563892
 21
3745.3673555883356
  0
LINE
  8
_0-0_90_FRAME
  6
CONTINUOUS
 62
    5
 10
1443.4901273563892
 20
3745.3673555883356
 11
1443.4901273563892
 21
970.0978863135648
  0
LINE
  8
_0-0_90_FRAME
  6
CONTINUOUS
 62
    5
 10
1249.2606130714707
 20
2357.7326209509506
 11
1443.4901273563892
 21
2357.7326209509506
  0
LINE
  8
_0-0_90_FRAME
  6
CONTINUOUS
 62
    5
 10
5390.2649130588052
 20
2357.7326209509506
 11
5325.4552702019264
 21
2357.7326209509506
  0
LINE
  8
_0-0_90_FRAME
  6
CONTINUOUS
 62
    5
 10
3384.4726987791578
 20
3820.1769984585867
 11
3384.4726987791582
 21
3745.3673555883356
  0
LINE
  8
_0-0_90_FRAME
  6
CONTINUOUS
 62
    5
 10
3384.4726987791582
 20
905.5779984452106
 11
3384.4726987791582
 21
970.0978863135648
  0
LINE
  8
_0-0_90_FRAME
  6
CONTINUOUS
 62
    5
 10
2885.9369844954531
 20
940.18574345653656
 11
3883.0084130628625
 21
940.18574345653656
  0
LINE
  8
_0-0_90_FRAME
  6
CONTINUOUS
 62
    5
 10
2885.9369844954531
 20
940.18574345653656
 11
2885.9369844954531
 21
970.0978863135648
  0
LINE
  8
_0-0_90_FRAME
  6
CONTINUOUS
 62
    5
 10
2985.6441273521968
 20
940.18574345653656
 11
2985.6441273521968
 21
970.0978863135648
  0
LINE
  8
_0-0_90_FRAME
  6
CONTINUOUS
 62
    5
 10
3085.3512702089402
 20
940.18574345653656
 11
3085.3512702089402
 21
970.0978863135648
  0
LINE
  8
_0-0_90_FRAME
  6
CONTINUOUS
 62
    5
 10
3185.0584130656707
 20
940.18574345653656
 11
3185.0584130656707
 21
970.0978863135648
  0
LINE
  8
_0-0_90_FRAME
  6
CONTINUOUS
 62
    5
 10
3284.765555922414
 20
940.18574345653656
 11
3284.765555922414
 21
970.0978863135648
  0
LINE
  8
_0-0_90_FRAME
  6
CONTINUOUS
 62
    5
 10
3484.1798416358888
 20
940.18574345653656
 11
3484.1798416358888
 21
970.0978863135648
  0
LINE
  8
_0-0_90_FRAME
  6
CONTINUOUS
 62
    5
 10
3583.8869844926317
 20
940.18574345653656
 11
3583.8869844926317
 21
970.0978863135648
  0
LINE
  8
_0-0_90_FRAME
  6
CONTINUOUS
 62
    5
 10
3683.594127349375
 20
940.18574345653656
 11
3683.594127349375
 21
970.0978863135648
  0
LINE
  8
_0-0_90_FRAME
  6
CONTINUOUS
 62
    5
 10
3783.3012702061192
 20
940.18574345653656
 11
3783.3012702061192
 21
970.0978863135648
  0
LINE
  8
_0-0_90_FRAME
  6
CONTINUOUS
 62
    5
 10
3883.0084130628625
 20
940.18574345653656
 11
3883.0084130628625
 21
970.0978863135648
  0
LINE
  8
_0-0_90_FRAME
  6
CONTINUOUS
 62
    4
 10
2380.4716237832095
 20
3745.3673555883356
 11
2380.4716237832095
 21
3810.1769984452026
  0
TEXT
  8
_0-0_90_FRAME
 62
    7
 10
1627.810818461302
 20
3758.2758390219519
 40
19.999999999999996
 41
1
 50
0
  1
1
  0
TEXT
  8
_0-0_90_FRAME
 62
    7
 10
1871.8044196185749
 20
3758.2758390219519
 40
19.999999999999996
 41
1
 50
0
  1
2
  0
TEXT
  8
_0-0_90_FRAME
 62
    7
 10
2206.4714446172243
 20
3758.2758390219519
 40
19.999999999999996
 41
1
 50
0
  1
3
  0
TEXT
  8
_0-0_90_FRAME
 62
    7
 10
2541.1384696158611
 20
3758.2758390219519
 40
19.999999999999996
 41
1
 50
0
  1
4
  0
TEXT
  8
_0-0_90_FRAME
 62
    7
 10
2875.805494614523
 20
3758.2758390219519
 40
19.999999999999996
 41
1
 50
0
  1
5
  0
TEXT
  8
_0-0_90_FRAME
 62
    7
 10
3210.4725196131599
 20
3758.2758390219519
 40
19.999999999999996
 41
1
 50
0
  1
6
  0
TEXT
  8
_0-0_90_FRAME
 62
    7
 10
3545.1395446118095
 20
3758.2758390219519
 40
19.999999999999996
 41
1
 50
0
  1
7
  0
TEXT
  8
_0-0_90_FRAME
 62
    7
 10
3879.8065696104586
 20
3758.2758390219519
 40
19.999999999999996
 41
1
 50
0
  1
8
  0
TEXT
  8
_0-0_90_FRAME
 62
    7
 10
4214.4735946091087
 20
3758.2758390219519
 40
19.999999999999996
 41
1
 50
0
  1
9
  0
TEXT
  8
_0-0_90_FRAME
 62
    7
 10
4544.1406196077587
 20
3758.2758390219519
 40
19.999999999999996
 41
1
 50
0
  1
10
  0
TEXT
  8
_0-0_90_FRAME
 62
    7
 10
4880.4743112730621
 20
3758.2758390219519
 40
19.999999999999996
 41
1
 50
0
  1
11
  0
TEXT
  8
_0-0_90_FRAME
 62
    7
 10
5211.8080029383791
 20
3758.2758390219519
 40
19.999999999999996
 41
1
 50
0
  1
12
  0
TEXT
  8
_0-0_90_FRAME
 62
    7
 10
5338.3390842597164
 20
3235.1978568848617
 40
19.999999999999996
 41
1
 50
0
  1
B
  0
LINE
  8
_0-0_90_FRAME
  6
CONTINUOUS
 62
   18
 10
1443.4901273563892
 20
970.0978863135648
 11
1953.4901273519267
 21
970.0978863135648
  0
LINE
  8
_0-0_90_FRAME
  6
CONTINUOUS
 62
   18
 10
1953.4901273519267
 20
970.0978863135648
 11
1953.4901273519267
 21
1111.5264577415608
  0
LINE
  8
_0-0_90_FRAME
  6
CONTINUOUS
 62
   18
 10
1953.4901273519267
 20
1111.5264577415608
 11
1443.4901273563892
 21
1111.5264577415608
  0
LINE
  8
_0-0_90_FRAME
  6
CONTINUOUS
 62
   18
 10
1443.4901273563892
 20
1111.5264577415608
 11
1443.4901273563892
 21
970.0978863135648
  0
LINE
  8
_0-0_90_FRAME
  6
CONTINUOUS
 62
   18
 10
1883.4901273519267
 20
970.0978863135648
 11
1883.4901273519267
 21
1111.5264577415608
  0
LINE
  8
_0-0_90_FRAME
  6
CONTINUOUS
 62
   18
 10
1513.490127351927
 20
970.0978863135648
 11
1513.490127351927
 21
1111.5264577415608
  0
LINE
  8
_0-0_90_FRAME
  6
CONTINUOUS
 62
   18
 10
1593.490127351927
 20
970.0978863135648
 11
1593.490127351927
 21
1111.5264577415608
  0
LINE
  8
_0-0_90_FRAME
  6
CONTINUOUS
 62
   18
 10
1443.4901273563892
 20
1076.1693148845686
 11
1953.4901273519267
 21
1076.1693148845686
  0
LINE
  8
_0-0_90_FRAME
  6
CONTINUOUS
 62
   18
 10
1443.4901273563892
 20
1040.8121720275583
 11
1953.4901273519267
 21
1040.8121720275583
  0
LINE
  8
_0-0_90_FRAME
  6
CONTINUOUS
 62
   18
 10
1443.4901273563892
 20
1005.455029170566
 11
1953.4901273519267
 21
1005.455029170566
  0
TEXT
  8
_0-0_90_FRAME
 62
    7
 10
1461.0355818996127
 20
1087.8478863130647
 40
11.999999999999998
 41
1
 50
0
  1
ŗLŹå
  0
TEXT
  8
_0-0_90_FRAME
 62
    7
 10
1534.3182005057179
 20
1087.8478863130647
 40
11.999999999999998
 41
1
 50
0
  1
ō·Ģt
  0
TEXT
  8
_0-0_90_FRAME
 62
    7
 10
1892.3083091701087
 20
1087.8478863130647
 40
11.999999999999998
 41
1
 50
0
  1
ŹņÉ¼Äę
  0
TEXT
  8
_0-0_90_FRAME
 62
    7
 10
1698.581036442836
 20
1087.6433408585192
 40
11.999999999999998
 41
1
 50
0
  1
ē³Æ∙ōÓŚe
  0
LINE
  8
_0-0_90_FRAME
  6
CONTINUOUS
 62
   18
 10
1462.5794130685024
 20
1009.2103190698296
 11
1478.4901273541579
 21
1036.7684845972824
  0
LINE
  8
_0-0_90_FRAME
  6
CONTINUOUS
 62
   18
 10
1478.4901273541579
 20
1036.7684845972824
 11
1494.4008416398044
 21
1009.2103190698296
  0
LINE
  8
_0-0_90_FRAME
  6
CONTINUOUS
 62
   18
 10
1494.4008416398044
 20
1009.2103190698296
 11
1462.5794130685024
 21
1009.2103190698296
  0
TEXT
  8
_0-0_90_FRAME
 62
    7
 10
1475.0441520097193
 20
1049.7053011065709
 40
10.607142857099999
 41
1
 50
0
  1
1
  0
TEXT
  8
_0-0_90_FRAME
 62
    7
 10
1475.0441520097193
 20
1014.3481582495698
 40
10.607142857099999
 41
1
 50
0
  1
2
  0
TEXT
  8
_0-0_90_FRAME
 62
    7
 10
1475.0441520097193
 20
978.99101539256867
 40
10.607142857099999
 41
1
 50
0
  1
3
  0
LINE
  8
_0-0_90_FRAME
  6
CONTINUOUS
 62
   18
 10
1462.5794130685024
 20
1044.5674619268307
 11
1478.4901273541579
 21
1072.1256274542927
  0
LINE
  8
_0-0_90_FRAME
  6
CONTINUOUS
 62
   18
 10
1478.4901273541579
 20
1072.1256274542927
 11
1494.4008416398044
 21
1044.5674619268307
  0
LINE
  8
_0-0_90_FRAME
  6
CONTINUOUS
 62
   18
 10
1494.4008416398044
 20
1044.5674619268307
 11
1462.5794130685024
 21
1044.5674619268307
  0
LINE
  8
_0-0_90_FRAME
  6
CONTINUOUS
 62
   18
 10
1462.5794130685024
 20
973.85317621282843
 11
1478.4901273541579
 21
1001.4113417402901
  0
LINE
  8
_0-0_90_FRAME
  6
CONTINUOUS
 62
   18
 10
1478.4901273541579
 20
1001.4113417402901
 11
1494.4008416398044
 21
973.85317621282843
  0
LINE
  8
_0-0_90_FRAME
  6
CONTINUOUS
 62
   18
 10
1494.4008416398044
 20
973.85317621282843
 11
1462.5794130685024
 21
973.85317621282843
  0
LINE
  8
_0-0_90_FRAME
  6
CONTINUOUS
 62
    4
 10
5390.2649130588052
 20
1647.760432203821
 11
5325.4552702019264
 21
1647.760432203821
  0
LINE
  8
_0-0_90_FRAME
  6
CONTINUOUS
 62
    4
 10
5390.2649130588052
 20
2002.7465265773858
 11
5325.4552702019264
 21
2002.7465265773858
  0
LINE
  8
_0-0_90_FRAME
  6
CONTINUOUS
 62
    4
 10
5390.2649130588052
 20
1292.7743378302566
 11
5325.4552702019264
 21
1292.7743378302566
  0
LINE
  8
_0-0_90_FRAME
  6
CONTINUOUS
 62
    4
 10
5390.2649130588052
 20
3067.7048096980793
 11
5325.4552702019264
 21
3067.7048096980793
  0
LINE
  8
_0-0_90_FRAME
  6
CONTINUOUS
 62
    4
 10
5390.2649130588052
 20
2712.7187153245154
 11
5325.4552702019264
 21
2712.7187153245154
  0
LINE
  8
_0-0_90_FRAME
  6
CONTINUOUS
 62
    4
 10
5390.2649130588052
 20
3422.6909040716441
 11
5325.4552702019264
 21
3422.6909040716441
  0
TEXT
  8
_0-0_90_FRAME
 62
    7
 10
5338.3390842597164
 20
3590.1839512584265
 40
19.999999999999996
 41
1
 50
0
  1
A
  0
TEXT
  8
_0-0_90_FRAME
 62
    7
 10
5338.3390842597164
 20
2880.2117625112978
 40
19.999999999999996
 41
1
 50
0
  1
C
  0
TEXT
  8
_0-0_90_FRAME
 62
    7
 10
5338.3390842597164
 20
2525.2256681377326
 40
19.999999999999996
 41
1
 50
0
  1
D
  0
TEXT
  8
_0-0_90_FRAME
 62
    7
 10
5338.3390842597164
 20
1815.2534793906034
 40
19.999999999999996
 41
1
 50
0
  1
F
  0
TEXT
  8
_0-0_90_FRAME
 62
    7
 10
5338.3390842597164
 20
1460.267385017039
 40
19.999999999999996
 41
1
 50
0
  1
G
  0
TEXT
  8
_0-0_90_FRAME
 62
    7
 10
5338.3390842597164
 20
1105.2812906434744
 40
19.999999999999996
 41
1
 50
0
  1
H
  0
TEXT
  8
_0-0_90_FRAME
 62
    7
 10
5338.3390842597164
 20
2170.2395737641677
 40
19.999999999999996
 41
1
 50
0
  1
E
  0
TEXT
  8
_0-0_90_FRAME
 62
    7
 10
1414.0473187199023
 20
3235.1978568848617
 40
19.999999999999996
 41
1
 50
0
  1
B
  0
LINE
  8
_0-0_90_FRAME
  6
CONTINUOUS
 62
    4
 10
1443.4901273563892
 20
1647.760432203821
 11
1378.6804844995224
 21
1647.760432203821
  0
LINE
  8
_0-0_90_FRAME
  6
CONTINUOUS
 62
    4
 10
1443.4901273563892
 20
2002.7465265773858
 11
1378.6804844995224
 21
2002.7465265773858
  0
LINE
  8
_0-0_90_FRAME
  6
CONTINUOUS
 62
    4
 10
1443.4901273563892
 20
1292.7743378302566
 11
1378.6804844995224
 21
1292.7743378302566
  0
LINE
  8
_0-0_90_FRAME
  6
CONTINUOUS
 62
    4
 10
1443.4901273563892
 20
3067.7048096980793
 11
1378.6804844995224
 21
3067.7048096980793
  0
LINE
  8
_0-0_90_FRAME
  6
CONTINUOUS
 62
    4
 10
1443.4901273563892
 20
2712.7187153245154
 11
1378.6804844995224
 21
2712.7187153245154
  0
LINE
  8
_0-0_90_FRAME
  6
CONTINUOUS
 62
    4
 10
1443.4901273563892
 20
3422.6909040716441
 11
1378.6804844995224
 21
3422.6909040716441
  0
TEXT
  8
_0-0_90_FRAME
 62
    7
 10
1414.0473187199023
 20
3590.1839512584265
 40
19.999999999999996
 41
1
 50
0
  1
A
  0
TEXT
  8
_0-0_90_FRAME
 62
    7
 10
1414.0473187199023
 20
2880.2117625112978
 40
19.999999999999996
 41
1
 50
0
  1
C
  0
TEXT
  8
_0-0_90_FRAME
 62
    7
 10
1414.0473187199023
 20
2525.2256681377326
 40
19.999999999999996
 41
1
 50
0
  1
D
  0
TEXT
  8
_0-0_90_FRAME
 62
    7
 10
1414.0473187199023
 20
1815.2534793906034
 40
19.999999999999996
 41
1
 50
0
  1
F
  0
TEXT
  8
_0-0_90_FRAME
 62
    7
 10
1414.0473187199023
 20
1460.267385017039
 40
19.999999999999996
 41
1
 50
0
  1
G
  0
TEXT
  8
_0-0_90_FRAME
 62
    7
 10
1414.0473187199023
 20
2170.2395737641677
 40
19.999999999999996
 41
1
 50
0
  1
E
  0
TEXT
  8
_0-0_90_FRAME
 62
    7
 10
1414.0473187199023
 20
1105.2812906434744
 40
19.999999999999996
 41
1
 50
0
  1
H
  0
LINE
  8
_0-0_90_FRAME
  6
CONTINUOUS
 62
    4
 10
2045.8045987845596
 20
3745.3673555883356
 11
2045.8045987845596
 21
3810.1769984452026
  0
LINE
  8
_0-0_90_FRAME
  6
CONTINUOUS
 62
    4
 10
1711.1375737859103
 20
3745.3673555883356
 11
1711.1375737859103
 21
3810.1769984452026
  0
LINE
  8
_0-0_90_FRAME
  6
CONTINUOUS
 62
    4
 10
2715.1386487818586
 20
3745.3673555883356
 11
2715.1386487818586
 21
3810.1769984452026
  0
LINE
  8
_0-0_90_FRAME
  6
CONTINUOUS
 62
    4
 10
3049.8056737805082
 20
3745.3673555883356
 11
3049.8056737805082
 21
3810.1769984452026
  0
LINE
  8
_0-0_90_FRAME
  6
CONTINUOUS
 62
    4
 10
4388.4737737750929
 20
3745.3673555883356
 11
4388.4737737750929
 21
3810.1769984452026
  0
LINE
  8
_0-0_90_FRAME
  6
CONTINUOUS
 62
    4
 10
4723.1407987737439
 20
3745.3673555883356
 11
4723.1407987737439
 21
3810.1769984452026
  0
LINE
  8
_0-0_90_FRAME
  6
CONTINUOUS
 62
    4
 10
5057.807823772393
 20
3745.3673555883356
 11
5057.807823772393
 21
3810.1769984452026
  0
LINE
  8
_0-0_90_FRAME
  6
CONTINUOUS
 62
    4
 10
4053.8067487764442
 20
3745.3673555883356
 11
4053.8067487764442
 21
3810.1769984452026
  0
LINE
  8
_0-0_90_FRAME
  6
CONTINUOUS
 62
    4
 10
3719.1397237778069
 20
3745.3673555883356
 11
3719.1397237778069
 21
3810.1769984452026
  0
LINE
  8
_0-0_90_FRAME
  6
CONTINUOUS
 62
    4
 10
2380.4716237832095
 20
905.5779984452106
 11
2380.4716237832095
 21
970.0978863135648
  0
LINE
  8
_0-0_90_FRAME
  6
CONTINUOUS
 62
    4
 10
2045.8045987845596
 20
905.5779984452106
 11
2045.8045987845596
 21
970.0978863135648
  0
LINE
  8
_0-0_90_FRAME
  6
CONTINUOUS
 62
    4
 10
1711.1375737859103
 20
905.5779984452106
 11
1711.1375737859103
 21
970.0978863135648
  0
LINE
  8
_0-0_90_FRAME
  6
CONTINUOUS
 62
    4
 10
2715.1386487818586
 20
905.5779984452106
 11
2715.1386487818586
 21
970.0978863135648
  0
LINE
  8
_0-0_90_FRAME
  6
CONTINUOUS
 62
    4
 10
4388.4737737750929
 20
905.5779984452106
 11
4388.4737737750929
 21
970.0978863135648
  0
LINE
  8
_0-0_90_FRAME
  6
CONTINUOUS
 62
    4
 10
4723.1407987737439
 20
905.5779984452106
 11
4723.1407987737439
 21
970.0978863135648
  0
LINE
  8
_0-0_90_FRAME
  6
CONTINUOUS
 62
    4
 10
5057.807823772393
 20
905.5779984452106
 11
5057.807823772393
 21
970.0978863135648
  0
LINE
  8
_0-0_90_FRAME
  6
CONTINUOUS
 62
    4
 10
4053.8067487764442
 20
905.5779984452106
 11
4053.8067487764442
 21
970.0978863135648
  0
LINE
  8
_0-1_91_BLANK
  6
CONTINUOUS
 62
    5
 10
1249.260613055236
 20
905.5779984452106
 11
5390.2649130519267
 21
905.5779984452106
  0
LINE
  8
_0-1_91_BLANK
  6
CONTINUOUS
 62
    5
 10
5390.2649130519267
 20
905.5779984452106
 11
5390.2649130519267
 21
3820.1769984585867
  0
LINE
  8
_0-1_91_BLANK
  6
CONTINUOUS
 62
    5
 10
5390.2649130519267
 20
3820.1769984585867
 11
1249.260613055236
 21
3820.1769984585867
  0
LINE
  8
_0-1_91_BLANK
  6
CONTINUOUS
 62
    5
 10
1249.260613055236
 20
3820.1769984585867
 11
1249.260613055236
 21
905.5779984452106
  0
LINE
  8
_0-0_90_FRAME
  6
CONTINUOUS
 62
   18
 10
4335.4552702059245
 20
970.0978863135648
 11
5325.4552702019264
 21
970.0978863135648
  0
LINE
  8
_0-0_90_FRAME
  6
CONTINUOUS
 62
   18
 10
5325.4552702019264
 20
970.0978863135648
 11
5325.4552702019264
 21
1153.955029169965
  0
LINE
  8
_0-0_90_FRAME
  6
CONTINUOUS
 62
   18
 10
5325.4552702019264
 20
1153.955029169965
 11
4335.4552702059245
 21
1153.955029169965
  0
LINE
  8
_0-0_90_FRAME
  6
CONTINUOUS
 62
   18
 10
4335.4552702059245
 20
1153.955029169965
 11
4335.4552702059245
 21
970.0978863135648
  0
LINE
  8
_0-0_90_FRAME
  6
CONTINUOUS
 62
   18
 10
4413.4177702056131
 20
1122.133600598663
 11
4462.9177702054121
 21
1134.5086005986145
  0
LINE
  8
_0-0_90_FRAME
  6
CONTINUOUS
 62
   18
 10
4462.9177702054121
 20
1134.5086005986145
 11
4462.9177702054121
 21
1085.0086005988167
  0
LINE
  8
_0-0_90_FRAME
  6
CONTINUOUS
 62
   18
 10
4462.9177702054121
 20
1085.0086005988167
 11
4413.4177702056131
 21
1097.3836005987637
  0
LINE
  8
_0-0_90_FRAME
  6
CONTINUOUS
 62
   18
 10
4413.4177702056131
 20
1097.3836005987637
 11
4413.4177702056131
 21
1122.133600598663
  0
CIRCLE
  8
_0-0_90_FRAME
  6
CONTINUOUS
 62
   18
 10
4381.2427702057394
 20
1109.7586005987112
 40
12.374999999949999
  0
CIRCLE
  8
_0-0_90_FRAME
  6
CONTINUOUS
 62
   18
 10
4381.2427702057394
 20
1109.7586005987112
 40
24.749999999899998
  0
LINE
  8
_0-0_90_FRAME
  6
CONTINUOUS
 62
   18
 10
4351.5427702058596
 20
1109.7586005987112
 11
4467.8677702053883
 21
1109.7586005987112
  0
LINE
  8
_0-0_90_FRAME
  6
CONTINUOUS
 62
   18
 10
4381.2427702057394
 20
1080.0586005988359
 11
4381.2427702057394
 21
1139.4586005985955
  0
LINE
  8
_0-0_90_FRAME
  6
CONTINUOUS
 62
   18
 10
4740.9909844899257
 20
970.0978863135648
 11
4740.9909844899257
 21
1153.955029169965
  0
LINE
  8
_0-0_90_FRAME
  6
CONTINUOUS
 62
   18
 10
4740.9909844899257
 20
1026.6693148847637
 11
5325.4552702019264
 21
1026.6693148847637
  0
TEXT
  8
_0-0_90_FRAME
 62
    7
 10
4743.5261932770782
 20
1009.0795136509039
 40
12.5
 41
1
 50
0
  1
Źņ É¼ ō·
  0
LINE
  8
_0-0_90_FRAME
  6
CONTINUOUS
 62
   18
 10
5086.669555917123
 20
1026.6693148847637
 11
5086.669555917123
 21
970.0978863135648
  0
TEXT
  8
_0-0_90_FRAME
 62
    7
 10
5089.6381646515401
 20
1008.7338089768306
 40
12.5
 41
1
 50
0
  1
ī┬Éö
  0
TEXT
  8
_0-0_90_FRAME
 62
    7
 10
4624.0907207019409
 20
1137.5661887390422
 40
12.5
 41
1
 50
0
  1
āTāCāY
  0
TEXT
  8
_0-0_90_FRAME
 62
    7
 10
4486.1978635596452
 20
1136.6339195770067
 40
12.5
 41
1
 50
0
  1
Ä┌ü@ōx
  0
TEXT
  8
_0-0_90_FRAME
 62
    7
 10
4624.0907968840374
 20
1049.1733315965437
 40
12.5
 41
1
 50
0
  1
É╗ü@É}
  0
LINE
  8
_0-0_90_FRAME
  6
CONTINUOUS
 62
   18
 10
4740.9909844899257
 20
1065.5621720274617
 11
4335.4552702059245
 21
1065.5621720274617
  0
LINE
  8
_0-0_90_FRAME
  6
CONTINUOUS
 62
   18
 10
4929.8004873615155
 20
1083.2407434559623
 11
5325.4552702019264
 21
1083.2407434559623
  0
TEXT
  8
_0-0_90_FRAME
 62
    7
 10
4665.1759010964379
 20
1086.7783612949129
 40
25
 41
1
 50
0
  1
A1
  0
LINE
  8
_0-0_90_FRAME
  6
CONTINUOUS
 62
   18
 10
4621.8481273476236
 20
970.0978863135648
 11
4621.8481273476236
 21
1153.955029169965
  0
TEXT
  8
_0-0_90_FRAME
 62
    2
 10
4422.9315862495596
 20
989.55366375685276
 40
25
 41
1
 50
0
  1
āAāNāAāgāŖāĆ
  0
LINE
  8
_0-0_90_FRAME
  6
CONTINUOUS
 62
    4
 10
4415.2406285212319
 20
1053.4535759137223
 11
4415.2406285212319
 21
979.48768314401798
  0
LINE
  8
_0-0_90_FRAME
  6
CONTINUOUS
 62
    4
 10
4415.2406285212319
 20
979.48768314401798
 11
4347.9989078215012
 21
979.48768314401798
  0
LINE
  8
_0-0_90_FRAME
  6
CONTINUOUS
 62
    4
 10
4347.9989078215012
 20
979.48768314401798
 11
4347.9989078215012
 21
1053.4535759137223
  0
LINE
  8
_0-0_90_FRAME
  6
CONTINUOUS
 62
    4
 10
4348.3191064915
 20
1053.1333772437206
 11
4348.3191064915
 21
1053.1333772437206
  0
LINE
  8
_0-0_90_FRAME
  6
CONTINUOUS
 62
    4
 10
4348.3191064915
 20
1053.1333772437206
 11
4348.4845007590129
 21
1051.4653197776211
  0
LINE
  8
_0-0_90_FRAME
  6
CONTINUOUS
 62
    4
 10
4348.4845007590129
 20
1051.4653197776211
 11
4348.9756581404263
 21
1049.8479453935513
  0
LINE
  8
_0-0_90_FRAME
  6
CONTINUOUS
 62
    4
 10
4348.9756581404263
 20
1049.8479453935513
 11
4349.7776550672424
 21
1048.3303971937401
  0
LINE
  8
_0-0_90_FRAME
  6
CONTINUOUS
 62
    4
 10
4349.7776550672424
 20
1048.3303971937401
 11
4350.8661232686718
 21
1046.9587851123222
  0
LINE
  8
_0-0_90_FRAME
  6
CONTINUOUS
 62
    4
 10
4350.8661232686718
 20
1046.9587851123222
 11
4352.2079901892048
 21
1045.7747848883228
  0
LINE
  8
_0-0_90_FRAME
  6
CONTINUOUS
 62
    4
 10
4352.2079901892048
 20
1045.7747848883228
 11
4353.7624838814781
 21
1044.8143717694145
  0
LINE
  8
_0-0_90_FRAME
  6
CONTINUOUS
 62
    4
 10
4353.7624838814781
 20
1044.8143717694145
 11
4355.4823718412645
 21
1044.1067274222232
  0
LINE
  8
_0-0_90_FRAME
  6
CONTINUOUS
 62
    4
 10
4355.4823718412645
 20
1044.1067274222232
 11
4357.3153961432099
 21
1043.6733532621529
  0
LINE
  8
_0-0_90_FRAME
  6
CONTINUOUS
 62
    4
 10
4357.3153961432099
 20
1043.6733532621529
 11
4359.2058612714563
 21
1043.5274171437593
  0
LINE
  8
_0-0_90_FRAME
  6
CONTINUOUS
 62
    4
 10
4359.2058612714563
 20
1043.5274171437593
 11
4361.0963263997028
 21
1043.6733532621529
  0
LINE
  8
_0-0_90_FRAME
  6
CONTINUOUS
 62
    4
 10
4361.0963263997028
 20
1043.6733532621529
 11
4362.9293507016482
 21
1044.1067274222232
  0
LINE
  8
_0-0_90_FRAME
  6
CONTINUOUS
 62
    4
 10
4362.9293507016482
 20
1044.1067274222232
 11
4364.6492386614345
 21
1044.8143717694145
  0
LINE
  8
_0-0_90_FRAME
  6
CONTINUOUS
 62
    4
 10
4364.6492386614345
 20
1044.8143717694145
 11
4366.2037323537079
 21
1045.7747848883228
  0
LINE
  8
_0-0_90_FRAME
  6
CONTINUOUS
 62
    4
 10
4366.2037323537079
 20
1045.7747848883228
 11
4367.5455992742409
 21
1046.9587851123222
  0
LINE
  8
_0-0_90_FRAME
  6
CONTINUOUS
 62
    4
 10
4367.5455992742409
 20
1046.9587851123222
 11
4368.6340674756702
 21
1048.3303971937401
  0
LINE
  8
_0-0_90_FRAME
  6
CONTINUOUS
 62
    4
 10
4368.6340674756702
 20
1048.3303971937401
 11
4369.4360644024864
 21
1049.8479453935513
  0
LINE
  8
_0-0_90_FRAME
  6
CONTINUOUS
 62
    4
 10
4369.4360644024864
 20
1049.8479453935513
 11
4369.9272217838998
 21
1051.4653197776211
  0
LINE
  8
_0-0_90_FRAME
  6
CONTINUOUS
 62
    4
 10
4369.9272217838998
 20
1051.4653197776211
 11
4370.0926160514127
 21
1053.1333772437206
  0
LINE
  8
_0-0_90_FRAME
  6
CONTINUOUS
 62
    4
 10
4370.0926160514127
 20
1053.1333772437206
 11
4370.0926160514127
 21
1053.1333772437206
  0
ARC
  8
_0-0_90_FRAME
  6
CONTINUOUS
 62
    4
 10
4370.4128147214105
 20
1053.1333772437206
 40
0.3201986699987063
 50
0
 51
180
  0
LINE
  8
_0-0_90_FRAME
  6
CONTINUOUS
 62
    4
 10
4370.7330133914102
 20
1053.1333772437206
 11
4370.7330133914102
 21
1053.1333772437206
  0
LINE
  8
_0-0_90_FRAME
  6
CONTINUOUS
 62
    4
 10
4370.7330133914102
 20
1053.1333772437206
 11
4370.8984076589231
 21
1051.4653197776211
  0
LINE
  8
_0-0_90_FRAME
  6
CONTINUOUS
 62
    4
 10
4370.8984076589231
 20
1051.4653197776211
 11
4371.3895650403365
 21
1049.8479453935513
  0
LINE
  8
_0-0_90_FRAME
  6
CONTINUOUS
 62
    4
 10
4371.3895650403365
 20
1049.8479453935513
 11
4372.1915619671527
 21
1048.3303971937401
  0
LINE
  8
_0-0_90_FRAME
  6
CONTINUOUS
 62
    4
 10
4372.1915619671527
 20
1048.3303971937401
 11
4373.280030168582
 21
1046.9587851123222
  0
LINE
  8
_0-0_90_FRAME
  6
CONTINUOUS
 62
    4
 10
4373.280030168582
 20
1046.9587851123222
 11
4374.621897089115
 21
1045.7747848883228
  0
LINE
  8
_0-0_90_FRAME
  6
CONTINUOUS
 62
    4
 10
4374.621897089115
 20
1045.7747848883228
 11
4376.1763907813884
 21
1044.8143717694145
  0
LINE
  8
_0-0_90_FRAME
  6
CONTINUOUS
 62
    4
 10
4376.1763907813884
 20
1044.8143717694145
 11
4377.8962787411747
 21
1044.1067274222232
  0
LINE
  8
_0-0_90_FRAME
  6
CONTINUOUS
 62
    4
 10
4377.8962787411747
 20
1044.1067274222232
 11
4379.7293030431201
 21
1043.6733532621529
  0
LINE
  8
_0-0_90_FRAME
  6
CONTINUOUS
 62
    4
 10
4379.7293030431201
 20
1043.6733532621529
 11
4381.6197681713666
 21
1043.5274171437593
  0
LINE
  8
_0-0_90_FRAME
  6
CONTINUOUS
 62
    4
 10
4381.6197681713666
 20
1043.5274171437593
 11
4383.510233299613
 21
1043.6733532621529
  0
LINE
  8
_0-0_90_FRAME
  6
CONTINUOUS
 62
    4
 10
4383.510233299613
 20
1043.6733532621529
 11
4385.3432576015584
 21
1044.1067274222232
  0
LINE
  8
_0-0_90_FRAME
  6
CONTINUOUS
 62
    4
 10
4385.3432576015584
 20
1044.1067274222232
 11
4387.0631455613448
 21
1044.8143717694145
  0
LINE
  8
_0-0_90_FRAME
  6
CONTINUOUS
 62
    4
 10
4387.0631455613448
 20
1044.8143717694145
 11
4388.6176392536181
 21
1045.7747848883228
  0
LINE
  8
_0-0_90_FRAME
  6
CONTINUOUS
 62
    4
 10
4388.6176392536181
 20
1045.7747848883228
 11
4389.9595061741511
 21
1046.9587851123222
  0
LINE
  8
_0-0_90_FRAME
  6
CONTINUOUS
 62
    4
 10
4389.9595061741511
 20
1046.9587851123222
 11
4391.0479743755805
 21
1048.3303971937401
  0
LINE
  8
_0-0_90_FRAME
  6
CONTINUOUS
 62
    4
 10
4391.0479743755805
 20
1048.3303971937401
 11
4391.8499713023966
 21
1049.8479453935513
  0
LINE
  8
_0-0_90_FRAME
  6
CONTINUOUS
 62
    4
 10
4391.8499713023966
 20
1049.8479453935513
 11
4392.34112868381
 21
1051.4653197776211
  0
LINE
  8
_0-0_90_FRAME
  6
CONTINUOUS
 62
    4
 10
4392.34112868381
 20
1051.4653197776211
 11
4392.5065229513229
 21
1053.1333772437206
  0
LINE
  8
_0-0_90_FRAME
  6
CONTINUOUS
 62
    4
 10
4392.5065229513229
 20
1053.1333772437206
 11
4392.5065229513229
 21
1053.1333772437206
  0
ARC
  8
_0-0_90_FRAME
  6
CONTINUOUS
 62
    4
 10
4392.8267216213208
 20
1053.1333772437206
 40
0.3201986699987063
 50
0
 51
180
  0
LINE
  8
_0-0_90_FRAME
  6
CONTINUOUS
 62
    4
 10
4393.1469202913195
 20
1053.1333772437206
 11
4393.1469202913195
 21
1053.1333772437206
  0
LINE
  8
_0-0_90_FRAME
  6
CONTINUOUS
 62
    4
 10
4393.1469202913195
 20
1053.1333772437206
 11
4393.3123145588324
 21
1051.4653197776211
  0
LINE
  8
_0-0_90_FRAME
  6
CONTINUOUS
 62
    4
 10
4393.3123145588324
 20
1051.4653197776211
 11
4393.8034719402458
 21
1049.8479453935513
  0
LINE
  8
_0-0_90_FRAME
  6
CONTINUOUS
 62
    4
 10
4393.8034719402458
 20
1049.8479453935513
 11
4394.605468867062
 21
1048.3303971937401
  0
LINE
  8
_0-0_90_FRAME
  6
CONTINUOUS
 62
    4
 10
4394.605468867062
 20
1048.3303971937401
 11
4395.6939370684913
 21
1046.9587851123222
  0
LINE
  8
_0-0_90_FRAME
  6
CONTINUOUS
 62
    4
 10
4395.6939370684913
 20
1046.9587851123222
 11
4397.0358039890243
 21
1045.7747848883228
  0
LINE
  8
_0-0_90_FRAME
  6
CONTINUOUS
 62
    4
 10
4397.0358039890243
 20
1045.7747848883228
 11
4398.5902976812977
 21
1044.8143717694145
  0
LINE
  8
_0-0_90_FRAME
  6
CONTINUOUS
 62
    4
 10
4398.5902976812977
 20
1044.8143717694145
 11
4400.310185641084
 21
1044.1067274222232
  0
LINE
  8
_0-0_90_FRAME
  6
CONTINUOUS
 62
    4
 10
4400.310185641084
 20
1044.1067274222232
 11
4402.1432099430294
 21
1043.6733532621529
  0
LINE
  8
_0-0_90_FRAME
  6
CONTINUOUS
 62
    4
 10
4402.1432099430294
 20
1043.6733532621529
 11
4404.0336750712759
 21
1043.5274171437593
  0
LINE
  8
_0-0_90_FRAME
  6
CONTINUOUS
 62
    4
 10
4404.0336750712759
 20
1043.5274171437593
 11
4405.9241401995223
 21
1043.6733532621529
  0
LINE
  8
_0-0_90_FRAME
  6
CONTINUOUS
 62
    4
 10
4405.9241401995223
 20
1043.6733532621529
 11
4407.7571645014677
 21
1044.1067274222232
  0
LINE
  8
_0-0_90_FRAME
  6
CONTINUOUS
 62
    4
 10
4407.7571645014677
 20
1044.1067274222232
 11
4409.4770524612541
 21
1044.8143717694145
  0
LINE
  8
_0-0_90_FRAME
  6
CONTINUOUS
 62
    4
 10
4409.4770524612541
 20
1044.8143717694145
 11
4411.0315461535274
 21
1045.7747848883228
  0
LINE
  8
_0-0_90_FRAME
  6
CONTINUOUS
 62
    4
 10
4411.0315461535274
 20
1045.7747848883228
 11
4412.3734130740604
 21
1046.9587851123222
  0
LINE
  8
_0-0_90_FRAME
  6
CONTINUOUS
 62
    4
 10
4412.3734130740604
 20
1046.9587851123222
 11
4413.4618812754898
 21
1048.3303971937401
  0
LINE
  8
_0-0_90_FRAME
  6
CONTINUOUS
 62
    4
 10
4413.4618812754898
 20
1048.3303971937401
 11
4414.2638782023059
 21
1049.8479453935513
  0
LINE
  8
_0-0_90_FRAME
  6
CONTINUOUS
 62
    4
 10
4414.2638782023059
 20
1049.8479453935513
 11
4414.7550355837193
 21
1051.4653197776211
  0
LINE
  8
_0-0_90_FRAME
  6
CONTINUOUS
 62
    4
 10
4414.7550355837193
 20
1051.4653197776211
 11
4414.9204298512323
 21
1053.1333772437206
  0
LINE
  8
_0-0_90_FRAME
  6
CONTINUOUS
 62
    4
 10
4414.9204298512323
 20
1053.1333772437206
 11
4414.9204298512323
 21
1053.1333772437206
  0
ARC
  8
_0-0_90_FRAME
  6
CONTINUOUS
 62
    4
 10
4415.2406285212319
 20
1053.1333772437206
 40
0.3201986699987063
 50
90
 51
180
  0
ARC
  8
_0-0_90_FRAME
  6
CONTINUOUS
 62
    4
 10
4370.4128147214105
 20
1053.1333772437206
 40
0.3201986699987063
 50
0
 51
90
  0
ARC
  8
_0-0_90_FRAME
  6
CONTINUOUS
 62
    4
 10
4347.9989078215012
 20
1053.1333772437206
 40
0.3201986699987063
 50
0
 51
90
  0
LINE
  8
_0-0_90_FRAME
  6
CONTINUOUS
 62
    4
 10
4355.6836759014723
 20
989.0936432439795
 11
4359.5260599414523
 21
989.0936432439795
  0
LINE
  8
_0-0_90_FRAME
  6
CONTINUOUS
 62
    4
 10
4359.5260599414523
 20
989.0936432439795
 11
4359.5260599414523
 21
985.25125920399626
  0
LINE
  8
_0-0_90_FRAME
  6
CONTINUOUS
 62
    4
 10
4359.5260599414523
 20
985.25125920399626
 11
4355.6836759014723
 21
985.25125920399626
  0
LINE
  8
_0-0_90_FRAME
  6
CONTINUOUS
 62
    4
 10
4355.6836759014723
 20
989.0936432439795
 11
4355.6836759014723
 21
985.25125920399626
  0
LINE
  8
_0-0_90_FRAME
  6
CONTINUOUS
 62
    4
 10
4407.5558604412599
 20
989.0936432439795
 11
4403.7134764012799
 21
989.0936432439795
  0
LINE
  8
_0-0_90_FRAME
  6
CONTINUOUS
 62
    4
 10
4403.7134764012799
 20
989.0936432439795
 11
4403.7134764012799
 21
985.25125920399626
  0
LINE
  8
_0-0_90_FRAME
  6
CONTINUOUS
 62
    4
 10
4403.7134764012799
 20
985.25125920399626
 11
4407.5558604412599
 21
985.25125920399626
  0
LINE
  8
_0-0_90_FRAME
  6
CONTINUOUS
 62
    4
 10
4407.5558604412599
 20
989.0936432439795
 11
4407.5558604412599
 21
985.25125920399626
  0
LINE
  8
_0-0_90_FRAME
  6
CONTINUOUS
 62
    4
 10
4365.2896360014338
 20
989.0936432439795
 11
4369.1320200414139
 21
989.0936432439795
  0
LINE
  8
_0-0_90_FRAME
  6
CONTINUOUS
 62
    4
 10
4369.1320200414139
 20
989.0936432439795
 11
4369.1320200414139
 21
985.25125920399626
  0
LINE
  8
_0-0_90_FRAME
  6
CONTINUOUS
 62
    4
 10
4369.1320200414139
 20
985.25125920399626
 11
4365.2896360014338
 21
985.25125920399626
  0
LINE
  8
_0-0_90_FRAME
  6
CONTINUOUS
 62
    4
 10
4365.2896360014338
 20
989.0936432439795
 11
4365.2896360014338
 21
985.25125920399626
  0
LINE
  8
_0-0_90_FRAME
  6
CONTINUOUS
 62
    4
 10
4374.8955961013953
 20
989.0936432439795
 11
4378.7379801413754
 21
989.0936432439795
  0
LINE
  8
_0-0_90_FRAME
  6
CONTINUOUS
 62
    4
 10
4378.7379801413754
 20
989.0936432439795
 11
4378.7379801413754
 21
985.25125920399626
  0
LINE
  8
_0-0_90_FRAME
  6
CONTINUOUS
 62
    4
 10
4378.7379801413754
 20
985.25125920399626
 11
4374.8955961013953
 21
985.25125920399626
  0
LINE
  8
_0-0_90_FRAME
  6
CONTINUOUS
 62
    4
 10
4374.8955961013953
 20
989.0936432439795
 11
4374.8955961013953
 21
985.25125920399626
  0
LINE
  8
_0-0_90_FRAME
  6
CONTINUOUS
 62
    4
 10
4384.5015562013568
 20
989.0936432439795
 11
4388.3439402413369
 21
989.0936432439795
  0
LINE
  8
_0-0_90_FRAME
  6
CONTINUOUS
 62
    4
 10
4388.3439402413369
 20
989.0936432439795
 11
4388.3439402413369
 21
985.25125920399626
  0
LINE
  8
_0-0_90_FRAME
  6
CONTINUOUS
 62
    4
 10
4388.3439402413369
 20
985.25125920399626
 11
4384.5015562013568
 21
985.25125920399626
  0
LINE
  8
_0-0_90_FRAME
  6
CONTINUOUS
 62
    4
 10
4384.5015562013568
 20
989.0936432439795
 11
4384.5015562013568
 21
985.25125920399626
  0
LINE
  8
_0-0_90_FRAME
  6
CONTINUOUS
 62
    4
 10
4394.1075163013184
 20
989.0936432439795
 11
4397.9499003412984
 21
989.0936432439795
  0
LINE
  8
_0-0_90_FRAME
  6
CONTINUOUS
 62
    4
 10
4397.9499003412984
 20
989.0936432439795
 11
4397.9499003412984
 21
985.25125920399626
  0
LINE
  8
_0-0_90_FRAME
  6
CONTINUOUS
 62
    4
 10
4397.9499003412984
 20
985.25125920399626
 11
4394.1075163013184
 21
985.25125920399626
  0
LINE
  8
_0-0_90_FRAME
  6
CONTINUOUS
 62
    4
 10
4394.1075163013184
 20
989.0936432439795
 11
4394.1075163013184
 21
985.25125920399626
  0
LINE
  8
_0-0_90_FRAME
  6
CONTINUOUS
 62
    4
 10
4381.5799815870232
 20
1025.6557777368832
 11
4381.5799815870232
 21
1025.6557777368832
  0
LINE
  8
_0-0_90_FRAME
  6
CONTINUOUS
 62
    4
 10
4381.5799815870232
 20
1025.6557777368832
 11
4381.4680972295882
 21
1026.8790198786896
  0
LINE
  8
_0-0_90_FRAME
  6
CONTINUOUS
 62
    4
 10
4381.4680972295882
 20
1026.8790198786896
 11
4381.1358437068675
 21
1028.0650944270074
  0
LINE
  8
_0-0_90_FRAME
  6
CONTINUOUS
 62
    4
 10
4381.1358437068675
 20
1028.0650944270074
 11
4380.593316374021
 21
1029.1779631068689
  0
LINE
  8
_0-0_90_FRAME
  6
CONTINUOUS
 62
    4
 10
4380.593316374021
 20
1029.1779631068689
 11
4379.8569996495244
 21
1030.1838119665754
  0
LINE
  8
_0-0_90_FRAME
  6
CONTINUOUS
 62
    4
 10
4379.8569996495244
 20
1030.1838119665754
 11
4378.9492661444583
 21
1031.0520787975083
  0
LINE
  8
_0-0_90_FRAME
  6
CONTINUOUS
 62
    4
 10
4378.9492661444583
 20
1031.0520787975083
 11
4377.897696882038
 21
1031.7563817513744
  0
LINE
  8
_0-0_90_FRAME
  6
CONTINUOUS
 62
    4
 10
4377.897696882038
 20
1031.7563817513744
 11
4376.7342432621826
 21
1032.2753209393147
  0
LINE
  8
_0-0_90_FRAME
  6
CONTINUOUS
 62
    4
 10
4376.7342432621826
 20
1032.2753209393147
 11
4375.4942562343958
 21
1032.5931286566995
  0
LINE
  8
_0-0_90_FRAME
  6
CONTINUOUS
 62
    4
 10
4375.4942562343958
 20
1032.5931286566995
 11
4374.2154121770527
 21
1032.7001484768548
  0
LINE
  8
_0-0_90_FRAME
  6
CONTINUOUS
 62
    4
 10
4374.2154121770527
 20
1032.7001484768548
 11
4372.9365681197096
 21
1032.5931286566995
  0
LINE
  8
_0-0_90_FRAME
  6
CONTINUOUS
 62
    4
 10
4372.9365681197096
 20
1032.5931286566995
 11
4371.6965810919228
 21
1032.2753209393147
  0
LINE
  8
_0-0_90_FRAME
  6
CONTINUOUS
 62
    4
 10
4371.6965810919228
 20
1032.2753209393147
 11
4370.5331274720675
 21
1031.7563817513744
  0
LINE
  8
_0-0_90_FRAME
  6
CONTINUOUS
 62
    4
 10
4370.5331274720675
 20
1031.7563817513744
 11
4369.4815582096471
 21
1031.0520787975083
  0
LINE
  8
_0-0_90_FRAME
  6
CONTINUOUS
 62
    4
 10
4369.4815582096471
 20
1031.0520787975083
 11
4368.5738247045811
 21
1030.1838119665754
  0
LINE
  8
_0-0_90_FRAME
  6
CONTINUOUS
 62
    4
 10
4368.5738247045811
 20
1030.1838119665754
 11
4367.8375079800844
 21
1029.1779631068691
  0
LINE
  8
_0-0_90_FRAME
  6
CONTINUOUS
 62
    4
 10
4367.8375079800844
 20
1029.1779631068691
 11
4367.2949806472379
 21
1028.0650944270074
  0
LINE
  8
_0-0_90_FRAME
  6
CONTINUOUS
 62
    4
 10
4367.2949806472379
 20
1028.0650944270074
 11
4366.9627271245172
 21
1026.8790198786896
  0
LINE
  8
_0-0_90_FRAME
  6
CONTINUOUS
 62
    4
 10
4366.9627271245172
 20
1026.8790198786896
 11
4366.8508427670822
 21
1025.6557777368832
  0
LINE
  8
_0-0_90_FRAME
  6
CONTINUOUS
 62
    4
 10
4366.8508427670822
 20
1025.6557777368832
 11
4366.8508427670822
 21
1025.6557777368832
  0
LINE
  8
_0-0_90_FRAME
  6
CONTINUOUS
 62
    4
 10
4381.5799815870223
 20
1025.6557777368832
 11
4381.5799815870223
 21
1023.7345857168904
  0
LINE
  8
_0-0_90_FRAME
  6
CONTINUOUS
 62
    4
 10
4378.1053458887309
 20
1017.7530507425428
 11
4378.1053458887309
 21
1017.7530507425428
  0
LINE
  8
_0-0_90_FRAME
  6
CONTINUOUS
 62
    4
 10
4378.1053458887309
 20
1017.7530507425428
 11
4376.960353559436
 21
1017.1978124902776
  0
LINE
  8
_0-0_90_FRAME
  6
CONTINUOUS
 62
    4
 10
4376.960353559436
 20
1017.1978124902776
 11
4375.7319575752454
 21
1016.8411907847362
  0
LINE
  8
_0-0_90_FRAME
  6
CONTINUOUS
 62
    4
 10
4375.7319575752454
 20
1016.8411907847362
 11
4374.4574821265396
 21
1016.6940213959822
  0
LINE
  8
_0-0_90_FRAME
  6
CONTINUOUS
 62
    4
 10
4374.4574821265396
 20
1016.6940213959822
 11
4373.1756515049119
 21
1016.7607759914215
  0
LINE
  8
_0-0_90_FRAME
  6
CONTINUOUS
 62
    4
 10
4373.1756515049119
 20
1016.7607759914215
 11
4371.9254134851626
 21
1017.0394262664512
  0
LINE
  8
_0-0_90_FRAME
  6
CONTINUOUS
 62
    4
 10
4371.9254134851626
 20
1017.0394262664512
 11
4370.7447559168722
 21
1017.5215055734683
  0
LINE
  8
_0-0_90_FRAME
  6
CONTINUOUS
 62
    4
 10
4370.7447559168722
 20
1017.5215055734683
 11
4369.6695524828092
 21
1018.1923661766731
  0
LINE
  8
_0-0_90_FRAME
  6
CONTINUOUS
 62
    4
 10
4369.6695524828092
 20
1018.1923661766731
 11
4368.7324726952411
 21
1019.0316243161089
  0
LINE
  8
_0-0_90_FRAME
  6
CONTINUOUS
 62
    4
 10
4368.7324726952411
 20
1019.0316243161089
 11
4367.9619892493256
 21
1020.0137795578943
  0
LINE
  8
_0-0_90_FRAME
  6
CONTINUOUS
 62
    4
 10
4367.9619892493256
 20
1020.0137795578943
 11
4367.3815128946844
 21
1021.1089896120019
  0
LINE
  8
_0-0_90_FRAME
  6
CONTINUOUS
 62
    4
 10
4367.3815128946844
 20
1021.1089896120019
 11
4367.0086811116189
 21
1022.2839770751408
  0
LINE
  8
_0-0_90_FRAME
  6
CONTINUOUS
 62
    4
 10
4367.0086811116189
 20
1022.2839770751408
 11
4366.8548222051941
 21
1023.5030405478159
  0
LINE
  8
_0-0_90_FRAME
  6
CONTINUOUS
 62
    4
 10
4366.8548222051941
 20
1023.5030405478159
 11
4366.8508427670822
 21
1023.7345857168904
  0
LINE
  8
_0-0_90_FRAME
  6
CONTINUOUS
 62
    4
 10
4378.9113952664175
 20
1025.467378977364
 11
4378.9113952664175
 21
1023.9304253613701
  0
LINE
  8
_0-0_90_FRAME
  6
CONTINUOUS
 62
    4
 10
4396.5084774014385
 20
1023.1553387389291
 11
4396.5084774014385
 21
1032.7001484768559
  0
LINE
  8
_0-0_90_FRAME
  6
CONTINUOUS
 62
    4
 10
4393.6266893714483
 20
1023.7345857168904
 11
4393.6266893714483
 21
1032.7001484768559
  0
LINE
  8
_0-0_90_FRAME
  6
CONTINUOUS
 62
    4
 10
4393.6266893714483
 20
1032.7001484768559
 11
4396.5084774014385
 21
1032.7001484768559
  0
LINE
  8
_0-0_90_FRAME
  6
CONTINUOUS
 62
    4
 10
4383.0601332614915
 20
1023.1553387389291
 11
4383.0601332614915
 21
1032.7001484768559
  0
LINE
  8
_0-0_90_FRAME
  6
CONTINUOUS
 62
    4
 10
4385.9419212914818
 20
1023.7345857168904
 11
4385.9419212914818
 21
1032.7001484768559
  0
ARC
  8
_0-0_90_FRAME
  6
CONTINUOUS
 62
    4
 10
4389.8290631853697
 20
1023.4449622279133
 40
6.7751231781982479
 50
182.45003099226136
 51
265.55525728852427
  0
LINE
  8
_0-0_90_FRAME
  6
CONTINUOUS
 62
    4
 10
4385.9419212914818
 20
1032.7001484768559
 11
4383.0601332614915
 21
1032.7001484768559
  0
LINE
  8
_0-0_90_FRAME
  6
CONTINUOUS
 62
    4
 10
4390.2646033364626
 20
1016.6902149769199
 11
4389.3040073264665
 21
1016.6902149769199
  0
ARC
  8
_0-0_90_FRAME
  6
CONTINUOUS
 62
    4
 10
4391.6581112974918
 20
1023.6600354736104
 40
5.7166761254783021
 50
179.25279388138676
 51
218.96457184688023
  0
ARC
  8
_0-0_90_FRAME
  6
CONTINUOUS
 62
    4
 10
4387.9104993654373
 20
1023.6600354736104
 40
5.716676125477659
 50
321.03542815311977
 51
0.747206118613265
  0
ARC
  8
_0-0_90_FRAME
  6
CONTINUOUS
 62
    4
 10
4389.7843053314673
 20
1024.7338307534387
 40
5.3298281685001587
 50
241.15772780831895
 51
298.84227219168099
  0
LINE
  8
_0-0_90_FRAME
  6
CONTINUOUS
 62
    4
 10
4374.8361062400309
 20
1020.9348037433617
 11
4376.1435493704384
 21
1019.6623485089385
  0
LINE
  8
_0-0_90_FRAME
  6
CONTINUOUS
 62
    4
 10
4374.8361062400309
 20
1020.9348037433617
 11
4376.2544127282972
 21
1022.4408477064862
  0
LINE
  8
_0-0_90_FRAME
  6
CONTINUOUS
 62
    4
 10
4380.3315350644407
 20
1015.5864356114032
 11
4382.1846926481503
 21
1017.5542308762166
  0
LINE
  8
_0-0_90_FRAME
  6
CONTINUOUS
 62
    4
 10
4369.5194290876898
 20
1025.467378977364
 11
4369.5194290876898
 21
1023.9304253613701
  0
LINE
  8
_0-0_90_FRAME
  6
CONTINUOUS
 62
    4
 10
4378.9113952664165
 20
1025.467378977364
 11
4378.9113952664165
 21
1025.467378977364
  0
LINE
  8
_0-0_90_FRAME
  6
CONTINUOUS
 62
    4
 10
4378.9113952664165
 20
1025.467378977364
 11
4378.8400527314725
 21
1026.2785208961425
  0
LINE
  8
_0-0_90_FRAME
  6
CONTINUOUS
 62
    4
 10
4378.8400527314725
 20
1026.2785208961425
 11
4378.6281928334629
 21
1027.0650166781763
  0
LINE
  8
_0-0_90_FRAME
  6
CONTINUOUS
 62
    4
 10
4378.6281928334629
 20
1027.0650166781763
 11
4378.282252828184
 21
1027.8029690471149
  0
LINE
  8
_0-0_90_FRAME
  6
CONTINUOUS
 62
    4
 10
4378.282252828184
 20
1027.8029690471149
 11
4377.8127439276404
 21
1028.4699556936496
  0
LINE
  8
_0-0_90_FRAME
  6
CONTINUOUS
 62
    4
 10
4377.8127439276404
 20
1028.4699556936496
 11
4377.2339319221928
 21
1029.0457105660371
  0
LINE
  8
_0-0_90_FRAME
  6
CONTINUOUS
 62
    4
 10
4377.2339319221928
 20
1029.0457105660371
 11
4376.5634037217342
 21
1029.5127396438259
  0
LINE
  8
_0-0_90_FRAME
  6
CONTINUOUS
 62
    4
 10
4376.5634037217342
 20
1029.5127396438259
 11
4375.8215329863315
 21
1029.8568524848156
  0
LINE
  8
_0-0_90_FRAME
  6
CONTINUOUS
 62
    4
 10
4375.8215329863315
 20
1029.8568524848156
 11
4375.0308610828752
 21
1030.0675933944622
  0
LINE
  8
_0-0_90_FRAME
  6
CONTINUOUS
 62
    4
 10
4375.0308610828752
 20
1030.0675933944622
 11
4374.2154121770527
 21
1030.138559116866
  0
LINE
  8
_0-0_90_FRAME
  6
CONTINUOUS
 62
    4
 10
4374.2154121770527
 20
1030.138559116866
 11
4373.3999632712303
 21
1030.0675933944622
  0
LINE
  8
_0-0_90_FRAME
  6
CONTINUOUS
 62
    4
 10
4373.3999632712303
 20
1030.0675933944622
 11
4372.6092913677739
 21
1029.8568524848156
  0
LINE
  8
_0-0_90_FRAME
  6
CONTINUOUS
 62
    4
 10
4372.6092913677739
 20
1029.8568524848156
 11
4371.8674206323712
 21
1029.5127396438259
  0
LINE
  8
_0-0_90_FRAME
  6
CONTINUOUS
 62
    4
 10
4371.8674206323712
 20
1029.5127396438259
 11
4371.1968924319126
 21
1029.0457105660371
  0
LINE
  8
_0-0_90_FRAME
  6
CONTINUOUS
 62
    4
 10
4371.1968924319126
 20
1029.0457105660371
 11
4370.618080426465
 21
1028.4699556936496
  0
LINE
  8
_0-0_90_FRAME
  6
CONTINUOUS
 62
    4
 10
4370.618080426465
 20
1028.4699556936496
 11
4370.1485715259214
 21
1027.8029690471149
  0
LINE
  8
_0-0_90_FRAME
  6
CONTINUOUS
 62
    4
 10
4370.1485715259214
 20
1027.8029690471149
 11
4369.8026315206425
 21
1027.0650166781763
  0
LINE
  8
_0-0_90_FRAME
  6
CONTINUOUS
 62
    4
 10
4369.8026315206425
 20
1027.0650166781763
 11
4369.5907716226329
 21
1026.2785208961425
  0
LINE
  8
_0-0_90_FRAME
  6
CONTINUOUS
 62
    4
 10
4369.5907716226329
 20
1026.2785208961425
 11
4369.5194290876889
 21
1025.467378977364
  0
LINE
  8
_0-0_90_FRAME
  6
CONTINUOUS
 62
    4
 10
4369.5194290876889
 20
1025.467378977364
 11
4369.5194290876889
 21
1025.467378977364
  0
LINE
  8
_0-0_90_FRAME
  6
CONTINUOUS
 62
    4
 10
4376.1435493704375
 20
1019.662348508938
 11
4376.1435493704375
 21
1019.662348508938
  0
LINE
  8
_0-0_90_FRAME
  6
CONTINUOUS
 62
    4
 10
4376.1435493704375
 20
1019.662348508938
 11
4375.3707138829668
 21
1019.393921727117
  0
LINE
  8
_0-0_90_FRAME
  6
CONTINUOUS
 62
    4
 10
4375.3707138829668
 20
1019.393921727117
 11
4374.5627751377724
 21
1019.2631082251169
  0
LINE
  8
_0-0_90_FRAME
  6
CONTINUOUS
 62
    4
 10
4374.5627751377724
 20
1019.2631082251169
 11
4373.7442819447906
 21
1019.2738827050011
  0
LINE
  8
_0-0_90_FRAME
  6
CONTINUOUS
 62
    4
 10
4373.7442819447906
 20
1019.2738827050011
 11
4372.940103805513
 21
1019.4259177896507
  0
LINE
  8
_0-0_90_FRAME
  6
CONTINUOUS
 62
    4
 10
4372.940103805513
 20
1019.4259177896507
 11
4372.1746752657673
 21
1019.7145939699518
  0
LINE
  8
_0-0_90_FRAME
  6
CONTINUOUS
 62
    4
 10
4372.1746752657673
 20
1019.7145939699518
 11
4371.4712534844084
 21
1020.1311399662434
  0
LINE
  8
_0-0_90_FRAME
  6
CONTINUOUS
 62
    4
 10
4371.4712534844084
 20
1020.1311399662434
 11
4370.8512115763142
 21
1020.6628992392104
  0
LINE
  8
_0-0_90_FRAME
  6
CONTINUOUS
 62
    4
 10
4370.8512115763142
 20
1020.6628992392104
 11
4370.333389201106
 21
1021.293714552427
  0
LINE
  8
_0-0_90_FRAME
  6
CONTINUOUS
 62
    4
 10
4370.333389201106
 20
1021.293714552427
 11
4369.9335201296226
 21
1022.004418901809
  0
LINE
  8
_0-0_90_FRAME
  6
CONTINUOUS
 62
    4
 10
4369.9335201296226
 20
1022.004418901809
 11
4369.6637541812597
 21
1022.7734178953343
  0
LINE
  8
_0-0_90_FRAME
  6
CONTINUOUS
 62
    4
 10
4369.6637541812597
 20
1022.7734178953343
 11
4369.5322880578478
 21
1023.5773458877168
  0
LINE
  8
_0-0_90_FRAME
  6
CONTINUOUS
 62
    4
 10
4369.5322880578478
 20
1023.5773458877168
 11
4369.5194231925725
 21
1023.9229844764097
  0
LINE
  8
_0-0_90_FRAME
  6
CONTINUOUS
 62
    4
 10
4352.8045602290595
 20
1016.6902149769199
 11
4355.6787315729289
 21
1016.6902149769199
  0
LINE
  8
_0-0_90_FRAME
  6
CONTINUOUS
 62
    4
 10
4352.8045602290595
 20
1016.6902149769199
 11
4352.8045602290595
 21
1016.767062657718
  0
LINE
  8
_0-0_90_FRAME
  6
CONTINUOUS
 62
    4
 10
4352.8045602290595
 20
1016.767062657718
 11
4358.8417125307333
 21
1032.7001484768559
  0
LINE
  8
_0-0_90_FRAME
  6
CONTINUOUS
 62
    4
 10
4352.8045602290595
 20
1016.6902149769199
 11
4352.8045602290595
 21
1016.767062657718
  0
LINE
  8
_0-0_90_FRAME
  6
CONTINUOUS
 62
    4
 10
4357.2457244109482
 20
1020.9109955011828
 11
4363.1565746011065
 21
1020.9109955011828
  0
LINE
  8
_0-0_90_FRAME
  6
CONTINUOUS
 62
    4
 10
4358.1122587462041
 20
1023.3445053931721
 11
4362.2900402658561
 21
1023.3445053931721
  0
LINE
  8
_0-0_90_FRAME
  6
CONTINUOUS
 62
    4
 10
4367.5336990489977
 20
1016.6902149769199
 11
4364.6595277051338
 21
1016.6902149769199
  0
LINE
  8
_0-0_90_FRAME
  6
CONTINUOUS
 62
    4
 10
4364.6595277051338
 20
1016.6902149769199
 11
4363.1565746011065
 21
1020.9109955011828
  0
LINE
  8
_0-0_90_FRAME
  6
CONTINUOUS
 62
    4
 10
4367.5336990489977
 20
1016.767062657718
 11
4361.4965467473248
 21
1032.7001484768559
  0
LINE
  8
_0-0_90_FRAME
  6
CONTINUOUS
 62
    4
 10
4367.5336990489977
 20
1016.6902149769199
 11
4367.5336990489977
 21
1016.767062657718
  0
LINE
  8
_0-0_90_FRAME
  6
CONTINUOUS
 62
    4
 10
4358.8417125307333
 20
1032.7001484768559
 11
4361.4965467473248
 21
1032.7001484768559
  0
LINE
  8
_0-0_90_FRAME
  6
CONTINUOUS
 62
    4
 10
4362.2900402658561
 20
1023.3445053931721
 11
4360.1691296390281
 21
1029.3007113742167
  0
LINE
  8
_0-0_90_FRAME
  6
CONTINUOUS
 62
    4
 10
4376.2544127282972
 20
1022.4408477064862
 11
4382.1846926481503
 21
1017.5542308762166
  0
LINE
  8
_0-0_90_FRAME
  6
CONTINUOUS
 62
    4
 10
4378.1053458887336
 20
1017.7530507425441
 11
4380.3315350644407
 21
1015.5864356114032
  0
LINE
  8
_0-0_90_FRAME
  6
CONTINUOUS
 62
    4
 10
4357.2457244109482
 20
1020.9109955011828
 11
4358.1122587462041
 21
1023.3445053931721
  0
LINE
  8
_0-0_90_FRAME
  6
CONTINUOUS
 62
    4
 10
4381.5799815870232
 20
1023.7345857168904
 11
4381.5799815870232
 21
1023.7345857168904
  0
LINE
  8
_0-0_90_FRAME
  6
CONTINUOUS
 62
    4
 10
4381.5799815870232
 20
1023.7345857168904
 11
4381.4680972295882
 21
1022.5113435750841
  0
LINE
  8
_0-0_90_FRAME
  6
CONTINUOUS
 62
    4
 10
4381.4680972295882
 20
1022.5113435750841
 11
4381.1358437068675
 21
1021.3252690267661
  0
LINE
  8
_0-0_90_FRAME
  6
CONTINUOUS
 62
    4
 10
4381.1358437068675
 20
1021.3252690267661
 11
4380.593316374021
 21
1020.2124003469046
  0
LINE
  8
_0-0_90_FRAME
  6
CONTINUOUS
 62
    4
 10
4380.593316374021
 20
1020.2124003469046
 11
4380.0270916137515
 21
1019.4078428948242
  0
LINE
  8
_0-0_90_FRAME
  6
CONTINUOUS
 62
    4
 10
4378.9114011615329
 20
1023.9229844764097
 11
4378.9114011615329
 21
1023.9229844764097
  0
LINE
  8
_0-0_90_FRAME
  6
CONTINUOUS
 62
    4
 10
4378.9114011615329
 20
1023.9229844764097
 11
4378.8400585370282
 21
1023.1115825865884
  0
LINE
  8
_0-0_90_FRAME
  6
CONTINUOUS
 62
    4
 10
4378.8400585370282
 20
1023.1115825865884
 11
4378.6281983730605
 21
1022.3248347326002
  0
LINE
  8
_0-0_90_FRAME
  6
CONTINUOUS
 62
    4
 10
4378.6281983730605
 20
1022.3248347326002
 11
4378.2822579335043
 21
1021.5866458498748
  0
LINE
  8
_0-0_90_FRAME
  6
CONTINUOUS
 62
    4
 10
4378.2822579335043
 20
1021.5866458498748
 11
4377.9636853895454
 21
1021.1081126492286
  0
LINE
  8
_0-0_90_FRAME
  6
CONTINUOUS
 62
    4
 10
4366.850842767084
 20
1025.6557777368832
 11
4366.850842767084
 21
1023.7345857168904
  0
LINE
  8
_0-0_90_FRAME
  6
CONTINUOUS
 62
    4
 10
4355.6787315729289
 20
1016.6902149769199
 11
4360.1691296390281
 21
1029.3007113742167
  0
LINE
  8
_0-0_90_FRAME
  6
CONTINUOUS
 62
    4
 10
4396.3462346337283
 20
1016.6902149769199
 11
4399.2204059775977
 21
1016.6902149769199
  0
LINE
  8
_0-0_90_FRAME
  6
CONTINUOUS
 62
    4
 10
4396.3462346337283
 20
1016.6902149769199
 11
4396.3462346337283
 21
1016.767062657718
  0
LINE
  8
_0-0_90_FRAME
  6
CONTINUOUS
 62
    4
 10
4396.3462346337283
 20
1016.767062657718
 11
4402.3833869354066
 21
1032.7001484768559
  0
LINE
  8
_0-0_90_FRAME
  6
CONTINUOUS
 62
    4
 10
4396.3462346337283
 20
1016.6902149769199
 11
4396.3462346337283
 21
1016.767062657718
  0
LINE
  8
_0-0_90_FRAME
  6
CONTINUOUS
 62
    4
 10
4400.7873988156216
 20
1020.9109955011828
 11
4406.6982490057799
 21
1020.9109955011828
  0
LINE
  8
_0-0_90_FRAME
  6
CONTINUOUS
 62
    4
 10
4401.6539331508729
 20
1023.3445053931721
 11
4405.8317146705294
 21
1023.3445053931721
  0
LINE
  8
_0-0_90_FRAME
  6
CONTINUOUS
 62
    4
 10
4411.0753734536711
 20
1016.6902149769199
 11
4408.2012021098026
 21
1016.6902149769199
  0
LINE
  8
_0-0_90_FRAME
  6
CONTINUOUS
 62
    4
 10
4408.2012021098026
 20
1016.6902149769199
 11
4406.6982490057799
 21
1020.9109955011828
  0
LINE
  8
_0-0_90_FRAME
  6
CONTINUOUS
 62
    4
 10
4411.0753734536711
 20
1016.767062657718
 11
4405.0382211519982
 21
1032.7001484768559
  0
LINE
  8
_0-0_90_FRAME
  6
CONTINUOUS
 62
    4
 10
4411.0753734536711
 20
1016.6902149769199
 11
4411.0753734536711
 21
1016.767062657718
  0
LINE
  8
_0-0_90_FRAME
  6
CONTINUOUS
 62
    4
 10
4402.3833869354066
 20
1032.7001484768559
 11
4405.0382211519982
 21
1032.7001484768559
  0
LINE
  8
_0-0_90_FRAME
  6
CONTINUOUS
 62
    4
 10
4405.8317146705294
 20
1023.3445053931721
 11
4403.7108040437024
 21
1029.3007113742167
  0
LINE
  8
_0-0_90_FRAME
  6
CONTINUOUS
 62
    4
 10
4400.7873988156216
 20
1020.9109955011828
 11
4401.6539331508729
 21
1023.3445053931721
  0
LINE
  8
_0-0_90_FRAME
  6
CONTINUOUS
 62
    4
 10
4399.2204059775977
 20
1016.6902149769199
 11
4403.7108040437024
 21
1029.3007113742167
  0
ARC
  8
_0-0_90_FRAME
  6
CONTINUOUS
 62
    4
 10
4389.7395474775594
 20
1023.4449622279133
 40
6.7751231781982479
 50
274.44474271147573
 51
357.5499690077387
  0
LINE
  8
_0-0_90_FRAME
  6
CONTINUOUS
 62
    4
 10
4377.963685389549
 20
1021.1081126492305
 11
4380.0270916137551
 21
1019.4078428948249
  0
LINE
  8
_0-0_90_FRAME
  6
CONTINUOUS
 62
    4
 10
4379.0843929761313
 20
1005.3551461190399
 11
4379.0843929761313
 21
1005.3551461190399
  0
LINE
  8
_0-0_90_FRAME
  6
CONTINUOUS
 62
    4
 10
4379.0843929761313
 20
1005.3551461190399
 11
4379.8914851172531
 21
1005.6814126769463
  0
LINE
  8
_0-0_90_FRAME
  6
CONTINUOUS
 62
    4
 10
4379.8914851172531
 20
1005.6814126769463
 11
4380.6167843189942
 21
1006.1169196427137
  0
LINE
  8
_0-0_90_FRAME
  6
CONTINUOUS
 62
    4
 10
4380.6167843189942
 20
1006.1169196427137
 11
4381.2382527321297
 21
1006.6484343575644
  0
LINE
  8
_0-0_90_FRAME
  6
CONTINUOUS
 62
    4
 10
4381.2382527321297
 20
1006.6484343575644
 11
4381.737007353403
 21
1007.2598070158471
  0
LINE
  8
_0-0_90_FRAME
  6
CONTINUOUS
 62
    4
 10
4381.737007353403
 20
1007.2598070158471
 11
4382.0978937760301
 21
1007.9324613687094
  0
LINE
  8
_0-0_90_FRAME
  6
CONTINUOUS
 62
    4
 10
4382.0978937760301
 20
1007.9324613687094
 11
4382.3099466486756
 21
1008.645959154019
  0
LINE
  8
_0-0_90_FRAME
  6
CONTINUOUS
 62
    4
 10
4382.3099466486756
 20
1008.645959154019
 11
4382.366722852109
 21
1009.3786211026166
  0
LINE
  8
_0-0_90_FRAME
  6
CONTINUOUS
 62
    4
 10
4382.366722852109
 20
1009.3786211026166
 11
4382.2664972701186
 21
1010.108185651939
  0
LINE
  8
_0-0_90_FRAME
  6
CONTINUOUS
 62
    4
 10
4382.2664972701186
 20
1010.108185651939
 11
4382.0123152062979
 21
1010.8124853523325
  0
LINE
  8
_0-0_90_FRAME
  6
CONTINUOUS
 62
    4
 10
4382.0123152062979
 20
1010.8124853523325
 11
4381.6118998540323
 21
1011.4701204137933
  0
LINE
  8
_0-0_90_FRAME
  6
CONTINUOUS
 62
    4
 10
4381.6118998540323
 20
1011.4701204137933
 11
4381.0774176311807
 21
1012.0611089277586
  0
LINE
  8
_0-0_90_FRAME
  6
CONTINUOUS
 62
    4
 10
4381.0774176311807
 20
1012.0611089277586
 11
4380.425108509623
 21
1012.5674940072859
  0
LINE
  8
_0-0_90_FRAME
  6
CONTINUOUS
 62
    4
 10
4380.425108509623
 20
1012.5674940072859
 11
4379.6747925719346
 21
1012.9738893979771
  0
LINE
  8
_0-0_90_FRAME
  6
CONTINUOUS
 62
    4
 10
4379.6747925719346
 20
1012.9738893979771
 11
4378.8492677882032
 21
1013.2679469815321
  0
LINE
  8
_0-0_90_FRAME
  6
CONTINUOUS
 62
    4
 10
4378.8492677882032
 20
1013.2679469815321
 11
4377.9736173112469
 21
1013.4407319670748
  0
LINE
  8
_0-0_90_FRAME
  6
CONTINUOUS
 62
    4
 10
4377.9736173112469
 20
1013.4407319670748
 11
4377.1995548370787
 21
1013.4882282769316
  0
LINE
  8
_0-0_90_FRAME
  6
CONTINUOUS
 62
    4
 10
4388.3186424942587
 20
1000.0398841369857
 11
4388.3186424942587
 21
1010.9266389169417
  0
LINE
  8
_0-0_90_FRAME
  6
CONTINUOUS
 62
    4
 10
4385.4368544642675
 20
1000.0398841369857
 11
4385.4368544642675
 21
1010.9266389169417
  0
LINE
  8
_0-0_90_FRAME
  6
CONTINUOUS
 62
    4
 10
4385.1166557942661
 20
1013.4882282769328
 11
4388.6388411642556
 21
1013.4882282769328
  0
LINE
  8
_0-0_90_FRAME
  6
CONTINUOUS
 62
    4
 10
4369.8349854271137
 20
1013.4882282769328
 11
4369.8349854271137
 21
997.47829477699702
  0
LINE
  8
_0-0_90_FRAME
  6
CONTINUOUS
 62
    4
 10
4385.1166557942661
 20
997.47829477699702
 11
4388.6388411642556
 21
997.47829477699702
  0
LINE
  8
_0-0_90_FRAME
  6
CONTINUOUS
 62
    4
 10
4388.6388411642556
 20
997.47829477699702
 11
4388.6388411642556
 21
999.71968546698895
  0
ARC
  8
_0-0_90_FRAME
  6
CONTINUOUS
 62
    4
 10
4388.6388411642556
 20
1000.0398841369857
 40
0.3201986699987063
 50
180
 51
270
  0
LINE
  8
_0-0_90_FRAME
  6
CONTINUOUS
 62
    4
 10
4385.1166557942661
 20
997.47829477699702
 11
4385.1166557942661
 21
999.71968546698895
  0
ARC
  8
_0-0_90_FRAME
  6
CONTINUOUS
 62
    4
 10
4385.1166557942661
 20
1000.0398841369857
 40
0.3201986699987063
 50
270
 51
0
  0
LINE
  8
_0-0_90_FRAME
  6
CONTINUOUS
 62
    4
 10
4388.6388411642556
 20
1013.4882282769328
 11
4388.6388411642556
 21
1011.2468375869407
  0
ARC
  8
_0-0_90_FRAME
  6
CONTINUOUS
 62
    4
 10
4388.6388411642556
 20
1010.9266389169417
 40
0.3201986699987063
 50
90
 51
180
  0
LINE
  8
_0-0_90_FRAME
  6
CONTINUOUS
 62
    4
 10
4385.1166557942661
 20
1013.4882282769328
 11
4385.1166557942661
 21
1011.2468375869407
  0
ARC
  8
_0-0_90_FRAME
  6
CONTINUOUS
 62
    4
 10
4385.1166557942661
 20
1010.9266389169417
 40
0.3201986699987063
 50
0
 51
90
  0
LINE
  8
_0-0_90_FRAME
  6
CONTINUOUS
 62
    4
 10
4362.886726312594
 20
997.47829477699702
 11
4362.886726312594
 21
1010.9266389169417
  0
LINE
  8
_0-0_90_FRAME
  6
CONTINUOUS
 62
    4
 10
4360.0049382826082
 20
997.47829477699702
 11
4360.0049382826082
 21
1010.9266389169417
  0
LINE
  8
_0-0_90_FRAME
  6
CONTINUOUS
 62
    4
 10
4354.8817595626306
 20
1013.4882282769328
 11
4368.0099050325762
 21
1013.4882282769328
  0
LINE
  8
_0-0_90_FRAME
  6
CONTINUOUS
 62
    4
 10
4360.0049382826082
 20
997.47829477699702
 11
4362.886726312594
 21
997.47829477699702
  0
LINE
  8
_0-0_90_FRAME
  6
CONTINUOUS
 62
    4
 10
4368.0099050325762
 20
1013.4882282769328
 11
4368.0099050325762
 21
1011.2468375869407
  0
ARC
  8
_0-0_90_FRAME
  6
CONTINUOUS
 62
    4
 10
4363.2069249825954
 20
1010.9266389169417
 40
0.3201986699987063
 50
90
 51
180
  0
LINE
  8
_0-0_90_FRAME
  6
CONTINUOUS
 62
    4
 10
4354.8817595626306
 20
1013.4882282769328
 11
4354.8817595626306
 21
1011.2468375869407
  0
ARC
  8
_0-0_90_FRAME
  6
CONTINUOUS
 62
    4
 10
4359.6847396126113
 20
1010.9266389169417
 40
0.3201986699987063
 50
0
 51
90
  0
LINE
  8
_0-0_90_FRAME
  6
CONTINUOUS
 62
    4
 10
4354.8817595626306
 20
1011.2468375869407
 11
4359.6847396126113
 21
1011.2468375869407
  0
LINE
  8
_0-0_90_FRAME
  6
CONTINUOUS
 62
    4
 10
4363.2069249825954
 20
1011.2468375869407
 11
4368.0099050325762
 21
1011.2468375869407
  0
LINE
  8
_0-0_90_FRAME
  6
CONTINUOUS
 62
    4
 10
4369.8349854271137
 20
997.47829477699702
 11
4372.7167734570994
 21
997.47829477699702
  0
LINE
  8
_0-0_90_FRAME
  6
CONTINUOUS
 62
    4
 10
4372.7167734570994
 20
997.47829477699702
 11
4372.7167734570994
 21
1011.2468375869407
  0
LINE
  8
_0-0_90_FRAME
  6
CONTINUOUS
 62
    4
 10
4369.8349854271137
 20
1013.4882282769328
 11
4377.1995548370787
 21
1013.4882282769328
  0
LINE
  8
_0-0_90_FRAME
  6
CONTINUOUS
 62
    4
 10
4372.7167734570994
 20
1011.2468375869407
 11
4377.5837932410823
 21
1011.2468375869407
  0
LINE
  8
_0-0_90_FRAME
  6
CONTINUOUS
 62
    4
 10
4372.8128330580957
 20
1005.0651336676806
 11
4372.8128330580957
 21
1007.3065243576726
  0
LINE
  8
_0-0_90_FRAME
  6
CONTINUOUS
 62
    4
 10
4372.8128330580957
 20
1005.0651336676806
 11
4375.9570455552685
 21
1005.0651336676806
  0
LINE
  8
_0-0_90_FRAME
  6
CONTINUOUS
 62
    4
 10
4372.8128330580957
 20
1007.3065243576726
 11
4377.5837932410823
 21
1007.3065243576726
  0
ARC
  8
_0-0_90_FRAME
  6
CONTINUOUS
 62
    4
 10
4377.5150951728792
 20
1009.2766809723067
 40
1.9713539790611523
 50
271.99705710435398
 51
88.002942895541636
  0
LINE
  8
_0-0_90_FRAME
  6
CONTINUOUS
 62
    4
 10
4379.5825087529411
 20
997.47829477699702
 11
4382.6884358519264
 21
997.47829477699702
  0
LINE
  8
_0-0_90_FRAME
  6
CONTINUOUS
 62
    4
 10
4379.9295078317236
 20
1004.3625970308899
 11
4382.6884358519264
 21
997.60637424499657
  0
LINE
  8
_0-0_90_FRAME
  6
CONTINUOUS
 62
    4
 10
4377.1451772062783
 20
1004.2626466210863
 11
4379.5825087529411
 21
997.47829477699702
  0
ARC
  8
_0-0_90_FRAME
  6
CONTINUOUS
 62
    4
 10
4375.9570455552685
 20
1003.7843389876884
 40
1.2807946799948255
 50
21.928297866550249
 51
90
  0
ARC
  8
_0-0_90_FRAME
  6
CONTINUOUS
 62
    4
 10
4377.9921856318188
 20
1003.5691114745075
 40
2.0935225421386505
 50
22.272952259980951
 51
58.553113012863221
  0
LINE
  8
_0-0_90_FRAME
  6
CONTINUOUS
 62
    4
 10
4382.6884358519264
 20
997.60637424499657
 11
4382.6884358519264
 21
997.47829477699702
  0
LINE
  8
_0-0_90_FRAME
  6
CONTINUOUS
 62
    4
 10
4391.5237493504383
 20
1013.4882282769328
 11
4391.5237493504383
 21
997.47829477699702
  0
LINE
  8
_0-0_90_FRAME
  6
CONTINUOUS
 62
    4
 10
4391.5237493504383
 20
997.47829477699702
 11
4394.4055373804295
 21
997.47829477699702
  0
LINE
  8
_0-0_90_FRAME
  6
CONTINUOUS
 62
    4
 10
4394.4055373804295
 20
997.47829477699702
 11
4394.4028837503392
 21
1008.685248226952
  0
LINE
  8
_0-0_90_FRAME
  6
CONTINUOUS
 62
    4
 10
4391.5237493504383
 20
1013.4882282769328
 11
4395.705412493865
 21
1013.4882282769328
  0
LINE
  8
_0-0_90_FRAME
  6
CONTINUOUS
 62
    4
 10
4404.6545484504741
 20
1008.685248226952
 11
4404.6545484504741
 21
997.47829477699702
  0
LINE
  8
_0-0_90_FRAME
  6
CONTINUOUS
 62
    4
 10
4404.6545484504741
 20
997.47829477699702
 11
4407.5363364804607
 21
997.47829477699702
  0
LINE
  8
_0-0_90_FRAME
  6
CONTINUOUS
 62
    4
 10
4407.5363364804607
 20
997.47829477699702
 11
4407.5363364804607
 21
1013.4882282769328
  0
LINE
  8
_0-0_90_FRAME
  6
CONTINUOUS
 62
    4
 10
4398.0878220854165
 20
997.47829477699702
 11
4400.9696101154022
 21
997.47829477699702
  0
LINE
  8
_0-0_90_FRAME
  6
CONTINUOUS
 62
    4
 10
4407.5363364804607
 20
1013.4882282769328
 11
4403.3520197069483
 21
1013.4882282769328
  0
LINE
  8
_0-0_90_FRAME
  6
CONTINUOUS
 62
    4
 10
4400.9696101154022
 20
997.47829477699702
 11
4404.6545484504741
 21
1008.685248226952
  0
LINE
  8
_0-0_90_FRAME
  6
CONTINUOUS
 62
    4
 10
4398.0878220854165
 20
997.47829477699702
 11
4394.4028837503392
 21
1008.685248226952
  0
LINE
  8
_0-0_90_FRAME
  6
CONTINUOUS
 62
    4
 10
4399.5287161004071
 20
1001.8604663858555
 11
4403.3520197069483
 21
1013.4882282769328
  0
LINE
  8
_0-0_90_FRAME
  6
CONTINUOUS
 62
    4
 10
4399.5287161004071
 20
1001.8604663858555
 11
4395.705412493865
 21
1013.4882282769328
  0
TEXT
  8
_0-0_90_FRAME
 62
    2
 10
4426.4130446936742
 20
1026.2676845957405
 40
18.901928571352201
 41
1
 50
0
  1
ŖöÄ«ē’Äą
  0
LINE
  8
_0-0_90_FRAME
  6
CONTINUOUS
 62
   18
 10
4483.9552702053224
 20
1065.5621720274617
 11
4483.9552702053224
 21
1153.955029169965
  0
TEXT
  8
_0-0_90_FRAME
 62
    7
 10
4648.9322462741029
 20
997.12526122276051
 40
25
 41
1
 50
0
  1
Äøōc
  0
TEXT
  8
_0-0_90_FRAME
 62
    7
 10
4520.4143891318063
 20
1086.7783612949129
 40
25
 41
1
 50
0
  1
1üF5
  0
TEXT
  8
_0-0_90_FRAME
 62
    7
 10
4744.388879338374
 20
1136.840478375161
 40
12.5
 41
1
 50
0
  1
ŗ@ŖĒ
  0
LINE
  8
_0-0_90_FRAME
  6
CONTINUOUS
 62
   18
 10
4929.8004873615155
 20
1153.955029169965
 11
4929.8004873615155
 21
1026.6693148847637
  0
TEXT
  8
_0-0_90_FRAME
 62
    7
 10
4933.1983822099746
 20
1136.840478375161
 40
12.5
 41
1
 50
0
  1
ĢöĢi¢╝
  0
TEXT
  8
_0-0_90_FRAME
 62
    7
 10
4933.1983822099692
 20
1065.5011926611583
 40
12.5
 41
1
 50
0
  1
É}¢╩öįŹå
  0
LINE
  8
_0-0_90_FRAME
  6
CONTINUOUS
 62
   18
 10
4740.9909844899257
 20
1090.3121720273655
 11
4929.8004873615155
 21
1090.3121720273655
  0
TEXT
  8
_0-0_90_FRAME
 62
    7
 10
4744.388879338374
 20
1072.5726212325612
 40
12.5
 41
1
 50
0
  1
ī^Ä«
  0
LINE
  8
_0-0_90_FRAME
  6
CONTINUOUS
 62
   18
 10
4569.3481339101154
 20
1153.955029169965
 11
5325.4552702019264
 21
1153.955029169965
  0
LINE
  8
_0-0_90_FRAME
  6
CONTINUOUS
 62
    4
 10
4569.3481339101154
 20
1258.9550235404263
 11
4569.3481339101154
 21
1153.955029169965
  0
LINE
  8
_0-0_90_FRAME
  6
CONTINUOUS
 62
    4
 10
4929.8004873615155
 20
1258.9550235404263
 11
4929.8004873615155
 21
1153.955029169965
  0
LINE
  8
_0-0_90_FRAME
  6
CONTINUOUS
 62
    4
 10
5067.0210516839306
 20
1258.9550235404263
 11
5067.0210516839452
 21
1153.955029169965
  0
LINE
  8
_0-0_90_FRAME
  6
CONTINUOUS
 62
    4
 10
5032.0210560589285
 20
1258.9550235404263
 11
5032.021056058943
 21
1153.955029169965
  0
LINE
  8
_0-0_90_FRAME
  6
CONTINUOUS
 62
    4
 10
4621.8481273476236
 20
1258.9550235404263
 11
4621.8481273476236
 21
1153.955029169965
  0
LINE
  8
_0-0_90_FRAME
  6
CONTINUOUS
 62
    4
 10
5119.5210451214361
 20
1258.9550235404263
 11
5119.5210451214361
 21
1153.955029169965
  0
INSERT
  2
-003-Jis_w20130906110600
  8
_0-2_08_DIM
 10
5060.9640980941131
 20
1421.3562712271917
 41
3
 42
3
 50
0
  0
TEXT
  8
_0-0_90_FRAME
 62
    3
 10
5046.3421414930781
 20
1197.3184011980854
 40
14.999999999999998
 41
1
 50
0
  1
1
  0
TEXT
  8
_0-0_90_FRAME
 62
    3
 10
4937.8573586509256
 20
1197.6517327118954
 40
14.999999999999998
 41
1
 50
0
  1
SUS304
  0
TEXT
  8
_0-0_90_FRAME
 62
    3
 10
4646.232544875098
 20
1197.4527708146713
 40
14.999999999999998
 41
1
 50
0
  1
ÉģÉžéĶāŹü[āēü[ātāīü[āĆ
  0
TEXT
  8
_0-0_90_FRAME
 62
    3
 10
4589.3102551325228
 20
1197.0669048996212
 40
14.999999999999998
 41
1
 50
0
  1
4
  0
TEXT
  8
_0-0_90_FRAME
 62
    3
 10
5078.4545034065368
 20
1171.9193574140024
 40
12.5
 41
1
 50
0
  1
ÅdŚ╩
  0
TEXT
  8
_0-0_90_FRAME
 62
    3
 10
4953.142671993598
 20
1163.8516178671357
 40
14.999999999999998
 41
1
 50
0
  1
Ź▐ü@Ä┐
  0
TEXT
  8
_0-0_90_FRAME
 62
    3
 10
5033.8592666221612
 20
1163.7388832274096
 40
14.999999999999998
 41
1
 50
0
  1
ÉöŚ╩
  0
TEXT
  8
_0-0_90_FRAME
 62
    3
 10
5083.9793272336829
 20
1159.6884846775663
 40
9.9999999999999982
 41
1
 50
0
  1
kg
  0
TEXT
  8
_0-0_90_FRAME
 62
    3
 10
5186.4232170344021
 20
1163.4873869289163
 40
14.999999999999998
 41
1
 50
0
  1
ö§  Źl
  0
TEXT
  8
_0-0_90_FRAME
 62
    3
 10
4580.0381068828347
 20
1163.4873869289163
 40
14.999999999999998
 41
1
 50
0
  1
ĢäŹå
  0
TEXT
  8
_0-0_90_FRAME
 62
    3
 10
4707.1991773815307
 20
1164.0318313053081
 40
14.999999999999998
 41
1
 50
0
  1
Ģöü@ü@Ģiü@ü@¢╝
  0
LINE
  8
_0-0_90_FRAME
  6
CONTINUOUS
 62
    4
 10
4569.3481050273231
 20
1258.9550235404263
 11
5325.455241319135
 21
1258.9550235404263
  0
LINE
  8
_0-0_90_FRAME
  6
CONTINUOUS
 62
    4
 10
4569.3481050273231
 20
1223.955025409344
 11
5325.455241319135
 21
1223.955025409344
  0
LINE
  8
_0-0_90_FRAME
  6
CONTINUOUS
 62
    4
 10
4569.3481050273231
 20
1188.955025409344
 11
5325.455241319135
 21
1188.955025409344
  0
TEXT
  8
_0-0_90_FRAME
 62
    7
 10
5071.0844491138087
 20
1107.9009618311115
 40
19.999999999999996
 41
1
 50
0
  1
ÆEÉģŗ@ ĢöĢiÉ}
  0
TEXT
  8
_0-0_90_FRAME
 62
    7
 10
4753.1949435640563
 20
1107.1833239337896
 40
15.999999999999998
 41
0.9
 50
0
  1
ŚLŗ@É½ēśōDöRŚ┐Ä{É▌
  0
LINE
  8
_0-3_05_CENTER
  6
CENTER2
 62
    4
 10
4258.0540636172018
 20
2292.237707916544
 11
2306.0540636224209
 21
2292.237707916544
  0
LINE
  8
_0-3_05_CENTER
  6
CENTER2
 62
    4
 10
2306.0540636224209
 20
2292.237707916544
 11
2306.0540636232827
 21
2419.2377079185262
  0
LINE
  8
_0-3_05_CENTER
  6
CENTER2
 62
    4
 10
2306.0540636232827
 20
2419.2377079185262
 11
4258.0540636155483
 21
2419.2377079165653
  0
LINE
  8
_0-3_05_CENTER
  6
CENTER2
 62
    4
 10
4258.0540636155483
 20
2419.2377079165653
 11
4258.0540636172018
 21
2292.237707916544
  0
LINE
  8
_0-2_08_DIM
  6
CONTINUOUS
 62
    3
 10
1880.0066984573571
 20
3421.2520564667921
 11
2014.0173287250263
 21
3421.2520564667921
  0
INSERT
  2
-004-p1ba05
  8
_0-2_08_DIM
 10
1955.3789955318102
 20
3428.0900023426939
 41
7.5
 42
7.5
 50
0
  0
LINE
  8
_0-4_0
  6
CONTINUOUS
 62
   18
 10
2337.0540636142914
 20
2960.7377079220278
 11
4227.0540636069509
 21
2960.7377079171183
  0
LINE
  8
_0-4_0
  6
CONTINUOUS
 62
   18
 10
4227.0540636069509
 20
2960.7377079171183
 11
4227.0540636155447
 21
2885.7377079161579
  0
LINE
  8
_0-4_0
  6
CONTINUOUS
 62
   18
 10
4227.0540636155447
 20
2885.7377079161579
 11
2337.0540636142914
 21
2885.7377079180787
  0
LINE
  8
_0-4_0
  6
CONTINUOUS
 62
   18
 10
2337.0540636142914
 20
2885.7377079180787
 11
2337.0540636142914
 21
2960.7377079220278
  0
LINE
  8
_0-4_0
  6
CONTINUOUS
 62
   18
 10
2337.0540636057203
 20
2954.7377078945519
 11
4227.0540635987472
 21
2954.7377079171188
  0
LINE
  8
_0-4_0
  6
CONTINUOUS
 62
   18
 10
2337.054063615662
 20
2785.737707914132
 11
4227.0540636066871
 21
2785.7377079122089
  0
LINE
  8
_0-4_0
  6
CONTINUOUS
 62
   18
 10
4227.0540636066871
 20
2785.7377079122089
 11
4227.0540636066871
 21
2860.7377079122093
  0
LINE
  8
_0-4_0
  6
CONTINUOUS
 62
   18
 10
4227.0540636066871
 20
2860.7377079122093
 11
2337.054063615662
 21
2860.7377079122093
  0
LINE
  8
_0-4_0
  6
CONTINUOUS
 62
   18
 10
2337.054063615662
 20
2860.7377079122093
 11
2337.054063615662
 21
2785.737707914132
  0
LINE
  8
_0-4_0
  6
CONTINUOUS
 62
   18
 10
2337.0540636159185
 20
2791.7377079131711
 11
4227.0540636066871
 21
2791.7377079112484
  0
LINE
  8
_0-4_0
  6
CONTINUOUS
 62
   18
 10
4277.0540636165133
 20
2035.7377079072887
 11
4277.0540636164596
 21
2015.7377079141825
  0
LINE
  8
_0-4_0
  6
CONTINUOUS
 62
   18
 10
4277.0540636164596
 20
2015.7377079141825
 11
4272.0540636164087
 21
2010.7377079141318
  0
LINE
  8
_0-4_0
  6
CONTINUOUS
 62
   18
 10
4272.0540636164087
 20
2010.7377079141318
 11
4227.0540636069509
 21
2010.7377079141318
  0
LINE
  8
_0-4_0
  6
CONTINUOUS
 62
   18
 10
4227.0540636069509
 20
2010.7377079141318
 11
4227.0540636164087
 21
2965.7377079141315
  0
LINE
  8
_0-4_0
  6
CONTINUOUS
 62
   18
 10
4227.0540636164087
 20
2965.7377079141315
 11
4272.0540636258665
 21
2965.7377079141315
  0
LINE
  8
_0-4_0
  6
CONTINUOUS
 62
   18
 10
4272.0540636258665
 20
2965.7377079141315
 11
4277.0540636257983
 21
2960.7377079141988
  0
LINE
  8
_0-4_0
  6
CONTINUOUS
 62
   18
 10
4277.0540636257983
 20
2960.7377079141988
 11
4277.0540636170035
 21
2075.737707906434
  0
LINE
  8
_0-4_0
  6
CONTINUOUS
 62
   18
 10
4236.0540636069509
 20
2965.7377079171183
 11
4236.0540636069509
 21
2010.7377079141318
  0
CIRCLE
  8
_0-4_0
  6
CONTINUOUS
 62
   18
 10
4258.0540636164023
 20
2746.2377079174676
 40
7.4999999999999991
  0
LINE
  8
_0-3_05_CENTER
  6
CENTER2
 62
    4
 10
4269.9499983869227
 20
2746.2377079194284
 11
4246.1581288458819
 21
2746.2377079194284
  0
LINE
  8
_0-3_05_CENTER
  6
CENTER2
 62
    4
 10
4258.0540636164096
 20
2734.3417731469472
 11
4258.0540636164096
 21
2758.133642687988
  0
LINE
  8
_0-4_0
  6
CONTINUOUS
 62
   18
 10
2287.0540636223118
 20
2035.7377079069445
 11
2287.054063622365
 21
2015.7377079141318
  0
LINE
  8
_0-4_0
  6
CONTINUOUS
 62
   18
 10
2287.054063622365
 20
2015.7377079141318
 11
2292.054063622465
 21
2010.7377079141318
  0
LINE
  8
_0-4_0
  6
CONTINUOUS
 62
   18
 10
2292.054063622465
 20
2010.7377079141318
 11
2337.0540636233172
 21
2010.7377079141318
  0
LINE
  8
_0-4_0
  6
CONTINUOUS
 62
   18
 10
2337.0540636233172
 20
2010.7377079141318
 11
2337.0540636138603
 21
2965.7377079171183
  0
LINE
  8
_0-4_0
  6
CONTINUOUS
 62
   18
 10
2337.0540636138603
 20
2965.7377079171183
 11
2292.0540636129581
 21
2965.7377079171183
  0
LINE
  8
_0-4_0
  6
CONTINUOUS
 62
   18
 10
2292.0540636129581
 20
2965.7377079171183
 11
2287.0540636130254
 21
2960.7377079171874
  0
LINE
  8
_0-4_0
  6
CONTINUOUS
 62
   18
 10
2287.0540636130254
 20
2960.7377079171874
 11
2287.054063621868
 21
2075.7377079060902
  0
LINE
  8
_0-4_0
  6
CONTINUOUS
 62
   18
 10
2328.0540636233172
 20
2965.7377079201069
 11
2328.0540636233172
 21
2010.7377079141318
  0
LINE
  8
_0-4_0
  6
CONTINUOUS
 62
   18
 10
2337.0540636229789
 20
2140.737707914132
 11
4227.0540636140049
 21
2140.7377079122089
  0
LINE
  8
_0-4_0
  6
CONTINUOUS
 62
   18
 10
4227.0540636140049
 20
2140.7377079122089
 11
4227.0540636140049
 21
2215.737707914132
  0
LINE
  8
_0-4_0
  6
CONTINUOUS
 62
   18
 10
4227.0540636140049
 20
2215.737707914132
 11
2337.0540636229789
 21
2215.737707914132
  0
LINE
  8
_0-4_0
  6
CONTINUOUS
 62
   18
 10
2337.0540636229789
 20
2215.737707914132
 11
2337.0540636229789
 21
2140.737707914132
  0
LINE
  8
_0-4_0
  6
CONTINUOUS
 62
   18
 10
2337.0540636232363
 20
2146.737707914132
 11
4227.0540636140049
 21
2146.7377079122089
  0
CIRCLE
  8
_0-4_0
  6
CONTINUOUS
 62
   18
 10
4258.0540636155401
 20
2419.2377079165653
 40
7.9999999999999991
  0
LINE
  8
_0-3_05_CENTER
  6
CENTER2
 62
    4
 10
4273.1146529737407
 20
2419.2377079185262
 11
4242.9934742573414
 21
2419.2377079185262
  0
LINE
  8
_0-3_05_CENTER
  6
CENTER2
 62
    4
 10
4258.0540636155492
 20
2404.1771185583661
 11
4258.0540636155474
 21
2434.298297274765
  0
CIRCLE
  8
_0-4_0
  6
CONTINUOUS
 62
   18
 10
4258.0540636163951
 20
2292.237707916544
 40
7.9999999999999991
  0
LINE
  8
_0-3_05_CENTER
  6
CENTER2
 62
    4
 10
4273.1146529745956
 20
2292.2377079185048
 11
4242.9934742581963
 21
2292.2377079185048
  0
LINE
  8
_0-3_05_CENTER
  6
CENTER2
 62
    4
 10
4258.0540636164023
 20
2277.1771185583439
 11
4258.0540636164023
 21
2307.2982972747432
  0
CIRCLE
  8
_0-4_0
  6
CONTINUOUS
 62
   18
 10
4258.0540636164023
 20
2875.237707923965
 40
7.4999999999999991
  0
LINE
  8
_0-3_05_CENTER
  6
CENTER2
 62
    4
 10
4269.9499983869227
 20
2875.2377079259259
 11
4246.1581288458819
 21
2875.2377079259259
  0
LINE
  8
_0-3_05_CENTER
  6
CENTER2
 62
    4
 10
4258.0540636164096
 20
2863.341773153445
 11
4258.0540636164096
 21
2887.1336426944854
  0
LINE
  8
_0-5_04_HIDDEN
  6
CONTINUOUS
 62
    7
 10
2287.0540636285837
 20
2075.737707906434
 11
2287.0540636290261
 21
2035.7377079072887
  0
LINE
  8
_0-3_05_CENTER
  6
CENTER2
 62
    4
 10
2189.2717926666883
 20
2055.7377079071866
 11
4374.8363345824764
 21
2055.7377079071866
  0
INSERT
  2
-005-A$C67F20274_1_1_1
  8
_0-4_0
 10
2337.0540636232099
 20
2075.7377079127891
 41
1
 42
1
 50
180
  0
INSERT
  2
-005-A$C67F20274_1_1_1
  8
_0-4_0
 10
2337.0540636231922
 20
2035.7377079046364
 41
-1
 42
1
 50
0
  0
INSERT
  2
-005-A$C67F20274_1_1_1
  8
_0-4_0
 10
4227.0540636070946
 20
2075.7377079109101
 41
-1
 42
1
 50
180
  0
INSERT
  2
-005-A$C67F20274_1_1_1
  8
_0-4_0
 10
4227.0540636070764
 20
2035.7377079027574
 41
1
 42
1
 50
0
  0
LINE
  8
_0-4_0
  6
CONTINUOUS
 62
   18
 10
2328.0540636233172
 20
2075.7377079060866
 11
2328.0540636233172
 21
2035.7377079069411
  0
LINE
  8
_0-4_0
  6
CONTINUOUS
 62
   18
 10
2328.0540636233172
 20
2035.7377079069411
 11
2198.0540636232981
 21
2035.7377079080416
  0
LINE
  8
_0-4_0
  6
CONTINUOUS
 62
   18
 10
2198.0540636232981
 20
2035.7377079080416
 11
2197.0540636232981
 21
2036.737707908042
  0
LINE
  8
_0-4_0
  6
CONTINUOUS
 62
   18
 10
2197.0540636232981
 20
2036.737707908042
 11
2197.0540636232981
 21
2074.7377079071866
  0
LINE
  8
_0-4_0
  6
CONTINUOUS
 62
   18
 10
2197.0540636232981
 20
2074.7377079071866
 11
2198.0540636232981
 21
2075.7377079071871
  0
LINE
  8
_0-4_0
  6
CONTINUOUS
 62
   18
 10
2198.0540636232981
 20
2075.7377079071871
 11
2328.0540636233172
 21
2075.7377079060866
  0
LINE
  8
_0-4_0
  6
CONTINUOUS
 62
   18
 10
2198.0540636232981
 20
2075.7377079071871
 11
2198.0540636232981
 21
2035.7377079080416
  0
LINE
  8
_0-4_0
  6
CONTINUOUS
 62
   18
 10
4236.0540636069509
 20
2075.7377079060866
 11
4236.0540636069509
 21
2035.7377079069411
  0
LINE
  8
_0-4_0
  6
CONTINUOUS
 62
   18
 10
4236.0540636069509
 20
2035.7377079069411
 11
4366.0540636164087
 21
2035.7377079080416
  0
LINE
  8
_0-4_0
  6
CONTINUOUS
 62
   18
 10
4366.0540636164087
 20
2035.7377079080416
 11
4367.0540636164087
 21
2036.737707908042
  0
LINE
  8
_0-4_0
  6
CONTINUOUS
 62
   18
 10
4367.0540636164087
 20
2036.737707908042
 11
4367.0540636164087
 21
2074.7377079071866
  0
LINE
  8
_0-4_0
  6
CONTINUOUS
 62
   18
 10
4367.0540636164087
 20
2074.7377079071866
 11
4366.0540636164087
 21
2075.7377079071871
  0
LINE
  8
_0-4_0
  6
CONTINUOUS
 62
   18
 10
4366.0540636164087
 20
2075.7377079071871
 11
4236.0540636069509
 21
2075.7377079060866
  0
LINE
  8
_0-4_0
  6
CONTINUOUS
 62
   18
 10
4366.0540636164087
 20
2035.7377079080416
 11
4366.0540636164087
 21
2075.7377079071871
  0
LINE
  8
_0-5_04_HIDDEN
  6
CONTINUOUS
 62
    7
 10
2328.0540636233172
 20
2035.7377079069411
 11
2337.0540636231922
 21
2035.7377079070013
  0
LINE
  8
_0-5_04_HIDDEN
  6
CONTINUOUS
 62
    7
 10
2328.0540636233359
 20
2075.7377079060866
 11
2337.0540636232099
 21
2075.7377079060261
  0
LINE
  8
_0-5_04_HIDDEN
  6
CONTINUOUS
 62
    7
 10
4236.0540636069509
 20
2035.7377079069411
 11
4227.0540636070764
 21
2035.7377079070013
  0
LINE
  8
_0-5_04_HIDDEN
  6
CONTINUOUS
 62
    7
 10
4236.0540636069682
 20
2075.7377079060866
 11
4227.0540636070946
 21
2075.7377079060261
  0
CIRCLE
  8
_0-4_0
  6
CONTINUOUS
 62
   18
 10
2306.0540636233227
 20
2746.2377079174676
 40
7.4999999999999991
  0
LINE
  8
_0-3_05_CENTER
  6
CENTER2
 62
    4
 10
2294.1581288528023
 20
2746.2377079194284
 11
2317.9499983938431
 21
2746.2377079194284
  0
LINE
  8
_0-3_05_CENTER
  6
CENTER2
 62
    4
 10
2306.0540636233154
 20
2734.3417731469472
 11
2306.0540636233154
 21
2758.133642687988
  0
CIRCLE
  8
_0-4_0
  6
CONTINUOUS
 62
   18
 10
2306.0540636233227
 20
2875.237707923965
 40
7.4999999999999991
  0
LINE
  8
_0-3_05_CENTER
  6
CENTER2
 62
    4
 10
2294.1581288528023
 20
2875.2377079259259
 11
2317.9499983938431
 21
2875.2377079259259
  0
LINE
  8
_0-3_05_CENTER
  6
CENTER2
 62
    4
 10
2306.0540636233154
 20
2863.341773153445
 11
2306.0540636233154
 21
2887.1336426944854
  0
LINE
  8
_0-5_04_HIDDEN
  6
CONTINUOUS
 62
    7
 10
4277.0540636170035
 20
2075.737707906434
 11
4277.0540636165133
 21
2035.7377079072887
  0
TEXT
  8
_0-6_07_TEXT
 62
    3
 10
3394.4741311695366
 20
2914.6185896258921
 40
14.999999999999998
 41
1
 50
0
  1
L-6x75x75
  0
TEXT
  8
_0-6_07_TEXT
 62
    3
 10
3394.4741311695366
 20
2818.5599894772404
 40
14.999999999999998
 41
1
 50
0
  1
L-6x75x75
  0
TEXT
  8
_0-6_07_TEXT
 62
    3
 10
3394.4741311695366
 20
2177.535740663991
 40
14.999999999999998
 41
1
 50
0
  1
L-6x75x75
  0
LINE
  8
_0-3_05_CENTER
  6
CENTER2
 62
    4
 10
3282.0540636198111
 20
2981.425435784206
 11
3282.054063619863
 21
2014.909834916398
  0
LINE
  8
_0-4_0
  6
CONTINUOUS
 62
   18
 10
4227.0540636070764
 20
2035.7377079070013
 11
2337.0540636231922
 21
2035.7377079046364
  0
LINE
  8
_0-4_0
  6
CONTINUOUS
 62
   18
 10
4227.0540636066762
 20
2075.7377079083913
 11
2337.0540636227915
 21
2075.7377079060261
  0
CIRCLE
  8
_0-4_0
  6
CONTINUOUS
 62
   18
 10
2306.0540636232827
 20
2419.2377079165653
 40
7.9999999999999991
  0
LINE
  8
_0-3_05_CENTER
  6
CENTER2
 62
    4
 10
2290.993474265083
 20
2419.2377079185262
 11
2321.1146529814823
 21
2419.2377079185262
  0
LINE
  8
_0-3_05_CENTER
  6
CENTER2
 62
    4
 10
2306.0540636232749
 20
2404.1771185583661
 11
2306.0540636232759
 21
2434.298297274765
  0
CIRCLE
  8
_0-4_0
  6
CONTINUOUS
 62
   18
 10
2306.0540636224282
 20
2292.237707916544
 40
7.9999999999999991
  0
LINE
  8
_0-3_05_CENTER
  6
CENTER2
 62
    4
 10
2290.9934742642281
 20
2292.2377079185048
 11
2321.1146529806274
 21
2292.2377079185048
  0
LINE
  8
_0-3_05_CENTER
  6
CENTER2
 62
    4
 10
2306.0540636224209
 20
2277.1771185583439
 11
2306.0540636224209
 21
2307.2982972747432
  0
LINE
  8
_0-4_0
  6
CONTINUOUS
 62
   18
 10
2328.0540636233172
 20
2455.7377079223793
 11
2293.0540636233172
 21
2455.7377079223793
  0
LINE
  8
_0-4_0
  6
CONTINUOUS
 62
   18
 10
2293.0540636233172
 20
2455.7377079223793
 11
2293.0540636233172
 21
2464.7377079223788
  0
LINE
  8
_0-4_0
  6
CONTINUOUS
 62
   18
 10
2293.0540636233172
 20
2464.7377079223788
 11
2328.0540636233172
 21
2464.7377079223788
  0
LINE
  8
_0-4_0
  6
CONTINUOUS
 62
   18
 10
2328.0540636233172
 20
2464.7377079223788
 11
2328.0540636233172
 21
2455.7377079223793
  0
LINE
  8
_0-4_0
  6
CONTINUOUS
 62
   18
 10
2328.0540636233172
 20
2255.7377079146518
 11
2293.0540636233172
 21
2255.7377079146518
  0
LINE
  8
_0-4_0
  6
CONTINUOUS
 62
   18
 10
2293.0540636233172
 20
2255.7377079146518
 11
2293.0540636233172
 21
2246.7377079146518
  0
LINE
  8
_0-4_0
  6
CONTINUOUS
 62
   18
 10
2293.0540636233172
 20
2246.7377079146518
 11
2328.0540636233172
 21
2246.7377079146518
  0
LINE
  8
_0-4_0
  6
CONTINUOUS
 62
   18
 10
2328.0540636233172
 20
2246.7377079146518
 11
2328.0540636233172
 21
2255.7377079146518
  0
LINE
  8
_0-4_0
  6
CONTINUOUS
 62
   18
 10
4236.0540636136675
 20
2455.7377079223793
 11
4271.0540636136675
 21
2455.7377079223793
  0
LINE
  8
_0-4_0
  6
CONTINUOUS
 62
   18
 10
4271.0540636136675
 20
2455.7377079223793
 11
4271.0540636136675
 21
2464.7377079223788
  0
LINE
  8
_0-4_0
  6
CONTINUOUS
 62
   18
 10
4271.0540636136675
 20
2464.7377079223788
 11
4236.0540636136675
 21
2464.7377079223788
  0
LINE
  8
_0-4_0
  6
CONTINUOUS
 62
   18
 10
4236.0540636136675
 20
2464.7377079223788
 11
4236.0540636136675
 21
2455.7377079223793
  0
LINE
  8
_0-4_0
  6
CONTINUOUS
 62
   18
 10
4236.0540636136675
 20
2255.7377079146518
 11
4271.0540636136675
 21
2255.7377079146518
  0
LINE
  8
_0-4_0
  6
CONTINUOUS
 62
   18
 10
4271.0540636136675
 20
2255.7377079146518
 11
4271.0540636136675
 21
2246.7377079146518
  0
LINE
  8
_0-4_0
  6
CONTINUOUS
 62
   18
 10
4271.0540636136675
 20
2246.7377079146518
 11
4236.0540636136675
 21
2246.7377079146518
  0
LINE
  8
_0-4_0
  6
CONTINUOUS
 62
   18
 10
4236.0540636136675
 20
2246.7377079146518
 11
4236.0540636136675
 21
2255.7377079146518
  0
LINE
  8
_0-3_05_CENTER
  6
CENTER2
 62
    4
 10
2189.2717926666883
 20
1660.5913553370503
 11
4374.8363345824764
 21
1660.5913553370503
  0
LINE
  8
_0-4_0
  6
CONTINUOUS
 62
   18
 10
2337.0540636224155
 20
1700.5913553385456
 11
4227.0540636164087
 21
1700.5913553385456
  0
LINE
  8
_0-4_0
  6
CONTINUOUS
 62
   18
 10
4227.0540636164087
 20
1700.5913553385456
 11
4227.0540636164087
 21
1625.5913553385456
  0
LINE
  8
_0-4_0
  6
CONTINUOUS
 62
   18
 10
4227.0540636164087
 20
1625.5913553385456
 11
2337.0540636224155
 21
1625.5913553385456
  0
LINE
  8
_0-4_0
  6
CONTINUOUS
 62
   18
 10
2337.0540636224155
 20
1625.5913553385456
 11
2337.0540636224155
 21
1700.5913553385456
  0
LINE
  8
_0-5_04_HIDDEN
  6
CONTINUOUS
 62
    7
 10
2337.0540636224155
 20
1631.5913553385456
 11
4227.0540636164087
 21
1631.5913553385456
  0
LINE
  8
_0-3_05_CENTER
  6
CENTER2
 62
    4
 10
3282.0540636194155
 20
1716.7451923062929
 11
3282.0540636194091
 21
1607.3282889326165
  0
INSERT
  2
-005-A$C67F20274_1_1_1
  8
_0-4_0
 10
2337.0540636223072
 20
1680.5913553426528
 41
1
 42
1
 50
180
  0
INSERT
  2
-005-A$C67F20274_1_1_1
  8
_0-4_0
 10
2337.0540636222895
 20
1640.5913553345001
 41
-1
 42
1
 50
0
  0
INSERT
  2
-005-A$C67F20274_1_1_1
  8
_0-4_0
 10
4227.0540636165515
 20
1680.5913553407738
 41
-1
 42
1
 50
180
  0
INSERT
  2
-005-A$C67F20274_1_1_1
  8
_0-4_0
 10
4227.0540636165342
 20
1640.5913553326211
 41
1
 42
1
 50
0
  0
LINE
  8
_0-4_0
  6
CONTINUOUS
 62
   18
 10
2328.054063622415
 20
1680.5913553359501
 11
2328.054063622415
 21
1640.5913553368048
  0
LINE
  8
_0-4_0
  6
CONTINUOUS
 62
   18
 10
2328.054063622415
 20
1640.5913553368048
 11
2198.0540636232981
 21
1640.5913553379053
  0
LINE
  8
_0-4_0
  6
CONTINUOUS
 62
   18
 10
2198.0540636232981
 20
1640.5913553379053
 11
2197.0540636232981
 21
1641.5913553379053
  0
LINE
  8
_0-4_0
  6
CONTINUOUS
 62
   18
 10
2197.0540636232981
 20
1641.5913553379053
 11
2197.0540636232981
 21
1679.5913553370503
  0
LINE
  8
_0-4_0
  6
CONTINUOUS
 62
   18
 10
2197.0540636232981
 20
1679.5913553370503
 11
2198.0540636232981
 21
1680.5913553370503
  0
LINE
  8
_0-4_0
  6
CONTINUOUS
 62
   18
 10
2198.0540636232981
 20
1680.5913553370503
 11
2328.054063622415
 21
1680.5913553359501
  0
LINE
  8
_0-5_04_HIDDEN
  6
CONTINUOUS
 62
    7
 10
2328.054063622415
 20
1640.5913553368048
 11
2337.0540636222895
 21
1640.5913553368648
  0
LINE
  8
_0-5_04_HIDDEN
  6
CONTINUOUS
 62
    7
 10
2328.0540636224332
 20
1680.5913553359501
 11
2337.0540636223072
 21
1680.5913553358898
  0
LINE
  8
_0-5_04_HIDDEN
  6
CONTINUOUS
 62
    7
 10
4236.0540636164087
 20
1640.5913553368048
 11
4227.0540636165342
 21
1640.5913553368648
  0
LINE
  8
_0-5_04_HIDDEN
  6
CONTINUOUS
 62
    7
 10
4236.0540636164269
 20
1680.5913553359501
 11
4227.0540636165515
 21
1680.5913553358898
  0
LINE
  8
_0-4_0
  6
CONTINUOUS
 62
   18
 10
4227.0540636165342
 20
1640.5913553368648
 11
2337.0540636222895
 21
1640.5913553345001
  0
LINE
  8
_0-4_0
  6
CONTINUOUS
 62
   18
 10
4227.0540636161331
 20
1680.5913553382545
 11
2337.0540636218893
 21
1680.5913553358898
  0
LINE
  8
_0-4_0
  6
CONTINUOUS
 62
   18
 10
2198.0540636232981
 20
1680.5913553366229
 11
2198.0540636232981
 21
1640.5913553374776
  0
LINE
  8
_0-4_0
  6
CONTINUOUS
 62
   18
 10
4366.0540636164087
 20
1640.5913553374776
 11
4366.0540636164087
 21
1680.5913553366229
  0
INSERT
  2
-005-A$C67F20274_1_1_1
  8
_0-4_0
 10
2337.054063621471
 20
1680.5913553407738
 41
1
 42
1
 50
180
  0
INSERT
  2
-005-A$C67F20274_1_1_1
  8
_0-4_0
 10
2337.0540636214896
 20
1640.5913553326211
 41
-1
 42
1
 50
0
  0
LINE
  8
_0-4_0
  6
CONTINUOUS
 62
   18
 10
4236.0540636156084
 20
1680.5913553359501
 11
4236.0540636156084
 21
1640.5913553368048
  0
LINE
  8
_0-4_0
  6
CONTINUOUS
 62
   18
 10
4236.0540636156084
 20
1640.5913553368048
 11
4366.0540636147243
 21
1640.5913553379053
  0
LINE
  8
_0-4_0
  6
CONTINUOUS
 62
   18
 10
4366.0540636147243
 20
1640.5913553379053
 11
4367.0540636147243
 21
1641.5913553379053
  0
LINE
  8
_0-4_0
  6
CONTINUOUS
 62
   18
 10
4367.0540636147243
 20
1641.5913553379053
 11
4367.0540636147243
 21
1679.5913553370503
  0
LINE
  8
_0-4_0
  6
CONTINUOUS
 62
   18
 10
4367.0540636147243
 20
1679.5913553370503
 11
4366.0540636147243
 21
1680.5913553370503
  0
LINE
  8
_0-4_0
  6
CONTINUOUS
 62
   18
 10
4366.0540636147243
 20
1680.5913553370503
 11
4236.0540636156084
 21
1680.5913553359501
  0
ARC
  8
_0-4_0
  6
CONTINUOUS
 62
    3
 10
2337.0540636224168
 20
1636.5913553385453
 40
9.9999999999999982
 50
251.79004313571846
 51
270
  0
ARC
  8
_0-4_0
  6
CONTINUOUS
 62
    3
 10
4227.0540636172091
 20
1636.5913553385492
 40
9.9999999999999982
 50
270
 51
288.20995686038822
  0
INSERT
  2
-006-A$C4FEB355B_1
  8
_0-4_0
 10
4258.0540636164096
 20
1620.5913553385456
 41
1
 42
1
 50
0
  0
INSERT
  2
-006-A$C4FEB355B_1
  8
_0-4_0
 10
2306.0540636224132
 20
1620.5913553385456
 41
-1
 42
1
 50
0
  0
LINE
  8
_0-3_05_CENTER
  6
CENTER2
 62
    4
 10
4740.269535285378
 20
2419.2377079226117
 11
4762.6630310166101
 21
2419.2377079226117
  0
CIRCLE
  8
_0-4_0
  6
CONTINUOUS
 62
   18
 10
4715.9493943254074
 20
2055.7377079094567
 40
19.999999999999989
  0
LINE
  8
_0-3_05_CENTER
  6
CENTER2
 62
    4
 10
4688.2481932799019
 20
2055.7377079055627
 11
4743.6505953709129
 21
2055.7377079133498
  0
LINE
  8
_0-3_05_CENTER
  6
CENTER2
 62
    4
 10
4715.9493943254074
 20
2028.0365068639514
 11
4715.9493943254056
 21
2083.4389089549609
  0
LINE
  8
_0-4_0
  6
CONTINUOUS
 62
   18
 10
4755.949394325402
 20
2453.2399640416538
 11
4755.9493943254029
 21
2010.7377079141318
  0
LINE
  8
_0-4_0
  6
CONTINUOUS
 62
   18
 10
4755.9493943254029
 20
2010.7377079141318
 11
4695.9493943254029
 21
2010.7377079141318
  0
LINE
  8
_0-4_0
  6
CONTINUOUS
 62
   18
 10
4695.9493943254029
 20
2010.7377079141318
 11
4665.949394325402
 21
2040.7377079141313
  0
LINE
  8
_0-4_0
  6
CONTINUOUS
 62
   18
 10
4665.949394325402
 20
2040.7377079141313
 11
4665.949394325402
 21
2409.4830455921183
  0
LINE
  8
_0-4_0
  6
CONTINUOUS
 62
   18
 10
4746.949394325402
 20
2960.7377079141334
 11
4746.9493943254029
 21
2560.056841849193
  0
LINE
  8
_0-7_10_DRAFT
  6
CONTINUOUS
 62
    8
 10
4755.9493943254029
 20
2870.7377079141334
 11
4749.9493943254029
 21
2870.7377079141315
  0
INSERT
  2
-007-A$C3B8279DF_1_1
  8
_0-5_04_HIDDEN
 10
4750.9493943254029
 20
2785.7377079141356
 41
-1
 42
1
 50
270
  0
INSERT
  2
-007-A$C3B8279DF_1_1
  8
_0-5_04_HIDDEN
 10
4750.9493943254029
 20
2955.737707914132
 41
1
 42
1
 50
270.00000000000006
  0
INSERT
  2
-007-A$C3B8279DF_1_1
  8
_0-5_04_HIDDEN
 10
4750.9493943245152
 20
2140.7377079092239
 41
-1
 42
1
 50
270
  0
LINE
  8
_0-7_10_DRAFT
  6
CONTINUOUS
 62
    8
 10
4749.9493943254029
 20
2856.7377079141334
 11
4749.9493943254029
 21
2884.737707914132
  0
LINE
  8
_0-3_05_CENTER
  6
CENTER2
 62
    4
 10
4741.6624788086574
 20
2875.2377079226881
 11
4764.0559745398896
 21
2875.2377079226881
  0
LINE
  8
_0-3_05_CENTER
  6
CENTER2
 62
    4
 10
4741.6624788086574
 20
2746.2377079226881
 11
4764.0559745398905
 21
2746.2377079226899
  0
LINE
  8
_0-4_0
  6
CONTINUOUS
 62
   18
 10
4746.949394325402
 20
2448.8642721966989
 11
4746.949394325402
 21
2010.7377079141336
  0
LINE
  8
_0-4_0
  6
CONTINUOUS
 62
   18
 10
4665.9493943254001
 20
2520.6756152446123
 11
4665.9493943253983
 21
2955.737707914132
  0
LINE
  8
_0-4_0
  6
CONTINUOUS
 62
   18
 10
4665.9493943253983
 20
2955.737707914132
 11
4670.9493943253992
 21
2960.7377079141334
  0
LINE
  8
_0-4_0
  6
CONTINUOUS
 62
   18
 10
4670.9493943253992
 20
2960.7377079141334
 11
4755.9493943254029
 21
2960.737707914132
  0
LINE
  8
_0-4_0
  6
CONTINUOUS
 62
   18
 10
4755.9493943254029
 20
2960.737707914132
 11
4755.9493943254038
 21
2564.4325336941456
  0
LINE
  8
_0-4_0
  6
CONTINUOUS
 62
   18
 10
4755.9493943254038
 20
2564.4325336941456
 11
4755.949394325402
 21
2453.2399640416538
  0
LINE
  8
_0-4_0
  6
CONTINUOUS
 62
   18
 10
4746.9493943254029
 20
2560.056841849193
 11
4746.949394325402
 21
2448.8642721966989
  0
LINE
  8
_0-4_0
  6
CONTINUOUS
 62
   18
 10
4665.9493943254001
 20
2520.6756152446123
 11
4665.9493943254001
 21
2409.4830455921183
  0
LINE
  8
_0-3_05_CENTER
  6
CENTER2
 62
    4
 10
4740.269535285378
 20
2292.2377079225903
 11
4762.6630310166101
 21
2292.2377079225903
  0
LINE
  8
_0-4_0
  6
CONTINUOUS
 62
   18
 10
4746.949394325402
 20
2464.7377079223788
 11
4671.9493943254029
 21
2464.7377079223788
  0
LINE
  8
_0-4_0
  6
CONTINUOUS
 62
   18
 10
4671.9493943254029
 20
2464.7377079223788
 11
4671.9493943254029
 21
2455.7377079223793
  0
LINE
  8
_0-4_0
  6
CONTINUOUS
 62
   18
 10
4671.9493943254029
 20
2455.7377079223793
 11
4746.949394325402
 21
2455.7377079223793
  0
LINE
  8
_0-4_0
  6
CONTINUOUS
 62
   18
 10
4746.949394325402
 20
2455.7377079223793
 11
4746.949394325402
 21
2464.7377079223788
  0
LINE
  8
_0-4_0
  6
CONTINUOUS
 62
   18
 10
4746.949394325402
 20
2246.7377079223788
 11
4671.9493943254029
 21
2246.7377079223788
  0
LINE
  8
_0-4_0
  6
CONTINUOUS
 62
   18
 10
4671.9493943254029
 20
2246.7377079223788
 11
4671.9493943254029
 21
2255.7377079223793
  0
LINE
  8
_0-4_0
  6
CONTINUOUS
 62
   18
 10
4671.9493943254029
 20
2255.7377079223793
 11
4746.949394325402
 21
2255.7377079223793
  0
LINE
  8
_0-4_0
  6
CONTINUOUS
 62
   18
 10
4746.949394325402
 20
2255.7377079223793
 11
4746.949394325402
 21
2246.7377079223788
  0
LINE
  8
_0-3_05_CENTER
  6
CENTER2
 62
    4
 10
2306.0540636233154
 20
2875.237707923965
 11
2306.0540636224209
 21
2292.237707916544
  0
LINE
  8
_0-3_05_CENTER
  6
CENTER2
 62
    4
 10
4258.0540636163059
 20
2875.237707923965
 11
4258.0540636172018
 21
2292.237707916544
  0
LINE
  8
_0-3_05_CENTER
  6
CENTER2
 62
    4
 10
4258.0540636180958
 20
2746.2377079174676
 11
2306.0540636233154
 21
2746.2377079174676
  0
LINE
  8
_0-3_05_CENTER
  6
CENTER2
 62
    4
 10
2306.0540636233154
 20
2746.2377079174676
 11
2306.0540636233154
 21
2875.237707923965
  0
LINE
  8
_0-3_05_CENTER
  6
CENTER2
 62
    4
 10
2306.0540636233154
 20
2875.237707923965
 11
4258.0561127967876
 21
2875.2377079259259
  0
LINE
  8
_0-3_05_CENTER
  6
CENTER2
 62
    4
 10
4258.0561127967876
 20
2875.2377079259259
 11
4258.0540636180958
 21
2746.2377079174676
  0
INSERT
  2
-000-Weld-line
  8
_0-2_08_DIM
 10
4184.6476801156277
 20
1594.4583074485424
 41
-41.999999999999986
 42
42.000000000000007
 50
0
  0
LINE
  8
_0-4_0
  6
CONTINUOUS
 62
    3
 10
4166.6476801156268
 20
1594.4583074485424
 11
4151.6476801156277
 21
1579.4583074485422
  0
LINE
  8
_0-4_0
  6
CONTINUOUS
 62
    3
 10
4151.6476801156277
 20
1579.4583074485422
 11
4151.6476801156277
 21
1594.4583074485424
  0
LINE
  8
_0-4_0
  6
CONTINUOUS
 62
    3
 10
4166.6476801156268
 20
1594.4583074485424
 11
4151.6476801156277
 21
1594.4583074485424
  0
CIRCLE
  8
_0-4_0
  6
CONTINUOUS
 62
    3
 10
4184.6476801156277
 20
1594.4583074485424
 40
5.9999999999999964
  0
ARC
  8
_0-4_0
  6
CONTINUOUS
 62
    1
 10
4200.1581865527087
 20
1640.0731835705221
 40
20.991835465144391
 50
94.881246068282792
 51
204.88124596879354
  0
ARC
  8
_0-4_0
  6
CONTINUOUS
 62
    1
 10
4191.8269244625972
 20
1621.0086936803432
 40
14.813922631258123
 50
136.31214488765855
 51
246.31214478816804
  0
ARC
  8
_0-4_0
  6
CONTINUOUS
 62
    1
 10
4201.6456852058227
 20
1600.7522218012355
 40
17.130893208367066
 50
157.01060194094933
 51
267.01060184145979
  0
ARC
  8
_0-4_0
  6
CONTINUOUS
 62
    1
 10
4223.3355513382157
 20
1596.354315003226
 40
25.914080479826168
 50
209.37045215946495
 51
319.37045205997504
  0
ARC
  8
_0-4_0
  6
CONTINUOUS
 62
    1
 10
4263.1458182221768
 20
1597.5742924567849
 40
27.07677042736476
 50
221.93295517882422
 51
331.93295507933414
  0
ARC
  8
_0-4_0
  6
CONTINUOUS
 62
    1
 10
4284.8955088215407
 20
1594.8606998681728
 40
10.252569298825465
 50
282.06375946958298
 51
32.063759370091752
  0
ARC
  8
_0-4_0
  6
CONTINUOUS
 62
    1
 10
4288.1086050217846
 20
1615.0891951442388
 40
15.767083666012322
 50
290.32077242897253
 51
40.320772329482601
  0
ARC
  8
_0-4_0
  6
CONTINUOUS
 62
    1
 10
4293.0478878202966
 20
1635.4057932908265
 40
12.347220147307516
 50
305.00000004974549
 51
54.999999950254534
  0
ARC
  8
_0-4_0
  6
CONTINUOUS
 62
    1
 10
4292.750554768867
 20
1650.9928047388148
 40
9.1873155758192855
 50
323.43840585973908
 51
73.438405760250575
  0
ARC
  8
_0-4_0
  6
CONTINUOUS
 62
    1
 10
4280.4920698629312
 20
1658.2483542404989
 40
14.95788201637963
 50
5.950299149696372
 51
115.95029905020587
  0
ARC
  8
_0-4_0
  6
CONTINUOUS
 62
    1
 10
4267.1032563452291
 20
1666.9063102911009
 40
8.3542171730904489
 50
35.00000004974531
 51
144.99999995025468
  0
ARC
  8
_0-4_0
  6
CONTINUOUS
 62
    1
 10
4250.4411257047095
 20
1664.8229250335853
 40
11.98648851984632
 50
35.000000049745054
 51
144.99999995025493
  0
ARC
  8
_0-4_0
  6
CONTINUOUS
 62
    1
 10
4230.5655094985586
 20
1666.4295178942953
 40
11.35333885729117
 50
27.649085268360299
 51
137.64908516886996
  0
ARC
  8
_0-4_0
  6
CONTINUOUS
 62
    1
 10
4214.8560162620925
 20
1659.199864914978
 40
16.580839163899864
 50
63.805905530090762
 51
173.80590543060052
  0
INSERT
  2
-008-AM_BALLOON1
  8
_0-2_08_DIM
 10
1848.7127592452712
 20
3421.2923196157708
 41
6.25
 42
6.25
 50
0
  0
TEXT
  8
_0-4_0
 62
    7
 10
1839.3377592452714
 20
3411.9173196157708
 40
18.749999999999996
 41
1
 50
0
  1
4
  0
LINE
  8
_0-2_08_DIM
  6
CONTINUOUS
 62
    3
 10
2337.0540636233172
 20
2007.6127079141318
 11
2337.0540636233172
 21
1890.9994846067241
  0
LINE
  8
_0-2_08_DIM
  6
CONTINUOUS
 62
    3
 10
2287.054063622365
 20
2012.6127079141318
 11
2287.054063622365
 21
1890.9994846067241
  0
LINE
  8
_0-2_08_DIM
  6
CONTINUOUS
 62
    3
 10
2324.5540636233172
 20
1897.2494846067241
 11
2299.554063622365
 21
1897.2494846067241
  0
INSERT
  2
-009-_Open30
  8
_0-2_08_DIM
 10
2337.0540636233172
 20
1897.2494846067241
 41
12.5
 42
12.5
 50
0
  0
INSERT
  2
-009-_Open30
  8
_0-2_08_DIM
 10
2287.054063622365
 20
1897.2494846067241
 41
12.5
 42
12.5
 50
180
  0
LINE
  8
_0-2_08_DIM
  6
CONTINUOUS
 62
    3
 10
2337.0540636233172
 20
2007.6127079141318
 11
2337.0540636233172
 21
1890.9994846067241
  0
LINE
  8
_0-2_08_DIM
  6
CONTINUOUS
 62
    3
 10
4227.0540636069509
 20
2007.6127079141318
 11
4227.0540636069509
 21
1890.9994846067241
  0
LINE
  8
_0-2_08_DIM
  6
CONTINUOUS
 62
    3
 10
2349.5540636233172
 20
1897.2494846067241
 11
4214.55406360695
 21
1897.2494846067241
  0
INSERT
  2
-009-_Open30
  8
_0-2_08_DIM
 10
2337.0540636233172
 20
1897.2494846067241
 41
12.5
 42
12.5
 50
180
  0
INSERT
  2
-009-_Open30
  8
_0-2_08_DIM
 10
4227.0540636069509
 20
1897.2494846067241
 41
12.5
 42
12.5
 50
0
  0
LINE
  8
_0-2_08_DIM
  6
CONTINUOUS
 62
    3
 10
4227.0540636069509
 20
2007.6127079141318
 11
4227.0540636069509
 21
1890.9994846067241
  0
LINE
  8
_0-2_08_DIM
  6
CONTINUOUS
 62
    3
 10
4277.0540636070018
 20
2012.6127079141816
 11
4277.0540636070018
 21
1890.9994846067241
  0
LINE
  8
_0-2_08_DIM
  6
CONTINUOUS
 62
    3
 10
4239.55406360695
 20
1897.2494846067241
 11
4264.5540636070009
 21
1897.2494846067241
  0
INSERT
  2
-009-_Open30
  8
_0-2_08_DIM
 10
4227.0540636069509
 20
1897.2494846067241
 41
12.5
 42
12.5
 50
180
  0
INSERT
  2
-009-_Open30
  8
_0-2_08_DIM
 10
4277.0540636070018
 20
1897.2494846067241
 41
12.5
 42
12.5
 50
0
  0
LINE
  8
_0-2_08_DIM
  6
CONTINUOUS
 62
    3
 10
4685.123193279901
 20
2055.7377079055627
 11
4611.1406750371998
 21
2055.7377079055627
  0
LINE
  8
_0-2_08_DIM
  6
CONTINUOUS
 62
    3
 10
4672.8243943245143
 20
2140.7377079092239
 11
4611.1406750371998
 21
2140.7377079092239
  0
LINE
  8
_0-2_08_DIM
  6
CONTINUOUS
 62
    3
 10
4617.3906750371998
 20
2068.2377079055623
 11
4617.3906750371998
 21
2128.2377079092239
  0
INSERT
  2
-009-_Open30
  8
_0-2_08_DIM
 10
4617.3906750371998
 20
2055.7377079055627
 41
12.5
 42
12.5
 50
270
  0
INSERT
  2
-009-_Open30
  8
_0-2_08_DIM
 10
4617.3906750371998
 20
2140.7377079092239
 41
12.5
 42
12.5
 50
90
  0
LINE
  8
_0-2_08_DIM
  6
CONTINUOUS
 62
    3
 10
4685.123193279901
 20
2055.7377079055627
 11
4611.1406750371998
 21
2055.7377079055627
  0
LINE
  8
_0-2_08_DIM
  6
CONTINUOUS
 62
    3
 10
4697.8243943254029
 20
2010.7377079141318
 11
4611.1406750371998
 21
2010.7377079141318
  0
LINE
  8
_0-2_08_DIM
  6
CONTINUOUS
 62
    3
 10
4617.3906750371998
 20
2043.2377079055625
 11
4617.3906750371998
 21
2023.2377079141315
  0
INSERT
  2
-009-_Open30
  8
_0-2_08_DIM
 10
4617.3906750371998
 20
2055.7377079055627
 41
12.5
 42
12.5
 50
90
  0
INSERT
  2
-009-_Open30
  8
_0-2_08_DIM
 10
4617.3906750371998
 20
2010.7377079141318
 41
12.5
 42
12.5
 50
270
  0
LINE
  8
_0-2_08_DIM
  6
CONTINUOUS
 62
    3
 10
4697.8243943254029
 20
2010.7377079141318
 11
4555.648877658381
 21
2010.7377079141318
  0
LINE
  8
_0-2_08_DIM
  6
CONTINUOUS
 62
    3
 10
4667.8243943253992
 20
2960.7377079141334
 11
4555.648877658381
 21
2960.7377079141334
  0
LINE
  8
_0-2_08_DIM
  6
CONTINUOUS
 62
    3
 10
4561.898877658381
 20
2023.2377079141315
 11
4561.898877658381
 21
2948.2377079141334
  0
INSERT
  2
-009-_Open30
  8
_0-2_08_DIM
 10
4561.898877658381
 20
2010.7377079141318
 41
12.5
 42
12.5
 50
270
  0
INSERT
  2
-009-_Open30
  8
_0-2_08_DIM
 10
4561.898877658381
 20
2960.7377079141334
 41
12.5
 42
12.5
 50
90
  0
LINE
  8
_0-2_08_DIM
  6
CONTINUOUS
 62
    3
 10
4672.8243943254029
 20
2955.737707914132
 11
4606.1406750371989
 21
2955.737707914132
  0
LINE
  8
_0-2_08_DIM
  6
CONTINUOUS
 62
    3
 10
4677.8243943253983
 20
2960.7377079141329
 11
4606.1406750371989
 21
2960.7377079141329
  0
LINE
  8
_0-2_08_DIM
  6
CONTINUOUS
 62
    3
 10
4612.3906750371998
 20
2973.2377079141329
 11
4612.3906750371998
 21
3001.9877079141329
  0
LINE
  8
_0-2_08_DIM
  6
CONTINUOUS
 62
    3
 10
4612.3906750371998
 20
2955.737707914132
 11
4612.3906750371998
 21
2960.7377079141329
  0
LINE
  8
_0-2_08_DIM
  6
CONTINUOUS
 62
    3
 10
4612.3906750371998
 20
2943.237707914132
 11
4612.3906750371998
 21
2930.7377079141315
  0
INSERT
  2
-009-_Open30
  8
_0-2_08_DIM
 10
4612.3906750371998
 20
2955.737707914132
 41
12.5
 42
12.5
 50
90
  0
INSERT
  2
-009-_Open30
  8
_0-2_08_DIM
 10
4612.3906750371998
 20
2960.7377079141329
 41
12.5
 42
12.5
 50
270
  0
LINE
  8
_0-2_08_DIM
  6
CONTINUOUS
 62
    3
 10
4672.8243943254029
 20
2955.737707914132
 11
4606.1406750371989
 21
2955.737707914132
  0
LINE
  8
_0-2_08_DIM
  6
CONTINUOUS
 62
    3
 10
4672.8243943254029
 20
2785.7377079141329
 11
4606.1406750371989
 21
2785.7377079141329
  0
LINE
  8
_0-2_08_DIM
  6
CONTINUOUS
 62
    3
 10
4612.3906750371998
 20
2943.237707914132
 11
4612.3906750371998
 21
2798.2377079141329
  0
INSERT
  2
-009-_Open30
  8
_0-2_08_DIM
 10
4612.3906750371998
 20
2955.737707914132
 41
12.5
 42
12.5
 50
90
  0
INSERT
  2
-009-_Open30
  8
_0-2_08_DIM
 10
4612.3906750371998
 20
2785.7377079141329
 41
12.5
 42
12.5
 50
270
  0
LINE
  8
_0-2_08_DIM
  6
CONTINUOUS
 62
    3
 10
4715.9493943254074
 20
2024.9115068639512
 11
4715.9493943254074
 21
1927.4688706886502
  0
LINE
  8
_0-2_08_DIM
  6
CONTINUOUS
 62
    3
 10
4755.9493943254029
 20
2007.6127079141318
 11
4755.9493943254029
 21
1927.4688706886502
  0
LINE
  8
_0-2_08_DIM
  6
CONTINUOUS
 62
    3
 10
4728.4493943254065
 20
1933.7188706886502
 11
4743.4493943254029
 21
1933.7188706886502
  0
INSERT
  2
-009-_Open30
  8
_0-2_08_DIM
 10
4715.9493943254074
 20
1933.7188706886502
 41
12.5
 42
12.5
 50
180
  0
INSERT
  2
-009-_Open30
  8
_0-2_08_DIM
 10
4755.9493943254029
 20
1933.7188706886502
 41
12.5
 42
12.5
 50
0
  0
LINE
  8
_0-2_08_DIM
  6
CONTINUOUS
 62
    3
 10
4755.9493943254029
 20
2007.6127079141318
 11
4755.9493943254029
 21
1878.0339361805184
  0
LINE
  8
_0-2_08_DIM
  6
CONTINUOUS
 62
    3
 10
4665.949394325402
 20
2037.612707914132
 11
4665.949394325402
 21
1878.0339361805184
  0
LINE
  8
_0-2_08_DIM
  6
CONTINUOUS
 62
    3
 10
4743.4493943254029
 20
1884.2839361805184
 11
4678.4493943254029
 21
1884.2839361805184
  0
INSERT
  2
-009-_Open30
  8
_0-2_08_DIM
 10
4755.9493943254029
 20
1884.2839361805184
 41
12.5
 42
12.5
 50
0
  0
INSERT
  2
-009-_Open30
  8
_0-2_08_DIM
 10
4665.949394325402
 20
1884.2839361805184
 41
12.5
 42
12.5
 50
180
  0
LINE
  8
_0-2_08_DIM
  6
CONTINUOUS
 62
    3
 10
2306.0540636233154
 20
2890.2586426944858
 11
2306.0540636233154
 21
3107.1832646573503
  0
LINE
  8
_0-2_08_DIM
  6
CONTINUOUS
 62
    3
 10
4258.0540636163059
 20
2890.2586426944858
 11
4258.0540636163059
 21
3107.1832646573503
  0
LINE
  8
_0-2_08_DIM
  6
CONTINUOUS
 62
    3
 10
2318.5540636233154
 20
3100.9332646573498
 11
4245.5540636163059
 21
3100.9332646573498
  0
INSERT
  2
-009-_Open30
  8
_0-2_08_DIM
 10
2306.0540636233154
 20
3100.9332646573498
 41
12.5
 42
12.5
 50
180
  0
INSERT
  2
-009-_Open30
  8
_0-2_08_DIM
 10
4258.0540636163059
 20
3100.9332646573498
 41
12.5
 42
12.5
 50
0
  0
LINE
  8
_0-2_08_DIM
  6
CONTINUOUS
 62
    3
 10
4273.0749983869227
 20
2746.2377079194284
 11
4403.2601514918751
 21
2746.2377079194284
  0
LINE
  8
_0-2_08_DIM
  6
CONTINUOUS
 62
    3
 10
4273.0749983869227
 20
2875.2377079259259
 11
4403.2601514918751
 21
2875.2377079259259
  0
LINE
  8
_0-2_08_DIM
  6
CONTINUOUS
 62
    3
 10
4397.0101514918742
 20
2758.7377079194284
 11
4397.0101514918742
 21
2862.7377079259259
  0
INSERT
  2
-009-_Open30
  8
_0-2_08_DIM
 10
4397.0101514918742
 20
2746.2377079194284
 41
12.5
 42
12.5
 50
270
  0
INSERT
  2
-009-_Open30
  8
_0-2_08_DIM
 10
4397.0101514918742
 20
2875.2377079259259
 41
12.5
 42
12.5
 50
90
  0
LINE
  8
_0-2_08_DIM
  6
CONTINUOUS
 62
    3
 10
4273.0749983869227
 20
2746.2377079194284
 11
4403.2601514918751
 21
2746.2377079194284
  0
LINE
  8
_0-2_08_DIM
  6
CONTINUOUS
 62
    3
 10
4276.2396529737398
 20
2419.2377079185262
 11
4403.2601514918751
 21
2419.2377079185262
  0
LINE
  8
_0-2_08_DIM
  6
CONTINUOUS
 62
    3
 10
4397.0101514918742
 20
2733.7377079194284
 11
4397.0101514918742
 21
2431.7377079185262
  0
INSERT
  2
-009-_Open30
  8
_0-2_08_DIM
 10
4397.0101514918742
 20
2746.2377079194284
 41
12.5
 42
12.5
 50
90
  0
INSERT
  2
-009-_Open30
  8
_0-2_08_DIM
 10
4397.0101514918742
 20
2419.2377079185262
 41
12.5
 42
12.5
 50
270
  0
LINE
  8
_0-2_08_DIM
  6
CONTINUOUS
 62
    3
 10
4276.2396529737398
 20
2419.2377079185262
 11
4403.2601514918751
 21
2419.2377079185262
  0
LINE
  8
_0-2_08_DIM
  6
CONTINUOUS
 62
    3
 10
4276.2396529745947
 20
2292.2377079185048
 11
4403.2601514918751
 21
2292.2377079185048
  0
LINE
  8
_0-2_08_DIM
  6
CONTINUOUS
 62
    3
 10
4397.0101514918742
 20
2406.7377079185262
 11
4397.0101514918742
 21
2304.7377079185044
  0
INSERT
  2
-009-_Open30
  8
_0-2_08_DIM
 10
4397.0101514918742
 20
2419.2377079185262
 41
12.5
 42
12.5
 50
90
  0
INSERT
  2
-009-_Open30
  8
_0-2_08_DIM
 10
4397.0101514918742
 20
2292.2377079185048
 41
12.5
 42
12.5
 50
270
  0
LINE
  8
_0-2_08_DIM
  6
CONTINUOUS
 62
    3
 10
4411.9392750733914
 20
2937.8789818442747
 11
4324.2101084067253
 21
2937.8789818442747
  0
LINE
  8
_0-2_08_DIM
  6
CONTINUOUS
 62
    3
 10
4324.2101084067253
 20
2937.8789818442747
 11
4272.5767197746181
 21
2888.9887972665279
  0
INSERT
  2
-009-_Open30
  8
_0-2_08_DIM
 10
4263.5000596756681
 20
2880.3943664274248
 41
12.5
 42
12.5
 50
223.43683415420935
  0
LINE
  8
_0-2_08_DIM
  6
CONTINUOUS
 62
    3
 10
4375.3928983795568
 20
1688.9301901018823
 11
4425.5283746883424
 21
1739.065666410668
  0
INSERT
  2
-009-_Open30
  8
_0-2_08_DIM
 10
4366.5540636147252
 20
1680.0913553370503
 41
12.5
 42
12.5
 50
224.99999999999977
  0
LINE
  8
_0-2_08_DIM
  6
CONTINUOUS
 62
    3
 10
4283.392898371807
 20
2004.3988731493237
 11
4349.2101902038958
 21
1938.5815813172235
  0
INSERT
  2
-009-_Open30
  8
_0-2_08_DIM
 10
4274.5540636069763
 20
2013.2377079141563
 41
12.499999999999998
 42
12.499999999999998
 50
134.99999999999477
  0
LINE
  8
_0-2_08_DIM
  6
CONTINUOUS
 62
    3
 10
4672.1105595605704
 20
2016.8988731493
 11
4598.3251491970641
 21
1943.1134627857937
  0
INSERT
  2
-009-_Open30
  8
_0-2_08_DIM
 10
4680.949394325402
 20
2025.7377079141318
 41
12.5
 42
12.5
 50
44.999999999999865
  0
LINE
  8
_0-2_08_DIM
  6
CONTINUOUS
 62
    3
 10
4659.6105595605668
 20
2967.0765426789644
 11
4602.1897355556939
 21
3024.4973666838364
  0
INSERT
  2
-009-_Open30
  8
_0-2_08_DIM
 10
4668.4493943253983
 20
2958.2377079141324
 41
12.499999999999998
 42
12.499999999999998
 50
315.00000000000045
  0
LINE
  8
_0-2_08_DIM
  6
CONTINUOUS
 62
    3
 10
4668.8243943254029
 20
2255.7377079223793
 11
4611.1406750371998
 21
2255.7377079223793
  0
LINE
  8
_0-2_08_DIM
  6
CONTINUOUS
 62
    3
 10
4668.8243943254029
 20
2455.7377079223793
 11
4611.1406750371998
 21
2455.7377079223793
  0
LINE
  8
_0-2_08_DIM
  6
CONTINUOUS
 62
    3
 10
4617.3906750371998
 20
2268.2377079223793
 11
4617.3906750371998
 21
2443.2377079223793
  0
INSERT
  2
-009-_Open30
  8
_0-2_08_DIM
 10
4617.3906750371998
 20
2255.7377079223793
 41
12.5
 42
12.5
 50
270
  0
INSERT
  2
-009-_Open30
  8
_0-2_08_DIM
 10
4617.3906750371998
 20
2455.7377079223793
 41
12.5
 42
12.5
 50
90
  0
LINE
  8
_0-2_08_DIM
  6
CONTINUOUS
 62
    3
 10
4668.8243943254029
 20
2255.7377079223793
 11
4611.1406750371998
 21
2255.7377079223793
  0
LINE
  8
_0-2_08_DIM
  6
CONTINUOUS
 62
    3
 10
4668.8243943254029
 20
2246.7377079223788
 11
4611.1406750371998
 21
2246.7377079223788
  0
LINE
  8
_0-2_08_DIM
  6
CONTINUOUS
 62
    3
 10
4617.3906750371998
 20
2234.2377079223788
 11
4617.3906750371998
 21
2205.4877079223793
  0
LINE
  8
_0-2_08_DIM
  6
CONTINUOUS
 62
    3
 10
4617.3906750371998
 20
2255.7377079223793
 11
4617.3906750371998
 21
2246.7377079223788
  0
LINE
  8
_0-2_08_DIM
  6
CONTINUOUS
 62
    3
 10
4617.3906750371998
 20
2268.2377079223793
 11
4617.3906750371998
 21
2280.7377079223793
  0
INSERT
  2
-009-_Open30
  8
_0-2_08_DIM
 10
4617.3906750371998
 20
2255.7377079223793
 41
12.5
 42
12.5
 50
270
  0
INSERT
  2
-009-_Open30
  8
_0-2_08_DIM
 10
4617.3906750371998
 20
2246.7377079223788
 41
12.5
 42
12.5
 50
90
  0
LINE
  8
_0-2_08_DIM
  6
CONTINUOUS
 62
    3
 10
4668.8243943254029
 20
2455.7377079223793
 11
4611.1406750371998
 21
2455.7377079223793
  0
LINE
  8
_0-2_08_DIM
  6
CONTINUOUS
 62
    3
 10
4668.8243943254029
 20
2464.7377079223788
 11
4611.1406750371998
 21
2464.7377079223788
  0
LINE
  8
_0-2_08_DIM
  6
CONTINUOUS
 62
    3
 10
4617.3906750371998
 20
2477.2377079223793
 11
4617.3906750371998
 21
2505.9877079223788
  0
LINE
  8
_0-2_08_DIM
  6
CONTINUOUS
 62
    3
 10
4617.3906750371998
 20
2455.7377079223793
 11
4617.3906750371998
 21
2464.7377079223788
  0
LINE
  8
_0-2_08_DIM
  6
CONTINUOUS
 62
    3
 10
4617.3906750371998
 20
2443.2377079223793
 11
4617.3906750371998
 21
2430.7377079223788
  0
INSERT
  2
-009-_Open30
  8
_0-2_08_DIM
 10
4617.3906750371998
 20
2455.7377079223793
 41
12.5
 42
12.5
 50
90
  0
INSERT
  2
-009-_Open30
  8
_0-2_08_DIM
 10
4617.3906750371998
 20
2464.7377079223788
 41
12.5
 42
12.5
 50
270
  0
LINE
  8
_0-2_08_DIM
  6
CONTINUOUS
 62
    3
 10
4369.1790636147252
 20
1640.5913553379055
 11
4485.1163217003159
 21
1640.5913553379055
  0
LINE
  8
_0-2_08_DIM
  6
CONTINUOUS
 62
    3
 10
4369.1790636147252
 20
1680.5913553370506
 11
4485.1163217003159
 21
1680.5913553370506
  0
LINE
  8
_0-2_08_DIM
  6
CONTINUOUS
 62
    3
 10
4478.866321700315
 20
1680.5913553370506
 11
4478.866321700315
 21
1791.8413553370506
  0
LINE
  8
_0-2_08_DIM
  6
CONTINUOUS
 62
    3
 10
4478.866321700315
 20
1653.0913553379055
 11
4478.866321700315
 21
1668.0913553370506
  0
INSERT
  2
-009-_Open30
  8
_0-2_08_DIM
 10
4478.866321700315
 20
1640.5913553379055
 41
12.5
 42
12.5
 50
270
  0
INSERT
  2
-009-_Open30
  8
_0-2_08_DIM
 10
4478.866321700315
 20
1680.5913553370506
 41
12.5
 42
12.5
 50
90
  0
LINE
  8
_0-2_08_DIM
  6
CONTINUOUS
 62
    3
 10
4367.0540636147243
 20
1682.716355336195
 11
4367.0540636147243
 21
1830.4299400727382
  0
LINE
  8
_0-2_08_DIM
  6
CONTINUOUS
 62
    3
 10
2197.0540636216147
 20
1682.716355336195
 11
2197.0540636216147
 21
1830.4299400727382
  0
LINE
  8
_0-2_08_DIM
  6
CONTINUOUS
 62
    3
 10
4354.5540636147252
 20
1824.1799400727382
 11
2209.5540636216147
 21
1824.1799400727382
  0
INSERT
  2
-009-_Open30
  8
_0-2_08_DIM
 10
4367.0540636147243
 20
1824.1799400727382
 41
12.5
 42
12.5
 50
0
  0
INSERT
  2
-009-_Open30
  8
_0-2_08_DIM
 10
2197.0540636216147
 20
1824.1799400727382
 41
12.5
 42
12.5
 50
180
  0
LINE
  8
_0-2_08_DIM
  6
CONTINUOUS
 62
    3
 10
4236.0540636164069
 20
1713.7163553385456
 11
4236.0540636164069
 21
1784.6638182896311
  0
LINE
  8
_0-2_08_DIM
  6
CONTINUOUS
 62
    3
 10
4227.0540636164069
 20
1713.7163553385456
 11
4227.0540636164069
 21
1784.6638182896311
  0
LINE
  8
_0-2_08_DIM
  6
CONTINUOUS
 62
    3
 10
4214.554063616406
 20
1778.4138182896311
 11
4185.8040636164069
 21
1778.4138182896311
  0
LINE
  8
_0-2_08_DIM
  6
CONTINUOUS
 62
    3
 10
4236.0540636164069
 20
1778.4138182896311
 11
4227.0540636164069
 21
1778.4138182896311
  0
LINE
  8
_0-2_08_DIM
  6
CONTINUOUS
 62
    3
 10
4248.5540636164069
 20
1778.4138182896311
 11
4261.0540636164069
 21
1778.4138182896311
  0
INSERT
  2
-009-_Open30
  8
_0-2_08_DIM
 10
4236.0540636164069
 20
1778.4138182896311
 41
12.5
 42
12.5
 50
180
  0
INSERT
  2
-009-_Open30
  8
_0-2_08_DIM
 10
4227.0540636164069
 20
1778.4138182896311
 41
12.5
 42
12.5
 50
0
  0
LINE
  8
_0-2_08_DIM
  6
CONTINUOUS
 62
    3
 10
4251.0540636164069
 20
1707.7163553385465
 11
4251.0540636164069
 21
1749.2420515080046
  0
LINE
  8
_0-2_08_DIM
  6
CONTINUOUS
 62
    3
 10
4236.0540636164069
 20
1713.7163553385456
 11
4236.0540636164069
 21
1749.2420515080046
  0
LINE
  8
_0-2_08_DIM
  6
CONTINUOUS
 62
    3
 10
4223.554063616406
 20
1742.9920515080046
 11
4184.8040636164069
 21
1742.9920515080046
  0
LINE
  8
_0-2_08_DIM
  6
CONTINUOUS
 62
    3
 10
4251.0540636164069
 20
1742.9920515080046
 11
4236.0540636164069
 21
1742.9920515080046
  0
LINE
  8
_0-2_08_DIM
  6
CONTINUOUS
 62
    3
 10
4263.554063616406
 20
1742.9920515080046
 11
4276.0540636164069
 21
1742.9920515080046
  0
INSERT
  2
-009-_Open30
  8
_0-2_08_DIM
 10
4251.0540636164069
 20
1742.9920515080046
 41
12.5
 42
12.5
 50
180
  0
INSERT
  2
-009-_Open30
  8
_0-2_08_DIM
 10
4236.0540636164069
 20
1742.9920515080046
 41
12.5
 42
12.5
 50
0
  0
LINE
  8
_0-2_08_DIM
  6
CONTINUOUS
 62
    3
 10
4236.0540636164069
 20
1713.7163553385456
 11
4236.0540636164069
 21
1784.6638182896311
  0
LINE
  8
_0-2_08_DIM
  6
CONTINUOUS
 62
    3
 10
4271.0540636164069
 20
1687.7163553385465
 11
4271.0540636164069
 21
1784.6638182896311
  0
LINE
  8
_0-2_08_DIM
  6
CONTINUOUS
 62
    3
 10
4248.5540636164069
 20
1778.4138182896311
 11
4258.554063616406
 21
1778.4138182896311
  0
INSERT
  2
-009-_Open30
  8
_0-2_08_DIM
 10
4236.0540636164069
 20
1778.4138182896311
 41
12.5
 42
12.5
 50
180
  0
INSERT
  2
-009-_Open30
  8
_0-2_08_DIM
 10
4271.0540636164069
 20
1778.4138182896311
 41
12.5
 42
12.5
 50
0
  0
LINE
  8
_0-2_08_DIM
  6
CONTINUOUS
 62
    3
 10
4280.1790636164069
 20
1629.5913553385456
 11
4329.3006576189791
 21
1629.5913553385456
  0
LINE
  8
_0-2_08_DIM
  6
CONTINUOUS
 62
    3
 10
4254.179063616406
 20
1704.5913553385462
 11
4329.3006576189791
 21
1704.5913553385462
  0
LINE
  8
_0-2_08_DIM
  6
CONTINUOUS
 62
    3
 10
4323.0506576189791
 20
1642.0913553385456
 11
4323.0506576189791
 21
1692.0913553385465
  0
INSERT
  2
-009-_Open30
  8
_0-2_08_DIM
 10
4323.0506576189791
 20
1629.5913553385456
 41
12.5
 42
12.5
 50
270
  0
INSERT
  2
-009-_Open30
  8
_0-2_08_DIM
 10
4323.0506576189791
 20
1704.5913553385462
 41
12.5
 42
12.5
 50
90
  0
LINE
  8
_0-2_08_DIM
  6
CONTINUOUS
 62
    3
 10
4269.8928983812384
 20
1703.4301901033784
 11
4315.8299281767286
 21
1749.3672198988684
  0
INSERT
  2
-009-_Open30
  8
_0-2_08_DIM
 10
4261.0540636164069
 20
1694.5913553385465
 41
12.5
 42
12.5
 50
224.99999999999977
  0
LINE
  8
_0-2_08_DIM
  6
CONTINUOUS
 62
    3
 10
4275.1790636164078
 20
2010.7377079141318
 11
4403.2601514918751
 21
2010.7377079141318
  0
LINE
  8
_0-2_08_DIM
  6
CONTINUOUS
 62
    3
 10
4276.2396529745947
 20
2292.2377079185048
 11
4403.2601514918751
 21
2292.2377079185048
  0
LINE
  8
_0-2_08_DIM
  6
CONTINUOUS
 62
    3
 10
4397.0101514918742
 20
2023.2377079141315
 11
4397.0101514918742
 21
2279.7377079185048
  0
INSERT
  2
-009-_Open30
  8
_0-2_08_DIM
 10
4397.0101514918742
 20
2010.7377079141318
 41
12.5
 42
12.5
 50
270
  0
INSERT
  2
-009-_Open30
  8
_0-2_08_DIM
 10
4397.0101514918742
 20
2292.2377079185048
 41
12.5
 42
12.5
 50
90
  0
INSERT
  2
-009-_Open30
  8
_0-2_08_DIM
 10
4263.2911379057914
 20
2286.1901420518875
 41
12.5
 42
12.5
 50
121.4728462404115
  0
LINE
  8
_0-2_08_DIM
  6
CONTINUOUS
 62
    3
 10
4269.8173181643879
 20
2275.5290458965992
 11
4304.6867549089266
 21
2218.5667182740126
  0
LINE
  8
_0-2_08_DIM
  6
CONTINUOUS
 62
    3
 10
4304.6867549089266
 20
2218.5667182740126
 11
4414.4424691946415
 21
2218.5667182740126
  0
INSERT
  2
-009-_Open30
  8
_0-2_08_DIM
 10
4227.0540636165342
 20
1640.5913553326211
 41
12.5
 42
12.5
 50
47.410182434909586
  0
LINE
  8
_0-2_08_DIM
  6
CONTINUOUS
 62
    3
 10
4218.5947493413187
 20
1631.3886382342237
 11
4184.6476801156277
 21
1594.4583074485424
  0
TEXT
  8
_0-6_07_TEXT
 62
    3
 10
4879.5890070497016
 20
1480.795871592544
 40
14.999999999999998
 41
1
 50
0
  1
ÆŹŗL
  0
TEXT
  8
_0-6_07_TEXT
 62
    3
 10
4880.7890070497024
 20
1452.9008715925438
 40
14.999999999999998
 41
1
 50
0
  1
ü@ÄwÄ”é╚é½ŖpĢöé═
  0
TEXT
  8
_0-6_07_TEXT
 62
    3
 10
5042.4140070497015
 20
1452.9008715925438
 40
14.999999999999998
 41
1
 50
0
  1
C0.5
  0
TEXT
  8
_0-6_07_TEXT
 62
    3
 10
5093.1282927639868
 20
1452.9008715925438
 40
14.999999999999998
 41
1
 50
0
  1
é╠é▒éŲ
  0
TEXT
  8
_0-6_07_TEXT
 62
    3
 10
4880.7890070497024
 20
1424.4058715925437
 40
14.999999999999998
 41
1
 50
0
  1
ü@āKāXÉžÆf¢╩é═āOāēāCāōā_ÄdÅŃé░é╠é▒éŲ
  0
TEXT
  8
_0-6_07_TEXT
 62
    3
 10
4880.7890070497024
 20
1396.6908715925438
 40
14.999999999999998
 41
1
 50
0
  1
ü@ÄwÄ”é╚é½ŚnÉ┌Ģöé═ü@ü@ü@ü@é╠é▒éŲ
  0
TEXT
  8
_0-2_08_DIM
 62
    3
 10
4318.1688977660688
 20
2224.5492182740122
 40
14.999999999999998
 41
1
 50
0
  1
4-16
  0
TEXT
  8
_0-2_08_DIM
 62
    3
 10
4379.5974691946394
 20
2224.5492182740122
 40
14.999999999999998
 41
1
 50
0
  1
āLāŖ
  0
TEXT
  8
_0-6_07_TEXT
 62
    4
 10
3069.8258716389314
 20
1470.1138023193523
 40
59.999999999999993
 41
1
 50
0
  1
üyæ┼Źćé╣
  0
TEXT
  8
_0-6_07_TEXT
 62
    4
 10
3375.1658716389311
 20
1470.1138023193523
 40
59.999999999999993
 41
1
 50
0
  1
(4/16)
  0
TEXT
  8
_0-6_07_TEXT
 62
    4
 10
3689.4515859246458
 20
1470.1138023193523
 40
59.999999999999993
 41
1
 50
0
  1
é╔éµéķĢŽŹXüz
  0
TEXT
  8
_0-6_07_TEXT
 62
    4
 10
4140.2915859246459
 20
1470.1138023193523
 40
59.999999999999993
 41
1
 50
0
  1
(
  0
TEXT
  8
_0-6_07_TEXT
 62
    4
 10
4180.291585924645
 20
1470.1138023193523
 40
59.999999999999993
 41
1
 50
0
  1
ÆnÉü
  0
TEXT
  8
_0-6_07_TEXT
 62
    4
 10
4354.7715859246446
 20
1470.1138023193523
 40
59.999999999999993
 41
1
 50
0
  1
)
  0
TEXT
  8
_0-6_07_TEXT
 62
    4
 10
3074.3115859246454
 20
1356.8538023193523
 40
59.999999999999993
 41
1
 50
0
  1
t9L
  0
TEXT
  8
_0-6_07_TEXT
 62
    4
 10
3214.3115859246454
 20
1356.8538023193523
 40
59.999999999999993
 41
1
 50
0
  1
Ź|é╠ĢąæżÉžéĶö“é╬éĄé­ÄgŚp
  0
TEXT
  8
_0-6_07_TEXT
 62
    4
 10
5251.4964197209574
 20
1041.3431991560344
 40
23.999999999999996
 41
1
 50
0
  1
A
  0
TEXT
  8
_0-2_08_DIM
 62
    3
 10
2297.7683493371269
 20
1900.3849012733908
 40
14.999999999999998
 41
1
 50
0
  1
50
  0
TEXT
  8
_0-2_08_DIM
 62
    3
 10
3252.4112064722767
 20
1900.3744846067241
 40
14.999999999999998
 41
1
 50
0
  1
1890
  0
TEXT
  8
_0-2_08_DIM
 62
    3
 10
4237.7683493212617
 20
1900.3849012733908
 40
14.999999999999998
 41
1
 50
0
  1
50
  0
TEXT
  8
_0-2_08_DIM
 62
    3
 10
4614.2552583705319
 20
2083.9519936216784
 40
14.999999999999998
 41
1
 50
90
  1
85
  0
TEXT
  8
_0-2_08_DIM
 62
    3
 10
4614.2552583705319
 20
2018.9519936241325
 40
14.999999999999998
 41
1
 50
90
  1
45
  0
TEXT
  8
_0-2_08_DIM
 62
    3
 10
4558.7634609917141
 20
2464.3091364855609
 40
14.999999999999998
 41
1
 50
90
  1
950
  0
TEXT
  8
_0-2_08_DIM
 62
    3
 10
4609.2552583705337
 20
2986.7198507712751
 40
14.999999999999998
 41
1
 50
90
  1
5
  0
TEXT
  8
_0-2_08_DIM
 62
    3
 10
4609.2656750371998
 20
2848.237707914132
 40
14.999999999999998
 41
1
 50
90
  1
170
  0
TEXT
  8
_0-2_08_DIM
 62
    3
 10
4721.6636800396909
 20
1936.8438706886502
 40
14.999999999999998
 41
1
 50
0
  1
40
  0
TEXT
  8
_0-2_08_DIM
 62
    3
 10
4696.6636800396882
 20
1887.4089361805184
 40
14.999999999999998
 41
1
 50
0
  1
90
  0
TEXT
  8
_0-2_08_DIM
 62
    3
 10
3252.4112064769533
 20
3104.0686813240163
 40
14.999999999999998
 41
1
 50
0
  1
1952
  0
TEXT
  8
_0-2_08_DIM
 62
    3
 10
4393.8851514918751
 20
2788.5948507798203
 40
14.999999999999998
 41
1
 50
90
  1
129
  0
TEXT
  8
_0-2_08_DIM
 62
    3
 10
4393.8851514918751
 20
2561.3091364904058
 40
14.999999999999998
 41
1
 50
90
  1
327
  0
TEXT
  8
_0-2_08_DIM
 62
    3
 10
4393.8851514918751
 20
2333.2377079185158
 40
14.999999999999998
 41
1
 50
90
  1
127
  0
TEXT
  8
_0-2_08_DIM
 62
    3
 10
4320.428977454344
 20
2941.8693985109412
 40
14.999999999999998
 41
1
 50
0
  1
4-15
  0
TEXT
  8
_0-2_08_DIM
 62
    3
 10
4381.8575488829165
 20
2941.8693985109412
 40
14.999999999999998
 41
1
 50
0
  1
āLāŖ
  0
TEXT
  8
_0-2_08_DIM
 62
    3
 10
4382.97569874908
 20
1700.9324078538223
 40
14.999999999999998
 41
1
 50
45
  1
2-C1
  0
TEXT
  8
_0-2_08_DIM
 62
    3
 10
4307.8013015728957
 20
1984.4246187219212
 40
14.999999999999998
 41
1
 50
-45.000000000005627
  1
4-C5
  0
TEXT
  8
_0-2_08_DIM
 62
    3
 10
4595.3893933644595
 20
1944.597124335605
 40
14.999999999999998
 41
1
 50
45.000000000000178
  1
2-C30
  0
TEXT
  8
_0-2_08_DIM
 62
    3
 10
4604.0911372723667
 20
3027.0301137408542
 40
14.999999999999998
 41
1
 50
-45
  1
2-C5
  0
TEXT
  8
_0-2_08_DIM
 62
    3
 10
4614.2656750371989
 20
2334.3091364938073
 40
14.999999999999998
 41
1
 50
90
  1
200
  0
TEXT
  8
_0-2_08_DIM
 62
    3
 10
4614.2656750371989
 20
2206.8269936366646
 40
14.999999999999998
 41
1
 50
90
  1
9
  0
TEXT
  8
_0-2_08_DIM
 62
    3
 10
4614.2656750371989
 20
2491.0769936366642
 40
14.999999999999998
 41
1
 50
90
  1
9
  0
TEXT
  8
_0-2_08_DIM
 62
    3
 10
4474.9763217003156
 20
1693.0684981941929
 40
14.999999999999998
 41
1
 50
90
  1
?40
  0
TEXT
  8
_0-2_08_DIM
 62
    3
 10
4474.9763217003156
 20
1735.2113553370502
 40
14.999999999999998
 41
1
 50
90
  1
ā~āKāL
  0
TEXT
  8
_0-2_08_DIM
 62
    3
 10
3253.4826350467415
 20
1827.304940072738
 40
14.999999999999998
 41
1
 50
0
  1
2170
  0
TEXT
  8
_0-2_08_DIM
 62
    3
 10
4187.1433493306922
 20
1781.5388182896313
 40
14.999999999999998
 41
1
 50
0
  1
9
  0
TEXT
  8
_0-2_08_DIM
 62
    3
 10
4182.5719207592638
 20
1746.1274681746709
 40
14.999999999999998
 41
1
 50
0
  1
15
  0
TEXT
  8
_0-2_08_DIM
 62
    3
 10
4239.2683493306922
 20
1781.5492349562981
 40
14.999999999999998
 41
1
 50
0
  1
35
  0
TEXT
  8
_0-2_08_DIM
 62
    3
 10
4319.9152409523131
 20
1652.8056410528313
 40
14.999999999999998
 41
1
 50
90
  1
75
  0
TEXT
  8
_0-2_08_DIM
 62
    3
 10
4282.5264614735233
 20
1720.4831705780789
 40
14.999999999999998
 41
1
 50
45.000000000000412
  1
C20
  0
TEXT
  8
_0-2_08_DIM
 62
    3
 10
4393.8747348252082
 20
2119.3448507734606
 40
14.999999999999998
 41
1
 50
90
  1
281.5
  0
TEXT
  8
_0-0_90_FRAME
 62
    3
 10
1925.3358303001864
 20
451.17863540458836
 40
14.999999999999998
 41
1
 50
0
  1
Äøōc
  0
TEXT
  8
_0-0_90_FRAME
 62
    3
 10
1542.1944678133373
 20
451.17863540458836
 40
14.999999999999998
 41
0.65
 50
0
  1
2013.09.01
  0
TEXT
  8
_0-0_90_FRAME
 62
    3
 10
1642.1529045458915
 20
451.17863540458836
 40
14.999999999999998
 41
1
 50
0
  1
āGāAü[ö▓é½ÆŪē┴
  0
TEXT
  8
_0-8_
 62
    7
 10
2161.6741569460642
 20
439.91932731299249
 40
47.492487937325095
 41
1
 50
0
  1
A3ü@150%
  0
ENDSEC
  0
EOF
