  0
SECTION
  2
HEADER
  9
$ACADVER
  1
AC1009
  9
$INSBASE
 10
0
 20
0
 30
0
  9
$EXTMIN
 10
0
 20
0
  9
$EXTMAX
 10
6648.948311225513
 20
4701.7563057951838
  9
$LIMMIN
 10
0
 20
0
  9
$LIMMAX
 10
6648.948311225513
 20
4701.7563057951838
  9
$LTSCALE
 40
15.830829312441697
  0
ENDSEC
  0
SECTION
  2
TABLES
  0
TABLE
  2
LTYPE
 70
     9
  0
LTYPE
  2
CONTINUOUS
 70
    64
  3
実線
 72
    65
 73
     0
 40
0.0
  0
LTYPE
  2
DASHED1
 70
    64
  3
--  --  --  --  --  --  --  --  
 72
    65
 73
     2
 40
2.5
 49
1.25
 49
-1.25
  0
LTYPE
  2
DASHED2
 70
    64
  3
----    ----    ----    ----    
 72
    65
 73
     2
 40
5.0
 49
2.5
 49
-2.5
  0
LTYPE
  2
DASHED3
 70
    64
  3
------  ------  ------  ------  
 72
    65
 73
     2
 40
5.0
 49
3.75
 49
-1.25
  0
LTYPE
  2
CENTER1
 70
    64
  3
----- - ----- - ----- - ----- - 
 72
    65
 73
     4
 40
10.0
 49
6.25
 49
-1.25
 49
1.25
 49
-1.25
  0
LTYPE
  2
CENTER2
 70
    64
  3
----------  --  ----------  --  
 72
    65
 73
     4
 40
20.0
 49
12.5
 49
-2.5
 49
2.5
 49
-2.5
  0
LTYPE
  2
PHANTOM1
 70
    64
  3
--- - - --- - - --- - - --- - - 
 72
    65
 73
     6
 40
10.0
 49
3.25
 49
-1.25
 49
1.25
 49
-1.25
 49
1.25
 49
-1.25
  0
LTYPE
  2
PHANTOM2
 70
    64
  3
--------  -  -  --------  -  -  
 72
    65
 73
     6
 40
20.0
 49
10.0
 49
-2.5
 49
1.25
 49
-2.5
 49
1.25
 49
-2.5
  0
LTYPE
  2
DOT
 70
    64
  3
-   -   -   -   -   -   -   -   
 72
    65
 73
     2
 40
2.5
 49
0.625
 49
-1.875
  0
LTYPE
  2
DUMMY
 70
    64
  3
ダミー
 72
    65
 73
     0
 40
0.0
  0
LTYPE
  2
RAND1
 70
    64
  3
ランダム線1
 72
    65
 73
     4
 40
10.0
 49
1.0
 49
-2.0
 49
3.0
 49
-4.0
  0
LTYPE
  2
RAND2
 70
    64
  3
ランダム線2
 72
    65
 73
     4
 40
14.0
 49
2.0
 49
-3.0
 49
4.0
 49
-5.0
  0
LTYPE
  2
RAND3
 70
    64
  3
ランダム線3
 72
    65
 73
     4
 40
18.0
 49
3.0
 49
-4.0
 49
5.0
 49
-6.0
  0
LTYPE
  2
RAND4
 70
    64
  3
ランダム線4
 72
    65
 73
     4
 40
22.0
 49
4.0
 49
-5.0
 49
6.0
 49
-7.0
  0
LTYPE
  2
RAND5
 70
    64
  3
ランダム線5
 72
    65
 73
     4
 40
26.0
 49
5.0
 49
-6.0
 49
7.0
 49
-8.0
  0
LTYPE
  2
LONG1
 70
    64
  3
----------  --  ----------  --  
 72
    65
 73
     4
 40
40.0
 49
32.5
 49
-2.5
 49
2.5
 49
-2.5
  0
LTYPE
  2
LONG2
 70
    64
  3
--------  -  -  --------  -  -  
 72
    65
 73
     6
 40
40.0
 49
30.0
 49
-2.5
 49
1.25
 49
-2.5
 49
1.25
 49
-2.5
  0
LTYPE
  2
LONG3
 70
    64
  3
+++++++++++++++..+++++++++++++++
 72
    65
 73
     2
 40
40.0
 49
37.5
 49
-2.5
  0
LTYPE
  2
LONG4
 70
    64
  3
+++++++++++++++..+++++++++++++++
 72
    65
 73
     2
 40
80.0
 49
75.0
 49
-5.0
  0
LTYPE
  2
LONG5
 70
    64
  3
----------  --  ----------  --  
 72
    65
 73
     4
 40
60.0
 49
37.5
 49
-7.5
 49
7.5
 49
-7.5
  0
LTYPE
  2
dashed
 70
   64
  3
-------   -------------   ------
 72
   65
 73
    2
 40
7.5
 49
6
 49
-1.5
  0
LTYPE
  2
dashed_spaced
 70
   64
  3
----        --------        ----
 72
   65
 73
    2
 40
12
 49
6
 49
-6
  0
LTYPE
  2
long_dashed_dotted
 70
   64
  3
------------- --- --------------
 72
   65
 73
    4
 40
15.25
 49
12
 49
-1.5
 49
0.25
 49
-1.5
  0
LTYPE
  2
long_dashed_double-dotted
 70
   64
  3
----------- --- --- ------------
 72
   65
 73
    6
 40
17
 49
12
 49
-1.5
 49
0.25
 49
-1.5
 49
0.25
 49
-1.5
  0
LTYPE
  2
long_dashed_triplicate-dotted
 70
   64
  3
--------- --- --- --- ----------
 72
   65
 73
    8
 40
18.75
 49
12
 49
-1.5
 49
0.25
 49
-1.5
 49
0.25
 49
-1.5
 49
0.25
 49
-1.5
  0
LTYPE
  2
dotted
 70
   64
  3
   -       -       -       -    
 72
   65
 73
    2
 40
1.75
 49
0.25
 49
-1.5
  0
LTYPE
  2
chain
 70
   64
  3
-------------- -- --------------
 72
   65
 73
    4
 40
18.5
 49
12
 49
-1.5
 49
3.5
 49
-1.5
  0
LTYPE
  2
chain_double_dash
 70
   64
  3
------------ -- -- -------------
 72
   65
 73
    6
 40
23.5
 49
12
 49
-1.5
 49
3.5
 49
-1.5
 49
3.5
 49
-1.5
  0
LTYPE
  2
dashed_dotted
 70
   64
  3
-----------     -     ----------
 72
   65
 73
    4
 40
9.25
 49
6
 49
-1.5
 49
0.25
 49
-1.5
  0
LTYPE
  2
double-dashed_dotted
 70
   64
  3
------   -----------   -   -----
 72
   65
 73
    6
 40
16.75
 49
6
 49
-1.5
 49
6
 49
-1.5
 49
0.25
 49
-1.5
  0
LTYPE
  2
dashed_double-dotted
 70
   64
  3
---------    -    -    ---------
 72
   65
 73
    6
 40
11
 49
6
 49
-1.5
 49
0.25
 49
-1.5
 49
0.25
 49
-1.5
  0
LTYPE
  2
double-dashed_double-dotted
 70
   64
  3
-----   ---------   -   -   ----
 72
   65
 73
    8
 40
18.5
 49
6
 49
-1.5
 49
6
 49
-1.5
 49
0.25
 49
-1.5
 49
0.25
 49
-1.5
  0
LTYPE
  2
dashed_triplicate-dotted
 70
   64
  3
-------    -    -    -    ------
 72
   65
 73
    8
 40
12.75
 49
6
 49
-1.5
 49
0.25
 49
-1.5
 49
0.25
 49
-1.5
 49
0.25
 49
-1.5
  0
LTYPE
  2
double-dashed_triplicate-dotted
 70
   64
  3
-----  ---------  -  -  -  -----
 72
   65
 73
   10
 40
20.25
 49
6
 49
-1.5
 49
6
 49
-1.5
 49
0.25
 49
-1.5
 49
0.25
 49
-1.5
 49
0.25
 49
-1.5
  0
LTYPE
  2
undefined
 70
   64
  3
--------------------------------
 72
   65
 73
    0
 40
0
  0
LTYPE
  2
_
 70
   64
  3
                                
 72
   65
 73
    0
 40
0
  0
LTYPE
  2
__18
 70
   64
  3
                                
 72
   65
 73
    0
 40
0
  0
LTYPE
  2
__19
 70
   64
  3
                                
 72
   65
 73
    0
 40
0
  0
LTYPE
  2
__20
 70
   64
  3
                                
 72
   65
 73
    0
 40
0
  0
LTYPE
  2
__21
 70
   64
  3
                                
 72
   65
 73
    0
 40
0
  0
LTYPE
  2
__22
 70
   64
  3
                                
 72
   65
 73
    0
 40
0
  0
LTYPE
  2
__23
 70
   64
  3
                                
 72
   65
 73
    0
 40
0
  0
LTYPE
  2
__24
 70
   64
  3
                                
 72
   65
 73
    0
 40
0
  0
LTYPE
  2
__25
 70
   64
  3
                                
 72
   65
 73
    0
 40
0
  0
LTYPE
  2
__26
 70
   64
  3
                                
 72
   65
 73
    0
 40
0
  0
LTYPE
  2
__27
 70
   64
  3
                                
 72
   65
 73
    0
 40
0
  0
LTYPE
  2
__28
 70
   64
  3
                                
 72
   65
 73
    0
 40
0
  0
LTYPE
  2
__29
 70
   64
  3
                                
 72
   65
 73
    0
 40
0
  0
LTYPE
  2
__30
 70
   64
  3
                                
 72
   65
 73
    0
 40
0
  0
LTYPE
  2
__31
 70
   64
  3
                                
 72
   65
 73
    0
 40
0
  0
LTYPE
  2
__32
 70
   64
  3
                                
 72
   65
 73
    0
 40
0
  0
ENDTAB
  0
TABLE
  2
STYLE
  5
3
100
AcDbSymbolTable
 70
     1
  0
STYLE
  5
10
100
AcDbSymbolTableRecord
100
AcDbTextStyleTableRecord
  2
STANDARD
 70
     0
 40
0.0
 41
1.0
 50
0.0
 71
     0
 42
0.2
  3
txt
  4
bigfont.shx
  0
STYLE
  5
26
100
AcDbSymbolTableRecord
100
AcDbTextStyleTableRecord
  2
TATEGAKI
 70
    68
 40
0.0
 41
1.0
 50
0.0
 71
     0
 42
1.0
  3
txt
  4
bigfont.shx
  0
ENDTAB
  0
TABLE
  2
LAYER
 70
    9
  0
LAYER
  2
_0-0_90_FRAME
 70
   64
 62
    7
  6
CONTINUOUS
  0
LAYER
  2
_0-1_91_BLANK
 70
   64
 62
    7
  6
CONTINUOUS
  0
LAYER
  2
_0-2_08_DIM
 70
   64
 62
    7
  6
CONTINUOUS
  0
LAYER
  2
_0-3_07_TEXT
 70
   64
 62
    7
  6
CONTINUOUS
  0
LAYER
  2
_0-4_05_CENTER
 70
   64
 62
    7
  6
CONTINUOUS
  0
LAYER
  2
_0-5_0
 70
   64
 62
    7
  6
CONTINUOUS
  0
LAYER
  2
_0-6_04_HIDDEN
 70
   64
 62
    7
  6
CONTINUOUS
  0
LAYER
  2
_0-8_
 70
   64
 62
    7
  6
CONTINUOUS
  0
LAYER
  2
ADD_LINE
 70
   64
 62
    7
  6
CONTINUOUS
  0
ENDTAB
  0
ENDSEC
  0
SECTION
  2
BLOCKS
  0
BLOCK
  2
-000-Weld-line
 70
   64
 10
0
 20
0
 30
0
  0
LINE
  8
_0-2_08_DIM
  6
CONTINUOUS
 62
    3
 10
0
 20
0
 11
0.9999999999999998
 21
0
  0
ENDBLK
  0
BLOCK
  2
-001-Weld10-s5
 70
   64
 10
0
 20
0
 30
0
  0
CIRCLE
  8
_0-2_08_DIM
  6
CONTINUOUS
 62
    3
 10
0
 20
0
 40
1.9999999999999998
  0
ENDBLK
  0
BLOCK
  2
-002-Weld10-a1
 70
   64
 10
0
 20
0
 30
0
  0
LINE
  8
_0-2_08_DIM
  6
CONTINUOUS
 62
    3
 10
4.9999999999999991
 20
0
 11
0
 21
4.9999999999999991
  0
LINE
  8
_0-2_08_DIM
  6
CONTINUOUS
 62
    3
 10
0
 20
4.9999999999999991
 11
0
 21
0
  0
LINE
  8
_0-2_08_DIM
  6
CONTINUOUS
 62
    3
 10
0
 20
0
 11
4.9999999999999991
 21
0
  0
ENDBLK
  0
BLOCK
  2
-003-Jis_w20130906110600
 70
   64
 10
0
 20
0
 30
0
  0
INSERT
  2
-000-Weld-line
  8
_0-2_08_DIM
 10
0
 20
0
 41
14.000000000000002
 42
14.000000000000002
 50
0
  0
INSERT
  2
-001-Weld10-s5
  8
_0-2_08_DIM
 10
0
 20
0
 41
1
 42
1
 50
0
  0
INSERT
  2
-002-Weld10-a1
  8
_0-2_08_DIM
 10
5.9999999999999991
 20
0
 41
-1
 42
1
 50
180
  0
TEXT
  8
_0-2_08_DIM
 62
    3
 10
4.0000000000001128
 20
-0.9999999999999998
 40
2.7999999999999994
 41
0.9000000000000001
 50
0
  1

  0
TEXT
  8
_0-2_08_DIM
 62
    3
 10
14.000000000000114
 20
-0.9999999999999998
 40
2.7999999999999994
 41
0.9000000000000001
 50
0
  1

  0
LINE
  8
_0-2_08_DIM
  6
CONTINUOUS
 62
    3
 10
-4.6308054280802926
 20
-5.765361229938434
 11
0
 21
0
  0
ENDBLK
  0
BLOCK
  2
-004-p1ba05
 70
   64
 10
0
 20
0
 30
0
  0
ARC
  8
_0-2_08_DIM
  6
CONTINUOUS
 62
    3
 10
0
 20
1.6206695983957429
 40
1.6206695983958537
 50
204.22763733453323
 51
335.57577857182139
  0
ARC
  8
_0-2_08_DIM
  6
CONTINUOUS
 62
    3
 10
-2.9535588745990817
 20
0.2854771617432376
 40
1.6206695983958537
 50
24.227637334533135
 51
155.57577857182133
  0
ENDBLK
  0
BLOCK
  2
-005-p1ba01
 70
   64
 10
0
 20
0
 30
0
  0
LINE
  8
_0-2_08_DIM
  6
CONTINUOUS
 62
    3
 10
0
 20
0
 11
-1.4999999999999998
 21
2.5980762113532587
  0
LINE
  8
_0-2_08_DIM
  6
CONTINUOUS
 62
    3
 10
1.4999999999999998
 20
2.5980762113532587
 11
0
 21
0
  0
LINE
  8
_0-2_08_DIM
  6
CONTINUOUS
 62
    3
 10
-1.4999999999999998
 20
2.5980762113532587
 11
1.4999999999999998
 21
2.5980762113532587
  0
ENDBLK
  0
BLOCK
  2
-006-A$C67F20274_1_1
 70
   64
 10
0
 20
0
 30
0
  0
LINE
  8
_0-5_0
  6
CONTINUOUS
 62
    3
 10
0
 20
0
 11
-1.9999999999999998
 21
0
  0
LINE
  8
_0-5_0
  6
CONTINUOUS
 62
    3
 10
-1.9999999999999998
 20
0
 11
-1.9999999999999998
 21
0
  0
LINE
  8
_0-5_0
  6
CONTINUOUS
 62
    3
 10
-1.9999999999999998
 20
0
 11
0
 21
-1.9999999999999998
  0
LINE
  8
_0-5_0
  6
CONTINUOUS
 62
    3
 10
0
 20
-1.9999999999999998
 11
0
 21
0
  0
LINE
  8
_0-5_0
  6
CONTINUOUS
 62
    3
 10
-0.9999999999999998
 20
-0.9999999999999998
 11
0
 21
0.0000000000000002
  0
ENDBLK
  0
BLOCK
  2
-007-p1ba02
 70
   64
 10
0
 20
0
 30
0
  0
LINE
  8
_0-2_08_DIM
  6
CONTINUOUS
 62
    3
 10
3.0000000000000138
 20
0
 11
1.5000000000000142
 21
2.5980762113532587
  0
LINE
  8
_0-2_08_DIM
  6
CONTINUOUS
 62
    3
 10
4.5000000000000142
 20
2.5980762113532587
 11
3.0000000000000138
 21
0
  0
LINE
  8
_0-2_08_DIM
  6
CONTINUOUS
 62
    3
 10
1.5000000000000142
 20
2.5980762113532587
 11
4.5000000000000142
 21
2.5980762113532587
  0
LINE
  8
_0-2_08_DIM
  6
CONTINUOUS
 62
    3
 10
-1.4999999999999856
 20
2.5980762113532587
 11
1.5000000000000142
 21
2.5980762113532587
  0
LINE
  8
_0-2_08_DIM
  6
CONTINUOUS
 62
    3
 10
1.5000000000000142
 20
2.5980762113532587
 11
0.0000000000000142
 21
0
  0
LINE
  8
_0-2_08_DIM
  6
CONTINUOUS
 62
    3
 10
0.0000000000000142
 20
0
 11
-1.4999999999999856
 21
2.5980762113532587
  0
ENDBLK
  0
BLOCK
  2
-008-AM_BALLOON1
 70
   64
 10
0
 20
0
 30
0
  0
CIRCLE
  8
_0-2_08_DIM
  6
CONTINUOUS
 62
    3
 10
0
 20
0
 40
4.9999999999999991
  0
ENDBLK
  0
BLOCK
  2
-009-_Open30
 70
   64
 10
0
 20
0
 30
0
  0
LINE
  8
_0-2_08_DIM
  6
CONTINUOUS
 62
    3
 10
-0.9999999999999998
 20
0.2679491899999999
 11
0
 21
0
  0
LINE
  8
_0-2_08_DIM
  6
CONTINUOUS
 62
    3
 10
0
 20
0
 11
-0.9999999999999998
 21
-0.2679491899999999
  0
LINE
  8
_0-2_08_DIM
  6
CONTINUOUS
 62
    3
 10
0
 20
0
 11
-0.9999999999999998
 21
0
  0
ENDBLK
  0
BLOCK
  2
-010-_DotSmall
 70
   64
 10
0
 20
0
 30
0
  0
ARC
  8
_0-2_08_DIM
  6
CONTINUOUS
 62
    3
 10
0
 20
0
 40
0.0624999999999999
 50
180
 51
0
  0
ARC
  8
_0-2_08_DIM
  6
CONTINUOUS
 62
    3
 10
0
 20
0
 40
0.0624999999999999
 50
0
 51
180
  0
ENDBLK
  0
ENDSEC
  0
SECTION
  2
ENTITIES
  0
TEXT
  8
_0-0_90_FRAME
 62
    7
 10
5026.4858969912011
 20
1041.2209743181638
 40
25
 41
1
 50
0
  1
AT-221121-04-5
  0
TEXT
  8
_0-0_90_FRAME
 62
    7
 10
4855.2914616883572
 20
983.67719583994972
 40
25
 41
1
 50
0
  1
2025.03.25
  0
LINE
  8
_0-0_90_FRAME
  6
CONTINUOUS
 62
    5
 10
1448.2015199121245
 20
970.0978863135648
 11
5330.1666627576615
 21
970.0978863135648
  0
LINE
  8
_0-0_90_FRAME
  6
CONTINUOUS
 62
    5
 10
5330.1666627576615
 20
970.0978863135648
 11
5330.1666627576615
 21
3745.3673555883356
  0
LINE
  8
_0-0_90_FRAME
  6
CONTINUOUS
 62
    5
 10
5330.1666627576615
 20
3745.3673555883356
 11
1448.2015199121245
 21
3745.3673555883356
  0
LINE
  8
_0-0_90_FRAME
  6
CONTINUOUS
 62
    5
 10
1448.2015199121245
 20
3745.3673555883356
 11
1448.2015199121245
 21
970.0978863135648
  0
LINE
  8
_0-0_90_FRAME
  6
CONTINUOUS
 62
    5
 10
1253.972005627206
 20
2357.7326209509506
 11
1448.2015199121245
 21
2357.7326209509506
  0
LINE
  8
_0-0_90_FRAME
  6
CONTINUOUS
 62
    5
 10
5394.9763056145412
 20
2357.7326209509506
 11
5330.1666627576615
 21
2357.7326209509506
  0
LINE
  8
_0-0_90_FRAME
  6
CONTINUOUS
 62
    5
 10
3389.1840913348929
 20
3820.1769984585867
 11
3389.1840913348933
 21
3745.3673555883356
  0
LINE
  8
_0-0_90_FRAME
  6
CONTINUOUS
 62
    5
 10
3389.1840913348933
 20
905.5779984452106
 11
3389.1840913348933
 21
970.0978863135648
  0
LINE
  8
_0-0_90_FRAME
  6
CONTINUOUS
 62
    5
 10
2890.6483770511886
 20
940.18574345653656
 11
3887.719805618598
 21
940.18574345653656
  0
LINE
  8
_0-0_90_FRAME
  6
CONTINUOUS
 62
    5
 10
2890.6483770511886
 20
940.18574345653656
 11
2890.6483770511886
 21
970.0978863135648
  0
LINE
  8
_0-0_90_FRAME
  6
CONTINUOUS
 62
    5
 10
2990.3555199079319
 20
940.18574345653656
 11
2990.3555199079319
 21
970.0978863135648
  0
LINE
  8
_0-0_90_FRAME
  6
CONTINUOUS
 62
    5
 10
3090.0626627646757
 20
940.18574345653656
 11
3090.0626627646757
 21
970.0978863135648
  0
LINE
  8
_0-0_90_FRAME
  6
CONTINUOUS
 62
    5
 10
3189.7698056214062
 20
940.18574345653656
 11
3189.7698056214062
 21
970.0978863135648
  0
LINE
  8
_0-0_90_FRAME
  6
CONTINUOUS
 62
    5
 10
3289.4769484781491
 20
940.18574345653656
 11
3289.4769484781491
 21
970.0978863135648
  0
LINE
  8
_0-0_90_FRAME
  6
CONTINUOUS
 62
    5
 10
3488.8912341916239
 20
940.18574345653656
 11
3488.8912341916239
 21
970.0978863135648
  0
LINE
  8
_0-0_90_FRAME
  6
CONTINUOUS
 62
    5
 10
3588.5983770483672
 20
940.18574345653656
 11
3588.5983770483672
 21
970.0978863135648
  0
LINE
  8
_0-0_90_FRAME
  6
CONTINUOUS
 62
    5
 10
3688.30551990511
 20
940.18574345653656
 11
3688.30551990511
 21
970.0978863135648
  0
LINE
  8
_0-0_90_FRAME
  6
CONTINUOUS
 62
    5
 10
3788.0126627618542
 20
940.18574345653656
 11
3788.0126627618542
 21
970.0978863135648
  0
LINE
  8
_0-0_90_FRAME
  6
CONTINUOUS
 62
    5
 10
3887.719805618598
 20
940.18574345653656
 11
3887.719805618598
 21
970.0978863135648
  0
LINE
  8
_0-0_90_FRAME
  6
CONTINUOUS
 62
    4
 10
2385.1830163389445
 20
3745.3673555883356
 11
2385.1830163389445
 21
3810.1769984452026
  0
TEXT
  8
_0-0_90_FRAME
 62
    7
 10
1632.5222110170373
 20
3758.2758390219519
 40
19.999999999999996
 41
1
 50
0
  1
1
  0
TEXT
  8
_0-0_90_FRAME
 62
    7
 10
1876.5158121743102
 20
3758.2758390219519
 40
19.999999999999996
 41
1
 50
0
  1
2
  0
TEXT
  8
_0-0_90_FRAME
 62
    7
 10
2211.1828371729594
 20
3758.2758390219519
 40
19.999999999999996
 41
1
 50
0
  1
3
  0
TEXT
  8
_0-0_90_FRAME
 62
    7
 10
2545.8498621715962
 20
3758.2758390219519
 40
19.999999999999996
 41
1
 50
0
  1
4
  0
TEXT
  8
_0-0_90_FRAME
 62
    7
 10
2880.5168871702581
 20
3758.2758390219519
 40
19.999999999999996
 41
1
 50
0
  1
5
  0
TEXT
  8
_0-0_90_FRAME
 62
    7
 10
3215.1839121688949
 20
3758.2758390219519
 40
19.999999999999996
 41
1
 50
0
  1
6
  0
TEXT
  8
_0-0_90_FRAME
 62
    7
 10
3549.850937167545
 20
3758.2758390219519
 40
19.999999999999996
 41
1
 50
0
  1
7
  0
TEXT
  8
_0-0_90_FRAME
 62
    7
 10
3884.5179621661937
 20
3758.2758390219519
 40
19.999999999999996
 41
1
 50
0
  1
8
  0
TEXT
  8
_0-0_90_FRAME
 62
    7
 10
4219.1849871648437
 20
3758.2758390219519
 40
19.999999999999996
 41
1
 50
0
  1
9
  0
TEXT
  8
_0-0_90_FRAME
 62
    7
 10
4548.8520121634938
 20
3758.2758390219519
 40
19.999999999999996
 41
1
 50
0
  1
10
  0
TEXT
  8
_0-0_90_FRAME
 62
    7
 10
4885.1857038287972
 20
3758.2758390219519
 40
19.999999999999996
 41
1
 50
0
  1
11
  0
TEXT
  8
_0-0_90_FRAME
 62
    7
 10
5216.5193954941142
 20
3758.2758390219519
 40
19.999999999999996
 41
1
 50
0
  1
12
  0
TEXT
  8
_0-0_90_FRAME
 62
    7
 10
5343.0504768154515
 20
3235.1978568848617
 40
19.999999999999996
 41
1
 50
0
  1
B
  0
LINE
  8
_0-0_90_FRAME
  6
CONTINUOUS
 62
   18
 10
1448.2015199121245
 20
970.0978863135648
 11
1958.201519907662
 21
970.0978863135648
  0
LINE
  8
_0-0_90_FRAME
  6
CONTINUOUS
 62
   18
 10
1958.201519907662
 20
970.0978863135648
 11
1958.201519907662
 21
1111.5264577415608
  0
LINE
  8
_0-0_90_FRAME
  6
CONTINUOUS
 62
   18
 10
1958.201519907662
 20
1111.5264577415608
 11
1448.2015199121245
 21
1111.5264577415608
  0
LINE
  8
_0-0_90_FRAME
  6
CONTINUOUS
 62
   18
 10
1448.2015199121245
 20
1111.5264577415608
 11
1448.2015199121245
 21
970.0978863135648
  0
LINE
  8
_0-0_90_FRAME
  6
CONTINUOUS
 62
   18
 10
1888.201519907662
 20
970.0978863135648
 11
1888.201519907662
 21
1111.5264577415608
  0
LINE
  8
_0-0_90_FRAME
  6
CONTINUOUS
 62
   18
 10
1518.2015199076623
 20
970.0978863135648
 11
1518.2015199076623
 21
1111.5264577415608
  0
LINE
  8
_0-0_90_FRAME
  6
CONTINUOUS
 62
   18
 10
1598.2015199076623
 20
970.0978863135648
 11
1598.2015199076623
 21
1111.5264577415608
  0
LINE
  8
_0-0_90_FRAME
  6
CONTINUOUS
 62
   18
 10
1448.2015199121245
 20
1076.1693148845686
 11
1958.201519907662
 21
1076.1693148845686
  0
LINE
  8
_0-0_90_FRAME
  6
CONTINUOUS
 62
   18
 10
1448.2015199121245
 20
1040.8121720275583
 11
1958.201519907662
 21
1040.8121720275583
  0
LINE
  8
_0-0_90_FRAME
  6
CONTINUOUS
 62
   18
 10
1448.2015199121245
 20
1005.455029170566
 11
1958.201519907662
 21
1005.455029170566
  0
TEXT
  8
_0-0_90_FRAME
 62
    7
 10
1465.746974455348
 20
1087.8478863130647
 40
11.999999999999998
 41
1
 50
0
  1
記号
  0
TEXT
  8
_0-0_90_FRAME
 62
    7
 10
1539.0295930614532
 20
1087.8478863130647
 40
11.999999999999998
 41
1
 50
0
  1
日付
  0
TEXT
  8
_0-0_90_FRAME
 62
    7
 10
1897.019701725844
 20
1087.8478863130647
 40
11.999999999999998
 41
1
 50
0
  1
作成者
  0
TEXT
  8
_0-0_90_FRAME
 62
    7
 10
1703.2924289985713
 20
1087.6433408585192
 40
11.999999999999998
 41
1
 50
0
  1
改訂内容
  0
LINE
  8
_0-0_90_FRAME
  6
CONTINUOUS
 62
   18
 10
1467.2908056242377
 20
1009.2103190698296
 11
1483.2015199098932
 21
1036.7684845972824
  0
LINE
  8
_0-0_90_FRAME
  6
CONTINUOUS
 62
   18
 10
1483.2015199098932
 20
1036.7684845972824
 11
1499.1122341955397
 21
1009.2103190698296
  0
LINE
  8
_0-0_90_FRAME
  6
CONTINUOUS
 62
   18
 10
1499.1122341955397
 20
1009.2103190698296
 11
1467.2908056242377
 21
1009.2103190698296
  0
TEXT
  8
_0-0_90_FRAME
 62
    7
 10
1479.7555445654546
 20
1049.7053011065709
 40
10.607142857099999
 41
1
 50
0
  1
1
  0
TEXT
  8
_0-0_90_FRAME
 62
    7
 10
1479.7555445654546
 20
1014.3481582495698
 40
10.607142857099999
 41
1
 50
0
  1
2
  0
TEXT
  8
_0-0_90_FRAME
 62
    7
 10
1479.7555445654546
 20
978.99101539256867
 40
10.607142857099999
 41
1
 50
0
  1
3
  0
LINE
  8
_0-0_90_FRAME
  6
CONTINUOUS
 62
   18
 10
1467.2908056242377
 20
1044.5674619268307
 11
1483.2015199098932
 21
1072.1256274542927
  0
LINE
  8
_0-0_90_FRAME
  6
CONTINUOUS
 62
   18
 10
1483.2015199098932
 20
1072.1256274542927
 11
1499.1122341955397
 21
1044.5674619268307
  0
LINE
  8
_0-0_90_FRAME
  6
CONTINUOUS
 62
   18
 10
1499.1122341955397
 20
1044.5674619268307
 11
1467.2908056242377
 21
1044.5674619268307
  0
LINE
  8
_0-0_90_FRAME
  6
CONTINUOUS
 62
   18
 10
1467.2908056242377
 20
973.85317621282843
 11
1483.2015199098932
 21
1001.4113417402901
  0
LINE
  8
_0-0_90_FRAME
  6
CONTINUOUS
 62
   18
 10
1483.2015199098932
 20
1001.4113417402901
 11
1499.1122341955397
 21
973.85317621282843
  0
LINE
  8
_0-0_90_FRAME
  6
CONTINUOUS
 62
   18
 10
1499.1122341955397
 20
973.85317621282843
 11
1467.2908056242377
 21
973.85317621282843
  0
LINE
  8
_0-0_90_FRAME
  6
CONTINUOUS
 62
    4
 10
5394.9763056145412
 20
1647.760432203821
 11
5330.1666627576615
 21
1647.760432203821
  0
LINE
  8
_0-0_90_FRAME
  6
CONTINUOUS
 62
    4
 10
5394.9763056145412
 20
2002.7465265773858
 11
5330.1666627576615
 21
2002.7465265773858
  0
LINE
  8
_0-0_90_FRAME
  6
CONTINUOUS
 62
    4
 10
5394.9763056145412
 20
1292.7743378302566
 11
5330.1666627576615
 21
1292.7743378302566
  0
LINE
  8
_0-0_90_FRAME
  6
CONTINUOUS
 62
    4
 10
5394.9763056145412
 20
3067.7048096980793
 11
5330.1666627576615
 21
3067.7048096980793
  0
LINE
  8
_0-0_90_FRAME
  6
CONTINUOUS
 62
    4
 10
5394.9763056145412
 20
2712.7187153245154
 11
5330.1666627576615
 21
2712.7187153245154
  0
LINE
  8
_0-0_90_FRAME
  6
CONTINUOUS
 62
    4
 10
5394.9763056145412
 20
3422.6909040716441
 11
5330.1666627576615
 21
3422.6909040716441
  0
TEXT
  8
_0-0_90_FRAME
 62
    7
 10
5343.0504768154515
 20
3590.1839512584265
 40
19.999999999999996
 41
1
 50
0
  1
A
  0
TEXT
  8
_0-0_90_FRAME
 62
    7
 10
5343.0504768154515
 20
2880.2117625112978
 40
19.999999999999996
 41
1
 50
0
  1
C
  0
TEXT
  8
_0-0_90_FRAME
 62
    7
 10
5343.0504768154515
 20
2525.2256681377326
 40
19.999999999999996
 41
1
 50
0
  1
D
  0
TEXT
  8
_0-0_90_FRAME
 62
    7
 10
5343.0504768154515
 20
1815.2534793906034
 40
19.999999999999996
 41
1
 50
0
  1
F
  0
TEXT
  8
_0-0_90_FRAME
 62
    7
 10
5343.0504768154515
 20
1460.267385017039
 40
19.999999999999996
 41
1
 50
0
  1
G
  0
TEXT
  8
_0-0_90_FRAME
 62
    7
 10
5343.0504768154515
 20
1105.2812906434744
 40
19.999999999999996
 41
1
 50
0
  1
H
  0
TEXT
  8
_0-0_90_FRAME
 62
    7
 10
5343.0504768154515
 20
2170.2395737641677
 40
19.999999999999996
 41
1
 50
0
  1
E
  0
TEXT
  8
_0-0_90_FRAME
 62
    7
 10
1418.7587112756376
 20
3235.1978568848617
 40
19.999999999999996
 41
1
 50
0
  1
B
  0
LINE
  8
_0-0_90_FRAME
  6
CONTINUOUS
 62
    4
 10
1448.2015199121245
 20
1647.760432203821
 11
1383.3918770552577
 21
1647.760432203821
  0
LINE
  8
_0-0_90_FRAME
  6
CONTINUOUS
 62
    4
 10
1448.2015199121245
 20
2002.7465265773858
 11
1383.3918770552577
 21
2002.7465265773858
  0
LINE
  8
_0-0_90_FRAME
  6
CONTINUOUS
 62
    4
 10
1448.2015199121245
 20
1292.7743378302566
 11
1383.3918770552577
 21
1292.7743378302566
  0
LINE
  8
_0-0_90_FRAME
  6
CONTINUOUS
 62
    4
 10
1448.2015199121245
 20
3067.7048096980793
 11
1383.3918770552577
 21
3067.7048096980793
  0
LINE
  8
_0-0_90_FRAME
  6
CONTINUOUS
 62
    4
 10
1448.2015199121245
 20
2712.7187153245154
 11
1383.3918770552577
 21
2712.7187153245154
  0
LINE
  8
_0-0_90_FRAME
  6
CONTINUOUS
 62
    4
 10
1448.2015199121245
 20
3422.6909040716441
 11
1383.3918770552577
 21
3422.6909040716441
  0
TEXT
  8
_0-0_90_FRAME
 62
    7
 10
1418.7587112756376
 20
3590.1839512584265
 40
19.999999999999996
 41
1
 50
0
  1
A
  0
TEXT
  8
_0-0_90_FRAME
 62
    7
 10
1418.7587112756376
 20
2880.2117625112978
 40
19.999999999999996
 41
1
 50
0
  1
C
  0
TEXT
  8
_0-0_90_FRAME
 62
    7
 10
1418.7587112756376
 20
2525.2256681377326
 40
19.999999999999996
 41
1
 50
0
  1
D
  0
TEXT
  8
_0-0_90_FRAME
 62
    7
 10
1418.7587112756376
 20
1815.2534793906034
 40
19.999999999999996
 41
1
 50
0
  1
F
  0
TEXT
  8
_0-0_90_FRAME
 62
    7
 10
1418.7587112756376
 20
1460.267385017039
 40
19.999999999999996
 41
1
 50
0
  1
G
  0
TEXT
  8
_0-0_90_FRAME
 62
    7
 10
1418.7587112756376
 20
2170.2395737641677
 40
19.999999999999996
 41
1
 50
0
  1
E
  0
TEXT
  8
_0-0_90_FRAME
 62
    7
 10
1418.7587112756376
 20
1105.2812906434744
 40
19.999999999999996
 41
1
 50
0
  1
H
  0
LINE
  8
_0-0_90_FRAME
  6
CONTINUOUS
 62
    4
 10
2050.5159913402949
 20
3745.3673555883356
 11
2050.5159913402949
 21
3810.1769984452026
  0
LINE
  8
_0-0_90_FRAME
  6
CONTINUOUS
 62
    4
 10
1715.8489663416456
 20
3745.3673555883356
 11
1715.8489663416456
 21
3810.1769984452026
  0
LINE
  8
_0-0_90_FRAME
  6
CONTINUOUS
 62
    4
 10
2719.8500413375937
 20
3745.3673555883356
 11
2719.8500413375937
 21
3810.1769984452026
  0
LINE
  8
_0-0_90_FRAME
  6
CONTINUOUS
 62
    4
 10
3054.5170663362437
 20
3745.3673555883356
 11
3054.5170663362437
 21
3810.1769984452026
  0
LINE
  8
_0-0_90_FRAME
  6
CONTINUOUS
 62
    4
 10
4393.1851663308289
 20
3745.3673555883356
 11
4393.1851663308289
 21
3810.1769984452026
  0
LINE
  8
_0-0_90_FRAME
  6
CONTINUOUS
 62
    4
 10
4727.852191329479
 20
3745.3673555883356
 11
4727.852191329479
 21
3810.1769984452026
  0
LINE
  8
_0-0_90_FRAME
  6
CONTINUOUS
 62
    4
 10
5062.5192163281281
 20
3745.3673555883356
 11
5062.5192163281281
 21
3810.1769984452026
  0
LINE
  8
_0-0_90_FRAME
  6
CONTINUOUS
 62
    4
 10
4058.5181413321798
 20
3745.3673555883356
 11
4058.5181413321798
 21
3810.1769984452026
  0
LINE
  8
_0-0_90_FRAME
  6
CONTINUOUS
 62
    4
 10
3723.8511163335424
 20
3745.3673555883356
 11
3723.8511163335424
 21
3810.1769984452026
  0
LINE
  8
_0-0_90_FRAME
  6
CONTINUOUS
 62
    4
 10
2385.1830163389445
 20
905.5779984452106
 11
2385.1830163389445
 21
970.0978863135648
  0
LINE
  8
_0-0_90_FRAME
  6
CONTINUOUS
 62
    4
 10
2050.5159913402949
 20
905.5779984452106
 11
2050.5159913402949
 21
970.0978863135648
  0
LINE
  8
_0-0_90_FRAME
  6
CONTINUOUS
 62
    4
 10
1715.8489663416456
 20
905.5779984452106
 11
1715.8489663416456
 21
970.0978863135648
  0
LINE
  8
_0-0_90_FRAME
  6
CONTINUOUS
 62
    4
 10
2719.8500413375937
 20
905.5779984452106
 11
2719.8500413375937
 21
970.0978863135648
  0
LINE
  8
_0-0_90_FRAME
  6
CONTINUOUS
 62
    4
 10
4393.1851663308289
 20
905.5779984452106
 11
4393.1851663308289
 21
970.0978863135648
  0
LINE
  8
_0-0_90_FRAME
  6
CONTINUOUS
 62
    4
 10
4727.852191329479
 20
905.5779984452106
 11
4727.852191329479
 21
970.0978863135648
  0
LINE
  8
_0-0_90_FRAME
  6
CONTINUOUS
 62
    4
 10
5062.5192163281281
 20
905.5779984452106
 11
5062.5192163281281
 21
970.0978863135648
  0
LINE
  8
_0-0_90_FRAME
  6
CONTINUOUS
 62
    4
 10
4058.5181413321798
 20
905.5779984452106
 11
4058.5181413321798
 21
970.0978863135648
  0
LINE
  8
_0-1_91_BLANK
  6
CONTINUOUS
 62
    5
 10
1253.9720056109713
 20
905.5779984452106
 11
5394.9763056076627
 21
905.5779984452106
  0
LINE
  8
_0-1_91_BLANK
  6
CONTINUOUS
 62
    5
 10
5394.9763056076627
 20
905.5779984452106
 11
5394.9763056076627
 21
3820.1769984585867
  0
LINE
  8
_0-1_91_BLANK
  6
CONTINUOUS
 62
    5
 10
5394.9763056076627
 20
3820.1769984585867
 11
1253.9720056109713
 21
3820.1769984585867
  0
LINE
  8
_0-1_91_BLANK
  6
CONTINUOUS
 62
    5
 10
1253.9720056109713
 20
3820.1769984585867
 11
1253.9720056109713
 21
905.5779984452106
  0
LINE
  8
_0-0_90_FRAME
  6
CONTINUOUS
 62
   18
 10
4340.1666627616596
 20
970.0978863135648
 11
5330.1666627576615
 21
970.0978863135648
  0
LINE
  8
_0-0_90_FRAME
  6
CONTINUOUS
 62
   18
 10
5330.1666627576615
 20
970.0978863135648
 11
5330.1666627576615
 21
1153.955029169965
  0
LINE
  8
_0-0_90_FRAME
  6
CONTINUOUS
 62
   18
 10
5330.1666627576615
 20
1153.955029169965
 11
4340.1666627616596
 21
1153.955029169965
  0
LINE
  8
_0-0_90_FRAME
  6
CONTINUOUS
 62
   18
 10
4340.1666627616596
 20
1153.955029169965
 11
4340.1666627616596
 21
970.0978863135648
  0
LINE
  8
_0-0_90_FRAME
  6
CONTINUOUS
 62
   18
 10
4418.1291627613482
 20
1122.133600598663
 11
4467.6291627611472
 21
1134.5086005986145
  0
LINE
  8
_0-0_90_FRAME
  6
CONTINUOUS
 62
   18
 10
4467.6291627611472
 20
1134.5086005986145
 11
4467.6291627611472
 21
1085.0086005988167
  0
LINE
  8
_0-0_90_FRAME
  6
CONTINUOUS
 62
   18
 10
4467.6291627611472
 20
1085.0086005988167
 11
4418.1291627613482
 21
1097.3836005987637
  0
LINE
  8
_0-0_90_FRAME
  6
CONTINUOUS
 62
   18
 10
4418.1291627613482
 20
1097.3836005987637
 11
4418.1291627613482
 21
1122.133600598663
  0
CIRCLE
  8
_0-0_90_FRAME
  6
CONTINUOUS
 62
   18
 10
4385.9541627614744
 20
1109.7586005987112
 40
12.374999999949999
  0
CIRCLE
  8
_0-0_90_FRAME
  6
CONTINUOUS
 62
   18
 10
4385.9541627614744
 20
1109.7586005987112
 40
24.749999999899998
  0
LINE
  8
_0-0_90_FRAME
  6
CONTINUOUS
 62
   18
 10
4356.2541627615947
 20
1109.7586005987112
 11
4472.5791627611234
 21
1109.7586005987112
  0
LINE
  8
_0-0_90_FRAME
  6
CONTINUOUS
 62
   18
 10
4385.9541627614744
 20
1080.0586005988359
 11
4385.9541627614744
 21
1139.4586005985955
  0
LINE
  8
_0-0_90_FRAME
  6
CONTINUOUS
 62
   18
 10
4745.7023770456608
 20
970.0978863135648
 11
4745.7023770456608
 21
1153.955029169965
  0
LINE
  8
_0-0_90_FRAME
  6
CONTINUOUS
 62
   18
 10
4745.7023770456608
 20
1026.6693148847637
 11
5330.1666627576615
 21
1026.6693148847637
  0
TEXT
  8
_0-0_90_FRAME
 62
    7
 10
4748.2375858328132
 20
1009.0795136509039
 40
12.5
 41
1
 50
0
  1
作 成 日
  0
LINE
  8
_0-0_90_FRAME
  6
CONTINUOUS
 62
   18
 10
5091.3809484728581
 20
1026.6693148847637
 11
5091.3809484728581
 21
970.0978863135648
  0
TEXT
  8
_0-0_90_FRAME
 62
    7
 10
5094.3495572072761
 20
1008.7338089768306
 40
12.5
 41
1
 50
0
  1
個数
  0
TEXT
  8
_0-0_90_FRAME
 62
    7
 10
4628.802113257676
 20
1137.5661887390422
 40
12.5
 41
1
 50
0
  1
サイズ
  0
TEXT
  8
_0-0_90_FRAME
 62
    7
 10
4490.9092561153802
 20
1136.6339195770067
 40
12.5
 41
1
 50
0
  1
尺　度
  0
TEXT
  8
_0-0_90_FRAME
 62
    7
 10
4628.8021894397725
 20
1049.1733315965437
 40
12.5
 41
1
 50
0
  1
製　図
  0
LINE
  8
_0-0_90_FRAME
  6
CONTINUOUS
 62
   18
 10
4745.7023770456608
 20
1065.5621720274617
 11
4340.1666627616596
 21
1065.5621720274617
  0
LINE
  8
_0-0_90_FRAME
  6
CONTINUOUS
 62
   18
 10
4934.5118799172515
 20
1083.2407434559623
 11
5330.1666627576615
 21
1083.2407434559623
  0
TEXT
  8
_0-0_90_FRAME
 62
    7
 10
4669.887293652173
 20
1086.7783612949129
 40
25
 41
1
 50
0
  1
A1
  0
LINE
  8
_0-0_90_FRAME
  6
CONTINUOUS
 62
   18
 10
4626.5595199033596
 20
970.0978863135648
 11
4626.5595199033596
 21
1153.955029169965
  0
TEXT
  8
_0-0_90_FRAME
 62
    2
 10
4427.6429788052956
 20
989.55366375685276
 40
25
 41
1
 50
0
  1
アクアトリム
  0
LINE
  8
_0-0_90_FRAME
  6
CONTINUOUS
 62
    4
 10
4419.952021076967
 20
1053.4535759137223
 11
4419.952021076967
 21
979.48768314401798
  0
LINE
  8
_0-0_90_FRAME
  6
CONTINUOUS
 62
    4
 10
4419.952021076967
 20
979.48768314401798
 11
4352.7103003772363
 21
979.48768314401798
  0
LINE
  8
_0-0_90_FRAME
  6
CONTINUOUS
 62
    4
 10
4352.7103003772363
 20
979.48768314401798
 11
4352.7103003772363
 21
1053.4535759137223
  0
LINE
  8
_0-0_90_FRAME
  6
CONTINUOUS
 62
    4
 10
4353.030499047235
 20
1053.1333772437206
 11
4353.030499047235
 21
1053.1333772437206
  0
LINE
  8
_0-0_90_FRAME
  6
CONTINUOUS
 62
    4
 10
4353.030499047235
 20
1053.1333772437206
 11
4353.195893314748
 21
1051.4653197776211
  0
LINE
  8
_0-0_90_FRAME
  6
CONTINUOUS
 62
    4
 10
4353.195893314748
 20
1051.4653197776211
 11
4353.6870506961614
 21
1049.8479453935513
  0
LINE
  8
_0-0_90_FRAME
  6
CONTINUOUS
 62
    4
 10
4353.6870506961614
 20
1049.8479453935513
 11
4354.4890476229775
 21
1048.3303971937401
  0
LINE
  8
_0-0_90_FRAME
  6
CONTINUOUS
 62
    4
 10
4354.4890476229775
 20
1048.3303971937401
 11
4355.5775158244069
 21
1046.9587851123222
  0
LINE
  8
_0-0_90_FRAME
  6
CONTINUOUS
 62
    4
 10
4355.5775158244069
 20
1046.9587851123222
 11
4356.9193827449399
 21
1045.7747848883228
  0
LINE
  8
_0-0_90_FRAME
  6
CONTINUOUS
 62
    4
 10
4356.9193827449399
 20
1045.7747848883228
 11
4358.4738764372132
 21
1044.8143717694145
  0
LINE
  8
_0-0_90_FRAME
  6
CONTINUOUS
 62
    4
 10
4358.4738764372132
 20
1044.8143717694145
 11
4360.1937643969995
 21
1044.1067274222232
  0
LINE
  8
_0-0_90_FRAME
  6
CONTINUOUS
 62
    4
 10
4360.1937643969995
 20
1044.1067274222232
 11
4362.026788698945
 21
1043.6733532621529
  0
LINE
  8
_0-0_90_FRAME
  6
CONTINUOUS
 62
    4
 10
4362.026788698945
 20
1043.6733532621529
 11
4363.9172538271914
 21
1043.5274171437593
  0
LINE
  8
_0-0_90_FRAME
  6
CONTINUOUS
 62
    4
 10
4363.9172538271914
 20
1043.5274171437593
 11
4365.8077189554378
 21
1043.6733532621529
  0
LINE
  8
_0-0_90_FRAME
  6
CONTINUOUS
 62
    4
 10
4365.8077189554378
 20
1043.6733532621529
 11
4367.6407432573833
 21
1044.1067274222232
  0
LINE
  8
_0-0_90_FRAME
  6
CONTINUOUS
 62
    4
 10
4367.6407432573833
 20
1044.1067274222232
 11
4369.3606312171696
 21
1044.8143717694145
  0
LINE
  8
_0-0_90_FRAME
  6
CONTINUOUS
 62
    4
 10
4369.3606312171696
 20
1044.8143717694145
 11
4370.915124909443
 21
1045.7747848883228
  0
LINE
  8
_0-0_90_FRAME
  6
CONTINUOUS
 62
    4
 10
4370.915124909443
 20
1045.7747848883228
 11
4372.256991829976
 21
1046.9587851123222
  0
LINE
  8
_0-0_90_FRAME
  6
CONTINUOUS
 62
    4
 10
4372.256991829976
 20
1046.9587851123222
 11
4373.3454600314053
 21
1048.3303971937401
  0
LINE
  8
_0-0_90_FRAME
  6
CONTINUOUS
 62
    4
 10
4373.3454600314053
 20
1048.3303971937401
 11
4374.1474569582215
 21
1049.8479453935513
  0
LINE
  8
_0-0_90_FRAME
  6
CONTINUOUS
 62
    4
 10
4374.1474569582215
 20
1049.8479453935513
 11
4374.6386143396348
 21
1051.4653197776211
  0
LINE
  8
_0-0_90_FRAME
  6
CONTINUOUS
 62
    4
 10
4374.6386143396348
 20
1051.4653197776211
 11
4374.8040086071478
 21
1053.1333772437206
  0
LINE
  8
_0-0_90_FRAME
  6
CONTINUOUS
 62
    4
 10
4374.8040086071478
 20
1053.1333772437206
 11
4374.8040086071478
 21
1053.1333772437206
  0
ARC
  8
_0-0_90_FRAME
  6
CONTINUOUS
 62
    4
 10
4375.1242072771456
 20
1053.1333772437206
 40
0.3201986699987063
 50
0
 51
180
  0
LINE
  8
_0-0_90_FRAME
  6
CONTINUOUS
 62
    4
 10
4375.4444059471452
 20
1053.1333772437206
 11
4375.4444059471452
 21
1053.1333772437206
  0
LINE
  8
_0-0_90_FRAME
  6
CONTINUOUS
 62
    4
 10
4375.4444059471452
 20
1053.1333772437206
 11
4375.6098002146582
 21
1051.4653197776211
  0
LINE
  8
_0-0_90_FRAME
  6
CONTINUOUS
 62
    4
 10
4375.6098002146582
 20
1051.4653197776211
 11
4376.1009575960716
 21
1049.8479453935513
  0
LINE
  8
_0-0_90_FRAME
  6
CONTINUOUS
 62
    4
 10
4376.1009575960716
 20
1049.8479453935513
 11
4376.9029545228877
 21
1048.3303971937401
  0
LINE
  8
_0-0_90_FRAME
  6
CONTINUOUS
 62
    4
 10
4376.9029545228877
 20
1048.3303971937401
 11
4377.9914227243171
 21
1046.9587851123222
  0
LINE
  8
_0-0_90_FRAME
  6
CONTINUOUS
 62
    4
 10
4377.9914227243171
 20
1046.9587851123222
 11
4379.3332896448501
 21
1045.7747848883228
  0
LINE
  8
_0-0_90_FRAME
  6
CONTINUOUS
 62
    4
 10
4379.3332896448501
 20
1045.7747848883228
 11
4380.8877833371234
 21
1044.8143717694145
  0
LINE
  8
_0-0_90_FRAME
  6
CONTINUOUS
 62
    4
 10
4380.8877833371234
 20
1044.8143717694145
 11
4382.6076712969098
 21
1044.1067274222232
  0
LINE
  8
_0-0_90_FRAME
  6
CONTINUOUS
 62
    4
 10
4382.6076712969098
 20
1044.1067274222232
 11
4384.4406955988552
 21
1043.6733532621529
  0
LINE
  8
_0-0_90_FRAME
  6
CONTINUOUS
 62
    4
 10
4384.4406955988552
 20
1043.6733532621529
 11
4386.3311607271016
 21
1043.5274171437593
  0
LINE
  8
_0-0_90_FRAME
  6
CONTINUOUS
 62
    4
 10
4386.3311607271016
 20
1043.5274171437593
 11
4388.2216258553481
 21
1043.6733532621529
  0
LINE
  8
_0-0_90_FRAME
  6
CONTINUOUS
 62
    4
 10
4388.2216258553481
 20
1043.6733532621529
 11
4390.0546501572935
 21
1044.1067274222232
  0
LINE
  8
_0-0_90_FRAME
  6
CONTINUOUS
 62
    4
 10
4390.0546501572935
 20
1044.1067274222232
 11
4391.7745381170798
 21
1044.8143717694145
  0
LINE
  8
_0-0_90_FRAME
  6
CONTINUOUS
 62
    4
 10
4391.7745381170798
 20
1044.8143717694145
 11
4393.3290318093532
 21
1045.7747848883228
  0
LINE
  8
_0-0_90_FRAME
  6
CONTINUOUS
 62
    4
 10
4393.3290318093532
 20
1045.7747848883228
 11
4394.6708987298862
 21
1046.9587851123222
  0
LINE
  8
_0-0_90_FRAME
  6
CONTINUOUS
 62
    4
 10
4394.6708987298862
 20
1046.9587851123222
 11
4395.7593669313155
 21
1048.3303971937401
  0
LINE
  8
_0-0_90_FRAME
  6
CONTINUOUS
 62
    4
 10
4395.7593669313155
 20
1048.3303971937401
 11
4396.5613638581317
 21
1049.8479453935513
  0
LINE
  8
_0-0_90_FRAME
  6
CONTINUOUS
 62
    4
 10
4396.5613638581317
 20
1049.8479453935513
 11
4397.0525212395451
 21
1051.4653197776211
  0
LINE
  8
_0-0_90_FRAME
  6
CONTINUOUS
 62
    4
 10
4397.0525212395451
 20
1051.4653197776211
 11
4397.217915507058
 21
1053.1333772437206
  0
LINE
  8
_0-0_90_FRAME
  6
CONTINUOUS
 62
    4
 10
4397.217915507058
 20
1053.1333772437206
 11
4397.217915507058
 21
1053.1333772437206
  0
ARC
  8
_0-0_90_FRAME
  6
CONTINUOUS
 62
    4
 10
4397.5381141770567
 20
1053.1333772437206
 40
0.3201986699987063
 50
0
 51
180
  0
LINE
  8
_0-0_90_FRAME
  6
CONTINUOUS
 62
    4
 10
4397.8583128470545
 20
1053.1333772437206
 11
4397.8583128470545
 21
1053.1333772437206
  0
LINE
  8
_0-0_90_FRAME
  6
CONTINUOUS
 62
    4
 10
4397.8583128470545
 20
1053.1333772437206
 11
4398.0237071145675
 21
1051.4653197776211
  0
LINE
  8
_0-0_90_FRAME
  6
CONTINUOUS
 62
    4
 10
4398.0237071145675
 20
1051.4653197776211
 11
4398.5148644959809
 21
1049.8479453935513
  0
LINE
  8
_0-0_90_FRAME
  6
CONTINUOUS
 62
    4
 10
4398.5148644959809
 20
1049.8479453935513
 11
4399.316861422797
 21
1048.3303971937401
  0
LINE
  8
_0-0_90_FRAME
  6
CONTINUOUS
 62
    4
 10
4399.316861422797
 20
1048.3303971937401
 11
4400.4053296242264
 21
1046.9587851123222
  0
LINE
  8
_0-0_90_FRAME
  6
CONTINUOUS
 62
    4
 10
4400.4053296242264
 20
1046.9587851123222
 11
4401.7471965447594
 21
1045.7747848883228
  0
LINE
  8
_0-0_90_FRAME
  6
CONTINUOUS
 62
    4
 10
4401.7471965447594
 20
1045.7747848883228
 11
4403.3016902370327
 21
1044.8143717694145
  0
LINE
  8
_0-0_90_FRAME
  6
CONTINUOUS
 62
    4
 10
4403.3016902370327
 20
1044.8143717694145
 11
4405.0215781968191
 21
1044.1067274222232
  0
LINE
  8
_0-0_90_FRAME
  6
CONTINUOUS
 62
    4
 10
4405.0215781968191
 20
1044.1067274222232
 11
4406.8546024987645
 21
1043.6733532621529
  0
LINE
  8
_0-0_90_FRAME
  6
CONTINUOUS
 62
    4
 10
4406.8546024987645
 20
1043.6733532621529
 11
4408.7450676270109
 21
1043.5274171437593
  0
LINE
  8
_0-0_90_FRAME
  6
CONTINUOUS
 62
    4
 10
4408.7450676270109
 20
1043.5274171437593
 11
4410.6355327552574
 21
1043.6733532621529
  0
LINE
  8
_0-0_90_FRAME
  6
CONTINUOUS
 62
    4
 10
4410.6355327552574
 20
1043.6733532621529
 11
4412.4685570572028
 21
1044.1067274222232
  0
LINE
  8
_0-0_90_FRAME
  6
CONTINUOUS
 62
    4
 10
4412.4685570572028
 20
1044.1067274222232
 11
4414.1884450169891
 21
1044.8143717694145
  0
LINE
  8
_0-0_90_FRAME
  6
CONTINUOUS
 62
    4
 10
4414.1884450169891
 20
1044.8143717694145
 11
4415.7429387092625
 21
1045.7747848883228
  0
LINE
  8
_0-0_90_FRAME
  6
CONTINUOUS
 62
    4
 10
4415.7429387092625
 20
1045.7747848883228
 11
4417.0848056297955
 21
1046.9587851123222
  0
LINE
  8
_0-0_90_FRAME
  6
CONTINUOUS
 62
    4
 10
4417.0848056297955
 20
1046.9587851123222
 11
4418.1732738312248
 21
1048.3303971937401
  0
LINE
  8
_0-0_90_FRAME
  6
CONTINUOUS
 62
    4
 10
4418.1732738312248
 20
1048.3303971937401
 11
4418.975270758041
 21
1049.8479453935513
  0
LINE
  8
_0-0_90_FRAME
  6
CONTINUOUS
 62
    4
 10
4418.975270758041
 20
1049.8479453935513
 11
4419.4664281394544
 21
1051.4653197776211
  0
LINE
  8
_0-0_90_FRAME
  6
CONTINUOUS
 62
    4
 10
4419.4664281394544
 20
1051.4653197776211
 11
4419.6318224069673
 21
1053.1333772437206
  0
LINE
  8
_0-0_90_FRAME
  6
CONTINUOUS
 62
    4
 10
4419.6318224069673
 20
1053.1333772437206
 11
4419.6318224069673
 21
1053.1333772437206
  0
ARC
  8
_0-0_90_FRAME
  6
CONTINUOUS
 62
    4
 10
4419.952021076967
 20
1053.1333772437206
 40
0.3201986699987063
 50
90
 51
180
  0
ARC
  8
_0-0_90_FRAME
  6
CONTINUOUS
 62
    4
 10
4375.1242072771456
 20
1053.1333772437206
 40
0.3201986699987063
 50
0
 51
90
  0
ARC
  8
_0-0_90_FRAME
  6
CONTINUOUS
 62
    4
 10
4352.7103003772363
 20
1053.1333772437206
 40
0.3201986699987063
 50
0
 51
90
  0
LINE
  8
_0-0_90_FRAME
  6
CONTINUOUS
 62
    4
 10
4360.3950684572073
 20
989.0936432439795
 11
4364.2374524971883
 21
989.0936432439795
  0
LINE
  8
_0-0_90_FRAME
  6
CONTINUOUS
 62
    4
 10
4364.2374524971883
 20
989.0936432439795
 11
4364.2374524971883
 21
985.25125920399626
  0
LINE
  8
_0-0_90_FRAME
  6
CONTINUOUS
 62
    4
 10
4364.2374524971883
 20
985.25125920399626
 11
4360.3950684572073
 21
985.25125920399626
  0
LINE
  8
_0-0_90_FRAME
  6
CONTINUOUS
 62
    4
 10
4360.3950684572073
 20
989.0936432439795
 11
4360.3950684572073
 21
985.25125920399626
  0
LINE
  8
_0-0_90_FRAME
  6
CONTINUOUS
 62
    4
 10
4412.2672529969959
 20
989.0936432439795
 11
4408.424868957015
 21
989.0936432439795
  0
LINE
  8
_0-0_90_FRAME
  6
CONTINUOUS
 62
    4
 10
4408.424868957015
 20
989.0936432439795
 11
4408.424868957015
 21
985.25125920399626
  0
LINE
  8
_0-0_90_FRAME
  6
CONTINUOUS
 62
    4
 10
4408.424868957015
 20
985.25125920399626
 11
4412.2672529969959
 21
985.25125920399626
  0
LINE
  8
_0-0_90_FRAME
  6
CONTINUOUS
 62
    4
 10
4412.2672529969959
 20
989.0936432439795
 11
4412.2672529969959
 21
985.25125920399626
  0
LINE
  8
_0-0_90_FRAME
  6
CONTINUOUS
 62
    4
 10
4370.0010285571689
 20
989.0936432439795
 11
4373.8434125971498
 21
989.0936432439795
  0
LINE
  8
_0-0_90_FRAME
  6
CONTINUOUS
 62
    4
 10
4373.8434125971498
 20
989.0936432439795
 11
4373.8434125971498
 21
985.25125920399626
  0
LINE
  8
_0-0_90_FRAME
  6
CONTINUOUS
 62
    4
 10
4373.8434125971498
 20
985.25125920399626
 11
4370.0010285571689
 21
985.25125920399626
  0
LINE
  8
_0-0_90_FRAME
  6
CONTINUOUS
 62
    4
 10
4370.0010285571689
 20
989.0936432439795
 11
4370.0010285571689
 21
985.25125920399626
  0
LINE
  8
_0-0_90_FRAME
  6
CONTINUOUS
 62
    4
 10
4379.6069886571304
 20
989.0936432439795
 11
4383.4493726971114
 21
989.0936432439795
  0
LINE
  8
_0-0_90_FRAME
  6
CONTINUOUS
 62
    4
 10
4383.4493726971114
 20
989.0936432439795
 11
4383.4493726971114
 21
985.25125920399626
  0
LINE
  8
_0-0_90_FRAME
  6
CONTINUOUS
 62
    4
 10
4383.4493726971114
 20
985.25125920399626
 11
4379.6069886571304
 21
985.25125920399626
  0
LINE
  8
_0-0_90_FRAME
  6
CONTINUOUS
 62
    4
 10
4379.6069886571304
 20
989.0936432439795
 11
4379.6069886571304
 21
985.25125920399626
  0
LINE
  8
_0-0_90_FRAME
  6
CONTINUOUS
 62
    4
 10
4389.2129487570919
 20
989.0936432439795
 11
4393.0553327970729
 21
989.0936432439795
  0
LINE
  8
_0-0_90_FRAME
  6
CONTINUOUS
 62
    4
 10
4393.0553327970729
 20
989.0936432439795
 11
4393.0553327970729
 21
985.25125920399626
  0
LINE
  8
_0-0_90_FRAME
  6
CONTINUOUS
 62
    4
 10
4393.0553327970729
 20
985.25125920399626
 11
4389.2129487570919
 21
985.25125920399626
  0
LINE
  8
_0-0_90_FRAME
  6
CONTINUOUS
 62
    4
 10
4389.2129487570919
 20
989.0936432439795
 11
4389.2129487570919
 21
985.25125920399626
  0
LINE
  8
_0-0_90_FRAME
  6
CONTINUOUS
 62
    4
 10
4398.8189088570534
 20
989.0936432439795
 11
4402.6612928970344
 21
989.0936432439795
  0
LINE
  8
_0-0_90_FRAME
  6
CONTINUOUS
 62
    4
 10
4402.6612928970344
 20
989.0936432439795
 11
4402.6612928970344
 21
985.25125920399626
  0
LINE
  8
_0-0_90_FRAME
  6
CONTINUOUS
 62
    4
 10
4402.6612928970344
 20
985.25125920399626
 11
4398.8189088570534
 21
985.25125920399626
  0
LINE
  8
_0-0_90_FRAME
  6
CONTINUOUS
 62
    4
 10
4398.8189088570534
 20
989.0936432439795
 11
4398.8189088570534
 21
985.25125920399626
  0
LINE
  8
_0-0_90_FRAME
  6
CONTINUOUS
 62
    4
 10
4386.2913741427592
 20
1025.6557777368832
 11
4386.2913741427592
 21
1025.6557777368832
  0
LINE
  8
_0-0_90_FRAME
  6
CONTINUOUS
 62
    4
 10
4386.2913741427592
 20
1025.6557777368832
 11
4386.1794897853242
 21
1026.8790198786896
  0
LINE
  8
_0-0_90_FRAME
  6
CONTINUOUS
 62
    4
 10
4386.1794897853242
 20
1026.8790198786896
 11
4385.8472362626035
 21
1028.0650944270074
  0
LINE
  8
_0-0_90_FRAME
  6
CONTINUOUS
 62
    4
 10
4385.8472362626035
 20
1028.0650944270074
 11
4385.304708929757
 21
1029.1779631068689
  0
LINE
  8
_0-0_90_FRAME
  6
CONTINUOUS
 62
    4
 10
4385.304708929757
 20
1029.1779631068689
 11
4384.5683922052604
 21
1030.1838119665754
  0
LINE
  8
_0-0_90_FRAME
  6
CONTINUOUS
 62
    4
 10
4384.5683922052604
 20
1030.1838119665754
 11
4383.6606587001943
 21
1031.0520787975083
  0
LINE
  8
_0-0_90_FRAME
  6
CONTINUOUS
 62
    4
 10
4383.6606587001943
 20
1031.0520787975083
 11
4382.6090894377739
 21
1031.7563817513744
  0
LINE
  8
_0-0_90_FRAME
  6
CONTINUOUS
 62
    4
 10
4382.6090894377739
 20
1031.7563817513744
 11
4381.4456358179186
 21
1032.2753209393147
  0
LINE
  8
_0-0_90_FRAME
  6
CONTINUOUS
 62
    4
 10
4381.4456358179186
 20
1032.2753209393147
 11
4380.2056487901318
 21
1032.5931286566995
  0
LINE
  8
_0-0_90_FRAME
  6
CONTINUOUS
 62
    4
 10
4380.2056487901318
 20
1032.5931286566995
 11
4378.9268047327887
 21
1032.7001484768548
  0
LINE
  8
_0-0_90_FRAME
  6
CONTINUOUS
 62
    4
 10
4378.9268047327887
 20
1032.7001484768548
 11
4377.6479606754456
 21
1032.5931286566995
  0
LINE
  8
_0-0_90_FRAME
  6
CONTINUOUS
 62
    4
 10
4377.6479606754456
 20
1032.5931286566995
 11
4376.4079736476588
 21
1032.2753209393147
  0
LINE
  8
_0-0_90_FRAME
  6
CONTINUOUS
 62
    4
 10
4376.4079736476588
 20
1032.2753209393147
 11
4375.2445200278034
 21
1031.7563817513744
  0
LINE
  8
_0-0_90_FRAME
  6
CONTINUOUS
 62
    4
 10
4375.2445200278034
 20
1031.7563817513744
 11
4374.1929507653831
 21
1031.0520787975083
  0
LINE
  8
_0-0_90_FRAME
  6
CONTINUOUS
 62
    4
 10
4374.1929507653831
 20
1031.0520787975083
 11
4373.285217260317
 21
1030.1838119665754
  0
LINE
  8
_0-0_90_FRAME
  6
CONTINUOUS
 62
    4
 10
4373.285217260317
 20
1030.1838119665754
 11
4372.5489005358204
 21
1029.1779631068691
  0
LINE
  8
_0-0_90_FRAME
  6
CONTINUOUS
 62
    4
 10
4372.5489005358204
 20
1029.1779631068691
 11
4372.0063732029739
 21
1028.0650944270074
  0
LINE
  8
_0-0_90_FRAME
  6
CONTINUOUS
 62
    4
 10
4372.0063732029739
 20
1028.0650944270074
 11
4371.6741196802532
 21
1026.8790198786896
  0
LINE
  8
_0-0_90_FRAME
  6
CONTINUOUS
 62
    4
 10
4371.6741196802532
 20
1026.8790198786896
 11
4371.5622353228182
 21
1025.6557777368832
  0
LINE
  8
_0-0_90_FRAME
  6
CONTINUOUS
 62
    4
 10
4371.5622353228182
 20
1025.6557777368832
 11
4371.5622353228182
 21
1025.6557777368832
  0
LINE
  8
_0-0_90_FRAME
  6
CONTINUOUS
 62
    4
 10
4386.2913741427574
 20
1025.6557777368832
 11
4386.2913741427574
 21
1023.7345857168904
  0
LINE
  8
_0-0_90_FRAME
  6
CONTINUOUS
 62
    4
 10
4382.8167384444669
 20
1017.7530507425428
 11
4382.8167384444669
 21
1017.7530507425428
  0
LINE
  8
_0-0_90_FRAME
  6
CONTINUOUS
 62
    4
 10
4382.8167384444669
 20
1017.7530507425428
 11
4381.671746115172
 21
1017.1978124902776
  0
LINE
  8
_0-0_90_FRAME
  6
CONTINUOUS
 62
    4
 10
4381.671746115172
 20
1017.1978124902776
 11
4380.4433501309813
 21
1016.8411907847362
  0
LINE
  8
_0-0_90_FRAME
  6
CONTINUOUS
 62
    4
 10
4380.4433501309813
 20
1016.8411907847362
 11
4379.1688746822756
 21
1016.6940213959822
  0
LINE
  8
_0-0_90_FRAME
  6
CONTINUOUS
 62
    4
 10
4379.1688746822756
 20
1016.6940213959822
 11
4377.8870440606479
 21
1016.7607759914215
  0
LINE
  8
_0-0_90_FRAME
  6
CONTINUOUS
 62
    4
 10
4377.8870440606479
 20
1016.7607759914215
 11
4376.6368060408986
 21
1017.0394262664512
  0
LINE
  8
_0-0_90_FRAME
  6
CONTINUOUS
 62
    4
 10
4376.6368060408986
 20
1017.0394262664512
 11
4375.4561484726082
 21
1017.5215055734683
  0
LINE
  8
_0-0_90_FRAME
  6
CONTINUOUS
 62
    4
 10
4375.4561484726082
 20
1017.5215055734683
 11
4374.3809450385452
 21
1018.1923661766731
  0
LINE
  8
_0-0_90_FRAME
  6
CONTINUOUS
 62
    4
 10
4374.3809450385452
 20
1018.1923661766731
 11
4373.4438652509771
 21
1019.0316243161089
  0
LINE
  8
_0-0_90_FRAME
  6
CONTINUOUS
 62
    4
 10
4373.4438652509771
 20
1019.0316243161089
 11
4372.6733818050616
 21
1020.0137795578943
  0
LINE
  8
_0-0_90_FRAME
  6
CONTINUOUS
 62
    4
 10
4372.6733818050616
 20
1020.0137795578943
 11
4372.0929054504204
 21
1021.1089896120019
  0
LINE
  8
_0-0_90_FRAME
  6
CONTINUOUS
 62
    4
 10
4372.0929054504204
 20
1021.1089896120019
 11
4371.7200736673549
 21
1022.2839770751408
  0
LINE
  8
_0-0_90_FRAME
  6
CONTINUOUS
 62
    4
 10
4371.7200736673549
 20
1022.2839770751408
 11
4371.5662147609301
 21
1023.5030405478159
  0
LINE
  8
_0-0_90_FRAME
  6
CONTINUOUS
 62
    4
 10
4371.5662147609301
 20
1023.5030405478159
 11
4371.5622353228182
 21
1023.7345857168904
  0
LINE
  8
_0-0_90_FRAME
  6
CONTINUOUS
 62
    4
 10
4383.6227878221534
 20
1025.467378977364
 11
4383.6227878221534
 21
1023.9304253613701
  0
LINE
  8
_0-0_90_FRAME
  6
CONTINUOUS
 62
    4
 10
4401.2198699571736
 20
1023.1553387389291
 11
4401.2198699571736
 21
1032.7001484768559
  0
LINE
  8
_0-0_90_FRAME
  6
CONTINUOUS
 62
    4
 10
4398.3380819271833
 20
1023.7345857168904
 11
4398.3380819271833
 21
1032.7001484768559
  0
LINE
  8
_0-0_90_FRAME
  6
CONTINUOUS
 62
    4
 10
4398.3380819271833
 20
1032.7001484768559
 11
4401.2198699571736
 21
1032.7001484768559
  0
LINE
  8
_0-0_90_FRAME
  6
CONTINUOUS
 62
    4
 10
4387.7715258172266
 20
1023.1553387389291
 11
4387.7715258172266
 21
1032.7001484768559
  0
LINE
  8
_0-0_90_FRAME
  6
CONTINUOUS
 62
    4
 10
4390.6533138472169
 20
1023.7345857168904
 11
4390.6533138472169
 21
1032.7001484768559
  0
ARC
  8
_0-0_90_FRAME
  6
CONTINUOUS
 62
    4
 10
4394.5404557411048
 20
1023.4449622279133
 40
6.7751231781982479
 50
182.45003099226136
 51
265.55525728852427
  0
LINE
  8
_0-0_90_FRAME
  6
CONTINUOUS
 62
    4
 10
4390.6533138472169
 20
1032.7001484768559
 11
4387.7715258172266
 21
1032.7001484768559
  0
LINE
  8
_0-0_90_FRAME
  6
CONTINUOUS
 62
    4
 10
4394.9759958921977
 20
1016.6902149769199
 11
4394.0153998822016
 21
1016.6902149769199
  0
ARC
  8
_0-0_90_FRAME
  6
CONTINUOUS
 62
    4
 10
4396.3695038532269
 20
1023.6600354736104
 40
5.7166761254783021
 50
179.25279388138676
 51
218.96457184688023
  0
ARC
  8
_0-0_90_FRAME
  6
CONTINUOUS
 62
    4
 10
4392.6218919211724
 20
1023.6600354736104
 40
5.716676125477659
 50
321.03542815311977
 51
0.747206118613265
  0
ARC
  8
_0-0_90_FRAME
  6
CONTINUOUS
 62
    4
 10
4394.4956978872033
 20
1024.7338307534387
 40
5.3298281685001587
 50
241.15772780831895
 51
298.84227219168099
  0
LINE
  8
_0-0_90_FRAME
  6
CONTINUOUS
 62
    4
 10
4379.5474987957659
 20
1020.9348037433617
 11
4380.8549419261744
 21
1019.6623485089385
  0
LINE
  8
_0-0_90_FRAME
  6
CONTINUOUS
 62
    4
 10
4379.5474987957659
 20
1020.9348037433617
 11
4380.9658052840332
 21
1022.4408477064862
  0
LINE
  8
_0-0_90_FRAME
  6
CONTINUOUS
 62
    4
 10
4385.0429276201767
 20
1015.5864356114032
 11
4386.8960852038854
 21
1017.5542308762166
  0
LINE
  8
_0-0_90_FRAME
  6
CONTINUOUS
 62
    4
 10
4374.2308216434249
 20
1025.467378977364
 11
4374.2308216434249
 21
1023.9304253613701
  0
LINE
  8
_0-0_90_FRAME
  6
CONTINUOUS
 62
    4
 10
4383.6227878221525
 20
1025.467378977364
 11
4383.6227878221525
 21
1025.467378977364
  0
LINE
  8
_0-0_90_FRAME
  6
CONTINUOUS
 62
    4
 10
4383.6227878221525
 20
1025.467378977364
 11
4383.5514452872085
 21
1026.2785208961425
  0
LINE
  8
_0-0_90_FRAME
  6
CONTINUOUS
 62
    4
 10
4383.5514452872085
 20
1026.2785208961425
 11
4383.3395853891989
 21
1027.0650166781763
  0
LINE
  8
_0-0_90_FRAME
  6
CONTINUOUS
 62
    4
 10
4383.3395853891989
 20
1027.0650166781763
 11
4382.99364538392
 21
1027.8029690471149
  0
LINE
  8
_0-0_90_FRAME
  6
CONTINUOUS
 62
    4
 10
4382.99364538392
 20
1027.8029690471149
 11
4382.5241364833764
 21
1028.4699556936496
  0
LINE
  8
_0-0_90_FRAME
  6
CONTINUOUS
 62
    4
 10
4382.5241364833764
 20
1028.4699556936496
 11
4381.9453244779288
 21
1029.0457105660371
  0
LINE
  8
_0-0_90_FRAME
  6
CONTINUOUS
 62
    4
 10
4381.9453244779288
 20
1029.0457105660371
 11
4381.2747962774702
 21
1029.5127396438259
  0
LINE
  8
_0-0_90_FRAME
  6
CONTINUOUS
 62
    4
 10
4381.2747962774702
 20
1029.5127396438259
 11
4380.5329255420675
 21
1029.8568524848156
  0
LINE
  8
_0-0_90_FRAME
  6
CONTINUOUS
 62
    4
 10
4380.5329255420675
 20
1029.8568524848156
 11
4379.7422536386111
 21
1030.0675933944622
  0
LINE
  8
_0-0_90_FRAME
  6
CONTINUOUS
 62
    4
 10
4379.7422536386111
 20
1030.0675933944622
 11
4378.9268047327887
 21
1030.138559116866
  0
LINE
  8
_0-0_90_FRAME
  6
CONTINUOUS
 62
    4
 10
4378.9268047327887
 20
1030.138559116866
 11
4378.1113558269662
 21
1030.0675933944622
  0
LINE
  8
_0-0_90_FRAME
  6
CONTINUOUS
 62
    4
 10
4378.1113558269662
 20
1030.0675933944622
 11
4377.3206839235099
 21
1029.8568524848156
  0
LINE
  8
_0-0_90_FRAME
  6
CONTINUOUS
 62
    4
 10
4377.3206839235099
 20
1029.8568524848156
 11
4376.5788131881072
 21
1029.5127396438259
  0
LINE
  8
_0-0_90_FRAME
  6
CONTINUOUS
 62
    4
 10
4376.5788131881072
 20
1029.5127396438259
 11
4375.9082849876486
 21
1029.0457105660371
  0
LINE
  8
_0-0_90_FRAME
  6
CONTINUOUS
 62
    4
 10
4375.9082849876486
 20
1029.0457105660371
 11
4375.329472982201
 21
1028.4699556936496
  0
LINE
  8
_0-0_90_FRAME
  6
CONTINUOUS
 62
    4
 10
4375.329472982201
 20
1028.4699556936496
 11
4374.8599640816574
 21
1027.8029690471149
  0
LINE
  8
_0-0_90_FRAME
  6
CONTINUOUS
 62
    4
 10
4374.8599640816574
 20
1027.8029690471149
 11
4374.5140240763785
 21
1027.0650166781763
  0
LINE
  8
_0-0_90_FRAME
  6
CONTINUOUS
 62
    4
 10
4374.5140240763785
 20
1027.0650166781763
 11
4374.3021641783689
 21
1026.2785208961425
  0
LINE
  8
_0-0_90_FRAME
  6
CONTINUOUS
 62
    4
 10
4374.3021641783689
 20
1026.2785208961425
 11
4374.2308216434249
 21
1025.467378977364
  0
LINE
  8
_0-0_90_FRAME
  6
CONTINUOUS
 62
    4
 10
4374.2308216434249
 20
1025.467378977364
 11
4374.2308216434249
 21
1025.467378977364
  0
LINE
  8
_0-0_90_FRAME
  6
CONTINUOUS
 62
    4
 10
4380.8549419261735
 20
1019.662348508938
 11
4380.8549419261735
 21
1019.662348508938
  0
LINE
  8
_0-0_90_FRAME
  6
CONTINUOUS
 62
    4
 10
4380.8549419261735
 20
1019.662348508938
 11
4380.0821064387028
 21
1019.393921727117
  0
LINE
  8
_0-0_90_FRAME
  6
CONTINUOUS
 62
    4
 10
4380.0821064387028
 20
1019.393921727117
 11
4379.2741676935084
 21
1019.2631082251169
  0
LINE
  8
_0-0_90_FRAME
  6
CONTINUOUS
 62
    4
 10
4379.2741676935084
 20
1019.2631082251169
 11
4378.4556745005266
 21
1019.2738827050011
  0
LINE
  8
_0-0_90_FRAME
  6
CONTINUOUS
 62
    4
 10
4378.4556745005266
 20
1019.2738827050011
 11
4377.651496361249
 21
1019.4259177896507
  0
LINE
  8
_0-0_90_FRAME
  6
CONTINUOUS
 62
    4
 10
4377.651496361249
 20
1019.4259177896507
 11
4376.8860678215033
 21
1019.7145939699518
  0
LINE
  8
_0-0_90_FRAME
  6
CONTINUOUS
 62
    4
 10
4376.8860678215033
 20
1019.7145939699518
 11
4376.1826460401444
 21
1020.1311399662434
  0
LINE
  8
_0-0_90_FRAME
  6
CONTINUOUS
 62
    4
 10
4376.1826460401444
 20
1020.1311399662434
 11
4375.5626041320502
 21
1020.6628992392104
  0
LINE
  8
_0-0_90_FRAME
  6
CONTINUOUS
 62
    4
 10
4375.5626041320502
 20
1020.6628992392104
 11
4375.044781756842
 21
1021.293714552427
  0
LINE
  8
_0-0_90_FRAME
  6
CONTINUOUS
 62
    4
 10
4375.044781756842
 20
1021.293714552427
 11
4374.6449126853586
 21
1022.004418901809
  0
LINE
  8
_0-0_90_FRAME
  6
CONTINUOUS
 62
    4
 10
4374.6449126853586
 20
1022.004418901809
 11
4374.3751467369957
 21
1022.7734178953343
  0
LINE
  8
_0-0_90_FRAME
  6
CONTINUOUS
 62
    4
 10
4374.3751467369957
 20
1022.7734178953343
 11
4374.2436806135838
 21
1023.5773458877168
  0
LINE
  8
_0-0_90_FRAME
  6
CONTINUOUS
 62
    4
 10
4374.2436806135838
 20
1023.5773458877168
 11
4374.2308157483085
 21
1023.9229844764097
  0
LINE
  8
_0-0_90_FRAME
  6
CONTINUOUS
 62
    4
 10
4357.5159527847945
 20
1016.6902149769199
 11
4360.390124128664
 21
1016.6902149769199
  0
LINE
  8
_0-0_90_FRAME
  6
CONTINUOUS
 62
    4
 10
4357.5159527847945
 20
1016.6902149769199
 11
4357.5159527847945
 21
1016.767062657718
  0
LINE
  8
_0-0_90_FRAME
  6
CONTINUOUS
 62
    4
 10
4357.5159527847945
 20
1016.767062657718
 11
4363.5531050864683
 21
1032.7001484768559
  0
LINE
  8
_0-0_90_FRAME
  6
CONTINUOUS
 62
    4
 10
4357.5159527847945
 20
1016.6902149769199
 11
4357.5159527847945
 21
1016.767062657718
  0
LINE
  8
_0-0_90_FRAME
  6
CONTINUOUS
 62
    4
 10
4361.9571169666833
 20
1020.9109955011828
 11
4367.8679671568416
 21
1020.9109955011828
  0
LINE
  8
_0-0_90_FRAME
  6
CONTINUOUS
 62
    4
 10
4362.8236513019392
 20
1023.3445053931721
 11
4367.0014328215921
 21
1023.3445053931721
  0
LINE
  8
_0-0_90_FRAME
  6
CONTINUOUS
 62
    4
 10
4372.2450916047328
 20
1016.6902149769199
 11
4369.3709202608688
 21
1016.6902149769199
  0
LINE
  8
_0-0_90_FRAME
  6
CONTINUOUS
 62
    4
 10
4369.3709202608688
 20
1016.6902149769199
 11
4367.8679671568416
 21
1020.9109955011828
  0
LINE
  8
_0-0_90_FRAME
  6
CONTINUOUS
 62
    4
 10
4372.2450916047328
 20
1016.767062657718
 11
4366.2079393030599
 21
1032.7001484768559
  0
LINE
  8
_0-0_90_FRAME
  6
CONTINUOUS
 62
    4
 10
4372.2450916047328
 20
1016.6902149769199
 11
4372.2450916047328
 21
1016.767062657718
  0
LINE
  8
_0-0_90_FRAME
  6
CONTINUOUS
 62
    4
 10
4363.5531050864683
 20
1032.7001484768559
 11
4366.2079393030599
 21
1032.7001484768559
  0
LINE
  8
_0-0_90_FRAME
  6
CONTINUOUS
 62
    4
 10
4367.0014328215921
 20
1023.3445053931721
 11
4364.8805221947641
 21
1029.3007113742167
  0
LINE
  8
_0-0_90_FRAME
  6
CONTINUOUS
 62
    4
 10
4380.9658052840332
 20
1022.4408477064862
 11
4386.8960852038854
 21
1017.5542308762166
  0
LINE
  8
_0-0_90_FRAME
  6
CONTINUOUS
 62
    4
 10
4382.8167384444687
 20
1017.7530507425441
 11
4385.0429276201767
 21
1015.5864356114032
  0
LINE
  8
_0-0_90_FRAME
  6
CONTINUOUS
 62
    4
 10
4361.9571169666833
 20
1020.9109955011828
 11
4362.8236513019392
 21
1023.3445053931721
  0
LINE
  8
_0-0_90_FRAME
  6
CONTINUOUS
 62
    4
 10
4386.2913741427592
 20
1023.7345857168904
 11
4386.2913741427592
 21
1023.7345857168904
  0
LINE
  8
_0-0_90_FRAME
  6
CONTINUOUS
 62
    4
 10
4386.2913741427592
 20
1023.7345857168904
 11
4386.1794897853242
 21
1022.5113435750841
  0
LINE
  8
_0-0_90_FRAME
  6
CONTINUOUS
 62
    4
 10
4386.1794897853242
 20
1022.5113435750841
 11
4385.8472362626035
 21
1021.3252690267661
  0
LINE
  8
_0-0_90_FRAME
  6
CONTINUOUS
 62
    4
 10
4385.8472362626035
 20
1021.3252690267661
 11
4385.304708929757
 21
1020.2124003469046
  0
LINE
  8
_0-0_90_FRAME
  6
CONTINUOUS
 62
    4
 10
4385.304708929757
 20
1020.2124003469046
 11
4384.7384841694875
 21
1019.4078428948242
  0
LINE
  8
_0-0_90_FRAME
  6
CONTINUOUS
 62
    4
 10
4383.6227937172689
 20
1023.9229844764097
 11
4383.6227937172689
 21
1023.9229844764097
  0
LINE
  8
_0-0_90_FRAME
  6
CONTINUOUS
 62
    4
 10
4383.6227937172689
 20
1023.9229844764097
 11
4383.5514510927642
 21
1023.1115825865884
  0
LINE
  8
_0-0_90_FRAME
  6
CONTINUOUS
 62
    4
 10
4383.5514510927642
 20
1023.1115825865884
 11
4383.3395909287965
 21
1022.3248347326002
  0
LINE
  8
_0-0_90_FRAME
  6
CONTINUOUS
 62
    4
 10
4383.3395909287965
 20
1022.3248347326002
 11
4382.9936504892403
 21
1021.5866458498748
  0
LINE
  8
_0-0_90_FRAME
  6
CONTINUOUS
 62
    4
 10
4382.9936504892403
 20
1021.5866458498748
 11
4382.6750779452814
 21
1021.1081126492286
  0
LINE
  8
_0-0_90_FRAME
  6
CONTINUOUS
 62
    4
 10
4371.5622353228191
 20
1025.6557777368832
 11
4371.5622353228191
 21
1023.7345857168904
  0
LINE
  8
_0-0_90_FRAME
  6
CONTINUOUS
 62
    4
 10
4360.390124128664
 20
1016.6902149769199
 11
4364.8805221947641
 21
1029.3007113742167
  0
LINE
  8
_0-0_90_FRAME
  6
CONTINUOUS
 62
    4
 10
4401.0576271894633
 20
1016.6902149769199
 11
4403.9317985333328
 21
1016.6902149769199
  0
LINE
  8
_0-0_90_FRAME
  6
CONTINUOUS
 62
    4
 10
4401.0576271894633
 20
1016.6902149769199
 11
4401.0576271894633
 21
1016.767062657718
  0
LINE
  8
_0-0_90_FRAME
  6
CONTINUOUS
 62
    4
 10
4401.0576271894633
 20
1016.767062657718
 11
4407.0947794911426
 21
1032.7001484768559
  0
LINE
  8
_0-0_90_FRAME
  6
CONTINUOUS
 62
    4
 10
4401.0576271894633
 20
1016.6902149769199
 11
4401.0576271894633
 21
1016.767062657718
  0
LINE
  8
_0-0_90_FRAME
  6
CONTINUOUS
 62
    4
 10
4405.4987913713576
 20
1020.9109955011828
 11
4411.4096415615149
 21
1020.9109955011828
  0
LINE
  8
_0-0_90_FRAME
  6
CONTINUOUS
 62
    4
 10
4406.365325706608
 20
1023.3445053931721
 11
4410.5431072262645
 21
1023.3445053931721
  0
LINE
  8
_0-0_90_FRAME
  6
CONTINUOUS
 62
    4
 10
4415.7867660094071
 20
1016.6902149769199
 11
4412.9125946655386
 21
1016.6902149769199
  0
LINE
  8
_0-0_90_FRAME
  6
CONTINUOUS
 62
    4
 10
4412.9125946655386
 20
1016.6902149769199
 11
4411.4096415615149
 21
1020.9109955011828
  0
LINE
  8
_0-0_90_FRAME
  6
CONTINUOUS
 62
    4
 10
4415.7867660094071
 20
1016.767062657718
 11
4409.7496137077333
 21
1032.7001484768559
  0
LINE
  8
_0-0_90_FRAME
  6
CONTINUOUS
 62
    4
 10
4415.7867660094071
 20
1016.6902149769199
 11
4415.7867660094071
 21
1016.767062657718
  0
LINE
  8
_0-0_90_FRAME
  6
CONTINUOUS
 62
    4
 10
4407.0947794911426
 20
1032.7001484768559
 11
4409.7496137077333
 21
1032.7001484768559
  0
LINE
  8
_0-0_90_FRAME
  6
CONTINUOUS
 62
    4
 10
4410.5431072262645
 20
1023.3445053931721
 11
4408.4221965994375
 21
1029.3007113742167
  0
LINE
  8
_0-0_90_FRAME
  6
CONTINUOUS
 62
    4
 10
4405.4987913713576
 20
1020.9109955011828
 11
4406.365325706608
 21
1023.3445053931721
  0
LINE
  8
_0-0_90_FRAME
  6
CONTINUOUS
 62
    4
 10
4403.9317985333328
 20
1016.6902149769199
 11
4408.4221965994375
 21
1029.3007113742167
  0
ARC
  8
_0-0_90_FRAME
  6
CONTINUOUS
 62
    4
 10
4394.4509400332945
 20
1023.4449622279133
 40
6.7751231781982479
 50
274.44474271147573
 51
357.5499690077387
  0
LINE
  8
_0-0_90_FRAME
  6
CONTINUOUS
 62
    4
 10
4382.6750779452841
 20
1021.1081126492305
 11
4384.7384841694902
 21
1019.4078428948249
  0
LINE
  8
_0-0_90_FRAME
  6
CONTINUOUS
 62
    4
 10
4383.7957855318673
 20
1005.3551461190399
 11
4383.7957855318673
 21
1005.3551461190399
  0
LINE
  8
_0-0_90_FRAME
  6
CONTINUOUS
 62
    4
 10
4383.7957855318673
 20
1005.3551461190399
 11
4384.6028776729891
 21
1005.6814126769463
  0
LINE
  8
_0-0_90_FRAME
  6
CONTINUOUS
 62
    4
 10
4384.6028776729891
 20
1005.6814126769463
 11
4385.3281768747302
 21
1006.1169196427137
  0
LINE
  8
_0-0_90_FRAME
  6
CONTINUOUS
 62
    4
 10
4385.3281768747302
 20
1006.1169196427137
 11
4385.9496452878657
 21
1006.6484343575644
  0
LINE
  8
_0-0_90_FRAME
  6
CONTINUOUS
 62
    4
 10
4385.9496452878657
 20
1006.6484343575644
 11
4386.448399909139
 21
1007.2598070158471
  0
LINE
  8
_0-0_90_FRAME
  6
CONTINUOUS
 62
    4
 10
4386.448399909139
 20
1007.2598070158471
 11
4386.8092863317661
 21
1007.9324613687094
  0
LINE
  8
_0-0_90_FRAME
  6
CONTINUOUS
 62
    4
 10
4386.8092863317661
 20
1007.9324613687094
 11
4387.0213392044116
 21
1008.645959154019
  0
LINE
  8
_0-0_90_FRAME
  6
CONTINUOUS
 62
    4
 10
4387.0213392044116
 20
1008.645959154019
 11
4387.078115407845
 21
1009.3786211026166
  0
LINE
  8
_0-0_90_FRAME
  6
CONTINUOUS
 62
    4
 10
4387.078115407845
 20
1009.3786211026166
 11
4386.9778898258546
 21
1010.108185651939
  0
LINE
  8
_0-0_90_FRAME
  6
CONTINUOUS
 62
    4
 10
4386.9778898258546
 20
1010.108185651939
 11
4386.7237077620339
 21
1010.8124853523325
  0
LINE
  8
_0-0_90_FRAME
  6
CONTINUOUS
 62
    4
 10
4386.7237077620339
 20
1010.8124853523325
 11
4386.3232924097683
 21
1011.4701204137933
  0
LINE
  8
_0-0_90_FRAME
  6
CONTINUOUS
 62
    4
 10
4386.3232924097683
 20
1011.4701204137933
 11
4385.7888101869166
 21
1012.0611089277586
  0
LINE
  8
_0-0_90_FRAME
  6
CONTINUOUS
 62
    4
 10
4385.7888101869166
 20
1012.0611089277586
 11
4385.136501065359
 21
1012.5674940072859
  0
LINE
  8
_0-0_90_FRAME
  6
CONTINUOUS
 62
    4
 10
4385.136501065359
 20
1012.5674940072859
 11
4384.3861851276706
 21
1012.9738893979771
  0
LINE
  8
_0-0_90_FRAME
  6
CONTINUOUS
 62
    4
 10
4384.3861851276706
 20
1012.9738893979771
 11
4383.5606603439392
 21
1013.2679469815321
  0
LINE
  8
_0-0_90_FRAME
  6
CONTINUOUS
 62
    4
 10
4383.5606603439392
 20
1013.2679469815321
 11
4382.6850098669829
 21
1013.4407319670748
  0
LINE
  8
_0-0_90_FRAME
  6
CONTINUOUS
 62
    4
 10
4382.6850098669829
 20
1013.4407319670748
 11
4381.9109473928147
 21
1013.4882282769316
  0
LINE
  8
_0-0_90_FRAME
  6
CONTINUOUS
 62
    4
 10
4393.0300350499938
 20
1000.0398841369857
 11
4393.0300350499938
 21
1010.9266389169417
  0
LINE
  8
_0-0_90_FRAME
  6
CONTINUOUS
 62
    4
 10
4390.1482470200026
 20
1000.0398841369857
 11
4390.1482470200026
 21
1010.9266389169417
  0
LINE
  8
_0-0_90_FRAME
  6
CONTINUOUS
 62
    4
 10
4389.8280483500021
 20
1013.4882282769328
 11
4393.3502337199907
 21
1013.4882282769328
  0
LINE
  8
_0-0_90_FRAME
  6
CONTINUOUS
 62
    4
 10
4374.5463779828488
 20
1013.4882282769328
 11
4374.5463779828488
 21
997.47829477699702
  0
LINE
  8
_0-0_90_FRAME
  6
CONTINUOUS
 62
    4
 10
4389.8280483500021
 20
997.47829477699702
 11
4393.3502337199907
 21
997.47829477699702
  0
LINE
  8
_0-0_90_FRAME
  6
CONTINUOUS
 62
    4
 10
4393.3502337199907
 20
997.47829477699702
 11
4393.3502337199907
 21
999.71968546698895
  0
ARC
  8
_0-0_90_FRAME
  6
CONTINUOUS
 62
    4
 10
4393.3502337199907
 20
1000.0398841369857
 40
0.3201986699987063
 50
180
 51
270
  0
LINE
  8
_0-0_90_FRAME
  6
CONTINUOUS
 62
    4
 10
4389.8280483500021
 20
997.47829477699702
 11
4389.8280483500021
 21
999.71968546698895
  0
ARC
  8
_0-0_90_FRAME
  6
CONTINUOUS
 62
    4
 10
4389.8280483500021
 20
1000.0398841369857
 40
0.3201986699987063
 50
270
 51
0
  0
LINE
  8
_0-0_90_FRAME
  6
CONTINUOUS
 62
    4
 10
4393.3502337199907
 20
1013.4882282769328
 11
4393.3502337199907
 21
1011.2468375869407
  0
ARC
  8
_0-0_90_FRAME
  6
CONTINUOUS
 62
    4
 10
4393.3502337199907
 20
1010.9266389169417
 40
0.3201986699987063
 50
90
 51
180
  0
LINE
  8
_0-0_90_FRAME
  6
CONTINUOUS
 62
    4
 10
4389.8280483500021
 20
1013.4882282769328
 11
4389.8280483500021
 21
1011.2468375869407
  0
ARC
  8
_0-0_90_FRAME
  6
CONTINUOUS
 62
    4
 10
4389.8280483500021
 20
1010.9266389169417
 40
0.3201986699987063
 50
0
 51
90
  0
LINE
  8
_0-0_90_FRAME
  6
CONTINUOUS
 62
    4
 10
4367.598118868329
 20
997.47829477699702
 11
4367.598118868329
 21
1010.9266389169417
  0
LINE
  8
_0-0_90_FRAME
  6
CONTINUOUS
 62
    4
 10
4364.7163308383433
 20
997.47829477699702
 11
4364.7163308383433
 21
1010.9266389169417
  0
LINE
  8
_0-0_90_FRAME
  6
CONTINUOUS
 62
    4
 10
4359.5931521183657
 20
1013.4882282769328
 11
4372.7212975883112
 21
1013.4882282769328
  0
LINE
  8
_0-0_90_FRAME
  6
CONTINUOUS
 62
    4
 10
4364.7163308383433
 20
997.47829477699702
 11
4367.598118868329
 21
997.47829477699702
  0
LINE
  8
_0-0_90_FRAME
  6
CONTINUOUS
 62
    4
 10
4372.7212975883112
 20
1013.4882282769328
 11
4372.7212975883112
 21
1011.2468375869407
  0
ARC
  8
_0-0_90_FRAME
  6
CONTINUOUS
 62
    4
 10
4367.9183175383305
 20
1010.9266389169417
 40
0.3201986699987063
 50
90
 51
180
  0
LINE
  8
_0-0_90_FRAME
  6
CONTINUOUS
 62
    4
 10
4359.5931521183657
 20
1013.4882282769328
 11
4359.5931521183657
 21
1011.2468375869407
  0
ARC
  8
_0-0_90_FRAME
  6
CONTINUOUS
 62
    4
 10
4364.3961321683464
 20
1010.9266389169417
 40
0.3201986699987063
 50
0
 51
90
  0
LINE
  8
_0-0_90_FRAME
  6
CONTINUOUS
 62
    4
 10
4359.5931521183657
 20
1011.2468375869407
 11
4364.3961321683464
 21
1011.2468375869407
  0
LINE
  8
_0-0_90_FRAME
  6
CONTINUOUS
 62
    4
 10
4367.9183175383305
 20
1011.2468375869407
 11
4372.7212975883112
 21
1011.2468375869407
  0
LINE
  8
_0-0_90_FRAME
  6
CONTINUOUS
 62
    4
 10
4374.5463779828488
 20
997.47829477699702
 11
4377.4281660128345
 21
997.47829477699702
  0
LINE
  8
_0-0_90_FRAME
  6
CONTINUOUS
 62
    4
 10
4377.4281660128345
 20
997.47829477699702
 11
4377.4281660128345
 21
1011.2468375869407
  0
LINE
  8
_0-0_90_FRAME
  6
CONTINUOUS
 62
    4
 10
4374.5463779828488
 20
1013.4882282769328
 11
4381.9109473928147
 21
1013.4882282769328
  0
LINE
  8
_0-0_90_FRAME
  6
CONTINUOUS
 62
    4
 10
4377.4281660128345
 20
1011.2468375869407
 11
4382.2951857968173
 21
1011.2468375869407
  0
LINE
  8
_0-0_90_FRAME
  6
CONTINUOUS
 62
    4
 10
4377.5242256138308
 20
1005.0651336676806
 11
4377.5242256138308
 21
1007.3065243576726
  0
LINE
  8
_0-0_90_FRAME
  6
CONTINUOUS
 62
    4
 10
4377.5242256138308
 20
1005.0651336676806
 11
4380.6684381110035
 21
1005.0651336676806
  0
LINE
  8
_0-0_90_FRAME
  6
CONTINUOUS
 62
    4
 10
4377.5242256138308
 20
1007.3065243576726
 11
4382.2951857968173
 21
1007.3065243576726
  0
ARC
  8
_0-0_90_FRAME
  6
CONTINUOUS
 62
    4
 10
4382.2264877286143
 20
1009.2766809723067
 40
1.9713539790611523
 50
271.99705710435398
 51
88.002942895541636
  0
LINE
  8
_0-0_90_FRAME
  6
CONTINUOUS
 62
    4
 10
4384.2939013086761
 20
997.47829477699702
 11
4387.3998284076615
 21
997.47829477699702
  0
LINE
  8
_0-0_90_FRAME
  6
CONTINUOUS
 62
    4
 10
4384.6409003874587
 20
1004.3625970308899
 11
4387.3998284076615
 21
997.60637424499657
  0
LINE
  8
_0-0_90_FRAME
  6
CONTINUOUS
 62
    4
 10
4381.8565697620143
 20
1004.2626466210863
 11
4384.2939013086761
 21
997.47829477699702
  0
ARC
  8
_0-0_90_FRAME
  6
CONTINUOUS
 62
    4
 10
4380.6684381110035
 20
1003.7843389876884
 40
1.2807946799948255
 50
21.928297866550249
 51
90
  0
ARC
  8
_0-0_90_FRAME
  6
CONTINUOUS
 62
    4
 10
4382.7035781875538
 20
1003.5691114745075
 40
2.0935225421386505
 50
22.272952259980951
 51
58.553113012863221
  0
LINE
  8
_0-0_90_FRAME
  6
CONTINUOUS
 62
    4
 10
4387.3998284076615
 20
997.60637424499657
 11
4387.3998284076615
 21
997.47829477699702
  0
LINE
  8
_0-0_90_FRAME
  6
CONTINUOUS
 62
    4
 10
4396.2351419061733
 20
1013.4882282769328
 11
4396.2351419061733
 21
997.47829477699702
  0
LINE
  8
_0-0_90_FRAME
  6
CONTINUOUS
 62
    4
 10
4396.2351419061733
 20
997.47829477699702
 11
4399.1169299361645
 21
997.47829477699702
  0
LINE
  8
_0-0_90_FRAME
  6
CONTINUOUS
 62
    4
 10
4399.1169299361645
 20
997.47829477699702
 11
4399.1142763060743
 21
1008.685248226952
  0
LINE
  8
_0-0_90_FRAME
  6
CONTINUOUS
 62
    4
 10
4396.2351419061733
 20
1013.4882282769328
 11
4400.416805049601
 21
1013.4882282769328
  0
LINE
  8
_0-0_90_FRAME
  6
CONTINUOUS
 62
    4
 10
4409.3659410062091
 20
1008.685248226952
 11
4409.3659410062091
 21
997.47829477699702
  0
LINE
  8
_0-0_90_FRAME
  6
CONTINUOUS
 62
    4
 10
4409.3659410062091
 20
997.47829477699702
 11
4412.2477290361958
 21
997.47829477699702
  0
LINE
  8
_0-0_90_FRAME
  6
CONTINUOUS
 62
    4
 10
4412.2477290361958
 20
997.47829477699702
 11
4412.2477290361958
 21
1013.4882282769328
  0
LINE
  8
_0-0_90_FRAME
  6
CONTINUOUS
 62
    4
 10
4402.7992146411525
 20
997.47829477699702
 11
4405.6810026711373
 21
997.47829477699702
  0
LINE
  8
_0-0_90_FRAME
  6
CONTINUOUS
 62
    4
 10
4412.2477290361958
 20
1013.4882282769328
 11
4408.0634122626834
 21
1013.4882282769328
  0
LINE
  8
_0-0_90_FRAME
  6
CONTINUOUS
 62
    4
 10
4405.6810026711373
 20
997.47829477699702
 11
4409.3659410062091
 21
1008.685248226952
  0
LINE
  8
_0-0_90_FRAME
  6
CONTINUOUS
 62
    4
 10
4402.7992146411525
 20
997.47829477699702
 11
4399.1142763060743
 21
1008.685248226952
  0
LINE
  8
_0-0_90_FRAME
  6
CONTINUOUS
 62
    4
 10
4404.2401086561422
 20
1001.8604663858555
 11
4408.0634122626834
 21
1013.4882282769328
  0
LINE
  8
_0-0_90_FRAME
  6
CONTINUOUS
 62
    4
 10
4404.2401086561422
 20
1001.8604663858555
 11
4400.416805049601
 21
1013.4882282769328
  0
TEXT
  8
_0-0_90_FRAME
 62
    2
 10
4431.1244372494102
 20
1026.2676845957405
 40
18.901928571352201
 41
1
 50
0
  1
株式会社
  0
LINE
  8
_0-0_90_FRAME
  6
CONTINUOUS
 62
   18
 10
4488.6666627610584
 20
1065.5621720274617
 11
4488.6666627610584
 21
1153.955029169965
  0
TEXT
  8
_0-0_90_FRAME
 62
    7
 10
4653.643638829838
 20
997.12526122276051
 40
25
 41
1
 50
0
  1
寺田
  0
TEXT
  8
_0-0_90_FRAME
 62
    7
 10
4525.1257816875413
 20
1086.7783612949129
 40
25
 41
1
 50
0
  1
1：5
  0
TEXT
  8
_0-0_90_FRAME
 62
    7
 10
4749.100271894109
 20
1136.840478375161
 40
12.5
 41
1
 50
0
  1
機器
  0
LINE
  8
_0-0_90_FRAME
  6
CONTINUOUS
 62
   18
 10
4934.5118799172515
 20
1153.955029169965
 11
4934.5118799172515
 21
1026.6693148847637
  0
TEXT
  8
_0-0_90_FRAME
 62
    7
 10
4937.9097747657097
 20
1136.840478375161
 40
12.5
 41
1
 50
0
  1
部品名
  0
TEXT
  8
_0-0_90_FRAME
 62
    7
 10
4937.9097747657042
 20
1065.5011926611583
 40
12.5
 41
1
 50
0
  1
図面番号
  0
LINE
  8
_0-0_90_FRAME
  6
CONTINUOUS
 62
   18
 10
4745.7023770456608
 20
1090.3121720273655
 11
4934.5118799172515
 21
1090.3121720273655
  0
TEXT
  8
_0-0_90_FRAME
 62
    7
 10
4749.100271894109
 20
1072.5726212325612
 40
12.5
 41
1
 50
0
  1
型式
  0
LINE
  8
_0-0_90_FRAME
  6
CONTINUOUS
 62
   18
 10
4574.0595264658505
 20
1153.955029169965
 11
5330.1666627576615
 21
1153.955029169965
  0
LINE
  8
_0-0_90_FRAME
  6
CONTINUOUS
 62
    4
 10
4574.0595264658505
 20
1328.9550216715086
 11
4574.0595264658505
 21
1153.955029169965
  0
LINE
  8
_0-0_90_FRAME
  6
CONTINUOUS
 62
    4
 10
4934.5118799172515
 20
1328.9550216715086
 11
4934.5118799172515
 21
1153.955029169965
  0
LINE
  8
_0-0_90_FRAME
  6
CONTINUOUS
 62
    4
 10
5071.7324442396557
 20
1328.9550216715086
 11
5071.7324442396812
 21
1153.955029169965
  0
LINE
  8
_0-0_90_FRAME
  6
CONTINUOUS
 62
    4
 10
5036.7324486146554
 20
1328.9550216715086
 11
5036.7324486146781
 21
1153.955029169965
  0
LINE
  8
_0-0_90_FRAME
  6
CONTINUOUS
 62
    4
 10
4626.5595199033596
 20
1328.9550216715086
 11
4626.5595199033596
 21
1153.955029169965
  0
LINE
  8
_0-0_90_FRAME
  6
CONTINUOUS
 62
    4
 10
5124.2324376771721
 20
1328.9550216715086
 11
5124.2324376771721
 21
1153.955029169965
  0
INSERT
  2
-003-Jis_w20130906110600
  8
_0-2_08_DIM
 10
5065.6754906498481
 20
1446.2502437778469
 41
3
 42
3
 50
0
  0
TEXT
  8
_0-0_90_FRAME
 62
    3
 10
5051.0535340488141
 20
1197.3184011980854
 40
14.999999999999998
 41
1
 50
0
  1
1
  0
TEXT
  8
_0-0_90_FRAME
 62
    3
 10
4942.5687512066606
 20
1197.6517327118954
 40
14.999999999999998
 41
1
 50
0
  1
SS400
  0
TEXT
  8
_0-0_90_FRAME
 62
    3
 10
4650.9439374308331
 20
1197.4527708146713
 40
14.999999999999998
 41
1
 50
0
  1
ウエイト1
  0
TEXT
  8
_0-0_90_FRAME
 62
    3
 10
4594.0216476882588
 20
1197.0669048996212
 40
14.999999999999998
 41
1
 50
0
  1
5
  0
TEXT
  8
_0-0_90_FRAME
 62
    3
 10
5083.1658959622728
 20
1171.9193574140024
 40
12.5
 41
1
 50
0
  1
重量
  0
TEXT
  8
_0-0_90_FRAME
 62
    3
 10
4957.854064549334
 20
1163.8516178671357
 40
14.999999999999998
 41
1
 50
0
  1
材　質
  0
TEXT
  8
_0-0_90_FRAME
 62
    3
 10
5038.5706591778962
 20
1163.7388832274096
 40
14.999999999999998
 41
1
 50
0
  1
数量
  0
TEXT
  8
_0-0_90_FRAME
 62
    3
 10
5088.6907197894188
 20
1159.6884846775663
 40
9.9999999999999982
 41
1
 50
0
  1
kg
  0
TEXT
  8
_0-0_90_FRAME
 62
    3
 10
5191.1346095901372
 20
1163.4873869289163
 40
14.999999999999998
 41
1
 50
0
  1
備  考
  0
TEXT
  8
_0-0_90_FRAME
 62
    3
 10
4584.7494994385697
 20
1163.4873869289163
 40
14.999999999999998
 41
1
 50
0
  1
符号
  0
TEXT
  8
_0-0_90_FRAME
 62
    3
 10
4711.9105699372658
 20
1164.0318313053081
 40
14.999999999999998
 41
1
 50
0
  1
部　　品　　名
  0
LINE
  8
_0-0_90_FRAME
  6
CONTINUOUS
 62
    4
 10
4574.0594975830591
 20
1258.9550235404263
 11
5330.166633874871
 21
1258.9550235404263
  0
LINE
  8
_0-0_90_FRAME
  6
CONTINUOUS
 62
    4
 10
4574.0594975830591
 20
1223.955025409344
 11
5330.166633874871
 21
1223.955025409344
  0
LINE
  8
_0-0_90_FRAME
  6
CONTINUOUS
 62
    4
 10
4574.0594975830591
 20
1188.955025409344
 11
5330.166633874871
 21
1188.955025409344
  0
TEXT
  8
_0-0_90_FRAME
 62
    7
 10
5075.7958416695437
 20
1107.9009618311115
 40
19.999999999999996
 41
1
 50
0
  1
脱水機 部品図
  0
TEXT
  8
_0-0_90_FRAME
 62
    7
 10
4757.9063361197914
 20
1107.1833239337896
 40
15.999999999999998
 41
0.9
 50
0
  1
有機性汚泥燃料施設
  0
LINE
  8
_0-2_08_DIM
  6
CONTINUOUS
 62
    3
 10
1884.7180910130924
 20
3326.3950211577903
 11
2088.3543200950203
 21
3326.3950211577903
  0
INSERT
  2
-004-p1ba05
  8
_0-2_08_DIM
 10
1935.4313583723499
 20
3333.2329670336917
 41
7.5
 42
7.5
 50
0
  0
TEXT
  8
_0-3_07_TEXT
 62
    3
 10
1970.6879377667221
 20
3331.7917728079356
 40
22.499999999999996
 41
1
 50
0
  1
(     )
  0
LINE
  8
_0-4_05_CENTER
  6
CENTER2
 62
    4
 10
2227.8902108096931
 20
3082.2104088921524
 11
4458.2860324520498
 21
3082.2104088921528
  0
LINE
  8
_0-4_05_CENTER
  6
CENTER2
 62
    4
 10
3343.0881216308708
 20
3055.880316201039
 11
3343.0881216308708
 21
3108.5405015849096
  0
LINE
  8
_0-5_0
  6
CONTINUOUS
 62
   18
 10
2245.0881216308712
 20
3137.2104088921528
 11
2245.0881216308712
 21
3027.2104088913293
  0
LINE
  8
_0-5_0
  6
CONTINUOUS
 62
   18
 10
4441.0881216308699
 20
3137.2104088921533
 11
4441.0881216308699
 21
3027.2104088913297
  0
LINE
  8
_0-5_0
  6
CONTINUOUS
 62
   18
 10
2245.0881216308712
 20
3137.2104088921528
 11
4441.0881216308717
 21
3137.2104088921537
  0
LINE
  8
_0-5_0
  6
CONTINUOUS
 62
   18
 10
4441.0881216308717
 20
3137.2104088921537
 11
4443.0881216308708
 21
3135.2104088921537
  0
LINE
  8
_0-5_0
  6
CONTINUOUS
 62
   18
 10
4443.0881216308708
 20
3135.2104088921537
 11
4443.0881216308708
 21
3029.2104088913302
  0
LINE
  8
_0-5_0
  6
CONTINUOUS
 62
   18
 10
4443.0881216308708
 20
3029.2104088913302
 11
4441.0881216308717
 21
3027.2104088913302
  0
LINE
  8
_0-5_0
  6
CONTINUOUS
 62
   18
 10
4441.0881216308717
 20
3027.2104088913302
 11
2245.0881216308712
 21
3027.2104088913302
  0
LINE
  8
_0-5_0
  6
CONTINUOUS
 62
   18
 10
2245.0881216308712
 20
3027.2104088913302
 11
2243.0881216308712
 21
3029.2104088913302
  0
LINE
  8
_0-5_0
  6
CONTINUOUS
 62
   18
 10
2243.0881216308712
 20
3029.2104088913302
 11
2243.0881216308712
 21
3135.2104088921528
  0
LINE
  8
_0-5_0
  6
CONTINUOUS
 62
   18
 10
2243.0881216308712
 20
3135.2104088921528
 11
2245.0881216308712
 21
3137.2104088921528
  0
LINE
  8
_0-5_0
  6
CONTINUOUS
 62
   18
 10
3323.0881216308712
 20
3101.8104088909799
 11
3363.0881216308712
 21
3101.8104088909799
  0
LINE
  8
_0-5_0
  6
CONTINUOUS
 62
   18
 10
3363.0881216308712
 20
3101.8104088909799
 11
3363.0881216308712
 21
3062.6104088909797
  0
LINE
  8
_0-5_0
  6
CONTINUOUS
 62
   18
 10
3363.0881216308712
 20
3062.6104088909797
 11
3323.0881216308712
 21
3062.6104088909797
  0
LINE
  8
_0-5_0
  6
CONTINUOUS
 62
   18
 10
3323.0881216308712
 20
3062.6104088909797
 11
3323.0881216308712
 21
3101.8104088909799
  0
CIRCLE
  8
_0-5_0
  6
CONTINUOUS
 62
   18
 10
3343.0881216308708
 20
3082.2104088921524
 40
9
  0
CIRCLE
  8
_0-6_04_HIDDEN
  6
CONTINUOUS
 62
    7
 10
3343.0881216308708
 20
3082.2104088921524
 40
13
  0
LINE
  8
_0-5_0
  6
CONTINUOUS
 62
   18
 10
3330.0881216308721
 20
2669.6882122116663
 11
2245.0881216308712
 21
2669.6882122116613
  0
LINE
  8
_0-5_0
  6
CONTINUOUS
 62
   18
 10
2245.0881216308712
 20
2669.6882122116613
 11
2243.0881216308712
 21
2671.6882122116613
  0
LINE
  8
_0-5_0
  6
CONTINUOUS
 62
   18
 10
2243.0881216308712
 20
2671.6882122116613
 11
2243.0881216308712
 21
2777.6882122116613
  0
LINE
  8
_0-5_0
  6
CONTINUOUS
 62
   18
 10
2243.0881216308712
 20
2777.6882122116613
 11
2245.0881216308712
 21
2779.6882122116613
  0
LINE
  8
_0-5_0
  6
CONTINUOUS
 62
   18
 10
2245.0881216308712
 20
2779.6882122116613
 11
3323.0881216330672
 21
2779.6882122116613
  0
LINE
  8
_0-5_0
  6
CONTINUOUS
 62
   18
 10
3363.0881216330677
 20
2779.6882122116613
 11
4441.0881216308717
 21
2779.6882122116613
  0
LINE
  8
_0-5_0
  6
CONTINUOUS
 62
   18
 10
4441.0881216308717
 20
2779.6882122116613
 11
4443.0881216308708
 21
2777.6882122116613
  0
LINE
  8
_0-5_0
  6
CONTINUOUS
 62
   18
 10
4443.0881216308708
 20
2777.6882122116613
 11
4443.0881216308708
 21
2671.6882122116613
  0
LINE
  8
_0-5_0
  6
CONTINUOUS
 62
   18
 10
4443.0881216308708
 20
2671.6882122116613
 11
4441.0881216308717
 21
2669.6882122116613
  0
LINE
  8
_0-5_0
  6
CONTINUOUS
 62
   18
 10
4441.0881216308717
 20
2669.6882122116613
 11
3356.0881216308712
 21
2669.6882122068396
  0
LINE
  8
_0-4_05_CENTER
  6
CENTER2
 62
    4
 10
2227.8902108096931
 20
2724.6882122116617
 11
4458.2860324520498
 21
2724.6882122116617
  0
LINE
  8
_0-5_0
  6
CONTINUOUS
 62
   18
 10
3323.0881216330672
 20
2779.6882122116613
 11
3323.0881216330672
 21
2775.6882122166667
  0
LINE
  8
_0-5_0
  6
CONTINUOUS
 62
   18
 10
3323.0881216330672
 20
2775.6882122166667
 11
3363.0881216330677
 21
2775.6882122166667
  0
LINE
  8
_0-5_0
  6
CONTINUOUS
 62
   18
 10
3363.0881216330677
 20
2775.6882122166667
 11
3363.0881216330677
 21
2779.6882122116613
  0
LINE
  8
_0-4_05_CENTER
  6
CENTER2
 62
    4
 10
3343.0881216308708
 20
2664.7440163769165
 11
3343.0881216308708
 21
2784.6324080464065
  0
LINE
  8
_0-5_0
  6
CONTINUOUS
 62
   18
 10
2245.0881216308712
 20
2779.6882122116613
 11
2245.0881216308712
 21
2669.6882122116613
  0
LINE
  8
_0-5_0
  6
CONTINUOUS
 62
   18
 10
4441.0881216308717
 20
2779.6882122116613
 11
4441.0881216308717
 21
2669.6882122116608
  0
LINE
  8
_0-5_0
  6
CONTINUOUS
 62
   18
 10
3356.0881216308703
 20
2669.6882122068396
 11
3356.0881216308703
 21
2669.6882122068396
  0
LINE
  8
_0-5_0
  6
CONTINUOUS
 62
   18
 10
3356.0881216308703
 20
2669.6882122068396
 11
3355.8906224200291
 21
2669.9868122613507
  0
LINE
  8
_0-5_0
  6
CONTINUOUS
 62
   18
 10
3355.8906224200291
 20
2669.9868122613507
 11
3355.3041257010873
 21
2670.2763395043044
  0
LINE
  8
_0-5_0
  6
CONTINUOUS
 62
   18
 10
3355.3041257010873
 20
2670.2763395043044
 11
3354.3464518800683
 21
2670.5479967969313
  0
LINE
  8
_0-5_0
  6
CONTINUOUS
 62
   18
 10
3354.3464518800683
 20
2670.5479967969313
 11
3353.0466993914174
 21
2670.7935299698602
  0
LINE
  8
_0-5_0
  6
CONTINUOUS
 62
   18
 10
3353.0466993914174
 20
2670.7935299698602
 11
3351.4443605567958
 21
2671.005478621878
  0
LINE
  8
_0-5_0
  6
CONTINUOUS
 62
   18
 10
3351.4443605567958
 20
2671.005478621878
 11
3349.5881216308708
 21
2671.1774028004434
  0
LINE
  8
_0-5_0
  6
CONTINUOUS
 62
   18
 10
3349.5881216308708
 20
2671.1774028004434
 11
3347.5343834941045
 21
2671.3040786763891
  0
LINE
  8
_0-5_0
  6
CONTINUOUS
 62
   18
 10
3347.5343834941045
 20
2671.3040786763891
 11
3345.3455479405407
 21
2671.381657267325
  0
LINE
  8
_0-5_0
  6
CONTINUOUS
 62
   18
 10
3345.3455479405407
 20
2671.381657267325
 11
3343.0881216308708
 21
2671.4077813870231
  0
LINE
  8
_0-5_0
  6
CONTINUOUS
 62
   18
 10
3343.0881216308708
 20
2671.4077813870231
 11
3340.8306953212009
 21
2671.381657267325
  0
LINE
  8
_0-5_0
  6
CONTINUOUS
 62
   18
 10
3340.8306953212009
 20
2671.381657267325
 11
3338.641859767637
 21
2671.3040786763891
  0
LINE
  8
_0-5_0
  6
CONTINUOUS
 62
   18
 10
3338.641859767637
 20
2671.3040786763891
 11
3336.5881216308708
 21
2671.1774028004434
  0
LINE
  8
_0-5_0
  6
CONTINUOUS
 62
   18
 10
3336.5881216308708
 20
2671.1774028004434
 11
3334.7318827049457
 21
2671.005478621878
  0
LINE
  8
_0-5_0
  6
CONTINUOUS
 62
   18
 10
3334.7318827049457
 20
2671.005478621878
 11
3333.1295438703241
 21
2670.7935299698602
  0
LINE
  8
_0-5_0
  6
CONTINUOUS
 62
   18
 10
3333.1295438703241
 20
2670.7935299698602
 11
3331.8297913816732
 21
2670.5479967969313
  0
LINE
  8
_0-5_0
  6
CONTINUOUS
 62
   18
 10
3331.8297913816732
 20
2670.5479967969313
 11
3330.8721175606543
 21
2670.2763395043044
  0
LINE
  8
_0-5_0
  6
CONTINUOUS
 62
   18
 10
3330.8721175606543
 20
2670.2763395043044
 11
3330.2856208417124
 21
2669.9868122613507
  0
LINE
  8
_0-5_0
  6
CONTINUOUS
 62
   18
 10
3330.2856208417124
 20
2669.9868122613507
 11
3330.0881216308712
 21
2669.6882122068396
  0
LINE
  8
_0-5_0
  6
CONTINUOUS
 62
   18
 10
3330.0881216308712
 20
2669.6882122068396
 11
3330.0881216308712
 21
2669.6882122068396
  0
LINE
  8
_0-6_04_HIDDEN
  6
CONTINUOUS
 62
    7
 10
3330.0881216308712
 20
2689.6882122116467
 11
3330.0881216308712
 21
2669.6882122116617
  0
LINE
  8
_0-6_04_HIDDEN
  6
CONTINUOUS
 62
    7
 10
3356.0881216308712
 20
2689.6882122116467
 11
3356.0881216308712
 21
2669.6882122116617
  0
LINE
  8
_0-6_04_HIDDEN
  6
CONTINUOUS
 62
    7
 10
3330.0881216308712
 20
2689.6882122116467
 11
3356.0881216308712
 21
2689.6882122116467
  0
LINE
  8
_0-6_04_HIDDEN
  6
CONTINUOUS
 62
    7
 10
3352.0881216308712
 20
2775.6882122166658
 11
3352.0881216308712
 21
2689.6882122116467
  0
LINE
  8
_0-6_04_HIDDEN
  6
CONTINUOUS
 62
    7
 10
3334.0881216308712
 20
2775.6882122166658
 11
3334.0881216308712
 21
2689.6882122116467
  0
CIRCLE
  8
_0-5_0
  6
CONTINUOUS
 62
   18
 10
4657.1900196518773
 20
2724.6882122117518
 40
54.999999999909498
  0
LINE
  8
_0-6_04_HIDDEN
  6
CONTINUOUS
 62
    7
 10
4636.5987593823165
 20
2775.6882122166667
 11
4677.781279921438
 21
2775.6882122166667
  0
LINE
  8
_0-4_05_CENTER
  6
CENTER2
 62
    4
 10
4717.475506535553
 20
2724.6882122116726
 11
4596.9045327581862
 21
2724.6882122116726
  0
LINE
  8
_0-4_05_CENTER
  6
CENTER2
 62
    4
 10
4657.1900196468705
 20
2664.4027253229888
 11
4657.1900196468705
 21
2784.9736991003556
  0
LINE
  8
_0-6_04_HIDDEN
  6
CONTINUOUS
 62
    7
 10
4644.1900196468696
 20
2689.6882122116467
 11
4644.1900196468696
 21
2671.2466553495137
  0
LINE
  8
_0-6_04_HIDDEN
  6
CONTINUOUS
 62
    7
 10
4670.1900196468696
 20
2689.6882122116467
 11
4670.1900196468696
 21
2671.2466553470772
  0
LINE
  8
_0-6_04_HIDDEN
  6
CONTINUOUS
 62
    7
 10
4644.1900196468696
 20
2689.6882122116467
 11
4670.1900196468696
 21
2689.6882122116467
  0
LINE
  8
_0-6_04_HIDDEN
  6
CONTINUOUS
 62
    7
 10
4666.1900196468696
 20
2775.6882122166667
 11
4666.1900196468696
 21
2689.6882122116467
  0
LINE
  8
_0-6_04_HIDDEN
  6
CONTINUOUS
 62
    7
 10
4648.1900196468696
 20
2775.6882122166667
 11
4648.1900196468696
 21
2689.6882122116467
  0
INSERT
  2
-005-p1ba01
  8
_0-2_08_DIM
 10
3399.1517646535062
 20
2775.6882122166667
 41
5
 42
5
 50
0
  0
INSERT
  2
-005-p1ba01
  8
_0-2_08_DIM
 10
3363.0881216330677
 20
2811.9778998994484
 41
5
 42
5
 50
90
  0
INSERT
  2
-005-p1ba01
  8
_0-2_08_DIM
 10
3323.0881216330672
 20
2811.9778998994484
 41
5
 42
5
 50
270
  0
INSERT
  2
-005-p1ba01
  8
_0-2_08_DIM
 10
2013.1840745471648
 20
3332.3561119735896
 41
7.5
 42
7.5
 50
0
  0
TEXT
  8
_0-2_08_DIM
 62
    3
 10
3109.1578727441124
 20
2945.5196072305171
 40
14.999999999999998
 41
1
 50
0
  1
(裏面よりザグリ)
  0
CIRCLE
  8
_0-5_0
  6
CONTINUOUS
 62
   18
 10
4680.6523849089672
 20
1857.7483359964456
 40
105.0000000047371
  0
CIRCLE
  8
_0-5_0
  6
CONTINUOUS
 62
   18
 10
4680.6523849089672
 20
1857.7483359964456
 40
99.950000004736907
  0
LINE
  8
_0-4_05_CENTER
  6
CENTER2
 62
    4
 10
4680.6523849089672
 20
1971.4924797345332
 11
4680.6523849089672
 21
1744.0041922583582
  0
LINE
  8
_0-4_05_CENTER
  6
CENTER2
 62
    4
 10
4794.3965286470548
 20
1857.7483359964456
 11
4566.9082411708787
 21
1857.7483359964456
  0
CIRCLE
  8
_0-5_0
  6
CONTINUOUS
 62
   18
 10
4680.6523849089672
 20
1857.7483359964456
 40
19.999999999999996
  0
CIRCLE
  8
_0-5_0
  6
CONTINUOUS
 62
   18
 10
4680.6523849089672
 20
1857.7483359964456
 40
17.5
  0
LINE
  8
_0-4_05_CENTER
  6
CENTER2
 62
    4
 10
2330.3058506721536
 20
1857.7483360003289
 11
4355.8703925948321
 21
1857.7483360003273
  0
LINE
  8
_0-5_0
  6
CONTINUOUS
 62
   18
 10
4283.0881216317339
 20
1837.7483360014314
 11
4300.0881216287635
 21
1837.7483359996579
  0
LINE
  8
_0-5_0
  6
CONTINUOUS
 62
   18
 10
4300.0881216287635
 20
1837.7483359996579
 11
4301.0881216287626
 21
1838.7483359996579
  0
LINE
  8
_0-5_0
  6
CONTINUOUS
 62
   18
 10
4301.0881216287626
 20
1838.7483359996579
 11
4301.0881216287635
 21
1876.7483359996579
  0
LINE
  8
_0-5_0
  6
CONTINUOUS
 62
   18
 10
4301.0881216287635
 20
1876.7483359996579
 11
4300.0881216287635
 21
1877.7483359996579
  0
LINE
  8
_0-5_0
  6
CONTINUOUS
 62
   18
 10
4300.0881216287635
 20
1877.7483359996579
 11
4283.0881216317348
 21
1877.7483360014314
  0
LINE
  8
_0-5_0
  6
CONTINUOUS
 62
   18
 10
4300.0881216287635
 20
1837.7483359996579
 11
4300.0881216287635
 21
1877.7483359996579
  0
LINE
  8
_0-6_04_HIDDEN
  6
CONTINUOUS
 62
    7
 10
2408.0881216279831
 20
1957.6983360011845
 11
2408.0881216279831
 21
1757.7983360011851
  0
LINE
  8
_0-6_04_HIDDEN
  6
CONTINUOUS
 62
    7
 10
2414.0881216279831
 20
1957.6983360011845
 11
2414.0881216279831
 21
1757.7983360011851
  0
INSERT
  2
-006-A$C67F20274_1_1
  8
_0-5_0
 10
2408.0881216279831
 20
1957.6983360011845
 41
1
 42
1
 50
0
  0
INSERT
  2
-006-A$C67F20274_1_1
  8
_0-5_0
 10
2408.0881216279831
 20
1757.7983360011851
 41
-1
 42
1
 50
180
  0
INSERT
  2
-006-A$C67F20274_1_1
  8
_0-5_0
 10
2408.0881216279236
 20
1877.7483360028029
 41
-1
 42
1
 50
180
  0
INSERT
  2
-006-A$C67F20274_1_1
  8
_0-5_0
 10
2408.0881216280432
 20
1837.7483360027211
 41
1
 42
1
 50
0
  0
LINE
  8
_0-6_04_HIDDEN
  6
CONTINUOUS
 62
    7
 10
4278.0881216337584
 20
1957.698336001183
 11
4278.0881216337584
 21
1757.7983360011833
  0
LINE
  8
_0-6_04_HIDDEN
  6
CONTINUOUS
 62
    7
 10
4272.0881216337621
 20
1957.698336001183
 11
4272.0881216337621
 21
1757.7983360011833
  0
INSERT
  2
-006-A$C67F20274_1_1
  8
_0-5_0
 10
4278.0881216337584
 20
1957.698336001183
 41
-1
 42
1
 50
0
  0
INSERT
  2
-006-A$C67F20274_1_1
  8
_0-5_0
 10
4278.0881216337584
 20
1757.7983360011833
 41
1
 42
1
 50
179.99999999999997
  0
INSERT
  2
-006-A$C67F20274_1_1
  8
_0-5_0
 10
4278.0881216337584
 20
1877.7483360025303
 41
1
 42
1
 50
179.99999999999997
  0
INSERT
  2
-006-A$C67F20274_1_1
  8
_0-5_0
 10
4278.0881216337584
 20
1837.7483360025299
 41
-1
 42
1
 50
0
  0
LINE
  8
_0-6_04_HIDDEN
  6
CONTINUOUS
 62
    7
 10
2403.0881216308717
 20
1957.6983360011845
 11
4283.0881216308726
 21
1957.698336001183
  0
LINE
  8
_0-5_0
  6
CONTINUOUS
 62
   18
 10
2404.0881216308717
 20
1962.748336001184
 11
4282.0881216308699
 21
1962.748336001184
  0
LINE
  8
_0-5_0
  6
CONTINUOUS
 62
   18
 10
4282.0881216308699
 20
1962.748336001184
 11
4283.0881216308708
 21
1961.748336001184
  0
LINE
  8
_0-5_0
  6
CONTINUOUS
 62
   18
 10
4283.0881216308708
 20
1961.748336001184
 11
4283.0881216308726
 21
1753.7483360011822
  0
LINE
  8
_0-5_0
  6
CONTINUOUS
 62
   18
 10
4283.0881216308726
 20
1753.7483360011822
 11
4282.0881216308717
 21
1752.7483360011822
  0
LINE
  8
_0-5_0
  6
CONTINUOUS
 62
   18
 10
4282.0881216308717
 20
1752.7483360011822
 11
2404.0881216308717
 21
1752.748336001184
  0
LINE
  8
_0-5_0
  6
CONTINUOUS
 62
   18
 10
2404.0881216308717
 20
1752.748336001184
 11
2403.0881216308717
 21
1753.7483360011838
  0
LINE
  8
_0-5_0
  6
CONTINUOUS
 62
   18
 10
2403.0881216308717
 20
1753.7483360011838
 11
2403.0881216308717
 21
1961.748336001184
  0
LINE
  8
_0-5_0
  6
CONTINUOUS
 62
   18
 10
2403.0881216308717
 20
1961.748336001184
 11
2404.0881216308717
 21
1962.748336001184
  0
LINE
  8
_0-6_04_HIDDEN
  6
CONTINUOUS
 62
    7
 10
2403.0881216308717
 20
1757.7983360011851
 11
4283.0881216308726
 21
1757.7983360011833
  0
LINE
  8
_0-6_04_HIDDEN
  6
CONTINUOUS
 62
    7
 10
4283.0881216308717
 20
1837.7483360025299
 11
2403.0881216309317
 21
1837.7483360027211
  0
LINE
  8
_0-6_04_HIDDEN
  6
CONTINUOUS
 62
    7
 10
2403.0881216308121
 20
1877.7483360028029
 11
4283.0881216308726
 21
1877.7483360025303
  0
LINE
  8
_0-4_05_CENTER
  6
CENTER2
 62
    4
 10
3343.0881216334928
 20
1998.8190013071182
 11
3343.0881216334928
 21
1716.6776706935382
  0
LINE
  8
_0-5_0
  6
CONTINUOUS
 62
   18
 10
2404.0881216308717
 20
1962.748336001184
 11
2404.0881216308717
 21
1752.748336001184
  0
LINE
  8
_0-5_0
  6
CONTINUOUS
 62
   18
 10
4282.0881216308717
 20
1962.748336001184
 11
4282.0881216308717
 21
1752.7483360011822
  0
LINE
  8
_0-5_0
  6
CONTINUOUS
 62
   18
 10
2403.0881216300677
 20
1837.7483360016224
 11
2386.0881216288235
 21
1837.7483360005222
  0
LINE
  8
_0-5_0
  6
CONTINUOUS
 62
   18
 10
2386.0881216288235
 20
1837.7483360005222
 11
2385.0881216288235
 21
1838.7483360005222
  0
LINE
  8
_0-5_0
  6
CONTINUOUS
 62
   18
 10
2385.0881216288235
 20
1838.7483360005222
 11
2385.0881216287039
 21
1876.7483360006038
  0
LINE
  8
_0-5_0
  6
CONTINUOUS
 62
   18
 10
2385.0881216287039
 20
1876.7483360006038
 11
2386.0881216287039
 21
1877.7483360006038
  0
LINE
  8
_0-5_0
  6
CONTINUOUS
 62
   18
 10
2386.0881216287039
 20
1877.7483360006038
 11
2403.0881216299481
 21
1877.7483360017045
  0
LINE
  8
_0-5_0
  6
CONTINUOUS
 62
   18
 10
2385.0881216287307
 20
1875.2483359995033
 11
2385.0881216288503
 21
1840.2483360002764
  0
LINE
  8
_0-5_0
  6
CONTINUOUS
 62
   18
 10
2385.0881216288503
 20
1840.2483360002764
 11
2339.088121628823
 21
1840.2483360013769
  0
LINE
  8
_0-5_0
  6
CONTINUOUS
 62
   18
 10
2339.088121628823
 20
1840.2483360013769
 11
2338.0881216288235
 21
1841.2483360013769
  0
LINE
  8
_0-5_0
  6
CONTINUOUS
 62
   18
 10
2338.0881216288235
 20
1841.2483360013769
 11
2338.0881216287039
 21
1874.248336000604
  0
LINE
  8
_0-5_0
  6
CONTINUOUS
 62
   18
 10
2338.0881216287039
 20
1874.248336000604
 11
2339.0881216287034
 21
1875.248336000604
  0
LINE
  8
_0-5_0
  6
CONTINUOUS
 62
   18
 10
2339.0881216287034
 20
1875.248336000604
 11
2385.0881216287307
 21
1875.2483359995033
  0
LINE
  8
_0-5_0
  6
CONTINUOUS
 62
   18
 10
2339.0881216287034
 20
1875.248336000604
 11
2339.088121628823
 21
1840.2483360013769
  0
LINE
  8
_0-5_0
  6
CONTINUOUS
 62
   18
 10
2386.0881216288235
 20
1837.7483360005222
 11
2386.0881216287039
 21
1877.7483360006038
  0
LINE
  8
_0-5_0
  6
CONTINUOUS
 62
   18
 10
4301.0881216287635
 20
1875.2483359992307
 11
4301.0881216287626
 21
1840.2483360000854
  0
LINE
  8
_0-5_0
  6
CONTINUOUS
 62
   18
 10
4301.0881216287626
 20
1840.2483360000854
 11
4347.0881216287626
 21
1840.2483360011856
  0
LINE
  8
_0-5_0
  6
CONTINUOUS
 62
   18
 10
4347.0881216287626
 20
1840.2483360011856
 11
4348.0881216287626
 21
1841.2483360011859
  0
LINE
  8
_0-5_0
  6
CONTINUOUS
 62
   18
 10
4348.0881216287626
 20
1841.2483360011859
 11
4348.0881216287635
 21
1874.2483360003309
  0
LINE
  8
_0-5_0
  6
CONTINUOUS
 62
   18
 10
4348.0881216287635
 20
1874.2483360003309
 11
4347.0881216287644
 21
1875.2483360003309
  0
LINE
  8
_0-5_0
  6
CONTINUOUS
 62
   18
 10
4347.0881216287644
 20
1875.2483360003309
 11
4301.0881216287635
 21
1875.2483359992307
  0
LINE
  8
_0-5_0
  6
CONTINUOUS
 62
   18
 10
4347.0881216287626
 20
1840.2483360011856
 11
4347.0881216287644
 21
1875.2483360003309
  0
LINE
  8
_0-2_08_DIM
  6
CONTINUOUS
 62
    3
 10
1884.7180910130924
 20
2066.1515987902476
 11
2125.1450437139983
 21
2066.1515987902476
  0
INSERT
  2
-004-p1ba05
  8
_0-2_08_DIM
 10
1935.4313583723499
 20
2072.9895446661494
 41
7.5
 42
7.5
 50
0
  0
TEXT
  8
_0-3_07_TEXT
 62
    3
 10
1970.6879377667221
 20
2071.5483504403933
 40
22.499999999999996
 41
1
 50
0
  1
(        )
  0
INSERT
  2
-005-p1ba01
  8
_0-2_08_DIM
 10
2003.2749711346275
 20
2072.1126896060468
 41
7.5
 42
7.5
 50
0
  0
TEXT
  8
_0-2_08_DIM
 62
    3
 10
3843.750120871834
 20
1972.6692694504648
 40
14.999999999999998
 41
1
 50
0
  1
200AxSch40 SUS-TPより加工 
  0
INSERT
  2
-007-p1ba02
  8
_0-2_08_DIM
 10
4383.1805159151809
 20
1875.2483360003309
 41
5
 42
5
 50
0
  0
INSERT
  2
-007-p1ba02
  8
_0-2_08_DIM
 10
4445.2060015707111
 20
1962.748336001184
 41
5
 42
5
 50
0
  0
INSERT
  2
-007-p1ba02
  8
_0-2_08_DIM
 10
2280.8103984819363
 20
1875.248336000604
 41
5
 42
5
 50
0
  0
INSERT
  2
-007-p1ba02
  8
_0-2_08_DIM
 10
2047.6968226400802
 20
2072.1126896060468
 41
7.5
 42
7.5
 50
0
  0
INSERT
  2
-005-p1ba01
  8
_0-2_08_DIM
 10
4283.0881216308708
 20
2070.849003554818
 41
5
 42
5
 50
270
  0
INSERT
  2
-005-p1ba01
  8
_0-2_08_DIM
 10
2403.0881216308717
 20
2070.8490035548198
 41
-5
 42
5
 50
89.999999999999986
  0
LINE
  8
_0-0_90_FRAME
  6
CONTINUOUS
 62
    4
 10
4574.0594975830591
 20
1328.9550216715086
 11
5330.166633874871
 21
1328.9550216715086
  0
LINE
  8
_0-0_90_FRAME
  6
CONTINUOUS
 62
    4
 10
4574.0594975830591
 20
1293.9550235404263
 11
5330.166633874871
 21
1293.9550235404263
  0
TEXT
  8
_0-0_90_FRAME
 62
    3
 10
5051.0535340488141
 20
1232.3183993291675
 40
14.999999999999998
 41
1
 50
0
  1
1
  0
TEXT
  8
_0-0_90_FRAME
 62
    3
 10
4942.5687512066606
 20
1232.6517308429777
 40
14.999999999999998
 41
1
 50
0
  1
SUS304
  0
TEXT
  8
_0-0_90_FRAME
 62
    3
 10
4650.9439374308331
 20
1232.4527689457534
 40
14.999999999999998
 41
1
 50
0
  1
水切りローラー
  0
TEXT
  8
_0-0_90_FRAME
 62
    3
 10
4594.0216476882588
 20
1232.0669030307035
 40
14.999999999999998
 41
1
 50
0
  1
6
  0
INSERT
  2
-005-p1ba01
  8
_0-2_08_DIM
 10
4301.0881216287626
 20
1686.6889958283257
 41
5
 42
5
 50
270
  0
INSERT
  2
-005-p1ba01
  8
_0-2_08_DIM
 10
4348.0881216287626
 20
1596.8529013239763
 41
5
 42
5
 50
270
  0
INSERT
  2
-005-p1ba01
  8
_0-2_08_DIM
 10
2385.0881216287903
 20
1686.6889958289987
 41
-5
 42
5
 50
89.999999999999972
  0
INSERT
  2
-005-p1ba01
  8
_0-2_08_DIM
 10
2338.0881216287635
 20
1596.8529013246491
 41
-5
 42
5
 50
89.999999999999972
  0
INSERT
  2
-005-p1ba01
  8
_0-2_08_DIM
 10
2243.0881216308712
 20
2845.0507913783722
 41
-5
 42
5
 50
89.999999999999972
  0
INSERT
  2
-005-p1ba01
  8
_0-2_08_DIM
 10
4443.0881216308708
 20
2850.0507913783722
 41
5
 42
5
 50
270
  0
INSERT
  2
-008-AM_BALLOON1
  8
_0-2_08_DIM
 10
1853.4241518010065
 20
3326.4352843067691
 41
6.25
 42
6.25
 50
0
  0
TEXT
  8
_0-5_0
 62
    7
 10
1844.4955803724351
 20
3317.0602843067695
 40
18.749999999999996
 41
1
 50
0
  1
5
  0
LINE
  8
_0-2_08_DIM
  6
CONTINUOUS
 62
    3
 10
3366.2131216330677
 20
2775.6882122166667
 11
3432.0904076739448
 21
2775.6882122166667
  0
LINE
  8
_0-2_08_DIM
  6
CONTINUOUS
 62
    3
 10
3366.2131216330677
 20
2779.6882122116613
 11
3432.0904076739448
 21
2779.6882122116613
  0
LINE
  8
_0-2_08_DIM
  6
CONTINUOUS
 62
    3
 10
3425.8404076739448
 20
2792.1882122116613
 11
3425.8404076739448
 21
2820.9382122116613
  0
LINE
  8
_0-2_08_DIM
  6
CONTINUOUS
 62
    3
 10
3425.8404076739448
 20
2775.6882122166667
 11
3425.8404076739448
 21
2779.6882122116613
  0
LINE
  8
_0-2_08_DIM
  6
CONTINUOUS
 62
    3
 10
3425.8404076739448
 20
2763.1882122166667
 11
3425.8404076739448
 21
2750.6882122166662
  0
INSERT
  2
-009-_Open30
  8
_0-2_08_DIM
 10
3425.8404076739448
 20
2775.6882122166667
 41
12.5
 42
12.5
 50
90
  0
INSERT
  2
-009-_Open30
  8
_0-2_08_DIM
 10
3425.8404076739448
 20
2779.6882122116613
 41
12.5
 42
12.5
 50
270
  0
LINE
  8
_0-2_08_DIM
  6
CONTINUOUS
 62
    3
 10
3363.0881216330677
 20
2782.8132122116617
 11
3363.0881216330677
 21
2841.1425875872351
  0
LINE
  8
_0-2_08_DIM
  6
CONTINUOUS
 62
    3
 10
3323.0881216330672
 20
2782.8132122116617
 11
3323.0881216330672
 21
2841.1425875872351
  0
LINE
  8
_0-2_08_DIM
  6
CONTINUOUS
 62
    3
 10
3350.5881216330677
 20
2834.8925875872346
 11
3335.5881216330677
 21
2834.8925875872346
  0
INSERT
  2
-009-_Open30
  8
_0-2_08_DIM
 10
3363.0881216330677
 20
2834.8925875872346
 41
12.5
 42
12.5
 50
0
  0
INSERT
  2
-009-_Open30
  8
_0-2_08_DIM
 10
3323.0881216330672
 20
2834.8925875872346
 41
12.5
 42
12.5
 50
180
  0
LINE
  8
_0-2_08_DIM
  6
CONTINUOUS
 62
    3
 10
3343.0881216308708
 20
3052.7553162010386
 11
3343.0881216308708
 21
2953.0897656085695
  0
LINE
  8
_0-2_08_DIM
  6
CONTINUOUS
 62
    3
 10
4443.0881216308708
 20
3026.0854088913306
 11
4443.0881216308708
 21
2953.0897656085695
  0
LINE
  8
_0-2_08_DIM
  6
CONTINUOUS
 62
    3
 10
3355.5881216308712
 20
2959.3397656085695
 11
4430.5881216308708
 21
2959.3397656085695
  0
INSERT
  2
-009-_Open30
  8
_0-2_08_DIM
 10
3343.0881216308708
 20
2959.3397656085695
 41
12.5
 42
12.5
 50
180
  0
INSERT
  2
-009-_Open30
  8
_0-2_08_DIM
 10
4443.0881216308708
 20
2959.3397656085695
 41
12.5
 42
12.5
 50
0
  0
LINE
  8
_0-2_08_DIM
  6
CONTINUOUS
 62
    3
 10
4443.0881216308708
 20
2780.8132122116617
 11
4443.0881216308708
 21
2894.8153448733528
  0
LINE
  8
_0-2_08_DIM
  6
CONTINUOUS
 62
    3
 10
2243.0881216308712
 20
2780.8132122116617
 11
2243.0881216308712
 21
2894.8153448733528
  0
LINE
  8
_0-2_08_DIM
  6
CONTINUOUS
 62
    3
 10
4430.5881216308708
 20
2888.5653448733528
 11
2255.5881216308712
 21
2888.5653448733528
  0
INSERT
  2
-009-_Open30
  8
_0-2_08_DIM
 10
4443.0881216308708
 20
2888.5653448733528
 41
12.5
 42
12.5
 50
0
  0
INSERT
  2
-009-_Open30
  8
_0-2_08_DIM
 10
2243.0881216308712
 20
2888.5653448733528
 41
12.5
 42
12.5
 50
180
  0
LINE
  8
_0-2_08_DIM
  6
CONTINUOUS
 62
    3
 10
4444.2131216308708
 20
2669.6882122116613
 11
4531.5365682778292
 21
2669.6882122116613
  0
LINE
  8
_0-2_08_DIM
  6
CONTINUOUS
 62
    3
 10
4444.2131216308708
 20
2779.6882122116613
 11
4531.5365682778292
 21
2779.6882122116613
  0
LINE
  8
_0-2_08_DIM
  6
CONTINUOUS
 62
    3
 10
4525.2865682778292
 20
2682.1882122116613
 11
4525.2865682778292
 21
2767.1882122116613
  0
INSERT
  2
-009-_Open30
  8
_0-2_08_DIM
 10
4525.2865682778292
 20
2669.6882122116613
 41
12.5
 42
12.5
 50
270
  0
INSERT
  2
-009-_Open30
  8
_0-2_08_DIM
 10
4525.2865682778292
 20
2779.6882122116613
 41
12.5
 42
12.5
 50
90
  0
LINE
  8
_0-2_08_DIM
  6
CONTINUOUS
 62
    3
 10
3356.0881216308712
 20
2666.5632122068396
 11
3356.0881216308712
 21
2595.3651405079449
  0
LINE
  8
_0-2_08_DIM
  6
CONTINUOUS
 62
    3
 10
3330.0881216308712
 20
2666.5632122068396
 11
3330.0881216308712
 21
2595.3651405079449
  0
LINE
  8
_0-2_08_DIM
  6
CONTINUOUS
 62
    3
 10
3317.5881216308712
 20
2601.6151405079445
 11
3258.8381216308712
 21
2601.6151405079445
  0
LINE
  8
_0-2_08_DIM
  6
CONTINUOUS
 62
    3
 10
3356.0881216308712
 20
2601.6151405079445
 11
3330.0881216308712
 21
2601.6151405079445
  0
LINE
  8
_0-2_08_DIM
  6
CONTINUOUS
 62
    3
 10
3368.5881216308712
 20
2601.6151405079445
 11
3381.0881216308712
 21
2601.6151405079445
  0
INSERT
  2
-009-_Open30
  8
_0-2_08_DIM
 10
3356.0881216308712
 20
2601.6151405079445
 41
12.5
 42
12.5
 50
180
  0
INSERT
  2
-009-_Open30
  8
_0-2_08_DIM
 10
3330.0881216308712
 20
2601.6151405079445
 41
12.5
 42
12.5
 50
0
  0
LINE
  8
_0-2_08_DIM
  6
CONTINUOUS
 62
    3
 10
3359.2131216308712
 20
2689.6882122116467
 11
3432.0904076739448
 21
2689.6882122116467
  0
LINE
  8
_0-2_08_DIM
  6
CONTINUOUS
 62
    3
 10
3359.2131216308712
 20
2669.6882122116617
 11
3432.0904076739448
 21
2669.6882122116617
  0
LINE
  8
_0-2_08_DIM
  6
CONTINUOUS
 62
    3
 10
3425.8404076739448
 20
2657.1882122116617
 11
3425.8404076739448
 21
2615.3132122116617
  0
LINE
  8
_0-2_08_DIM
  6
CONTINUOUS
 62
    3
 10
3425.8404076739448
 20
2689.6882122116467
 11
3425.8404076739448
 21
2669.6882122116617
  0
LINE
  8
_0-2_08_DIM
  6
CONTINUOUS
 62
    3
 10
3425.8404076739448
 20
2702.1882122116467
 11
3425.8404076739448
 21
2714.6882122116472
  0
INSERT
  2
-009-_Open30
  8
_0-2_08_DIM
 10
3425.8404076739448
 20
2689.6882122116467
 41
12.5
 42
12.5
 50
270
  0
INSERT
  2
-009-_Open30
  8
_0-2_08_DIM
 10
3425.8404076739448
 20
2669.6882122116617
 41
12.5
 42
12.5
 50
90
  0
LINE
  8
_0-2_08_DIM
  6
CONTINUOUS
 62
    3
 10
4450.9269563957023
 20
2787.5270469764946
 11
4517.2139911574122
 21
2853.8140817382055
  0
INSERT
  2
-009-_Open30
  8
_0-2_08_DIM
 10
4442.0881216308708
 20
2778.6882122116626
 41
12.499999999999998
 42
12.499999999999998
 50
225.00000000000051
  0
LINE
  8
_0-2_08_DIM
  6
CONTINUOUS
 62
    3
 10
3066.9156955845669
 20
2965.3321341695764
 11
3274.269862251233
 21
2965.3321341695764
  0
LINE
  8
_0-2_08_DIM
  6
CONTINUOUS
 62
    3
 10
3274.269862251233
 20
2965.3321341695764
 11
3332.1793781091219
 21
3063.6834200710668
  0
INSERT
  2
-009-_Open30
  8
_0-2_08_DIM
 10
3338.5216708543253
 20
3074.4549251996054
 41
12.5
 42
12.5
 50
59.510302726534732
  0
INSERT
  2
-008-AM_BALLOON1
  8
_0-2_08_DIM
 10
1853.4241518010065
 20
2066.1918619392268
 41
6.25
 42
6.25
 50
0
  0
TEXT
  8
_0-5_0
 62
    7
 10
1844.0491518010067
 20
2056.8168619392268
 40
18.749999999999996
 41
1
 50
0
  1
6
  0
LINE
  8
_0-2_08_DIM
  6
CONTINUOUS
 62
    3
 10
2403.0881216308717
 20
1964.873336001184
 11
2403.0881216308717
 21
2108.5038317641929
  0
LINE
  8
_0-2_08_DIM
  6
CONTINUOUS
 62
    3
 10
4283.0881216308708
 20
1964.873336001184
 11
4283.0881216308708
 21
2108.5038317641929
  0
LINE
  8
_0-2_08_DIM
  6
CONTINUOUS
 62
    3
 10
2415.5881216308717
 20
2102.2538317641934
 11
4270.5881216308708
 21
2102.2538317641934
  0
INSERT
  2
-009-_Open30
  8
_0-2_08_DIM
 10
2403.0881216308717
 20
2102.2538317641934
 41
12.5
 42
12.5
 50
180
  0
INSERT
  2
-009-_Open30
  8
_0-2_08_DIM
 10
4283.0881216308708
 20
2102.2538317641934
 41
12.5
 42
12.5
 50
0
  0
LINE
  8
_0-2_08_DIM
  6
CONTINUOUS
 62
    3
 10
4278.0881216337584
 20
1960.823336001183
 11
4278.0881216337584
 21
2036.8910292391206
  0
LINE
  8
_0-2_08_DIM
  6
CONTINUOUS
 62
    3
 10
4272.0881216337621
 20
1960.823336001183
 11
4272.0881216337621
 21
2036.8910292391206
  0
LINE
  8
_0-2_08_DIM
  6
CONTINUOUS
 62
    3
 10
4259.5881216337602
 20
2030.6410292391199
 11
4230.8381216337611
 21
2030.6410292391199
  0
LINE
  8
_0-2_08_DIM
  6
CONTINUOUS
 62
    3
 10
4278.0881216337584
 20
2030.6410292391199
 11
4272.0881216337621
 21
2030.6410292391199
  0
LINE
  8
_0-2_08_DIM
  6
CONTINUOUS
 62
    3
 10
4278.0881216337584
 20
2030.6410292391199
 11
4290.5881216337602
 21
2030.6410292391199
  0
INSERT
  2
-010-_DotSmall
  8
_0-2_08_DIM
 10
4278.0881216337584
 20
2030.6410292391199
 41
12.5
 42
12.5
 50
180
  0
INSERT
  2
-009-_Open30
  8
_0-2_08_DIM
 10
4272.0881216337621
 20
2030.6410292391199
 41
12.5
 42
12.5
 50
0
  0
LINE
  8
_0-2_08_DIM
  6
CONTINUOUS
 62
    3
 10
4278.0881216337584
 20
1960.823336001183
 11
4278.0881216337584
 21
2036.8910292391206
  0
LINE
  8
_0-2_08_DIM
  6
CONTINUOUS
 62
    3
 10
4283.0881216308708
 20
1964.873336001184
 11
4283.0881216308708
 21
2036.8910292391206
  0
LINE
  8
_0-2_08_DIM
  6
CONTINUOUS
 62
    3
 10
4295.5881216308708
 20
2030.6410292391199
 11
4324.3381216308699
 21
2030.6410292391199
  0
LINE
  8
_0-2_08_DIM
  6
CONTINUOUS
 62
    3
 10
4278.0881216337584
 20
2030.6410292391199
 11
4283.0881216308708
 21
2030.6410292391199
  0
LINE
  8
_0-2_08_DIM
  6
CONTINUOUS
 62
    3
 10
4278.0881216337584
 20
2030.6410292391199
 11
4265.5881216337593
 21
2030.6410292391199
  0
INSERT
  2
-009-_Open30
  8
_0-2_08_DIM
 10
4283.0881216308708
 20
2030.6410292391199
 41
12.5
 42
12.5
 50
180
  0
LINE
  8
_0-2_08_DIM
  6
CONTINUOUS
 62
    3
 10
2408.0881216351645
 20
1960.8233360011848
 11
2408.0881216351645
 21
2036.8910292391222
  0
LINE
  8
_0-2_08_DIM
  6
CONTINUOUS
 62
    3
 10
2414.0881216351627
 20
1960.8233360011848
 11
2414.0881216351627
 21
2036.8910292391222
  0
LINE
  8
_0-2_08_DIM
  6
CONTINUOUS
 62
    3
 10
2426.5881216351627
 20
2030.6410292391222
 11
2455.3381216351627
 21
2030.6410292391222
  0
LINE
  8
_0-2_08_DIM
  6
CONTINUOUS
 62
    3
 10
2408.0881216351645
 20
2030.6410292391222
 11
2414.0881216351627
 21
2030.6410292391222
  0
LINE
  8
_0-2_08_DIM
  6
CONTINUOUS
 62
    3
 10
2408.0881216351645
 20
2030.6410292391222
 11
2395.5881216351645
 21
2030.6410292391222
  0
INSERT
  2
-010-_DotSmall
  8
_0-2_08_DIM
 10
2408.0881216351645
 20
2030.6410292391222
 41
12.5
 42
12.5
 50
0
  0
INSERT
  2
-009-_Open30
  8
_0-2_08_DIM
 10
2414.0881216351627
 20
2030.6410292391222
 41
12.5
 42
12.5
 50
180
  0
LINE
  8
_0-2_08_DIM
  6
CONTINUOUS
 62
    3
 10
2408.0881216351645
 20
1960.8233360011848
 11
2408.0881216351645
 21
2036.8910292391222
  0
LINE
  8
_0-2_08_DIM
  6
CONTINUOUS
 62
    3
 10
2403.0881216380531
 20
1964.8733360011859
 11
2403.0881216380531
 21
2036.8910292391222
  0
LINE
  8
_0-2_08_DIM
  6
CONTINUOUS
 62
    3
 10
2390.5881216380531
 20
2030.6410292391222
 11
2361.8381216380526
 21
2030.6410292391222
  0
LINE
  8
_0-2_08_DIM
  6
CONTINUOUS
 62
    3
 10
2408.0881216351645
 20
2030.6410292391222
 11
2403.0881216380531
 21
2030.6410292391222
  0
LINE
  8
_0-2_08_DIM
  6
CONTINUOUS
 62
    3
 10
2408.0881216351645
 20
2030.6410292391222
 11
2420.5881216351645
 21
2030.6410292391222
  0
INSERT
  2
-009-_Open30
  8
_0-2_08_DIM
 10
2403.0881216380531
 20
2030.6410292391222
 41
12.5
 42
12.5
 50
0
  0
LINE
  8
_0-2_08_DIM
  6
CONTINUOUS
 62
    3
 10
4219.1417904844093
 20
1957.698336001183
 11
4211.4327634144865
 21
1957.698336001183
  0
LINE
  8
_0-2_08_DIM
  6
CONTINUOUS
 62
    3
 10
4219.1417904844111
 20
1757.7983360011833
 11
4211.4327634144865
 21
1757.7983360011833
  0
LINE
  8
_0-2_08_DIM
  6
CONTINUOUS
 62
    3
 10
4217.6827634144875
 20
1945.198336001183
 11
4217.6827634144875
 21
1770.2983360011833
  0
INSERT
  2
-009-_Open30
  8
_0-2_08_DIM
 10
4217.6827634144875
 20
1957.698336001183
 41
12.5
 42
12.5
 50
90
  0
INSERT
  2
-009-_Open30
  8
_0-2_08_DIM
 10
4217.6827634144875
 20
1757.7983360011833
 41
12.5
 42
12.5
 50
270
  0
LINE
  8
_0-2_08_DIM
  6
CONTINUOUS
 62
    3
 10
4350.2131216287635
 20
1840.2483360011856
 11
4431.4504191576889
 21
1840.2483360011856
  0
LINE
  8
_0-2_08_DIM
  6
CONTINUOUS
 62
    3
 10
4350.2131216287635
 20
1875.2483360003309
 11
4431.4504191576889
 21
1875.2483360003309
  0
LINE
  8
_0-2_08_DIM
  6
CONTINUOUS
 62
    3
 10
4425.2004191576889
 20
1875.2483360003309
 11
4425.2004191576889
 21
1964.1025026669979
  0
LINE
  8
_0-2_08_DIM
  6
CONTINUOUS
 62
    3
 10
4425.2004191576889
 20
1852.7483360011859
 11
4425.2004191576889
 21
1862.7483360003312
  0
INSERT
  2
-009-_Open30
  8
_0-2_08_DIM
 10
4425.2004191576889
 20
1840.2483360011856
 41
12.5
 42
12.5
 50
270
  0
INSERT
  2
-009-_Open30
  8
_0-2_08_DIM
 10
4425.2004191576889
 20
1875.2483360003309
 41
12.5
 42
12.5
 50
90
  0
LINE
  8
_0-2_08_DIM
  6
CONTINUOUS
 62
    3
 10
4161.4948604004585
 20
1837.7483360025426
 11
4169.6237931715586
 21
1837.7483360025426
  0
LINE
  8
_0-2_08_DIM
  6
CONTINUOUS
 62
    3
 10
4161.4948603972653
 20
1877.7483360025478
 11
4169.6237931715586
 21
1877.7483360025478
  0
LINE
  8
_0-2_08_DIM
  6
CONTINUOUS
 62
    3
 10
4163.3737931715586
 20
1877.7483360025478
 11
4163.3737931715586
 21
1934.6233360025476
  0
LINE
  8
_0-2_08_DIM
  6
CONTINUOUS
 62
    3
 10
4163.3737931715586
 20
1850.2483360025424
 11
4163.3737931715586
 21
1865.2483360025478
  0
INSERT
  2
-009-_Open30
  8
_0-2_08_DIM
 10
4163.3737931715586
 20
1837.7483360025426
 41
12.5
 42
12.5
 50
270
  0
INSERT
  2
-009-_Open30
  8
_0-2_08_DIM
 10
4163.3737931715586
 20
1877.7483360025478
 41
12.5
 42
12.5
 50
90
  0
LINE
  8
_0-2_08_DIM
  6
CONTINUOUS
 62
    3
 10
4301.0881216287626
 20
1835.6233359996579
 11
4301.0881216287626
 21
1636.4833982659611
  0
LINE
  8
_0-2_08_DIM
  6
CONTINUOUS
 62
    3
 10
4348.0881216287626
 20
1838.1233360011859
 11
4348.0881216287626
 21
1636.4833982659611
  0
LINE
  8
_0-2_08_DIM
  6
CONTINUOUS
 62
    3
 10
4313.5881216287626
 20
1642.7333982659613
 11
4335.5881216287626
 21
1642.7333982659613
  0
INSERT
  2
-009-_Open30
  8
_0-2_08_DIM
 10
4301.0881216287626
 20
1642.7333982659613
 41
12.5
 42
12.5
 50
180
  0
INSERT
  2
-009-_Open30
  8
_0-2_08_DIM
 10
4348.0881216287626
 20
1642.7333982659613
 41
12.5
 42
12.5
 50
0
  0
LINE
  8
_0-2_08_DIM
  6
CONTINUOUS
 62
    3
 10
4301.0881216287626
 20
1835.6233359996579
 11
4301.0881216287626
 21
1636.4833982666344
  0
LINE
  8
_0-2_08_DIM
  6
CONTINUOUS
 62
    3
 10
2385.0881216288235
 20
1835.6233360005219
 11
2385.0881216288235
 21
1636.4833982666344
  0
LINE
  8
_0-2_08_DIM
  6
CONTINUOUS
 62
    3
 10
4288.5881216287626
 20
1642.7333982666344
 11
2397.5881216288235
 21
1642.7333982666344
  0
INSERT
  2
-009-_Open30
  8
_0-2_08_DIM
 10
4301.0881216287626
 20
1642.7333982666344
 41
12.5
 42
12.5
 50
0
  0
INSERT
  2
-009-_Open30
  8
_0-2_08_DIM
 10
2385.0881216288235
 20
1642.7333982666344
 41
12.5
 42
12.5
 50
180
  0
LINE
  8
_0-2_08_DIM
  6
CONTINUOUS
 62
    3
 10
4348.0881216287626
 20
1838.1233360011859
 11
4348.0881216287626
 21
1564.7979652678962
  0
LINE
  8
_0-2_08_DIM
  6
CONTINUOUS
 62
    3
 10
2338.0881216288235
 20
1838.1233360013771
 11
2338.0881216288235
 21
1564.7979652678962
  0
LINE
  8
_0-2_08_DIM
  6
CONTINUOUS
 62
    3
 10
4335.5881216287626
 20
1571.0479652678962
 11
2350.588121628823
 21
1571.0479652678962
  0
INSERT
  2
-009-_Open30
  8
_0-2_08_DIM
 10
4348.0881216287626
 20
1571.0479652678962
 41
12.5
 42
12.5
 50
0
  0
INSERT
  2
-009-_Open30
  8
_0-2_08_DIM
 10
2338.0881216288235
 20
1571.0479652678962
 41
12.5
 42
12.5
 50
180
  0
LINE
  8
_0-2_08_DIM
  6
CONTINUOUS
 62
    3
 10
4285.2131216308708
 20
1962.748336001184
 11
4488.1419069252415
 21
1962.748336001184
  0
LINE
  8
_0-2_08_DIM
  6
CONTINUOUS
 62
    3
 10
4285.2131216308726
 20
1752.7483360011822
 11
4488.1419069252415
 21
1752.7483360011822
  0
LINE
  8
_0-2_08_DIM
  6
CONTINUOUS
 62
    3
 10
4481.8919069252415
 20
1950.248336001184
 11
4481.8919069252415
 21
1765.2483360011822
  0
INSERT
  2
-009-_Open30
  8
_0-2_08_DIM
 10
4481.8919069252415
 20
1962.748336001184
 41
12.5
 42
12.5
 50
90
  0
INSERT
  2
-009-_Open30
  8
_0-2_08_DIM
 10
4481.8919069252415
 20
1752.7483360011822
 41
12.5
 42
12.5
 50
270
  0
LINE
  8
_0-2_08_DIM
  6
CONTINUOUS
 62
    3
 10
2335.9631216288235
 20
1840.2483360013769
 11
2240.559661841954
 21
1840.2483360013769
  0
LINE
  8
_0-2_08_DIM
  6
CONTINUOUS
 62
    3
 10
2335.9631216287034
 20
1875.248336000604
 11
2240.559661841954
 21
1875.248336000604
  0
LINE
  8
_0-2_08_DIM
  6
CONTINUOUS
 62
    3
 10
2246.809661841954
 20
1875.248336000604
 11
2246.809661841954
 21
1964.1025026672705
  0
LINE
  8
_0-2_08_DIM
  6
CONTINUOUS
 62
    3
 10
2246.809661841954
 20
1852.7483360013771
 11
2246.809661841954
 21
1862.7483360006038
  0
INSERT
  2
-009-_Open30
  8
_0-2_08_DIM
 10
2246.809661841954
 20
1840.2483360013769
 41
12.5
 42
12.5
 50
270
  0
INSERT
  2
-009-_Open30
  8
_0-2_08_DIM
 10
2246.809661841954
 20
1875.248336000604
 41
12.5
 42
12.5
 50
90
  0
LINE
  8
_0-2_08_DIM
  6
CONTINUOUS
 62
    3
 10
2385.0881216288235
 20
1835.6233360005219
 11
2385.0881216288235
 21
1636.4833982666344
  0
LINE
  8
_0-2_08_DIM
  6
CONTINUOUS
 62
    3
 10
2338.0881216288235
 20
1838.1233360013771
 11
2338.0881216288235
 21
1636.4833982666344
  0
LINE
  8
_0-2_08_DIM
  6
CONTINUOUS
 62
    3
 10
2338.0881216288235
 20
1642.7333982666344
 11
2275.5881216288235
 21
1642.7333982666344
  0
LINE
  8
_0-2_08_DIM
  6
CONTINUOUS
 62
    3
 10
2372.5881216288235
 20
1642.7333982666344
 11
2350.588121628823
 21
1642.7333982666344
  0
INSERT
  2
-009-_Open30
  8
_0-2_08_DIM
 10
2385.0881216288235
 20
1642.7333982666344
 41
12.5
 42
12.5
 50
0
  0
INSERT
  2
-009-_Open30
  8
_0-2_08_DIM
 10
2338.0881216288235
 20
1642.7333982666344
 41
12.5
 42
12.5
 50
180
  0
LINE
  8
_0-2_08_DIM
  6
CONTINUOUS
 62
    3
 10
2403.0881216308717
 20
1964.873336001184
 11
2403.0881216308717
 21
2108.5038317635222
  0
LINE
  8
_0-2_08_DIM
  6
CONTINUOUS
 62
    3
 10
2338.0881216287039
 20
1877.373336000604
 11
2338.0881216287039
 21
2108.5038317635222
  0
LINE
  8
_0-2_08_DIM
  6
CONTINUOUS
 62
    3
 10
2390.5881216308717
 20
2102.2538317635222
 11
2350.5881216287039
 21
2102.2538317635222
  0
INSERT
  2
-009-_Open30
  8
_0-2_08_DIM
 10
2403.0881216308717
 20
2102.2538317635222
 41
12.5
 42
12.5
 50
0
  0
INSERT
  2
-009-_Open30
  8
_0-2_08_DIM
 10
2338.0881216287039
 20
2102.2538317635222
 41
12.5
 42
12.5
 50
180
  0
LINE
  8
_0-2_08_DIM
  6
CONTINUOUS
 62
    3
 10
4283.0881216308708
 20
1964.873336001184
 11
4283.0881216308708
 21
2108.5038317635203
  0
LINE
  8
_0-2_08_DIM
  6
CONTINUOUS
 62
    3
 10
4348.0881216287635
 20
1877.3733360003309
 11
4348.0881216287635
 21
2108.5038317635203
  0
LINE
  8
_0-2_08_DIM
  6
CONTINUOUS
 62
    3
 10
4295.5881216308708
 20
2102.2538317635203
 11
4335.5881216287635
 21
2102.2538317635203
  0
INSERT
  2
-009-_Open30
  8
_0-2_08_DIM
 10
4283.0881216308708
 20
2102.2538317635203
 41
12.5
 42
12.5
 50
180
  0
INSERT
  2
-009-_Open30
  8
_0-2_08_DIM
 10
4348.0881216287635
 20
2102.2538317635203
 41
12.5
 42
12.5
 50
0
  0
LINE
  8
_0-2_08_DIM
  6
CONTINUOUS
 62
    3
 10
2329.7492868639915
 20
1831.9095012365453
 11
2289.801338787709
 21
1791.9615531602626
  0
INSERT
  2
-009-_Open30
  8
_0-2_08_DIM
 10
2338.5881216288235
 20
1840.7483360013769
 41
12.5
 42
12.5
 50
45.000000000000036
  0
LINE
  8
_0-2_08_DIM
  6
CONTINUOUS
 62
    3
 10
4356.4269563935959
 20
1883.5871707651636
 11
4389.4133751714817
 21
1916.5735895430485
  0
INSERT
  2
-009-_Open30
  8
_0-2_08_DIM
 10
4347.5881216287644
 20
1874.7483360003316
 41
12.5
 42
12.5
 50
225.00000000000003
  0
LINE
  8
_0-2_08_DIM
  6
CONTINUOUS
 62
    3
 10
4308.7355848247116
 20
1886.7282539038758
 11
4338.1874350241524
 21
1920.9967268387288
  0
INSERT
  2
-009-_Open30
  8
_0-2_08_DIM
 10
4300.5881216287644
 20
1877.2483359996586
 41
12.500000000000002
 42
12.500000000000002
 50
229.32277040692171
  0
LINE
  8
_0-2_08_DIM
  6
CONTINUOUS
 62
    3
 10
2377.1680087876616
 20
1829.0097376359379
 11
2340.7409968075481
 21
1789.0418013796675
  0
INSERT
  2
-009-_Open30
  8
_0-2_08_DIM
 10
2385.5881216288235
 20
1838.2483360005222
 41
12.5
 42
12.5
 50
47.653773879726039
  0
LINE
  8
_0-2_08_DIM
  6
CONTINUOUS
 62
    3
 10
4219.1417904844093
 20
1957.698336001183
 11
4211.4327634144865
 21
1957.698336001183
  0
LINE
  8
_0-2_08_DIM
  6
CONTINUOUS
 62
    3
 10
4219.1417904844111
 20
1962.748336001184
 11
4211.4327634144865
 21
1962.748336001184
  0
LINE
  8
_0-2_08_DIM
  6
CONTINUOUS
 62
    3
 10
4217.6827634144875
 20
1975.248336001184
 11
4217.6827634144875
 21
2055.4566693345168
  0
LINE
  8
_0-2_08_DIM
  6
CONTINUOUS
 62
    3
 10
4217.6827634144875
 20
1957.698336001183
 11
4217.6827634144875
 21
1962.748336001184
  0
LINE
  8
_0-2_08_DIM
  6
CONTINUOUS
 62
    3
 10
4217.6827634144875
 20
1945.198336001183
 11
4217.6827634144875
 21
1932.698336001183
  0
INSERT
  2
-009-_Open30
  8
_0-2_08_DIM
 10
4217.6827634144875
 20
1957.698336001183
 41
12.5
 42
12.5
 50
90
  0
INSERT
  2
-009-_Open30
  8
_0-2_08_DIM
 10
4217.6827634144875
 20
1962.748336001184
 41
12.5
 42
12.5
 50
270
  0
TEXT
  8
_0-3_07_TEXT
 62
    3
 10
4884.3003996054376
 20
1480.795871592544
 40
14.999999999999998
 41
1
 50
0
  1
注記
  0
TEXT
  8
_0-3_07_TEXT
 62
    3
 10
4885.5003996054375
 20
1452.9008715925438
 40
14.999999999999998
 41
1
 50
0
  1
　指示なき角部は
  0
TEXT
  8
_0-3_07_TEXT
 62
    3
 10
5047.1253996054365
 20
1452.9008715925438
 40
14.999999999999998
 41
1
 50
0
  1
C0.5
  0
TEXT
  8
_0-3_07_TEXT
 62
    3
 10
5097.8396853197228
 20
1452.9008715925438
 40
14.999999999999998
 41
1
 50
0
  1
のこと
  0
TEXT
  8
_0-3_07_TEXT
 62
    3
 10
4885.5003996054375
 20
1425.1858715925439
 40
14.999999999999998
 41
1
 50
0
  1
　指示なき溶接部は　　　　のこと
  0
TEXT
  8
_0-2_08_DIM
 62
    3
 10
4623.3431433778151
 20
2944.5579827927122
 40
22.499999999999996
 41
1
 50
0
  1
表面処理：
  0
TEXT
  8
_0-2_08_DIM
 62
    3
 10
4623.3431433778151
 20
2902.8504827927122
 40
22.499999999999996
 41
1
 50
0
  1
塗装色：
  0
TEXT
  8
_0-2_08_DIM
 62
    3
 10
3422.7154076739448
 20
2805.3132122116617
 40
14.999999999999998
 41
1
 50
90
  1
4
  0
TEXT
  8
_0-2_08_DIM
 62
    3
 10
3328.8024073473525
 20
2838.0175875872346
 40
14.999999999999998
 41
1
 50
0
  1
40
  0
TEXT
  8
_0-2_08_DIM
 62
    3
 10
3863.4452644880143
 20
2962.4647656085699
 40
14.999999999999998
 41
1
 50
0
  1
1100
  0
TEXT
  8
_0-2_08_DIM
 62
    3
 10
3314.5166930594423
 20
2891.6903448733528
 40
14.999999999999998
 41
1
 50
0
  1
2200
  0
TEXT
  8
_0-2_08_DIM
 62
    3
 10
4522.1615682778292
 20
2696.4739264973755
 40
14.999999999999998
 41
1
 50
90
  1
?110
  0
TEXT
  8
_0-2_08_DIM
 62
    3
 10
4540.9115682778283
 20
2686.8782122116618
 40
14.999999999999998
 41
1
 50
90
  1
(
  0
TEXT
  8
_0-2_08_DIM
 62
    3
 10
4540.9115682778283
 20
2696.8782122116618
 40
14.999999999999998
 41
1
 50
90
  1
ミガキ
  0
TEXT
  8
_0-2_08_DIM
 62
    3
 10
4540.9115682778283
 20
2752.4982122116612
 40
14.999999999999998
 41
1
 50
90
  1
)
  0
TEXT
  8
_0-2_08_DIM
 62
    3
 10
3260.8916930594428
 20
2604.7401405079445
 40
14.999999999999998
 41
1
 50
0
  1
?26
  0
TEXT
  8
_0-2_08_DIM
 62
    3
 10
3422.7154076739448
 20
2615.714997925947
 40
14.999999999999998
 41
1
 50
90
  1
20
  0
TEXT
  8
_0-2_08_DIM
 62
    3
 10
4471.3783194483549
 20
2812.3978274115634
 40
14.999999999999998
 41
1
 50
45
  1
2-C2
  0
TEXT
  8
_0-2_08_DIM
 62
    3
 10
3059.4842074893286
 20
2970.7846341695763
 40
14.999999999999998
 41
1
 50
0
  1
18
  0
TEXT
  8
_0-2_08_DIM
 62
    3
 10
3088.055636060757
 20
2970.7846341695763
 40
14.999999999999998
 41
1
 50
0
  1
キリ
  0
TEXT
  8
_0-2_08_DIM
 62
    3
 10
3125.2856360607575
 20
2970.7846341695763
 40
14.999999999999998
 41
1
 50
0
  1
φ
  0
TEXT
  8
_0-2_08_DIM
 62
    3
 10
3138.8606360607573
 20
2970.7846341695763
 40
14.999999999999998
 41
1
 50
0
  1
26
  0
TEXT
  8
_0-2_08_DIM
 62
    3
 10
3167.4320646321858
 20
2970.7846341695763
 40
14.999999999999998
 41
1
 50
0
  1
ザグリ深
  0
TEXT
  8
_0-2_08_DIM
 62
    3
 10
3247.862064632186
 20
2970.7846341695763
 40
14.999999999999998
 41
1
 50
0
  1
20
  0
TEXT
  8
_0-2_08_DIM
 62
    3
 10
3313.4452644880143
 20
2105.3788317641929
 40
14.999999999999998
 41
1
 50
0
  1
1880
  0
TEXT
  8
_0-2_08_DIM
 62
    3
 10
4231.4631216337611
 20
2033.7660292391204
 40
14.999999999999998
 41
1
 50
0
  1
6
  0
TEXT
  8
_0-2_08_DIM
 62
    3
 10
4309.070264488013
 20
2033.7764459057869
 40
14.999999999999998
 41
1
 50
0
  1
5
  0
TEXT
  8
_0-2_08_DIM
 62
    3
 10
2439.7131216351622
 20
2033.766029239122
 40
14.999999999999998
 41
1
 50
0
  1
6
  0
TEXT
  8
_0-2_08_DIM
 62
    3
 10
2362.8202644951962
 20
2033.7764459057887
 40
14.999999999999998
 41
1
 50
0
  1
5
  0
TEXT
  8
_0-2_08_DIM
 62
    3
 10
4212.0577634144875
 20
1808.8197645726123
 40
14.999999999999998
 41
1
 50
90
  1
(?199.9)
  0
TEXT
  8
_0-2_08_DIM
 62
    3
 10
4422.0650024910228
 20
1890.9254193336644
 40
14.999999999999998
 41
1
 50
90
  1
?35h7
  0
TEXT
  8
_0-2_08_DIM
 62
    3
 10
4160.2487931715586
 20
1891.3644074311189
 40
14.999999999999998
 41
1
 50
90
  1
?40
  0
TEXT
  8
_0-2_08_DIM
 62
    3
 10
4310.3024073430488
 20
1645.8583982659616
 40
14.999999999999998
 41
1
 50
0
  1
47
  0
TEXT
  8
_0-2_08_DIM
 62
    3
 10
3313.4452644859361
 20
1645.8583982666344
 40
14.999999999999998
 41
1
 50
0
  1
1916
  0
TEXT
  8
_0-2_08_DIM
 62
    3
 10
3314.5166930573637
 20
1574.1729652678962
 40
14.999999999999998
 41
1
 50
0
  1
2010
  0
TEXT
  8
_0-2_08_DIM
 62
    3
 10
4478.7669069252415
 20
1829.5340502868974
 40
14.999999999999998
 41
1
 50
90
  1
?210
  0
TEXT
  8
_0-2_08_DIM
 62
    3
 10
2243.6742451752875
 20
1890.9254193339373
 40
14.999999999999998
 41
1
 50
90
  1
?35h7
  0
TEXT
  8
_0-2_08_DIM
 62
    3
 10
2276.3024073431093
 20
1648.3583982666344
 40
14.999999999999998
 41
1
 50
0
  1
(47)
  0
TEXT
  8
_0-2_08_DIM
 62
    3
 10
2346.3024073440733
 20
2107.8892484301882
 40
14.999999999999998
 41
1
 50
0
  1
(65)
  0
TEXT
  8
_0-2_08_DIM
 62
    3
 10
4300.9452644869607
 20
2105.3892484301869
 40
14.999999999999998
 41
1
 50
0
  1
65
  0
TEXT
  8
_0-2_08_DIM
 62
    3
 10
2288.0335718347424
 20
1794.6132035897122
 40
14.999999999999998
 41
1
 50
44.999999999999702
  1
C1
  0
TEXT
  8
_0-2_08_DIM
 62
    3
 10
4369.0840552123673
 20
1900.6636869663514
 40
14.999999999999998
 41
1
 50
44.999999999999702
  1
C1
  0
TEXT
  8
_0-2_08_DIM
 62
    3
 10
4319.1151559964082
 20
1903.5997609340704
 40
14.999999999999998
 41
1
 50
49.322770406922125
  1
C1
  0
TEXT
  8
_0-2_08_DIM
 62
    3
 10
2338.8523528584601
 20
1791.6087595081874
 40
14.999999999999998
 41
1
 50
47.653773879725826
  1
C1
  0
TEXT
  8
_0-2_08_DIM
 62
    3
 10
4212.0369300811544
 20
1986.6025026678506
 40
14.999999999999998
 41
1
 50
90
  1
(5.05)
  0
TEXT
  8
_0-0_90_FRAME
 62
    3
 10
1898.9511147794501
 20
296.63958735456231
 40
14.999999999999998
 41
1
 50
0
  1
寺田
  0
TEXT
  8
_0-0_90_FRAME
 62
    3
 10
1515.8097522926012
 20
296.63958735456231
 40
14.999999999999998
 41
0.65
 50
0
  1
2013.09.01
  0
TEXT
  8
_0-0_90_FRAME
 62
    3
 10
1615.7681890251554
 20
296.63958735456231
 40
14.999999999999998
 41
1
 50
0
  1
エアー抜き追加
  0
TEXT
  8
_0-8_
 62
    7
 10
2333.3241248198779
 20
277.47858562735871
 40
47.492487937325095
 41
1
 50
0
  1
A3　150%
  0
ENDSEC
  0
EOF
