  0
SECTION
  2
HEADER
  9
$ACADVER
  1
AC1009
  9
$INSBASE
 10
0
 20
0
 30
0
  9
$EXTMIN
 10
0
 20
0
  9
$EXTMAX
 10
5319.1586489804095
 20
3761.4050446361466
  9
$LIMMIN
 10
0
 20
0
  9
$LIMMAX
 10
5319.1586489804095
 20
3761.4050446361466
  9
$LTSCALE
 40
12.664663449953355
  0
ENDSEC
  0
SECTION
  2
TABLES
  0
TABLE
  2
LTYPE
 70
     9
  0
LTYPE
  2
CONTINUOUS
 70
    64
  3
実線
 72
    65
 73
     0
 40
0.0
  0
LTYPE
  2
DASHED1
 70
    64
  3
--  --  --  --  --  --  --  --  
 72
    65
 73
     2
 40
2.5
 49
1.25
 49
-1.25
  0
LTYPE
  2
DASHED2
 70
    64
  3
----    ----    ----    ----    
 72
    65
 73
     2
 40
5.0
 49
2.5
 49
-2.5
  0
LTYPE
  2
DASHED3
 70
    64
  3
------  ------  ------  ------  
 72
    65
 73
     2
 40
5.0
 49
3.75
 49
-1.25
  0
LTYPE
  2
CENTER1
 70
    64
  3
----- - ----- - ----- - ----- - 
 72
    65
 73
     4
 40
10.0
 49
6.25
 49
-1.25
 49
1.25
 49
-1.25
  0
LTYPE
  2
CENTER2
 70
    64
  3
----------  --  ----------  --  
 72
    65
 73
     4
 40
20.0
 49
12.5
 49
-2.5
 49
2.5
 49
-2.5
  0
LTYPE
  2
PHANTOM1
 70
    64
  3
--- - - --- - - --- - - --- - - 
 72
    65
 73
     6
 40
10.0
 49
3.25
 49
-1.25
 49
1.25
 49
-1.25
 49
1.25
 49
-1.25
  0
LTYPE
  2
PHANTOM2
 70
    64
  3
--------  -  -  --------  -  -  
 72
    65
 73
     6
 40
20.0
 49
10.0
 49
-2.5
 49
1.25
 49
-2.5
 49
1.25
 49
-2.5
  0
LTYPE
  2
DOT
 70
    64
  3
-   -   -   -   -   -   -   -   
 72
    65
 73
     2
 40
2.5
 49
0.625
 49
-1.875
  0
LTYPE
  2
DUMMY
 70
    64
  3
ダミー
 72
    65
 73
     0
 40
0.0
  0
LTYPE
  2
RAND1
 70
    64
  3
ランダム線1
 72
    65
 73
     4
 40
10.0
 49
1.0
 49
-2.0
 49
3.0
 49
-4.0
  0
LTYPE
  2
RAND2
 70
    64
  3
ランダム線2
 72
    65
 73
     4
 40
14.0
 49
2.0
 49
-3.0
 49
4.0
 49
-5.0
  0
LTYPE
  2
RAND3
 70
    64
  3
ランダム線3
 72
    65
 73
     4
 40
18.0
 49
3.0
 49
-4.0
 49
5.0
 49
-6.0
  0
LTYPE
  2
RAND4
 70
    64
  3
ランダム線4
 72
    65
 73
     4
 40
22.0
 49
4.0
 49
-5.0
 49
6.0
 49
-7.0
  0
LTYPE
  2
RAND5
 70
    64
  3
ランダム線5
 72
    65
 73
     4
 40
26.0
 49
5.0
 49
-6.0
 49
7.0
 49
-8.0
  0
LTYPE
  2
LONG1
 70
    64
  3
----------  --  ----------  --  
 72
    65
 73
     4
 40
40.0
 49
32.5
 49
-2.5
 49
2.5
 49
-2.5
  0
LTYPE
  2
LONG2
 70
    64
  3
--------  -  -  --------  -  -  
 72
    65
 73
     6
 40
40.0
 49
30.0
 49
-2.5
 49
1.25
 49
-2.5
 49
1.25
 49
-2.5
  0
LTYPE
  2
LONG3
 70
    64
  3
+++++++++++++++..+++++++++++++++
 72
    65
 73
     2
 40
40.0
 49
37.5
 49
-2.5
  0
LTYPE
  2
LONG4
 70
    64
  3
+++++++++++++++..+++++++++++++++
 72
    65
 73
     2
 40
80.0
 49
75.0
 49
-5.0
  0
LTYPE
  2
LONG5
 70
    64
  3
----------  --  ----------  --  
 72
    65
 73
     4
 40
60.0
 49
37.5
 49
-7.5
 49
7.5
 49
-7.5
  0
LTYPE
  2
dashed
 70
   64
  3
-------   -------------   ------
 72
   65
 73
    2
 40
7.5
 49
6
 49
-1.5
  0
LTYPE
  2
dashed_spaced
 70
   64
  3
----        --------        ----
 72
   65
 73
    2
 40
12
 49
6
 49
-6
  0
LTYPE
  2
long_dashed_dotted
 70
   64
  3
------------- --- --------------
 72
   65
 73
    4
 40
15.25
 49
12
 49
-1.5
 49
0.25
 49
-1.5
  0
LTYPE
  2
long_dashed_double-dotted
 70
   64
  3
----------- --- --- ------------
 72
   65
 73
    6
 40
17
 49
12
 49
-1.5
 49
0.25
 49
-1.5
 49
0.25
 49
-1.5
  0
LTYPE
  2
long_dashed_triplicate-dotted
 70
   64
  3
--------- --- --- --- ----------
 72
   65
 73
    8
 40
18.75
 49
12
 49
-1.5
 49
0.25
 49
-1.5
 49
0.25
 49
-1.5
 49
0.25
 49
-1.5
  0
LTYPE
  2
dotted
 70
   64
  3
   -       -       -       -    
 72
   65
 73
    2
 40
1.75
 49
0.25
 49
-1.5
  0
LTYPE
  2
chain
 70
   64
  3
-------------- -- --------------
 72
   65
 73
    4
 40
18.5
 49
12
 49
-1.5
 49
3.5
 49
-1.5
  0
LTYPE
  2
chain_double_dash
 70
   64
  3
------------ -- -- -------------
 72
   65
 73
    6
 40
23.5
 49
12
 49
-1.5
 49
3.5
 49
-1.5
 49
3.5
 49
-1.5
  0
LTYPE
  2
dashed_dotted
 70
   64
  3
-----------     -     ----------
 72
   65
 73
    4
 40
9.25
 49
6
 49
-1.5
 49
0.25
 49
-1.5
  0
LTYPE
  2
double-dashed_dotted
 70
   64
  3
------   -----------   -   -----
 72
   65
 73
    6
 40
16.75
 49
6
 49
-1.5
 49
6
 49
-1.5
 49
0.25
 49
-1.5
  0
LTYPE
  2
dashed_double-dotted
 70
   64
  3
---------    -    -    ---------
 72
   65
 73
    6
 40
11
 49
6
 49
-1.5
 49
0.25
 49
-1.5
 49
0.25
 49
-1.5
  0
LTYPE
  2
double-dashed_double-dotted
 70
   64
  3
-----   ---------   -   -   ----
 72
   65
 73
    8
 40
18.5
 49
6
 49
-1.5
 49
6
 49
-1.5
 49
0.25
 49
-1.5
 49
0.25
 49
-1.5
  0
LTYPE
  2
dashed_triplicate-dotted
 70
   64
  3
-------    -    -    -    ------
 72
   65
 73
    8
 40
12.75
 49
6
 49
-1.5
 49
0.25
 49
-1.5
 49
0.25
 49
-1.5
 49
0.25
 49
-1.5
  0
LTYPE
  2
double-dashed_triplicate-dotted
 70
   64
  3
-----  ---------  -  -  -  -----
 72
   65
 73
   10
 40
20.25
 49
6
 49
-1.5
 49
6
 49
-1.5
 49
0.25
 49
-1.5
 49
0.25
 49
-1.5
 49
0.25
 49
-1.5
  0
LTYPE
  2
undefined
 70
   64
  3
--------------------------------
 72
   65
 73
    0
 40
0
  0
LTYPE
  2
_
 70
   64
  3
                                
 72
   65
 73
    0
 40
0
  0
LTYPE
  2
__18
 70
   64
  3
                                
 72
   65
 73
    0
 40
0
  0
LTYPE
  2
__19
 70
   64
  3
                                
 72
   65
 73
    0
 40
0
  0
LTYPE
  2
__20
 70
   64
  3
                                
 72
   65
 73
    0
 40
0
  0
LTYPE
  2
__21
 70
   64
  3
                                
 72
   65
 73
    0
 40
0
  0
LTYPE
  2
__22
 70
   64
  3
                                
 72
   65
 73
    0
 40
0
  0
LTYPE
  2
__23
 70
   64
  3
                                
 72
   65
 73
    0
 40
0
  0
LTYPE
  2
__24
 70
   64
  3
                                
 72
   65
 73
    0
 40
0
  0
LTYPE
  2
__25
 70
   64
  3
                                
 72
   65
 73
    0
 40
0
  0
LTYPE
  2
__26
 70
   64
  3
                                
 72
   65
 73
    0
 40
0
  0
LTYPE
  2
__27
 70
   64
  3
                                
 72
   65
 73
    0
 40
0
  0
LTYPE
  2
__28
 70
   64
  3
                                
 72
   65
 73
    0
 40
0
  0
LTYPE
  2
__29
 70
   64
  3
                                
 72
   65
 73
    0
 40
0
  0
LTYPE
  2
__30
 70
   64
  3
                                
 72
   65
 73
    0
 40
0
  0
LTYPE
  2
__31
 70
   64
  3
                                
 72
   65
 73
    0
 40
0
  0
LTYPE
  2
__32
 70
   64
  3
                                
 72
   65
 73
    0
 40
0
  0
ENDTAB
  0
TABLE
  2
STYLE
  5
3
100
AcDbSymbolTable
 70
     1
  0
STYLE
  5
10
100
AcDbSymbolTableRecord
100
AcDbTextStyleTableRecord
  2
STANDARD
 70
     0
 40
0.0
 41
1.0
 50
0.0
 71
     0
 42
0.2
  3
txt
  4
bigfont.shx
  0
STYLE
  5
26
100
AcDbSymbolTableRecord
100
AcDbTextStyleTableRecord
  2
TATEGAKI
 70
    68
 40
0.0
 41
1.0
 50
0.0
 71
     0
 42
1.0
  3
txt
  4
bigfont.shx
  0
ENDTAB
  0
TABLE
  2
LAYER
 70
   11
  0
LAYER
  2
_0-0_90_FRAME
 70
   64
 62
    7
  6
CONTINUOUS
  0
LAYER
  2
_0-1_91_BLANK
 70
   64
 62
    7
  6
CONTINUOUS
  0
LAYER
  2
_0-2_08_DIM
 70
   64
 62
    7
  6
CONTINUOUS
  0
LAYER
  2
_0-3_0
 70
   64
 62
    7
  6
CONTINUOUS
  0
LAYER
  2
_0-4_05_CENTER
 70
   64
 62
    7
  6
CONTINUOUS
  0
LAYER
  2
_0-5_04_HIDDEN
 70
   64
 62
    7
  6
CONTINUOUS
  0
LAYER
  2
_0-6_01_NORMAL
 70
   64
 62
    7
  6
CONTINUOUS
  0
LAYER
  2
_0-7_07_TEXT
 70
   64
 62
    7
  6
CONTINUOUS
  0
LAYER
  2
_0-8_02_SLIM
 70
   64
 62
    7
  6
CONTINUOUS
  0
LAYER
  2
_0-9_
 70
   64
 62
    7
  6
CONTINUOUS
  0
LAYER
  2
ADD_LINE
 70
   64
 62
    7
  6
CONTINUOUS
  0
ENDTAB
  0
ENDSEC
  0
SECTION
  2
BLOCKS
  0
BLOCK
  2
-000-p1ba02
 70
   64
 10
0
 20
0
 30
0
  0
LINE
  8
_0-2_08_DIM
  6
CONTINUOUS
 62
    3
 10
3.0000000000000147
 20
0
 11
1.5000000000000142
 21
2.5980762113532592
  0
LINE
  8
_0-2_08_DIM
  6
CONTINUOUS
 62
    3
 10
4.5000000000000151
 20
2.5980762113532592
 11
3.0000000000000147
 21
0
  0
LINE
  8
_0-2_08_DIM
  6
CONTINUOUS
 62
    3
 10
1.5000000000000142
 20
2.5980762113532592
 11
4.5000000000000151
 21
2.5980762113532592
  0
LINE
  8
_0-2_08_DIM
  6
CONTINUOUS
 62
    3
 10
-1.499999999999986
 20
2.5980762113532592
 11
1.5000000000000142
 21
2.5980762113532592
  0
LINE
  8
_0-2_08_DIM
  6
CONTINUOUS
 62
    3
 10
1.5000000000000142
 20
2.5980762113532592
 11
0.0000000000000142
 21
0
  0
LINE
  8
_0-2_08_DIM
  6
CONTINUOUS
 62
    3
 10
0.0000000000000142
 20
0
 11
-1.499999999999986
 21
2.5980762113532592
  0
ENDBLK
  0
BLOCK
  2
-001-p1ba01
 70
   64
 10
0
 20
0
 30
0
  0
LINE
  8
_0-2_08_DIM
  6
CONTINUOUS
 62
    3
 10
0
 20
0
 11
-1.5000000000000002
 21
2.5980762113532592
  0
LINE
  8
_0-2_08_DIM
  6
CONTINUOUS
 62
    3
 10
1.5000000000000002
 20
2.5980762113532592
 11
0
 21
0
  0
LINE
  8
_0-2_08_DIM
  6
CONTINUOUS
 62
    3
 10
-1.5000000000000002
 20
2.5980762113532592
 11
1.5000000000000002
 21
2.5980762113532592
  0
ENDBLK
  0
BLOCK
  2
-002-p1ba05
 70
   64
 10
0
 20
0
 30
0
  0
ARC
  8
_0-2_08_DIM
  6
CONTINUOUS
 62
    3
 10
0
 20
1.6206695983957433
 40
1.6206695983958537
 50
204.22763733453323
 51
335.57577857182139
  0
ARC
  8
_0-2_08_DIM
  6
CONTINUOUS
 62
    3
 10
-2.9535588745990822
 20
0.2854771617432377
 40
1.6206695983958537
 50
24.227637334533135
 51
155.57577857182133
  0
ENDBLK
  0
BLOCK
  2
-003-_Open30
 70
   64
 10
0
 20
0
 30
0
  0
LINE
  8
_0-2_08_DIM
  6
CONTINUOUS
 62
    3
 10
-1
 20
0.26794919
 11
0
 21
0
  0
LINE
  8
_0-2_08_DIM
  6
CONTINUOUS
 62
    3
 10
0
 20
0
 11
-1
 21
-0.26794919
  0
LINE
  8
_0-2_08_DIM
  6
CONTINUOUS
 62
    3
 10
0
 20
0
 11
-1
 21
0
  0
ENDBLK
  0
BLOCK
  2
-004-AM_BALLOON1
 70
   64
 10
0
 20
0
 30
0
  0
CIRCLE
  8
_0-2_08_DIM
  6
CONTINUOUS
 62
    3
 10
0
 20
0
 40
5
  0
ENDBLK
  0
ENDSEC
  0
SECTION
  2
ENTITIES
  0
TEXT
  8
_0-0_90_FRAME
 62
    7
 10
4021.1887175929614
 20
832.97677945453097
 40
20
 41
1
 50
0
  1
AT-221121-04-32
  0
TEXT
  8
_0-0_90_FRAME
 62
    7
 10
3884.2331693506858
 20
786.94175667195964
 40
20
 41
1
 50
0
  1
2024.09.05
  0
LINE
  8
_0-0_90_FRAME
  6
CONTINUOUS
 62
    5
 10
1158.5612159296991
 20
776.07830905085154
 11
4264.1333302061294
 21
776.07830905085154
  0
LINE
  8
_0-0_90_FRAME
  6
CONTINUOUS
 62
    5
 10
4264.1333302061294
 20
776.07830905085154
 11
4264.1333302061294
 21
2996.2938844706687
  0
LINE
  8
_0-0_90_FRAME
  6
CONTINUOUS
 62
    5
 10
4264.1333302061294
 20
2996.2938844706687
 11
1158.5612159296991
 21
2996.2938844706687
  0
LINE
  8
_0-0_90_FRAME
  6
CONTINUOUS
 62
    5
 10
1158.5612159296991
 20
2996.2938844706687
 11
1158.5612159296991
 21
776.07830905085154
  0
LINE
  8
_0-0_90_FRAME
  6
CONTINUOUS
 62
    5
 10
1003.1776045017643
 20
1886.1860967607602
 11
1158.5612159296991
 21
1886.1860967607602
  0
LINE
  8
_0-0_90_FRAME
  6
CONTINUOUS
 62
    5
 10
4315.9810444916338
 20
1886.1860967607602
 11
4264.1333302061294
 21
1886.1860967607602
  0
LINE
  8
_0-0_90_FRAME
  6
CONTINUOUS
 62
    5
 10
2711.3472730679136
 20
3056.1415987668693
 11
2711.3472730679141
 21
2996.2938844706687
  0
LINE
  8
_0-0_90_FRAME
  6
CONTINUOUS
 62
    5
 10
2711.3472730679141
 20
724.46239875616834
 11
2711.3472730679141
 21
776.07830905085154
  0
LINE
  8
_0-0_90_FRAME
  6
CONTINUOUS
 62
    5
 10
2312.5187016409504
 20
752.14859476522918
 11
3110.1758444948787
 21
752.14859476522918
  0
LINE
  8
_0-0_90_FRAME
  6
CONTINUOUS
 62
    5
 10
2312.5187016409504
 20
752.14859476522918
 11
2312.5187016409504
 21
776.07830905085154
  0
LINE
  8
_0-0_90_FRAME
  6
CONTINUOUS
 62
    5
 10
2392.284415926345
 20
752.14859476522918
 11
2392.284415926345
 21
776.07830905085154
  0
LINE
  8
_0-0_90_FRAME
  6
CONTINUOUS
 62
    5
 10
2472.05013021174
 20
752.14859476522918
 11
2472.05013021174
 21
776.07830905085154
  0
LINE
  8
_0-0_90_FRAME
  6
CONTINUOUS
 62
    5
 10
2551.8158444971245
 20
752.14859476522918
 11
2551.8158444971245
 21
776.07830905085154
  0
LINE
  8
_0-0_90_FRAME
  6
CONTINUOUS
 62
    5
 10
2631.5815587825196
 20
752.14859476522918
 11
2631.5815587825196
 21
776.07830905085154
  0
LINE
  8
_0-0_90_FRAME
  6
CONTINUOUS
 62
    5
 10
2791.1129873532986
 20
752.14859476522918
 11
2791.1129873532986
 21
776.07830905085154
  0
LINE
  8
_0-0_90_FRAME
  6
CONTINUOUS
 62
    5
 10
2870.8787016386937
 20
752.14859476522918
 11
2870.8787016386937
 21
776.07830905085154
  0
LINE
  8
_0-0_90_FRAME
  6
CONTINUOUS
 62
    5
 10
2950.6444159240882
 20
752.14859476522918
 11
2950.6444159240882
 21
776.07830905085154
  0
LINE
  8
_0-0_90_FRAME
  6
CONTINUOUS
 62
    5
 10
3030.4101302094832
 20
752.14859476522918
 11
3030.4101302094832
 21
776.07830905085154
  0
LINE
  8
_0-0_90_FRAME
  6
CONTINUOUS
 62
    5
 10
3110.1758444948787
 20
752.14859476522918
 11
3110.1758444948787
 21
776.07830905085154
  0
LINE
  8
_0-0_90_FRAME
  6
CONTINUOUS
 62
    4
 10
1908.1464130711554
 20
2996.2938844706687
 11
1908.1464130711554
 21
3048.1415987561613
  0
TEXT
  8
_0-0_90_FRAME
 62
    7
 10
1306.0177688136293
 20
3006.6206712175617
 40
16
 41
1
 50
0
  1
1
  0
TEXT
  8
_0-0_90_FRAME
 62
    7
 10
1501.2126497394474
 20
3006.6206712175617
 40
16
 41
1
 50
0
  1
2
  0
TEXT
  8
_0-0_90_FRAME
 62
    7
 10
1768.9462697383669
 20
3006.6206712175617
 40
16
 41
1
 50
0
  1
3
  0
TEXT
  8
_0-0_90_FRAME
 62
    7
 10
2036.6798897372767
 20
3006.6206712175617
 40
16
 41
1
 50
0
  1
4
  0
TEXT
  8
_0-0_90_FRAME
 62
    7
 10
2304.4135097362068
 20
3006.6206712175617
 40
16
 41
1
 50
0
  1
5
  0
TEXT
  8
_0-0_90_FRAME
 62
    7
 10
2572.1471297351159
 20
3006.6206712175617
 40
16
 41
1
 50
0
  1
6
  0
TEXT
  8
_0-0_90_FRAME
 62
    7
 10
2839.8807497340358
 20
3006.6206712175617
 40
16
 41
1
 50
0
  1
7
  0
TEXT
  8
_0-0_90_FRAME
 62
    7
 10
3107.6143697329553
 20
3006.6206712175617
 40
16
 41
1
 50
0
  1
8
  0
TEXT
  8
_0-0_90_FRAME
 62
    7
 10
3375.3479897318753
 20
3006.6206712175617
 40
16
 41
1
 50
0
  1
9
  0
TEXT
  8
_0-0_90_FRAME
 62
    7
 10
3639.0816097307952
 20
3006.6206712175617
 40
16
 41
1
 50
0
  1
10
  0
TEXT
  8
_0-0_90_FRAME
 62
    7
 10
3908.1485630630382
 20
3006.6206712175617
 40
16
 41
1
 50
0
  1
11
  0
TEXT
  8
_0-0_90_FRAME
 62
    7
 10
4173.2155163952912
 20
3006.6206712175617
 40
16
 41
1
 50
0
  1
12
  0
TEXT
  8
_0-0_90_FRAME
 62
    7
 10
4274.4403814523621
 20
2588.1582855078891
 40
16
 41
1
 50
0
  1
B
  0
LINE
  8
_0-0_90_FRAME
  6
CONTINUOUS
 62
   18
 10
1158.5612159296991
 20
776.07830905085154
 11
1566.5612159261293
 21
776.07830905085177
  0
LINE
  8
_0-0_90_FRAME
  6
CONTINUOUS
 62
   18
 10
1566.5612159261293
 20
776.07830905085177
 11
1566.5612159261293
 21
889.22116619324822
  0
LINE
  8
_0-0_90_FRAME
  6
CONTINUOUS
 62
   18
 10
1566.5612159261293
 20
889.22116619324822
 11
1158.5612159296991
 21
889.22116619324822
  0
LINE
  8
_0-0_90_FRAME
  6
CONTINUOUS
 62
   18
 10
1158.5612159296991
 20
889.22116619324822
 11
1158.5612159296991
 21
776.07830905085154
  0
LINE
  8
_0-0_90_FRAME
  6
CONTINUOUS
 62
   18
 10
1510.5612159261293
 20
776.07830905085154
 11
1510.5612159261293
 21
889.22116619324822
  0
LINE
  8
_0-0_90_FRAME
  6
CONTINUOUS
 62
   18
 10
1214.5612159261293
 20
776.07830905085154
 11
1214.5612159261293
 21
889.22116619324822
  0
LINE
  8
_0-0_90_FRAME
  6
CONTINUOUS
 62
   18
 10
1278.5612159261293
 20
776.07830905085154
 11
1278.5612159261293
 21
889.22116619324822
  0
LINE
  8
_0-0_90_FRAME
  6
CONTINUOUS
 62
   18
 10
1158.5612159296991
 20
860.93545190765451
 11
1566.5612159261293
 21
860.93545190765451
  0
LINE
  8
_0-0_90_FRAME
  6
CONTINUOUS
 62
   18
 10
1158.5612159296991
 20
832.64973762204636
 11
1566.5612159261293
 21
832.64973762204636
  0
LINE
  8
_0-0_90_FRAME
  6
CONTINUOUS
 62
   18
 10
1158.5612159296991
 20
804.36402333645265
 11
1566.5612159261293
 21
804.36402333645265
  0
TEXT
  8
_0-0_90_FRAME
 62
    7
 10
1172.5975795642778
 20
870.27830905045141
 40
9.5999999999999996
 41
1
 50
0
  1
記号
  0
TEXT
  8
_0-0_90_FRAME
 62
    7
 10
1231.223674449162
 20
870.27830905045141
 40
9.5999999999999996
 41
1
 50
0
  1
日付
  0
TEXT
  8
_0-0_90_FRAME
 62
    7
 10
1517.6157613806747
 20
870.27830905045141
 40
9.5999999999999996
 41
1
 50
0
  1
作成者
  0
TEXT
  8
_0-0_90_FRAME
 62
    7
 10
1362.6339431988565
 20
870.11467268681508
 40
9.5999999999999996
 41
1
 50
0
  1
改訂内容
  0
LINE
  8
_0-0_90_FRAME
  6
CONTINUOUS
 62
   18
 10
1173.8326444993897
 20
807.36825525586335
 11
1186.561215927914
 21
829.41478767782564
  0
LINE
  8
_0-0_90_FRAME
  6
CONTINUOUS
 62
   18
 10
1186.561215927914
 20
829.41478767782564
 11
1199.2897873564314
 21
807.36825525586335
  0
LINE
  8
_0-0_90_FRAME
  6
CONTINUOUS
 62
   18
 10
1199.2897873564314
 20
807.36825525586335
 11
1173.8326444993897
 21
807.36825525586335
  0
TEXT
  8
_0-0_90_FRAME
 62
    7
 10
1183.8044356523633
 20
839.76424088525664
 40
8.4857142856800003
 41
1
 50
0
  1
1
  0
TEXT
  8
_0-0_90_FRAME
 62
    7
 10
1183.8044356523633
 20
811.47852659965554
 40
8.4857142856800003
 41
1
 50
0
  1
2
  0
TEXT
  8
_0-0_90_FRAME
 62
    7
 10
1183.8044356523633
 20
783.19281231405466
 40
8.4857142856800003
 41
1
 50
0
  1
3
  0
LINE
  8
_0-0_90_FRAME
  6
CONTINUOUS
 62
   18
 10
1173.8326444993897
 20
835.65396954146445
 11
1186.561215927914
 21
857.70050196343379
  0
LINE
  8
_0-0_90_FRAME
  6
CONTINUOUS
 62
   18
 10
1186.561215927914
 20
857.70050196343379
 11
1199.2897873564314
 21
835.65396954146445
  0
LINE
  8
_0-0_90_FRAME
  6
CONTINUOUS
 62
   18
 10
1199.2897873564314
 20
835.65396954146445
 11
1173.8326444993897
 21
835.65396954146445
  0
LINE
  8
_0-0_90_FRAME
  6
CONTINUOUS
 62
   18
 10
1173.8326444993897
 20
779.08254097026247
 11
1186.561215927914
 21
801.12907339223193
  0
LINE
  8
_0-0_90_FRAME
  6
CONTINUOUS
 62
   18
 10
1186.561215927914
 20
801.12907339223193
 11
1199.2897873564314
 21
779.08254097026247
  0
LINE
  8
_0-0_90_FRAME
  6
CONTINUOUS
 62
   18
 10
1199.2897873564314
 20
779.08254097026247
 11
1173.8326444993897
 21
779.08254097026247
  0
LINE
  8
_0-0_90_FRAME
  6
CONTINUOUS
 62
    4
 10
4315.9810444916338
 20
1318.2083457630567
 11
4264.1333302061294
 21
1318.2083457630567
  0
LINE
  8
_0-0_90_FRAME
  6
CONTINUOUS
 62
    4
 10
4315.9810444916338
 20
1602.1972212619085
 11
4264.1333302061294
 21
1602.1972212619085
  0
LINE
  8
_0-0_90_FRAME
  6
CONTINUOUS
 62
    4
 10
4315.9810444916338
 20
1034.219470264205
 11
4264.1333302061294
 21
1034.219470264205
  0
LINE
  8
_0-0_90_FRAME
  6
CONTINUOUS
 62
    4
 10
4315.9810444916338
 20
2454.1638477584634
 11
4264.1333302061294
 21
2454.1638477584634
  0
LINE
  8
_0-0_90_FRAME
  6
CONTINUOUS
 62
    4
 10
4315.9810444916338
 20
2170.1749722596119
 11
4264.1333302061294
 21
2170.1749722596119
  0
LINE
  8
_0-0_90_FRAME
  6
CONTINUOUS
 62
    4
 10
4315.9810444916338
 20
2738.1527232573158
 11
4264.1333302061294
 21
2738.1527232573158
  0
TEXT
  8
_0-0_90_FRAME
 62
    7
 10
4274.4403814523621
 20
2872.147161006741
 40
16
 41
1
 50
0
  1
A
  0
TEXT
  8
_0-0_90_FRAME
 62
    7
 10
4274.4403814523621
 20
2304.1694100090376
 40
16
 41
1
 50
0
  1
C
  0
TEXT
  8
_0-0_90_FRAME
 62
    7
 10
4274.4403814523621
 20
2020.1805345101861
 40
16
 41
1
 50
0
  1
D
  0
TEXT
  8
_0-0_90_FRAME
 62
    7
 10
4274.4403814523621
 20
1452.2027835124825
 40
16
 41
1
 50
0
  1
F
  0
TEXT
  8
_0-0_90_FRAME
 62
    7
 10
4274.4403814523621
 20
1168.213908013631
 40
16
 41
1
 50
0
  1
G
  0
TEXT
  8
_0-0_90_FRAME
 62
    7
 10
4274.4403814523621
 20
884.22503251477917
 40
16
 41
1
 50
0
  1
H
  0
TEXT
  8
_0-0_90_FRAME
 62
    7
 10
4274.4403814523621
 20
1736.1916590113344
 40
16
 41
1
 50
0
  1
E
  0
TEXT
  8
_0-0_90_FRAME
 62
    7
 10
1135.0069690205094
 20
2588.1582855078891
 40
16
 41
1
 50
0
  1
B
  0
LINE
  8
_0-0_90_FRAME
  6
CONTINUOUS
 62
    4
 10
1158.5612159296991
 20
1318.2083457630567
 11
1106.7135016442057
 21
1318.2083457630567
  0
LINE
  8
_0-0_90_FRAME
  6
CONTINUOUS
 62
    4
 10
1158.5612159296991
 20
1602.1972212619085
 11
1106.7135016442057
 21
1602.1972212619085
  0
LINE
  8
_0-0_90_FRAME
  6
CONTINUOUS
 62
    4
 10
1158.5612159296991
 20
1034.219470264205
 11
1106.7135016442057
 21
1034.219470264205
  0
LINE
  8
_0-0_90_FRAME
  6
CONTINUOUS
 62
    4
 10
1158.5612159296991
 20
2454.1638477584634
 11
1106.7135016442057
 21
2454.1638477584634
  0
LINE
  8
_0-0_90_FRAME
  6
CONTINUOUS
 62
    4
 10
1158.5612159296991
 20
2170.1749722596119
 11
1106.7135016442057
 21
2170.1749722596119
  0
LINE
  8
_0-0_90_FRAME
  6
CONTINUOUS
 62
    4
 10
1158.5612159296991
 20
2738.1527232573158
 11
1106.7135016442057
 21
2738.1527232573158
  0
TEXT
  8
_0-0_90_FRAME
 62
    7
 10
1135.0069690205094
 20
2872.147161006741
 40
16
 41
1
 50
0
  1
A
  0
TEXT
  8
_0-0_90_FRAME
 62
    7
 10
1135.0069690205094
 20
2304.1694100090376
 40
16
 41
1
 50
0
  1
C
  0
TEXT
  8
_0-0_90_FRAME
 62
    7
 10
1135.0069690205094
 20
2020.1805345101861
 40
16
 41
1
 50
0
  1
D
  0
TEXT
  8
_0-0_90_FRAME
 62
    7
 10
1135.0069690205094
 20
1452.2027835124825
 40
16
 41
1
 50
0
  1
F
  0
TEXT
  8
_0-0_90_FRAME
 62
    7
 10
1135.0069690205094
 20
1168.213908013631
 40
16
 41
1
 50
0
  1
G
  0
TEXT
  8
_0-0_90_FRAME
 62
    7
 10
1135.0069690205094
 20
1736.1916590113344
 40
16
 41
1
 50
0
  1
E
  0
TEXT
  8
_0-0_90_FRAME
 62
    7
 10
1135.0069690205094
 20
884.22503251477917
 40
16
 41
1
 50
0
  1
H
  0
LINE
  8
_0-0_90_FRAME
  6
CONTINUOUS
 62
    4
 10
1640.4127930722357
 20
2996.2938844706687
 11
1640.4127930722357
 21
3048.1415987561613
  0
LINE
  8
_0-0_90_FRAME
  6
CONTINUOUS
 62
    4
 10
1372.6791730733157
 20
2996.2938844706687
 11
1372.6791730733157
 21
3048.1415987561613
  0
LINE
  8
_0-0_90_FRAME
  6
CONTINUOUS
 62
    4
 10
2175.8800330700747
 20
2996.2938844706687
 11
2175.8800330700747
 21
3048.1415987561613
  0
LINE
  8
_0-0_90_FRAME
  6
CONTINUOUS
 62
    4
 10
2443.6136530689946
 20
2996.2938844706687
 11
2443.6136530689946
 21
3048.1415987561613
  0
LINE
  8
_0-0_90_FRAME
  6
CONTINUOUS
 62
    4
 10
3514.548133064663
 20
2996.2938844706687
 11
3514.548133064663
 21
3048.1415987561613
  0
LINE
  8
_0-0_90_FRAME
  6
CONTINUOUS
 62
    4
 10
3782.2817530635834
 20
2996.2938844706687
 11
3782.2817530635834
 21
3048.1415987561613
  0
LINE
  8
_0-0_90_FRAME
  6
CONTINUOUS
 62
    4
 10
4050.0153730625034
 20
2996.2938844706687
 11
4050.0153730625034
 21
3048.1415987561613
  0
LINE
  8
_0-0_90_FRAME
  6
CONTINUOUS
 62
    4
 10
3246.8145130657431
 20
2996.2938844706687
 11
3246.8145130657431
 21
3048.1415987561613
  0
LINE
  8
_0-0_90_FRAME
  6
CONTINUOUS
 62
    4
 10
2979.0808930668336
 20
2996.2938844706687
 11
2979.0808930668336
 21
3048.1415987561613
  0
LINE
  8
_0-0_90_FRAME
  6
CONTINUOUS
 62
    4
 10
1908.1464130711554
 20
724.46239875616834
 11
1908.1464130711554
 21
776.07830905085154
  0
LINE
  8
_0-0_90_FRAME
  6
CONTINUOUS
 62
    4
 10
1640.4127930722357
 20
724.46239875616834
 11
1640.4127930722357
 21
776.07830905085154
  0
LINE
  8
_0-0_90_FRAME
  6
CONTINUOUS
 62
    4
 10
1372.6791730733157
 20
724.46239875616834
 11
1372.6791730733157
 21
776.07830905085154
  0
LINE
  8
_0-0_90_FRAME
  6
CONTINUOUS
 62
    4
 10
2175.8800330700747
 20
724.46239875616834
 11
2175.8800330700747
 21
776.07830905085154
  0
LINE
  8
_0-0_90_FRAME
  6
CONTINUOUS
 62
    4
 10
3514.548133064663
 20
724.46239875616834
 11
3514.548133064663
 21
776.07830905085154
  0
LINE
  8
_0-0_90_FRAME
  6
CONTINUOUS
 62
    4
 10
3782.2817530635834
 20
724.46239875616834
 11
3782.2817530635834
 21
776.07830905085154
  0
LINE
  8
_0-0_90_FRAME
  6
CONTINUOUS
 62
    4
 10
4050.0153730625034
 20
724.46239875616834
 11
4050.0153730625034
 21
776.07830905085154
  0
LINE
  8
_0-0_90_FRAME
  6
CONTINUOUS
 62
    4
 10
3246.8145130657431
 20
724.46239875616834
 11
3246.8145130657431
 21
776.07830905085154
  0
LINE
  8
_0-1_91_BLANK
  6
CONTINUOUS
 62
    5
 10
1003.1776044887765
 20
724.46239875616834
 11
4315.9810444861287
 21
724.46239875616834
  0
LINE
  8
_0-1_91_BLANK
  6
CONTINUOUS
 62
    5
 10
4315.9810444861287
 20
724.46239875616834
 11
4315.9810444861287
 21
3056.1415987668693
  0
LINE
  8
_0-1_91_BLANK
  6
CONTINUOUS
 62
    5
 10
4315.9810444861287
 20
3056.1415987668693
 11
1003.1776044887765
 21
3056.1415987668693
  0
LINE
  8
_0-1_91_BLANK
  6
CONTINUOUS
 62
    5
 10
1003.1776044887765
 20
3056.1415987668693
 11
1003.1776044887765
 21
724.46239875616834
  0
LINE
  8
_0-0_90_FRAME
  6
CONTINUOUS
 62
   18
 10
3472.1333302093276
 20
776.07830905085154
 11
4264.1333302061294
 21
776.07830905085154
  0
LINE
  8
_0-0_90_FRAME
  6
CONTINUOUS
 62
   18
 10
4264.1333302061294
 20
776.07830905085154
 11
4264.1333302061294
 21
923.16402333597159
  0
LINE
  8
_0-0_90_FRAME
  6
CONTINUOUS
 62
   18
 10
4264.1333302061294
 20
923.16402333597159
 11
3472.1333302093276
 21
923.16402333597159
  0
LINE
  8
_0-0_90_FRAME
  6
CONTINUOUS
 62
   18
 10
3472.1333302093276
 20
923.16402333597159
 11
3472.1333302093276
 21
776.07830905085154
  0
LINE
  8
_0-0_90_FRAME
  6
CONTINUOUS
 62
   18
 10
3534.5033302090787
 20
897.70688047892997
 11
3574.1033302089177
 21
907.60688047889153
  0
LINE
  8
_0-0_90_FRAME
  6
CONTINUOUS
 62
   18
 10
3574.1033302089177
 20
907.60688047889153
 11
3574.1033302089177
 21
868.00688047905305
  0
LINE
  8
_0-0_90_FRAME
  6
CONTINUOUS
 62
   18
 10
3574.1033302089177
 20
868.00688047905305
 11
3534.5033302090787
 21
877.90688047901085
  0
LINE
  8
_0-0_90_FRAME
  6
CONTINUOUS
 62
   18
 10
3534.5033302090787
 20
877.90688047901085
 11
3534.5033302090787
 21
897.70688047892997
  0
CIRCLE
  8
_0-0_90_FRAME
  6
CONTINUOUS
 62
   18
 10
3508.7633302091795
 20
887.80688047896865
 40
9.8999999999600004
  0
CIRCLE
  8
_0-0_90_FRAME
  6
CONTINUOUS
 62
   18
 10
3508.7633302091795
 20
887.80688047896865
 40
19.799999999920001
  0
LINE
  8
_0-0_90_FRAME
  6
CONTINUOUS
 62
   18
 10
3485.0033302092752
 20
887.80688047896865
 11
3578.0633302088986
 21
887.80688047896865
  0
LINE
  8
_0-0_90_FRAME
  6
CONTINUOUS
 62
   18
 10
3508.7633302091795
 20
864.04688047906836
 11
3508.7633302091795
 21
911.56688047887599
  0
LINE
  8
_0-0_90_FRAME
  6
CONTINUOUS
 62
   18
 10
3796.5619016365281
 20
776.07830905085154
 11
3796.5619016365281
 21
923.16402333597159
  0
LINE
  8
_0-0_90_FRAME
  6
CONTINUOUS
 62
   18
 10
3796.5619016365281
 20
821.33545190781069
 11
4264.1333302061294
 21
821.33545190781069
  0
TEXT
  8
_0-0_90_FRAME
 62
    7
 10
3798.5900686662517
 20
807.26361092072273
 40
10
 41
1
 50
0
  1
作 成 日
  0
LINE
  8
_0-0_90_FRAME
  6
CONTINUOUS
 62
   18
 10
4073.1047587782864
 20
821.33545190781069
 11
4073.1047587782864
 21
776.07830905085154
  0
TEXT
  8
_0-0_90_FRAME
 62
    7
 10
4075.4796457658208
 20
806.98704718146416
 40
10
 41
1
 50
0
  1
個数
  0
TEXT
  8
_0-0_90_FRAME
 62
    7
 10
3703.0416906061419
 20
910.05295099123339
 40
10
 41
1
 50
0
  1
サイズ
  0
TEXT
  8
_0-0_90_FRAME
 62
    7
 10
3592.7274048923036
 20
909.30713566160512
 40
10
 41
1
 50
0
  1
尺　度
  0
TEXT
  8
_0-0_90_FRAME
 62
    7
 10
3703.0417515518179
 20
839.33866527723455
 40
10
 41
1
 50
0
  1
製　図
  0
LINE
  8
_0-0_90_FRAME
  6
CONTINUOUS
 62
   18
 10
3796.5619016365281
 20
852.44973762196923
 11
3472.1333302093276
 21
852.44973762196923
  0
LINE
  8
_0-0_90_FRAME
  6
CONTINUOUS
 62
   18
 10
3947.6095039338011
 20
866.59259476476973
 11
4264.1333302061294
 21
866.59259476476973
  0
TEXT
  8
_0-0_90_FRAME
 62
    7
 10
3735.9098349217384
 20
869.42268903593003
 40
20
 41
1
 50
0
  1
A1
  0
LINE
  8
_0-0_90_FRAME
  6
CONTINUOUS
 62
   18
 10
3701.2476159226876
 20
776.07830905085154
 11
3701.2476159226876
 21
923.16402333597159
  0
TEXT
  8
_0-0_90_FRAME
 62
    2
 10
3542.114383044237
 20
791.64293100548207
 40
20
 41
1
 50
0
  1
アクアトリム
  0
LINE
  8
_0-0_90_FRAME
  6
CONTINUOUS
 62
    4
 10
3535.961616861573
 20
842.76286073097742
 11
3535.961616861573
 21
783.5901465152142
  0
LINE
  8
_0-0_90_FRAME
  6
CONTINUOUS
 62
    4
 10
3535.961616861573
 20
783.5901465152142
 11
3482.1682403017885
 21
783.5901465152142
  0
LINE
  8
_0-0_90_FRAME
  6
CONTINUOUS
 62
    4
 10
3482.1682403017885
 20
783.5901465152142
 11
3482.1682403017885
 21
842.76286073097742
  0
LINE
  8
_0-0_90_FRAME
  6
CONTINUOUS
 62
    4
 10
3482.4243992377883
 20
842.50670179497638
 11
3482.4243992377883
 21
842.50670179497638
  0
LINE
  8
_0-0_90_FRAME
  6
CONTINUOUS
 62
    4
 10
3482.4243992377883
 20
842.50670179497638
 11
3482.5567146517983
 21
841.17225582209676
  0
LINE
  8
_0-0_90_FRAME
  6
CONTINUOUS
 62
    4
 10
3482.5567146517983
 20
841.17225582209676
 11
3482.9496405569289
 21
839.87835631484086
  0
LINE
  8
_0-0_90_FRAME
  6
CONTINUOUS
 62
    4
 10
3482.9496405569289
 20
839.87835631484086
 11
3483.5912380983823
 21
838.66431775499188
  0
LINE
  8
_0-0_90_FRAME
  6
CONTINUOUS
 62
    4
 10
3483.5912380983823
 20
838.66431775499188
 11
3484.4620126595255
 21
837.56702808985767
  0
LINE
  8
_0-0_90_FRAME
  6
CONTINUOUS
 62
    4
 10
3484.4620126595255
 20
837.56702808985767
 11
3485.5355061959517
 21
836.61982791065805
  0
LINE
  8
_0-0_90_FRAME
  6
CONTINUOUS
 62
    4
 10
3485.5355061959517
 20
836.61982791065805
 11
3486.7791011497707
 21
835.85149741553153
  0
LINE
  8
_0-0_90_FRAME
  6
CONTINUOUS
 62
    4
 10
3486.7791011497707
 20
835.85149741553153
 11
3488.1550115175996
 21
835.28538193777842
  0
LINE
  8
_0-0_90_FRAME
  6
CONTINUOUS
 62
    4
 10
3488.1550115175996
 20
835.28538193777842
 11
3489.621430959156
 21
834.93868260972226
  0
LINE
  8
_0-0_90_FRAME
  6
CONTINUOUS
 62
    4
 10
3489.621430959156
 20
834.93868260972226
 11
3491.133803061753
 21
834.82193371500739
  0
LINE
  8
_0-0_90_FRAME
  6
CONTINUOUS
 62
    4
 10
3491.133803061753
 20
834.82193371500739
 11
3492.6461751643501
 21
834.93868260972226
  0
LINE
  8
_0-0_90_FRAME
  6
CONTINUOUS
 62
    4
 10
3492.6461751643501
 20
834.93868260972226
 11
3494.1125946059065
 21
835.28538193777842
  0
LINE
  8
_0-0_90_FRAME
  6
CONTINUOUS
 62
    4
 10
3494.1125946059065
 20
835.28538193777842
 11
3495.4885049737354
 21
835.85149741553153
  0
LINE
  8
_0-0_90_FRAME
  6
CONTINUOUS
 62
    4
 10
3495.4885049737354
 20
835.85149741553153
 11
3496.7320999275544
 21
836.61982791065805
  0
LINE
  8
_0-0_90_FRAME
  6
CONTINUOUS
 62
    4
 10
3496.7320999275544
 20
836.61982791065805
 11
3497.8055934639806
 21
837.56702808985767
  0
LINE
  8
_0-0_90_FRAME
  6
CONTINUOUS
 62
    4
 10
3497.8055934639806
 20
837.56702808985767
 11
3498.6763680251238
 21
838.66431775499188
  0
LINE
  8
_0-0_90_FRAME
  6
CONTINUOUS
 62
    4
 10
3498.6763680251238
 20
838.66431775499188
 11
3499.3179655665772
 21
839.87835631484086
  0
LINE
  8
_0-0_90_FRAME
  6
CONTINUOUS
 62
    4
 10
3499.3179655665772
 20
839.87835631484086
 11
3499.7108914717078
 21
841.17225582209676
  0
LINE
  8
_0-0_90_FRAME
  6
CONTINUOUS
 62
    4
 10
3499.7108914717078
 20
841.17225582209676
 11
3499.8432068857178
 21
842.50670179497638
  0
LINE
  8
_0-0_90_FRAME
  6
CONTINUOUS
 62
    4
 10
3499.8432068857178
 20
842.50670179497638
 11
3499.8432068857178
 21
842.50670179497638
  0
ARC
  8
_0-0_90_FRAME
  6
CONTINUOUS
 62
    4
 10
3500.0993658217171
 20
842.50670179497638
 40
0.2561589359989651
 50
0
 51
180
  0
LINE
  8
_0-0_90_FRAME
  6
CONTINUOUS
 62
    4
 10
3500.355524757716
 20
842.50670179497638
 11
3500.355524757716
 21
842.50670179497638
  0
LINE
  8
_0-0_90_FRAME
  6
CONTINUOUS
 62
    4
 10
3500.355524757716
 20
842.50670179497638
 11
3500.487840171726
 21
841.17225582209676
  0
LINE
  8
_0-0_90_FRAME
  6
CONTINUOUS
 62
    4
 10
3500.487840171726
 20
841.17225582209676
 11
3500.8807660768566
 21
839.87835631484086
  0
LINE
  8
_0-0_90_FRAME
  6
CONTINUOUS
 62
    4
 10
3500.8807660768566
 20
839.87835631484086
 11
3501.52236361831
 21
838.66431775499188
  0
LINE
  8
_0-0_90_FRAME
  6
CONTINUOUS
 62
    4
 10
3501.52236361831
 20
838.66431775499188
 11
3502.3931381794532
 21
837.56702808985767
  0
LINE
  8
_0-0_90_FRAME
  6
CONTINUOUS
 62
    4
 10
3502.3931381794532
 20
837.56702808985767
 11
3503.4666317158794
 21
836.61982791065805
  0
LINE
  8
_0-0_90_FRAME
  6
CONTINUOUS
 62
    4
 10
3503.4666317158794
 20
836.61982791065805
 11
3504.7102266696984
 21
835.85149741553153
  0
LINE
  8
_0-0_90_FRAME
  6
CONTINUOUS
 62
    4
 10
3504.7102266696984
 20
835.85149741553153
 11
3506.0861370375274
 21
835.28538193777842
  0
LINE
  8
_0-0_90_FRAME
  6
CONTINUOUS
 62
    4
 10
3506.0861370375274
 20
835.28538193777842
 11
3507.5525564790837
 21
834.93868260972226
  0
LINE
  8
_0-0_90_FRAME
  6
CONTINUOUS
 62
    4
 10
3507.5525564790837
 20
834.93868260972226
 11
3509.0649285816808
 21
834.82193371500739
  0
LINE
  8
_0-0_90_FRAME
  6
CONTINUOUS
 62
    4
 10
3509.0649285816808
 20
834.82193371500739
 11
3510.5773006842778
 21
834.93868260972226
  0
LINE
  8
_0-0_90_FRAME
  6
CONTINUOUS
 62
    4
 10
3510.5773006842778
 20
834.93868260972226
 11
3512.0437201258342
 21
835.28538193777842
  0
LINE
  8
_0-0_90_FRAME
  6
CONTINUOUS
 62
    4
 10
3512.0437201258342
 20
835.28538193777842
 11
3513.4196304936631
 21
835.85149741553153
  0
LINE
  8
_0-0_90_FRAME
  6
CONTINUOUS
 62
    4
 10
3513.4196304936631
 20
835.85149741553153
 11
3514.6632254474821
 21
836.61982791065805
  0
LINE
  8
_0-0_90_FRAME
  6
CONTINUOUS
 62
    4
 10
3514.6632254474821
 20
836.61982791065805
 11
3515.7367189839083
 21
837.56702808985767
  0
LINE
  8
_0-0_90_FRAME
  6
CONTINUOUS
 62
    4
 10
3515.7367189839083
 20
837.56702808985767
 11
3516.6074935450515
 21
838.66431775499188
  0
LINE
  8
_0-0_90_FRAME
  6
CONTINUOUS
 62
    4
 10
3516.6074935450515
 20
838.66431775499188
 11
3517.2490910865049
 21
839.87835631484086
  0
LINE
  8
_0-0_90_FRAME
  6
CONTINUOUS
 62
    4
 10
3517.2490910865049
 20
839.87835631484086
 11
3517.6420169916355
 21
841.17225582209676
  0
LINE
  8
_0-0_90_FRAME
  6
CONTINUOUS
 62
    4
 10
3517.6420169916355
 20
841.17225582209676
 11
3517.7743324056455
 21
842.50670179497638
  0
LINE
  8
_0-0_90_FRAME
  6
CONTINUOUS
 62
    4
 10
3517.7743324056455
 20
842.50670179497638
 11
3517.7743324056455
 21
842.50670179497638
  0
ARC
  8
_0-0_90_FRAME
  6
CONTINUOUS
 62
    4
 10
3518.0304913416453
 20
842.50670179497638
 40
0.2561589359989651
 50
0
 51
180
  0
LINE
  8
_0-0_90_FRAME
  6
CONTINUOUS
 62
    4
 10
3518.2866502776451
 20
842.50670179497638
 11
3518.2866502776451
 21
842.50670179497638
  0
LINE
  8
_0-0_90_FRAME
  6
CONTINUOUS
 62
    4
 10
3518.2866502776451
 20
842.50670179497638
 11
3518.4189656916551
 21
841.17225582209676
  0
LINE
  8
_0-0_90_FRAME
  6
CONTINUOUS
 62
    4
 10
3518.4189656916551
 20
841.17225582209676
 11
3518.8118915967857
 21
839.87835631484086
  0
LINE
  8
_0-0_90_FRAME
  6
CONTINUOUS
 62
    4
 10
3518.8118915967857
 20
839.87835631484086
 11
3519.4534891382391
 21
838.66431775499188
  0
LINE
  8
_0-0_90_FRAME
  6
CONTINUOUS
 62
    4
 10
3519.4534891382391
 20
838.66431775499188
 11
3520.3242636993823
 21
837.56702808985767
  0
LINE
  8
_0-0_90_FRAME
  6
CONTINUOUS
 62
    4
 10
3520.3242636993823
 20
837.56702808985767
 11
3521.3977572358085
 21
836.61982791065805
  0
LINE
  8
_0-0_90_FRAME
  6
CONTINUOUS
 62
    4
 10
3521.3977572358085
 20
836.61982791065805
 11
3522.6413521896275
 21
835.85149741553153
  0
LINE
  8
_0-0_90_FRAME
  6
CONTINUOUS
 62
    4
 10
3522.6413521896275
 20
835.85149741553153
 11
3524.0172625574564
 21
835.28538193777842
  0
LINE
  8
_0-0_90_FRAME
  6
CONTINUOUS
 62
    4
 10
3524.0172625574564
 20
835.28538193777842
 11
3525.4836819990128
 21
834.93868260972226
  0
LINE
  8
_0-0_90_FRAME
  6
CONTINUOUS
 62
    4
 10
3525.4836819990128
 20
834.93868260972226
 11
3526.9960541016098
 21
834.82193371500739
  0
LINE
  8
_0-0_90_FRAME
  6
CONTINUOUS
 62
    4
 10
3526.9960541016098
 20
834.82193371500739
 11
3528.5084262042069
 21
834.93868260972226
  0
LINE
  8
_0-0_90_FRAME
  6
CONTINUOUS
 62
    4
 10
3528.5084262042069
 20
834.93868260972226
 11
3529.9748456457633
 21
835.28538193777842
  0
LINE
  8
_0-0_90_FRAME
  6
CONTINUOUS
 62
    4
 10
3529.9748456457633
 20
835.28538193777842
 11
3531.3507560135922
 21
835.85149741553153
  0
LINE
  8
_0-0_90_FRAME
  6
CONTINUOUS
 62
    4
 10
3531.3507560135922
 20
835.85149741553153
 11
3532.5943509674112
 21
836.61982791065805
  0
LINE
  8
_0-0_90_FRAME
  6
CONTINUOUS
 62
    4
 10
3532.5943509674112
 20
836.61982791065805
 11
3533.6678445038374
 21
837.56702808985767
  0
LINE
  8
_0-0_90_FRAME
  6
CONTINUOUS
 62
    4
 10
3533.6678445038374
 20
837.56702808985767
 11
3534.5386190649806
 21
838.66431775499188
  0
LINE
  8
_0-0_90_FRAME
  6
CONTINUOUS
 62
    4
 10
3534.5386190649806
 20
838.66431775499188
 11
3535.180216606434
 21
839.87835631484086
  0
LINE
  8
_0-0_90_FRAME
  6
CONTINUOUS
 62
    4
 10
3535.180216606434
 20
839.87835631484086
 11
3535.5731425115646
 21
841.17225582209676
  0
LINE
  8
_0-0_90_FRAME
  6
CONTINUOUS
 62
    4
 10
3535.5731425115646
 20
841.17225582209676
 11
3535.7054579255746
 21
842.50670179497638
  0
LINE
  8
_0-0_90_FRAME
  6
CONTINUOUS
 62
    4
 10
3535.7054579255746
 20
842.50670179497638
 11
3535.7054579255746
 21
842.50670179497638
  0
ARC
  8
_0-0_90_FRAME
  6
CONTINUOUS
 62
    4
 10
3535.961616861573
 20
842.50670179497638
 40
0.2561589359989651
 50
90
 51
180
  0
ARC
  8
_0-0_90_FRAME
  6
CONTINUOUS
 62
    4
 10
3500.0993658217171
 20
842.50670179497638
 40
0.2561589359989651
 50
0
 51
90
  0
ARC
  8
_0-0_90_FRAME
  6
CONTINUOUS
 62
    4
 10
3482.1682403017885
 20
842.50670179497638
 40
0.2561589359989651
 50
0
 51
90
  0
LINE
  8
_0-0_90_FRAME
  6
CONTINUOUS
 62
    4
 10
3488.3160547657658
 20
791.27491459518342
 11
3491.3899619977506
 21
791.27491459518342
  0
LINE
  8
_0-0_90_FRAME
  6
CONTINUOUS
 62
    4
 10
3491.3899619977506
 20
791.27491459518342
 11
3491.3899619977506
 21
788.20100736319682
  0
LINE
  8
_0-0_90_FRAME
  6
CONTINUOUS
 62
    4
 10
3491.3899619977506
 20
788.20100736319682
 11
3488.3160547657658
 21
788.20100736319682
  0
LINE
  8
_0-0_90_FRAME
  6
CONTINUOUS
 62
    4
 10
3488.3160547657658
 20
791.27491459518342
 11
3488.3160547657658
 21
788.20100736319682
  0
LINE
  8
_0-0_90_FRAME
  6
CONTINUOUS
 62
    4
 10
3529.8138023975966
 20
791.27491459518342
 11
3526.7398951656114
 21
791.27491459518342
  0
LINE
  8
_0-0_90_FRAME
  6
CONTINUOUS
 62
    4
 10
3526.7398951656114
 20
791.27491459518342
 11
3526.7398951656114
 21
788.20100736319682
  0
LINE
  8
_0-0_90_FRAME
  6
CONTINUOUS
 62
    4
 10
3526.7398951656114
 20
788.20100736319682
 11
3529.8138023975966
 21
788.20100736319682
  0
LINE
  8
_0-0_90_FRAME
  6
CONTINUOUS
 62
    4
 10
3529.8138023975966
 20
791.27491459518342
 11
3529.8138023975966
 21
788.20100736319682
  0
LINE
  8
_0-0_90_FRAME
  6
CONTINUOUS
 62
    4
 10
3496.000822845735
 20
791.27491459518342
 11
3499.0747300777198
 21
791.27491459518342
  0
LINE
  8
_0-0_90_FRAME
  6
CONTINUOUS
 62
    4
 10
3499.0747300777198
 20
791.27491459518342
 11
3499.0747300777198
 21
788.20100736319682
  0
LINE
  8
_0-0_90_FRAME
  6
CONTINUOUS
 62
    4
 10
3499.0747300777198
 20
788.20100736319682
 11
3496.000822845735
 21
788.20100736319682
  0
LINE
  8
_0-0_90_FRAME
  6
CONTINUOUS
 62
    4
 10
3496.000822845735
 20
791.27491459518342
 11
3496.000822845735
 21
788.20100736319682
  0
LINE
  8
_0-0_90_FRAME
  6
CONTINUOUS
 62
    4
 10
3503.6855909257042
 20
791.27491459518342
 11
3506.759498157689
 21
791.27491459518342
  0
LINE
  8
_0-0_90_FRAME
  6
CONTINUOUS
 62
    4
 10
3506.759498157689
 20
791.27491459518342
 11
3506.759498157689
 21
788.20100736319682
  0
LINE
  8
_0-0_90_FRAME
  6
CONTINUOUS
 62
    4
 10
3506.759498157689
 20
788.20100736319682
 11
3503.6855909257042
 21
788.20100736319682
  0
LINE
  8
_0-0_90_FRAME
  6
CONTINUOUS
 62
    4
 10
3503.6855909257042
 20
791.27491459518342
 11
3503.6855909257042
 21
788.20100736319682
  0
LINE
  8
_0-0_90_FRAME
  6
CONTINUOUS
 62
    4
 10
3511.3703590056734
 20
791.27491459518342
 11
3514.4442662376582
 21
791.27491459518342
  0
LINE
  8
_0-0_90_FRAME
  6
CONTINUOUS
 62
    4
 10
3514.4442662376582
 20
791.27491459518342
 11
3514.4442662376582
 21
788.20100736319682
  0
LINE
  8
_0-0_90_FRAME
  6
CONTINUOUS
 62
    4
 10
3514.4442662376582
 20
788.20100736319682
 11
3511.3703590056734
 21
788.20100736319682
  0
LINE
  8
_0-0_90_FRAME
  6
CONTINUOUS
 62
    4
 10
3511.3703590056734
 20
791.27491459518342
 11
3511.3703590056734
 21
788.20100736319682
  0
LINE
  8
_0-0_90_FRAME
  6
CONTINUOUS
 62
    4
 10
3519.0551270856422
 20
791.27491459518342
 11
3522.1290343176274
 21
791.27491459518342
  0
LINE
  8
_0-0_90_FRAME
  6
CONTINUOUS
 62
    4
 10
3522.1290343176274
 20
791.27491459518342
 11
3522.1290343176274
 21
788.20100736319682
  0
LINE
  8
_0-0_90_FRAME
  6
CONTINUOUS
 62
    4
 10
3522.1290343176274
 20
788.20100736319682
 11
3519.0551270856422
 21
788.20100736319682
  0
LINE
  8
_0-0_90_FRAME
  6
CONTINUOUS
 62
    4
 10
3519.0551270856422
 20
791.27491459518342
 11
3519.0551270856422
 21
788.20100736319682
  0
LINE
  8
_0-0_90_FRAME
  6
CONTINUOUS
 62
    4
 10
3509.033099314207
 20
820.52462218950632
 11
3509.033099314207
 21
820.52462218950632
  0
LINE
  8
_0-0_90_FRAME
  6
CONTINUOUS
 62
    4
 10
3509.033099314207
 20
820.52462218950632
 11
3508.9435918282593
 21
821.50321590295141
  0
LINE
  8
_0-0_90_FRAME
  6
CONTINUOUS
 62
    4
 10
3508.9435918282593
 20
821.50321590295141
 11
3508.6777890100825
 21
822.45207554160572
  0
LINE
  8
_0-0_90_FRAME
  6
CONTINUOUS
 62
    4
 10
3508.6777890100825
 20
822.45207554160572
 11
3508.2437671438051
 21
823.34237048549494
  0
LINE
  8
_0-0_90_FRAME
  6
CONTINUOUS
 62
    4
 10
3508.2437671438051
 20
823.34237048549494
 11
3507.6547137642083
 21
824.14704957326001
  0
LINE
  8
_0-0_90_FRAME
  6
CONTINUOUS
 62
    4
 10
3507.6547137642083
 20
824.14704957326001
 11
3506.9285269601551
 21
824.84166303800646
  0
LINE
  8
_0-0_90_FRAME
  6
CONTINUOUS
 62
    4
 10
3506.9285269601551
 20
824.84166303800646
 11
3506.0872715502192
 21
825.40510540109926
  0
LINE
  8
_0-0_90_FRAME
  6
CONTINUOUS
 62
    4
 10
3506.0872715502192
 20
825.40510540109926
 11
3505.1565086543346
 21
825.82025675145144
  0
LINE
  8
_0-0_90_FRAME
  6
CONTINUOUS
 62
    4
 10
3505.1565086543346
 20
825.82025675145144
 11
3504.1645190321051
 21
826.07450292535941
  0
LINE
  8
_0-0_90_FRAME
  6
CONTINUOUS
 62
    4
 10
3504.1645190321051
 20
826.07450292535941
 11
3503.1414437862309
 21
826.16011878148356
  0
LINE
  8
_0-0_90_FRAME
  6
CONTINUOUS
 62
    4
 10
3503.1414437862309
 20
826.16011878148356
 11
3502.1183685403566
 21
826.07450292535941
  0
LINE
  8
_0-0_90_FRAME
  6
CONTINUOUS
 62
    4
 10
3502.1183685403566
 20
826.07450292535941
 11
3501.1263789181271
 21
825.82025675145144
  0
LINE
  8
_0-0_90_FRAME
  6
CONTINUOUS
 62
    4
 10
3501.1263789181271
 20
825.82025675145144
 11
3500.1956160222426
 21
825.40510540109926
  0
LINE
  8
_0-0_90_FRAME
  6
CONTINUOUS
 62
    4
 10
3500.1956160222426
 20
825.40510540109926
 11
3499.3543606123067
 21
824.84166303800646
  0
LINE
  8
_0-0_90_FRAME
  6
CONTINUOUS
 62
    4
 10
3499.3543606123067
 20
824.84166303800646
 11
3498.6281738082535
 21
824.14704957326001
  0
LINE
  8
_0-0_90_FRAME
  6
CONTINUOUS
 62
    4
 10
3498.6281738082535
 20
824.14704957326001
 11
3498.0391204286566
 21
823.34237048549494
  0
LINE
  8
_0-0_90_FRAME
  6
CONTINUOUS
 62
    4
 10
3498.0391204286566
 20
823.34237048549494
 11
3497.6050985623792
 21
822.45207554160572
  0
LINE
  8
_0-0_90_FRAME
  6
CONTINUOUS
 62
    4
 10
3497.6050985623792
 20
822.45207554160572
 11
3497.3392957442024
 21
821.50321590295141
  0
LINE
  8
_0-0_90_FRAME
  6
CONTINUOUS
 62
    4
 10
3497.3392957442024
 20
821.50321590295141
 11
3497.2497882582547
 21
820.52462218950632
  0
LINE
  8
_0-0_90_FRAME
  6
CONTINUOUS
 62
    4
 10
3497.2497882582547
 20
820.52462218950632
 11
3497.2497882582547
 21
820.52462218950632
  0
LINE
  8
_0-0_90_FRAME
  6
CONTINUOUS
 62
    4
 10
3509.033099314207
 20
820.52462218950632
 11
3509.033099314207
 21
818.987668573512
  0
LINE
  8
_0-0_90_FRAME
  6
CONTINUOUS
 62
    4
 10
3506.253390755573
 20
814.20244059403387
 11
3506.253390755573
 21
814.20244059403387
  0
LINE
  8
_0-0_90_FRAME
  6
CONTINUOUS
 62
    4
 10
3506.253390755573
 20
814.20244059403387
 11
3505.3373968921378
 21
813.75824999222175
  0
LINE
  8
_0-0_90_FRAME
  6
CONTINUOUS
 62
    4
 10
3505.3373968921378
 20
813.75824999222175
 11
3504.3546801047851
 21
813.47295262778869
  0
LINE
  8
_0-0_90_FRAME
  6
CONTINUOUS
 62
    4
 10
3504.3546801047851
 20
813.47295262778869
 11
3503.3350997458206
 21
813.35521711678541
  0
LINE
  8
_0-0_90_FRAME
  6
CONTINUOUS
 62
    4
 10
3503.3350997458206
 20
813.35521711678541
 11
3502.3096352485181
 21
813.40862079313695
  0
LINE
  8
_0-0_90_FRAME
  6
CONTINUOUS
 62
    4
 10
3502.3096352485181
 20
813.40862079313695
 11
3501.3094448327192
 21
813.6315410131607
  0
LINE
  8
_0-0_90_FRAME
  6
CONTINUOUS
 62
    4
 10
3501.3094448327192
 20
813.6315410131607
 11
3500.3649187780861
 21
814.01720445877436
  0
LINE
  8
_0-0_90_FRAME
  6
CONTINUOUS
 62
    4
 10
3500.3649187780861
 20
814.01720445877436
 11
3499.5047560308362
 21
814.55389294133818
  0
LINE
  8
_0-0_90_FRAME
  6
CONTINUOUS
 62
    4
 10
3499.5047560308362
 20
814.55389294133818
 11
3498.7550922007813
 21
815.22529945288682
  0
LINE
  8
_0-0_90_FRAME
  6
CONTINUOUS
 62
    4
 10
3498.7550922007813
 20
815.22529945288682
 11
3498.1387054440493
 21
816.01102364631515
  0
LINE
  8
_0-0_90_FRAME
  6
CONTINUOUS
 62
    4
 10
3498.1387054440493
 20
816.01102364631515
 11
3497.6743243603364
 21
816.8871916896012
  0
LINE
  8
_0-0_90_FRAME
  6
CONTINUOUS
 62
    4
 10
3497.6743243603364
 20
816.8871916896012
 11
3497.3760589338835
 21
817.82718166011239
  0
LINE
  8
_0-0_90_FRAME
  6
CONTINUOUS
 62
    4
 10
3497.3760589338835
 20
817.82718166011239
 11
3497.252971808744
 21
818.80243243825248
  0
LINE
  8
_0-0_90_FRAME
  6
CONTINUOUS
 62
    4
 10
3497.252971808744
 20
818.80243243825248
 11
3497.2497882582547
 21
818.987668573512
  0
LINE
  8
_0-0_90_FRAME
  6
CONTINUOUS
 62
    4
 10
3506.8982302577219
 20
820.3739031818908
 11
3506.8982302577219
 21
819.14434028909591
  0
LINE
  8
_0-0_90_FRAME
  6
CONTINUOUS
 62
    4
 10
3520.9758959657383
 20
818.524270991143
 11
3520.9758959657383
 21
826.16011878148447
  0
LINE
  8
_0-0_90_FRAME
  6
CONTINUOUS
 62
    4
 10
3518.6704655417466
 20
818.987668573512
 11
3518.6704655417466
 21
826.16011878148447
  0
LINE
  8
_0-0_90_FRAME
  6
CONTINUOUS
 62
    4
 10
3518.6704655417466
 20
826.16011878148447
 11
3520.9758959657383
 21
826.16011878148447
  0
LINE
  8
_0-0_90_FRAME
  6
CONTINUOUS
 62
    4
 10
3510.2172206537807
 20
818.524270991143
 11
3510.2172206537807
 21
826.16011878148447
  0
LINE
  8
_0-0_90_FRAME
  6
CONTINUOUS
 62
    4
 10
3512.5226510777734
 20
818.987668573512
 11
3512.5226510777734
 21
826.16011878148447
  0
ARC
  8
_0-0_90_FRAME
  6
CONTINUOUS
 62
    4
 10
3515.6323645928837
 20
818.75596978233034
 40
5.4200985425585984
 50
182.45003099226136
 51
265.55525728852427
  0
LINE
  8
_0-0_90_FRAME
  6
CONTINUOUS
 62
    4
 10
3512.5226510777734
 20
826.16011878148447
 11
3510.2172206537807
 21
826.16011878148447
  0
LINE
  8
_0-0_90_FRAME
  6
CONTINUOUS
 62
    4
 10
3515.9807967137581
 20
813.35217198153578
 11
3515.2123199057623
 21
813.35217198153578
  0
ARC
  8
_0-0_90_FRAME
  6
CONTINUOUS
 62
    4
 10
3517.0956030825814
 20
818.92802837888803
 40
4.5733409003826422
 50
179.25279388138676
 51
218.96457184688023
  0
ARC
  8
_0-0_90_FRAME
  6
CONTINUOUS
 62
    4
 10
3514.097513536939
 20
818.92802837888803
 40
4.5733409003821279
 50
321.03542815311977
 51
0.747206118613265
  0
ARC
  8
_0-0_90_FRAME
  6
CONTINUOUS
 62
    4
 10
3515.5965583097618
 20
819.78706460275089
 40
4.2638625348001273
 50
241.15772780831895
 51
298.84227219168099
  0
LINE
  8
_0-0_90_FRAME
  6
CONTINUOUS
 62
    4
 10
3503.6379990366127
 20
816.74784299468899
 11
3504.6839535409395
 21
815.72987880715073
  0
LINE
  8
_0-0_90_FRAME
  6
CONTINUOUS
 62
    4
 10
3503.6379990366127
 20
816.74784299468899
 11
3504.7726442272265
 21
817.9526781651889
  0
LINE
  8
_0-0_90_FRAME
  6
CONTINUOUS
 62
    4
 10
3508.0343420961412
 20
812.46914848912229
 11
3509.5168681631094
 21
814.04338470097309
  0
LINE
  8
_0-0_90_FRAME
  6
CONTINUOUS
 62
    4
 10
3499.3846573147398
 20
820.3739031818908
 11
3499.3846573147398
 21
819.14434028909591
  0
LINE
  8
_0-0_90_FRAME
  6
CONTINUOUS
 62
    4
 10
3506.8982302577215
 20
820.3739031818908
 11
3506.8982302577215
 21
820.3739031818908
  0
LINE
  8
_0-0_90_FRAME
  6
CONTINUOUS
 62
    4
 10
3506.8982302577215
 20
820.3739031818908
 11
3506.8411562297665
 21
821.02281671691355
  0
LINE
  8
_0-0_90_FRAME
  6
CONTINUOUS
 62
    4
 10
3506.8411562297665
 20
821.02281671691355
 11
3506.6716683113591
 21
821.65201334254073
  0
LINE
  8
_0-0_90_FRAME
  6
CONTINUOUS
 62
    4
 10
3506.6716683113591
 20
821.65201334254073
 11
3506.3949163071356
 21
822.24237523769159
  0
LINE
  8
_0-0_90_FRAME
  6
CONTINUOUS
 62
    4
 10
3506.3949163071356
 20
822.24237523769159
 11
3506.0193091867009
 21
822.77596455491937
  0
LINE
  8
_0-0_90_FRAME
  6
CONTINUOUS
 62
    4
 10
3506.0193091867009
 20
822.77596455491937
 11
3505.556259582343
 21
823.23656845282937
  0
LINE
  8
_0-0_90_FRAME
  6
CONTINUOUS
 62
    4
 10
3505.556259582343
 20
823.23656845282937
 11
3505.0198370219764
 21
823.61019171506041
  0
LINE
  8
_0-0_90_FRAME
  6
CONTINUOUS
 62
    4
 10
3505.0198370219764
 20
823.61019171506041
 11
3504.4263404336539
 21
823.88548198785213
  0
LINE
  8
_0-0_90_FRAME
  6
CONTINUOUS
 62
    4
 10
3504.4263404336539
 20
823.88548198785213
 11
3503.7938029108891
 21
824.0540747155693
  0
LINE
  8
_0-0_90_FRAME
  6
CONTINUOUS
 62
    4
 10
3503.7938029108891
 20
824.0540747155693
 11
3503.1414437862309
 21
824.11084729349227
  0
LINE
  8
_0-0_90_FRAME
  6
CONTINUOUS
 62
    4
 10
3503.1414437862309
 20
824.11084729349227
 11
3502.4890846615726
 21
824.0540747155693
  0
LINE
  8
_0-0_90_FRAME
  6
CONTINUOUS
 62
    4
 10
3502.4890846615726
 20
824.0540747155693
 11
3501.8565471388079
 21
823.88548198785213
  0
LINE
  8
_0-0_90_FRAME
  6
CONTINUOUS
 62
    4
 10
3501.8565471388079
 20
823.88548198785213
 11
3501.2630505504853
 21
823.61019171506041
  0
LINE
  8
_0-0_90_FRAME
  6
CONTINUOUS
 62
    4
 10
3501.2630505504853
 20
823.61019171506041
 11
3500.7266279901187
 21
823.23656845282937
  0
LINE
  8
_0-0_90_FRAME
  6
CONTINUOUS
 62
    4
 10
3500.7266279901187
 20
823.23656845282937
 11
3500.2635783857609
 21
822.77596455491937
  0
LINE
  8
_0-0_90_FRAME
  6
CONTINUOUS
 62
    4
 10
3500.2635783857609
 20
822.77596455491937
 11
3499.8879712653261
 21
822.24237523769159
  0
LINE
  8
_0-0_90_FRAME
  6
CONTINUOUS
 62
    4
 10
3499.8879712653261
 20
822.24237523769159
 11
3499.6112192611026
 21
821.65201334254073
  0
LINE
  8
_0-0_90_FRAME
  6
CONTINUOUS
 62
    4
 10
3499.6112192611026
 20
821.65201334254073
 11
3499.4417313426952
 21
821.02281671691355
  0
LINE
  8
_0-0_90_FRAME
  6
CONTINUOUS
 62
    4
 10
3499.4417313426952
 20
821.02281671691355
 11
3499.3846573147403
 21
820.3739031818908
  0
LINE
  8
_0-0_90_FRAME
  6
CONTINUOUS
 62
    4
 10
3499.3846573147403
 20
820.3739031818908
 11
3499.3846573147403
 21
820.3739031818908
  0
LINE
  8
_0-0_90_FRAME
  6
CONTINUOUS
 62
    4
 10
3504.6839535409385
 20
815.72987880714993
 11
3504.6839535409385
 21
815.72987880714993
  0
LINE
  8
_0-0_90_FRAME
  6
CONTINUOUS
 62
    4
 10
3504.6839535409385
 20
815.72987880714993
 11
3504.0656851509621
 21
815.51513738169319
  0
LINE
  8
_0-0_90_FRAME
  6
CONTINUOUS
 62
    4
 10
3504.0656851509621
 20
815.51513738169319
 11
3503.4193341548066
 21
815.41048658009311
  0
LINE
  8
_0-0_90_FRAME
  6
CONTINUOUS
 62
    4
 10
3503.4193341548066
 20
815.41048658009311
 11
3502.7645396004214
 21
815.41910616400048
  0
LINE
  8
_0-0_90_FRAME
  6
CONTINUOUS
 62
    4
 10
3502.7645396004214
 20
815.41910616400048
 11
3502.121197088999
 21
815.54073423172019
  0
LINE
  8
_0-0_90_FRAME
  6
CONTINUOUS
 62
    4
 10
3502.121197088999
 20
815.54073423172019
 11
3501.5088542572025
 21
815.77167517596104
  0
LINE
  8
_0-0_90_FRAME
  6
CONTINUOUS
 62
    4
 10
3501.5088542572025
 20
815.77167517596104
 11
3500.9461168321154
 21
816.10491197299427
  0
LINE
  8
_0-0_90_FRAME
  6
CONTINUOUS
 62
    4
 10
3500.9461168321154
 20
816.10491197299427
 11
3500.45008330564
 21
816.53031939136793
  0
LINE
  8
_0-0_90_FRAME
  6
CONTINUOUS
 62
    4
 10
3500.45008330564
 20
816.53031939136793
 11
3500.0358254054731
 21
817.03497164194118
  0
LINE
  8
_0-0_90_FRAME
  6
CONTINUOUS
 62
    4
 10
3500.0358254054731
 20
817.03497164194118
 11
3499.715930148287
 21
817.60353512144684
  0
LINE
  8
_0-0_90_FRAME
  6
CONTINUOUS
 62
    4
 10
3499.715930148287
 20
817.60353512144684
 11
3499.5001173895962
 21
818.21873431626705
  0
LINE
  8
_0-0_90_FRAME
  6
CONTINUOUS
 62
    4
 10
3499.5001173895962
 20
818.21873431626705
 11
3499.3949444908671
 21
818.86187671017308
  0
LINE
  8
_0-0_90_FRAME
  6
CONTINUOUS
 62
    4
 10
3499.3949444908671
 20
818.86187671017308
 11
3499.3846525986469
 21
819.1383875811274
  0
LINE
  8
_0-0_90_FRAME
  6
CONTINUOUS
 62
    4
 10
3486.0127622278351
 20
813.35217198153578
 11
3488.3120993029311
 21
813.35217198153578
  0
LINE
  8
_0-0_90_FRAME
  6
CONTINUOUS
 62
    4
 10
3486.0127622278351
 20
813.35217198153578
 11
3486.0127622278351
 21
813.41365012617416
  0
LINE
  8
_0-0_90_FRAME
  6
CONTINUOUS
 62
    4
 10
3486.0127622278351
 20
813.41365012617416
 11
3490.8424840691746
 21
826.16011878148447
  0
LINE
  8
_0-0_90_FRAME
  6
CONTINUOUS
 62
    4
 10
3486.0127622278351
 20
813.35217198153578
 11
3486.0127622278351
 21
813.41365012617416
  0
LINE
  8
_0-0_90_FRAME
  6
CONTINUOUS
 62
    4
 10
3489.5656935733477
 20
816.72879640094595
 11
3494.2943737254732
 21
816.72879640094595
  0
LINE
  8
_0-0_90_FRAME
  6
CONTINUOUS
 62
    4
 10
3490.2589210415508
 20
818.67560431453728
 11
3493.6011462572728
 21
818.67560431453728
  0
LINE
  8
_0-0_90_FRAME
  6
CONTINUOUS
 62
    4
 10
3497.7960732837873
 20
813.35217198153578
 11
3495.4967362086945
 21
813.35217198153578
  0
LINE
  8
_0-0_90_FRAME
  6
CONTINUOUS
 62
    4
 10
3495.4967362086945
 20
813.35217198153578
 11
3494.2943737254732
 21
816.72879640094595
  0
LINE
  8
_0-0_90_FRAME
  6
CONTINUOUS
 62
    4
 10
3497.7960732837873
 20
813.41365012617416
 11
3492.9663514424478
 21
826.16011878148447
  0
LINE
  8
_0-0_90_FRAME
  6
CONTINUOUS
 62
    4
 10
3497.7960732837873
 20
813.35217198153578
 11
3497.7960732837873
 21
813.41365012617416
  0
LINE
  8
_0-0_90_FRAME
  6
CONTINUOUS
 62
    4
 10
3490.8424840691746
 20
826.16011878148447
 11
3492.9663514424478
 21
826.16011878148447
  0
LINE
  8
_0-0_90_FRAME
  6
CONTINUOUS
 62
    4
 10
3493.6011462572728
 20
818.67560431453728
 11
3491.9044177558112
 21
823.44056909937296
  0
LINE
  8
_0-0_90_FRAME
  6
CONTINUOUS
 62
    4
 10
3504.7726442272265
 20
817.9526781651889
 11
3509.5168681631094
 21
814.04338470097309
  0
LINE
  8
_0-0_90_FRAME
  6
CONTINUOUS
 62
    4
 10
3506.2533907555744
 20
814.20244059403501
 11
3508.0343420961412
 21
812.46914848912229
  0
LINE
  8
_0-0_90_FRAME
  6
CONTINUOUS
 62
    4
 10
3489.5656935733477
 20
816.72879640094595
 11
3490.2589210415508
 21
818.67560431453728
  0
LINE
  8
_0-0_90_FRAME
  6
CONTINUOUS
 62
    4
 10
3509.033099314207
 20
818.987668573512
 11
3509.033099314207
 21
818.987668573512
  0
LINE
  8
_0-0_90_FRAME
  6
CONTINUOUS
 62
    4
 10
3509.033099314207
 20
818.987668573512
 11
3508.9435918282593
 21
818.0090748600669
  0
LINE
  8
_0-0_90_FRAME
  6
CONTINUOUS
 62
    4
 10
3508.9435918282593
 20
818.0090748600669
 11
3508.6777890100825
 21
817.06021522141259
  0
LINE
  8
_0-0_90_FRAME
  6
CONTINUOUS
 62
    4
 10
3508.6777890100825
 20
817.06021522141259
 11
3508.2437671438051
 21
816.16992027752337
  0
LINE
  8
_0-0_90_FRAME
  6
CONTINUOUS
 62
    4
 10
3508.2437671438051
 20
816.16992027752337
 11
3507.7907873355898
 21
815.52627431585904
  0
LINE
  8
_0-0_90_FRAME
  6
CONTINUOUS
 62
    4
 10
3506.8982349738149
 20
819.1383875811274
 11
3506.8982349738149
 21
819.1383875811274
  0
LINE
  8
_0-0_90_FRAME
  6
CONTINUOUS
 62
    4
 10
3506.8982349738149
 20
819.1383875811274
 11
3506.8411608742117
 21
818.48926606927034
  0
LINE
  8
_0-0_90_FRAME
  6
CONTINUOUS
 62
    4
 10
3506.8411608742117
 20
818.48926606927034
 11
3506.6716727430371
 21
817.8598677860798
  0
LINE
  8
_0-0_90_FRAME
  6
CONTINUOUS
 62
    4
 10
3506.6716727430371
 20
817.8598677860798
 11
3506.3949203913921
 21
817.26931667989948
  0
LINE
  8
_0-0_90_FRAME
  6
CONTINUOUS
 62
    4
 10
3506.3949203913921
 20
817.26931667989948
 11
3506.1400623562249
 21
816.88649011938242
  0
LINE
  8
_0-0_90_FRAME
  6
CONTINUOUS
 62
    4
 10
3497.2497882582547
 20
820.52462218950632
 11
3497.2497882582547
 21
818.987668573512
  0
LINE
  8
_0-0_90_FRAME
  6
CONTINUOUS
 62
    4
 10
3488.3120993029311
 20
813.35217198153578
 11
3491.9044177558112
 21
823.44056909937296
  0
LINE
  8
_0-0_90_FRAME
  6
CONTINUOUS
 62
    4
 10
3520.8461017515706
 20
813.35217198153578
 11
3523.1454388266666
 21
813.35217198153578
  0
LINE
  8
_0-0_90_FRAME
  6
CONTINUOUS
 62
    4
 10
3520.8461017515706
 20
813.35217198153578
 11
3520.8461017515706
 21
813.41365012617416
  0
LINE
  8
_0-0_90_FRAME
  6
CONTINUOUS
 62
    4
 10
3520.8461017515706
 20
813.41365012617416
 11
3525.6758235929133
 21
826.16011878148447
  0
LINE
  8
_0-0_90_FRAME
  6
CONTINUOUS
 62
    4
 10
3520.8461017515706
 20
813.35217198153578
 11
3520.8461017515706
 21
813.41365012617416
  0
LINE
  8
_0-0_90_FRAME
  6
CONTINUOUS
 62
    4
 10
3524.399033097086
 20
816.72879640094595
 11
3529.1277132492119
 21
816.72879640094595
  0
LINE
  8
_0-0_90_FRAME
  6
CONTINUOUS
 62
    4
 10
3525.0922605652863
 20
818.67560431453728
 11
3528.4344857810111
 21
818.67560431453728
  0
LINE
  8
_0-0_90_FRAME
  6
CONTINUOUS
 62
    4
 10
3532.6294128075256
 20
813.35217198153578
 11
3530.33007573243
 21
813.35217198153578
  0
LINE
  8
_0-0_90_FRAME
  6
CONTINUOUS
 62
    4
 10
3530.33007573243
 20
813.35217198153578
 11
3529.1277132492119
 21
816.72879640094595
  0
LINE
  8
_0-0_90_FRAME
  6
CONTINUOUS
 62
    4
 10
3532.6294128075256
 20
813.41365012617416
 11
3527.7996909661861
 21
826.16011878148447
  0
LINE
  8
_0-0_90_FRAME
  6
CONTINUOUS
 62
    4
 10
3532.6294128075256
 20
813.35217198153578
 11
3532.6294128075256
 21
813.41365012617416
  0
LINE
  8
_0-0_90_FRAME
  6
CONTINUOUS
 62
    4
 10
3525.6758235929133
 20
826.16011878148447
 11
3527.7996909661861
 21
826.16011878148447
  0
LINE
  8
_0-0_90_FRAME
  6
CONTINUOUS
 62
    4
 10
3528.4344857810111
 20
818.67560431453728
 11
3526.7377572795494
 21
823.44056909937296
  0
LINE
  8
_0-0_90_FRAME
  6
CONTINUOUS
 62
    4
 10
3524.399033097086
 20
816.72879640094595
 11
3525.0922605652863
 21
818.67560431453728
  0
LINE
  8
_0-0_90_FRAME
  6
CONTINUOUS
 62
    4
 10
3523.1454388266666
 20
813.35217198153578
 11
3526.7377572795494
 21
823.44056909937296
  0
ARC
  8
_0-0_90_FRAME
  6
CONTINUOUS
 62
    4
 10
3515.5607520266362
 20
818.75596978233034
 40
5.4200985425585984
 50
274.44474271147573
 51
357.5499690077387
  0
LINE
  8
_0-0_90_FRAME
  6
CONTINUOUS
 62
    4
 10
3506.1400623562272
 20
816.88649011938423
 11
3507.7907873355916
 21
815.5262743158595
  0
LINE
  8
_0-0_90_FRAME
  6
CONTINUOUS
 62
    4
 10
3507.0366284254928
 20
804.2841168952317
 11
3507.0366284254928
 21
804.2841168952317
  0
LINE
  8
_0-0_90_FRAME
  6
CONTINUOUS
 62
    4
 10
3507.0366284254928
 20
804.2841168952317
 11
3507.6823021383907
 21
804.5451301415568
  0
LINE
  8
_0-0_90_FRAME
  6
CONTINUOUS
 62
    4
 10
3507.6823021383907
 20
804.5451301415568
 11
3508.2625414997838
 21
804.89353571417075
  0
LINE
  8
_0-0_90_FRAME
  6
CONTINUOUS
 62
    4
 10
3508.2625414997838
 20
804.89353571417075
 11
3508.7597162302914
 21
805.31874748605128
  0
LINE
  8
_0-0_90_FRAME
  6
CONTINUOUS
 62
    4
 10
3508.7597162302914
 20
805.31874748605128
 11
3509.1587199273104
 21
805.80784561267751
  0
LINE
  8
_0-0_90_FRAME
  6
CONTINUOUS
 62
    4
 10
3509.1587199273104
 20
805.80784561267751
 11
3509.4474290654116
 21
806.34596909496724
  0
LINE
  8
_0-0_90_FRAME
  6
CONTINUOUS
 62
    4
 10
3509.4474290654116
 20
806.34596909496724
 11
3509.6170713635283
 21
806.91676732321503
  0
LINE
  8
_0-0_90_FRAME
  6
CONTINUOUS
 62
    4
 10
3509.6170713635283
 20
806.91676732321503
 11
3509.6624923262752
 21
807.50289688209318
  0
LINE
  8
_0-0_90_FRAME
  6
CONTINUOUS
 62
    4
 10
3509.6624923262752
 20
807.50289688209318
 11
3509.5823118606831
 21
808.08654852155109
  0
LINE
  8
_0-0_90_FRAME
  6
CONTINUOUS
 62
    4
 10
3509.5823118606831
 20
808.08654852155109
 11
3509.378966209626
 21
808.64998828186583
  0
LINE
  8
_0-0_90_FRAME
  6
CONTINUOUS
 62
    4
 10
3509.378966209626
 20
808.64998828186583
 11
3509.0586339278134
 21
809.1760963310345
  0
LINE
  8
_0-0_90_FRAME
  6
CONTINUOUS
 62
    4
 10
3509.0586339278134
 20
809.1760963310345
 11
3508.631048149532
 21
809.6488871422066
  0
LINE
  8
_0-0_90_FRAME
  6
CONTINUOUS
 62
    4
 10
3508.631048149532
 20
809.6488871422066
 11
3508.1092008522864
 21
810.05399520582853
  0
LINE
  8
_0-0_90_FRAME
  6
CONTINUOUS
 62
    4
 10
3508.1092008522864
 20
810.05399520582853
 11
3507.5089481021355
 21
810.37911151838148
  0
LINE
  8
_0-0_90_FRAME
  6
CONTINUOUS
 62
    4
 10
3507.5089481021355
 20
810.37911151838148
 11
3506.8485282751508
 21
810.61435758522555
  0
LINE
  8
_0-0_90_FRAME
  6
CONTINUOUS
 62
    4
 10
3506.8485282751508
 20
810.61435758522555
 11
3506.1480078935856
 21
810.75258557365964
  0
LINE
  8
_0-0_90_FRAME
  6
CONTINUOUS
 62
    4
 10
3506.1480078935856
 20
810.75258557365964
 11
3505.5287579142509
 21
810.79058262154513
  0
LINE
  8
_0-0_90_FRAME
  6
CONTINUOUS
 62
    4
 10
3514.4240280399949
 20
800.03190730958829
 11
3514.4240280399949
 21
808.74131113355315
  0
LINE
  8
_0-0_90_FRAME
  6
CONTINUOUS
 62
    4
 10
3512.1185976160027
 20
800.03190730958829
 11
3512.1185976160027
 21
808.74131113355315
  0
LINE
  8
_0-0_90_FRAME
  6
CONTINUOUS
 62
    4
 10
3511.8624386800016
 20
810.79058262154604
 11
3514.6801869759925
 21
810.79058262154604
  0
LINE
  8
_0-0_90_FRAME
  6
CONTINUOUS
 62
    4
 10
3499.6371023862794
 20
810.79058262154604
 11
3499.6371023862794
 21
797.98263582159723
  0
LINE
  8
_0-0_90_FRAME
  6
CONTINUOUS
 62
    4
 10
3511.8624386800016
 20
797.98263582159723
 11
3514.6801869759925
 21
797.98263582159723
  0
LINE
  8
_0-0_90_FRAME
  6
CONTINUOUS
 62
    4
 10
3514.6801869759925
 20
797.98263582159723
 11
3514.6801869759925
 21
799.77574837359077
  0
ARC
  8
_0-0_90_FRAME
  6
CONTINUOUS
 62
    4
 10
3514.6801869759925
 20
800.03190730958829
 40
0.2561589359989651
 50
180
 51
270
  0
LINE
  8
_0-0_90_FRAME
  6
CONTINUOUS
 62
    4
 10
3511.8624386800016
 20
797.98263582159723
 11
3511.8624386800016
 21
799.77574837359077
  0
ARC
  8
_0-0_90_FRAME
  6
CONTINUOUS
 62
    4
 10
3511.8624386800016
 20
800.03190730958829
 40
0.2561589359989651
 50
270
 51
0
  0
LINE
  8
_0-0_90_FRAME
  6
CONTINUOUS
 62
    4
 10
3514.6801869759925
 20
810.79058262154604
 11
3514.6801869759925
 21
808.99747006955249
  0
ARC
  8
_0-0_90_FRAME
  6
CONTINUOUS
 62
    4
 10
3514.6801869759925
 20
808.74131113355315
 40
0.2561589359989651
 50
90
 51
180
  0
LINE
  8
_0-0_90_FRAME
  6
CONTINUOUS
 62
    4
 10
3511.8624386800016
 20
810.79058262154604
 11
3511.8624386800016
 21
808.99747006955249
  0
ARC
  8
_0-0_90_FRAME
  6
CONTINUOUS
 62
    4
 10
3511.8624386800016
 20
808.74131113355315
 40
0.2561589359989651
 50
0
 51
90
  0
LINE
  8
_0-0_90_FRAME
  6
CONTINUOUS
 62
    4
 10
3494.0784950946631
 20
797.98263582159723
 11
3494.0784950946631
 21
808.74131113355315
  0
LINE
  8
_0-0_90_FRAME
  6
CONTINUOUS
 62
    4
 10
3491.773064670675
 20
797.98263582159723
 11
3491.773064670675
 21
808.74131113355315
  0
LINE
  8
_0-0_90_FRAME
  6
CONTINUOUS
 62
    4
 10
3487.674521694692
 20
810.79058262154604
 11
3498.1770380706485
 21
810.79058262154604
  0
LINE
  8
_0-0_90_FRAME
  6
CONTINUOUS
 62
    4
 10
3491.773064670675
 20
797.98263582159723
 11
3494.0784950946631
 21
797.98263582159723
  0
LINE
  8
_0-0_90_FRAME
  6
CONTINUOUS
 62
    4
 10
3498.1770380706485
 20
810.79058262154604
 11
3498.1770380706485
 21
808.99747006955249
  0
ARC
  8
_0-0_90_FRAME
  6
CONTINUOUS
 62
    4
 10
3494.3346540306638
 20
808.74131113355315
 40
0.2561589359989651
 50
90
 51
180
  0
LINE
  8
_0-0_90_FRAME
  6
CONTINUOUS
 62
    4
 10
3487.674521694692
 20
810.79058262154604
 11
3487.674521694692
 21
808.99747006955249
  0
ARC
  8
_0-0_90_FRAME
  6
CONTINUOUS
 62
    4
 10
3491.5169057346766
 20
808.74131113355315
 40
0.2561589359989651
 50
0
 51
90
  0
LINE
  8
_0-0_90_FRAME
  6
CONTINUOUS
 62
    4
 10
3487.674521694692
 20
808.99747006955249
 11
3491.5169057346766
 21
808.99747006955249
  0
LINE
  8
_0-0_90_FRAME
  6
CONTINUOUS
 62
    4
 10
3494.3346540306638
 20
808.99747006955249
 11
3498.1770380706485
 21
808.99747006955249
  0
LINE
  8
_0-0_90_FRAME
  6
CONTINUOUS
 62
    4
 10
3499.6371023862794
 20
797.98263582159723
 11
3501.9425328102675
 21
797.98263582159723
  0
LINE
  8
_0-0_90_FRAME
  6
CONTINUOUS
 62
    4
 10
3501.9425328102675
 20
797.98263582159723
 11
3501.9425328102675
 21
808.99747006955249
  0
LINE
  8
_0-0_90_FRAME
  6
CONTINUOUS
 62
    4
 10
3499.6371023862794
 20
810.79058262154604
 11
3505.5287579142509
 21
810.79058262154604
  0
LINE
  8
_0-0_90_FRAME
  6
CONTINUOUS
 62
    4
 10
3501.9425328102675
 20
808.99747006955249
 11
3505.8361486374533
 21
808.99747006955249
  0
LINE
  8
_0-0_90_FRAME
  6
CONTINUOUS
 62
    4
 10
3502.0193804910641
 20
804.05210693414438
 11
3502.0193804910641
 21
805.84521948613792
  0
LINE
  8
_0-0_90_FRAME
  6
CONTINUOUS
 62
    4
 10
3502.0193804910641
 20
804.05210693414438
 11
3504.5347504888023
 21
804.05210693414438
  0
LINE
  8
_0-0_90_FRAME
  6
CONTINUOUS
 62
    4
 10
3502.0193804910641
 20
805.84521948613792
 11
3505.8361486374533
 21
805.84521948613792
  0
ARC
  8
_0-0_90_FRAME
  6
CONTINUOUS
 62
    4
 10
3505.7811901828909
 20
807.42134477784521
 40
1.5770831832489223
 50
271.99705710435398
 51
88.002942895541636
  0
LINE
  8
_0-0_90_FRAME
  6
CONTINUOUS
 62
    4
 10
3507.4351210469413
 20
797.98263582159723
 11
3509.9198627261298
 21
797.98263582159723
  0
LINE
  8
_0-0_90_FRAME
  6
CONTINUOUS
 62
    4
 10
3507.7127203099681
 20
803.49007762471183
 11
3509.9198627261298
 21
798.08509939599708
  0
LINE
  8
_0-0_90_FRAME
  6
CONTINUOUS
 62
    4
 10
3505.4852558096113
 20
803.41011729686898
 11
3507.4351210469413
 21
797.98263582159723
  0
ARC
  8
_0-0_90_FRAME
  6
CONTINUOUS
 62
    4
 10
3504.5347504888023
 20
803.02747119015066
 40
1.0246357439958607
 50
21.928297866550245
 51
90
  0
ARC
  8
_0-0_90_FRAME
  6
CONTINUOUS
 62
    4
 10
3506.1628625500425
 20
802.85528917960573
 40
1.6748180337109209
 50
22.272952259980951
 51
58.553113012863221
  0
LINE
  8
_0-0_90_FRAME
  6
CONTINUOUS
 62
    4
 10
3509.9198627261298
 20
798.08509939599708
 11
3509.9198627261298
 21
797.98263582159723
  0
LINE
  8
_0-0_90_FRAME
  6
CONTINUOUS
 62
    4
 10
3516.9881135249393
 20
810.79058262154604
 11
3516.9881135249393
 21
797.98263582159723
  0
LINE
  8
_0-0_90_FRAME
  6
CONTINUOUS
 62
    4
 10
3516.9881135249393
 20
797.98263582159723
 11
3519.2935439489315
 21
797.98263582159723
  0
LINE
  8
_0-0_90_FRAME
  6
CONTINUOUS
 62
    4
 10
3519.2935439489315
 20
797.98263582159723
 11
3519.2914210448589
 21
806.94819858156143
  0
LINE
  8
_0-0_90_FRAME
  6
CONTINUOUS
 62
    4
 10
3516.9881135249393
 20
810.79058262154604
 11
3520.3334440396807
 21
810.79058262154604
  0
LINE
  8
_0-0_90_FRAME
  6
CONTINUOUS
 62
    4
 10
3527.4927528049684
 20
806.94819858156143
 11
3527.4927528049684
 21
797.98263582159723
  0
LINE
  8
_0-0_90_FRAME
  6
CONTINUOUS
 62
    4
 10
3527.4927528049684
 20
797.98263582159723
 11
3529.7981832289565
 21
797.98263582159723
  0
LINE
  8
_0-0_90_FRAME
  6
CONTINUOUS
 62
    4
 10
3529.7981832289565
 20
797.98263582159723
 11
3529.7981832289565
 21
810.79058262154604
  0
LINE
  8
_0-0_90_FRAME
  6
CONTINUOUS
 62
    4
 10
3522.2393717129212
 20
797.98263582159723
 11
3524.5448021369093
 21
797.98263582159723
  0
LINE
  8
_0-0_90_FRAME
  6
CONTINUOUS
 62
    4
 10
3529.7981832289565
 20
810.79058262154604
 11
3526.4507298101466
 21
810.79058262154604
  0
LINE
  8
_0-0_90_FRAME
  6
CONTINUOUS
 62
    4
 10
3524.5448021369093
 20
797.98263582159723
 11
3527.4927528049684
 21
806.94819858156143
  0
LINE
  8
_0-0_90_FRAME
  6
CONTINUOUS
 62
    4
 10
3522.2393717129212
 20
797.98263582159723
 11
3519.2914210448589
 21
806.94819858156143
  0
LINE
  8
_0-0_90_FRAME
  6
CONTINUOUS
 62
    4
 10
3523.3920869249137
 20
801.4883731086843
 11
3526.4507298101466
 21
810.79058262154604
  0
LINE
  8
_0-0_90_FRAME
  6
CONTINUOUS
 62
    4
 10
3523.3920869249137
 20
801.4883731086843
 11
3520.3334440396807
 21
810.79058262154604
  0
TEXT
  8
_0-0_90_FRAME
 62
    2
 10
3544.8995497995274
 20
821.0141476765923
 40
15.121542857081762
 41
1
 50
0
  1
株式会社
  0
LINE
  8
_0-0_90_FRAME
  6
CONTINUOUS
 62
   18
 10
3590.9333302088467
 20
852.44973762196923
 11
3590.9333302088467
 21
923.16402333597159
  0
TEXT
  8
_0-0_90_FRAME
 62
    7
 10
3722.91491106387
 20
797.70020897820814
 40
20
 41
1
 50
0
  1
寺田
  0
TEXT
  8
_0-0_90_FRAME
 62
    7
 10
3620.1006253500332
 20
869.42268903593003
 40
20
 41
1
 50
0
  1
1：4
  0
TEXT
  8
_0-0_90_FRAME
 62
    7
 10
3799.2802175152883
 20
909.47238270012861
 40
10
 41
1
 50
0
  1
機器
  0
LINE
  8
_0-0_90_FRAME
  6
CONTINUOUS
 62
   18
 10
3947.6095039338011
 20
923.16402333597159
 11
3947.6095039338011
 21
821.33545190781069
  0
TEXT
  8
_0-0_90_FRAME
 62
    7
 10
3950.3278198125672
 20
909.47238270012861
 40
10
 41
1
 50
0
  1
部品名
  0
TEXT
  8
_0-0_90_FRAME
 62
    7
 10
3950.3278198125645
 20
852.40095412892651
 40
10
 41
1
 50
0
  1
図面番号
  0
LINE
  8
_0-0_90_FRAME
  6
CONTINUOUS
 62
   18
 10
3796.5619016365281
 20
872.24973762189222
 11
3947.6095039338011
 21
872.24973762189222
  0
TEXT
  8
_0-0_90_FRAME
 62
    7
 10
3799.2802175152883
 20
858.05809698604889
 40
10
 41
1
 50
0
  1
型式
  0
LINE
  8
_0-0_90_FRAME
  6
CONTINUOUS
 62
   18
 10
3659.2476211726803
 20
923.16402333597159
 11
4264.1333302061294
 21
923.16402333597159
  0
LINE
  8
_0-0_90_FRAME
  6
CONTINUOUS
 62
    4
 10
3659.2476211726798
 20
1035.1640203274751
 11
3659.2476211726803
 21
923.16402333597182
  0
LINE
  8
_0-0_90_FRAME
  6
CONTINUOUS
 62
    4
 10
3947.6095039338011
 20
1035.1640203274751
 11
3947.6095039338011
 21
923.16402333597159
  0
LINE
  8
_0-0_90_FRAME
  6
CONTINUOUS
 62
    4
 10
4057.3859553917296
 20
1035.1640203274751
 11
4057.3859553917455
 21
923.16402333597159
  0
LINE
  8
_0-0_90_FRAME
  6
CONTINUOUS
 62
    4
 10
4029.3859588917271
 20
1035.1640203274751
 11
4029.3859588917421
 21
923.16402333597159
  0
LINE
  8
_0-0_90_FRAME
  6
CONTINUOUS
 62
    4
 10
3701.2476159226876
 20
1035.1640203274751
 11
3701.2476159226876
 21
923.16402333597159
  0
LINE
  8
_0-0_90_FRAME
  6
CONTINUOUS
 62
    4
 10
4099.3859501417382
 20
1035.1640203274751
 11
4099.3859501417382
 21
923.16402333597159
  0
TEXT
  8
_0-0_90_FRAME
 62
    3
 10
4040.8428272390511
 20
957.85472095846831
 40
12.000000000000002
 41
1
 50
0
  1
1
  0
TEXT
  8
_0-0_90_FRAME
 62
    3
 10
3954.0550009653293
 20
958.1213861695162
 40
12.000000000000002
 41
1
 50
0
  1
SUS304
  0
TEXT
  8
_0-0_90_FRAME
 62
    3
 10
3720.7551499446668
 20
957.96221665173687
 40
12.000000000000002
 41
1
 50
0
  1
テンション軸2
  0
TEXT
  8
_0-0_90_FRAME
 62
    3
 10
3667.2173181506078
 20
957.65352391969668
 40
12.000000000000002
 41
1
 50
0
  1
114
  0
TEXT
  8
_0-0_90_FRAME
 62
    3
 10
4066.5327167698188
 20
937.53548593120172
 40
10
 41
1
 50
0
  1
重量
  0
TEXT
  8
_0-0_90_FRAME
 62
    3
 10
3966.2832516394669
 20
931.08129429370842
 40
12.000000000000002
 41
1
 50
0
  1
材　質
  0
TEXT
  8
_0-0_90_FRAME
 62
    3
 10
4030.8565273423178
 20
930.99110658192762
 40
12.000000000000002
 41
1
 50
0
  1
数量
  0
TEXT
  8
_0-0_90_FRAME
 62
    3
 10
4070.9525758315353
 20
927.75078774205269
 40
8
 41
1
 50
0
  1
kg
  0
TEXT
  8
_0-0_90_FRAME
 62
    3
 10
4152.907687672111
 20
930.78990954313292
 40
12.000000000000002
 41
1
 50
0
  1
備  考
  0
TEXT
  8
_0-0_90_FRAME
 62
    3
 10
3667.7995995508554
 20
930.78990954313292
 40
12.000000000000002
 41
1
 50
0
  1
符号
  0
TEXT
  8
_0-0_90_FRAME
 62
    3
 10
3769.5284559498127
 20
931.22546504424633
 40
12.000000000000002
 41
1
 50
0
  1
部　　品　　名
  0
LINE
  8
_0-0_90_FRAME
  6
CONTINUOUS
 62
    4
 10
3659.2475980664472
 20
1035.1640203274751
 11
4264.1333070998971
 21
1035.1640203274751
  0
LINE
  8
_0-0_90_FRAME
  6
CONTINUOUS
 62
    4
 10
3659.2475980664472
 20
1007.1640188323408
 11
4264.1333070998971
 21
1007.1640188323408
  0
LINE
  8
_0-0_90_FRAME
  6
CONTINUOUS
 62
    4
 10
3659.2475980664472
 20
979.1640203274751
 11
4264.1333070998971
 21
979.1640203274751
  0
LINE
  8
_0-0_90_FRAME
  6
CONTINUOUS
 62
    4
 10
3659.2475980664472
 20
951.1640203274751
 11
4264.1333070998971
 21
951.1640203274751
  0
TEXT
  8
_0-0_90_FRAME
 62
    3
 10
4040.8428272390511
 20
985.85471946333382
 40
12.000000000000002
 41
1
 50
0
  1
1
  0
TEXT
  8
_0-0_90_FRAME
 62
    3
 10
3667.2173181506078
 20
985.65352242456242
 40
12.000000000000002
 41
1
 50
0
  1
115
  0
TEXT
  8
_0-0_90_FRAME
 62
    7
 10
4060.6366733356354
 20
886.32076946488905
 40
16
 41
1
 50
0
  1
脱水機 部品図
  0
TEXT
  8
_0-0_90_FRAME
 62
    7
 10
3806.3250688958333
 20
885.74665914703166
 40
12.800000000000002
 41
0.9
 50
0
  1
有機性汚泥燃料施設
  0
TEXT
  8
_0-2_08_DIM
 62
    3
 10
3453.5820274370358
 20
962.80284834282884
 40
18.000000000000004
 41
1
 50
0
  1
テンション軸用
  0
LINE
  8
_0-2_08_DIM
  6
CONTINUOUS
 62
    3
 10
3445.5820274370367
 20
988.80284834282861
 11
3445.5820274370367
 21
954.80284834282872
  0
LINE
  8
_0-2_08_DIM
  6
CONTINUOUS
 62
    3
 10
3445.5820274370367
 20
954.80284834282872
 11
3613.4002205055426
 21
954.80284834282872
  0
LINE
  8
_0-2_08_DIM
  6
CONTINUOUS
 62
    3
 10
3613.4002205055426
 20
954.80284834282872
 11
3613.4002205055426
 21
988.80284834282861
  0
LINE
  8
_0-2_08_DIM
  6
CONTINUOUS
 62
    3
 10
3613.4002205055426
 20
988.80284834282861
 11
3445.5820274370367
 21
988.80284834282861
  0
TEXT
  8
_0-0_90_FRAME
 62
    3
 10
3954.0550009653293
 20
986.1213861695162
 40
12.000000000000002
 41
1
 50
0
  1
SUS304
  0
LINE
  8
_0-3_0
  6
CONTINUOUS
 62
   18
 10
1854.5746800012294
 20
2681.2401388851545
 11
3772.5746799917633
 21
2681.2401388820367
  0
LINE
  8
_0-3_0
  6
CONTINUOUS
 62
   18
 10
3772.5746799917633
 20
2681.2401388820367
 11
3773.5746799917633
 21
2680.2401388820363
  0
LINE
  8
_0-3_0
  6
CONTINUOUS
 62
   18
 10
3773.5746799917633
 20
2680.2401388820363
 11
3773.5746799917633
 21
2622.2401388820363
  0
LINE
  8
_0-3_0
  6
CONTINUOUS
 62
   18
 10
3773.5746799917633
 20
2622.2401388820363
 11
3772.5746799917633
 21
2621.2401388820363
  0
LINE
  8
_0-3_0
  6
CONTINUOUS
 62
   18
 10
3772.5746799917633
 20
2621.2401388820363
 11
1854.5746800012294
 21
2621.240138885154
  0
LINE
  8
_0-3_0
  6
CONTINUOUS
 62
   18
 10
1854.5746800012294
 20
2621.240138885154
 11
1853.5746800012291
 21
2622.2401388851545
  0
LINE
  8
_0-3_0
  6
CONTINUOUS
 62
   18
 10
1853.5746800012291
 20
2622.2401388851545
 11
1853.5746800012291
 21
2680.2401388851545
  0
LINE
  8
_0-3_0
  6
CONTINUOUS
 62
   18
 10
1853.5746800012291
 20
2680.2401388851545
 11
1854.5746800012294
 21
2681.2401388851545
  0
LINE
  8
_0-3_0
  6
CONTINUOUS
 62
   18
 10
1853.5746800006543
 20
2671.2401388856597
 11
1800.5746799938731
 21
2671.2401388856597
  0
LINE
  8
_0-3_0
  6
CONTINUOUS
 62
   18
 10
1799.5746799938731
 20
2670.2401388856597
 11
1800.5746799938731
 21
2671.2401388856597
  0
LINE
  8
_0-3_0
  6
CONTINUOUS
 62
   18
 10
1799.5746799938731
 20
2670.2401388856597
 11
1799.5746799938731
 21
2632.2401388856597
  0
LINE
  8
_0-3_0
  6
CONTINUOUS
 62
   18
 10
1800.5746799938731
 20
2631.2401388856597
 11
1799.5746799938731
 21
2632.2401388856597
  0
LINE
  8
_0-3_0
  6
CONTINUOUS
 62
   18
 10
1800.5746799938731
 20
2631.2401388856597
 11
1853.5746800006543
 21
2631.2401388856597
  0
LINE
  8
_0-3_0
  6
CONTINUOUS
 62
   18
 10
1799.5746799938731
 20
2636.240138885154
 11
1758.5746799938731
 21
2636.240138885154
  0
LINE
  8
_0-3_0
  6
CONTINUOUS
 62
   18
 10
1758.5746799938731
 20
2636.240138885154
 11
1757.5746799938731
 21
2637.240138885154
  0
LINE
  8
_0-3_0
  6
CONTINUOUS
 62
   18
 10
1757.5746799938731
 20
2637.240138885154
 11
1757.5746799938731
 21
2665.240138885154
  0
LINE
  8
_0-3_0
  6
CONTINUOUS
 62
   18
 10
1757.5746799938731
 20
2665.240138885154
 11
1758.5746799938731
 21
2666.240138885154
  0
LINE
  8
_0-3_0
  6
CONTINUOUS
 62
   18
 10
1758.5746799938731
 20
2666.240138885154
 11
1799.5746799938731
 21
2666.240138885154
  0
LINE
  8
_0-3_0
  6
CONTINUOUS
 62
   18
 10
1854.5746800012294
 20
2681.2401388851545
 11
1854.5746800012294
 21
2621.240138885154
  0
LINE
  8
_0-3_0
  6
CONTINUOUS
 62
   18
 10
1800.5746799938731
 20
2671.2401388856597
 11
1800.5746799938731
 21
2631.2401388856597
  0
LINE
  8
_0-3_0
  6
CONTINUOUS
 62
   18
 10
1758.5746799938731
 20
2666.240138885154
 11
1758.5746799938731
 21
2636.240138885154
  0
LINE
  8
_0-3_0
  6
CONTINUOUS
 62
   18
 10
3772.5746799917633
 20
2681.2401388820367
 11
3772.5746799917633
 21
2621.2401388820363
  0
LINE
  8
_0-4_05_CENTER
  6
CENTER2
 62
    4
 10
3875.1134143180766
 20
2651.2401388851545
 11
1752.0359456749227
 21
2651.2401388851545
  0
LINE
  8
_0-3_0
  6
CONTINUOUS
 62
   18
 10
3773.5746799923459
 20
2671.2401388825419
 11
3826.5746799991271
 21
2671.2401388856597
  0
LINE
  8
_0-3_0
  6
CONTINUOUS
 62
   18
 10
3827.5746799991271
 20
2670.2401388856597
 11
3826.5746799991271
 21
2671.2401388856597
  0
LINE
  8
_0-3_0
  6
CONTINUOUS
 62
   18
 10
3827.5746799991271
 20
2670.2401388856597
 11
3827.5746799991271
 21
2632.2401388856597
  0
LINE
  8
_0-3_0
  6
CONTINUOUS
 62
   18
 10
3826.5746799991271
 20
2631.2401388856597
 11
3827.5746799991271
 21
2632.2401388856597
  0
LINE
  8
_0-3_0
  6
CONTINUOUS
 62
   18
 10
3826.5746799991271
 20
2631.2401388856597
 11
3773.5746799923459
 21
2631.2401388825424
  0
LINE
  8
_0-3_0
  6
CONTINUOUS
 62
   18
 10
3827.5746799991271
 20
2636.240138885154
 11
3868.5746799991266
 21
2636.240138885154
  0
LINE
  8
_0-3_0
  6
CONTINUOUS
 62
   18
 10
3868.5746799991266
 20
2636.240138885154
 11
3869.5746799991266
 21
2637.240138885154
  0
LINE
  8
_0-3_0
  6
CONTINUOUS
 62
   18
 10
3869.5746799991266
 20
2637.240138885154
 11
3869.5746799991266
 21
2665.240138885154
  0
LINE
  8
_0-3_0
  6
CONTINUOUS
 62
   18
 10
3869.5746799991266
 20
2665.240138885154
 11
3868.5746799991266
 21
2666.240138885154
  0
LINE
  8
_0-3_0
  6
CONTINUOUS
 62
   18
 10
3868.5746799991266
 20
2666.240138885154
 11
3827.5746799991271
 21
2666.240138885154
  0
LINE
  8
_0-3_0
  6
CONTINUOUS
 62
   18
 10
3826.5746799991271
 20
2671.2401388856597
 11
3826.5746799991271
 21
2631.2401388856597
  0
LINE
  8
_0-3_0
  6
CONTINUOUS
 62
   18
 10
3868.5746799991266
 20
2666.240138885154
 11
3868.5746799991266
 21
2636.240138885154
  0
LINE
  8
_0-4_05_CENTER
  6
CENTER2
 62
    4
 10
2813.5746800004799
 20
2696.9208050831685
 11
2813.5746800003781
 21
2605.55947268714
  0
CIRCLE
  8
_0-3_0
  6
CONTINUOUS
 62
   18
 10
1825.5746799920396
 20
1417.0357716517301
 40
6.0000000000000009
  0
LINE
  8
_0-4_05_CENTER
  6
CENTER2
 62
    4
 10
1834.915730803428
 20
1417.0357716517301
 11
1816.2336291806221
 21
1417.0357716517301
  0
LINE
  8
_0-4_05_CENTER
  6
CENTER2
 62
    4
 10
1825.5746799920396
 20
1426.3768224631185
 11
1825.5746799920396
 21
1407.6947208403144
  0
CIRCLE
  8
_0-3_0
  6
CONTINUOUS
 62
   18
 10
1865.5746799920398
 20
1417.0357716517301
 40
6.0000000000000009
  0
LINE
  8
_0-4_05_CENTER
  6
CENTER2
 62
    4
 10
1874.9157308034278
 20
1417.0357716517301
 11
1856.2336291806223
 21
1417.0357716517301
  0
LINE
  8
_0-4_05_CENTER
  6
CENTER2
 62
    4
 10
1865.5746799920398
 20
1426.3768224631185
 11
1865.5746799920398
 21
1407.6947208403144
  0
CIRCLE
  8
_0-3_0
  6
CONTINUOUS
 62
   18
 10
1825.5746799920396
 20
1547.0357716517301
 40
6.0000000000000009
  0
LINE
  8
_0-4_05_CENTER
  6
CENTER2
 62
    4
 10
1834.915730803428
 20
1547.0357716517301
 11
1816.2336291806221
 21
1547.0357716517301
  0
LINE
  8
_0-4_05_CENTER
  6
CENTER2
 62
    4
 10
1825.5746799920396
 20
1537.6947208403417
 11
1825.5746799920396
 21
1556.3768224631458
  0
CIRCLE
  8
_0-3_0
  6
CONTINUOUS
 62
   18
 10
1865.5746799920398
 20
1547.0357716517301
 40
6.0000000000000009
  0
LINE
  8
_0-4_05_CENTER
  6
CENTER2
 62
    4
 10
1874.9157308034278
 20
1547.0357716517301
 11
1856.2336291806223
 21
1547.0357716517301
  0
LINE
  8
_0-4_05_CENTER
  6
CENTER2
 62
    4
 10
1865.5746799920398
 20
1537.6947208403417
 11
1865.5746799920398
 21
1556.3768224631458
  0
CIRCLE
  8
_0-3_0
  6
CONTINUOUS
 62
   18
 10
1783.5746799920396
 20
1421.5357716517485
 40
8
  0
LINE
  8
_0-4_05_CENTER
  6
CENTER2
 62
    4
 10
1783.5746799920396
 20
1555.4676863226978
 11
1783.5746799920396
 21
1529.6038569807972
  0
CIRCLE
  8
_0-3_0
  6
CONTINUOUS
 62
   18
 10
1783.5746799920396
 20
1542.5357716517483
 40
8
  0
LINE
  8
_0-4_05_CENTER
  6
CENTER2
 62
    4
 10
1796.5065946629854
 20
1542.5357716517483
 11
1770.6427653210862
 21
1542.5357716517483
  0
LINE
  8
_0-4_05_CENTER
  6
CENTER2
 62
    4
 10
1783.5746799920396
 20
1434.4676863226978
 11
1783.5746799920396
 21
1408.603856980797
  0
LINE
  8
_0-4_05_CENTER
  6
CENTER2
 62
    4
 10
1796.5065946629854
 20
1421.5357716517485
 11
1770.6427653210862
 21
1421.5357716517485
  0
CIRCLE
  8
_0-3_0
  6
CONTINUOUS
 62
   18
 10
3801.5746800025026
 20
1417.0357716517301
 40
6.0000000000000009
  0
LINE
  8
_0-4_05_CENTER
  6
CENTER2
 62
    4
 10
3792.2336291911142
 20
1417.0357716517301
 11
3810.9157308139202
 21
1417.0357716517301
  0
LINE
  8
_0-4_05_CENTER
  6
CENTER2
 62
    4
 10
3801.5746800025026
 20
1426.3768224631167
 11
3801.5746800025026
 21
1407.6947208403126
  0
CIRCLE
  8
_0-3_0
  6
CONTINUOUS
 62
   18
 10
3761.5746800025026
 20
1417.0357716517301
 40
6.0000000000000009
  0
LINE
  8
_0-4_05_CENTER
  6
CENTER2
 62
    4
 10
3752.2336291911138
 20
1417.0357716517301
 11
3770.9157308139202
 21
1417.0357716517301
  0
LINE
  8
_0-4_05_CENTER
  6
CENTER2
 62
    4
 10
3761.5746800025026
 20
1426.3768224631167
 11
3761.5746800025026
 21
1407.6947208403126
  0
CIRCLE
  8
_0-3_0
  6
CONTINUOUS
 62
   18
 10
3801.5746800025026
 20
1547.0357716517301
 40
6.0000000000000009
  0
LINE
  8
_0-4_05_CENTER
  6
CENTER2
 62
    4
 10
3792.2336291911142
 20
1547.0357716517301
 11
3810.9157308139202
 21
1547.0357716517301
  0
LINE
  8
_0-4_05_CENTER
  6
CENTER2
 62
    4
 10
3801.5746800025026
 20
1537.6947208403417
 11
3801.5746800025026
 21
1556.3768224631458
  0
CIRCLE
  8
_0-3_0
  6
CONTINUOUS
 62
   18
 10
3761.5746800025026
 20
1547.0357716517301
 40
6.0000000000000009
  0
LINE
  8
_0-4_05_CENTER
  6
CENTER2
 62
    4
 10
3752.2336291911138
 20
1547.0357716517301
 11
3770.9157308139202
 21
1547.0357716517301
  0
LINE
  8
_0-4_05_CENTER
  6
CENTER2
 62
    4
 10
3761.5746800025026
 20
1537.6947208403417
 11
3761.5746800025026
 21
1556.3768224631458
  0
CIRCLE
  8
_0-3_0
  6
CONTINUOUS
 62
   18
 10
3843.5746800025031
 20
1421.5357716517467
 40
8
  0
LINE
  8
_0-4_05_CENTER
  6
CENTER2
 62
    4
 10
3843.5746800025031
 20
1555.4676863226978
 11
3843.5746800025031
 21
1529.6038569807972
  0
CIRCLE
  8
_0-3_0
  6
CONTINUOUS
 62
   18
 10
3843.5746800025031
 20
1542.5357716517465
 40
8
  0
LINE
  8
_0-4_05_CENTER
  6
CENTER2
 62
    4
 10
3830.6427653315568
 20
1542.5357716517465
 11
3856.5065946734562
 21
1542.5357716517465
  0
LINE
  8
_0-4_05_CENTER
  6
CENTER2
 62
    4
 10
3843.5746800025031
 20
1434.4676863226978
 11
3843.5746800025031
 21
1408.603856980797
  0
LINE
  8
_0-4_05_CENTER
  6
CENTER2
 62
    4
 10
3830.6427653315568
 20
1421.5357716517467
 11
3856.5065946734562
 21
1421.5357716517467
  0
ARC
  8
_0-3_0
  6
CONTINUOUS
 62
   18
 10
1908.5746800001593
 20
1512.0357636517329
 40
20
 50
90
 51
180
  0
LINE
  8
_0-3_0
  6
CONTINUOUS
 62
   18
 10
1908.5746800001593
 20
1532.0357636517331
 11
2368.5746800001598
 21
1532.0357636517331
  0
ARC
  8
_0-3_0
  6
CONTINUOUS
 62
   18
 10
2368.5746800001598
 20
1512.0357636517329
 40
20
 50
0
 51
90
  0
LINE
  8
_0-4_05_CENTER
  6
CENTER2
 62
    4
 10
3889.6788151923733
 20
1482.0357716467588
 11
1737.4705448083967
 21
1482.0357716467588
  0
LINE
  8
_0-4_05_CENTER
  6
CENTER2
 62
    4
 10
2813.5746800003853
 20
1581.9546689845629
 11
2813.5746800003853
 21
1382.1168743089547
  0
LINE
  8
_0-3_0
  6
CONTINUOUS
 62
   18
 10
3238.5746799943827
 20
1452.0357716460603
 11
3238.5746799943827
 21
1452.0357636517313
  0
ARC
  8
_0-3_0
  6
CONTINUOUS
 62
   18
 10
3258.5746799943827
 20
1452.0357636517313
 40
20
 50
180
 51
270
  0
LINE
  8
_0-3_0
  6
CONTINUOUS
 62
   18
 10
3258.5746799943827
 20
1432.035763651731
 11
3718.5746799943831
 21
1432.035763651731
  0
ARC
  8
_0-3_0
  6
CONTINUOUS
 62
   18
 10
3718.5746759976241
 20
1452.0357676484891
 40
20.000003996758494
 50
270.00001144986624
 51
0.0000114498662215
  0
ARC
  8
_0-3_0
  6
CONTINUOUS
 62
   18
 10
2583.5746799972708
 20
1512.0357636517329
 40
20
 50
90
 51
180
  0
LINE
  8
_0-3_0
  6
CONTINUOUS
 62
   18
 10
2583.5746799972708
 20
1532.0357636517331
 11
3043.5746799972712
 21
1532.0357636517313
  0
ARC
  8
_0-3_0
  6
CONTINUOUS
 62
   18
 10
3043.5746799972712
 20
1512.035763651731
 40
20
 50
0
 51
90
  0
LINE
  8
_0-5_04_HIDDEN
  6
CONTINUOUS
 62
    7
 10
1758.574679997271
 20
1564.0357716517431
 11
3868.5746799972712
 21
1564.0357716517431
  0
LINE
  8
_0-5_04_HIDDEN
  6
CONTINUOUS
 62
    7
 10
1758.574679997271
 20
1400.0357716517428
 11
3868.5746799972712
 21
1400.0357716517428
  0
LINE
  8
_0-5_04_HIDDEN
  6
CONTINUOUS
 62
    7
 10
1828.574679997271
 20
1400.0357716517428
 11
1828.574679997271
 21
1397.0357716517431
  0
LINE
  8
_0-5_04_HIDDEN
  6
CONTINUOUS
 62
    7
 10
1828.574679997271
 20
1564.035755651721
 11
1828.574679997271
 21
1567.035755651721
  0
LINE
  8
_0-5_04_HIDDEN
  6
CONTINUOUS
 62
    7
 10
3798.574680003499
 20
1400.0357716517428
 11
3798.574680003499
 21
1397.0357716517431
  0
LINE
  8
_0-5_04_HIDDEN
  6
CONTINUOUS
 62
    7
 10
3798.574680003499
 20
1564.035755651721
 11
3798.574680003499
 21
1567.035755651721
  0
LINE
  8
_0-3_0
  6
CONTINUOUS
 62
   18
 10
1758.574679997271
 20
1567.0357716517428
 11
3868.5746799972712
 21
1567.0357716517428
  0
LINE
  8
_0-3_0
  6
CONTINUOUS
 62
   18
 10
3868.5746799972712
 20
1567.0357716517428
 11
3868.5746799972712
 21
1397.0357716517431
  0
LINE
  8
_0-3_0
  6
CONTINUOUS
 62
   18
 10
3868.5746799972712
 20
1397.0357716517431
 11
1758.574679997271
 21
1397.0357716517431
  0
LINE
  8
_0-3_0
  6
CONTINUOUS
 62
   18
 10
1758.574679997271
 20
1397.0357716517431
 11
1758.574679997271
 21
1567.0357716517428
  0
LINE
  8
_0-3_0
  6
CONTINUOUS
 62
   18
 10
2388.5746800001598
 20
1452.035771647443
 11
2388.5746800001598
 21
1452.0357636517331
  0
ARC
  8
_0-3_0
  6
CONTINUOUS
 62
   18
 10
2368.5746800001598
 20
1452.0357636517331
 40
20
 50
270
 51
0
  0
LINE
  8
_0-3_0
  6
CONTINUOUS
 62
   18
 10
2368.5746800001598
 20
1432.0357636517329
 11
1908.5746800001593
 21
1432.0357636517329
  0
ARC
  8
_0-3_0
  6
CONTINUOUS
 62
   18
 10
1908.5746839984208
 20
1452.0357676499946
 40
20.000003998261892
 50
179.99998854582685
 51
269.99998854582685
  0
LINE
  8
_0-3_0
  6
CONTINUOUS
 62
   18
 10
3063.5746799972712
 20
1452.0357716463459
 11
3063.5746799972712
 21
1452.0357636517313
  0
ARC
  8
_0-3_0
  6
CONTINUOUS
 62
   18
 10
3043.5746799972712
 20
1452.0357636517313
 40
20
 50
270
 51
0
  0
LINE
  8
_0-3_0
  6
CONTINUOUS
 62
   18
 10
3043.5746799972712
 20
1432.035763651731
 11
2583.5746799972708
 21
1432.0357636517329
  0
ARC
  8
_0-3_0
  6
CONTINUOUS
 62
   18
 10
2583.5746839949829
 20
1452.035767649445
 40
20.000003997712554
 50
179.99998854740059
 51
269.99998854740056
  0
ARC
  8
_0-3_0
  6
CONTINUOUS
 62
   18
 10
3718.5746799943831
 20
1512.035763651731
 40
20
 50
0
 51
90
  0
LINE
  8
_0-3_0
  6
CONTINUOUS
 62
   18
 10
3718.5746799943831
 20
1532.0357636517313
 11
3258.5746799943827
 21
1532.0357636517313
  0
ARC
  8
_0-3_0
  6
CONTINUOUS
 62
   18
 10
3258.5746799943827
 20
1512.035763651731
 40
20
 50
90
 51
180
  0
LINE
  8
_0-3_0
  6
CONTINUOUS
 62
   18
 10
3738.5746799943827
 20
1512.035763651731
 11
3738.5746799942881
 21
1452.0357716452472
  0
LINE
  8
_0-3_0
  6
CONTINUOUS
 62
   18
 10
3238.5746799943827
 20
1512.035763651731
 11
3238.5746799944845
 21
1452.0357716452472
  0
LINE
  8
_0-3_0
  6
CONTINUOUS
 62
   18
 10
3063.5746799972712
 20
1512.035763651731
 11
3063.5746799971766
 21
1452.0357716452472
  0
LINE
  8
_0-3_0
  6
CONTINUOUS
 62
   18
 10
2563.5746799972712
 20
1512.035763651731
 11
2563.5746799973658
 21
1452.0357716452472
  0
LINE
  8
_0-3_0
  6
CONTINUOUS
 62
   18
 10
2388.5746800001598
 20
1512.0357636517329
 11
2388.5746800000579
 21
1452.035771645249
  0
LINE
  8
_0-3_0
  6
CONTINUOUS
 62
   18
 10
1888.5746800001596
 20
1512.0357636517329
 11
1888.5746800002541
 21
1452.035771645249
  0
LINE
  8
_0-4_05_CENTER
  6
CENTER2
 62
    4
 10
1865.5746799920398
 20
1191.5331731561746
 11
1865.5746799920398
 21
1206.9827407492958
  0
LINE
  8
_0-4_05_CENTER
  6
CENTER2
 62
    4
 10
1825.5746799920396
 20
1191.5331731561746
 11
1825.5746799920396
 21
1206.9827407492958
  0
LINE
  8
_0-4_05_CENTER
  6
CENTER2
 62
    4
 10
1783.5746799920396
 20
1191.5331731561746
 11
1783.5746799920396
 21
1206.9827407492958
  0
LINE
  8
_0-3_0
  6
CONTINUOUS
 62
   18
 10
1758.574679997271
 20
1200.7622638410667
 11
1758.574679997271
 21
1177.7622638410667
  0
LINE
  8
_0-3_0
  6
CONTINUOUS
 62
   18
 10
1758.574679997271
 20
1177.7622638410667
 11
1760.574679997271
 21
1175.7622638410667
  0
LINE
  8
_0-3_0
  6
CONTINUOUS
 62
   18
 10
1760.574679997271
 20
1175.7622638410667
 11
1818.574679997271
 21
1175.7622638410667
  0
LINE
  8
_0-5_04_HIDDEN
  6
CONTINUOUS
 62
    7
 10
3868.5746799972712
 20
1197.7622638410667
 11
1758.574679997271
 21
1197.7622638410667
  0
LINE
  8
_0-4_05_CENTER
  6
CENTER2
 62
    4
 10
3761.5746800014986
 20
1191.5331731561728
 11
3761.5746800014986
 21
1206.982740749294
  0
LINE
  8
_0-4_05_CENTER
  6
CENTER2
 62
    4
 10
3801.5746800014986
 20
1191.5331731561728
 11
3801.5746800014986
 21
1206.982740749294
  0
LINE
  8
_0-4_05_CENTER
  6
CENTER2
 62
    4
 10
3843.5746800014981
 20
1191.5331731561728
 11
3843.5746800014981
 21
1206.982740749294
  0
LINE
  8
_0-4_05_CENTER
  6
CENTER2
 62
    4
 10
2813.5746799972712
 20
1129.1718332247819
 11
2813.5746799972712
 21
1221.6127104180468
  0
LINE
  8
_0-3_0
  6
CONTINUOUS
 62
   18
 10
1758.574679997271
 20
1200.7622638410667
 11
3868.5746799972712
 21
1200.7622638410667
  0
LINE
  8
_0-3_0
  6
CONTINUOUS
 62
   18
 10
3868.5746799972712
 20
1200.7622638410667
 11
3868.5746799972712
 21
1177.7622638410667
  0
LINE
  8
_0-3_0
  6
CONTINUOUS
 62
   18
 10
3868.5746799972712
 20
1177.7622638410667
 11
3866.5746799972712
 21
1175.7622638410667
  0
LINE
  8
_0-3_0
  6
CONTINUOUS
 62
   18
 10
3866.5746799972712
 20
1175.7622638410667
 11
3808.5746799972712
 21
1175.7622638410667
  0
ARC
  8
_0-3_0
  6
CONTINUOUS
 62
   18
 10
3808.5746799972712
 20
1165.7622638410667
 40
10
 50
90
 51
180
  0
LINE
  8
_0-3_0
  6
CONTINUOUS
 62
   18
 10
3798.5746799972712
 20
1165.7622638410667
 11
3798.5746799972712
 21
1152.7622638410667
  0
LINE
  8
_0-3_0
  6
CONTINUOUS
 62
   18
 10
3798.5746799972712
 20
1152.7622638410667
 11
3796.5746799972717
 21
1150.7622638410667
  0
LINE
  8
_0-3_0
  6
CONTINUOUS
 62
   18
 10
3796.5746799972717
 20
1150.7622638410667
 11
1830.5746799972708
 21
1150.7622638410667
  0
ARC
  8
_0-3_0
  6
CONTINUOUS
 62
   18
 10
1818.574679997271
 20
1165.7622638410667
 40
10
 50
0
 51
90
  0
LINE
  8
_0-3_0
  6
CONTINUOUS
 62
   18
 10
1828.574679997271
 20
1165.7622638410667
 11
1828.574679997271
 21
1152.7622638410667
  0
LINE
  8
_0-3_0
  6
CONTINUOUS
 62
   18
 10
1828.574679997271
 20
1152.7622638410667
 11
1830.5746799972708
 21
1150.7622638410667
  0
LINE
  8
_0-3_0
  6
CONTINUOUS
 62
   18
 10
1544.1414771048328
 20
1564.035771656748
 11
1544.1414771048328
 21
1567.0357716567478
  0
LINE
  8
_0-3_0
  6
CONTINUOUS
 62
   18
 10
1544.1414771048328
 20
1567.0357716567478
 11
1563.1414771085288
 21
1567.0357716567478
  0
ARC
  8
_0-3_0
  6
CONTINUOUS
 62
   18
 10
1563.1414771085288
 20
1561.0357716567478
 40
6.0000000000000009
 50
0
 51
90
  0
LINE
  8
_0-3_0
  6
CONTINUOUS
 62
   18
 10
1569.141477108529
 20
1561.0357716567478
 11
1569.141477108529
 21
1403.0357716567478
  0
LINE
  8
_0-3_0
  6
CONTINUOUS
 62
   18
 10
1563.1414771085288
 20
1397.0357716567478
 11
1544.1414771048328
 21
1397.0357716567478
  0
ARC
  8
_0-3_0
  6
CONTINUOUS
 62
   18
 10
1563.1414771085288
 20
1403.0357716567478
 40
6.0000000000000009
 50
270
 51
0
  0
LINE
  8
_0-3_0
  6
CONTINUOUS
 62
   18
 10
1544.1414771048328
 20
1397.0357716567478
 11
1544.1414771048328
 21
1400.0357716567478
  0
LINE
  8
_0-3_0
  6
CONTINUOUS
 62
   18
 10
1544.1414771048328
 20
1400.0357716567478
 11
1563.1414771048328
 21
1400.0357716567478
  0
LINE
  8
_0-3_0
  6
CONTINUOUS
 62
   18
 10
1566.1414771048328
 20
1403.0357716567478
 11
1566.1414771048328
 21
1561.0357716567405
  0
ARC
  8
_0-3_0
  6
CONTINUOUS
 62
   18
 10
1563.1414771048328
 20
1403.0357716567478
 40
3.0000000000000004
 50
270
 51
0
  0
LINE
  8
_0-3_0
  6
CONTINUOUS
 62
   18
 10
1544.1414771048328
 20
1564.0357716567405
 11
1563.1414771048328
 21
1564.0357716567405
  0
ARC
  8
_0-3_0
  6
CONTINUOUS
 62
   18
 10
1563.1414771048328
 20
1561.0357716567405
 40
3.0000000000000004
 50
0
 51
90
  0
LINE
  8
_0-4_05_CENTER
  6
CENTER2
 62
    4
 10
1559.9123864236351
 20
1542.5357716567432
 11
1575.3619540167599
 21
1542.5357716567432
  0
LINE
  8
_0-4_05_CENTER
  6
CENTER2
 62
    4
 10
1559.9123864236351
 20
1547.0357566567473
 11
1575.3619540167599
 21
1547.0357566567473
  0
LINE
  8
_0-4_05_CENTER
  6
CENTER2
 62
    4
 10
1559.9123864236351
 20
1417.0357716567469
 11
1575.3619540167599
 21
1417.0357716567469
  0
LINE
  8
_0-4_05_CENTER
  6
CENTER2
 62
    4
 10
1559.9123864236351
 20
1421.5357716567432
 11
1575.3619540167599
 21
1421.5357716567432
  0
LINE
  8
_0-3_0
  6
CONTINUOUS
 62
   18
 10
1519.1414771048328
 20
1564.035771656748
 11
1519.1414771048328
 21
1567.0357716567478
  0
LINE
  8
_0-3_0
  6
CONTINUOUS
 62
   18
 10
1519.1414771048328
 20
1567.0357716567487
 11
1543.2982448131695
 21
1567.0357716567478
  0
LINE
  8
_0-3_0
  6
CONTINUOUS
 62
   18
 10
1519.1414771048328
 20
1564.0357716567414
 11
1543.2982448131695
 21
1564.0357716567405
  0
LINE
  8
_0-3_0
  6
CONTINUOUS
 62
   18
 10
1519.1414771048328
 20
1400.0357716567405
 11
1519.1414771048328
 21
1397.0357716567405
  0
LINE
  8
_0-3_0
  6
CONTINUOUS
 62
   18
 10
1519.1414771048328
 20
1397.0357716567396
 11
1543.2982448131695
 21
1397.0357716567405
  0
LINE
  8
_0-3_0
  6
CONTINUOUS
 62
   18
 10
1519.1414771048328
 20
1400.0357716567469
 11
1543.2982448131695
 21
1400.0357716567478
  0
INSERT
  2
-000-p1ba02
  8
_0-2_08_DIM
 10
1727.9747576531806
 20
2666.240138885154
 41
4
 42
4
 50
0
  0
INSERT
  2
-001-p1ba01
  8
_0-2_08_DIM
 10
1799.5746799938731
 20
2714.4993056610729
 41
4
 42
4
 50
90
  0
INSERT
  2
-000-p1ba02
  8
_0-2_08_DIM
 10
1673.8121854608289
 20
2671.2401388856597
 41
4
 42
4
 50
0
  0
INSERT
  2
-001-p1ba01
  8
_0-2_08_DIM
 10
1757.5746799938731
 20
2763.9769075039649
 41
4
 42
4
 50
90
  0
INSERT
  2
-001-p1ba01
  8
_0-2_08_DIM
 10
1853.5746800012291
 20
2576.0971434910889
 41
-4
 42
4
 50
90
  0
CIRCLE
  8
_0-3_0
  6
CONTINUOUS
 62
   18
 10
1584.5267330345448
 20
2651.2401388857324
 40
30
  0
CIRCLE
  8
_0-3_0
  6
CONTINUOUS
 62
   18
 10
1584.5267330345448
 20
2651.2401388857324
 40
20
  0
CIRCLE
  8
_0-6_01_NORMAL
  6
CONTINUOUS
 62
   18
 10
1584.5267330345448
 20
2651.2401388857324
 40
15
  0
LINE
  8
_0-4_05_CENTER
  6
CENTER2
 62
    4
 10
1618.9909364217272
 20
2651.2401388851545
 11
1550.0625296473625
 21
2651.2401388851545
  0
LINE
  8
_0-4_05_CENTER
  6
CENTER2
 62
    4
 10
1584.5267330313288
 20
2616.7759354985506
 11
1584.5267330313288
 21
2685.7043422729148
  0
LINE
  8
_0-2_08_DIM
  6
CONTINUOUS
 62
    3
 10
1430.1157765307908
 20
2815.1164723553338
 11
1628.7496237339526
 21
2815.1164723553338
  0
INSERT
  2
-002-p1ba05
  8
_0-2_08_DIM
 10
1470.5952516108298
 20
2820.5868290560547
 41
6
 42
6
 50
0
  0
INSERT
  2
-001-p1ba01
  8
_0-2_08_DIM
 10
1521.799026314289
 20
2819.8853450079732
 41
6
 42
6
 50
0
  0
INSERT
  2
-000-p1ba02
  8
_0-2_08_DIM
 10
1562.6883669989982
 20
2819.86321482519
 41
6
 42
6
 50
0
  0
TEXT
  8
_0-7_07_TEXT
 62
    3
 10
1490.1402076887223
 20
2819.4338736754498
 40
18.000000000000004
 41
1
 50
0
  1
(      )
  0
INSERT
  2
-000-p1ba02
  8
_0-2_08_DIM
 10
3909.3851449684712
 20
2666.240138885154
 41
-4
 42
4
 50
0
  0
INSERT
  2
-001-p1ba01
  8
_0-2_08_DIM
 10
3827.5746799991271
 20
2718.1532501757847
 41
-4
 42
4
 50
270
  0
INSERT
  2
-000-p1ba02
  8
_0-2_08_DIM
 10
3960.1722835748205
 20
2671.2401388856597
 41
-4
 42
4
 50
0
  0
INSERT
  2
-001-p1ba01
  8
_0-2_08_DIM
 10
3869.5746799991266
 20
2763.9769075039649
 41
-4
 42
4
 50
270
  0
INSERT
  2
-001-p1ba01
  8
_0-2_08_DIM
 10
3773.5746799917633
 20
2583.2548751544264
 41
4
 42
4
 50
270
  0
LINE
  8
_0-4_05_CENTER
  6
CENTER2
 62
    4
 10
1825.5746799920396
 20
1417.0357716517165
 11
3801.5746800025026
 21
1417.0357716517165
  0
LINE
  8
_0-4_05_CENTER
  6
CENTER2
 62
    4
 10
3801.5746800025026
 20
1417.0357716517165
 11
3801.5746800025026
 21
1547.0357716517437
  0
LINE
  8
_0-4_05_CENTER
  6
CENTER2
 62
    4
 10
3801.5746800025026
 20
1547.0357716517437
 11
1825.5746799920396
 21
1547.0357716517437
  0
LINE
  8
_0-4_05_CENTER
  6
CENTER2
 62
    4
 10
1825.5746799920396
 20
1547.0357716517437
 11
1825.5746799920396
 21
1417.0357716517165
  0
LINE
  8
_0-4_05_CENTER
  6
CENTER2
 62
    4
 10
3843.5746800025058
 20
1542.5357716517465
 11
1783.5746799920396
 21
1542.5357716517465
  0
LINE
  8
_0-4_05_CENTER
  6
CENTER2
 62
    4
 10
1783.5746799920396
 20
1542.5357716517465
 11
1783.5746799920396
 21
1421.5357716517474
  0
LINE
  8
_0-4_05_CENTER
  6
CENTER2
 62
    4
 10
1783.5746799920396
 20
1421.5357716517474
 11
3843.5746800025058
 21
1421.5357716517474
  0
LINE
  8
_0-4_05_CENTER
  6
CENTER2
 62
    4
 10
3843.5746800025058
 20
1421.5357716517474
 11
3843.5746800025058
 21
1542.5357716517465
  0
LINE
  8
_0-4_05_CENTER
  6
CENTER2
 62
    4
 10
1865.574679992025
 20
1547.0357716517301
 11
1865.5746799920398
 21
1417.0357716517165
  0
LINE
  8
_0-4_05_CENTER
  6
CENTER2
 62
    4
 10
3761.5746800087454
 20
1547.0357716517301
 11
3761.5746800087313
 21
1417.0357716517165
  0
TEXT
  8
_0-2_08_DIM
 62
    3
 10
2129.9313795228536
 20
1461.3079966683631
 40
12.000000000000002
 41
1
 50
0
  1
(ヌキ穴)
  0
TEXT
  8
_0-2_08_DIM
 62
    3
 10
2862.7539775774362
 20
1461.3079966683631
 40
12.000000000000002
 41
1
 50
0
  1
(ヌキ穴)
  0
TEXT
  8
_0-2_08_DIM
 62
    3
 10
3495.3438301583392
 20
1461.3079966683631
 40
12.000000000000002
 41
1
 50
0
  1
(ヌキ穴)
  0
LINE
  8
_0-2_08_DIM
  6
CONTINUOUS
 62
    3
 10
1430.1157765307908
 20
1840.1114657311825
 11
1525.6184930847628
 21
1840.1114657311825
  0
INSERT
  2
-002-p1ba05
  8
_0-2_08_DIM
 10
1483.6700095845606
 20
1845.5818224319037
 41
6
 42
6
 50
0
  0
LINE
  8
_0-4_05_CENTER
  6
CENTER2
 62
    4
 10
1865.5746799920398
 20
1797.7464064394514
 11
1865.5746799920398
 21
1782.2968388463305
  0
LINE
  8
_0-4_05_CENTER
  6
CENTER2
 62
    4
 10
1825.5746799920396
 20
1797.7464064394514
 11
1825.5746799920396
 21
1782.2968388463305
  0
LINE
  8
_0-4_05_CENTER
  6
CENTER2
 62
    4
 10
1783.5746799920396
 20
1797.7464064394514
 11
1783.5746799920396
 21
1782.2968388463305
  0
LINE
  8
_0-5_04_HIDDEN
  6
CONTINUOUS
 62
    7
 10
3868.5746799972712
 20
1791.5173157545596
 11
1758.574679997271
 21
1791.5173157545596
  0
LINE
  8
_0-4_05_CENTER
  6
CENTER2
 62
    4
 10
3761.5746800014986
 20
1797.7464064394537
 11
3761.5746800014986
 21
1782.2968388463323
  0
LINE
  8
_0-4_05_CENTER
  6
CENTER2
 62
    4
 10
3801.5746800014986
 20
1797.7464064394537
 11
3801.5746800014986
 21
1782.2968388463323
  0
LINE
  8
_0-4_05_CENTER
  6
CENTER2
 62
    4
 10
3843.5746800014981
 20
1797.7464064394537
 11
3843.5746800014981
 21
1782.2968388463323
  0
LINE
  8
_0-4_05_CENTER
  6
CENTER2
 62
    4
 10
2813.5746799972712
 20
1860.1077463708443
 11
2813.5746799972712
 21
1767.6668691775794
  0
LINE
  8
_0-3_0
  6
CONTINUOUS
 62
   18
 10
1758.574679997271
 20
1788.5173157545594
 11
3868.5746799972712
 21
1788.5173157545594
  0
LINE
  8
_0-3_0
  6
CONTINUOUS
 62
   18
 10
3868.5746799972712
 20
1788.5173157545594
 11
3868.5746799972712
 21
1811.5173157545598
  0
LINE
  8
_0-3_0
  6
CONTINUOUS
 62
   18
 10
3868.5746799972712
 20
1811.5173157545598
 11
3866.5746799972712
 21
1813.5173157545598
  0
LINE
  8
_0-3_0
  6
CONTINUOUS
 62
   18
 10
3866.5746799972712
 20
1813.5173157545598
 11
3808.5746799972712
 21
1813.5173157545598
  0
ARC
  8
_0-3_0
  6
CONTINUOUS
 62
   18
 10
3808.5746799972712
 20
1823.5173157545598
 40
10
 50
180
 51
270
  0
LINE
  8
_0-3_0
  6
CONTINUOUS
 62
   18
 10
3798.5746799972712
 20
1823.5173157545598
 11
3798.5746799972712
 21
1836.5173157545594
  0
LINE
  8
_0-3_0
  6
CONTINUOUS
 62
   18
 10
3798.5746799972712
 20
1836.5173157545594
 11
3796.5746799972717
 21
1838.5173157545596
  0
LINE
  8
_0-3_0
  6
CONTINUOUS
 62
   18
 10
3796.5746799972717
 20
1838.5173157545596
 11
1830.5746799972708
 21
1838.5173157545596
  0
ARC
  8
_0-3_0
  6
CONTINUOUS
 62
   18
 10
1818.574679997271
 20
1823.5173157545598
 40
10
 50
270
 51
0
  0
LINE
  8
_0-3_0
  6
CONTINUOUS
 62
   18
 10
1828.574679997271
 20
1823.5173157545598
 11
1828.574679997271
 21
1836.5173157545594
  0
LINE
  8
_0-3_0
  6
CONTINUOUS
 62
   18
 10
1828.574679997271
 20
1836.5173157545594
 11
1830.5746799972708
 21
1838.5173157545596
  0
LINE
  8
_0-3_0
  6
CONTINUOUS
 62
   18
 10
1758.574679997271
 20
1788.5173157545594
 11
1758.574679997271
 21
1811.5173157545598
  0
LINE
  8
_0-3_0
  6
CONTINUOUS
 62
   18
 10
1758.574679997271
 20
1811.5173157545598
 11
1760.574679997271
 21
1813.5173157545598
  0
LINE
  8
_0-3_0
  6
CONTINUOUS
 62
   18
 10
1760.574679997271
 20
1813.5173157545598
 11
1818.574679997271
 21
1813.5173157545598
  0
TEXT
  8
_0-0_90_FRAME
 62
    3
 10
3720.7551499446668
 20
985.96221815598528
 40
12.000000000000002
 41
1
 50
0
  1
テンション軸受け台
  0
LINE
  8
_0-6_01_NORMAL
  6
CONTINUOUS
 62
    1
 10
1514.1171072509376
 20
2787.1720802884543
 11
4113.0322527498538
 21
2476.0124776003668
  0
LINE
  8
_0-6_01_NORMAL
  6
CONTINUOUS
 62
    1
 10
1514.1171072509374
 20
2776.8199402276391
 11
4113.0322527498538
 21
2465.6603375395516
  0
LINE
  8
_0-6_01_NORMAL
  6
CONTINUOUS
 62
    1
 10
4113.0322527498538
 20
2787.1720802884543
 11
1514.1171072509376
 21
2476.0124776003668
  0
LINE
  8
_0-6_01_NORMAL
  6
CONTINUOUS
 62
    1
 10
4113.0322527498547
 20
2776.8199402276391
 11
1514.1171072509383
 21
2465.6603375395516
  0
LINE
  8
_0-3_0
  6
CONTINUOUS
 62
   18
 10
1817.5746800016966
 20
2287.4251992252384
 11
3809.5746799990247
 21
2287.4251992230174
  0
LINE
  8
_0-3_0
  6
CONTINUOUS
 62
   18
 10
3809.5746799990247
 20
2227.4251992230179
 11
1817.5746800015629
 21
2227.4251992252384
  0
LINE
  8
_0-3_0
  6
CONTINUOUS
 62
   18
 10
1802.5746800015968
 20
2242.4251992260383
 11
1758.5746799937713
 21
2242.4251992261352
  0
LINE
  8
_0-3_0
  6
CONTINUOUS
 62
   18
 10
1758.5746799937713
 20
2242.4251992261352
 11
1757.5746799937713
 21
2243.4251992261356
  0
LINE
  8
_0-3_0
  6
CONTINUOUS
 62
   18
 10
1757.5746799937713
 20
2243.4251992261356
 11
1757.5746799937713
 21
2271.4251992261352
  0
LINE
  8
_0-3_0
  6
CONTINUOUS
 62
   18
 10
1757.5746799937713
 20
2271.4251992261352
 11
1758.5746799937713
 21
2272.4251992261356
  0
LINE
  8
_0-3_0
  6
CONTINUOUS
 62
   18
 10
1758.5746799937713
 20
2272.4251992261356
 11
1802.574680001663
 21
2272.4251992283903
  0
LINE
  8
_0-3_0
  6
CONTINUOUS
 62
   18
 10
1758.5746799937713
 20
2272.4251992261356
 11
1758.5746799937713
 21
2242.4251992261352
  0
LINE
  8
_0-4_05_CENTER
  6
CENTER2
 62
    4
 10
3875.1134143179752
 20
2257.4251992261352
 11
1752.0359456748208
 21
2257.4251992261352
  0
LINE
  8
_0-3_0
  6
CONTINUOUS
 62
   18
 10
3809.5746799990247
 20
2287.4251992230174
 11
3824.5746799990247
 21
2272.4251992261356
  0
LINE
  8
_0-3_0
  6
CONTINUOUS
 62
   18
 10
3824.5746799990247
 20
2272.4251992261356
 11
3824.5746799990247
 21
2242.4251992261352
  0
LINE
  8
_0-3_0
  6
CONTINUOUS
 62
   18
 10
3824.5746799990247
 20
2242.4251992261352
 11
3809.5746799990247
 21
2227.4251992230179
  0
LINE
  8
_0-3_0
  6
CONTINUOUS
 62
   18
 10
3824.5746799990247
 20
2242.4251992261352
 11
3868.5746799990252
 21
2242.4251992261352
  0
LINE
  8
_0-3_0
  6
CONTINUOUS
 62
   18
 10
3868.5746799990252
 20
2242.4251992261352
 11
3869.5746799990252
 21
2243.4251992261356
  0
LINE
  8
_0-3_0
  6
CONTINUOUS
 62
   18
 10
3869.5746799990252
 20
2243.4251992261356
 11
3869.5746799990252
 21
2271.4251992261352
  0
LINE
  8
_0-3_0
  6
CONTINUOUS
 62
   18
 10
3869.5746799990252
 20
2271.4251992261352
 11
3868.5746799990252
 21
2272.4251992261356
  0
LINE
  8
_0-3_0
  6
CONTINUOUS
 62
   18
 10
3868.5746799990252
 20
2272.4251992261356
 11
3824.5746799990247
 21
2272.4251992261356
  0
LINE
  8
_0-3_0
  6
CONTINUOUS
 62
   18
 10
3868.5746799990252
 20
2272.4251992261356
 11
3868.5746799990252
 21
2242.4251992261352
  0
LINE
  8
_0-4_05_CENTER
  6
CENTER2
 62
    4
 10
2813.5746800003781
 20
2303.1058654241497
 11
2813.5746800002762
 21
2211.7445330281207
  0
INSERT
  2
-000-p1ba02
  8
_0-2_08_DIM
 10
1727.9747576530788
 20
2272.4251992261356
 41
4
 42
4
 50
0
  0
INSERT
  2
-001-p1ba01
  8
_0-2_08_DIM
 10
1817.5746800016966
 20
2320.4695762225856
 41
4
 42
4
 50
90
  0
INSERT
  2
-001-p1ba01
  8
_0-2_08_DIM
 10
1757.5746799937713
 20
2370.1619678449465
 41
4
 42
4
 50
90
  0
CIRCLE
  8
_0-3_0
  6
CONTINUOUS
 62
   18
 10
1634.5267330344429
 20
2257.4251992267141
 40
30
  0
CIRCLE
  8
_0-3_0
  6
CONTINUOUS
 62
   18
 10
1634.5267330344429
 20
2257.4251992267141
 40
13.999999999421563
  0
CIRCLE
  8
_0-6_01_NORMAL
  6
CONTINUOUS
 62
   18
 10
1634.5267330344429
 20
2257.4251992267141
 40
15
  0
LINE
  8
_0-4_05_CENTER
  6
CENTER2
 62
    4
 10
1668.9909364216253
 20
2257.4251992261352
 11
1600.0625296472606
 21
2257.4251992261352
  0
LINE
  8
_0-4_05_CENTER
  6
CENTER2
 62
    4
 10
1634.5267330312267
 20
2222.9609958395313
 11
1634.5267330312267
 21
2291.889402613896
  0
INSERT
  2
-000-p1ba02
  8
_0-2_08_DIM
 10
3909.3851449683698
 20
2272.4251992261356
 41
-4
 42
4
 50
0
  0
INSERT
  2
-001-p1ba01
  8
_0-2_08_DIM
 10
3809.5746799990247
 20
2324.3383105167663
 41
-4
 42
4
 50
270
  0
INSERT
  2
-001-p1ba01
  8
_0-2_08_DIM
 10
3869.5746799990252
 20
2370.1619678449465
 41
-4
 42
4
 50
270
  0
LINE
  8
_0-3_0
  6
CONTINUOUS
 62
   18
 10
3809.5746799990247
 20
2287.4251992230174
 11
3809.5746799990247
 21
2227.4251992230179
  0
LINE
  8
_0-3_0
  6
CONTINUOUS
 62
   18
 10
1817.5746800016966
 20
2287.4251992252384
 11
1802.574680001663
 21
2272.4251992283903
  0
LINE
  8
_0-3_0
  6
CONTINUOUS
 62
   18
 10
1802.574680001663
 20
2272.4251992283903
 11
1802.5746800015968
 21
2242.4251992283903
  0
LINE
  8
_0-3_0
  6
CONTINUOUS
 62
   18
 10
1802.5746800015968
 20
2242.4251992283903
 11
1817.5746800015629
 21
2227.4251992252384
  0
LINE
  8
_0-3_0
  6
CONTINUOUS
 62
   18
 10
1817.5746800016966
 20
2287.4251992252384
 11
1817.5746800015629
 21
2227.4251992252384
  0
ARC
  8
_0-8_02_SLIM
  6
CONTINUOUS
 62
    1
 10
2070.7920061183272
 20
2178.2028886127187
 40
14.283520171757251
 50
316.31473545011949
 51
66.314735350628638
  0
ARC
  8
_0-8_02_SLIM
  6
CONTINUOUS
 62
    1
 10
2071.3781916439452
 20
2165.2804659673029
 40
10.211159651018521
 50
267.41936240531982
 51
17.419362305830237
  0
ARC
  8
_0-8_02_SLIM
  6
CONTINUOUS
 62
    1
 10
2062.7313785414426
 20
2152.0732903143244
 40
8.721587288268525
 50
270.16376787124091
 51
20.163767771750425
  0
ARC
  8
_0-8_02_SLIM
  6
CONTINUOUS
 62
    1
 10
2044.3411899826676
 20
2146.3672671971958
 40
18.660384748834119
 50
240.70018968739868
 51
350.70018958790854
  0
ARC
  8
_0-8_02_SLIM
  6
CONTINUOUS
 62
    1
 10
2029.1893117935622
 20
2138.8687268003582
 40
10.641103007753003
 50
194.45218972671748
 51
304.45218962722754
  0
ARC
  8
_0-8_02_SLIM
  6
CONTINUOUS
 62
    1
 10
2014.8542371071055
 20
2148.9142042913454
 40
13.325425998577034
 50
177.60671544136244
 51
287.60671534187185
  0
ARC
  8
_0-8_02_SLIM
  6
CONTINUOUS
 62
    1
 10
2013.4248255355869
 20
2166.9861793046548
 40
21.16677470671209
 50
125.84286671384129
 51
235.84286661435144
  0
ARC
  8
_0-8_02_SLIM
  6
CONTINUOUS
 62
    1
 10
2017.4295899833874
 20
2195.0790658684286
 40
19.710416471537233
 50
103.69418283122654
 51
213.69418273173622
  0
ARC
  8
_0-8_02_SLIM
  6
CONTINUOUS
 62
    1
 10
2026.0512241191275
 20
2221.2630573715592
 40
15.034723535675804
 50
97.894327570618785
 51
207.89432747112906
  0
ARC
  8
_0-8_02_SLIM
  6
CONTINUOUS
 62
    1
 10
2032.5308492466206
 20
2232.0720912107918
 40
9.4700908359603506
 50
44.458249402738929
 51
154.4582493032479
  0
ARC
  8
_0-8_02_SLIM
  6
CONTINUOUS
 62
    1
 10
2048.1921120228176
 20
2231.3318090663638
 40
11.558767370691905
 50
30.366556899528643
 51
140.36655680003807
  0
ARC
  8
_0-8_02_SLIM
  6
CONTINUOUS
 62
    1
 10
2059.8999677290203
 20
2229.8810552815967
 40
7.4975337952496428
 50
353.3788745346634
 51
103.37887443517383
  0
ARC
  8
_0-8_02_SLIM
  6
CONTINUOUS
 62
    1
 10
2058.7281078576489
 20
2206.9351224703969
 40
23.70409046533139
 50
318.67704489970004
 51
68.677044800209814
  0
LINE
  8
_0-2_08_DIM
  6
CONTINUOUS
 62
    3
 10
1758.574679997271
 20
1175.2622638410667
 11
1758.574679997271
 21
1091.1802102896272
  0
LINE
  8
_0-2_08_DIM
  6
CONTINUOUS
 62
    3
 10
1828.574679997271
 20
1150.2622638410667
 11
1828.574679997271
 21
1091.1802102896272
  0
LINE
  8
_0-2_08_DIM
  6
CONTINUOUS
 62
    3
 10
1768.5746799972712
 20
1096.1802102896272
 11
1818.574679997271
 21
1096.1802102896272
  0
INSERT
  2
-003-_Open30
  8
_0-2_08_DIM
 10
1758.574679997271
 20
1096.1802102896272
 41
10
 42
10
 50
180
  0
INSERT
  2
-003-_Open30
  8
_0-2_08_DIM
 10
1828.574679997271
 20
1096.1802102896272
 41
10
 42
10
 50
0
  0
LINE
  8
_0-2_08_DIM
  6
CONTINUOUS
 62
    3
 10
1888.5746800001596
 20
1449.5357796567578
 11
1888.5746800001596
 21
1288.2476824961195
  0
LINE
  8
_0-2_08_DIM
  6
CONTINUOUS
 62
    3
 10
3738.5746799943904
 20
1449.5357796567578
 11
3738.5746799943904
 21
1288.2476824961195
  0
LINE
  8
_0-2_08_DIM
  6
CONTINUOUS
 62
    3
 10
1898.5746800001596
 20
1293.2476824961193
 11
3728.5746799943895
 21
1293.2476824961193
  0
INSERT
  2
-003-_Open30
  8
_0-2_08_DIM
 10
1888.5746800001596
 20
1293.2476824961193
 41
10
 42
10
 50
180
  0
INSERT
  2
-003-_Open30
  8
_0-2_08_DIM
 10
3738.5746799943904
 20
1293.2476824961193
 41
10
 42
10
 50
0
  0
LINE
  8
_0-2_08_DIM
  6
CONTINUOUS
 62
    3
 10
1888.5746800001596
 20
1449.5357796567578
 11
1888.5746800001596
 21
1334.0086120422211
  0
LINE
  8
_0-2_08_DIM
  6
CONTINUOUS
 62
    3
 10
2388.5746800001598
 20
1449.5357796567578
 11
2388.5746800001598
 21
1334.0086120422211
  0
LINE
  8
_0-2_08_DIM
  6
CONTINUOUS
 62
    3
 10
1898.5746800001596
 20
1339.0086120422211
 11
2378.5746800001598
 21
1339.0086120422211
  0
INSERT
  2
-003-_Open30
  8
_0-2_08_DIM
 10
1888.5746800001596
 20
1339.0086120422211
 41
10
 42
10
 50
180
  0
INSERT
  2
-003-_Open30
  8
_0-2_08_DIM
 10
2388.5746800001598
 20
1339.0086120422211
 41
10
 42
10
 50
0
  0
LINE
  8
_0-2_08_DIM
  6
CONTINUOUS
 62
    3
 10
2563.5746799972785
 20
1449.5357796567578
 11
2563.5746799972785
 21
1334.0086120422211
  0
LINE
  8
_0-2_08_DIM
  6
CONTINUOUS
 62
    3
 10
2388.5746800001598
 20
1449.5357796567578
 11
2388.5746800001598
 21
1334.0086120422211
  0
LINE
  8
_0-2_08_DIM
  6
CONTINUOUS
 62
    3
 10
2553.5746799972785
 20
1339.0086120422211
 11
2398.5746800001593
 21
1339.0086120422211
  0
INSERT
  2
-003-_Open30
  8
_0-2_08_DIM
 10
2563.5746799972785
 20
1339.0086120422211
 41
10
 42
10
 50
0
  0
INSERT
  2
-003-_Open30
  8
_0-2_08_DIM
 10
2388.5746800001598
 20
1339.0086120422211
 41
10
 42
10
 50
180
  0
LINE
  8
_0-2_08_DIM
  6
CONTINUOUS
 62
    3
 10
1888.5746800001596
 20
1449.5357796567578
 11
1888.5746800001596
 21
1288.2476824961195
  0
LINE
  8
_0-2_08_DIM
  6
CONTINUOUS
 62
    3
 10
1758.5746800088907
 20
1394.5357716567478
 11
1758.5746800088907
 21
1288.2476824961195
  0
LINE
  8
_0-2_08_DIM
  6
CONTINUOUS
 62
    3
 10
1878.5746800001596
 20
1293.2476824961193
 11
1768.5746800088907
 21
1293.2476824961193
  0
INSERT
  2
-003-_Open30
  8
_0-2_08_DIM
 10
1888.5746800001596
 20
1293.2476824961193
 41
10
 42
10
 50
0
  0
INSERT
  2
-003-_Open30
  8
_0-2_08_DIM
 10
1758.5746800088907
 20
1293.2476824961193
 41
10
 42
10
 50
180
  0
LINE
  8
_0-2_08_DIM
  6
CONTINUOUS
 62
    3
 10
1758.5746800088907
 20
1569.5357716517528
 11
1758.5746800088907
 21
1729.4500223874038
  0
LINE
  8
_0-2_08_DIM
  6
CONTINUOUS
 62
    3
 10
3868.5746799984131
 20
1569.5357716517528
 11
3868.5746799984131
 21
1729.4500223874038
  0
LINE
  8
_0-2_08_DIM
  6
CONTINUOUS
 62
    3
 10
1768.5746800088907
 20
1724.4500223874038
 11
3858.5746799984136
 21
1724.4500223874038
  0
INSERT
  2
-003-_Open30
  8
_0-2_08_DIM
 10
1758.5746800088907
 20
1724.4500223874038
 41
10
 42
10
 50
180
  0
INSERT
  2
-003-_Open30
  8
_0-2_08_DIM
 10
3868.5746799984131
 20
1724.4500223874038
 41
10
 42
10
 50
0
  0
LINE
  8
_0-2_08_DIM
  6
CONTINUOUS
 62
    3
 10
3761.5746800025099
 20
1558.8768224631813
 11
3761.5746800025099
 21
1636.2112863974255
  0
LINE
  8
_0-2_08_DIM
  6
CONTINUOUS
 62
    3
 10
3801.5746800014986
 20
1558.8768224631813
 11
3801.5746800014986
 21
1636.2112863974255
  0
LINE
  8
_0-2_08_DIM
  6
CONTINUOUS
 62
    3
 10
3771.5746800025099
 20
1631.2112863974251
 11
3791.5746800014986
 21
1631.2112863974251
  0
INSERT
  2
-003-_Open30
  8
_0-2_08_DIM
 10
3761.5746800025099
 20
1631.2112863974251
 41
10
 42
10
 50
180
  0
INSERT
  2
-003-_Open30
  8
_0-2_08_DIM
 10
3801.5746800014986
 20
1631.2112863974251
 41
10
 42
10
 50
0
  0
LINE
  8
_0-2_08_DIM
  6
CONTINUOUS
 62
    3
 10
3843.5746800036522
 20
1557.9676863226987
 11
3843.5746800036522
 21
1682.1049620808772
  0
LINE
  8
_0-2_08_DIM
  6
CONTINUOUS
 62
    3
 10
1783.574680003652
 20
1557.9676863226987
 11
1783.574680003652
 21
1682.1049620808772
  0
LINE
  8
_0-2_08_DIM
  6
CONTINUOUS
 62
    3
 10
3833.5746800036522
 20
1677.1049620808772
 11
1793.574680003652
 21
1677.1049620808772
  0
INSERT
  2
-003-_Open30
  8
_0-2_08_DIM
 10
3843.5746800036522
 20
1677.1049620808772
 41
10
 42
10
 50
0
  0
INSERT
  2
-003-_Open30
  8
_0-2_08_DIM
 10
1783.574680003652
 20
1677.1049620808772
 41
10
 42
10
 50
180
  0
LINE
  8
_0-2_08_DIM
  6
CONTINUOUS
 62
    3
 10
3761.5746800025099
 20
1558.8768224631813
 11
3761.5746800025099
 21
1636.2112863974255
  0
LINE
  8
_0-2_08_DIM
  6
CONTINUOUS
 62
    3
 10
1865.5746799920398
 20
1558.8768224631813
 11
1865.5746799920398
 21
1636.2112863974255
  0
LINE
  8
_0-2_08_DIM
  6
CONTINUOUS
 62
    3
 10
3751.5746800025099
 20
1631.2112863974251
 11
1875.5746799920396
 21
1631.2112863974251
  0
INSERT
  2
-003-_Open30
  8
_0-2_08_DIM
 10
3761.5746800025099
 20
1631.2112863974251
 41
10
 42
10
 50
0
  0
INSERT
  2
-003-_Open30
  8
_0-2_08_DIM
 10
1865.5746799920398
 20
1631.2112863974251
 41
10
 42
10
 50
180
  0
LINE
  8
_0-2_08_DIM
  6
CONTINUOUS
 62
    3
 10
1865.5746799920398
 20
1558.8768224631813
 11
1865.5746799920398
 21
1636.2112863974255
  0
LINE
  8
_0-2_08_DIM
  6
CONTINUOUS
 62
    3
 10
1825.5746799920396
 20
1558.8768224631813
 11
1825.5746799920396
 21
1636.2112863974255
  0
LINE
  8
_0-2_08_DIM
  6
CONTINUOUS
 62
    3
 10
1855.5746799920398
 20
1631.2112863974251
 11
1835.5746799920398
 21
1631.2112863974251
  0
INSERT
  2
-003-_Open30
  8
_0-2_08_DIM
 10
1865.5746799920398
 20
1631.2112863974251
 41
10
 42
10
 50
0
  0
INSERT
  2
-003-_Open30
  8
_0-2_08_DIM
 10
1825.5746799920396
 20
1631.2112863974251
 41
10
 42
10
 50
180
  0
LINE
  8
_0-2_08_DIM
  6
CONTINUOUS
 62
    3
 10
1768.1427653327064
 20
1542.5357716517499
 11
1719.6010372735163
 21
1542.5357716517499
  0
LINE
  8
_0-2_08_DIM
  6
CONTINUOUS
 62
    3
 10
1768.1427653327064
 20
1421.5357716517494
 11
1719.6010372735163
 21
1421.5357716517494
  0
LINE
  8
_0-2_08_DIM
  6
CONTINUOUS
 62
    3
 10
1724.6010372735163
 20
1532.5357716517497
 11
1724.6010372735163
 21
1431.5357716517497
  0
INSERT
  2
-003-_Open30
  8
_0-2_08_DIM
 10
1724.6010372735163
 20
1542.5357716517499
 41
10
 42
10
 50
90
  0
INSERT
  2
-003-_Open30
  8
_0-2_08_DIM
 10
1724.6010372735163
 20
1421.5357716517494
 41
10
 42
10
 50
270
  0
LINE
  8
_0-2_08_DIM
  6
CONTINUOUS
 62
    3
 10
1813.7336291806298
 20
1547.0357716517642
 11
1678.0522339609686
 21
1547.0357716517642
  0
LINE
  8
_0-2_08_DIM
  6
CONTINUOUS
 62
    3
 10
1813.7336291806298
 20
1417.0357716567482
 11
1678.0522339609688
 21
1417.0357716567478
  0
LINE
  8
_0-2_08_DIM
  6
CONTINUOUS
 62
    3
 10
1683.0522339609688
 20
1537.0357716517642
 11
1683.0522339609688
 21
1427.0357716567478
  0
INSERT
  2
-003-_Open30
  8
_0-2_08_DIM
 10
1683.0522339609688
 20
1547.0357716517642
 41
10
 42
10
 50
90
  0
INSERT
  2
-003-_Open30
  8
_0-2_08_DIM
 10
1683.0522339609688
 20
1417.0357716567478
 41
10
 42
10
 50
270
  0
LINE
  8
_0-2_08_DIM
  6
CONTINUOUS
 62
    3
 10
1756.0746800088909
 20
1567.0357716517533
 11
1633.9715529202513
 21
1567.0357716517533
  0
LINE
  8
_0-2_08_DIM
  6
CONTINUOUS
 62
    3
 10
1756.0746800088909
 20
1397.0357716517531
 11
1633.9715529202513
 21
1397.0357716517531
  0
LINE
  8
_0-2_08_DIM
  6
CONTINUOUS
 62
    3
 10
1638.9715529202513
 20
1557.0357716517533
 11
1638.9715529202513
 21
1407.0357716517531
  0
INSERT
  2
-003-_Open30
  8
_0-2_08_DIM
 10
1638.9715529202513
 20
1567.0357716517533
 41
10
 42
10
 50
90
  0
INSERT
  2
-003-_Open30
  8
_0-2_08_DIM
 10
1638.9715529202513
 20
1397.0357716517531
 41
10
 42
10
 50
270
  0
LINE
  8
_0-2_08_DIM
  6
CONTINUOUS
 62
    3
 10
2068.8495211050454
 20
1432.0357796517631
 11
2085.5648465365362
 21
1432.0357796517631
  0
LINE
  8
_0-2_08_DIM
  6
CONTINUOUS
 62
    3
 10
2068.8495211050454
 20
1532.0357796517633
 11
2085.5648465365362
 21
1532.0357796517633
  0
LINE
  8
_0-2_08_DIM
  6
CONTINUOUS
 62
    3
 10
2080.5648465365362
 20
1442.0357796517631
 11
2080.5648465365362
 21
1522.0357796517633
  0
INSERT
  2
-003-_Open30
  8
_0-2_08_DIM
 10
2080.5648465365362
 20
1432.0357796517631
 41
10
 42
10
 50
270
  0
INSERT
  2
-003-_Open30
  8
_0-2_08_DIM
 10
2080.5648465365362
 20
1532.0357796517633
 41
10
 42
10
 50
90
  0
LINE
  8
_0-2_08_DIM
  6
CONTINUOUS
 62
    3
 10
1569.141477108529
 20
1563.5357716567478
 11
1569.141477108529
 21
1613.1596767923656
  0
LINE
  8
_0-2_08_DIM
  6
CONTINUOUS
 62
    3
 10
1519.1414771048328
 20
1569.5357716567478
 11
1519.1414771048328
 21
1613.1596767923656
  0
LINE
  8
_0-2_08_DIM
  6
CONTINUOUS
 62
    3
 10
1559.141477108529
 20
1608.1596767923656
 11
1529.1414771048328
 21
1608.1596767923656
  0
INSERT
  2
-003-_Open30
  8
_0-2_08_DIM
 10
1569.141477108529
 20
1608.1596767923656
 41
10
 42
10
 50
0
  0
INSERT
  2
-003-_Open30
  8
_0-2_08_DIM
 10
1519.1414771048328
 20
1608.1596767923656
 41
10
 42
10
 50
180
  0
LINE
  8
_0-2_08_DIM
  6
CONTINUOUS
 62
    3
 10
1516.641477104833
 20
1564.035771656741
 11
1479.8369652589481
 21
1564.035771656741
  0
LINE
  8
_0-2_08_DIM
  6
CONTINUOUS
 62
    3
 10
1516.641477104833
 20
1567.0357716567482
 11
1479.8369652589481
 21
1567.0357716567482
  0
LINE
  8
_0-2_08_DIM
  6
CONTINUOUS
 62
    3
 10
1484.8369652589479
 20
1554.035771656741
 11
1484.8369652589479
 21
1544.035771656741
  0
LINE
  8
_0-2_08_DIM
  6
CONTINUOUS
 62
    3
 10
1484.8369652589479
 20
1577.0357716567485
 11
1484.8369652589479
 21
1600.0357716567482
  0
LINE
  8
_0-2_08_DIM
  6
CONTINUOUS
 62
    3
 10
1484.8369652589479
 20
1564.035771656741
 11
1484.8369652589479
 21
1567.0357716567482
  0
INSERT
  2
-003-_Open30
  8
_0-2_08_DIM
 10
1484.8369652589479
 20
1564.035771656741
 41
10
 42
10
 50
90
  0
INSERT
  2
-003-_Open30
  8
_0-2_08_DIM
 10
1484.8369652589479
 20
1567.0357716567482
 41
10
 42
10
 50
270
  0
LINE
  8
_0-2_08_DIM
  6
CONTINUOUS
 62
    3
 10
1853.5746800012291
 20
2619.740138885154
 11
1853.5746800012291
 21
2554.2766682906304
  0
LINE
  8
_0-2_08_DIM
  6
CONTINUOUS
 62
    3
 10
1799.5746799938731
 20
2629.7401388846488
 11
1799.5746799938731
 21
2554.2766682906304
  0
LINE
  8
_0-2_08_DIM
  6
CONTINUOUS
 62
    3
 10
1843.5746800012291
 20
2559.2766682906304
 11
1809.5746799938731
 21
2559.2766682906304
  0
INSERT
  2
-003-_Open30
  8
_0-2_08_DIM
 10
1853.5746800012291
 20
2559.2766682906304
 41
10
 42
10
 50
0
  0
INSERT
  2
-003-_Open30
  8
_0-2_08_DIM
 10
1799.5746799938731
 20
2559.2766682906304
 41
10
 42
10
 50
180
  0
LINE
  8
_0-2_08_DIM
  6
CONTINUOUS
 62
    3
 10
1799.5746799938731
 20
2672.7401388856597
 11
1799.5746799938731
 21
2744.8288928789516
  0
LINE
  8
_0-2_08_DIM
  6
CONTINUOUS
 62
    3
 10
1757.5746799938731
 20
2667.740138885154
 11
1757.5746799938731
 21
2744.8288928789516
  0
LINE
  8
_0-2_08_DIM
  6
CONTINUOUS
 62
    3
 10
1789.5746799938731
 20
2739.828892878952
 11
1767.5746799938731
 21
2739.828892878952
  0
INSERT
  2
-003-_Open30
  8
_0-2_08_DIM
 10
1799.5746799938731
 20
2739.828892878952
 41
10
 42
10
 50
0
  0
INSERT
  2
-003-_Open30
  8
_0-2_08_DIM
 10
1757.5746799938731
 20
2739.828892878952
 41
10
 42
10
 50
180
  0
LINE
  8
_0-2_08_DIM
  6
CONTINUOUS
 62
    3
 10
1757.5746799938731
 20
2634.7401388851545
 11
1757.5746799938731
 21
2521.2103072666155
  0
LINE
  8
_0-2_08_DIM
  6
CONTINUOUS
 62
    3
 10
1853.5746800012291
 20
2619.740138885154
 11
1853.5746800012291
 21
2521.2103072666155
  0
LINE
  8
_0-2_08_DIM
  6
CONTINUOUS
 62
    3
 10
1767.5746799938731
 20
2526.210307266615
 11
1843.5746800012291
 21
2526.210307266615
  0
INSERT
  2
-003-_Open30
  8
_0-2_08_DIM
 10
1757.5746799938731
 20
2526.210307266615
 41
10
 42
10
 50
180
  0
INSERT
  2
-003-_Open30
  8
_0-2_08_DIM
 10
1853.5746800012291
 20
2526.210307266615
 41
10
 42
10
 50
0
  0
LINE
  8
_0-2_08_DIM
  6
CONTINUOUS
 62
    3
 10
1757.5746799938731
 20
2667.740138885154
 11
1757.5746799938731
 21
2784.5583519714628
  0
LINE
  8
_0-2_08_DIM
  6
CONTINUOUS
 62
    3
 10
3869.5746799991266
 20
2667.740138885154
 11
3869.5746799991266
 21
2784.5583519714628
  0
LINE
  8
_0-2_08_DIM
  6
CONTINUOUS
 62
    3
 10
1767.5746799938731
 20
2779.5583519714628
 11
3859.5746799991266
 21
2779.5583519714628
  0
INSERT
  2
-003-_Open30
  8
_0-2_08_DIM
 10
1757.5746799938731
 20
2779.5583519714628
 41
10
 42
10
 50
180
  0
INSERT
  2
-003-_Open30
  8
_0-2_08_DIM
 10
3869.5746799991266
 20
2779.5583519714628
 41
10
 42
10
 50
0
  0
LINE
  8
_0-2_08_DIM
  6
CONTINUOUS
 62
    3
 10
1853.5746800012291
 20
2619.740138885154
 11
1853.5746800012291
 21
2521.2103072666155
  0
LINE
  8
_0-2_08_DIM
  6
CONTINUOUS
 62
    3
 10
3773.5746799917633
 20
2619.7401388882718
 11
3773.5746799917633
 21
2521.2103072666155
  0
LINE
  8
_0-2_08_DIM
  6
CONTINUOUS
 62
    3
 10
1863.5746800012294
 20
2526.210307266615
 11
3763.5746799917633
 21
2526.210307266615
  0
INSERT
  2
-003-_Open30
  8
_0-2_08_DIM
 10
1853.5746800012291
 20
2526.210307266615
 41
10
 42
10
 50
180
  0
INSERT
  2
-003-_Open30
  8
_0-2_08_DIM
 10
3773.5746799917633
 20
2526.210307266615
 41
10
 42
10
 50
0
  0
LINE
  8
_0-2_08_DIM
  6
CONTINUOUS
 62
    3
 10
1756.0746799938734
 20
2636.2401388851554
 11
1707.9520827955348
 21
2636.2401388851554
  0
LINE
  8
_0-2_08_DIM
  6
CONTINUOUS
 62
    3
 10
1756.0746799938734
 20
2666.2401388851549
 11
1707.9520827955348
 21
2666.2401388851549
  0
LINE
  8
_0-2_08_DIM
  6
CONTINUOUS
 62
    3
 10
1712.9520827955348
 20
2646.2401388851554
 11
1712.9520827955348
 21
2656.2401388851545
  0
LINE
  8
_0-2_08_DIM
  6
CONTINUOUS
 62
    3
 10
1712.9520827955348
 20
2666.2401388851549
 11
1712.9520827955348
 21
2735.2401388851549
  0
INSERT
  2
-003-_Open30
  8
_0-2_08_DIM
 10
1712.9520827955348
 20
2636.2401388851554
 41
10
 42
10
 50
270
  0
INSERT
  2
-003-_Open30
  8
_0-2_08_DIM
 10
1712.9520827955348
 20
2666.2401388851549
 41
10
 42
10
 50
90
  0
LINE
  8
_0-2_08_DIM
  6
CONTINUOUS
 62
    3
 10
1798.0746799938736
 20
2631.2401388856611
 11
1655.4347675527006
 21
2631.2401388856611
  0
LINE
  8
_0-2_08_DIM
  6
CONTINUOUS
 62
    3
 10
1798.0746799938736
 20
2671.2401388856606
 11
1655.4347675527006
 21
2671.2401388856606
  0
LINE
  8
_0-2_08_DIM
  6
CONTINUOUS
 62
    3
 10
1660.4347675527006
 20
2641.2401388856611
 11
1660.4347675527006
 21
2661.2401388856606
  0
LINE
  8
_0-2_08_DIM
  6
CONTINUOUS
 62
    3
 10
1660.4347675527006
 20
2671.2401388856606
 11
1660.4347675527006
 21
2740.2401388856606
  0
INSERT
  2
-003-_Open30
  8
_0-2_08_DIM
 10
1660.4347675527006
 20
2631.2401388856611
 41
10
 42
10
 50
270
  0
INSERT
  2
-003-_Open30
  8
_0-2_08_DIM
 10
1660.4347675527006
 20
2671.2401388856606
 41
10
 42
10
 50
90
  0
LINE
  8
_0-2_08_DIM
  6
CONTINUOUS
 62
    3
 10
2031.404698826329
 20
2681.2401388851554
 11
2046.1086337042345
 21
2681.2401388851554
  0
LINE
  8
_0-2_08_DIM
  6
CONTINUOUS
 62
    3
 10
2031.404698826329
 20
2621.2401388851549
 11
2046.1086337042345
 21
2621.2401388851549
  0
LINE
  8
_0-2_08_DIM
  6
CONTINUOUS
 62
    3
 10
2041.1086337042345
 20
2671.2401388851549
 11
2041.1086337042345
 21
2631.2401388851549
  0
LINE
  8
_0-2_08_DIM
  6
CONTINUOUS
 62
    3
 10
2041.1086337042345
 20
2621.2401388851549
 11
2041.1086337042345
 21
2551.0401388851546
  0
INSERT
  2
-003-_Open30
  8
_0-2_08_DIM
 10
2041.1086337042345
 20
2681.2401388851554
 41
10
 42
10
 50
90
  0
INSERT
  2
-003-_Open30
  8
_0-2_08_DIM
 10
2041.1086337042345
 20
2621.2401388851549
 41
10
 42
10
 50
270
  0
LINE
  8
_0-2_08_DIM
  6
CONTINUOUS
 62
    3
 10
1751.0036121820076
 20
2629.6690710732892
 11
1720.9798620058225
 21
2599.6453208971038
  0
INSERT
  2
-003-_Open30
  8
_0-2_08_DIM
 10
1758.0746799938731
 20
2636.740138885154
 41
10
 42
10
 50
44.999999999999794
  0
LINE
  8
_0-2_08_DIM
  6
CONTINUOUS
 62
    3
 10
1793.0036121820081
 20
2624.6690710737939
 11
1762.9798620058227
 21
2594.6453208976095
  0
INSERT
  2
-003-_Open30
  8
_0-2_08_DIM
 10
1800.0746799938734
 20
2631.7401388856597
 41
10
 42
10
 50
44.999999999999794
  0
LINE
  8
_0-2_08_DIM
  6
CONTINUOUS
 62
    3
 10
1847.0036121893638
 20
2614.6690710732878
 11
1816.9798620131789
 21
2584.6453208971038
  0
INSERT
  2
-003-_Open30
  8
_0-2_08_DIM
 10
1854.0746800012294
 20
2621.7401388851536
 41
10
 42
10
 50
44.999999999999794
  0
LINE
  8
_0-2_08_DIM
  6
CONTINUOUS
 62
    3
 10
1799.5746799938731
 20
2672.7401388856597
 11
1799.5746799938731
 21
2744.8288928789516
  0
LINE
  8
_0-2_08_DIM
  6
CONTINUOUS
 62
    3
 10
3827.5746799991271
 20
2672.7401388856597
 11
3827.5746799991271
 21
2744.8288928789516
  0
LINE
  8
_0-2_08_DIM
  6
CONTINUOUS
 62
    3
 10
1809.5746799938731
 20
2739.828892878952
 11
3817.5746799991261
 21
2739.828892878952
  0
INSERT
  2
-003-_Open30
  8
_0-2_08_DIM
 10
1799.5746799938731
 20
2739.828892878952
 41
10
 42
10
 50
180
  0
INSERT
  2
-003-_Open30
  8
_0-2_08_DIM
 10
3827.5746799991271
 20
2739.828892878952
 41
10
 42
10
 50
0
  0
INSERT
  2
-004-AM_BALLOON1
  8
_0-2_08_DIM
 10
1405.0806251611218
 20
2815.1486828745165
 41
5
 42
5
 50
0
  0
TEXT
  8
_0-3_0
 62
    7
 10
1382.2234823039789
 20
2807.6486828745165
 40
15
 41
1
 50
0
  1
114
  0
LINE
  8
_0-2_08_DIM
  6
CONTINUOUS
 62
    3
 10
3773.5746799917633
 20
2619.740138885154
 11
3773.5746799917633
 21
2554.2766682906304
  0
LINE
  8
_0-2_08_DIM
  6
CONTINUOUS
 62
    3
 10
3827.5746799991271
 20
2629.7401388846488
 11
3827.5746799991271
 21
2554.2766682906304
  0
LINE
  8
_0-2_08_DIM
  6
CONTINUOUS
 62
    3
 10
3783.5746799917633
 20
2559.2766682906304
 11
3817.5746799991261
 21
2559.2766682906304
  0
INSERT
  2
-003-_Open30
  8
_0-2_08_DIM
 10
3773.5746799917633
 20
2559.2766682906304
 41
10
 42
10
 50
180
  0
INSERT
  2
-003-_Open30
  8
_0-2_08_DIM
 10
3827.5746799991271
 20
2559.2766682906304
 41
10
 42
10
 50
0
  0
LINE
  8
_0-2_08_DIM
  6
CONTINUOUS
 62
    3
 10
3827.5746799991271
 20
2672.7401388856597
 11
3827.5746799991271
 21
2744.8288928789516
  0
LINE
  8
_0-2_08_DIM
  6
CONTINUOUS
 62
    3
 10
3869.5746799991266
 20
2667.740138885154
 11
3869.5746799991266
 21
2744.8288928789516
  0
LINE
  8
_0-2_08_DIM
  6
CONTINUOUS
 62
    3
 10
3837.5746799991261
 20
2739.828892878952
 11
3859.5746799991266
 21
2739.828892878952
  0
INSERT
  2
-003-_Open30
  8
_0-2_08_DIM
 10
3827.5746799991271
 20
2739.828892878952
 41
10
 42
10
 50
180
  0
INSERT
  2
-003-_Open30
  8
_0-2_08_DIM
 10
3869.5746799991266
 20
2739.828892878952
 41
10
 42
10
 50
0
  0
LINE
  8
_0-2_08_DIM
  6
CONTINUOUS
 62
    3
 10
3869.5746799991266
 20
2634.7401388851545
 11
3869.5746799991266
 21
2521.2103072666155
  0
LINE
  8
_0-2_08_DIM
  6
CONTINUOUS
 62
    3
 10
3773.5746799917633
 20
2619.740138885154
 11
3773.5746799917633
 21
2521.2103072666155
  0
LINE
  8
_0-2_08_DIM
  6
CONTINUOUS
 62
    3
 10
3859.5746799991266
 20
2526.210307266615
 11
3783.5746799917633
 21
2526.210307266615
  0
INSERT
  2
-003-_Open30
  8
_0-2_08_DIM
 10
3869.5746799991266
 20
2526.210307266615
 41
10
 42
10
 50
0
  0
INSERT
  2
-003-_Open30
  8
_0-2_08_DIM
 10
3773.5746799917633
 20
2526.210307266615
 41
10
 42
10
 50
180
  0
LINE
  8
_0-2_08_DIM
  6
CONTINUOUS
 62
    3
 10
3871.0746799991275
 20
2636.2401388851554
 11
3939.2093498587883
 21
2636.2401388851554
  0
LINE
  8
_0-2_08_DIM
  6
CONTINUOUS
 62
    3
 10
3871.0746799991275
 20
2666.2401388851549
 11
3939.2093498587883
 21
2666.2401388851549
  0
LINE
  8
_0-2_08_DIM
  6
CONTINUOUS
 62
    3
 10
3934.2093498587878
 20
2646.2401388851554
 11
3934.2093498587878
 21
2656.2401388851545
  0
LINE
  8
_0-2_08_DIM
  6
CONTINUOUS
 62
    3
 10
3934.2093498587878
 20
2666.2401388851549
 11
3934.2093498587878
 21
2735.2401388851549
  0
INSERT
  2
-003-_Open30
  8
_0-2_08_DIM
 10
3934.2093498587878
 20
2636.2401388851554
 41
10
 42
10
 50
270
  0
INSERT
  2
-003-_Open30
  8
_0-2_08_DIM
 10
3934.2093498587878
 20
2666.2401388851549
 41
10
 42
10
 50
90
  0
LINE
  8
_0-2_08_DIM
  6
CONTINUOUS
 62
    3
 10
3829.074679999128
 20
2631.2401388856611
 11
3987.4912894438448
 21
2631.2401388856611
  0
LINE
  8
_0-2_08_DIM
  6
CONTINUOUS
 62
    3
 10
3829.074679999128
 20
2671.2401388856606
 11
3987.4912894438448
 21
2671.2401388856606
  0
LINE
  8
_0-2_08_DIM
  6
CONTINUOUS
 62
    3
 10
3982.4912894438444
 20
2641.2401388856611
 11
3982.4912894438444
 21
2661.2401388856606
  0
LINE
  8
_0-2_08_DIM
  6
CONTINUOUS
 62
    3
 10
3982.4912894438444
 20
2671.2401388856606
 11
3982.4912894438444
 21
2740.2401388856606
  0
INSERT
  2
-003-_Open30
  8
_0-2_08_DIM
 10
3982.4912894438444
 20
2631.2401388856611
 41
10
 42
10
 50
270
  0
INSERT
  2
-003-_Open30
  8
_0-2_08_DIM
 10
3982.4912894438444
 20
2671.2401388856606
 41
10
 42
10
 50
90
  0
LINE
  8
_0-2_08_DIM
  6
CONTINUOUS
 62
    3
 10
3834.1457478109933
 20
2677.8112066975259
 11
3860.7280180256412
 21
2704.3934769121747
  0
INSERT
  2
-003-_Open30
  8
_0-2_08_DIM
 10
3827.0746799991275
 20
2670.7401388856606
 41
10.000000000000002
 42
10.000000000000002
 50
224.99999999999997
  0
LINE
  8
_0-2_08_DIM
  6
CONTINUOUS
 62
    3
 10
3876.1457478109937
 20
2672.8112066970202
 11
3902.7280180256416
 21
2699.393476911669
  0
INSERT
  2
-003-_Open30
  8
_0-2_08_DIM
 10
3869.0746799991275
 20
2665.7401388851549
 41
10.000000000000002
 42
10.000000000000002
 50
224.99999999999997
  0
LINE
  8
_0-2_08_DIM
  6
CONTINUOUS
 62
    3
 10
1973.0592219124796
 20
1598.114099743543
 11
1894.9592219124822
 21
1598.1140997435432
  0
LINE
  8
_0-2_08_DIM
  6
CONTINUOUS
 62
    3
 10
1894.9592219124822
 20
1598.1140997435432
 11
1873.5531772578399
 21
1560.904570495883
  0
INSERT
  2
-003-_Open30
  8
_0-2_08_DIM
 10
1868.5666164667145
 20
1552.2365712182871
 41
10
 42
10
 50
240.08887333074898
  0
LINE
  8
_0-2_08_DIM
  6
CONTINUOUS
 62
    3
 10
1666.046711865361
 20
1604.7891912739635
 11
1738.1467118653629
 21
1604.7891912739635
  0
LINE
  8
_0-2_08_DIM
  6
CONTINUOUS
 62
    3
 10
1738.1467118653629
 20
1604.7891912739635
 11
1772.9642676619835
 21
1557.0760312844438
  0
INSERT
  2
-003-_Open30
  8
_0-2_08_DIM
 10
1778.8589411786809
 20
1548.9981092662797
 41
10
 42
10
 50
306.11921896596715
  0
LINE
  8
_0-2_08_DIM
  6
CONTINUOUS
 62
    3
 10
2563.5746799972749
 20
1449.5357796556937
 11
2563.5746799972749
 21
1334.008612041157
  0
LINE
  8
_0-2_08_DIM
  6
CONTINUOUS
 62
    3
 10
3063.5746799972749
 20
1449.5357796556937
 11
3063.5746799972749
 21
1334.008612041157
  0
LINE
  8
_0-2_08_DIM
  6
CONTINUOUS
 62
    3
 10
2573.5746799972744
 20
1339.008612041157
 11
3053.5746799972749
 21
1339.008612041157
  0
INSERT
  2
-003-_Open30
  8
_0-2_08_DIM
 10
2563.5746799972749
 20
1339.008612041157
 41
10
 42
10
 50
180
  0
INSERT
  2
-003-_Open30
  8
_0-2_08_DIM
 10
3063.5746799972749
 20
1339.008612041157
 41
10
 42
10
 50
0
  0
LINE
  8
_0-2_08_DIM
  6
CONTINUOUS
 62
    3
 10
3238.5746799943936
 20
1449.5357796556937
 11
3238.5746799943936
 21
1334.008612041157
  0
LINE
  8
_0-2_08_DIM
  6
CONTINUOUS
 62
    3
 10
3063.5746799972749
 20
1449.5357796556937
 11
3063.5746799972749
 21
1334.008612041157
  0
LINE
  8
_0-2_08_DIM
  6
CONTINUOUS
 62
    3
 10
3228.5746799943936
 20
1339.008612041157
 11
3073.5746799972749
 21
1339.008612041157
  0
INSERT
  2
-003-_Open30
  8
_0-2_08_DIM
 10
3238.5746799943936
 20
1339.008612041157
 41
10
 42
10
 50
0
  0
INSERT
  2
-003-_Open30
  8
_0-2_08_DIM
 10
3063.5746799972749
 20
1339.008612041157
 41
10
 42
10
 50
180
  0
LINE
  8
_0-2_08_DIM
  6
CONTINUOUS
 62
    3
 10
3238.5746799943863
 20
1449.5357796546296
 11
3238.5746799943863
 21
1334.0086120400929
  0
LINE
  8
_0-2_08_DIM
  6
CONTINUOUS
 62
    3
 10
3738.5746799943863
 20
1449.5357796546296
 11
3738.5746799943863
 21
1334.0086120400929
  0
LINE
  8
_0-2_08_DIM
  6
CONTINUOUS
 62
    3
 10
3248.5746799943859
 20
1339.0086120400929
 11
3728.5746799943868
 21
1339.0086120400929
  0
INSERT
  2
-003-_Open30
  8
_0-2_08_DIM
 10
3238.5746799943863
 20
1339.0086120400929
 41
10
 42
10
 50
180
  0
INSERT
  2
-003-_Open30
  8
_0-2_08_DIM
 10
3738.5746799943863
 20
1339.0086120400929
 41
10
 42
10
 50
0
  0
LINE
  8
_0-2_08_DIM
  6
CONTINUOUS
 62
    3
 10
1979.504160104475
 20
1467.6822577851158
 11
1923.0041601044745
 21
1467.6822577851158
  0
LINE
  8
_0-2_08_DIM
  6
CONTINUOUS
 62
    3
 10
1923.0041601044745
 20
1467.6822577851158
 11
1901.7952898787887
 21
1444.6845843890553
  0
INSERT
  2
-003-_Open30
  8
_0-2_08_DIM
 10
1895.015898469733
 20
1437.3334040673094
 41
10
 42
10
 50
227.31719060989823
  0
LINE
  8
_0-2_08_DIM
  6
CONTINUOUS
 62
    3
 10
1758.574679997271
 20
1569.5357716517428
 11
1758.574679997271
 21
1636.2112863974255
  0
LINE
  8
_0-2_08_DIM
  6
CONTINUOUS
 62
    3
 10
1825.5746799920396
 20
1558.8768224631813
 11
1825.5746799920396
 21
1636.2112863974255
  0
LINE
  8
_0-2_08_DIM
  6
CONTINUOUS
 62
    3
 10
1768.5746799972712
 20
1631.2112863974251
 11
1815.5746799920396
 21
1631.2112863974251
  0
INSERT
  2
-003-_Open30
  8
_0-2_08_DIM
 10
1758.574679997271
 20
1631.2112863974251
 41
10
 42
10
 50
180
  0
INSERT
  2
-003-_Open30
  8
_0-2_08_DIM
 10
1825.5746799920396
 20
1631.2112863974251
 41
10
 42
10
 50
0
  0
LINE
  8
_0-2_08_DIM
  6
CONTINUOUS
 62
    3
 10
1783.5746799920396
 20
1557.9676863226978
 11
1783.5746799920396
 21
1682.1049620808772
  0
LINE
  8
_0-2_08_DIM
  6
CONTINUOUS
 62
    3
 10
1758.574679997271
 20
1569.5357716517428
 11
1758.574679997271
 21
1682.1049620808772
  0
LINE
  8
_0-2_08_DIM
  6
CONTINUOUS
 62
    3
 10
1793.5746799920398
 20
1677.1049620808772
 11
1803.5746799920394
 21
1677.1049620808772
  0
LINE
  8
_0-2_08_DIM
  6
CONTINUOUS
 62
    3
 10
1748.574679997271
 20
1677.1049620808772
 11
1713.574679997271
 21
1677.1049620808772
  0
LINE
  8
_0-2_08_DIM
  6
CONTINUOUS
 62
    3
 10
1783.5746799920396
 20
1677.1049620808772
 11
1758.574679997271
 21
1677.1049620808772
  0
INSERT
  2
-003-_Open30
  8
_0-2_08_DIM
 10
1783.5746799920396
 20
1677.1049620808772
 41
10
 42
10
 50
180
  0
INSERT
  2
-003-_Open30
  8
_0-2_08_DIM
 10
1758.574679997271
 20
1677.1049620808772
 41
10
 42
10
 50
0
  0
LINE
  8
_0-2_08_DIM
  6
CONTINUOUS
 62
    3
 10
3738.5746800006104
 20
1449.5357796567578
 11
3738.5746800006104
 21
1288.2476824961195
  0
LINE
  8
_0-2_08_DIM
  6
CONTINUOUS
 62
    3
 10
3868.5746799918793
 20
1394.5357716567478
 11
3868.5746799918793
 21
1288.2476824961195
  0
LINE
  8
_0-2_08_DIM
  6
CONTINUOUS
 62
    3
 10
3748.5746800006114
 20
1293.2476824961193
 11
3858.5746799918797
 21
1293.2476824961193
  0
INSERT
  2
-003-_Open30
  8
_0-2_08_DIM
 10
3738.5746800006104
 20
1293.2476824961193
 41
10
 42
10
 50
180
  0
INSERT
  2
-003-_Open30
  8
_0-2_08_DIM
 10
3868.5746799918793
 20
1293.2476824961193
 41
10
 42
10
 50
0
  0
LINE
  8
_0-2_08_DIM
  6
CONTINUOUS
 62
    3
 10
3868.5746800034999
 20
1569.5357716517428
 11
3868.5746800034999
 21
1636.2112863974255
  0
LINE
  8
_0-2_08_DIM
  6
CONTINUOUS
 62
    3
 10
3801.5746800087309
 20
1558.8768224631813
 11
3801.5746800087309
 21
1636.2112863974255
  0
LINE
  8
_0-2_08_DIM
  6
CONTINUOUS
 62
    3
 10
3858.574680003499
 20
1631.2112863974251
 11
3811.5746800087309
 21
1631.2112863974251
  0
INSERT
  2
-003-_Open30
  8
_0-2_08_DIM
 10
3868.5746800034999
 20
1631.2112863974251
 41
10
 42
10
 50
0
  0
INSERT
  2
-003-_Open30
  8
_0-2_08_DIM
 10
3801.5746800087309
 20
1631.2112863974251
 41
10
 42
10
 50
180
  0
LINE
  8
_0-2_08_DIM
  6
CONTINUOUS
 62
    3
 10
3843.5746800087309
 20
1557.9676863226978
 11
3843.5746800087309
 21
1682.1049620808772
  0
LINE
  8
_0-2_08_DIM
  6
CONTINUOUS
 62
    3
 10
3868.5746800034999
 20
1569.5357716517428
 11
3868.5746800034999
 21
1682.1049620808772
  0
LINE
  8
_0-2_08_DIM
  6
CONTINUOUS
 62
    3
 10
3833.5746800087309
 20
1677.1049620808772
 11
3823.5746800087309
 21
1677.1049620808772
  0
LINE
  8
_0-2_08_DIM
  6
CONTINUOUS
 62
    3
 10
3878.5746800034995
 20
1677.1049620808772
 11
3929.5746800034995
 21
1677.1049620808772
  0
LINE
  8
_0-2_08_DIM
  6
CONTINUOUS
 62
    3
 10
3843.5746800087309
 20
1677.1049620808772
 11
3868.5746800034999
 21
1677.1049620808772
  0
INSERT
  2
-003-_Open30
  8
_0-2_08_DIM
 10
3843.5746800087309
 20
1677.1049620808772
 41
10
 42
10
 50
0
  0
INSERT
  2
-003-_Open30
  8
_0-2_08_DIM
 10
3868.5746800034999
 20
1677.1049620808772
 41
10
 42
10
 50
180
  0
LINE
  8
_0-2_08_DIM
  6
CONTINUOUS
 62
    3
 10
1569.141477108529
 20
1400.5357716567478
 11
1569.141477108529
 21
1350.9118665211299
  0
LINE
  8
_0-2_08_DIM
  6
CONTINUOUS
 62
    3
 10
1519.1414771048328
 20
1394.5357716567478
 11
1519.1414771048328
 21
1350.9118665211299
  0
LINE
  8
_0-2_08_DIM
  6
CONTINUOUS
 62
    3
 10
1559.141477108529
 20
1355.9118665211299
 11
1529.1414771048328
 21
1355.9118665211299
  0
INSERT
  2
-003-_Open30
  8
_0-2_08_DIM
 10
1569.141477108529
 20
1355.9118665211299
 41
10
 42
10
 50
0
  0
INSERT
  2
-003-_Open30
  8
_0-2_08_DIM
 10
1519.1414771048328
 20
1355.9118665211299
 41
10
 42
10
 50
180
  0
LINE
  8
_0-2_08_DIM
  6
CONTINUOUS
 62
    3
 10
1758.074679997271
 20
1175.7622638410669
 11
1682.0248144070192
 21
1175.7622638410669
  0
LINE
  8
_0-2_08_DIM
  6
CONTINUOUS
 62
    3
 10
1828.0746799972715
 20
1150.7622638410667
 11
1682.0248144070192
 21
1150.7622638410667
  0
LINE
  8
_0-2_08_DIM
  6
CONTINUOUS
 62
    3
 10
1687.0248144070192
 20
1165.7622638410669
 11
1687.0248144070192
 21
1160.7622638410669
  0
LINE
  8
_0-2_08_DIM
  6
CONTINUOUS
 62
    3
 10
1687.0248144070192
 20
1150.7622638410667
 11
1687.0248144070192
 21
1115.7622638410669
  0
INSERT
  2
-003-_Open30
  8
_0-2_08_DIM
 10
1687.0248144070192
 20
1175.7622638410669
 41
10
 42
10
 50
90
  0
INSERT
  2
-003-_Open30
  8
_0-2_08_DIM
 10
1687.0248144070192
 20
1150.7622638410667
 41
10
 42
10
 50
270
  0
LINE
  8
_0-2_08_DIM
  6
CONTINUOUS
 62
    3
 10
3868.5746799972712
 20
1175.2622638410667
 11
3868.5746799972712
 21
1091.1802102896272
  0
LINE
  8
_0-2_08_DIM
  6
CONTINUOUS
 62
    3
 10
3798.5746799972712
 20
1150.2622638410667
 11
3798.5746799972712
 21
1091.1802102896272
  0
LINE
  8
_0-2_08_DIM
  6
CONTINUOUS
 62
    3
 10
3858.5746799972712
 20
1096.1802102896272
 11
3808.5746799972712
 21
1096.1802102896272
  0
INSERT
  2
-003-_Open30
  8
_0-2_08_DIM
 10
3868.5746799972712
 20
1096.1802102896272
 41
10
 42
10
 50
0
  0
INSERT
  2
-003-_Open30
  8
_0-2_08_DIM
 10
3798.5746799972712
 20
1096.1802102896272
 41
10
 42
10
 50
180
  0
LINE
  8
_0-2_08_DIM
  6
CONTINUOUS
 62
    3
 10
3869.0746799972721
 20
1175.7622638410669
 11
3929.0388847086861
 21
1175.7622638410669
  0
LINE
  8
_0-2_08_DIM
  6
CONTINUOUS
 62
    3
 10
3799.0746799972726
 20
1150.7622638410667
 11
3929.0388847086861
 21
1150.7622638410667
  0
LINE
  8
_0-2_08_DIM
  6
CONTINUOUS
 62
    3
 10
3924.0388847086865
 20
1165.7622638410669
 11
3924.0388847086865
 21
1160.7622638410669
  0
LINE
  8
_0-2_08_DIM
  6
CONTINUOUS
 62
    3
 10
3924.0388847086865
 20
1150.7622638410667
 11
3924.0388847086865
 21
1115.7622638410669
  0
INSERT
  2
-003-_Open30
  8
_0-2_08_DIM
 10
3924.0388847086865
 20
1175.7622638410669
 41
10
 42
10
 50
90
  0
INSERT
  2
-003-_Open30
  8
_0-2_08_DIM
 10
3924.0388847086865
 20
1150.7622638410667
 41
10
 42
10
 50
270
  0
INSERT
  2
-004-AM_BALLOON1
  8
_0-2_08_DIM
 10
1405.0806251611218
 20
1840.1436762503652
 41
5
 42
5
 50
0
  0
TEXT
  8
_0-3_0
 62
    7
 10
1382.5806251611218
 20
1832.6436762503654
 40
15
 41
1
 50
0
  1
115
  0
LINE
  8
_0-2_08_DIM
  6
CONTINUOUS
 62
    3
 10
1752.5036121854057
 20
1169.6911960292014
 11
1708.1147845954367
 21
1125.3023684392324
  0
INSERT
  2
-003-_Open30
  8
_0-2_08_DIM
 10
1759.5746799972712
 20
1176.7622638410667
 41
10
 42
10
 50
44.99999999999995
  0
LINE
  8
_0-2_08_DIM
  6
CONTINUOUS
 62
    3
 10
1731.3932254206877
 20
1124.4783703904486
 11
1783.8932254206877
 21
1124.4783703904486
  0
LINE
  8
_0-2_08_DIM
  6
CONTINUOUS
 62
    3
 10
1783.8932254206877
 20
1124.4783703904486
 11
1818.5746799972685
 21
1165.7622638410635
  0
INSERT
  2
-003-_Open30
  8
_0-2_08_DIM
 10
1825.0069253434638
 20
1173.4190399123841
 41
10
 42
10
 50
49.967312667539623
  0
LINE
  8
_0-2_08_DIM
  6
CONTINUOUS
 62
    3
 10
1758.574679997271
 20
1814.0173157545598
 11
1758.574679997271
 21
1881.6546369066891
  0
LINE
  8
_0-2_08_DIM
  6
CONTINUOUS
 62
    3
 10
1828.574679997271
 20
1839.0173157545596
 11
1828.574679997271
 21
1881.6546369066891
  0
LINE
  8
_0-2_08_DIM
  6
CONTINUOUS
 62
    3
 10
1768.5746799972712
 20
1876.6546369066891
 11
1818.574679997271
 21
1876.6546369066891
  0
INSERT
  2
-003-_Open30
  8
_0-2_08_DIM
 10
1758.574679997271
 20
1876.6546369066891
 41
10
 42
10
 50
180
  0
INSERT
  2
-003-_Open30
  8
_0-2_08_DIM
 10
1828.574679997271
 20
1876.6546369066891
 41
10
 42
10
 50
0
  0
LINE
  8
_0-2_08_DIM
  6
CONTINUOUS
 62
    3
 10
1758.074679997271
 20
1813.5173157545598
 11
1708.2505901663735
 21
1813.5173157545598
  0
LINE
  8
_0-2_08_DIM
  6
CONTINUOUS
 62
    3
 10
1828.0746799972715
 20
1838.5173157545603
 11
1708.2505901663735
 21
1838.5173157545603
  0
LINE
  8
_0-2_08_DIM
  6
CONTINUOUS
 62
    3
 10
1713.2505901663737
 20
1823.5173157545598
 11
1713.2505901663737
 21
1828.5173157545603
  0
LINE
  8
_0-2_08_DIM
  6
CONTINUOUS
 62
    3
 10
1713.2505901663737
 20
1838.5173157545603
 11
1713.2505901663737
 21
1873.5173157545601
  0
INSERT
  2
-003-_Open30
  8
_0-2_08_DIM
 10
1713.2505901663737
 20
1813.5173157545598
 41
10
 42
10
 50
270
  0
INSERT
  2
-003-_Open30
  8
_0-2_08_DIM
 10
1713.2505901663737
 20
1838.5173157545603
 41
10
 42
10
 50
90
  0
LINE
  8
_0-2_08_DIM
  6
CONTINUOUS
 62
    3
 10
3868.5746799972712
 20
1814.0173157545598
 11
3868.5746799972712
 21
1881.6546369066891
  0
LINE
  8
_0-2_08_DIM
  6
CONTINUOUS
 62
    3
 10
3798.5746799972712
 20
1839.0173157545596
 11
3798.5746799972712
 21
1881.6546369066891
  0
LINE
  8
_0-2_08_DIM
  6
CONTINUOUS
 62
    3
 10
3858.5746799972712
 20
1876.6546369066891
 11
3808.5746799972712
 21
1876.6546369066891
  0
INSERT
  2
-003-_Open30
  8
_0-2_08_DIM
 10
3868.5746799972712
 20
1876.6546369066891
 41
10
 42
10
 50
0
  0
INSERT
  2
-003-_Open30
  8
_0-2_08_DIM
 10
3798.5746799972712
 20
1876.6546369066891
 41
10
 42
10
 50
180
  0
LINE
  8
_0-2_08_DIM
  6
CONTINUOUS
 62
    3
 10
3869.0746799972721
 20
1813.5173157545598
 11
3929.0388847086861
 21
1813.5173157545598
  0
LINE
  8
_0-2_08_DIM
  6
CONTINUOUS
 62
    3
 10
3799.0746799972726
 20
1838.5173157545603
 11
3929.0388847086861
 21
1838.5173157545603
  0
LINE
  8
_0-2_08_DIM
  6
CONTINUOUS
 62
    3
 10
3924.0388847086865
 20
1823.5173157545598
 11
3924.0388847086865
 21
1828.5173157545603
  0
LINE
  8
_0-2_08_DIM
  6
CONTINUOUS
 62
    3
 10
3924.0388847086865
 20
1838.5173157545603
 11
3924.0388847086865
 21
1873.5173157545601
  0
INSERT
  2
-003-_Open30
  8
_0-2_08_DIM
 10
3924.0388847086865
 20
1813.5173157545598
 41
10
 42
10
 50
270
  0
INSERT
  2
-003-_Open30
  8
_0-2_08_DIM
 10
3924.0388847086865
 20
1838.5173157545603
 41
10
 42
10
 50
90
  0
LINE
  8
_0-2_08_DIM
  6
CONTINUOUS
 62
    3
 10
1817.5746800016966
 20
2289.9251992252384
 11
1817.5746800016966
 21
2351.0139532199332
  0
LINE
  8
_0-2_08_DIM
  6
CONTINUOUS
 62
    3
 10
1757.5746799937713
 20
2273.9251992261352
 11
1757.5746799937713
 21
2351.0139532199332
  0
LINE
  8
_0-2_08_DIM
  6
CONTINUOUS
 62
    3
 10
1807.5746800016966
 20
2346.0139532199328
 11
1767.5746799937713
 21
2346.0139532199328
  0
INSERT
  2
-003-_Open30
  8
_0-2_08_DIM
 10
1817.5746800016966
 20
2346.0139532199328
 41
10
 42
10
 50
0
  0
INSERT
  2
-003-_Open30
  8
_0-2_08_DIM
 10
1757.5746799937713
 20
2346.0139532199328
 41
10
 42
10
 50
180
  0
LINE
  8
_0-2_08_DIM
  6
CONTINUOUS
 62
    3
 10
1757.5746799937713
 20
2273.9251992261352
 11
1757.5746799937713
 21
2390.743412312444
  0
LINE
  8
_0-2_08_DIM
  6
CONTINUOUS
 62
    3
 10
3869.5746799990252
 20
2273.9251992261352
 11
3869.5746799990252
 21
2390.743412312444
  0
LINE
  8
_0-2_08_DIM
  6
CONTINUOUS
 62
    3
 10
1767.5746799937713
 20
2385.7434123124435
 11
3859.5746799990243
 21
2385.7434123124435
  0
INSERT
  2
-003-_Open30
  8
_0-2_08_DIM
 10
1757.5746799937713
 20
2385.7434123124435
 41
10
 42
10
 50
180
  0
INSERT
  2
-003-_Open30
  8
_0-2_08_DIM
 10
3869.5746799990252
 20
2385.7434123124435
 41
10
 42
10
 50
0
  0
LINE
  8
_0-2_08_DIM
  6
CONTINUOUS
 62
    3
 10
1756.0746799937715
 20
2242.4251992261356
 11
1707.9520827954427
 21
2242.4251992261356
  0
LINE
  8
_0-2_08_DIM
  6
CONTINUOUS
 62
    3
 10
1756.0746799937715
 20
2272.4251992261361
 11
1707.9520827954427
 21
2272.4251992261361
  0
LINE
  8
_0-2_08_DIM
  6
CONTINUOUS
 62
    3
 10
1712.9520827954429
 20
2252.4251992261356
 11
1712.9520827954429
 21
2262.4251992261361
  0
LINE
  8
_0-2_08_DIM
  6
CONTINUOUS
 62
    3
 10
1712.9520827954429
 20
2272.4251992261361
 11
1712.9520827954429
 21
2341.4251992261366
  0
INSERT
  2
-003-_Open30
  8
_0-2_08_DIM
 10
1712.9520827954429
 20
2242.4251992261356
 41
10
 42
10
 50
270
  0
INSERT
  2
-003-_Open30
  8
_0-2_08_DIM
 10
1712.9520827954429
 20
2272.4251992261361
 41
10
 42
10
 50
90
  0
LINE
  8
_0-2_08_DIM
  6
CONTINUOUS
 62
    3
 10
2031.4046988262276
 20
2287.4251992261361
 11
2046.1086337041431
 21
2287.4251992261361
  0
LINE
  8
_0-2_08_DIM
  6
CONTINUOUS
 62
    3
 10
2031.4046988262276
 20
2227.4251992261356
 11
2046.1086337041431
 21
2227.4251992261356
  0
LINE
  8
_0-2_08_DIM
  6
CONTINUOUS
 62
    3
 10
2041.1086337041431
 20
2277.4251992261361
 11
2041.1086337041436
 21
2237.4251992261356
  0
LINE
  8
_0-2_08_DIM
  6
CONTINUOUS
 62
    3
 10
2041.1086337041436
 20
2227.4251992261356
 11
2041.1086337041436
 21
2157.2251992261358
  0
INSERT
  2
-003-_Open30
  8
_0-2_08_DIM
 10
2041.1086337041431
 20
2287.4251992261361
 41
10
 42
10
 50
90
  0
INSERT
  2
-003-_Open30
  8
_0-2_08_DIM
 10
2041.1086337041436
 20
2227.4251992261356
 41
10
 42
10
 50
270
  0
LINE
  8
_0-2_08_DIM
  6
CONTINUOUS
 62
    3
 10
1751.0036121819053
 20
2235.8541314142703
 11
1720.97986200572
 21
2205.8303812380859
  0
INSERT
  2
-003-_Open30
  8
_0-2_08_DIM
 10
1758.0746799937708
 20
2242.9251992261356
 41
10
 42
10
 50
44.999999999999687
  0
LINE
  8
_0-2_08_DIM
  6
CONTINUOUS
 62
    3
 10
1803.0036121897131
 20
2227.8541314149497
 11
1768.7372213264098
 21
2193.5877405516458
  0
INSERT
  2
-003-_Open30
  8
_0-2_08_DIM
 10
1810.0746800015786
 20
2234.9251992268146
 41
10
 42
10
 50
44.999999999999794
  0
LINE
  8
_0-2_08_DIM
  6
CONTINUOUS
 62
    3
 10
1817.5746800016966
 20
2289.9251992252384
 11
1817.5746800016966
 21
2351.0139532199332
  0
LINE
  8
_0-2_08_DIM
  6
CONTINUOUS
 62
    3
 10
3809.5746799990247
 20
2289.9251992230174
 11
3809.5746799990247
 21
2351.0139532199332
  0
LINE
  8
_0-2_08_DIM
  6
CONTINUOUS
 62
    3
 10
1827.5746800016966
 20
2346.0139532199328
 11
3799.5746799990247
 21
2346.0139532199328
  0
INSERT
  2
-003-_Open30
  8
_0-2_08_DIM
 10
1817.5746800016966
 20
2346.0139532199328
 41
10
 42
10
 50
180
  0
INSERT
  2
-003-_Open30
  8
_0-2_08_DIM
 10
3809.5746799990247
 20
2346.0139532199328
 41
10
 42
10
 50
0
  0
LINE
  8
_0-2_08_DIM
  6
CONTINUOUS
 62
    3
 10
3809.5746799990247
 20
2289.9251992230174
 11
3809.5746799990247
 21
2351.0139532199332
  0
LINE
  8
_0-2_08_DIM
  6
CONTINUOUS
 62
    3
 10
3869.5746799990252
 20
2273.9251992261352
 11
3869.5746799990252
 21
2351.0139532199332
  0
LINE
  8
_0-2_08_DIM
  6
CONTINUOUS
 62
    3
 10
3819.5746799990243
 20
2346.0139532199328
 11
3859.5746799990243
 21
2346.0139532199328
  0
INSERT
  2
-003-_Open30
  8
_0-2_08_DIM
 10
3809.5746799990247
 20
2346.0139532199328
 41
10
 42
10
 50
180
  0
INSERT
  2
-003-_Open30
  8
_0-2_08_DIM
 10
3869.5746799990252
 20
2346.0139532199328
 41
10
 42
10
 50
0
  0
LINE
  8
_0-2_08_DIM
  6
CONTINUOUS
 62
    3
 10
3871.0746799990261
 20
2242.4251992261356
 11
3939.2093498587092
 21
2242.4251992261356
  0
LINE
  8
_0-2_08_DIM
  6
CONTINUOUS
 62
    3
 10
3871.0746799990261
 20
2272.4251992261361
 11
3939.2093498587092
 21
2272.4251992261361
  0
LINE
  8
_0-2_08_DIM
  6
CONTINUOUS
 62
    3
 10
3934.2093498587087
 20
2252.4251992261356
 11
3934.2093498587087
 21
2262.4251992261361
  0
LINE
  8
_0-2_08_DIM
  6
CONTINUOUS
 62
    3
 10
3934.2093498587087
 20
2272.4251992261361
 11
3934.2093498587087
 21
2341.4251992261366
  0
INSERT
  2
-003-_Open30
  8
_0-2_08_DIM
 10
3934.2093498587087
 20
2242.4251992261356
 41
10
 42
10
 50
270
  0
INSERT
  2
-003-_Open30
  8
_0-2_08_DIM
 10
3934.2093498587087
 20
2272.4251992261361
 41
10
 42
10
 50
90
  0
LINE
  8
_0-2_08_DIM
  6
CONTINUOUS
 62
    3
 10
3824.1457478108896
 20
2286.9962670364421
 11
3854.9706587126548
 21
2317.8211779382086
  0
INSERT
  2
-003-_Open30
  8
_0-2_08_DIM
 10
3817.0746799990247
 20
2279.9251992245772
 41
10.000000000000002
 42
10.000000000000002
 50
224.99999999999997
  0
LINE
  8
_0-2_08_DIM
  6
CONTINUOUS
 62
    3
 10
3876.1457478108914
 20
2278.996267038001
 11
3902.7280180255389
 21
2305.5785372526475
  0
INSERT
  2
-003-_Open30
  8
_0-2_08_DIM
 10
3869.0746799990256
 20
2271.9251992261356
 41
10.000000000000002
 42
10.000000000000002
 50
224.99999999999997
  0
LINE
  8
_0-2_08_DIM
  6
CONTINUOUS
 62
    3
 10
1802.574680001663
 20
2274.9251992283903
 11
1802.574680001663
 21
2308.870500379222
  0
LINE
  8
_0-2_08_DIM
  6
CONTINUOUS
 62
    3
 10
1757.5746799937713
 20
2273.9251992261352
 11
1757.5746799937713
 21
2308.870500379222
  0
LINE
  8
_0-2_08_DIM
  6
CONTINUOUS
 62
    3
 10
1792.574680001663
 20
2303.870500379222
 11
1767.5746799937713
 21
2303.870500379222
  0
INSERT
  2
-003-_Open30
  8
_0-2_08_DIM
 10
1802.574680001663
 20
2303.870500379222
 41
10
 42
10
 50
0
  0
INSERT
  2
-003-_Open30
  8
_0-2_08_DIM
 10
1757.5746799937713
 20
2303.870500379222
 41
10
 42
10
 50
180
  0
LINE
  8
_0-2_08_DIM
  6
CONTINUOUS
 62
    3
 10
3824.5746799990247
 20
2239.9251992261352
 11
3824.5746799990247
 21
2167.9921486671356
  0
LINE
  8
_0-2_08_DIM
  6
CONTINUOUS
 62
    3
 10
3869.5746799990252
 20
2240.9251992261352
 11
3869.5746799990252
 21
2167.9921486671356
  0
LINE
  8
_0-2_08_DIM
  6
CONTINUOUS
 62
    3
 10
3834.5746799990247
 20
2172.992148667136
 11
3859.5746799990243
 21
2172.992148667136
  0
INSERT
  2
-003-_Open30
  8
_0-2_08_DIM
 10
3824.5746799990247
 20
2172.992148667136
 41
10
 42
10
 50
180
  0
INSERT
  2
-003-_Open30
  8
_0-2_08_DIM
 10
3869.5746799990252
 20
2172.992148667136
 41
10
 42
10
 50
0
  0
TEXT
  8
_0-7_07_TEXT
 62
    3
 10
4001.0300562035486
 20
1097.6589545713368
 40
12.000000000000002
 41
1
 50
0
  1
注記
  0
TEXT
  8
_0-7_07_TEXT
 62
    3
 10
4001.9900562035491
 20
1075.3429545713368
 40
12.000000000000002
 41
1
 50
0
  1
　指示なき角部は
  0
TEXT
  8
_0-7_07_TEXT
 62
    3
 10
4131.2900562035484
 20
1075.3429545713368
 40
12.000000000000002
 41
1
 50
0
  1
C0.5
  0
TEXT
  8
_0-7_07_TEXT
 62
    3
 10
4171.8614847749777
 20
1075.3429545713368
 40
12.000000000000002
 41
1
 50
0
  1
のこと
  0
TEXT
  8
_0-7_07_TEXT
 62
    4
 10
1948.3038666268312
 20
2838.1042752019976
 40
24.000000000000004
 41
1
 50
0
  1
シャフト両端形状、変更
  0
TEXT
  8
_0-7_07_TEXT
 62
    4
 10
1945.3644380554028
 20
2793.3522752019976
 40
24.000000000000004
 41
1
 50
0
  1
(
  0
TEXT
  8
_0-7_07_TEXT
 62
    4
 10
1961.3644380554031
 20
2793.3522752019976
 40
24.000000000000004
 41
1
 50
0
  1
併せてジュラコン部品と購入品カラーの品番を変
  0
TEXT
  8
_0-7_07_TEXT
 62
    4
 10
1947.6078666268313
 20
2748.7808466305692
 40
24.000000000000004
 41
1
 50
0
  1
更
  0
TEXT
  8
_0-7_07_TEXT
 62
    4
 10
1982.5038666268315
 20
2748.7808466305692
 40
24.000000000000004
 41
1
 50
0
  1
)
  0
TEXT
  8
_0-7_07_TEXT
 62
    4
 10
2089.3849574171577
 20
2162.7004334549597
 40
24.000000000000004
 41
1
 50
0
  1
公差不要、ピーリングで良い
  0
TEXT
  8
_0-7_07_TEXT
 62
    4
 10
2504.1769574171576
 20
2162.7004334549597
 40
24.000000000000004
 41
1
 50
0
  1
(25.04.28FAX
  0
TEXT
  8
_0-7_07_TEXT
 62
    4
 10
2744.1769574171576
 20
2162.7004334549597
 40
24.000000000000004
 41
1
 50
0
  1
にて河相様とやり取り
  0
TEXT
  8
_0-7_07_TEXT
 62
    4
 10
3061.7929574171576
 20
2162.7004334549597
 40
24.000000000000004
 41
1
 50
0
  1
)
  0
TEXT
  8
_0-7_07_TEXT
 62
    4
 10
4217.8544099739638
 20
833.09936578993802
 40
20
 41
1
 50
0
  1
A
  0
TEXT
  8
_0-2_08_DIM
 62
    3
 10
1782.1461085686997
 20
1098.6802102896272
 40
12.000000000000002
 41
1
 50
0
  1
70
  0
TEXT
  8
_0-2_08_DIM
 62
    3
 10
2789.8603942829891
 20
1295.7476824961195
 40
12.000000000000002
 41
1
 50
0
  1
1850
  0
TEXT
  8
_0-2_08_DIM
 62
    3
 10
2121.4318228573024
 20
1341.5086120422211
 40
12.000000000000002
 41
1
 50
0
  1
500
  0
TEXT
  8
_0-2_08_DIM
 62
    3
 10
2458.0746799987191
 20
1341.5086120422211
 40
12.000000000000002
 41
1
 50
0
  1
175
  0
TEXT
  8
_0-2_08_DIM
 62
    3
 10
1805.5746800045251
 20
1295.7476824961195
 40
12.000000000000002
 41
1
 50
0
  1
130
  0
TEXT
  8
_0-2_08_DIM
 62
    3
 10
2790.7175371465096
 20
1726.9500223874036
 40
12.000000000000002
 41
1
 50
0
  1
2110
  0
TEXT
  8
_0-2_08_DIM
 62
    3
 10
3770.1461085734327
 20
1633.7112863974253
 40
12.000000000000002
 41
1
 50
0
  1
40
  0
TEXT
  8
_0-2_08_DIM
 62
    3
 10
2790.7175371465096
 20
1679.6049620808769
 40
12.000000000000002
 41
1
 50
0
  1
2060
  0
TEXT
  8
_0-2_08_DIM
 62
    3
 10
2789.8603942829891
 20
1633.7112863974253
 40
12.000000000000002
 41
1
 50
0
  1
1896
  0
TEXT
  8
_0-2_08_DIM
 62
    3
 10
1834.1461085634683
 20
1633.7112863974253
 40
12.000000000000002
 41
1
 50
0
  1
40
  0
TEXT
  8
_0-2_08_DIM
 62
    3
 10
1722.1010372735163
 20
1465.7500573660348
 40
12.000000000000002
 41
1
 50
90
  1
121
  0
TEXT
  8
_0-2_08_DIM
 62
    3
 10
1680.5522339609688
 20
1464.0357716542558
 40
12.000000000000002
 41
1
 50
90
  1
130
  0
TEXT
  8
_0-2_08_DIM
 62
    3
 10
1636.4715529202513
 20
1464.0357716517528
 40
12.000000000000002
 41
1
 50
90
  1
170
  0
TEXT
  8
_0-2_08_DIM
 62
    3
 10
2078.0648465365362
 20
1464.0357796517626
 40
12.000000000000002
 41
1
 50
90
  1
100
  0
TEXT
  8
_0-2_08_DIM
 62
    3
 10
1532.7129056781098
 20
1610.6596767923656
 40
12.000000000000002
 41
1
 50
0
  1
50
  0
TEXT
  8
_0-2_08_DIM
 62
    3
 10
1482.3369652589481
 20
1587.8214859424622
 40
12.000000000000002
 41
1
 50
90
  1
3
  0
TEXT
  8
_0-2_08_DIM
 62
    3
 10
1814.8603942832656
 20
2561.7766682906304
 40
12.000000000000002
 41
1
 50
0
  1
54
  0
TEXT
  8
_0-2_08_DIM
 62
    3
 10
1767.1461085653018
 20
2742.328892878952
 40
12.000000000000002
 41
1
 50
0
  1
42
  0
TEXT
  8
_0-2_08_DIM
 62
    3
 10
1794.14610856898
 20
2528.7103072666155
 40
12.000000000000002
 41
1
 50
0
  1
96
  0
TEXT
  8
_0-2_08_DIM
 62
    3
 10
2790.7175371393569
 20
2782.0583519714633
 40
12.000000000000002
 41
1
 50
0
  1
2112
  0
TEXT
  8
_0-2_08_DIM
 62
    3
 10
2789.8603942822106
 20
2528.7103072666155
 40
12.000000000000002
 41
1
 50
0
  1
1920
  0
TEXT
  8
_0-2_08_DIM
 62
    3
 10
1710.4520827955353
 20
2677.7401388851549
 40
12.000000000000002
 41
1
 50
90
  1
?30h7
  0
TEXT
  8
_0-2_08_DIM
 62
    3
 10
1657.9347675527008
 20
2682.7401388856601
 40
12.000000000000002
 41
1
 50
90
  1
?40h7
  0
TEXT
  8
_0-2_08_DIM
 62
    3
 10
2038.6086337042354
 20
2564.2829960280114
 40
12.000000000000002
 41
1
 50
90
  1
?60
  0
TEXT
  8
_0-2_08_DIM
 62
    3
 10
2053.6086337042352
 20
2550.8921388851541
 40
12.000000000000002
 41
1
 50
90
  1
(
  0
TEXT
  8
_0-2_08_DIM
 62
    3
 10
2053.6086337042352
 20
2558.8921388851541
 40
12.000000000000002
 41
1
 50
90
  1
ミガキ
  0
TEXT
  8
_0-2_08_DIM
 62
    3
 10
2053.6086337042352
 20
2603.3881388851541
 40
12.000000000000002
 41
1
 50
90
  1
)
  0
TEXT
  8
_0-2_08_DIM
 62
    3
 10
1719.5656484434492
 20
2601.7666412406634
 40
12.000000000000002
 41
1
 50
44.999999999999396
  1
C1
  0
TEXT
  8
_0-2_08_DIM
 62
    3
 10
1761.5656484434494
 20
2596.7666412411691
 40
12.000000000000002
 41
1
 50
44.999999999999396
  1
C1
  0
TEXT
  8
_0-2_08_DIM
 62
    3
 10
1815.5656484508056
 20
2586.7666412406638
 40
12.000000000000002
 41
1
 50
44.999999999998479
  1
C1
  0
TEXT
  8
_0-2_08_DIM
 62
    3
 10
2790.7175371393569
 20
2742.328892878952
 40
12.000000000000002
 41
1
 50
0
  1
2028
  0
TEXT
  8
_0-2_08_DIM
 62
    3
 10
3781.1461085668739
 20
2563.7766682906304
 40
12.000000000000002
 41
1
 50
0
  1
(54)
  0
TEXT
  8
_0-2_08_DIM
 62
    3
 10
3829.1461085705546
 20
2744.3288928789516
 40
12.000000000000002
 41
1
 50
0
  1
(42)
  0
TEXT
  8
_0-2_08_DIM
 62
    3
 10
3802.1461085668739
 20
2530.7103072666155
 40
12.000000000000002
 41
1
 50
0
  1
(96)
  0
TEXT
  8
_0-2_08_DIM
 62
    3
 10
3931.7093498587883
 20
2677.7401388851536
 40
12.000000000000002
 41
1
 50
90
  1
?30h7
  0
TEXT
  8
_0-2_08_DIM
 62
    3
 10
3979.9912894438448
 20
2682.7401388856592
 40
12.000000000000002
 41
1
 50
90
  1
?40h7
  0
TEXT
  8
_0-2_08_DIM
 62
    3
 10
3844.4645620583506
 20
2691.6655548508165
 40
12.000000000000002
 41
1
 50
45
  1
C1
  0
TEXT
  8
_0-2_08_DIM
 62
    3
 10
3886.4645620583506
 20
2686.6655548503109
 40
12.000000000000002
 41
1
 50
44.999999999999396
  1
C1
  0
TEXT
  8
_0-2_08_DIM
 62
    3
 10
1898.8926504839087
 20
1601.2980997435432
 40
12.000000000000002
 41
1
 50
0
  1
8-12
  0
TEXT
  8
_0-2_08_DIM
 62
    3
 10
1948.0355076267654
 20
1601.2980997435432
 40
12.000000000000002
 41
1
 50
0
  1
キリ
  0
TEXT
  8
_0-2_08_DIM
 62
    3
 10
1661.4801404367897
 20
1607.9731912739635
 40
12.000000000000002
 41
1
 50
0
  1
4-16
  0
TEXT
  8
_0-2_08_DIM
 62
    3
 10
1710.6229975796471
 20
1607.9731912739635
 40
12.000000000000002
 41
1
 50
0
  1
キリ
  0
TEXT
  8
_0-2_08_DIM
 62
    3
 10
2796.4318228544175
 20
1341.508612041157
 40
12.000000000000002
 41
1
 50
0
  1
500
  0
TEXT
  8
_0-2_08_DIM
 62
    3
 10
3133.0746799958342
 20
1341.508612041157
 40
12.000000000000002
 41
1
 50
0
  1
175
  0
TEXT
  8
_0-2_08_DIM
 62
    3
 10
3471.4318228515294
 20
1341.5086120400929
 40
12.000000000000002
 41
1
 50
0
  1
500
  0
TEXT
  8
_0-2_08_DIM
 62
    3
 10
1921.9327315330463
 20
1470.182257785116
 40
12.000000000000002
 41
1
 50
0
  1
4-R20
  0
TEXT
  8
_0-2_08_DIM
 62
    3
 10
1780.3603942803697
 20
1633.7112863974253
 40
12.000000000000002
 41
1
 50
0
  1
67
  0
TEXT
  8
_0-2_08_DIM
 62
    3
 10
1714.6461085686997
 20
1679.6049620808769
 40
12.000000000000002
 41
1
 50
0
  1
25
  0
TEXT
  8
_0-2_08_DIM
 62
    3
 10
3778.4318228533884
 20
1297.7476824961193
 40
12.000000000000002
 41
1
 50
0
  1
(130)
  0
TEXT
  8
_0-2_08_DIM
 62
    3
 10
3815.6461085775431
 20
1635.7112863974251
 40
12.000000000000002
 41
1
 50
0
  1
(67)
  0
TEXT
  8
_0-2_08_DIM
 62
    3
 10
3889.6461085749283
 20
1681.6049620808772
 40
12.000000000000002
 41
1
 50
0
  1
(25)
  0
TEXT
  8
_0-2_08_DIM
 62
    3
 10
1532.7129056781098
 20
1358.4118665211299
 40
12.000000000000002
 41
1
 50
0
  1
50
  0
TEXT
  8
_0-2_08_DIM
 62
    3
 10
1684.5248144070194
 20
1116.8336924124953
 40
12.000000000000002
 41
1
 50
90
  1
25
  0
TEXT
  8
_0-2_08_DIM
 62
    3
 10
3822.1461085686997
 20
1098.6802102896272
 40
12.000000000000002
 41
1
 50
0
  1
70
  0
TEXT
  8
_0-2_08_DIM
 62
    3
 10
3921.5388847086856
 20
1116.8336924124947
 40
12.000000000000002
 41
1
 50
90
  1
25
  0
TEXT
  8
_0-2_08_DIM
 62
    3
 10
1706.0944795063319
 20
1126.8175972560609
 40
12.000000000000002
 41
1
 50
44.999999999999702
  1
8-C2
  0
TEXT
  8
_0-2_08_DIM
 62
    3
 10
1725.8217968492595
 20
1126.9783703904486
 40
12.000000000000002
 41
1
 50
0
  1
4-R10
  0
TEXT
  8
_0-2_08_DIM
 62
    3
 10
1782.1461085686997
 20
1879.1546369066893
 40
12.000000000000002
 41
1
 50
0
  1
70
  0
TEXT
  8
_0-2_08_DIM
 62
    3
 10
1710.7505901663737
 20
1849.5887443259885
 40
12.000000000000002
 41
1
 50
90
  1
25
  0
TEXT
  8
_0-2_08_DIM
 62
    3
 10
3822.1461085686997
 20
1879.1546369066893
 40
12.000000000000002
 41
1
 50
0
  1
70
  0
TEXT
  8
_0-2_08_DIM
 62
    3
 10
3921.5388847086856
 20
1849.5887443259874
 40
12.000000000000002
 41
1
 50
90
  1
25
  0
TEXT
  8
_0-2_08_DIM
 62
    3
 10
1775.8603942834484
 20
2348.5139532199328
 40
12.000000000000002
 41
1
 50
0
  1
60
  0
TEXT
  8
_0-2_08_DIM
 62
    3
 10
2790.717537139255
 20
2388.243412312444
 40
12.000000000000002
 41
1
 50
0
  1
2112
  0
TEXT
  8
_0-2_08_DIM
 62
    3
 10
1710.4520827954436
 20
2283.9251992261356
 40
12.000000000000002
 41
1
 50
90
  1
?30h7
  0
TEXT
  8
_0-2_08_DIM
 62
    3
 10
2038.6086337041436
 20
2170.4680563689926
 40
12.000000000000002
 41
1
 50
90
  1
?60
  0
TEXT
  8
_0-2_08_DIM
 62
    3
 10
2053.6086337041434
 20
2157.0771992261352
 40
12.000000000000002
 41
1
 50
90
  1
(
  0
TEXT
  8
_0-2_08_DIM
 62
    3
 10
2053.6086337041434
 20
2165.0771992261357
 40
12.000000000000002
 41
1
 50
90
  1
ミガキ
  0
TEXT
  8
_0-2_08_DIM
 62
    3
 10
2053.6086337041434
 20
2209.5731992261349
 40
12.000000000000002
 41
1
 50
90
  1
)
  0
TEXT
  8
_0-2_08_DIM
 62
    3
 10
1719.5656484433468
 20
2207.951701581645
 40
12.000000000000002
 41
1
 50
44.999999999999702
  1
C1
  0
TEXT
  8
_0-2_08_DIM
 62
    3
 10
1766.3128552194844
 20
2194.6989083506537
 40
12.000000000000002
 41
1
 50
44.999999999999702
  1
C15
  0
TEXT
  8
_0-2_08_DIM
 62
    3
 10
2789.860394286075
 20
2348.5139532199328
 40
12.000000000000002
 41
1
 50
0
  1
1992
  0
TEXT
  8
_0-2_08_DIM
 62
    3
 10
3820.1461085704532
 20
2350.5139532199328
 40
12.000000000000002
 41
1
 50
0
  1
(60)
  0
TEXT
  8
_0-2_08_DIM
 62
    3
 10
3931.7093498587092
 20
2283.9251992261347
 40
12.000000000000002
 41
1
 50
90
  1
?30h7
  0
TEXT
  8
_0-2_08_DIM
 62
    3
 10
3829.2117688265739
 20
2295.5978219580593
 40
12.000000000000002
 41
1
 50
44.999999999999794
  1
C15
  0
TEXT
  8
_0-2_08_DIM
 62
    3
 10
3886.4645620582487
 20
2292.8506151912902
 40
12.000000000000002
 41
1
 50
45.000000000000611
  1
C1
  0
TEXT
  8
_0-2_08_DIM
 62
    3
 10
1768.6461085691458
 20
2306.370500379222
 40
12.000000000000002
 41
1
 50
0
  1
45
  0
TEXT
  8
_0-2_08_DIM
 62
    3
 10
3827.6461085704532
 20
2177.4921486671356
 40
12.000000000000002
 41
1
 50
0
  1
(45)
  0
TEXT
  8
_0-0_90_FRAME
 62
    3
 10
1534.2378721211235
 20
351.89672014513241
 40
12.000000000000002
 41
1
 50
0
  1
寺田
  0
TEXT
  8
_0-0_90_FRAME
 62
    3
 10
1227.7247821316439
 20
351.89672014513241
 40
12.000000000000002
 41
0.65
 50
0
  1
2013.09.01
  0
TEXT
  8
_0-0_90_FRAME
 62
    3
 10
1307.6915315176875
 20
351.89672014513241
 40
12.000000000000002
 41
1
 50
0
  1
エアー抜き追加
  0
TEXT
  8
_0-9_
 62
    7
 10
2213.3007076823246
 20
354.91211620464514
 40
37.99399034986007
 41
1
 50
0
  1
A3　150%
  0
ENDSEC
  0
EOF
