  0
SECTION
  2
HEADER
  9
$ACADVER
  1
AC1009
  9
$INSBASE
 10
0
 20
0
 30
0
  9
$EXTMIN
 10
0
 20
0
  9
$EXTMAX
 10
1898.2330286918202
 20
1342.3219274320727
  9
$LIMMIN
 10
0
 20
0
  9
$LIMMAX
 10
1898.2330286918202
 20
1342.3219274320727
  9
$LTSCALE
 40
4.5196024492662383
  0
ENDSEC
  0
SECTION
  2
TABLES
  0
TABLE
  2
LTYPE
 70
     9
  0
LTYPE
  2
CONTINUOUS
 70
    64
  3
Ä└É³
 72
    65
 73
     0
 40
0.0
  0
LTYPE
  2
DASHED1
 70
    64
  3
--  --  --  --  --  --  --  --  
 72
    65
 73
     2
 40
2.5
 49
1.25
 49
-1.25
  0
LTYPE
  2
DASHED2
 70
    64
  3
----    ----    ----    ----    
 72
    65
 73
     2
 40
5.0
 49
2.5
 49
-2.5
  0
LTYPE
  2
DASHED3
 70
    64
  3
------  ------  ------  ------  
 72
    65
 73
     2
 40
5.0
 49
3.75
 49
-1.25
  0
LTYPE
  2
CENTER1
 70
    64
  3
----- - ----- - ----- - ----- - 
 72
    65
 73
     4
 40
10.0
 49
6.25
 49
-1.25
 49
1.25
 49
-1.25
  0
LTYPE
  2
CENTER2
 70
    64
  3
----------  --  ----------  --  
 72
    65
 73
     4
 40
20.0
 49
12.5
 49
-2.5
 49
2.5
 49
-2.5
  0
LTYPE
  2
PHANTOM1
 70
    64
  3
--- - - --- - - --- - - --- - - 
 72
    65
 73
     6
 40
10.0
 49
3.25
 49
-1.25
 49
1.25
 49
-1.25
 49
1.25
 49
-1.25
  0
LTYPE
  2
PHANTOM2
 70
    64
  3
--------  -  -  --------  -  -  
 72
    65
 73
     6
 40
20.0
 49
10.0
 49
-2.5
 49
1.25
 49
-2.5
 49
1.25
 49
-2.5
  0
LTYPE
  2
DOT
 70
    64
  3
-   -   -   -   -   -   -   -   
 72
    65
 73
     2
 40
2.5
 49
0.625
 49
-1.875
  0
LTYPE
  2
DUMMY
 70
    64
  3
ā_ā~ü[
 72
    65
 73
     0
 40
0.0
  0
LTYPE
  2
RAND1
 70
    64
  3
āēāōā_āĆÉ³1
 72
    65
 73
     4
 40
10.0
 49
1.0
 49
-2.0
 49
3.0
 49
-4.0
  0
LTYPE
  2
RAND2
 70
    64
  3
āēāōā_āĆÉ³2
 72
    65
 73
     4
 40
14.0
 49
2.0
 49
-3.0
 49
4.0
 49
-5.0
  0
LTYPE
  2
RAND3
 70
    64
  3
āēāōā_āĆÉ³3
 72
    65
 73
     4
 40
18.0
 49
3.0
 49
-4.0
 49
5.0
 49
-6.0
  0
LTYPE
  2
RAND4
 70
    64
  3
āēāōā_āĆÉ³4
 72
    65
 73
     4
 40
22.0
 49
4.0
 49
-5.0
 49
6.0
 49
-7.0
  0
LTYPE
  2
RAND5
 70
    64
  3
āēāōā_āĆÉ³5
 72
    65
 73
     4
 40
26.0
 49
5.0
 49
-6.0
 49
7.0
 49
-8.0
  0
LTYPE
  2
LONG1
 70
    64
  3
----------  --  ----------  --  
 72
    65
 73
     4
 40
40.0
 49
32.5
 49
-2.5
 49
2.5
 49
-2.5
  0
LTYPE
  2
LONG2
 70
    64
  3
--------  -  -  --------  -  -  
 72
    65
 73
     6
 40
40.0
 49
30.0
 49
-2.5
 49
1.25
 49
-2.5
 49
1.25
 49
-2.5
  0
LTYPE
  2
LONG3
 70
    64
  3
+++++++++++++++..+++++++++++++++
 72
    65
 73
     2
 40
40.0
 49
37.5
 49
-2.5
  0
LTYPE
  2
LONG4
 70
    64
  3
+++++++++++++++..+++++++++++++++
 72
    65
 73
     2
 40
80.0
 49
75.0
 49
-5.0
  0
LTYPE
  2
LONG5
 70
    64
  3
----------  --  ----------  --  
 72
    65
 73
     4
 40
60.0
 49
37.5
 49
-7.5
 49
7.5
 49
-7.5
  0
LTYPE
  2
dashed
 70
   64
  3
-------   -------------   ------
 72
   65
 73
    2
 40
7.5
 49
6
 49
-1.5
  0
LTYPE
  2
dashed_spaced
 70
   64
  3
----        --------        ----
 72
   65
 73
    2
 40
12
 49
6
 49
-6
  0
LTYPE
  2
long_dashed_dotted
 70
   64
  3
------------- --- --------------
 72
   65
 73
    4
 40
15.25
 49
12
 49
-1.5
 49
0.25
 49
-1.5
  0
LTYPE
  2
long_dashed_double-dotted
 70
   64
  3
----------- --- --- ------------
 72
   65
 73
    6
 40
17
 49
12
 49
-1.5
 49
0.25
 49
-1.5
 49
0.25
 49
-1.5
  0
LTYPE
  2
long_dashed_triplicate-dotted
 70
   64
  3
--------- --- --- --- ----------
 72
   65
 73
    8
 40
18.75
 49
12
 49
-1.5
 49
0.25
 49
-1.5
 49
0.25
 49
-1.5
 49
0.25
 49
-1.5
  0
LTYPE
  2
dotted
 70
   64
  3
   -       -       -       -    
 72
   65
 73
    2
 40
1.75
 49
0.25
 49
-1.5
  0
LTYPE
  2
chain
 70
   64
  3
-------------- -- --------------
 72
   65
 73
    4
 40
18.5
 49
12
 49
-1.5
 49
3.5
 49
-1.5
  0
LTYPE
  2
chain_double_dash
 70
   64
  3
------------ -- -- -------------
 72
   65
 73
    6
 40
23.5
 49
12
 49
-1.5
 49
3.5
 49
-1.5
 49
3.5
 49
-1.5
  0
LTYPE
  2
dashed_dotted
 70
   64
  3
-----------     -     ----------
 72
   65
 73
    4
 40
9.25
 49
6
 49
-1.5
 49
0.25
 49
-1.5
  0
LTYPE
  2
double-dashed_dotted
 70
   64
  3
------   -----------   -   -----
 72
   65
 73
    6
 40
16.75
 49
6
 49
-1.5
 49
6
 49
-1.5
 49
0.25
 49
-1.5
  0
LTYPE
  2
dashed_double-dotted
 70
   64
  3
---------    -    -    ---------
 72
   65
 73
    6
 40
11
 49
6
 49
-1.5
 49
0.25
 49
-1.5
 49
0.25
 49
-1.5
  0
LTYPE
  2
double-dashed_double-dotted
 70
   64
  3
-----   ---------   -   -   ----
 72
   65
 73
    8
 40
18.5
 49
6
 49
-1.5
 49
6
 49
-1.5
 49
0.25
 49
-1.5
 49
0.25
 49
-1.5
  0
LTYPE
  2
dashed_triplicate-dotted
 70
   64
  3
-------    -    -    -    ------
 72
   65
 73
    8
 40
12.75
 49
6
 49
-1.5
 49
0.25
 49
-1.5
 49
0.25
 49
-1.5
 49
0.25
 49
-1.5
  0
LTYPE
  2
double-dashed_triplicate-dotted
 70
   64
  3
-----  ---------  -  -  -  -----
 72
   65
 73
   10
 40
20.25
 49
6
 49
-1.5
 49
6
 49
-1.5
 49
0.25
 49
-1.5
 49
0.25
 49
-1.5
 49
0.25
 49
-1.5
  0
LTYPE
  2
undefined
 70
   64
  3
--------------------------------
 72
   65
 73
    0
 40
0
  0
LTYPE
  2
_
 70
   64
  3
                                
 72
   65
 73
    0
 40
0
  0
LTYPE
  2
__18
 70
   64
  3
                                
 72
   65
 73
    0
 40
0
  0
LTYPE
  2
__19
 70
   64
  3
                                
 72
   65
 73
    0
 40
0
  0
LTYPE
  2
__20
 70
   64
  3
                                
 72
   65
 73
    0
 40
0
  0
LTYPE
  2
__21
 70
   64
  3
                                
 72
   65
 73
    0
 40
0
  0
LTYPE
  2
__22
 70
   64
  3
                                
 72
   65
 73
    0
 40
0
  0
LTYPE
  2
__23
 70
   64
  3
                                
 72
   65
 73
    0
 40
0
  0
LTYPE
  2
__24
 70
   64
  3
                                
 72
   65
 73
    0
 40
0
  0
LTYPE
  2
__25
 70
   64
  3
                                
 72
   65
 73
    0
 40
0
  0
LTYPE
  2
__26
 70
   64
  3
                                
 72
   65
 73
    0
 40
0
  0
LTYPE
  2
__27
 70
   64
  3
                                
 72
   65
 73
    0
 40
0
  0
LTYPE
  2
__28
 70
   64
  3
                                
 72
   65
 73
    0
 40
0
  0
LTYPE
  2
__29
 70
   64
  3
                                
 72
   65
 73
    0
 40
0
  0
LTYPE
  2
__30
 70
   64
  3
                                
 72
   65
 73
    0
 40
0
  0
LTYPE
  2
__31
 70
   64
  3
                                
 72
   65
 73
    0
 40
0
  0
LTYPE
  2
__32
 70
   64
  3
                                
 72
   65
 73
    0
 40
0
  0
ENDTAB
  0
TABLE
  2
STYLE
  5
3
100
AcDbSymbolTable
 70
     1
  0
STYLE
  5
10
100
AcDbSymbolTableRecord
100
AcDbTextStyleTableRecord
  2
STANDARD
 70
     0
 40
0.0
 41
1.0
 50
0.0
 71
     0
 42
0.2
  3
txt
  4
bigfont.shx
  0
STYLE
  5
26
100
AcDbSymbolTableRecord
100
AcDbTextStyleTableRecord
  2
TATEGAKI
 70
    68
 40
0.0
 41
1.0
 50
0.0
 71
     0
 42
1.0
  3
txt
  4
bigfont.shx
  0
ENDTAB
  0
TABLE
  2
LAYER
 70
   10
  0
LAYER
  2
_0-0_90_FRAME
 70
   64
 62
    7
  6
CONTINUOUS
  0
LAYER
  2
_0-1_91_BLANK
 70
   64
 62
    7
  6
CONTINUOUS
  0
LAYER
  2
_0-2_08_DIM
 70
   64
 62
    7
  6
CONTINUOUS
  0
LAYER
  2
_0-3_04_HIDDEN
 70
   64
 62
    7
  6
CONTINUOUS
  0
LAYER
  2
_0-4_05_CENTER
 70
   64
 62
    7
  6
CONTINUOUS
  0
LAYER
  2
_0-5_0
 70
   64
 62
    7
  6
CONTINUOUS
  0
LAYER
  2
_0-6_10_DRAFT
 70
   64
 62
    7
  6
CONTINUOUS
  0
LAYER
  2
_0-7_07_TEXT
 70
   64
 62
    7
  6
CONTINUOUS
  0
LAYER
  2
_0-8_
 70
   64
 62
    7
  6
CONTINUOUS
  0
LAYER
  2
ADD_LINE
 70
   64
 62
    7
  6
CONTINUOUS
  0
ENDTAB
  0
ENDSEC
  0
SECTION
  2
BLOCKS
  0
BLOCK
  2
-000-Weld-line
 70
   64
 10
0
 20
0
 30
0
  0
LINE
  8
_0-2_08_DIM
  6
CONTINUOUS
 62
    3
 10
0
 20
0
 11
1
 21
0
  0
ENDBLK
  0
BLOCK
  2
-001-Weld10-s5
 70
   64
 10
0
 20
0
 30
0
  0
CIRCLE
  8
_0-2_08_DIM
  6
CONTINUOUS
 62
    3
 10
0
 20
0
 40
2
  0
ENDBLK
  0
BLOCK
  2
-002-Weld10-a1
 70
   64
 10
0
 20
0
 30
0
  0
LINE
  8
_0-2_08_DIM
  6
CONTINUOUS
 62
    3
 10
5
 20
0
 11
0
 21
5
  0
LINE
  8
_0-2_08_DIM
  6
CONTINUOUS
 62
    3
 10
0
 20
5
 11
0
 21
0
  0
LINE
  8
_0-2_08_DIM
  6
CONTINUOUS
 62
    3
 10
0
 20
0
 11
5
 21
0
  0
ENDBLK
  0
BLOCK
  2
-003-Jis_w20130906110600
 70
   64
 10
0
 20
0
 30
0
  0
INSERT
  2
-000-Weld-line
  8
_0-2_08_DIM
 10
0
 20
0
 41
14.000000000000002
 42
14.000000000000002
 50
0
  0
INSERT
  2
-001-Weld10-s5
  8
_0-2_08_DIM
 10
0
 20
0
 41
1
 42
1
 50
0
  0
INSERT
  2
-002-Weld10-a1
  8
_0-2_08_DIM
 10
6
 20
0
 41
-1
 42
1
 50
180
  0
TEXT
  8
_0-2_08_DIM
 62
    3
 10
4.0000000000001137
 20
-1
 40
2.7999999999999994
 41
0.9000000000000001
 50
0
  1

  0
TEXT
  8
_0-2_08_DIM
 62
    3
 10
14.000000000000114
 20
-1
 40
2.7999999999999994
 41
0.9000000000000001
 50
0
  1

  0
LINE
  8
_0-2_08_DIM
  6
CONTINUOUS
 62
    3
 10
-4.6308054280802926
 20
-5.7653612299384349
 11
0
 21
0
  0
ENDBLK
  0
BLOCK
  2
-004-p1ba05
 70
   64
 10
0
 20
0
 30
0
  0
ARC
  8
_0-2_08_DIM
  6
CONTINUOUS
 62
    3
 10
0
 20
1.6206695983957431
 40
1.6206695983958537
 50
204.22763733453323
 51
335.57577857182139
  0
ARC
  8
_0-2_08_DIM
  6
CONTINUOUS
 62
    3
 10
-2.9535588745990822
 20
0.2854771617432376
 40
1.6206695983958537
 50
24.227637334533135
 51
155.57577857182133
  0
ENDBLK
  0
BLOCK
  2
-005-M8Tz_2
 70
   64
 10
0
 20
0
 30
0
  0
CIRCLE
  8
_0-5_0
  6
CONTINUOUS
 62
   18
 10
-0.0000000000018189
 20
0
 40
3.2499999999999996
  0
CIRCLE
  8
_0-5_0
  6
CONTINUOUS
 62
   18
 10
-0.0000000000018189
 20
0
 40
4
  0
LINE
  8
_0-4_05_CENTER
  6
CENTER2
 62
    4
 10
6.9233036771909156
 20
0
 11
-6.9233036771945535
 21
0
  0
LINE
  8
_0-4_05_CENTER
  6
CENTER2
 62
    4
 10
-0.0000000000018189
 20
-6.9233036771927345
 11
-0.0000000000018189
 21
6.9233036771927345
  0
ENDBLK
  0
BLOCK
  2
-006-AM_BALLOON1
 70
   64
 10
0
 20
0
 30
0
  0
CIRCLE
  8
_0-2_08_DIM
  6
CONTINUOUS
 62
    3
 10
0
 20
0
 40
5
  0
ENDBLK
  0
BLOCK
  2
-007-_Open30
 70
   64
 10
0
 20
0
 30
0
  0
LINE
  8
_0-2_08_DIM
  6
CONTINUOUS
 62
    3
 10
-1
 20
0.26794919
 11
0
 21
0
  0
LINE
  8
_0-2_08_DIM
  6
CONTINUOUS
 62
    3
 10
0
 20
0
 11
-1
 21
-0.26794919
  0
LINE
  8
_0-2_08_DIM
  6
CONTINUOUS
 62
    3
 10
0
 20
0
 11
-1
 21
0
  0
ENDBLK
  0
ENDSEC
  0
SECTION
  2
ENTITIES
  0
TEXT
  8
_0-0_90_FRAME
 62
    7
 10
1397.2608800684789
 20
309.66333339121246
 40
10
 41
1
 50
0
  1
AT-221121-04-28
  0
TEXT
  8
_0-0_90_FRAME
 62
    7
 10
1328.7831059473415
 20
286.6458219999268
 40
10
 41
1
 50
0
  1
2024.09.04
  0
LINE
  8
_0-0_90_FRAME
  6
CONTINUOUS
 62
    5
 10
416.25508580693065
 20
281.21409818937281
 11
1518.7331863750633
 21
281.21409818937275
  0
LINE
  8
_0-0_90_FRAME
  6
CONTINUOUS
 62
    5
 10
1518.7331863750633
 20
281.21409818937275
 11
1518.7331863750633
 21
1069.3906274634078
  0
LINE
  8
_0-0_90_FRAME
  6
CONTINUOUS
 62
    5
 10
1518.7331863750633
 20
1069.3906274634078
 11
416.25508580693065
 21
1069.3906274634078
  0
LINE
  8
_0-0_90_FRAME
  6
CONTINUOUS
 62
    5
 10
416.25508580693065
 20
1069.3906274634078
 11
416.25508580693065
 21
281.21409818937281
  0
LINE
  8
_0-0_90_FRAME
  6
CONTINUOUS
 62
    5
 10
361.09390375001391
 20
675.30236282639021
 11
416.25508580693065
 21
675.30236282639021
  0
LINE
  8
_0-0_90_FRAME
  6
CONTINUOUS
 62
    5
 10
1537.139124946417
 20
675.30236282639021
 11
1518.7331863750633
 21
675.30236282639021
  0
LINE
  8
_0-0_90_FRAME
  6
CONTINUOUS
 62
    5
 10
967.4941360909969
 20
1090.6365660385591
 11
967.4941360909969
 21
1069.3906274634078
  0
LINE
  8
_0-0_90_FRAME
  6
CONTINUOUS
 62
    5
 10
967.4941360909969
 20
262.89045003476019
 11
967.4941360909969
 21
281.21409818937281
  0
LINE
  8
_0-0_90_FRAME
  6
CONTINUOUS
 62
    5
 10
825.90999323442486
 20
272.71904961797679
 11
1109.0782789475693
 21
272.71904961797679
  0
LINE
  8
_0-0_90_FRAME
  6
CONTINUOUS
 62
    5
 10
825.90999323442486
 20
272.71904961797679
 11
825.90999323442486
 21
281.21409818937281
  0
LINE
  8
_0-0_90_FRAME
  6
CONTINUOUS
 62
    5
 10
854.22682180573997
 20
272.71904961797679
 11
854.22682180573997
 21
281.21409818937281
  0
LINE
  8
_0-0_90_FRAME
  6
CONTINUOUS
 62
    5
 10
882.54365037705531
 20
272.71904961797679
 11
882.54365037705531
 21
281.21409818937281
  0
LINE
  8
_0-0_90_FRAME
  6
CONTINUOUS
 62
    5
 10
910.86047894836668
 20
272.71904961797679
 11
910.86047894836668
 21
281.21409818937281
  0
LINE
  8
_0-0_90_FRAME
  6
CONTINUOUS
 62
    5
 10
939.17730751968179
 20
272.71904961797679
 11
939.17730751968179
 21
281.21409818937281
  0
LINE
  8
_0-0_90_FRAME
  6
CONTINUOUS
 62
    5
 10
995.81096466230849
 20
272.71904961797679
 11
995.81096466230849
 21
281.21409818937281
  0
LINE
  8
_0-0_90_FRAME
  6
CONTINUOUS
 62
    5
 10
1024.1277932336236
 20
272.71904961797679
 11
1024.1277932336236
 21
281.21409818937281
  0
LINE
  8
_0-0_90_FRAME
  6
CONTINUOUS
 62
    5
 10
1052.4446218049388
 20
272.71904961797679
 11
1052.4446218049388
 21
281.21409818937281
  0
LINE
  8
_0-0_90_FRAME
  6
CONTINUOUS
 62
    5
 10
1080.7614503762541
 20
272.71904961797679
 11
1080.7614503762541
 21
281.21409818937281
  0
LINE
  8
_0-0_90_FRAME
  6
CONTINUOUS
 62
    5
 10
1109.0782789475693
 20
272.71904961797679
 11
1109.0782789475693
 21
281.21409818937281
  0
LINE
  8
_0-0_90_FRAME
  6
CONTINUOUS
 62
    4
 10
682.35783079214752
 20
1069.3906274634078
 11
682.35783079214752
 21
1087.7965660347579
  0
TEXT
  8
_0-0_90_FRAME
 62
    7
 10
468.60216208072592
 20
1073.0566367585548
 40
5.6799999999999997
 41
1
 50
0
  1
1
  0
TEXT
  8
_0-0_90_FRAME
 62
    7
 10
537.89634480939139
 20
1073.0566367585548
 40
5.6799999999999997
 41
1
 50
0
  1
2
  0
TEXT
  8
_0-0_90_FRAME
 62
    7
 10
632.94177990900789
 20
1073.0566367585548
 40
5.6799999999999997
 41
1
 50
0
  1
3
  0
TEXT
  8
_0-0_90_FRAME
 62
    7
 10
727.98721500862064
 20
1073.0566367585548
 40
5.6799999999999997
 41
1
 50
0
  1
4
  0
TEXT
  8
_0-0_90_FRAME
 62
    7
 10
823.03265010824077
 20
1073.0566367585548
 40
5.6799999999999997
 41
1
 50
0
  1
5
  0
TEXT
  8
_0-0_90_FRAME
 62
    7
 10
918.07808520785363
 20
1073.0566367585548
 40
5.6799999999999997
 41
1
 50
0
  1
6
  0
TEXT
  8
_0-0_90_FRAME
 62
    7
 10
1013.1235203074701
 20
1073.0566367585548
 40
5.6799999999999997
 41
1
 50
0
  1
7
  0
TEXT
  8
_0-0_90_FRAME
 62
    7
 10
1108.1689554070865
 20
1073.0566367585548
 40
5.6799999999999997
 41
1
 50
0
  1
8
  0
TEXT
  8
_0-0_90_FRAME
 62
    7
 10
1203.2143905067028
 20
1073.0566367585548
 40
5.6799999999999997
 41
1
 50
0
  1
9
  0
TEXT
  8
_0-0_90_FRAME
 62
    7
 10
1296.8398256063199
 20
1073.0566367585548
 40
5.6799999999999997
 41
1
 50
0
  1
10
  0
TEXT
  8
_0-0_90_FRAME
 62
    7
 10
1392.3585940392659
 20
1073.0566367585548
 40
5.6799999999999997
 41
1
 50
0
  1
11
  0
TEXT
  8
_0-0_90_FRAME
 62
    7
 10
1486.4573624722154
 20
1073.0566367585548
 40
5.6799999999999997
 41
1
 50
0
  1
12
  0
TEXT
  8
_0-0_90_FRAME
 62
    7
 10
1522.3921895674755
 20
924.50248983162101
 40
5.6799999999999997
 41
1
 50
0
  1
B
  0
LINE
  8
_0-0_90_FRAME
  6
CONTINUOUS
 62
    4
 10
1537.139124946417
 20
473.67026122220557
 11
1518.7331863750633
 21
473.67026122220557
  0
LINE
  8
_0-0_90_FRAME
  6
CONTINUOUS
 62
    4
 10
1537.139124946417
 20
574.48631202429794
 11
1518.7331863750633
 21
574.48631202429794
  0
LINE
  8
_0-0_90_FRAME
  6
CONTINUOUS
 62
    4
 10
1537.139124946417
 20
372.85421042011325
 11
1518.7331863750633
 21
372.85421042011325
  0
LINE
  8
_0-0_90_FRAME
  6
CONTINUOUS
 62
    4
 10
1537.139124946417
 20
876.93446443057496
 11
1518.7331863750633
 21
876.93446443057496
  0
LINE
  8
_0-0_90_FRAME
  6
CONTINUOUS
 62
    4
 10
1537.139124946417
 20
776.11841362848259
 11
1518.7331863750633
 21
776.11841362848259
  0
LINE
  8
_0-0_90_FRAME
  6
CONTINUOUS
 62
    4
 10
1537.139124946417
 20
977.75051523266723
 11
1518.7331863750633
 21
977.75051523266723
  0
TEXT
  8
_0-0_90_FRAME
 62
    7
 10
1522.3921895674755
 20
1025.3185406337136
 40
5.6799999999999997
 41
1
 50
0
  1
A
  0
TEXT
  8
_0-0_90_FRAME
 62
    7
 10
1522.3921895674755
 20
823.68643902952886
 40
5.6799999999999997
 41
1
 50
0
  1
C
  0
TEXT
  8
_0-0_90_FRAME
 62
    7
 10
1522.3921895674755
 20
722.87038822743648
 40
5.6799999999999997
 41
1
 50
0
  1
D
  0
TEXT
  8
_0-0_90_FRAME
 62
    7
 10
1522.3921895674755
 20
521.23828662325184
 40
5.6799999999999997
 41
1
 50
0
  1
F
  0
TEXT
  8
_0-0_90_FRAME
 62
    7
 10
1522.3921895674755
 20
420.4222358211594
 40
5.6799999999999997
 41
1
 50
0
  1
G
  0
TEXT
  8
_0-0_90_FRAME
 62
    7
 10
1522.3921895674755
 20
319.60618501906708
 40
5.6799999999999997
 41
1
 50
0
  1
H
  0
TEXT
  8
_0-0_90_FRAME
 62
    7
 10
1522.3921895674755
 20
622.05433742534422
 40
5.6799999999999997
 41
1
 50
0
  1
E
  0
TEXT
  8
_0-0_90_FRAME
 62
    7
 10
407.89332815416839
 20
924.50248983162101
 40
5.6799999999999997
 41
1
 50
0
  1
B
  0
LINE
  8
_0-0_90_FRAME
  6
CONTINUOUS
 62
    4
 10
416.25508580693065
 20
473.67026122220557
 11
397.84914723558052
 21
473.67026122220557
  0
LINE
  8
_0-0_90_FRAME
  6
CONTINUOUS
 62
    4
 10
416.25508580693065
 20
574.48631202429794
 11
397.84914723558052
 21
574.48631202429794
  0
LINE
  8
_0-0_90_FRAME
  6
CONTINUOUS
 62
    4
 10
416.25508580693065
 20
372.85421042011325
 11
397.84914723558052
 21
372.85421042011325
  0
LINE
  8
_0-0_90_FRAME
  6
CONTINUOUS
 62
    4
 10
416.25508580693065
 20
876.93446443057496
 11
397.84914723558052
 21
876.93446443057496
  0
LINE
  8
_0-0_90_FRAME
  6
CONTINUOUS
 62
    4
 10
416.25508580693065
 20
776.11841362848259
 11
397.84914723558052
 21
776.11841362848259
  0
LINE
  8
_0-0_90_FRAME
  6
CONTINUOUS
 62
    4
 10
416.25508580693065
 20
977.75051523266723
 11
397.84914723558052
 21
977.75051523266723
  0
TEXT
  8
_0-0_90_FRAME
 62
    7
 10
407.89332815416839
 20
1025.3185406337136
 40
5.6799999999999997
 41
1
 50
0
  1
A
  0
TEXT
  8
_0-0_90_FRAME
 62
    7
 10
407.89332815416839
 20
823.68643902952886
 40
5.6799999999999997
 41
1
 50
0
  1
C
  0
TEXT
  8
_0-0_90_FRAME
 62
    7
 10
407.89332815416839
 20
722.87038822743648
 40
5.6799999999999997
 41
1
 50
0
  1
D
  0
TEXT
  8
_0-0_90_FRAME
 62
    7
 10
407.89332815416839
 20
521.23828662325184
 40
5.6799999999999997
 41
1
 50
0
  1
F
  0
TEXT
  8
_0-0_90_FRAME
 62
    7
 10
407.89332815416839
 20
420.4222358211594
 40
5.6799999999999997
 41
1
 50
0
  1
G
  0
TEXT
  8
_0-0_90_FRAME
 62
    7
 10
407.89332815416839
 20
622.05433742534422
 40
5.6799999999999997
 41
1
 50
0
  1
E
  0
TEXT
  8
_0-0_90_FRAME
 62
    7
 10
407.89332815416839
 20
319.60618501906708
 40
5.6799999999999997
 41
1
 50
0
  1
H
  0
LINE
  8
_0-0_90_FRAME
  6
CONTINUOUS
 62
    4
 10
587.31239569253114
 20
1069.3906274634078
 11
587.31239569253114
 21
1087.7965660347579
  0
LINE
  8
_0-0_90_FRAME
  6
CONTINUOUS
 62
    4
 10
492.26696059291464
 20
1069.3906274634078
 11
492.26696059291464
 21
1087.7965660347579
  0
LINE
  8
_0-0_90_FRAME
  6
CONTINUOUS
 62
    4
 10
777.40326589176414
 20
1069.3906274634078
 11
777.40326589176414
 21
1087.7965660347579
  0
LINE
  8
_0-0_90_FRAME
  6
CONTINUOUS
 62
    4
 10
872.44870099138052
 20
1069.3906274634078
 11
872.44870099138052
 21
1087.7965660347579
  0
LINE
  8
_0-0_90_FRAME
  6
CONTINUOUS
 62
    4
 10
1252.6304413898426
 20
1069.3906274634078
 11
1252.6304413898426
 21
1087.7965660347579
  0
LINE
  8
_0-0_90_FRAME
  6
CONTINUOUS
 62
    4
 10
1347.6758764894594
 20
1069.3906274634078
 11
1347.6758764894594
 21
1087.7965660347579
  0
LINE
  8
_0-0_90_FRAME
  6
CONTINUOUS
 62
    4
 10
1442.7213115890759
 20
1069.3906274634078
 11
1442.7213115890759
 21
1087.7965660347579
  0
LINE
  8
_0-0_90_FRAME
  6
CONTINUOUS
 62
    4
 10
1157.5850062902261
 20
1069.3906274634078
 11
1157.5850062902261
 21
1087.7965660347579
  0
LINE
  8
_0-0_90_FRAME
  6
CONTINUOUS
 62
    4
 10
1062.5395711906135
 20
1069.3906274634078
 11
1062.5395711906135
 21
1087.7965660347579
  0
LINE
  8
_0-0_90_FRAME
  6
CONTINUOUS
 62
    4
 10
682.35783079214752
 20
262.89045003476019
 11
682.35783079214752
 21
281.21409818937281
  0
LINE
  8
_0-0_90_FRAME
  6
CONTINUOUS
 62
    4
 10
587.31239569253114
 20
262.89045003476019
 11
587.31239569253114
 21
281.21409818937281
  0
LINE
  8
_0-0_90_FRAME
  6
CONTINUOUS
 62
    4
 10
492.26696059291464
 20
262.89045003476019
 11
492.26696059291464
 21
281.21409818937281
  0
LINE
  8
_0-0_90_FRAME
  6
CONTINUOUS
 62
    4
 10
777.40326589176414
 20
262.89045003476019
 11
777.40326589176414
 21
281.21409818937281
  0
LINE
  8
_0-0_90_FRAME
  6
CONTINUOUS
 62
    4
 10
1252.6304413898426
 20
262.89045003476019
 11
1252.6304413898426
 21
281.21409818937281
  0
LINE
  8
_0-0_90_FRAME
  6
CONTINUOUS
 62
    4
 10
1347.6758764894594
 20
262.89045003476019
 11
1347.6758764894594
 21
281.21409818937281
  0
LINE
  8
_0-0_90_FRAME
  6
CONTINUOUS
 62
    4
 10
1442.7213115890759
 20
262.89045003476019
 11
1442.7213115890759
 21
281.21409818937281
  0
LINE
  8
_0-0_90_FRAME
  6
CONTINUOUS
 62
    4
 10
1157.5850062902261
 20
262.89045003476019
 11
1157.5850062902261
 21
281.21409818937281
  0
LINE
  8
_0-1_91_BLANK
  6
CONTINUOUS
 62
    5
 10
361.09390374540311
 20
262.89045003476019
 11
1537.1391249444632
 21
262.89045003476019
  0
LINE
  8
_0-1_91_BLANK
  6
CONTINUOUS
 62
    5
 10
1537.1391249444632
 20
262.89045003476019
 11
1537.1391249444632
 21
1090.6365660385591
  0
LINE
  8
_0-1_91_BLANK
  6
CONTINUOUS
 62
    5
 10
1537.1391249444632
 20
1090.6365660385591
 11
361.09390374540311
 21
1090.6365660385591
  0
LINE
  8
_0-1_91_BLANK
  6
CONTINUOUS
 62
    5
 10
361.09390374540311
 20
1090.6365660385591
 11
361.09390374540311
 21
262.89045003476019
  0
LINE
  8
_0-0_90_FRAME
  6
CONTINUOUS
 62
   18
 10
1122.7331863766622
 20
281.21409818937281
 11
1518.7331863750633
 21
281.21409818937281
  0
LINE
  8
_0-0_90_FRAME
  6
CONTINUOUS
 62
   18
 10
1518.7331863750633
 20
281.21409818937281
 11
1518.7331863750633
 21
354.75695533193283
  0
LINE
  8
_0-0_90_FRAME
  6
CONTINUOUS
 62
   18
 10
1518.7331863750633
 20
354.75695533193283
 11
1122.7331863766622
 21
354.75695533193283
  0
LINE
  8
_0-0_90_FRAME
  6
CONTINUOUS
 62
   18
 10
1122.7331863766622
 20
354.75695533193283
 11
1122.7331863766622
 21
281.21409818937281
  0
LINE
  8
_0-0_90_FRAME
  6
CONTINUOUS
 62
   18
 10
1153.918186376538
 20
342.02838390341196
 11
1173.7181863764572
 21
346.97838390339274
  0
LINE
  8
_0-0_90_FRAME
  6
CONTINUOUS
 62
   18
 10
1173.7181863764572
 20
346.97838390339274
 11
1173.7181863764572
 21
327.1783839034735
  0
LINE
  8
_0-0_90_FRAME
  6
CONTINUOUS
 62
   18
 10
1173.7181863764572
 20
327.1783839034735
 11
1153.918186376538
 21
332.1283839034524
  0
LINE
  8
_0-0_90_FRAME
  6
CONTINUOUS
 62
   18
 10
1153.918186376538
 20
332.1283839034524
 11
1153.918186376538
 21
342.02838390341196
  0
CIRCLE
  8
_0-0_90_FRAME
  6
CONTINUOUS
 62
   18
 10
1141.0481863765881
 20
337.0783839034313
 40
4.9499999999799993
  0
CIRCLE
  8
_0-0_90_FRAME
  6
CONTINUOUS
 62
   18
 10
1141.0481863765881
 20
337.0783839034313
 40
9.8999999999599986
  0
LINE
  8
_0-0_90_FRAME
  6
CONTINUOUS
 62
   18
 10
1129.1681863766362
 20
337.0783839034313
 11
1175.6981863764477
 21
337.0783839034313
  0
LINE
  8
_0-0_90_FRAME
  6
CONTINUOUS
 62
   18
 10
1141.0481863765881
 20
325.19838390348116
 11
1141.0481863765881
 21
348.95838390338503
  0
LINE
  8
_0-0_90_FRAME
  6
CONTINUOUS
 62
   18
 10
1284.9474720902626
 20
281.21409818937281
 11
1284.9474720902626
 21
354.75695533193283
  0
LINE
  8
_0-0_90_FRAME
  6
CONTINUOUS
 62
   18
 10
1284.9474720902626
 20
303.84266961785232
 11
1518.7331863750633
 21
303.84266961785232
  0
TEXT
  8
_0-0_90_FRAME
 62
    7
 10
1285.961555605124
 20
296.80674912430834
 40
5
 41
1
 50
0
  1
Źņ É¼ ō·
  0
LINE
  8
_0-0_90_FRAME
  6
CONTINUOUS
 62
   18
 10
1423.2189006611416
 20
303.84266961785232
 11
1423.2189006611416
 21
281.21409818937281
  0
TEXT
  8
_0-0_90_FRAME
 62
    7
 10
1424.4063441549088
 20
296.66846725467906
 40
5
 41
1
 50
0
  1
ī┬Éö
  0
TEXT
  8
_0-0_90_FRAME
 62
    7
 10
1238.1873665750691
 20
348.20141915956367
 40
5
 41
1
 50
0
  1
āTāCāY
  0
TEXT
  8
_0-0_90_FRAME
 62
    7
 10
1183.0302237181502
 20
347.82851149474948
 40
5
 41
1
 50
0
  1
Ä┌ü@ōx
  0
TEXT
  8
_0-0_90_FRAME
 62
    7
 10
1238.1873970479073
 20
312.84427630256431
 40
5
 41
1
 50
0
  1
É╗ü@É}
  0
LINE
  8
_0-0_90_FRAME
  6
CONTINUOUS
 62
   18
 10
1284.9474720902626
 20
319.39981247493159
 11
1122.7331863766622
 21
319.39981247493159
  0
LINE
  8
_0-0_90_FRAME
  6
CONTINUOUS
 62
   18
 10
1360.4712732388989
 20
326.47124104633184
 11
1518.7331863750633
 21
326.47124104633184
  0
TEXT
  8
_0-0_90_FRAME
 62
    7
 10
1254.6214387328673
 20
327.88628818191199
 40
10
 41
1
 50
0
  1
A2
  0
LINE
  8
_0-0_90_FRAME
  6
CONTINUOUS
 62
   18
 10
1237.2903292333422
 20
281.21409818937281
 11
1237.2903292333422
 21
354.75695533193283
  0
TEXT
  8
_0-0_90_FRAME
 62
    2
 10
1157.7237127941166
 20
288.99640916668801
 40
10
 41
1
 50
0
  1
āAāNāAāgāŖāĆ
  0
LINE
  8
_0-0_90_FRAME
  6
CONTINUOUS
 62
    4
 10
1154.6473297027851
 20
314.55637402943574
 11
1154.6473297027851
 21
284.97001692155408
  0
LINE
  8
_0-0_90_FRAME
  6
CONTINUOUS
 62
    4
 10
1154.6473297027851
 20
284.97001692155408
 11
1127.7506414228928
 21
284.97001692155408
  0
LINE
  8
_0-0_90_FRAME
  6
CONTINUOUS
 62
    4
 10
1127.7506414228928
 20
284.97001692155408
 11
1127.7506414228928
 21
314.55637402943574
  0
LINE
  8
_0-0_90_FRAME
  6
CONTINUOUS
 62
    4
 10
1127.8787208908925
 20
314.42829456143511
 11
1127.8787208908925
 21
314.42829456143511
  0
LINE
  8
_0-0_90_FRAME
  6
CONTINUOUS
 62
    4
 10
1127.8787208908925
 20
314.42829456143511
 11
1127.9448785978975
 21
313.7610715749953
  0
LINE
  8
_0-0_90_FRAME
  6
CONTINUOUS
 62
    4
 10
1127.9448785978975
 20
313.7610715749953
 11
1128.1413415504628
 21
313.11412182136735
  0
LINE
  8
_0-0_90_FRAME
  6
CONTINUOUS
 62
    4
 10
1128.1413415504628
 20
313.11412182136735
 11
1128.4621403211895
 21
312.50710254144286
  0
LINE
  8
_0-0_90_FRAME
  6
CONTINUOUS
 62
    4
 10
1128.4621403211895
 20
312.50710254144286
 11
1128.8975276017611
 21
311.95845770887576
  0
LINE
  8
_0-0_90_FRAME
  6
CONTINUOUS
 62
    4
 10
1128.8975276017611
 20
311.95845770887576
 11
1129.4342743699742
 21
311.48485761927594
  0
LINE
  8
_0-0_90_FRAME
  6
CONTINUOUS
 62
    4
 10
1129.4342743699742
 20
311.48485761927594
 11
1130.0560718468837
 21
311.10069237171268
  0
LINE
  8
_0-0_90_FRAME
  6
CONTINUOUS
 62
    4
 10
1130.0560718468837
 20
311.10069237171268
 11
1130.7440270307982
 21
310.81763463283613
  0
LINE
  8
_0-0_90_FRAME
  6
CONTINUOUS
 62
    4
 10
1130.7440270307982
 20
310.81763463283613
 11
1131.4772367515764
 21
310.64428496880805
  0
LINE
  8
_0-0_90_FRAME
  6
CONTINUOUS
 62
    4
 10
1131.4772367515764
 20
310.64428496880805
 11
1132.2334228028749
 21
310.58591052145061
  0
LINE
  8
_0-0_90_FRAME
  6
CONTINUOUS
 62
    4
 10
1132.2334228028749
 20
310.58591052145061
 11
1132.9896088541734
 21
310.64428496880805
  0
LINE
  8
_0-0_90_FRAME
  6
CONTINUOUS
 62
    4
 10
1132.9896088541734
 20
310.64428496880805
 11
1133.7228185749516
 21
310.81763463283613
  0
LINE
  8
_0-0_90_FRAME
  6
CONTINUOUS
 62
    4
 10
1133.7228185749516
 20
310.81763463283613
 11
1134.4107737588661
 21
311.10069237171268
  0
LINE
  8
_0-0_90_FRAME
  6
CONTINUOUS
 62
    4
 10
1134.4107737588661
 20
311.10069237171268
 11
1135.0325712357755
 21
311.48485761927594
  0
LINE
  8
_0-0_90_FRAME
  6
CONTINUOUS
 62
    4
 10
1135.0325712357755
 20
311.48485761927594
 11
1135.5693180039887
 21
311.95845770887576
  0
LINE
  8
_0-0_90_FRAME
  6
CONTINUOUS
 62
    4
 10
1135.5693180039887
 20
311.95845770887576
 11
1136.0047052845603
 21
312.50710254144286
  0
LINE
  8
_0-0_90_FRAME
  6
CONTINUOUS
 62
    4
 10
1136.0047052845603
 20
312.50710254144286
 11
1136.325504055287
 21
313.11412182136735
  0
LINE
  8
_0-0_90_FRAME
  6
CONTINUOUS
 62
    4
 10
1136.325504055287
 20
313.11412182136735
 11
1136.5219670078523
 21
313.7610715749953
  0
LINE
  8
_0-0_90_FRAME
  6
CONTINUOUS
 62
    4
 10
1136.5219670078523
 20
313.7610715749953
 11
1136.5881247148573
 21
314.42829456143511
  0
LINE
  8
_0-0_90_FRAME
  6
CONTINUOUS
 62
    4
 10
1136.5881247148573
 20
314.42829456143511
 11
1136.5881247148573
 21
314.42829456143511
  0
ARC
  8
_0-0_90_FRAME
  6
CONTINUOUS
 62
    4
 10
1136.7162041828569
 20
314.42829456143511
 40
0.1280794679994825
 50
0
 51
180
  0
LINE
  8
_0-0_90_FRAME
  6
CONTINUOUS
 62
    4
 10
1136.8442836508566
 20
314.42829456143511
 11
1136.8442836508566
 21
314.42829456143511
  0
LINE
  8
_0-0_90_FRAME
  6
CONTINUOUS
 62
    4
 10
1136.8442836508566
 20
314.42829456143511
 11
1136.9104413578616
 21
313.7610715749953
  0
LINE
  8
_0-0_90_FRAME
  6
CONTINUOUS
 62
    4
 10
1136.9104413578616
 20
313.7610715749953
 11
1137.1069043104269
 21
313.11412182136735
  0
LINE
  8
_0-0_90_FRAME
  6
CONTINUOUS
 62
    4
 10
1137.1069043104269
 20
313.11412182136735
 11
1137.4277030811536
 21
312.50710254144286
  0
LINE
  8
_0-0_90_FRAME
  6
CONTINUOUS
 62
    4
 10
1137.4277030811536
 20
312.50710254144286
 11
1137.8630903617252
 21
311.95845770887576
  0
LINE
  8
_0-0_90_FRAME
  6
CONTINUOUS
 62
    4
 10
1137.8630903617252
 20
311.95845770887576
 11
1138.3998371299383
 21
311.48485761927594
  0
LINE
  8
_0-0_90_FRAME
  6
CONTINUOUS
 62
    4
 10
1138.3998371299383
 20
311.48485761927594
 11
1139.0216346068478
 21
311.10069237171268
  0
LINE
  8
_0-0_90_FRAME
  6
CONTINUOUS
 62
    4
 10
1139.0216346068478
 20
311.10069237171268
 11
1139.7095897907623
 21
310.81763463283613
  0
LINE
  8
_0-0_90_FRAME
  6
CONTINUOUS
 62
    4
 10
1139.7095897907623
 20
310.81763463283613
 11
1140.4427995115404
 21
310.64428496880805
  0
LINE
  8
_0-0_90_FRAME
  6
CONTINUOUS
 62
    4
 10
1140.4427995115404
 20
310.64428496880805
 11
1141.198985562839
 21
310.58591052145061
  0
LINE
  8
_0-0_90_FRAME
  6
CONTINUOUS
 62
    4
 10
1141.198985562839
 20
310.58591052145061
 11
1141.9551716141375
 21
310.64428496880805
  0
LINE
  8
_0-0_90_FRAME
  6
CONTINUOUS
 62
    4
 10
1141.9551716141375
 20
310.64428496880805
 11
1142.6883813349157
 21
310.81763463283613
  0
LINE
  8
_0-0_90_FRAME
  6
CONTINUOUS
 62
    4
 10
1142.6883813349157
 20
310.81763463283613
 11
1143.3763365188302
 21
311.10069237171268
  0
LINE
  8
_0-0_90_FRAME
  6
CONTINUOUS
 62
    4
 10
1143.3763365188302
 20
311.10069237171268
 11
1143.9981339957396
 21
311.48485761927594
  0
LINE
  8
_0-0_90_FRAME
  6
CONTINUOUS
 62
    4
 10
1143.9981339957396
 20
311.48485761927594
 11
1144.5348807639527
 21
311.95845770887576
  0
LINE
  8
_0-0_90_FRAME
  6
CONTINUOUS
 62
    4
 10
1144.5348807639527
 20
311.95845770887576
 11
1144.9702680445243
 21
312.50710254144286
  0
LINE
  8
_0-0_90_FRAME
  6
CONTINUOUS
 62
    4
 10
1144.9702680445243
 20
312.50710254144286
 11
1145.291066815251
 21
313.11412182136735
  0
LINE
  8
_0-0_90_FRAME
  6
CONTINUOUS
 62
    4
 10
1145.291066815251
 20
313.11412182136735
 11
1145.4875297678163
 21
313.7610715749953
  0
LINE
  8
_0-0_90_FRAME
  6
CONTINUOUS
 62
    4
 10
1145.4875297678163
 20
313.7610715749953
 11
1145.5536874748213
 21
314.42829456143511
  0
LINE
  8
_0-0_90_FRAME
  6
CONTINUOUS
 62
    4
 10
1145.5536874748213
 20
314.42829456143511
 11
1145.5536874748213
 21
314.42829456143511
  0
ARC
  8
_0-0_90_FRAME
  6
CONTINUOUS
 62
    4
 10
1145.681766942821
 20
314.42829456143511
 40
0.1280794679994825
 50
0
 51
180
  0
LINE
  8
_0-0_90_FRAME
  6
CONTINUOUS
 62
    4
 10
1145.8098464108207
 20
314.42829456143511
 11
1145.8098464108207
 21
314.42829456143511
  0
LINE
  8
_0-0_90_FRAME
  6
CONTINUOUS
 62
    4
 10
1145.8098464108207
 20
314.42829456143511
 11
1145.8760041178257
 21
313.7610715749953
  0
LINE
  8
_0-0_90_FRAME
  6
CONTINUOUS
 62
    4
 10
1145.8760041178257
 20
313.7610715749953
 11
1146.072467070391
 21
313.11412182136735
  0
LINE
  8
_0-0_90_FRAME
  6
CONTINUOUS
 62
    4
 10
1146.072467070391
 20
313.11412182136735
 11
1146.3932658411177
 21
312.50710254144286
  0
LINE
  8
_0-0_90_FRAME
  6
CONTINUOUS
 62
    4
 10
1146.3932658411177
 20
312.50710254144286
 11
1146.8286531216893
 21
311.95845770887576
  0
LINE
  8
_0-0_90_FRAME
  6
CONTINUOUS
 62
    4
 10
1146.8286531216893
 20
311.95845770887576
 11
1147.3653998899024
 21
311.48485761927594
  0
LINE
  8
_0-0_90_FRAME
  6
CONTINUOUS
 62
    4
 10
1147.3653998899024
 20
311.48485761927594
 11
1147.9871973668119
 21
311.10069237171268
  0
LINE
  8
_0-0_90_FRAME
  6
CONTINUOUS
 62
    4
 10
1147.9871973668119
 20
311.10069237171268
 11
1148.6751525507264
 21
310.81763463283613
  0
LINE
  8
_0-0_90_FRAME
  6
CONTINUOUS
 62
    4
 10
1148.6751525507264
 20
310.81763463283613
 11
1149.4083622715045
 21
310.64428496880805
  0
LINE
  8
_0-0_90_FRAME
  6
CONTINUOUS
 62
    4
 10
1149.4083622715045
 20
310.64428496880805
 11
1150.1645483228031
 21
310.58591052145061
  0
LINE
  8
_0-0_90_FRAME
  6
CONTINUOUS
 62
    4
 10
1150.1645483228031
 20
310.58591052145061
 11
1150.9207343741016
 21
310.64428496880805
  0
LINE
  8
_0-0_90_FRAME
  6
CONTINUOUS
 62
    4
 10
1150.9207343741016
 20
310.64428496880805
 11
1151.6539440948798
 21
310.81763463283613
  0
LINE
  8
_0-0_90_FRAME
  6
CONTINUOUS
 62
    4
 10
1151.6539440948798
 20
310.81763463283613
 11
1152.3418992787942
 21
311.10069237171268
  0
LINE
  8
_0-0_90_FRAME
  6
CONTINUOUS
 62
    4
 10
1152.3418992787942
 20
311.10069237171268
 11
1152.9636967557037
 21
311.48485761927594
  0
LINE
  8
_0-0_90_FRAME
  6
CONTINUOUS
 62
    4
 10
1152.9636967557037
 20
311.48485761927594
 11
1153.5004435239168
 21
311.95845770887576
  0
LINE
  8
_0-0_90_FRAME
  6
CONTINUOUS
 62
    4
 10
1153.5004435239168
 20
311.95845770887576
 11
1153.9358308044884
 21
312.50710254144286
  0
LINE
  8
_0-0_90_FRAME
  6
CONTINUOUS
 62
    4
 10
1153.9358308044884
 20
312.50710254144286
 11
1154.2566295752151
 21
313.11412182136735
  0
LINE
  8
_0-0_90_FRAME
  6
CONTINUOUS
 62
    4
 10
1154.2566295752151
 20
313.11412182136735
 11
1154.4530925277804
 21
313.7610715749953
  0
LINE
  8
_0-0_90_FRAME
  6
CONTINUOUS
 62
    4
 10
1154.4530925277804
 20
313.7610715749953
 11
1154.5192502347854
 21
314.42829456143511
  0
LINE
  8
_0-0_90_FRAME
  6
CONTINUOUS
 62
    4
 10
1154.5192502347854
 20
314.42829456143511
 11
1154.5192502347854
 21
314.42829456143511
  0
ARC
  8
_0-0_90_FRAME
  6
CONTINUOUS
 62
    4
 10
1154.6473297027851
 20
314.42829456143511
 40
0.1280794679994825
 50
90
 51
180
  0
ARC
  8
_0-0_90_FRAME
  6
CONTINUOUS
 62
    4
 10
1136.7162041828569
 20
314.42829456143511
 40
0.1280794679994825
 50
0
 51
90
  0
ARC
  8
_0-0_90_FRAME
  6
CONTINUOUS
 62
    4
 10
1127.7506414228928
 20
314.42829456143511
 40
0.1280794679994825
 50
0
 51
90
  0
LINE
  8
_0-0_90_FRAME
  6
CONTINUOUS
 62
    4
 10
1130.8245486548813
 20
288.81240096153869
 11
1132.3615022708736
 21
288.81240096153869
  0
LINE
  8
_0-0_90_FRAME
  6
CONTINUOUS
 62
    4
 10
1132.3615022708736
 20
288.81240096153869
 11
1132.3615022708736
 21
287.27544734554533
  0
LINE
  8
_0-0_90_FRAME
  6
CONTINUOUS
 62
    4
 10
1132.3615022708736
 20
287.27544734554533
 11
1130.8245486548813
 21
287.27544734554533
  0
LINE
  8
_0-0_90_FRAME
  6
CONTINUOUS
 62
    4
 10
1130.8245486548813
 20
288.81240096153869
 11
1130.8245486548813
 21
287.27544734554533
  0
LINE
  8
_0-0_90_FRAME
  6
CONTINUOUS
 62
    4
 10
1151.5734224707967
 20
288.81240096153869
 11
1150.0364688548043
 21
288.81240096153869
  0
LINE
  8
_0-0_90_FRAME
  6
CONTINUOUS
 62
    4
 10
1150.0364688548043
 20
288.81240096153869
 11
1150.0364688548043
 21
287.27544734554533
  0
LINE
  8
_0-0_90_FRAME
  6
CONTINUOUS
 62
    4
 10
1150.0364688548043
 20
287.27544734554533
 11
1151.5734224707967
 21
287.27544734554533
  0
LINE
  8
_0-0_90_FRAME
  6
CONTINUOUS
 62
    4
 10
1151.5734224707967
 20
288.81240096153869
 11
1151.5734224707967
 21
287.27544734554533
  0
LINE
  8
_0-0_90_FRAME
  6
CONTINUOUS
 62
    4
 10
1134.6669326948659
 20
288.81240096153869
 11
1136.2038863108583
 21
288.81240096153869
  0
LINE
  8
_0-0_90_FRAME
  6
CONTINUOUS
 62
    4
 10
1136.2038863108583
 20
288.81240096153869
 11
1136.2038863108583
 21
287.27544734554533
  0
LINE
  8
_0-0_90_FRAME
  6
CONTINUOUS
 62
    4
 10
1136.2038863108583
 20
287.27544734554533
 11
1134.6669326948659
 21
287.27544734554533
  0
LINE
  8
_0-0_90_FRAME
  6
CONTINUOUS
 62
    4
 10
1134.6669326948659
 20
288.81240096153869
 11
1134.6669326948659
 21
287.27544734554533
  0
LINE
  8
_0-0_90_FRAME
  6
CONTINUOUS
 62
    4
 10
1138.5093167348505
 20
288.81240096153869
 11
1140.0462703508429
 21
288.81240096153869
  0
LINE
  8
_0-0_90_FRAME
  6
CONTINUOUS
 62
    4
 10
1140.0462703508429
 20
288.81240096153869
 11
1140.0462703508429
 21
287.27544734554533
  0
LINE
  8
_0-0_90_FRAME
  6
CONTINUOUS
 62
    4
 10
1140.0462703508429
 20
287.27544734554533
 11
1138.5093167348505
 21
287.27544734554533
  0
LINE
  8
_0-0_90_FRAME
  6
CONTINUOUS
 62
    4
 10
1138.5093167348505
 20
288.81240096153869
 11
1138.5093167348505
 21
287.27544734554533
  0
LINE
  8
_0-0_90_FRAME
  6
CONTINUOUS
 62
    4
 10
1142.3517007748351
 20
288.81240096153869
 11
1143.8886543908275
 21
288.81240096153869
  0
LINE
  8
_0-0_90_FRAME
  6
CONTINUOUS
 62
    4
 10
1143.8886543908275
 20
288.81240096153869
 11
1143.8886543908275
 21
287.27544734554533
  0
LINE
  8
_0-0_90_FRAME
  6
CONTINUOUS
 62
    4
 10
1143.8886543908275
 20
287.27544734554533
 11
1142.3517007748351
 21
287.27544734554533
  0
LINE
  8
_0-0_90_FRAME
  6
CONTINUOUS
 62
    4
 10
1142.3517007748351
 20
288.81240096153869
 11
1142.3517007748351
 21
287.27544734554533
  0
LINE
  8
_0-0_90_FRAME
  6
CONTINUOUS
 62
    4
 10
1146.1940848148197
 20
288.81240096153869
 11
1147.7310384308121
 21
288.81240096153869
  0
LINE
  8
_0-0_90_FRAME
  6
CONTINUOUS
 62
    4
 10
1147.7310384308121
 20
288.81240096153869
 11
1147.7310384308121
 21
287.27544734554533
  0
LINE
  8
_0-0_90_FRAME
  6
CONTINUOUS
 62
    4
 10
1147.7310384308121
 20
287.27544734554533
 11
1146.1940848148197
 21
287.27544734554533
  0
LINE
  8
_0-0_90_FRAME
  6
CONTINUOUS
 62
    4
 10
1146.1940848148197
 20
288.81240096153869
 11
1146.1940848148197
 21
287.27544734554533
  0
LINE
  8
_0-0_90_FRAME
  6
CONTINUOUS
 62
    4
 10
1141.1830709291019
 20
303.43725475870008
 11
1141.1830709291019
 21
303.43725475870008
  0
LINE
  8
_0-0_90_FRAME
  6
CONTINUOUS
 62
    4
 10
1141.1830709291019
 20
303.43725475870008
 11
1141.138317186128
 21
303.92655161542262
  0
LINE
  8
_0-0_90_FRAME
  6
CONTINUOUS
 62
    4
 10
1141.138317186128
 20
303.92655161542262
 11
1141.0054157770396
 21
304.40098143474978
  0
LINE
  8
_0-0_90_FRAME
  6
CONTINUOUS
 62
    4
 10
1141.0054157770396
 20
304.40098143474978
 11
1140.7884048439009
 21
304.84612890669439
  0
LINE
  8
_0-0_90_FRAME
  6
CONTINUOUS
 62
    4
 10
1140.7884048439009
 20
304.84612890669439
 11
1140.4938781541025
 21
305.24846845057692
  0
LINE
  8
_0-0_90_FRAME
  6
CONTINUOUS
 62
    4
 10
1140.4938781541025
 20
305.24846845057692
 11
1140.1307847520759
 21
305.59577518295015
  0
LINE
  8
_0-0_90_FRAME
  6
CONTINUOUS
 62
    4
 10
1140.1307847520759
 20
305.59577518295015
 11
1139.7101570471079
 21
305.87749636449655
  0
LINE
  8
_0-0_90_FRAME
  6
CONTINUOUS
 62
    4
 10
1139.7101570471079
 20
305.87749636449655
 11
1139.2447755991657
 21
306.08507203967264
  0
LINE
  8
_0-0_90_FRAME
  6
CONTINUOUS
 62
    4
 10
1139.2447755991657
 20
306.08507203967264
 11
1138.7487807880509
 21
306.21219512662663
  0
LINE
  8
_0-0_90_FRAME
  6
CONTINUOUS
 62
    4
 10
1138.7487807880509
 20
306.21219512662663
 11
1138.2372431651138
 21
306.2550030546887
  0
LINE
  8
_0-0_90_FRAME
  6
CONTINUOUS
 62
    4
 10
1138.2372431651138
 20
306.2550030546887
 11
1137.7257055421767
 21
306.21219512662663
  0
LINE
  8
_0-0_90_FRAME
  6
CONTINUOUS
 62
    4
 10
1137.7257055421767
 20
306.21219512662663
 11
1137.2297107310619
 21
306.08507203967264
  0
LINE
  8
_0-0_90_FRAME
  6
CONTINUOUS
 62
    4
 10
1137.2297107310619
 20
306.08507203967264
 11
1136.7643292831197
 21
305.87749636449655
  0
LINE
  8
_0-0_90_FRAME
  6
CONTINUOUS
 62
    4
 10
1136.7643292831197
 20
305.87749636449655
 11
1136.3437015781517
 21
305.59577518295015
  0
LINE
  8
_0-0_90_FRAME
  6
CONTINUOUS
 62
    4
 10
1136.3437015781517
 20
305.59577518295015
 11
1135.9806081761251
 21
305.24846845057692
  0
LINE
  8
_0-0_90_FRAME
  6
CONTINUOUS
 62
    4
 10
1135.9806081761251
 20
305.24846845057692
 11
1135.6860814863267
 21
304.84612890669439
  0
LINE
  8
_0-0_90_FRAME
  6
CONTINUOUS
 62
    4
 10
1135.6860814863267
 20
304.84612890669439
 11
1135.469070553188
 21
304.40098143474978
  0
LINE
  8
_0-0_90_FRAME
  6
CONTINUOUS
 62
    4
 10
1135.469070553188
 20
304.40098143474978
 11
1135.3361691440996
 21
303.92655161542262
  0
LINE
  8
_0-0_90_FRAME
  6
CONTINUOUS
 62
    4
 10
1135.3361691440996
 20
303.92655161542262
 11
1135.2914154011257
 21
303.43725475870008
  0
LINE
  8
_0-0_90_FRAME
  6
CONTINUOUS
 62
    4
 10
1135.2914154011257
 20
303.43725475870008
 11
1135.2914154011257
 21
303.43725475870008
  0
LINE
  8
_0-0_90_FRAME
  6
CONTINUOUS
 62
    4
 10
1141.1830709291016
 20
303.43725475870008
 11
1141.1830709291016
 21
302.66877795070303
  0
LINE
  8
_0-0_90_FRAME
  6
CONTINUOUS
 62
    4
 10
1139.7932166497849
 20
300.27616396096397
 11
1139.7932166497849
 21
300.27616396096397
  0
LINE
  8
_0-0_90_FRAME
  6
CONTINUOUS
 62
    4
 10
1139.7932166497849
 20
300.27616396096397
 11
1139.3352197180673
 21
300.05406866005791
  0
LINE
  8
_0-0_90_FRAME
  6
CONTINUOUS
 62
    4
 10
1139.3352197180673
 20
300.05406866005791
 11
1138.8438613243909
 21
299.91141997784138
  0
LINE
  8
_0-0_90_FRAME
  6
CONTINUOUS
 62
    4
 10
1138.8438613243909
 20
299.91141997784138
 11
1138.3340711449086
 21
299.85255222233974
  0
LINE
  8
_0-0_90_FRAME
  6
CONTINUOUS
 62
    4
 10
1138.3340711449086
 20
299.85255222233974
 11
1137.8213388962574
 21
299.87925406051551
  0
LINE
  8
_0-0_90_FRAME
  6
CONTINUOUS
 62
    4
 10
1137.8213388962574
 20
299.87925406051551
 11
1137.321243688358
 21
299.99071417052738
  0
LINE
  8
_0-0_90_FRAME
  6
CONTINUOUS
 62
    4
 10
1137.321243688358
 20
299.99071417052738
 11
1136.8489806610414
 21
300.18354589333421
  0
LINE
  8
_0-0_90_FRAME
  6
CONTINUOUS
 62
    4
 10
1136.8489806610414
 20
300.18354589333421
 11
1136.4188992874165
 21
300.45189013461612
  0
LINE
  8
_0-0_90_FRAME
  6
CONTINUOUS
 62
    4
 10
1136.4188992874165
 20
300.45189013461612
 11
1136.044067372389
 21
300.78759339039044
  0
LINE
  8
_0-0_90_FRAME
  6
CONTINUOUS
 62
    4
 10
1136.044067372389
 20
300.78759339039044
 11
1135.735873994023
 21
301.18045548710461
  0
LINE
  8
_0-0_90_FRAME
  6
CONTINUOUS
 62
    4
 10
1135.735873994023
 20
301.18045548710461
 11
1135.5036834521666
 21
301.61853950874763
  0
LINE
  8
_0-0_90_FRAME
  6
CONTINUOUS
 62
    4
 10
1135.5036834521666
 20
301.61853950874763
 11
1135.3545507389401
 21
302.08853449400323
  0
LINE
  8
_0-0_90_FRAME
  6
CONTINUOUS
 62
    4
 10
1135.3545507389401
 20
302.08853449400323
 11
1135.2930071763703
 21
302.57615988307327
  0
LINE
  8
_0-0_90_FRAME
  6
CONTINUOUS
 62
    4
 10
1135.2930071763703
 20
302.57615988307327
 11
1135.2914154011257
 21
302.66877795070303
  0
LINE
  8
_0-0_90_FRAME
  6
CONTINUOUS
 62
    4
 10
1140.1156364008593
 20
303.36189525489243
 11
1140.1156364008593
 21
302.74711380849493
  0
LINE
  8
_0-0_90_FRAME
  6
CONTINUOUS
 62
    4
 10
1147.1544692548678
 20
302.43707915951853
 11
1147.1544692548678
 21
306.25500305468915
  0
LINE
  8
_0-0_90_FRAME
  6
CONTINUOUS
 62
    4
 10
1146.0017540428717
 20
302.66877795070303
 11
1146.0017540428717
 21
306.25500305468915
  0
LINE
  8
_0-0_90_FRAME
  6
CONTINUOUS
 62
    4
 10
1146.0017540428717
 20
306.25500305468915
 11
1147.1544692548678
 21
306.25500305468915
  0
LINE
  8
_0-0_90_FRAME
  6
CONTINUOUS
 62
    4
 10
1141.7751315988889
 20
302.43707915951853
 11
1141.7751315988889
 21
306.25500305468915
  0
LINE
  8
_0-0_90_FRAME
  6
CONTINUOUS
 62
    4
 10
1142.9278468108851
 20
302.66877795070303
 11
1142.9278468108851
 21
306.25500305468915
  0
ARC
  8
_0-0_90_FRAME
  6
CONTINUOUS
 62
    4
 10
1144.4827035684402
 20
302.55292855511209
 40
2.7100492712792987
 50
182.45003099226136
 51
265.55525728852427
  0
LINE
  8
_0-0_90_FRAME
  6
CONTINUOUS
 62
    4
 10
1142.9278468108851
 20
306.25500305468915
 11
1141.7751315988889
 21
306.25500305468915
  0
LINE
  8
_0-0_90_FRAME
  6
CONTINUOUS
 62
    4
 10
1144.6569196288774
 20
299.85102965471486
 11
1144.2726812248793
 21
299.85102965471486
  0
ARC
  8
_0-0_90_FRAME
  6
CONTINUOUS
 62
    4
 10
1145.2143228132891
 20
302.63895785339093
 40
2.2866704501913206
 50
179.25279388138676
 51
218.96457184688023
  0
ARC
  8
_0-0_90_FRAME
  6
CONTINUOUS
 62
    4
 10
1143.7152780404676
 20
302.63895785339093
 40
2.2866704501910635
 50
321.03542815311977
 51
0.747206118613265
  0
ARC
  8
_0-0_90_FRAME
  6
CONTINUOUS
 62
    4
 10
1144.4648004268793
 20
303.06847596532236
 40
2.1319312674000637
 50
241.1577278083189
 51
298.8422721916811
  0
LINE
  8
_0-0_90_FRAME
  6
CONTINUOUS
 62
    4
 10
1138.4855207903047
 20
301.54886516129147
 11
1139.0084980424681
 21
301.03988306752234
  0
LINE
  8
_0-0_90_FRAME
  6
CONTINUOUS
 62
    4
 10
1138.4855207903047
 20
301.54886516129147
 11
1139.0528433856116
 21
302.15128274654143
  0
LINE
  8
_0-0_90_FRAME
  6
CONTINUOUS
 62
    4
 10
1140.683692320069
 20
299.40951790850806
 11
1141.4249553535528
 21
300.19663601443347
  0
LINE
  8
_0-0_90_FRAME
  6
CONTINUOUS
 62
    4
 10
1136.3588499293683
 20
303.36189525489243
 11
1136.3588499293683
 21
302.74711380849493
  0
LINE
  8
_0-0_90_FRAME
  6
CONTINUOUS
 62
    4
 10
1140.1156364008591
 20
303.36189525489243
 11
1140.1156364008591
 21
303.36189525489243
  0
LINE
  8
_0-0_90_FRAME
  6
CONTINUOUS
 62
    4
 10
1140.1156364008591
 20
303.36189525489243
 11
1140.0870993868816
 21
303.68635202240381
  0
LINE
  8
_0-0_90_FRAME
  6
CONTINUOUS
 62
    4
 10
1140.0870993868816
 20
303.68635202240381
 11
1140.0023554276779
 21
304.0009503352174
  0
LINE
  8
_0-0_90_FRAME
  6
CONTINUOUS
 62
    4
 10
1140.0023554276779
 20
304.0009503352174
 11
1139.8639794255662
 21
304.29613128279283
  0
LINE
  8
_0-0_90_FRAME
  6
CONTINUOUS
 62
    4
 10
1139.8639794255662
 20
304.29613128279283
 11
1139.6761758653488
 21
304.56292594140672
  0
LINE
  8
_0-0_90_FRAME
  6
CONTINUOUS
 62
    4
 10
1139.6761758653488
 20
304.56292594140672
 11
1139.4446510631699
 21
304.79322789036172
  0
LINE
  8
_0-0_90_FRAME
  6
CONTINUOUS
 62
    4
 10
1139.4446510631699
 20
304.79322789036172
 11
1139.1764397829866
 21
304.98003952147724
  0
LINE
  8
_0-0_90_FRAME
  6
CONTINUOUS
 62
    4
 10
1139.1764397829866
 20
304.98003952147724
 11
1138.8796914888253
 21
305.1176846578731
  0
LINE
  8
_0-0_90_FRAME
  6
CONTINUOUS
 62
    4
 10
1138.8796914888253
 20
305.1176846578731
 11
1138.5634227274429
 21
305.20198102173168
  0
LINE
  8
_0-0_90_FRAME
  6
CONTINUOUS
 62
    4
 10
1138.5634227274429
 20
305.20198102173168
 11
1138.2372431651138
 21
305.23036731069317
  0
LINE
  8
_0-0_90_FRAME
  6
CONTINUOUS
 62
    4
 10
1138.2372431651138
 20
305.23036731069317
 11
1137.9110636027847
 21
305.20198102173168
  0
LINE
  8
_0-0_90_FRAME
  6
CONTINUOUS
 62
    4
 10
1137.9110636027847
 20
305.20198102173168
 11
1137.5947948414023
 21
305.1176846578731
  0
LINE
  8
_0-0_90_FRAME
  6
CONTINUOUS
 62
    4
 10
1137.5947948414023
 20
305.1176846578731
 11
1137.298046547241
 21
304.98003952147724
  0
LINE
  8
_0-0_90_FRAME
  6
CONTINUOUS
 62
    4
 10
1137.298046547241
 20
304.98003952147724
 11
1137.0298352670577
 21
304.79322789036172
  0
LINE
  8
_0-0_90_FRAME
  6
CONTINUOUS
 62
    4
 10
1137.0298352670577
 20
304.79322789036172
 11
1136.7983104648788
 21
304.56292594140672
  0
LINE
  8
_0-0_90_FRAME
  6
CONTINUOUS
 62
    4
 10
1136.7983104648788
 20
304.56292594140672
 11
1136.6105069046614
 21
304.29613128279283
  0
LINE
  8
_0-0_90_FRAME
  6
CONTINUOUS
 62
    4
 10
1136.6105069046614
 20
304.29613128279283
 11
1136.4721309025497
 21
304.0009503352174
  0
LINE
  8
_0-0_90_FRAME
  6
CONTINUOUS
 62
    4
 10
1136.4721309025497
 20
304.0009503352174
 11
1136.387386943346
 21
303.68635202240381
  0
LINE
  8
_0-0_90_FRAME
  6
CONTINUOUS
 62
    4
 10
1136.387386943346
 20
303.68635202240381
 11
1136.3588499293685
 21
303.36189525489243
  0
LINE
  8
_0-0_90_FRAME
  6
CONTINUOUS
 62
    4
 10
1136.3588499293685
 20
303.36189525489243
 11
1136.3588499293685
 21
303.36189525489243
  0
LINE
  8
_0-0_90_FRAME
  6
CONTINUOUS
 62
    4
 10
1139.0084980424676
 20
301.03988306752194
 11
1139.0084980424676
 21
301.03988306752194
  0
LINE
  8
_0-0_90_FRAME
  6
CONTINUOUS
 62
    4
 10
1139.0084980424676
 20
301.03988306752194
 11
1138.6993638474794
 21
300.93251235479357
  0
LINE
  8
_0-0_90_FRAME
  6
CONTINUOUS
 62
    4
 10
1138.6993638474794
 20
300.93251235479357
 11
1138.3761883494017
 21
300.88018695399353
  0
LINE
  8
_0-0_90_FRAME
  6
CONTINUOUS
 62
    4
 10
1138.3761883494017
 20
300.88018695399353
 11
1138.048791072209
 21
300.88449674594722
  0
LINE
  8
_0-0_90_FRAME
  6
CONTINUOUS
 62
    4
 10
1138.048791072209
 20
300.88449674594722
 11
1137.7271198164979
 21
300.94531077980707
  0
LINE
  8
_0-0_90_FRAME
  6
CONTINUOUS
 62
    4
 10
1137.7271198164979
 20
300.94531077980707
 11
1137.4209484005996
 21
301.06078125192749
  0
LINE
  8
_0-0_90_FRAME
  6
CONTINUOUS
 62
    4
 10
1137.4209484005996
 20
301.06078125192749
 11
1137.1395796880561
 21
301.22739965044411
  0
LINE
  8
_0-0_90_FRAME
  6
CONTINUOUS
 62
    4
 10
1137.1395796880561
 20
301.22739965044411
 11
1136.8915629248183
 21
301.44010335963094
  0
LINE
  8
_0-0_90_FRAME
  6
CONTINUOUS
 62
    4
 10
1136.8915629248183
 20
301.44010335963094
 11
1136.6844339747349
 21
301.69242948491757
  0
LINE
  8
_0-0_90_FRAME
  6
CONTINUOUS
 62
    4
 10
1136.6844339747349
 20
301.69242948491757
 11
1136.5244863461419
 21
301.9767112246704
  0
LINE
  8
_0-0_90_FRAME
  6
CONTINUOUS
 62
    4
 10
1136.5244863461419
 20
301.9767112246704
 11
1136.4165799667965
 21
302.2843108220805
  0
LINE
  8
_0-0_90_FRAME
  6
CONTINUOUS
 62
    4
 10
1136.4165799667965
 20
302.2843108220805
 11
1136.3639935174319
 21
302.60588201903352
  0
LINE
  8
_0-0_90_FRAME
  6
CONTINUOUS
 62
    4
 10
1136.3639935174319
 20
302.60588201903352
 11
1136.3588475713218
 21
302.74413745451068
  0
LINE
  8
_0-0_90_FRAME
  6
CONTINUOUS
 62
    4
 10
1129.6729023859161
 20
299.85102965471486
 11
1130.8225709234639
 21
299.85102965471486
  0
LINE
  8
_0-0_90_FRAME
  6
CONTINUOUS
 62
    4
 10
1129.6729023859161
 20
299.85102965471486
 11
1129.6729023859161
 21
299.881768727034
  0
LINE
  8
_0-0_90_FRAME
  6
CONTINUOUS
 62
    4
 10
1129.6729023859161
 20
299.881768727034
 11
1132.0877633065857
 21
306.25500305468915
  0
LINE
  8
_0-0_90_FRAME
  6
CONTINUOUS
 62
    4
 10
1129.6729023859161
 20
299.85102965471486
 11
1129.6729023859161
 21
299.881768727034
  0
LINE
  8
_0-0_90_FRAME
  6
CONTINUOUS
 62
    4
 10
1131.449368058672
 20
301.53934186441995
 11
1133.813708134735
 21
301.53934186441995
  0
LINE
  8
_0-0_90_FRAME
  6
CONTINUOUS
 62
    4
 10
1131.795981792774
 20
302.51274582121567
 11
1133.4670944006348
 21
302.51274582121567
  0
LINE
  8
_0-0_90_FRAME
  6
CONTINUOUS
 62
    4
 10
1135.5645579138918
 20
299.85102965471486
 11
1134.4148893763459
 21
299.85102965471486
  0
LINE
  8
_0-0_90_FRAME
  6
CONTINUOUS
 62
    4
 10
1134.4148893763459
 20
299.85102965471486
 11
1133.813708134735
 21
301.53934186441995
  0
LINE
  8
_0-0_90_FRAME
  6
CONTINUOUS
 62
    4
 10
1135.5645579138918
 20
299.881768727034
 11
1133.1496969932223
 21
306.25500305468915
  0
LINE
  8
_0-0_90_FRAME
  6
CONTINUOUS
 62
    4
 10
1135.5645579138918
 20
299.85102965471486
 11
1135.5645579138918
 21
299.881768727034
  0
LINE
  8
_0-0_90_FRAME
  6
CONTINUOUS
 62
    4
 10
1132.0877633065857
 20
306.25500305468915
 11
1133.1496969932223
 21
306.25500305468915
  0
LINE
  8
_0-0_90_FRAME
  6
CONTINUOUS
 62
    4
 10
1133.4670944006348
 20
302.51274582121567
 11
1132.618730149904
 21
304.89522821363352
  0
LINE
  8
_0-0_90_FRAME
  6
CONTINUOUS
 62
    4
 10
1139.0528433856116
 20
302.15128274654143
 11
1141.4249553535528
 21
300.19663601443347
  0
LINE
  8
_0-0_90_FRAME
  6
CONTINUOUS
 62
    4
 10
1139.7932166497858
 20
300.27616396096448
 11
1140.683692320069
 21
299.40951790850806
  0
LINE
  8
_0-0_90_FRAME
  6
CONTINUOUS
 62
    4
 10
1131.449368058672
 20
301.53934186441995
 11
1131.795981792774
 21
302.51274582121567
  0
LINE
  8
_0-0_90_FRAME
  6
CONTINUOUS
 62
    4
 10
1141.1830709291019
 20
302.66877795070303
 11
1141.1830709291019
 21
302.66877795070303
  0
LINE
  8
_0-0_90_FRAME
  6
CONTINUOUS
 62
    4
 10
1141.1830709291019
 20
302.66877795070303
 11
1141.138317186128
 21
302.17948109398048
  0
LINE
  8
_0-0_90_FRAME
  6
CONTINUOUS
 62
    4
 10
1141.138317186128
 20
302.17948109398048
 11
1141.0054157770396
 21
301.70505127465333
  0
LINE
  8
_0-0_90_FRAME
  6
CONTINUOUS
 62
    4
 10
1141.0054157770396
 20
301.70505127465333
 11
1140.7884048439009
 21
301.25990380270872
  0
LINE
  8
_0-0_90_FRAME
  6
CONTINUOUS
 62
    4
 10
1140.7884048439009
 20
301.25990380270872
 11
1140.5619149397933
 21
300.93808082187655
  0
LINE
  8
_0-0_90_FRAME
  6
CONTINUOUS
 62
    4
 10
1140.1156387589058
 20
302.74413745451068
 11
1140.1156387589058
 21
302.74413745451068
  0
LINE
  8
_0-0_90_FRAME
  6
CONTINUOUS
 62
    4
 10
1140.1156387589058
 20
302.74413745451068
 11
1140.0871017091042
 21
302.41957669858215
  0
LINE
  8
_0-0_90_FRAME
  6
CONTINUOUS
 62
    4
 10
1140.0871017091042
 20
302.41957669858215
 11
1140.0023576435169
 21
302.10487755698688
  0
LINE
  8
_0-0_90_FRAME
  6
CONTINUOUS
 62
    4
 10
1140.0023576435169
 20
302.10487755698688
 11
1139.8639814676944
 21
301.80960200389671
  0
LINE
  8
_0-0_90_FRAME
  6
CONTINUOUS
 62
    4
 10
1139.8639814676944
 20
301.80960200389671
 11
1139.7365524501108
 21
301.61818872363818
  0
LINE
  8
_0-0_90_FRAME
  6
CONTINUOUS
 62
    4
 10
1135.291415401126
 20
303.43725475870008
 11
1135.291415401126
 21
302.66877795070303
  0
LINE
  8
_0-0_90_FRAME
  6
CONTINUOUS
 62
    4
 10
1130.8225709234639
 20
299.85102965471486
 11
1132.618730149904
 21
304.89522821363352
  0
LINE
  8
_0-0_90_FRAME
  6
CONTINUOUS
 62
    4
 10
1147.0895721477837
 20
299.85102965471486
 11
1148.2392406853314
 21
299.85102965471486
  0
LINE
  8
_0-0_90_FRAME
  6
CONTINUOUS
 62
    4
 10
1147.0895721477837
 20
299.85102965471486
 11
1147.0895721477837
 21
299.881768727034
  0
LINE
  8
_0-0_90_FRAME
  6
CONTINUOUS
 62
    4
 10
1147.0895721477837
 20
299.881768727034
 11
1149.504433068455
 21
306.25500305468915
  0
LINE
  8
_0-0_90_FRAME
  6
CONTINUOUS
 62
    4
 10
1147.0895721477837
 20
299.85102965471486
 11
1147.0895721477837
 21
299.881768727034
  0
LINE
  8
_0-0_90_FRAME
  6
CONTINUOUS
 62
    4
 10
1148.8660378205414
 20
301.53934186441995
 11
1151.2303778966043
 21
301.53934186441995
  0
LINE
  8
_0-0_90_FRAME
  6
CONTINUOUS
 62
    4
 10
1149.2126515546415
 20
302.51274582121567
 11
1150.8837641625041
 21
302.51274582121567
  0
LINE
  8
_0-0_90_FRAME
  6
CONTINUOUS
 62
    4
 10
1152.9812276757611
 20
299.85102965471486
 11
1151.8315591382134
 21
299.85102965471486
  0
LINE
  8
_0-0_90_FRAME
  6
CONTINUOUS
 62
    4
 10
1151.8315591382134
 20
299.85102965471486
 11
1151.2303778966043
 21
301.53934186441995
  0
LINE
  8
_0-0_90_FRAME
  6
CONTINUOUS
 62
    4
 10
1152.9812276757611
 20
299.881768727034
 11
1150.5663667550916
 21
306.25500305468915
  0
LINE
  8
_0-0_90_FRAME
  6
CONTINUOUS
 62
    4
 10
1152.9812276757611
 20
299.85102965471486
 11
1152.9812276757611
 21
299.881768727034
  0
LINE
  8
_0-0_90_FRAME
  6
CONTINUOUS
 62
    4
 10
1149.504433068455
 20
306.25500305468915
 11
1150.5663667550916
 21
306.25500305468915
  0
LINE
  8
_0-0_90_FRAME
  6
CONTINUOUS
 62
    4
 10
1150.8837641625041
 20
302.51274582121567
 11
1150.0353999117733
 21
304.89522821363352
  0
LINE
  8
_0-0_90_FRAME
  6
CONTINUOUS
 62
    4
 10
1148.8660378205414
 20
301.53934186441995
 11
1149.2126515546415
 21
302.51274582121567
  0
LINE
  8
_0-0_90_FRAME
  6
CONTINUOUS
 62
    4
 10
1148.2392406853314
 20
299.85102965471486
 11
1150.0353999117733
 21
304.89522821363352
  0
ARC
  8
_0-0_90_FRAME
  6
CONTINUOUS
 62
    4
 10
1144.4468972853165
 20
302.55292855511209
 40
2.7100492712792987
 50
274.44474271147573
 51
357.5499690077387
  0
LINE
  8
_0-0_90_FRAME
  6
CONTINUOUS
 62
    4
 10
1139.736552450112
 20
301.61818872363909
 11
1140.5619149397944
 21
300.93808082187678
  0
LINE
  8
_0-0_90_FRAME
  6
CONTINUOUS
 62
    4
 10
1140.1848354847448
 20
295.31700211156283
 11
1140.1848354847448
 21
295.31700211156283
  0
LINE
  8
_0-0_90_FRAME
  6
CONTINUOUS
 62
    4
 10
1140.1848354847448
 20
295.31700211156283
 11
1140.5076723411937
 21
295.44750873472537
  0
LINE
  8
_0-0_90_FRAME
  6
CONTINUOUS
 62
    4
 10
1140.5076723411937
 20
295.44750873472537
 11
1140.7977920218902
 21
295.62171152103235
  0
LINE
  8
_0-0_90_FRAME
  6
CONTINUOUS
 62
    4
 10
1140.7977920218902
 20
295.62171152103235
 11
1141.046379387144
 21
295.83431740697262
  0
LINE
  8
_0-0_90_FRAME
  6
CONTINUOUS
 62
    4
 10
1141.046379387144
 20
295.83431740697262
 11
1141.2458812356535
 21
296.07886647028573
  0
LINE
  8
_0-0_90_FRAME
  6
CONTINUOUS
 62
    4
 10
1141.2458812356535
 20
296.07886647028573
 11
1141.3902358047042
 21
296.3479282114306
  0
LINE
  8
_0-0_90_FRAME
  6
CONTINUOUS
 62
    4
 10
1141.3902358047042
 20
296.3479282114306
 11
1141.4750569537625
 21
296.63332732555449
  0
LINE
  8
_0-0_90_FRAME
  6
CONTINUOUS
 62
    4
 10
1141.4750569537625
 20
296.63332732555449
 11
1141.497767435136
 21
296.92639210499357
  0
LINE
  8
_0-0_90_FRAME
  6
CONTINUOUS
 62
    4
 10
1141.497767435136
 20
296.92639210499357
 11
1141.4576772023399
 21
297.21821792472252
  0
LINE
  8
_0-0_90_FRAME
  6
CONTINUOUS
 62
    4
 10
1141.4576772023399
 20
297.21821792472252
 11
1141.3560043768114
 21
297.49993780487989
  0
LINE
  8
_0-0_90_FRAME
  6
CONTINUOUS
 62
    4
 10
1141.3560043768114
 20
297.49993780487989
 11
1141.1958382359051
 21
297.76299182946423
  0
LINE
  8
_0-0_90_FRAME
  6
CONTINUOUS
 62
    4
 10
1141.1958382359051
 20
297.76299182946423
 11
1140.9820453467644
 21
297.99938723505028
  0
LINE
  8
_0-0_90_FRAME
  6
CONTINUOUS
 62
    4
 10
1140.9820453467644
 20
297.99938723505028
 11
1140.7211216981416
 21
298.20194126686124
  0
LINE
  8
_0-0_90_FRAME
  6
CONTINUOUS
 62
    4
 10
1140.7211216981416
 20
298.20194126686124
 11
1140.4209953230661
 21
298.36449942313772
  0
LINE
  8
_0-0_90_FRAME
  6
CONTINUOUS
 62
    4
 10
1140.4209953230661
 20
298.36449942313772
 11
1140.0907854095738
 21
298.48212245655975
  0
LINE
  8
_0-0_90_FRAME
  6
CONTINUOUS
 62
    4
 10
1140.0907854095738
 20
298.48212245655975
 11
1139.7405252187912
 21
298.5512364507768
  0
LINE
  8
_0-0_90_FRAME
  6
CONTINUOUS
 62
    4
 10
1139.7405252187912
 20
298.5512364507768
 11
1139.4309002291238
 21
298.57023497471954
  0
LINE
  8
_0-0_90_FRAME
  6
CONTINUOUS
 62
    4
 10
1143.8785352919958
 20
293.19089731874112
 11
1143.8785352919958
 21
297.54559923072355
  0
LINE
  8
_0-0_90_FRAME
  6
CONTINUOUS
 62
    4
 10
1142.7258200799997
 20
293.19089731874112
 11
1142.7258200799997
 21
297.54559923072355
  0
LINE
  8
_0-0_90_FRAME
  6
CONTINUOUS
 62
    4
 10
1142.5977406119991
 20
298.57023497471999
 11
1144.0066147599946
 21
298.57023497471999
  0
LINE
  8
_0-0_90_FRAME
  6
CONTINUOUS
 62
    4
 10
1136.4850724651378
 20
298.57023497471999
 11
1136.4850724651378
 21
292.16626157474565
  0
LINE
  8
_0-0_90_FRAME
  6
CONTINUOUS
 62
    4
 10
1142.5977406119991
 20
292.16626157474565
 11
1144.0066147599946
 21
292.16626157474565
  0
LINE
  8
_0-0_90_FRAME
  6
CONTINUOUS
 62
    4
 10
1144.0066147599946
 20
292.16626157474565
 11
1144.0066147599946
 21
293.06281785074242
  0
ARC
  8
_0-0_90_FRAME
  6
CONTINUOUS
 62
    4
 10
1144.0066147599946
 20
293.19089731874112
 40
0.1280794679994825
 50
180
 51
270
  0
LINE
  8
_0-0_90_FRAME
  6
CONTINUOUS
 62
    4
 10
1142.5977406119991
 20
292.16626157474565
 11
1142.5977406119991
 21
293.06281785074242
  0
ARC
  8
_0-0_90_FRAME
  6
CONTINUOUS
 62
    4
 10
1142.5977406119991
 20
293.19089731874112
 40
0.1280794679994825
 50
270
 51
0
  0
LINE
  8
_0-0_90_FRAME
  6
CONTINUOUS
 62
    4
 10
1144.0066147599946
 20
298.57023497471999
 11
1144.0066147599946
 21
297.67367869872322
  0
ARC
  8
_0-0_90_FRAME
  6
CONTINUOUS
 62
    4
 10
1144.0066147599946
 20
297.54559923072355
 40
0.1280794679994825
 50
90
 51
180
  0
LINE
  8
_0-0_90_FRAME
  6
CONTINUOUS
 62
    4
 10
1142.5977406119991
 20
298.57023497471999
 11
1142.5977406119991
 21
297.67367869872322
  0
ARC
  8
_0-0_90_FRAME
  6
CONTINUOUS
 62
    4
 10
1142.5977406119991
 20
297.54559923072355
 40
0.1280794679994825
 50
0
 51
90
  0
LINE
  8
_0-0_90_FRAME
  6
CONTINUOUS
 62
    4
 10
1133.7057688193299
 20
292.16626157474565
 11
1133.7057688193299
 21
297.54559923072355
  0
LINE
  8
_0-0_90_FRAME
  6
CONTINUOUS
 62
    4
 10
1132.5530536073356
 20
292.16626157474565
 11
1132.5530536073356
 21
297.54559923072355
  0
LINE
  8
_0-0_90_FRAME
  6
CONTINUOUS
 62
    4
 10
1130.5037821193446
 20
298.57023497471999
 11
1135.7550403073228
 21
298.57023497471999
  0
LINE
  8
_0-0_90_FRAME
  6
CONTINUOUS
 62
    4
 10
1132.5530536073356
 20
292.16626157474565
 11
1133.7057688193299
 21
292.16626157474565
  0
LINE
  8
_0-0_90_FRAME
  6
CONTINUOUS
 62
    4
 10
1135.7550403073228
 20
298.57023497471999
 11
1135.7550403073228
 21
297.67367869872322
  0
ARC
  8
_0-0_90_FRAME
  6
CONTINUOUS
 62
    4
 10
1133.8338482873305
 20
297.54559923072355
 40
0.1280794679994825
 50
90
 51
180
  0
LINE
  8
_0-0_90_FRAME
  6
CONTINUOUS
 62
    4
 10
1130.5037821193446
 20
298.57023497471999
 11
1130.5037821193446
 21
297.67367869872322
  0
ARC
  8
_0-0_90_FRAME
  6
CONTINUOUS
 62
    4
 10
1132.4249741393369
 20
297.54559923072355
 40
0.1280794679994825
 50
0
 51
90
  0
LINE
  8
_0-0_90_FRAME
  6
CONTINUOUS
 62
    4
 10
1130.5037821193446
 20
297.67367869872322
 11
1132.4249741393369
 21
297.67367869872322
  0
LINE
  8
_0-0_90_FRAME
  6
CONTINUOUS
 62
    4
 10
1133.8338482873305
 20
297.67367869872322
 11
1135.7550403073228
 21
297.67367869872322
  0
LINE
  8
_0-0_90_FRAME
  6
CONTINUOUS
 62
    4
 10
1136.4850724651378
 20
292.16626157474565
 11
1137.6377876771321
 21
292.16626157474565
  0
LINE
  8
_0-0_90_FRAME
  6
CONTINUOUS
 62
    4
 10
1137.6377876771321
 20
292.16626157474565
 11
1137.6377876771321
 21
297.67367869872322
  0
LINE
  8
_0-0_90_FRAME
  6
CONTINUOUS
 62
    4
 10
1136.4850724651378
 20
298.57023497471999
 11
1139.4309002291238
 21
298.57023497471999
  0
LINE
  8
_0-0_90_FRAME
  6
CONTINUOUS
 62
    4
 10
1137.6377876771321
 20
297.67367869872322
 11
1139.5845955907253
 21
297.67367869872322
  0
LINE
  8
_0-0_90_FRAME
  6
CONTINUOUS
 62
    4
 10
1137.6762115175306
 20
295.20099713101916
 11
1137.6762115175306
 21
296.09755340701594
  0
LINE
  8
_0-0_90_FRAME
  6
CONTINUOUS
 62
    4
 10
1137.6762115175306
 20
295.20099713101916
 11
1138.9338965163997
 21
295.20099713101916
  0
LINE
  8
_0-0_90_FRAME
  6
CONTINUOUS
 62
    4
 10
1137.6762115175306
 20
296.09755340701594
 11
1139.5845955907253
 21
296.09755340701594
  0
ARC
  8
_0-0_90_FRAME
  6
CONTINUOUS
 62
    4
 10
1139.557116363444
 20
296.88561605286958
 40
0.788541591624461
 50
271.9970571043541
 51
88.002942895541636
  0
LINE
  8
_0-0_90_FRAME
  6
CONTINUOUS
 62
    4
 10
1140.3840817954688
 20
292.16626157474565
 11
1141.6264526350633
 21
292.16626157474565
  0
LINE
  8
_0-0_90_FRAME
  6
CONTINUOUS
 62
    4
 10
1140.5228814269822
 20
294.91998247630283
 11
1141.6264526350633
 21
292.21749336194546
  0
LINE
  8
_0-0_90_FRAME
  6
CONTINUOUS
 62
    4
 10
1139.409149176804
 20
294.88000231238141
 11
1140.3840817954688
 21
292.16626157474565
  0
ARC
  8
_0-0_90_FRAME
  6
CONTINUOUS
 62
    4
 10
1138.9338965163997
 20
294.68867925902231
 40
0.5123178719979303
 50
21.928297866550263
 51
90
  0
ARC
  8
_0-0_90_FRAME
  6
CONTINUOUS
 62
    4
 10
1139.7479525470198
 20
294.60258825374984
 40
0.8374090168554603
 50
22.272952259980947
 51
58.553113012863236
  0
LINE
  8
_0-0_90_FRAME
  6
CONTINUOUS
 62
    4
 10
1141.6264526350633
 20
292.21749336194546
 11
1141.6264526350633
 21
292.16626157474565
  0
LINE
  8
_0-0_90_FRAME
  6
CONTINUOUS
 62
    4
 10
1145.160578034468
 20
298.57023497471999
 11
1145.160578034468
 21
292.16626157474565
  0
LINE
  8
_0-0_90_FRAME
  6
CONTINUOUS
 62
    4
 10
1145.160578034468
 20
292.16626157474565
 11
1146.3132932464641
 21
292.16626157474565
  0
LINE
  8
_0-0_90_FRAME
  6
CONTINUOUS
 62
    4
 10
1146.3132932464641
 20
292.16626157474565
 11
1146.312231794428
 21
296.64904295472769
  0
LINE
  8
_0-0_90_FRAME
  6
CONTINUOUS
 62
    4
 10
1145.160578034468
 20
298.57023497471999
 11
1146.8332432918387
 21
298.57023497471999
  0
LINE
  8
_0-0_90_FRAME
  6
CONTINUOUS
 62
    4
 10
1150.4128976744823
 20
296.64904295472769
 11
1150.4128976744823
 21
292.16626157474565
  0
LINE
  8
_0-0_90_FRAME
  6
CONTINUOUS
 62
    4
 10
1150.4128976744823
 20
292.16626157474565
 11
1151.5656128864766
 21
292.16626157474565
  0
LINE
  8
_0-0_90_FRAME
  6
CONTINUOUS
 62
    4
 10
1151.5656128864766
 20
292.16626157474565
 11
1151.5656128864766
 21
298.57023497471999
  0
LINE
  8
_0-0_90_FRAME
  6
CONTINUOUS
 62
    4
 10
1147.786207128459
 20
292.16626157474565
 11
1148.9389223404532
 21
292.16626157474565
  0
LINE
  8
_0-0_90_FRAME
  6
CONTINUOUS
 62
    4
 10
1151.5656128864766
 20
298.57023497471999
 11
1149.8918861770717
 21
298.57023497471999
  0
LINE
  8
_0-0_90_FRAME
  6
CONTINUOUS
 62
    4
 10
1148.9389223404532
 20
292.16626157474565
 11
1150.4128976744823
 21
296.64904295472769
  0
LINE
  8
_0-0_90_FRAME
  6
CONTINUOUS
 62
    4
 10
1147.786207128459
 20
292.16626157474565
 11
1146.312231794428
 21
296.64904295472769
  0
LINE
  8
_0-0_90_FRAME
  6
CONTINUOUS
 62
    4
 10
1148.3625647344552
 20
293.91913021828907
 11
1149.8918861770717
 21
298.57023497471999
  0
LINE
  8
_0-0_90_FRAME
  6
CONTINUOUS
 62
    4
 10
1148.3625647344552
 20
293.91913021828907
 11
1146.8332432918387
 21
298.57023497471999
  0
TEXT
  8
_0-0_90_FRAME
 62
    2
 10
1159.1162961717623
 20
303.68201750224313
 40
7.56077142854088
 41
1
 50
0
  1
ŖöÄ«ē’Äą
  0
LINE
  8
_0-0_90_FRAME
  6
CONTINUOUS
 62
   18
 10
1182.1331863764217
 20
319.39981247493159
 11
1182.1331863764217
 21
354.75695533193283
  0
TEXT
  8
_0-0_90_FRAME
 62
    7
 10
1248.1239768039336
 20
292.02504815305105
 40
10
 41
1
 50
0
  1
Äøōc
  0
TEXT
  8
_0-0_90_FRAME
 62
    7
 10
1196.7168339470147
 20
327.88628818191199
 40
10
 41
1
 50
0
  1
1üF2
  0
TEXT
  8
_0-0_90_FRAME
 62
    7
 10
1286.3066300296423
 20
347.91113501401122
 40
5
 41
1
 50
0
  1
ŗ@ŖĒ
  0
LINE
  8
_0-0_90_FRAME
  6
CONTINUOUS
 62
   18
 10
1360.4712732388989
 20
354.75695533193283
 11
1360.4712732388989
 21
303.84266961785232
  0
TEXT
  8
_0-0_90_FRAME
 62
    7
 10
1361.8304311782822
 20
347.91113501401122
 40
5
 41
1
 50
0
  1
ĢöĢi¢╝
  0
TEXT
  8
_0-0_90_FRAME
 62
    7
 10
1361.8304311782804
 20
319.37542072841023
 40
5
 41
1
 50
0
  1
É}¢╩öįŹå
  0
LINE
  8
_0-0_90_FRAME
  6
CONTINUOUS
 62
   18
 10
1284.9474720902626
 20
329.29981247489303
 11
1360.4712732388989
 21
329.29981247489303
  0
TEXT
  8
_0-0_90_FRAME
 62
    7
 10
1286.3066300296423
 20
322.20399215697137
 40
5
 41
1
 50
0
  1
ī^Ä«
  0
LINE
  8
_0-0_90_FRAME
  6
CONTINUOUS
 62
   18
 10
416.25508580693065
 20
281.21409818937281
 11
620.25508580514577
 21
281.21409818937281
  0
LINE
  8
_0-0_90_FRAME
  6
CONTINUOUS
 62
   18
 10
620.25508580514577
 20
281.21409818937281
 11
620.25508580514577
 21
337.78552676057114
  0
LINE
  8
_0-0_90_FRAME
  6
CONTINUOUS
 62
   18
 10
620.25508580514577
 20
337.78552676057114
 11
416.25508580693065
 21
337.78552676057114
  0
LINE
  8
_0-0_90_FRAME
  6
CONTINUOUS
 62
   18
 10
416.25508580693065
 20
337.78552676057114
 11
416.25508580693065
 21
281.21409818937281
  0
LINE
  8
_0-0_90_FRAME
  6
CONTINUOUS
 62
   18
 10
592.25508580514588
 20
281.21409818937281
 11
592.25508580514588
 21
337.78552676057114
  0
LINE
  8
_0-0_90_FRAME
  6
CONTINUOUS
 62
   18
 10
444.25508580514582
 20
281.21409818937281
 11
444.25508580514582
 21
337.78552676057114
  0
LINE
  8
_0-0_90_FRAME
  6
CONTINUOUS
 62
   18
 10
476.25508580514582
 20
281.21409818937281
 11
476.25508580514582
 21
337.78552676057114
  0
LINE
  8
_0-0_90_FRAME
  6
CONTINUOUS
 62
   18
 10
416.25508580693065
 20
323.64266961777429
 11
620.25508580514577
 21
323.64266961777429
  0
LINE
  8
_0-0_90_FRAME
  6
CONTINUOUS
 62
   18
 10
416.25508580693065
 20
309.4998124749701
 11
620.25508580514577
 21
309.4998124749701
  0
LINE
  8
_0-0_90_FRAME
  6
CONTINUOUS
 62
   18
 10
416.25508580693065
 20
295.3569553321733
 11
620.25508580514577
 21
295.3569553321733
  0
TEXT
  8
_0-0_90_FRAME
 62
    7
 10
423.27326762422001
 20
328.31409818917268
 40
4.7999999999999998
 41
1
 50
0
  1
ŗLŹå
  0
TEXT
  8
_0-0_90_FRAME
 62
    7
 10
452.58631506666217
 20
328.31409818917268
 40
4.7999999999999998
 41
1
 50
0
  1
ō·Ģt
  0
TEXT
  8
_0-0_90_FRAME
 62
    7
 10
595.78235853241858
 20
328.31409818917268
 40
4.7999999999999998
 41
1
 50
0
  1
ŹņÉ¼Äę
  0
TEXT
  8
_0-0_90_FRAME
 62
    7
 10
518.29144944150937
 20
328.23228000735446
 40
4.7999999999999998
 41
1
 50
0
  1
ē³Æ∙ōÓŚe
  0
LINE
  8
_0-0_90_FRAME
  6
CONTINUOUS
 62
   18
 10
423.89080009177604
 20
296.85907129187865
 11
430.25508580603827
 21
307.8823375028598
  0
LINE
  8
_0-0_90_FRAME
  6
CONTINUOUS
 62
   18
 10
430.25508580603827
 20
307.8823375028598
 11
436.6193715202968
 21
296.85907129187865
  0
LINE
  8
_0-0_90_FRAME
  6
CONTINUOUS
 62
   18
 10
436.6193715202968
 20
296.85907129187865
 11
423.89080009177604
 21
296.85907129187865
  0
TEXT
  8
_0-0_90_FRAME
 62
    7
 10
428.87669566826281
 20
313.0570641065753
 40
4.2428571428400002
 41
1
 50
0
  1
1
  0
TEXT
  8
_0-0_90_FRAME
 62
    7
 10
428.87669566826281
 20
298.91420696377475
 40
4.2428571428400002
 41
1
 50
0
  1
2
  0
TEXT
  8
_0-0_90_FRAME
 62
    7
 10
428.87669566826281
 20
284.77134982097425
 40
4.2428571428400002
 41
1
 50
0
  1
3
  0
LINE
  8
_0-0_90_FRAME
  6
CONTINUOUS
 62
   18
 10
423.89080009177604
 20
311.00192843467914
 11
430.25508580603827
 21
322.02519464566393
  0
LINE
  8
_0-0_90_FRAME
  6
CONTINUOUS
 62
   18
 10
430.25508580603827
 20
322.02519464566393
 11
436.6193715202968
 21
311.00192843467914
  0
LINE
  8
_0-0_90_FRAME
  6
CONTINUOUS
 62
   18
 10
436.6193715202968
 20
311.00192843467914
 11
423.89080009177604
 21
311.00192843467914
  0
LINE
  8
_0-0_90_FRAME
  6
CONTINUOUS
 62
   18
 10
423.89080009177604
 20
282.71621414907821
 11
430.25508580603827
 21
293.73948036006288
  0
LINE
  8
_0-0_90_FRAME
  6
CONTINUOUS
 62
   18
 10
430.25508580603827
 20
293.73948036006288
 11
436.6193715202968
 21
282.71621414907821
  0
LINE
  8
_0-0_90_FRAME
  6
CONTINUOUS
 62
   18
 10
436.6193715202968
 20
282.71621414907821
 11
423.89080009177604
 21
282.71621414907821
  0
LINE
  8
_0-0_90_FRAME
  6
CONTINUOUS
 62
    4
 10
1216.2903203052222
 20
424.75695382768453
 11
1518.7331748219467
 21
424.75695382768453
  0
LINE
  8
_0-0_90_FRAME
  6
CONTINUOUS
 62
    4
 10
1216.2903318583385
 20
424.75695382768453
 11
1216.2903318583385
 21
354.75695533193283
  0
LINE
  8
_0-0_90_FRAME
  6
CONTINUOUS
 62
    4
 10
1360.4712732388989
 20
424.75695382768453
 11
1360.4712732388989
 21
354.75695533193283
  0
LINE
  8
_0-0_90_FRAME
  6
CONTINUOUS
 62
    4
 10
1415.3594989678606
 20
424.75695382768453
 11
1415.3594989678709
 21
354.75695533193283
  0
LINE
  8
_0-0_90_FRAME
  6
CONTINUOUS
 62
    4
 10
1401.3595007178606
 20
424.75695382768453
 11
1401.3595007178697
 21
354.75695533193283
  0
LINE
  8
_0-0_90_FRAME
  6
CONTINUOUS
 62
    4
 10
1237.2903292333422
 20
424.75695382768453
 11
1237.2903292333422
 21
354.75695533193283
  0
LINE
  8
_0-0_90_FRAME
  6
CONTINUOUS
 62
    4
 10
1436.3594963428675
 20
424.75695382768453
 11
1436.3594963428675
 21
354.75695533193283
  0
INSERT
  2
-003-Jis_w20130906110600
  8
_0-2_08_DIM
 10
1431.3604719441546
 20
470.34886445285986
 41
1.2
 42
1.2
 50
0
  0
LINE
  8
_0-2_08_DIM
  6
CONTINUOUS
 62
    3
 10
548.70534953819993
 20
926.68048294279811
 11
599.6901521698893
 21
926.68048294279811
  0
INSERT
  2
-004-p1ba05
  8
_0-2_08_DIM
 10
578.51746343325135
 20
929.41566129315845
 41
3
 42
3
 50
0
  0
TEXT
  8
_0-0_90_FRAME
 62
    3
 10
1406.0879348915239
 20
372.10230414318113
 40
6
 41
1
 50
0
  1
4
  0
TEXT
  8
_0-0_90_FRAME
 62
    3
 10
1363.694021754663
 20
372.23563674870502
 40
6
 41
1
 50
0
  1
SUS304
  0
TEXT
  8
_0-0_90_FRAME
 62
    3
 10
1247.0440962443317
 20
372.15605198981547
 40
6
 41
1
 50
0
  1
ÉģÉžéĶāXāeü[
  0
TEXT
  8
_0-0_90_FRAME
 62
    3
 10
1220.2751803473018
 20
372.00170562379537
 40
6
 41
1
 50
0
  1
100
  0
TEXT
  8
_0-0_90_FRAME
 62
    3
 10
1419.9328796569075
 20
361.94268662954784
 40
5
 41
1
 50
0
  1
ÅdŚ╩
  0
TEXT
  8
_0-0_90_FRAME
 62
    3
 10
1369.8081470917318
 20
358.71559081080119
 40
6
 41
1
 50
0
  1
Ź▐ü@Ä┐
  0
TEXT
  8
_0-0_90_FRAME
 62
    3
 10
1402.0947849431575
 20
358.67049695491073
 40
6
 41
1
 50
0
  1
ÉöŚ╩
  0
TEXT
  8
_0-0_90_FRAME
 62
    3
 10
1422.1428091877658
 20
357.05033753497332
 40
4
 41
1
 50
0
  1
kg
  0
TEXT
  8
_0-0_90_FRAME
 62
    3
 10
1463.1203651080536
 20
358.56989843551344
 40
6
 41
1
 50
0
  1
ö§  Źl
  0
TEXT
  8
_0-0_90_FRAME
 62
    3
 10
1220.5663210474261
 20
358.56989843551344
 40
6
 41
1
 50
0
  1
ĢäŹå
  0
TEXT
  8
_0-0_90_FRAME
 62
    3
 10
1271.4307492469047
 20
358.7876761860702
 40
6
 41
1
 50
0
  1
Ģöü@ü@Ģiü@ü@¢╝
  0
LINE
  8
_0-0_90_FRAME
  6
CONTINUOUS
 62
    4
 10
1216.2903203052222
 20
410.75695382768447
 11
1518.7331748219467
 21
410.75695382768447
  0
LINE
  8
_0-0_90_FRAME
  6
CONTINUOUS
 62
    4
 10
1216.2903203052222
 20
396.7569530801174
 11
1518.7331748219467
 21
396.7569530801174
  0
LINE
  8
_0-0_90_FRAME
  6
CONTINUOUS
 62
    4
 10
1216.2903203052222
 20
382.75695382768453
 11
1518.7331748219467
 21
382.75695382768453
  0
LINE
  8
_0-0_90_FRAME
  6
CONTINUOUS
 62
    4
 10
1216.2903203052222
 20
368.75695382768447
 11
1518.7331748219467
 21
368.75695382768447
  0
TEXT
  8
_0-0_90_FRAME
 62
    3
 10
1247.0440962443317
 20
386.15605124224834
 40
6
 41
1
 50
0
  1
ātāēāōāW
  0
TEXT
  8
_0-0_90_FRAME
 62
    3
 10
1220.775180347302
 20
386.00170487622825
 40
6
 41
1
 50
0
  1
101
  0
TEXT
  8
_0-0_90_FRAME
 62
    3
 10
1219.775180347302
 20
400.00170712349251
 40
6
 41
1
 50
0
  1
102
  0
TEXT
  8
_0-0_90_FRAME
 62
    7
 10
1416.984857939816
 20
336.33532839639139
 40
8
 41
1
 50
0
  1
ÆEÉģŗ@ ĢöĢiÉ}
  0
TEXT
  8
_0-0_90_FRAME
 62
    7
 10
1289.829055719915
 20
336.04827323746269
 40
6.4000000000000004
 41
0.8999999999999999
 50
0
  1
ŚLŗ@É½ēśōDöRŚ┐Ä{É▌
  0
LINE
  8
_0-3_04_HIDDEN
  6
CONTINUOUS
 62
    7
 10
746.44047550247546
 20
532.24930445572238
 11
746.44047550247546
 21
538.24930444982886
  0
LINE
  8
_0-3_04_HIDDEN
  6
CONTINUOUS
 62
    7
 10
738.44047550248263
 20
532.24930445572238
 11
738.44047550248263
 21
538.24930444982886
  0
LINE
  8
_0-4_05_CENTER
  6
CENTER2
 62
    4
 10
742.44047550248274
 20
528.85994362324993
 11
742.44047550248274
 21
541.6386652823013
  0
LINE
  8
_0-3_04_HIDDEN
  6
CONTINUOUS
 62
    7
 10
739.19047550249729
 20
532.24930445572238
 11
739.19047550249729
 21
538.24930444982886
  0
LINE
  8
_0-3_04_HIDDEN
  6
CONTINUOUS
 62
    7
 10
745.69047550249729
 20
532.24930445572238
 11
745.69047550249729
 21
538.24930444982886
  0
LINE
  8
_0-5_0
  6
CONTINUOUS
 62
   18
 10
732.44047550248274
 20
532.24930445572238
 11
732.44047550248274
 21
538.24930445572238
  0
LINE
  8
_0-5_0
  6
CONTINUOUS
 62
   18
 10
732.44047550248274
 20
538.24930445572238
 11
802.44047550248274
 21
538.24930445572238
  0
LINE
  8
_0-5_0
  6
CONTINUOUS
 62
   18
 10
802.44047550248274
 20
538.24930445572238
 11
802.44047550248274
 21
532.24930445572238
  0
LINE
  8
_0-5_0
  6
CONTINUOUS
 62
   18
 10
802.44047550248274
 20
532.24930445572238
 11
732.44047550248274
 21
532.24930445572238
  0
LINE
  8
_0-3_04_HIDDEN
  6
CONTINUOUS
 62
    7
 10
759.44047550248274
 20
532.24930445572238
 11
759.44047550248274
 21
538.24930444982886
  0
LINE
  8
_0-6_10_DRAFT
  6
CONTINUOUS
 62
    8
 10
767.44047550249002
 20
532.24930445572238
 11
767.44047550249002
 21
538.24930444982886
  0
LINE
  8
_0-3_04_HIDDEN
  6
CONTINUOUS
 62
    7
 10
775.44047550878372
 20
532.24930445572238
 11
775.44047550878372
 21
538.24930444982886
  0
LINE
  8
_0-3_04_HIDDEN
  6
CONTINUOUS
 62
    7
 10
788.44047550249002
 20
532.24930445786333
 11
788.44047550249002
 21
538.24930445196981
  0
LINE
  8
_0-3_04_HIDDEN
  6
CONTINUOUS
 62
    7
 10
796.44047550248263
 20
532.24930445786333
 11
796.44047550248263
 21
538.24930445196981
  0
LINE
  8
_0-4_05_CENTER
  6
CENTER2
 62
    4
 10
792.44047550248274
 20
528.85994362539088
 11
792.44047550248274
 21
541.63866528444225
  0
LINE
  8
_0-3_04_HIDDEN
  6
CONTINUOUS
 62
    7
 10
795.69047550246819
 20
532.24930445786333
 11
795.69047550246819
 21
538.24930445196981
  0
LINE
  8
_0-3_04_HIDDEN
  6
CONTINUOUS
 62
    7
 10
789.19047550246819
 20
532.24930445786333
 11
789.19047550246819
 21
538.24930445196981
  0
LINE
  8
_0-3_04_HIDDEN
  6
CONTINUOUS
 62
    7
 10
854.70764407568845
 20
464.81357787242467
 11
860.70764406979492
 21
464.81357787242467
  0
LINE
  8
_0-3_04_HIDDEN
  6
CONTINUOUS
 62
    9
 10
854.70764407568845
 20
468.81357787242462
 11
860.70764406979492
 21
468.81357787242462
  0
LINE
  8
_0-3_04_HIDDEN
  6
CONTINUOUS
 62
    7
 10
854.70764407568845
 20
456.81357787243553
 11
860.70764406979492
 21
456.81357787243553
  0
LINE
  8
_0-3_04_HIDDEN
  6
CONTINUOUS
 62
    9
 10
854.70764407568845
 20
452.81357787243559
 11
860.70764406979492
 21
452.81357787243559
  0
LINE
  8
_0-4_05_CENTER
  6
CENTER2
 62
    4
 10
851.318283243216
 20
460.81357787243559
 11
864.09700490226737
 21
460.81357787243559
  0
LINE
  8
_0-3_04_HIDDEN
  6
CONTINUOUS
 62
    7
 10
854.70764407568845
 20
457.56357787244644
 11
860.70764406979492
 21
457.56357787244644
  0
LINE
  8
_0-3_04_HIDDEN
  6
CONTINUOUS
 62
    7
 10
854.70764407568845
 20
464.06357787244644
 11
860.70764406979492
 21
464.06357787244644
  0
LINE
  8
_0-5_0
  6
CONTINUOUS
 62
   18
 10
854.70764407568845
 20
475.81357787243559
 11
854.70764407568845
 21
445.81357787243553
  0
LINE
  8
_0-5_0
  6
CONTINUOUS
 62
   18
 10
854.70764407568845
 20
445.81357787243553
 11
860.70764407568845
 21
445.81357787243553
  0
LINE
  8
_0-5_0
  6
CONTINUOUS
 62
   18
 10
860.70764407568845
 20
445.81357787243553
 11
860.70764407568845
 21
475.81357787243559
  0
LINE
  8
_0-5_0
  6
CONTINUOUS
 62
   18
 10
860.70764407568845
 20
475.81357787243559
 11
854.70764407568845
 21
475.81357787243559
  0
INSERT
  2
-005-M8Tz_2
  8
_0-5_0
 10
792.44047550249013
 20
460.81357788021717
 41
1
 42
1
 50
270
  0
INSERT
  2
-005-M8Tz_2
  8
_0-5_0
 10
742.44047550249002
 20
460.81357788021717
 41
1
 42
1
 50
270
  0
CIRCLE
  8
_0-5_0
  6
CONTINUOUS
 62
   18
 10
767.44047550564051
 20
460.81357788021717
 40
8.0000000031513991
  0
LINE
  8
_0-4_05_CENTER
  6
CENTER2
 62
    4
 10
767.44047550249729
 20
438.70115176471717
 11
767.44047550249729
 21
482.92600398793928
  0
LINE
  8
_0-4_05_CENTER
  6
CENTER2
 62
    4
 10
756.09495000670199
 20
460.81357787632817
 11
778.78600099826349
 21
460.81357787632817
  0
LINE
  8
_0-5_0
  6
CONTINUOUS
 62
   18
 10
727.44047550614971
 20
923.84827306490308
 11
807.44047550614982
 21
923.84827306490126
  0
LINE
  8
_0-4_05_CENTER
  6
CENTER2
 62
    4
 10
742.44047549815355
 20
890.50722225647598
 11
742.44047549815355
 21
909.1893238792818
  0
CIRCLE
  8
_0-5_0
  6
CONTINUOUS
 62
   18
 10
742.44047549815355
 20
899.84827306786451
 40
6
  0
LINE
  8
_0-4_05_CENTER
  6
CENTER2
 62
    4
 10
733.09942468676513
 20
899.84827306786451
 11
751.78152630957106
 21
899.84827306786451
  0
LINE
  8
_0-4_05_CENTER
  6
CENTER2
 62
    4
 10
767.44047549816798
 20
935.99726336301148
 11
767.44047549816798
 21
877.48937035668587
  0
LINE
  8
_0-4_05_CENTER
  6
CENTER2
 62
    4
 10
792.4404755141461
 20
890.50722225647598
 11
792.4404755141461
 21
909.1893238792818
  0
CIRCLE
  8
_0-5_0
  6
CONTINUOUS
 62
   18
 10
792.4404755141461
 20
899.84827306786451
 40
6
  0
LINE
  8
_0-4_05_CENTER
  6
CENTER2
 62
    4
 10
801.78152632553463
 20
899.84827306786451
 11
783.09942470272858
 21
899.84827306786451
  0
LINE
  8
_0-4_05_CENTER
  6
CENTER2
 62
    4
 10
792.44047550003802
 20
934.52514820927354
 11
792.44047550003802
 21
918.98792449283985
  0
LINE
  8
_0-4_05_CENTER
  6
CENTER2
 62
    4
 10
742.44047550003802
 20
934.52514820927354
 11
742.44047550003802
 21
918.98792449283985
  0
LINE
  8
_0-3_04_HIDDEN
  6
CONTINUOUS
 62
    7
 10
757.44047550638277
 20
929.8482730678644
 11
757.44047550638277
 21
923.84827306490308
  0
LINE
  8
_0-3_04_HIDDEN
  6
CONTINUOUS
 62
    7
 10
777.44047550638265
 20
929.8482730678644
 11
777.44047550638265
 21
923.84827306490308
  0
LINE
  8
_0-5_0
  6
CONTINUOUS
 62
   18
 10
644.46629855262677
 20
670.14676888393672
 11
611.46629855262688
 21
670.14676888393672
  0
LINE
  8
_0-5_0
  6
CONTINUOUS
 62
   18
 10
599.46629855262677
 20
682.1467688839366
 11
599.46629855262677
 21
760.14676888393672
  0
ARC
  8
_0-5_0
  6
CONTINUOUS
 62
   18
 10
611.46629855262688
 20
682.1467688839366
 40
12
 50
180
 51
270
  0
LINE
  8
_0-5_0
  6
CONTINUOUS
 62
   18
 10
599.46629855262677
 20
760.14676888393672
 11
605.46629855262677
 21
760.14676888393672
  0
LINE
  8
_0-5_0
  6
CONTINUOUS
 62
   18
 10
605.46629855262677
 20
760.14676888393672
 11
605.46629855262677
 21
682.14676888689894
  0
ARC
  8
_0-5_0
  6
CONTINUOUS
 62
   18
 10
611.46629855262688
 20
682.14676888689894
 40
6
 50
180
 51
270
  0
LINE
  8
_0-5_0
  6
CONTINUOUS
 62
   18
 10
611.46629855262688
 20
676.14676888689883
 11
644.46629855262677
 21
676.14676888689883
  0
LINE
  8
_0-5_0
  6
CONTINUOUS
 62
   18
 10
644.46629855262677
 20
676.14676888689883
 11
644.46629855262677
 21
670.14676888393672
  0
LINE
  8
_0-4_05_CENTER
  6
CENTER2
 62
    4
 10
612.05592767105213
 20
695.14676889107625
 11
592.99868481300314
 21
695.14676889107625
  0
LINE
  8
_0-4_05_CENTER
  6
CENTER2
 62
    4
 10
629.46629855072035
 20
663.55713976580159
 11
629.46629855072035
 21
682.61438262384956
  0
LINE
  8
_0-4_05_CENTER
  6
CENTER2
 62
    4
 10
612.05592767105213
 20
736.15643268041561
 11
592.99868481300314
 21
736.15643268041561
  0
LINE
  8
_0-3_04_HIDDEN
  6
CONTINUOUS
 62
    7
 10
605.46629855262677
 20
685.14676889107625
 11
599.46629855262677
 21
685.14676889107625
  0
LINE
  8
_0-3_04_HIDDEN
  6
CONTINUOUS
 62
    7
 10
605.46629855262677
 20
745.14676889107443
 11
599.46629855262677
 21
745.14676889107523
  0
LINE
  8
_0-4_05_CENTER
  6
CENTER2
 62
    4
 10
767.44047550249729
 20
666.08115473884754
 11
767.44047550249729
 21
765.56181449514065
  0
LINE
  8
_0-5_0
  6
CONTINUOUS
 62
   18
 10
727.4404755104789
 20
676.14676888689883
 11
807.44047551047902
 21
676.14676888689883
  0
LINE
  8
_0-4_05_CENTER
  6
CENTER2
 62
    4
 10
742.44047550249741
 20
663.55713976551135
 11
742.44047550249741
 21
682.61438262356035
  0
LINE
  8
_0-4_05_CENTER
  6
CENTER2
 62
    4
 10
792.44047550249729
 20
663.55713976551135
 11
792.44047550249729
 21
682.61438262356035
  0
LINE
  8
_0-5_0
  6
CONTINUOUS
 62
   18
 10
787.44047550003802
 20
735.14676889107523
 11
787.44047550003802
 21
695.14676889107534
  0
ARC
  8
_0-5_0
  6
CONTINUOUS
 62
   18
 10
792.44047550003802
 20
695.14676889107534
 40
5
 50
180
 51
0
  0
LINE
  8
_0-5_0
  6
CONTINUOUS
 62
   18
 10
797.44047550003802
 20
695.14676889107534
 11
797.44047550003802
 21
735.14676889107523
  0
ARC
  8
_0-5_0
  6
CONTINUOUS
 62
   18
 10
792.44047550003802
 20
735.14676889107523
 40
5
 50
0
 51
180
  0
LINE
  8
_0-4_05_CENTER
  6
CENTER2
 62
    4
 10
792.44047550003802
 20
684.14676889107523
 11
792.44047550003802
 21
746.14676889107534
  0
LINE
  8
_0-5_0
  6
CONTINUOUS
 62
   18
 10
757.44047550638277
 20
735.14676889107443
 11
757.44047550638277
 21
695.14676889107443
  0
ARC
  8
_0-5_0
  6
CONTINUOUS
 62
   18
 10
767.44047550638265
 20
695.14676889107443
 40
10
 50
180
 51
0
  0
LINE
  8
_0-5_0
  6
CONTINUOUS
 62
   18
 10
777.44047550638265
 20
695.14676889107443
 11
777.44047550638265
 21
735.14676889107443
  0
ARC
  8
_0-5_0
  6
CONTINUOUS
 62
   18
 10
767.44047550638265
 20
735.14676889107443
 40
10
 50
0
 51
180
  0
LINE
  8
_0-4_05_CENTER
  6
CENTER2
 62
    4
 10
731.59771334658058
 20
735.14676889107625
 11
803.28323765841401
 21
735.14676889107625
  0
LINE
  8
_0-5_0
  6
CONTINUOUS
 62
   18
 10
747.44047550495668
 20
735.14676889107523
 11
747.44047550495668
 21
695.14676889107534
  0
ARC
  8
_0-5_0
  6
CONTINUOUS
 62
   18
 10
742.44047550495645
 20
695.14676889107534
 40
5
 50
180
 51
0
  0
LINE
  8
_0-5_0
  6
CONTINUOUS
 62
   18
 10
737.44047550495668
 20
695.14676889107534
 11
737.44047550495668
 21
735.14676889107523
  0
ARC
  8
_0-5_0
  6
CONTINUOUS
 62
   18
 10
742.44047550495645
 20
735.14676889107523
 40
5
 50
0
 51
180
  0
LINE
  8
_0-4_05_CENTER
  6
CENTER2
 62
    4
 10
742.44047550495645
 20
684.14676889107523
 11
742.44047550495645
 21
746.14676889107534
  0
LINE
  8
_0-4_05_CENTER
  6
CENTER2
 62
    4
 10
731.59771334658058
 20
695.14676889107625
 11
803.28323765841401
 21
695.14676889107625
  0
LINE
  8
_0-4_05_CENTER
  6
CENTER2
 62
    4
 10
742.44047549815355
 20
899.84827306787884
 11
792.4404755141461
 21
899.84827306787884
  0
LINE
  8
_0-4_05_CENTER
  6
CENTER2
 62
    4
 10
726.73267890198099
 20
460.81357787632817
 11
808.1482721030136
 21
460.81357787632817
  0
LINE
  8
_0-5_0
  6
CONTINUOUS
 62
   18
 10
727.44047550614971
 20
929.8482730678644
 11
807.44047550614982
 21
929.8482730678644
  0
LINE
  8
_0-5_0
  6
CONTINUOUS
 62
   18
 10
807.44047550614982
 20
929.8482730678644
 11
807.44047550614982
 21
889.84827306471766
  0
LINE
  8
_0-5_0
  6
CONTINUOUS
 62
   18
 10
807.44047550614982
 20
889.84827306471766
 11
802.44047550614971
 21
884.84827306471755
  0
LINE
  8
_0-5_0
  6
CONTINUOUS
 62
   18
 10
802.44047550614971
 20
884.84827306471755
 11
732.44047550614982
 21
884.84827306471755
  0
LINE
  8
_0-5_0
  6
CONTINUOUS
 62
   18
 10
732.44047550614982
 20
884.84827306471755
 11
727.44047550614971
 21
889.84827306471766
  0
LINE
  8
_0-5_0
  6
CONTINUOUS
 62
   18
 10
727.44047550614971
 20
889.84827306471766
 11
727.44047550614971
 21
929.8482730678644
  0
LINE
  8
_0-5_0
  6
CONTINUOUS
 62
   18
 10
727.4404755104789
 20
670.14676888393672
 11
807.44047551047902
 21
670.14676888393672
  0
LINE
  8
_0-5_0
  6
CONTINUOUS
 62
   18
 10
807.44047551047902
 20
670.14676888393672
 11
807.44047551047902
 21
755.14676888393672
  0
LINE
  8
_0-5_0
  6
CONTINUOUS
 62
   18
 10
807.44047551047902
 20
755.14676888393672
 11
802.4404755104789
 21
760.14676888393672
  0
LINE
  8
_0-5_0
  6
CONTINUOUS
 62
   18
 10
802.4404755104789
 20
760.14676888393672
 11
732.44047551047902
 21
760.14676888393672
  0
LINE
  8
_0-5_0
  6
CONTINUOUS
 62
   18
 10
732.44047551047902
 20
760.14676888393672
 11
727.4404755104789
 21
755.14676888393672
  0
LINE
  8
_0-5_0
  6
CONTINUOUS
 62
   18
 10
727.4404755104789
 20
755.14676888393672
 11
727.4404755104789
 21
670.14676888393672
  0
LINE
  8
_0-5_0
  6
CONTINUOUS
 62
   18
 10
732.4404755024899
 20
473.81357788021722
 11
732.4404755024899
 21
447.81357788021717
  0
LINE
  8
_0-5_0
  6
CONTINUOUS
 62
   18
 10
732.4404755024899
 20
447.81357788021717
 11
734.44047550249013
 21
445.81357788021717
  0
LINE
  8
_0-5_0
  6
CONTINUOUS
 62
   18
 10
734.44047550249013
 20
445.81357788021717
 11
800.44047550249002
 21
445.81357788021717
  0
LINE
  8
_0-5_0
  6
CONTINUOUS
 62
   18
 10
800.44047550249002
 20
445.81357788021717
 11
802.44047550249002
 21
447.81357788021717
  0
LINE
  8
_0-5_0
  6
CONTINUOUS
 62
   18
 10
802.44047550249002
 20
447.81357788021717
 11
802.44047550249002
 21
473.81357788021722
  0
LINE
  8
_0-5_0
  6
CONTINUOUS
 62
   18
 10
802.44047550249002
 20
473.81357788021722
 11
800.44047550249002
 21
475.81357788021722
  0
LINE
  8
_0-5_0
  6
CONTINUOUS
 62
   18
 10
800.44047550249002
 20
475.81357788021722
 11
734.44047550249013
 21
475.81357788021722
  0
LINE
  8
_0-5_0
  6
CONTINUOUS
 62
   18
 10
734.44047550249013
 20
475.81357788021722
 11
732.4404755024899
 21
473.81357788021722
  0
LINE
  8
_0-5_0
  6
CONTINUOUS
 62
   18
 10
1080.9255210933127
 20
886.48246937467275
 11
1070.9255210933127
 21
886.48246937467275
  0
LINE
  8
_0-5_0
  6
CONTINUOUS
 62
   18
 10
1070.9255210933127
 20
886.48246937467275
 11
1070.9255210933127
 21
731.48246937467286
  0
LINE
  8
_0-5_0
  6
CONTINUOUS
 62
   18
 10
1070.9255210933127
 20
731.48246937467286
 11
1080.9255210933127
 21
731.48246937467286
  0
LINE
  8
_0-5_0
  6
CONTINUOUS
 62
   18
 10
1080.9255210933127
 20
731.48246937467286
 11
1080.9255210933127
 21
886.48246937467275
  0
LINE
  8
_0-3_04_HIDDEN
  6
CONTINUOUS
 62
    7
 10
1070.9255210933127
 20
859.4824693739979
 11
1080.9255210933127
 21
859.4824693739979
  0
LINE
  8
_0-4_05_CENTER
  6
CENTER2
 62
    4
 10
1062.8771049061772
 20
868.98246937399801
 11
1088.9670693083619
 21
868.98246937399801
  0
LINE
  8
_0-3_04_HIDDEN
  6
CONTINUOUS
 62
    7
 10
1070.9255210933127
 20
878.48246937399801
 11
1080.9255210933127
 21
878.48246937399801
  0
LINE
  8
_0-3_04_HIDDEN
  6
CONTINUOUS
 62
    7
 10
1070.9255210933127
 20
758.4824693753477
 11
1080.9255210933127
 21
758.4824693753477
  0
LINE
  8
_0-4_05_CENTER
  6
CENTER2
 62
    4
 10
1062.8771049061772
 20
748.9824693753477
 11
1088.9670693083619
 21
748.9824693753477
  0
LINE
  8
_0-3_04_HIDDEN
  6
CONTINUOUS
 62
    7
 10
1070.9255210933127
 20
739.4824693753477
 11
1080.9255210933127
 21
739.4824693753477
  0
LINE
  8
_0-5_0
  6
CONTINUOUS
 62
   18
 10
1080.9255210933127
 20
778.7324693747255
 11
1080.9255210933127
 21
839.23246937473289
  0
LINE
  8
_0-5_0
  6
CONTINUOUS
 62
   18
 10
1080.92552109332
 20
839.23246937473289
 11
1102.92552109332
 21
839.23246937473471
  0
LINE
  8
_0-5_0
  6
CONTINUOUS
 62
   18
 10
1080.9255210933272
 20
778.73246937473289
 11
1102.9255210933272
 21
778.73246937473368
  0
LINE
  8
_0-5_0
  6
CONTINUOUS
 62
   18
 10
1138.9255210933272
 20
837.93246937473725
 11
1130.9255210933272
 21
839.03246937473671
  0
LINE
  8
_0-5_0
  6
CONTINUOUS
 62
   18
 10
1130.9255210933272
 20
839.03246937473671
 11
1130.9255210933272
 21
778.93246937473714
  0
LINE
  8
_0-5_0
  6
CONTINUOUS
 62
   18
 10
1130.9255210933272
 20
778.93246937473714
 11
1138.9255210933272
 21
780.03246937473762
  0
LINE
  8
_0-5_0
  6
CONTINUOUS
 62
   18
 10
1138.9255210933272
 20
780.03246937473762
 11
1138.9255210933272
 21
837.93246937473725
  0
LINE
  8
_0-5_0
  6
CONTINUOUS
 62
   18
 10
1130.9255210933272
 20
837.93246937473725
 11
1122.9255210933272
 21
839.03246937473568
  0
LINE
  8
_0-5_0
  6
CONTINUOUS
 62
   18
 10
1122.9255210933272
 20
839.03246937473568
 11
1122.9255210933272
 21
778.93246937473543
  0
LINE
  8
_0-5_0
  6
CONTINUOUS
 62
   18
 10
1122.9255210933272
 20
778.93246937473543
 11
1130.9255210933272
 21
780.03246937473671
  0
LINE
  8
_0-5_0
  6
CONTINUOUS
 62
   18
 10
1122.9255210933272
 20
837.93246937473543
 11
1114.9255210933272
 21
839.032469374735
  0
LINE
  8
_0-5_0
  6
CONTINUOUS
 62
   18
 10
1114.9255210933272
 20
839.032469374735
 11
1114.9255210933272
 21
778.93246937473543
  0
LINE
  8
_0-5_0
  6
CONTINUOUS
 62
   18
 10
1114.9255210933272
 20
778.93246937473543
 11
1122.9255210933272
 21
780.0324693747358
  0
LINE
  8
_0-5_0
  6
CONTINUOUS
 62
   18
 10
1114.9255210933272
 20
837.93246937473543
 11
1106.9255210933272
 21
839.03246937473398
  0
LINE
  8
_0-5_0
  6
CONTINUOUS
 62
   18
 10
1106.9255210933272
 20
839.03246937473398
 11
1106.9255210933272
 21
778.93246937473452
  0
LINE
  8
_0-5_0
  6
CONTINUOUS
 62
   18
 10
1106.9255210933272
 20
778.93246937473452
 11
1114.9255210933272
 21
780.03246937473489
  0
LINE
  8
_0-5_0
  6
CONTINUOUS
 62
   18
 10
1102.92552109332
 20
839.23246937473471
 11
1106.9255210933272
 21
839.03246937473398
  0
LINE
  8
_0-5_0
  6
CONTINUOUS
 62
   18
 10
1102.9255210933272
 20
778.73246937473368
 11
1106.9255210933272
 21
778.93246937473452
  0
LINE
  8
_0-3_04_HIDDEN
  6
CONTINUOUS
 62
    7
 10
1074.9255210907079
 20
835.7324693747247
 11
1138.9255210933272
 21
835.73246937472925
  0
LINE
  8
_0-3_04_HIDDEN
  6
CONTINUOUS
 62
    7
 10
1074.9255210907079
 20
782.23246937462113
 11
1138.9255210933272
 21
782.23246937461647
  0
LINE
  8
_0-4_05_CENTER
  6
CENTER2
 62
    4
 10
1065.291417116948
 20
808.98246937467275
 11
1143.6459750001898
 21
808.98246937472925
  0
LINE
  8
_0-3_04_HIDDEN
  6
CONTINUOUS
 62
    7
 10
1080.92552109332
 20
839.23246937473289
 11
1070.9255210933127
 21
839.23246937473471
  0
LINE
  8
_0-3_04_HIDDEN
  6
CONTINUOUS
 62
    7
 10
1074.9255210907079
 20
778.73246937461147
 11
1074.9255210907152
 21
839.23246937473425
  0
LINE
  8
_0-3_04_HIDDEN
  6
CONTINUOUS
 62
    7
 10
1080.92552109332
 20
778.73246937461272
 11
1070.9255210933127
 21
778.7324693746109
  0
LINE
  8
_0-5_0
  6
CONTINUOUS
 62
    3
 10
1074.9255210907079
 20
778.73246937461147
 11
1072.9255210907079
 21
778.73246937461147
  0
LINE
  8
_0-5_0
  6
CONTINUOUS
 62
    3
 10
1072.9255210907079
 20
778.73246937461147
 11
1074.9255210907079
 21
780.73246937461147
  0
LINE
  8
_0-5_0
  6
CONTINUOUS
 62
    3
 10
1074.9255210907079
 20
780.73246937461147
 11
1074.9255210907079
 21
778.73246937461147
  0
LINE
  8
_0-5_0
  6
CONTINUOUS
 62
    3
 10
1074.9255210907079
 20
839.23246937473425
 11
1072.9255210907079
 21
839.23246937473425
  0
LINE
  8
_0-5_0
  6
CONTINUOUS
 62
    3
 10
1072.9255210907079
 20
839.23246937473425
 11
1074.9255210907079
 21
837.23246937473414
  0
LINE
  8
_0-5_0
  6
CONTINUOUS
 62
    3
 10
1074.9255210907079
 20
837.23246937473414
 11
1074.9255210907079
 21
839.23246937473425
  0
LINE
  8
_0-5_0
  6
CONTINUOUS
 62
    3
 10
1080.9255210933054
 20
778.73246937460965
 11
1082.9255210933054
 21
778.73246937460965
  0
LINE
  8
_0-5_0
  6
CONTINUOUS
 62
    3
 10
1082.9255210933054
 20
778.73246937460965
 11
1080.9255210933054
 21
776.73246937460965
  0
LINE
  8
_0-5_0
  6
CONTINUOUS
 62
    3
 10
1080.9255210933054
 20
776.73246937460965
 11
1080.9255210933054
 21
778.73246937460965
  0
LINE
  8
_0-5_0
  6
CONTINUOUS
 62
    3
 10
1080.9255210933054
 20
839.23246937476051
 11
1082.9255210933054
 21
839.23246937476051
  0
LINE
  8
_0-5_0
  6
CONTINUOUS
 62
    3
 10
1082.9255210933054
 20
839.23246937476051
 11
1080.9255210933054
 21
841.23246937476063
  0
LINE
  8
_0-5_0
  6
CONTINUOUS
 62
    3
 10
1080.9255210933054
 20
841.23246937476063
 11
1080.9255210933054
 21
839.23246937476051
  0
CIRCLE
  8
_0-5_0
  6
CONTINUOUS
 62
   18
 10
1339.5355613252871
 20
808.98246937467093
 40
28.950000000064392
  0
CIRCLE
  8
_0-5_0
  6
CONTINUOUS
 62
   18
 10
1339.5355613252871
 20
808.98246937467093
 40
30.249999999946795
  0
CIRCLE
  8
_0-5_0
  6
CONTINUOUS
 62
   18
 10
1339.5355613252871
 20
808.98246937467093
 40
26.750000000052747
  0
CIRCLE
  8
_0-5_0
  6
CONTINUOUS
 62
   18
 10
1339.5355613220711
 20
808.98246937526767
 40
77.5
  0
CIRCLE
  8
_0-4_05_CENTER
  6
CENTER2
 62
    4
 10
1339.5355613220711
 20
808.98246937526767
 40
59.999999999325155
  0
CIRCLE
  8
_0-5_0
  6
CONTINUOUS
 62
   18
 10
1339.5355613220711
 20
868.98246937459271
 40
9.5
  0
LINE
  8
_0-4_05_CENTER
  6
CENTER2
 62
    4
 10
1423.9746078787393
 20
808.98246937467093
 11
1255.0965147718346
 21
808.98246937467093
  0
LINE
  8
_0-4_05_CENTER
  6
CENTER2
 62
    4
 10
1339.5355613254037
 20
724.54342282110213
 11
1339.5355613254037
 21
893.42151592823996
  0
CIRCLE
  8
_0-5_0
  6
CONTINUOUS
 62
   18
 10
1279.5355613227478
 20
808.98246937467093
 40
9.5
  0
CIRCLE
  8
_0-5_0
  6
CONTINUOUS
 62
   18
 10
1339.5355613220711
 20
748.98246937459282
 40
9.5
  0
CIRCLE
  8
_0-5_0
  6
CONTINUOUS
 62
   18
 10
1399.5355613213944
 20
808.98246937526767
 40
9.5
  0
LINE
  8
_0-2_08_DIM
  6
CONTINUOUS
 62
    3
 10
615.19501301561672
 20
543.07110101199771
 11
666.17981564730621
 21
543.07110101199771
  0
INSERT
  2
-004-p1ba05
  8
_0-2_08_DIM
 10
645.00712691066815
 20
545.80627936235817
 41
3
 42
3
 50
0
  0
LINE
  8
_0-2_08_DIM
  6
CONTINUOUS
 62
    3
 10
973.70257091754615
 20
926.68048294279811
 11
1024.6873735492356
 21
926.68048294279811
  0
INSERT
  2
-004-p1ba05
  8
_0-2_08_DIM
 10
1003.5146848125975
 20
929.41566129315845
 41
3
 42
3
 50
0
  0
TEXT
  8
_0-0_90_FRAME
 62
    3
 10
1406.0879348915239
 20
386.102303395614
 40
6
 41
1
 50
0
  1
4
  0
TEXT
  8
_0-0_90_FRAME
 62
    3
 10
1363.694021754663
 20
386.23563600113789
 40
6
 41
1
 50
0
  1
SUS304
  0
TEXT
  8
_0-0_90_FRAME
 62
    3
 10
1406.0879348915239
 20
400.10230414318107
 40
6
 41
1
 50
0
  1
2
  0
TEXT
  8
_0-0_90_FRAME
 62
    3
 10
1363.694021754663
 20
400.23563674870508
 40
6
 41
1
 50
0
  1
SUS304
  0
TEXT
  8
_0-0_90_FRAME
 62
    3
 10
1247.0440962443317
 20
400.15605198981541
 40
6
 41
1
 50
0
  1
ēśōDörÅoāpāCāv2
  0
INSERT
  2
-006-AM_BALLOON1
  8
_0-2_08_DIM
 10
536.19067813025208
 20
926.69047023870155
 41
2.5
 42
2.5
 50
0
  0
TEXT
  8
_0-5_0
 62
    7
 10
524.94067813025208
 20
922.94047023870144
 40
7.5
 41
1
 50
0
  1
100
  0
LINE
  8
_0-2_08_DIM
  6
CONTINUOUS
 62
    3
 10
731.19047551047902
 20
760.14676888393672
 11
689.48750398226764
 21
760.14676888393672
  0
LINE
  8
_0-2_08_DIM
  6
CONTINUOUS
 62
    3
 10
726.19047551047902
 20
670.14676888393672
 11
689.48750398226764
 21
670.14676888393672
  0
LINE
  8
_0-2_08_DIM
  6
CONTINUOUS
 62
    3
 10
691.98750398226753
 20
755.14676888393672
 11
691.98750398226753
 21
675.1467688839366
  0
INSERT
  2
-007-_Open30
  8
_0-2_08_DIM
 10
691.98750398226753
 20
760.14676888393672
 41
5
 42
5
 50
90
  0
INSERT
  2
-007-_Open30
  8
_0-2_08_DIM
 10
691.98750398226753
 20
670.14676888393672
 41
5
 42
5
 50
270
  0
LINE
  8
_0-2_08_DIM
  6
CONTINUOUS
 62
    3
 10
854.70764407568845
 20
477.06357787243559
 11
854.70764407568845
 21
494.56409237643823
  0
LINE
  8
_0-2_08_DIM
  6
CONTINUOUS
 62
    3
 10
860.70764407568845
 20
477.06357787243559
 11
860.70764407568845
 21
494.56409237643823
  0
LINE
  8
_0-2_08_DIM
  6
CONTINUOUS
 62
    3
 10
849.70764407568834
 20
492.06409237643823
 11
844.70764407568856
 21
492.06409237643823
  0
LINE
  8
_0-2_08_DIM
  6
CONTINUOUS
 62
    3
 10
865.70764407568845
 20
492.06409237643823
 11
877.20764407568856
 21
492.06409237643823
  0
LINE
  8
_0-2_08_DIM
  6
CONTINUOUS
 62
    3
 10
854.70764407568845
 20
492.06409237643823
 11
860.70764407568845
 21
492.06409237643823
  0
INSERT
  2
-007-_Open30
  8
_0-2_08_DIM
 10
854.70764407568845
 20
492.06409237643823
 41
5
 42
5
 50
0
  0
INSERT
  2
-007-_Open30
  8
_0-2_08_DIM
 10
860.70764407568845
 20
492.06409237643823
 41
5
 42
5
 50
180
  0
LINE
  8
_0-2_08_DIM
  6
CONTINUOUS
 62
    3
 10
801.6904755024899
 20
475.81357788021359
 11
827.18428242983123
 21
475.81357788021353
  0
LINE
  8
_0-2_08_DIM
  6
CONTINUOUS
 62
    3
 10
801.6904755024899
 20
445.81357788021359
 11
827.18428242983123
 21
445.81357788021359
  0
LINE
  8
_0-2_08_DIM
  6
CONTINUOUS
 62
    3
 10
824.68428242983111
 20
470.81357788021353
 11
824.68428242983111
 21
450.81357788021353
  0
INSERT
  2
-007-_Open30
  8
_0-2_08_DIM
 10
824.68428242983111
 20
475.81357788021353
 41
5
 42
5
 50
90
  0
INSERT
  2
-007-_Open30
  8
_0-2_08_DIM
 10
824.68428242983111
 20
445.81357788021359
 41
5
 42
5
 50
270
  0
LINE
  8
_0-2_08_DIM
  6
CONTINUOUS
 62
    3
 10
802.44047550249002
 20
475.06357788021353
 11
802.44047550249002
 21
511.53404133664765
  0
LINE
  8
_0-2_08_DIM
  6
CONTINUOUS
 62
    3
 10
732.4404755024899
 20
475.06357788021353
 11
732.4404755024899
 21
511.53404133664765
  0
LINE
  8
_0-2_08_DIM
  6
CONTINUOUS
 62
    3
 10
797.4404755024899
 20
509.03404133664759
 11
737.44047550249002
 21
509.03404133664759
  0
INSERT
  2
-007-_Open30
  8
_0-2_08_DIM
 10
802.44047550249002
 20
509.03404133664759
 41
5
 42
5
 50
0
  0
INSERT
  2
-007-_Open30
  8
_0-2_08_DIM
 10
732.4404755024899
 20
509.03404133664759
 41
5
 42
5
 50
180
  0
LINE
  8
_0-2_08_DIM
  6
CONTINUOUS
 62
    3
 10
742.44047550249002
 20
468.98688155741195
 11
742.44047550249002
 21
495.91251910506907
  0
LINE
  8
_0-2_08_DIM
  6
CONTINUOUS
 62
    3
 10
792.44047550249013
 20
468.98688155741195
 11
792.44047550249013
 21
495.91251910506907
  0
LINE
  8
_0-2_08_DIM
  6
CONTINUOUS
 62
    3
 10
747.44047550249002
 20
493.41251910506901
 11
787.44047550249002
 21
493.41251910506901
  0
INSERT
  2
-007-_Open30
  8
_0-2_08_DIM
 10
742.44047550249002
 20
493.41251910506901
 41
5
 42
5
 50
180
  0
INSERT
  2
-007-_Open30
  8
_0-2_08_DIM
 10
792.44047550249013
 20
493.41251910506901
 41
5
 42
5
 50
0
  0
LINE
  8
_0-2_08_DIM
  6
CONTINUOUS
 62
    3
 10
731.84942468311249
 20
899.84827307111675
 11
706.34498420880402
 21
899.84827307111675
  0
LINE
  8
_0-2_08_DIM
  6
CONTINUOUS
 62
    3
 10
726.19047550249002
 20
929.84827307111664
 11
706.34498420880414
 21
929.84827307111664
  0
LINE
  8
_0-2_08_DIM
  6
CONTINUOUS
 62
    3
 10
708.84498420880402
 20
904.84827307111686
 11
708.84498420880402
 21
924.84827307111675
  0
INSERT
  2
-007-_Open30
  8
_0-2_08_DIM
 10
708.84498420880402
 20
899.84827307111675
 41
5
 42
5
 50
270
  0
INSERT
  2
-007-_Open30
  8
_0-2_08_DIM
 10
708.84498420880402
 20
929.84827307111664
 41
5
 42
5
 50
90
  0
LINE
  8
_0-2_08_DIM
  6
CONTINUOUS
 62
    3
 10
742.44047549450102
 20
889.25722225972845
 11
742.44047549450102
 21
860.67925722867017
  0
LINE
  8
_0-2_08_DIM
  6
CONTINUOUS
 62
    3
 10
792.44047551048629
 20
889.25722225972845
 11
792.44047551048629
 21
860.67925722867017
  0
LINE
  8
_0-2_08_DIM
  6
CONTINUOUS
 62
    3
 10
747.4404754945009
 20
863.17925722866994
 11
787.44047551048629
 21
863.17925722866994
  0
INSERT
  2
-007-_Open30
  8
_0-2_08_DIM
 10
742.44047549450102
 20
863.17925722866994
 41
5
 42
5
 50
180
  0
INSERT
  2
-007-_Open30
  8
_0-2_08_DIM
 10
792.44047551048629
 20
863.17925722866994
 41
5
 42
5
 50
0
  0
LINE
  8
_0-2_08_DIM
  6
CONTINUOUS
 62
    3
 10
599.46629855262677
 20
680.89676888393672
 11
599.46629855262677
 21
647.60303483030077
  0
LINE
  8
_0-2_08_DIM
  6
CONTINUOUS
 62
    3
 10
644.46629855262677
 20
668.89676888393672
 11
644.46629855262677
 21
647.60303483030077
  0
LINE
  8
_0-2_08_DIM
  6
CONTINUOUS
 62
    3
 10
604.46629855262688
 20
650.10303483030077
 11
639.46629855262677
 21
650.10303483030077
  0
INSERT
  2
-007-_Open30
  8
_0-2_08_DIM
 10
599.46629855262677
 20
650.10303483030077
 41
5
 42
5
 50
180
  0
INSERT
  2
-007-_Open30
  8
_0-2_08_DIM
 10
644.46629855262677
 20
650.10303483030077
 41
5
 42
5
 50
0
  0
LINE
  8
_0-2_08_DIM
  6
CONTINUOUS
 62
    3
 10
605.46629855262677
 20
761.3967688839366
 11
605.46629855262677
 21
781.93434411405474
  0
LINE
  8
_0-2_08_DIM
  6
CONTINUOUS
 62
    3
 10
644.46629855262677
 20
677.39676888689814
 11
644.46629855262677
 21
781.93434411405474
  0
LINE
  8
_0-2_08_DIM
  6
CONTINUOUS
 62
    3
 10
610.46629855262677
 20
779.43434411405462
 11
639.46629855262677
 21
779.43434411405462
  0
INSERT
  2
-007-_Open30
  8
_0-2_08_DIM
 10
605.46629855262677
 20
779.43434411405462
 41
5
 42
5
 50
180
  0
INSERT
  2
-007-_Open30
  8
_0-2_08_DIM
 10
644.46629855262677
 20
779.43434411405462
 41
5
 42
5
 50
0
  0
LINE
  8
_0-2_08_DIM
  6
CONTINUOUS
 62
    3
 10
605.46629855262677
 20
761.3967688839366
 11
605.46629855262677
 21
781.93434411405474
  0
LINE
  8
_0-2_08_DIM
  6
CONTINUOUS
 62
    3
 10
599.46629855262677
 20
761.3967688839366
 11
599.46629855262677
 21
781.93434411405474
  0
LINE
  8
_0-2_08_DIM
  6
CONTINUOUS
 62
    3
 10
610.46629855262677
 20
779.43434411405462
 11
615.46629855262677
 21
779.43434411405462
  0
LINE
  8
_0-2_08_DIM
  6
CONTINUOUS
 62
    3
 10
594.46629855262677
 20
779.43434411405462
 11
582.96629855262677
 21
779.43434411405462
  0
LINE
  8
_0-2_08_DIM
  6
CONTINUOUS
 62
    3
 10
605.46629855262677
 20
779.43434411405462
 11
599.46629855262677
 21
779.43434411405462
  0
INSERT
  2
-007-_Open30
  8
_0-2_08_DIM
 10
605.46629855262677
 20
779.43434411405462
 41
5
 42
5
 50
180
  0
INSERT
  2
-007-_Open30
  8
_0-2_08_DIM
 10
599.46629855262677
 20
779.43434411405462
 41
5
 42
5
 50
0
  0
LINE
  8
_0-2_08_DIM
  6
CONTINUOUS
 62
    3
 10
730.34771334658069
 20
695.14676889107443
 11
707.65484395226144
 21
695.14676889107443
  0
LINE
  8
_0-2_08_DIM
  6
CONTINUOUS
 62
    3
 10
730.34771334658069
 20
735.14676889107443
 11
707.65484395226144
 21
735.14676889107443
  0
LINE
  8
_0-2_08_DIM
  6
CONTINUOUS
 62
    3
 10
710.15484395226144
 20
700.14676889107443
 11
710.15484395226144
 21
730.14676889107432
  0
INSERT
  2
-007-_Open30
  8
_0-2_08_DIM
 10
710.15484395226144
 20
695.14676889107443
 41
5
 42
5
 50
270
  0
INSERT
  2
-007-_Open30
  8
_0-2_08_DIM
 10
710.15484395226144
 20
735.14676889107443
 41
5
 42
5
 50
90
  0
LINE
  8
_0-2_08_DIM
  6
CONTINUOUS
 62
    3
 10
730.34771334658069
 20
695.14676889107443
 11
707.65484395226144
 21
695.14676889107443
  0
LINE
  8
_0-2_08_DIM
  6
CONTINUOUS
 62
    3
 10
726.19047551047902
 20
670.14676888393672
 11
707.65484395226144
 21
670.14676888393672
  0
LINE
  8
_0-2_08_DIM
  6
CONTINUOUS
 62
    3
 10
710.15484395226144
 20
690.14676889107443
 11
710.15484395226144
 21
675.1467688839366
  0
INSERT
  2
-007-_Open30
  8
_0-2_08_DIM
 10
710.15484395226144
 20
695.14676889107443
 41
5
 42
5
 50
90
  0
INSERT
  2
-007-_Open30
  8
_0-2_08_DIM
 10
710.15484395226144
 20
670.14676888393672
 41
5
 42
5
 50
270
  0
LINE
  8
_0-2_08_DIM
  6
CONTINUOUS
 62
    3
 10
807.44047551047902
 20
756.39676888393672
 11
807.44047551047902
 21
814.49963400720617
  0
LINE
  8
_0-2_08_DIM
  6
CONTINUOUS
 62
    3
 10
727.4404755104789
 20
756.39676888393672
 11
727.4404755104789
 21
814.49963400720617
  0
LINE
  8
_0-2_08_DIM
  6
CONTINUOUS
 62
    3
 10
802.4404755104789
 20
811.99963400720628
 11
732.44047551047902
 21
811.99963400720628
  0
INSERT
  2
-007-_Open30
  8
_0-2_08_DIM
 10
807.44047551047902
 20
811.99963400720628
 41
5
 42
5
 50
0
  0
INSERT
  2
-007-_Open30
  8
_0-2_08_DIM
 10
727.4404755104789
 20
811.99963400720628
 41
5
 42
5
 50
180
  0
LINE
  8
_0-2_08_DIM
  6
CONTINUOUS
 62
    3
 10
742.44047550494929
 20
747.39676889107443
 11
742.44047550494929
 21
798.1046816797334
  0
LINE
  8
_0-2_08_DIM
  6
CONTINUOUS
 62
    3
 10
792.44047550003802
 20
747.39676889107443
 11
792.44047550003802
 21
798.1046816797334
  0
LINE
  8
_0-2_08_DIM
  6
CONTINUOUS
 62
    3
 10
747.44047550494929
 20
795.60468167973352
 11
787.44047550003802
 21
795.60468167973352
  0
INSERT
  2
-007-_Open30
  8
_0-2_08_DIM
 10
742.44047550494929
 20
795.60468167973352
 41
5
 42
5
 50
180
  0
INSERT
  2
-007-_Open30
  8
_0-2_08_DIM
 10
792.44047550003802
 20
795.60468167973352
 41
5
 42
5
 50
0
  0
LINE
  8
_0-2_08_DIM
  6
CONTINUOUS
 62
    3
 10
747.44047550494929
 20
736.39676889107454
 11
747.44047550494929
 21
780.06083536920698
  0
LINE
  8
_0-2_08_DIM
  6
CONTINUOUS
 62
    3
 10
737.44047550494918
 20
736.39676889107454
 11
737.44047550494918
 21
780.06083536920698
  0
LINE
  8
_0-2_08_DIM
  6
CONTINUOUS
 62
    3
 10
752.44047550494929
 20
777.56083536920698
 11
757.44047550494929
 21
777.56083536920698
  0
LINE
  8
_0-2_08_DIM
  6
CONTINUOUS
 62
    3
 10
732.44047550494929
 20
777.56083536920698
 11
727.44047550494918
 21
777.56083536920698
  0
LINE
  8
_0-2_08_DIM
  6
CONTINUOUS
 62
    3
 10
747.44047550494929
 20
777.56083536920698
 11
737.44047550494918
 21
777.56083536920698
  0
INSERT
  2
-007-_Open30
  8
_0-2_08_DIM
 10
747.44047550494929
 20
777.56083536920698
 41
5
 42
5
 50
180
  0
INSERT
  2
-007-_Open30
  8
_0-2_08_DIM
 10
737.44047550494918
 20
777.56083536920698
 41
5
 42
5
 50
0
  0
LINE
  8
_0-2_08_DIM
  6
CONTINUOUS
 62
    3
 10
757.44047550638277
 20
693.89676889107443
 11
757.44047550638277
 21
650.07722130573586
  0
LINE
  8
_0-2_08_DIM
  6
CONTINUOUS
 62
    3
 10
777.44047550638265
 20
693.89676889107443
 11
777.44047550638265
 21
650.07722130573586
  0
LINE
  8
_0-2_08_DIM
  6
CONTINUOUS
 62
    3
 10
762.44047550638254
 20
652.57722130573586
 11
772.44047550638254
 21
652.57722130573586
  0
INSERT
  2
-007-_Open30
  8
_0-2_08_DIM
 10
757.44047550638277
 20
652.57722130573586
 41
5
 42
5
 50
180
  0
INSERT
  2
-007-_Open30
  8
_0-2_08_DIM
 10
777.44047550638265
 20
652.57722130573586
 41
5
 42
5
 50
0
  0
LINE
  8
_0-2_08_DIM
  6
CONTINUOUS
 62
    3
 10
679.42617319453439
 20
866.49288208941118
 11
715.47617319453434
 21
866.49288208941118
  0
LINE
  8
_0-2_08_DIM
  6
CONTINUOUS
 62
    3
 10
715.47617319453434
 20
866.49288208941118
 11
735.52513455548501
 21
891.29385551629082
  0
INSERT
  2
-007-_Open30
  8
_0-2_08_DIM
 10
738.66847134760701
 20
895.18222713064222
 41
5
 42
5
 50
51.048129049383625
  0
LINE
  8
_0-2_08_DIM
  6
CONTINUOUS
 62
    3
 10
808.47600941208316
 20
883.81273915878432
 11
833.4920131111561
 21
858.79673545971161
  0
INSERT
  2
-007-_Open30
  8
_0-2_08_DIM
 10
804.94047550615028
 20
887.34827306471732
 41
5
 42
5
 50
135
  0
LINE
  8
_0-2_08_DIM
  6
CONTINUOUS
 62
    3
 10
808.47600941641258
 20
761.18230278986937
 11
837.63333727278393
 21
790.33963064624072
  0
INSERT
  2
-007-_Open30
  8
_0-2_08_DIM
 10
804.94047551047981
 20
757.64676888393649
 41
5.0000000000000009
 42
5.0000000000000009
 50
224.99999999999997
  0
LINE
  8
_0-2_08_DIM
  6
CONTINUOUS
 62
    3
 10
833.67105117279823
 20
427.57827794612837
 11
810.42105117279823
 21
427.57827794612837
  0
LINE
  8
_0-2_08_DIM
  6
CONTINUOUS
 62
    3
 10
810.42105117279823
 20
427.57827794612837
 11
796.72299445633939
 21
452.89776892535428
  0
INSERT
  2
-007-_Open30
  8
_0-2_08_DIM
 10
794.34381725975572
 20
457.29544056694562
 41
5
 42
5
 50
118.41375934425147
  0
LINE
  8
_0-2_08_DIM
  6
CONTINUOUS
 62
    3
 10
804.9760094084229
 20
478.34911178614982
 11
829.65185338498202
 21
503.02495576270894
  0
INSERT
  2
-007-_Open30
  8
_0-2_08_DIM
 10
801.44047550249024
 20
474.81357788021717
 41
5.0000000000000009
 42
5.0000000000000009
 50
224.99999999999997
  0
LINE
  8
_0-2_08_DIM
  6
CONTINUOUS
 62
    3
 10
722.97890797985872
 20
426.89948117099277
 11
747.02890797985867
 21
426.89948117099283
  0
LINE
  8
_0-2_08_DIM
  6
CONTINUOUS
 62
    3
 10
747.02890797985867
 20
426.89948117099283
 11
760.73679666374562
 21
449.67532442347323
  0
INSERT
  2
-007-_Open30
  8
_0-2_08_DIM
 10
763.31513467923401
 20
453.95926805964388
 41
5
 42
5
 50
58.957911047862417
  0
LINE
  8
_0-2_08_DIM
  6
CONTINUOUS
 62
    3
 10
1140.1755210933272
 20
837.93246937473725
 11
1163.825913110257
 21
837.93246937473725
  0
LINE
  8
_0-2_08_DIM
  6
CONTINUOUS
 62
    3
 10
1140.1755210933272
 20
780.03246937473762
 11
1163.825913110257
 21
780.03246937473762
  0
LINE
  8
_0-2_08_DIM
  6
CONTINUOUS
 62
    3
 10
1161.325913110257
 20
832.93246937473714
 11
1161.325913110257
 21
785.03246937473762
  0
INSERT
  2
-007-_Open30
  8
_0-2_08_DIM
 10
1161.325913110257
 20
837.93246937473725
 41
5
 42
5
 50
90
  0
INSERT
  2
-007-_Open30
  8
_0-2_08_DIM
 10
1161.325913110257
 20
780.03246937473762
 41
5
 42
5
 50
270
  0
LINE
  8
_0-2_08_DIM
  6
CONTINUOUS
 62
    3
 10
1132.1755210933272
 20
839.03246937473671
 11
1179.1204108794648
 21
839.03246937473671
  0
LINE
  8
_0-2_08_DIM
  6
CONTINUOUS
 62
    3
 10
1132.1755210933272
 20
778.93246937473714
 11
1179.1204108794648
 21
778.93246937473714
  0
LINE
  8
_0-2_08_DIM
  6
CONTINUOUS
 62
    3
 10
1176.6204108794648
 20
834.03246937473659
 11
1176.6204108794648
 21
783.93246937473737
  0
INSERT
  2
-007-_Open30
  8
_0-2_08_DIM
 10
1176.6204108794648
 20
839.03246937473671
 41
5
 42
5
 50
90
  0
INSERT
  2
-007-_Open30
  8
_0-2_08_DIM
 10
1176.6204108794648
 20
778.93246937473714
 41
5
 42
5
 50
270
  0
LINE
  8
_0-2_08_DIM
  6
CONTINUOUS
 62
    3
 10
1130.9255210933272
 20
840.28246937473671
 11
1130.9255210933272
 21
861.52953699393288
  0
LINE
  8
_0-2_08_DIM
  6
CONTINUOUS
 62
    3
 10
1138.9255210933272
 20
839.18246937473725
 11
1138.9255210933272
 21
861.52953699393288
  0
LINE
  8
_0-2_08_DIM
  6
CONTINUOUS
 62
    3
 10
1125.9255210933272
 20
859.02953699393277
 11
1120.9255210933272
 21
859.02953699393277
  0
LINE
  8
_0-2_08_DIM
  6
CONTINUOUS
 62
    3
 10
1143.9255210933272
 20
859.02953699393277
 11
1148.9255210933272
 21
859.02953699393277
  0
LINE
  8
_0-2_08_DIM
  6
CONTINUOUS
 62
    3
 10
1130.9255210933272
 20
859.02953699393277
 11
1138.9255210933272
 21
859.02953699393277
  0
INSERT
  2
-007-_Open30
  8
_0-2_08_DIM
 10
1130.9255210933272
 20
859.02953699393277
 41
5
 42
5
 50
0
  0
INSERT
  2
-007-_Open30
  8
_0-2_08_DIM
 10
1138.9255210933272
 20
859.02953699393277
 41
5
 42
5
 50
180
  0
LINE
  8
_0-2_08_DIM
  6
CONTINUOUS
 62
    3
 10
1106.9255210933272
 20
840.28246937473398
 11
1106.9255210933272
 21
883.84638106207296
  0
LINE
  8
_0-2_08_DIM
  6
CONTINUOUS
 62
    3
 10
1138.9255210933272
 20
839.18246937473725
 11
1138.9255210933272
 21
883.84638106207296
  0
LINE
  8
_0-2_08_DIM
  6
CONTINUOUS
 62
    3
 10
1111.9255210933272
 20
881.34638106207296
 11
1133.9255210933272
 21
881.34638106207296
  0
INSERT
  2
-007-_Open30
  8
_0-2_08_DIM
 10
1106.9255210933272
 20
881.34638106207296
 41
5
 42
5
 50
180
  0
INSERT
  2
-007-_Open30
  8
_0-2_08_DIM
 10
1138.9255210933272
 20
881.34638106207296
 41
5
 42
5
 50
0
  0
LINE
  8
_0-2_08_DIM
  6
CONTINUOUS
 62
    3
 10
1080.9255210933127
 20
887.73246937467286
 11
1080.9255210933127
 21
906.19143198778386
  0
LINE
  8
_0-2_08_DIM
  6
CONTINUOUS
 62
    3
 10
1070.9255210933127
 20
887.73246937467286
 11
1070.9255210933127
 21
906.19143198778386
  0
LINE
  8
_0-2_08_DIM
  6
CONTINUOUS
 62
    3
 10
1085.9255210933127
 20
903.69143198778374
 11
1090.9255210933127
 21
903.69143198778374
  0
LINE
  8
_0-2_08_DIM
  6
CONTINUOUS
 62
    3
 10
1065.9255210933127
 20
903.69143198778374
 11
1060.9255210933127
 21
903.69143198778374
  0
LINE
  8
_0-2_08_DIM
  6
CONTINUOUS
 62
    3
 10
1080.9255210933127
 20
903.69143198778374
 11
1070.9255210933127
 21
903.69143198778374
  0
INSERT
  2
-007-_Open30
  8
_0-2_08_DIM
 10
1080.9255210933127
 20
903.69143198778374
 41
5
 42
5
 50
180
  0
INSERT
  2
-007-_Open30
  8
_0-2_08_DIM
 10
1070.9255210933127
 20
903.69143198778374
 41
5
 42
5
 50
0
  0
LINE
  8
_0-2_08_DIM
  6
CONTINUOUS
 62
    3
 10
1080.9255210933127
 20
887.73246937467286
 11
1080.9255210933127
 21
906.19143198778386
  0
LINE
  8
_0-2_08_DIM
  6
CONTINUOUS
 62
    3
 10
1138.9255210933272
 20
839.18246937473725
 11
1138.9255210933272
 21
906.19143198778386
  0
LINE
  8
_0-2_08_DIM
  6
CONTINUOUS
 62
    3
 10
1085.9255210933127
 20
903.69143198778374
 11
1133.9255210933272
 21
903.69143198778374
  0
INSERT
  2
-007-_Open30
  8
_0-2_08_DIM
 10
1080.9255210933127
 20
903.69143198778374
 41
5
 42
5
 50
180
  0
INSERT
  2
-007-_Open30
  8
_0-2_08_DIM
 10
1138.9255210933272
 20
903.69143198778374
 41
5
 42
5
 50
0
  0
LINE
  8
_0-2_08_DIM
  6
CONTINUOUS
 62
    3
 10
1069.6755210933072
 20
839.23246937473471
 11
1035.6987655494599
 21
839.23246937473471
  0
LINE
  8
_0-2_08_DIM
  6
CONTINUOUS
 62
    3
 10
1069.6755210933072
 20
778.7324693746109
 11
1035.6987655494599
 21
778.7324693746109
  0
LINE
  8
_0-2_08_DIM
  6
CONTINUOUS
 62
    3
 10
1038.1987655494597
 20
834.23246937473471
 11
1038.1987655494597
 21
783.73246937461101
  0
INSERT
  2
-007-_Open30
  8
_0-2_08_DIM
 10
1038.1987655494597
 20
839.23246937473471
 41
5
 42
5
 50
90
  0
INSERT
  2
-007-_Open30
  8
_0-2_08_DIM
 10
1038.1987655494597
 20
778.7324693746109
 41
5
 42
5
 50
270
  0
LINE
  8
_0-2_08_DIM
  6
CONTINUOUS
 62
    3
 10
1074.9255210907079
 20
777.48246937461147
 11
1074.9255210907079
 21
712.76250126415982
  0
LINE
  8
_0-2_08_DIM
  6
CONTINUOUS
 62
    3
 10
1070.9255210933127
 20
730.23246937467297
 11
1070.9255210933127
 21
712.76250126415982
  0
LINE
  8
_0-2_08_DIM
  6
CONTINUOUS
 62
    3
 10
1079.9255210907079
 20
715.26250126415982
 11
1084.9255210907079
 21
715.26250126415982
  0
LINE
  8
_0-2_08_DIM
  6
CONTINUOUS
 62
    3
 10
1065.9255210933127
 20
715.26250126415982
 11
1054.4255210933127
 21
715.26250126415982
  0
LINE
  8
_0-2_08_DIM
  6
CONTINUOUS
 62
    3
 10
1074.9255210907079
 20
715.26250126415982
 11
1070.9255210933127
 21
715.26250126415982
  0
INSERT
  2
-007-_Open30
  8
_0-2_08_DIM
 10
1074.9255210907079
 20
715.26250126415982
 41
5
 42
5
 50
180
  0
INSERT
  2
-007-_Open30
  8
_0-2_08_DIM
 10
1070.9255210933127
 20
715.26250126415982
 41
5
 42
5
 50
0
  0
LINE
  8
_0-2_08_DIM
  6
CONTINUOUS
 62
    3
 10
1074.9255210907079
 20
777.48246937461147
 11
1074.9255210907079
 21
712.76250126415982
  0
LINE
  8
_0-2_08_DIM
  6
CONTINUOUS
 62
    3
 10
1138.9255210933272
 20
778.78246937473773
 11
1138.9255210933272
 21
712.76250126415982
  0
LINE
  8
_0-2_08_DIM
  6
CONTINUOUS
 62
    3
 10
1079.9255210907079
 20
715.26250126415982
 11
1133.9255210933272
 21
715.26250126415982
  0
INSERT
  2
-007-_Open30
  8
_0-2_08_DIM
 10
1074.9255210907079
 20
715.26250126415982
 41
5
 42
5
 50
180
  0
INSERT
  2
-007-_Open30
  8
_0-2_08_DIM
 10
1138.9255210933272
 20
715.26250126415982
 41
5
 42
5
 50
0
  0
LINE
  8
_0-2_08_DIM
  6
CONTINUOUS
 62
    3
 10
1385.3718879716901
 20
778.58458854131425
 11
1293.6992346724512
 21
839.3803502092195
  0
LINE
  8
_0-2_08_DIM
  6
CONTINUOUS
 62
    3
 10
1289.5322958860713
 20
842.14379392143087
 11
1262.4462178390174
 21
860.10682527486767
  0
LINE
  8
_0-2_08_DIM
  6
CONTINUOUS
 62
    3
 10
1262.4462178390174
 20
860.10682527486767
 11
1242.1962178390174
 21
860.10682527486767
  0
INSERT
  2
-007-_Open30
  8
_0-2_08_DIM
 10
1389.5388267580702
 20
775.82114482910276
 41
5
 42
5
 50
326.44833180541525
  0
INSERT
  2
-007-_Open30
  8
_0-2_08_DIM
 10
1289.5322958860713
 20
842.14379392143087
 41
5
 42
5
 50
146.44833180541522
  0
LINE
  8
_0-2_08_DIM
  6
CONTINUOUS
 62
    3
 10
1214.5316189898076
 20
833.3723784058717
 11
1250.581618989808
 21
833.37237840587193
  0
LINE
  8
_0-2_08_DIM
  6
CONTINUOUS
 62
    3
 10
1250.581618989808
 20
833.37237840587193
 11
1268.4457911946959
 21
818.32415008570899
  0
INSERT
  2
-007-_Open30
  8
_0-2_08_DIM
 10
1272.2698498595412
 20
815.10288087500646
 41
5
 42
5
 50
319.89024585454757
  0
LINE
  8
_0-2_08_DIM
  6
CONTINUOUS
 62
    3
 10
1144.343065961277
 20
879.4212752122196
 11
1219.8330659612768
 21
879.4212752122196
  0
INSERT
  2
-007-_Open30
  8
_0-2_08_DIM
 10
1136.6515619018048
 20
868.14239643819019
 41
5
 42
5
 50
238.27968194663362
  0
LINE
  8
_0-2_08_DIM
  6
CONTINUOUS
 62
    3
 10
1139.2804285520485
 20
872.39552001213417
 11
1143.623065961277
 21
879.4212752122196
  0
LINE
  8
_0-2_08_DIM
  6
CONTINUOUS
 62
    3
 10
1143.623065961277
 20
879.4212752122196
 11
1144.343065961277
 21
879.4212752122196
  0
INSERT
  2
-006-AM_BALLOON1
  8
_0-2_08_DIM
 10
602.68034160766888
 20
543.08108830790127
 41
2.5
 42
2.5
 50
0
  0
TEXT
  8
_0-5_0
 62
    7
 10
592.50177017909743
 20
539.33108830790127
 40
7.5
 41
1
 50
0
  1
101
  0
INSERT
  2
-006-AM_BALLOON1
  8
_0-2_08_DIM
 10
961.18789950959831
 20
926.69047023870155
 41
2.5
 42
2.5
 50
0
  0
TEXT
  8
_0-5_0
 62
    7
 10
949.93789950959831
 20
922.94047023870144
 40
7.5
 41
1
 50
0
  1
102
  0
LINE
  8
_0-2_08_DIM
  6
CONTINUOUS
 62
    3
 10
1069.6755210933127
 20
886.48246937467275
 11
1018.3197851400603
 21
886.48246937467275
  0
LINE
  8
_0-2_08_DIM
  6
CONTINUOUS
 62
    3
 10
1069.6755210933127
 20
731.48246937467286
 11
1018.3197851400603
 21
731.48246937467286
  0
LINE
  8
_0-2_08_DIM
  6
CONTINUOUS
 62
    3
 10
1020.8197851400603
 20
881.48246937467297
 11
1020.8197851400603
 21
736.48246937467286
  0
INSERT
  2
-007-_Open30
  8
_0-2_08_DIM
 10
1020.8197851400603
 20
886.48246937467275
 41
5
 42
5
 50
90
  0
INSERT
  2
-007-_Open30
  8
_0-2_08_DIM
 10
1020.8197851400603
 20
731.48246937467286
 41
5
 42
5
 50
270
  0
TEXT
  8
_0-7_07_TEXT
 62
    3
 10
1356.9435409670527
 20
484.49427889126162
 40
6
 41
1
 50
0
  1
ÆŹŗL
  0
TEXT
  8
_0-7_07_TEXT
 62
    3
 10
1357.4235409670528
 20
473.33627889126154
 40
6
 41
1
 50
0
  1
ü@ÄwÄ”é╚é½ŖpĢöé═
  0
TEXT
  8
_0-7_07_TEXT
 62
    3
 10
1422.0735409670526
 20
473.33627889126154
 40
6
 41
1
 50
0
  1
C0.5
  0
TEXT
  8
_0-7_07_TEXT
 62
    3
 10
1442.3592552527671
 20
473.33627889126154
 40
6
 41
1
 50
0
  1
é╠é▒éŲ
  0
TEXT
  8
_0-7_07_TEXT
 62
    3
 10
1357.4235409670528
 20
462.25027889126153
 40
6
 41
1
 50
0
  1
ü@ÄwÄ”é╚é½ŚnÉ┌Ģöé═ü@ü@ü@ü@é╠é▒éŲ
  0
TEXT
  8
_0-2_08_DIM
 62
    3
 10
690.73750398226741
 20
709.43248316965105
 40
6
 41
1
 50
90
  1
90
  0
TEXT
  8
_0-2_08_DIM
 62
    3
 10
870.95764407568834
 20
493.31409237643817
 40
6
 41
1
 50
0
  1
6
  0
TEXT
  8
_0-2_08_DIM
 62
    3
 10
823.43428242983111
 20
455.09929216592792
 40
6
 41
1
 50
90
  1
30
  0
TEXT
  8
_0-2_08_DIM
 62
    3
 10
761.72618978820447
 20
510.28404133664765
 40
6
 41
1
 50
0
  1
70
  0
TEXT
  8
_0-2_08_DIM
 62
    3
 10
761.72618978820447
 20
494.66251910506901
 40
6
 41
1
 50
0
  1
50
  0
TEXT
  8
_0-2_08_DIM
 62
    3
 10
707.59498420880402
 20
909.1339873568312
 40
6
 41
1
 50
90
  1
30
  0
TEXT
  8
_0-2_08_DIM
 62
    3
 10
761.72618978820799
 20
864.42925722866994
 40
6
 41
1
 50
0
  1
50
  0
TEXT
  8
_0-2_08_DIM
 62
    3
 10
616.2520128383411
 20
651.35303483030089
 40
6
 41
1
 50
0
  1
45
  0
TEXT
  8
_0-2_08_DIM
 62
    3
 10
619.39486998119821
 20
780.68434411405462
 40
6
 41
1
 50
0
  1
39
  0
TEXT
  8
_0-2_08_DIM
 62
    3
 10
583.21629855262688
 20
780.68434411405462
 40
6
 41
1
 50
0
  1
6
  0
TEXT
  8
_0-2_08_DIM
 62
    3
 10
708.90484395226133
 20
709.43248317678876
 40
6
 41
1
 50
90
  1
40
  0
TEXT
  8
_0-2_08_DIM
 62
    3
 10
708.90484395226133
 20
676.93248317321991
 40
6
 41
1
 50
90
  1
25
  0
TEXT
  8
_0-2_08_DIM
 62
    3
 10
761.72618979619324
 20
813.24963400720628
 40
6
 41
1
 50
0
  1
80
  0
TEXT
  8
_0-2_08_DIM
 62
    3
 10
761.72618978820799
 20
796.8546816797334
 40
6
 41
1
 50
0
  1
50
  0
TEXT
  8
_0-2_08_DIM
 62
    3
 10
736.29761836209207
 20
778.81083536920698
 40
6
 41
1
 50
0
  1
10
  0
TEXT
  8
_0-2_08_DIM
 62
    3
 10
761.72618979209699
 20
653.82722130573586
 40
6
 41
1
 50
0
  1
20
  0
TEXT
  8
_0-2_08_DIM
 62
    3
 10
677.14288748024853
 20
868.08488208941117
 40
6
 41
1
 50
0
  1
2-12
  0
TEXT
  8
_0-2_08_DIM
 62
    3
 10
701.7143160516772
 20
868.08488208941117
 40
6
 41
1
 50
0
  1
āLāŖ
  0
TEXT
  8
_0-2_08_DIM
 62
    3
 10
816.92551138049964
 20
877.13100414333405
 40
6
 41
1
 50
-44.999999999999893
  1
2-C5
  0
TEXT
  8
_0-2_08_DIM
 62
    3
 10
819.29906858916149
 20
773.77312891558461
 40
6
 41
1
 50
45.000000000000107
  1
2-C5
  0
TEXT
  8
_0-2_08_DIM
 62
    3
 10
809.81390831565523
 20
428.82827794612842
 40
6
 41
1
 50
0
  1
2-M8
  0
TEXT
  8
_0-2_08_DIM
 62
    3
 10
811.31758470135946
 20
486.4584540320526
 40
6
 41
1
 50
45.000000000000107
  1
4-C2
  0
TEXT
  8
_0-2_08_DIM
 62
    3
 10
720.83847940843009
 20
428.49148117099281
 40
6
 41
1
 50
0
  1
16
  0
TEXT
  8
_0-2_08_DIM
 62
    3
 10
732.26705083700153
 20
428.49148117099281
 40
6
 41
1
 50
0
  1
āLāŖ
  0
TEXT
  8
_0-2_08_DIM
 62
    3
 10
1160.0759131102568
 20
796.41104080330922
 40
6
 41
1
 50
90
  1
?57.9
  0
TEXT
  8
_0-2_08_DIM
 62
    3
 10
1175.3704108794648
 20
797.12532651759432
 40
6
 41
1
 50
90
  1
?60.1
  0
TEXT
  8
_0-2_08_DIM
 62
    3
 10
1132.0683782361843
 20
860.27953699393277
 40
6
 41
1
 50
0
  1
8
  0
TEXT
  8
_0-2_08_DIM
 62
    3
 10
1117.2112353790415
 20
882.59638106207296
 40
6
 41
1
 50
0
  1
32
  0
TEXT
  8
_0-2_08_DIM
 62
    3
 10
1069.7826639504556
 20
904.94143198778374
 40
6
 41
1
 50
0
  1
10
  0
TEXT
  8
_0-2_08_DIM
 62
    3
 10
1100.2112353790342
 20
905.94143198778386
 40
6
 41
1
 50
0
  1
(58)
  0
TEXT
  8
_0-2_08_DIM
 62
    3
 10
1034.6273369780311
 20
796.26818366038719
 40
6
 41
1
 50
90
  1
?60.5
  0
TEXT
  8
_0-2_08_DIM
 62
    3
 10
1045.1987655494595
 20
759.1253265175302
 40
6
 41
1
 50
90
  1
(50ASch20S SUS-TP)
  0
TEXT
  8
_0-2_08_DIM
 62
    3
 10
1054.6755210933127
 20
716.51250126415994
 40
6
 41
1
 50
0
  1
4
  0
TEXT
  8
_0-2_08_DIM
 62
    3
 10
1097.211235377732
 20
717.51250126415971
 40
6
 41
1
 50
0
  1
(64)
  0
TEXT
  8
_0-2_08_DIM
 62
    3
 10
1240.410503553303
 20
861.35682527486767
 40
6
 41
1
 50
0
  1
?120
  0
TEXT
  8
_0-2_08_DIM
 62
    3
 10
1212.2483332755221
 20
834.96437840587191
 40
6
 41
1
 50
0
  1
4-19
  0
TEXT
  8
_0-2_08_DIM
 62
    3
 10
1236.8197618469505
 20
834.96437840587191
 40
6
 41
1
 50
0
  1
āLāŖ
  0
TEXT
  8
_0-2_08_DIM
 62
    3
 10
1147.8990659612771
 20
879.22327521221939
 40
6
 41
1
 50
0
  1
āOāēāCāōā_ü[ē┴ŹHē┬
  0
TEXT
  8
_0-2_08_DIM
 62
    3
 10
1019.5697851400602
 20
797.69675508895864
 40
6
 41
1
 50
90
  1
?155
  0
TEXT
  8
_0-0_90_FRAME
 62
    3
 10
601.72799920403929
 20
155.71106533543451
 40
6
 41
1
 50
0
  1
Äøōc
  0
TEXT
  8
_0-0_90_FRAME
 62
    3
 10
448.47145420929957
 20
155.71106533543451
 40
6
 41
0.65
 50
0
  1
2013.09.01
  0
TEXT
  8
_0-0_90_FRAME
 62
    3
 10
488.45482890232125
 20
155.71106533543451
 40
6
 41
1
 50
0
  1
āGāAü[ö▓é½ÆŪē┴
  0
TEXT
  8
_0-8_
 62
    7
 10
850.00048510519525
 20
154.07733527704266
 40
13.558807347798716
 41
1
 50
0
  1
A3ü@150%
  0
ENDSEC
  0
EOF
