  0
SECTION
  2
HEADER
  9
$ACADVER
  1
AC1009
  9
$INSBASE
 10
0
 20
0
 30
0
  9
$EXTMIN
 10
0
 20
0
  9
$EXTMAX
 10
2044.7014954811345
 20
1445.8960575188023
  9
$LIMMIN
 10
0
 20
0
  9
$LIMMAX
 10
2044.7014954811345
 20
1445.8960575188023
  9
$LTSCALE
 40
4.8683368940027014
  0
ENDSEC
  0
SECTION
  2
TABLES
  0
TABLE
  2
LTYPE
 70
     9
  0
LTYPE
  2
CONTINUOUS
 70
    64
  3
Ä└É³
 72
    65
 73
     0
 40
0.0
  0
LTYPE
  2
DASHED1
 70
    64
  3
--  --  --  --  --  --  --  --  
 72
    65
 73
     2
 40
2.5
 49
1.25
 49
-1.25
  0
LTYPE
  2
DASHED2
 70
    64
  3
----    ----    ----    ----    
 72
    65
 73
     2
 40
5.0
 49
2.5
 49
-2.5
  0
LTYPE
  2
DASHED3
 70
    64
  3
------  ------  ------  ------  
 72
    65
 73
     2
 40
5.0
 49
3.75
 49
-1.25
  0
LTYPE
  2
CENTER1
 70
    64
  3
----- - ----- - ----- - ----- - 
 72
    65
 73
     4
 40
10.0
 49
6.25
 49
-1.25
 49
1.25
 49
-1.25
  0
LTYPE
  2
CENTER2
 70
    64
  3
----------  --  ----------  --  
 72
    65
 73
     4
 40
20.0
 49
12.5
 49
-2.5
 49
2.5
 49
-2.5
  0
LTYPE
  2
PHANTOM1
 70
    64
  3
--- - - --- - - --- - - --- - - 
 72
    65
 73
     6
 40
10.0
 49
3.25
 49
-1.25
 49
1.25
 49
-1.25
 49
1.25
 49
-1.25
  0
LTYPE
  2
PHANTOM2
 70
    64
  3
--------  -  -  --------  -  -  
 72
    65
 73
     6
 40
20.0
 49
10.0
 49
-2.5
 49
1.25
 49
-2.5
 49
1.25
 49
-2.5
  0
LTYPE
  2
DOT
 70
    64
  3
-   -   -   -   -   -   -   -   
 72
    65
 73
     2
 40
2.5
 49
0.625
 49
-1.875
  0
LTYPE
  2
DUMMY
 70
    64
  3
ā_ā~ü[
 72
    65
 73
     0
 40
0.0
  0
LTYPE
  2
RAND1
 70
    64
  3
āēāōā_āĆÉ³1
 72
    65
 73
     4
 40
10.0
 49
1.0
 49
-2.0
 49
3.0
 49
-4.0
  0
LTYPE
  2
RAND2
 70
    64
  3
āēāōā_āĆÉ³2
 72
    65
 73
     4
 40
14.0
 49
2.0
 49
-3.0
 49
4.0
 49
-5.0
  0
LTYPE
  2
RAND3
 70
    64
  3
āēāōā_āĆÉ³3
 72
    65
 73
     4
 40
18.0
 49
3.0
 49
-4.0
 49
5.0
 49
-6.0
  0
LTYPE
  2
RAND4
 70
    64
  3
āēāōā_āĆÉ³4
 72
    65
 73
     4
 40
22.0
 49
4.0
 49
-5.0
 49
6.0
 49
-7.0
  0
LTYPE
  2
RAND5
 70
    64
  3
āēāōā_āĆÉ³5
 72
    65
 73
     4
 40
26.0
 49
5.0
 49
-6.0
 49
7.0
 49
-8.0
  0
LTYPE
  2
LONG1
 70
    64
  3
----------  --  ----------  --  
 72
    65
 73
     4
 40
40.0
 49
32.5
 49
-2.5
 49
2.5
 49
-2.5
  0
LTYPE
  2
LONG2
 70
    64
  3
--------  -  -  --------  -  -  
 72
    65
 73
     6
 40
40.0
 49
30.0
 49
-2.5
 49
1.25
 49
-2.5
 49
1.25
 49
-2.5
  0
LTYPE
  2
LONG3
 70
    64
  3
+++++++++++++++..+++++++++++++++
 72
    65
 73
     2
 40
40.0
 49
37.5
 49
-2.5
  0
LTYPE
  2
LONG4
 70
    64
  3
+++++++++++++++..+++++++++++++++
 72
    65
 73
     2
 40
80.0
 49
75.0
 49
-5.0
  0
LTYPE
  2
LONG5
 70
    64
  3
----------  --  ----------  --  
 72
    65
 73
     4
 40
60.0
 49
37.5
 49
-7.5
 49
7.5
 49
-7.5
  0
LTYPE
  2
dashed
 70
   64
  3
-------   -------------   ------
 72
   65
 73
    2
 40
7.5
 49
6
 49
-1.5
  0
LTYPE
  2
dashed_spaced
 70
   64
  3
----        --------        ----
 72
   65
 73
    2
 40
12
 49
6
 49
-6
  0
LTYPE
  2
long_dashed_dotted
 70
   64
  3
------------- --- --------------
 72
   65
 73
    4
 40
15.25
 49
12
 49
-1.5
 49
0.25
 49
-1.5
  0
LTYPE
  2
long_dashed_double-dotted
 70
   64
  3
----------- --- --- ------------
 72
   65
 73
    6
 40
17
 49
12
 49
-1.5
 49
0.25
 49
-1.5
 49
0.25
 49
-1.5
  0
LTYPE
  2
long_dashed_triplicate-dotted
 70
   64
  3
--------- --- --- --- ----------
 72
   65
 73
    8
 40
18.75
 49
12
 49
-1.5
 49
0.25
 49
-1.5
 49
0.25
 49
-1.5
 49
0.25
 49
-1.5
  0
LTYPE
  2
dotted
 70
   64
  3
   -       -       -       -    
 72
   65
 73
    2
 40
1.75
 49
0.25
 49
-1.5
  0
LTYPE
  2
chain
 70
   64
  3
-------------- -- --------------
 72
   65
 73
    4
 40
18.5
 49
12
 49
-1.5
 49
3.5
 49
-1.5
  0
LTYPE
  2
chain_double_dash
 70
   64
  3
------------ -- -- -------------
 72
   65
 73
    6
 40
23.5
 49
12
 49
-1.5
 49
3.5
 49
-1.5
 49
3.5
 49
-1.5
  0
LTYPE
  2
dashed_dotted
 70
   64
  3
-----------     -     ----------
 72
   65
 73
    4
 40
9.25
 49
6
 49
-1.5
 49
0.25
 49
-1.5
  0
LTYPE
  2
double-dashed_dotted
 70
   64
  3
------   -----------   -   -----
 72
   65
 73
    6
 40
16.75
 49
6
 49
-1.5
 49
6
 49
-1.5
 49
0.25
 49
-1.5
  0
LTYPE
  2
dashed_double-dotted
 70
   64
  3
---------    -    -    ---------
 72
   65
 73
    6
 40
11
 49
6
 49
-1.5
 49
0.25
 49
-1.5
 49
0.25
 49
-1.5
  0
LTYPE
  2
double-dashed_double-dotted
 70
   64
  3
-----   ---------   -   -   ----
 72
   65
 73
    8
 40
18.5
 49
6
 49
-1.5
 49
6
 49
-1.5
 49
0.25
 49
-1.5
 49
0.25
 49
-1.5
  0
LTYPE
  2
dashed_triplicate-dotted
 70
   64
  3
-------    -    -    -    ------
 72
   65
 73
    8
 40
12.75
 49
6
 49
-1.5
 49
0.25
 49
-1.5
 49
0.25
 49
-1.5
 49
0.25
 49
-1.5
  0
LTYPE
  2
double-dashed_triplicate-dotted
 70
   64
  3
-----  ---------  -  -  -  -----
 72
   65
 73
   10
 40
20.25
 49
6
 49
-1.5
 49
6
 49
-1.5
 49
0.25
 49
-1.5
 49
0.25
 49
-1.5
 49
0.25
 49
-1.5
  0
LTYPE
  2
undefined
 70
   64
  3
--------------------------------
 72
   65
 73
    0
 40
0
  0
LTYPE
  2
_
 70
   64
  3
                                
 72
   65
 73
    0
 40
0
  0
LTYPE
  2
__18
 70
   64
  3
                                
 72
   65
 73
    0
 40
0
  0
LTYPE
  2
__19
 70
   64
  3
                                
 72
   65
 73
    0
 40
0
  0
LTYPE
  2
__20
 70
   64
  3
                                
 72
   65
 73
    0
 40
0
  0
LTYPE
  2
__21
 70
   64
  3
                                
 72
   65
 73
    0
 40
0
  0
LTYPE
  2
__22
 70
   64
  3
                                
 72
   65
 73
    0
 40
0
  0
LTYPE
  2
__23
 70
   64
  3
                                
 72
   65
 73
    0
 40
0
  0
LTYPE
  2
__24
 70
   64
  3
                                
 72
   65
 73
    0
 40
0
  0
LTYPE
  2
__25
 70
   64
  3
                                
 72
   65
 73
    0
 40
0
  0
LTYPE
  2
__26
 70
   64
  3
                                
 72
   65
 73
    0
 40
0
  0
LTYPE
  2
__27
 70
   64
  3
                                
 72
   65
 73
    0
 40
0
  0
LTYPE
  2
__28
 70
   64
  3
                                
 72
   65
 73
    0
 40
0
  0
LTYPE
  2
__29
 70
   64
  3
                                
 72
   65
 73
    0
 40
0
  0
LTYPE
  2
__30
 70
   64
  3
                                
 72
   65
 73
    0
 40
0
  0
LTYPE
  2
__31
 70
   64
  3
                                
 72
   65
 73
    0
 40
0
  0
LTYPE
  2
__32
 70
   64
  3
                                
 72
   65
 73
    0
 40
0
  0
ENDTAB
  0
TABLE
  2
STYLE
  5
3
100
AcDbSymbolTable
 70
     1
  0
STYLE
  5
10
100
AcDbSymbolTableRecord
100
AcDbTextStyleTableRecord
  2
STANDARD
 70
     0
 40
0.0
 41
1.0
 50
0.0
 71
     0
 42
0.2
  3
txt
  4
bigfont.shx
  0
STYLE
  5
26
100
AcDbSymbolTableRecord
100
AcDbTextStyleTableRecord
  2
TATEGAKI
 70
    68
 40
0.0
 41
1.0
 50
0.0
 71
     0
 42
1.0
  3
txt
  4
bigfont.shx
  0
ENDTAB
  0
TABLE
  2
LAYER
 70
    9
  0
LAYER
  2
_0-0_90_FRAME
 70
   64
 62
    7
  6
CONTINUOUS
  0
LAYER
  2
_0-1_91_BLANK
 70
   64
 62
    7
  6
CONTINUOUS
  0
LAYER
  2
_0-2_0
 70
   64
 62
    7
  6
CONTINUOUS
  0
LAYER
  2
_0-3_05_CENTER
 70
   64
 62
    7
  6
CONTINUOUS
  0
LAYER
  2
_0-4_04_HIDDEN
 70
   64
 62
    7
  6
CONTINUOUS
  0
LAYER
  2
_0-5_08_DIM
 70
   64
 62
    7
  6
CONTINUOUS
  0
LAYER
  2
_0-6_07_TEXT
 70
   64
 62
    7
  6
CONTINUOUS
  0
LAYER
  2
_0-8_
 70
   64
 62
    7
  6
CONTINUOUS
  0
LAYER
  2
ADD_LINE
 70
   64
 62
    7
  6
CONTINUOUS
  0
ENDTAB
  0
ENDSEC
  0
SECTION
  2
BLOCKS
  0
BLOCK
  2
-000-A$C6E312E5A_1_1
 70
   64
 10
0
 20
0
 30
0
  0
LINE
  8
_0-4_04_HIDDEN
  6
CONTINUOUS
 62
    7
 10
0
 20
0
 11
0
 21
-49.999999999999993
  0
ARC
  8
_0-4_04_HIDDEN
  6
CONTINUOUS
 62
    7
 10
1.4999999999999998
 20
-45.500000000000007
 40
4.5
 50
270
 51
0
  0
LINE
  8
_0-4_04_HIDDEN
  6
CONTINUOUS
 62
    7
 10
1.4999999999999998
 20
-49.999999999999993
 11
0
 21
-49.999999999999993
  0
LINE
  8
_0-4_04_HIDDEN
  6
CONTINUOUS
 62
    7
 10
5.9999999999999991
 20
-45.500000000000007
 11
5.9999999999999991
 21
-12.499999999999998
  0
ARC
  8
_0-4_04_HIDDEN
  6
CONTINUOUS
 62
    7
 10
12.499999999999998
 20
-12.499999999999998
 40
6.5
 50
90
 51
180
  0
LINE
  8
_0-4_04_HIDDEN
  6
CONTINUOUS
 62
    7
 10
12.499999999999998
 20
-5.9999999999999991
 11
45.500000000000007
 21
-5.9999999999999991
  0
ARC
  8
_0-4_04_HIDDEN
  6
CONTINUOUS
 62
    7
 10
45.500000000000007
 20
-1.4999999999999998
 40
4.5
 50
270
 51
0
  0
LINE
  8
_0-4_04_HIDDEN
  6
CONTINUOUS
 62
    7
 10
49.999999999999993
 20
-1.4999999999999998
 11
49.999999999999993
 21
0
  0
LINE
  8
_0-4_04_HIDDEN
  6
CONTINUOUS
 62
    7
 10
0
 20
0
 11
49.999999999999993
 21
0
  0
ENDBLK
  0
BLOCK
  2
-001-p1ba05
 70
   64
 10
0
 20
0
 30
0
  0
ARC
  8
_0-5_08_DIM
  6
CONTINUOUS
 62
    3
 10
0
 20
1.6206695983957431
 40
1.6206695983958537
 50
204.22763733453323
 51
335.57577857182139
  0
ARC
  8
_0-5_08_DIM
  6
CONTINUOUS
 62
    3
 10
-2.9535588745990822
 20
0.2854771617432376
 40
1.6206695983958537
 50
24.227637334533135
 51
155.57577857182133
  0
ENDBLK
  0
BLOCK
  2
-002-Weld-line
 70
   64
 10
0
 20
0
 30
0
  0
LINE
  8
_0-5_08_DIM
  6
CONTINUOUS
 62
    3
 10
0
 20
0
 11
1
 21
0
  0
ENDBLK
  0
BLOCK
  2
-003-Weld10-s5
 70
   64
 10
0
 20
0
 30
0
  0
CIRCLE
  8
_0-5_08_DIM
  6
CONTINUOUS
 62
    3
 10
0
 20
0
 40
2
  0
ENDBLK
  0
BLOCK
  2
-004-Weld10-a1
 70
   64
 10
0
 20
0
 30
0
  0
LINE
  8
_0-5_08_DIM
  6
CONTINUOUS
 62
    3
 10
5
 20
0
 11
0
 21
5
  0
LINE
  8
_0-5_08_DIM
  6
CONTINUOUS
 62
    3
 10
0
 20
5
 11
0
 21
0
  0
LINE
  8
_0-5_08_DIM
  6
CONTINUOUS
 62
    3
 10
0
 20
0
 11
5
 21
0
  0
ENDBLK
  0
BLOCK
  2
-005-Jis_w20130906110600
 70
   64
 10
0
 20
0
 30
0
  0
INSERT
  2
-002-Weld-line
  8
_0-5_08_DIM
 10
0
 20
0
 41
14.000000000000002
 42
14.000000000000002
 50
0
  0
INSERT
  2
-003-Weld10-s5
  8
_0-5_08_DIM
 10
0
 20
0
 41
1
 42
1
 50
0
  0
INSERT
  2
-004-Weld10-a1
  8
_0-5_08_DIM
 10
5.9999999999999991
 20
0
 41
-1
 42
1
 50
180
  0
TEXT
  8
_0-5_08_DIM
 62
    3
 10
4.0000000000001137
 20
-1
 40
2.7999999999999998
 41
0.9000000000000001
 50
0
  1

  0
TEXT
  8
_0-5_08_DIM
 62
    3
 10
14.000000000000114
 20
-1
 40
2.7999999999999998
 41
0.9000000000000001
 50
0
  1

  0
LINE
  8
_0-5_08_DIM
  6
CONTINUOUS
 62
    3
 10
-4.6308054280802935
 20
-5.7653612299384358
 11
0
 21
0
  0
ENDBLK
  0
BLOCK
  2
-006-_Open30
 70
   64
 10
0
 20
0
 30
0
  0
LINE
  8
_0-5_08_DIM
  6
CONTINUOUS
 62
    3
 10
-1
 20
0.26794919
 11
0
 21
0
  0
LINE
  8
_0-5_08_DIM
  6
CONTINUOUS
 62
    3
 10
0
 20
0
 11
-1
 21
-0.26794919
  0
LINE
  8
_0-5_08_DIM
  6
CONTINUOUS
 62
    3
 10
0
 20
0
 11
-1
 21
0
  0
ENDBLK
  0
BLOCK
  2
-007-AM_BALLOON1
 70
   64
 10
0
 20
0
 30
0
  0
CIRCLE
  8
_0-5_08_DIM
  6
CONTINUOUS
 62
    3
 10
0
 20
0
 40
5
  0
ENDBLK
  0
ENDSEC
  0
SECTION
  2
ENTITIES
  0
TEXT
  8
_0-0_90_FRAME
 62
    7
 10
1419.5485067257885
 20
361.45039843457721
 40
10
 41
1
 50
0
  1
AT-221121-04-33
  0
TEXT
  8
_0-0_90_FRAME
 62
    7
 10
1351.0707326046511
 20
338.43288704329154
 40
10
 41
1
 50
0
  1
2024.09.05
  0
LINE
  8
_0-0_90_FRAME
  6
CONTINUOUS
 62
    5
 10
438.54271246424037
 20
333.00116323273755
 11
1541.0208130323729
 21
333.00116323273755
  0
LINE
  8
_0-0_90_FRAME
  6
CONTINUOUS
 62
    5
 10
1541.0208130323729
 20
333.00116323273755
 11
1541.0208130323729
 21
1121.1776925067725
  0
LINE
  8
_0-0_90_FRAME
  6
CONTINUOUS
 62
    5
 10
1541.0208130323729
 20
1121.1776925067725
 11
438.54271246424037
 21
1121.1776925067725
  0
LINE
  8
_0-0_90_FRAME
  6
CONTINUOUS
 62
    5
 10
438.54271246424037
 20
1121.1776925067725
 11
438.54271246424037
 21
333.00116323273755
  0
LINE
  8
_0-0_90_FRAME
  6
CONTINUOUS
 62
    5
 10
383.38153040732368
 20
727.08942786975501
 11
438.54271246424037
 21
727.08942786975501
  0
LINE
  8
_0-0_90_FRAME
  6
CONTINUOUS
 62
    5
 10
1559.4267516037266
 20
727.08942786975501
 11
1541.0208130323729
 21
727.08942786975501
  0
LINE
  8
_0-0_90_FRAME
  6
CONTINUOUS
 62
    5
 10
989.78176274830662
 20
1142.423631081924
 11
989.78176274830673
 21
1121.1776925067725
  0
LINE
  8
_0-0_90_FRAME
  6
CONTINUOUS
 62
    5
 10
989.78176274830673
 20
314.67751507812494
 11
989.78176274830673
 21
333.00116323273755
  0
LINE
  8
_0-0_90_FRAME
  6
CONTINUOUS
 62
    5
 10
848.19761989173469
 20
324.50611466134154
 11
1131.3659056048791
 21
324.50611466134154
  0
LINE
  8
_0-0_90_FRAME
  6
CONTINUOUS
 62
    5
 10
848.19761989173469
 20
324.50611466134154
 11
848.19761989173469
 21
333.00116323273755
  0
LINE
  8
_0-0_90_FRAME
  6
CONTINUOUS
 62
    5
 10
876.5144484630498
 20
324.50611466134154
 11
876.5144484630498
 21
333.00116323273755
  0
LINE
  8
_0-0_90_FRAME
  6
CONTINUOUS
 62
    5
 10
904.83127703436492
 20
324.50611466134154
 11
904.83127703436492
 21
333.00116323273755
  0
LINE
  8
_0-0_90_FRAME
  6
CONTINUOUS
 62
    5
 10
933.14810560567639
 20
324.50611466134154
 11
933.14810560567639
 21
333.00116323273755
  0
LINE
  8
_0-0_90_FRAME
  6
CONTINUOUS
 62
    5
 10
961.46493417699151
 20
324.50611466134154
 11
961.46493417699151
 21
333.00116323273755
  0
LINE
  8
_0-0_90_FRAME
  6
CONTINUOUS
 62
    5
 10
1018.0985913196182
 20
324.50611466134154
 11
1018.0985913196182
 21
333.00116323273755
  0
LINE
  8
_0-0_90_FRAME
  6
CONTINUOUS
 62
    5
 10
1046.4154198909334
 20
324.50611466134154
 11
1046.4154198909334
 21
333.00116323273755
  0
LINE
  8
_0-0_90_FRAME
  6
CONTINUOUS
 62
    5
 10
1074.7322484622487
 20
324.50611466134154
 11
1074.7322484622487
 21
333.00116323273755
  0
LINE
  8
_0-0_90_FRAME
  6
CONTINUOUS
 62
    5
 10
1103.0490770335637
 20
324.50611466134154
 11
1103.0490770335637
 21
333.00116323273755
  0
LINE
  8
_0-0_90_FRAME
  6
CONTINUOUS
 62
    5
 10
1131.3659056048791
 20
324.50611466134154
 11
1131.3659056048791
 21
333.00116323273755
  0
LINE
  8
_0-0_90_FRAME
  6
CONTINUOUS
 62
    4
 10
704.64545744945735
 20
1121.1776925067725
 11
704.64545744945735
 21
1139.5836310781226
  0
TEXT
  8
_0-0_90_FRAME
 62
    7
 10
490.88978873803563
 20
1124.8437018019195
 40
5.6799999999999997
 41
1
 50
0
  1
1
  0
TEXT
  8
_0-0_90_FRAME
 62
    7
 10
560.183971466701
 20
1124.8437018019195
 40
5.6799999999999997
 41
1
 50
0
  1
2
  0
TEXT
  8
_0-0_90_FRAME
 62
    7
 10
655.22940656631749
 20
1124.8437018019195
 40
5.6799999999999997
 41
1
 50
0
  1
3
  0
TEXT
  8
_0-0_90_FRAME
 62
    7
 10
750.27484166593035
 20
1124.8437018019195
 40
5.6799999999999997
 41
1
 50
0
  1
4
  0
TEXT
  8
_0-0_90_FRAME
 62
    7
 10
845.32027676555049
 20
1124.8437018019195
 40
5.6799999999999997
 41
1
 50
0
  1
5
  0
TEXT
  8
_0-0_90_FRAME
 62
    7
 10
940.36571186516346
 20
1124.8437018019195
 40
5.6799999999999997
 41
1
 50
0
  1
6
  0
TEXT
  8
_0-0_90_FRAME
 62
    7
 10
1035.4111469647798
 20
1124.8437018019195
 40
5.6799999999999997
 41
1
 50
0
  1
7
  0
TEXT
  8
_0-0_90_FRAME
 62
    7
 10
1130.4565820643963
 20
1124.8437018019195
 40
5.6799999999999997
 41
1
 50
0
  1
8
  0
TEXT
  8
_0-0_90_FRAME
 62
    7
 10
1225.5020171640126
 20
1124.8437018019195
 40
5.6799999999999997
 41
1
 50
0
  1
9
  0
TEXT
  8
_0-0_90_FRAME
 62
    7
 10
1319.1274522636295
 20
1124.8437018019195
 40
5.6799999999999997
 41
1
 50
0
  1
10
  0
TEXT
  8
_0-0_90_FRAME
 62
    7
 10
1414.6462206965755
 20
1124.8437018019195
 40
5.6799999999999997
 41
1
 50
0
  1
11
  0
TEXT
  8
_0-0_90_FRAME
 62
    7
 10
1508.7449891295253
 20
1124.8437018019195
 40
5.6799999999999997
 41
1
 50
0
  1
12
  0
TEXT
  8
_0-0_90_FRAME
 62
    7
 10
1544.6798162247851
 20
976.28955487498581
 40
5.6799999999999997
 41
1
 50
0
  1
B
  0
LINE
  8
_0-0_90_FRAME
  6
CONTINUOUS
 62
    4
 10
1559.4267516037266
 20
525.45732626557037
 11
1541.0208130323729
 21
525.45732626557037
  0
LINE
  8
_0-0_90_FRAME
  6
CONTINUOUS
 62
    4
 10
1559.4267516037266
 20
626.27337706766264
 11
1541.0208130323729
 21
626.27337706766264
  0
LINE
  8
_0-0_90_FRAME
  6
CONTINUOUS
 62
    4
 10
1559.4267516037266
 20
424.64127546347805
 11
1541.0208130323729
 21
424.64127546347805
  0
LINE
  8
_0-0_90_FRAME
  6
CONTINUOUS
 62
    4
 10
1559.4267516037266
 20
928.72152947393977
 11
1541.0208130323729
 21
928.72152947393977
  0
LINE
  8
_0-0_90_FRAME
  6
CONTINUOUS
 62
    4
 10
1559.4267516037266
 20
827.90547867184739
 11
1541.0208130323729
 21
827.90547867184739
  0
LINE
  8
_0-0_90_FRAME
  6
CONTINUOUS
 62
    4
 10
1559.4267516037266
 20
1029.537580276032
 11
1541.0208130323729
 21
1029.537580276032
  0
TEXT
  8
_0-0_90_FRAME
 62
    7
 10
1544.6798162247851
 20
1077.1056056770783
 40
5.6799999999999997
 41
1
 50
0
  1
A
  0
TEXT
  8
_0-0_90_FRAME
 62
    7
 10
1544.6798162247851
 20
875.47350407289355
 40
5.6799999999999997
 41
1
 50
0
  1
C
  0
TEXT
  8
_0-0_90_FRAME
 62
    7
 10
1544.6798162247851
 20
774.6574532708014
 40
5.6799999999999997
 41
1
 50
0
  1
D
  0
TEXT
  8
_0-0_90_FRAME
 62
    7
 10
1544.6798162247851
 20
573.02535166661653
 40
5.6799999999999997
 41
1
 50
0
  1
F
  0
TEXT
  8
_0-0_90_FRAME
 62
    7
 10
1544.6798162247851
 20
472.20930086452415
 40
5.6799999999999997
 41
1
 50
0
  1
G
  0
TEXT
  8
_0-0_90_FRAME
 62
    7
 10
1544.6798162247851
 20
371.39325006243178
 40
5.6799999999999997
 41
1
 50
0
  1
H
  0
TEXT
  8
_0-0_90_FRAME
 62
    7
 10
1544.6798162247851
 20
673.84140246870891
 40
5.6799999999999997
 41
1
 50
0
  1
E
  0
TEXT
  8
_0-0_90_FRAME
 62
    7
 10
430.18095481147805
 20
976.28955487498581
 40
5.6799999999999997
 41
1
 50
0
  1
B
  0
LINE
  8
_0-0_90_FRAME
  6
CONTINUOUS
 62
    4
 10
438.54271246424037
 20
525.45732626557037
 11
420.13677389289023
 21
525.45732626557037
  0
LINE
  8
_0-0_90_FRAME
  6
CONTINUOUS
 62
    4
 10
438.54271246424037
 20
626.27337706766264
 11
420.13677389289023
 21
626.27337706766264
  0
LINE
  8
_0-0_90_FRAME
  6
CONTINUOUS
 62
    4
 10
438.54271246424037
 20
424.64127546347805
 11
420.13677389289023
 21
424.64127546347805
  0
LINE
  8
_0-0_90_FRAME
  6
CONTINUOUS
 62
    4
 10
438.54271246424037
 20
928.72152947393977
 11
420.13677389289023
 21
928.72152947393977
  0
LINE
  8
_0-0_90_FRAME
  6
CONTINUOUS
 62
    4
 10
438.54271246424037
 20
827.90547867184739
 11
420.13677389289023
 21
827.90547867184739
  0
LINE
  8
_0-0_90_FRAME
  6
CONTINUOUS
 62
    4
 10
438.54271246424037
 20
1029.537580276032
 11
420.13677389289023
 21
1029.537580276032
  0
TEXT
  8
_0-0_90_FRAME
 62
    7
 10
430.18095481147805
 20
1077.1056056770783
 40
5.6799999999999997
 41
1
 50
0
  1
A
  0
TEXT
  8
_0-0_90_FRAME
 62
    7
 10
430.18095481147805
 20
875.47350407289355
 40
5.6799999999999997
 41
1
 50
0
  1
C
  0
TEXT
  8
_0-0_90_FRAME
 62
    7
 10
430.18095481147805
 20
774.6574532708014
 40
5.6799999999999997
 41
1
 50
0
  1
D
  0
TEXT
  8
_0-0_90_FRAME
 62
    7
 10
430.18095481147805
 20
573.02535166661653
 40
5.6799999999999997
 41
1
 50
0
  1
F
  0
TEXT
  8
_0-0_90_FRAME
 62
    7
 10
430.18095481147805
 20
472.20930086452415
 40
5.6799999999999997
 41
1
 50
0
  1
G
  0
TEXT
  8
_0-0_90_FRAME
 62
    7
 10
430.18095481147805
 20
673.84140246870891
 40
5.6799999999999997
 41
1
 50
0
  1
E
  0
TEXT
  8
_0-0_90_FRAME
 62
    7
 10
430.18095481147805
 20
371.39325006243178
 40
5.6799999999999997
 41
1
 50
0
  1
H
  0
LINE
  8
_0-0_90_FRAME
  6
CONTINUOUS
 62
    4
 10
609.60002234984086
 20
1121.1776925067725
 11
609.60002234984086
 21
1139.5836310781226
  0
LINE
  8
_0-0_90_FRAME
  6
CONTINUOUS
 62
    4
 10
514.55458725022436
 20
1121.1776925067725
 11
514.55458725022436
 21
1139.5836310781226
  0
LINE
  8
_0-0_90_FRAME
  6
CONTINUOUS
 62
    4
 10
799.69089254907374
 20
1121.1776925067725
 11
799.69089254907374
 21
1139.5836310781226
  0
LINE
  8
_0-0_90_FRAME
  6
CONTINUOUS
 62
    4
 10
894.73632764869024
 20
1121.1776925067725
 11
894.73632764869024
 21
1139.5836310781226
  0
LINE
  8
_0-0_90_FRAME
  6
CONTINUOUS
 62
    4
 10
1274.9180680471522
 20
1121.1776925067725
 11
1274.9180680471522
 21
1139.5836310781226
  0
LINE
  8
_0-0_90_FRAME
  6
CONTINUOUS
 62
    4
 10
1369.963503146769
 20
1121.1776925067725
 11
1369.963503146769
 21
1139.5836310781226
  0
LINE
  8
_0-0_90_FRAME
  6
CONTINUOUS
 62
    4
 10
1465.0089382463857
 20
1121.1776925067725
 11
1465.0089382463857
 21
1139.5836310781226
  0
LINE
  8
_0-0_90_FRAME
  6
CONTINUOUS
 62
    4
 10
1179.872632947536
 20
1121.1776925067725
 11
1179.872632947536
 21
1139.5836310781226
  0
LINE
  8
_0-0_90_FRAME
  6
CONTINUOUS
 62
    4
 10
1084.8271978479231
 20
1121.1776925067725
 11
1084.8271978479231
 21
1139.5836310781226
  0
LINE
  8
_0-0_90_FRAME
  6
CONTINUOUS
 62
    4
 10
704.64545744945735
 20
314.67751507812494
 11
704.64545744945735
 21
333.00116323273755
  0
LINE
  8
_0-0_90_FRAME
  6
CONTINUOUS
 62
    4
 10
609.60002234984086
 20
314.67751507812494
 11
609.60002234984086
 21
333.00116323273755
  0
LINE
  8
_0-0_90_FRAME
  6
CONTINUOUS
 62
    4
 10
514.55458725022436
 20
314.67751507812494
 11
514.55458725022436
 21
333.00116323273755
  0
LINE
  8
_0-0_90_FRAME
  6
CONTINUOUS
 62
    4
 10
799.69089254907374
 20
314.67751507812494
 11
799.69089254907374
 21
333.00116323273755
  0
LINE
  8
_0-0_90_FRAME
  6
CONTINUOUS
 62
    4
 10
1274.9180680471522
 20
314.67751507812494
 11
1274.9180680471522
 21
333.00116323273755
  0
LINE
  8
_0-0_90_FRAME
  6
CONTINUOUS
 62
    4
 10
1369.963503146769
 20
314.67751507812494
 11
1369.963503146769
 21
333.00116323273755
  0
LINE
  8
_0-0_90_FRAME
  6
CONTINUOUS
 62
    4
 10
1465.0089382463857
 20
314.67751507812494
 11
1465.0089382463857
 21
333.00116323273755
  0
LINE
  8
_0-0_90_FRAME
  6
CONTINUOUS
 62
    4
 10
1179.872632947536
 20
314.67751507812494
 11
1179.872632947536
 21
333.00116323273755
  0
LINE
  8
_0-1_91_BLANK
  6
CONTINUOUS
 62
    5
 10
383.38153040271288
 20
314.67751507812494
 11
1559.4267516017728
 21
314.67751507812494
  0
LINE
  8
_0-1_91_BLANK
  6
CONTINUOUS
 62
    5
 10
1559.4267516017728
 20
314.67751507812494
 11
1559.4267516017728
 21
1142.423631081924
  0
LINE
  8
_0-1_91_BLANK
  6
CONTINUOUS
 62
    5
 10
1559.4267516017728
 20
1142.423631081924
 11
383.38153040271288
 21
1142.423631081924
  0
LINE
  8
_0-1_91_BLANK
  6
CONTINUOUS
 62
    5
 10
383.38153040271288
 20
1142.423631081924
 11
383.38153040271288
 21
314.67751507812494
  0
LINE
  8
_0-0_90_FRAME
  6
CONTINUOUS
 62
   18
 10
1145.020813033972
 20
333.00116323273755
 11
1541.0208130323729
 21
333.00116323273755
  0
LINE
  8
_0-0_90_FRAME
  6
CONTINUOUS
 62
   18
 10
1541.0208130323729
 20
333.00116323273755
 11
1541.0208130323729
 21
406.54402037529752
  0
LINE
  8
_0-0_90_FRAME
  6
CONTINUOUS
 62
   18
 10
1541.0208130323729
 20
406.54402037529752
 11
1145.020813033972
 21
406.54402037529752
  0
LINE
  8
_0-0_90_FRAME
  6
CONTINUOUS
 62
   18
 10
1145.020813033972
 20
406.54402037529752
 11
1145.020813033972
 21
333.00116323273755
  0
LINE
  8
_0-0_90_FRAME
  6
CONTINUOUS
 62
   18
 10
1176.2058130338476
 20
393.81544894677671
 11
1196.005813033767
 21
398.76544894675743
  0
LINE
  8
_0-0_90_FRAME
  6
CONTINUOUS
 62
   18
 10
1196.005813033767
 20
398.76544894675743
 11
1196.005813033767
 21
378.96544894683825
  0
LINE
  8
_0-0_90_FRAME
  6
CONTINUOUS
 62
   18
 10
1196.005813033767
 20
378.96544894683825
 11
1176.2058130338476
 21
383.91544894681709
  0
LINE
  8
_0-0_90_FRAME
  6
CONTINUOUS
 62
   18
 10
1176.2058130338476
 20
383.91544894681709
 11
1176.2058130338476
 21
393.81544894677671
  0
CIRCLE
  8
_0-0_90_FRAME
  6
CONTINUOUS
 62
   18
 10
1163.3358130338977
 20
388.86544894679599
 40
4.9499999999800002
  0
CIRCLE
  8
_0-0_90_FRAME
  6
CONTINUOUS
 62
   18
 10
1163.3358130338977
 20
388.86544894679599
 40
9.8999999999600004
  0
LINE
  8
_0-0_90_FRAME
  6
CONTINUOUS
 62
   18
 10
1151.455813033946
 20
388.86544894679599
 11
1197.9858130337573
 21
388.86544894679599
  0
LINE
  8
_0-0_90_FRAME
  6
CONTINUOUS
 62
   18
 10
1163.3358130338977
 20
376.98544894684596
 11
1163.3358130338977
 21
400.74544894674978
  0
LINE
  8
_0-0_90_FRAME
  6
CONTINUOUS
 62
   18
 10
1307.2350987475725
 20
333.00116323273755
 11
1307.2350987475725
 21
406.54402037529752
  0
LINE
  8
_0-0_90_FRAME
  6
CONTINUOUS
 62
   18
 10
1307.2350987475725
 20
355.62973466121701
 11
1541.0208130323729
 21
355.62973466121701
  0
TEXT
  8
_0-0_90_FRAME
 62
    7
 10
1308.2491822624336
 20
348.59381416767314
 40
5
 41
1
 50
0
  1
Źņ É¼ ō·
  0
LINE
  8
_0-0_90_FRAME
  6
CONTINUOUS
 62
   18
 10
1445.5065273184514
 20
355.62973466121701
 11
1445.5065273184514
 21
333.00116323273755
  0
TEXT
  8
_0-0_90_FRAME
 62
    7
 10
1446.6939708122186
 20
348.45553229804386
 40
5
 41
1
 50
0
  1
ī┬Éö
  0
TEXT
  8
_0-0_90_FRAME
 62
    7
 10
1260.4749932323789
 20
399.98848420292848
 40
5
 41
1
 50
0
  1
āTāCāY
  0
TEXT
  8
_0-0_90_FRAME
 62
    7
 10
1205.31785037546
 20
399.61557653811428
 40
5
 41
1
 50
0
  1
Ä┌ü@ōx
  0
TEXT
  8
_0-0_90_FRAME
 62
    7
 10
1260.4750237052172
 20
364.63134134592906
 40
5
 41
1
 50
0
  1
É╗ü@É}
  0
LINE
  8
_0-0_90_FRAME
  6
CONTINUOUS
 62
   18
 10
1307.2350987475725
 20
371.18687751829634
 11
1145.020813033972
 21
371.18687751829634
  0
LINE
  8
_0-0_90_FRAME
  6
CONTINUOUS
 62
   18
 10
1382.7588998962087
 20
378.25830608969659
 11
1541.0208130323729
 21
378.25830608969659
  0
TEXT
  8
_0-0_90_FRAME
 62
    7
 10
1276.9090653901771
 20
379.67335322527674
 40
10
 41
1
 50
0
  1
A2
  0
LINE
  8
_0-0_90_FRAME
  6
CONTINUOUS
 62
   18
 10
1259.5779558906518
 20
333.00116323273755
 11
1259.5779558906518
 21
406.54402037529752
  0
TEXT
  8
_0-0_90_FRAME
 62
    2
 10
1180.0113394514265
 20
340.7834742100527
 40
10
 41
1
 50
0
  1
āAāNāAāgāŖāĆ
  0
LINE
  8
_0-0_90_FRAME
  6
CONTINUOUS
 62
    4
 10
1176.9349563600949
 20
366.34343907280044
 11
1176.9349563600949
 21
336.75708196491877
  0
LINE
  8
_0-0_90_FRAME
  6
CONTINUOUS
 62
    4
 10
1176.9349563600949
 20
336.75708196491877
 11
1150.0382680802027
 21
336.75708196491877
  0
LINE
  8
_0-0_90_FRAME
  6
CONTINUOUS
 62
    4
 10
1150.0382680802027
 20
336.75708196491877
 11
1150.0382680802027
 21
366.34343907280044
  0
LINE
  8
_0-0_90_FRAME
  6
CONTINUOUS
 62
    4
 10
1150.1663475482023
 20
366.21535960479991
 11
1150.1663475482023
 21
366.21535960479991
  0
LINE
  8
_0-0_90_FRAME
  6
CONTINUOUS
 62
    4
 10
1150.1663475482023
 20
366.21535960479991
 11
1150.2325052552073
 21
365.5481366183601
  0
LINE
  8
_0-0_90_FRAME
  6
CONTINUOUS
 62
    4
 10
1150.2325052552073
 20
365.5481366183601
 11
1150.4289682077726
 21
364.90118686473215
  0
LINE
  8
_0-0_90_FRAME
  6
CONTINUOUS
 62
    4
 10
1150.4289682077726
 20
364.90118686473215
 11
1150.7497669784993
 21
364.29416758480767
  0
LINE
  8
_0-0_90_FRAME
  6
CONTINUOUS
 62
    4
 10
1150.7497669784993
 20
364.29416758480767
 11
1151.1851542590709
 21
363.74552275224056
  0
LINE
  8
_0-0_90_FRAME
  6
CONTINUOUS
 62
    4
 10
1151.1851542590709
 20
363.74552275224056
 11
1151.721901027284
 21
363.27192266264075
  0
LINE
  8
_0-0_90_FRAME
  6
CONTINUOUS
 62
    4
 10
1151.721901027284
 20
363.27192266264075
 11
1152.3436985041935
 21
362.88775741507749
  0
LINE
  8
_0-0_90_FRAME
  6
CONTINUOUS
 62
    4
 10
1152.3436985041935
 20
362.88775741507749
 11
1153.031653688108
 21
362.60469967620094
  0
LINE
  8
_0-0_90_FRAME
  6
CONTINUOUS
 62
    4
 10
1153.031653688108
 20
362.60469967620094
 11
1153.7648634088862
 21
362.43135001217286
  0
LINE
  8
_0-0_90_FRAME
  6
CONTINUOUS
 62
    4
 10
1153.7648634088862
 20
362.43135001217286
 11
1154.5210494601847
 21
362.37297556481542
  0
LINE
  8
_0-0_90_FRAME
  6
CONTINUOUS
 62
    4
 10
1154.5210494601847
 20
362.37297556481542
 11
1155.2772355114832
 21
362.43135001217286
  0
LINE
  8
_0-0_90_FRAME
  6
CONTINUOUS
 62
    4
 10
1155.2772355114832
 20
362.43135001217286
 11
1156.0104452322614
 21
362.60469967620094
  0
LINE
  8
_0-0_90_FRAME
  6
CONTINUOUS
 62
    4
 10
1156.0104452322614
 20
362.60469967620094
 11
1156.6984004161759
 21
362.88775741507749
  0
LINE
  8
_0-0_90_FRAME
  6
CONTINUOUS
 62
    4
 10
1156.6984004161759
 20
362.88775741507749
 11
1157.3201978930854
 21
363.27192266264075
  0
LINE
  8
_0-0_90_FRAME
  6
CONTINUOUS
 62
    4
 10
1157.3201978930854
 20
363.27192266264075
 11
1157.8569446612985
 21
363.74552275224056
  0
LINE
  8
_0-0_90_FRAME
  6
CONTINUOUS
 62
    4
 10
1157.8569446612985
 20
363.74552275224056
 11
1158.2923319418701
 21
364.29416758480767
  0
LINE
  8
_0-0_90_FRAME
  6
CONTINUOUS
 62
    4
 10
1158.2923319418701
 20
364.29416758480767
 11
1158.6131307125968
 21
364.90118686473215
  0
LINE
  8
_0-0_90_FRAME
  6
CONTINUOUS
 62
    4
 10
1158.6131307125968
 20
364.90118686473215
 11
1158.8095936651621
 21
365.5481366183601
  0
LINE
  8
_0-0_90_FRAME
  6
CONTINUOUS
 62
    4
 10
1158.8095936651621
 20
365.5481366183601
 11
1158.8757513721671
 21
366.21535960479991
  0
LINE
  8
_0-0_90_FRAME
  6
CONTINUOUS
 62
    4
 10
1158.8757513721671
 20
366.21535960479991
 11
1158.8757513721671
 21
366.21535960479991
  0
ARC
  8
_0-0_90_FRAME
  6
CONTINUOUS
 62
    4
 10
1159.0038308401668
 20
366.21535960479991
 40
0.1280794679994825
 50
0
 51
180
  0
LINE
  8
_0-0_90_FRAME
  6
CONTINUOUS
 62
    4
 10
1159.1319103081664
 20
366.21535960479991
 11
1159.1319103081664
 21
366.21535960479991
  0
LINE
  8
_0-0_90_FRAME
  6
CONTINUOUS
 62
    4
 10
1159.1319103081664
 20
366.21535960479991
 11
1159.1980680151714
 21
365.5481366183601
  0
LINE
  8
_0-0_90_FRAME
  6
CONTINUOUS
 62
    4
 10
1159.1980680151714
 20
365.5481366183601
 11
1159.3945309677367
 21
364.90118686473215
  0
LINE
  8
_0-0_90_FRAME
  6
CONTINUOUS
 62
    4
 10
1159.3945309677367
 20
364.90118686473215
 11
1159.7153297384634
 21
364.29416758480767
  0
LINE
  8
_0-0_90_FRAME
  6
CONTINUOUS
 62
    4
 10
1159.7153297384634
 20
364.29416758480767
 11
1160.150717019035
 21
363.74552275224056
  0
LINE
  8
_0-0_90_FRAME
  6
CONTINUOUS
 62
    4
 10
1160.150717019035
 20
363.74552275224056
 11
1160.6874637872481
 21
363.27192266264075
  0
LINE
  8
_0-0_90_FRAME
  6
CONTINUOUS
 62
    4
 10
1160.6874637872481
 20
363.27192266264075
 11
1161.3092612641576
 21
362.88775741507749
  0
LINE
  8
_0-0_90_FRAME
  6
CONTINUOUS
 62
    4
 10
1161.3092612641576
 20
362.88775741507749
 11
1161.9972164480721
 21
362.60469967620094
  0
LINE
  8
_0-0_90_FRAME
  6
CONTINUOUS
 62
    4
 10
1161.9972164480721
 20
362.60469967620094
 11
1162.7304261688503
 21
362.43135001217286
  0
LINE
  8
_0-0_90_FRAME
  6
CONTINUOUS
 62
    4
 10
1162.7304261688503
 20
362.43135001217286
 11
1163.4866122201488
 21
362.37297556481542
  0
LINE
  8
_0-0_90_FRAME
  6
CONTINUOUS
 62
    4
 10
1163.4866122201488
 20
362.37297556481542
 11
1164.2427982714473
 21
362.43135001217286
  0
LINE
  8
_0-0_90_FRAME
  6
CONTINUOUS
 62
    4
 10
1164.2427982714473
 20
362.43135001217286
 11
1164.9760079922255
 21
362.60469967620094
  0
LINE
  8
_0-0_90_FRAME
  6
CONTINUOUS
 62
    4
 10
1164.9760079922255
 20
362.60469967620094
 11
1165.66396317614
 21
362.88775741507749
  0
LINE
  8
_0-0_90_FRAME
  6
CONTINUOUS
 62
    4
 10
1165.66396317614
 20
362.88775741507749
 11
1166.2857606530495
 21
363.27192266264075
  0
LINE
  8
_0-0_90_FRAME
  6
CONTINUOUS
 62
    4
 10
1166.2857606530495
 20
363.27192266264075
 11
1166.8225074212626
 21
363.74552275224056
  0
LINE
  8
_0-0_90_FRAME
  6
CONTINUOUS
 62
    4
 10
1166.8225074212626
 20
363.74552275224056
 11
1167.2578947018342
 21
364.29416758480767
  0
LINE
  8
_0-0_90_FRAME
  6
CONTINUOUS
 62
    4
 10
1167.2578947018342
 20
364.29416758480767
 11
1167.5786934725609
 21
364.90118686473215
  0
LINE
  8
_0-0_90_FRAME
  6
CONTINUOUS
 62
    4
 10
1167.5786934725609
 20
364.90118686473215
 11
1167.7751564251262
 21
365.5481366183601
  0
LINE
  8
_0-0_90_FRAME
  6
CONTINUOUS
 62
    4
 10
1167.7751564251262
 20
365.5481366183601
 11
1167.8413141321312
 21
366.21535960479991
  0
LINE
  8
_0-0_90_FRAME
  6
CONTINUOUS
 62
    4
 10
1167.8413141321312
 20
366.21535960479991
 11
1167.8413141321312
 21
366.21535960479991
  0
ARC
  8
_0-0_90_FRAME
  6
CONTINUOUS
 62
    4
 10
1167.9693936001308
 20
366.21535960479991
 40
0.1280794679994825
 50
0
 51
180
  0
LINE
  8
_0-0_90_FRAME
  6
CONTINUOUS
 62
    4
 10
1168.0974730681305
 20
366.21535960479991
 11
1168.0974730681305
 21
366.21535960479991
  0
LINE
  8
_0-0_90_FRAME
  6
CONTINUOUS
 62
    4
 10
1168.0974730681305
 20
366.21535960479991
 11
1168.1636307751355
 21
365.5481366183601
  0
LINE
  8
_0-0_90_FRAME
  6
CONTINUOUS
 62
    4
 10
1168.1636307751355
 20
365.5481366183601
 11
1168.3600937277008
 21
364.90118686473215
  0
LINE
  8
_0-0_90_FRAME
  6
CONTINUOUS
 62
    4
 10
1168.3600937277008
 20
364.90118686473215
 11
1168.6808924984275
 21
364.29416758480767
  0
LINE
  8
_0-0_90_FRAME
  6
CONTINUOUS
 62
    4
 10
1168.6808924984275
 20
364.29416758480767
 11
1169.1162797789991
 21
363.74552275224056
  0
LINE
  8
_0-0_90_FRAME
  6
CONTINUOUS
 62
    4
 10
1169.1162797789991
 20
363.74552275224056
 11
1169.6530265472122
 21
363.27192266264075
  0
LINE
  8
_0-0_90_FRAME
  6
CONTINUOUS
 62
    4
 10
1169.6530265472122
 20
363.27192266264075
 11
1170.2748240241217
 21
362.88775741507749
  0
LINE
  8
_0-0_90_FRAME
  6
CONTINUOUS
 62
    4
 10
1170.2748240241217
 20
362.88775741507749
 11
1170.9627792080362
 21
362.60469967620094
  0
LINE
  8
_0-0_90_FRAME
  6
CONTINUOUS
 62
    4
 10
1170.9627792080362
 20
362.60469967620094
 11
1171.6959889288144
 21
362.43135001217286
  0
LINE
  8
_0-0_90_FRAME
  6
CONTINUOUS
 62
    4
 10
1171.6959889288144
 20
362.43135001217286
 11
1172.4521749801129
 21
362.37297556481542
  0
LINE
  8
_0-0_90_FRAME
  6
CONTINUOUS
 62
    4
 10
1172.4521749801129
 20
362.37297556481542
 11
1173.2083610314114
 21
362.43135001217286
  0
LINE
  8
_0-0_90_FRAME
  6
CONTINUOUS
 62
    4
 10
1173.2083610314114
 20
362.43135001217286
 11
1173.9415707521896
 21
362.60469967620094
  0
LINE
  8
_0-0_90_FRAME
  6
CONTINUOUS
 62
    4
 10
1173.9415707521896
 20
362.60469967620094
 11
1174.6295259361041
 21
362.88775741507749
  0
LINE
  8
_0-0_90_FRAME
  6
CONTINUOUS
 62
    4
 10
1174.6295259361041
 20
362.88775741507749
 11
1175.2513234130136
 21
363.27192266264075
  0
LINE
  8
_0-0_90_FRAME
  6
CONTINUOUS
 62
    4
 10
1175.2513234130136
 20
363.27192266264075
 11
1175.7880701812267
 21
363.74552275224056
  0
LINE
  8
_0-0_90_FRAME
  6
CONTINUOUS
 62
    4
 10
1175.7880701812267
 20
363.74552275224056
 11
1176.2234574617983
 21
364.29416758480767
  0
LINE
  8
_0-0_90_FRAME
  6
CONTINUOUS
 62
    4
 10
1176.2234574617983
 20
364.29416758480767
 11
1176.544256232525
 21
364.90118686473215
  0
LINE
  8
_0-0_90_FRAME
  6
CONTINUOUS
 62
    4
 10
1176.544256232525
 20
364.90118686473215
 11
1176.7407191850903
 21
365.5481366183601
  0
LINE
  8
_0-0_90_FRAME
  6
CONTINUOUS
 62
    4
 10
1176.7407191850903
 20
365.5481366183601
 11
1176.8068768920953
 21
366.21535960479991
  0
LINE
  8
_0-0_90_FRAME
  6
CONTINUOUS
 62
    4
 10
1176.8068768920953
 20
366.21535960479991
 11
1176.8068768920953
 21
366.21535960479991
  0
ARC
  8
_0-0_90_FRAME
  6
CONTINUOUS
 62
    4
 10
1176.9349563600949
 20
366.21535960479991
 40
0.1280794679994825
 50
90
 51
180
  0
ARC
  8
_0-0_90_FRAME
  6
CONTINUOUS
 62
    4
 10
1159.0038308401668
 20
366.21535960479991
 40
0.1280794679994825
 50
0
 51
90
  0
ARC
  8
_0-0_90_FRAME
  6
CONTINUOUS
 62
    4
 10
1150.0382680802027
 20
366.21535960479991
 40
0.1280794679994825
 50
0
 51
90
  0
LINE
  8
_0-0_90_FRAME
  6
CONTINUOUS
 62
    4
 10
1153.1121753121909
 20
340.59946600490338
 11
1154.6491289281835
 21
340.59946600490338
  0
LINE
  8
_0-0_90_FRAME
  6
CONTINUOUS
 62
    4
 10
1154.6491289281835
 20
340.59946600490338
 11
1154.6491289281835
 21
339.06251238891008
  0
LINE
  8
_0-0_90_FRAME
  6
CONTINUOUS
 62
    4
 10
1154.6491289281835
 20
339.06251238891008
 11
1153.1121753121909
 21
339.06251238891008
  0
LINE
  8
_0-0_90_FRAME
  6
CONTINUOUS
 62
    4
 10
1153.1121753121909
 20
340.59946600490338
 11
1153.1121753121909
 21
339.06251238891008
  0
LINE
  8
_0-0_90_FRAME
  6
CONTINUOUS
 62
    4
 10
1173.8610491281065
 20
340.59946600490338
 11
1172.3240955121139
 21
340.59946600490338
  0
LINE
  8
_0-0_90_FRAME
  6
CONTINUOUS
 62
    4
 10
1172.3240955121139
 20
340.59946600490338
 11
1172.3240955121139
 21
339.06251238891008
  0
LINE
  8
_0-0_90_FRAME
  6
CONTINUOUS
 62
    4
 10
1172.3240955121139
 20
339.06251238891008
 11
1173.8610491281065
 21
339.06251238891008
  0
LINE
  8
_0-0_90_FRAME
  6
CONTINUOUS
 62
    4
 10
1173.8610491281065
 20
340.59946600490338
 11
1173.8610491281065
 21
339.06251238891008
  0
LINE
  8
_0-0_90_FRAME
  6
CONTINUOUS
 62
    4
 10
1156.9545593521755
 20
340.59946600490338
 11
1158.4915129681681
 21
340.59946600490338
  0
LINE
  8
_0-0_90_FRAME
  6
CONTINUOUS
 62
    4
 10
1158.4915129681681
 20
340.59946600490338
 11
1158.4915129681681
 21
339.06251238891008
  0
LINE
  8
_0-0_90_FRAME
  6
CONTINUOUS
 62
    4
 10
1158.4915129681681
 20
339.06251238891008
 11
1156.9545593521755
 21
339.06251238891008
  0
LINE
  8
_0-0_90_FRAME
  6
CONTINUOUS
 62
    4
 10
1156.9545593521755
 20
340.59946600490338
 11
1156.9545593521755
 21
339.06251238891008
  0
LINE
  8
_0-0_90_FRAME
  6
CONTINUOUS
 62
    4
 10
1160.7969433921601
 20
340.59946600490338
 11
1162.3338970081527
 21
340.59946600490338
  0
LINE
  8
_0-0_90_FRAME
  6
CONTINUOUS
 62
    4
 10
1162.3338970081527
 20
340.59946600490338
 11
1162.3338970081527
 21
339.06251238891008
  0
LINE
  8
_0-0_90_FRAME
  6
CONTINUOUS
 62
    4
 10
1162.3338970081527
 20
339.06251238891008
 11
1160.7969433921601
 21
339.06251238891008
  0
LINE
  8
_0-0_90_FRAME
  6
CONTINUOUS
 62
    4
 10
1160.7969433921601
 20
340.59946600490338
 11
1160.7969433921601
 21
339.06251238891008
  0
LINE
  8
_0-0_90_FRAME
  6
CONTINUOUS
 62
    4
 10
1164.6393274321447
 20
340.59946600490338
 11
1166.1762810481373
 21
340.59946600490338
  0
LINE
  8
_0-0_90_FRAME
  6
CONTINUOUS
 62
    4
 10
1166.1762810481373
 20
340.59946600490338
 11
1166.1762810481373
 21
339.06251238891008
  0
LINE
  8
_0-0_90_FRAME
  6
CONTINUOUS
 62
    4
 10
1166.1762810481373
 20
339.06251238891008
 11
1164.6393274321447
 21
339.06251238891008
  0
LINE
  8
_0-0_90_FRAME
  6
CONTINUOUS
 62
    4
 10
1164.6393274321447
 20
340.59946600490338
 11
1164.6393274321447
 21
339.06251238891008
  0
LINE
  8
_0-0_90_FRAME
  6
CONTINUOUS
 62
    4
 10
1168.4817114721293
 20
340.59946600490338
 11
1170.0186650881219
 21
340.59946600490338
  0
LINE
  8
_0-0_90_FRAME
  6
CONTINUOUS
 62
    4
 10
1170.0186650881219
 20
340.59946600490338
 11
1170.0186650881219
 21
339.06251238891008
  0
LINE
  8
_0-0_90_FRAME
  6
CONTINUOUS
 62
    4
 10
1170.0186650881219
 20
339.06251238891008
 11
1168.4817114721293
 21
339.06251238891008
  0
LINE
  8
_0-0_90_FRAME
  6
CONTINUOUS
 62
    4
 10
1168.4817114721293
 20
340.59946600490338
 11
1168.4817114721293
 21
339.06251238891008
  0
LINE
  8
_0-0_90_FRAME
  6
CONTINUOUS
 62
    4
 10
1163.4706975864115
 20
355.22431980206488
 11
1163.4706975864115
 21
355.22431980206488
  0
LINE
  8
_0-0_90_FRAME
  6
CONTINUOUS
 62
    4
 10
1163.4706975864115
 20
355.22431980206488
 11
1163.4259438434376
 21
355.71361665878743
  0
LINE
  8
_0-0_90_FRAME
  6
CONTINUOUS
 62
    4
 10
1163.4259438434376
 20
355.71361665878743
 11
1163.2930424343492
 21
356.18804647811459
  0
LINE
  8
_0-0_90_FRAME
  6
CONTINUOUS
 62
    4
 10
1163.2930424343492
 20
356.18804647811459
 11
1163.0760315012105
 21
356.63319395005919
  0
LINE
  8
_0-0_90_FRAME
  6
CONTINUOUS
 62
    4
 10
1163.0760315012105
 20
356.63319395005919
 11
1162.7815048114121
 21
357.03553349394173
  0
LINE
  8
_0-0_90_FRAME
  6
CONTINUOUS
 62
    4
 10
1162.7815048114121
 20
357.03553349394173
 11
1162.4184114093855
 21
357.38284022631495
  0
LINE
  8
_0-0_90_FRAME
  6
CONTINUOUS
 62
    4
 10
1162.4184114093855
 20
357.38284022631495
 11
1161.9977837044175
 21
357.66456140786136
  0
LINE
  8
_0-0_90_FRAME
  6
CONTINUOUS
 62
    4
 10
1161.9977837044175
 20
357.66456140786136
 11
1161.5324022564753
 21
357.87213708303744
  0
LINE
  8
_0-0_90_FRAME
  6
CONTINUOUS
 62
    4
 10
1161.5324022564753
 20
357.87213708303744
 11
1161.0364074453605
 21
357.99926016999143
  0
LINE
  8
_0-0_90_FRAME
  6
CONTINUOUS
 62
    4
 10
1161.0364074453605
 20
357.99926016999143
 11
1160.5248698224234
 21
358.04206809805351
  0
LINE
  8
_0-0_90_FRAME
  6
CONTINUOUS
 62
    4
 10
1160.5248698224234
 20
358.04206809805351
 11
1160.0133321994863
 21
357.99926016999143
  0
LINE
  8
_0-0_90_FRAME
  6
CONTINUOUS
 62
    4
 10
1160.0133321994863
 20
357.99926016999143
 11
1159.5173373883715
 21
357.87213708303744
  0
LINE
  8
_0-0_90_FRAME
  6
CONTINUOUS
 62
    4
 10
1159.5173373883715
 20
357.87213708303744
 11
1159.0519559404293
 21
357.66456140786136
  0
LINE
  8
_0-0_90_FRAME
  6
CONTINUOUS
 62
    4
 10
1159.0519559404293
 20
357.66456140786136
 11
1158.6313282354613
 21
357.38284022631495
  0
LINE
  8
_0-0_90_FRAME
  6
CONTINUOUS
 62
    4
 10
1158.6313282354613
 20
357.38284022631495
 11
1158.2682348334347
 21
357.03553349394173
  0
LINE
  8
_0-0_90_FRAME
  6
CONTINUOUS
 62
    4
 10
1158.2682348334347
 20
357.03553349394173
 11
1157.9737081436363
 21
356.63319395005919
  0
LINE
  8
_0-0_90_FRAME
  6
CONTINUOUS
 62
    4
 10
1157.9737081436363
 20
356.63319395005919
 11
1157.7566972104976
 21
356.18804647811459
  0
LINE
  8
_0-0_90_FRAME
  6
CONTINUOUS
 62
    4
 10
1157.7566972104976
 20
356.18804647811459
 11
1157.6237958014092
 21
355.71361665878743
  0
LINE
  8
_0-0_90_FRAME
  6
CONTINUOUS
 62
    4
 10
1157.6237958014092
 20
355.71361665878743
 11
1157.5790420584353
 21
355.22431980206488
  0
LINE
  8
_0-0_90_FRAME
  6
CONTINUOUS
 62
    4
 10
1157.5790420584353
 20
355.22431980206488
 11
1157.5790420584353
 21
355.22431980206488
  0
LINE
  8
_0-0_90_FRAME
  6
CONTINUOUS
 62
    4
 10
1163.4706975864115
 20
355.22431980206488
 11
1163.4706975864115
 21
354.45584299406778
  0
LINE
  8
_0-0_90_FRAME
  6
CONTINUOUS
 62
    4
 10
1162.0808433070945
 20
352.06322900432872
 11
1162.0808433070945
 21
352.06322900432872
  0
LINE
  8
_0-0_90_FRAME
  6
CONTINUOUS
 62
    4
 10
1162.0808433070945
 20
352.06322900432872
 11
1161.6228463753769
 21
351.84113370342266
  0
LINE
  8
_0-0_90_FRAME
  6
CONTINUOUS
 62
    4
 10
1161.6228463753769
 20
351.84113370342266
 11
1161.1314879817005
 21
351.69848502120612
  0
LINE
  8
_0-0_90_FRAME
  6
CONTINUOUS
 62
    4
 10
1161.1314879817005
 20
351.69848502120612
 11
1160.6216978022183
 21
351.63961726570449
  0
LINE
  8
_0-0_90_FRAME
  6
CONTINUOUS
 62
    4
 10
1160.6216978022183
 20
351.63961726570449
 11
1160.108965553567
 21
351.66631910388026
  0
LINE
  8
_0-0_90_FRAME
  6
CONTINUOUS
 62
    4
 10
1160.108965553567
 20
351.66631910388026
 11
1159.6088703456676
 21
351.77777921389213
  0
LINE
  8
_0-0_90_FRAME
  6
CONTINUOUS
 62
    4
 10
1159.6088703456676
 20
351.77777921389213
 11
1159.136607318351
 21
351.97061093669896
  0
LINE
  8
_0-0_90_FRAME
  6
CONTINUOUS
 62
    4
 10
1159.136607318351
 20
351.97061093669896
 11
1158.7065259447261
 21
352.23895517798087
  0
LINE
  8
_0-0_90_FRAME
  6
CONTINUOUS
 62
    4
 10
1158.7065259447261
 20
352.23895517798087
 11
1158.3316940296986
 21
352.57465843375519
  0
LINE
  8
_0-0_90_FRAME
  6
CONTINUOUS
 62
    4
 10
1158.3316940296986
 20
352.57465843375519
 11
1158.0235006513326
 21
352.96752053046936
  0
LINE
  8
_0-0_90_FRAME
  6
CONTINUOUS
 62
    4
 10
1158.0235006513326
 20
352.96752053046936
 11
1157.7913101094762
 21
353.40560455211238
  0
LINE
  8
_0-0_90_FRAME
  6
CONTINUOUS
 62
    4
 10
1157.7913101094762
 20
353.40560455211238
 11
1157.6421773962497
 21
353.87559953736798
  0
LINE
  8
_0-0_90_FRAME
  6
CONTINUOUS
 62
    4
 10
1157.6421773962497
 20
353.87559953736798
 11
1157.5806338336799
 21
354.36322492643802
  0
LINE
  8
_0-0_90_FRAME
  6
CONTINUOUS
 62
    4
 10
1157.5806338336799
 20
354.36322492643802
 11
1157.5790420584353
 21
354.45584299406778
  0
LINE
  8
_0-0_90_FRAME
  6
CONTINUOUS
 62
    4
 10
1162.4032630581692
 20
355.14896029825712
 11
1162.4032630581692
 21
354.53417885185962
  0
LINE
  8
_0-0_90_FRAME
  6
CONTINUOUS
 62
    4
 10
1169.4420959121774
 20
354.22414420288322
 11
1169.4420959121774
 21
358.04206809805396
  0
LINE
  8
_0-0_90_FRAME
  6
CONTINUOUS
 62
    4
 10
1168.2893807001813
 20
354.45584299406778
 11
1168.2893807001813
 21
358.04206809805396
  0
LINE
  8
_0-0_90_FRAME
  6
CONTINUOUS
 62
    4
 10
1168.2893807001813
 20
358.04206809805396
 11
1169.4420959121774
 21
358.04206809805396
  0
LINE
  8
_0-0_90_FRAME
  6
CONTINUOUS
 62
    4
 10
1164.0627582561988
 20
354.22414420288322
 11
1164.0627582561988
 21
358.04206809805396
  0
LINE
  8
_0-0_90_FRAME
  6
CONTINUOUS
 62
    4
 10
1165.2154734681949
 20
354.45584299406778
 11
1165.2154734681949
 21
358.04206809805396
  0
ARC
  8
_0-0_90_FRAME
  6
CONTINUOUS
 62
    4
 10
1166.7703302257498
 20
354.33999359847689
 40
2.7100492712792996
 50
182.45003099226136
 51
265.55525728852427
  0
LINE
  8
_0-0_90_FRAME
  6
CONTINUOUS
 62
    4
 10
1165.2154734681949
 20
358.04206809805396
 11
1164.0627582561988
 21
358.04206809805396
  0
LINE
  8
_0-0_90_FRAME
  6
CONTINUOUS
 62
    4
 10
1166.9445462861872
 20
351.63809469807961
 11
1166.5603078821889
 21
351.63809469807961
  0
ARC
  8
_0-0_90_FRAME
  6
CONTINUOUS
 62
    4
 10
1167.5019494705987
 20
354.42602289675574
 40
2.2866704501913211
 50
179.25279388138676
 51
218.96457184688023
  0
ARC
  8
_0-0_90_FRAME
  6
CONTINUOUS
 62
    4
 10
1166.0029046977775
 20
354.42602289675574
 40
2.2866704501910635
 50
321.03542815311977
 51
0.747206118613265
  0
ARC
  8
_0-0_90_FRAME
  6
CONTINUOUS
 62
    4
 10
1166.7524270841889
 20
354.85554100868717
 40
2.1319312674000637
 50
241.1577278083189
 51
298.8422721916811
  0
LINE
  8
_0-0_90_FRAME
  6
CONTINUOUS
 62
    4
 10
1160.7731474476145
 20
353.33593020465628
 11
1161.2961246997779
 21
352.82694811088709
  0
LINE
  8
_0-0_90_FRAME
  6
CONTINUOUS
 62
    4
 10
1160.7731474476145
 20
353.33593020465628
 11
1161.3404700429214
 21
353.93834778990612
  0
LINE
  8
_0-0_90_FRAME
  6
CONTINUOUS
 62
    4
 10
1162.9713189773788
 20
351.19658295187281
 11
1163.7125820108624
 21
351.98370105779827
  0
LINE
  8
_0-0_90_FRAME
  6
CONTINUOUS
 62
    4
 10
1158.6464765866781
 20
355.14896029825712
 11
1158.6464765866781
 21
354.53417885185962
  0
LINE
  8
_0-0_90_FRAME
  6
CONTINUOUS
 62
    4
 10
1162.4032630581687
 20
355.14896029825712
 11
1162.4032630581687
 21
355.14896029825712
  0
LINE
  8
_0-0_90_FRAME
  6
CONTINUOUS
 62
    4
 10
1162.4032630581687
 20
355.14896029825712
 11
1162.3747260441912
 21
355.4734170657685
  0
LINE
  8
_0-0_90_FRAME
  6
CONTINUOUS
 62
    4
 10
1162.3747260441912
 20
355.4734170657685
 11
1162.2899820849875
 21
355.78801537858209
  0
LINE
  8
_0-0_90_FRAME
  6
CONTINUOUS
 62
    4
 10
1162.2899820849875
 20
355.78801537858209
 11
1162.1516060828758
 21
356.08319632615752
  0
LINE
  8
_0-0_90_FRAME
  6
CONTINUOUS
 62
    4
 10
1162.1516060828758
 20
356.08319632615752
 11
1161.9638025226584
 21
356.34999098477141
  0
LINE
  8
_0-0_90_FRAME
  6
CONTINUOUS
 62
    4
 10
1161.9638025226584
 20
356.34999098477141
 11
1161.7322777204795
 21
356.58029293372641
  0
LINE
  8
_0-0_90_FRAME
  6
CONTINUOUS
 62
    4
 10
1161.7322777204795
 20
356.58029293372641
 11
1161.4640664402962
 21
356.76710456484193
  0
LINE
  8
_0-0_90_FRAME
  6
CONTINUOUS
 62
    4
 10
1161.4640664402962
 20
356.76710456484193
 11
1161.1673181461349
 21
356.90474970123779
  0
LINE
  8
_0-0_90_FRAME
  6
CONTINUOUS
 62
    4
 10
1161.1673181461349
 20
356.90474970123779
 11
1160.8510493847525
 21
356.98904606509637
  0
LINE
  8
_0-0_90_FRAME
  6
CONTINUOUS
 62
    4
 10
1160.8510493847525
 20
356.98904606509637
 11
1160.5248698224234
 21
357.01743235405786
  0
LINE
  8
_0-0_90_FRAME
  6
CONTINUOUS
 62
    4
 10
1160.5248698224234
 20
357.01743235405786
 11
1160.1986902600943
 21
356.98904606509637
  0
LINE
  8
_0-0_90_FRAME
  6
CONTINUOUS
 62
    4
 10
1160.1986902600943
 20
356.98904606509637
 11
1159.8824214987119
 21
356.90474970123779
  0
LINE
  8
_0-0_90_FRAME
  6
CONTINUOUS
 62
    4
 10
1159.8824214987119
 20
356.90474970123779
 11
1159.5856732045506
 21
356.76710456484193
  0
LINE
  8
_0-0_90_FRAME
  6
CONTINUOUS
 62
    4
 10
1159.5856732045506
 20
356.76710456484193
 11
1159.3174619243673
 21
356.58029293372641
  0
LINE
  8
_0-0_90_FRAME
  6
CONTINUOUS
 62
    4
 10
1159.3174619243673
 20
356.58029293372641
 11
1159.0859371221884
 21
356.34999098477141
  0
LINE
  8
_0-0_90_FRAME
  6
CONTINUOUS
 62
    4
 10
1159.0859371221884
 20
356.34999098477141
 11
1158.898133561971
 21
356.08319632615752
  0
LINE
  8
_0-0_90_FRAME
  6
CONTINUOUS
 62
    4
 10
1158.898133561971
 20
356.08319632615752
 11
1158.7597575598593
 21
355.78801537858209
  0
LINE
  8
_0-0_90_FRAME
  6
CONTINUOUS
 62
    4
 10
1158.7597575598593
 20
355.78801537858209
 11
1158.6750136006556
 21
355.4734170657685
  0
LINE
  8
_0-0_90_FRAME
  6
CONTINUOUS
 62
    4
 10
1158.6750136006556
 20
355.4734170657685
 11
1158.6464765866781
 21
355.14896029825712
  0
LINE
  8
_0-0_90_FRAME
  6
CONTINUOUS
 62
    4
 10
1158.6464765866781
 20
355.14896029825712
 11
1158.6464765866781
 21
355.14896029825712
  0
LINE
  8
_0-0_90_FRAME
  6
CONTINUOUS
 62
    4
 10
1161.2961246997772
 20
352.82694811088669
 11
1161.2961246997772
 21
352.82694811088669
  0
LINE
  8
_0-0_90_FRAME
  6
CONTINUOUS
 62
    4
 10
1161.2961246997772
 20
352.82694811088669
 11
1160.986990504789
 21
352.71957739815832
  0
LINE
  8
_0-0_90_FRAME
  6
CONTINUOUS
 62
    4
 10
1160.986990504789
 20
352.71957739815832
 11
1160.6638150067113
 21
352.66725199735828
  0
LINE
  8
_0-0_90_FRAME
  6
CONTINUOUS
 62
    4
 10
1160.6638150067113
 20
352.66725199735828
 11
1160.3364177295186
 21
352.67156178931197
  0
LINE
  8
_0-0_90_FRAME
  6
CONTINUOUS
 62
    4
 10
1160.3364177295186
 20
352.67156178931197
 11
1160.0147464738075
 21
352.73237582317182
  0
LINE
  8
_0-0_90_FRAME
  6
CONTINUOUS
 62
    4
 10
1160.0147464738075
 20
352.73237582317182
 11
1159.7085750579092
 21
352.84784629529224
  0
LINE
  8
_0-0_90_FRAME
  6
CONTINUOUS
 62
    4
 10
1159.7085750579092
 20
352.84784629529224
 11
1159.4272063453657
 21
353.01446469380886
  0
LINE
  8
_0-0_90_FRAME
  6
CONTINUOUS
 62
    4
 10
1159.4272063453657
 20
353.01446469380886
 11
1159.1791895821279
 21
353.22716840299569
  0
LINE
  8
_0-0_90_FRAME
  6
CONTINUOUS
 62
    4
 10
1159.1791895821279
 20
353.22716840299569
 11
1158.9720606320445
 21
353.47949452828232
  0
LINE
  8
_0-0_90_FRAME
  6
CONTINUOUS
 62
    4
 10
1158.9720606320445
 20
353.47949452828232
 11
1158.8121130034515
 21
353.76377626803514
  0
LINE
  8
_0-0_90_FRAME
  6
CONTINUOUS
 62
    4
 10
1158.8121130034515
 20
353.76377626803514
 11
1158.7042066241061
 21
354.07137586544525
  0
LINE
  8
_0-0_90_FRAME
  6
CONTINUOUS
 62
    4
 10
1158.7042066241061
 20
354.07137586544525
 11
1158.6516201747415
 21
354.39294706239826
  0
LINE
  8
_0-0_90_FRAME
  6
CONTINUOUS
 62
    4
 10
1158.6516201747415
 20
354.39294706239826
 11
1158.6464742286314
 21
354.53120249787543
  0
LINE
  8
_0-0_90_FRAME
  6
CONTINUOUS
 62
    4
 10
1151.960529043226
 20
351.63809469807961
 11
1153.1101975807735
 21
351.63809469807961
  0
LINE
  8
_0-0_90_FRAME
  6
CONTINUOUS
 62
    4
 10
1151.960529043226
 20
351.63809469807961
 11
1151.960529043226
 21
351.66883377039881
  0
LINE
  8
_0-0_90_FRAME
  6
CONTINUOUS
 62
    4
 10
1151.960529043226
 20
351.66883377039881
 11
1154.3753899638953
 21
358.04206809805396
  0
LINE
  8
_0-0_90_FRAME
  6
CONTINUOUS
 62
    4
 10
1151.960529043226
 20
351.63809469807961
 11
1151.960529043226
 21
351.66883377039881
  0
LINE
  8
_0-0_90_FRAME
  6
CONTINUOUS
 62
    4
 10
1153.7369947159816
 20
353.3264069077847
 11
1156.1013347920446
 21
353.3264069077847
  0
LINE
  8
_0-0_90_FRAME
  6
CONTINUOUS
 62
    4
 10
1154.0836084500836
 20
354.29981086458037
 11
1155.7547210579444
 21
354.29981086458037
  0
LINE
  8
_0-0_90_FRAME
  6
CONTINUOUS
 62
    4
 10
1157.8521845712016
 20
351.63809469807961
 11
1156.7025160336557
 21
351.63809469807961
  0
LINE
  8
_0-0_90_FRAME
  6
CONTINUOUS
 62
    4
 10
1156.7025160336557
 20
351.63809469807961
 11
1156.1013347920446
 21
353.3264069077847
  0
LINE
  8
_0-0_90_FRAME
  6
CONTINUOUS
 62
    4
 10
1157.8521845712016
 20
351.66883377039881
 11
1155.4373236505319
 21
358.04206809805396
  0
LINE
  8
_0-0_90_FRAME
  6
CONTINUOUS
 62
    4
 10
1157.8521845712016
 20
351.63809469807961
 11
1157.8521845712016
 21
351.66883377039881
  0
LINE
  8
_0-0_90_FRAME
  6
CONTINUOUS
 62
    4
 10
1154.3753899638953
 20
358.04206809805396
 11
1155.4373236505319
 21
358.04206809805396
  0
LINE
  8
_0-0_90_FRAME
  6
CONTINUOUS
 62
    4
 10
1155.7547210579444
 20
354.29981086458037
 11
1154.9063568072136
 21
356.68229325699826
  0
LINE
  8
_0-0_90_FRAME
  6
CONTINUOUS
 62
    4
 10
1161.3404700429214
 20
353.93834778990612
 11
1163.7125820108624
 21
351.98370105779827
  0
LINE
  8
_0-0_90_FRAME
  6
CONTINUOUS
 62
    4
 10
1162.0808433070956
 20
352.06322900432923
 11
1162.9713189773788
 21
351.19658295187281
  0
LINE
  8
_0-0_90_FRAME
  6
CONTINUOUS
 62
    4
 10
1153.7369947159816
 20
353.3264069077847
 11
1154.0836084500836
 21
354.29981086458037
  0
LINE
  8
_0-0_90_FRAME
  6
CONTINUOUS
 62
    4
 10
1163.4706975864115
 20
354.45584299406778
 11
1163.4706975864115
 21
354.45584299406778
  0
LINE
  8
_0-0_90_FRAME
  6
CONTINUOUS
 62
    4
 10
1163.4706975864115
 20
354.45584299406778
 11
1163.4259438434376
 21
353.96654613734523
  0
LINE
  8
_0-0_90_FRAME
  6
CONTINUOUS
 62
    4
 10
1163.4259438434376
 20
353.96654613734523
 11
1163.2930424343492
 21
353.49211631801808
  0
LINE
  8
_0-0_90_FRAME
  6
CONTINUOUS
 62
    4
 10
1163.2930424343492
 20
353.49211631801808
 11
1163.0760315012105
 21
353.04696884607347
  0
LINE
  8
_0-0_90_FRAME
  6
CONTINUOUS
 62
    4
 10
1163.0760315012105
 20
353.04696884607347
 11
1162.8495415971029
 21
352.7251458652413
  0
LINE
  8
_0-0_90_FRAME
  6
CONTINUOUS
 62
    4
 10
1162.4032654162154
 20
354.53120249787543
 11
1162.4032654162154
 21
354.53120249787543
  0
LINE
  8
_0-0_90_FRAME
  6
CONTINUOUS
 62
    4
 10
1162.4032654162154
 20
354.53120249787543
 11
1162.3747283664138
 21
354.2066417419469
  0
LINE
  8
_0-0_90_FRAME
  6
CONTINUOUS
 62
    4
 10
1162.3747283664138
 20
354.2066417419469
 11
1162.2899843008265
 21
353.89194260035163
  0
LINE
  8
_0-0_90_FRAME
  6
CONTINUOUS
 62
    4
 10
1162.2899843008265
 20
353.89194260035163
 11
1162.151608125004
 21
353.59666704726146
  0
LINE
  8
_0-0_90_FRAME
  6
CONTINUOUS
 62
    4
 10
1162.151608125004
 20
353.59666704726146
 11
1162.0241791074204
 21
353.40525376700293
  0
LINE
  8
_0-0_90_FRAME
  6
CONTINUOUS
 62
    4
 10
1157.5790420584358
 20
355.22431980206488
 11
1157.5790420584358
 21
354.45584299406778
  0
LINE
  8
_0-0_90_FRAME
  6
CONTINUOUS
 62
    4
 10
1153.1101975807735
 20
351.63809469807961
 11
1154.9063568072136
 21
356.68229325699826
  0
LINE
  8
_0-0_90_FRAME
  6
CONTINUOUS
 62
    4
 10
1169.3771988050935
 20
351.63809469807961
 11
1170.5268673426413
 21
351.63809469807961
  0
LINE
  8
_0-0_90_FRAME
  6
CONTINUOUS
 62
    4
 10
1169.3771988050935
 20
351.63809469807961
 11
1169.3771988050935
 21
351.66883377039881
  0
LINE
  8
_0-0_90_FRAME
  6
CONTINUOUS
 62
    4
 10
1169.3771988050935
 20
351.66883377039881
 11
1171.7920597257646
 21
358.04206809805396
  0
LINE
  8
_0-0_90_FRAME
  6
CONTINUOUS
 62
    4
 10
1169.3771988050935
 20
351.63809469807961
 11
1169.3771988050935
 21
351.66883377039881
  0
LINE
  8
_0-0_90_FRAME
  6
CONTINUOUS
 62
    4
 10
1171.153664477851
 20
353.3264069077847
 11
1173.5180045539139
 21
353.3264069077847
  0
LINE
  8
_0-0_90_FRAME
  6
CONTINUOUS
 62
    4
 10
1171.5002782119511
 20
354.29981086458037
 11
1173.1713908198137
 21
354.29981086458037
  0
LINE
  8
_0-0_90_FRAME
  6
CONTINUOUS
 62
    4
 10
1175.268854333071
 20
351.63809469807961
 11
1174.1191857955232
 21
351.63809469807961
  0
LINE
  8
_0-0_90_FRAME
  6
CONTINUOUS
 62
    4
 10
1174.1191857955232
 20
351.63809469807961
 11
1173.5180045539139
 21
353.3264069077847
  0
LINE
  8
_0-0_90_FRAME
  6
CONTINUOUS
 62
    4
 10
1175.268854333071
 20
351.66883377039881
 11
1172.8539934124012
 21
358.04206809805396
  0
LINE
  8
_0-0_90_FRAME
  6
CONTINUOUS
 62
    4
 10
1175.268854333071
 20
351.63809469807961
 11
1175.268854333071
 21
351.66883377039881
  0
LINE
  8
_0-0_90_FRAME
  6
CONTINUOUS
 62
    4
 10
1171.7920597257646
 20
358.04206809805396
 11
1172.8539934124012
 21
358.04206809805396
  0
LINE
  8
_0-0_90_FRAME
  6
CONTINUOUS
 62
    4
 10
1173.1713908198137
 20
354.29981086458037
 11
1172.3230265690829
 21
356.68229325699826
  0
LINE
  8
_0-0_90_FRAME
  6
CONTINUOUS
 62
    4
 10
1171.153664477851
 20
353.3264069077847
 11
1171.5002782119511
 21
354.29981086458037
  0
LINE
  8
_0-0_90_FRAME
  6
CONTINUOUS
 62
    4
 10
1170.5268673426413
 20
351.63809469807961
 11
1172.3230265690829
 21
356.68229325699826
  0
ARC
  8
_0-0_90_FRAME
  6
CONTINUOUS
 62
    4
 10
1166.7345239426263
 20
354.33999359847689
 40
2.7100492712792996
 50
274.44474271147573
 51
357.5499690077387
  0
LINE
  8
_0-0_90_FRAME
  6
CONTINUOUS
 62
    4
 10
1162.0241791074218
 20
353.40525376700384
 11
1162.849541597104
 21
352.72514586524153
  0
LINE
  8
_0-0_90_FRAME
  6
CONTINUOUS
 62
    4
 10
1162.4724621420544
 20
347.10406715492758
 11
1162.4724621420544
 21
347.10406715492758
  0
LINE
  8
_0-0_90_FRAME
  6
CONTINUOUS
 62
    4
 10
1162.4724621420544
 20
347.10406715492758
 11
1162.7952989985033
 21
347.23457377809012
  0
LINE
  8
_0-0_90_FRAME
  6
CONTINUOUS
 62
    4
 10
1162.7952989985033
 20
347.23457377809012
 11
1163.0854186791998
 21
347.4087765643971
  0
LINE
  8
_0-0_90_FRAME
  6
CONTINUOUS
 62
    4
 10
1163.0854186791998
 20
347.4087765643971
 11
1163.3340060444536
 21
347.62138245033736
  0
LINE
  8
_0-0_90_FRAME
  6
CONTINUOUS
 62
    4
 10
1163.3340060444536
 20
347.62138245033736
 11
1163.5335078929631
 21
347.86593151365048
  0
LINE
  8
_0-0_90_FRAME
  6
CONTINUOUS
 62
    4
 10
1163.5335078929631
 20
347.86593151365048
 11
1163.6778624620138
 21
348.13499325479535
  0
LINE
  8
_0-0_90_FRAME
  6
CONTINUOUS
 62
    4
 10
1163.6778624620138
 20
348.13499325479535
 11
1163.7626836110721
 21
348.42039236891924
  0
LINE
  8
_0-0_90_FRAME
  6
CONTINUOUS
 62
    4
 10
1163.7626836110721
 20
348.42039236891924
 11
1163.7853940924456
 21
348.71345714835832
  0
LINE
  8
_0-0_90_FRAME
  6
CONTINUOUS
 62
    4
 10
1163.7853940924456
 20
348.71345714835832
 11
1163.7453038596495
 21
349.00528296808727
  0
LINE
  8
_0-0_90_FRAME
  6
CONTINUOUS
 62
    4
 10
1163.7453038596495
 20
349.00528296808727
 11
1163.643631034121
 21
349.28700284824464
  0
LINE
  8
_0-0_90_FRAME
  6
CONTINUOUS
 62
    4
 10
1163.643631034121
 20
349.28700284824464
 11
1163.4834648932147
 21
349.55005687282897
  0
LINE
  8
_0-0_90_FRAME
  6
CONTINUOUS
 62
    4
 10
1163.4834648932147
 20
349.55005687282897
 11
1163.269672004074
 21
349.78645227841503
  0
LINE
  8
_0-0_90_FRAME
  6
CONTINUOUS
 62
    4
 10
1163.269672004074
 20
349.78645227841503
 11
1163.0087483554512
 21
349.98900631022599
  0
LINE
  8
_0-0_90_FRAME
  6
CONTINUOUS
 62
    4
 10
1163.0087483554512
 20
349.98900631022599
 11
1162.7086219803757
 21
350.15156446650246
  0
LINE
  8
_0-0_90_FRAME
  6
CONTINUOUS
 62
    4
 10
1162.7086219803757
 20
350.15156446650246
 11
1162.3784120668834
 21
350.2691874999245
  0
LINE
  8
_0-0_90_FRAME
  6
CONTINUOUS
 62
    4
 10
1162.3784120668834
 20
350.2691874999245
 11
1162.0281518761008
 21
350.33830149414155
  0
LINE
  8
_0-0_90_FRAME
  6
CONTINUOUS
 62
    4
 10
1162.0281518761008
 20
350.33830149414155
 11
1161.7185268864334
 21
350.35730001808429
  0
LINE
  8
_0-0_90_FRAME
  6
CONTINUOUS
 62
    4
 10
1166.1661619493054
 20
344.97796236210593
 11
1166.1661619493054
 21
349.3326642740883
  0
LINE
  8
_0-0_90_FRAME
  6
CONTINUOUS
 62
    4
 10
1165.0134467373093
 20
344.97796236210593
 11
1165.0134467373093
 21
349.3326642740883
  0
LINE
  8
_0-0_90_FRAME
  6
CONTINUOUS
 62
    4
 10
1164.885367269309
 20
350.35730001808474
 11
1166.2942414173042
 21
350.35730001808474
  0
LINE
  8
_0-0_90_FRAME
  6
CONTINUOUS
 62
    4
 10
1158.7726991224476
 20
350.35730001808474
 11
1158.7726991224476
 21
343.9533266181104
  0
LINE
  8
_0-0_90_FRAME
  6
CONTINUOUS
 62
    4
 10
1164.885367269309
 20
343.9533266181104
 11
1166.2942414173042
 21
343.9533266181104
  0
LINE
  8
_0-0_90_FRAME
  6
CONTINUOUS
 62
    4
 10
1166.2942414173042
 20
343.9533266181104
 11
1166.2942414173042
 21
344.84988289410717
  0
ARC
  8
_0-0_90_FRAME
  6
CONTINUOUS
 62
    4
 10
1166.2942414173042
 20
344.97796236210593
 40
0.1280794679994825
 50
180
 51
270
  0
LINE
  8
_0-0_90_FRAME
  6
CONTINUOUS
 62
    4
 10
1164.885367269309
 20
343.9533266181104
 11
1164.885367269309
 21
344.84988289410717
  0
ARC
  8
_0-0_90_FRAME
  6
CONTINUOUS
 62
    4
 10
1164.885367269309
 20
344.97796236210593
 40
0.1280794679994825
 50
270
 51
0
  0
LINE
  8
_0-0_90_FRAME
  6
CONTINUOUS
 62
    4
 10
1166.2942414173042
 20
350.35730001808474
 11
1166.2942414173042
 21
349.46074374208797
  0
ARC
  8
_0-0_90_FRAME
  6
CONTINUOUS
 62
    4
 10
1166.2942414173042
 20
349.3326642740883
 40
0.1280794679994825
 50
90
 51
180
  0
LINE
  8
_0-0_90_FRAME
  6
CONTINUOUS
 62
    4
 10
1164.885367269309
 20
350.35730001808474
 11
1164.885367269309
 21
349.46074374208797
  0
ARC
  8
_0-0_90_FRAME
  6
CONTINUOUS
 62
    4
 10
1164.885367269309
 20
349.3326642740883
 40
0.1280794679994825
 50
0
 51
90
  0
LINE
  8
_0-0_90_FRAME
  6
CONTINUOUS
 62
    4
 10
1155.9933954766395
 20
343.9533266181104
 11
1155.9933954766395
 21
349.3326642740883
  0
LINE
  8
_0-0_90_FRAME
  6
CONTINUOUS
 62
    4
 10
1154.8406802646452
 20
343.9533266181104
 11
1154.8406802646452
 21
349.3326642740883
  0
LINE
  8
_0-0_90_FRAME
  6
CONTINUOUS
 62
    4
 10
1152.7914087766542
 20
350.35730001808474
 11
1158.0426669646324
 21
350.35730001808474
  0
LINE
  8
_0-0_90_FRAME
  6
CONTINUOUS
 62
    4
 10
1154.8406802646452
 20
343.9533266181104
 11
1155.9933954766395
 21
343.9533266181104
  0
LINE
  8
_0-0_90_FRAME
  6
CONTINUOUS
 62
    4
 10
1158.0426669646324
 20
350.35730001808474
 11
1158.0426669646324
 21
349.46074374208797
  0
ARC
  8
_0-0_90_FRAME
  6
CONTINUOUS
 62
    4
 10
1156.1214749446401
 20
349.3326642740883
 40
0.1280794679994825
 50
90
 51
180
  0
LINE
  8
_0-0_90_FRAME
  6
CONTINUOUS
 62
    4
 10
1152.7914087766542
 20
350.35730001808474
 11
1152.7914087766542
 21
349.46074374208797
  0
ARC
  8
_0-0_90_FRAME
  6
CONTINUOUS
 62
    4
 10
1154.7126007966465
 20
349.3326642740883
 40
0.1280794679994825
 50
0
 51
90
  0
LINE
  8
_0-0_90_FRAME
  6
CONTINUOUS
 62
    4
 10
1152.7914087766542
 20
349.46074374208797
 11
1154.7126007966465
 21
349.46074374208797
  0
LINE
  8
_0-0_90_FRAME
  6
CONTINUOUS
 62
    4
 10
1156.1214749446401
 20
349.46074374208797
 11
1158.0426669646324
 21
349.46074374208797
  0
LINE
  8
_0-0_90_FRAME
  6
CONTINUOUS
 62
    4
 10
1158.7726991224476
 20
343.9533266181104
 11
1159.9254143344419
 21
343.9533266181104
  0
LINE
  8
_0-0_90_FRAME
  6
CONTINUOUS
 62
    4
 10
1159.9254143344419
 20
343.9533266181104
 11
1159.9254143344419
 21
349.46074374208797
  0
LINE
  8
_0-0_90_FRAME
  6
CONTINUOUS
 62
    4
 10
1158.7726991224476
 20
350.35730001808474
 11
1161.7185268864334
 21
350.35730001808474
  0
LINE
  8
_0-0_90_FRAME
  6
CONTINUOUS
 62
    4
 10
1159.9254143344419
 20
349.46074374208797
 11
1161.8722222480351
 21
349.46074374208797
  0
LINE
  8
_0-0_90_FRAME
  6
CONTINUOUS
 62
    4
 10
1159.9638381748402
 20
346.98806217438391
 11
1159.9638381748402
 21
347.88461845038069
  0
LINE
  8
_0-0_90_FRAME
  6
CONTINUOUS
 62
    4
 10
1159.9638381748402
 20
346.98806217438391
 11
1161.2215231737096
 21
346.98806217438391
  0
LINE
  8
_0-0_90_FRAME
  6
CONTINUOUS
 62
    4
 10
1159.9638381748402
 20
347.88461845038069
 11
1161.8722222480351
 21
347.88461845038069
  0
ARC
  8
_0-0_90_FRAME
  6
CONTINUOUS
 62
    4
 10
1161.8447430207539
 20
348.67268109623433
 40
0.7885415916244611
 50
271.9970571043541
 51
88.002942895541636
  0
LINE
  8
_0-0_90_FRAME
  6
CONTINUOUS
 62
    4
 10
1162.6717084527784
 20
343.9533266181104
 11
1163.9140792923731
 21
343.9533266181104
  0
LINE
  8
_0-0_90_FRAME
  6
CONTINUOUS
 62
    4
 10
1162.8105080842918
 20
346.70704751966758
 11
1163.9140792923731
 21
344.00455840531026
  0
LINE
  8
_0-0_90_FRAME
  6
CONTINUOUS
 62
    4
 10
1161.6967758341136
 20
346.66706735574621
 11
1162.6717084527784
 21
343.9533266181104
  0
ARC
  8
_0-0_90_FRAME
  6
CONTINUOUS
 62
    4
 10
1161.2215231737096
 20
346.475744302387
 40
0.5123178719979303
 50
21.928297866550263
 51
90
  0
ARC
  8
_0-0_90_FRAME
  6
CONTINUOUS
 62
    4
 10
1162.0355792043297
 20
346.38965329711459
 40
0.8374090168554603
 50
22.272952259980947
 51
58.553113012863236
  0
LINE
  8
_0-0_90_FRAME
  6
CONTINUOUS
 62
    4
 10
1163.9140792923731
 20
344.00455840531026
 11
1163.9140792923731
 21
343.9533266181104
  0
LINE
  8
_0-0_90_FRAME
  6
CONTINUOUS
 62
    4
 10
1167.4482046917776
 20
350.35730001808474
 11
1167.4482046917776
 21
343.9533266181104
  0
LINE
  8
_0-0_90_FRAME
  6
CONTINUOUS
 62
    4
 10
1167.4482046917776
 20
343.9533266181104
 11
1168.600919903774
 21
343.9533266181104
  0
LINE
  8
_0-0_90_FRAME
  6
CONTINUOUS
 62
    4
 10
1168.600919903774
 20
343.9533266181104
 11
1168.5998584517379
 21
348.43610799809244
  0
LINE
  8
_0-0_90_FRAME
  6
CONTINUOUS
 62
    4
 10
1167.4482046917776
 20
350.35730001808474
 11
1169.1208699491483
 21
350.35730001808474
  0
LINE
  8
_0-0_90_FRAME
  6
CONTINUOUS
 62
    4
 10
1172.7005243317919
 20
348.43610799809244
 11
1172.7005243317919
 21
343.9533266181104
  0
LINE
  8
_0-0_90_FRAME
  6
CONTINUOUS
 62
    4
 10
1172.7005243317919
 20
343.9533266181104
 11
1173.8532395437865
 21
343.9533266181104
  0
LINE
  8
_0-0_90_FRAME
  6
CONTINUOUS
 62
    4
 10
1173.8532395437865
 20
343.9533266181104
 11
1173.8532395437865
 21
350.35730001808474
  0
LINE
  8
_0-0_90_FRAME
  6
CONTINUOUS
 62
    4
 10
1170.0738337857688
 20
343.9533266181104
 11
1171.2265489977628
 21
343.9533266181104
  0
LINE
  8
_0-0_90_FRAME
  6
CONTINUOUS
 62
    4
 10
1173.8532395437865
 20
350.35730001808474
 11
1172.1795128343813
 21
350.35730001808474
  0
LINE
  8
_0-0_90_FRAME
  6
CONTINUOUS
 62
    4
 10
1171.2265489977628
 20
343.9533266181104
 11
1172.7005243317919
 21
348.43610799809244
  0
LINE
  8
_0-0_90_FRAME
  6
CONTINUOUS
 62
    4
 10
1170.0738337857688
 20
343.9533266181104
 11
1168.5998584517379
 21
348.43610799809244
  0
LINE
  8
_0-0_90_FRAME
  6
CONTINUOUS
 62
    4
 10
1170.6501913917648
 20
345.70619526165382
 11
1172.1795128343813
 21
350.35730001808474
  0
LINE
  8
_0-0_90_FRAME
  6
CONTINUOUS
 62
    4
 10
1170.6501913917648
 20
345.70619526165382
 11
1169.1208699491483
 21
350.35730001808474
  0
TEXT
  8
_0-0_90_FRAME
 62
    2
 10
1181.4039228290721
 20
355.46908254560788
 40
7.56077142854088
 41
1
 50
0
  1
ŖöÄ«ē’Äą
  0
LINE
  8
_0-0_90_FRAME
  6
CONTINUOUS
 62
   18
 10
1204.4208130337315
 20
371.18687751829634
 11
1204.4208130337315
 21
406.54402037529752
  0
TEXT
  8
_0-0_90_FRAME
 62
    7
 10
1270.411603461243
 20
343.81211319641579
 40
10
 41
1
 50
0
  1
Äøōc
  0
TEXT
  8
_0-0_90_FRAME
 62
    7
 10
1219.0044606043245
 20
379.67335322527674
 40
10
 41
1
 50
0
  1
1üF2
  0
TEXT
  8
_0-0_90_FRAME
 62
    7
 10
1308.5942566869519
 20
399.69820005737591
 40
5
 41
1
 50
0
  1
ŗ@ŖĒ
  0
LINE
  8
_0-0_90_FRAME
  6
CONTINUOUS
 62
   18
 10
1382.7588998962087
 20
406.54402037529752
 11
1382.7588998962087
 21
355.62973466121701
  0
TEXT
  8
_0-0_90_FRAME
 62
    7
 10
1384.1180578355918
 20
399.69820005737591
 40
5
 41
1
 50
0
  1
ĢöĢi¢╝
  0
TEXT
  8
_0-0_90_FRAME
 62
    7
 10
1384.11805783559
 20
371.16248577177498
 40
5
 41
1
 50
0
  1
É}¢╩öįŹå
  0
LINE
  8
_0-0_90_FRAME
  6
CONTINUOUS
 62
   18
 10
1307.2350987475725
 20
381.08687751825778
 11
1382.7588998962087
 21
381.08687751825778
  0
TEXT
  8
_0-0_90_FRAME
 62
    7
 10
1308.5942566869519
 20
373.99105720033612
 40
5
 41
1
 50
0
  1
ī^Ä«
  0
LINE
  8
_0-0_90_FRAME
  6
CONTINUOUS
 62
   18
 10
438.54271246424037
 20
333.00116323273755
 11
642.54271246245548
 21
333.00116323273761
  0
LINE
  8
_0-0_90_FRAME
  6
CONTINUOUS
 62
   18
 10
642.54271246245548
 20
333.00116323273761
 11
642.54271246245548
 21
389.57259180393589
  0
LINE
  8
_0-0_90_FRAME
  6
CONTINUOUS
 62
   18
 10
642.54271246245548
 20
389.57259180393589
 11
438.54271246424037
 21
389.57259180393589
  0
LINE
  8
_0-0_90_FRAME
  6
CONTINUOUS
 62
   18
 10
438.54271246424037
 20
389.57259180393589
 11
438.54271246424037
 21
333.00116323273755
  0
LINE
  8
_0-0_90_FRAME
  6
CONTINUOUS
 62
   18
 10
614.54271246245548
 20
333.00116323273755
 11
614.54271246245548
 21
389.57259180393589
  0
LINE
  8
_0-0_90_FRAME
  6
CONTINUOUS
 62
   18
 10
466.54271246245554
 20
333.00116323273761
 11
466.54271246245554
 21
389.57259180393589
  0
LINE
  8
_0-0_90_FRAME
  6
CONTINUOUS
 62
   18
 10
498.54271246245554
 20
333.00116323273755
 11
498.54271246245554
 21
389.57259180393589
  0
LINE
  8
_0-0_90_FRAME
  6
CONTINUOUS
 62
   18
 10
438.54271246424037
 20
375.42973466113904
 11
642.54271246245548
 21
375.42973466113904
  0
LINE
  8
_0-0_90_FRAME
  6
CONTINUOUS
 62
   18
 10
438.54271246424037
 20
361.28687751833485
 11
642.54271246245548
 21
361.28687751833485
  0
LINE
  8
_0-0_90_FRAME
  6
CONTINUOUS
 62
   18
 10
438.54271246424037
 20
347.14402037553799
 11
642.54271246245548
 21
347.14402037553799
  0
TEXT
  8
_0-0_90_FRAME
 62
    7
 10
445.56089428152973
 20
380.10116323253749
 40
4.7999999999999998
 41
1
 50
0
  1
ŗLŹå
  0
TEXT
  8
_0-0_90_FRAME
 62
    7
 10
474.87394172397188
 20
380.10116323253749
 40
4.7999999999999998
 41
1
 50
0
  1
ō·Ģt
  0
TEXT
  8
_0-0_90_FRAME
 62
    7
 10
618.06998518972819
 20
380.10116323253749
 40
4.7999999999999998
 41
1
 50
0
  1
ŹņÉ¼Äę
  0
TEXT
  8
_0-0_90_FRAME
 62
    7
 10
540.5790760988192
 20
380.01934505071927
 40
4.7999999999999998
 41
1
 50
0
  1
ē³Æ∙ōÓŚe
  0
LINE
  8
_0-0_90_FRAME
  6
CONTINUOUS
 62
   18
 10
446.17842674908576
 20
348.64613633524345
 11
452.54271246334793
 21
359.66940254622455
  0
LINE
  8
_0-0_90_FRAME
  6
CONTINUOUS
 62
   18
 10
452.54271246334793
 20
359.66940254622455
 11
458.90699817760657
 21
348.64613633524345
  0
LINE
  8
_0-0_90_FRAME
  6
CONTINUOUS
 62
   18
 10
458.90699817760657
 20
348.64613633524345
 11
446.17842674908576
 21
348.64613633524345
  0
TEXT
  8
_0-0_90_FRAME
 62
    7
 10
451.16432232557258
 20
364.84412914993999
 40
4.2428571428400002
 41
1
 50
0
  1
1
  0
TEXT
  8
_0-0_90_FRAME
 62
    7
 10
451.16432232557258
 20
350.70127200713949
 40
4.2428571428400002
 41
1
 50
0
  1
2
  0
TEXT
  8
_0-0_90_FRAME
 62
    7
 10
451.16432232557258
 20
336.55841486433906
 40
4.2428571428400002
 41
1
 50
0
  1
3
  0
LINE
  8
_0-0_90_FRAME
  6
CONTINUOUS
 62
   18
 10
446.17842674908576
 20
362.78899347804389
 11
452.54271246334793
 21
373.81225968902862
  0
LINE
  8
_0-0_90_FRAME
  6
CONTINUOUS
 62
   18
 10
452.54271246334793
 20
373.81225968902862
 11
458.90699817760657
 21
362.78899347804389
  0
LINE
  8
_0-0_90_FRAME
  6
CONTINUOUS
 62
   18
 10
458.90699817760657
 20
362.78899347804389
 11
446.17842674908576
 21
362.78899347804389
  0
LINE
  8
_0-0_90_FRAME
  6
CONTINUOUS
 62
   18
 10
446.17842674908576
 20
334.5032791924429
 11
452.54271246334793
 21
345.52654540342769
  0
LINE
  8
_0-0_90_FRAME
  6
CONTINUOUS
 62
   18
 10
452.54271246334793
 20
345.52654540342769
 11
458.90699817760657
 21
334.5032791924429
  0
LINE
  8
_0-0_90_FRAME
  6
CONTINUOUS
 62
   18
 10
458.90699817760657
 20
334.5032791924429
 11
446.17842674908576
 21
334.5032791924429
  0
LINE
  8
_0-0_90_FRAME
  6
CONTINUOUS
 62
    4
 10
1238.5779585156483
 20
462.54401887104927
 11
1238.5779585156483
 21
406.54402037529752
  0
LINE
  8
_0-0_90_FRAME
  6
CONTINUOUS
 62
    4
 10
1382.7588998962085
 20
462.54401887104927
 11
1382.7588998962087
 21
406.54402037529752
  0
LINE
  8
_0-0_90_FRAME
  6
CONTINUOUS
 62
    4
 10
1437.6471256251725
 20
462.54401887104927
 11
1437.6471256251807
 21
406.54402037529752
  0
LINE
  8
_0-0_90_FRAME
  6
CONTINUOUS
 62
    4
 10
1423.6471273751717
 20
462.54401887104927
 11
1423.6471273751793
 21
406.54402037529752
  0
LINE
  8
_0-0_90_FRAME
  6
CONTINUOUS
 62
    4
 10
1259.5779558906518
 20
462.54401887104927
 11
1259.5779558906518
 21
406.54402037529752
  0
LINE
  8
_0-0_90_FRAME
  6
CONTINUOUS
 62
    4
 10
1458.6471230001773
 20
462.54401887104927
 11
1458.6471230001773
 21
406.54402037529752
  0
TEXT
  8
_0-0_90_FRAME
 62
    3
 10
1429.3755615488337
 20
423.88936918654588
 40
5.9999999999999991
 41
1
 50
0
  1
1
  0
TEXT
  8
_0-0_90_FRAME
 62
    3
 10
1385.9816484119726
 20
424.02270179206977
 40
5.9999999999999991
 41
1
 50
0
  1
SUS304
  0
TEXT
  8
_0-0_90_FRAME
 62
    3
 10
1269.3317229016413
 20
423.94311703318016
 40
5.9999999999999991
 41
1
 50
0
  1
āsāŹü[āXāeü[L
  0
TEXT
  8
_0-0_90_FRAME
 62
    3
 10
1242.5628070046116
 20
423.78877066716018
 40
5.9999999999999991
 41
1
 50
0
  1
116
  0
TEXT
  8
_0-0_90_FRAME
 62
    3
 10
1442.2205063142173
 20
413.72975167291258
 40
5
 41
1
 50
0
  1
ÅdŚ╩
  0
TEXT
  8
_0-0_90_FRAME
 62
    3
 10
1392.0957737490417
 20
410.50265585416594
 40
5.9999999999999991
 41
1
 50
0
  1
Ź▐ü@Ä┐
  0
TEXT
  8
_0-0_90_FRAME
 62
    3
 10
1424.3824116004669
 20
410.45756199827554
 40
5.9999999999999991
 41
1
 50
0
  1
ÉöŚ╩
  0
TEXT
  8
_0-0_90_FRAME
 62
    3
 10
1444.4304358450756
 20
408.83740257833807
 40
4
 41
1
 50
0
  1
kg
  0
TEXT
  8
_0-0_90_FRAME
 62
    3
 10
1485.4079917653635
 20
410.35696347887824
 40
5.9999999999999991
 41
1
 50
0
  1
ö§  Źl
  0
TEXT
  8
_0-0_90_FRAME
 62
    3
 10
1242.8539477047359
 20
410.35696347887824
 40
5.9999999999999991
 41
1
 50
0
  1
ĢäŹå
  0
TEXT
  8
_0-0_90_FRAME
 62
    3
 10
1293.7183759042146
 20
410.57474122943489
 40
5.9999999999999991
 41
1
 50
0
  1
Ģöü@ü@Ģiü@ü@¢╝
  0
LINE
  8
_0-0_90_FRAME
  6
CONTINUOUS
 62
    4
 10
1238.5779469625315
 20
462.54401887104927
 11
1541.0208014792563
 21
462.54401887104927
  0
LINE
  8
_0-0_90_FRAME
  6
CONTINUOUS
 62
    4
 10
1238.5779469625315
 20
448.54401812348215
 11
1541.0208014792563
 21
448.54401812348215
  0
LINE
  8
_0-0_90_FRAME
  6
CONTINUOUS
 62
    4
 10
1238.5779469625315
 20
434.54401887104927
 11
1541.0208014792563
 21
434.54401887104927
  0
LINE
  8
_0-0_90_FRAME
  6
CONTINUOUS
 62
    4
 10
1238.5779469625315
 20
420.54401887104927
 11
1541.0208014792563
 21
420.54401887104927
  0
TEXT
  8
_0-0_90_FRAME
 62
    3
 10
1242.5628070046116
 20
437.78876991959305
 40
5.9999999999999991
 41
1
 50
0
  1
117
  0
TEXT
  8
_0-0_90_FRAME
 62
    7
 10
1439.2724845971256
 20
388.12239343975614
 40
8
 41
1
 50
0
  1
ÆEÉģŗ@ ĢöĢiÉ}
  0
TEXT
  8
_0-0_90_FRAME
 62
    7
 10
1312.1166823772246
 20
387.8353382808275
 40
6.4000000000000004
 41
0.9
 50
0
  1
ŚLŗ@É½ēśōDöRŚ┐Ä{É▌
  0
TEXT
  8
_0-0_90_FRAME
 62
    3
 10
1385.9816484119726
 20
438.0227010445027
 40
5.9999999999999991
 41
1
 50
0
  1
SUS304
  0
CIRCLE
  8
_0-2_0
  6
CONTINUOUS
 62
   18
 10
758.93263496765996
 20
917.7571516431409
 40
5.9999999999999991
  0
LINE
  8
_0-3_05_CENTER
  6
CENTER2
 62
    4
 10
758.93263496308339
 20
907.46806046917231
 11
758.93263496308339
 21
928.0462428171096
  0
LINE
  8
_0-3_05_CENTER
  6
CENTER2
 62
    4
 10
769.22172614162696
 20
917.75715164470887
 11
748.64354379368581
 21
917.75715164470887
  0
INSERT
  2
-000-A$C6E312E5A_1_1
  8
_0-4_04_HIDDEN
 10
716.93263497619466
 20
943.75715164470898
 41
1
 42
1
 50
0
  0
LINE
  8
_0-2_0
  6
CONTINUOUS
 62
   18
 10
688.93263496308339
 20
943.75715164470898
 11
768.93263496202849
 21
943.75715164470898
  0
LINE
  8
_0-2_0
  6
CONTINUOUS
 62
   18
 10
768.93263496202849
 20
943.75715164470898
 11
770.93263496202837
 21
941.7571516447091
  0
LINE
  8
_0-2_0
  6
CONTINUOUS
 62
   18
 10
770.93263496202837
 20
941.7571516447091
 11
770.93263496202837
 21
895.75715164470898
  0
LINE
  8
_0-2_0
  6
CONTINUOUS
 62
   18
 10
770.93263496202837
 20
895.75715164470898
 11
768.93263496202849
 21
893.75715164470887
  0
LINE
  8
_0-2_0
  6
CONTINUOUS
 62
   18
 10
768.93263496202849
 20
893.75715164470887
 11
688.93263496308339
 21
893.75715164470887
  0
LINE
  8
_0-2_0
  6
CONTINUOUS
 62
   18
 10
688.93263496308339
 20
893.75715164470887
 11
686.9326349630835
 21
895.75715164470898
  0
LINE
  8
_0-2_0
  6
CONTINUOUS
 62
   18
 10
686.9326349630835
 20
895.75715164470898
 11
686.9326349630835
 21
941.7571516447091
  0
LINE
  8
_0-2_0
  6
CONTINUOUS
 62
   18
 10
686.9326349630835
 20
941.7571516447091
 11
688.93263496308339
 21
943.75715164470898
  0
LINE
  8
_0-3_05_CENTER
  6
CENTER2
 62
    4
 10
776.58355750020246
 20
917.75715164470887
 11
681.41327567852625
 21
917.75715164470887
  0
CIRCLE
  8
_0-2_0
  6
CONTINUOUS
 62
   18
 10
698.93263496765996
 20
917.75715164470887
 40
5.9999999999999991
  0
LINE
  8
_0-3_05_CENTER
  6
CENTER2
 62
    4
 10
698.93263496308339
 20
907.46806047074028
 11
698.93263496308339
 21
928.04624281867757
  0
LINE
  8
_0-3_05_CENTER
  6
CENTER2
 62
    4
 10
709.22172614162685
 20
917.75715164627684
 11
688.64354379368581
 21
917.75715164627684
  0
LINE
  8
_0-2_0
  6
CONTINUOUS
 62
   18
 10
766.93263497168357
 20
787.71598107430304
 11
766.93263497102146
 21
578.71598107824479
  0
LINE
  8
_0-2_0
  6
CONTINUOUS
 62
   18
 10
716.93263496710699
 20
787.71598107430304
 11
716.93263496644488
 21
573.71598107824479
  0
LINE
  8
_0-2_0
  6
CONTINUOUS
 62
   18
 10
686.9326349630835
 20
793.71598107598743
 11
770.93263496202837
 21
793.71598107879402
  0
LINE
  8
_0-2_0
  6
CONTINUOUS
 62
   18
 10
770.93263496202837
 20
793.71598107879402
 11
770.93263496202837
 21
787.71598107879413
  0
LINE
  8
_0-2_0
  6
CONTINUOUS
 62
   18
 10
770.93263496202837
 20
787.71598107879413
 11
686.9326349630835
 21
787.71598107598743
  0
LINE
  8
_0-2_0
  6
CONTINUOUS
 62
   18
 10
686.9326349630835
 20
787.71598107598743
 11
686.9326349630835
 21
793.71598107598743
  0
LINE
  8
_0-2_0
  6
CONTINUOUS
 62
   18
 10
722.93263496710699
 20
573.71598107824479
 11
722.93263496710699
 21
787.71598107430304
  0
LINE
  8
_0-2_0
  6
CONTINUOUS
 62
   18
 10
716.93263496644488
 20
573.71598107824479
 11
761.93263497102146
 21
573.71598107824479
  0
LINE
  8
_0-3_05_CENTER
  6
CENTER2
 62
    4
 10
708.71878886311299
 20
724.21598107332261
 11
730.9926361931399
 21
724.21598107332261
  0
LINE
  8
_0-3_05_CENTER
  6
CENTER2
 62
    4
 10
708.71878886311299
 20
603.21598107332159
 11
730.9926361931399
 21
603.21598107332159
  0
LINE
  8
_0-2_0
  6
CONTINUOUS
 62
   18
 10
766.93263497102146
 20
578.71598107824479
 11
761.93263497102146
 21
573.71598107824479
  0
LINE
  8
_0-3_05_CENTER
  6
CENTER2
 62
    4
 10
758.93263496308339
 20
780.92342302304803
 11
758.93263496308339
 21
800.30461580186784
  0
LINE
  8
_0-2_0
  6
CONTINUOUS
 62
   18
 10
854.88206871702232
 20
787.71598107430304
 11
854.88206871702232
 21
578.71598107824479
  0
LINE
  8
_0-2_0
  6
CONTINUOUS
 62
   18
 10
904.88206871702255
 20
787.71598107430304
 11
904.88206871702255
 21
573.7159810782457
  0
LINE
  8
_0-2_0
  6
CONTINUOUS
 62
   18
 10
904.88206871702255
 20
793.71598107430293
 11
854.88206871702232
 21
793.71598107430293
  0
LINE
  8
_0-2_0
  6
CONTINUOUS
 62
   18
 10
854.88206871702232
 20
793.71598107430293
 11
854.88206871702232
 21
787.71598107430304
  0
LINE
  8
_0-2_0
  6
CONTINUOUS
 62
   18
 10
854.88206871702232
 20
787.71598107430304
 11
904.88206871702255
 21
787.71598107430304
  0
LINE
  8
_0-2_0
  6
CONTINUOUS
 62
   18
 10
904.88206871702255
 20
787.71598107430304
 11
904.88206871702255
 21
793.71598107430293
  0
LINE
  8
_0-2_0
  6
CONTINUOUS
 62
   18
 10
898.88206871702243
 20
573.71598107824479
 11
898.88206871702243
 21
787.71598107430304
  0
CIRCLE
  8
_0-2_0
  6
CONTINUOUS
 62
   18
 10
878.88206871919067
 20
603.21598107051773
 40
8
  0
LINE
  8
_0-3_05_CENTER
  6
CENTER2
 62
    4
 10
894.03863133226662
 20
603.21598107332159
 11
863.72550610614383
 21
603.21598107332159
  0
LINE
  8
_0-3_05_CENTER
  6
CENTER2
 62
    4
 10
878.88206871923444
 20
588.05941846024564
 11
878.88206871923444
 21
618.37254368639765
  0
CIRCLE
  8
_0-2_0
  6
CONTINUOUS
 62
   18
 10
878.88206871919067
 20
724.21598107051773
 40
8
  0
LINE
  8
_0-3_05_CENTER
  6
CENTER2
 62
    4
 10
894.03863133226662
 20
724.21598107332159
 11
863.72550610614383
 21
724.21598107332159
  0
LINE
  8
_0-3_05_CENTER
  6
CENTER2
 62
    4
 10
878.88206871923444
 20
709.05941846024575
 11
878.88206871923444
 21
739.37254368639765
  0
LINE
  8
_0-2_0
  6
CONTINUOUS
 62
   18
 10
904.88206871702255
 20
573.7159810782457
 11
859.88206871702255
 21
573.71598107824479
  0
LINE
  8
_0-2_0
  6
CONTINUOUS
 62
   18
 10
859.88206871702255
 20
573.71598107824479
 11
854.88206871702232
 21
578.71598107824479
  0
LINE
  8
_0-3_05_CENTER
  6
CENTER2
 62
    4
 10
698.93263496308339
 20
780.92342302304803
 11
698.93263496308339
 21
800.30461580186784
  0
LINE
  8
_0-3_05_CENTER
  6
CENTER2
 62
    4
 10
878.88206871702255
 20
780.92342302304803
 11
878.88206871702255
 21
800.30461580186784
  0
LINE
  8
_0-5_08_DIM
  6
CONTINUOUS
 62
    3
 10
569.35680740397913
 20
961.11856988733541
 11
620.34161003566862
 21
961.11856988733541
  0
INSERT
  2
-001-p1ba05
  8
_0-5_08_DIM
 10
599.16892129903056
 20
963.85374823769564
 41
3
 42
3
 50
0
  0
INSERT
  2
-005-Jis_w20130906110600
  8
_0-5_08_DIM
 10
1446.5404594595207
 20
508.55914199052864
 41
1.2
 42
1.2
 50
0
  0
CIRCLE
  8
_0-2_0
  6
CONTINUOUS
 62
   18
 10
1229.356065575045
 20
917.7571516431409
 40
5.9999999999999991
  0
LINE
  8
_0-3_05_CENTER
  6
CENTER2
 62
    4
 10
1229.3560655796214
 20
907.46806046917231
 11
1229.3560655796214
 21
928.0462428171096
  0
LINE
  8
_0-3_05_CENTER
  6
CENTER2
 62
    4
 10
1219.0669744010779
 20
917.75715164470887
 11
1239.6451567490192
 21
917.75715164470887
  0
INSERT
  2
-000-A$C6E312E5A_1_1
  8
_0-4_04_HIDDEN
 10
1271.3560655665101
 20
943.75715164470898
 41
-1
 42
1
 50
0
  0
LINE
  8
_0-3_05_CENTER
  6
CENTER2
 62
    4
 10
1211.7051430425022
 20
917.75715164470887
 11
1306.8754248641785
 21
917.75715164470887
  0
CIRCLE
  8
_0-2_0
  6
CONTINUOUS
 62
   18
 10
1289.356065575045
 20
917.75715164470887
 40
5.9999999999999991
  0
LINE
  8
_0-3_05_CENTER
  6
CENTER2
 62
    4
 10
1289.3560655796216
 20
907.46806047074028
 11
1289.3560655796216
 21
928.04624281867757
  0
LINE
  8
_0-3_05_CENTER
  6
CENTER2
 62
    4
 10
1279.0669744010781
 20
917.75715164627684
 11
1299.6451567490192
 21
917.75715164627684
  0
LINE
  8
_0-2_0
  6
CONTINUOUS
 62
   18
 10
1221.3560655710212
 20
787.71598107430304
 11
1221.3560655716835
 21
578.71598107824479
  0
LINE
  8
_0-2_0
  6
CONTINUOUS
 62
   18
 10
1271.356065575598
 20
787.71598107430304
 11
1271.3560655762599
 21
573.71598107824479
  0
LINE
  8
_0-2_0
  6
CONTINUOUS
 62
   18
 10
1301.3560655796216
 20
793.71598107598743
 11
1217.3560655806766
 21
793.71598107879402
  0
LINE
  8
_0-2_0
  6
CONTINUOUS
 62
   18
 10
1217.3560655806766
 20
793.71598107879402
 11
1217.3560655806766
 21
787.71598107879413
  0
LINE
  8
_0-2_0
  6
CONTINUOUS
 62
   18
 10
1217.3560655806766
 20
787.71598107879413
 11
1301.3560655796216
 21
787.71598107598743
  0
LINE
  8
_0-2_0
  6
CONTINUOUS
 62
   18
 10
1301.3560655796216
 20
787.71598107598743
 11
1301.3560655796216
 21
793.71598107598743
  0
LINE
  8
_0-2_0
  6
CONTINUOUS
 62
   18
 10
1265.356065575598
 20
573.71598107824479
 11
1265.356065575598
 21
787.71598107430304
  0
LINE
  8
_0-2_0
  6
CONTINUOUS
 62
   18
 10
1271.3560655762599
 20
573.71598107824479
 11
1226.3560655716833
 21
573.71598107824479
  0
LINE
  8
_0-3_05_CENTER
  6
CENTER2
 62
    4
 10
1279.569911679592
 20
724.21598107332261
 11
1257.2960643495651
 21
724.21598107332261
  0
LINE
  8
_0-3_05_CENTER
  6
CENTER2
 62
    4
 10
1279.569911679592
 20
603.21598107332159
 11
1257.2960643495651
 21
603.21598107332159
  0
LINE
  8
_0-3_05_CENTER
  6
CENTER2
 62
    4
 10
1229.3560655796214
 20
780.92342302304803
 11
1229.3560655796214
 21
800.30461580186784
  0
LINE
  8
_0-2_0
  6
CONTINUOUS
 62
   18
 10
1133.4066318256823
 20
787.71598107430304
 11
1133.4066318256823
 21
578.71598107824479
  0
LINE
  8
_0-2_0
  6
CONTINUOUS
 62
   18
 10
1083.4066318256826
 20
787.71598107430304
 11
1083.4066318256826
 21
573.7159810782457
  0
LINE
  8
_0-2_0
  6
CONTINUOUS
 62
   18
 10
1083.4066318256826
 20
793.71598107430293
 11
1133.4066318256823
 21
793.71598107430293
  0
LINE
  8
_0-2_0
  6
CONTINUOUS
 62
   18
 10
1133.4066318256823
 20
793.71598107430293
 11
1133.4066318256823
 21
787.71598107430304
  0
LINE
  8
_0-2_0
  6
CONTINUOUS
 62
   18
 10
1133.4066318256823
 20
787.71598107430304
 11
1083.4066318256826
 21
787.71598107430304
  0
LINE
  8
_0-2_0
  6
CONTINUOUS
 62
   18
 10
1083.4066318256826
 20
787.71598107430304
 11
1083.4066318256826
 21
793.71598107430293
  0
LINE
  8
_0-2_0
  6
CONTINUOUS
 62
   18
 10
1089.4066318256826
 20
573.71598107824479
 11
1089.4066318256826
 21
787.71598107430304
  0
CIRCLE
  8
_0-2_0
  6
CONTINUOUS
 62
   18
 10
1109.4066318235143
 20
603.21598107051773
 40
8
  0
LINE
  8
_0-3_05_CENTER
  6
CENTER2
 62
    4
 10
1094.2500692104384
 20
603.21598107332159
 11
1124.5631944365612
 21
603.21598107332159
  0
LINE
  8
_0-3_05_CENTER
  6
CENTER2
 62
    4
 10
1109.4066318234704
 20
588.05941846024564
 11
1109.4066318234704
 21
618.37254368639765
  0
CIRCLE
  8
_0-2_0
  6
CONTINUOUS
 62
   18
 10
1109.4066318235143
 20
724.21598107051773
 40
8
  0
LINE
  8
_0-3_05_CENTER
  6
CENTER2
 62
    4
 10
1094.2500692104384
 20
724.21598107332159
 11
1124.5631944365612
 21
724.21598107332159
  0
LINE
  8
_0-3_05_CENTER
  6
CENTER2
 62
    4
 10
1109.4066318234704
 20
709.05941846024575
 11
1109.4066318234704
 21
739.37254368639765
  0
LINE
  8
_0-2_0
  6
CONTINUOUS
 62
   18
 10
1083.4066318256826
 20
573.7159810782457
 11
1128.4066318256823
 21
573.71598107824479
  0
LINE
  8
_0-2_0
  6
CONTINUOUS
 62
   18
 10
1299.3560655796214
 20
943.75715164470898
 11
1219.3560655806766
 21
943.75715164470898
  0
LINE
  8
_0-2_0
  6
CONTINUOUS
 62
   18
 10
1219.3560655806766
 20
943.75715164470898
 11
1217.3560655806766
 21
941.7571516447091
  0
LINE
  8
_0-2_0
  6
CONTINUOUS
 62
   18
 10
1217.3560655806766
 20
941.7571516447091
 11
1217.3560655806766
 21
895.75715164470898
  0
LINE
  8
_0-2_0
  6
CONTINUOUS
 62
   18
 10
1217.3560655806766
 20
895.75715164470898
 11
1219.3560655806766
 21
893.75715164470887
  0
LINE
  8
_0-2_0
  6
CONTINUOUS
 62
   18
 10
1219.3560655806766
 20
893.75715164470887
 11
1299.3560655796214
 21
893.75715164470887
  0
LINE
  8
_0-2_0
  6
CONTINUOUS
 62
   18
 10
1299.3560655796214
 20
893.75715164470887
 11
1301.3560655796216
 21
895.75715164470898
  0
LINE
  8
_0-2_0
  6
CONTINUOUS
 62
   18
 10
1301.3560655796216
 20
895.75715164470898
 11
1301.3560655796216
 21
941.7571516447091
  0
LINE
  8
_0-2_0
  6
CONTINUOUS
 62
   18
 10
1301.3560655796216
 20
941.7571516447091
 11
1299.3560655796214
 21
943.75715164470898
  0
LINE
  8
_0-2_0
  6
CONTINUOUS
 62
   18
 10
1221.3560655716835
 20
578.71598107824479
 11
1226.3560655716833
 21
573.71598107824479
  0
LINE
  8
_0-2_0
  6
CONTINUOUS
 62
   18
 10
1128.4066318256823
 20
573.71598107824479
 11
1133.4066318256823
 21
578.71598107824479
  0
LINE
  8
_0-3_05_CENTER
  6
CENTER2
 62
    4
 10
1289.3560655796216
 20
780.92342302304803
 11
1289.3560655796216
 21
800.30461580186784
  0
LINE
  8
_0-3_05_CENTER
  6
CENTER2
 62
    4
 10
1109.4066318256823
 20
780.92342302304803
 11
1109.4066318256823
 21
800.30461580186784
  0
LINE
  8
_0-5_08_DIM
  6
CONTINUOUS
 62
    3
 10
1091.2108844025631
 20
961.11856988733541
 11
1142.1956870342526
 21
961.11856988733541
  0
INSERT
  2
-001-p1ba05
  8
_0-5_08_DIM
 10
1121.0229982976145
 20
963.85374823769564
 41
3
 42
3
 50
0
  0
TEXT
  8
_0-0_90_FRAME
 62
    3
 10
1429.3755615488337
 20
437.88936843897875
 40
5.9999999999999991
 41
1
 50
0
  1
1
  0
TEXT
  8
_0-0_90_FRAME
 62
    3
 10
1269.3317229016413
 20
437.94311628561309
 40
5.9999999999999991
 41
1
 50
0
  1
āsāŹü[āXāeü[R
  0
TEXT
  8
_0-5_08_DIM
 62
    3
 10
1094.0153068866537
 20
948.63624412115212
 40
9
 41
1
 50
0
  1
116éŲæ╬Å╠
  0
LINE
  8
_0-5_08_DIM
  6
CONTINUOUS
 62
    3
 10
685.68263496308339
 20
787.71598107598743
 11
661.67807052078263
 21
787.71598107598743
  0
LINE
  8
_0-5_08_DIM
  6
CONTINUOUS
 62
    3
 10
685.68263496308339
 20
793.71598107313514
 11
661.67807052078263
 21
793.71598107313514
  0
LINE
  8
_0-5_08_DIM
  6
CONTINUOUS
 62
    3
 10
664.17807052078263
 20
782.71598107598732
 11
664.17807052078263
 21
777.71598107598743
  0
LINE
  8
_0-5_08_DIM
  6
CONTINUOUS
 62
    3
 10
664.17807052078263
 20
798.71598107313525
 11
664.17807052078263
 21
810.21598107313525
  0
LINE
  8
_0-5_08_DIM
  6
CONTINUOUS
 62
    3
 10
664.17807052078263
 20
787.71598107598743
 11
664.17807052078263
 21
793.71598107313514
  0
INSERT
  2
-006-_Open30
  8
_0-5_08_DIM
 10
664.17807052078263
 20
787.71598107598743
 41
5
 42
5
 50
90
  0
INSERT
  2
-006-_Open30
  8
_0-5_08_DIM
 10
664.17807052078263
 20
793.71598107313514
 41
5
 42
5
 50
270
  0
LINE
  8
_0-5_08_DIM
  6
CONTINUOUS
 62
    3
 10
863.1071902974287
 20
724.21598107332079
 11
822.84531084946298
 21
724.21598107332079
  0
LINE
  8
_0-5_08_DIM
  6
CONTINUOUS
 62
    3
 10
863.1071902974287
 20
603.21598107332079
 11
822.84531084946275
 21
603.21598107332079
  0
LINE
  8
_0-5_08_DIM
  6
CONTINUOUS
 62
    3
 10
825.34531084946286
 20
719.21598107332079
 11
825.34531084946286
 21
608.21598107332068
  0
INSERT
  2
-006-_Open30
  8
_0-5_08_DIM
 10
825.34531084946286
 20
724.21598107332079
 41
5
 42
5
 50
90
  0
INSERT
  2
-006-_Open30
  8
_0-5_08_DIM
 10
825.34531084946286
 20
603.21598107332079
 41
5
 42
5
 50
270
  0
LINE
  8
_0-5_08_DIM
  6
CONTINUOUS
 62
    3
 10
878.88206872052956
 20
586.80941846304961
 11
878.88206872052956
 21
549.0609191091645
  0
LINE
  8
_0-5_08_DIM
  6
CONTINUOUS
 62
    3
 10
904.88206871702255
 20
572.4659810782457
 11
904.88206871702255
 21
549.0609191091645
  0
LINE
  8
_0-5_08_DIM
  6
CONTINUOUS
 62
    3
 10
883.88206872052945
 20
551.56091910916462
 11
899.88206871702232
 21
551.56091910916462
  0
INSERT
  2
-006-_Open30
  8
_0-5_08_DIM
 10
878.88206872052956
 20
551.56091910916462
 41
5
 42
5
 50
180
  0
INSERT
  2
-006-_Open30
  8
_0-5_08_DIM
 10
904.88206871702255
 20
551.56091910916462
 41
5
 42
5
 50
0
  0
LINE
  8
_0-5_08_DIM
  6
CONTINUOUS
 62
    3
 10
680.16327567855535
 20
917.75715164470535
 11
661.67807052078263
 21
917.75715164470535
  0
LINE
  8
_0-5_08_DIM
  6
CONTINUOUS
 62
    3
 10
687.68263496308327
 20
943.75715164470898
 11
661.67807052078263
 21
943.75715164470898
  0
LINE
  8
_0-5_08_DIM
  6
CONTINUOUS
 62
    3
 10
664.17807052078263
 20
922.75715164470523
 11
664.17807052078263
 21
938.75715164470876
  0
INSERT
  2
-006-_Open30
  8
_0-5_08_DIM
 10
664.17807052078263
 20
917.75715164470535
 41
5
 42
5
 50
270
  0
INSERT
  2
-006-_Open30
  8
_0-5_08_DIM
 10
664.17807052078263
 20
943.75715164470898
 41
5
 42
5
 50
90
  0
LINE
  8
_0-5_08_DIM
  6
CONTINUOUS
 62
    3
 10
687.68263496308327
 20
943.75715164470898
 11
646.83318322100661
 21
943.75715164470898
  0
LINE
  8
_0-5_08_DIM
  6
CONTINUOUS
 62
    3
 10
687.68263496309066
 20
893.75715164470887
 11
646.83318322100661
 21
893.75715164470887
  0
LINE
  8
_0-5_08_DIM
  6
CONTINUOUS
 62
    3
 10
649.33318322100661
 20
938.75715164470876
 11
649.33318322100661
 21
898.75715164470898
  0
INSERT
  2
-006-_Open30
  8
_0-5_08_DIM
 10
649.33318322100661
 20
943.75715164470898
 41
5
 42
5
 50
90
  0
INSERT
  2
-006-_Open30
  8
_0-5_08_DIM
 10
649.33318322100661
 20
893.75715164470887
 41
5
 42
5
 50
270
  0
LINE
  8
_0-5_08_DIM
  6
CONTINUOUS
 62
    3
 10
698.93263496308339
 20
906.21806047073835
 11
698.93263496308339
 21
868.98049350276347
  0
LINE
  8
_0-5_08_DIM
  6
CONTINUOUS
 62
    3
 10
686.93263496309066
 20
894.50715164470887
 11
686.93263496309066
 21
868.98049350276347
  0
LINE
  8
_0-5_08_DIM
  6
CONTINUOUS
 62
    3
 10
703.93263496308339
 20
871.48049350276347
 11
708.93263496308339
 21
871.48049350276347
  0
LINE
  8
_0-5_08_DIM
  6
CONTINUOUS
 62
    3
 10
681.93263496309066
 20
871.48049350276347
 11
676.93263496309066
 21
871.48049350276347
  0
LINE
  8
_0-5_08_DIM
  6
CONTINUOUS
 62
    3
 10
698.93263496308339
 20
871.48049350276347
 11
686.93263496309066
 21
871.48049350276347
  0
INSERT
  2
-006-_Open30
  8
_0-5_08_DIM
 10
698.93263496308339
 20
871.48049350276347
 41
5
 42
5
 50
180
  0
INSERT
  2
-006-_Open30
  8
_0-5_08_DIM
 10
686.93263496309066
 20
871.48049350276347
 41
5
 42
5
 50
0
  0
LINE
  8
_0-5_08_DIM
  6
CONTINUOUS
 62
    3
 10
686.9326349630835
 20
894.50715164471251
 11
686.9326349630835
 21
851.2695327970689
  0
LINE
  8
_0-5_08_DIM
  6
CONTINUOUS
 62
    3
 10
770.93263496202837
 20
894.50715164470887
 11
770.93263496202837
 21
851.2695327970689
  0
LINE
  8
_0-5_08_DIM
  6
CONTINUOUS
 62
    3
 10
691.93263496308339
 20
853.76953279706902
 11
765.93263496202837
 21
853.76953279706902
  0
INSERT
  2
-006-_Open30
  8
_0-5_08_DIM
 10
686.9326349630835
 20
853.76953279706902
 41
5
 42
5
 50
180
  0
INSERT
  2
-006-_Open30
  8
_0-5_08_DIM
 10
770.93263496202837
 20
853.76953279706902
 41
5
 42
5
 50
0
  0
LINE
  8
_0-5_08_DIM
  6
CONTINUOUS
 62
    3
 10
715.68263496644488
 20
573.71598107824479
 11
646.83318322100649
 21
573.71598107824479
  0
LINE
  8
_0-5_08_DIM
  6
CONTINUOUS
 62
    3
 10
685.68263496308339
 20
793.71598107598743
 11
646.83318322100661
 21
793.71598107598743
  0
LINE
  8
_0-5_08_DIM
  6
CONTINUOUS
 62
    3
 10
649.33318322100661
 20
578.71598107824479
 11
649.33318322100661
 21
788.71598107598732
  0
INSERT
  2
-006-_Open30
  8
_0-5_08_DIM
 10
649.33318322100661
 20
573.71598107824479
 41
5
 42
5
 50
270
  0
INSERT
  2
-006-_Open30
  8
_0-5_08_DIM
 10
649.33318322100661
 20
793.71598107598743
 41
5
 42
5
 50
90
  0
LINE
  8
_0-5_08_DIM
  6
CONTINUOUS
 62
    3
 10
680.16327567852613
 20
917.75715164470887
 11
661.67807052078263
 21
917.75715164470887
  0
LINE
  8
_0-5_08_DIM
  6
CONTINUOUS
 62
    3
 10
687.68263496309066
 20
893.75715164470887
 11
661.67807052078263
 21
893.75715164470887
  0
LINE
  8
_0-5_08_DIM
  6
CONTINUOUS
 62
    3
 10
664.17807052078263
 20
912.75715164470887
 11
664.17807052078263
 21
898.75715164470898
  0
INSERT
  2
-006-_Open30
  8
_0-5_08_DIM
 10
664.17807052078263
 20
917.75715164470887
 41
5
 42
5
 50
90
  0
INSERT
  2
-006-_Open30
  8
_0-5_08_DIM
 10
664.17807052078263
 20
893.75715164470887
 41
5
 42
5
 50
270
  0
LINE
  8
_0-5_08_DIM
  6
CONTINUOUS
 62
    3
 10
685.68263496308339
 20
787.71598107598743
 11
661.67807052078274
 21
787.71598107598743
  0
LINE
  8
_0-5_08_DIM
  6
CONTINUOUS
 62
    3
 10
715.68263496644488
 20
573.71598107824661
 11
661.67807052078263
 21
573.71598107824661
  0
LINE
  8
_0-5_08_DIM
  6
CONTINUOUS
 62
    3
 10
664.17807052078263
 20
782.71598107598732
 11
664.17807052078263
 21
578.71598107824661
  0
INSERT
  2
-006-_Open30
  8
_0-5_08_DIM
 10
664.17807052078263
 20
787.71598107598743
 41
5
 42
5
 50
90
  0
INSERT
  2
-006-_Open30
  8
_0-5_08_DIM
 10
664.17807052078263
 20
573.71598107824661
 41
5
 42
5
 50
270
  0
LINE
  8
_0-5_08_DIM
  6
CONTINUOUS
 62
    3
 10
758.93263496309066
 20
906.21806046917413
 11
758.93263496309066
 21
868.98049350276347
  0
LINE
  8
_0-5_08_DIM
  6
CONTINUOUS
 62
    3
 10
698.93263496308339
 20
906.21806047073835
 11
698.93263496308339
 21
868.98049350276347
  0
LINE
  8
_0-5_08_DIM
  6
CONTINUOUS
 62
    3
 10
753.93263496309066
 20
871.48049350276347
 11
703.93263496308339
 21
871.48049350276347
  0
INSERT
  2
-006-_Open30
  8
_0-5_08_DIM
 10
758.93263496309066
 20
871.48049350276347
 41
5
 42
5
 50
0
  0
INSERT
  2
-006-_Open30
  8
_0-5_08_DIM
 10
698.93263496308339
 20
871.48049350276347
 41
5
 42
5
 50
180
  0
LINE
  8
_0-5_08_DIM
  6
CONTINUOUS
 62
    3
 10
716.93263497161797
 20
783.46598107313514
 11
716.93263497161797
 21
755.83145090692381
  0
LINE
  8
_0-5_08_DIM
  6
CONTINUOUS
 62
    3
 10
686.9326349630835
 20
786.46598107598743
 11
686.9326349630835
 21
755.83145090692381
  0
LINE
  8
_0-5_08_DIM
  6
CONTINUOUS
 62
    3
 10
711.93263497161809
 20
758.33145090692392
 11
691.93263496308339
 21
758.33145090692392
  0
INSERT
  2
-006-_Open30
  8
_0-5_08_DIM
 10
716.93263497161797
 20
758.33145090692392
 41
5
 42
5
 50
0
  0
INSERT
  2
-006-_Open30
  8
_0-5_08_DIM
 10
686.9326349630835
 20
758.33145090692392
 41
5
 42
5
 50
180
  0
LINE
  8
_0-5_08_DIM
  6
CONTINUOUS
 62
    3
 10
863.1071902974287
 20
724.21598107332079
 11
822.84531084946298
 21
724.21598107332079
  0
LINE
  8
_0-5_08_DIM
  6
CONTINUOUS
 62
    3
 10
853.63206871702243
 20
787.71598107430304
 11
822.84531084946298
 21
787.71598107430304
  0
LINE
  8
_0-5_08_DIM
  6
CONTINUOUS
 62
    3
 10
825.34531084946286
 20
729.21598107332079
 11
825.34531084946286
 21
782.71598107430293
  0
INSERT
  2
-006-_Open30
  8
_0-5_08_DIM
 10
825.34531084946286
 20
724.21598107332079
 41
5
 42
5
 50
270
  0
INSERT
  2
-006-_Open30
  8
_0-5_08_DIM
 10
825.34531084946286
 20
787.71598107430304
 41
5
 42
5
 50
90
  0
LINE
  8
_0-5_08_DIM
  6
CONTINUOUS
 62
    3
 10
626.65480185431807
 20
872.25347538986523
 11
665.70480185431927
 21
872.25347538986523
  0
LINE
  8
_0-5_08_DIM
  6
CONTINUOUS
 62
    3
 10
665.70480185431927
 20
872.25347538986523
 11
692.44561587735643
 21
908.87353845400571
  0
INSERT
  2
-006-_Open30
  8
_0-5_08_DIM
 10
695.39426091840357
 20
912.91154444977997
 41
5
 42
5
 50
53.862219839882727
  0
LINE
  8
_0-5_08_DIM
  6
CONTINUOUS
 62
    3
 10
792.64736283815944
 20
572.1025146933531
 11
828.69736283815939
 21
572.1025146933531
  0
LINE
  8
_0-5_08_DIM
  6
CONTINUOUS
 62
    3
 10
828.69736283815939
 20
572.1025146933531
 11
867.83323007343779
 21
596.36593256119113
  0
INSERT
  2
-006-_Open30
  8
_0-5_08_DIM
 10
872.08278339872732
 20
599.0005666032398
 41
5
 42
5
 50
31.798045847203394
  0
LINE
  8
_0-5_08_DIM
  6
CONTINUOUS
 62
    3
 10
773.46816886796114
 20
946.29268555064164
 11
793.81519507518442
 21
966.63971175786503
  0
INSERT
  2
-006-_Open30
  8
_0-5_08_DIM
 10
769.93263496202826
 20
942.75715164470887
 41
5.0000000000000009
 42
5.0000000000000009
 50
224.99999999999997
  0
LINE
  8
_0-5_08_DIM
  6
CONTINUOUS
 62
    3
 10
767.968168876954
 20
572.68044717231214
 11
780.83754936467176
 21
559.81106668459461
  0
INSERT
  2
-006-_Open30
  8
_0-5_08_DIM
 10
764.43263497102146
 20
576.21598107824491
 41
5
 42
5
 50
135
  0
LINE
  8
_0-5_08_DIM
  6
CONTINUOUS
 62
    3
 10
853.84653481108978
 20
572.6804471723118
 11
840.25156651194925
 21
559.08547887317138
  0
INSERT
  2
-006-_Open30
  8
_0-5_08_DIM
 10
857.38206871702243
 20
576.21598107824457
 41
5
 42
5
 50
44.99999999999995
  0
INSERT
  2
-007-AM_BALLOON1
  8
_0-5_08_DIM
 10
556.84213599603129
 20
961.12855718323885
 41
2.5
 42
2.5
 50
0
  0
TEXT
  8
_0-2_0
 62
    7
 10
545.59213599603129
 20
957.37855718323874
 40
7.5
 41
1
 50
0
  1
116
  0
LINE
  8
_0-5_08_DIM
  6
CONTINUOUS
 62
    3
 10
1302.6060655796216
 20
787.71598107598743
 11
1326.6106300219221
 21
787.71598107598743
  0
LINE
  8
_0-5_08_DIM
  6
CONTINUOUS
 62
    3
 10
1302.6060655796216
 20
793.71598107313514
 11
1326.6106300219221
 21
793.71598107313514
  0
LINE
  8
_0-5_08_DIM
  6
CONTINUOUS
 62
    3
 10
1324.1106300219224
 20
782.71598107598732
 11
1324.1106300219224
 21
777.71598107598743
  0
LINE
  8
_0-5_08_DIM
  6
CONTINUOUS
 62
    3
 10
1324.1106300219224
 20
798.71598107313525
 11
1324.1106300219224
 21
810.21598107313525
  0
LINE
  8
_0-5_08_DIM
  6
CONTINUOUS
 62
    3
 10
1324.1106300219224
 20
787.71598107598743
 11
1324.1106300219224
 21
793.71598107313514
  0
INSERT
  2
-006-_Open30
  8
_0-5_08_DIM
 10
1324.1106300219224
 20
787.71598107598743
 41
5
 42
5
 50
90
  0
INSERT
  2
-006-_Open30
  8
_0-5_08_DIM
 10
1324.1106300219224
 20
793.71598107313514
 41
5
 42
5
 50
270
  0
LINE
  8
_0-5_08_DIM
  6
CONTINUOUS
 62
    3
 10
1125.1815102452763
 20
724.21598107332079
 11
1165.4433896932419
 21
724.21598107332079
  0
LINE
  8
_0-5_08_DIM
  6
CONTINUOUS
 62
    3
 10
1125.1815102452763
 20
603.21598107332079
 11
1165.4433896932419
 21
603.21598107332079
  0
LINE
  8
_0-5_08_DIM
  6
CONTINUOUS
 62
    3
 10
1162.9433896932421
 20
719.21598107332079
 11
1162.9433896932421
 21
608.21598107332068
  0
INSERT
  2
-006-_Open30
  8
_0-5_08_DIM
 10
1162.9433896932421
 20
724.21598107332079
 41
5
 42
5
 50
90
  0
INSERT
  2
-006-_Open30
  8
_0-5_08_DIM
 10
1162.9433896932421
 20
603.21598107332079
 41
5
 42
5
 50
270
  0
LINE
  8
_0-5_08_DIM
  6
CONTINUOUS
 62
    3
 10
1109.4066318221753
 20
586.80941846304961
 11
1109.4066318221753
 21
549.0609191091645
  0
LINE
  8
_0-5_08_DIM
  6
CONTINUOUS
 62
    3
 10
1083.4066318256826
 20
572.4659810782457
 11
1083.4066318256826
 21
549.0609191091645
  0
LINE
  8
_0-5_08_DIM
  6
CONTINUOUS
 62
    3
 10
1104.4066318221755
 20
551.56091910916462
 11
1088.4066318256823
 21
551.56091910916462
  0
INSERT
  2
-006-_Open30
  8
_0-5_08_DIM
 10
1109.4066318221753
 20
551.56091910916462
 41
5
 42
5
 50
0
  0
INSERT
  2
-006-_Open30
  8
_0-5_08_DIM
 10
1083.4066318256826
 20
551.56091910916462
 41
5
 42
5
 50
180
  0
LINE
  8
_0-5_08_DIM
  6
CONTINUOUS
 62
    3
 10
1308.1254248641496
 20
917.75715164470535
 11
1326.6106300219221
 21
917.75715164470535
  0
LINE
  8
_0-5_08_DIM
  6
CONTINUOUS
 62
    3
 10
1300.6060655796214
 20
943.75715164470898
 11
1326.6106300219221
 21
943.75715164470898
  0
LINE
  8
_0-5_08_DIM
  6
CONTINUOUS
 62
    3
 10
1324.1106300219224
 20
922.75715164470523
 11
1324.1106300219224
 21
938.75715164470876
  0
INSERT
  2
-006-_Open30
  8
_0-5_08_DIM
 10
1324.1106300219224
 20
917.75715164470535
 41
5
 42
5
 50
270
  0
INSERT
  2
-006-_Open30
  8
_0-5_08_DIM
 10
1324.1106300219224
 20
943.75715164470898
 41
5
 42
5
 50
90
  0
LINE
  8
_0-5_08_DIM
  6
CONTINUOUS
 62
    3
 10
1300.6060655796214
 20
943.75715164470898
 11
1341.4555173216982
 21
943.75715164470898
  0
LINE
  8
_0-5_08_DIM
  6
CONTINUOUS
 62
    3
 10
1300.6060655796143
 20
893.75715164470887
 11
1341.4555173216982
 21
893.75715164470887
  0
LINE
  8
_0-5_08_DIM
  6
CONTINUOUS
 62
    3
 10
1338.9555173216982
 20
938.75715164470876
 11
1338.9555173216982
 21
898.75715164470898
  0
INSERT
  2
-006-_Open30
  8
_0-5_08_DIM
 10
1338.9555173216982
 20
943.75715164470898
 41
5
 42
5
 50
90
  0
INSERT
  2
-006-_Open30
  8
_0-5_08_DIM
 10
1338.9555173216982
 20
893.75715164470887
 41
5
 42
5
 50
270
  0
LINE
  8
_0-5_08_DIM
  6
CONTINUOUS
 62
    3
 10
1289.3560655796216
 20
906.21806047073835
 11
1289.3560655796216
 21
868.98049350276347
  0
LINE
  8
_0-5_08_DIM
  6
CONTINUOUS
 62
    3
 10
1301.3560655796143
 20
894.50715164470887
 11
1301.3560655796143
 21
868.98049350276347
  0
LINE
  8
_0-5_08_DIM
  6
CONTINUOUS
 62
    3
 10
1284.3560655796214
 20
871.48049350276347
 11
1279.3560655796214
 21
871.48049350276347
  0
LINE
  8
_0-5_08_DIM
  6
CONTINUOUS
 62
    3
 10
1306.3560655796143
 20
871.48049350276347
 11
1311.3560655796141
 21
871.48049350276347
  0
LINE
  8
_0-5_08_DIM
  6
CONTINUOUS
 62
    3
 10
1289.3560655796216
 20
871.48049350276347
 11
1301.3560655796143
 21
871.48049350276347
  0
INSERT
  2
-006-_Open30
  8
_0-5_08_DIM
 10
1289.3560655796216
 20
871.48049350276347
 41
5
 42
5
 50
0
  0
INSERT
  2
-006-_Open30
  8
_0-5_08_DIM
 10
1301.3560655796143
 20
871.48049350276347
 41
5
 42
5
 50
180
  0
LINE
  8
_0-5_08_DIM
  6
CONTINUOUS
 62
    3
 10
1301.3560655796216
 20
894.50715164471251
 11
1301.3560655796216
 21
851.2695327970689
  0
LINE
  8
_0-5_08_DIM
  6
CONTINUOUS
 62
    3
 10
1217.3560655806766
 20
894.50715164470887
 11
1217.3560655806766
 21
851.2695327970689
  0
LINE
  8
_0-5_08_DIM
  6
CONTINUOUS
 62
    3
 10
1296.3560655796214
 20
853.76953279706902
 11
1222.3560655806766
 21
853.76953279706902
  0
INSERT
  2
-006-_Open30
  8
_0-5_08_DIM
 10
1301.3560655796216
 20
853.76953279706902
 41
5
 42
5
 50
0
  0
INSERT
  2
-006-_Open30
  8
_0-5_08_DIM
 10
1217.3560655806766
 20
853.76953279706902
 41
5
 42
5
 50
180
  0
LINE
  8
_0-5_08_DIM
  6
CONTINUOUS
 62
    3
 10
1272.6060655762601
 20
573.71598107824479
 11
1341.4555173216982
 21
573.71598107824468
  0
LINE
  8
_0-5_08_DIM
  6
CONTINUOUS
 62
    3
 10
1302.6060655796216
 20
793.71598107598743
 11
1341.4555173216982
 21
793.71598107598743
  0
LINE
  8
_0-5_08_DIM
  6
CONTINUOUS
 62
    3
 10
1338.9555173216982
 20
578.71598107824468
 11
1338.9555173216982
 21
788.71598107598732
  0
INSERT
  2
-006-_Open30
  8
_0-5_08_DIM
 10
1338.9555173216982
 20
573.71598107824468
 41
5
 42
5
 50
270
  0
INSERT
  2
-006-_Open30
  8
_0-5_08_DIM
 10
1338.9555173216982
 20
793.71598107598743
 41
5
 42
5
 50
90
  0
LINE
  8
_0-5_08_DIM
  6
CONTINUOUS
 62
    3
 10
1308.1254248641785
 20
917.75715164470887
 11
1326.6106300219221
 21
917.75715164470887
  0
LINE
  8
_0-5_08_DIM
  6
CONTINUOUS
 62
    3
 10
1300.6060655796143
 20
893.75715164470887
 11
1326.6106300219221
 21
893.75715164470887
  0
LINE
  8
_0-5_08_DIM
  6
CONTINUOUS
 62
    3
 10
1324.1106300219224
 20
912.75715164470887
 11
1324.1106300219224
 21
898.75715164470898
  0
INSERT
  2
-006-_Open30
  8
_0-5_08_DIM
 10
1324.1106300219224
 20
917.75715164470887
 41
5
 42
5
 50
90
  0
INSERT
  2
-006-_Open30
  8
_0-5_08_DIM
 10
1324.1106300219224
 20
893.75715164470887
 41
5
 42
5
 50
270
  0
LINE
  8
_0-5_08_DIM
  6
CONTINUOUS
 62
    3
 10
1302.6060655796216
 20
787.71598107598743
 11
1326.6106300219221
 21
787.71598107598743
  0
LINE
  8
_0-5_08_DIM
  6
CONTINUOUS
 62
    3
 10
1272.6060655762601
 20
573.71598107824661
 11
1326.6106300219221
 21
573.71598107824661
  0
LINE
  8
_0-5_08_DIM
  6
CONTINUOUS
 62
    3
 10
1324.1106300219224
 20
782.71598107598732
 11
1324.1106300219224
 21
578.7159810782465
  0
INSERT
  2
-006-_Open30
  8
_0-5_08_DIM
 10
1324.1106300219224
 20
787.71598107598743
 41
5
 42
5
 50
90
  0
INSERT
  2
-006-_Open30
  8
_0-5_08_DIM
 10
1324.1106300219224
 20
573.71598107824661
 41
5
 42
5
 50
270
  0
LINE
  8
_0-5_08_DIM
  6
CONTINUOUS
 62
    3
 10
1229.3560655796143
 20
906.21806046917413
 11
1229.3560655796143
 21
868.98049350276347
  0
LINE
  8
_0-5_08_DIM
  6
CONTINUOUS
 62
    3
 10
1289.3560655796216
 20
906.21806047073835
 11
1289.3560655796216
 21
868.98049350276347
  0
LINE
  8
_0-5_08_DIM
  6
CONTINUOUS
 62
    3
 10
1234.3560655796143
 20
871.48049350276347
 11
1284.3560655796214
 21
871.48049350276347
  0
INSERT
  2
-006-_Open30
  8
_0-5_08_DIM
 10
1229.3560655796143
 20
871.48049350276347
 41
5
 42
5
 50
180
  0
INSERT
  2
-006-_Open30
  8
_0-5_08_DIM
 10
1289.3560655796216
 20
871.48049350276347
 41
5
 42
5
 50
0
  0
LINE
  8
_0-5_08_DIM
  6
CONTINUOUS
 62
    3
 10
1271.3560655710867
 20
783.46598107313514
 11
1271.3560655710867
 21
755.83145090692381
  0
LINE
  8
_0-5_08_DIM
  6
CONTINUOUS
 62
    3
 10
1301.3560655796216
 20
786.46598107598743
 11
1301.3560655796216
 21
755.83145090692381
  0
LINE
  8
_0-5_08_DIM
  6
CONTINUOUS
 62
    3
 10
1276.3560655710869
 20
758.33145090692392
 11
1296.3560655796214
 21
758.33145090692392
  0
INSERT
  2
-006-_Open30
  8
_0-5_08_DIM
 10
1271.3560655710867
 20
758.33145090692392
 41
5
 42
5
 50
180
  0
INSERT
  2
-006-_Open30
  8
_0-5_08_DIM
 10
1301.3560655796216
 20
758.33145090692392
 41
5
 42
5
 50
0
  0
LINE
  8
_0-5_08_DIM
  6
CONTINUOUS
 62
    3
 10
1125.1815102452763
 20
724.21598107332079
 11
1165.4433896932419
 21
724.21598107332079
  0
LINE
  8
_0-5_08_DIM
  6
CONTINUOUS
 62
    3
 10
1134.6566318256826
 20
787.71598107430304
 11
1165.4433896932419
 21
787.71598107430304
  0
LINE
  8
_0-5_08_DIM
  6
CONTINUOUS
 62
    3
 10
1162.9433896932421
 20
729.21598107332079
 11
1162.9433896932421
 21
782.71598107430293
  0
INSERT
  2
-006-_Open30
  8
_0-5_08_DIM
 10
1162.9433896932421
 20
724.21598107332079
 41
5
 42
5
 50
270
  0
INSERT
  2
-006-_Open30
  8
_0-5_08_DIM
 10
1162.9433896932421
 20
787.71598107430304
 41
5
 42
5
 50
90
  0
LINE
  8
_0-5_08_DIM
  6
CONTINUOUS
 62
    3
 10
1361.6338986883868
 20
872.25347538986546
 11
1322.5838986883871
 21
872.25347538986546
  0
LINE
  8
_0-5_08_DIM
  6
CONTINUOUS
 62
    3
 10
1322.5838986883871
 20
872.25347538986546
 11
1295.8430846653487
 21
908.87353845400594
  0
INSERT
  2
-006-_Open30
  8
_0-5_08_DIM
 10
1292.8944396243014
 20
912.91154444978019
 41
4.9999999999999991
 42
4.9999999999999991
 50
126.13778016011877
  0
LINE
  8
_0-5_08_DIM
  6
CONTINUOUS
 62
    3
 10
1195.6413377045449
 20
572.10251469335287
 11
1159.5913377045451
 21
572.10251469335299
  0
LINE
  8
_0-5_08_DIM
  6
CONTINUOUS
 62
    3
 10
1159.5913377045451
 20
572.10251469335299
 11
1120.4554704692666
 21
596.36593256119113
  0
INSERT
  2
-006-_Open30
  8
_0-5_08_DIM
 10
1116.2059171439773
 20
599.00056660323969
 41
5
 42
5
 50
148.20195415279647
  0
LINE
  8
_0-5_08_DIM
  6
CONTINUOUS
 62
    3
 10
1220.3205316657507
 20
572.68044717231237
 11
1207.4511511780331
 21
559.81106668459495
  0
INSERT
  2
-006-_Open30
  8
_0-5_08_DIM
 10
1223.8560655716833
 20
576.21598107824514
 41
5
 42
5
 50
45
  0
LINE
  8
_0-5_08_DIM
  6
CONTINUOUS
 62
    3
 10
1134.442165731615
 20
572.68044717231157
 11
1146.1888378596025
 21
560.93377504432397
  0
INSERT
  2
-006-_Open30
  8
_0-5_08_DIM
 10
1130.9066318256821
 20
576.21598107824445
 41
5
 42
5
 50
135
  0
LINE
  8
_0-5_08_DIM
  6
CONTINUOUS
 62
    3
 10
1214.8205316747442
 20
891.22161773877633
 11
1193.9198847476762
 21
870.32097081170809
  0
INSERT
  2
-006-_Open30
  8
_0-5_08_DIM
 10
1218.3560655806768
 20
894.7571516447091
 41
5
 42
5
 50
45.000000000000107
  0
INSERT
  2
-007-AM_BALLOON1
  8
_0-5_08_DIM
 10
1078.6962129946151
 20
961.12855718323885
 41
2.5
 42
2.5
 50
0
  0
TEXT
  8
_0-2_0
 62
    7
 10
1067.4462129946151
 20
957.37855718323874
 40
7.5
 41
1
 50
0
  1
117
  0
TEXT
  8
_0-6_07_TEXT
 62
    3
 10
1372.1235284824186
 20
532.30299455533441
 40
5.9999999999999991
 41
1
 50
0
  1
ÆŹŗL
  0
TEXT
  8
_0-6_07_TEXT
 62
    3
 10
1372.6035284824188
 20
521.14499455533451
 40
5.9999999999999991
 41
1
 50
0
  1
ü@ÄwÄ”é╚é½ŖpĢöé═
  0
TEXT
  8
_0-6_07_TEXT
 62
    3
 10
1437.2535284824185
 20
521.14499455533451
 40
5.9999999999999991
 41
1
 50
0
  1
C0.5
  0
TEXT
  8
_0-6_07_TEXT
 62
    3
 10
1457.5392427681327
 20
521.14499455533451
 40
5.9999999999999991
 41
1
 50
0
  1
é╠é▒éŲ
  0
TEXT
  8
_0-6_07_TEXT
 62
    3
 10
1372.6035284824188
 20
509.74699455533442
 40
5.9999999999999991
 41
1
 50
0
  1
ü@āKāXÉžÆf¢╩é═āOāēāCāōā_ÄdÅŃé░é╠é▒éŲ
  0
TEXT
  8
_0-6_07_TEXT
 62
    3
 10
1372.6035284824188
 20
498.66099455533441
 40
5.9999999999999991
 41
1
 50
0
  1
ü@ÄwÄ”é╚é½ŚnÉ┌Ģöé═ü@ü@ü@ü@é╠é▒éŲ
  0
TEXT
  8
_0-6_07_TEXT
 62
    3
 10
1372.6035284824188
 20
487.57499455533446
 40
5.9999999999999991
 41
1
 50
0
  1
ü@ÄwÄ”é╚é½ĢöŹ▐é═
  0
TEXT
  8
_0-6_07_TEXT
 62
    3
 10
1437.2535284824185
 20
487.57499455533446
 40
5.9999999999999991
 41
1
 50
0
  1
L-6x50x50
  0
TEXT
  8
_0-6_07_TEXT
 62
    3
 10
1487.8249570538471
 20
487.57499455533446
 40
5.9999999999999991
 41
1
 50
0
  1
é­ÄgŚp
  0
TEXT
  8
_0-5_08_DIM
 62
    3
 10
662.92807052078263
 20
803.96598107313525
 40
5.9999999999999991
 41
1
 50
90
  1
6
  0
TEXT
  8
_0-5_08_DIM
 62
    3
 10
824.09531084946286
 20
655.57312393046368
 40
5.9999999999999991
 41
1
 50
90
  1
121
  0
TEXT
  8
_0-5_08_DIM
 62
    3
 10
886.16778300449039
 20
552.81091910916462
 40
5.9999999999999991
 41
1
 50
0
  1
26
  0
TEXT
  8
_0-5_08_DIM
 62
    3
 10
662.92807052078251
 20
925.0428659304215
 40
5.9999999999999991
 41
1
 50
90
  1
26
  0
TEXT
  8
_0-5_08_DIM
 62
    3
 10
648.08318322100649
 20
913.04286593042343
 40
5.9999999999999991
 41
1
 50
90
  1
50
  0
TEXT
  8
_0-5_08_DIM
 62
    3
 10
686.7897778202298
 20
872.73049350276335
 40
5.9999999999999991
 41
1
 50
0
  1
12
  0
TEXT
  8
_0-5_08_DIM
 62
    3
 10
723.07549210541299
 20
855.0195327970689
 40
5.9999999999999991
 41
1
 50
0
  1
84
  0
TEXT
  8
_0-5_08_DIM
 62
    3
 10
648.08318322100649
 20
675.14455250568767
 40
5.9999999999999991
 41
1
 50
90
  1
220
  0
TEXT
  8
_0-5_08_DIM
 62
    3
 10
661.92807052078251
 20
896.04286593042343
 40
5.9999999999999991
 41
1
 50
90
  1
(24)
  0
TEXT
  8
_0-5_08_DIM
 62
    3
 10
661.92807052078263
 20
668.14455250568847
 40
5.9999999999999991
 41
1
 50
90
  1
(214)
  0
TEXT
  8
_0-5_08_DIM
 62
    3
 10
723.07549210594425
 20
872.73049350276335
 40
5.9999999999999991
 41
1
 50
0
  1
60
  0
TEXT
  8
_0-5_08_DIM
 62
    3
 10
696.21834925306507
 20
759.58145090692392
 40
5.9999999999999991
 41
1
 50
0
  1
30
  0
TEXT
  8
_0-5_08_DIM
 62
    3
 10
824.09531084946286
 20
745.82312393095492
 40
5.9999999999999991
 41
1
 50
90
  1
63.5
  0
TEXT
  8
_0-5_08_DIM
 62
    3
 10
624.37151614003233
 20
873.8454753898651
 40
5.9999999999999991
 41
1
 50
0
  1
2-12
  0
TEXT
  8
_0-5_08_DIM
 62
    3
 10
648.94294471146088
 20
873.8454753898651
 40
5.9999999999999991
 41
1
 50
0
  1
āLāŖ
  0
TEXT
  8
_0-5_08_DIM
 62
    3
 10
790.3640771238737
 20
573.69451469335309
 40
5.9999999999999991
 41
1
 50
0
  1
2-16
  0
TEXT
  8
_0-5_08_DIM
 62
    3
 10
814.93550569530225
 20
573.69451469335309
 40
5.9999999999999991
 41
1
 50
0
  1
āLāŖ
  0
TEXT
  8
_0-5_08_DIM
 62
    3
 10
775.48092639156187
 20
950.07321002720857
 40
5.9999999999999991
 41
1
 50
45.000000000000242
  1
4-C2
  0
TEXT
  8
_0-5_08_DIM
 62
    3
 10
773.16039002607488
 20
569.25599297615781
 40
5.9999999999999991
 41
1
 50
-44.999999999999773
  1
C5
  0
TEXT
  8
_0-5_08_DIM
 62
    3
 10
839.6454749852179
 20
560.24715429940647
 40
5.9999999999999991
 41
1
 50
45.000000000000242
  1
C5
  0
TEXT
  8
_0-5_08_DIM
 62
    3
 10
1322.8606300219221
 20
803.96598107313537
 40
5.9999999999999991
 41
1
 50
90
  1
6
  0
TEXT
  8
_0-5_08_DIM
 62
    3
 10
1161.6933896932419
 20
655.57312393046368
 40
5.9999999999999991
 41
1
 50
90
  1
121
  0
TEXT
  8
_0-5_08_DIM
 62
    3
 10
1090.6923461096433
 20
552.81091910916462
 40
5.9999999999999991
 41
1
 50
0
  1
26
  0
TEXT
  8
_0-5_08_DIM
 62
    3
 10
1322.8606300219224
 20
925.0428659304215
 40
5.9999999999999991
 41
1
 50
90
  1
26
  0
TEXT
  8
_0-5_08_DIM
 62
    3
 10
1337.7055173216982
 20
913.0428659304232
 40
5.9999999999999991
 41
1
 50
90
  1
50
  0
TEXT
  8
_0-5_08_DIM
 62
    3
 10
1289.2132084367606
 20
872.73049350276335
 40
5.9999999999999991
 41
1
 50
0
  1
12
  0
TEXT
  8
_0-5_08_DIM
 62
    3
 10
1253.498922723006
 20
855.0195327970689
 40
5.9999999999999991
 41
1
 50
0
  1
84
  0
TEXT
  8
_0-5_08_DIM
 62
    3
 10
1337.7055173216982
 20
675.14455250568767
 40
5.9999999999999991
 41
1
 50
90
  1
220
  0
TEXT
  8
_0-5_08_DIM
 62
    3
 10
1321.8606300219219
 20
896.04286593042343
 40
5.9999999999999991
 41
1
 50
90
  1
(24)
  0
TEXT
  8
_0-5_08_DIM
 62
    3
 10
1321.8606300219224
 20
668.14455250568858
 40
5.9999999999999991
 41
1
 50
90
  1
(214)
  0
TEXT
  8
_0-5_08_DIM
 62
    3
 10
1253.4989227224751
 20
872.73049350276335
 40
5.9999999999999991
 41
1
 50
0
  1
60
  0
TEXT
  8
_0-5_08_DIM
 62
    3
 10
1280.6417798610682
 20
759.58145090692392
 40
5.9999999999999991
 41
1
 50
0
  1
30
  0
TEXT
  8
_0-5_08_DIM
 62
    3
 10
1161.6933896932419
 20
745.82312393095492
 40
5.9999999999999991
 41
1
 50
90
  1
63.5
  0
TEXT
  8
_0-5_08_DIM
 62
    3
 10
1324.5506129741011
 20
873.84547538986533
 40
5.9999999999999991
 41
1
 50
0
  1
2-12
  0
TEXT
  8
_0-5_08_DIM
 62
    3
 10
1349.1220415455296
 20
873.84547538986533
 40
5.9999999999999991
 41
1
 50
0
  1
āLāŖ
  0
TEXT
  8
_0-5_08_DIM
 62
    3
 10
1158.5580519902592
 20
573.69451469335286
 40
5.9999999999999991
 41
1
 50
0
  1
2-16
  0
TEXT
  8
_0-5_08_DIM
 62
    3
 10
1183.1294805616876
 20
573.69451469335286
 40
5.9999999999999991
 41
1
 50
0
  1
āLāŖ
  0
TEXT
  8
_0-5_08_DIM
 62
    3
 10
1206.8450596513019
 20
560.97274211083004
 40
5.9999999999999991
 41
1
 50
45.000000000000242
  1
C5
  0
TEXT
  8
_0-5_08_DIM
 62
    3
 10
1138.5116785210057
 20
570.37870133588717
 40
5.9999999999999991
 41
1
 50
-44.999999999999773
  1
C5
  0
TEXT
  8
_0-5_08_DIM
 62
    3
 10
1192.9097322031241
 20
871.07858522012236
 40
5.9999999999999991
 41
1
 50
45.000000000000242
  1
4-C2
  0
TEXT
  8
_0-0_90_FRAME
 62
    3
 10
619.06506376388211
 20
200.18137657006346
 40
5.9999999999999991
 41
1
 50
0
  1
Äøōc
  0
TEXT
  8
_0-0_90_FRAME
 62
    3
 10
465.80851876914238
 20
200.18137657006346
 40
5.9999999999999991
 41
0.6500000000000001
 50
0
  1
2013.09.01
  0
TEXT
  8
_0-0_90_FRAME
 62
    3
 10
505.79189346216413
 20
200.18137657006346
 40
5.9999999999999991
 41
1
 50
0
  1
āGāAü[ö▓é½ÆŪē┴
  0
TEXT
  8
_0-8_
 62
    7
 10
835.73116680379712
 20
192.06748174672569
 40
14.605010682008103
 41
1
 50
0
  1
A3ü@160%
  0
ENDSEC
  0
EOF
