  0
SECTION
  2
HEADER
  9
$ACADVER
  1
AC1009
  9
$INSBASE
 10
0
 20
0
 30
0
  9
$EXTMIN
 10
0
 20
0
  9
$EXTMAX
 10
3989.3689867353087
 20
2821.0537834771112
  9
$LIMMIN
 10
0
 20
0
  9
$LIMMAX
 10
3989.3689867353087
 20
2821.0537834771112
  9
$LTSCALE
 40
9.498497587465021
  0
ENDSEC
  0
SECTION
  2
TABLES
  0
TABLE
  2
LTYPE
 70
     9
  0
LTYPE
  2
CONTINUOUS
 70
    64
  3
Ä└É³
 72
    65
 73
     0
 40
0.0
  0
LTYPE
  2
DASHED1
 70
    64
  3
--  --  --  --  --  --  --  --  
 72
    65
 73
     2
 40
2.5
 49
1.25
 49
-1.25
  0
LTYPE
  2
DASHED2
 70
    64
  3
----    ----    ----    ----    
 72
    65
 73
     2
 40
5.0
 49
2.5
 49
-2.5
  0
LTYPE
  2
DASHED3
 70
    64
  3
------  ------  ------  ------  
 72
    65
 73
     2
 40
5.0
 49
3.75
 49
-1.25
  0
LTYPE
  2
CENTER1
 70
    64
  3
----- - ----- - ----- - ----- - 
 72
    65
 73
     4
 40
10.0
 49
6.25
 49
-1.25
 49
1.25
 49
-1.25
  0
LTYPE
  2
CENTER2
 70
    64
  3
----------  --  ----------  --  
 72
    65
 73
     4
 40
20.0
 49
12.5
 49
-2.5
 49
2.5
 49
-2.5
  0
LTYPE
  2
PHANTOM1
 70
    64
  3
--- - - --- - - --- - - --- - - 
 72
    65
 73
     6
 40
10.0
 49
3.25
 49
-1.25
 49
1.25
 49
-1.25
 49
1.25
 49
-1.25
  0
LTYPE
  2
PHANTOM2
 70
    64
  3
--------  -  -  --------  -  -  
 72
    65
 73
     6
 40
20.0
 49
10.0
 49
-2.5
 49
1.25
 49
-2.5
 49
1.25
 49
-2.5
  0
LTYPE
  2
DOT
 70
    64
  3
-   -   -   -   -   -   -   -   
 72
    65
 73
     2
 40
2.5
 49
0.625
 49
-1.875
  0
LTYPE
  2
DUMMY
 70
    64
  3
ā_ā~ü[
 72
    65
 73
     0
 40
0.0
  0
LTYPE
  2
RAND1
 70
    64
  3
āēāōā_āĆÉ³1
 72
    65
 73
     4
 40
10.0
 49
1.0
 49
-2.0
 49
3.0
 49
-4.0
  0
LTYPE
  2
RAND2
 70
    64
  3
āēāōā_āĆÉ³2
 72
    65
 73
     4
 40
14.0
 49
2.0
 49
-3.0
 49
4.0
 49
-5.0
  0
LTYPE
  2
RAND3
 70
    64
  3
āēāōā_āĆÉ³3
 72
    65
 73
     4
 40
18.0
 49
3.0
 49
-4.0
 49
5.0
 49
-6.0
  0
LTYPE
  2
RAND4
 70
    64
  3
āēāōā_āĆÉ³4
 72
    65
 73
     4
 40
22.0
 49
4.0
 49
-5.0
 49
6.0
 49
-7.0
  0
LTYPE
  2
RAND5
 70
    64
  3
āēāōā_āĆÉ³5
 72
    65
 73
     4
 40
26.0
 49
5.0
 49
-6.0
 49
7.0
 49
-8.0
  0
LTYPE
  2
LONG1
 70
    64
  3
----------  --  ----------  --  
 72
    65
 73
     4
 40
40.0
 49
32.5
 49
-2.5
 49
2.5
 49
-2.5
  0
LTYPE
  2
LONG2
 70
    64
  3
--------  -  -  --------  -  -  
 72
    65
 73
     6
 40
40.0
 49
30.0
 49
-2.5
 49
1.25
 49
-2.5
 49
1.25
 49
-2.5
  0
LTYPE
  2
LONG3
 70
    64
  3
+++++++++++++++..+++++++++++++++
 72
    65
 73
     2
 40
40.0
 49
37.5
 49
-2.5
  0
LTYPE
  2
LONG4
 70
    64
  3
+++++++++++++++..+++++++++++++++
 72
    65
 73
     2
 40
80.0
 49
75.0
 49
-5.0
  0
LTYPE
  2
LONG5
 70
    64
  3
----------  --  ----------  --  
 72
    65
 73
     4
 40
60.0
 49
37.5
 49
-7.5
 49
7.5
 49
-7.5
  0
LTYPE
  2
dashed
 70
   64
  3
-------   -------------   ------
 72
   65
 73
    2
 40
7.5
 49
6
 49
-1.5
  0
LTYPE
  2
dashed_spaced
 70
   64
  3
----        --------        ----
 72
   65
 73
    2
 40
12
 49
6
 49
-6
  0
LTYPE
  2
long_dashed_dotted
 70
   64
  3
------------- --- --------------
 72
   65
 73
    4
 40
15.25
 49
12
 49
-1.5
 49
0.25
 49
-1.5
  0
LTYPE
  2
long_dashed_double-dotted
 70
   64
  3
----------- --- --- ------------
 72
   65
 73
    6
 40
17
 49
12
 49
-1.5
 49
0.25
 49
-1.5
 49
0.25
 49
-1.5
  0
LTYPE
  2
long_dashed_triplicate-dotted
 70
   64
  3
--------- --- --- --- ----------
 72
   65
 73
    8
 40
18.75
 49
12
 49
-1.5
 49
0.25
 49
-1.5
 49
0.25
 49
-1.5
 49
0.25
 49
-1.5
  0
LTYPE
  2
dotted
 70
   64
  3
   -       -       -       -    
 72
   65
 73
    2
 40
1.75
 49
0.25
 49
-1.5
  0
LTYPE
  2
chain
 70
   64
  3
-------------- -- --------------
 72
   65
 73
    4
 40
18.5
 49
12
 49
-1.5
 49
3.5
 49
-1.5
  0
LTYPE
  2
chain_double_dash
 70
   64
  3
------------ -- -- -------------
 72
   65
 73
    6
 40
23.5
 49
12
 49
-1.5
 49
3.5
 49
-1.5
 49
3.5
 49
-1.5
  0
LTYPE
  2
dashed_dotted
 70
   64
  3
-----------     -     ----------
 72
   65
 73
    4
 40
9.25
 49
6
 49
-1.5
 49
0.25
 49
-1.5
  0
LTYPE
  2
double-dashed_dotted
 70
   64
  3
------   -----------   -   -----
 72
   65
 73
    6
 40
16.75
 49
6
 49
-1.5
 49
6
 49
-1.5
 49
0.25
 49
-1.5
  0
LTYPE
  2
dashed_double-dotted
 70
   64
  3
---------    -    -    ---------
 72
   65
 73
    6
 40
11
 49
6
 49
-1.5
 49
0.25
 49
-1.5
 49
0.25
 49
-1.5
  0
LTYPE
  2
double-dashed_double-dotted
 70
   64
  3
-----   ---------   -   -   ----
 72
   65
 73
    8
 40
18.5
 49
6
 49
-1.5
 49
6
 49
-1.5
 49
0.25
 49
-1.5
 49
0.25
 49
-1.5
  0
LTYPE
  2
dashed_triplicate-dotted
 70
   64
  3
-------    -    -    -    ------
 72
   65
 73
    8
 40
12.75
 49
6
 49
-1.5
 49
0.25
 49
-1.5
 49
0.25
 49
-1.5
 49
0.25
 49
-1.5
  0
LTYPE
  2
double-dashed_triplicate-dotted
 70
   64
  3
-----  ---------  -  -  -  -----
 72
   65
 73
   10
 40
20.25
 49
6
 49
-1.5
 49
6
 49
-1.5
 49
0.25
 49
-1.5
 49
0.25
 49
-1.5
 49
0.25
 49
-1.5
  0
LTYPE
  2
undefined
 70
   64
  3
--------------------------------
 72
   65
 73
    0
 40
0
  0
LTYPE
  2
_
 70
   64
  3
                                
 72
   65
 73
    0
 40
0
  0
LTYPE
  2
__18
 70
   64
  3
                                
 72
   65
 73
    0
 40
0
  0
LTYPE
  2
__19
 70
   64
  3
                                
 72
   65
 73
    0
 40
0
  0
LTYPE
  2
__20
 70
   64
  3
                                
 72
   65
 73
    0
 40
0
  0
LTYPE
  2
__21
 70
   64
  3
                                
 72
   65
 73
    0
 40
0
  0
LTYPE
  2
__22
 70
   64
  3
                                
 72
   65
 73
    0
 40
0
  0
LTYPE
  2
__23
 70
   64
  3
                                
 72
   65
 73
    0
 40
0
  0
LTYPE
  2
__24
 70
   64
  3
                                
 72
   65
 73
    0
 40
0
  0
LTYPE
  2
__25
 70
   64
  3
                                
 72
   65
 73
    0
 40
0
  0
LTYPE
  2
__26
 70
   64
  3
                                
 72
   65
 73
    0
 40
0
  0
LTYPE
  2
__27
 70
   64
  3
                                
 72
   65
 73
    0
 40
0
  0
LTYPE
  2
__28
 70
   64
  3
                                
 72
   65
 73
    0
 40
0
  0
LTYPE
  2
__29
 70
   64
  3
                                
 72
   65
 73
    0
 40
0
  0
LTYPE
  2
__30
 70
   64
  3
                                
 72
   65
 73
    0
 40
0
  0
LTYPE
  2
__31
 70
   64
  3
                                
 72
   65
 73
    0
 40
0
  0
LTYPE
  2
__32
 70
   64
  3
                                
 72
   65
 73
    0
 40
0
  0
ENDTAB
  0
TABLE
  2
STYLE
  5
3
100
AcDbSymbolTable
 70
     1
  0
STYLE
  5
10
100
AcDbSymbolTableRecord
100
AcDbTextStyleTableRecord
  2
STANDARD
 70
     0
 40
0.0
 41
1.0
 50
0.0
 71
     0
 42
0.2
  3
txt
  4
bigfont.shx
  0
STYLE
  5
26
100
AcDbSymbolTableRecord
100
AcDbTextStyleTableRecord
  2
TATEGAKI
 70
    68
 40
0.0
 41
1.0
 50
0.0
 71
     0
 42
1.0
  3
txt
  4
bigfont.shx
  0
ENDTAB
  0
TABLE
  2
LAYER
 70
    8
  0
LAYER
  2
_0-0_90_FRAME
 70
   64
 62
    7
  6
CONTINUOUS
  0
LAYER
  2
_0-1_91_BLANK
 70
   64
 62
    7
  6
CONTINUOUS
  0
LAYER
  2
_0-2_08_DIM
 70
   64
 62
    7
  6
CONTINUOUS
  0
LAYER
  2
_0-3_0
 70
   64
 62
    7
  6
CONTINUOUS
  0
LAYER
  2
_0-4_05_CENTER
 70
   64
 62
    7
  6
CONTINUOUS
  0
LAYER
  2
_0-5_07_TEXT
 70
   64
 62
    7
  6
CONTINUOUS
  0
LAYER
  2
_0-8_
 70
   64
 62
    7
  6
CONTINUOUS
  0
LAYER
  2
ADD_LINE
 70
   64
 62
    7
  6
CONTINUOUS
  0
ENDTAB
  0
ENDSEC
  0
SECTION
  2
BLOCKS
  0
BLOCK
  2
-000-p1ba05
 70
   64
 10
0
 20
0
 30
0
  0
ARC
  8
_0-2_08_DIM
  6
CONTINUOUS
 62
    3
 10
0
 20
1.6206695983957433
 40
1.6206695983958537
 50
204.22763733453323
 51
335.57577857182139
  0
ARC
  8
_0-2_08_DIM
  6
CONTINUOUS
 62
    3
 10
-2.9535588745990826
 20
0.2854771617432377
 40
1.6206695983958537
 50
24.227637334533135
 51
155.57577857182133
  0
ENDBLK
  0
BLOCK
  2
-001-AM_BALLOON1
 70
   64
 10
0
 20
0
 30
0
  0
CIRCLE
  8
_0-2_08_DIM
  6
CONTINUOUS
 62
    3
 10
0
 20
0
 40
5.0000000000000009
  0
ENDBLK
  0
BLOCK
  2
-002-_Open30
 70
   64
 10
0
 20
0
 30
0
  0
LINE
  8
_0-2_08_DIM
  6
CONTINUOUS
 62
    3
 10
-1
 20
0.26794919
 11
0
 21
0
  0
LINE
  8
_0-2_08_DIM
  6
CONTINUOUS
 62
    3
 10
0
 20
0
 11
-1
 21
-0.26794919
  0
LINE
  8
_0-2_08_DIM
  6
CONTINUOUS
 62
    3
 10
0
 20
0
 11
-1
 21
0
  0
ENDBLK
  0
ENDSEC
  0
SECTION
  2
ENTITIES
  0
TEXT
  8
_0-0_90_FRAME
 62
    7
 10
3015.8915381947213
 20
624.73258459089868
 40
15.000000000000002
 41
1
 50
0
  1
AT-221121-04-24
  0
TEXT
  8
_0-0_90_FRAME
 62
    7
 10
2913.1748770130157
 20
590.20631750397013
 40
15.000000000000002
 41
1
 50
0
  1
2024.09.04
  0
LINE
  8
_0-0_90_FRAME
  6
CONTINUOUS
 62
    5
 10
868.92091194727527
 20
582.0587317881392
 11
3198.0999976545977
 21
582.0587317881392
  0
LINE
  8
_0-0_90_FRAME
  6
CONTINUOUS
 62
    5
 10
3198.0999976545977
 20
582.0587317881392
 11
3198.0999976545977
 21
2247.2204133530017
  0
LINE
  8
_0-0_90_FRAME
  6
CONTINUOUS
 62
    5
 10
3198.0999976545977
 20
2247.2204133530017
 11
868.92091194727527
 21
2247.2204133530017
  0
LINE
  8
_0-0_90_FRAME
  6
CONTINUOUS
 62
    5
 10
868.92091194727527
 20
2247.2204133530017
 11
868.92091194727527
 21
582.0587317881392
  0
LINE
  8
_0-0_90_FRAME
  6
CONTINUOUS
 62
    5
 10
752.38320337632445
 20
1414.6395725705709
 11
868.92091194727527
 21
1414.6395725705709
  0
LINE
  8
_0-0_90_FRAME
  6
CONTINUOUS
 62
    5
 10
3236.9857833687256
 20
1414.6395725705709
 11
3198.0999976545977
 21
1414.6395725705709
  0
LINE
  8
_0-0_90_FRAME
  6
CONTINUOUS
 62
    5
 10
2033.5104548009363
 20
2292.1061990751527
 11
2033.5104548009367
 21
2247.2204133530017
  0
LINE
  8
_0-0_90_FRAME
  6
CONTINUOUS
 62
    5
 10
2033.5104548009367
 20
543.34679906712677
 11
2033.5104548009367
 21
582.0587317881392
  0
LINE
  8
_0-0_90_FRAME
  6
CONTINUOUS
 62
    5
 10
1734.3890262307141
 20
564.11144607392237
 11
2332.6318833711598
 21
564.11144607392237
  0
LINE
  8
_0-0_90_FRAME
  6
CONTINUOUS
 62
    5
 10
1734.3890262307141
 20
564.11144607392237
 11
1734.3890262307141
 21
582.0587317881392
  0
LINE
  8
_0-0_90_FRAME
  6
CONTINUOUS
 62
    5
 10
1794.2133119447601
 20
564.11144607392237
 11
1794.2133119447601
 21
582.0587317881392
  0
LINE
  8
_0-0_90_FRAME
  6
CONTINUOUS
 62
    5
 10
1854.0375976588059
 20
564.11144607392237
 11
1854.0375976588059
 21
582.0587317881392
  0
LINE
  8
_0-0_90_FRAME
  6
CONTINUOUS
 62
    5
 10
1913.8618833728442
 20
564.11144607392237
 11
1913.8618833728442
 21
582.0587317881392
  0
LINE
  8
_0-0_90_FRAME
  6
CONTINUOUS
 62
    5
 10
1973.6861690868907
 20
564.11144607392237
 11
1973.6861690868907
 21
582.0587317881392
  0
LINE
  8
_0-0_90_FRAME
  6
CONTINUOUS
 62
    5
 10
2093.3347405149748
 20
564.11144607392237
 11
2093.3347405149748
 21
582.0587317881392
  0
LINE
  8
_0-0_90_FRAME
  6
CONTINUOUS
 62
    5
 10
2153.159026229021
 20
564.11144607392237
 11
2153.159026229021
 21
582.0587317881392
  0
LINE
  8
_0-0_90_FRAME
  6
CONTINUOUS
 62
    5
 10
2212.9833119430673
 20
564.11144607392237
 11
2212.9833119430673
 21
582.0587317881392
  0
LINE
  8
_0-0_90_FRAME
  6
CONTINUOUS
 62
    5
 10
2272.8075976571131
 20
564.11144607392237
 11
2272.8075976571131
 21
582.0587317881392
  0
LINE
  8
_0-0_90_FRAME
  6
CONTINUOUS
 62
    5
 10
2332.6318833711598
 20
564.11144607392237
 11
2332.6318833711598
 21
582.0587317881392
  0
LINE
  8
_0-0_90_FRAME
  6
CONTINUOUS
 62
    4
 10
1431.1098098033672
 20
2247.2204133530017
 11
1431.1098098033672
 21
2286.1061990671215
  0
TEXT
  8
_0-0_90_FRAME
 62
    7
 10
979.51332661022298
 20
2254.9655034131715
 40
12
 41
1
 50
0
  1
1
  0
TEXT
  8
_0-0_90_FRAME
 62
    7
 10
1125.9094873045867
 20
2254.9655034131715
 40
12
 41
1
 50
0
  1
2
  0
TEXT
  8
_0-0_90_FRAME
 62
    7
 10
1326.7097023037763
 20
2254.9655034131715
 40
12
 41
1
 50
0
  1
3
  0
TEXT
  8
_0-0_90_FRAME
 62
    7
 10
1527.5099173029585
 20
2254.9655034131715
 40
12
 41
1
 50
0
  1
4
  0
TEXT
  8
_0-0_90_FRAME
 62
    7
 10
1728.3101323021558
 20
2254.9655034131715
 40
12
 41
1
 50
0
  1
5
  0
TEXT
  8
_0-0_90_FRAME
 62
    7
 10
1929.1103473013379
 20
2254.9655034131715
 40
12
 41
1
 50
0
  1
6
  0
TEXT
  8
_0-0_90_FRAME
 62
    7
 10
2129.9105623005275
 20
2254.9655034131715
 40
12
 41
1
 50
0
  1
7
  0
TEXT
  8
_0-0_90_FRAME
 62
    7
 10
2330.7107772997174
 20
2254.9655034131715
 40
12
 41
1
 50
0
  1
8
  0
TEXT
  8
_0-0_90_FRAME
 62
    7
 10
2531.5109922989068
 20
2254.9655034131715
 40
12
 41
1
 50
0
  1
9
  0
TEXT
  8
_0-0_90_FRAME
 62
    7
 10
2729.3112072980971
 20
2254.9655034131715
 40
12
 41
1
 50
0
  1
10
  0
TEXT
  8
_0-0_90_FRAME
 62
    7
 10
2931.1114222972792
 20
2254.9655034131715
 40
12
 41
1
 50
0
  1
11
  0
TEXT
  8
_0-0_90_FRAME
 62
    7
 10
3129.9116372964691
 20
2254.9655034131715
 40
12
 41
1
 50
0
  1
12
  0
TEXT
  8
_0-0_90_FRAME
 62
    7
 10
3205.8302860892718
 20
1941.1187141309174
 40
12
 41
1
 50
0
  1
B
  0
LINE
  8
_0-0_90_FRAME
  6
CONTINUOUS
 62
   18
 10
868.92091194727527
 20
582.0587317881392
 11
1174.9209119445982
 21
582.0587317881392
  0
LINE
  8
_0-0_90_FRAME
  6
CONTINUOUS
 62
   18
 10
1174.9209119445982
 20
582.0587317881392
 11
1174.9209119445982
 21
666.91587464493682
  0
LINE
  8
_0-0_90_FRAME
  6
CONTINUOUS
 62
   18
 10
1174.9209119445982
 20
666.91587464493682
 11
868.92091194727527
 21
666.91587464493682
  0
LINE
  8
_0-0_90_FRAME
  6
CONTINUOUS
 62
   18
 10
868.92091194727527
 20
666.91587464493682
 11
868.92091194727527
 21
582.0587317881392
  0
LINE
  8
_0-0_90_FRAME
  6
CONTINUOUS
 62
   18
 10
1132.9209119445982
 20
582.0587317881392
 11
1132.9209119445982
 21
666.91587464493682
  0
LINE
  8
_0-0_90_FRAME
  6
CONTINUOUS
 62
   18
 10
910.92091194459806
 20
582.0587317881392
 11
910.92091194459806
 21
666.91587464493682
  0
LINE
  8
_0-0_90_FRAME
  6
CONTINUOUS
 62
   18
 10
958.92091194459795
 20
582.0587317881392
 11
958.92091194459795
 21
666.91587464493682
  0
LINE
  8
_0-0_90_FRAME
  6
CONTINUOUS
 62
   18
 10
868.92091194727527
 20
645.70158893074142
 11
1174.9209119445982
 21
645.70158893074142
  0
LINE
  8
_0-0_90_FRAME
  6
CONTINUOUS
 62
   18
 10
868.92091194727527
 20
624.48730321653522
 11
1174.9209119445982
 21
624.48730321653522
  0
LINE
  8
_0-0_90_FRAME
  6
CONTINUOUS
 62
   18
 10
868.92091194727527
 20
603.27301750233994
 11
1174.9209119445982
 21
603.27301750234005
  0
TEXT
  8
_0-0_90_FRAME
 62
    7
 10
879.44818467320931
 20
652.70873178783916
 40
7.1999999999999993
 41
1
 50
0
  1
ŗLŹå
  0
TEXT
  8
_0-0_90_FRAME
 62
    7
 10
923.41775583687252
 20
652.70873178783916
 40
7.1999999999999993
 41
1
 50
0
  1
ō·Ģt
  0
TEXT
  8
_0-0_90_FRAME
 62
    7
 10
1138.211821035507
 20
652.70873178783916
 40
7.1999999999999993
 41
1
 50
0
  1
ŹņÉ¼Äę
  0
TEXT
  8
_0-0_90_FRAME
 62
    7
 10
1021.9754573991435
 20
652.58600451511188
 40
7.1999999999999993
 41
1
 50
0
  1
ē³Æ∙ōÓŚe
  0
LINE
  8
_0-0_90_FRAME
  6
CONTINUOUS
 62
   18
 10
880.37448337454339
 20
605.52619144189805
 11
889.92091194593661
 21
622.06109075836969
  0
LINE
  8
_0-0_90_FRAME
  6
CONTINUOUS
 62
   18
 10
889.92091194593661
 20
622.06109075836969
 11
899.4673405173246
 21
605.52619144189805
  0
LINE
  8
_0-0_90_FRAME
  6
CONTINUOUS
 62
   18
 10
899.4673405173246
 20
605.52619144189805
 11
880.37448337454339
 21
605.52619144189805
  0
TEXT
  8
_0-0_90_FRAME
 62
    7
 10
887.85332673927348
 20
629.82318066394294
 40
6.3642857142600002
 41
1
 50
0
  1
1
  0
TEXT
  8
_0-0_90_FRAME
 62
    7
 10
887.85332673927348
 20
608.60889494974219
 40
6.3642857142600002
 41
1
 50
0
  1
2
  0
TEXT
  8
_0-0_90_FRAME
 62
    7
 10
887.85332673927348
 20
587.39460923554145
 40
6.3642857142600002
 41
1
 50
0
  1
3
  0
LINE
  8
_0-0_90_FRAME
  6
CONTINUOUS
 62
   18
 10
880.37448337454339
 20
626.74047715609879
 11
889.92091194593661
 21
643.27537647257589
  0
LINE
  8
_0-0_90_FRAME
  6
CONTINUOUS
 62
   18
 10
889.92091194593661
 20
643.27537647257589
 11
899.4673405173246
 21
626.74047715609879
  0
LINE
  8
_0-0_90_FRAME
  6
CONTINUOUS
 62
   18
 10
899.4673405173246
 20
626.74047715609879
 11
880.37448337454339
 21
626.74047715609879
  0
LINE
  8
_0-0_90_FRAME
  6
CONTINUOUS
 62
   18
 10
880.37448337454339
 20
584.31190572769742
 11
889.92091194593661
 21
600.8468050441744
  0
LINE
  8
_0-0_90_FRAME
  6
CONTINUOUS
 62
   18
 10
889.92091194593661
 20
600.8468050441744
 11
899.4673405173246
 21
584.31190572769742
  0
LINE
  8
_0-0_90_FRAME
  6
CONTINUOUS
 62
   18
 10
899.4673405173246
 20
584.31190572769742
 11
880.37448337454339
 21
584.31190572769742
  0
LINE
  8
_0-0_90_FRAME
  6
CONTINUOUS
 62
    4
 10
3236.9857833687256
 20
988.65625932229307
 11
3198.0999976545977
 21
988.65625932229307
  0
LINE
  8
_0-0_90_FRAME
  6
CONTINUOUS
 62
    4
 10
3236.9857833687256
 20
1201.6479159464318
 11
3198.0999976545977
 21
1201.6479159464318
  0
LINE
  8
_0-0_90_FRAME
  6
CONTINUOUS
 62
    4
 10
3236.9857833687256
 20
775.66460269815445
 11
3198.0999976545977
 21
775.66460269815445
  0
LINE
  8
_0-0_90_FRAME
  6
CONTINUOUS
 62
    4
 10
3236.9857833687256
 20
1840.6228858188483
 11
3198.0999976545977
 21
1840.6228858188483
  0
LINE
  8
_0-0_90_FRAME
  6
CONTINUOUS
 62
    4
 10
3236.9857833687256
 20
1627.6312291947097
 11
3198.0999976545977
 21
1627.6312291947097
  0
LINE
  8
_0-0_90_FRAME
  6
CONTINUOUS
 62
    4
 10
3236.9857833687256
 20
2053.6145424429874
 11
3198.0999976545977
 21
2053.6145424429874
  0
TEXT
  8
_0-0_90_FRAME
 62
    7
 10
3205.8302860892718
 20
2154.1103707550565
 40
12
 41
1
 50
0
  1
A
  0
TEXT
  8
_0-0_90_FRAME
 62
    7
 10
3205.8302860892718
 20
1728.1270575067788
 40
12
 41
1
 50
0
  1
C
  0
TEXT
  8
_0-0_90_FRAME
 62
    7
 10
3205.8302860892718
 20
1515.1354008826404
 40
12
 41
1
 50
0
  1
D
  0
TEXT
  8
_0-0_90_FRAME
 62
    7
 10
3205.8302860892718
 20
1089.1520876343625
 40
12
 41
1
 50
0
  1
F
  0
TEXT
  8
_0-0_90_FRAME
 62
    7
 10
3205.8302860892718
 20
876.16043101022365
 40
12
 41
1
 50
0
  1
G
  0
TEXT
  8
_0-0_90_FRAME
 62
    7
 10
3205.8302860892718
 20
663.16877438608492
 40
12
 41
1
 50
0
  1
H
  0
TEXT
  8
_0-0_90_FRAME
 62
    7
 10
3205.8302860892718
 20
1302.1437442585013
 40
12
 41
1
 50
0
  1
E
  0
TEXT
  8
_0-0_90_FRAME
 62
    7
 10
851.2552267653831
 20
1941.1187141309174
 40
12
 41
1
 50
0
  1
B
  0
LINE
  8
_0-0_90_FRAME
  6
CONTINUOUS
 62
    4
 10
868.92091194727527
 20
988.65625932229307
 11
830.03512623315532
 21
988.65625932229307
  0
LINE
  8
_0-0_90_FRAME
  6
CONTINUOUS
 62
    4
 10
868.92091194727527
 20
1201.6479159464318
 11
830.03512623315532
 21
1201.6479159464318
  0
LINE
  8
_0-0_90_FRAME
  6
CONTINUOUS
 62
    4
 10
868.92091194727527
 20
775.66460269815445
 11
830.03512623315532
 21
775.66460269815445
  0
LINE
  8
_0-0_90_FRAME
  6
CONTINUOUS
 62
    4
 10
868.92091194727527
 20
1840.6228858188483
 11
830.03512623315532
 21
1840.6228858188483
  0
LINE
  8
_0-0_90_FRAME
  6
CONTINUOUS
 62
    4
 10
868.92091194727527
 20
1627.6312291947097
 11
830.03512623315532
 21
1627.6312291947097
  0
LINE
  8
_0-0_90_FRAME
  6
CONTINUOUS
 62
    4
 10
868.92091194727527
 20
2053.6145424429874
 11
830.03512623315532
 21
2053.6145424429874
  0
TEXT
  8
_0-0_90_FRAME
 62
    7
 10
851.2552267653831
 20
2154.1103707550565
 40
12
 41
1
 50
0
  1
A
  0
TEXT
  8
_0-0_90_FRAME
 62
    7
 10
851.2552267653831
 20
1728.1270575067788
 40
12
 41
1
 50
0
  1
C
  0
TEXT
  8
_0-0_90_FRAME
 62
    7
 10
851.2552267653831
 20
1515.1354008826404
 40
12
 41
1
 50
0
  1
D
  0
TEXT
  8
_0-0_90_FRAME
 62
    7
 10
851.2552267653831
 20
1089.1520876343625
 40
12
 41
1
 50
0
  1
F
  0
TEXT
  8
_0-0_90_FRAME
 62
    7
 10
851.2552267653831
 20
876.16043101022365
 40
12
 41
1
 50
0
  1
G
  0
TEXT
  8
_0-0_90_FRAME
 62
    7
 10
851.2552267653831
 20
1302.1437442585013
 40
12
 41
1
 50
0
  1
E
  0
TEXT
  8
_0-0_90_FRAME
 62
    7
 10
851.2552267653831
 20
663.16877438608492
 40
12
 41
1
 50
0
  1
H
  0
LINE
  8
_0-0_90_FRAME
  6
CONTINUOUS
 62
    4
 10
1230.3095948041778
 20
2247.2204133530017
 11
1230.3095948041778
 21
2286.1061990671215
  0
LINE
  8
_0-0_90_FRAME
  6
CONTINUOUS
 62
    4
 10
1029.5093798049879
 20
2247.2204133530017
 11
1029.5093798049879
 21
2286.1061990671215
  0
LINE
  8
_0-0_90_FRAME
  6
CONTINUOUS
 62
    4
 10
1631.9100248025572
 20
2247.2204133530017
 11
1631.9100248025572
 21
2286.1061990671215
  0
LINE
  8
_0-0_90_FRAME
  6
CONTINUOUS
 62
    4
 10
1832.7102398017466
 20
2247.2204133530017
 11
1832.7102398017466
 21
2286.1061990671215
  0
LINE
  8
_0-0_90_FRAME
  6
CONTINUOUS
 62
    4
 10
2635.9110997984981
 20
2247.2204133530017
 11
2635.9110997984981
 21
2286.1061990671215
  0
LINE
  8
_0-0_90_FRAME
  6
CONTINUOUS
 62
    4
 10
2836.7113147976884
 20
2247.2204133530017
 11
2836.7113147976884
 21
2286.1061990671215
  0
LINE
  8
_0-0_90_FRAME
  6
CONTINUOUS
 62
    4
 10
3037.5115297968778
 20
2247.2204133530017
 11
3037.5115297968778
 21
2286.1061990671215
  0
LINE
  8
_0-0_90_FRAME
  6
CONTINUOUS
 62
    4
 10
2435.1108847993087
 20
2247.2204133530017
 11
2435.1108847993087
 21
2286.1061990671215
  0
LINE
  8
_0-0_90_FRAME
  6
CONTINUOUS
 62
    4
 10
2234.3106698001261
 20
2247.2204133530017
 11
2234.3106698001261
 21
2286.1061990671215
  0
LINE
  8
_0-0_90_FRAME
  6
CONTINUOUS
 62
    4
 10
1431.1098098033672
 20
543.34679906712677
 11
1431.1098098033672
 21
582.0587317881392
  0
LINE
  8
_0-0_90_FRAME
  6
CONTINUOUS
 62
    4
 10
1230.3095948041778
 20
543.34679906712677
 11
1230.3095948041778
 21
582.0587317881392
  0
LINE
  8
_0-0_90_FRAME
  6
CONTINUOUS
 62
    4
 10
1029.5093798049879
 20
543.34679906712677
 11
1029.5093798049879
 21
582.0587317881392
  0
LINE
  8
_0-0_90_FRAME
  6
CONTINUOUS
 62
    4
 10
1631.9100248025572
 20
543.34679906712677
 11
1631.9100248025572
 21
582.0587317881392
  0
LINE
  8
_0-0_90_FRAME
  6
CONTINUOUS
 62
    4
 10
2635.9110997984981
 20
543.34679906712677
 11
2635.9110997984981
 21
582.0587317881392
  0
LINE
  8
_0-0_90_FRAME
  6
CONTINUOUS
 62
    4
 10
2836.7113147976884
 20
543.34679906712677
 11
2836.7113147976884
 21
582.0587317881392
  0
LINE
  8
_0-0_90_FRAME
  6
CONTINUOUS
 62
    4
 10
3037.5115297968778
 20
543.34679906712677
 11
3037.5115297968778
 21
582.0587317881392
  0
LINE
  8
_0-0_90_FRAME
  6
CONTINUOUS
 62
    4
 10
2435.1108847993087
 20
543.34679906712677
 11
2435.1108847993087
 21
582.0587317881392
  0
LINE
  8
_0-1_91_BLANK
  6
CONTINUOUS
 62
    5
 10
752.3832033665833
 20
543.34679906712677
 11
3236.9857833645983
 21
543.34679906712677
  0
LINE
  8
_0-1_91_BLANK
  6
CONTINUOUS
 62
    5
 10
3236.9857833645983
 20
543.34679906712677
 11
3236.9857833645983
 21
2292.1061990751527
  0
LINE
  8
_0-1_91_BLANK
  6
CONTINUOUS
 62
    5
 10
3236.9857833645983
 20
2292.1061990751527
 11
752.3832033665833
 21
2292.1061990751527
  0
LINE
  8
_0-1_91_BLANK
  6
CONTINUOUS
 62
    5
 10
752.3832033665833
 20
2292.1061990751527
 11
752.3832033665833
 21
543.34679906712677
  0
LINE
  8
_0-0_90_FRAME
  6
CONTINUOUS
 62
   18
 10
2604.0999976569969
 20
582.0587317881392
 11
3198.0999976545977
 21
582.0587317881392
  0
LINE
  8
_0-0_90_FRAME
  6
CONTINUOUS
 62
   18
 10
3198.0999976545977
 20
582.0587317881392
 11
3198.0999976545977
 21
692.37301750197935
  0
LINE
  8
_0-0_90_FRAME
  6
CONTINUOUS
 62
   18
 10
3198.0999976545977
 20
692.37301750197935
 11
2604.0999976569969
 21
692.37301750197935
  0
LINE
  8
_0-0_90_FRAME
  6
CONTINUOUS
 62
   18
 10
2604.0999976569969
 20
692.37301750197935
 11
2604.0999976569969
 21
582.0587317881392
  0
LINE
  8
_0-0_90_FRAME
  6
CONTINUOUS
 62
   18
 10
2650.8774976568097
 20
673.28016035919813
 11
2680.577497656689
 21
680.70516035916921
  0
LINE
  8
_0-0_90_FRAME
  6
CONTINUOUS
 62
   18
 10
2680.577497656689
 20
680.70516035916921
 11
2680.577497656689
 21
651.00516035929024
  0
LINE
  8
_0-0_90_FRAME
  6
CONTINUOUS
 62
   18
 10
2680.577497656689
 20
651.00516035929024
 11
2650.8774976568097
 21
658.43016035925871
  0
LINE
  8
_0-0_90_FRAME
  6
CONTINUOUS
 62
   18
 10
2650.8774976568097
 20
658.43016035925871
 11
2650.8774976568097
 21
673.28016035919813
  0
CIRCLE
  8
_0-0_90_FRAME
  6
CONTINUOUS
 62
   18
 10
2631.5724976568854
 20
665.85516035922694
 40
7.4249999999699998
  0
CIRCLE
  8
_0-0_90_FRAME
  6
CONTINUOUS
 62
   18
 10
2631.5724976568854
 20
665.85516035922694
 40
14.84999999994
  0
LINE
  8
_0-0_90_FRAME
  6
CONTINUOUS
 62
   18
 10
2613.7524976569575
 20
665.85516035922694
 11
2683.5474976566748
 21
665.85516035922694
  0
LINE
  8
_0-0_90_FRAME
  6
CONTINUOUS
 62
   18
 10
2631.5724976568854
 20
648.03516035930193
 11
2631.5724976568854
 21
683.67516035915764
  0
LINE
  8
_0-0_90_FRAME
  6
CONTINUOUS
 62
   18
 10
2847.4214262273968
 20
582.0587317881392
 11
2847.4214262273968
 21
692.37301750197935
  0
LINE
  8
_0-0_90_FRAME
  6
CONTINUOUS
 62
   18
 10
2847.4214262273968
 20
616.00158893085847
 11
3198.0999976545977
 21
616.00158893085847
  0
TEXT
  8
_0-0_90_FRAME
 62
    7
 10
2848.9425514996888
 20
605.44770819054258
 40
7.5000000000000009
 41
1
 50
0
  1
Źņ É¼ ō·
  0
LINE
  8
_0-0_90_FRAME
  6
CONTINUOUS
 62
   18
 10
3054.8285690837151
 20
616.00158893085847
 11
3054.8285690837151
 21
582.0587317881392
  0
TEXT
  8
_0-0_90_FRAME
 62
    7
 10
3056.6097343243664
 20
605.24028538609866
 40
7.5000000000000009
 41
1
 50
0
  1
ī┬Éö
  0
TEXT
  8
_0-0_90_FRAME
 62
    7
 10
2777.2812679546064
 20
682.53971324342569
 40
7.5000000000000009
 41
1
 50
0
  1
āTāCāY
  0
TEXT
  8
_0-0_90_FRAME
 62
    7
 10
2694.5455536692289
 20
681.98035174620429
 40
7.5000000000000009
 41
1
 50
0
  1
Ä┌ü@ōx
  0
TEXT
  8
_0-0_90_FRAME
 62
    7
 10
2777.2813136638642
 20
629.50399895792657
 40
7.5000000000000009
 41
1
 50
0
  1
É╗ü@É}
  0
LINE
  8
_0-0_90_FRAME
  6
CONTINUOUS
 62
   18
 10
2847.4214262273968
 20
639.33730321647749
 11
2604.0999976569969
 21
639.33730321647749
  0
LINE
  8
_0-0_90_FRAME
  6
CONTINUOUS
 62
   18
 10
2960.7071279503516
 20
649.94444607357775
 11
3198.0999976545977
 21
649.94444607357775
  0
TEXT
  8
_0-0_90_FRAME
 62
    7
 10
2801.9323761913047
 20
652.06701677694809
 40
15.000000000000002
 41
1
 50
0
  1
A1
  0
LINE
  8
_0-0_90_FRAME
  6
CONTINUOUS
 62
   18
 10
2775.9357119420165
 20
582.0587317881392
 11
2775.9357119420165
 21
692.37301750197935
  0
TEXT
  8
_0-0_90_FRAME
 62
    2
 10
2656.585787283178
 20
593.73219825411206
 40
15.000000000000002
 41
1
 50
0
  1
āAāNāAāgāŖāĆ
  0
LINE
  8
_0-0_90_FRAME
  6
CONTINUOUS
 62
    4
 10
2651.9712126461809
 20
632.07214554823361
 11
2651.9712126461809
 21
587.69260988641111
  0
LINE
  8
_0-0_90_FRAME
  6
CONTINUOUS
 62
    4
 10
2651.9712126461809
 20
587.69260988641111
 11
2611.6261802263425
 21
587.69260988641111
  0
LINE
  8
_0-0_90_FRAME
  6
CONTINUOUS
 62
    4
 10
2611.6261802263425
 20
587.69260988641111
 11
2611.6261802263425
 21
632.07214554823361
  0
LINE
  8
_0-0_90_FRAME
  6
CONTINUOUS
 62
    4
 10
2611.818299428342
 20
631.88002634623285
 11
2611.818299428342
 21
631.88002634623285
  0
LINE
  8
_0-0_90_FRAME
  6
CONTINUOUS
 62
    4
 10
2611.818299428342
 20
631.88002634623285
 11
2611.9175359888495
 21
630.87919186657314
  0
LINE
  8
_0-0_90_FRAME
  6
CONTINUOUS
 62
    4
 10
2611.9175359888495
 20
630.87919186657314
 11
2612.2122304176974
 21
629.90876723613121
  0
LINE
  8
_0-0_90_FRAME
  6
CONTINUOUS
 62
    4
 10
2612.2122304176974
 20
629.90876723613121
 11
2612.6934285737875
 21
628.99823831624451
  0
LINE
  8
_0-0_90_FRAME
  6
CONTINUOUS
 62
    4
 10
2612.6934285737875
 20
628.99823831624451
 11
2613.346509494645
 21
628.17527106739385
  0
LINE
  8
_0-0_90_FRAME
  6
CONTINUOUS
 62
    4
 10
2613.346509494645
 20
628.17527106739385
 11
2614.1516296469649
 21
627.46487093299413
  0
LINE
  8
_0-0_90_FRAME
  6
CONTINUOUS
 62
    4
 10
2614.1516296469649
 20
627.46487093299413
 11
2615.0843258623286
 21
626.88862306164924
  0
LINE
  8
_0-0_90_FRAME
  6
CONTINUOUS
 62
    4
 10
2615.0843258623286
 20
626.88862306164924
 11
2616.1162586382002
 21
626.46403645333442
  0
LINE
  8
_0-0_90_FRAME
  6
CONTINUOUS
 62
    4
 10
2616.1162586382002
 20
626.46403645333442
 11
2617.2160732193679
 21
626.20401195729221
  0
LINE
  8
_0-0_90_FRAME
  6
CONTINUOUS
 62
    4
 10
2617.2160732193679
 20
626.20401195729221
 11
2618.3503522963156
 21
626.11645028625617
  0
LINE
  8
_0-0_90_FRAME
  6
CONTINUOUS
 62
    4
 10
2618.3503522963156
 20
626.11645028625617
 11
2619.4846313732633
 21
626.20401195729221
  0
LINE
  8
_0-0_90_FRAME
  6
CONTINUOUS
 62
    4
 10
2619.4846313732633
 20
626.20401195729221
 11
2620.584445954431
 21
626.46403645333442
  0
LINE
  8
_0-0_90_FRAME
  6
CONTINUOUS
 62
    4
 10
2620.584445954431
 20
626.46403645333442
 11
2621.6163787303026
 21
626.88862306164924
  0
LINE
  8
_0-0_90_FRAME
  6
CONTINUOUS
 62
    4
 10
2621.6163787303026
 20
626.88862306164924
 11
2622.5490749456662
 21
627.46487093299413
  0
LINE
  8
_0-0_90_FRAME
  6
CONTINUOUS
 62
    4
 10
2622.5490749456662
 20
627.46487093299413
 11
2623.3541950979861
 21
628.17527106739385
  0
LINE
  8
_0-0_90_FRAME
  6
CONTINUOUS
 62
    4
 10
2623.3541950979861
 20
628.17527106739385
 11
2624.0072760188436
 21
628.99823831624451
  0
LINE
  8
_0-0_90_FRAME
  6
CONTINUOUS
 62
    4
 10
2624.0072760188436
 20
628.99823831624451
 11
2624.4884741749338
 21
629.90876723613121
  0
LINE
  8
_0-0_90_FRAME
  6
CONTINUOUS
 62
    4
 10
2624.4884741749338
 20
629.90876723613121
 11
2624.7831686037816
 21
630.87919186657314
  0
LINE
  8
_0-0_90_FRAME
  6
CONTINUOUS
 62
    4
 10
2624.7831686037816
 20
630.87919186657314
 11
2624.8824051642891
 21
631.88002634623285
  0
LINE
  8
_0-0_90_FRAME
  6
CONTINUOUS
 62
    4
 10
2624.8824051642891
 20
631.88002634623285
 11
2624.8824051642891
 21
631.88002634623285
  0
ARC
  8
_0-0_90_FRAME
  6
CONTINUOUS
 62
    4
 10
2625.0745243662882
 20
631.88002634623285
 40
0.1921192019992239
 50
0
 51
180
  0
LINE
  8
_0-0_90_FRAME
  6
CONTINUOUS
 62
    4
 10
2625.2666435682881
 20
631.88002634623285
 11
2625.2666435682881
 21
631.88002634623285
  0
LINE
  8
_0-0_90_FRAME
  6
CONTINUOUS
 62
    4
 10
2625.2666435682881
 20
631.88002634623285
 11
2625.3658801287957
 21
630.87919186657314
  0
LINE
  8
_0-0_90_FRAME
  6
CONTINUOUS
 62
    4
 10
2625.3658801287957
 20
630.87919186657314
 11
2625.6605745576435
 21
629.90876723613121
  0
LINE
  8
_0-0_90_FRAME
  6
CONTINUOUS
 62
    4
 10
2625.6605745576435
 20
629.90876723613121
 11
2626.1417727137336
 21
628.99823831624451
  0
LINE
  8
_0-0_90_FRAME
  6
CONTINUOUS
 62
    4
 10
2626.1417727137336
 20
628.99823831624451
 11
2626.7948536345912
 21
628.17527106739385
  0
LINE
  8
_0-0_90_FRAME
  6
CONTINUOUS
 62
    4
 10
2626.7948536345912
 20
628.17527106739385
 11
2627.5999737869111
 21
627.46487093299413
  0
LINE
  8
_0-0_90_FRAME
  6
CONTINUOUS
 62
    4
 10
2627.5999737869111
 20
627.46487093299413
 11
2628.5326700022747
 21
626.88862306164924
  0
LINE
  8
_0-0_90_FRAME
  6
CONTINUOUS
 62
    4
 10
2628.5326700022747
 20
626.88862306164924
 11
2629.5646027781463
 21
626.46403645333442
  0
LINE
  8
_0-0_90_FRAME
  6
CONTINUOUS
 62
    4
 10
2629.5646027781463
 20
626.46403645333442
 11
2630.664417359314
 21
626.20401195729221
  0
LINE
  8
_0-0_90_FRAME
  6
CONTINUOUS
 62
    4
 10
2630.664417359314
 20
626.20401195729221
 11
2631.7986964362617
 21
626.11645028625617
  0
LINE
  8
_0-0_90_FRAME
  6
CONTINUOUS
 62
    4
 10
2631.7986964362617
 20
626.11645028625617
 11
2632.9329755132094
 21
626.20401195729221
  0
LINE
  8
_0-0_90_FRAME
  6
CONTINUOUS
 62
    4
 10
2632.9329755132094
 20
626.20401195729221
 11
2634.0327900943771
 21
626.46403645333442
  0
LINE
  8
_0-0_90_FRAME
  6
CONTINUOUS
 62
    4
 10
2634.0327900943771
 20
626.46403645333442
 11
2635.0647228702487
 21
626.88862306164924
  0
LINE
  8
_0-0_90_FRAME
  6
CONTINUOUS
 62
    4
 10
2635.0647228702487
 20
626.88862306164924
 11
2635.9974190856124
 21
627.46487093299413
  0
LINE
  8
_0-0_90_FRAME
  6
CONTINUOUS
 62
    4
 10
2635.9974190856124
 20
627.46487093299413
 11
2636.8025392379323
 21
628.17527106739385
  0
LINE
  8
_0-0_90_FRAME
  6
CONTINUOUS
 62
    4
 10
2636.8025392379323
 20
628.17527106739385
 11
2637.4556201587898
 21
628.99823831624451
  0
LINE
  8
_0-0_90_FRAME
  6
CONTINUOUS
 62
    4
 10
2637.4556201587898
 20
628.99823831624451
 11
2637.9368183148799
 21
629.90876723613121
  0
LINE
  8
_0-0_90_FRAME
  6
CONTINUOUS
 62
    4
 10
2637.9368183148799
 20
629.90876723613121
 11
2638.2315127437278
 21
630.87919186657314
  0
LINE
  8
_0-0_90_FRAME
  6
CONTINUOUS
 62
    4
 10
2638.2315127437278
 20
630.87919186657314
 11
2638.3307493042353
 21
631.88002634623285
  0
LINE
  8
_0-0_90_FRAME
  6
CONTINUOUS
 62
    4
 10
2638.3307493042353
 20
631.88002634623285
 11
2638.3307493042353
 21
631.88002634623285
  0
ARC
  8
_0-0_90_FRAME
  6
CONTINUOUS
 62
    4
 10
2638.5228685062348
 20
631.88002634623285
 40
0.1921192019992239
 50
0
 51
180
  0
LINE
  8
_0-0_90_FRAME
  6
CONTINUOUS
 62
    4
 10
2638.7149877082338
 20
631.88002634623285
 11
2638.7149877082338
 21
631.88002634623285
  0
LINE
  8
_0-0_90_FRAME
  6
CONTINUOUS
 62
    4
 10
2638.7149877082338
 20
631.88002634623285
 11
2638.8142242687413
 21
630.87919186657314
  0
LINE
  8
_0-0_90_FRAME
  6
CONTINUOUS
 62
    4
 10
2638.8142242687413
 20
630.87919186657314
 11
2639.1089186975892
 21
629.90876723613121
  0
LINE
  8
_0-0_90_FRAME
  6
CONTINUOUS
 62
    4
 10
2639.1089186975892
 20
629.90876723613121
 11
2639.5901168536793
 21
628.99823831624451
  0
LINE
  8
_0-0_90_FRAME
  6
CONTINUOUS
 62
    4
 10
2639.5901168536793
 20
628.99823831624451
 11
2640.2431977745368
 21
628.17527106739385
  0
LINE
  8
_0-0_90_FRAME
  6
CONTINUOUS
 62
    4
 10
2640.2431977745368
 20
628.17527106739385
 11
2641.0483179268567
 21
627.46487093299413
  0
LINE
  8
_0-0_90_FRAME
  6
CONTINUOUS
 62
    4
 10
2641.0483179268567
 20
627.46487093299413
 11
2641.9810141422204
 21
626.88862306164924
  0
LINE
  8
_0-0_90_FRAME
  6
CONTINUOUS
 62
    4
 10
2641.9810141422204
 20
626.88862306164924
 11
2643.012946918092
 21
626.46403645333442
  0
LINE
  8
_0-0_90_FRAME
  6
CONTINUOUS
 62
    4
 10
2643.012946918092
 20
626.46403645333442
 11
2644.1127614992597
 21
626.20401195729221
  0
LINE
  8
_0-0_90_FRAME
  6
CONTINUOUS
 62
    4
 10
2644.1127614992597
 20
626.20401195729221
 11
2645.2470405762074
 21
626.11645028625617
  0
LINE
  8
_0-0_90_FRAME
  6
CONTINUOUS
 62
    4
 10
2645.2470405762074
 20
626.11645028625617
 11
2646.3813196531551
 21
626.20401195729221
  0
LINE
  8
_0-0_90_FRAME
  6
CONTINUOUS
 62
    4
 10
2646.3813196531551
 20
626.20401195729221
 11
2647.4811342343228
 21
626.46403645333442
  0
LINE
  8
_0-0_90_FRAME
  6
CONTINUOUS
 62
    4
 10
2647.4811342343228
 20
626.46403645333442
 11
2648.5130670101944
 21
626.88862306164924
  0
LINE
  8
_0-0_90_FRAME
  6
CONTINUOUS
 62
    4
 10
2648.5130670101944
 20
626.88862306164924
 11
2649.445763225558
 21
627.46487093299413
  0
LINE
  8
_0-0_90_FRAME
  6
CONTINUOUS
 62
    4
 10
2649.445763225558
 20
627.46487093299413
 11
2650.2508833778779
 21
628.17527106739385
  0
LINE
  8
_0-0_90_FRAME
  6
CONTINUOUS
 62
    4
 10
2650.2508833778779
 20
628.17527106739385
 11
2650.9039642987354
 21
628.99823831624451
  0
LINE
  8
_0-0_90_FRAME
  6
CONTINUOUS
 62
    4
 10
2650.9039642987354
 20
628.99823831624451
 11
2651.3851624548256
 21
629.90876723613121
  0
LINE
  8
_0-0_90_FRAME
  6
CONTINUOUS
 62
    4
 10
2651.3851624548256
 20
629.90876723613121
 11
2651.6798568836734
 21
630.87919186657314
  0
LINE
  8
_0-0_90_FRAME
  6
CONTINUOUS
 62
    4
 10
2651.6798568836734
 20
630.87919186657314
 11
2651.7790934441809
 21
631.88002634623285
  0
LINE
  8
_0-0_90_FRAME
  6
CONTINUOUS
 62
    4
 10
2651.7790934441809
 20
631.88002634623285
 11
2651.7790934441809
 21
631.88002634623285
  0
ARC
  8
_0-0_90_FRAME
  6
CONTINUOUS
 62
    4
 10
2651.9712126461809
 20
631.88002634623285
 40
0.1921192019992239
 50
90
 51
180
  0
ARC
  8
_0-0_90_FRAME
  6
CONTINUOUS
 62
    4
 10
2625.0745243662882
 20
631.88002634623285
 40
0.1921192019992239
 50
0
 51
90
  0
ARC
  8
_0-0_90_FRAME
  6
CONTINUOUS
 62
    4
 10
2611.6261802263425
 20
631.88002634623285
 40
0.1921192019992239
 50
0
 51
90
  0
LINE
  8
_0-0_90_FRAME
  6
CONTINUOUS
 62
    4
 10
2616.2370410743256
 20
593.45618594638813
 11
2618.5424714983137
 21
593.45618594638813
  0
LINE
  8
_0-0_90_FRAME
  6
CONTINUOUS
 62
    4
 10
2618.5424714983137
 20
593.45618594638813
 11
2618.5424714983137
 21
591.15075552239807
  0
LINE
  8
_0-0_90_FRAME
  6
CONTINUOUS
 62
    4
 10
2618.5424714983137
 20
591.15075552239807
 11
2616.2370410743256
 21
591.15075552239807
  0
LINE
  8
_0-0_90_FRAME
  6
CONTINUOUS
 62
    4
 10
2616.2370410743256
 20
593.45618594638813
 11
2616.2370410743256
 21
591.15075552239807
  0
LINE
  8
_0-0_90_FRAME
  6
CONTINUOUS
 62
    4
 10
2647.3603517981983
 20
593.45618594638813
 11
2645.0549213742102
 21
593.45618594638813
  0
LINE
  8
_0-0_90_FRAME
  6
CONTINUOUS
 62
    4
 10
2645.0549213742102
 20
593.45618594638813
 11
2645.0549213742102
 21
591.15075552239807
  0
LINE
  8
_0-0_90_FRAME
  6
CONTINUOUS
 62
    4
 10
2645.0549213742102
 20
591.15075552239807
 11
2647.3603517981983
 21
591.15075552239807
  0
LINE
  8
_0-0_90_FRAME
  6
CONTINUOUS
 62
    4
 10
2647.3603517981983
 20
593.45618594638813
 11
2647.3603517981983
 21
591.15075552239807
  0
LINE
  8
_0-0_90_FRAME
  6
CONTINUOUS
 62
    4
 10
2622.0006171343025
 20
593.45618594638813
 11
2624.3060475582906
 21
593.45618594638813
  0
LINE
  8
_0-0_90_FRAME
  6
CONTINUOUS
 62
    4
 10
2624.3060475582906
 20
593.45618594638813
 11
2624.3060475582906
 21
591.15075552239807
  0
LINE
  8
_0-0_90_FRAME
  6
CONTINUOUS
 62
    4
 10
2624.3060475582906
 20
591.15075552239807
 11
2622.0006171343025
 21
591.15075552239807
  0
LINE
  8
_0-0_90_FRAME
  6
CONTINUOUS
 62
    4
 10
2622.0006171343025
 20
593.45618594638813
 11
2622.0006171343025
 21
591.15075552239807
  0
LINE
  8
_0-0_90_FRAME
  6
CONTINUOUS
 62
    4
 10
2627.7641931942794
 20
593.45618594638813
 11
2630.0696236182675
 21
593.45618594638813
  0
LINE
  8
_0-0_90_FRAME
  6
CONTINUOUS
 62
    4
 10
2630.0696236182675
 20
593.45618594638813
 11
2630.0696236182675
 21
591.15075552239807
  0
LINE
  8
_0-0_90_FRAME
  6
CONTINUOUS
 62
    4
 10
2630.0696236182675
 20
591.15075552239807
 11
2627.7641931942794
 21
591.15075552239807
  0
LINE
  8
_0-0_90_FRAME
  6
CONTINUOUS
 62
    4
 10
2627.7641931942794
 20
593.45618594638813
 11
2627.7641931942794
 21
591.15075552239807
  0
LINE
  8
_0-0_90_FRAME
  6
CONTINUOUS
 62
    4
 10
2633.5277692542563
 20
593.45618594638813
 11
2635.8331996782445
 21
593.45618594638813
  0
LINE
  8
_0-0_90_FRAME
  6
CONTINUOUS
 62
    4
 10
2635.8331996782445
 20
593.45618594638813
 11
2635.8331996782445
 21
591.15075552239807
  0
LINE
  8
_0-0_90_FRAME
  6
CONTINUOUS
 62
    4
 10
2635.8331996782445
 20
591.15075552239807
 11
2633.5277692542563
 21
591.15075552239807
  0
LINE
  8
_0-0_90_FRAME
  6
CONTINUOUS
 62
    4
 10
2633.5277692542563
 20
593.45618594638813
 11
2633.5277692542563
 21
591.15075552239807
  0
LINE
  8
_0-0_90_FRAME
  6
CONTINUOUS
 62
    4
 10
2639.2913453142332
 20
593.45618594638813
 11
2641.5967757382214
 21
593.45618594638813
  0
LINE
  8
_0-0_90_FRAME
  6
CONTINUOUS
 62
    4
 10
2641.5967757382214
 20
593.45618594638813
 11
2641.5967757382214
 21
591.15075552239807
  0
LINE
  8
_0-0_90_FRAME
  6
CONTINUOUS
 62
    4
 10
2641.5967757382214
 20
591.15075552239807
 11
2639.2913453142332
 21
591.15075552239807
  0
LINE
  8
_0-0_90_FRAME
  6
CONTINUOUS
 62
    4
 10
2639.2913453142332
 20
593.45618594638813
 11
2639.2913453142332
 21
591.15075552239807
  0
LINE
  8
_0-0_90_FRAME
  6
CONTINUOUS
 62
    4
 10
2631.7748244856562
 20
615.39346664213031
 11
2631.7748244856562
 21
615.39346664213031
  0
LINE
  8
_0-0_90_FRAME
  6
CONTINUOUS
 62
    4
 10
2631.7748244856562
 20
615.39346664213031
 11
2631.7076938711953
 21
616.1274119272141
  0
LINE
  8
_0-0_90_FRAME
  6
CONTINUOUS
 62
    4
 10
2631.7076938711953
 20
616.1274119272141
 11
2631.5083417575629
 21
616.83905665620489
  0
LINE
  8
_0-0_90_FRAME
  6
CONTINUOUS
 62
    4
 10
2631.5083417575629
 20
616.83905665620489
 11
2631.1828253578547
 21
617.50677786412177
  0
LINE
  8
_0-0_90_FRAME
  6
CONTINUOUS
 62
    4
 10
2631.1828253578547
 20
617.50677786412177
 11
2630.7410353231571
 21
618.11028717994554
  0
LINE
  8
_0-0_90_FRAME
  6
CONTINUOUS
 62
    4
 10
2630.7410353231571
 20
618.11028717994554
 11
2630.1963952201172
 21
618.63124727850538
  0
LINE
  8
_0-0_90_FRAME
  6
CONTINUOUS
 62
    4
 10
2630.1963952201172
 20
618.63124727850538
 11
2629.5654536626648
 21
619.05382905082502
  0
LINE
  8
_0-0_90_FRAME
  6
CONTINUOUS
 62
    4
 10
2629.5654536626648
 20
619.05382905082502
 11
2628.867381490752
 21
619.36519256358918
  0
LINE
  8
_0-0_90_FRAME
  6
CONTINUOUS
 62
    4
 10
2628.867381490752
 20
619.36519256358918
 11
2628.1233892740797
 21
619.55587719402013
  0
LINE
  8
_0-0_90_FRAME
  6
CONTINUOUS
 62
    4
 10
2628.1233892740797
 20
619.55587719402013
 11
2627.3560828396739
 21
619.62008908611324
  0
LINE
  8
_0-0_90_FRAME
  6
CONTINUOUS
 62
    4
 10
2627.3560828396739
 20
619.62008908611324
 11
2626.5887764052682
 21
619.55587719402013
  0
LINE
  8
_0-0_90_FRAME
  6
CONTINUOUS
 62
    4
 10
2626.5887764052682
 20
619.55587719402013
 11
2625.8447841885959
 21
619.36519256358918
  0
LINE
  8
_0-0_90_FRAME
  6
CONTINUOUS
 62
    4
 10
2625.8447841885959
 20
619.36519256358918
 11
2625.1467120166831
 21
619.05382905082502
  0
LINE
  8
_0-0_90_FRAME
  6
CONTINUOUS
 62
    4
 10
2625.1467120166831
 20
619.05382905082502
 11
2624.5157704592307
 21
618.63124727850538
  0
LINE
  8
_0-0_90_FRAME
  6
CONTINUOUS
 62
    4
 10
2624.5157704592307
 20
618.63124727850538
 11
2623.9711303561908
 21
618.11028717994554
  0
LINE
  8
_0-0_90_FRAME
  6
CONTINUOUS
 62
    4
 10
2623.9711303561908
 20
618.11028717994554
 11
2623.5293403214932
 21
617.50677786412177
  0
LINE
  8
_0-0_90_FRAME
  6
CONTINUOUS
 62
    4
 10
2623.5293403214932
 20
617.50677786412177
 11
2623.203823921785
 21
616.83905665620489
  0
LINE
  8
_0-0_90_FRAME
  6
CONTINUOUS
 62
    4
 10
2623.203823921785
 20
616.83905665620489
 11
2623.0044718081526
 21
616.1274119272141
  0
LINE
  8
_0-0_90_FRAME
  6
CONTINUOUS
 62
    4
 10
2623.0044718081526
 20
616.1274119272141
 11
2622.9373411936917
 21
615.39346664213031
  0
LINE
  8
_0-0_90_FRAME
  6
CONTINUOUS
 62
    4
 10
2622.9373411936917
 20
615.39346664213031
 11
2622.9373411936917
 21
615.39346664213031
  0
LINE
  8
_0-0_90_FRAME
  6
CONTINUOUS
 62
    4
 10
2631.7748244856557
 20
615.39346664213031
 11
2631.7748244856557
 21
614.24075143013454
  0
LINE
  8
_0-0_90_FRAME
  6
CONTINUOUS
 62
    4
 10
2629.6900430666806
 20
610.651830445526
 11
2629.6900430666806
 21
610.651830445526
  0
LINE
  8
_0-0_90_FRAME
  6
CONTINUOUS
 62
    4
 10
2629.6900430666806
 20
610.651830445526
 11
2629.003047669104
 21
610.31868749416685
  0
LINE
  8
_0-0_90_FRAME
  6
CONTINUOUS
 62
    4
 10
2629.003047669104
 20
610.31868749416685
 11
2628.2660100785897
 21
610.10471447084205
  0
LINE
  8
_0-0_90_FRAME
  6
CONTINUOUS
 62
    4
 10
2628.2660100785897
 20
610.10471447084205
 11
2627.501324809366
 21
610.01641283758966
  0
LINE
  8
_0-0_90_FRAME
  6
CONTINUOUS
 62
    4
 10
2627.501324809366
 20
610.01641283758966
 11
2626.7322264363893
 21
610.05646559485319
  0
LINE
  8
_0-0_90_FRAME
  6
CONTINUOUS
 62
    4
 10
2626.7322264363893
 20
610.05646559485319
 11
2625.9820836245403
 21
610.22365575987101
  0
LINE
  8
_0-0_90_FRAME
  6
CONTINUOUS
 62
    4
 10
2625.9820836245403
 20
610.22365575987101
 11
2625.2736890835654
 21
610.51290334408134
  0
LINE
  8
_0-0_90_FRAME
  6
CONTINUOUS
 62
    4
 10
2625.2736890835654
 20
610.51290334408134
 11
2624.6285670231282
 21
610.91541970600417
  0
LINE
  8
_0-0_90_FRAME
  6
CONTINUOUS
 62
    4
 10
2624.6285670231282
 20
610.91541970600417
 11
2624.0663191505869
 21
611.41897458966571
  0
LINE
  8
_0-0_90_FRAME
  6
CONTINUOUS
 62
    4
 10
2624.0663191505869
 20
611.41897458966571
 11
2623.6040290830379
 21
612.00826773473682
  0
LINE
  8
_0-0_90_FRAME
  6
CONTINUOUS
 62
    4
 10
2623.6040290830379
 20
612.00826773473682
 11
2623.2557432702533
 21
612.66539376720141
  0
LINE
  8
_0-0_90_FRAME
  6
CONTINUOUS
 62
    4
 10
2623.2557432702533
 20
612.66539376720141
 11
2623.0320442004136
 21
613.37038624508477
  0
LINE
  8
_0-0_90_FRAME
  6
CONTINUOUS
 62
    4
 10
2623.0320442004136
 20
613.37038624508477
 11
2622.9397288565588
 21
614.10182432868987
  0
LINE
  8
_0-0_90_FRAME
  6
CONTINUOUS
 62
    4
 10
2622.9397288565588
 20
614.10182432868987
 11
2622.9373411936917
 21
614.24075143013454
  0
LINE
  8
_0-0_90_FRAME
  6
CONTINUOUS
 62
    4
 10
2630.1736726932927
 20
615.28042738641864
 11
2630.1736726932927
 21
614.35825521682239
  0
LINE
  8
_0-0_90_FRAME
  6
CONTINUOUS
 62
    4
 10
2640.7319219743049
 20
613.89320324335779
 11
2640.7319219743049
 21
619.62008908611392
  0
LINE
  8
_0-0_90_FRAME
  6
CONTINUOUS
 62
    4
 10
2639.0028491563107
 20
614.24075143013454
 11
2639.0028491563107
 21
619.62008908611392
  0
LINE
  8
_0-0_90_FRAME
  6
CONTINUOUS
 62
    4
 10
2639.0028491563107
 20
619.62008908611392
 11
2640.7319219743049
 21
619.62008908611392
  0
LINE
  8
_0-0_90_FRAME
  6
CONTINUOUS
 62
    4
 10
2632.6629154903367
 20
613.89320324335779
 11
2632.6629154903367
 21
619.62008908611392
  0
LINE
  8
_0-0_90_FRAME
  6
CONTINUOUS
 62
    4
 10
2634.3919883083313
 20
614.24075143013454
 11
2634.3919883083313
 21
619.62008908611392
  0
ARC
  8
_0-0_90_FRAME
  6
CONTINUOUS
 62
    4
 10
2636.7242734446636
 20
614.06697733674832
 40
4.0650739069189497
 50
182.45003099226136
 51
265.55525728852427
  0
LINE
  8
_0-0_90_FRAME
  6
CONTINUOUS
 62
    4
 10
2634.3919883083313
 20
619.62008908611392
 11
2632.6629154903367
 21
619.62008908611392
  0
LINE
  8
_0-0_90_FRAME
  6
CONTINUOUS
 62
    4
 10
2636.9855975353194
 20
610.01412898615229
 11
2636.4092399293218
 21
610.01412898615229
  0
ARC
  8
_0-0_90_FRAME
  6
CONTINUOUS
 62
    4
 10
2637.8217023119369
 20
614.19602128416659
 40
3.4300056752869819
 50
179.25279388138676
 51
218.96457184688023
  0
ARC
  8
_0-0_90_FRAME
  6
CONTINUOUS
 62
    4
 10
2635.5731351527043
 20
614.19602128416659
 40
3.4300056752865951
 50
321.03542815311977
 51
0.747206118613265
  0
ARC
  8
_0-0_90_FRAME
  6
CONTINUOUS
 62
    4
 10
2636.6974187323226
 20
614.84029845206373
 40
3.1978969011000959
 50
241.15772780831895
 51
298.84227219168099
  0
LINE
  8
_0-0_90_FRAME
  6
CONTINUOUS
 62
    4
 10
2627.7284992774603
 20
612.56088224601729
 11
2628.5129651557054
 21
611.79740910536361
  0
LINE
  8
_0-0_90_FRAME
  6
CONTINUOUS
 62
    4
 10
2627.7284992774603
 20
612.56088224601729
 11
2628.5794831704211
 21
613.46450862389224
  0
LINE
  8
_0-0_90_FRAME
  6
CONTINUOUS
 62
    4
 10
2631.0257565721067
 20
609.35186136684229
 11
2632.137651122332
 21
610.53253852573027
  0
LINE
  8
_0-0_90_FRAME
  6
CONTINUOUS
 62
    4
 10
2624.5384929860556
 20
615.28042738641864
 11
2624.5384929860556
 21
614.35825521682239
  0
LINE
  8
_0-0_90_FRAME
  6
CONTINUOUS
 62
    4
 10
2630.1736726932922
 20
615.28042738641864
 11
2630.1736726932922
 21
615.28042738641864
  0
LINE
  8
_0-0_90_FRAME
  6
CONTINUOUS
 62
    4
 10
2630.1736726932922
 20
615.28042738641864
 11
2630.1308671723255
 21
615.76711253768576
  0
LINE
  8
_0-0_90_FRAME
  6
CONTINUOUS
 62
    4
 10
2630.1308671723255
 20
615.76711253768576
 11
2630.0037512335202
 21
616.23901000690614
  0
LINE
  8
_0-0_90_FRAME
  6
CONTINUOUS
 62
    4
 10
2630.0037512335202
 20
616.23901000690614
 11
2629.7961872303526
 21
616.68178142826923
  0
LINE
  8
_0-0_90_FRAME
  6
CONTINUOUS
 62
    4
 10
2629.7961872303526
 20
616.68178142826923
 11
2629.5144818900267
 21
617.08197341619007
  0
LINE
  8
_0-0_90_FRAME
  6
CONTINUOUS
 62
    4
 10
2629.5144818900267
 20
617.08197341619007
 11
2629.1671946867582
 21
617.42742633962257
  0
LINE
  8
_0-0_90_FRAME
  6
CONTINUOUS
 62
    4
 10
2629.1671946867582
 20
617.42742633962257
 11
2628.7648777664831
 21
617.70764378629588
  0
LINE
  8
_0-0_90_FRAME
  6
CONTINUOUS
 62
    4
 10
2628.7648777664831
 20
617.70764378629588
 11
2628.3197553252412
 21
617.91411149088958
  0
LINE
  8
_0-0_90_FRAME
  6
CONTINUOUS
 62
    4
 10
2628.3197553252412
 20
617.91411149088958
 11
2627.8453521831675
 21
618.04055603667746
  0
LINE
  8
_0-0_90_FRAME
  6
CONTINUOUS
 62
    4
 10
2627.8453521831675
 20
618.04055603667746
 11
2627.3560828396739
 21
618.08313547011983
  0
LINE
  8
_0-0_90_FRAME
  6
CONTINUOUS
 62
    4
 10
2627.3560828396739
 20
618.08313547011983
 11
2626.8668134961804
 21
618.04055603667746
  0
LINE
  8
_0-0_90_FRAME
  6
CONTINUOUS
 62
    4
 10
2626.8668134961804
 20
618.04055603667746
 11
2626.3924103541067
 21
617.91411149088958
  0
LINE
  8
_0-0_90_FRAME
  6
CONTINUOUS
 62
    4
 10
2626.3924103541067
 20
617.91411149088958
 11
2625.9472879128648
 21
617.70764378629588
  0
LINE
  8
_0-0_90_FRAME
  6
CONTINUOUS
 62
    4
 10
2625.9472879128648
 20
617.70764378629588
 11
2625.5449709925897
 21
617.42742633962257
  0
LINE
  8
_0-0_90_FRAME
  6
CONTINUOUS
 62
    4
 10
2625.5449709925897
 20
617.42742633962257
 11
2625.1976837893212
 21
617.08197341619007
  0
LINE
  8
_0-0_90_FRAME
  6
CONTINUOUS
 62
    4
 10
2625.1976837893212
 20
617.08197341619007
 11
2624.9159784489952
 21
616.68178142826923
  0
LINE
  8
_0-0_90_FRAME
  6
CONTINUOUS
 62
    4
 10
2624.9159784489952
 20
616.68178142826923
 11
2624.7084144458277
 21
616.23901000690614
  0
LINE
  8
_0-0_90_FRAME
  6
CONTINUOUS
 62
    4
 10
2624.7084144458277
 20
616.23901000690614
 11
2624.5812985070224
 21
615.76711253768576
  0
LINE
  8
_0-0_90_FRAME
  6
CONTINUOUS
 62
    4
 10
2624.5812985070224
 20
615.76711253768576
 11
2624.5384929860556
 21
615.28042738641864
  0
LINE
  8
_0-0_90_FRAME
  6
CONTINUOUS
 62
    4
 10
2624.5384929860556
 20
615.28042738641864
 11
2624.5384929860556
 21
615.28042738641864
  0
LINE
  8
_0-0_90_FRAME
  6
CONTINUOUS
 62
    4
 10
2628.5129651557049
 20
611.79740910536304
 11
2628.5129651557049
 21
611.79740910536304
  0
LINE
  8
_0-0_90_FRAME
  6
CONTINUOUS
 62
    4
 10
2628.5129651557049
 20
611.79740910536304
 11
2628.0492638632222
 21
611.63635303627041
  0
LINE
  8
_0-0_90_FRAME
  6
CONTINUOUS
 62
    4
 10
2628.0492638632222
 20
611.63635303627041
 11
2627.5645006161058
 21
611.55786493507037
  0
LINE
  8
_0-0_90_FRAME
  6
CONTINUOUS
 62
    4
 10
2627.5645006161058
 20
611.55786493507037
 11
2627.0734047003166
 21
611.56432962300096
  0
LINE
  8
_0-0_90_FRAME
  6
CONTINUOUS
 62
    4
 10
2627.0734047003166
 20
611.56432962300096
 11
2626.5908978167499
 21
611.65555067379069
  0
LINE
  8
_0-0_90_FRAME
  6
CONTINUOUS
 62
    4
 10
2626.5908978167499
 20
611.65555067379069
 11
2626.1316406929027
 21
611.8287563819714
  0
LINE
  8
_0-0_90_FRAME
  6
CONTINUOUS
 62
    4
 10
2626.1316406929027
 20
611.8287563819714
 11
2625.7095876240874
 21
612.0786839797463
  0
LINE
  8
_0-0_90_FRAME
  6
CONTINUOUS
 62
    4
 10
2625.7095876240874
 20
612.0786839797463
 11
2625.3375624792307
 21
612.39773954352654
  0
LINE
  8
_0-0_90_FRAME
  6
CONTINUOUS
 62
    4
 10
2625.3375624792307
 20
612.39773954352654
 11
2625.0268690541056
 21
612.77622873145651
  0
LINE
  8
_0-0_90_FRAME
  6
CONTINUOUS
 62
    4
 10
2625.0268690541056
 20
612.77622873145651
 11
2624.786947611216
 21
613.2026513410857
  0
LINE
  8
_0-0_90_FRAME
  6
CONTINUOUS
 62
    4
 10
2624.786947611216
 20
613.2026513410857
 11
2624.6250880421981
 21
613.6640507372008
  0
LINE
  8
_0-0_90_FRAME
  6
CONTINUOUS
 62
    4
 10
2624.6250880421981
 20
613.6640507372008
 11
2624.5462083681509
 21
614.14640753263029
  0
LINE
  8
_0-0_90_FRAME
  6
CONTINUOUS
 62
    4
 10
2624.5462083681509
 20
614.14640753263029
 11
2624.5384894489862
 21
614.35379068584609
  0
LINE
  8
_0-0_90_FRAME
  6
CONTINUOUS
 62
    4
 10
2614.5095716708774
 20
610.01412898615229
 11
2616.2340744771996
 21
610.01412898615229
  0
LINE
  8
_0-0_90_FRAME
  6
CONTINUOUS
 62
    4
 10
2614.5095716708774
 20
610.01412898615229
 11
2614.5095716708774
 21
610.06023759463119
  0
LINE
  8
_0-0_90_FRAME
  6
CONTINUOUS
 62
    4
 10
2614.5095716708774
 20
610.06023759463119
 11
2618.1318630518817
 21
619.62008908611392
  0
LINE
  8
_0-0_90_FRAME
  6
CONTINUOUS
 62
    4
 10
2614.5095716708774
 20
610.01412898615229
 11
2614.5095716708774
 21
610.06023759463119
  0
LINE
  8
_0-0_90_FRAME
  6
CONTINUOUS
 62
    4
 10
2617.1742701800113
 20
612.54659730071
 11
2620.7207802941057
 21
612.54659730071
  0
LINE
  8
_0-0_90_FRAME
  6
CONTINUOUS
 62
    4
 10
2617.6941907811647
 20
614.0067032359035
 11
2620.2008596929559
 21
614.0067032359035
  0
LINE
  8
_0-0_90_FRAME
  6
CONTINUOUS
 62
    4
 10
2623.347054962841
 20
610.01412898615229
 11
2621.622552156522
 21
610.01412898615229
  0
LINE
  8
_0-0_90_FRAME
  6
CONTINUOUS
 62
    4
 10
2621.622552156522
 20
610.01412898615229
 11
2620.7207802941057
 21
612.54659730071
  0
LINE
  8
_0-0_90_FRAME
  6
CONTINUOUS
 62
    4
 10
2623.347054962841
 20
610.06023759463119
 11
2619.7247635818371
 21
619.62008908611392
  0
LINE
  8
_0-0_90_FRAME
  6
CONTINUOUS
 62
    4
 10
2623.347054962841
 20
610.01412898615229
 11
2623.347054962841
 21
610.06023759463119
  0
LINE
  8
_0-0_90_FRAME
  6
CONTINUOUS
 62
    4
 10
2618.1318630518817
 20
619.62008908611392
 11
2619.7247635818371
 21
619.62008908611392
  0
LINE
  8
_0-0_90_FRAME
  6
CONTINUOUS
 62
    4
 10
2620.2008596929559
 20
614.0067032359035
 11
2618.9283133168592
 21
617.58042682453026
  0
LINE
  8
_0-0_90_FRAME
  6
CONTINUOUS
 62
    4
 10
2628.5794831704211
 20
613.46450862389224
 11
2632.137651122332
 21
610.53253852573027
  0
LINE
  8
_0-0_90_FRAME
  6
CONTINUOUS
 62
    4
 10
2629.6900430666819
 20
610.6518304455268
 11
2631.0257565721067
 21
609.35186136684229
  0
LINE
  8
_0-0_90_FRAME
  6
CONTINUOUS
 62
    4
 10
2617.1742701800113
 20
612.54659730071
 11
2617.6941907811647
 21
614.0067032359035
  0
LINE
  8
_0-0_90_FRAME
  6
CONTINUOUS
 62
    4
 10
2631.7748244856562
 20
614.24075143013454
 11
2631.7748244856562
 21
614.24075143013454
  0
LINE
  8
_0-0_90_FRAME
  6
CONTINUOUS
 62
    4
 10
2631.7748244856562
 20
614.24075143013454
 11
2631.7076938711953
 21
613.50680614505075
  0
LINE
  8
_0-0_90_FRAME
  6
CONTINUOUS
 62
    4
 10
2631.7076938711953
 20
613.50680614505075
 11
2631.5083417575629
 21
612.79516141605995
  0
LINE
  8
_0-0_90_FRAME
  6
CONTINUOUS
 62
    4
 10
2631.5083417575629
 20
612.79516141605995
 11
2631.1828253578547
 21
612.12744020814307
  0
LINE
  8
_0-0_90_FRAME
  6
CONTINUOUS
 62
    4
 10
2631.1828253578547
 20
612.12744020814307
 11
2630.8430905016935
 21
611.64470573689482
  0
LINE
  8
_0-0_90_FRAME
  6
CONTINUOUS
 62
    4
 10
2630.1736762303617
 20
614.35379068584609
 11
2630.1736762303617
 21
614.35379068584609
  0
LINE
  8
_0-0_90_FRAME
  6
CONTINUOUS
 62
    4
 10
2630.1736762303617
 20
614.35379068584609
 11
2630.1308706556592
 21
613.86694955195333
  0
LINE
  8
_0-0_90_FRAME
  6
CONTINUOUS
 62
    4
 10
2630.1308706556592
 20
613.86694955195333
 11
2630.0037545572786
 21
613.39490083956036
  0
LINE
  8
_0-0_90_FRAME
  6
CONTINUOUS
 62
    4
 10
2630.0037545572786
 20
613.39490083956036
 11
2629.7961902935449
 21
612.95198750992517
  0
LINE
  8
_0-0_90_FRAME
  6
CONTINUOUS
 62
    4
 10
2629.7961902935449
 20
612.95198750992517
 11
2629.6050467671694
 21
612.66486758953738
  0
LINE
  8
_0-0_90_FRAME
  6
CONTINUOUS
 62
    4
 10
2622.9373411936922
 20
615.39346664213031
 11
2622.9373411936922
 21
614.24075143013454
  0
LINE
  8
_0-0_90_FRAME
  6
CONTINUOUS
 62
    4
 10
2616.2340744771996
 20
610.01412898615229
 11
2618.9283133168592
 21
617.58042682453026
  0
LINE
  8
_0-0_90_FRAME
  6
CONTINUOUS
 62
    4
 10
2640.6345763136787
 20
610.01412898615229
 11
2642.3590791200004
 21
610.01412898615229
  0
LINE
  8
_0-0_90_FRAME
  6
CONTINUOUS
 62
    4
 10
2640.6345763136787
 20
610.01412898615229
 11
2640.6345763136787
 21
610.06023759463119
  0
LINE
  8
_0-0_90_FRAME
  6
CONTINUOUS
 62
    4
 10
2640.6345763136787
 20
610.06023759463119
 11
2644.2568676946862
 21
619.62008908611392
  0
LINE
  8
_0-0_90_FRAME
  6
CONTINUOUS
 62
    4
 10
2640.6345763136787
 20
610.01412898615229
 11
2640.6345763136787
 21
610.06023759463119
  0
LINE
  8
_0-0_90_FRAME
  6
CONTINUOUS
 62
    4
 10
2643.2992748228153
 20
612.54659730071
 11
2646.8457849369101
 21
612.54659730071
  0
LINE
  8
_0-0_90_FRAME
  6
CONTINUOUS
 62
    4
 10
2643.8191954239655
 20
614.0067032359035
 11
2646.3258643357594
 21
614.0067032359035
  0
LINE
  8
_0-0_90_FRAME
  6
CONTINUOUS
 62
    4
 10
2649.472059605645
 20
610.01412898615229
 11
2647.7475567993238
 21
610.01412898615229
  0
LINE
  8
_0-0_90_FRAME
  6
CONTINUOUS
 62
    4
 10
2647.7475567993238
 20
610.01412898615229
 11
2646.8457849369101
 21
612.54659730071
  0
LINE
  8
_0-0_90_FRAME
  6
CONTINUOUS
 62
    4
 10
2649.472059605645
 20
610.06023759463119
 11
2645.8497682246407
 21
619.62008908611392
  0
LINE
  8
_0-0_90_FRAME
  6
CONTINUOUS
 62
    4
 10
2649.472059605645
 20
610.01412898615229
 11
2649.472059605645
 21
610.06023759463119
  0
LINE
  8
_0-0_90_FRAME
  6
CONTINUOUS
 62
    4
 10
2644.2568676946862
 20
619.62008908611392
 11
2645.8497682246407
 21
619.62008908611392
  0
LINE
  8
_0-0_90_FRAME
  6
CONTINUOUS
 62
    4
 10
2646.3258643357594
 20
614.0067032359035
 11
2645.0533179596632
 21
617.58042682453026
  0
LINE
  8
_0-0_90_FRAME
  6
CONTINUOUS
 62
    4
 10
2643.2992748228153
 20
612.54659730071
 11
2643.8191954239655
 21
614.0067032359035
  0
LINE
  8
_0-0_90_FRAME
  6
CONTINUOUS
 62
    4
 10
2642.3590791200004
 20
610.01412898615229
 11
2645.0533179596632
 21
617.58042682453026
  0
ARC
  8
_0-0_90_FRAME
  6
CONTINUOUS
 62
    4
 10
2636.6705640199775
 20
614.06697733674832
 40
4.0650739069189497
 50
274.44474271147573
 51
357.5499690077387
  0
LINE
  8
_0-0_90_FRAME
  6
CONTINUOUS
 62
    4
 10
2629.6050467671712
 20
612.66486758953863
 11
2630.8430905016949
 21
611.64470573689516
  0
LINE
  8
_0-0_90_FRAME
  6
CONTINUOUS
 62
    4
 10
2630.2774713191211
 20
603.21308767142432
 11
2630.2774713191211
 21
603.21308767142432
  0
LINE
  8
_0-0_90_FRAME
  6
CONTINUOUS
 62
    4
 10
2630.2774713191211
 20
603.21308767142432
 11
2630.7617266037942
 21
603.40884760616814
  0
LINE
  8
_0-0_90_FRAME
  6
CONTINUOUS
 62
    4
 10
2630.7617266037942
 20
603.40884760616814
 11
2631.1969061248387
 21
603.6701517856286
  0
LINE
  8
_0-0_90_FRAME
  6
CONTINUOUS
 62
    4
 10
2631.1969061248387
 20
603.6701517856286
 11
2631.5697871727198
 21
603.98906061453908
  0
LINE
  8
_0-0_90_FRAME
  6
CONTINUOUS
 62
    4
 10
2631.5697871727198
 20
603.98906061453908
 11
2631.869039945484
 21
604.35588420950864
  0
LINE
  8
_0-0_90_FRAME
  6
CONTINUOUS
 62
    4
 10
2631.869039945484
 20
604.35588420950864
 11
2632.0855717990598
 21
604.75947682122603
  0
LINE
  8
_0-0_90_FRAME
  6
CONTINUOUS
 62
    4
 10
2632.0855717990598
 20
604.75947682122603
 11
2632.2128035226474
 21
605.18757549241184
  0
LINE
  8
_0-0_90_FRAME
  6
CONTINUOUS
 62
    4
 10
2632.2128035226474
 20
605.18757549241184
 11
2632.2468692447078
 21
605.6271726615704
  0
LINE
  8
_0-0_90_FRAME
  6
CONTINUOUS
 62
    4
 10
2632.2468692447078
 20
605.6271726615704
 11
2632.1867338955135
 21
606.06491139116383
  0
LINE
  8
_0-0_90_FRAME
  6
CONTINUOUS
 62
    4
 10
2632.1867338955135
 20
606.06491139116383
 11
2632.0342246572209
 21
606.48749121139986
  0
LINE
  8
_0-0_90_FRAME
  6
CONTINUOUS
 62
    4
 10
2632.0342246572209
 20
606.48749121139986
 11
2631.7939754458612
 21
606.88207224827647
  0
LINE
  8
_0-0_90_FRAME
  6
CONTINUOUS
 62
    4
 10
2631.7939754458612
 20
606.88207224827647
 11
2631.4732861121506
 21
607.23666535665552
  0
LINE
  8
_0-0_90_FRAME
  6
CONTINUOUS
 62
    4
 10
2631.4732861121506
 20
607.23666535665552
 11
2631.0819006392162
 21
607.54049640437199
  0
LINE
  8
_0-0_90_FRAME
  6
CONTINUOUS
 62
    4
 10
2631.0819006392162
 20
607.54049640437199
 11
2630.6317110766031
 21
607.78433363878673
  0
LINE
  8
_0-0_90_FRAME
  6
CONTINUOUS
 62
    4
 10
2630.6317110766031
 20
607.78433363878673
 11
2630.1363962063642
 21
607.9607681889197
  0
LINE
  8
_0-0_90_FRAME
  6
CONTINUOUS
 62
    4
 10
2630.1363962063642
 20
607.9607681889197
 11
2629.6110059201906
 21
608.06443918024536
  0
LINE
  8
_0-0_90_FRAME
  6
CONTINUOUS
 62
    4
 10
2629.6110059201906
 20
608.06443918024536
 11
2629.1465684356895
 21
608.09293696615941
  0
LINE
  8
_0-0_90_FRAME
  6
CONTINUOUS
 62
    4
 10
2635.818021029997
 20
600.02393048219176
 11
2635.818021029997
 21
606.55598335016532
  0
LINE
  8
_0-0_90_FRAME
  6
CONTINUOUS
 62
    4
 10
2634.0889482120024
 20
600.02393048219176
 11
2634.0889482120024
 21
606.55598335016532
  0
LINE
  8
_0-0_90_FRAME
  6
CONTINUOUS
 62
    4
 10
2633.896829010002
 20
608.0929369661601
 11
2636.0101402319951
 21
608.0929369661601
  0
LINE
  8
_0-0_90_FRAME
  6
CONTINUOUS
 62
    4
 10
2624.72782678971
 20
608.0929369661601
 11
2624.72782678971
 21
598.48697686619846
  0
LINE
  8
_0-0_90_FRAME
  6
CONTINUOUS
 62
    4
 10
2633.896829010002
 20
598.48697686619846
 11
2636.0101402319951
 21
598.48697686619846
  0
LINE
  8
_0-0_90_FRAME
  6
CONTINUOUS
 62
    4
 10
2636.0101402319951
 20
598.48697686619846
 11
2636.0101402319951
 21
599.83181128019362
  0
ARC
  8
_0-0_90_FRAME
  6
CONTINUOUS
 62
    4
 10
2636.0101402319951
 20
600.02393048219176
 40
0.1921192019992239
 50
180
 51
270
  0
LINE
  8
_0-0_90_FRAME
  6
CONTINUOUS
 62
    4
 10
2633.896829010002
 20
598.48697686619846
 11
2633.896829010002
 21
599.83181128019362
  0
ARC
  8
_0-0_90_FRAME
  6
CONTINUOUS
 62
    4
 10
2633.896829010002
 20
600.02393048219176
 40
0.1921192019992239
 50
270
 51
0
  0
LINE
  8
_0-0_90_FRAME
  6
CONTINUOUS
 62
    4
 10
2636.0101402319951
 20
608.0929369661601
 11
2636.0101402319951
 21
606.74810255216494
  0
ARC
  8
_0-0_90_FRAME
  6
CONTINUOUS
 62
    4
 10
2636.0101402319951
 20
606.55598335016532
 40
0.1921192019992239
 50
90
 51
180
  0
LINE
  8
_0-0_90_FRAME
  6
CONTINUOUS
 62
    4
 10
2633.896829010002
 20
608.0929369661601
 11
2633.896829010002
 21
606.74810255216494
  0
ARC
  8
_0-0_90_FRAME
  6
CONTINUOUS
 62
    4
 10
2633.896829010002
 20
606.55598335016532
 40
0.1921192019992239
 50
0
 51
90
  0
LINE
  8
_0-0_90_FRAME
  6
CONTINUOUS
 62
    4
 10
2620.5588713209986
 20
598.48697686619846
 11
2620.5588713209986
 21
606.55598335016532
  0
LINE
  8
_0-0_90_FRAME
  6
CONTINUOUS
 62
    4
 10
2618.8297985030067
 20
598.48697686619846
 11
2618.8297985030067
 21
606.55598335016532
  0
LINE
  8
_0-0_90_FRAME
  6
CONTINUOUS
 62
    4
 10
2615.7558912710201
 20
608.0929369661601
 11
2623.6327785529875
 21
608.0929369661601
  0
LINE
  8
_0-0_90_FRAME
  6
CONTINUOUS
 62
    4
 10
2618.8297985030067
 20
598.48697686619846
 11
2620.5588713209986
 21
598.48697686619846
  0
LINE
  8
_0-0_90_FRAME
  6
CONTINUOUS
 62
    4
 10
2623.6327785529875
 20
608.0929369661601
 11
2623.6327785529875
 21
606.74810255216494
  0
ARC
  8
_0-0_90_FRAME
  6
CONTINUOUS
 62
    4
 10
2620.7509905229995
 20
606.55598335016532
 40
0.1921192019992239
 50
90
 51
180
  0
LINE
  8
_0-0_90_FRAME
  6
CONTINUOUS
 62
    4
 10
2615.7558912710201
 20
608.0929369661601
 11
2615.7558912710201
 21
606.74810255216494
  0
ARC
  8
_0-0_90_FRAME
  6
CONTINUOUS
 62
    4
 10
2618.6376793010086
 20
606.55598335016532
 40
0.1921192019992239
 50
0
 51
90
  0
LINE
  8
_0-0_90_FRAME
  6
CONTINUOUS
 62
    4
 10
2615.7558912710201
 20
606.74810255216494
 11
2618.6376793010086
 21
606.74810255216494
  0
LINE
  8
_0-0_90_FRAME
  6
CONTINUOUS
 62
    4
 10
2620.7509905229995
 20
606.74810255216494
 11
2623.6327785529875
 21
606.74810255216494
  0
LINE
  8
_0-0_90_FRAME
  6
CONTINUOUS
 62
    4
 10
2624.72782678971
 20
598.48697686619846
 11
2626.4568996077019
 21
598.48697686619846
  0
LINE
  8
_0-0_90_FRAME
  6
CONTINUOUS
 62
    4
 10
2626.4568996077019
 20
598.48697686619846
 11
2626.4568996077019
 21
606.74810255216494
  0
LINE
  8
_0-0_90_FRAME
  6
CONTINUOUS
 62
    4
 10
2624.72782678971
 20
608.0929369661601
 11
2629.1465684356895
 21
608.0929369661601
  0
LINE
  8
_0-0_90_FRAME
  6
CONTINUOUS
 62
    4
 10
2626.4568996077019
 20
606.74810255216494
 11
2629.3771114780911
 21
606.74810255216494
  0
LINE
  8
_0-0_90_FRAME
  6
CONTINUOUS
 62
    4
 10
2626.5145353682997
 20
603.03908020060885
 11
2626.5145353682997
 21
604.38391461460401
  0
LINE
  8
_0-0_90_FRAME
  6
CONTINUOUS
 62
    4
 10
2626.5145353682997
 20
603.03908020060885
 11
2628.4010628666028
 21
603.03908020060885
  0
LINE
  8
_0-0_90_FRAME
  6
CONTINUOUS
 62
    4
 10
2626.5145353682997
 20
604.38391461460401
 11
2629.3771114780911
 21
604.38391461460401
  0
ARC
  8
_0-0_90_FRAME
  6
CONTINUOUS
 62
    4
 10
2629.3358926371693
 20
605.56600858338447
 40
1.1828123874366916
 50
271.99705710435398
 51
88.002942895541636
  0
LINE
  8
_0-0_90_FRAME
  6
CONTINUOUS
 62
    4
 10
2630.5763407852064
 20
598.48697686619846
 11
2632.4398970445982
 21
598.48697686619846
  0
LINE
  8
_0-0_90_FRAME
  6
CONTINUOUS
 62
    4
 10
2630.784540232476
 20
602.61755821853444
 11
2632.4398970445982
 21
598.56382454699826
  0
LINE
  8
_0-0_90_FRAME
  6
CONTINUOUS
 62
    4
 10
2629.1139418572093
 20
602.5575879726523
 11
2630.5763407852064
 21
598.48697686619846
  0
ARC
  8
_0-0_90_FRAME
  6
CONTINUOUS
 62
    4
 10
2628.4010628666028
 20
602.27060339261357
 40
0.7684768079968956
 50
21.928297866550245
 51
90
  0
ARC
  8
_0-0_90_FRAME
  6
CONTINUOUS
 62
    4
 10
2629.622146912533
 20
602.14146688470476
 40
1.2561135252831908
 50
22.272952259980951
 51
58.553113012863221
  0
LINE
  8
_0-0_90_FRAME
  6
CONTINUOUS
 62
    4
 10
2632.4398970445982
 20
598.56382454699826
 11
2632.4398970445982
 21
598.48697686619846
  0
LINE
  8
_0-0_90_FRAME
  6
CONTINUOUS
 62
    4
 10
2637.7410851437048
 20
608.0929369661601
 11
2637.7410851437048
 21
598.48697686619846
  0
LINE
  8
_0-0_90_FRAME
  6
CONTINUOUS
 62
    4
 10
2637.7410851437048
 20
598.48697686619846
 11
2639.4701579616994
 21
598.48697686619846
  0
LINE
  8
_0-0_90_FRAME
  6
CONTINUOUS
 62
    4
 10
2639.4701579616994
 20
598.48697686619846
 11
2639.4685657836453
 21
605.21114893617164
  0
LINE
  8
_0-0_90_FRAME
  6
CONTINUOUS
 62
    4
 10
2637.7410851437048
 20
608.0929369661601
 11
2640.2500830297613
 21
608.0929369661601
  0
LINE
  8
_0-0_90_FRAME
  6
CONTINUOUS
 62
    4
 10
2645.6195646037263
 20
605.21114893617164
 11
2645.6195646037263
 21
598.48697686619846
  0
LINE
  8
_0-0_90_FRAME
  6
CONTINUOUS
 62
    4
 10
2645.6195646037263
 20
598.48697686619846
 11
2647.3486374217182
 21
598.48697686619846
  0
LINE
  8
_0-0_90_FRAME
  6
CONTINUOUS
 62
    4
 10
2647.3486374217182
 20
598.48697686619846
 11
2647.3486374217182
 21
608.0929369661601
  0
LINE
  8
_0-0_90_FRAME
  6
CONTINUOUS
 62
    4
 10
2641.6795287846921
 20
598.48697686619846
 11
2643.4086016026831
 21
598.48697686619846
  0
LINE
  8
_0-0_90_FRAME
  6
CONTINUOUS
 62
    4
 10
2647.3486374217182
 20
608.0929369661601
 11
2644.8380473576108
 21
608.0929369661601
  0
LINE
  8
_0-0_90_FRAME
  6
CONTINUOUS
 62
    4
 10
2643.4086016026831
 20
598.48697686619846
 11
2645.6195646037263
 21
605.21114893617164
  0
LINE
  8
_0-0_90_FRAME
  6
CONTINUOUS
 62
    4
 10
2641.6795287846921
 20
598.48697686619846
 11
2639.4685657836453
 21
605.21114893617164
  0
LINE
  8
_0-0_90_FRAME
  6
CONTINUOUS
 62
    4
 10
2642.544065193686
 20
601.11627983151379
 11
2644.8380473576108
 21
608.0929369661601
  0
LINE
  8
_0-0_90_FRAME
  6
CONTINUOUS
 62
    4
 10
2642.544065193686
 20
601.11627983151379
 11
2640.2500830297613
 21
608.0929369661601
  0
TEXT
  8
_0-0_90_FRAME
 62
    2
 10
2658.674662349647
 20
615.76061075744462
 40
11.341157142811321
 41
1
 50
0
  1
ŖöÄ«ē’Äą
  0
LINE
  8
_0-0_90_FRAME
  6
CONTINUOUS
 62
   18
 10
2693.1999976566358
 20
639.33730321647749
 11
2693.1999976566358
 21
692.37301750197935
  0
TEXT
  8
_0-0_90_FRAME
 62
    7
 10
2792.186183297903
 20
598.27515673365667
 40
15.000000000000002
 41
1
 50
0
  1
Äøōc
  0
TEXT
  8
_0-0_90_FRAME
 62
    7
 10
2715.0754690125254
 20
652.06701677694809
 40
15.000000000000002
 41
1
 50
0
  1
1üF3
  0
TEXT
  8
_0-0_90_FRAME
 62
    7
 10
2849.4601631364662
 20
682.10428702509694
 40
7.5000000000000009
 41
1
 50
0
  1
ŗ@ŖĒ
  0
LINE
  8
_0-0_90_FRAME
  6
CONTINUOUS
 62
   18
 10
2960.7071279503516
 20
692.37301750197935
 11
2960.7071279503516
 21
616.00158893085847
  0
TEXT
  8
_0-0_90_FRAME
 62
    7
 10
2962.7458648594265
 20
682.10428702509694
 40
7.5000000000000009
 41
1
 50
0
  1
ĢöĢi¢╝
  0
TEXT
  8
_0-0_90_FRAME
 62
    7
 10
2962.7458648594238
 20
639.30071559669545
 40
7.5000000000000009
 41
1
 50
0
  1
É}¢╩öįŹå
  0
LINE
  8
_0-0_90_FRAME
  6
CONTINUOUS
 62
   18
 10
2847.4214262273968
 20
654.18730321641954
 11
2960.7071279503516
 21
654.18730321641954
  0
TEXT
  8
_0-0_90_FRAME
 62
    7
 10
2849.4601631364662
 20
643.54357273953713
 40
7.5000000000000009
 41
1
 50
0
  1
ī^Ä«
  0
LINE
  8
_0-0_90_FRAME
  6
CONTINUOUS
 62
   18
 10
2744.435715879511
 20
692.37301750197935
 11
3198.0999976545977
 21
692.37301750197935
  0
LINE
  8
_0-0_90_FRAME
  6
CONTINUOUS
 62
    4
 10
2744.4356985498362
 20
797.37301524560689
 11
3198.0999803249233
 21
797.37301524560689
  0
LINE
  8
_0-0_90_FRAME
  6
CONTINUOUS
 62
    4
 10
2744.435715879511
 20
797.37301524560689
 11
2744.435715879511
 21
692.37301750197935
  0
LINE
  8
_0-0_90_FRAME
  6
CONTINUOUS
 62
    4
 10
2960.7071279503516
 20
797.37301524560689
 11
2960.7071279503516
 21
692.37301750197935
  0
LINE
  8
_0-0_90_FRAME
  6
CONTINUOUS
 62
    4
 10
3043.0394665437943
 20
797.37301524560689
 11
3043.0394665438093
 21
692.37301750197935
  0
LINE
  8
_0-0_90_FRAME
  6
CONTINUOUS
 62
    4
 10
3022.0394691687939
 20
797.37301524560689
 11
3022.039469168808
 21
692.37301750197935
  0
LINE
  8
_0-0_90_FRAME
  6
CONTINUOUS
 62
    4
 10
2775.9357119420165
 20
797.37301524560689
 11
2775.9357119420165
 21
692.37301750197935
  0
LINE
  8
_0-0_90_FRAME
  6
CONTINUOUS
 62
    4
 10
3074.5394626063057
 20
797.37301524560689
 11
3074.5394626063044
 21
692.37301750197935
  0
TEXT
  8
_0-0_90_FRAME
 62
    3
 10
3029.132120429289
 20
718.39104071885163
 40
9
 41
1
 50
0
  1
2
  0
TEXT
  8
_0-0_90_FRAME
 62
    3
 10
2965.541250723998
 20
718.59103962713766
 40
9
 41
1
 50
0
  1
SUS304
  0
TEXT
  8
_0-0_90_FRAME
 62
    3
 10
2790.5663624585009
 20
718.47166248880319
 40
9
 41
1
 50
0
  1
ē¤é”ö┬1
  0
TEXT
  8
_0-0_90_FRAME
 62
    3
 10
2751.9129886129563
 20
718.24014293977314
 40
9
 41
1
 50
0
  1
93
  0
TEXT
  8
_0-0_90_FRAME
 62
    3
 10
3049.8995375773643
 20
703.1516144484018
 40
7.5000000000000009
 41
1
 50
0
  1
ÅdŚ╩
  0
TEXT
  8
_0-0_90_FRAME
 62
    3
 10
2974.7124387296012
 20
698.31097072028183
 40
9
 41
1
 50
0
  1
Ź▐ü@Ä┐
  0
TEXT
  8
_0-0_90_FRAME
 62
    3
 10
3023.1423955067394
 20
698.24332993644612
 40
9
 41
1
 50
0
  1
ÉöŚ╩
  0
TEXT
  8
_0-0_90_FRAME
 62
    3
 10
3053.2144318736523
 20
695.81309080654012
 40
6
 41
1
 50
0
  1
kg
  0
TEXT
  8
_0-0_90_FRAME
 62
    3
 10
3114.6807657540835
 20
698.09243215735023
 40
9
 41
1
 50
0
  1
ö§  Źl
  0
TEXT
  8
_0-0_90_FRAME
 62
    3
 10
2750.8496996631429
 20
698.09243215735023
 40
9
 41
1
 50
0
  1
ĢäŹå
  0
TEXT
  8
_0-0_90_FRAME
 62
    3
 10
2827.1463419623601
 20
698.41909878318518
 40
9
 41
1
 50
0
  1
Ģöü@ü@Ģiü@ü@¢╝
  0
LINE
  8
_0-0_90_FRAME
  6
CONTINUOUS
 62
    4
 10
2744.4356985498362
 20
776.37301524560689
 11
3198.0999803249233
 21
776.37301524560689
  0
LINE
  8
_0-0_90_FRAME
  6
CONTINUOUS
 62
    4
 10
2744.4356985498362
 20
755.37301412425609
 11
3198.0999803249233
 21
755.37301412425609
  0
LINE
  8
_0-0_90_FRAME
  6
CONTINUOUS
 62
    4
 10
2744.4356985498362
 20
734.37301524560678
 11
3198.0999803249233
 21
734.37301524560678
  0
LINE
  8
_0-0_90_FRAME
  6
CONTINUOUS
 62
    4
 10
2744.4356985498362
 20
713.37301524560678
 11
3198.0999803249233
 21
713.37301524560678
  0
TEXT
  8
_0-0_90_FRAME
 62
    7
 10
3045.4775050017274
 20
664.74057709866736
 40
12
 41
1
 50
0
  1
ÆEÉģŗ@ ĢöĢiÉ}
  0
TEXT
  8
_0-0_90_FRAME
 62
    7
 10
2854.7438016718756
 20
664.30999436027423
 40
9.5999999999999996
 41
0.9000000000000001
 50
0
  1
ŚLŗ@É½ēśōDöRŚ┐Ä{É▌
  0
LINE
  8
_0-2_08_DIM
  6
CONTINUOUS
 62
    3
 10
1008.2939460740764
 20
1940.4628055959963
 11
1084.9935965389986
 21
1940.4628055959963
  0
INSERT
  2
-000-p1ba05
  8
_0-2_08_DIM
 10
1052.9311539124149
 20
1944.565573121537
 41
4.5
 42
4.5
 50
0
  0
TEXT
  8
_0-0_90_FRAME
 62
    3
 10
3030.632120429289
 20
739.39103959750094
 40
9
 41
1
 50
0
  1
1
  0
TEXT
  8
_0-0_90_FRAME
 62
    3
 10
2751.9129886129563
 20
739.24014181842233
 40
9
 41
1
 50
0
  1
94
  0
TEXT
  8
_0-0_90_FRAME
 62
    3
 10
3082.1141635349236
 20
739.43909910812977
 40
9
 41
1
 50
0
  1
É¶Å“ÉģÄ¾é»āpāōŚp
  0
LINE
  8
_0-3_0
  6
CONTINUOUS
 62
   18
 10
986.41074139462773
 20
1817.9235950724042
 11
989.41074139462773
 21
1817.9235950724042
  0
LINE
  8
_0-3_0
  6
CONTINUOUS
 62
   18
 10
989.41074139462773
 20
1817.9235950724042
 11
989.41074139462773
 21
1727.9235950724044
  0
LINE
  8
_0-3_0
  6
CONTINUOUS
 62
   18
 10
989.41074139462773
 20
1727.9235950724044
 11
986.41074139462773
 21
1727.9235950724044
  0
LINE
  8
_0-3_0
  6
CONTINUOUS
 62
   18
 10
986.41074139462773
 20
1727.9235950724044
 11
986.41074139462773
 21
1817.9235950724042
  0
LINE
  8
_0-4_05_CENTER
  6
CENTER2
 62
    4
 10
983.58570048796003
 20
1747.9235950724042
 11
992.17393088527945
 21
1747.9235950724042
  0
LINE
  8
_0-4_05_CENTER
  6
CENTER2
 62
    4
 10
983.58570048796003
 20
1797.9235950724044
 11
992.17393088527945
 21
1797.9235950724044
  0
LINE
  8
_0-3_0
  6
CONTINUOUS
 62
   18
 10
3099.6766066946848
 20
1615.6293748121377
 11
3099.6766066946848
 21
1612.6293748121382
  0
LINE
  8
_0-3_0
  6
CONTINUOUS
 62
   18
 10
3099.6766066946848
 20
1612.6293748121382
 11
1099.676606694685
 21
1612.6293748121382
  0
LINE
  8
_0-3_0
  6
CONTINUOUS
 62
   18
 10
1099.676606694685
 20
1612.6293748121382
 11
1099.676606694685
 21
1615.6293748121377
  0
LINE
  8
_0-3_0
  6
CONTINUOUS
 62
   18
 10
1099.676606694685
 20
1615.6293748121377
 11
3099.6766066946848
 21
1615.6293748121377
  0
LINE
  8
_0-4_05_CENTER
  6
CENTER2
 62
    4
 10
1139.6766066963546
 20
1618.4544157188056
 11
1139.6766066963546
 21
1609.866185321488
  0
LINE
  8
_0-4_05_CENTER
  6
CENTER2
 62
    4
 10
1299.6766066938483
 20
1618.4544157188056
 11
1299.6766066938483
 21
1609.866185321488
  0
LINE
  8
_0-4_05_CENTER
  6
CENTER2
 62
    4
 10
1459.676606693848
 20
1618.4544157188056
 11
1459.676606693848
 21
1609.866185321488
  0
LINE
  8
_0-4_05_CENTER
  6
CENTER2
 62
    4
 10
1619.676606693848
 20
1618.4544157188056
 11
1619.676606693848
 21
1609.866185321488
  0
LINE
  8
_0-4_05_CENTER
  6
CENTER2
 62
    4
 10
1779.6766066938483
 20
1618.4544157188056
 11
1779.6766066938483
 21
1609.866185321488
  0
LINE
  8
_0-4_05_CENTER
  6
CENTER2
 62
    4
 10
1939.6766066938483
 20
1618.4544157188056
 11
1939.6766066938483
 21
1609.866185321488
  0
LINE
  8
_0-4_05_CENTER
  6
CENTER2
 62
    4
 10
2099.6766066938485
 20
1618.4544157188056
 11
2099.6766066938485
 21
1609.866185321488
  0
LINE
  8
_0-4_05_CENTER
  6
CENTER2
 62
    4
 10
3059.6766066946852
 20
1618.4544157188056
 11
3059.6766066946852
 21
1609.866185321488
  0
LINE
  8
_0-4_05_CENTER
  6
CENTER2
 62
    4
 10
2899.676606695522
 20
1618.4544157188056
 11
2899.676606695522
 21
1609.866185321488
  0
LINE
  8
_0-4_05_CENTER
  6
CENTER2
 62
    4
 10
2739.676606695522
 20
1618.4544157188056
 11
2739.676606695522
 21
1609.866185321488
  0
LINE
  8
_0-4_05_CENTER
  6
CENTER2
 62
    4
 10
2579.676606695522
 20
1618.4544157188056
 11
2579.676606695522
 21
1609.866185321488
  0
LINE
  8
_0-4_05_CENTER
  6
CENTER2
 62
    4
 10
2419.6766066955215
 20
1618.4544157188056
 11
2419.6766066955215
 21
1609.866185321488
  0
LINE
  8
_0-4_05_CENTER
  6
CENTER2
 62
    4
 10
2259.6766066955215
 20
1618.4544157188056
 11
2259.6766066955215
 21
1609.866185321488
  0
LINE
  8
_0-3_0
  6
CONTINUOUS
 62
   18
 10
1101.6766066955215
 20
1727.9235950683697
 11
3097.676606695522
 21
1727.9235950683697
  0
LINE
  8
_0-3_0
  6
CONTINUOUS
 62
   18
 10
3097.676606695522
 20
1727.9235950683697
 11
3099.6766066955215
 21
1729.9235950683697
  0
LINE
  8
_0-3_0
  6
CONTINUOUS
 62
   18
 10
3099.6766066955215
 20
1729.9235950683697
 11
3099.6766066955215
 21
1815.923595072406
  0
LINE
  8
_0-3_0
  6
CONTINUOUS
 62
   18
 10
3099.6766066955215
 20
1815.923595072406
 11
3097.676606695522
 21
1817.9235950724058
  0
LINE
  8
_0-3_0
  6
CONTINUOUS
 62
   18
 10
3097.676606695522
 20
1817.9235950724058
 11
1101.6766066955215
 21
1817.9235950724042
  0
LINE
  8
_0-3_0
  6
CONTINUOUS
 62
   18
 10
1101.6766066955215
 20
1817.9235950724042
 11
1099.6766066955215
 21
1815.9235950724042
  0
LINE
  8
_0-3_0
  6
CONTINUOUS
 62
   18
 10
1099.6766066955215
 20
1815.9235950724042
 11
1099.6766066955215
 21
1729.9235950683697
  0
LINE
  8
_0-3_0
  6
CONTINUOUS
 62
   18
 10
1099.6766066955215
 20
1729.9235950683697
 11
1101.6766066955215
 21
1727.9235950683697
  0
LINE
  8
_0-4_05_CENTER
  6
CENTER2
 62
    4
 10
1139.6766066955215
 20
1738.5825442612449
 11
1139.6766066955215
 21
1757.2646458840511
  0
CIRCLE
  8
_0-3_0
  6
CONTINUOUS
 62
   18
 10
1139.6766066955215
 20
1747.9235950726336
 40
6
  0
LINE
  8
_0-4_05_CENTER
  6
CENTER2
 62
    4
 10
1149.0176575069102
 20
1747.9235950726336
 11
1130.3355558841115
 21
1747.9235950726336
  0
LINE
  8
_0-4_05_CENTER
  6
CENTER2
 62
    4
 10
1299.6766066946741
 20
1788.5825442577709
 11
1299.6766066946741
 21
1807.2646458805768
  0
CIRCLE
  8
_0-3_0
  6
CONTINUOUS
 62
   18
 10
1299.6766066946741
 20
1797.9235950691591
 40
6
  0
LINE
  8
_0-4_05_CENTER
  6
CENTER2
 62
    4
 10
1309.0176575060625
 20
1797.9235950691591
 11
1290.3355558832639
 21
1797.9235950691591
  0
LINE
  8
_0-4_05_CENTER
  6
CENTER2
 62
    4
 10
1459.6766066946741
 20
1738.5825442612304
 11
1459.6766066946741
 21
1757.2646458840363
  0
CIRCLE
  8
_0-3_0
  6
CONTINUOUS
 62
   18
 10
1459.6766066946741
 20
1747.923595072619
 40
6
  0
LINE
  8
_0-4_05_CENTER
  6
CENTER2
 62
    4
 10
1469.0176575060625
 20
1747.923595072619
 11
1450.3355558832639
 21
1747.923595072619
  0
LINE
  8
_0-4_05_CENTER
  6
CENTER2
 62
    4
 10
1619.6766066946741
 20
1788.5825442577709
 11
1619.6766066946741
 21
1807.2646458805768
  0
CIRCLE
  8
_0-3_0
  6
CONTINUOUS
 62
   18
 10
1619.6766066946741
 20
1797.9235950691591
 40
6
  0
LINE
  8
_0-4_05_CENTER
  6
CENTER2
 62
    4
 10
1629.0176575060625
 20
1797.9235950691591
 11
1610.3355558832636
 21
1797.9235950691591
  0
LINE
  8
_0-4_05_CENTER
  6
CENTER2
 62
    4
 10
1779.676606694685
 20
1738.5825442612449
 11
1779.676606694685
 21
1757.2646458840511
  0
CIRCLE
  8
_0-3_0
  6
CONTINUOUS
 62
   18
 10
1779.676606694685
 20
1747.9235950726336
 40
6
  0
LINE
  8
_0-4_05_CENTER
  6
CENTER2
 62
    4
 10
1789.0176575060734
 20
1747.9235950726336
 11
1770.3355558832748
 21
1747.9235950726336
  0
LINE
  8
_0-4_05_CENTER
  6
CENTER2
 62
    4
 10
1939.6766066946852
 20
1788.5825442577709
 11
1939.6766066946852
 21
1807.2646458805768
  0
CIRCLE
  8
_0-3_0
  6
CONTINUOUS
 62
   18
 10
1939.6766066946852
 20
1797.9235950691591
 40
6
  0
LINE
  8
_0-4_05_CENTER
  6
CENTER2
 62
    4
 10
1949.0176575060734
 20
1797.9235950691591
 11
1930.3355558832748
 21
1797.9235950691591
  0
LINE
  8
_0-4_05_CENTER
  6
CENTER2
 62
    4
 10
2099.6766066946848
 20
1713.0486027965444
 11
2099.6766066946848
 21
1835.4600651068313
  0
CIRCLE
  8
_0-3_0
  6
CONTINUOUS
 62
   18
 10
2099.6766066946848
 20
1747.9235950726336
 40
6
  0
LINE
  8
_0-4_05_CENTER
  6
CENTER2
 62
    4
 10
2109.0176575060732
 20
1747.9235950726336
 11
2090.3355558832745
 21
1747.9235950726336
  0
LINE
  8
_0-4_05_CENTER
  6
CENTER2
 62
    4
 10
3059.676606695522
 20
1738.5825442612449
 11
3059.676606695522
 21
1757.2646458840511
  0
CIRCLE
  8
_0-3_0
  6
CONTINUOUS
 62
   18
 10
3059.676606695522
 20
1747.9235950726336
 40
6
  0
LINE
  8
_0-4_05_CENTER
  6
CENTER2
 62
    4
 10
3050.3355558841336
 20
1747.9235950726336
 11
3069.0176575069318
 21
1747.9235950726336
  0
LINE
  8
_0-4_05_CENTER
  6
CENTER2
 62
    4
 10
2899.676606696366
 20
1788.5825442577709
 11
2899.676606696366
 21
1807.2646458805768
  0
CIRCLE
  8
_0-3_0
  6
CONTINUOUS
 62
   18
 10
2899.676606696366
 20
1797.9235950691591
 40
6
  0
LINE
  8
_0-4_05_CENTER
  6
CENTER2
 62
    4
 10
2890.3355558849771
 20
1797.9235950691591
 11
2909.0176575077762
 21
1797.9235950691591
  0
LINE
  8
_0-4_05_CENTER
  6
CENTER2
 62
    4
 10
2739.676606696366
 20
1738.5825442612304
 11
2739.676606696366
 21
1757.2646458840363
  0
CIRCLE
  8
_0-3_0
  6
CONTINUOUS
 62
   18
 10
2739.676606696366
 20
1747.923595072619
 40
6
  0
LINE
  8
_0-4_05_CENTER
  6
CENTER2
 62
    4
 10
2730.3355558849771
 20
1747.923595072619
 11
2749.0176575077758
 21
1747.923595072619
  0
LINE
  8
_0-4_05_CENTER
  6
CENTER2
 62
    4
 10
2579.6766066963655
 20
1788.5825442577709
 11
2579.6766066963655
 21
1807.2646458805768
  0
CIRCLE
  8
_0-3_0
  6
CONTINUOUS
 62
   18
 10
2579.6766066963655
 20
1797.9235950691591
 40
6
  0
LINE
  8
_0-4_05_CENTER
  6
CENTER2
 62
    4
 10
2570.3355558849771
 20
1797.9235950691591
 11
2589.0176575077758
 21
1797.9235950691591
  0
LINE
  8
_0-4_05_CENTER
  6
CENTER2
 62
    4
 10
2419.6766066963546
 20
1738.5825442612449
 11
2419.6766066963546
 21
1757.2646458840511
  0
CIRCLE
  8
_0-3_0
  6
CONTINUOUS
 62
   18
 10
2419.6766066963546
 20
1747.9235950726336
 40
6
  0
LINE
  8
_0-4_05_CENTER
  6
CENTER2
 62
    4
 10
2410.3355558849667
 20
1747.9235950726336
 11
2429.0176575077649
 21
1747.9235950726336
  0
LINE
  8
_0-4_05_CENTER
  6
CENTER2
 62
    4
 10
2259.6766066963546
 20
1788.5825442577709
 11
2259.6766066963546
 21
1807.2646458805768
  0
CIRCLE
  8
_0-3_0
  6
CONTINUOUS
 62
   18
 10
2259.6766066963546
 20
1797.9235950691591
 40
6
  0
LINE
  8
_0-4_05_CENTER
  6
CENTER2
 62
    4
 10
2250.3355558849667
 20
1797.9235950691591
 11
2269.0176575077649
 21
1797.9235950691591
  0
LINE
  8
_0-3_0
  6
CONTINUOUS
 62
   18
 10
986.41074139463501
 20
1244.3680776907731
 11
989.41074139463501
 21
1244.3680776907731
  0
LINE
  8
_0-3_0
  6
CONTINUOUS
 62
   18
 10
989.41074139463501
 20
1244.3680776907731
 11
989.41074139463501
 21
1164.3680776907731
  0
LINE
  8
_0-3_0
  6
CONTINUOUS
 62
   18
 10
989.41074139463501
 20
1164.3680776907731
 11
986.41074139463501
 21
1164.3680776907731
  0
LINE
  8
_0-3_0
  6
CONTINUOUS
 62
   18
 10
986.41074139463501
 20
1164.3680776907731
 11
986.41074139463501
 21
1244.3680776907731
  0
LINE
  8
_0-4_05_CENTER
  6
CENTER2
 62
    4
 10
983.5857004879673
 20
1184.3680776907731
 11
992.17393088528672
 21
1184.3680776907731
  0
LINE
  8
_0-4_05_CENTER
  6
CENTER2
 62
    4
 10
983.5857004879673
 20
1224.3680776907731
 11
992.17393088528672
 21
1224.3680776907731
  0
LINE
  8
_0-4_05_CENTER
  6
CENTER2
 62
    4
 10
1139.6766066955288
 20
1175.0270268796285
 11
1139.6766066955288
 21
1193.7091285024344
  0
CIRCLE
  8
_0-3_0
  6
CONTINUOUS
 62
   18
 10
1139.6766066955288
 20
1184.3680776910169
 40
6
  0
LINE
  8
_0-4_05_CENTER
  6
CENTER2
 62
    4
 10
1149.0176575069174
 20
1184.3680776910169
 11
1130.3355558841188
 21
1184.3680776910169
  0
LINE
  8
_0-3_0
  6
CONTINUOUS
 62
   18
 10
1101.6766066955327
 20
1164.3680776867532
 11
3097.6766066955292
 21
1164.3680776867532
  0
LINE
  8
_0-3_0
  6
CONTINUOUS
 62
   18
 10
3097.6766066955292
 20
1164.3680776867532
 11
3099.6766066955292
 21
1166.3680776867532
  0
LINE
  8
_0-3_0
  6
CONTINUOUS
 62
   18
 10
3099.6766066955292
 20
1166.3680776867532
 11
3099.6766066955292
 21
1242.3680776907913
  0
LINE
  8
_0-3_0
  6
CONTINUOUS
 62
   18
 10
3099.6766066955292
 20
1242.3680776907913
 11
3097.6766066955292
 21
1244.3680776907913
  0
LINE
  8
_0-3_0
  6
CONTINUOUS
 62
   18
 10
3097.6766066955292
 20
1244.3680776907913
 11
1101.6766066955288
 21
1244.3680776907879
  0
LINE
  8
_0-3_0
  6
CONTINUOUS
 62
   18
 10
1101.6766066955288
 20
1244.3680776907879
 11
1099.6766066955288
 21
1242.3680776907879
  0
LINE
  8
_0-3_0
  6
CONTINUOUS
 62
   18
 10
1099.6766066955288
 20
1242.3680776907879
 11
1099.6766066955327
 21
1166.3680776867532
  0
LINE
  8
_0-3_0
  6
CONTINUOUS
 62
   18
 10
1099.6766066955327
 20
1166.3680776867532
 11
1101.6766066955327
 21
1164.3680776867532
  0
LINE
  8
_0-4_05_CENTER
  6
CENTER2
 62
    4
 10
1299.6766066946848
 20
1215.0270268761542
 11
1299.6766066946848
 21
1233.7091284989604
  0
CIRCLE
  8
_0-3_0
  6
CONTINUOUS
 62
   18
 10
1299.6766066946848
 20
1224.3680776875426
 40
6
  0
LINE
  8
_0-4_05_CENTER
  6
CENTER2
 62
    4
 10
1309.0176575060734
 20
1224.3680776875426
 11
1290.3355558832745
 21
1224.3680776875426
  0
LINE
  8
_0-4_05_CENTER
  6
CENTER2
 62
    4
 10
1459.6766066946848
 20
1175.0270268796139
 11
1459.6766066946848
 21
1193.7091285024198
  0
CIRCLE
  8
_0-3_0
  6
CONTINUOUS
 62
   18
 10
1459.6766066946848
 20
1184.3680776910023
 40
6
  0
LINE
  8
_0-4_05_CENTER
  6
CENTER2
 62
    4
 10
1469.0176575060734
 20
1184.3680776910023
 11
1450.3355558832748
 21
1184.3680776910023
  0
LINE
  8
_0-4_05_CENTER
  6
CENTER2
 62
    4
 10
1619.676606694685
 20
1215.0270268761542
 11
1619.676606694685
 21
1233.7091284989604
  0
CIRCLE
  8
_0-3_0
  6
CONTINUOUS
 62
   18
 10
1619.676606694685
 20
1224.3680776875426
 40
6
  0
LINE
  8
_0-4_05_CENTER
  6
CENTER2
 62
    4
 10
1629.0176575060736
 20
1224.3680776875426
 11
1610.3355558832748
 21
1224.3680776875426
  0
LINE
  8
_0-4_05_CENTER
  6
CENTER2
 62
    4
 10
1779.6766066946959
 20
1175.0270268796285
 11
1779.6766066946959
 21
1193.7091285024344
  0
CIRCLE
  8
_0-3_0
  6
CONTINUOUS
 62
   18
 10
1779.6766066946959
 20
1184.3680776910169
 40
6
  0
LINE
  8
_0-4_05_CENTER
  6
CENTER2
 62
    4
 10
1789.0176575060843
 20
1184.3680776910169
 11
1770.3355558832857
 21
1184.3680776910169
  0
LINE
  8
_0-4_05_CENTER
  6
CENTER2
 62
    4
 10
1939.6766066946959
 20
1215.0270268761542
 11
1939.6766066946959
 21
1233.7091284989604
  0
CIRCLE
  8
_0-3_0
  6
CONTINUOUS
 62
   18
 10
1939.6766066946959
 20
1224.3680776875426
 40
6
  0
LINE
  8
_0-4_05_CENTER
  6
CENTER2
 62
    4
 10
1949.0176575060843
 20
1224.3680776875426
 11
1930.3355558832857
 21
1224.3680776875426
  0
LINE
  8
_0-4_05_CENTER
  6
CENTER2
 62
    4
 10
2099.6766066946961
 20
1175.0270268796285
 11
2099.6766066946961
 21
1193.7091285024344
  0
CIRCLE
  8
_0-3_0
  6
CONTINUOUS
 62
   18
 10
2099.6766066946961
 20
1184.3680776910169
 40
6
  0
LINE
  8
_0-4_05_CENTER
  6
CENTER2
 62
    4
 10
2109.0176575060841
 20
1184.3680776910169
 11
2090.3355558832855
 21
1184.3680776910169
  0
LINE
  8
_0-4_05_CENTER
  6
CENTER2
 62
    4
 10
3059.6766066955292
 20
1175.0270268796285
 11
3059.6766066955292
 21
1193.7091285024344
  0
CIRCLE
  8
_0-3_0
  6
CONTINUOUS
 62
   18
 10
3059.6766066955292
 20
1184.3680776910169
 40
6
  0
LINE
  8
_0-4_05_CENTER
  6
CENTER2
 62
    4
 10
3050.3355558841404
 20
1184.3680776910169
 11
3069.017657506939
 21
1184.3680776910169
  0
LINE
  8
_0-4_05_CENTER
  6
CENTER2
 62
    4
 10
2899.6766066963805
 20
1215.0270268761542
 11
2899.6766066963805
 21
1233.7091284989604
  0
CIRCLE
  8
_0-3_0
  6
CONTINUOUS
 62
   18
 10
2899.6766066963805
 20
1224.3680776875426
 40
6
  0
LINE
  8
_0-4_05_CENTER
  6
CENTER2
 62
    4
 10
2890.3355558849917
 20
1224.3680776875426
 11
2909.0176575077835
 21
1224.3680776875426
  0
LINE
  8
_0-4_05_CENTER
  6
CENTER2
 62
    4
 10
2739.6766066963805
 20
1175.0270268796139
 11
2739.6766066963805
 21
1193.7091285024198
  0
CIRCLE
  8
_0-3_0
  6
CONTINUOUS
 62
   18
 10
2739.6766066963805
 20
1184.3680776910023
 40
6
  0
LINE
  8
_0-4_05_CENTER
  6
CENTER2
 62
    4
 10
2730.3355558849917
 20
1184.3680776910023
 11
2749.0176575077835
 21
1184.3680776910023
  0
LINE
  8
_0-4_05_CENTER
  6
CENTER2
 62
    4
 10
2579.6766066963801
 20
1215.0270268761542
 11
2579.6766066963801
 21
1233.7091284989604
  0
CIRCLE
  8
_0-3_0
  6
CONTINUOUS
 62
   18
 10
2579.6766066963801
 20
1224.3680776875426
 40
6
  0
LINE
  8
_0-4_05_CENTER
  6
CENTER2
 62
    4
 10
2570.3355558849921
 20
1224.3680776875426
 11
2589.0176575077835
 21
1224.3680776875426
  0
LINE
  8
_0-4_05_CENTER
  6
CENTER2
 62
    4
 10
2419.6766066963655
 20
1175.0270268796285
 11
2419.6766066963655
 21
1193.7091285024344
  0
CIRCLE
  8
_0-3_0
  6
CONTINUOUS
 62
   18
 10
2419.6766066963655
 20
1184.3680776910169
 40
6
  0
LINE
  8
_0-4_05_CENTER
  6
CENTER2
 62
    4
 10
2410.3355558849771
 20
1184.3680776910169
 11
2429.0176575077762
 21
1184.3680776910169
  0
LINE
  8
_0-4_05_CENTER
  6
CENTER2
 62
    4
 10
2259.676606696366
 20
1215.0270268761542
 11
2259.676606696366
 21
1233.7091284989604
  0
CIRCLE
  8
_0-3_0
  6
CONTINUOUS
 62
   18
 10
2259.676606696366
 20
1224.3680776875426
 40
6
  0
LINE
  8
_0-4_05_CENTER
  6
CENTER2
 62
    4
 10
2250.3355558849771
 20
1224.3680776875426
 11
2269.0176575077758
 21
1224.3680776875426
  0
LINE
  8
_0-3_0
  6
CONTINUOUS
 62
   18
 10
3099.6766066946848
 20
1052.0738574305069
 11
3099.6766066946848
 21
1049.0738574305069
  0
LINE
  8
_0-3_0
  6
CONTINUOUS
 62
   18
 10
3099.6766066946848
 20
1049.0738574305069
 11
1099.676606694685
 21
1049.0738574305069
  0
LINE
  8
_0-3_0
  6
CONTINUOUS
 62
   18
 10
1099.676606694685
 20
1049.0738574305069
 11
1099.676606694685
 21
1052.0738574305069
  0
LINE
  8
_0-3_0
  6
CONTINUOUS
 62
   18
 10
1099.676606694685
 20
1052.0738574305069
 11
3099.6766066946848
 21
1052.0738574305069
  0
LINE
  8
_0-4_05_CENTER
  6
CENTER2
 62
    4
 10
1139.6766066963546
 20
1054.8988983371746
 11
1139.6766066963546
 21
1046.310667939857
  0
LINE
  8
_0-4_05_CENTER
  6
CENTER2
 62
    4
 10
1299.6766066938483
 20
1054.8988983371746
 11
1299.6766066938483
 21
1046.310667939857
  0
LINE
  8
_0-4_05_CENTER
  6
CENTER2
 62
    4
 10
1459.676606693848
 20
1054.8988983371746
 11
1459.676606693848
 21
1046.310667939857
  0
LINE
  8
_0-4_05_CENTER
  6
CENTER2
 62
    4
 10
1619.676606693848
 20
1054.8988983371746
 11
1619.676606693848
 21
1046.310667939857
  0
LINE
  8
_0-4_05_CENTER
  6
CENTER2
 62
    4
 10
1779.6766066938483
 20
1054.8988983371746
 11
1779.6766066938483
 21
1046.310667939857
  0
LINE
  8
_0-4_05_CENTER
  6
CENTER2
 62
    4
 10
1939.6766066938483
 20
1054.8988983371746
 11
1939.6766066938483
 21
1046.310667939857
  0
LINE
  8
_0-4_05_CENTER
  6
CENTER2
 62
    4
 10
2099.6766066938485
 20
1054.8988983371746
 11
2099.6766066938485
 21
1046.310667939857
  0
LINE
  8
_0-4_05_CENTER
  6
CENTER2
 62
    4
 10
3059.6766066946852
 20
1054.8988983371746
 11
3059.6766066946852
 21
1046.310667939857
  0
LINE
  8
_0-4_05_CENTER
  6
CENTER2
 62
    4
 10
2899.676606695522
 20
1054.8988983371746
 11
2899.676606695522
 21
1046.310667939857
  0
LINE
  8
_0-4_05_CENTER
  6
CENTER2
 62
    4
 10
2739.676606695522
 20
1054.8988983371746
 11
2739.676606695522
 21
1046.310667939857
  0
LINE
  8
_0-4_05_CENTER
  6
CENTER2
 62
    4
 10
2579.676606695522
 20
1054.8988983371746
 11
2579.676606695522
 21
1046.310667939857
  0
LINE
  8
_0-4_05_CENTER
  6
CENTER2
 62
    4
 10
2419.6766066955215
 20
1054.8988983371746
 11
2419.6766066955215
 21
1046.310667939857
  0
LINE
  8
_0-4_05_CENTER
  6
CENTER2
 62
    4
 10
2259.6766066955215
 20
1054.8988983371746
 11
2259.6766066955215
 21
1046.310667939857
  0
LINE
  8
_0-4_05_CENTER
  6
CENTER2
 62
    4
 10
1299.6766066946741
 20
1797.9235950691736
 11
2899.6766066963769
 21
1797.9235950691591
  0
LINE
  8
_0-4_05_CENTER
  6
CENTER2
 62
    4
 10
3059.6766066955329
 20
1747.9235950726336
 11
1139.6766066955215
 21
1747.9235950726336
  0
LINE
  8
_0-4_05_CENTER
  6
CENTER2
 62
    4
 10
1299.6766066946741
 20
1224.3680776875426
 11
2899.6766066963769
 21
1224.3680776875281
  0
LINE
  8
_0-4_05_CENTER
  6
CENTER2
 62
    4
 10
3059.6766066955397
 20
1184.3680776910314
 11
1139.6766066955288
 21
1184.3680776910314
  0
LINE
  8
_0-2_08_DIM
  6
CONTINUOUS
 62
    3
 10
1008.2939460740764
 20
1371.3767409291384
 11
1084.9935965389986
 21
1371.3767409291384
  0
INSERT
  2
-000-p1ba05
  8
_0-2_08_DIM
 10
1052.9311539124149
 20
1375.479508454679
 41
4.5
 42
4.5
 50
0
  0
TEXT
  8
_0-0_90_FRAME
 62
    3
 10
2965.541250723998
 20
739.59103962713766
 40
9
 41
1
 50
0
  1
SUS304
  0
TEXT
  8
_0-0_90_FRAME
 62
    3
 10
2790.5663624585009
 20
739.47166248880319
 40
9
 41
1
 50
0
  1
ē¤é”ö┬2
  0
TEXT
  8
_0-0_90_FRAME
 62
    3
 10
3082.1141635349236
 20
718.43909910812977
 40
9
 41
1
 50
0
  1
É¶Å“āPü[āXŚp
  0
INSERT
  2
-001-AM_BALLOON1
  8
_0-2_08_DIM
 10
989.51758254682477
 20
1940.4869634853833
 41
3.75
 42
3.75
 50
0
  0
TEXT
  8
_0-3_0
 62
    7
 10
978.80329683253922
 20
1934.8619634853833
 40
11.250000000000002
 41
1
 50
0
  1
93
  0
LINE
  8
_0-2_08_DIM
  6
CONTINUOUS
 62
    3
 10
1099.8016066955217
 20
1727.9235950683697
 11
1032.6078083773402
 21
1727.9235950683697
  0
LINE
  8
_0-2_08_DIM
  6
CONTINUOUS
 62
    3
 10
1099.8016066955217
 20
1817.9235950724042
 11
1032.6078083773402
 21
1817.9235950724042
  0
LINE
  8
_0-2_08_DIM
  6
CONTINUOUS
 62
    3
 10
1036.3578083773402
 20
1735.4235950683697
 11
1036.3578083773402
 21
1810.4235950724042
  0
INSERT
  2
-002-_Open30
  8
_0-2_08_DIM
 10
1036.3578083773402
 20
1727.9235950683697
 41
7.5
 42
7.5
 50
270
  0
INSERT
  2
-002-_Open30
  8
_0-2_08_DIM
 10
1036.3578083773402
 20
1817.9235950724042
 41
7.5
 42
7.5
 50
90
  0
LINE
  8
_0-2_08_DIM
  6
CONTINUOUS
 62
    3
 10
1128.4605558841115
 20
1747.9235950726336
 11
1066.1024287595694
 21
1747.9235950726336
  0
LINE
  8
_0-2_08_DIM
  6
CONTINUOUS
 62
    3
 10
1288.4605558832675
 20
1797.9235950691591
 11
1066.1024287595694
 21
1797.9235950691595
  0
LINE
  8
_0-2_08_DIM
  6
CONTINUOUS
 62
    3
 10
1069.8524287595694
 20
1755.4235950726336
 11
1069.8524287595694
 21
1790.4235950691595
  0
INSERT
  2
-002-_Open30
  8
_0-2_08_DIM
 10
1069.8524287595694
 20
1747.9235950726336
 41
7.5
 42
7.5
 50
270
  0
INSERT
  2
-002-_Open30
  8
_0-2_08_DIM
 10
1069.8524287595694
 20
1797.9235950691595
 41
7.5
 42
7.5
 50
90
  0
LINE
  8
_0-2_08_DIM
  6
CONTINUOUS
 62
    3
 10
1128.4605558841115
 20
1747.9235950726336
 11
1066.1024287595694
 21
1747.9235950726336
  0
LINE
  8
_0-2_08_DIM
  6
CONTINUOUS
 62
    3
 10
1099.8016066955217
 20
1727.9235950683697
 11
1066.1024287595694
 21
1727.9235950683697
  0
LINE
  8
_0-2_08_DIM
  6
CONTINUOUS
 62
    3
 10
1069.8524287595694
 20
1740.4235950726336
 11
1069.8524287595694
 21
1735.4235950683697
  0
INSERT
  2
-002-_Open30
  8
_0-2_08_DIM
 10
1069.8524287595694
 20
1747.9235950726336
 41
7.5
 42
7.5
 50
90
  0
INSERT
  2
-002-_Open30
  8
_0-2_08_DIM
 10
1069.8524287595694
 20
1727.9235950683697
 41
7.5
 42
7.5
 50
270
  0
LINE
  8
_0-2_08_DIM
  6
CONTINUOUS
 62
    3
 10
1139.6766066955215
 20
1759.1396458840509
 11
1139.6766066955215
 21
1860.9107633462756
  0
LINE
  8
_0-2_08_DIM
  6
CONTINUOUS
 62
    3
 10
1299.6766066946741
 20
1809.1396458805768
 11
1299.6766066946741
 21
1860.9107633462756
  0
LINE
  8
_0-2_08_DIM
  6
CONTINUOUS
 62
    3
 10
1147.1766066955217
 20
1857.1607633462754
 11
1292.1766066946739
 21
1857.1607633462754
  0
INSERT
  2
-002-_Open30
  8
_0-2_08_DIM
 10
1139.6766066955215
 20
1857.1607633462754
 41
7.5
 42
7.5
 50
180
  0
INSERT
  2
-002-_Open30
  8
_0-2_08_DIM
 10
1299.6766066946741
 20
1857.1607633462754
 41
7.5
 42
7.5
 50
0
  0
LINE
  8
_0-2_08_DIM
  6
CONTINUOUS
 62
    3
 10
1099.6766066955215
 20
1817.7985950683694
 11
1099.6766066955215
 21
1893.0890529029878
  0
LINE
  8
_0-2_08_DIM
  6
CONTINUOUS
 62
    3
 10
3099.6766066955215
 20
1817.7985950683694
 11
3099.6766066955215
 21
1893.0890529029878
  0
LINE
  8
_0-2_08_DIM
  6
CONTINUOUS
 62
    3
 10
1107.1766066955215
 20
1889.3390529029875
 11
3092.176606695522
 21
1889.3390529029875
  0
INSERT
  2
-002-_Open30
  8
_0-2_08_DIM
 10
1099.6766066955215
 20
1889.3390529029875
 41
7.5
 42
7.5
 50
180
  0
INSERT
  2
-002-_Open30
  8
_0-2_08_DIM
 10
3099.6766066955215
 20
1889.3390529029875
 41
7.5
 42
7.5
 50
0
  0
LINE
  8
_0-2_08_DIM
  6
CONTINUOUS
 62
    3
 10
1139.6766066955215
 20
1736.7075442612452
 11
1139.6766066955215
 21
1669.6414610318045
  0
LINE
  8
_0-2_08_DIM
  6
CONTINUOUS
 62
    3
 10
3059.6766066963514
 20
1739.0485950726477
 11
3059.6766066963514
 21
1669.6414610318045
  0
LINE
  8
_0-2_08_DIM
  6
CONTINUOUS
 62
    3
 10
1147.1766066955217
 20
1673.3914610318043
 11
3052.1766066963514
 21
1673.3914610318043
  0
INSERT
  2
-002-_Open30
  8
_0-2_08_DIM
 10
1139.6766066955215
 20
1673.3914610318043
 41
7.5
 42
7.5
 50
180
  0
INSERT
  2
-002-_Open30
  8
_0-2_08_DIM
 10
3059.6766066963514
 20
1673.3914610318043
 41
7.5
 42
7.5
 50
0
  0
LINE
  8
_0-2_08_DIM
  6
CONTINUOUS
 62
    3
 10
1139.6766066955215
 20
1736.7075442612452
 11
1139.6766066955215
 21
1669.6414610318045
  0
LINE
  8
_0-2_08_DIM
  6
CONTINUOUS
 62
    3
 10
1099.6766066955215
 20
1728.0485950724042
 11
1099.6766066955215
 21
1669.6414610318045
  0
LINE
  8
_0-2_08_DIM
  6
CONTINUOUS
 62
    3
 10
1132.1766066955215
 20
1673.3914610318043
 11
1107.1766066955215
 21
1673.3914610318043
  0
INSERT
  2
-002-_Open30
  8
_0-2_08_DIM
 10
1139.6766066955215
 20
1673.3914610318043
 41
7.5
 42
7.5
 50
0
  0
INSERT
  2
-002-_Open30
  8
_0-2_08_DIM
 10
1099.6766066955215
 20
1673.3914610318043
 41
7.5
 42
7.5
 50
180
  0
LINE
  8
_0-2_08_DIM
  6
CONTINUOUS
 62
    3
 10
1128.4605558841115
 20
1184.3680776910023
 11
1066.1024287595694
 21
1184.3680776910023
  0
LINE
  8
_0-2_08_DIM
  6
CONTINUOUS
 62
    3
 10
1288.4605558832675
 20
1224.3680776875281
 11
1066.1024287595694
 21
1224.3680776875281
  0
LINE
  8
_0-2_08_DIM
  6
CONTINUOUS
 62
    3
 10
1069.8524287595694
 20
1191.8680776910023
 11
1069.8524287595694
 21
1216.8680776875281
  0
INSERT
  2
-002-_Open30
  8
_0-2_08_DIM
 10
1069.8524287595694
 20
1184.3680776910023
 41
7.5
 42
7.5
 50
270
  0
INSERT
  2
-002-_Open30
  8
_0-2_08_DIM
 10
1069.8524287595694
 20
1224.3680776875281
 41
7.5
 42
7.5
 50
90
  0
LINE
  8
_0-2_08_DIM
  6
CONTINUOUS
 62
    3
 10
1128.4605558841115
 20
1184.3680776910023
 11
1066.1024287595694
 21
1184.3680776910023
  0
LINE
  8
_0-2_08_DIM
  6
CONTINUOUS
 62
    3
 10
1099.8016066955217
 20
1164.3680776867386
 11
1066.1024287595694
 21
1164.3680776867386
  0
LINE
  8
_0-2_08_DIM
  6
CONTINUOUS
 62
    3
 10
1069.8524287595694
 20
1176.8680776910023
 11
1069.8524287595694
 21
1171.8680776867386
  0
INSERT
  2
-002-_Open30
  8
_0-2_08_DIM
 10
1069.8524287595694
 20
1184.3680776910023
 41
7.5
 42
7.5
 50
90
  0
INSERT
  2
-002-_Open30
  8
_0-2_08_DIM
 10
1069.8524287595694
 20
1164.3680776867386
 41
7.5
 42
7.5
 50
270
  0
LINE
  8
_0-2_08_DIM
  6
CONTINUOUS
 62
    3
 10
1459.6766066946741
 20
1759.1396458840509
 11
1459.6766066946741
 21
1860.9107633462756
  0
LINE
  8
_0-2_08_DIM
  6
CONTINUOUS
 62
    3
 10
1299.6766066946741
 20
1809.1396458805768
 11
1299.6766066946741
 21
1860.9107633462756
  0
LINE
  8
_0-2_08_DIM
  6
CONTINUOUS
 62
    3
 10
1452.1766066946741
 20
1857.1607633462754
 11
1307.1766066946741
 21
1857.1607633462754
  0
INSERT
  2
-002-_Open30
  8
_0-2_08_DIM
 10
1459.6766066946741
 20
1857.1607633462754
 41
7.5
 42
7.5
 50
0
  0
INSERT
  2
-002-_Open30
  8
_0-2_08_DIM
 10
1299.6766066946741
 20
1857.1607633462754
 41
7.5
 42
7.5
 50
180
  0
LINE
  8
_0-2_08_DIM
  6
CONTINUOUS
 62
    3
 10
1231.378170292229
 20
1692.2419451577471
 11
1166.8031702922283
 21
1692.2419451577471
  0
LINE
  8
_0-2_08_DIM
  6
CONTINUOUS
 62
    3
 10
1166.8031702922283
 20
1692.2419451577471
 11
1145.5891244963248
 21
1735.787198026755
  0
INSERT
  2
-002-_Open30
  8
_0-2_08_DIM
 10
1142.304392384767
 20
1742.5296408300208
 41
7.5
 42
7.5
 50
115.97406626183574
  0
LINE
  8
_0-2_08_DIM
  6
CONTINUOUS
 62
    3
 10
3059.676606695522
 20
1736.7075442612452
 11
3059.676606695522
 21
1669.6414610318045
  0
LINE
  8
_0-2_08_DIM
  6
CONTINUOUS
 62
    3
 10
3099.6766066955215
 20
1728.0485950724042
 11
3099.6766066955215
 21
1669.6414610318045
  0
LINE
  8
_0-2_08_DIM
  6
CONTINUOUS
 62
    3
 10
3067.1766066955215
 20
1673.3914610318043
 11
3092.176606695522
 21
1673.3914610318043
  0
INSERT
  2
-002-_Open30
  8
_0-2_08_DIM
 10
3059.676606695522
 20
1673.3914610318043
 41
7.5
 42
7.5
 50
180
  0
INSERT
  2
-002-_Open30
  8
_0-2_08_DIM
 10
3099.6766066955215
 20
1673.3914610318043
 41
7.5
 42
7.5
 50
0
  0
LINE
  8
_0-2_08_DIM
  6
CONTINUOUS
 62
    3
 10
986.41074139462773
 20
1819.7985950724044
 11
986.41074139462773
 21
1856.9876516809081
  0
LINE
  8
_0-2_08_DIM
  6
CONTINUOUS
 62
    3
 10
989.41074139462773
 20
1819.7985950724044
 11
989.41074139462773
 21
1856.9876516809081
  0
LINE
  8
_0-2_08_DIM
  6
CONTINUOUS
 62
    3
 10
978.91074139462773
 20
1853.2376516809084
 11
971.41074139462762
 21
1853.2376516809084
  0
LINE
  8
_0-2_08_DIM
  6
CONTINUOUS
 62
    3
 10
996.91074139462773
 20
1853.2376516809084
 11
1014.1607413946277
 21
1853.2376516809084
  0
LINE
  8
_0-2_08_DIM
  6
CONTINUOUS
 62
    3
 10
986.41074139462773
 20
1853.2376516809084
 11
989.41074139462773
 21
1853.2376516809084
  0
INSERT
  2
-002-_Open30
  8
_0-2_08_DIM
 10
986.41074139462773
 20
1853.2376516809084
 41
7.5
 42
7.5
 50
0
  0
INSERT
  2
-002-_Open30
  8
_0-2_08_DIM
 10
989.41074139462773
 20
1853.2376516809084
 41
7.5
 42
7.5
 50
180
  0
LINE
  8
_0-2_08_DIM
  6
CONTINUOUS
 62
    3
 10
1095.3733058366224
 20
1723.6202942094706
 11
1061.3526939718561
 21
1689.5996823447042
  0
INSERT
  2
-002-_Open30
  8
_0-2_08_DIM
 10
1100.6766066955215
 20
1728.9235950683697
 41
7.5
 42
7.5
 50
45
  0
LINE
  8
_0-2_08_DIM
  6
CONTINUOUS
 62
    3
 10
1099.801606695529
 20
1164.3680776867532
 11
1032.6078083773473
 21
1164.3680776867532
  0
LINE
  8
_0-2_08_DIM
  6
CONTINUOUS
 62
    3
 10
1099.801606695529
 20
1244.3680776907879
 11
1032.6078083773475
 21
1244.3680776907879
  0
LINE
  8
_0-2_08_DIM
  6
CONTINUOUS
 62
    3
 10
1036.3578083773473
 20
1171.8680776867532
 11
1036.3578083773473
 21
1236.8680776907877
  0
INSERT
  2
-002-_Open30
  8
_0-2_08_DIM
 10
1036.3578083773473
 20
1164.3680776867532
 41
7.5
 42
7.5
 50
270
  0
INSERT
  2
-002-_Open30
  8
_0-2_08_DIM
 10
1036.3578083773473
 20
1244.3680776907879
 41
7.5
 42
7.5
 50
90
  0
LINE
  8
_0-2_08_DIM
  6
CONTINUOUS
 62
    3
 10
1139.6766066955288
 20
1195.5841285024344
 11
1139.6766066955288
 21
1287.3552459646589
  0
LINE
  8
_0-2_08_DIM
  6
CONTINUOUS
 62
    3
 10
1299.6766066946848
 20
1235.5841284989601
 11
1299.6766066946848
 21
1287.3552459646589
  0
LINE
  8
_0-2_08_DIM
  6
CONTINUOUS
 62
    3
 10
1147.176606695529
 20
1283.6052459646589
 11
1292.1766066946848
 21
1283.6052459646589
  0
INSERT
  2
-002-_Open30
  8
_0-2_08_DIM
 10
1139.6766066955288
 20
1283.6052459646589
 41
7.5
 42
7.5
 50
180
  0
INSERT
  2
-002-_Open30
  8
_0-2_08_DIM
 10
1299.6766066946848
 20
1283.6052459646589
 41
7.5
 42
7.5
 50
0
  0
LINE
  8
_0-2_08_DIM
  6
CONTINUOUS
 62
    3
 10
1099.6766066955288
 20
1244.2430776867532
 11
1099.6766066955288
 21
1319.533535521371
  0
LINE
  8
_0-2_08_DIM
  6
CONTINUOUS
 62
    3
 10
3099.6766066955292
 20
1254.2430776867532
 11
3099.6766066955292
 21
1319.533535521371
  0
LINE
  8
_0-2_08_DIM
  6
CONTINUOUS
 62
    3
 10
1107.176606695529
 20
1315.783535521371
 11
3092.1766066955292
 21
1315.783535521371
  0
INSERT
  2
-002-_Open30
  8
_0-2_08_DIM
 10
1099.6766066955288
 20
1315.783535521371
 41
7.5
 42
7.5
 50
180
  0
INSERT
  2
-002-_Open30
  8
_0-2_08_DIM
 10
3099.6766066955292
 20
1315.783535521371
 41
7.5
 42
7.5
 50
0
  0
LINE
  8
_0-2_08_DIM
  6
CONTINUOUS
 62
    3
 10
1139.6766066955288
 20
1173.1520268796285
 11
1139.6766066955288
 21
1106.0859436501878
  0
LINE
  8
_0-2_08_DIM
  6
CONTINUOUS
 62
    3
 10
3059.6766066963582
 20
1175.4930776910314
 11
3059.6766066963582
 21
1106.0859436501878
  0
LINE
  8
_0-2_08_DIM
  6
CONTINUOUS
 62
    3
 10
1147.176606695529
 20
1109.8359436501878
 11
3052.1766066963582
 21
1109.8359436501878
  0
INSERT
  2
-002-_Open30
  8
_0-2_08_DIM
 10
1139.6766066955288
 20
1109.8359436501878
 41
7.5
 42
7.5
 50
180
  0
INSERT
  2
-002-_Open30
  8
_0-2_08_DIM
 10
3059.6766066963582
 20
1109.8359436501878
 41
7.5
 42
7.5
 50
0
  0
LINE
  8
_0-2_08_DIM
  6
CONTINUOUS
 62
    3
 10
1139.6766066955288
 20
1173.1520268796285
 11
1139.6766066955288
 21
1106.0859436501878
  0
LINE
  8
_0-2_08_DIM
  6
CONTINUOUS
 62
    3
 10
1099.6766066955288
 20
1164.4930776907877
 11
1099.6766066955288
 21
1106.0859436501878
  0
LINE
  8
_0-2_08_DIM
  6
CONTINUOUS
 62
    3
 10
1132.1766066955288
 20
1109.8359436501878
 11
1107.176606695529
 21
1109.8359436501878
  0
INSERT
  2
-002-_Open30
  8
_0-2_08_DIM
 10
1139.6766066955288
 20
1109.8359436501878
 41
7.5
 42
7.5
 50
0
  0
INSERT
  2
-002-_Open30
  8
_0-2_08_DIM
 10
1099.6766066955288
 20
1109.8359436501878
 41
7.5
 42
7.5
 50
180
  0
LINE
  8
_0-2_08_DIM
  6
CONTINUOUS
 62
    3
 10
1459.6766066946811
 20
1195.5841285024346
 11
1459.6766066946811
 21
1287.3552459646589
  0
LINE
  8
_0-2_08_DIM
  6
CONTINUOUS
 62
    3
 10
1299.6766066946848
 20
1235.5841284989601
 11
1299.6766066946848
 21
1287.3552459646589
  0
LINE
  8
_0-2_08_DIM
  6
CONTINUOUS
 62
    3
 10
1452.1766066946814
 20
1283.6052459646589
 11
1307.1766066946848
 21
1283.6052459646589
  0
INSERT
  2
-002-_Open30
  8
_0-2_08_DIM
 10
1459.6766066946811
 20
1283.6052459646589
 41
7.5
 42
7.5
 50
0
  0
INSERT
  2
-002-_Open30
  8
_0-2_08_DIM
 10
1299.6766066946848
 20
1283.6052459646589
 41
7.5
 42
7.5
 50
180
  0
LINE
  8
_0-2_08_DIM
  6
CONTINUOUS
 62
    3
 10
1231.3781702922365
 20
1128.6864277761306
 11
1166.8031702922362
 21
1128.6864277761306
  0
LINE
  8
_0-2_08_DIM
  6
CONTINUOUS
 62
    3
 10
1166.8031702922362
 20
1128.6864277761306
 11
1145.5891244963323
 21
1172.231680645139
  0
INSERT
  2
-002-_Open30
  8
_0-2_08_DIM
 10
1142.3043923847749
 20
1178.9741234484043
 41
7.5
 42
7.5
 50
115.97406626183619
  0
LINE
  8
_0-2_08_DIM
  6
CONTINUOUS
 62
    3
 10
3059.6766066955292
 20
1173.1520268796285
 11
3059.6766066955292
 21
1106.0859436501878
  0
LINE
  8
_0-2_08_DIM
  6
CONTINUOUS
 62
    3
 10
3099.6766066955292
 20
1164.4930776907877
 11
3099.6766066955292
 21
1106.0859436501878
  0
LINE
  8
_0-2_08_DIM
  6
CONTINUOUS
 62
    3
 10
3067.1766066955292
 20
1109.8359436501878
 11
3092.1766066955292
 21
1109.8359436501878
  0
INSERT
  2
-002-_Open30
  8
_0-2_08_DIM
 10
3059.6766066955292
 20
1109.8359436501878
 41
7.5
 42
7.5
 50
180
  0
INSERT
  2
-002-_Open30
  8
_0-2_08_DIM
 10
3099.6766066955292
 20
1109.8359436501878
 41
7.5
 42
7.5
 50
0
  0
LINE
  8
_0-2_08_DIM
  6
CONTINUOUS
 62
    3
 10
986.41074139463501
 20
1246.2430776907877
 11
986.41074139463501
 21
1283.4321342992916
  0
LINE
  8
_0-2_08_DIM
  6
CONTINUOUS
 62
    3
 10
989.41074139463501
 20
1246.2430776907877
 11
989.41074139463501
 21
1283.4321342992916
  0
LINE
  8
_0-2_08_DIM
  6
CONTINUOUS
 62
    3
 10
978.91074139463501
 20
1279.6821342992916
 11
971.41074139463501
 21
1279.6821342992916
  0
LINE
  8
_0-2_08_DIM
  6
CONTINUOUS
 62
    3
 10
996.91074139463501
 20
1279.6821342992916
 11
1014.160741394635
 21
1279.6821342992916
  0
LINE
  8
_0-2_08_DIM
  6
CONTINUOUS
 62
    3
 10
986.41074139463501
 20
1279.6821342992916
 11
989.41074139463501
 21
1279.6821342992916
  0
INSERT
  2
-002-_Open30
  8
_0-2_08_DIM
 10
986.41074139463501
 20
1279.6821342992916
 41
7.5
 42
7.5
 50
0
  0
INSERT
  2
-002-_Open30
  8
_0-2_08_DIM
 10
989.41074139463501
 20
1279.6821342992916
 41
7.5
 42
7.5
 50
180
  0
LINE
  8
_0-2_08_DIM
  6
CONTINUOUS
 62
    3
 10
1095.3733058366297
 20
1160.0647768278541
 11
1061.3526939718631
 21
1126.0441649630875
  0
INSERT
  2
-002-_Open30
  8
_0-2_08_DIM
 10
1100.6766066955288
 20
1165.3680776867532
 41
7.5
 42
7.5
 50
45
  0
INSERT
  2
-001-AM_BALLOON1
  8
_0-2_08_DIM
 10
989.51758254682477
 20
1371.4008988185251
 41
3.75
 42
3.75
 50
0
  0
TEXT
  8
_0-3_0
 62
    7
 10
978.53543968968211
 20
1365.7758988185253
 40
11.250000000000002
 41
1
 50
0
  1
94
  0
TEXT
  8
_0-5_07_TEXT
 62
    3
 10
3001.4444192171759
 20
863.22715907370582
 40
9
 41
1
 50
0
  1
ÆŹŗL
  0
TEXT
  8
_0-5_07_TEXT
 62
    3
 10
3002.1644192171752
 20
846.49015907370574
 40
9
 41
1
 50
0
  1
ü@ÄwÄ”é╚é½ŖpĢöé═
  0
TEXT
  8
_0-5_07_TEXT
 62
    3
 10
3099.1394192171742
 20
846.49015907370574
 40
9
 41
1
 50
0
  1
C0.5
  0
TEXT
  8
_0-5_07_TEXT
 62
    3
 10
3129.5679906457462
 20
846.49015907370574
 40
9
 41
1
 50
0
  1
é╠é▒éŲ
  0
TEXT
  8
_0-2_08_DIM
 62
    3
 10
1034.48280837734
 20
1764.3521664989585
 40
9
 41
1
 50
90
  1
90
  0
TEXT
  8
_0-2_08_DIM
 62
    3
 10
1067.977428759569
 20
1764.3521664994676
 40
9
 41
1
 50
90
  1
50
  0
TEXT
  8
_0-2_08_DIM
 62
    3
 10
1067.977428759569
 20
1729.3521664990731
 40
9
 41
1
 50
90
  1
20
  0
TEXT
  8
_0-2_08_DIM
 62
    3
 10
1206.1766066950979
 20
1859.0357633462754
 40
9
 41
1
 50
0
  1
160
  0
TEXT
  8
_0-2_08_DIM
 62
    3
 10
2082.5337495526646
 20
1891.2140529029875
 40
9
 41
1
 50
0
  1
2000
  0
TEXT
  8
_0-2_08_DIM
 62
    3
 10
2051.2480352673647
 20
1675.2664610318043
 40
9
 41
1
 50
0
  1
12x160=1920
  0
TEXT
  8
_0-2_08_DIM
 62
    3
 10
1111.1051781240931
 20
1675.2664610318043
 40
9
 41
1
 50
0
  1
40
  0
TEXT
  8
_0-2_08_DIM
 62
    3
 10
1067.9774287595692
 20
1195.7966491178368
 40
9
 41
1
 50
90
  1
40
  0
TEXT
  8
_0-2_08_DIM
 62
    3
 10
1067.9774287595692
 20
1165.796649117442
 40
9
 41
1
 50
90
  1
20
  0
TEXT
  8
_0-2_08_DIM
 62
    3
 10
1366.1766066946741
 20
1859.0357633462754
 40
9
 41
1
 50
0
  1
160
  0
TEXT
  8
_0-2_08_DIM
 62
    3
 10
1167.8246702922293
 20
1694.6299451577472
 40
9
 41
1
 50
0
  1
13-12
  0
TEXT
  8
_0-2_08_DIM
 62
    3
 10
1213.2532417208006
 20
1694.6299451577472
 40
9
 41
1
 50
0
  1
āLāŖ
  0
TEXT
  8
_0-2_08_DIM
 62
    3
 10
3065.1051781240935
 20
1676.7664610318045
 40
9
 41
1
 50
0
  1
(40)
  0
TEXT
  8
_0-2_08_DIM
 62
    3
 10
1005.0000271089134
 20
1855.1126516809079
 40
9
 41
1
 50
0
  1
3
  0
TEXT
  8
_0-2_08_DIM
 62
    3
 10
1059.8374651550278
 20
1690.736103957325
 40
9
 41
1
 50
45.000000000000149
  1
4-C2
  0
TEXT
  8
_0-2_08_DIM
 62
    3
 10
1034.4828083773473
 20
1195.796649117342
 40
9
 41
1
 50
90
  1
80
  0
TEXT
  8
_0-2_08_DIM
 62
    3
 10
1206.1766066951068
 20
1285.4802459646592
 40
9
 41
1
 50
0
  1
160
  0
TEXT
  8
_0-2_08_DIM
 62
    3
 10
2082.5337495526719
 20
1317.6585355213713
 40
9
 41
1
 50
0
  1
2000
  0
TEXT
  8
_0-2_08_DIM
 62
    3
 10
2051.248035267372
 20
1111.7109436501878
 40
9
 41
1
 50
0
  1
12x160=1920
  0
TEXT
  8
_0-2_08_DIM
 62
    3
 10
1111.1051781241003
 20
1111.7109436501878
 40
9
 41
1
 50
0
  1
40
  0
TEXT
  8
_0-2_08_DIM
 62
    3
 10
1366.1766066946832
 20
1285.4802459646592
 40
9
 41
1
 50
0
  1
160
  0
TEXT
  8
_0-2_08_DIM
 62
    3
 10
1167.8246702922368
 20
1131.0744277761305
 40
9
 41
1
 50
0
  1
13-12
  0
TEXT
  8
_0-2_08_DIM
 62
    3
 10
1213.2532417208081
 20
1131.0744277761305
 40
9
 41
1
 50
0
  1
āLāŖ
  0
TEXT
  8
_0-2_08_DIM
 62
    3
 10
3065.1051781241003
 20
1113.210943650188
 40
9
 41
1
 50
0
  1
(40)
  0
TEXT
  8
_0-2_08_DIM
 62
    3
 10
1005.0000271089207
 20
1281.5571342992914
 40
9
 41
1
 50
0
  1
3
  0
TEXT
  8
_0-2_08_DIM
 62
    3
 10
1059.8374651550348
 20
1127.1805865757087
 40
9
 41
1
 50
45.000000000000078
  1
4-C2
  0
TEXT
  8
_0-0_90_FRAME
 62
    3
 10
1137.1091218230358
 20
196.07612876981361
 40
9
 41
1
 50
0
  1
Äøōc
  0
TEXT
  8
_0-0_90_FRAME
 62
    3
 10
907.22430433092632
 20
196.07612876981361
 40
9
 41
0.6500000000000001
 50
0
  1
2013.09.01
  0
TEXT
  8
_0-0_90_FRAME
 62
    3
 10
967.19936637045896
 20
196.07612876981361
 40
9
 41
1
 50
0
  1
āGāAü[ö▓é½ÆŪē┴
  0
TEXT
  8
_0-8_
 62
    7
 10
1483.5748612802511
 20
200.59922285908272
 40
28.495492762395063
 41
1
 50
0
  1
A3ü@150%
  0
ENDSEC
  0
EOF
