  0
SECTION
  2
HEADER
  9
$ACADVER
  1
AC1009
  9
$INSBASE
 10
0
 20
0
 30
0
  9
$EXTMIN
 10
0
 20
0
  9
$EXTMAX
 10
6648.948311225513
 20
4701.7563057951838
  9
$LIMMIN
 10
0
 20
0
  9
$LIMMAX
 10
6648.948311225513
 20
4701.7563057951838
  9
$LTSCALE
 40
15.830829312441697
  0
ENDSEC
  0
SECTION
  2
TABLES
  0
TABLE
  2
LTYPE
 70
     9
  0
LTYPE
  2
CONTINUOUS
 70
    64
  3
実線
 72
    65
 73
     0
 40
0.0
  0
LTYPE
  2
DASHED1
 70
    64
  3
--  --  --  --  --  --  --  --  
 72
    65
 73
     2
 40
2.5
 49
1.25
 49
-1.25
  0
LTYPE
  2
DASHED2
 70
    64
  3
----    ----    ----    ----    
 72
    65
 73
     2
 40
5.0
 49
2.5
 49
-2.5
  0
LTYPE
  2
DASHED3
 70
    64
  3
------  ------  ------  ------  
 72
    65
 73
     2
 40
5.0
 49
3.75
 49
-1.25
  0
LTYPE
  2
CENTER1
 70
    64
  3
----- - ----- - ----- - ----- - 
 72
    65
 73
     4
 40
10.0
 49
6.25
 49
-1.25
 49
1.25
 49
-1.25
  0
LTYPE
  2
CENTER2
 70
    64
  3
----------  --  ----------  --  
 72
    65
 73
     4
 40
20.0
 49
12.5
 49
-2.5
 49
2.5
 49
-2.5
  0
LTYPE
  2
PHANTOM1
 70
    64
  3
--- - - --- - - --- - - --- - - 
 72
    65
 73
     6
 40
10.0
 49
3.25
 49
-1.25
 49
1.25
 49
-1.25
 49
1.25
 49
-1.25
  0
LTYPE
  2
PHANTOM2
 70
    64
  3
--------  -  -  --------  -  -  
 72
    65
 73
     6
 40
20.0
 49
10.0
 49
-2.5
 49
1.25
 49
-2.5
 49
1.25
 49
-2.5
  0
LTYPE
  2
DOT
 70
    64
  3
-   -   -   -   -   -   -   -   
 72
    65
 73
     2
 40
2.5
 49
0.625
 49
-1.875
  0
LTYPE
  2
DUMMY
 70
    64
  3
ダミー
 72
    65
 73
     0
 40
0.0
  0
LTYPE
  2
RAND1
 70
    64
  3
ランダム線1
 72
    65
 73
     4
 40
10.0
 49
1.0
 49
-2.0
 49
3.0
 49
-4.0
  0
LTYPE
  2
RAND2
 70
    64
  3
ランダム線2
 72
    65
 73
     4
 40
14.0
 49
2.0
 49
-3.0
 49
4.0
 49
-5.0
  0
LTYPE
  2
RAND3
 70
    64
  3
ランダム線3
 72
    65
 73
     4
 40
18.0
 49
3.0
 49
-4.0
 49
5.0
 49
-6.0
  0
LTYPE
  2
RAND4
 70
    64
  3
ランダム線4
 72
    65
 73
     4
 40
22.0
 49
4.0
 49
-5.0
 49
6.0
 49
-7.0
  0
LTYPE
  2
RAND5
 70
    64
  3
ランダム線5
 72
    65
 73
     4
 40
26.0
 49
5.0
 49
-6.0
 49
7.0
 49
-8.0
  0
LTYPE
  2
LONG1
 70
    64
  3
----------  --  ----------  --  
 72
    65
 73
     4
 40
40.0
 49
32.5
 49
-2.5
 49
2.5
 49
-2.5
  0
LTYPE
  2
LONG2
 70
    64
  3
--------  -  -  --------  -  -  
 72
    65
 73
     6
 40
40.0
 49
30.0
 49
-2.5
 49
1.25
 49
-2.5
 49
1.25
 49
-2.5
  0
LTYPE
  2
LONG3
 70
    64
  3
+++++++++++++++..+++++++++++++++
 72
    65
 73
     2
 40
40.0
 49
37.5
 49
-2.5
  0
LTYPE
  2
LONG4
 70
    64
  3
+++++++++++++++..+++++++++++++++
 72
    65
 73
     2
 40
80.0
 49
75.0
 49
-5.0
  0
LTYPE
  2
LONG5
 70
    64
  3
----------  --  ----------  --  
 72
    65
 73
     4
 40
60.0
 49
37.5
 49
-7.5
 49
7.5
 49
-7.5
  0
LTYPE
  2
dashed
 70
   64
  3
-------   -------------   ------
 72
   65
 73
    2
 40
7.5
 49
6
 49
-1.5
  0
LTYPE
  2
dashed_spaced
 70
   64
  3
----        --------        ----
 72
   65
 73
    2
 40
12
 49
6
 49
-6
  0
LTYPE
  2
long_dashed_dotted
 70
   64
  3
------------- --- --------------
 72
   65
 73
    4
 40
15.25
 49
12
 49
-1.5
 49
0.25
 49
-1.5
  0
LTYPE
  2
long_dashed_double-dotted
 70
   64
  3
----------- --- --- ------------
 72
   65
 73
    6
 40
17
 49
12
 49
-1.5
 49
0.25
 49
-1.5
 49
0.25
 49
-1.5
  0
LTYPE
  2
long_dashed_triplicate-dotted
 70
   64
  3
--------- --- --- --- ----------
 72
   65
 73
    8
 40
18.75
 49
12
 49
-1.5
 49
0.25
 49
-1.5
 49
0.25
 49
-1.5
 49
0.25
 49
-1.5
  0
LTYPE
  2
dotted
 70
   64
  3
   -       -       -       -    
 72
   65
 73
    2
 40
1.75
 49
0.25
 49
-1.5
  0
LTYPE
  2
chain
 70
   64
  3
-------------- -- --------------
 72
   65
 73
    4
 40
18.5
 49
12
 49
-1.5
 49
3.5
 49
-1.5
  0
LTYPE
  2
chain_double_dash
 70
   64
  3
------------ -- -- -------------
 72
   65
 73
    6
 40
23.5
 49
12
 49
-1.5
 49
3.5
 49
-1.5
 49
3.5
 49
-1.5
  0
LTYPE
  2
dashed_dotted
 70
   64
  3
-----------     -     ----------
 72
   65
 73
    4
 40
9.25
 49
6
 49
-1.5
 49
0.25
 49
-1.5
  0
LTYPE
  2
double-dashed_dotted
 70
   64
  3
------   -----------   -   -----
 72
   65
 73
    6
 40
16.75
 49
6
 49
-1.5
 49
6
 49
-1.5
 49
0.25
 49
-1.5
  0
LTYPE
  2
dashed_double-dotted
 70
   64
  3
---------    -    -    ---------
 72
   65
 73
    6
 40
11
 49
6
 49
-1.5
 49
0.25
 49
-1.5
 49
0.25
 49
-1.5
  0
LTYPE
  2
double-dashed_double-dotted
 70
   64
  3
-----   ---------   -   -   ----
 72
   65
 73
    8
 40
18.5
 49
6
 49
-1.5
 49
6
 49
-1.5
 49
0.25
 49
-1.5
 49
0.25
 49
-1.5
  0
LTYPE
  2
dashed_triplicate-dotted
 70
   64
  3
-------    -    -    -    ------
 72
   65
 73
    8
 40
12.75
 49
6
 49
-1.5
 49
0.25
 49
-1.5
 49
0.25
 49
-1.5
 49
0.25
 49
-1.5
  0
LTYPE
  2
double-dashed_triplicate-dotted
 70
   64
  3
-----  ---------  -  -  -  -----
 72
   65
 73
   10
 40
20.25
 49
6
 49
-1.5
 49
6
 49
-1.5
 49
0.25
 49
-1.5
 49
0.25
 49
-1.5
 49
0.25
 49
-1.5
  0
LTYPE
  2
undefined
 70
   64
  3
--------------------------------
 72
   65
 73
    0
 40
0
  0
LTYPE
  2
_
 70
   64
  3
                                
 72
   65
 73
    0
 40
0
  0
LTYPE
  2
__18
 70
   64
  3
                                
 72
   65
 73
    0
 40
0
  0
LTYPE
  2
__19
 70
   64
  3
                                
 72
   65
 73
    0
 40
0
  0
LTYPE
  2
__20
 70
   64
  3
                                
 72
   65
 73
    0
 40
0
  0
LTYPE
  2
__21
 70
   64
  3
                                
 72
   65
 73
    0
 40
0
  0
LTYPE
  2
__22
 70
   64
  3
                                
 72
   65
 73
    0
 40
0
  0
LTYPE
  2
__23
 70
   64
  3
                                
 72
   65
 73
    0
 40
0
  0
LTYPE
  2
__24
 70
   64
  3
                                
 72
   65
 73
    0
 40
0
  0
LTYPE
  2
__25
 70
   64
  3
                                
 72
   65
 73
    0
 40
0
  0
LTYPE
  2
__26
 70
   64
  3
                                
 72
   65
 73
    0
 40
0
  0
LTYPE
  2
__27
 70
   64
  3
                                
 72
   65
 73
    0
 40
0
  0
LTYPE
  2
__28
 70
   64
  3
                                
 72
   65
 73
    0
 40
0
  0
LTYPE
  2
__29
 70
   64
  3
                                
 72
   65
 73
    0
 40
0
  0
LTYPE
  2
__30
 70
   64
  3
                                
 72
   65
 73
    0
 40
0
  0
LTYPE
  2
__31
 70
   64
  3
                                
 72
   65
 73
    0
 40
0
  0
LTYPE
  2
__32
 70
   64
  3
                                
 72
   65
 73
    0
 40
0
  0
ENDTAB
  0
TABLE
  2
STYLE
  5
3
100
AcDbSymbolTable
 70
     1
  0
STYLE
  5
10
100
AcDbSymbolTableRecord
100
AcDbTextStyleTableRecord
  2
STANDARD
 70
     0
 40
0.0
 41
1.0
 50
0.0
 71
     0
 42
0.2
  3
txt
  4
bigfont.shx
  0
STYLE
  5
26
100
AcDbSymbolTableRecord
100
AcDbTextStyleTableRecord
  2
TATEGAKI
 70
    68
 40
0.0
 41
1.0
 50
0.0
 71
     0
 42
1.0
  3
txt
  4
bigfont.shx
  0
ENDTAB
  0
TABLE
  2
LAYER
 70
   10
  0
LAYER
  2
_0-0_90_FRAME
 70
   64
 62
    7
  6
CONTINUOUS
  0
LAYER
  2
_0-1_91_BLANK
 70
   64
 62
    7
  6
CONTINUOUS
  0
LAYER
  2
_0-2_08_DIM
 70
   64
 62
    7
  6
CONTINUOUS
  0
LAYER
  2
_0-3_04_HIDDEN
 70
   64
 62
    7
  6
CONTINUOUS
  0
LAYER
  2
_0-4_05_CENTER
 70
   64
 62
    7
  6
CONTINUOUS
  0
LAYER
  2
_0-5_0
 70
   64
 62
    7
  6
CONTINUOUS
  0
LAYER
  2
_0-6_10_DRAFT
 70
   64
 62
    7
  6
CONTINUOUS
  0
LAYER
  2
_0-7_07_TEXT
 70
   64
 62
    7
  6
CONTINUOUS
  0
LAYER
  2
_0-8_
 70
   64
 62
    7
  6
CONTINUOUS
  0
LAYER
  2
ADD_LINE
 70
   64
 62
    7
  6
CONTINUOUS
  0
ENDTAB
  0
ENDSEC
  0
SECTION
  2
BLOCKS
  0
BLOCK
  2
-000-Weld-line
 70
   64
 10
0
 20
0
 30
0
  0
LINE
  8
_0-2_08_DIM
  6
CONTINUOUS
 62
    3
 10
0
 20
0
 11
0.9999999999999998
 21
0
  0
ENDBLK
  0
BLOCK
  2
-001-Weld10-s5
 70
   64
 10
0
 20
0
 30
0
  0
CIRCLE
  8
_0-2_08_DIM
  6
CONTINUOUS
 62
    3
 10
0
 20
0
 40
1.9999999999999998
  0
ENDBLK
  0
BLOCK
  2
-002-Weld10-a1
 70
   64
 10
0
 20
0
 30
0
  0
LINE
  8
_0-2_08_DIM
  6
CONTINUOUS
 62
    3
 10
4.9999999999999991
 20
0
 11
0
 21
4.9999999999999991
  0
LINE
  8
_0-2_08_DIM
  6
CONTINUOUS
 62
    3
 10
0
 20
4.9999999999999991
 11
0
 21
0
  0
LINE
  8
_0-2_08_DIM
  6
CONTINUOUS
 62
    3
 10
0
 20
0
 11
4.9999999999999991
 21
0
  0
ENDBLK
  0
BLOCK
  2
-003-Jis_w20130906110600
 70
   64
 10
0
 20
0
 30
0
  0
INSERT
  2
-000-Weld-line
  8
_0-2_08_DIM
 10
0
 20
0
 41
14.000000000000002
 42
14.000000000000002
 50
0
  0
INSERT
  2
-001-Weld10-s5
  8
_0-2_08_DIM
 10
0
 20
0
 41
1
 42
1
 50
0
  0
INSERT
  2
-002-Weld10-a1
  8
_0-2_08_DIM
 10
5.9999999999999991
 20
0
 41
-1
 42
1
 50
180
  0
TEXT
  8
_0-2_08_DIM
 62
    3
 10
4.0000000000001128
 20
-0.9999999999999998
 40
2.7999999999999994
 41
0.9000000000000001
 50
0
  1

  0
TEXT
  8
_0-2_08_DIM
 62
    3
 10
14.000000000000114
 20
-0.9999999999999998
 40
2.7999999999999994
 41
0.9000000000000001
 50
0
  1

  0
LINE
  8
_0-2_08_DIM
  6
CONTINUOUS
 62
    3
 10
-4.6308054280802926
 20
-5.765361229938434
 11
0
 21
0
  0
ENDBLK
  0
BLOCK
  2
-004-p1ba05
 70
   64
 10
0
 20
0
 30
0
  0
ARC
  8
_0-2_08_DIM
  6
CONTINUOUS
 62
    3
 10
0
 20
1.6206695983957429
 40
1.6206695983958537
 50
204.22763733453323
 51
335.57577857182139
  0
ARC
  8
_0-2_08_DIM
  6
CONTINUOUS
 62
    3
 10
-2.9535588745990817
 20
0.2854771617432376
 40
1.6206695983958537
 50
24.227637334533135
 51
155.57577857182133
  0
ENDBLK
  0
BLOCK
  2
-005-AM_BALLOON1
 70
   64
 10
0
 20
0
 30
0
  0
CIRCLE
  8
_0-2_08_DIM
  6
CONTINUOUS
 62
    3
 10
0
 20
0
 40
4.9999999999999991
  0
ENDBLK
  0
BLOCK
  2
-006-_Open30
 70
   64
 10
0
 20
0
 30
0
  0
LINE
  8
_0-2_08_DIM
  6
CONTINUOUS
 62
    3
 10
-0.9999999999999998
 20
0.2679491899999999
 11
0
 21
0
  0
LINE
  8
_0-2_08_DIM
  6
CONTINUOUS
 62
    3
 10
0
 20
0
 11
-0.9999999999999998
 21
-0.2679491899999999
  0
LINE
  8
_0-2_08_DIM
  6
CONTINUOUS
 62
    3
 10
0
 20
0
 11
-0.9999999999999998
 21
0
  0
ENDBLK
  0
ENDSEC
  0
SECTION
  2
ENTITIES
  0
TEXT
  8
_0-0_90_FRAME
 62
    7
 10
5026.4858969912011
 20
1041.2209743181638
 40
25
 41
1
 50
0
  1
AT-221121-04-3
  0
TEXT
  8
_0-0_90_FRAME
 62
    7
 10
4855.2914616883572
 20
983.67719583994972
 40
25
 41
1
 50
0
  1
2025.03.25
  0
LINE
  8
_0-0_90_FRAME
  6
CONTINUOUS
 62
    5
 10
1448.2015199121245
 20
970.0978863135648
 11
5330.1666627576615
 21
970.0978863135648
  0
LINE
  8
_0-0_90_FRAME
  6
CONTINUOUS
 62
    5
 10
5330.1666627576615
 20
970.0978863135648
 11
5330.1666627576615
 21
3745.3673555883356
  0
LINE
  8
_0-0_90_FRAME
  6
CONTINUOUS
 62
    5
 10
5330.1666627576615
 20
3745.3673555883356
 11
1448.2015199121245
 21
3745.3673555883356
  0
LINE
  8
_0-0_90_FRAME
  6
CONTINUOUS
 62
    5
 10
1448.2015199121245
 20
3745.3673555883356
 11
1448.2015199121245
 21
970.0978863135648
  0
LINE
  8
_0-0_90_FRAME
  6
CONTINUOUS
 62
    5
 10
1253.972005627206
 20
2357.7326209509506
 11
1448.2015199121245
 21
2357.7326209509506
  0
LINE
  8
_0-0_90_FRAME
  6
CONTINUOUS
 62
    5
 10
5394.9763056145412
 20
2357.7326209509506
 11
5330.1666627576615
 21
2357.7326209509506
  0
LINE
  8
_0-0_90_FRAME
  6
CONTINUOUS
 62
    5
 10
3389.1840913348929
 20
3820.1769984585867
 11
3389.1840913348933
 21
3745.3673555883356
  0
LINE
  8
_0-0_90_FRAME
  6
CONTINUOUS
 62
    5
 10
3389.1840913348933
 20
905.5779984452106
 11
3389.1840913348933
 21
970.0978863135648
  0
LINE
  8
_0-0_90_FRAME
  6
CONTINUOUS
 62
    5
 10
2890.6483770511886
 20
940.18574345653656
 11
3887.719805618598
 21
940.18574345653656
  0
LINE
  8
_0-0_90_FRAME
  6
CONTINUOUS
 62
    5
 10
2890.6483770511886
 20
940.18574345653656
 11
2890.6483770511886
 21
970.0978863135648
  0
LINE
  8
_0-0_90_FRAME
  6
CONTINUOUS
 62
    5
 10
2990.3555199079319
 20
940.18574345653656
 11
2990.3555199079319
 21
970.0978863135648
  0
LINE
  8
_0-0_90_FRAME
  6
CONTINUOUS
 62
    5
 10
3090.0626627646757
 20
940.18574345653656
 11
3090.0626627646757
 21
970.0978863135648
  0
LINE
  8
_0-0_90_FRAME
  6
CONTINUOUS
 62
    5
 10
3189.7698056214062
 20
940.18574345653656
 11
3189.7698056214062
 21
970.0978863135648
  0
LINE
  8
_0-0_90_FRAME
  6
CONTINUOUS
 62
    5
 10
3289.4769484781491
 20
940.18574345653656
 11
3289.4769484781491
 21
970.0978863135648
  0
LINE
  8
_0-0_90_FRAME
  6
CONTINUOUS
 62
    5
 10
3488.8912341916239
 20
940.18574345653656
 11
3488.8912341916239
 21
970.0978863135648
  0
LINE
  8
_0-0_90_FRAME
  6
CONTINUOUS
 62
    5
 10
3588.5983770483672
 20
940.18574345653656
 11
3588.5983770483672
 21
970.0978863135648
  0
LINE
  8
_0-0_90_FRAME
  6
CONTINUOUS
 62
    5
 10
3688.30551990511
 20
940.18574345653656
 11
3688.30551990511
 21
970.0978863135648
  0
LINE
  8
_0-0_90_FRAME
  6
CONTINUOUS
 62
    5
 10
3788.0126627618542
 20
940.18574345653656
 11
3788.0126627618542
 21
970.0978863135648
  0
LINE
  8
_0-0_90_FRAME
  6
CONTINUOUS
 62
    5
 10
3887.719805618598
 20
940.18574345653656
 11
3887.719805618598
 21
970.0978863135648
  0
LINE
  8
_0-0_90_FRAME
  6
CONTINUOUS
 62
    4
 10
2385.1830163389445
 20
3745.3673555883356
 11
2385.1830163389445
 21
3810.1769984452026
  0
TEXT
  8
_0-0_90_FRAME
 62
    7
 10
1632.5222110170373
 20
3758.2758390219519
 40
19.999999999999996
 41
1
 50
0
  1
1
  0
TEXT
  8
_0-0_90_FRAME
 62
    7
 10
1876.5158121743102
 20
3758.2758390219519
 40
19.999999999999996
 41
1
 50
0
  1
2
  0
TEXT
  8
_0-0_90_FRAME
 62
    7
 10
2211.1828371729594
 20
3758.2758390219519
 40
19.999999999999996
 41
1
 50
0
  1
3
  0
TEXT
  8
_0-0_90_FRAME
 62
    7
 10
2545.8498621715962
 20
3758.2758390219519
 40
19.999999999999996
 41
1
 50
0
  1
4
  0
TEXT
  8
_0-0_90_FRAME
 62
    7
 10
2880.5168871702581
 20
3758.2758390219519
 40
19.999999999999996
 41
1
 50
0
  1
5
  0
TEXT
  8
_0-0_90_FRAME
 62
    7
 10
3215.1839121688949
 20
3758.2758390219519
 40
19.999999999999996
 41
1
 50
0
  1
6
  0
TEXT
  8
_0-0_90_FRAME
 62
    7
 10
3549.850937167545
 20
3758.2758390219519
 40
19.999999999999996
 41
1
 50
0
  1
7
  0
TEXT
  8
_0-0_90_FRAME
 62
    7
 10
3884.5179621661937
 20
3758.2758390219519
 40
19.999999999999996
 41
1
 50
0
  1
8
  0
TEXT
  8
_0-0_90_FRAME
 62
    7
 10
4219.1849871648437
 20
3758.2758390219519
 40
19.999999999999996
 41
1
 50
0
  1
9
  0
TEXT
  8
_0-0_90_FRAME
 62
    7
 10
4548.8520121634938
 20
3758.2758390219519
 40
19.999999999999996
 41
1
 50
0
  1
10
  0
TEXT
  8
_0-0_90_FRAME
 62
    7
 10
4885.1857038287972
 20
3758.2758390219519
 40
19.999999999999996
 41
1
 50
0
  1
11
  0
TEXT
  8
_0-0_90_FRAME
 62
    7
 10
5216.5193954941142
 20
3758.2758390219519
 40
19.999999999999996
 41
1
 50
0
  1
12
  0
TEXT
  8
_0-0_90_FRAME
 62
    7
 10
5343.0504768154515
 20
3235.1978568848617
 40
19.999999999999996
 41
1
 50
0
  1
B
  0
LINE
  8
_0-0_90_FRAME
  6
CONTINUOUS
 62
   18
 10
1448.2015199121245
 20
970.0978863135648
 11
1958.201519907662
 21
970.0978863135648
  0
LINE
  8
_0-0_90_FRAME
  6
CONTINUOUS
 62
   18
 10
1958.201519907662
 20
970.0978863135648
 11
1958.201519907662
 21
1111.5264577415608
  0
LINE
  8
_0-0_90_FRAME
  6
CONTINUOUS
 62
   18
 10
1958.201519907662
 20
1111.5264577415608
 11
1448.2015199121245
 21
1111.5264577415608
  0
LINE
  8
_0-0_90_FRAME
  6
CONTINUOUS
 62
   18
 10
1448.2015199121245
 20
1111.5264577415608
 11
1448.2015199121245
 21
970.0978863135648
  0
LINE
  8
_0-0_90_FRAME
  6
CONTINUOUS
 62
   18
 10
1888.201519907662
 20
970.0978863135648
 11
1888.201519907662
 21
1111.5264577415608
  0
LINE
  8
_0-0_90_FRAME
  6
CONTINUOUS
 62
   18
 10
1518.2015199076623
 20
970.0978863135648
 11
1518.2015199076623
 21
1111.5264577415608
  0
LINE
  8
_0-0_90_FRAME
  6
CONTINUOUS
 62
   18
 10
1598.2015199076623
 20
970.0978863135648
 11
1598.2015199076623
 21
1111.5264577415608
  0
LINE
  8
_0-0_90_FRAME
  6
CONTINUOUS
 62
   18
 10
1448.2015199121245
 20
1076.1693148845686
 11
1958.201519907662
 21
1076.1693148845686
  0
LINE
  8
_0-0_90_FRAME
  6
CONTINUOUS
 62
   18
 10
1448.2015199121245
 20
1040.8121720275583
 11
1958.201519907662
 21
1040.8121720275583
  0
LINE
  8
_0-0_90_FRAME
  6
CONTINUOUS
 62
   18
 10
1448.2015199121245
 20
1005.455029170566
 11
1958.201519907662
 21
1005.455029170566
  0
TEXT
  8
_0-0_90_FRAME
 62
    7
 10
1465.746974455348
 20
1087.8478863130647
 40
11.999999999999998
 41
1
 50
0
  1
記号
  0
TEXT
  8
_0-0_90_FRAME
 62
    7
 10
1539.0295930614532
 20
1087.8478863130647
 40
11.999999999999998
 41
1
 50
0
  1
日付
  0
TEXT
  8
_0-0_90_FRAME
 62
    7
 10
1897.019701725844
 20
1087.8478863130647
 40
11.999999999999998
 41
1
 50
0
  1
作成者
  0
TEXT
  8
_0-0_90_FRAME
 62
    7
 10
1703.2924289985713
 20
1087.6433408585192
 40
11.999999999999998
 41
1
 50
0
  1
改訂内容
  0
LINE
  8
_0-0_90_FRAME
  6
CONTINUOUS
 62
   18
 10
1467.2908056242377
 20
1009.2103190698296
 11
1483.2015199098932
 21
1036.7684845972824
  0
LINE
  8
_0-0_90_FRAME
  6
CONTINUOUS
 62
   18
 10
1483.2015199098932
 20
1036.7684845972824
 11
1499.1122341955397
 21
1009.2103190698296
  0
LINE
  8
_0-0_90_FRAME
  6
CONTINUOUS
 62
   18
 10
1499.1122341955397
 20
1009.2103190698296
 11
1467.2908056242377
 21
1009.2103190698296
  0
TEXT
  8
_0-0_90_FRAME
 62
    7
 10
1479.7555445654546
 20
1049.7053011065709
 40
10.607142857099999
 41
1
 50
0
  1
1
  0
TEXT
  8
_0-0_90_FRAME
 62
    7
 10
1479.7555445654546
 20
1014.3481582495698
 40
10.607142857099999
 41
1
 50
0
  1
2
  0
TEXT
  8
_0-0_90_FRAME
 62
    7
 10
1479.7555445654546
 20
978.99101539256867
 40
10.607142857099999
 41
1
 50
0
  1
3
  0
LINE
  8
_0-0_90_FRAME
  6
CONTINUOUS
 62
   18
 10
1467.2908056242377
 20
1044.5674619268307
 11
1483.2015199098932
 21
1072.1256274542927
  0
LINE
  8
_0-0_90_FRAME
  6
CONTINUOUS
 62
   18
 10
1483.2015199098932
 20
1072.1256274542927
 11
1499.1122341955397
 21
1044.5674619268307
  0
LINE
  8
_0-0_90_FRAME
  6
CONTINUOUS
 62
   18
 10
1499.1122341955397
 20
1044.5674619268307
 11
1467.2908056242377
 21
1044.5674619268307
  0
LINE
  8
_0-0_90_FRAME
  6
CONTINUOUS
 62
   18
 10
1467.2908056242377
 20
973.85317621282843
 11
1483.2015199098932
 21
1001.4113417402901
  0
LINE
  8
_0-0_90_FRAME
  6
CONTINUOUS
 62
   18
 10
1483.2015199098932
 20
1001.4113417402901
 11
1499.1122341955397
 21
973.85317621282843
  0
LINE
  8
_0-0_90_FRAME
  6
CONTINUOUS
 62
   18
 10
1499.1122341955397
 20
973.85317621282843
 11
1467.2908056242377
 21
973.85317621282843
  0
LINE
  8
_0-0_90_FRAME
  6
CONTINUOUS
 62
    4
 10
5394.9763056145412
 20
1647.760432203821
 11
5330.1666627576615
 21
1647.760432203821
  0
LINE
  8
_0-0_90_FRAME
  6
CONTINUOUS
 62
    4
 10
5394.9763056145412
 20
2002.7465265773858
 11
5330.1666627576615
 21
2002.7465265773858
  0
LINE
  8
_0-0_90_FRAME
  6
CONTINUOUS
 62
    4
 10
5394.9763056145412
 20
1292.7743378302566
 11
5330.1666627576615
 21
1292.7743378302566
  0
LINE
  8
_0-0_90_FRAME
  6
CONTINUOUS
 62
    4
 10
5394.9763056145412
 20
3067.7048096980793
 11
5330.1666627576615
 21
3067.7048096980793
  0
LINE
  8
_0-0_90_FRAME
  6
CONTINUOUS
 62
    4
 10
5394.9763056145412
 20
2712.7187153245154
 11
5330.1666627576615
 21
2712.7187153245154
  0
LINE
  8
_0-0_90_FRAME
  6
CONTINUOUS
 62
    4
 10
5394.9763056145412
 20
3422.6909040716441
 11
5330.1666627576615
 21
3422.6909040716441
  0
TEXT
  8
_0-0_90_FRAME
 62
    7
 10
5343.0504768154515
 20
3590.1839512584265
 40
19.999999999999996
 41
1
 50
0
  1
A
  0
TEXT
  8
_0-0_90_FRAME
 62
    7
 10
5343.0504768154515
 20
2880.2117625112978
 40
19.999999999999996
 41
1
 50
0
  1
C
  0
TEXT
  8
_0-0_90_FRAME
 62
    7
 10
5343.0504768154515
 20
2525.2256681377326
 40
19.999999999999996
 41
1
 50
0
  1
D
  0
TEXT
  8
_0-0_90_FRAME
 62
    7
 10
5343.0504768154515
 20
1815.2534793906034
 40
19.999999999999996
 41
1
 50
0
  1
F
  0
TEXT
  8
_0-0_90_FRAME
 62
    7
 10
5343.0504768154515
 20
1460.267385017039
 40
19.999999999999996
 41
1
 50
0
  1
G
  0
TEXT
  8
_0-0_90_FRAME
 62
    7
 10
5343.0504768154515
 20
1105.2812906434744
 40
19.999999999999996
 41
1
 50
0
  1
H
  0
TEXT
  8
_0-0_90_FRAME
 62
    7
 10
5343.0504768154515
 20
2170.2395737641677
 40
19.999999999999996
 41
1
 50
0
  1
E
  0
TEXT
  8
_0-0_90_FRAME
 62
    7
 10
1418.7587112756376
 20
3235.1978568848617
 40
19.999999999999996
 41
1
 50
0
  1
B
  0
LINE
  8
_0-0_90_FRAME
  6
CONTINUOUS
 62
    4
 10
1448.2015199121245
 20
1647.760432203821
 11
1383.3918770552577
 21
1647.760432203821
  0
LINE
  8
_0-0_90_FRAME
  6
CONTINUOUS
 62
    4
 10
1448.2015199121245
 20
2002.7465265773858
 11
1383.3918770552577
 21
2002.7465265773858
  0
LINE
  8
_0-0_90_FRAME
  6
CONTINUOUS
 62
    4
 10
1448.2015199121245
 20
1292.7743378302566
 11
1383.3918770552577
 21
1292.7743378302566
  0
LINE
  8
_0-0_90_FRAME
  6
CONTINUOUS
 62
    4
 10
1448.2015199121245
 20
3067.7048096980793
 11
1383.3918770552577
 21
3067.7048096980793
  0
LINE
  8
_0-0_90_FRAME
  6
CONTINUOUS
 62
    4
 10
1448.2015199121245
 20
2712.7187153245154
 11
1383.3918770552577
 21
2712.7187153245154
  0
LINE
  8
_0-0_90_FRAME
  6
CONTINUOUS
 62
    4
 10
1448.2015199121245
 20
3422.6909040716441
 11
1383.3918770552577
 21
3422.6909040716441
  0
TEXT
  8
_0-0_90_FRAME
 62
    7
 10
1418.7587112756376
 20
3590.1839512584265
 40
19.999999999999996
 41
1
 50
0
  1
A
  0
TEXT
  8
_0-0_90_FRAME
 62
    7
 10
1418.7587112756376
 20
2880.2117625112978
 40
19.999999999999996
 41
1
 50
0
  1
C
  0
TEXT
  8
_0-0_90_FRAME
 62
    7
 10
1418.7587112756376
 20
2525.2256681377326
 40
19.999999999999996
 41
1
 50
0
  1
D
  0
TEXT
  8
_0-0_90_FRAME
 62
    7
 10
1418.7587112756376
 20
1815.2534793906034
 40
19.999999999999996
 41
1
 50
0
  1
F
  0
TEXT
  8
_0-0_90_FRAME
 62
    7
 10
1418.7587112756376
 20
1460.267385017039
 40
19.999999999999996
 41
1
 50
0
  1
G
  0
TEXT
  8
_0-0_90_FRAME
 62
    7
 10
1418.7587112756376
 20
2170.2395737641677
 40
19.999999999999996
 41
1
 50
0
  1
E
  0
TEXT
  8
_0-0_90_FRAME
 62
    7
 10
1418.7587112756376
 20
1105.2812906434744
 40
19.999999999999996
 41
1
 50
0
  1
H
  0
LINE
  8
_0-0_90_FRAME
  6
CONTINUOUS
 62
    4
 10
2050.5159913402949
 20
3745.3673555883356
 11
2050.5159913402949
 21
3810.1769984452026
  0
LINE
  8
_0-0_90_FRAME
  6
CONTINUOUS
 62
    4
 10
1715.8489663416456
 20
3745.3673555883356
 11
1715.8489663416456
 21
3810.1769984452026
  0
LINE
  8
_0-0_90_FRAME
  6
CONTINUOUS
 62
    4
 10
2719.8500413375937
 20
3745.3673555883356
 11
2719.8500413375937
 21
3810.1769984452026
  0
LINE
  8
_0-0_90_FRAME
  6
CONTINUOUS
 62
    4
 10
3054.5170663362437
 20
3745.3673555883356
 11
3054.5170663362437
 21
3810.1769984452026
  0
LINE
  8
_0-0_90_FRAME
  6
CONTINUOUS
 62
    4
 10
4393.1851663308289
 20
3745.3673555883356
 11
4393.1851663308289
 21
3810.1769984452026
  0
LINE
  8
_0-0_90_FRAME
  6
CONTINUOUS
 62
    4
 10
4727.852191329479
 20
3745.3673555883356
 11
4727.852191329479
 21
3810.1769984452026
  0
LINE
  8
_0-0_90_FRAME
  6
CONTINUOUS
 62
    4
 10
5062.5192163281281
 20
3745.3673555883356
 11
5062.5192163281281
 21
3810.1769984452026
  0
LINE
  8
_0-0_90_FRAME
  6
CONTINUOUS
 62
    4
 10
4058.5181413321798
 20
3745.3673555883356
 11
4058.5181413321798
 21
3810.1769984452026
  0
LINE
  8
_0-0_90_FRAME
  6
CONTINUOUS
 62
    4
 10
3723.8511163335424
 20
3745.3673555883356
 11
3723.8511163335424
 21
3810.1769984452026
  0
LINE
  8
_0-0_90_FRAME
  6
CONTINUOUS
 62
    4
 10
2385.1830163389445
 20
905.5779984452106
 11
2385.1830163389445
 21
970.0978863135648
  0
LINE
  8
_0-0_90_FRAME
  6
CONTINUOUS
 62
    4
 10
2050.5159913402949
 20
905.5779984452106
 11
2050.5159913402949
 21
970.0978863135648
  0
LINE
  8
_0-0_90_FRAME
  6
CONTINUOUS
 62
    4
 10
1715.8489663416456
 20
905.5779984452106
 11
1715.8489663416456
 21
970.0978863135648
  0
LINE
  8
_0-0_90_FRAME
  6
CONTINUOUS
 62
    4
 10
2719.8500413375937
 20
905.5779984452106
 11
2719.8500413375937
 21
970.0978863135648
  0
LINE
  8
_0-0_90_FRAME
  6
CONTINUOUS
 62
    4
 10
4393.1851663308289
 20
905.5779984452106
 11
4393.1851663308289
 21
970.0978863135648
  0
LINE
  8
_0-0_90_FRAME
  6
CONTINUOUS
 62
    4
 10
4727.852191329479
 20
905.5779984452106
 11
4727.852191329479
 21
970.0978863135648
  0
LINE
  8
_0-0_90_FRAME
  6
CONTINUOUS
 62
    4
 10
5062.5192163281281
 20
905.5779984452106
 11
5062.5192163281281
 21
970.0978863135648
  0
LINE
  8
_0-0_90_FRAME
  6
CONTINUOUS
 62
    4
 10
4058.5181413321798
 20
905.5779984452106
 11
4058.5181413321798
 21
970.0978863135648
  0
LINE
  8
_0-1_91_BLANK
  6
CONTINUOUS
 62
    5
 10
1253.9720056109713
 20
905.5779984452106
 11
5394.9763056076627
 21
905.5779984452106
  0
LINE
  8
_0-1_91_BLANK
  6
CONTINUOUS
 62
    5
 10
5394.9763056076627
 20
905.5779984452106
 11
5394.9763056076627
 21
3820.1769984585867
  0
LINE
  8
_0-1_91_BLANK
  6
CONTINUOUS
 62
    5
 10
5394.9763056076627
 20
3820.1769984585867
 11
1253.9720056109713
 21
3820.1769984585867
  0
LINE
  8
_0-1_91_BLANK
  6
CONTINUOUS
 62
    5
 10
1253.9720056109713
 20
3820.1769984585867
 11
1253.9720056109713
 21
905.5779984452106
  0
LINE
  8
_0-0_90_FRAME
  6
CONTINUOUS
 62
   18
 10
4340.1666627616596
 20
970.0978863135648
 11
5330.1666627576615
 21
970.0978863135648
  0
LINE
  8
_0-0_90_FRAME
  6
CONTINUOUS
 62
   18
 10
5330.1666627576615
 20
970.0978863135648
 11
5330.1666627576615
 21
1153.955029169965
  0
LINE
  8
_0-0_90_FRAME
  6
CONTINUOUS
 62
   18
 10
5330.1666627576615
 20
1153.955029169965
 11
4340.1666627616596
 21
1153.955029169965
  0
LINE
  8
_0-0_90_FRAME
  6
CONTINUOUS
 62
   18
 10
4340.1666627616596
 20
1153.955029169965
 11
4340.1666627616596
 21
970.0978863135648
  0
LINE
  8
_0-0_90_FRAME
  6
CONTINUOUS
 62
   18
 10
4418.1291627613482
 20
1122.133600598663
 11
4467.6291627611472
 21
1134.5086005986145
  0
LINE
  8
_0-0_90_FRAME
  6
CONTINUOUS
 62
   18
 10
4467.6291627611472
 20
1134.5086005986145
 11
4467.6291627611472
 21
1085.0086005988167
  0
LINE
  8
_0-0_90_FRAME
  6
CONTINUOUS
 62
   18
 10
4467.6291627611472
 20
1085.0086005988167
 11
4418.1291627613482
 21
1097.3836005987637
  0
LINE
  8
_0-0_90_FRAME
  6
CONTINUOUS
 62
   18
 10
4418.1291627613482
 20
1097.3836005987637
 11
4418.1291627613482
 21
1122.133600598663
  0
CIRCLE
  8
_0-0_90_FRAME
  6
CONTINUOUS
 62
   18
 10
4385.9541627614744
 20
1109.7586005987112
 40
12.374999999949999
  0
CIRCLE
  8
_0-0_90_FRAME
  6
CONTINUOUS
 62
   18
 10
4385.9541627614744
 20
1109.7586005987112
 40
24.749999999899998
  0
LINE
  8
_0-0_90_FRAME
  6
CONTINUOUS
 62
   18
 10
4356.2541627615947
 20
1109.7586005987112
 11
4472.5791627611234
 21
1109.7586005987112
  0
LINE
  8
_0-0_90_FRAME
  6
CONTINUOUS
 62
   18
 10
4385.9541627614744
 20
1080.0586005988359
 11
4385.9541627614744
 21
1139.4586005985955
  0
LINE
  8
_0-0_90_FRAME
  6
CONTINUOUS
 62
   18
 10
4745.7023770456608
 20
970.0978863135648
 11
4745.7023770456608
 21
1153.955029169965
  0
LINE
  8
_0-0_90_FRAME
  6
CONTINUOUS
 62
   18
 10
4745.7023770456608
 20
1026.6693148847637
 11
5330.1666627576615
 21
1026.6693148847637
  0
TEXT
  8
_0-0_90_FRAME
 62
    7
 10
4748.2375858328132
 20
1009.0795136509039
 40
12.5
 41
1
 50
0
  1
作 成 日
  0
LINE
  8
_0-0_90_FRAME
  6
CONTINUOUS
 62
   18
 10
5091.3809484728581
 20
1026.6693148847637
 11
5091.3809484728581
 21
970.0978863135648
  0
TEXT
  8
_0-0_90_FRAME
 62
    7
 10
5094.3495572072761
 20
1008.7338089768306
 40
12.5
 41
1
 50
0
  1
個数
  0
TEXT
  8
_0-0_90_FRAME
 62
    7
 10
4628.802113257676
 20
1137.5661887390422
 40
12.5
 41
1
 50
0
  1
サイズ
  0
TEXT
  8
_0-0_90_FRAME
 62
    7
 10
4490.9092561153802
 20
1136.6339195770067
 40
12.5
 41
1
 50
0
  1
尺　度
  0
TEXT
  8
_0-0_90_FRAME
 62
    7
 10
4628.8021894397725
 20
1049.1733315965437
 40
12.5
 41
1
 50
0
  1
製　図
  0
LINE
  8
_0-0_90_FRAME
  6
CONTINUOUS
 62
   18
 10
4745.7023770456608
 20
1065.5621720274617
 11
4340.1666627616596
 21
1065.5621720274617
  0
LINE
  8
_0-0_90_FRAME
  6
CONTINUOUS
 62
   18
 10
4934.5118799172515
 20
1083.2407434559623
 11
5330.1666627576615
 21
1083.2407434559623
  0
TEXT
  8
_0-0_90_FRAME
 62
    7
 10
4669.887293652173
 20
1086.7783612949129
 40
25
 41
1
 50
0
  1
A1
  0
LINE
  8
_0-0_90_FRAME
  6
CONTINUOUS
 62
   18
 10
4626.5595199033596
 20
970.0978863135648
 11
4626.5595199033596
 21
1153.955029169965
  0
TEXT
  8
_0-0_90_FRAME
 62
    2
 10
4427.6429788052956
 20
989.55366375685276
 40
25
 41
1
 50
0
  1
アクアトリム
  0
LINE
  8
_0-0_90_FRAME
  6
CONTINUOUS
 62
    4
 10
4419.952021076967
 20
1053.4535759137223
 11
4419.952021076967
 21
979.48768314401798
  0
LINE
  8
_0-0_90_FRAME
  6
CONTINUOUS
 62
    4
 10
4419.952021076967
 20
979.48768314401798
 11
4352.7103003772363
 21
979.48768314401798
  0
LINE
  8
_0-0_90_FRAME
  6
CONTINUOUS
 62
    4
 10
4352.7103003772363
 20
979.48768314401798
 11
4352.7103003772363
 21
1053.4535759137223
  0
LINE
  8
_0-0_90_FRAME
  6
CONTINUOUS
 62
    4
 10
4353.030499047235
 20
1053.1333772437206
 11
4353.030499047235
 21
1053.1333772437206
  0
LINE
  8
_0-0_90_FRAME
  6
CONTINUOUS
 62
    4
 10
4353.030499047235
 20
1053.1333772437206
 11
4353.195893314748
 21
1051.4653197776211
  0
LINE
  8
_0-0_90_FRAME
  6
CONTINUOUS
 62
    4
 10
4353.195893314748
 20
1051.4653197776211
 11
4353.6870506961614
 21
1049.8479453935513
  0
LINE
  8
_0-0_90_FRAME
  6
CONTINUOUS
 62
    4
 10
4353.6870506961614
 20
1049.8479453935513
 11
4354.4890476229775
 21
1048.3303971937401
  0
LINE
  8
_0-0_90_FRAME
  6
CONTINUOUS
 62
    4
 10
4354.4890476229775
 20
1048.3303971937401
 11
4355.5775158244069
 21
1046.9587851123222
  0
LINE
  8
_0-0_90_FRAME
  6
CONTINUOUS
 62
    4
 10
4355.5775158244069
 20
1046.9587851123222
 11
4356.9193827449399
 21
1045.7747848883228
  0
LINE
  8
_0-0_90_FRAME
  6
CONTINUOUS
 62
    4
 10
4356.9193827449399
 20
1045.7747848883228
 11
4358.4738764372132
 21
1044.8143717694145
  0
LINE
  8
_0-0_90_FRAME
  6
CONTINUOUS
 62
    4
 10
4358.4738764372132
 20
1044.8143717694145
 11
4360.1937643969995
 21
1044.1067274222232
  0
LINE
  8
_0-0_90_FRAME
  6
CONTINUOUS
 62
    4
 10
4360.1937643969995
 20
1044.1067274222232
 11
4362.026788698945
 21
1043.6733532621529
  0
LINE
  8
_0-0_90_FRAME
  6
CONTINUOUS
 62
    4
 10
4362.026788698945
 20
1043.6733532621529
 11
4363.9172538271914
 21
1043.5274171437593
  0
LINE
  8
_0-0_90_FRAME
  6
CONTINUOUS
 62
    4
 10
4363.9172538271914
 20
1043.5274171437593
 11
4365.8077189554378
 21
1043.6733532621529
  0
LINE
  8
_0-0_90_FRAME
  6
CONTINUOUS
 62
    4
 10
4365.8077189554378
 20
1043.6733532621529
 11
4367.6407432573833
 21
1044.1067274222232
  0
LINE
  8
_0-0_90_FRAME
  6
CONTINUOUS
 62
    4
 10
4367.6407432573833
 20
1044.1067274222232
 11
4369.3606312171696
 21
1044.8143717694145
  0
LINE
  8
_0-0_90_FRAME
  6
CONTINUOUS
 62
    4
 10
4369.3606312171696
 20
1044.8143717694145
 11
4370.915124909443
 21
1045.7747848883228
  0
LINE
  8
_0-0_90_FRAME
  6
CONTINUOUS
 62
    4
 10
4370.915124909443
 20
1045.7747848883228
 11
4372.256991829976
 21
1046.9587851123222
  0
LINE
  8
_0-0_90_FRAME
  6
CONTINUOUS
 62
    4
 10
4372.256991829976
 20
1046.9587851123222
 11
4373.3454600314053
 21
1048.3303971937401
  0
LINE
  8
_0-0_90_FRAME
  6
CONTINUOUS
 62
    4
 10
4373.3454600314053
 20
1048.3303971937401
 11
4374.1474569582215
 21
1049.8479453935513
  0
LINE
  8
_0-0_90_FRAME
  6
CONTINUOUS
 62
    4
 10
4374.1474569582215
 20
1049.8479453935513
 11
4374.6386143396348
 21
1051.4653197776211
  0
LINE
  8
_0-0_90_FRAME
  6
CONTINUOUS
 62
    4
 10
4374.6386143396348
 20
1051.4653197776211
 11
4374.8040086071478
 21
1053.1333772437206
  0
LINE
  8
_0-0_90_FRAME
  6
CONTINUOUS
 62
    4
 10
4374.8040086071478
 20
1053.1333772437206
 11
4374.8040086071478
 21
1053.1333772437206
  0
ARC
  8
_0-0_90_FRAME
  6
CONTINUOUS
 62
    4
 10
4375.1242072771456
 20
1053.1333772437206
 40
0.3201986699987063
 50
0
 51
180
  0
LINE
  8
_0-0_90_FRAME
  6
CONTINUOUS
 62
    4
 10
4375.4444059471452
 20
1053.1333772437206
 11
4375.4444059471452
 21
1053.1333772437206
  0
LINE
  8
_0-0_90_FRAME
  6
CONTINUOUS
 62
    4
 10
4375.4444059471452
 20
1053.1333772437206
 11
4375.6098002146582
 21
1051.4653197776211
  0
LINE
  8
_0-0_90_FRAME
  6
CONTINUOUS
 62
    4
 10
4375.6098002146582
 20
1051.4653197776211
 11
4376.1009575960716
 21
1049.8479453935513
  0
LINE
  8
_0-0_90_FRAME
  6
CONTINUOUS
 62
    4
 10
4376.1009575960716
 20
1049.8479453935513
 11
4376.9029545228877
 21
1048.3303971937401
  0
LINE
  8
_0-0_90_FRAME
  6
CONTINUOUS
 62
    4
 10
4376.9029545228877
 20
1048.3303971937401
 11
4377.9914227243171
 21
1046.9587851123222
  0
LINE
  8
_0-0_90_FRAME
  6
CONTINUOUS
 62
    4
 10
4377.9914227243171
 20
1046.9587851123222
 11
4379.3332896448501
 21
1045.7747848883228
  0
LINE
  8
_0-0_90_FRAME
  6
CONTINUOUS
 62
    4
 10
4379.3332896448501
 20
1045.7747848883228
 11
4380.8877833371234
 21
1044.8143717694145
  0
LINE
  8
_0-0_90_FRAME
  6
CONTINUOUS
 62
    4
 10
4380.8877833371234
 20
1044.8143717694145
 11
4382.6076712969098
 21
1044.1067274222232
  0
LINE
  8
_0-0_90_FRAME
  6
CONTINUOUS
 62
    4
 10
4382.6076712969098
 20
1044.1067274222232
 11
4384.4406955988552
 21
1043.6733532621529
  0
LINE
  8
_0-0_90_FRAME
  6
CONTINUOUS
 62
    4
 10
4384.4406955988552
 20
1043.6733532621529
 11
4386.3311607271016
 21
1043.5274171437593
  0
LINE
  8
_0-0_90_FRAME
  6
CONTINUOUS
 62
    4
 10
4386.3311607271016
 20
1043.5274171437593
 11
4388.2216258553481
 21
1043.6733532621529
  0
LINE
  8
_0-0_90_FRAME
  6
CONTINUOUS
 62
    4
 10
4388.2216258553481
 20
1043.6733532621529
 11
4390.0546501572935
 21
1044.1067274222232
  0
LINE
  8
_0-0_90_FRAME
  6
CONTINUOUS
 62
    4
 10
4390.0546501572935
 20
1044.1067274222232
 11
4391.7745381170798
 21
1044.8143717694145
  0
LINE
  8
_0-0_90_FRAME
  6
CONTINUOUS
 62
    4
 10
4391.7745381170798
 20
1044.8143717694145
 11
4393.3290318093532
 21
1045.7747848883228
  0
LINE
  8
_0-0_90_FRAME
  6
CONTINUOUS
 62
    4
 10
4393.3290318093532
 20
1045.7747848883228
 11
4394.6708987298862
 21
1046.9587851123222
  0
LINE
  8
_0-0_90_FRAME
  6
CONTINUOUS
 62
    4
 10
4394.6708987298862
 20
1046.9587851123222
 11
4395.7593669313155
 21
1048.3303971937401
  0
LINE
  8
_0-0_90_FRAME
  6
CONTINUOUS
 62
    4
 10
4395.7593669313155
 20
1048.3303971937401
 11
4396.5613638581317
 21
1049.8479453935513
  0
LINE
  8
_0-0_90_FRAME
  6
CONTINUOUS
 62
    4
 10
4396.5613638581317
 20
1049.8479453935513
 11
4397.0525212395451
 21
1051.4653197776211
  0
LINE
  8
_0-0_90_FRAME
  6
CONTINUOUS
 62
    4
 10
4397.0525212395451
 20
1051.4653197776211
 11
4397.217915507058
 21
1053.1333772437206
  0
LINE
  8
_0-0_90_FRAME
  6
CONTINUOUS
 62
    4
 10
4397.217915507058
 20
1053.1333772437206
 11
4397.217915507058
 21
1053.1333772437206
  0
ARC
  8
_0-0_90_FRAME
  6
CONTINUOUS
 62
    4
 10
4397.5381141770567
 20
1053.1333772437206
 40
0.3201986699987063
 50
0
 51
180
  0
LINE
  8
_0-0_90_FRAME
  6
CONTINUOUS
 62
    4
 10
4397.8583128470545
 20
1053.1333772437206
 11
4397.8583128470545
 21
1053.1333772437206
  0
LINE
  8
_0-0_90_FRAME
  6
CONTINUOUS
 62
    4
 10
4397.8583128470545
 20
1053.1333772437206
 11
4398.0237071145675
 21
1051.4653197776211
  0
LINE
  8
_0-0_90_FRAME
  6
CONTINUOUS
 62
    4
 10
4398.0237071145675
 20
1051.4653197776211
 11
4398.5148644959809
 21
1049.8479453935513
  0
LINE
  8
_0-0_90_FRAME
  6
CONTINUOUS
 62
    4
 10
4398.5148644959809
 20
1049.8479453935513
 11
4399.316861422797
 21
1048.3303971937401
  0
LINE
  8
_0-0_90_FRAME
  6
CONTINUOUS
 62
    4
 10
4399.316861422797
 20
1048.3303971937401
 11
4400.4053296242264
 21
1046.9587851123222
  0
LINE
  8
_0-0_90_FRAME
  6
CONTINUOUS
 62
    4
 10
4400.4053296242264
 20
1046.9587851123222
 11
4401.7471965447594
 21
1045.7747848883228
  0
LINE
  8
_0-0_90_FRAME
  6
CONTINUOUS
 62
    4
 10
4401.7471965447594
 20
1045.7747848883228
 11
4403.3016902370327
 21
1044.8143717694145
  0
LINE
  8
_0-0_90_FRAME
  6
CONTINUOUS
 62
    4
 10
4403.3016902370327
 20
1044.8143717694145
 11
4405.0215781968191
 21
1044.1067274222232
  0
LINE
  8
_0-0_90_FRAME
  6
CONTINUOUS
 62
    4
 10
4405.0215781968191
 20
1044.1067274222232
 11
4406.8546024987645
 21
1043.6733532621529
  0
LINE
  8
_0-0_90_FRAME
  6
CONTINUOUS
 62
    4
 10
4406.8546024987645
 20
1043.6733532621529
 11
4408.7450676270109
 21
1043.5274171437593
  0
LINE
  8
_0-0_90_FRAME
  6
CONTINUOUS
 62
    4
 10
4408.7450676270109
 20
1043.5274171437593
 11
4410.6355327552574
 21
1043.6733532621529
  0
LINE
  8
_0-0_90_FRAME
  6
CONTINUOUS
 62
    4
 10
4410.6355327552574
 20
1043.6733532621529
 11
4412.4685570572028
 21
1044.1067274222232
  0
LINE
  8
_0-0_90_FRAME
  6
CONTINUOUS
 62
    4
 10
4412.4685570572028
 20
1044.1067274222232
 11
4414.1884450169891
 21
1044.8143717694145
  0
LINE
  8
_0-0_90_FRAME
  6
CONTINUOUS
 62
    4
 10
4414.1884450169891
 20
1044.8143717694145
 11
4415.7429387092625
 21
1045.7747848883228
  0
LINE
  8
_0-0_90_FRAME
  6
CONTINUOUS
 62
    4
 10
4415.7429387092625
 20
1045.7747848883228
 11
4417.0848056297955
 21
1046.9587851123222
  0
LINE
  8
_0-0_90_FRAME
  6
CONTINUOUS
 62
    4
 10
4417.0848056297955
 20
1046.9587851123222
 11
4418.1732738312248
 21
1048.3303971937401
  0
LINE
  8
_0-0_90_FRAME
  6
CONTINUOUS
 62
    4
 10
4418.1732738312248
 20
1048.3303971937401
 11
4418.975270758041
 21
1049.8479453935513
  0
LINE
  8
_0-0_90_FRAME
  6
CONTINUOUS
 62
    4
 10
4418.975270758041
 20
1049.8479453935513
 11
4419.4664281394544
 21
1051.4653197776211
  0
LINE
  8
_0-0_90_FRAME
  6
CONTINUOUS
 62
    4
 10
4419.4664281394544
 20
1051.4653197776211
 11
4419.6318224069673
 21
1053.1333772437206
  0
LINE
  8
_0-0_90_FRAME
  6
CONTINUOUS
 62
    4
 10
4419.6318224069673
 20
1053.1333772437206
 11
4419.6318224069673
 21
1053.1333772437206
  0
ARC
  8
_0-0_90_FRAME
  6
CONTINUOUS
 62
    4
 10
4419.952021076967
 20
1053.1333772437206
 40
0.3201986699987063
 50
90
 51
180
  0
ARC
  8
_0-0_90_FRAME
  6
CONTINUOUS
 62
    4
 10
4375.1242072771456
 20
1053.1333772437206
 40
0.3201986699987063
 50
0
 51
90
  0
ARC
  8
_0-0_90_FRAME
  6
CONTINUOUS
 62
    4
 10
4352.7103003772363
 20
1053.1333772437206
 40
0.3201986699987063
 50
0
 51
90
  0
LINE
  8
_0-0_90_FRAME
  6
CONTINUOUS
 62
    4
 10
4360.3950684572073
 20
989.0936432439795
 11
4364.2374524971883
 21
989.0936432439795
  0
LINE
  8
_0-0_90_FRAME
  6
CONTINUOUS
 62
    4
 10
4364.2374524971883
 20
989.0936432439795
 11
4364.2374524971883
 21
985.25125920399626
  0
LINE
  8
_0-0_90_FRAME
  6
CONTINUOUS
 62
    4
 10
4364.2374524971883
 20
985.25125920399626
 11
4360.3950684572073
 21
985.25125920399626
  0
LINE
  8
_0-0_90_FRAME
  6
CONTINUOUS
 62
    4
 10
4360.3950684572073
 20
989.0936432439795
 11
4360.3950684572073
 21
985.25125920399626
  0
LINE
  8
_0-0_90_FRAME
  6
CONTINUOUS
 62
    4
 10
4412.2672529969959
 20
989.0936432439795
 11
4408.424868957015
 21
989.0936432439795
  0
LINE
  8
_0-0_90_FRAME
  6
CONTINUOUS
 62
    4
 10
4408.424868957015
 20
989.0936432439795
 11
4408.424868957015
 21
985.25125920399626
  0
LINE
  8
_0-0_90_FRAME
  6
CONTINUOUS
 62
    4
 10
4408.424868957015
 20
985.25125920399626
 11
4412.2672529969959
 21
985.25125920399626
  0
LINE
  8
_0-0_90_FRAME
  6
CONTINUOUS
 62
    4
 10
4412.2672529969959
 20
989.0936432439795
 11
4412.2672529969959
 21
985.25125920399626
  0
LINE
  8
_0-0_90_FRAME
  6
CONTINUOUS
 62
    4
 10
4370.0010285571689
 20
989.0936432439795
 11
4373.8434125971498
 21
989.0936432439795
  0
LINE
  8
_0-0_90_FRAME
  6
CONTINUOUS
 62
    4
 10
4373.8434125971498
 20
989.0936432439795
 11
4373.8434125971498
 21
985.25125920399626
  0
LINE
  8
_0-0_90_FRAME
  6
CONTINUOUS
 62
    4
 10
4373.8434125971498
 20
985.25125920399626
 11
4370.0010285571689
 21
985.25125920399626
  0
LINE
  8
_0-0_90_FRAME
  6
CONTINUOUS
 62
    4
 10
4370.0010285571689
 20
989.0936432439795
 11
4370.0010285571689
 21
985.25125920399626
  0
LINE
  8
_0-0_90_FRAME
  6
CONTINUOUS
 62
    4
 10
4379.6069886571304
 20
989.0936432439795
 11
4383.4493726971114
 21
989.0936432439795
  0
LINE
  8
_0-0_90_FRAME
  6
CONTINUOUS
 62
    4
 10
4383.4493726971114
 20
989.0936432439795
 11
4383.4493726971114
 21
985.25125920399626
  0
LINE
  8
_0-0_90_FRAME
  6
CONTINUOUS
 62
    4
 10
4383.4493726971114
 20
985.25125920399626
 11
4379.6069886571304
 21
985.25125920399626
  0
LINE
  8
_0-0_90_FRAME
  6
CONTINUOUS
 62
    4
 10
4379.6069886571304
 20
989.0936432439795
 11
4379.6069886571304
 21
985.25125920399626
  0
LINE
  8
_0-0_90_FRAME
  6
CONTINUOUS
 62
    4
 10
4389.2129487570919
 20
989.0936432439795
 11
4393.0553327970729
 21
989.0936432439795
  0
LINE
  8
_0-0_90_FRAME
  6
CONTINUOUS
 62
    4
 10
4393.0553327970729
 20
989.0936432439795
 11
4393.0553327970729
 21
985.25125920399626
  0
LINE
  8
_0-0_90_FRAME
  6
CONTINUOUS
 62
    4
 10
4393.0553327970729
 20
985.25125920399626
 11
4389.2129487570919
 21
985.25125920399626
  0
LINE
  8
_0-0_90_FRAME
  6
CONTINUOUS
 62
    4
 10
4389.2129487570919
 20
989.0936432439795
 11
4389.2129487570919
 21
985.25125920399626
  0
LINE
  8
_0-0_90_FRAME
  6
CONTINUOUS
 62
    4
 10
4398.8189088570534
 20
989.0936432439795
 11
4402.6612928970344
 21
989.0936432439795
  0
LINE
  8
_0-0_90_FRAME
  6
CONTINUOUS
 62
    4
 10
4402.6612928970344
 20
989.0936432439795
 11
4402.6612928970344
 21
985.25125920399626
  0
LINE
  8
_0-0_90_FRAME
  6
CONTINUOUS
 62
    4
 10
4402.6612928970344
 20
985.25125920399626
 11
4398.8189088570534
 21
985.25125920399626
  0
LINE
  8
_0-0_90_FRAME
  6
CONTINUOUS
 62
    4
 10
4398.8189088570534
 20
989.0936432439795
 11
4398.8189088570534
 21
985.25125920399626
  0
LINE
  8
_0-0_90_FRAME
  6
CONTINUOUS
 62
    4
 10
4386.2913741427592
 20
1025.6557777368832
 11
4386.2913741427592
 21
1025.6557777368832
  0
LINE
  8
_0-0_90_FRAME
  6
CONTINUOUS
 62
    4
 10
4386.2913741427592
 20
1025.6557777368832
 11
4386.1794897853242
 21
1026.8790198786896
  0
LINE
  8
_0-0_90_FRAME
  6
CONTINUOUS
 62
    4
 10
4386.1794897853242
 20
1026.8790198786896
 11
4385.8472362626035
 21
1028.0650944270074
  0
LINE
  8
_0-0_90_FRAME
  6
CONTINUOUS
 62
    4
 10
4385.8472362626035
 20
1028.0650944270074
 11
4385.304708929757
 21
1029.1779631068689
  0
LINE
  8
_0-0_90_FRAME
  6
CONTINUOUS
 62
    4
 10
4385.304708929757
 20
1029.1779631068689
 11
4384.5683922052604
 21
1030.1838119665754
  0
LINE
  8
_0-0_90_FRAME
  6
CONTINUOUS
 62
    4
 10
4384.5683922052604
 20
1030.1838119665754
 11
4383.6606587001943
 21
1031.0520787975083
  0
LINE
  8
_0-0_90_FRAME
  6
CONTINUOUS
 62
    4
 10
4383.6606587001943
 20
1031.0520787975083
 11
4382.6090894377739
 21
1031.7563817513744
  0
LINE
  8
_0-0_90_FRAME
  6
CONTINUOUS
 62
    4
 10
4382.6090894377739
 20
1031.7563817513744
 11
4381.4456358179186
 21
1032.2753209393147
  0
LINE
  8
_0-0_90_FRAME
  6
CONTINUOUS
 62
    4
 10
4381.4456358179186
 20
1032.2753209393147
 11
4380.2056487901318
 21
1032.5931286566995
  0
LINE
  8
_0-0_90_FRAME
  6
CONTINUOUS
 62
    4
 10
4380.2056487901318
 20
1032.5931286566995
 11
4378.9268047327887
 21
1032.7001484768548
  0
LINE
  8
_0-0_90_FRAME
  6
CONTINUOUS
 62
    4
 10
4378.9268047327887
 20
1032.7001484768548
 11
4377.6479606754456
 21
1032.5931286566995
  0
LINE
  8
_0-0_90_FRAME
  6
CONTINUOUS
 62
    4
 10
4377.6479606754456
 20
1032.5931286566995
 11
4376.4079736476588
 21
1032.2753209393147
  0
LINE
  8
_0-0_90_FRAME
  6
CONTINUOUS
 62
    4
 10
4376.4079736476588
 20
1032.2753209393147
 11
4375.2445200278034
 21
1031.7563817513744
  0
LINE
  8
_0-0_90_FRAME
  6
CONTINUOUS
 62
    4
 10
4375.2445200278034
 20
1031.7563817513744
 11
4374.1929507653831
 21
1031.0520787975083
  0
LINE
  8
_0-0_90_FRAME
  6
CONTINUOUS
 62
    4
 10
4374.1929507653831
 20
1031.0520787975083
 11
4373.285217260317
 21
1030.1838119665754
  0
LINE
  8
_0-0_90_FRAME
  6
CONTINUOUS
 62
    4
 10
4373.285217260317
 20
1030.1838119665754
 11
4372.5489005358204
 21
1029.1779631068691
  0
LINE
  8
_0-0_90_FRAME
  6
CONTINUOUS
 62
    4
 10
4372.5489005358204
 20
1029.1779631068691
 11
4372.0063732029739
 21
1028.0650944270074
  0
LINE
  8
_0-0_90_FRAME
  6
CONTINUOUS
 62
    4
 10
4372.0063732029739
 20
1028.0650944270074
 11
4371.6741196802532
 21
1026.8790198786896
  0
LINE
  8
_0-0_90_FRAME
  6
CONTINUOUS
 62
    4
 10
4371.6741196802532
 20
1026.8790198786896
 11
4371.5622353228182
 21
1025.6557777368832
  0
LINE
  8
_0-0_90_FRAME
  6
CONTINUOUS
 62
    4
 10
4371.5622353228182
 20
1025.6557777368832
 11
4371.5622353228182
 21
1025.6557777368832
  0
LINE
  8
_0-0_90_FRAME
  6
CONTINUOUS
 62
    4
 10
4386.2913741427574
 20
1025.6557777368832
 11
4386.2913741427574
 21
1023.7345857168904
  0
LINE
  8
_0-0_90_FRAME
  6
CONTINUOUS
 62
    4
 10
4382.8167384444669
 20
1017.7530507425428
 11
4382.8167384444669
 21
1017.7530507425428
  0
LINE
  8
_0-0_90_FRAME
  6
CONTINUOUS
 62
    4
 10
4382.8167384444669
 20
1017.7530507425428
 11
4381.671746115172
 21
1017.1978124902776
  0
LINE
  8
_0-0_90_FRAME
  6
CONTINUOUS
 62
    4
 10
4381.671746115172
 20
1017.1978124902776
 11
4380.4433501309813
 21
1016.8411907847362
  0
LINE
  8
_0-0_90_FRAME
  6
CONTINUOUS
 62
    4
 10
4380.4433501309813
 20
1016.8411907847362
 11
4379.1688746822756
 21
1016.6940213959822
  0
LINE
  8
_0-0_90_FRAME
  6
CONTINUOUS
 62
    4
 10
4379.1688746822756
 20
1016.6940213959822
 11
4377.8870440606479
 21
1016.7607759914215
  0
LINE
  8
_0-0_90_FRAME
  6
CONTINUOUS
 62
    4
 10
4377.8870440606479
 20
1016.7607759914215
 11
4376.6368060408986
 21
1017.0394262664512
  0
LINE
  8
_0-0_90_FRAME
  6
CONTINUOUS
 62
    4
 10
4376.6368060408986
 20
1017.0394262664512
 11
4375.4561484726082
 21
1017.5215055734683
  0
LINE
  8
_0-0_90_FRAME
  6
CONTINUOUS
 62
    4
 10
4375.4561484726082
 20
1017.5215055734683
 11
4374.3809450385452
 21
1018.1923661766731
  0
LINE
  8
_0-0_90_FRAME
  6
CONTINUOUS
 62
    4
 10
4374.3809450385452
 20
1018.1923661766731
 11
4373.4438652509771
 21
1019.0316243161089
  0
LINE
  8
_0-0_90_FRAME
  6
CONTINUOUS
 62
    4
 10
4373.4438652509771
 20
1019.0316243161089
 11
4372.6733818050616
 21
1020.0137795578943
  0
LINE
  8
_0-0_90_FRAME
  6
CONTINUOUS
 62
    4
 10
4372.6733818050616
 20
1020.0137795578943
 11
4372.0929054504204
 21
1021.1089896120019
  0
LINE
  8
_0-0_90_FRAME
  6
CONTINUOUS
 62
    4
 10
4372.0929054504204
 20
1021.1089896120019
 11
4371.7200736673549
 21
1022.2839770751408
  0
LINE
  8
_0-0_90_FRAME
  6
CONTINUOUS
 62
    4
 10
4371.7200736673549
 20
1022.2839770751408
 11
4371.5662147609301
 21
1023.5030405478159
  0
LINE
  8
_0-0_90_FRAME
  6
CONTINUOUS
 62
    4
 10
4371.5662147609301
 20
1023.5030405478159
 11
4371.5622353228182
 21
1023.7345857168904
  0
LINE
  8
_0-0_90_FRAME
  6
CONTINUOUS
 62
    4
 10
4383.6227878221534
 20
1025.467378977364
 11
4383.6227878221534
 21
1023.9304253613701
  0
LINE
  8
_0-0_90_FRAME
  6
CONTINUOUS
 62
    4
 10
4401.2198699571736
 20
1023.1553387389291
 11
4401.2198699571736
 21
1032.7001484768559
  0
LINE
  8
_0-0_90_FRAME
  6
CONTINUOUS
 62
    4
 10
4398.3380819271833
 20
1023.7345857168904
 11
4398.3380819271833
 21
1032.7001484768559
  0
LINE
  8
_0-0_90_FRAME
  6
CONTINUOUS
 62
    4
 10
4398.3380819271833
 20
1032.7001484768559
 11
4401.2198699571736
 21
1032.7001484768559
  0
LINE
  8
_0-0_90_FRAME
  6
CONTINUOUS
 62
    4
 10
4387.7715258172266
 20
1023.1553387389291
 11
4387.7715258172266
 21
1032.7001484768559
  0
LINE
  8
_0-0_90_FRAME
  6
CONTINUOUS
 62
    4
 10
4390.6533138472169
 20
1023.7345857168904
 11
4390.6533138472169
 21
1032.7001484768559
  0
ARC
  8
_0-0_90_FRAME
  6
CONTINUOUS
 62
    4
 10
4394.5404557411048
 20
1023.4449622279133
 40
6.7751231781982479
 50
182.45003099226136
 51
265.55525728852427
  0
LINE
  8
_0-0_90_FRAME
  6
CONTINUOUS
 62
    4
 10
4390.6533138472169
 20
1032.7001484768559
 11
4387.7715258172266
 21
1032.7001484768559
  0
LINE
  8
_0-0_90_FRAME
  6
CONTINUOUS
 62
    4
 10
4394.9759958921977
 20
1016.6902149769199
 11
4394.0153998822016
 21
1016.6902149769199
  0
ARC
  8
_0-0_90_FRAME
  6
CONTINUOUS
 62
    4
 10
4396.3695038532269
 20
1023.6600354736104
 40
5.7166761254783021
 50
179.25279388138676
 51
218.96457184688023
  0
ARC
  8
_0-0_90_FRAME
  6
CONTINUOUS
 62
    4
 10
4392.6218919211724
 20
1023.6600354736104
 40
5.716676125477659
 50
321.03542815311977
 51
0.747206118613265
  0
ARC
  8
_0-0_90_FRAME
  6
CONTINUOUS
 62
    4
 10
4394.4956978872033
 20
1024.7338307534387
 40
5.3298281685001587
 50
241.15772780831895
 51
298.84227219168099
  0
LINE
  8
_0-0_90_FRAME
  6
CONTINUOUS
 62
    4
 10
4379.5474987957659
 20
1020.9348037433617
 11
4380.8549419261744
 21
1019.6623485089385
  0
LINE
  8
_0-0_90_FRAME
  6
CONTINUOUS
 62
    4
 10
4379.5474987957659
 20
1020.9348037433617
 11
4380.9658052840332
 21
1022.4408477064862
  0
LINE
  8
_0-0_90_FRAME
  6
CONTINUOUS
 62
    4
 10
4385.0429276201767
 20
1015.5864356114032
 11
4386.8960852038854
 21
1017.5542308762166
  0
LINE
  8
_0-0_90_FRAME
  6
CONTINUOUS
 62
    4
 10
4374.2308216434249
 20
1025.467378977364
 11
4374.2308216434249
 21
1023.9304253613701
  0
LINE
  8
_0-0_90_FRAME
  6
CONTINUOUS
 62
    4
 10
4383.6227878221525
 20
1025.467378977364
 11
4383.6227878221525
 21
1025.467378977364
  0
LINE
  8
_0-0_90_FRAME
  6
CONTINUOUS
 62
    4
 10
4383.6227878221525
 20
1025.467378977364
 11
4383.5514452872085
 21
1026.2785208961425
  0
LINE
  8
_0-0_90_FRAME
  6
CONTINUOUS
 62
    4
 10
4383.5514452872085
 20
1026.2785208961425
 11
4383.3395853891989
 21
1027.0650166781763
  0
LINE
  8
_0-0_90_FRAME
  6
CONTINUOUS
 62
    4
 10
4383.3395853891989
 20
1027.0650166781763
 11
4382.99364538392
 21
1027.8029690471149
  0
LINE
  8
_0-0_90_FRAME
  6
CONTINUOUS
 62
    4
 10
4382.99364538392
 20
1027.8029690471149
 11
4382.5241364833764
 21
1028.4699556936496
  0
LINE
  8
_0-0_90_FRAME
  6
CONTINUOUS
 62
    4
 10
4382.5241364833764
 20
1028.4699556936496
 11
4381.9453244779288
 21
1029.0457105660371
  0
LINE
  8
_0-0_90_FRAME
  6
CONTINUOUS
 62
    4
 10
4381.9453244779288
 20
1029.0457105660371
 11
4381.2747962774702
 21
1029.5127396438259
  0
LINE
  8
_0-0_90_FRAME
  6
CONTINUOUS
 62
    4
 10
4381.2747962774702
 20
1029.5127396438259
 11
4380.5329255420675
 21
1029.8568524848156
  0
LINE
  8
_0-0_90_FRAME
  6
CONTINUOUS
 62
    4
 10
4380.5329255420675
 20
1029.8568524848156
 11
4379.7422536386111
 21
1030.0675933944622
  0
LINE
  8
_0-0_90_FRAME
  6
CONTINUOUS
 62
    4
 10
4379.7422536386111
 20
1030.0675933944622
 11
4378.9268047327887
 21
1030.138559116866
  0
LINE
  8
_0-0_90_FRAME
  6
CONTINUOUS
 62
    4
 10
4378.9268047327887
 20
1030.138559116866
 11
4378.1113558269662
 21
1030.0675933944622
  0
LINE
  8
_0-0_90_FRAME
  6
CONTINUOUS
 62
    4
 10
4378.1113558269662
 20
1030.0675933944622
 11
4377.3206839235099
 21
1029.8568524848156
  0
LINE
  8
_0-0_90_FRAME
  6
CONTINUOUS
 62
    4
 10
4377.3206839235099
 20
1029.8568524848156
 11
4376.5788131881072
 21
1029.5127396438259
  0
LINE
  8
_0-0_90_FRAME
  6
CONTINUOUS
 62
    4
 10
4376.5788131881072
 20
1029.5127396438259
 11
4375.9082849876486
 21
1029.0457105660371
  0
LINE
  8
_0-0_90_FRAME
  6
CONTINUOUS
 62
    4
 10
4375.9082849876486
 20
1029.0457105660371
 11
4375.329472982201
 21
1028.4699556936496
  0
LINE
  8
_0-0_90_FRAME
  6
CONTINUOUS
 62
    4
 10
4375.329472982201
 20
1028.4699556936496
 11
4374.8599640816574
 21
1027.8029690471149
  0
LINE
  8
_0-0_90_FRAME
  6
CONTINUOUS
 62
    4
 10
4374.8599640816574
 20
1027.8029690471149
 11
4374.5140240763785
 21
1027.0650166781763
  0
LINE
  8
_0-0_90_FRAME
  6
CONTINUOUS
 62
    4
 10
4374.5140240763785
 20
1027.0650166781763
 11
4374.3021641783689
 21
1026.2785208961425
  0
LINE
  8
_0-0_90_FRAME
  6
CONTINUOUS
 62
    4
 10
4374.3021641783689
 20
1026.2785208961425
 11
4374.2308216434249
 21
1025.467378977364
  0
LINE
  8
_0-0_90_FRAME
  6
CONTINUOUS
 62
    4
 10
4374.2308216434249
 20
1025.467378977364
 11
4374.2308216434249
 21
1025.467378977364
  0
LINE
  8
_0-0_90_FRAME
  6
CONTINUOUS
 62
    4
 10
4380.8549419261735
 20
1019.662348508938
 11
4380.8549419261735
 21
1019.662348508938
  0
LINE
  8
_0-0_90_FRAME
  6
CONTINUOUS
 62
    4
 10
4380.8549419261735
 20
1019.662348508938
 11
4380.0821064387028
 21
1019.393921727117
  0
LINE
  8
_0-0_90_FRAME
  6
CONTINUOUS
 62
    4
 10
4380.0821064387028
 20
1019.393921727117
 11
4379.2741676935084
 21
1019.2631082251169
  0
LINE
  8
_0-0_90_FRAME
  6
CONTINUOUS
 62
    4
 10
4379.2741676935084
 20
1019.2631082251169
 11
4378.4556745005266
 21
1019.2738827050011
  0
LINE
  8
_0-0_90_FRAME
  6
CONTINUOUS
 62
    4
 10
4378.4556745005266
 20
1019.2738827050011
 11
4377.651496361249
 21
1019.4259177896507
  0
LINE
  8
_0-0_90_FRAME
  6
CONTINUOUS
 62
    4
 10
4377.651496361249
 20
1019.4259177896507
 11
4376.8860678215033
 21
1019.7145939699518
  0
LINE
  8
_0-0_90_FRAME
  6
CONTINUOUS
 62
    4
 10
4376.8860678215033
 20
1019.7145939699518
 11
4376.1826460401444
 21
1020.1311399662434
  0
LINE
  8
_0-0_90_FRAME
  6
CONTINUOUS
 62
    4
 10
4376.1826460401444
 20
1020.1311399662434
 11
4375.5626041320502
 21
1020.6628992392104
  0
LINE
  8
_0-0_90_FRAME
  6
CONTINUOUS
 62
    4
 10
4375.5626041320502
 20
1020.6628992392104
 11
4375.044781756842
 21
1021.293714552427
  0
LINE
  8
_0-0_90_FRAME
  6
CONTINUOUS
 62
    4
 10
4375.044781756842
 20
1021.293714552427
 11
4374.6449126853586
 21
1022.004418901809
  0
LINE
  8
_0-0_90_FRAME
  6
CONTINUOUS
 62
    4
 10
4374.6449126853586
 20
1022.004418901809
 11
4374.3751467369957
 21
1022.7734178953343
  0
LINE
  8
_0-0_90_FRAME
  6
CONTINUOUS
 62
    4
 10
4374.3751467369957
 20
1022.7734178953343
 11
4374.2436806135838
 21
1023.5773458877168
  0
LINE
  8
_0-0_90_FRAME
  6
CONTINUOUS
 62
    4
 10
4374.2436806135838
 20
1023.5773458877168
 11
4374.2308157483085
 21
1023.9229844764097
  0
LINE
  8
_0-0_90_FRAME
  6
CONTINUOUS
 62
    4
 10
4357.5159527847945
 20
1016.6902149769199
 11
4360.390124128664
 21
1016.6902149769199
  0
LINE
  8
_0-0_90_FRAME
  6
CONTINUOUS
 62
    4
 10
4357.5159527847945
 20
1016.6902149769199
 11
4357.5159527847945
 21
1016.767062657718
  0
LINE
  8
_0-0_90_FRAME
  6
CONTINUOUS
 62
    4
 10
4357.5159527847945
 20
1016.767062657718
 11
4363.5531050864683
 21
1032.7001484768559
  0
LINE
  8
_0-0_90_FRAME
  6
CONTINUOUS
 62
    4
 10
4357.5159527847945
 20
1016.6902149769199
 11
4357.5159527847945
 21
1016.767062657718
  0
LINE
  8
_0-0_90_FRAME
  6
CONTINUOUS
 62
    4
 10
4361.9571169666833
 20
1020.9109955011828
 11
4367.8679671568416
 21
1020.9109955011828
  0
LINE
  8
_0-0_90_FRAME
  6
CONTINUOUS
 62
    4
 10
4362.8236513019392
 20
1023.3445053931721
 11
4367.0014328215921
 21
1023.3445053931721
  0
LINE
  8
_0-0_90_FRAME
  6
CONTINUOUS
 62
    4
 10
4372.2450916047328
 20
1016.6902149769199
 11
4369.3709202608688
 21
1016.6902149769199
  0
LINE
  8
_0-0_90_FRAME
  6
CONTINUOUS
 62
    4
 10
4369.3709202608688
 20
1016.6902149769199
 11
4367.8679671568416
 21
1020.9109955011828
  0
LINE
  8
_0-0_90_FRAME
  6
CONTINUOUS
 62
    4
 10
4372.2450916047328
 20
1016.767062657718
 11
4366.2079393030599
 21
1032.7001484768559
  0
LINE
  8
_0-0_90_FRAME
  6
CONTINUOUS
 62
    4
 10
4372.2450916047328
 20
1016.6902149769199
 11
4372.2450916047328
 21
1016.767062657718
  0
LINE
  8
_0-0_90_FRAME
  6
CONTINUOUS
 62
    4
 10
4363.5531050864683
 20
1032.7001484768559
 11
4366.2079393030599
 21
1032.7001484768559
  0
LINE
  8
_0-0_90_FRAME
  6
CONTINUOUS
 62
    4
 10
4367.0014328215921
 20
1023.3445053931721
 11
4364.8805221947641
 21
1029.3007113742167
  0
LINE
  8
_0-0_90_FRAME
  6
CONTINUOUS
 62
    4
 10
4380.9658052840332
 20
1022.4408477064862
 11
4386.8960852038854
 21
1017.5542308762166
  0
LINE
  8
_0-0_90_FRAME
  6
CONTINUOUS
 62
    4
 10
4382.8167384444687
 20
1017.7530507425441
 11
4385.0429276201767
 21
1015.5864356114032
  0
LINE
  8
_0-0_90_FRAME
  6
CONTINUOUS
 62
    4
 10
4361.9571169666833
 20
1020.9109955011828
 11
4362.8236513019392
 21
1023.3445053931721
  0
LINE
  8
_0-0_90_FRAME
  6
CONTINUOUS
 62
    4
 10
4386.2913741427592
 20
1023.7345857168904
 11
4386.2913741427592
 21
1023.7345857168904
  0
LINE
  8
_0-0_90_FRAME
  6
CONTINUOUS
 62
    4
 10
4386.2913741427592
 20
1023.7345857168904
 11
4386.1794897853242
 21
1022.5113435750841
  0
LINE
  8
_0-0_90_FRAME
  6
CONTINUOUS
 62
    4
 10
4386.1794897853242
 20
1022.5113435750841
 11
4385.8472362626035
 21
1021.3252690267661
  0
LINE
  8
_0-0_90_FRAME
  6
CONTINUOUS
 62
    4
 10
4385.8472362626035
 20
1021.3252690267661
 11
4385.304708929757
 21
1020.2124003469046
  0
LINE
  8
_0-0_90_FRAME
  6
CONTINUOUS
 62
    4
 10
4385.304708929757
 20
1020.2124003469046
 11
4384.7384841694875
 21
1019.4078428948242
  0
LINE
  8
_0-0_90_FRAME
  6
CONTINUOUS
 62
    4
 10
4383.6227937172689
 20
1023.9229844764097
 11
4383.6227937172689
 21
1023.9229844764097
  0
LINE
  8
_0-0_90_FRAME
  6
CONTINUOUS
 62
    4
 10
4383.6227937172689
 20
1023.9229844764097
 11
4383.5514510927642
 21
1023.1115825865884
  0
LINE
  8
_0-0_90_FRAME
  6
CONTINUOUS
 62
    4
 10
4383.5514510927642
 20
1023.1115825865884
 11
4383.3395909287965
 21
1022.3248347326002
  0
LINE
  8
_0-0_90_FRAME
  6
CONTINUOUS
 62
    4
 10
4383.3395909287965
 20
1022.3248347326002
 11
4382.9936504892403
 21
1021.5866458498748
  0
LINE
  8
_0-0_90_FRAME
  6
CONTINUOUS
 62
    4
 10
4382.9936504892403
 20
1021.5866458498748
 11
4382.6750779452814
 21
1021.1081126492286
  0
LINE
  8
_0-0_90_FRAME
  6
CONTINUOUS
 62
    4
 10
4371.5622353228191
 20
1025.6557777368832
 11
4371.5622353228191
 21
1023.7345857168904
  0
LINE
  8
_0-0_90_FRAME
  6
CONTINUOUS
 62
    4
 10
4360.390124128664
 20
1016.6902149769199
 11
4364.8805221947641
 21
1029.3007113742167
  0
LINE
  8
_0-0_90_FRAME
  6
CONTINUOUS
 62
    4
 10
4401.0576271894633
 20
1016.6902149769199
 11
4403.9317985333328
 21
1016.6902149769199
  0
LINE
  8
_0-0_90_FRAME
  6
CONTINUOUS
 62
    4
 10
4401.0576271894633
 20
1016.6902149769199
 11
4401.0576271894633
 21
1016.767062657718
  0
LINE
  8
_0-0_90_FRAME
  6
CONTINUOUS
 62
    4
 10
4401.0576271894633
 20
1016.767062657718
 11
4407.0947794911426
 21
1032.7001484768559
  0
LINE
  8
_0-0_90_FRAME
  6
CONTINUOUS
 62
    4
 10
4401.0576271894633
 20
1016.6902149769199
 11
4401.0576271894633
 21
1016.767062657718
  0
LINE
  8
_0-0_90_FRAME
  6
CONTINUOUS
 62
    4
 10
4405.4987913713576
 20
1020.9109955011828
 11
4411.4096415615149
 21
1020.9109955011828
  0
LINE
  8
_0-0_90_FRAME
  6
CONTINUOUS
 62
    4
 10
4406.365325706608
 20
1023.3445053931721
 11
4410.5431072262645
 21
1023.3445053931721
  0
LINE
  8
_0-0_90_FRAME
  6
CONTINUOUS
 62
    4
 10
4415.7867660094071
 20
1016.6902149769199
 11
4412.9125946655386
 21
1016.6902149769199
  0
LINE
  8
_0-0_90_FRAME
  6
CONTINUOUS
 62
    4
 10
4412.9125946655386
 20
1016.6902149769199
 11
4411.4096415615149
 21
1020.9109955011828
  0
LINE
  8
_0-0_90_FRAME
  6
CONTINUOUS
 62
    4
 10
4415.7867660094071
 20
1016.767062657718
 11
4409.7496137077333
 21
1032.7001484768559
  0
LINE
  8
_0-0_90_FRAME
  6
CONTINUOUS
 62
    4
 10
4415.7867660094071
 20
1016.6902149769199
 11
4415.7867660094071
 21
1016.767062657718
  0
LINE
  8
_0-0_90_FRAME
  6
CONTINUOUS
 62
    4
 10
4407.0947794911426
 20
1032.7001484768559
 11
4409.7496137077333
 21
1032.7001484768559
  0
LINE
  8
_0-0_90_FRAME
  6
CONTINUOUS
 62
    4
 10
4410.5431072262645
 20
1023.3445053931721
 11
4408.4221965994375
 21
1029.3007113742167
  0
LINE
  8
_0-0_90_FRAME
  6
CONTINUOUS
 62
    4
 10
4405.4987913713576
 20
1020.9109955011828
 11
4406.365325706608
 21
1023.3445053931721
  0
LINE
  8
_0-0_90_FRAME
  6
CONTINUOUS
 62
    4
 10
4403.9317985333328
 20
1016.6902149769199
 11
4408.4221965994375
 21
1029.3007113742167
  0
ARC
  8
_0-0_90_FRAME
  6
CONTINUOUS
 62
    4
 10
4394.4509400332945
 20
1023.4449622279133
 40
6.7751231781982479
 50
274.44474271147573
 51
357.5499690077387
  0
LINE
  8
_0-0_90_FRAME
  6
CONTINUOUS
 62
    4
 10
4382.6750779452841
 20
1021.1081126492305
 11
4384.7384841694902
 21
1019.4078428948249
  0
LINE
  8
_0-0_90_FRAME
  6
CONTINUOUS
 62
    4
 10
4383.7957855318673
 20
1005.3551461190399
 11
4383.7957855318673
 21
1005.3551461190399
  0
LINE
  8
_0-0_90_FRAME
  6
CONTINUOUS
 62
    4
 10
4383.7957855318673
 20
1005.3551461190399
 11
4384.6028776729891
 21
1005.6814126769463
  0
LINE
  8
_0-0_90_FRAME
  6
CONTINUOUS
 62
    4
 10
4384.6028776729891
 20
1005.6814126769463
 11
4385.3281768747302
 21
1006.1169196427137
  0
LINE
  8
_0-0_90_FRAME
  6
CONTINUOUS
 62
    4
 10
4385.3281768747302
 20
1006.1169196427137
 11
4385.9496452878657
 21
1006.6484343575644
  0
LINE
  8
_0-0_90_FRAME
  6
CONTINUOUS
 62
    4
 10
4385.9496452878657
 20
1006.6484343575644
 11
4386.448399909139
 21
1007.2598070158471
  0
LINE
  8
_0-0_90_FRAME
  6
CONTINUOUS
 62
    4
 10
4386.448399909139
 20
1007.2598070158471
 11
4386.8092863317661
 21
1007.9324613687094
  0
LINE
  8
_0-0_90_FRAME
  6
CONTINUOUS
 62
    4
 10
4386.8092863317661
 20
1007.9324613687094
 11
4387.0213392044116
 21
1008.645959154019
  0
LINE
  8
_0-0_90_FRAME
  6
CONTINUOUS
 62
    4
 10
4387.0213392044116
 20
1008.645959154019
 11
4387.078115407845
 21
1009.3786211026166
  0
LINE
  8
_0-0_90_FRAME
  6
CONTINUOUS
 62
    4
 10
4387.078115407845
 20
1009.3786211026166
 11
4386.9778898258546
 21
1010.108185651939
  0
LINE
  8
_0-0_90_FRAME
  6
CONTINUOUS
 62
    4
 10
4386.9778898258546
 20
1010.108185651939
 11
4386.7237077620339
 21
1010.8124853523325
  0
LINE
  8
_0-0_90_FRAME
  6
CONTINUOUS
 62
    4
 10
4386.7237077620339
 20
1010.8124853523325
 11
4386.3232924097683
 21
1011.4701204137933
  0
LINE
  8
_0-0_90_FRAME
  6
CONTINUOUS
 62
    4
 10
4386.3232924097683
 20
1011.4701204137933
 11
4385.7888101869166
 21
1012.0611089277586
  0
LINE
  8
_0-0_90_FRAME
  6
CONTINUOUS
 62
    4
 10
4385.7888101869166
 20
1012.0611089277586
 11
4385.136501065359
 21
1012.5674940072859
  0
LINE
  8
_0-0_90_FRAME
  6
CONTINUOUS
 62
    4
 10
4385.136501065359
 20
1012.5674940072859
 11
4384.3861851276706
 21
1012.9738893979771
  0
LINE
  8
_0-0_90_FRAME
  6
CONTINUOUS
 62
    4
 10
4384.3861851276706
 20
1012.9738893979771
 11
4383.5606603439392
 21
1013.2679469815321
  0
LINE
  8
_0-0_90_FRAME
  6
CONTINUOUS
 62
    4
 10
4383.5606603439392
 20
1013.2679469815321
 11
4382.6850098669829
 21
1013.4407319670748
  0
LINE
  8
_0-0_90_FRAME
  6
CONTINUOUS
 62
    4
 10
4382.6850098669829
 20
1013.4407319670748
 11
4381.9109473928147
 21
1013.4882282769316
  0
LINE
  8
_0-0_90_FRAME
  6
CONTINUOUS
 62
    4
 10
4393.0300350499938
 20
1000.0398841369857
 11
4393.0300350499938
 21
1010.9266389169417
  0
LINE
  8
_0-0_90_FRAME
  6
CONTINUOUS
 62
    4
 10
4390.1482470200026
 20
1000.0398841369857
 11
4390.1482470200026
 21
1010.9266389169417
  0
LINE
  8
_0-0_90_FRAME
  6
CONTINUOUS
 62
    4
 10
4389.8280483500021
 20
1013.4882282769328
 11
4393.3502337199907
 21
1013.4882282769328
  0
LINE
  8
_0-0_90_FRAME
  6
CONTINUOUS
 62
    4
 10
4374.5463779828488
 20
1013.4882282769328
 11
4374.5463779828488
 21
997.47829477699702
  0
LINE
  8
_0-0_90_FRAME
  6
CONTINUOUS
 62
    4
 10
4389.8280483500021
 20
997.47829477699702
 11
4393.3502337199907
 21
997.47829477699702
  0
LINE
  8
_0-0_90_FRAME
  6
CONTINUOUS
 62
    4
 10
4393.3502337199907
 20
997.47829477699702
 11
4393.3502337199907
 21
999.71968546698895
  0
ARC
  8
_0-0_90_FRAME
  6
CONTINUOUS
 62
    4
 10
4393.3502337199907
 20
1000.0398841369857
 40
0.3201986699987063
 50
180
 51
270
  0
LINE
  8
_0-0_90_FRAME
  6
CONTINUOUS
 62
    4
 10
4389.8280483500021
 20
997.47829477699702
 11
4389.8280483500021
 21
999.71968546698895
  0
ARC
  8
_0-0_90_FRAME
  6
CONTINUOUS
 62
    4
 10
4389.8280483500021
 20
1000.0398841369857
 40
0.3201986699987063
 50
270
 51
0
  0
LINE
  8
_0-0_90_FRAME
  6
CONTINUOUS
 62
    4
 10
4393.3502337199907
 20
1013.4882282769328
 11
4393.3502337199907
 21
1011.2468375869407
  0
ARC
  8
_0-0_90_FRAME
  6
CONTINUOUS
 62
    4
 10
4393.3502337199907
 20
1010.9266389169417
 40
0.3201986699987063
 50
90
 51
180
  0
LINE
  8
_0-0_90_FRAME
  6
CONTINUOUS
 62
    4
 10
4389.8280483500021
 20
1013.4882282769328
 11
4389.8280483500021
 21
1011.2468375869407
  0
ARC
  8
_0-0_90_FRAME
  6
CONTINUOUS
 62
    4
 10
4389.8280483500021
 20
1010.9266389169417
 40
0.3201986699987063
 50
0
 51
90
  0
LINE
  8
_0-0_90_FRAME
  6
CONTINUOUS
 62
    4
 10
4367.598118868329
 20
997.47829477699702
 11
4367.598118868329
 21
1010.9266389169417
  0
LINE
  8
_0-0_90_FRAME
  6
CONTINUOUS
 62
    4
 10
4364.7163308383433
 20
997.47829477699702
 11
4364.7163308383433
 21
1010.9266389169417
  0
LINE
  8
_0-0_90_FRAME
  6
CONTINUOUS
 62
    4
 10
4359.5931521183657
 20
1013.4882282769328
 11
4372.7212975883112
 21
1013.4882282769328
  0
LINE
  8
_0-0_90_FRAME
  6
CONTINUOUS
 62
    4
 10
4364.7163308383433
 20
997.47829477699702
 11
4367.598118868329
 21
997.47829477699702
  0
LINE
  8
_0-0_90_FRAME
  6
CONTINUOUS
 62
    4
 10
4372.7212975883112
 20
1013.4882282769328
 11
4372.7212975883112
 21
1011.2468375869407
  0
ARC
  8
_0-0_90_FRAME
  6
CONTINUOUS
 62
    4
 10
4367.9183175383305
 20
1010.9266389169417
 40
0.3201986699987063
 50
90
 51
180
  0
LINE
  8
_0-0_90_FRAME
  6
CONTINUOUS
 62
    4
 10
4359.5931521183657
 20
1013.4882282769328
 11
4359.5931521183657
 21
1011.2468375869407
  0
ARC
  8
_0-0_90_FRAME
  6
CONTINUOUS
 62
    4
 10
4364.3961321683464
 20
1010.9266389169417
 40
0.3201986699987063
 50
0
 51
90
  0
LINE
  8
_0-0_90_FRAME
  6
CONTINUOUS
 62
    4
 10
4359.5931521183657
 20
1011.2468375869407
 11
4364.3961321683464
 21
1011.2468375869407
  0
LINE
  8
_0-0_90_FRAME
  6
CONTINUOUS
 62
    4
 10
4367.9183175383305
 20
1011.2468375869407
 11
4372.7212975883112
 21
1011.2468375869407
  0
LINE
  8
_0-0_90_FRAME
  6
CONTINUOUS
 62
    4
 10
4374.5463779828488
 20
997.47829477699702
 11
4377.4281660128345
 21
997.47829477699702
  0
LINE
  8
_0-0_90_FRAME
  6
CONTINUOUS
 62
    4
 10
4377.4281660128345
 20
997.47829477699702
 11
4377.4281660128345
 21
1011.2468375869407
  0
LINE
  8
_0-0_90_FRAME
  6
CONTINUOUS
 62
    4
 10
4374.5463779828488
 20
1013.4882282769328
 11
4381.9109473928147
 21
1013.4882282769328
  0
LINE
  8
_0-0_90_FRAME
  6
CONTINUOUS
 62
    4
 10
4377.4281660128345
 20
1011.2468375869407
 11
4382.2951857968173
 21
1011.2468375869407
  0
LINE
  8
_0-0_90_FRAME
  6
CONTINUOUS
 62
    4
 10
4377.5242256138308
 20
1005.0651336676806
 11
4377.5242256138308
 21
1007.3065243576726
  0
LINE
  8
_0-0_90_FRAME
  6
CONTINUOUS
 62
    4
 10
4377.5242256138308
 20
1005.0651336676806
 11
4380.6684381110035
 21
1005.0651336676806
  0
LINE
  8
_0-0_90_FRAME
  6
CONTINUOUS
 62
    4
 10
4377.5242256138308
 20
1007.3065243576726
 11
4382.2951857968173
 21
1007.3065243576726
  0
ARC
  8
_0-0_90_FRAME
  6
CONTINUOUS
 62
    4
 10
4382.2264877286143
 20
1009.2766809723067
 40
1.9713539790611523
 50
271.99705710435398
 51
88.002942895541636
  0
LINE
  8
_0-0_90_FRAME
  6
CONTINUOUS
 62
    4
 10
4384.2939013086761
 20
997.47829477699702
 11
4387.3998284076615
 21
997.47829477699702
  0
LINE
  8
_0-0_90_FRAME
  6
CONTINUOUS
 62
    4
 10
4384.6409003874587
 20
1004.3625970308899
 11
4387.3998284076615
 21
997.60637424499657
  0
LINE
  8
_0-0_90_FRAME
  6
CONTINUOUS
 62
    4
 10
4381.8565697620143
 20
1004.2626466210863
 11
4384.2939013086761
 21
997.47829477699702
  0
ARC
  8
_0-0_90_FRAME
  6
CONTINUOUS
 62
    4
 10
4380.6684381110035
 20
1003.7843389876884
 40
1.2807946799948255
 50
21.928297866550249
 51
90
  0
ARC
  8
_0-0_90_FRAME
  6
CONTINUOUS
 62
    4
 10
4382.7035781875538
 20
1003.5691114745075
 40
2.0935225421386505
 50
22.272952259980951
 51
58.553113012863221
  0
LINE
  8
_0-0_90_FRAME
  6
CONTINUOUS
 62
    4
 10
4387.3998284076615
 20
997.60637424499657
 11
4387.3998284076615
 21
997.47829477699702
  0
LINE
  8
_0-0_90_FRAME
  6
CONTINUOUS
 62
    4
 10
4396.2351419061733
 20
1013.4882282769328
 11
4396.2351419061733
 21
997.47829477699702
  0
LINE
  8
_0-0_90_FRAME
  6
CONTINUOUS
 62
    4
 10
4396.2351419061733
 20
997.47829477699702
 11
4399.1169299361645
 21
997.47829477699702
  0
LINE
  8
_0-0_90_FRAME
  6
CONTINUOUS
 62
    4
 10
4399.1169299361645
 20
997.47829477699702
 11
4399.1142763060743
 21
1008.685248226952
  0
LINE
  8
_0-0_90_FRAME
  6
CONTINUOUS
 62
    4
 10
4396.2351419061733
 20
1013.4882282769328
 11
4400.416805049601
 21
1013.4882282769328
  0
LINE
  8
_0-0_90_FRAME
  6
CONTINUOUS
 62
    4
 10
4409.3659410062091
 20
1008.685248226952
 11
4409.3659410062091
 21
997.47829477699702
  0
LINE
  8
_0-0_90_FRAME
  6
CONTINUOUS
 62
    4
 10
4409.3659410062091
 20
997.47829477699702
 11
4412.2477290361958
 21
997.47829477699702
  0
LINE
  8
_0-0_90_FRAME
  6
CONTINUOUS
 62
    4
 10
4412.2477290361958
 20
997.47829477699702
 11
4412.2477290361958
 21
1013.4882282769328
  0
LINE
  8
_0-0_90_FRAME
  6
CONTINUOUS
 62
    4
 10
4402.7992146411525
 20
997.47829477699702
 11
4405.6810026711373
 21
997.47829477699702
  0
LINE
  8
_0-0_90_FRAME
  6
CONTINUOUS
 62
    4
 10
4412.2477290361958
 20
1013.4882282769328
 11
4408.0634122626834
 21
1013.4882282769328
  0
LINE
  8
_0-0_90_FRAME
  6
CONTINUOUS
 62
    4
 10
4405.6810026711373
 20
997.47829477699702
 11
4409.3659410062091
 21
1008.685248226952
  0
LINE
  8
_0-0_90_FRAME
  6
CONTINUOUS
 62
    4
 10
4402.7992146411525
 20
997.47829477699702
 11
4399.1142763060743
 21
1008.685248226952
  0
LINE
  8
_0-0_90_FRAME
  6
CONTINUOUS
 62
    4
 10
4404.2401086561422
 20
1001.8604663858555
 11
4408.0634122626834
 21
1013.4882282769328
  0
LINE
  8
_0-0_90_FRAME
  6
CONTINUOUS
 62
    4
 10
4404.2401086561422
 20
1001.8604663858555
 11
4400.416805049601
 21
1013.4882282769328
  0
TEXT
  8
_0-0_90_FRAME
 62
    2
 10
4431.1244372494102
 20
1026.2676845957405
 40
18.901928571352201
 41
1
 50
0
  1
株式会社
  0
LINE
  8
_0-0_90_FRAME
  6
CONTINUOUS
 62
   18
 10
4488.6666627610584
 20
1065.5621720274617
 11
4488.6666627610584
 21
1153.955029169965
  0
TEXT
  8
_0-0_90_FRAME
 62
    7
 10
4653.643638829838
 20
997.12526122276051
 40
25
 41
1
 50
0
  1
寺田
  0
TEXT
  8
_0-0_90_FRAME
 62
    7
 10
4525.1257816875413
 20
1086.7783612949129
 40
25
 41
1
 50
0
  1
1：5
  0
TEXT
  8
_0-0_90_FRAME
 62
    7
 10
4749.100271894109
 20
1136.840478375161
 40
12.5
 41
1
 50
0
  1
機器
  0
LINE
  8
_0-0_90_FRAME
  6
CONTINUOUS
 62
   18
 10
4934.5118799172515
 20
1153.955029169965
 11
4934.5118799172515
 21
1026.6693148847637
  0
TEXT
  8
_0-0_90_FRAME
 62
    7
 10
4937.9097747657097
 20
1136.840478375161
 40
12.5
 41
1
 50
0
  1
部品名
  0
TEXT
  8
_0-0_90_FRAME
 62
    7
 10
4937.9097747657042
 20
1065.5011926611583
 40
12.5
 41
1
 50
0
  1
図面番号
  0
LINE
  8
_0-0_90_FRAME
  6
CONTINUOUS
 62
   18
 10
4745.7023770456608
 20
1090.3121720273655
 11
4934.5118799172515
 21
1090.3121720273655
  0
TEXT
  8
_0-0_90_FRAME
 62
    7
 10
4749.100271894109
 20
1072.5726212325612
 40
12.5
 41
1
 50
0
  1
型式
  0
LINE
  8
_0-0_90_FRAME
  6
CONTINUOUS
 62
   18
 10
4574.0595264658505
 20
1153.955029169965
 11
5330.1666627576615
 21
1153.955029169965
  0
LINE
  8
_0-0_90_FRAME
  6
CONTINUOUS
 62
    4
 10
4574.0595264658505
 20
1258.9550235404263
 11
4574.0595264658505
 21
1153.955029169965
  0
LINE
  8
_0-0_90_FRAME
  6
CONTINUOUS
 62
    4
 10
4934.5118799172515
 20
1258.9550235404263
 11
4934.5118799172515
 21
1153.955029169965
  0
LINE
  8
_0-0_90_FRAME
  6
CONTINUOUS
 62
    4
 10
5071.7324442396657
 20
1258.9550235404263
 11
5071.7324442396812
 21
1153.955029169965
  0
LINE
  8
_0-0_90_FRAME
  6
CONTINUOUS
 62
    4
 10
5036.7324486146636
 20
1258.9550235404263
 11
5036.7324486146781
 21
1153.955029169965
  0
LINE
  8
_0-0_90_FRAME
  6
CONTINUOUS
 62
    4
 10
4626.5595199033596
 20
1258.9550235404263
 11
4626.5595199033596
 21
1153.955029169965
  0
LINE
  8
_0-0_90_FRAME
  6
CONTINUOUS
 62
    4
 10
5124.2324376771721
 20
1258.9550235404263
 11
5124.2324376771721
 21
1153.955029169965
  0
INSERT
  2
-003-Jis_w20130906110600
  8
_0-2_08_DIM
 10
5065.6754906498481
 20
1421.3562712271917
 41
3
 42
3
 50
0
  0
LINE
  8
_0-2_08_DIM
  6
CONTINUOUS
 62
    3
 10
1884.7180910130924
 20
3421.2520564667921
 11
2018.1559862320685
 21
3421.2520564667921
  0
INSERT
  2
-004-p1ba05
  8
_0-2_08_DIM
 10
1965.2242643904733
 20
3428.0900023426939
 41
7.5
 42
7.5
 50
0
  0
TEXT
  8
_0-0_90_FRAME
 62
    3
 10
5051.0535340488141
 20
1197.3184011980854
 40
14.999999999999998
 41
1
 50
0
  1
1
  0
TEXT
  8
_0-0_90_FRAME
 62
    3
 10
4942.5687512066606
 20
1197.6517327118954
 40
14.999999999999998
 41
1
 50
0
  1
SUS304
  0
TEXT
  8
_0-0_90_FRAME
 62
    3
 10
4650.9439374308331
 20
1197.4527708146713
 40
14.999999999999998
 41
1
 50
0
  1
排水受けパン2
  0
TEXT
  8
_0-0_90_FRAME
 62
    3
 10
4594.0216476882588
 20
1197.0669048996212
 40
14.999999999999998
 41
1
 50
0
  1
3
  0
TEXT
  8
_0-0_90_FRAME
 62
    3
 10
5083.1658959622728
 20
1171.9193574140024
 40
12.5
 41
1
 50
0
  1
重量
  0
TEXT
  8
_0-0_90_FRAME
 62
    3
 10
4957.854064549334
 20
1163.8516178671357
 40
14.999999999999998
 41
1
 50
0
  1
材　質
  0
TEXT
  8
_0-0_90_FRAME
 62
    3
 10
5038.5706591778962
 20
1163.7388832274096
 40
14.999999999999998
 41
1
 50
0
  1
数量
  0
TEXT
  8
_0-0_90_FRAME
 62
    3
 10
5088.6907197894188
 20
1159.6884846775663
 40
9.9999999999999982
 41
1
 50
0
  1
kg
  0
TEXT
  8
_0-0_90_FRAME
 62
    3
 10
5191.1346095901372
 20
1163.4873869289163
 40
14.999999999999998
 41
1
 50
0
  1
備  考
  0
TEXT
  8
_0-0_90_FRAME
 62
    3
 10
4584.7494994385697
 20
1163.4873869289163
 40
14.999999999999998
 41
1
 50
0
  1
符号
  0
TEXT
  8
_0-0_90_FRAME
 62
    3
 10
4711.9105699372658
 20
1164.0318313053081
 40
14.999999999999998
 41
1
 50
0
  1
部　　品　　名
  0
LINE
  8
_0-0_90_FRAME
  6
CONTINUOUS
 62
    4
 10
4574.0594975830591
 20
1258.9550235404263
 11
5330.166633874871
 21
1258.9550235404263
  0
LINE
  8
_0-0_90_FRAME
  6
CONTINUOUS
 62
    4
 10
4574.0594975830591
 20
1223.955025409344
 11
5330.166633874871
 21
1223.955025409344
  0
LINE
  8
_0-0_90_FRAME
  6
CONTINUOUS
 62
    4
 10
4574.0594975830591
 20
1188.955025409344
 11
5330.166633874871
 21
1188.955025409344
  0
TEXT
  8
_0-0_90_FRAME
 62
    7
 10
5075.7958416695437
 20
1107.9009618311115
 40
19.999999999999996
 41
1
 50
0
  1
脱水機 部品図
  0
TEXT
  8
_0-0_90_FRAME
 62
    7
 10
4757.9063361197914
 20
1107.1833239337896
 40
15.999999999999998
 41
0.9
 50
0
  1
有機性汚泥燃料施設
  0
LINE
  8
_0-3_04_HIDDEN
  6
CONTINUOUS
 62
    7
 10
4819.8446032774327
 20
2563.8579848933041
 11
4819.8446032774345
 21
2119.8579848894406
  0
LINE
  8
_0-4_05_CENTER
  6
CENTER2
 62
    4
 10
4916.234671116571
 20
2341.8579848913723
 11
4484.7168024299326
 21
2341.8579848913723
  0
LINE
  8
_0-5_0
  6
CONTINUOUS
 62
   18
 10
4821.8446033000519
 20
2563.8579848782897
 11
4821.8446032774345
 21
2119.8579849046073
  0
LINE
  8
_0-4_05_CENTER
  6
CENTER2
 62
    4
 10
4882.8953550507567
 20
2411.857984891376
 11
4911.4259213673568
 21
2411.857984891376
  0
LINE
  8
_0-3_04_HIDDEN
  6
CONTINUOUS
 62
    7
 10
4892.8446032822167
 20
2380.0079848913733
 11
4901.8446032822176
 21
2380.0079848913733
  0
LINE
  8
_0-3_04_HIDDEN
  6
CONTINUOUS
 62
    7
 10
4897.8446032822058
 20
2377.0079848913733
 11
4821.8446032774327
 21
2377.0079848913697
  0
LINE
  8
_0-5_0
  6
CONTINUOUS
 62
   18
 10
4892.8446032822167
 20
2380.0079848913733
 11
4821.8446032774327
 21
2380.0079848913697
  0
LINE
  8
_0-3_04_HIDDEN
  6
CONTINUOUS
 62
    7
 10
4897.8446032822058
 20
2303.7079848913741
 11
4897.8446032822058
 21
2380.0079848913733
  0
LINE
  8
_0-5_0
  6
CONTINUOUS
 62
   18
 10
4892.8446032822167
 20
2303.7079848913741
 11
4821.8446032774327
 21
2303.7079848913704
  0
LINE
  8
_0-3_04_HIDDEN
  6
CONTINUOUS
 62
    7
 10
4897.8446032822058
 20
2306.7079848913745
 11
4821.8446032774327
 21
2306.7079848913709
  0
LINE
  8
_0-3_04_HIDDEN
  6
CONTINUOUS
 62
    7
 10
4892.8446032822167
 20
2303.7079848913741
 11
4901.8446032822176
 21
2303.7079848913741
  0
LINE
  8
_0-4_05_CENTER
  6
CENTER2
 62
    4
 10
4882.8953550507567
 20
2271.857984891376
 11
4911.4259213673568
 21
2271.857984891376
  0
LINE
  8
_0-5_0
  6
CONTINUOUS
 62
   18
 10
4892.8446032822167
 20
2254.3579848913755
 11
4901.8446032822176
 21
2254.3579848913755
  0
LINE
  8
_0-5_0
  6
CONTINUOUS
 62
   18
 10
4901.8446032822176
 20
2254.3579848913755
 11
4901.8446032822176
 21
2429.3579848913755
  0
LINE
  8
_0-5_0
  6
CONTINUOUS
 62
   18
 10
4901.8446032822176
 20
2429.3579848913755
 11
4892.8446032822167
 21
2429.3579848913755
  0
LINE
  8
_0-5_0
  6
CONTINUOUS
 62
   18
 10
4892.8446032822167
 20
2429.3579848913755
 11
4892.8446032822167
 21
2254.3579848913755
  0
LINE
  8
_0-5_0
  6
CONTINUOUS
 62
    3
 10
4897.8446032822058
 20
2303.7079848913668
 11
4900.3446032822058
 21
2303.7079848913668
  0
LINE
  8
_0-5_0
  6
CONTINUOUS
 62
    3
 10
4900.3446032822058
 20
2303.7079848913668
 11
4897.8446032822058
 21
2306.2079848913668
  0
LINE
  8
_0-5_0
  6
CONTINUOUS
 62
    3
 10
4897.8446032822058
 20
2306.2079848913668
 11
4897.8446032822058
 21
2303.7079848913668
  0
LINE
  8
_0-5_0
  6
CONTINUOUS
 62
    3
 10
4892.8446032822167
 20
2303.7079848880821
 11
4890.3446032822167
 21
2303.7079848880821
  0
LINE
  8
_0-5_0
  6
CONTINUOUS
 62
    3
 10
4890.3446032822167
 20
2303.7079848880821
 11
4892.8446032822167
 21
2301.2079848880821
  0
LINE
  8
_0-5_0
  6
CONTINUOUS
 62
    3
 10
4892.8446032822167
 20
2301.2079848880821
 11
4892.8446032822167
 21
2303.7079848880821
  0
LINE
  8
_0-5_0
  6
CONTINUOUS
 62
    3
 10
4821.8446032774327
 20
2303.7079848913741
 11
4824.3446032774327
 21
2303.7079848913741
  0
LINE
  8
_0-5_0
  6
CONTINUOUS
 62
    3
 10
4824.3446032774327
 20
2303.7079848913741
 11
4821.8446032774327
 21
2301.2079848913741
  0
LINE
  8
_0-5_0
  6
CONTINUOUS
 62
    3
 10
4821.8446032774327
 20
2301.2079848913741
 11
4821.8446032774327
 21
2303.7079848913741
  0
LINE
  8
_0-5_0
  6
CONTINUOUS
 62
    3
 10
4897.8446032822058
 20
2380.0079848913806
 11
4900.3446032822058
 21
2380.0079848913806
  0
LINE
  8
_0-5_0
  6
CONTINUOUS
 62
    3
 10
4900.3446032822058
 20
2380.0079848913806
 11
4897.8446032822058
 21
2377.5079848913811
  0
LINE
  8
_0-5_0
  6
CONTINUOUS
 62
    3
 10
4897.8446032822058
 20
2377.5079848913811
 11
4897.8446032822058
 21
2380.0079848913806
  0
LINE
  8
_0-5_0
  6
CONTINUOUS
 62
    3
 10
4892.8446032822167
 20
2380.0079848946662
 11
4890.3446032822167
 21
2380.0079848946662
  0
LINE
  8
_0-5_0
  6
CONTINUOUS
 62
    3
 10
4890.3446032822167
 20
2380.0079848946662
 11
4892.8446032822167
 21
2382.5079848946657
  0
LINE
  8
_0-5_0
  6
CONTINUOUS
 62
    3
 10
4892.8446032822167
 20
2382.5079848946657
 11
4892.8446032822167
 21
2380.0079848946662
  0
LINE
  8
_0-5_0
  6
CONTINUOUS
 62
    3
 10
4821.8446032774327
 20
2380.007984891366
 11
4824.3446032774327
 21
2380.007984891366
  0
LINE
  8
_0-5_0
  6
CONTINUOUS
 62
    3
 10
4824.3446032774327
 20
2380.007984891366
 11
4821.8446032774327
 21
2382.5079848913665
  0
LINE
  8
_0-5_0
  6
CONTINUOUS
 62
    3
 10
4821.8446032774327
 20
2382.5079848913665
 11
4821.8446032774327
 21
2380.007984891366
  0
LINE
  8
_0-3_04_HIDDEN
  6
CONTINUOUS
 62
    7
 10
4821.8446032774327
 20
2308.8579848940458
 11
4819.8446032774327
 21
2308.8579848940458
  0
LINE
  8
_0-3_04_HIDDEN
  6
CONTINUOUS
 62
    7
 10
4821.8446032774327
 20
2374.8579848886943
 11
4819.8446032774327
 21
2374.8579848886943
  0
LINE
  8
_0-5_0
  6
CONTINUOUS
 62
   18
 10
4496.8446033029932
 20
2119.8579848878976
 11
4824.8446032774345
 21
2119.8579849046073
  0
LINE
  8
_0-4_05_CENTER
  6
CENTER2
 62
    4
 10
4561.844603280485
 20
2124.490890059591
 11
4561.844603280485
 21
2113.1735679534172
  0
LINE
  8
_0-4_05_CENTER
  6
CENTER2
 62
    4
 10
4561.8446032804832
 20
2559.2250797231532
 11
4561.8446032804832
 21
2570.5424018293265
  0
LINE
  8
_0-5_0
  6
CONTINUOUS
 62
   18
 10
4496.8446033256105
 20
2563.8579848948466
 11
4496.8446033029932
 21
2119.8579848878976
  0
LINE
  8
_0-5_0
  6
CONTINUOUS
 62
   18
 10
4498.8446032815218
 20
2563.8579848947443
 11
4498.8446033029932
 21
2119.8579848879926
  0
LINE
  8
_0-5_0
  6
CONTINUOUS
 62
    3
 10
4646.8446032967686
 20
2563.8579848872027
 11
4646.8446033198043
 21
2119.8579848956101
  0
LINE
  8
_0-5_0
  6
CONTINUOUS
 62
   18
 10
4521.8446032775037
 20
2567.8579848925142
 11
4521.8446032775037
 21
2595.8579848925147
  0
LINE
  8
_0-5_0
  6
CONTINUOUS
 62
   18
 10
4521.8446032775037
 20
2595.8579848925147
 11
4523.8446032775046
 21
2595.8579848925147
  0
LINE
  8
_0-5_0
  6
CONTINUOUS
 62
   18
 10
4523.8446032775046
 20
2595.8579848925147
 11
4523.8446032775046
 21
2567.8579848925142
  0
ARC
  8
_0-5_0
  6
CONTINUOUS
 62
   18
 10
4525.8446032775037
 20
2567.8579848925142
 40
1.9999999999999998
 50
180
 51
270
  0
LINE
  8
_0-5_0
  6
CONTINUOUS
 62
   18
 10
4521.8446032775055
 20
2115.8579848886511
 11
4521.8446032775055
 21
2087.8579848886507
  0
LINE
  8
_0-5_0
  6
CONTINUOUS
 62
   18
 10
4521.8446032775055
 20
2087.8579848886507
 11
4523.8446032775064
 21
2087.8579848886507
  0
LINE
  8
_0-5_0
  6
CONTINUOUS
 62
   18
 10
4523.8446032775064
 20
2087.8579848886507
 11
4523.8446032775064
 21
2115.8579848886511
  0
ARC
  8
_0-5_0
  6
CONTINUOUS
 62
   18
 10
4525.8446032775055
 20
2115.8579848886511
 40
1.9999999999999998
 50
90
 51
180
  0
LINE
  8
_0-5_0
  6
CONTINUOUS
 62
   18
 10
4525.8446032775055
 20
2117.8579848886511
 11
4824.8446032774345
 21
2117.8579849046073
  0
ARC
  8
_0-5_0
  6
CONTINUOUS
 62
   18
 10
4525.8446032775055
 20
2115.8579848886511
 40
3.9999999999999996
 50
90
 51
180
  0
LINE
  8
_0-5_0
  6
CONTINUOUS
 62
   18
 10
4824.84460327754
 20
2117.8579849046073
 11
4824.8446032774345
 21
2119.8579849046073
  0
LINE
  8
_0-5_0
  6
CONTINUOUS
 62
   18
 10
4496.8446033029913
 20
2563.8579848948466
 11
4824.8446032774327
 21
2563.8579848781369
  0
ARC
  8
_0-5_0
  6
CONTINUOUS
 62
   18
 10
4525.8446032775037
 20
2567.8579848940894
 40
3.9999999999999996
 50
180
 51
270
  0
LINE
  8
_0-5_0
  6
CONTINUOUS
 62
   18
 10
4525.8446032775037
 20
2565.8579848940899
 11
4824.8446032774327
 21
2565.8579848781369
  0
LINE
  8
_0-5_0
  6
CONTINUOUS
 62
   18
 10
4824.8446032775382
 20
2565.8579848781369
 11
4824.8446032774327
 21
2563.8579848781369
  0
LINE
  8
_0-3_04_HIDDEN
  6
CONTINUOUS
 62
    7
 10
3169.9105314381818
 20
1412.0129360279539
 11
3050.4588789469281
 21
1412.0129360279539
  0
LINE
  8
_0-3_04_HIDDEN
  6
CONTINUOUS
 62
    7
 10
3169.9105314381763
 20
1414.0129360279539
 11
3050.4588789469331
 21
1414.0129360279539
  0
LINE
  8
_0-5_0
  6
CONTINUOUS
 62
   18
 10
2102.1847051924551
 20
1712.0129360291037
 11
4118.1847051924542
 21
1712.0129360291037
  0
LINE
  8
_0-5_0
  6
CONTINUOUS
 62
   18
 10
2102.1847051924551
 20
1710.0129360291035
 11
4118.1847051924542
 21
1710.0129360291035
  0
LINE
  8
_0-4_05_CENTER
  6
CENTER2
 62
    4
 10
3110.1847051925547
 20
1317.6228681875732
 11
3110.1847051925547
 21
1727.5681406445224
  0
LINE
  8
_0-4_05_CENTER
  6
CENTER2
 62
    4
 10
3040.1847051851259
 20
1350.9621842546298
 11
3040.1847051851259
 21
1322.4316179380298
  0
LINE
  8
_0-3_04_HIDDEN
  6
CONTINUOUS
 62
    7
 10
3072.0347051851281
 20
1341.0129360231697
 11
3072.0347051851281
 21
1332.0129360231699
  0
LINE
  8
_0-3_04_HIDDEN
  6
CONTINUOUS
 62
    7
 10
3075.0347051851286
 20
1336.0129360231808
 11
3075.0347051851322
 21
1412.0129360279539
  0
LINE
  8
_0-5_0
  6
CONTINUOUS
 62
   18
 10
3072.0347051851281
 20
1341.0129360231697
 11
3072.0347051851318
 21
1412.0129360279539
  0
LINE
  8
_0-3_04_HIDDEN
  6
CONTINUOUS
 62
    7
 10
3148.3347051851274
 20
1336.0129360231808
 11
3072.0347051851281
 21
1336.0129360231808
  0
LINE
  8
_0-5_0
  6
CONTINUOUS
 62
   18
 10
3148.3347051851274
 20
1341.0129360231697
 11
3148.334705185131
 21
1412.0129360279539
  0
LINE
  8
_0-3_04_HIDDEN
  6
CONTINUOUS
 62
    7
 10
3145.3347051851269
 20
1336.0129360231808
 11
3145.334705185131
 21
1412.0129360279539
  0
LINE
  8
_0-3_04_HIDDEN
  6
CONTINUOUS
 62
    7
 10
3148.3347051851274
 20
1341.0129360231697
 11
3148.3347051851274
 21
1332.0129360231699
  0
LINE
  8
_0-4_05_CENTER
  6
CENTER2
 62
    4
 10
3180.1847051851259
 20
1350.9621842546298
 11
3180.1847051851259
 21
1322.4316179380298
  0
LINE
  8
_0-5_0
  6
CONTINUOUS
 62
   18
 10
3197.6847051851259
 20
1341.0129360231697
 11
3197.6847051851259
 21
1332.0129360231699
  0
LINE
  8
_0-5_0
  6
CONTINUOUS
 62
   18
 10
3197.6847051851259
 20
1332.0129360231699
 11
3022.6847051851259
 21
1332.0129360231699
  0
LINE
  8
_0-5_0
  6
CONTINUOUS
 62
   18
 10
3022.6847051851259
 20
1332.0129360231699
 11
3022.6847051851259
 21
1341.0129360231697
  0
LINE
  8
_0-5_0
  6
CONTINUOUS
 62
   18
 10
3022.6847051851259
 20
1341.0129360231697
 11
3197.6847051851259
 21
1341.0129360231697
  0
LINE
  8
_0-5_0
  6
CONTINUOUS
 62
    3
 10
3148.3347051851329
 20
1336.0129360231808
 11
3148.3347051851329
 21
1333.5129360231808
  0
LINE
  8
_0-5_0
  6
CONTINUOUS
 62
    3
 10
3148.3347051851329
 20
1333.5129360231808
 11
3145.8347051851329
 21
1336.0129360231808
  0
LINE
  8
_0-5_0
  6
CONTINUOUS
 62
    3
 10
3145.8347051851329
 20
1336.0129360231808
 11
3148.3347051851329
 21
1336.0129360231808
  0
LINE
  8
_0-5_0
  6
CONTINUOUS
 62
    3
 10
3148.334705188418
 20
1341.0129360231697
 11
3148.334705188418
 21
1343.5129360231699
  0
LINE
  8
_0-5_0
  6
CONTINUOUS
 62
    3
 10
3148.334705188418
 20
1343.5129360231699
 11
3150.8347051884175
 21
1341.0129360231697
  0
LINE
  8
_0-5_0
  6
CONTINUOUS
 62
    3
 10
3150.8347051884175
 20
1341.0129360231697
 11
3148.334705188418
 21
1341.0129360231697
  0
LINE
  8
_0-5_0
  6
CONTINUOUS
 62
    3
 10
3148.3347051851256
 20
1412.0129360279539
 11
3148.3347051851256
 21
1409.5129360279539
  0
LINE
  8
_0-5_0
  6
CONTINUOUS
 62
    3
 10
3148.3347051851256
 20
1409.5129360279539
 11
3150.834705185126
 21
1412.0129360279539
  0
LINE
  8
_0-5_0
  6
CONTINUOUS
 62
    3
 10
3150.834705185126
 20
1412.0129360279539
 11
3148.3347051851256
 21
1412.0129360279539
  0
LINE
  8
_0-5_0
  6
CONTINUOUS
 62
    3
 10
3072.0347051851209
 20
1336.0129360231808
 11
3072.0347051851209
 21
1333.5129360231808
  0
LINE
  8
_0-5_0
  6
CONTINUOUS
 62
    3
 10
3072.0347051851209
 20
1333.5129360231808
 11
3074.5347051851209
 21
1336.0129360231808
  0
LINE
  8
_0-5_0
  6
CONTINUOUS
 62
    3
 10
3074.5347051851209
 20
1336.0129360231808
 11
3072.0347051851209
 21
1336.0129360231808
  0
LINE
  8
_0-5_0
  6
CONTINUOUS
 62
    3
 10
3072.0347051818358
 20
1341.0129360231697
 11
3072.0347051818358
 21
1343.5129360231699
  0
LINE
  8
_0-5_0
  6
CONTINUOUS
 62
    3
 10
3072.0347051818358
 20
1343.5129360231699
 11
3069.5347051818362
 21
1341.0129360231697
  0
LINE
  8
_0-5_0
  6
CONTINUOUS
 62
    3
 10
3069.5347051818362
 20
1341.0129360231697
 11
3072.0347051818358
 21
1341.0129360231697
  0
LINE
  8
_0-5_0
  6
CONTINUOUS
 62
    3
 10
3072.0347051851354
 20
1412.0129360279539
 11
3072.0347051851354
 21
1409.5129360279539
  0
LINE
  8
_0-5_0
  6
CONTINUOUS
 62
    3
 10
3072.0347051851354
 20
1409.5129360279539
 11
3069.5347051851354
 21
1412.0129360279539
  0
LINE
  8
_0-5_0
  6
CONTINUOUS
 62
    3
 10
3069.5347051851354
 20
1412.0129360279539
 11
3072.0347051851354
 21
1412.0129360279539
  0
LINE
  8
_0-3_04_HIDDEN
  6
CONTINUOUS
 62
    7
 10
3143.1847051824539
 20
1412.0129360279539
 11
3143.1847051824539
 21
1414.0129360279539
  0
LINE
  8
_0-3_04_HIDDEN
  6
CONTINUOUS
 62
    7
 10
3077.1847051878053
 20
1412.0129360279539
 11
3077.1847051878053
 21
1414.0129360279539
  0
LINE
  8
_0-5_0
  6
CONTINUOUS
 62
   18
 10
4113.1847051924551
 20
1733.0129360291032
 11
4113.1847051924551
 21
1712.0129360291037
  0
LINE
  8
_0-5_0
  6
CONTINUOUS
 62
   18
 10
4117.1847051924551
 20
1737.0129360291035
 11
4145.1847051924551
 21
1737.0129360291035
  0
ARC
  8
_0-5_0
  6
CONTINUOUS
 62
   18
 10
4117.1847051924533
 20
1733.0129360291032
 40
3.9999999999981806
 50
90
 51
180
  0
LINE
  8
_0-5_0
  6
CONTINUOUS
 62
   18
 10
4145.1847051924551
 20
1737.0129360291035
 11
4145.1847051924551
 21
1735.0129360291032
  0
LINE
  8
_0-5_0
  6
CONTINUOUS
 62
   18
 10
4145.1847051924551
 20
1735.0129360291032
 11
4117.1847051924551
 21
1735.0129360291032
  0
ARC
  8
_0-5_0
  6
CONTINUOUS
 62
   18
 10
4117.1847051924551
 20
1733.0129360291032
 40
1.9999999999999998
 50
90
 51
180
  0
CIRCLE
  8
_0-5_0
  6
CONTINUOUS
 62
   18
 10
4010.1847051924547
 20
1672.0129360291146
 40
6.5
  0
LINE
  8
_0-4_05_CENTER
  6
CENTER2
 62
    4
 10
4010.1847051924528
 20
1659.9807169747514
 11
4010.1847051924528
 21
1684.0451550834846
  0
LINE
  8
_0-4_05_CENTER
  6
CENTER2
 62
    4
 10
3998.1524861380935
 20
1672.0129360291035
 11
4022.2169242468153
 21
1672.0129360291035
  0
CIRCLE
  8
_0-5_0
  6
CONTINUOUS
 62
   18
 10
3710.1847051924547
 20
1672.0129360291146
 40
6.5
  0
LINE
  8
_0-4_05_CENTER
  6
CENTER2
 62
    4
 10
3710.1847051924528
 20
1659.9807169747514
 11
3710.1847051924528
 21
1684.0451550834846
  0
LINE
  8
_0-4_05_CENTER
  6
CENTER2
 62
    4
 10
3698.1524861380935
 20
1672.0129360291035
 11
3722.2169242468158
 21
1672.0129360291035
  0
CIRCLE
  8
_0-5_0
  6
CONTINUOUS
 62
   18
 10
3410.1847051924547
 20
1672.0129360291146
 40
6.5
  0
LINE
  8
_0-4_05_CENTER
  6
CENTER2
 62
    4
 10
3410.1847051924528
 20
1659.9807169747514
 11
3410.1847051924528
 21
1684.0451550834846
  0
LINE
  8
_0-4_05_CENTER
  6
CENTER2
 62
    4
 10
3398.1524861380935
 20
1672.0129360291035
 11
3422.2169242468158
 21
1672.0129360291035
  0
CIRCLE
  8
_0-5_0
  6
CONTINUOUS
 62
   18
 10
2210.1847051926552
 20
1672.012936029118
 40
6.5
  0
LINE
  8
_0-4_05_CENTER
  6
CENTER2
 62
    4
 10
2210.184705192657
 20
1659.9807169747514
 11
2210.184705192657
 21
1684.0451550834846
  0
LINE
  8
_0-4_05_CENTER
  6
CENTER2
 62
    4
 10
2222.2169242470163
 20
1672.0129360291035
 11
2198.1524861382941
 21
1672.0129360291035
  0
CIRCLE
  8
_0-5_0
  6
CONTINUOUS
 62
   18
 10
2510.1847051926547
 20
1672.012936029118
 40
6.5
  0
LINE
  8
_0-4_05_CENTER
  6
CENTER2
 62
    4
 10
2510.1847051926566
 20
1659.9807169747514
 11
2510.1847051926566
 21
1684.0451550834846
  0
LINE
  8
_0-4_05_CENTER
  6
CENTER2
 62
    4
 10
2522.2169242470159
 20
1672.0129360291035
 11
2498.1524861382936
 21
1672.0129360291035
  0
CIRCLE
  8
_0-5_0
  6
CONTINUOUS
 62
   18
 10
2810.1847051926547
 20
1672.012936029118
 40
6.5
  0
LINE
  8
_0-4_05_CENTER
  6
CENTER2
 62
    4
 10
2810.1847051926566
 20
1659.9807169747514
 11
2810.1847051926566
 21
1684.0451550834846
  0
LINE
  8
_0-4_05_CENTER
  6
CENTER2
 62
    4
 10
2822.2169242470159
 20
1672.0129360291035
 11
2798.1524861382936
 21
1672.0129360291035
  0
LINE
  8
_0-5_0
  6
CONTINUOUS
 62
   18
 10
4115.1847051924551
 20
1733.0129360291032
 11
4115.1847051924551
 21
1712.0129360291037
  0
LINE
  8
_0-5_0
  6
CONTINUOUS
 62
   18
 10
3169.91053143818
 20
1409.0129360279539
 11
3050.4588789469299
 21
1409.0129360279539
  0
LINE
  8
_0-5_0
  6
CONTINUOUS
 62
   18
 10
2107.184705203787
 20
1733.0129360291032
 11
2107.184705203787
 21
1712.0129360291037
  0
LINE
  8
_0-5_0
  6
CONTINUOUS
 62
   18
 10
2103.184705203787
 20
1737.0129360291035
 11
2075.184705203787
 21
1737.0129360291035
  0
ARC
  8
_0-5_0
  6
CONTINUOUS
 62
   18
 10
2103.1847052037888
 20
1733.0129360291032
 40
3.9999999999981806
 50
0
 51
90
  0
LINE
  8
_0-5_0
  6
CONTINUOUS
 62
   18
 10
2075.184705203787
 20
1737.0129360291035
 11
2075.184705203787
 21
1735.0129360291032
  0
LINE
  8
_0-5_0
  6
CONTINUOUS
 62
   18
 10
2075.184705203787
 20
1735.0129360291032
 11
2103.184705203787
 21
1735.0129360291032
  0
ARC
  8
_0-5_0
  6
CONTINUOUS
 62
   18
 10
2103.184705203787
 20
1733.0129360291032
 40
1.9999999999999998
 50
0
 51
90
  0
LINE
  8
_0-3_04_HIDDEN
  6
CONTINUOUS
 62
    7
 10
2107.184705203787
 20
1712.0129360291037
 11
2107.184705203787
 21
1589.5105061933034
  0
LINE
  8
_0-5_0
  6
CONTINUOUS
 62
   18
 10
2105.184705203787
 20
1733.0129360291032
 11
2105.184705203787
 21
1712.0129360291037
  0
LINE
  8
_0-3_04_HIDDEN
  6
CONTINUOUS
 62
    7
 10
2105.184705203787
 20
1712.0129360291037
 11
2105.1847052037888
 21
1589.5105061933034
  0
LINE
  8
_0-5_0
  6
CONTINUOUS
 62
   18
 10
2102.1847051926547
 20
1712.0129360291037
 11
2102.1847051926547
 21
1589.5105061953586
  0
LINE
  8
_0-2_08_DIM
  6
CONTINUOUS
 62
    3
 10
2102.1847051926547
 20
1589.5105061953586
 11
2102.1847051926547
 21
1583.6828424788878
  0
LINE
  8
_0-2_08_DIM
  6
CONTINUOUS
 62
    3
 10
2102.1847051926547
 20
1583.6828424788878
 11
2107.9158257647218
 21
1582.6264706784973
  0
LINE
  8
_0-3_04_HIDDEN
  6
CONTINUOUS
 62
    7
 10
3050.0963419675345
 20
1414.0460687374184
 11
2108.822168224377
 21
1587.543638902775
  0
LINE
  8
_0-3_04_HIDDEN
  6
CONTINUOUS
 62
    7
 10
3049.7338049881091
 20
1412.0792014468902
 11
2108.4596312449708
 21
1585.576771612243
  0
LINE
  8
_0-5_0
  6
CONTINUOUS
 62
   18
 10
3049.1899995189965
 20
1409.1289005110925
 11
2107.9158257647218
 21
1582.6264706784973
  0
ARC
  8
_0-3_04_HIDDEN
  6
CONTINUOUS
 62
    7
 10
2109.1847052037888
 20
1589.5105061933034
 40
3.9999999999999996
 50
180
 51
259.55634554052006
  0
ARC
  8
_0-3_04_HIDDEN
  6
CONTINUOUS
 62
    7
 10
2109.184705203787
 20
1589.5105061933034
 40
1.9999999999999998
 50
180
 51
259.5563455405204
  0
ARC
  8
_0-5_0
  6
CONTINUOUS
 62
   18
 10
2109.1847051926552
 20
1589.5105061953586
 40
6.9999999999999991
 50
180
 51
259.55634554052676
  0
ARC
  8
_0-5_0
  6
CONTINUOUS
 62
   18
 10
3050.4588789469299
 20
1416.0129360279539
 40
6.9999999999999991
 50
259.55634554052665
 51
270
  0
ARC
  8
_0-3_04_HIDDEN
  6
CONTINUOUS
 62
    7
 10
3050.4588789469331
 20
1416.0129360279539
 40
1.9999999999999998
 50
259.55634554053989
 51
270
  0
ARC
  8
_0-3_04_HIDDEN
  6
CONTINUOUS
 62
    7
 10
3050.4588789469281
 20
1416.0129360279539
 40
3.9999999999999996
 50
259.55634554053336
 51
270
  0
LINE
  8
_0-6_10_DRAFT
  6
CONTINUOUS
 62
    8
 10
3050.4588789469331
 20
1414.0129360279539
 11
3050.2760964372815
 21
1414.0129360279539
  0
LINE
  8
_0-6_10_DRAFT
  6
CONTINUOUS
 62
    8
 10
3050.2760964372815
 20
1414.0129360279539
 11
3050.0963419675231
 21
1414.046068737422
  0
LINE
  8
_0-6_10_DRAFT
  6
CONTINUOUS
 62
    8
 10
3050.4588789469331
 20
1413.0129360279539
 11
3050.1847051824539
 21
1413.0129360279539
  0
LINE
  8
_0-6_10_DRAFT
  6
CONTINUOUS
 62
    8
 10
3050.1847051824539
 20
1413.0129360279539
 11
3049.91507347782
 21
1413.0626350921559
  0
LINE
  8
_0-6_10_DRAFT
  6
CONTINUOUS
 62
    8
 10
3050.4588789469281
 20
1412.0129360279539
 11
3050.0933139276262
 21
1412.0129360279539
  0
LINE
  8
_0-6_10_DRAFT
  6
CONTINUOUS
 62
    8
 10
3050.0933139276262
 20
1412.0129360279539
 11
3049.7338049881091
 21
1412.0792014468902
  0
LINE
  8
_0-2_08_DIM
  6
CONTINUOUS
 62
    3
 10
3050.4588789469299
 20
1409.0129360279539
 11
3049.819140163147
 21
1409.0129360279539
  0
LINE
  8
_0-2_08_DIM
  6
CONTINUOUS
 62
    3
 10
3049.819140163147
 20
1409.0129360279539
 11
3049.1899995189965
 21
1409.1289005110925
  0
LINE
  8
_0-6_10_DRAFT
  6
CONTINUOUS
 62
    8
 10
2108.6408997346743
 20
1586.5602052575091
 11
2106.184705203787
 21
1587.0129360291035
  0
LINE
  8
_0-6_10_DRAFT
  6
CONTINUOUS
 62
    8
 10
2106.184705203787
 20
1587.0129360291035
 11
2106.184705203787
 21
1589.5105061933034
  0
LINE
  8
_0-6_10_DRAFT
  6
CONTINUOUS
 62
    8
 10
3110.1847051851296
 20
1413.0129360279539
 11
3050.4588789469331
 21
1413.0129360279539
  0
ARC
  8
_0-6_10_DRAFT
  6
CONTINUOUS
 62
    8
 10
3050.4588789469271
 20
1416.0129360279482
 40
2.9999999999944857
 50
259.55634554066188
 51
270.00000000011727
  0
LINE
  8
_0-6_10_DRAFT
  6
CONTINUOUS
 62
    8
 10
3049.91507347782
 20
1413.0626350921559
 11
2108.6408997346743
 21
1586.5602052575091
  0
ARC
  8
_0-6_10_DRAFT
  6
CONTINUOUS
 62
    8
 10
2109.1847052037861
 20
1589.510506193305
 40
2.9999999999989377
 50
180.00000000003257
 51
259.55634554057815
  0
LINE
  8
_0-6_10_DRAFT
  6
CONTINUOUS
 62
    8
 10
2106.184705203787
 20
1589.5105061933034
 11
2106.184705203787
 21
1733.0129360291032
  0
ARC
  8
_0-6_10_DRAFT
  6
CONTINUOUS
 62
    8
 10
2103.184705203787
 20
1733.0129360291032
 40
2.9999999999999996
 50
0
 51
90
  0
LINE
  8
_0-6_10_DRAFT
  6
CONTINUOUS
 62
    8
 10
2103.184705203787
 20
1736.0129360291032
 11
2075.184705203787
 21
1736.0129360291032
  0
LINE
  8
_0-3_04_HIDDEN
  6
CONTINUOUS
 62
    7
 10
3170.6356053969994
 20
1412.0792014468902
 11
4111.9097791401391
 21
1585.576771612243
  0
LINE
  8
_0-5_0
  6
CONTINUOUS
 62
   18
 10
3171.1794108661129
 20
1409.1289005110925
 11
4112.4535846203871
 21
1582.6264706784973
  0
ARC
  8
_0-5_0
  6
CONTINUOUS
 62
   18
 10
3169.91053143818
 20
1416.0129360279539
 40
6.9999999999999991
 50
270
 51
280.44365445947335
  0
LINE
  8
_0-3_04_HIDDEN
  6
CONTINUOUS
 62
    7
 10
3170.2730684175754
 20
1414.0460687374184
 11
4111.5472421607319
 21
1587.5436389027714
  0
ARC
  8
_0-3_04_HIDDEN
  6
CONTINUOUS
 62
    7
 10
3169.9105314381763
 20
1416.0129360279539
 40
1.9999999999999998
 50
270
 51
280.44365445946011
  0
LINE
  8
_0-6_10_DRAFT
  6
CONTINUOUS
 62
    8
 10
3110.1847051999798
 20
1413.0129360279539
 11
3169.9105314381763
 21
1413.0129360279539
  0
ARC
  8
_0-6_10_DRAFT
  6
CONTINUOUS
 62
    8
 10
3169.9105314381823
 20
1416.0129360279482
 40
2.9999999999944857
 50
269.99999999988273
 51
280.44365445933812
  0
LINE
  8
_0-6_10_DRAFT
  6
CONTINUOUS
 62
    8
 10
3170.4543369072894
 20
1413.0626350921559
 11
4111.728510650436
 21
1586.5602052575055
  0
ARC
  8
_0-6_10_DRAFT
  6
CONTINUOUS
 62
    8
 10
4111.1847051813211
 20
1589.5105061933032
 40
3.0000000000011595
 50
280.44365445946033
 51
0.0000000000021882
  0
LINE
  8
_0-6_10_DRAFT
  6
CONTINUOUS
 62
    8
 10
4114.1847051813229
 20
1589.5105061933034
 11
4114.1847051813229
 21
1733.0129360291032
  0
ARC
  8
_0-6_10_DRAFT
  6
CONTINUOUS
 62
    8
 10
4117.184705181322
 20
1733.0129360291032
 40
2.9999999999999996
 50
90
 51
180
  0
LINE
  8
_0-6_10_DRAFT
  6
CONTINUOUS
 62
    8
 10
4117.184705181322
 20
1736.0129360291032
 11
4145.184705181322
 21
1736.0129360291032
  0
ARC
  8
_0-3_04_HIDDEN
  6
CONTINUOUS
 62
    7
 10
3169.9105314381818
 20
1416.0129360279539
 40
3.9999999999999996
 50
270
 51
280.44365445946664
  0
LINE
  8
_0-3_04_HIDDEN
  6
CONTINUOUS
 62
    7
 10
4113.184705181322
 20
1712.0129360291037
 11
4113.184705181322
 21
1589.5105061933034
  0
ARC
  8
_0-3_04_HIDDEN
  6
CONTINUOUS
 62
    7
 10
4111.184705181322
 20
1589.5105061933034
 40
1.9999999999999998
 50
280.44365445948665
 51
0
  0
LINE
  8
_0-3_04_HIDDEN
  6
CONTINUOUS
 62
    7
 10
4115.184705181322
 20
1712.0129360291037
 11
4115.1847051813202
 21
1589.5105061933034
  0
ARC
  8
_0-3_04_HIDDEN
  6
CONTINUOUS
 62
    7
 10
4111.1847051813202
 20
1589.5105061933034
 40
3.9999999999999996
 50
280.44365445948665
 51
0
  0
LINE
  8
_0-5_0
  6
CONTINUOUS
 62
   18
 10
4118.1847051924542
 20
1712.0129360291037
 11
4118.1847051924542
 21
1589.510506195355
  0
ARC
  8
_0-5_0
  6
CONTINUOUS
 62
   18
 10
4111.1847051924551
 20
1589.510506195355
 40
6.9999999999999991
 50
280.44365445947324
 51
0
  0
LINE
  8
_0-2_08_DIM
  6
CONTINUOUS
 62
    3
 10
4118.1847051924542
 20
1589.510506195355
 11
4118.1847051924542
 21
1583.6828424788878
  0
LINE
  8
_0-2_08_DIM
  6
CONTINUOUS
 62
    3
 10
4118.1847051924542
 20
1583.6828424788878
 11
4112.4535846203871
 21
1582.6264706784973
  0
LINE
  8
_0-6_10_DRAFT
  6
CONTINUOUS
 62
    8
 10
3169.9105314381763
 20
1414.0129360279539
 11
3170.0933139478279
 21
1414.0129360279539
  0
LINE
  8
_0-6_10_DRAFT
  6
CONTINUOUS
 62
    8
 10
3170.0933139478279
 20
1414.0129360279539
 11
3170.2730684175863
 21
1414.046068737422
  0
LINE
  8
_0-6_10_DRAFT
  6
CONTINUOUS
 62
    8
 10
3169.9105314381763
 20
1413.0129360279539
 11
3170.1847052026551
 21
1413.0129360279539
  0
LINE
  8
_0-6_10_DRAFT
  6
CONTINUOUS
 62
    8
 10
3170.1847052026551
 20
1413.0129360279539
 11
3170.4543369072894
 21
1413.0626350921559
  0
LINE
  8
_0-6_10_DRAFT
  6
CONTINUOUS
 62
    8
 10
3169.9105314381818
 20
1412.0129360279539
 11
3170.2760964574832
 21
1412.0129360279539
  0
LINE
  8
_0-6_10_DRAFT
  6
CONTINUOUS
 62
    8
 10
3170.2760964574832
 20
1412.0129360279539
 11
3170.6356053969994
 21
1412.0792014468902
  0
LINE
  8
_0-2_08_DIM
  6
CONTINUOUS
 62
    3
 10
3169.91053143818
 20
1409.0129360279539
 11
3170.5502702219624
 21
1409.0129360279539
  0
LINE
  8
_0-2_08_DIM
  6
CONTINUOUS
 62
    3
 10
3170.5502702219624
 20
1409.0129360279539
 11
3171.1794108661129
 21
1409.1289005110925
  0
LINE
  8
_0-6_10_DRAFT
  6
CONTINUOUS
 62
    8
 10
4111.728510650436
 20
1586.5602052575055
 11
4114.1847051813229
 21
1587.0129360291035
  0
LINE
  8
_0-6_10_DRAFT
  6
CONTINUOUS
 62
    8
 10
4114.1847051813229
 20
1587.0129360291035
 11
4114.1847051813229
 21
1589.5105061933034
  0
LINE
  8
_0-5_0
  6
CONTINUOUS
 62
    3
 10
3170.1847051924565
 20
2563.8579848933041
 11
3170.1847051851314
 21
2119.8579848894406
  0
LINE
  8
_0-5_0
  6
CONTINUOUS
 62
    3
 10
3170.1847051851314
 20
2119.8579848894406
 11
3050.1847051851319
 21
2119.8579848894406
  0
LINE
  8
_0-5_0
  6
CONTINUOUS
 62
    3
 10
3050.1847051851319
 20
2119.8579848894406
 11
3050.1847051924569
 21
2563.8579848933041
  0
LINE
  8
_0-5_0
  6
CONTINUOUS
 62
    3
 10
3050.1847051924569
 20
2563.8579848933041
 11
3170.1847051924565
 21
2563.8579848933041
  0
LINE
  8
_0-3_04_HIDDEN
  6
CONTINUOUS
 62
    7
 10
4118.1847052012427
 20
2117.8579848878976
 11
2102.1847051924565
 21
2117.8579848894406
  0
LINE
  8
_0-3_04_HIDDEN
  6
CONTINUOUS
 62
    7
 10
2105.1847052035887
 20
2119.8579848894406
 11
2105.1847052035887
 21
2563.8579848917611
  0
LINE
  8
_0-5_0
  6
CONTINUOUS
 62
   18
 10
4140.184705172539
 20
2119.8579848894406
 11
2080.1847052037888
 21
2119.8579848894406
  0
LINE
  8
_0-5_0
  6
CONTINUOUS
 62
   18
 10
2102.1847051924565
 20
2119.8579848894406
 11
2102.1847051924565
 21
2092.8579848894406
  0
LINE
  8
_0-5_0
  6
CONTINUOUS
 62
   18
 10
2080.1847052037888
 20
2563.8579848917611
 11
4140.184705172539
 21
2563.8579848917611
  0
LINE
  8
_0-4_05_CENTER
  6
CENTER2
 62
    4
 10
3110.1847051881637
 20
2066.003823728428
 11
3110.1847051881637
 21
2617.7121460543162
  0
LINE
  8
_0-4_05_CENTER
  6
CENTER2
 62
    4
 10
2053.5075030821072
 20
2341.8579848913687
 11
4166.8619072942274
 21
2341.8579848913687
  0
ARC
  8
_0-5_0
  6
CONTINUOUS
 62
   18
 10
2107.1847051924565
 20
2092.8579848894406
 40
4.9999999999999991
 50
180
 51
270
  0
LINE
  8
_0-5_0
  6
CONTINUOUS
 62
   18
 10
4113.1847052012417
 20
2087.8579848894401
 11
2107.1847051924565
 21
2087.8579848894401
  0
ARC
  8
_0-5_0
  6
CONTINUOUS
 62
   18
 10
2107.1847051924565
 20
2590.8579848933036
 40
4.9999999999999991
 50
90
 51
180
  0
LINE
  8
_0-5_0
  6
CONTINUOUS
 62
   18
 10
4113.1847052012417
 20
2595.8579848933036
 11
2107.1847051924565
 21
2595.8579848933036
  0
LINE
  8
_0-3_04_HIDDEN
  6
CONTINUOUS
 62
    7
 10
4118.1847052012445
 20
2565.8579848933041
 11
2102.1847051924565
 21
2565.8579848933041
  0
ARC
  8
_0-5_0
  6
CONTINUOUS
 62
   18
 10
4113.1847052012417
 20
2092.8579848894406
 40
4.9999999999999991
 50
270
 51
0
  0
ARC
  8
_0-5_0
  6
CONTINUOUS
 62
   18
 10
4113.1847052012417
 20
2590.8579848933036
 40
4.9999999999999991
 50
0
 51
90
  0
CIRCLE
  8
_0-3_04_HIDDEN
  6
CONTINUOUS
 62
    7
 10
3110.1847051881637
 20
2341.8579848913687
 40
35.149999999999984
  0
CIRCLE
  8
_0-3_04_HIDDEN
  6
CONTINUOUS
 62
    7
 10
3159.6821798712235
 20
2391.3554595744276
 40
9.4999999999999982
  0
CIRCLE
  8
_0-3_04_HIDDEN
  6
CONTINUOUS
 62
    7
 10
3159.6821798712235
 20
2292.3605102083088
 40
9.4999999999999982
  0
LINE
  8
_0-4_05_CENTER
  6
CENTER2
 62
    4
 10
3147.7566349297053
 20
2304.2860551498306
 11
3171.6077248127372
 21
2280.4349652667988
  0
LINE
  8
_0-4_05_CENTER
  6
CENTER2
 62
    4
 10
3147.7566349297158
 20
2379.4299146329067
 11
3171.6077248127476
 21
2403.2810045159458
  0
CIRCLE
  8
_0-3_04_HIDDEN
  6
CONTINUOUS
 62
    7
 10
3110.1847051881637
 20
2341.8579848913687
 40
87.499999999999986
  0
CIRCLE
  8
_0-4_05_CENTER
  6
CENTER2
 62
    4
 10
3110.1847051881637
 20
2341.8579848913687
 40
70
  0
LINE
  8
_0-4_05_CENTER
  6
CENTER2
 62
    4
 10
3072.6127754466256
 20
2379.4299146329067
 11
3048.7616855635865
 21
2403.2810045159458
  0
CIRCLE
  8
_0-3_04_HIDDEN
  6
CONTINUOUS
 62
    7
 10
3060.6872305051047
 20
2391.3554595744276
 40
9.4999999999999982
  0
LINE
  8
_0-4_05_CENTER
  6
CENTER2
 62
    4
 10
3072.6127754466256
 20
2304.2860551498306
 11
3048.761685563597
 21
2280.4349652667988
  0
CIRCLE
  8
_0-3_04_HIDDEN
  6
CONTINUOUS
 62
    7
 10
3060.6872305051047
 20
2292.3605102083088
 40
9.4999999999999982
  0
LINE
  8
_0-4_05_CENTER
  6
CENTER2
 62
    4
 10
3110.1847051881637
 20
2244.6767108295567
 11
3110.1847051881637
 21
2439.0392589531871
  0
LINE
  8
_0-4_05_CENTER
  6
CENTER2
 62
    4
 10
3013.0034311263448
 20
2341.8579848913687
 11
3207.3659792499898
 21
2341.8579848913687
  0
CIRCLE
  8
_0-3_04_HIDDEN
  6
CONTINUOUS
 62
    7
 10
3110.1847051881637
 20
2341.8579848913687
 40
38.149999999999984
  0
CIRCLE
  8
_0-5_0
  6
CONTINUOUS
 62
   18
 10
3110.1847051881637
 20
2341.8579848913687
 40
33
  0
LINE
  8
_0-5_0
  6
CONTINUOUS
 62
   18
 10
2075.1847052037888
 20
2124.8579848894401
 11
2075.1847052037888
 21
2558.8579848917611
  0
ARC
  8
_0-5_0
  6
CONTINUOUS
 62
   18
 10
2080.1847052037888
 20
2558.8579848917611
 40
4.9999999999999991
 50
90
 51
180
  0
ARC
  8
_0-5_0
  6
CONTINUOUS
 62
   18
 10
2080.1847052037888
 20
2124.8579848894401
 40
4.9999999999999991
 50
180
 51
270
  0
LINE
  8
_0-4_05_CENTER
  6
CENTER2
 62
    4
 10
4010.1847051925238
 20
2127.5132143713381
 11
4010.1847051925238
 21
2110.1672130048933
  0
LINE
  8
_0-4_05_CENTER
  6
CENTER2
 62
    4
 10
3710.1847051924565
 20
2127.5132143713381
 11
3710.1847051924565
 21
2110.1672130048933
  0
LINE
  8
_0-4_05_CENTER
  6
CENTER2
 62
    4
 10
3410.1847051924565
 20
2127.5132143713381
 11
3410.1847051924565
 21
2110.1672130048933
  0
LINE
  8
_0-4_05_CENTER
  6
CENTER2
 62
    4
 10
2210.184705183804
 20
2127.5132143713381
 11
2210.184705183804
 21
2110.1672130048933
  0
LINE
  8
_0-4_05_CENTER
  6
CENTER2
 62
    4
 10
2510.1847051838708
 20
2127.5132143713381
 11
2510.1847051838708
 21
2110.1672130048933
  0
LINE
  8
_0-4_05_CENTER
  6
CENTER2
 62
    4
 10
2810.1847051838704
 20
2127.5132143713381
 11
2810.1847051838704
 21
2110.1672130048933
  0
LINE
  8
_0-4_05_CENTER
  6
CENTER2
 62
    4
 10
4010.1847051925238
 20
2556.2027554114024
 11
4010.1847051925238
 21
2573.5487567778468
  0
LINE
  8
_0-4_05_CENTER
  6
CENTER2
 62
    4
 10
3710.1847051924565
 20
2556.2027554113988
 11
3710.1847051924565
 21
2573.5487567778432
  0
LINE
  8
_0-4_05_CENTER
  6
CENTER2
 62
    4
 10
3410.1847051924565
 20
2556.2027554113988
 11
3410.1847051924565
 21
2573.5487567778432
  0
LINE
  8
_0-4_05_CENTER
  6
CENTER2
 62
    4
 10
2210.184705183804
 20
2556.2027554113988
 11
2210.184705183804
 21
2573.5487567778432
  0
LINE
  8
_0-4_05_CENTER
  6
CENTER2
 62
    4
 10
2510.1847051838708
 20
2556.2027554113988
 11
2510.1847051838708
 21
2573.5487567778432
  0
LINE
  8
_0-4_05_CENTER
  6
CENTER2
 62
    4
 10
2810.1847051838704
 20
2556.2027554113988
 11
2810.1847051838704
 21
2573.5487567778432
  0
LINE
  8
_0-5_0
  6
CONTINUOUS
 62
   18
 10
2107.1847052035887
 20
2119.8579848894406
 11
2107.1847052035887
 21
2563.8579848917611
  0
LINE
  8
_0-5_0
  6
CONTINUOUS
 62
   18
 10
2102.1847051924565
 20
2590.8579848933036
 11
2102.1847051924565
 21
2563.8579848917611
  0
LINE
  8
_0-3_04_HIDDEN
  6
CONTINUOUS
 62
    7
 10
4115.1847051727382
 20
2119.8579848894406
 11
4115.1847051727382
 21
2563.8579848917611
  0
LINE
  8
_0-5_0
  6
CONTINUOUS
 62
   18
 10
4145.1847051725381
 20
2124.8579848894401
 11
4145.1847051725381
 21
2558.8579848917611
  0
ARC
  8
_0-5_0
  6
CONTINUOUS
 62
   18
 10
4140.184705172539
 20
2124.8579848894401
 40
4.9999999999999991
 50
270
 51
0
  0
ARC
  8
_0-5_0
  6
CONTINUOUS
 62
   18
 10
4140.184705172539
 20
2558.8579848917611
 40
4.9999999999999991
 50
0
 51
90
  0
LINE
  8
_0-5_0
  6
CONTINUOUS
 62
   18
 10
4113.1847051727382
 20
2119.8579848894406
 11
4113.1847051727382
 21
2563.8579848917611
  0
LINE
  8
_0-5_0
  6
CONTINUOUS
 62
   18
 10
4118.1847051838713
 20
2119.8579848894406
 11
4118.1847051838713
 21
2092.8579848894406
  0
LINE
  8
_0-5_0
  6
CONTINUOUS
 62
   18
 10
4118.1847051838713
 20
2590.8579848933036
 11
4118.1847051838713
 21
2563.8579848917611
  0
LINE
  8
_0-4_05_CENTER
  6
CENTER2
 62
    4
 10
2210.184705192657
 20
1672.012936029118
 11
4010.1847051924547
 21
1672.0129360291035
  0
LINE
  8
_0-3_04_HIDDEN
  6
CONTINUOUS
 62
    7
 10
3169.9105314381818
 20
3185.1497666928872
 11
3050.4588789469281
 21
3185.1497666928872
  0
LINE
  8
_0-3_04_HIDDEN
  6
CONTINUOUS
 62
    7
 10
3169.9105314381763
 20
3183.1497666928872
 11
3050.4588789469331
 21
3183.1497666928872
  0
LINE
  8
_0-5_0
  6
CONTINUOUS
 62
   18
 10
2102.1847051924551
 20
2885.1497666917376
 11
4118.1847051924542
 21
2885.1497666917376
  0
LINE
  8
_0-5_0
  6
CONTINUOUS
 62
   18
 10
2102.1847051924551
 20
2887.1497666917376
 11
4118.1847051924542
 21
2887.1497666917376
  0
LINE
  8
_0-4_05_CENTER
  6
CENTER2
 62
    4
 10
3110.1847051925547
 20
3279.5398345332678
 11
3110.1847051925547
 21
2869.5945620763187
  0
LINE
  8
_0-4_05_CENTER
  6
CENTER2
 62
    4
 10
3040.1847051851259
 20
3246.2005184662112
 11
3040.1847051851259
 21
3274.7310847828112
  0
LINE
  8
_0-3_04_HIDDEN
  6
CONTINUOUS
 62
    7
 10
3072.0347051851281
 20
3256.1497666976711
 11
3072.0347051851281
 21
3265.1497666976711
  0
LINE
  8
_0-3_04_HIDDEN
  6
CONTINUOUS
 62
    7
 10
3075.0347051851286
 20
3261.1497666976607
 11
3075.0347051851322
 21
3185.1497666928872
  0
LINE
  8
_0-5_0
  6
CONTINUOUS
 62
   18
 10
3072.0347051851281
 20
3256.1497666976711
 11
3072.0347051851318
 21
3185.1497666928872
  0
LINE
  8
_0-3_04_HIDDEN
  6
CONTINUOUS
 62
    7
 10
3148.3347051851274
 20
3261.1497666976607
 11
3072.0347051851281
 21
3261.1497666976607
  0
LINE
  8
_0-5_0
  6
CONTINUOUS
 62
   18
 10
3148.3347051851274
 20
3256.1497666976711
 11
3148.334705185131
 21
3185.1497666928872
  0
LINE
  8
_0-3_04_HIDDEN
  6
CONTINUOUS
 62
    7
 10
3145.3347051851269
 20
3261.1497666976607
 11
3145.334705185131
 21
3185.1497666928872
  0
LINE
  8
_0-3_04_HIDDEN
  6
CONTINUOUS
 62
    7
 10
3148.3347051851274
 20
3256.1497666976711
 11
3148.3347051851274
 21
3265.1497666976711
  0
LINE
  8
_0-4_05_CENTER
  6
CENTER2
 62
    4
 10
3180.1847051851259
 20
3246.2005184662112
 11
3180.1847051851259
 21
3274.7310847828112
  0
LINE
  8
_0-5_0
  6
CONTINUOUS
 62
   18
 10
3197.6847051851259
 20
3256.1497666976711
 11
3197.6847051851259
 21
3265.1497666976711
  0
LINE
  8
_0-5_0
  6
CONTINUOUS
 62
   18
 10
3197.6847051851259
 20
3265.1497666976711
 11
3022.6847051851259
 21
3265.1497666976711
  0
LINE
  8
_0-5_0
  6
CONTINUOUS
 62
   18
 10
3022.6847051851259
 20
3265.1497666976711
 11
3022.6847051851259
 21
3256.1497666976711
  0
LINE
  8
_0-5_0
  6
CONTINUOUS
 62
   18
 10
3022.6847051851259
 20
3256.1497666976711
 11
3197.6847051851259
 21
3256.1497666976711
  0
LINE
  8
_0-5_0
  6
CONTINUOUS
 62
    3
 10
3148.3347051851329
 20
3261.1497666976607
 11
3148.3347051851329
 21
3263.6497666976602
  0
LINE
  8
_0-5_0
  6
CONTINUOUS
 62
    3
 10
3148.3347051851329
 20
3263.6497666976602
 11
3145.8347051851329
 21
3261.1497666976607
  0
LINE
  8
_0-5_0
  6
CONTINUOUS
 62
    3
 10
3145.8347051851329
 20
3261.1497666976607
 11
3148.3347051851329
 21
3261.1497666976607
  0
LINE
  8
_0-5_0
  6
CONTINUOUS
 62
    3
 10
3148.334705188418
 20
3256.1497666976711
 11
3148.334705188418
 21
3253.6497666976711
  0
LINE
  8
_0-5_0
  6
CONTINUOUS
 62
    3
 10
3148.334705188418
 20
3253.6497666976711
 11
3150.8347051884175
 21
3256.1497666976711
  0
LINE
  8
_0-5_0
  6
CONTINUOUS
 62
    3
 10
3150.8347051884175
 20
3256.1497666976711
 11
3148.334705188418
 21
3256.1497666976711
  0
LINE
  8
_0-5_0
  6
CONTINUOUS
 62
    3
 10
3148.3347051851256
 20
3185.1497666928872
 11
3148.3347051851256
 21
3187.6497666928872
  0
LINE
  8
_0-5_0
  6
CONTINUOUS
 62
    3
 10
3148.3347051851256
 20
3187.6497666928872
 11
3150.834705185126
 21
3185.1497666928872
  0
LINE
  8
_0-5_0
  6
CONTINUOUS
 62
    3
 10
3150.834705185126
 20
3185.1497666928872
 11
3148.3347051851256
 21
3185.1497666928872
  0
LINE
  8
_0-5_0
  6
CONTINUOUS
 62
    3
 10
3072.0347051851209
 20
3261.1497666976607
 11
3072.0347051851209
 21
3263.6497666976602
  0
LINE
  8
_0-5_0
  6
CONTINUOUS
 62
    3
 10
3072.0347051851209
 20
3263.6497666976602
 11
3074.5347051851209
 21
3261.1497666976607
  0
LINE
  8
_0-5_0
  6
CONTINUOUS
 62
    3
 10
3074.5347051851209
 20
3261.1497666976607
 11
3072.0347051851209
 21
3261.1497666976607
  0
LINE
  8
_0-5_0
  6
CONTINUOUS
 62
    3
 10
3072.0347051818358
 20
3256.1497666976711
 11
3072.0347051818358
 21
3253.6497666976711
  0
LINE
  8
_0-5_0
  6
CONTINUOUS
 62
    3
 10
3072.0347051818358
 20
3253.6497666976711
 11
3069.5347051818362
 21
3256.1497666976711
  0
LINE
  8
_0-5_0
  6
CONTINUOUS
 62
    3
 10
3069.5347051818362
 20
3256.1497666976711
 11
3072.0347051818358
 21
3256.1497666976711
  0
LINE
  8
_0-5_0
  6
CONTINUOUS
 62
    3
 10
3072.0347051851354
 20
3185.1497666928872
 11
3072.0347051851354
 21
3187.6497666928872
  0
LINE
  8
_0-5_0
  6
CONTINUOUS
 62
    3
 10
3072.0347051851354
 20
3187.6497666928872
 11
3069.5347051851354
 21
3185.1497666928872
  0
LINE
  8
_0-5_0
  6
CONTINUOUS
 62
    3
 10
3069.5347051851354
 20
3185.1497666928872
 11
3072.0347051851354
 21
3185.1497666928872
  0
LINE
  8
_0-3_04_HIDDEN
  6
CONTINUOUS
 62
    7
 10
3143.1847051824539
 20
3185.1497666928872
 11
3143.1847051824539
 21
3183.1497666928872
  0
LINE
  8
_0-3_04_HIDDEN
  6
CONTINUOUS
 62
    7
 10
3077.1847051878053
 20
3185.1497666928872
 11
3077.1847051878053
 21
3183.1497666928872
  0
LINE
  8
_0-5_0
  6
CONTINUOUS
 62
   18
 10
4113.1847051924551
 20
2864.1497666917376
 11
4113.1847051924551
 21
2885.1497666917376
  0
LINE
  8
_0-5_0
  6
CONTINUOUS
 62
   18
 10
4117.1847051924551
 20
2860.1497666917376
 11
4145.1847051924551
 21
2860.1497666917376
  0
ARC
  8
_0-5_0
  6
CONTINUOUS
 62
   18
 10
4117.1847051924533
 20
2864.1497666917376
 40
3.9999999999981806
 50
180
 51
270
  0
LINE
  8
_0-5_0
  6
CONTINUOUS
 62
   18
 10
4145.1847051924551
 20
2860.1497666917376
 11
4145.1847051924551
 21
2862.1497666917376
  0
LINE
  8
_0-5_0
  6
CONTINUOUS
 62
   18
 10
4145.1847051924551
 20
2862.1497666917376
 11
4117.1847051924551
 21
2862.1497666917376
  0
ARC
  8
_0-5_0
  6
CONTINUOUS
 62
   18
 10
4117.1847051924551
 20
2864.1497666917376
 40
1.9999999999999998
 50
180
 51
270
  0
CIRCLE
  8
_0-5_0
  6
CONTINUOUS
 62
   18
 10
4010.1847051924547
 20
2925.1497666917267
 40
6.5
  0
LINE
  8
_0-4_05_CENTER
  6
CENTER2
 62
    4
 10
4010.1847051924528
 20
2937.1819857460896
 11
4010.1847051924528
 21
2913.1175476373564
  0
LINE
  8
_0-4_05_CENTER
  6
CENTER2
 62
    4
 10
3998.1524861380935
 20
2925.1497666917376
 11
4022.2169242468153
 21
2925.1497666917376
  0
CIRCLE
  8
_0-5_0
  6
CONTINUOUS
 62
   18
 10
3710.1847051924547
 20
2925.1497666917267
 40
6.5
  0
LINE
  8
_0-4_05_CENTER
  6
CENTER2
 62
    4
 10
3710.1847051924528
 20
2937.1819857460896
 11
3710.1847051924528
 21
2913.1175476373564
  0
LINE
  8
_0-4_05_CENTER
  6
CENTER2
 62
    4
 10
3698.1524861380935
 20
2925.1497666917376
 11
3722.2169242468158
 21
2925.1497666917376
  0
CIRCLE
  8
_0-5_0
  6
CONTINUOUS
 62
   18
 10
3410.1847051924547
 20
2925.1497666917267
 40
6.5
  0
LINE
  8
_0-4_05_CENTER
  6
CENTER2
 62
    4
 10
3410.1847051924528
 20
2937.1819857460896
 11
3410.1847051924528
 21
2913.1175476373564
  0
LINE
  8
_0-4_05_CENTER
  6
CENTER2
 62
    4
 10
3398.1524861380935
 20
2925.1497666917376
 11
3422.2169242468158
 21
2925.1497666917376
  0
CIRCLE
  8
_0-5_0
  6
CONTINUOUS
 62
   18
 10
2210.1847051926552
 20
2925.149766691723
 40
6.5
  0
LINE
  8
_0-4_05_CENTER
  6
CENTER2
 62
    4
 10
2210.184705192657
 20
2937.1819857460896
 11
2210.184705192657
 21
2913.1175476373564
  0
LINE
  8
_0-4_05_CENTER
  6
CENTER2
 62
    4
 10
2222.2169242470163
 20
2925.1497666917376
 11
2198.1524861382941
 21
2925.1497666917376
  0
CIRCLE
  8
_0-5_0
  6
CONTINUOUS
 62
   18
 10
2510.1847051926547
 20
2925.149766691723
 40
6.5
  0
LINE
  8
_0-4_05_CENTER
  6
CENTER2
 62
    4
 10
2510.1847051926566
 20
2937.1819857460896
 11
2510.1847051926566
 21
2913.1175476373564
  0
LINE
  8
_0-4_05_CENTER
  6
CENTER2
 62
    4
 10
2522.2169242470159
 20
2925.1497666917376
 11
2498.1524861382936
 21
2925.1497666917376
  0
CIRCLE
  8
_0-5_0
  6
CONTINUOUS
 62
   18
 10
2810.1847051926547
 20
2925.149766691723
 40
6.5
  0
LINE
  8
_0-4_05_CENTER
  6
CENTER2
 62
    4
 10
2810.1847051926566
 20
2937.1819857460896
 11
2810.1847051926566
 21
2913.1175476373564
  0
LINE
  8
_0-4_05_CENTER
  6
CENTER2
 62
    4
 10
2822.2169242470159
 20
2925.1497666917376
 11
2798.1524861382936
 21
2925.1497666917376
  0
LINE
  8
_0-5_0
  6
CONTINUOUS
 62
   18
 10
4115.1847051924551
 20
2864.1497666917376
 11
4115.1847051924551
 21
2885.1497666917376
  0
LINE
  8
_0-5_0
  6
CONTINUOUS
 62
   18
 10
3169.91053143818
 20
3188.1497666928872
 11
3050.4588789469299
 21
3188.1497666928872
  0
LINE
  8
_0-5_0
  6
CONTINUOUS
 62
   18
 10
2107.184705203787
 20
2864.1497666917376
 11
2107.184705203787
 21
2885.1497666917376
  0
LINE
  8
_0-5_0
  6
CONTINUOUS
 62
   18
 10
2103.184705203787
 20
2860.1497666917376
 11
2075.184705203787
 21
2860.1497666917376
  0
ARC
  8
_0-5_0
  6
CONTINUOUS
 62
   18
 10
2103.1847052037888
 20
2864.1497666917376
 40
3.9999999999981806
 50
270
 51
0
  0
LINE
  8
_0-5_0
  6
CONTINUOUS
 62
   18
 10
2075.184705203787
 20
2860.1497666917376
 11
2075.184705203787
 21
2862.1497666917376
  0
LINE
  8
_0-5_0
  6
CONTINUOUS
 62
   18
 10
2075.184705203787
 20
2862.1497666917376
 11
2103.184705203787
 21
2862.1497666917376
  0
ARC
  8
_0-5_0
  6
CONTINUOUS
 62
   18
 10
2103.184705203787
 20
2864.1497666917376
 40
1.9999999999999998
 50
270
 51
0
  0
LINE
  8
_0-3_04_HIDDEN
  6
CONTINUOUS
 62
    7
 10
2107.184705203787
 20
2885.1497666917376
 11
2107.184705203787
 21
3007.6521965275379
  0
LINE
  8
_0-5_0
  6
CONTINUOUS
 62
   18
 10
2105.184705203787
 20
2864.1497666917376
 11
2105.184705203787
 21
2885.1497666917376
  0
LINE
  8
_0-3_04_HIDDEN
  6
CONTINUOUS
 62
    7
 10
2105.184705203787
 20
2885.1497666917376
 11
2105.1847052037888
 21
3007.6521965275379
  0
LINE
  8
_0-5_0
  6
CONTINUOUS
 62
   18
 10
2102.1847051926547
 20
2885.1497666917376
 11
2102.1847051926547
 21
3007.6521965254824
  0
LINE
  8
_0-2_08_DIM
  6
CONTINUOUS
 62
    3
 10
2102.1847051926547
 20
3007.6521965254824
 11
2102.1847051926547
 21
3013.4798602419532
  0
LINE
  8
_0-2_08_DIM
  6
CONTINUOUS
 62
    3
 10
2102.1847051926547
 20
3013.4798602419532
 11
2107.9158257647218
 21
3014.5362320423437
  0
LINE
  8
_0-3_04_HIDDEN
  6
CONTINUOUS
 62
    7
 10
3050.0963419675345
 20
3183.1166339834226
 11
2108.822168224377
 21
3009.619063818066
  0
LINE
  8
_0-3_04_HIDDEN
  6
CONTINUOUS
 62
    7
 10
3049.7338049881091
 20
3185.0835012739512
 11
2108.4596312449708
 21
3011.5859311085983
  0
LINE
  8
_0-5_0
  6
CONTINUOUS
 62
   18
 10
3049.1899995189965
 20
3188.0338022097485
 11
2107.9158257647218
 21
3014.5362320423437
  0
ARC
  8
_0-3_04_HIDDEN
  6
CONTINUOUS
 62
    7
 10
2109.1847052037888
 20
3007.6521965275379
 40
3.9999999999999996
 50
100.44365445948081
 51
180
  0
ARC
  8
_0-3_04_HIDDEN
  6
CONTINUOUS
 62
    7
 10
2109.184705203787
 20
3007.6521965275379
 40
1.9999999999999998
 50
100.44365445947963
 51
180
  0
ARC
  8
_0-5_0
  6
CONTINUOUS
 62
   18
 10
2109.1847051926552
 20
3007.6521965254824
 40
6.9999999999999991
 50
100.4436544594739
 51
180
  0
ARC
  8
_0-5_0
  6
CONTINUOUS
 62
   18
 10
3050.4588789469299
 20
3181.1497666928872
 40
6.9999999999999991
 50
90
 51
100.4436544594739
  0
ARC
  8
_0-3_04_HIDDEN
  6
CONTINUOUS
 62
    7
 10
3050.4588789469331
 20
3181.1497666928872
 40
1.9999999999999998
 50
90
 51
100.44365445946042
  0
ARC
  8
_0-3_04_HIDDEN
  6
CONTINUOUS
 62
    7
 10
3050.4588789469281
 20
3181.1497666928872
 40
3.9999999999999996
 50
90
 51
100.44365445946681
  0
LINE
  8
_0-6_10_DRAFT
  6
CONTINUOUS
 62
    8
 10
3050.4588789469331
 20
3183.1497666928872
 11
3050.2760964372815
 21
3183.1497666928872
  0
LINE
  8
_0-6_10_DRAFT
  6
CONTINUOUS
 62
    8
 10
3050.2760964372815
 20
3183.1497666928872
 11
3050.0963419675231
 21
3183.116633983419
  0
LINE
  8
_0-6_10_DRAFT
  6
CONTINUOUS
 62
    8
 10
3050.4588789469331
 20
3184.1497666928872
 11
3050.1847051824539
 21
3184.1497666928872
  0
LINE
  8
_0-6_10_DRAFT
  6
CONTINUOUS
 62
    8
 10
3050.1847051824539
 20
3184.1497666928872
 11
3049.91507347782
 21
3184.1000676286853
  0
LINE
  8
_0-6_10_DRAFT
  6
CONTINUOUS
 62
    8
 10
3050.4588789469281
 20
3185.1497666928872
 11
3050.0933139276262
 21
3185.1497666928872
  0
LINE
  8
_0-6_10_DRAFT
  6
CONTINUOUS
 62
    8
 10
3050.0933139276262
 20
3185.1497666928872
 11
3049.7338049881091
 21
3185.0835012739512
  0
LINE
  8
_0-2_08_DIM
  6
CONTINUOUS
 62
    3
 10
3050.4588789469299
 20
3188.1497666928872
 11
3049.819140163147
 21
3188.1497666928872
  0
LINE
  8
_0-2_08_DIM
  6
CONTINUOUS
 62
    3
 10
3049.819140163147
 20
3188.1497666928872
 11
3049.1899995189965
 21
3188.0338022097485
  0
LINE
  8
_0-6_10_DRAFT
  6
CONTINUOUS
 62
    8
 10
2108.6408997346743
 20
3010.6024974633319
 11
2106.184705203787
 21
3010.1497666917376
  0
LINE
  8
_0-6_10_DRAFT
  6
CONTINUOUS
 62
    8
 10
2106.184705203787
 20
3010.1497666917376
 11
2106.184705203787
 21
3007.6521965275379
  0
LINE
  8
_0-6_10_DRAFT
  6
CONTINUOUS
 62
    8
 10
3110.1847051851296
 20
3184.1497666928872
 11
3050.4588789469331
 21
3184.1497666928872
  0
ARC
  8
_0-6_10_DRAFT
  6
CONTINUOUS
 62
    8
 10
3050.4588789469271
 20
3181.1497666928926
 40
2.999999999994543
 50
89.999999999882746
 51
100.44365445933792
  0
LINE
  8
_0-6_10_DRAFT
  6
CONTINUOUS
 62
    8
 10
3049.91507347782
 20
3184.1000676286853
 11
2108.6408997346743
 21
3010.6024974633319
  0
ARC
  8
_0-6_10_DRAFT
  6
CONTINUOUS
 62
    8
 10
2109.1847052037861
 20
3007.652196527536
 40
2.9999999999990496
 50
100.44365445942141
 51
179.99999999996527
  0
LINE
  8
_0-6_10_DRAFT
  6
CONTINUOUS
 62
    8
 10
2106.184705203787
 20
3007.6521965275379
 11
2106.184705203787
 21
2864.1497666917376
  0
ARC
  8
_0-6_10_DRAFT
  6
CONTINUOUS
 62
    8
 10
2103.184705203787
 20
2864.1497666917376
 40
2.9999999999999996
 50
270
 51
0
  0
LINE
  8
_0-6_10_DRAFT
  6
CONTINUOUS
 62
    8
 10
2103.184705203787
 20
2861.1497666917376
 11
2075.184705203787
 21
2861.1497666917376
  0
LINE
  8
_0-3_04_HIDDEN
  6
CONTINUOUS
 62
    7
 10
3170.6356053969994
 20
3185.0835012739512
 11
4111.9097791401391
 21
3011.5859311085983
  0
LINE
  8
_0-5_0
  6
CONTINUOUS
 62
   18
 10
3171.1794108661129
 20
3188.0338022097485
 11
4112.4535846203871
 21
3014.5362320423437
  0
ARC
  8
_0-5_0
  6
CONTINUOUS
 62
   18
 10
3169.91053143818
 20
3181.1497666928872
 40
6.9999999999999991
 50
79.55634554052611
 51
90
  0
LINE
  8
_0-3_04_HIDDEN
  6
CONTINUOUS
 62
    7
 10
3170.2730684175754
 20
3183.1166339834226
 11
4111.5472421607319
 21
3009.6190638180697
  0
ARC
  8
_0-3_04_HIDDEN
  6
CONTINUOUS
 62
    7
 10
3169.9105314381763
 20
3181.1497666928872
 40
1.9999999999999998
 50
79.556345540539596
 51
90
  0
LINE
  8
_0-6_10_DRAFT
  6
CONTINUOUS
 62
    8
 10
3110.1847051999798
 20
3184.1497666928872
 11
3169.9105314381763
 21
3184.1497666928872
  0
ARC
  8
_0-6_10_DRAFT
  6
CONTINUOUS
 62
    8
 10
3169.9105314381823
 20
3181.1497666928926
 40
2.999999999994543
 50
79.556345540662079
 51
90.000000000117254
  0
LINE
  8
_0-6_10_DRAFT
  6
CONTINUOUS
 62
    8
 10
3170.4543369072894
 20
3184.1000676286853
 11
4111.728510650436
 21
3010.6024974633356
  0
ARC
  8
_0-6_10_DRAFT
  6
CONTINUOUS
 62
    8
 10
4111.1847051813211
 20
3007.6521965275379
 40
3.0000000000012719
 50
0
 51
79.55634554054005
  0
LINE
  8
_0-6_10_DRAFT
  6
CONTINUOUS
 62
    8
 10
4114.1847051813229
 20
3007.6521965275379
 11
4114.1847051813229
 21
2864.1497666917376
  0
ARC
  8
_0-6_10_DRAFT
  6
CONTINUOUS
 62
    8
 10
4117.184705181322
 20
2864.1497666917376
 40
2.9999999999999996
 50
180
 51
270
  0
LINE
  8
_0-6_10_DRAFT
  6
CONTINUOUS
 62
    8
 10
4117.184705181322
 20
2861.1497666917376
 11
4145.184705181322
 21
2861.1497666917376
  0
ARC
  8
_0-3_04_HIDDEN
  6
CONTINUOUS
 62
    7
 10
3169.9105314381818
 20
3181.1497666928872
 40
3.9999999999999996
 50
79.556345540533187
 51
90
  0
LINE
  8
_0-3_04_HIDDEN
  6
CONTINUOUS
 62
    7
 10
4113.184705181322
 20
2885.1497666917376
 11
4113.184705181322
 21
3007.6521965275379
  0
ARC
  8
_0-3_04_HIDDEN
  6
CONTINUOUS
 62
    7
 10
4111.184705181322
 20
3007.6521965275379
 40
1.9999999999999998
 50
0
 51
79.5563455405116
  0
LINE
  8
_0-3_04_HIDDEN
  6
CONTINUOUS
 62
    7
 10
4115.184705181322
 20
2885.1497666917376
 11
4115.1847051813202
 21
3007.6521965275379
  0
ARC
  8
_0-3_04_HIDDEN
  6
CONTINUOUS
 62
    7
 10
4111.1847051813202
 20
3007.6521965275379
 40
3.9999999999999996
 50
0
 51
79.556345540512794
  0
LINE
  8
_0-5_0
  6
CONTINUOUS
 62
   18
 10
4118.1847051924542
 20
2885.1497666917376
 11
4118.1847051924542
 21
3007.652196525486
  0
ARC
  8
_0-5_0
  6
CONTINUOUS
 62
   18
 10
4111.1847051924551
 20
3007.652196525486
 40
6.9999999999999991
 50
0
 51
79.55634554052611
  0
LINE
  8
_0-2_08_DIM
  6
CONTINUOUS
 62
    3
 10
4118.1847051924542
 20
3007.652196525486
 11
4118.1847051924542
 21
3013.4798602419532
  0
LINE
  8
_0-2_08_DIM
  6
CONTINUOUS
 62
    3
 10
4118.1847051924542
 20
3013.4798602419532
 11
4112.4535846203871
 21
3014.5362320423437
  0
LINE
  8
_0-6_10_DRAFT
  6
CONTINUOUS
 62
    8
 10
3169.9105314381763
 20
3183.1497666928872
 11
3170.0933139478279
 21
3183.1497666928872
  0
LINE
  8
_0-6_10_DRAFT
  6
CONTINUOUS
 62
    8
 10
3170.0933139478279
 20
3183.1497666928872
 11
3170.2730684175863
 21
3183.116633983419
  0
LINE
  8
_0-6_10_DRAFT
  6
CONTINUOUS
 62
    8
 10
3169.9105314381763
 20
3184.1497666928872
 11
3170.1847052026551
 21
3184.1497666928872
  0
LINE
  8
_0-6_10_DRAFT
  6
CONTINUOUS
 62
    8
 10
3170.1847052026551
 20
3184.1497666928872
 11
3170.4543369072894
 21
3184.1000676286853
  0
LINE
  8
_0-6_10_DRAFT
  6
CONTINUOUS
 62
    8
 10
3169.9105314381818
 20
3185.1497666928872
 11
3170.2760964574832
 21
3185.1497666928872
  0
LINE
  8
_0-6_10_DRAFT
  6
CONTINUOUS
 62
    8
 10
3170.2760964574832
 20
3185.1497666928872
 11
3170.6356053969994
 21
3185.0835012739512
  0
LINE
  8
_0-2_08_DIM
  6
CONTINUOUS
 62
    3
 10
3169.91053143818
 20
3188.1497666928872
 11
3170.5502702219624
 21
3188.1497666928872
  0
LINE
  8
_0-2_08_DIM
  6
CONTINUOUS
 62
    3
 10
3170.5502702219624
 20
3188.1497666928872
 11
3171.1794108661129
 21
3188.0338022097485
  0
LINE
  8
_0-6_10_DRAFT
  6
CONTINUOUS
 62
    8
 10
4111.728510650436
 20
3010.6024974633356
 11
4114.1847051813229
 21
3010.1497666917376
  0
LINE
  8
_0-6_10_DRAFT
  6
CONTINUOUS
 62
    8
 10
4114.1847051813229
 20
3010.1497666917376
 11
4114.1847051813229
 21
3007.6521965275379
  0
LINE
  8
_0-4_05_CENTER
  6
CENTER2
 62
    4
 10
2210.184705192657
 20
2925.149766691723
 11
4010.1847051924547
 21
2925.1497666917376
  0
INSERT
  2
-005-AM_BALLOON1
  8
_0-2_08_DIM
 10
1853.4241518010065
 20
3421.2923196157708
 41
6.25
 42
6.25
 50
0
  0
TEXT
  8
_0-5_0
 62
    7
 10
1844.4955803724351
 20
3411.9173196157708
 40
18.749999999999996
 41
1
 50
0
  1
3
  0
LINE
  8
_0-2_08_DIM
  6
CONTINUOUS
 62
    3
 10
4493.7196033029941
 20
2119.8579848878976
 11
4423.4883065475387
 21
2119.8579848878976
  0
LINE
  8
_0-2_08_DIM
  6
CONTINUOUS
 62
    3
 10
4493.7196033256105
 20
2563.8579848948466
 11
4423.4883065475387
 21
2563.8579848948466
  0
LINE
  8
_0-2_08_DIM
  6
CONTINUOUS
 62
    3
 10
4429.7383065475378
 20
2132.3579848878976
 11
4429.7383065475378
 21
2551.3579848948466
  0
INSERT
  2
-006-_Open30
  8
_0-2_08_DIM
 10
4429.7383065475378
 20
2119.8579848878976
 41
12.5
 42
12.5
 50
270
  0
INSERT
  2
-006-_Open30
  8
_0-2_08_DIM
 10
4429.7383065475378
 20
2563.8579848948466
 41
12.5
 42
12.5
 50
90
  0
LINE
  8
_0-2_08_DIM
  6
CONTINUOUS
 62
    3
 10
4493.7196033256105
 20
2563.8579848948466
 11
4423.4883065475387
 21
2563.8579848948466
  0
LINE
  8
_0-2_08_DIM
  6
CONTINUOUS
 62
    3
 10
4518.7196032775046
 20
2595.8579848925147
 11
4423.4883065475387
 21
2595.8579848925147
  0
LINE
  8
_0-2_08_DIM
  6
CONTINUOUS
 62
    3
 10
4429.7383065475378
 20
2576.3579848948466
 11
4429.7383065475378
 21
2583.3579848925147
  0
INSERT
  2
-006-_Open30
  8
_0-2_08_DIM
 10
4429.7383065475378
 20
2563.8579848948466
 41
12.5
 42
12.5
 50
270
  0
INSERT
  2
-006-_Open30
  8
_0-2_08_DIM
 10
4429.7383065475378
 20
2595.8579848925147
 41
12.5
 42
12.5
 50
90
  0
LINE
  8
_0-2_08_DIM
  6
CONTINUOUS
 62
    3
 10
4493.7196033029941
 20
2119.8579848878976
 11
4423.4883065475387
 21
2119.8579848878976
  0
LINE
  8
_0-2_08_DIM
  6
CONTINUOUS
 62
    3
 10
4518.7196032775064
 20
2087.8579848886507
 11
4423.4883065475387
 21
2087.8579848886507
  0
LINE
  8
_0-2_08_DIM
  6
CONTINUOUS
 62
    3
 10
4429.7383065475378
 20
2107.3579848878981
 11
4429.7383065475378
 21
2100.3579848886511
  0
INSERT
  2
-006-_Open30
  8
_0-2_08_DIM
 10
4429.7383065475378
 20
2119.8579848878976
 41
12.5
 42
12.5
 50
90
  0
INSERT
  2
-006-_Open30
  8
_0-2_08_DIM
 10
4429.7383065475378
 20
2087.8579848886507
 41
12.5
 42
12.5
 50
270
  0
LINE
  8
_0-2_08_DIM
  6
CONTINUOUS
 62
    3
 10
4496.8446033029932
 20
2116.7329848878981
 11
4496.8446033029932
 21
2009.2313620466116
  0
LINE
  8
_0-2_08_DIM
  6
CONTINUOUS
 62
    3
 10
4521.8446032775055
 20
2084.7329848886507
 11
4521.8446032775055
 21
2009.2313620466116
  0
LINE
  8
_0-2_08_DIM
  6
CONTINUOUS
 62
    3
 10
4534.3446032775064
 20
2015.4813620466116
 11
4578.0946032775064
 21
2015.4813620466116
  0
LINE
  8
_0-2_08_DIM
  6
CONTINUOUS
 62
    3
 10
4496.8446033029932
 20
2015.4813620466116
 11
4521.8446032775055
 21
2015.4813620466116
  0
LINE
  8
_0-2_08_DIM
  6
CONTINUOUS
 62
    3
 10
4484.3446033029932
 20
2015.4813620466116
 11
4471.8446033029932
 21
2015.4813620466116
  0
INSERT
  2
-006-_Open30
  8
_0-2_08_DIM
 10
4496.8446033029932
 20
2015.4813620466116
 41
12.5
 42
12.5
 50
0
  0
INSERT
  2
-006-_Open30
  8
_0-2_08_DIM
 10
4521.8446032775055
 20
2015.4813620466116
 41
12.5
 42
12.5
 50
180
  0
LINE
  8
_0-2_08_DIM
  6
CONTINUOUS
 62
    3
 10
4496.8446033256105
 20
2566.9829848948461
 11
4496.8446033256105
 21
2648.7990558425636
  0
LINE
  8
_0-2_08_DIM
  6
CONTINUOUS
 62
    3
 10
4521.8446032775037
 20
2598.9829848925142
 11
4521.8446032775037
 21
2648.7990558425636
  0
LINE
  8
_0-2_08_DIM
  6
CONTINUOUS
 62
    3
 10
4534.3446032775046
 20
2642.5490558425636
 11
4578.0946032775046
 21
2642.5490558425636
  0
LINE
  8
_0-2_08_DIM
  6
CONTINUOUS
 62
    3
 10
4496.8446033256105
 20
2642.5490558425636
 11
4521.8446032775037
 21
2642.5490558425636
  0
LINE
  8
_0-2_08_DIM
  6
CONTINUOUS
 62
    3
 10
4484.3446033256105
 20
2642.5490558425636
 11
4471.8446033256105
 21
2642.5490558425636
  0
INSERT
  2
-006-_Open30
  8
_0-2_08_DIM
 10
4496.8446033256105
 20
2642.5490558425636
 41
12.5
 42
12.5
 50
0
  0
INSERT
  2
-006-_Open30
  8
_0-2_08_DIM
 10
4521.8446032775037
 20
2642.5490558425636
 41
12.5
 42
12.5
 50
180
  0
LINE
  8
_0-2_08_DIM
  6
CONTINUOUS
 62
    3
 10
4521.8446032775055
 20
2084.7329848886507
 11
4521.8446032775055
 21
2050.0497489878067
  0
LINE
  8
_0-2_08_DIM
  6
CONTINUOUS
 62
    3
 10
4523.8446032775064
 20
2084.7329848886507
 11
4523.8446032775064
 21
2050.0497489878067
  0
LINE
  8
_0-2_08_DIM
  6
CONTINUOUS
 62
    3
 10
4536.3446032775055
 20
2056.2997489878067
 11
4565.0946032775055
 21
2056.2997489878067
  0
LINE
  8
_0-2_08_DIM
  6
CONTINUOUS
 62
    3
 10
4521.8446032775055
 20
2056.2997489878067
 11
4523.8446032775064
 21
2056.2997489878067
  0
LINE
  8
_0-2_08_DIM
  6
CONTINUOUS
 62
    3
 10
4509.3446032775064
 20
2056.2997489878067
 11
4496.8446032775055
 21
2056.2997489878067
  0
INSERT
  2
-006-_Open30
  8
_0-2_08_DIM
 10
4521.8446032775055
 20
2056.2997489878067
 41
12.5
 42
12.5
 50
0
  0
INSERT
  2
-006-_Open30
  8
_0-2_08_DIM
 10
4523.8446032775064
 20
2056.2997489878067
 41
12.5
 42
12.5
 50
180
  0
LINE
  8
_0-2_08_DIM
  6
CONTINUOUS
 62
    3
 10
4904.9696032822167
 20
2380.0079848913697
 11
4983.5605985957718
 21
2380.0079848913697
  0
LINE
  8
_0-2_08_DIM
  6
CONTINUOUS
 62
    3
 10
4904.9696032822167
 20
2303.7079848913631
 11
4983.5605985957718
 21
2303.7079848913631
  0
LINE
  8
_0-2_08_DIM
  6
CONTINUOUS
 62
    3
 10
4977.3105985957727
 20
2303.7079848913631
 11
4977.3105985957727
 21
2128.4996515580301
  0
LINE
  8
_0-2_08_DIM
  6
CONTINUOUS
 62
    3
 10
4977.3105985957727
 20
2367.5079848913697
 11
4977.3105985957727
 21
2316.2079848913631
  0
INSERT
  2
-006-_Open30
  8
_0-2_08_DIM
 10
4977.3105985957727
 20
2380.0079848913697
 41
12.5
 42
12.5
 50
90
  0
INSERT
  2
-006-_Open30
  8
_0-2_08_DIM
 10
4977.3105985957727
 20
2303.7079848913631
 41
12.5
 42
12.5
 50
270
  0
LINE
  8
_0-2_08_DIM
  6
CONTINUOUS
 62
    3
 10
4904.9696032822167
 20
2254.3579848913755
 11
5034.0483315692345
 21
2254.3579848913755
  0
LINE
  8
_0-2_08_DIM
  6
CONTINUOUS
 62
    3
 10
4904.9696032822167
 20
2429.3579848913755
 11
5034.0483315692345
 21
2429.3579848913755
  0
LINE
  8
_0-2_08_DIM
  6
CONTINUOUS
 62
    3
 10
5027.7983315692345
 20
2266.8579848913755
 11
5027.7983315692345
 21
2416.8579848913755
  0
INSERT
  2
-006-_Open30
  8
_0-2_08_DIM
 10
5027.7983315692345
 20
2254.3579848913755
 41
12.5
 42
12.5
 50
270
  0
INSERT
  2
-006-_Open30
  8
_0-2_08_DIM
 10
5027.7983315692345
 20
2429.3579848913755
 41
12.5
 42
12.5
 50
90
  0
LINE
  8
_0-2_08_DIM
  6
CONTINUOUS
 62
    3
 10
4892.8446032822167
 20
2432.4829848913687
 11
4892.8446032822167
 21
2501.0859625727471
  0
LINE
  8
_0-2_08_DIM
  6
CONTINUOUS
 62
    3
 10
4901.8446032822176
 20
2432.4829848913687
 11
4901.8446032822176
 21
2501.0859625727471
  0
LINE
  8
_0-2_08_DIM
  6
CONTINUOUS
 62
    3
 10
4914.3446032822167
 20
2494.8359625727476
 11
4943.0946032822167
 21
2494.8359625727476
  0
LINE
  8
_0-2_08_DIM
  6
CONTINUOUS
 62
    3
 10
4892.8446032822167
 20
2494.8359625727476
 11
4901.8446032822176
 21
2494.8359625727476
  0
LINE
  8
_0-2_08_DIM
  6
CONTINUOUS
 62
    3
 10
4880.3446032822167
 20
2494.8359625727476
 11
4867.8446032822167
 21
2494.8359625727476
  0
INSERT
  2
-006-_Open30
  8
_0-2_08_DIM
 10
4892.8446032822167
 20
2494.8359625727476
 41
12.5
 42
12.5
 50
0
  0
INSERT
  2
-006-_Open30
  8
_0-2_08_DIM
 10
4901.8446032822176
 20
2494.8359625727476
 41
12.5
 42
12.5
 50
180
  0
LINE
  8
_0-2_08_DIM
  6
CONTINUOUS
 62
    3
 10
4901.8446032822176
 20
2251.2329848913755
 11
4901.8446032822176
 21
2194.546436097196
  0
LINE
  8
_0-2_08_DIM
  6
CONTINUOUS
 62
    3
 10
4821.8446032842867
 20
2251.232984895451
 11
4821.8446032842867
 21
2194.546436097196
  0
LINE
  8
_0-2_08_DIM
  6
CONTINUOUS
 62
    3
 10
4889.3446032822167
 20
2200.796436097196
 11
4834.3446032842858
 21
2200.796436097196
  0
INSERT
  2
-006-_Open30
  8
_0-2_08_DIM
 10
4901.8446032822176
 20
2200.796436097196
 41
12.5
 42
12.5
 50
0
  0
INSERT
  2
-006-_Open30
  8
_0-2_08_DIM
 10
4821.8446032842867
 20
2200.796436097196
 41
12.5
 42
12.5
 50
180
  0
LINE
  8
_0-2_08_DIM
  6
CONTINUOUS
 62
    3
 10
4897.8446032822058
 20
2383.1329848913811
 11
4897.8446032822058
 21
2460.7679015267959
  0
LINE
  8
_0-2_08_DIM
  6
CONTINUOUS
 62
    3
 10
4901.8446032822176
 20
2432.4829848913755
 11
4901.8446032822176
 21
2460.7679015267959
  0
LINE
  8
_0-2_08_DIM
  6
CONTINUOUS
 62
    3
 10
4914.3446032822167
 20
2454.5179015267959
 11
4943.0946032822167
 21
2454.5179015267959
  0
LINE
  8
_0-2_08_DIM
  6
CONTINUOUS
 62
    3
 10
4897.8446032822058
 20
2454.5179015267959
 11
4901.8446032822176
 21
2454.5179015267959
  0
LINE
  8
_0-2_08_DIM
  6
CONTINUOUS
 62
    3
 10
4885.3446032822058
 20
2454.5179015267959
 11
4872.8446032822067
 21
2454.5179015267959
  0
INSERT
  2
-006-_Open30
  8
_0-2_08_DIM
 10
4897.8446032822058
 20
2454.5179015267959
 41
12.5
 42
12.5
 50
0
  0
INSERT
  2
-006-_Open30
  8
_0-2_08_DIM
 10
4901.8446032822176
 20
2454.5179015267959
 41
12.5
 42
12.5
 50
180
  0
LINE
  8
_0-2_08_DIM
  6
CONTINUOUS
 62
    3
 10
4816.7196032774327
 20
2308.8579848940458
 11
4752.0490173164144
 21
2308.8579848940458
  0
LINE
  8
_0-2_08_DIM
  6
CONTINUOUS
 62
    3
 10
4816.7196032774327
 20
2374.8579848886943
 11
4752.0490173164144
 21
2374.8579848886943
  0
LINE
  8
_0-2_08_DIM
  6
CONTINUOUS
 62
    3
 10
4758.2990173164144
 20
2321.3579848940458
 11
4758.2990173164144
 21
2362.3579848886943
  0
INSERT
  2
-006-_Open30
  8
_0-2_08_DIM
 10
4758.2990173164144
 20
2308.8579848940458
 41
12.5
 42
12.5
 50
270
  0
INSERT
  2
-006-_Open30
  8
_0-2_08_DIM
 10
4758.2990173164144
 20
2374.8579848886943
 41
12.5
 42
12.5
 50
90
  0
LINE
  8
_0-2_08_DIM
  6
CONTINUOUS
 62
    3
 10
2810.1847051926566
 20
1687.1701550834844
 11
2810.1847051926566
 21
1797.4796425974919
  0
LINE
  8
_0-2_08_DIM
  6
CONTINUOUS
 62
    3
 10
3410.1847051924528
 20
1687.1701550834844
 11
3410.1847051924528
 21
1797.4796425974919
  0
LINE
  8
_0-2_08_DIM
  6
CONTINUOUS
 62
    3
 10
2822.6847051926566
 20
1791.2296425974919
 11
3397.6847051924528
 21
1791.2296425974919
  0
INSERT
  2
-006-_Open30
  8
_0-2_08_DIM
 10
2810.1847051926566
 20
1791.2296425974919
 41
12.5
 42
12.5
 50
180
  0
INSERT
  2
-006-_Open30
  8
_0-2_08_DIM
 10
3410.1847051924528
 20
1791.2296425974919
 41
12.5
 42
12.5
 50
0
  0
LINE
  8
_0-2_08_DIM
  6
CONTINUOUS
 62
    3
 10
3410.1847051924528
 20
1687.1701550834844
 11
3410.1847051924528
 21
1797.4796425974919
  0
LINE
  8
_0-2_08_DIM
  6
CONTINUOUS
 62
    3
 10
4010.1847051924528
 20
1687.1701550834844
 11
4010.1847051924528
 21
1797.4796425974919
  0
LINE
  8
_0-2_08_DIM
  6
CONTINUOUS
 62
    3
 10
3422.6847051924528
 20
1791.2296425974919
 11
3997.6847051924528
 21
1791.2296425974919
  0
INSERT
  2
-006-_Open30
  8
_0-2_08_DIM
 10
3410.1847051924528
 20
1791.2296425974919
 41
12.5
 42
12.5
 50
180
  0
INSERT
  2
-006-_Open30
  8
_0-2_08_DIM
 10
4010.1847051924528
 20
1791.2296425974919
 41
12.5
 42
12.5
 50
0
  0
LINE
  8
_0-2_08_DIM
  6
CONTINUOUS
 62
    3
 10
2810.1847051926566
 20
1687.1701550834844
 11
2810.1847051926566
 21
1797.4796425974919
  0
LINE
  8
_0-2_08_DIM
  6
CONTINUOUS
 62
    3
 10
2210.184705192657
 20
1687.1701550834844
 11
2210.184705192657
 21
1797.4796425974919
  0
LINE
  8
_0-2_08_DIM
  6
CONTINUOUS
 62
    3
 10
2797.684705192657
 20
1791.2296425974919
 11
2222.684705192657
 21
1791.2296425974919
  0
INSERT
  2
-006-_Open30
  8
_0-2_08_DIM
 10
2810.1847051926566
 20
1791.2296425974919
 41
12.5
 42
12.5
 50
0
  0
INSERT
  2
-006-_Open30
  8
_0-2_08_DIM
 10
2210.184705192657
 20
1791.2296425974919
 41
12.5
 42
12.5
 50
180
  0
LINE
  8
_0-2_08_DIM
  6
CONTINUOUS
 62
    3
 10
3395.0274861380935
 20
1672.0129360291035
 11
3355.0710028244416
 21
1672.0129360291035
  0
LINE
  8
_0-2_08_DIM
  6
CONTINUOUS
 62
    3
 10
3395.0274861380935
 20
1712.0129360291037
 11
3355.0710028244416
 21
1712.0129360291037
  0
LINE
  8
_0-2_08_DIM
  6
CONTINUOUS
 62
    3
 10
3361.3210028244416
 20
1684.5129360291032
 11
3361.3210028244416
 21
1699.5129360291035
  0
INSERT
  2
-006-_Open30
  8
_0-2_08_DIM
 10
3361.3210028244416
 20
1672.0129360291035
 41
12.5
 42
12.5
 50
270
  0
INSERT
  2
-006-_Open30
  8
_0-2_08_DIM
 10
3361.3210028244416
 20
1712.0129360291037
 41
12.5
 42
12.5
 50
90
  0
LINE
  8
_0-2_08_DIM
  6
CONTINUOUS
 62
    3
 10
4115.1847051924551
 20
1736.1379360291037
 11
4115.1847051924551
 21
1853.4770931766705
  0
LINE
  8
_0-2_08_DIM
  6
CONTINUOUS
 62
    3
 10
4145.1847051924551
 20
1740.1379360291035
 11
4145.1847051924551
 21
1853.4770931766705
  0
LINE
  8
_0-2_08_DIM
  6
CONTINUOUS
 62
    3
 10
4115.1847051924551
 20
1847.2270931766705
 11
4145.1847051924551
 21
1847.2270931766705
  0
LINE
  8
_0-2_08_DIM
  6
CONTINUOUS
 62
    3
 10
4102.6847051924542
 20
1847.2270931766705
 11
4090.1847051924547
 21
1847.2270931766705
  0
LINE
  8
_0-2_08_DIM
  6
CONTINUOUS
 62
    3
 10
4157.6847051924542
 20
1847.2270931766705
 11
4170.1847051924542
 21
1847.2270931766705
  0
INSERT
  2
-006-_Open30
  8
_0-2_08_DIM
 10
4115.1847051924551
 20
1847.2270931766705
 41
12.5
 42
12.5
 50
0
  0
INSERT
  2
-006-_Open30
  8
_0-2_08_DIM
 10
4145.1847051924551
 20
1847.2270931766705
 41
12.5
 42
12.5
 50
180
  0
LINE
  8
_0-2_08_DIM
  6
CONTINUOUS
 62
    3
 10
4115.1847051924551
 20
1736.1379360291037
 11
4115.1847051924551
 21
1853.4770931766705
  0
LINE
  8
_0-2_08_DIM
  6
CONTINUOUS
 62
    3
 10
2105.184705203787
 20
1736.1379360291037
 11
2105.184705203787
 21
1853.4770931766705
  0
LINE
  8
_0-2_08_DIM
  6
CONTINUOUS
 62
    3
 10
4102.6847051924542
 20
1847.2270931766705
 11
2117.684705203787
 21
1847.2270931766705
  0
INSERT
  2
-006-_Open30
  8
_0-2_08_DIM
 10
4115.1847051924551
 20
1847.2270931766705
 41
12.5
 42
12.5
 50
0
  0
INSERT
  2
-006-_Open30
  8
_0-2_08_DIM
 10
2105.184705203787
 20
1847.2270931766705
 41
12.5
 42
12.5
 50
180
  0
LINE
  8
_0-2_08_DIM
  6
CONTINUOUS
 62
    3
 10
2105.184705203787
 20
1736.1379360291037
 11
2105.184705203787
 21
1853.4770931766705
  0
LINE
  8
_0-2_08_DIM
  6
CONTINUOUS
 62
    3
 10
2075.184705203787
 20
1740.1379360291035
 11
2075.184705203787
 21
1853.4770931766705
  0
LINE
  8
_0-2_08_DIM
  6
CONTINUOUS
 62
    3
 10
2105.184705203787
 20
1847.2270931766705
 11
2075.184705203787
 21
1847.2270931766705
  0
LINE
  8
_0-2_08_DIM
  6
CONTINUOUS
 62
    3
 10
2117.684705203787
 20
1847.2270931766705
 11
2130.184705203787
 21
1847.2270931766705
  0
LINE
  8
_0-2_08_DIM
  6
CONTINUOUS
 62
    3
 10
2062.684705203787
 20
1847.2270931766705
 11
2050.184705203787
 21
1847.2270931766705
  0
INSERT
  2
-006-_Open30
  8
_0-2_08_DIM
 10
2105.184705203787
 20
1847.2270931766705
 41
12.5
 42
12.5
 50
180
  0
INSERT
  2
-006-_Open30
  8
_0-2_08_DIM
 10
2075.184705203787
 20
1847.2270931766705
 41
12.5
 42
12.5
 50
0
  0
LINE
  8
_0-2_08_DIM
  6
CONTINUOUS
 62
    3
 10
3049.819140163147
 20
1412.1379360279539
 11
3049.819140163147
 21
1462.7529859168524
  0
LINE
  8
_0-2_08_DIM
  6
CONTINUOUS
 62
    3
 10
3170.5502702219624
 20
1412.1379360279539
 11
3170.5502702219624
 21
1462.7529859168524
  0
LINE
  8
_0-2_08_DIM
  6
CONTINUOUS
 62
    3
 10
3062.319140163147
 20
1456.5029859168524
 11
3158.0502702219624
 21
1456.5029859168524
  0
INSERT
  2
-006-_Open30
  8
_0-2_08_DIM
 10
3049.819140163147
 20
1456.5029859168524
 41
12.5
 42
12.5
 50
180
  0
INSERT
  2
-006-_Open30
  8
_0-2_08_DIM
 10
3170.5502702219624
 20
1456.5029859168524
 41
12.5
 42
12.5
 50
0
  0
LINE
  8
_0-2_08_DIM
  6
CONTINUOUS
 62
    3
 10
3049.819140163147
 20
1412.1379360279539
 11
3049.819140163147
 21
1462.7529859168524
  0
LINE
  8
_0-2_08_DIM
  6
CONTINUOUS
 62
    3
 10
2102.1847051926547
 20
1580.557842478888
 11
2102.1847051926547
 21
1450.2529859168524
  0
LINE
  8
_0-2_08_DIM
  6
CONTINUOUS
 62
    3
 10
3037.319140163147
 20
1456.5029859168524
 11
2114.6847051926547
 21
1456.5029859168524
  0
INSERT
  2
-006-_Open30
  8
_0-2_08_DIM
 10
3049.819140163147
 20
1456.5029859168524
 41
12.5
 42
12.5
 50
0
  0
INSERT
  2
-006-_Open30
  8
_0-2_08_DIM
 10
2102.1847051926547
 20
1456.5029859168524
 41
12.5
 42
12.5
 50
180
  0
LINE
  8
_0-2_08_DIM
  6
CONTINUOUS
 62
    3
 10
2102.1847051926547
 20
1581.6438824214611
 11
2102.1847051926547
 21
1506.0829831269234
  0
LINE
  8
_0-2_08_DIM
  6
CONTINUOUS
 62
    3
 10
4118.1847051924542
 20
1580.557842478888
 11
4118.1847051924542
 21
1506.0829831269234
  0
LINE
  8
_0-2_08_DIM
  6
CONTINUOUS
 62
    3
 10
2114.6847051926547
 20
1512.3329831269234
 11
4105.6847051924551
 21
1512.3329831269234
  0
INSERT
  2
-006-_Open30
  8
_0-2_08_DIM
 10
2102.1847051926547
 20
1512.3329831269234
 41
12.5
 42
12.5
 50
180
  0
INSERT
  2
-006-_Open30
  8
_0-2_08_DIM
 10
4118.1847051924542
 20
1512.3329831269234
 41
12.5
 42
12.5
 50
0
  0
LINE
  8
_0-2_08_DIM
  6
CONTINUOUS
 62
    3
 10
4121.3097051924542
 20
1583.6828424788878
 11
4204.0800025158815
 21
1583.6828424788878
  0
LINE
  8
_0-2_08_DIM
  6
CONTINUOUS
 62
    3
 10
4121.3097051924542
 20
1712.0129360291037
 11
4204.0800025158815
 21
1712.0129360291037
  0
LINE
  8
_0-2_08_DIM
  6
CONTINUOUS
 62
    3
 10
4197.8300025158806
 20
1596.1828424788878
 11
4197.8300025158806
 21
1699.5129360291035
  0
INSERT
  2
-006-_Open30
  8
_0-2_08_DIM
 10
4197.8300025158806
 20
1583.6828424788878
 41
12.5
 42
12.5
 50
270
  0
INSERT
  2
-006-_Open30
  8
_0-2_08_DIM
 10
4197.8300025158806
 20
1712.0129360291037
 41
12.5
 42
12.5
 50
90
  0
LINE
  8
_0-2_08_DIM
  6
CONTINUOUS
 62
    3
 10
3173.6752702219624
 20
1409.0129360279539
 11
4260.018182498593
 21
1409.0129360279539
  0
LINE
  8
_0-2_08_DIM
  6
CONTINUOUS
 62
    3
 10
4121.3097051924542
 20
1712.0129360291037
 11
4260.018182498593
 21
1712.0129360291037
  0
LINE
  8
_0-2_08_DIM
  6
CONTINUOUS
 62
    3
 10
4253.7681824985921
 20
1421.5129360279539
 11
4253.7681824985921
 21
1699.5129360291035
  0
INSERT
  2
-006-_Open30
  8
_0-2_08_DIM
 10
4253.7681824985921
 20
1409.0129360279539
 41
12.5
 42
12.5
 50
270
  0
INSERT
  2
-006-_Open30
  8
_0-2_08_DIM
 10
4253.7681824985921
 20
1712.0129360291037
 41
12.5
 42
12.5
 50
90
  0
LINE
  8
_0-2_08_DIM
  6
CONTINUOUS
 62
    3
 10
4115.1847051924551
 20
1649.5790637695391
 11
4115.1847051924551
 21
1643.1119319805705
  0
LINE
  8
_0-2_08_DIM
  6
CONTINUOUS
 62
    3
 10
4118.1847051924542
 20
1647.5461955585083
 11
4118.1847051924542
 21
1655.6119319805705
  0
LINE
  8
_0-2_08_DIM
  6
CONTINUOUS
 62
    3
 10
4130.6847051924551
 20
1649.3619319805705
 11
4159.4347051924551
 21
1649.3619319805705
  0
LINE
  8
_0-2_08_DIM
  6
CONTINUOUS
 62
    3
 10
4115.1847051924551
 20
1649.3619319805705
 11
4118.1847051924542
 21
1649.3619319805705
  0
LINE
  8
_0-2_08_DIM
  6
CONTINUOUS
 62
    3
 10
4102.6847051924542
 20
1649.3619319805705
 11
4090.1847051924547
 21
1649.3619319805705
  0
INSERT
  2
-006-_Open30
  8
_0-2_08_DIM
 10
4115.1847051924551
 20
1649.3619319805705
 41
12.5
 42
12.5
 50
0
  0
INSERT
  2
-006-_Open30
  8
_0-2_08_DIM
 10
4118.1847051924542
 20
1649.3619319805705
 41
12.5
 42
12.5
 50
180
  0
LINE
  8
_0-2_08_DIM
  6
CONTINUOUS
 62
    3
 10
3173.4010964574827
 20
1412.0129360279539
 11
3273.1374631289709
 21
1412.0129360279539
  0
LINE
  8
_0-2_08_DIM
  6
CONTINUOUS
 62
    3
 10
3173.6752702219624
 20
1409.0129360279539
 11
3273.1374631289709
 21
1409.0129360279539
  0
LINE
  8
_0-2_08_DIM
  6
CONTINUOUS
 62
    3
 10
3266.8874631289705
 20
1396.5129360279539
 11
3266.8874631289705
 21
1367.7629360279539
  0
LINE
  8
_0-2_08_DIM
  6
CONTINUOUS
 62
    3
 10
3266.8874631289705
 20
1412.0129360279539
 11
3266.8874631289705
 21
1409.0129360279539
  0
LINE
  8
_0-2_08_DIM
  6
CONTINUOUS
 62
    3
 10
3266.8874631289705
 20
1424.5129360279541
 11
3266.8874631289705
 21
1437.0129360279539
  0
INSERT
  2
-006-_Open30
  8
_0-2_08_DIM
 10
3266.8874631289705
 20
1412.0129360279539
 41
12.5
 42
12.5
 50
270
  0
INSERT
  2
-006-_Open30
  8
_0-2_08_DIM
 10
3266.8874631289705
 20
1409.0129360279539
 41
12.5
 42
12.5
 50
90
  0
LINE
  8
_0-2_08_DIM
  6
CONTINUOUS
 62
    3
 10
3513.2052817119593
 20
1744.01576448427
 11
3444.9761150452923
 21
1744.01576448427
  0
LINE
  8
_0-2_08_DIM
  6
CONTINUOUS
 62
    3
 10
3444.9761150452923
 20
1744.01576448427
 11
3418.450991910388
 21
1689.1204929527933
  0
INSERT
  2
-006-_Open30
  8
_0-2_08_DIM
 10
3413.0126453854314
 20
1677.8655212924782
 41
12.499999999999998
 42
12.499999999999998
 50
244.21039678822967
  0
LINE
  8
_0-2_08_DIM
  6
CONTINUOUS
 62
    3
 10
3938.4622366644135
 20
1553.6065678075204
 11
3934.4225200921924
 21
1552.8619590325338
  0
LINE
  8
_0-2_08_DIM
  6
CONTINUOUS
 62
    3
 10
3939.0060421335274
 20
1550.6562668717222
 11
3934.9663255613068
 21
1549.9116580967359
  0
LINE
  8
_0-2_08_DIM
  6
CONTINUOUS
 62
    3
 10
3943.3786419655244
 20
1538.7516655915713
 11
3948.5901110445357
 21
1510.4779482901886
  0
LINE
  8
_0-2_08_DIM
  6
CONTINUOUS
 62
    3
 10
3940.5689803751015
 20
1553.994887093188
 11
3941.1127858442155
 21
1551.0445861573901
  0
LINE
  8
_0-2_08_DIM
  6
CONTINUOUS
 62
    3
 10
3938.3031242537927
 20
1566.2878076590066
 11
3936.0372681324834
 21
1578.5807282248254
  0
INSERT
  2
-006-_Open30
  8
_0-2_08_DIM
 10
3940.5689803751015
 20
1553.994887093188
 41
12.5
 42
12.5
 50
280.4436544594592
  0
INSERT
  2
-006-_Open30
  8
_0-2_08_DIM
 10
3941.1127858442155
 20
1551.0445861573901
 41
12.5
 42
12.5
 50
100.44365445945918
  0
LINE
  8
_0-2_08_DIM
  6
CONTINUOUS
 62
    3
 10
4496.8446033029932
 20
2116.7329848878981
 11
4496.8446033029932
 21
1966.7647265069836
  0
LINE
  8
_0-2_08_DIM
  6
CONTINUOUS
 62
    3
 10
4821.8446032774345
 20
2116.7329849046068
 11
4821.8446032774345
 21
1966.7647265069836
  0
LINE
  8
_0-2_08_DIM
  6
CONTINUOUS
 62
    3
 10
4509.3446033029932
 20
1973.0147265069836
 11
4809.3446032774345
 21
1973.0147265069836
  0
INSERT
  2
-006-_Open30
  8
_0-2_08_DIM
 10
4496.8446033029932
 20
1973.0147265069836
 41
12.5
 42
12.5
 50
180
  0
INSERT
  2
-006-_Open30
  8
_0-2_08_DIM
 10
4821.8446032774345
 20
1973.0147265069836
 41
12.5
 42
12.5
 50
0
  0
LINE
  8
_0-2_08_DIM
  6
CONTINUOUS
 62
    3
 10
4821.8446032774345
 20
2116.7329849046068
 11
4821.8446032774345
 21
1966.7647265069836
  0
LINE
  8
_0-2_08_DIM
  6
CONTINUOUS
 62
    3
 10
4824.8446032774345
 20
2114.7329849046068
 11
4824.8446032774345
 21
1966.7647265069836
  0
LINE
  8
_0-2_08_DIM
  6
CONTINUOUS
 62
    3
 10
4837.3446032774355
 20
1973.0147265069836
 11
4866.0946032774345
 21
1973.0147265069836
  0
LINE
  8
_0-2_08_DIM
  6
CONTINUOUS
 62
    3
 10
4821.8446032774345
 20
1973.0147265069836
 11
4824.8446032774345
 21
1973.0147265069836
  0
LINE
  8
_0-2_08_DIM
  6
CONTINUOUS
 62
    3
 10
4809.3446032774345
 20
1973.0147265069836
 11
4796.8446032774345
 21
1973.0147265069836
  0
INSERT
  2
-006-_Open30
  8
_0-2_08_DIM
 10
4821.8446032774345
 20
1973.0147265069836
 41
12.5
 42
12.5
 50
0
  0
INSERT
  2
-006-_Open30
  8
_0-2_08_DIM
 10
4824.8446032774345
 20
1973.0147265069836
 41
12.5
 42
12.5
 50
180
  0
LINE
  8
_0-2_08_DIM
  6
CONTINUOUS
 62
    3
 10
4183.9285904996259
 20
1539.0999066225538
 11
4155.8035904996259
 21
1539.0999066225538
  0
LINE
  8
_0-2_08_DIM
  6
CONTINUOUS
 62
    3
 10
4155.8035904996259
 20
1539.0999066225538
 11
4124.1089405031453
 21
1574.9086521475326
  0
INSERT
  2
-006-_Open30
  8
_0-2_08_DIM
 10
4115.8241742783439
 20
1584.2688149987007
 41
12.5
 42
12.5
 50
131.51233692603898
  0
LINE
  8
_0-2_08_DIM
  6
CONTINUOUS
 62
    3
 10
4054.4962223494904
 20
1621.3326347372156
 11
4082.6212223494908
 21
1621.3326347372156
  0
LINE
  8
_0-2_08_DIM
  6
CONTINUOUS
 62
    3
 10
4082.6212223494908
 20
1621.3326347372156
 11
4104.1709507950745
 21
1597.3244200275733
  0
INSERT
  2
-006-_Open30
  8
_0-2_08_DIM
 10
4112.5206583977506
 20
1588.0221416534423
 41
12.500000000000002
 42
12.500000000000002
 50
311.91108988708498
  0
LINE
  8
_0-2_08_DIM
  6
CONTINUOUS
 62
    3
 10
4586.4544409490481
 20
2083.4268378007296
 11
4558.3294409490491
 21
2083.4268378007296
  0
LINE
  8
_0-2_08_DIM
  6
CONTINUOUS
 62
    3
 10
4558.3294409490491
 20
2083.4268378007296
 11
4533.2753626793738
 21
2108.4395069644702
  0
INSERT
  2
-006-_Open30
  8
_0-2_08_DIM
 10
4524.4292205342936
 20
2117.2710283027805
 41
12.5
 42
12.5
 50
135.04738806860959
  0
LINE
  8
_0-2_08_DIM
  6
CONTINUOUS
 62
    3
 10
4181.6040713033099
 20
1688.9318781592581
 11
4153.4790713033099
 21
1688.9318781592581
  0
LINE
  8
_0-2_08_DIM
  6
CONTINUOUS
 62
    3
 10
4153.4790713033099
 20
1688.9318781592581
 11
4123.8587896116405
 21
1724.9069754342336
  0
INSERT
  2
-006-_Open30
  8
_0-2_08_DIM
 10
4115.9134510173717
 20
1734.5569285233641
 41
12.5
 42
12.5
 50
129.46650990898758
  0
LINE
  8
_0-2_08_DIM
  6
CONTINUOUS
 62
    3
 10
2810.1847051926566
 20
2909.9925476373564
 11
2810.1847051926566
 21
2799.6830601233492
  0
LINE
  8
_0-2_08_DIM
  6
CONTINUOUS
 62
    3
 10
3410.1847051924528
 20
2909.9925476373564
 11
3410.1847051924528
 21
2799.6830601233492
  0
LINE
  8
_0-2_08_DIM
  6
CONTINUOUS
 62
    3
 10
2822.6847051926566
 20
2805.9330601233492
 11
3397.6847051924528
 21
2805.9330601233492
  0
INSERT
  2
-006-_Open30
  8
_0-2_08_DIM
 10
2810.1847051926566
 20
2805.9330601233492
 41
12.5
 42
12.5
 50
180
  0
INSERT
  2
-006-_Open30
  8
_0-2_08_DIM
 10
3410.1847051924528
 20
2805.9330601233492
 41
12.5
 42
12.5
 50
0
  0
LINE
  8
_0-2_08_DIM
  6
CONTINUOUS
 62
    3
 10
3410.1847051924528
 20
2909.9925476373564
 11
3410.1847051924528
 21
2799.6830601233492
  0
LINE
  8
_0-2_08_DIM
  6
CONTINUOUS
 62
    3
 10
4010.1847051924528
 20
2909.9925476373564
 11
4010.1847051924528
 21
2799.6830601233492
  0
LINE
  8
_0-2_08_DIM
  6
CONTINUOUS
 62
    3
 10
3422.6847051924528
 20
2805.9330601233492
 11
3997.6847051924528
 21
2805.9330601233492
  0
INSERT
  2
-006-_Open30
  8
_0-2_08_DIM
 10
3410.1847051924528
 20
2805.9330601233492
 41
12.5
 42
12.5
 50
180
  0
INSERT
  2
-006-_Open30
  8
_0-2_08_DIM
 10
4010.1847051924528
 20
2805.9330601233492
 41
12.5
 42
12.5
 50
0
  0
LINE
  8
_0-2_08_DIM
  6
CONTINUOUS
 62
    3
 10
2810.1847051926566
 20
2909.9925476373564
 11
2810.1847051926566
 21
2799.6830601233492
  0
LINE
  8
_0-2_08_DIM
  6
CONTINUOUS
 62
    3
 10
2210.184705192657
 20
2909.9925476373564
 11
2210.184705192657
 21
2799.6830601233492
  0
LINE
  8
_0-2_08_DIM
  6
CONTINUOUS
 62
    3
 10
2797.684705192657
 20
2805.9330601233492
 11
2222.684705192657
 21
2805.9330601233492
  0
INSERT
  2
-006-_Open30
  8
_0-2_08_DIM
 10
2810.1847051926566
 20
2805.9330601233492
 41
12.5
 42
12.5
 50
0
  0
INSERT
  2
-006-_Open30
  8
_0-2_08_DIM
 10
2210.184705192657
 20
2805.9330601233492
 41
12.5
 42
12.5
 50
180
  0
LINE
  8
_0-2_08_DIM
  6
CONTINUOUS
 62
    3
 10
3395.0274861380935
 20
2925.1497666917376
 11
3355.0710028244416
 21
2925.1497666917376
  0
LINE
  8
_0-2_08_DIM
  6
CONTINUOUS
 62
    3
 10
3395.0274861380935
 20
2885.1497666917376
 11
3355.0710028244416
 21
2885.1497666917376
  0
LINE
  8
_0-2_08_DIM
  6
CONTINUOUS
 62
    3
 10
3361.3210028244416
 20
2912.6497666917376
 11
3361.3210028244416
 21
2897.6497666917371
  0
INSERT
  2
-006-_Open30
  8
_0-2_08_DIM
 10
3361.3210028244416
 20
2925.1497666917376
 41
12.5
 42
12.5
 50
90
  0
INSERT
  2
-006-_Open30
  8
_0-2_08_DIM
 10
3361.3210028244416
 20
2885.1497666917376
 41
12.5
 42
12.5
 50
270
  0
LINE
  8
_0-2_08_DIM
  6
CONTINUOUS
 62
    3
 10
3513.2052817119593
 20
2853.1469382365708
 11
3444.9761150452919
 21
2853.1469382365708
  0
LINE
  8
_0-2_08_DIM
  6
CONTINUOUS
 62
    3
 10
3444.9761150452919
 20
2853.1469382365708
 11
3418.450991910388
 21
2908.0422097680471
  0
INSERT
  2
-006-_Open30
  8
_0-2_08_DIM
 10
3413.0126453854314
 20
2919.2971814283624
 41
12.5
 42
12.5
 50
115.78960321176989
  0
LINE
  8
_0-2_08_DIM
  6
CONTINUOUS
 62
    3
 10
4232.3720487649407
 20
2091.0516649814731
 11
4174.2470487649407
 21
2091.0516649814731
  0
LINE
  8
_0-2_08_DIM
  6
CONTINUOUS
 62
    3
 10
4174.2470487649407
 20
2091.0516649814731
 11
4152.6056657928675
 21
2112.5303842604353
  0
INSERT
  2
-006-_Open30
  8
_0-2_08_DIM
 10
4143.7335510640614
 20
2121.3358132811532
 41
12.5
 42
12.5
 50
135.21613814438868
  0
LINE
  8
_0-2_08_DIM
  6
CONTINUOUS
 62
    3
 10
4210.0920710586088
 20
2039.0542224659193
 11
4151.9670710586088
 21
2039.0542224659193
  0
LINE
  8
_0-2_08_DIM
  6
CONTINUOUS
 62
    3
 10
4151.9670710586088
 20
2039.0542224659193
 11
4123.4176227793496
 21
2078.6615981012587
  0
INSERT
  2
-006-_Open30
  8
_0-2_08_DIM
 10
4116.1083959378448
 20
2088.801874378531
 41
12.5
 42
12.5
 50
125.78449347485197
  0
LINE
  8
_0-2_08_DIM
  6
CONTINUOUS
 62
    3
 10
3295.3159506808693
 20
2402.3871038575498
 11
3244.0659506808697
 21
2402.3871038575498
  0
LINE
  8
_0-2_08_DIM
  6
CONTINUOUS
 62
    3
 10
3244.0659506808697
 20
2402.3871038575498
 11
3185.3587413669557
 21
2375.8449571688411
  0
INSERT
  2
-006-_Open30
  8
_0-2_08_DIM
 10
3173.9687358853203
 20
2370.695415914679
 41
12.500000000000002
 42
12.500000000000002
 50
204.3282260652949
  0
LINE
  8
_0-2_08_DIM
  6
CONTINUOUS
 62
    3
 10
3265.3273793643548
 20
2459.8264175406453
 11
3197.1954349199104
 21
2459.8264175406453
  0
LINE
  8
_0-2_08_DIM
  6
CONTINUOUS
 62
    3
 10
3197.1954349199104
 20
2459.8264175406453
 11
3170.2528416912282
 21
2410.6495288364335
  0
INSERT
  2
-006-_Open30
  8
_0-2_08_DIM
 10
3164.2467838389525
 20
2399.6869894830211
 41
12.5
 42
12.5
 50
241.28294137331952
  0
TEXT
  8
_0-7_07_TEXT
 62
    3
 10
4884.3003996054376
 20
1480.795871592544
 40
14.999999999999998
 41
1
 50
0
  1
注記
  0
TEXT
  8
_0-7_07_TEXT
 62
    3
 10
4885.5003996054375
 20
1452.9008715925438
 40
14.999999999999998
 41
1
 50
0
  1
　指示なき角部は
  0
TEXT
  8
_0-7_07_TEXT
 62
    3
 10
5047.1253996054365
 20
1452.9008715925438
 40
14.999999999999998
 41
1
 50
0
  1
C0.5
  0
TEXT
  8
_0-7_07_TEXT
 62
    3
 10
5097.8396853197228
 20
1452.9008715925438
 40
14.999999999999998
 41
1
 50
0
  1
のこと
  0
TEXT
  8
_0-7_07_TEXT
 62
    3
 10
4885.5003996054375
 20
1424.4058715925437
 40
14.999999999999998
 41
1
 50
0
  1
　ガス切断面はグラインダ仕上げのこと
  0
TEXT
  8
_0-7_07_TEXT
 62
    3
 10
4885.5003996054375
 20
1396.6908715925438
 40
14.999999999999998
 41
1
 50
0
  1
　指示なき溶接部は　　　　のこと
  0
TEXT
  8
_0-7_07_TEXT
 62
    3
 10
4885.5003996054375
 20
1369.0508715925439
 40
14.999999999999998
 41
1
 50
0
  1
　溶接部水漏れなきこと
  0
TEXT
  8
_0-2_08_DIM
 62
    3
 10
4426.6133065475387
 20
2320.0722706056572
 40
14.999999999999998
 41
1
 50
90
  1
444
  0
TEXT
  8
_0-2_08_DIM
 62
    3
 10
4426.6133065475387
 20
2565.5722706079655
 40
14.999999999999998
 41
1
 50
90
  1
32
  0
TEXT
  8
_0-2_08_DIM
 62
    3
 10
4426.6133065475387
 20
2089.5722706025595
 40
14.999999999999998
 41
1
 50
90
  1
32
  0
TEXT
  8
_0-2_08_DIM
 62
    3
 10
4548.1838889917908
 20
2018.6167787132783
 40
14.999999999999998
 41
1
 50
0
  1
25
  0
TEXT
  8
_0-2_08_DIM
 62
    3
 10
4548.183888991789
 20
2645.6844725092305
 40
14.999999999999998
 41
1
 50
0
  1
25
  0
TEXT
  8
_0-2_08_DIM
 62
    3
 10
4549.8267461346486
 20
2059.4247489878067
 40
14.999999999999998
 41
1
 50
0
  1
2
  0
TEXT
  8
_0-2_08_DIM
 62
    3
 10
4974.1855985957727
 20
2178.0681039389824
 40
14.999999999999998
 41
1
 50
90
  1
?76.3
  0
TEXT
  8
_0-2_08_DIM
 62
    3
 10
4992.9460152624388
 20
2131.2823896532686
 40
14.999999999999998
 41
1
 50
90
  1
(65AxSch10S)
  0
TEXT
  8
_0-2_08_DIM
 62
    3
 10
5024.6629149025684
 20
2313.6436991770902
 40
14.999999999999998
 41
1
 50
90
  1
?175
  0
TEXT
  8
_0-2_08_DIM
 62
    3
 10
4928.183888996502
 20
2497.9609625727471
 40
14.999999999999998
 41
1
 50
0
  1
9
  0
TEXT
  8
_0-2_08_DIM
 62
    3
 10
4847.5588889975361
 20
2203.921436097196
 40
14.999999999999998
 41
1
 50
0
  1
80
  0
TEXT
  8
_0-2_08_DIM
 62
    3
 10
4927.4696032822167
 20
2457.6429015267963
 40
14.999999999999998
 41
1
 50
0
  1
4
  0
TEXT
  8
_0-2_08_DIM
 62
    3
 10
4755.1740173164153
 20
2320.7865563199412
 40
14.999999999999998
 41
1
 50
90
  1
?66
  0
TEXT
  8
_0-2_08_DIM
 62
    3
 10
4773.9240173164144
 20
2320.9529848913708
 40
14.999999999999998
 41
1
 50
90
  1
(
  0
TEXT
  8
_0-2_08_DIM
 62
    3
 10
4773.9240173164144
 20
2330.9529848913703
 40
14.999999999999998
 41
1
 50
90
  1
穴
  0
TEXT
  8
_0-2_08_DIM
 62
    3
 10
4773.9240173164144
 20
2352.7629848913707
 40
14.999999999999998
 41
1
 50
90
  1
)
  0
TEXT
  8
_0-2_08_DIM
 62
    3
 10
3088.3989909068405
 20
1794.3546425974919
 40
14.999999999999998
 41
1
 50
0
  1
600
  0
TEXT
  8
_0-2_08_DIM
 62
    3
 10
3644.8275623353097
 20
1794.3546425974919
 40
14.999999999999998
 41
1
 50
0
  1
2x300=600
  0
TEXT
  8
_0-2_08_DIM
 62
    3
 10
2444.8275623355139
 20
1794.3546425974919
 40
14.999999999999998
 41
1
 50
0
  1
2x300=600
  0
TEXT
  8
_0-2_08_DIM
 62
    3
 10
3358.1960028244421
 20
1677.7272217433888
 40
14.999999999999998
 41
1
 50
90
  1
40
  0
TEXT
  8
_0-2_08_DIM
 62
    3
 10
4115.8989909067395
 20
1850.3520931766705
 40
14.999999999999998
 41
1
 50
0
  1
30
  0
TEXT
  8
_0-2_08_DIM
 62
    3
 10
3081.6132766266924
 20
1850.3520931766705
 40
14.999999999999998
 41
1
 50
0
  1
2010
  0
TEXT
  8
_0-2_08_DIM
 62
    3
 10
2075.8989909180727
 20
1850.3520931766705
 40
14.999999999999998
 41
1
 50
0
  1
30
  0
TEXT
  8
_0-2_08_DIM
 62
    3
 10
3087.6847051925552
 20
1459.6279859168524
 40
14.999999999999998
 41
1
 50
0
  1
120
  0
TEXT
  8
_0-2_08_DIM
 62
    3
 10
2554.5733512493298
 20
1459.6279859168524
 40
14.999999999999998
 41
1
 50
0
  1
948
  0
TEXT
  8
_0-2_08_DIM
 62
    3
 10
3081.6132766211263
 20
1515.4579831269234
 40
14.999999999999998
 41
1
 50
0
  1
2016
  0
TEXT
  8
_0-2_08_DIM
 62
    3
 10
4194.7050025158815
 20
1625.3478892539954
 40
14.999999999999998
 41
1
 50
90
  1
128
  0
TEXT
  8
_0-2_08_DIM
 62
    3
 10
4250.643182498593
 20
1539.0843645999573
 40
14.999999999999998
 41
1
 50
90
  1
303
  0
TEXT
  8
_0-2_08_DIM
 62
    3
 10
4144.1668480495964
 20
1652.4869319805705
 40
14.999999999999998
 41
1
 50
0
  1
3
  0
TEXT
  8
_0-2_08_DIM
 62
    3
 10
3263.7624631289705
 20
1368.7450788850967
 40
14.999999999999998
 41
1
 50
90
  1
3
  0
TEXT
  8
_0-2_08_DIM
 62
    3
 10
3442.7960555214827
 20
1747.1407644842698
 40
14.999999999999998
 41
1
 50
0
  1
6-?13
  0
TEXT
  8
_0-2_08_DIM
 62
    3
 10
3948.8957597806766
 20
1526.0593367259087
 40
14.999999999999998
 41
1
 50
-79.556345540542907
  1
3
  0
TEXT
  8
_0-2_08_DIM
 62
    3
 10
4637.9160318616423
 20
1976.1501431736503
 40
14.999999999999998
 41
1
 50
0
  1
325
  0
TEXT
  8
_0-2_08_DIM
 62
    3
 10
4850.8267461345777
 20
1976.1397265069836
 40
14.999999999999998
 41
1
 50
0
  1
3
  0
TEXT
  8
_0-2_08_DIM
 62
    3
 10
4156.4285904996268
 20
1542.2249066225538
 40
14.999999999999998
 41
1
 50
0
  1
R7
  0
TEXT
  8
_0-2_08_DIM
 62
    3
 10
4051.9962223494904
 20
1624.4576347372156
 40
14.999999999999998
 41
1
 50
0
  1
R2
  0
TEXT
  8
_0-2_08_DIM
 62
    3
 10
4558.9544409490481
 20
2086.5518378007296
 40
14.999999999999998
 41
1
 50
0
  1
R2
  0
TEXT
  8
_0-2_08_DIM
 62
    3
 10
4154.1040713033099
 20
1692.0568781592581
 40
14.999999999999998
 41
1
 50
0
  1
R2
  0
TEXT
  8
_0-2_08_DIM
 62
    3
 10
3088.3989909068405
 20
2809.0580601233487
 40
14.999999999999998
 41
1
 50
0
  1
600
  0
TEXT
  8
_0-2_08_DIM
 62
    3
 10
3644.8275623353097
 20
2809.0580601233487
 40
14.999999999999998
 41
1
 50
0
  1
2x300=600
  0
TEXT
  8
_0-2_08_DIM
 62
    3
 10
2444.8275623355139
 20
2809.0580601233487
 40
14.999999999999998
 41
1
 50
0
  1
2x300=600
  0
TEXT
  8
_0-2_08_DIM
 62
    3
 10
3358.1960028244412
 20
2890.8640524060229
 40
14.999999999999998
 41
1
 50
90
  1
40
  0
TEXT
  8
_0-2_08_DIM
 62
    3
 10
3442.7960555214827
 20
2856.2719382365708
 40
14.999999999999998
 41
1
 50
0
  1
6-?13
  0
TEXT
  8
_0-2_08_DIM
 62
    3
 10
4173.8006201935113
 20
2094.1870816481401
 40
14.999999999999998
 41
1
 50
0
  1
4-R5
  0
TEXT
  8
_0-2_08_DIM
 62
    3
 10
4151.5206424871803
 20
2042.1896391325859
 40
14.999999999999998
 41
1
 50
0
  1
4-R5
  0
TEXT
  8
_0-2_08_DIM
 62
    3
 10
3243.0391649665835
 20
2405.5121038575503
 40
14.999999999999998
 41
1
 50
0
  1
?140
  0
TEXT
  8
_0-2_08_DIM
 62
    3
 10
3195.6810499992757
 20
2462.9514175406448
 40
14.999999999999998
 41
1
 50
0
  1
4-?19
  0
TEXT
  8
_0-0_90_FRAME
 62
    3
 10
1905.4161368449472
 20
359.52221770698071
 40
14.999999999999998
 41
1
 50
0
  1
寺田
  0
TEXT
  8
_0-0_90_FRAME
 62
    3
 10
1522.2747743580981
 20
359.52221770698071
 40
14.999999999999998
 41
0.65
 50
0
  1
2013.09.01
  0
TEXT
  8
_0-0_90_FRAME
 62
    3
 10
1622.2332110906523
 20
359.52221770698071
 40
14.999999999999998
 41
1
 50
0
  1
エアー抜き追加
  0
TEXT
  8
_0-8_
 62
    7
 10
2344.8013550035689
 20
366.89928408383923
 40
47.492487937325095
 41
1
 50
0
  1
A3　150%
  0
ENDSEC
  0
EOF
