  0
SECTION
  2
HEADER
  9
$ACADVER
  1
AC1009
  9
$INSBASE
 10
0
 20
0
 30
0
  9
$EXTMIN
 10
0
 20
0
  9
$EXTMAX
 10
2867.3014768871831
 20
2027.5917586559365
  9
$LIMMIN
 10
0
 20
0
  9
$LIMMAX
 10
2867.3014768871831
 20
2027.5917586559365
  9
$LTSCALE
 40
6.8269082783028168
  0
ENDSEC
  0
SECTION
  2
TABLES
  0
TABLE
  2
LTYPE
 70
     9
  0
LTYPE
  2
CONTINUOUS
 70
    64
  3
実線
 72
    65
 73
     0
 40
0.0
  0
LTYPE
  2
DASHED1
 70
    64
  3
--  --  --  --  --  --  --  --  
 72
    65
 73
     2
 40
2.5
 49
1.25
 49
-1.25
  0
LTYPE
  2
DASHED2
 70
    64
  3
----    ----    ----    ----    
 72
    65
 73
     2
 40
5.0
 49
2.5
 49
-2.5
  0
LTYPE
  2
DASHED3
 70
    64
  3
------  ------  ------  ------  
 72
    65
 73
     2
 40
5.0
 49
3.75
 49
-1.25
  0
LTYPE
  2
CENTER1
 70
    64
  3
----- - ----- - ----- - ----- - 
 72
    65
 73
     4
 40
10.0
 49
6.25
 49
-1.25
 49
1.25
 49
-1.25
  0
LTYPE
  2
CENTER2
 70
    64
  3
----------  --  ----------  --  
 72
    65
 73
     4
 40
20.0
 49
12.5
 49
-2.5
 49
2.5
 49
-2.5
  0
LTYPE
  2
PHANTOM1
 70
    64
  3
--- - - --- - - --- - - --- - - 
 72
    65
 73
     6
 40
10.0
 49
3.25
 49
-1.25
 49
1.25
 49
-1.25
 49
1.25
 49
-1.25
  0
LTYPE
  2
PHANTOM2
 70
    64
  3
--------  -  -  --------  -  -  
 72
    65
 73
     6
 40
20.0
 49
10.0
 49
-2.5
 49
1.25
 49
-2.5
 49
1.25
 49
-2.5
  0
LTYPE
  2
DOT
 70
    64
  3
-   -   -   -   -   -   -   -   
 72
    65
 73
     2
 40
2.5
 49
0.625
 49
-1.875
  0
LTYPE
  2
DUMMY
 70
    64
  3
ダミー
 72
    65
 73
     0
 40
0.0
  0
LTYPE
  2
RAND1
 70
    64
  3
ランダム線1
 72
    65
 73
     4
 40
10.0
 49
1.0
 49
-2.0
 49
3.0
 49
-4.0
  0
LTYPE
  2
RAND2
 70
    64
  3
ランダム線2
 72
    65
 73
     4
 40
14.0
 49
2.0
 49
-3.0
 49
4.0
 49
-5.0
  0
LTYPE
  2
RAND3
 70
    64
  3
ランダム線3
 72
    65
 73
     4
 40
18.0
 49
3.0
 49
-4.0
 49
5.0
 49
-6.0
  0
LTYPE
  2
RAND4
 70
    64
  3
ランダム線4
 72
    65
 73
     4
 40
22.0
 49
4.0
 49
-5.0
 49
6.0
 49
-7.0
  0
LTYPE
  2
RAND5
 70
    64
  3
ランダム線5
 72
    65
 73
     4
 40
26.0
 49
5.0
 49
-6.0
 49
7.0
 49
-8.0
  0
LTYPE
  2
LONG1
 70
    64
  3
----------  --  ----------  --  
 72
    65
 73
     4
 40
40.0
 49
32.5
 49
-2.5
 49
2.5
 49
-2.5
  0
LTYPE
  2
LONG2
 70
    64
  3
--------  -  -  --------  -  -  
 72
    65
 73
     6
 40
40.0
 49
30.0
 49
-2.5
 49
1.25
 49
-2.5
 49
1.25
 49
-2.5
  0
LTYPE
  2
LONG3
 70
    64
  3
+++++++++++++++..+++++++++++++++
 72
    65
 73
     2
 40
40.0
 49
37.5
 49
-2.5
  0
LTYPE
  2
LONG4
 70
    64
  3
+++++++++++++++..+++++++++++++++
 72
    65
 73
     2
 40
80.0
 49
75.0
 49
-5.0
  0
LTYPE
  2
LONG5
 70
    64
  3
----------  --  ----------  --  
 72
    65
 73
     4
 40
60.0
 49
37.5
 49
-7.5
 49
7.5
 49
-7.5
  0
LTYPE
  2
dashed
 70
   64
  3
-------   -------------   ------
 72
   65
 73
    2
 40
7.5
 49
6
 49
-1.5
  0
LTYPE
  2
dashed_spaced
 70
   64
  3
----        --------        ----
 72
   65
 73
    2
 40
12
 49
6
 49
-6
  0
LTYPE
  2
long_dashed_dotted
 70
   64
  3
------------- --- --------------
 72
   65
 73
    4
 40
15.25
 49
12
 49
-1.5
 49
0.25
 49
-1.5
  0
LTYPE
  2
long_dashed_double-dotted
 70
   64
  3
----------- --- --- ------------
 72
   65
 73
    6
 40
17
 49
12
 49
-1.5
 49
0.25
 49
-1.5
 49
0.25
 49
-1.5
  0
LTYPE
  2
long_dashed_triplicate-dotted
 70
   64
  3
--------- --- --- --- ----------
 72
   65
 73
    8
 40
18.75
 49
12
 49
-1.5
 49
0.25
 49
-1.5
 49
0.25
 49
-1.5
 49
0.25
 49
-1.5
  0
LTYPE
  2
dotted
 70
   64
  3
   -       -       -       -    
 72
   65
 73
    2
 40
1.75
 49
0.25
 49
-1.5
  0
LTYPE
  2
chain
 70
   64
  3
-------------- -- --------------
 72
   65
 73
    4
 40
18.5
 49
12
 49
-1.5
 49
3.5
 49
-1.5
  0
LTYPE
  2
chain_double_dash
 70
   64
  3
------------ -- -- -------------
 72
   65
 73
    6
 40
23.5
 49
12
 49
-1.5
 49
3.5
 49
-1.5
 49
3.5
 49
-1.5
  0
LTYPE
  2
dashed_dotted
 70
   64
  3
-----------     -     ----------
 72
   65
 73
    4
 40
9.25
 49
6
 49
-1.5
 49
0.25
 49
-1.5
  0
LTYPE
  2
double-dashed_dotted
 70
   64
  3
------   -----------   -   -----
 72
   65
 73
    6
 40
16.75
 49
6
 49
-1.5
 49
6
 49
-1.5
 49
0.25
 49
-1.5
  0
LTYPE
  2
dashed_double-dotted
 70
   64
  3
---------    -    -    ---------
 72
   65
 73
    6
 40
11
 49
6
 49
-1.5
 49
0.25
 49
-1.5
 49
0.25
 49
-1.5
  0
LTYPE
  2
double-dashed_double-dotted
 70
   64
  3
-----   ---------   -   -   ----
 72
   65
 73
    8
 40
18.5
 49
6
 49
-1.5
 49
6
 49
-1.5
 49
0.25
 49
-1.5
 49
0.25
 49
-1.5
  0
LTYPE
  2
dashed_triplicate-dotted
 70
   64
  3
-------    -    -    -    ------
 72
   65
 73
    8
 40
12.75
 49
6
 49
-1.5
 49
0.25
 49
-1.5
 49
0.25
 49
-1.5
 49
0.25
 49
-1.5
  0
LTYPE
  2
double-dashed_triplicate-dotted
 70
   64
  3
-----  ---------  -  -  -  -----
 72
   65
 73
   10
 40
20.25
 49
6
 49
-1.5
 49
6
 49
-1.5
 49
0.25
 49
-1.5
 49
0.25
 49
-1.5
 49
0.25
 49
-1.5
  0
LTYPE
  2
undefined
 70
   64
  3
--------------------------------
 72
   65
 73
    0
 40
0
  0
LTYPE
  2
_
 70
   64
  3
                                
 72
   65
 73
    0
 40
0
  0
LTYPE
  2
__18
 70
   64
  3
                                
 72
   65
 73
    0
 40
0
  0
LTYPE
  2
__19
 70
   64
  3
                                
 72
   65
 73
    0
 40
0
  0
LTYPE
  2
__20
 70
   64
  3
                                
 72
   65
 73
    0
 40
0
  0
LTYPE
  2
__21
 70
   64
  3
                                
 72
   65
 73
    0
 40
0
  0
LTYPE
  2
__22
 70
   64
  3
                                
 72
   65
 73
    0
 40
0
  0
LTYPE
  2
__23
 70
   64
  3
                                
 72
   65
 73
    0
 40
0
  0
LTYPE
  2
__24
 70
   64
  3
                                
 72
   65
 73
    0
 40
0
  0
LTYPE
  2
__25
 70
   64
  3
                                
 72
   65
 73
    0
 40
0
  0
LTYPE
  2
__26
 70
   64
  3
                                
 72
   65
 73
    0
 40
0
  0
LTYPE
  2
__27
 70
   64
  3
                                
 72
   65
 73
    0
 40
0
  0
LTYPE
  2
__28
 70
   64
  3
                                
 72
   65
 73
    0
 40
0
  0
LTYPE
  2
__29
 70
   64
  3
                                
 72
   65
 73
    0
 40
0
  0
LTYPE
  2
__30
 70
   64
  3
                                
 72
   65
 73
    0
 40
0
  0
LTYPE
  2
__31
 70
   64
  3
                                
 72
   65
 73
    0
 40
0
  0
LTYPE
  2
__32
 70
   64
  3
                                
 72
   65
 73
    0
 40
0
  0
ENDTAB
  0
TABLE
  2
STYLE
  5
3
100
AcDbSymbolTable
 70
     1
  0
STYLE
  5
10
100
AcDbSymbolTableRecord
100
AcDbTextStyleTableRecord
  2
STANDARD
 70
     0
 40
0.0
 41
1.0
 50
0.0
 71
     0
 42
0.2
  3
txt
  4
bigfont.shx
  0
STYLE
  5
26
100
AcDbSymbolTableRecord
100
AcDbTextStyleTableRecord
  2
TATEGAKI
 70
    68
 40
0.0
 41
1.0
 50
0.0
 71
     0
 42
1.0
  3
txt
  4
bigfont.shx
  0
ENDTAB
  0
TABLE
  2
LAYER
 70
    9
  0
LAYER
  2
_0-0_90_FRAME
 70
   64
 62
    7
  6
CONTINUOUS
  0
LAYER
  2
_0-1_91_BLANK
 70
   64
 62
    7
  6
CONTINUOUS
  0
LAYER
  2
_0-2_08_DIM
 70
   64
 62
    7
  6
CONTINUOUS
  0
LAYER
  2
_0-3_07_TEXT
 70
   64
 62
    7
  6
CONTINUOUS
  0
LAYER
  2
_0-4_05_CENTER
 70
   64
 62
    7
  6
CONTINUOUS
  0
LAYER
  2
_0-5_0
 70
   64
 62
    7
  6
CONTINUOUS
  0
LAYER
  2
_0-6_04_HIDDEN
 70
   64
 62
    7
  6
CONTINUOUS
  0
LAYER
  2
_0-8_
 70
   64
 62
    7
  6
CONTINUOUS
  0
LAYER
  2
ADD_LINE
 70
   64
 62
    7
  6
CONTINUOUS
  0
ENDTAB
  0
ENDSEC
  0
SECTION
  2
BLOCKS
  0
BLOCK
  2
-000-p1ba01
 70
   64
 10
0
 20
0
 30
0
  0
LINE
  8
_0-2_08_DIM
  6
CONTINUOUS
 62
    3
 10
0
 20
0
 11
-1.5
 21
2.5980762113532592
  0
LINE
  8
_0-2_08_DIM
  6
CONTINUOUS
 62
    3
 10
1.5
 20
2.5980762113532592
 11
0
 21
0
  0
LINE
  8
_0-2_08_DIM
  6
CONTINUOUS
 62
    3
 10
-1.5
 20
2.5980762113532592
 11
1.5
 21
2.5980762113532592
  0
ENDBLK
  0
BLOCK
  2
-001-p1ba02
 70
   64
 10
0
 20
0
 30
0
  0
LINE
  8
_0-2_08_DIM
  6
CONTINUOUS
 62
    3
 10
3.0000000000000142
 20
0
 11
1.5000000000000142
 21
2.5980762113532592
  0
LINE
  8
_0-2_08_DIM
  6
CONTINUOUS
 62
    3
 10
4.5000000000000142
 20
2.5980762113532592
 11
3.0000000000000142
 21
0
  0
LINE
  8
_0-2_08_DIM
  6
CONTINUOUS
 62
    3
 10
1.5000000000000142
 20
2.5980762113532592
 11
4.5000000000000142
 21
2.5980762113532592
  0
LINE
  8
_0-2_08_DIM
  6
CONTINUOUS
 62
    3
 10
-1.4999999999999858
 20
2.5980762113532592
 11
1.5000000000000142
 21
2.5980762113532592
  0
LINE
  8
_0-2_08_DIM
  6
CONTINUOUS
 62
    3
 10
1.5000000000000142
 20
2.5980762113532592
 11
0.0000000000000142
 21
0
  0
LINE
  8
_0-2_08_DIM
  6
CONTINUOUS
 62
    3
 10
0.0000000000000142
 20
0
 11
-1.4999999999999858
 21
2.5980762113532592
  0
ENDBLK
  0
BLOCK
  2
-002-AM_BALLOON1
 70
   64
 10
0
 20
0
 30
0
  0
CIRCLE
  8
_0-2_08_DIM
  6
CONTINUOUS
 62
    3
 10
0
 20
0
 40
5
  0
ENDBLK
  0
BLOCK
  2
-003-_Open30
 70
   64
 10
0
 20
0
 30
0
  0
LINE
  8
_0-2_08_DIM
  6
CONTINUOUS
 62
    3
 10
-1
 20
0.26794919
 11
0
 21
0
  0
LINE
  8
_0-2_08_DIM
  6
CONTINUOUS
 62
    3
 10
0
 20
0
 11
-1
 21
-0.26794919
  0
LINE
  8
_0-2_08_DIM
  6
CONTINUOUS
 62
    3
 10
0
 20
0
 11
-1
 21
0
  0
ENDBLK
  0
BLOCK
  2
-004-AM_DATUM
 70
   64
 10
0
 20
0
 30
0
  0
LINE
  8
_0-2_08_DIM
  6
CONTINUOUS
 62
    3
 10
3
 20
-3
 11
-3
 21
-3
  0
LINE
  8
_0-2_08_DIM
  6
CONTINUOUS
 62
    3
 10
-3
 20
-3
 11
-3
 21
3
  0
LINE
  8
_0-2_08_DIM
  6
CONTINUOUS
 62
    3
 10
-3
 20
3
 11
3
 21
3
  0
LINE
  8
_0-2_08_DIM
  6
CONTINUOUS
 62
    3
 10
3
 20
3
 11
3
 21
-3
  0
ENDBLK
  0
BLOCK
  2
-005-_DatumFilled
 70
   64
 10
0
 20
0
 30
0
  0
SOLID
  8
_0-2_08_DIM
  6
CONTINUOUS
 62
    3
 10
0
 20
-0.57735027
 11
0
 21
0.57735027
 12
0
 22
-0.57735027
 13
-1
 23
0
  0
ENDBLK
  0
ENDSEC
  0
SECTION
  2
ENTITIES
  0
TEXT
  8
_0-0_90_FRAME
 62
    7
 10
2105.8672870274449
 20
475.95845493692838
 40
15
 41
1
 50
0
  1
AT-221121-08-10
  0
TEXT
  8
_0-0_90_FRAME
 62
    7
 10
2003.1506258457389
 20
441.43218784999993
 40
15
 41
1
 50
0
  1
2025.04.26
  0
LINE
  8
_0-0_90_FRAME
  6
CONTINUOUS
 62
    5
 10
634.35859563512247
 20
433.28460213416889
 11
2288.0757464873213
 21
433.28460213416889
  0
LINE
  8
_0-0_90_FRAME
  6
CONTINUOUS
 62
    5
 10
2288.0757464873213
 20
433.28460213416889
 11
2288.0757464873213
 21
1615.5493960452211
  0
LINE
  8
_0-0_90_FRAME
  6
CONTINUOUS
 62
    5
 10
2288.0757464873213
 20
1615.5493960452211
 11
634.35859563512247
 21
1615.5493960452211
  0
LINE
  8
_0-0_90_FRAME
  6
CONTINUOUS
 62
    5
 10
634.35859563512247
 20
1615.5493960452211
 11
634.35859563512247
 21
433.28460213416889
  0
LINE
  8
_0-0_90_FRAME
  6
CONTINUOUS
 62
    5
 10
551.61682254974733
 20
1024.4169990896951
 11
634.35859563512247
 21
1024.4169990896951
  0
LINE
  8
_0-0_90_FRAME
  6
CONTINUOUS
 62
    5
 10
2315.6846543443521
 20
1024.4169990896951
 11
2288.0757464873213
 21
1024.4169990896951
  0
LINE
  8
_0-0_90_FRAME
  6
CONTINUOUS
 62
    5
 10
1461.2171710612217
 20
1647.4183039079485
 11
1461.217171061222
 21
1615.5493960452211
  0
LINE
  8
_0-0_90_FRAME
  6
CONTINUOUS
 62
    5
 10
1461.217171061222
 20
405.79912990225
 11
1461.217171061222
 21
433.28460213416889
  0
LINE
  8
_0-0_90_FRAME
  6
CONTINUOUS
 62
    5
 10
1248.8409567763638
 20
420.5420292770749
 11
1673.5933853460804
 21
420.5420292770749
  0
LINE
  8
_0-0_90_FRAME
  6
CONTINUOUS
 62
    5
 10
1248.8409567763638
 20
420.5420292770749
 11
1248.8409567763638
 21
433.28460213416889
  0
LINE
  8
_0-0_90_FRAME
  6
CONTINUOUS
 62
    5
 10
1291.3161996333363
 20
420.5420292770749
 11
1291.3161996333363
 21
433.28460213416889
  0
LINE
  8
_0-0_90_FRAME
  6
CONTINUOUS
 62
    5
 10
1333.791442490309
 20
420.5420292770749
 11
1333.791442490309
 21
433.28460213416889
  0
LINE
  8
_0-0_90_FRAME
  6
CONTINUOUS
 62
    5
 10
1376.2666853472765
 20
420.5420292770749
 11
1376.2666853472765
 21
433.28460213416889
  0
LINE
  8
_0-0_90_FRAME
  6
CONTINUOUS
 62
    5
 10
1418.741928204249
 20
420.5420292770749
 11
1418.741928204249
 21
433.28460213416889
  0
LINE
  8
_0-0_90_FRAME
  6
CONTINUOUS
 62
    5
 10
1503.6924139181892
 20
420.5420292770749
 11
1503.6924139181892
 21
433.28460213416889
  0
LINE
  8
_0-0_90_FRAME
  6
CONTINUOUS
 62
    5
 10
1546.1676567751617
 20
420.5420292770749
 11
1546.1676567751617
 21
433.28460213416889
  0
LINE
  8
_0-0_90_FRAME
  6
CONTINUOUS
 62
    5
 10
1588.6428996321347
 20
420.5420292770749
 11
1588.6428996321347
 21
433.28460213416889
  0
LINE
  8
_0-0_90_FRAME
  6
CONTINUOUS
 62
    5
 10
1631.1181424891074
 20
420.5420292770749
 11
1631.1181424891074
 21
433.28460213416889
  0
LINE
  8
_0-0_90_FRAME
  6
CONTINUOUS
 62
    5
 10
1673.5933853460804
 20
420.5420292770749
 11
1673.5933853460804
 21
433.28460213416889
  0
LINE
  8
_0-0_90_FRAME
  6
CONTINUOUS
 62
    4
 10
1033.5127131129477
 20
1615.5493960452211
 11
1033.5127131129477
 21
1643.1583039022466
  0
TEXT
  8
_0-0_90_FRAME
 62
    7
 10
712.87921004581528
 20
1621.0484099879418
 40
8.5199999999999996
 41
1
 50
0
  1
1
  0
TEXT
  8
_0-0_90_FRAME
 62
    7
 10
816.82048413881341
 20
1621.0484099879418
 40
8.5199999999999996
 41
1
 50
0
  1
2
  0
TEXT
  8
_0-0_90_FRAME
 62
    7
 10
959.38863678823816
 20
1621.0484099879418
 40
8.5199999999999996
 41
1
 50
0
  1
3
  0
TEXT
  8
_0-0_90_FRAME
 62
    7
 10
1101.9567894376573
 20
1621.0484099879418
 40
8.5199999999999996
 41
1
 50
0
  1
4
  0
TEXT
  8
_0-0_90_FRAME
 62
    7
 10
1244.5249420870875
 20
1621.0484099879418
 40
8.5199999999999996
 41
1
 50
0
  1
5
  0
TEXT
  8
_0-0_90_FRAME
 62
    7
 10
1387.0930947365068
 20
1621.0484099879418
 40
8.5199999999999996
 41
1
 50
0
  1
6
  0
TEXT
  8
_0-0_90_FRAME
 62
    7
 10
1529.6612473859316
 20
1621.0484099879418
 40
8.5199999999999996
 41
1
 50
0
  1
7
  0
TEXT
  8
_0-0_90_FRAME
 62
    7
 10
1672.2294000353563
 20
1621.0484099879418
 40
8.5199999999999996
 41
1
 50
0
  1
8
  0
TEXT
  8
_0-0_90_FRAME
 62
    7
 10
1814.7975526847808
 20
1621.0484099879418
 40
8.5199999999999996
 41
1
 50
0
  1
9
  0
TEXT
  8
_0-0_90_FRAME
 62
    7
 10
1955.2357053342057
 20
1621.0484099879418
 40
8.5199999999999996
 41
1
 50
0
  1
10
  0
TEXT
  8
_0-0_90_FRAME
 62
    7
 10
2098.5138579836253
 20
1621.0484099879418
 40
8.5199999999999996
 41
1
 50
0
  1
11
  0
TEXT
  8
_0-0_90_FRAME
 62
    7
 10
2239.6620106330497
 20
1621.0484099879418
 40
8.5199999999999996
 41
1
 50
0
  1
12
  0
TEXT
  8
_0-0_90_FRAME
 62
    7
 10
2293.56425127594
 20
1398.2171895975416
 40
8.5199999999999996
 41
1
 50
0
  1
B
  0
LINE
  8
_0-0_90_FRAME
  6
CONTINUOUS
 62
    4
 10
2315.6846543443521
 20
721.96884668341818
 11
2288.0757464873213
 21
721.96884668341818
  0
LINE
  8
_0-0_90_FRAME
  6
CONTINUOUS
 62
    4
 10
2315.6846543443521
 20
873.19292288655663
 11
2288.0757464873213
 21
873.19292288655663
  0
LINE
  8
_0-0_90_FRAME
  6
CONTINUOUS
 62
    4
 10
2315.6846543443521
 20
570.74477048027961
 11
2288.0757464873213
 21
570.74477048027961
  0
LINE
  8
_0-0_90_FRAME
  6
CONTINUOUS
 62
    4
 10
2315.6846543443521
 20
1326.8651514959722
 11
2288.0757464873213
 21
1326.8651514959722
  0
LINE
  8
_0-0_90_FRAME
  6
CONTINUOUS
 62
    4
 10
2315.6846543443521
 20
1175.6410752928336
 11
2288.0757464873213
 21
1175.6410752928336
  0
LINE
  8
_0-0_90_FRAME
  6
CONTINUOUS
 62
    4
 10
2315.6846543443521
 20
1478.0892276991108
 11
2288.0757464873213
 21
1478.0892276991108
  0
TEXT
  8
_0-0_90_FRAME
 62
    7
 10
2293.56425127594
 20
1549.44126580068
 40
8.5199999999999996
 41
1
 50
0
  1
A
  0
TEXT
  8
_0-0_90_FRAME
 62
    7
 10
2293.56425127594
 20
1246.9931133944031
 40
8.5199999999999996
 41
1
 50
0
  1
C
  0
TEXT
  8
_0-0_90_FRAME
 62
    7
 10
2293.56425127594
 20
1095.7690371912647
 40
8.5199999999999996
 41
1
 50
0
  1
D
  0
TEXT
  8
_0-0_90_FRAME
 62
    7
 10
2293.56425127594
 20
793.32088478498736
 40
8.5199999999999996
 41
1
 50
0
  1
F
  0
TEXT
  8
_0-0_90_FRAME
 62
    7
 10
2293.56425127594
 20
642.0968085818489
 40
8.5199999999999996
 41
1
 50
0
  1
G
  0
TEXT
  8
_0-0_90_FRAME
 62
    7
 10
2293.56425127594
 20
490.87273237871028
 40
8.5199999999999996
 41
1
 50
0
  1
H
  0
TEXT
  8
_0-0_90_FRAME
 62
    7
 10
2293.56425127594
 20
944.54496098812592
 40
8.5199999999999996
 41
1
 50
0
  1
E
  0
TEXT
  8
_0-0_90_FRAME
 62
    7
 10
621.81595915597893
 20
1398.2171895975416
 40
8.5199999999999996
 41
1
 50
0
  1
B
  0
LINE
  8
_0-0_90_FRAME
  6
CONTINUOUS
 62
    4
 10
634.35859563512247
 20
721.96884668341818
 11
606.74968777809715
 21
721.96884668341818
  0
LINE
  8
_0-0_90_FRAME
  6
CONTINUOUS
 62
    4
 10
634.35859563512247
 20
873.19292288655663
 11
606.74968777809715
 21
873.19292288655663
  0
LINE
  8
_0-0_90_FRAME
  6
CONTINUOUS
 62
    4
 10
634.35859563512247
 20
570.74477048027961
 11
606.74968777809715
 21
570.74477048027961
  0
LINE
  8
_0-0_90_FRAME
  6
CONTINUOUS
 62
    4
 10
634.35859563512247
 20
1326.8651514959722
 11
606.74968777809715
 21
1326.8651514959722
  0
LINE
  8
_0-0_90_FRAME
  6
CONTINUOUS
 62
    4
 10
634.35859563512247
 20
1175.6410752928336
 11
606.74968777809715
 21
1175.6410752928336
  0
LINE
  8
_0-0_90_FRAME
  6
CONTINUOUS
 62
    4
 10
634.35859563512247
 20
1478.0892276991108
 11
606.74968777809715
 21
1478.0892276991108
  0
TEXT
  8
_0-0_90_FRAME
 62
    7
 10
621.81595915597893
 20
1549.44126580068
 40
8.5199999999999996
 41
1
 50
0
  1
A
  0
TEXT
  8
_0-0_90_FRAME
 62
    7
 10
621.81595915597893
 20
1246.9931133944031
 40
8.5199999999999996
 41
1
 50
0
  1
C
  0
TEXT
  8
_0-0_90_FRAME
 62
    7
 10
621.81595915597893
 20
1095.7690371912647
 40
8.5199999999999996
 41
1
 50
0
  1
D
  0
TEXT
  8
_0-0_90_FRAME
 62
    7
 10
621.81595915597893
 20
793.32088478498736
 40
8.5199999999999996
 41
1
 50
0
  1
F
  0
TEXT
  8
_0-0_90_FRAME
 62
    7
 10
621.81595915597893
 20
642.0968085818489
 40
8.5199999999999996
 41
1
 50
0
  1
G
  0
TEXT
  8
_0-0_90_FRAME
 62
    7
 10
621.81595915597893
 20
944.54496098812592
 40
8.5199999999999996
 41
1
 50
0
  1
E
  0
TEXT
  8
_0-0_90_FRAME
 62
    7
 10
621.81595915597893
 20
490.87273237871028
 40
8.5199999999999996
 41
1
 50
0
  1
H
  0
LINE
  8
_0-0_90_FRAME
  6
CONTINUOUS
 62
    4
 10
890.94456046352309
 20
1615.5493960452211
 11
890.94456046352309
 21
1643.1583039022466
  0
LINE
  8
_0-0_90_FRAME
  6
CONTINUOUS
 62
    4
 10
748.37640781409834
 20
1615.5493960452211
 11
748.37640781409834
 21
1643.1583039022466
  0
LINE
  8
_0-0_90_FRAME
  6
CONTINUOUS
 62
    4
 10
1176.0808657623725
 20
1615.5493960452211
 11
1176.0808657623725
 21
1643.1583039022466
  0
LINE
  8
_0-0_90_FRAME
  6
CONTINUOUS
 62
    4
 10
1318.6490184117972
 20
1615.5493960452211
 11
1318.6490184117972
 21
1643.1583039022466
  0
LINE
  8
_0-0_90_FRAME
  6
CONTINUOUS
 62
    4
 10
1888.9216290094905
 20
1615.5493960452211
 11
1888.9216290094905
 21
1643.1583039022466
  0
LINE
  8
_0-0_90_FRAME
  6
CONTINUOUS
 62
    4
 10
2031.4897816589155
 20
1615.5493960452211
 11
2031.4897816589155
 21
1643.1583039022466
  0
LINE
  8
_0-0_90_FRAME
  6
CONTINUOUS
 62
    4
 10
2174.0579343083405
 20
1615.5493960452211
 11
2174.0579343083405
 21
1643.1583039022466
  0
LINE
  8
_0-0_90_FRAME
  6
CONTINUOUS
 62
    4
 10
1746.3534763600658
 20
1615.5493960452211
 11
1746.3534763600658
 21
1643.1583039022466
  0
LINE
  8
_0-0_90_FRAME
  6
CONTINUOUS
 62
    4
 10
1603.7853237106465
 20
1615.5493960452211
 11
1603.7853237106465
 21
1643.1583039022466
  0
LINE
  8
_0-0_90_FRAME
  6
CONTINUOUS
 62
    4
 10
1033.5127131129477
 20
405.79912990225
 11
1033.5127131129477
 21
433.28460213416889
  0
LINE
  8
_0-0_90_FRAME
  6
CONTINUOUS
 62
    4
 10
890.94456046352309
 20
405.79912990225
 11
890.94456046352309
 21
433.28460213416889
  0
LINE
  8
_0-0_90_FRAME
  6
CONTINUOUS
 62
    4
 10
748.37640781409834
 20
405.79912990225
 11
748.37640781409834
 21
433.28460213416889
  0
LINE
  8
_0-0_90_FRAME
  6
CONTINUOUS
 62
    4
 10
1176.0808657623725
 20
405.79912990225
 11
1176.0808657623725
 21
433.28460213416889
  0
LINE
  8
_0-0_90_FRAME
  6
CONTINUOUS
 62
    4
 10
1888.9216290094905
 20
405.79912990225
 11
1888.9216290094905
 21
433.28460213416889
  0
LINE
  8
_0-0_90_FRAME
  6
CONTINUOUS
 62
    4
 10
2031.4897816589155
 20
405.79912990225
 11
2031.4897816589155
 21
433.28460213416889
  0
LINE
  8
_0-0_90_FRAME
  6
CONTINUOUS
 62
    4
 10
2174.0579343083405
 20
405.79912990225
 11
2174.0579343083405
 21
433.28460213416889
  0
LINE
  8
_0-0_90_FRAME
  6
CONTINUOUS
 62
    4
 10
1746.3534763600658
 20
405.79912990225
 11
1746.3534763600658
 21
433.28460213416889
  0
LINE
  8
_0-1_91_BLANK
  6
CONTINUOUS
 62
    5
 10
551.61682254283107
 20
405.79912990225
 11
2315.6846543414213
 21
405.79912990225
  0
LINE
  8
_0-1_91_BLANK
  6
CONTINUOUS
 62
    5
 10
2315.6846543414213
 20
405.79912990225
 11
2315.6846543414213
 21
1647.4183039079485
  0
LINE
  8
_0-1_91_BLANK
  6
CONTINUOUS
 62
    5
 10
2315.6846543414213
 20
1647.4183039079485
 11
551.61682254283107
 21
1647.4183039079485
  0
LINE
  8
_0-1_91_BLANK
  6
CONTINUOUS
 62
    5
 10
551.61682254283107
 20
1647.4183039079485
 11
551.61682254283107
 21
405.79912990225
  0
LINE
  8
_0-0_90_FRAME
  6
CONTINUOUS
 62
   18
 10
1694.0757464897197
 20
433.28460213416889
 11
2288.0757464873213
 21
433.28460213416889
  0
LINE
  8
_0-0_90_FRAME
  6
CONTINUOUS
 62
   18
 10
2288.0757464873213
 20
433.28460213416889
 11
2288.0757464873213
 21
543.59888784800899
  0
LINE
  8
_0-0_90_FRAME
  6
CONTINUOUS
 62
   18
 10
2288.0757464873213
 20
543.59888784800899
 11
1694.0757464897197
 21
543.59888784800899
  0
LINE
  8
_0-0_90_FRAME
  6
CONTINUOUS
 62
   18
 10
1694.0757464897197
 20
543.59888784800899
 11
1694.0757464897197
 21
433.28460213416889
  0
LINE
  8
_0-0_90_FRAME
  6
CONTINUOUS
 62
   18
 10
1740.8532464895334
 20
524.50603070522777
 11
1770.5532464894125
 21
531.93103070519885
  0
LINE
  8
_0-0_90_FRAME
  6
CONTINUOUS
 62
   18
 10
1770.5532464894125
 20
531.93103070519885
 11
1770.5532464894125
 21
502.23103070531994
  0
LINE
  8
_0-0_90_FRAME
  6
CONTINUOUS
 62
   18
 10
1770.5532464894125
 20
502.23103070531994
 11
1740.8532464895334
 21
509.65603070528834
  0
LINE
  8
_0-0_90_FRAME
  6
CONTINUOUS
 62
   18
 10
1740.8532464895334
 20
509.65603070528834
 11
1740.8532464895334
 21
524.50603070522777
  0
CIRCLE
  8
_0-0_90_FRAME
  6
CONTINUOUS
 62
   18
 10
1721.5482464896086
 20
517.08103070525669
 40
7.4249999999699998
  0
CIRCLE
  8
_0-0_90_FRAME
  6
CONTINUOUS
 62
   18
 10
1721.5482464896086
 20
517.08103070525669
 40
14.84999999994
  0
LINE
  8
_0-0_90_FRAME
  6
CONTINUOUS
 62
   18
 10
1703.7282464896807
 20
517.08103070525669
 11
1773.5232464893982
 21
517.08103070525669
  0
LINE
  8
_0-0_90_FRAME
  6
CONTINUOUS
 62
   18
 10
1721.5482464896086
 20
499.26103070533156
 11
1721.5482464896086
 21
534.90103070518728
  0
LINE
  8
_0-0_90_FRAME
  6
CONTINUOUS
 62
   18
 10
1937.3971750601206
 20
433.28460213416889
 11
1937.3971750601206
 21
543.59888784800899
  0
LINE
  8
_0-0_90_FRAME
  6
CONTINUOUS
 62
   18
 10
1937.3971750601206
 20
467.22745927688823
 11
2288.0757464873213
 21
467.22745927688823
  0
TEXT
  8
_0-0_90_FRAME
 62
    7
 10
1938.9183003324126
 20
456.67357853657234
 40
7.5
 41
1
 50
0
  1
作 成 日
  0
LINE
  8
_0-0_90_FRAME
  6
CONTINUOUS
 62
   18
 10
2144.8043179164388
 20
467.22745927688823
 11
2144.8043179164388
 21
433.28460213416889
  0
TEXT
  8
_0-0_90_FRAME
 62
    7
 10
2146.5854831570896
 20
456.46615573212836
 40
7.5
 41
1
 50
0
  1
個数
  0
TEXT
  8
_0-0_90_FRAME
 62
    7
 10
1867.25701678733
 20
533.76558358945533
 40
7.5
 41
1
 50
0
  1
サイズ
  0
TEXT
  8
_0-0_90_FRAME
 62
    7
 10
1784.5213025019521
 20
533.20622209223416
 40
7.5
 41
1
 50
0
  1
尺　度
  0
TEXT
  8
_0-0_90_FRAME
 62
    7
 10
1867.2570624965872
 20
480.72986930395621
 40
7.5
 41
1
 50
0
  1
製　図
  0
LINE
  8
_0-0_90_FRAME
  6
CONTINUOUS
 62
   18
 10
1937.3971750601206
 20
490.56317356250713
 11
1694.0757464897197
 21
490.56317356250713
  0
LINE
  8
_0-0_90_FRAME
  6
CONTINUOUS
 62
   18
 10
2050.6828767830748
 20
501.17031641960745
 11
2288.0757464873213
 21
501.17031641960745
  0
TEXT
  8
_0-0_90_FRAME
 62
    7
 10
1891.9081250240276
 20
503.29288712297779
 40
15
 41
1
 50
0
  1
A2
  0
LINE
  8
_0-0_90_FRAME
  6
CONTINUOUS
 62
   18
 10
1865.9114607747399
 20
433.28460213416889
 11
1865.9114607747399
 21
543.59888784800899
  0
TEXT
  8
_0-0_90_FRAME
 62
    2
 10
1746.5615361159014
 20
444.9580686001417
 40
15
 41
1
 50
0
  1
アクアトリム
  0
LINE
  8
_0-0_90_FRAME
  6
CONTINUOUS
 62
    4
 10
1741.9469614789041
 20
483.29801589426336
 11
1741.9469614789041
 21
438.91848023244086
  0
LINE
  8
_0-0_90_FRAME
  6
CONTINUOUS
 62
    4
 10
1741.9469614789041
 20
438.91848023244086
 11
1701.6019290590657
 21
438.91848023244086
  0
LINE
  8
_0-0_90_FRAME
  6
CONTINUOUS
 62
    4
 10
1701.6019290590657
 20
438.91848023244086
 11
1701.6019290590657
 21
483.29801589426336
  0
LINE
  8
_0-0_90_FRAME
  6
CONTINUOUS
 62
    4
 10
1701.7940482610652
 20
483.10589669226249
 11
1701.7940482610652
 21
483.10589669226249
  0
LINE
  8
_0-0_90_FRAME
  6
CONTINUOUS
 62
    4
 10
1701.7940482610652
 20
483.10589669226249
 11
1701.8932848215727
 21
482.10506221260277
  0
LINE
  8
_0-0_90_FRAME
  6
CONTINUOUS
 62
    4
 10
1701.8932848215727
 20
482.10506221260277
 11
1702.1879792504205
 21
481.13463758216085
  0
LINE
  8
_0-0_90_FRAME
  6
CONTINUOUS
 62
    4
 10
1702.1879792504205
 20
481.13463758216085
 11
1702.6691774065107
 21
480.22410866227415
  0
LINE
  8
_0-0_90_FRAME
  6
CONTINUOUS
 62
    4
 10
1702.6691774065107
 20
480.22410866227415
 11
1703.3222583273682
 21
479.40114141342349
  0
LINE
  8
_0-0_90_FRAME
  6
CONTINUOUS
 62
    4
 10
1703.3222583273682
 20
479.40114141342349
 11
1704.1273784796879
 21
478.69074127902377
  0
LINE
  8
_0-0_90_FRAME
  6
CONTINUOUS
 62
    4
 10
1704.1273784796879
 20
478.69074127902377
 11
1705.060074695052
 21
478.11449340767882
  0
LINE
  8
_0-0_90_FRAME
  6
CONTINUOUS
 62
    4
 10
1705.060074695052
 20
478.11449340767882
 11
1706.0920074709236
 21
477.68990679936405
  0
LINE
  8
_0-0_90_FRAME
  6
CONTINUOUS
 62
    4
 10
1706.0920074709236
 20
477.68990679936405
 11
1707.1918220520911
 21
477.42988230332185
  0
LINE
  8
_0-0_90_FRAME
  6
CONTINUOUS
 62
    4
 10
1707.1918220520911
 20
477.42988230332185
 11
1708.3261011290388
 21
477.34232063228575
  0
LINE
  8
_0-0_90_FRAME
  6
CONTINUOUS
 62
    4
 10
1708.3261011290388
 20
477.34232063228575
 11
1709.4603802059864
 21
477.42988230332185
  0
LINE
  8
_0-0_90_FRAME
  6
CONTINUOUS
 62
    4
 10
1709.4603802059864
 20
477.42988230332185
 11
1710.5601947871539
 21
477.68990679936405
  0
LINE
  8
_0-0_90_FRAME
  6
CONTINUOUS
 62
    4
 10
1710.5601947871539
 20
477.68990679936405
 11
1711.5921275630255
 21
478.11449340767882
  0
LINE
  8
_0-0_90_FRAME
  6
CONTINUOUS
 62
    4
 10
1711.5921275630255
 20
478.11449340767882
 11
1712.5248237783896
 21
478.69074127902377
  0
LINE
  8
_0-0_90_FRAME
  6
CONTINUOUS
 62
    4
 10
1712.5248237783896
 20
478.69074127902377
 11
1713.3299439307093
 21
479.40114141342349
  0
LINE
  8
_0-0_90_FRAME
  6
CONTINUOUS
 62
    4
 10
1713.3299439307093
 20
479.40114141342349
 11
1713.9830248515668
 21
480.22410866227415
  0
LINE
  8
_0-0_90_FRAME
  6
CONTINUOUS
 62
    4
 10
1713.9830248515668
 20
480.22410866227415
 11
1714.464223007657
 21
481.13463758216085
  0
LINE
  8
_0-0_90_FRAME
  6
CONTINUOUS
 62
    4
 10
1714.464223007657
 20
481.13463758216085
 11
1714.7589174365048
 21
482.10506221260277
  0
LINE
  8
_0-0_90_FRAME
  6
CONTINUOUS
 62
    4
 10
1714.7589174365048
 20
482.10506221260277
 11
1714.8581539970123
 21
483.10589669226249
  0
LINE
  8
_0-0_90_FRAME
  6
CONTINUOUS
 62
    4
 10
1714.8581539970123
 20
483.10589669226249
 11
1714.8581539970123
 21
483.10589669226249
  0
ARC
  8
_0-0_90_FRAME
  6
CONTINUOUS
 62
    4
 10
1715.0502731990118
 20
483.10589669226249
 40
0.1921192019992238
 50
0
 51
180
  0
LINE
  8
_0-0_90_FRAME
  6
CONTINUOUS
 62
    4
 10
1715.2423924010113
 20
483.10589669226249
 11
1715.2423924010113
 21
483.10589669226249
  0
LINE
  8
_0-0_90_FRAME
  6
CONTINUOUS
 62
    4
 10
1715.2423924010113
 20
483.10589669226249
 11
1715.3416289615188
 21
482.10506221260277
  0
LINE
  8
_0-0_90_FRAME
  6
CONTINUOUS
 62
    4
 10
1715.3416289615188
 20
482.10506221260277
 11
1715.6363233903667
 21
481.13463758216085
  0
LINE
  8
_0-0_90_FRAME
  6
CONTINUOUS
 62
    4
 10
1715.6363233903667
 20
481.13463758216085
 11
1716.1175215464568
 21
480.22410866227415
  0
LINE
  8
_0-0_90_FRAME
  6
CONTINUOUS
 62
    4
 10
1716.1175215464568
 20
480.22410866227415
 11
1716.7706024673143
 21
479.40114141342349
  0
LINE
  8
_0-0_90_FRAME
  6
CONTINUOUS
 62
    4
 10
1716.7706024673143
 20
479.40114141342349
 11
1717.575722619634
 21
478.69074127902377
  0
LINE
  8
_0-0_90_FRAME
  6
CONTINUOUS
 62
    4
 10
1717.575722619634
 20
478.69074127902377
 11
1718.5084188349981
 21
478.11449340767882
  0
LINE
  8
_0-0_90_FRAME
  6
CONTINUOUS
 62
    4
 10
1718.5084188349981
 20
478.11449340767882
 11
1719.5403516108697
 21
477.68990679936405
  0
LINE
  8
_0-0_90_FRAME
  6
CONTINUOUS
 62
    4
 10
1719.5403516108697
 20
477.68990679936405
 11
1720.6401661920372
 21
477.42988230332185
  0
LINE
  8
_0-0_90_FRAME
  6
CONTINUOUS
 62
    4
 10
1720.6401661920372
 20
477.42988230332185
 11
1721.7744452689849
 21
477.34232063228575
  0
LINE
  8
_0-0_90_FRAME
  6
CONTINUOUS
 62
    4
 10
1721.7744452689849
 20
477.34232063228575
 11
1722.9087243459326
 21
477.42988230332185
  0
LINE
  8
_0-0_90_FRAME
  6
CONTINUOUS
 62
    4
 10
1722.9087243459326
 20
477.42988230332185
 11
1724.0085389271001
 21
477.68990679936405
  0
LINE
  8
_0-0_90_FRAME
  6
CONTINUOUS
 62
    4
 10
1724.0085389271001
 20
477.68990679936405
 11
1725.0404717029717
 21
478.11449340767882
  0
LINE
  8
_0-0_90_FRAME
  6
CONTINUOUS
 62
    4
 10
1725.0404717029717
 20
478.11449340767882
 11
1725.9731679183358
 21
478.69074127902377
  0
LINE
  8
_0-0_90_FRAME
  6
CONTINUOUS
 62
    4
 10
1725.9731679183358
 20
478.69074127902377
 11
1726.7782880706554
 21
479.40114141342349
  0
LINE
  8
_0-0_90_FRAME
  6
CONTINUOUS
 62
    4
 10
1726.7782880706554
 20
479.40114141342349
 11
1727.431368991513
 21
480.22410866227415
  0
LINE
  8
_0-0_90_FRAME
  6
CONTINUOUS
 62
    4
 10
1727.431368991513
 20
480.22410866227415
 11
1727.9125671476031
 21
481.13463758216085
  0
LINE
  8
_0-0_90_FRAME
  6
CONTINUOUS
 62
    4
 10
1727.9125671476031
 20
481.13463758216085
 11
1728.2072615764509
 21
482.10506221260277
  0
LINE
  8
_0-0_90_FRAME
  6
CONTINUOUS
 62
    4
 10
1728.2072615764509
 20
482.10506221260277
 11
1728.3064981369585
 21
483.10589669226249
  0
LINE
  8
_0-0_90_FRAME
  6
CONTINUOUS
 62
    4
 10
1728.3064981369585
 20
483.10589669226249
 11
1728.3064981369585
 21
483.10589669226249
  0
ARC
  8
_0-0_90_FRAME
  6
CONTINUOUS
 62
    4
 10
1728.498617338958
 20
483.10589669226249
 40
0.1921192019992238
 50
0
 51
180
  0
LINE
  8
_0-0_90_FRAME
  6
CONTINUOUS
 62
    4
 10
1728.6907365409575
 20
483.10589669226249
 11
1728.6907365409575
 21
483.10589669226249
  0
LINE
  8
_0-0_90_FRAME
  6
CONTINUOUS
 62
    4
 10
1728.6907365409575
 20
483.10589669226249
 11
1728.789973101465
 21
482.10506221260277
  0
LINE
  8
_0-0_90_FRAME
  6
CONTINUOUS
 62
    4
 10
1728.789973101465
 20
482.10506221260277
 11
1729.0846675303128
 21
481.13463758216085
  0
LINE
  8
_0-0_90_FRAME
  6
CONTINUOUS
 62
    4
 10
1729.0846675303128
 20
481.13463758216085
 11
1729.565865686403
 21
480.22410866227415
  0
LINE
  8
_0-0_90_FRAME
  6
CONTINUOUS
 62
    4
 10
1729.565865686403
 20
480.22410866227415
 11
1730.2189466072605
 21
479.40114141342349
  0
LINE
  8
_0-0_90_FRAME
  6
CONTINUOUS
 62
    4
 10
1730.2189466072605
 20
479.40114141342349
 11
1731.0240667595801
 21
478.69074127902377
  0
LINE
  8
_0-0_90_FRAME
  6
CONTINUOUS
 62
    4
 10
1731.0240667595801
 20
478.69074127902377
 11
1731.9567629749442
 21
478.11449340767882
  0
LINE
  8
_0-0_90_FRAME
  6
CONTINUOUS
 62
    4
 10
1731.9567629749442
 20
478.11449340767882
 11
1732.9886957508159
 21
477.68990679936405
  0
LINE
  8
_0-0_90_FRAME
  6
CONTINUOUS
 62
    4
 10
1732.9886957508159
 20
477.68990679936405
 11
1734.0885103319833
 21
477.42988230332185
  0
LINE
  8
_0-0_90_FRAME
  6
CONTINUOUS
 62
    4
 10
1734.0885103319833
 20
477.42988230332185
 11
1735.222789408931
 21
477.34232063228575
  0
LINE
  8
_0-0_90_FRAME
  6
CONTINUOUS
 62
    4
 10
1735.222789408931
 20
477.34232063228575
 11
1736.3570684858787
 21
477.42988230332185
  0
LINE
  8
_0-0_90_FRAME
  6
CONTINUOUS
 62
    4
 10
1736.3570684858787
 20
477.42988230332185
 11
1737.4568830670462
 21
477.68990679936405
  0
LINE
  8
_0-0_90_FRAME
  6
CONTINUOUS
 62
    4
 10
1737.4568830670462
 20
477.68990679936405
 11
1738.4888158429178
 21
478.11449340767882
  0
LINE
  8
_0-0_90_FRAME
  6
CONTINUOUS
 62
    4
 10
1738.4888158429178
 20
478.11449340767882
 11
1739.4215120582819
 21
478.69074127902377
  0
LINE
  8
_0-0_90_FRAME
  6
CONTINUOUS
 62
    4
 10
1739.4215120582819
 20
478.69074127902377
 11
1740.2266322106016
 21
479.40114141342349
  0
LINE
  8
_0-0_90_FRAME
  6
CONTINUOUS
 62
    4
 10
1740.2266322106016
 20
479.40114141342349
 11
1740.8797131314591
 21
480.22410866227415
  0
LINE
  8
_0-0_90_FRAME
  6
CONTINUOUS
 62
    4
 10
1740.8797131314591
 20
480.22410866227415
 11
1741.3609112875492
 21
481.13463758216085
  0
LINE
  8
_0-0_90_FRAME
  6
CONTINUOUS
 62
    4
 10
1741.3609112875492
 20
481.13463758216085
 11
1741.6556057163971
 21
482.10506221260277
  0
LINE
  8
_0-0_90_FRAME
  6
CONTINUOUS
 62
    4
 10
1741.6556057163971
 20
482.10506221260277
 11
1741.7548422769046
 21
483.10589669226249
  0
LINE
  8
_0-0_90_FRAME
  6
CONTINUOUS
 62
    4
 10
1741.7548422769046
 20
483.10589669226249
 11
1741.7548422769046
 21
483.10589669226249
  0
ARC
  8
_0-0_90_FRAME
  6
CONTINUOUS
 62
    4
 10
1741.9469614789041
 20
483.10589669226249
 40
0.1921192019992238
 50
90
 51
180
  0
ARC
  8
_0-0_90_FRAME
  6
CONTINUOUS
 62
    4
 10
1715.0502731990118
 20
483.10589669226249
 40
0.1921192019992238
 50
0
 51
90
  0
ARC
  8
_0-0_90_FRAME
  6
CONTINUOUS
 62
    4
 10
1701.6019290590657
 20
483.10589669226249
 40
0.1921192019992238
 50
0
 51
90
  0
LINE
  8
_0-0_90_FRAME
  6
CONTINUOUS
 62
    4
 10
1706.2127899070483
 20
444.68205629241771
 11
1708.5182203310369
 21
444.68205629241771
  0
LINE
  8
_0-0_90_FRAME
  6
CONTINUOUS
 62
    4
 10
1708.5182203310369
 20
444.68205629241771
 11
1708.5182203310369
 21
442.37662586842782
  0
LINE
  8
_0-0_90_FRAME
  6
CONTINUOUS
 62
    4
 10
1708.5182203310369
 20
442.37662586842782
 11
1706.2127899070483
 21
442.37662586842782
  0
LINE
  8
_0-0_90_FRAME
  6
CONTINUOUS
 62
    4
 10
1706.2127899070483
 20
444.68205629241771
 11
1706.2127899070483
 21
442.37662586842782
  0
LINE
  8
_0-0_90_FRAME
  6
CONTINUOUS
 62
    4
 10
1737.3361006309215
 20
444.68205629241771
 11
1735.0306702069329
 21
444.68205629241771
  0
LINE
  8
_0-0_90_FRAME
  6
CONTINUOUS
 62
    4
 10
1735.0306702069329
 20
444.68205629241771
 11
1735.0306702069329
 21
442.37662586842782
  0
LINE
  8
_0-0_90_FRAME
  6
CONTINUOUS
 62
    4
 10
1735.0306702069329
 20
442.37662586842782
 11
1737.3361006309215
 21
442.37662586842782
  0
LINE
  8
_0-0_90_FRAME
  6
CONTINUOUS
 62
    4
 10
1737.3361006309215
 20
444.68205629241771
 11
1737.3361006309215
 21
442.37662586842782
  0
LINE
  8
_0-0_90_FRAME
  6
CONTINUOUS
 62
    4
 10
1711.9763659670252
 20
444.68205629241771
 11
1714.2817963910138
 21
444.68205629241771
  0
LINE
  8
_0-0_90_FRAME
  6
CONTINUOUS
 62
    4
 10
1714.2817963910138
 20
444.68205629241771
 11
1714.2817963910138
 21
442.37662586842782
  0
LINE
  8
_0-0_90_FRAME
  6
CONTINUOUS
 62
    4
 10
1714.2817963910138
 20
442.37662586842782
 11
1711.9763659670252
 21
442.37662586842782
  0
LINE
  8
_0-0_90_FRAME
  6
CONTINUOUS
 62
    4
 10
1711.9763659670252
 20
444.68205629241771
 11
1711.9763659670252
 21
442.37662586842782
  0
LINE
  8
_0-0_90_FRAME
  6
CONTINUOUS
 62
    4
 10
1717.7399420270021
 20
444.68205629241771
 11
1720.0453724509907
 21
444.68205629241771
  0
LINE
  8
_0-0_90_FRAME
  6
CONTINUOUS
 62
    4
 10
1720.0453724509907
 20
444.68205629241771
 11
1720.0453724509907
 21
442.37662586842782
  0
LINE
  8
_0-0_90_FRAME
  6
CONTINUOUS
 62
    4
 10
1720.0453724509907
 20
442.37662586842782
 11
1717.7399420270021
 21
442.37662586842782
  0
LINE
  8
_0-0_90_FRAME
  6
CONTINUOUS
 62
    4
 10
1717.7399420270021
 20
444.68205629241771
 11
1717.7399420270021
 21
442.37662586842782
  0
LINE
  8
_0-0_90_FRAME
  6
CONTINUOUS
 62
    4
 10
1723.5035180869791
 20
444.68205629241771
 11
1725.8089485109676
 21
444.68205629241771
  0
LINE
  8
_0-0_90_FRAME
  6
CONTINUOUS
 62
    4
 10
1725.8089485109676
 20
444.68205629241771
 11
1725.8089485109676
 21
442.37662586842782
  0
LINE
  8
_0-0_90_FRAME
  6
CONTINUOUS
 62
    4
 10
1725.8089485109676
 20
442.37662586842782
 11
1723.5035180869791
 21
442.37662586842782
  0
LINE
  8
_0-0_90_FRAME
  6
CONTINUOUS
 62
    4
 10
1723.5035180869791
 20
444.68205629241771
 11
1723.5035180869791
 21
442.37662586842782
  0
LINE
  8
_0-0_90_FRAME
  6
CONTINUOUS
 62
    4
 10
1729.267094146956
 20
444.68205629241771
 11
1731.5725245709446
 21
444.68205629241771
  0
LINE
  8
_0-0_90_FRAME
  6
CONTINUOUS
 62
    4
 10
1731.5725245709446
 20
444.68205629241771
 11
1731.5725245709446
 21
442.37662586842782
  0
LINE
  8
_0-0_90_FRAME
  6
CONTINUOUS
 62
    4
 10
1731.5725245709446
 20
442.37662586842782
 11
1729.267094146956
 21
442.37662586842782
  0
LINE
  8
_0-0_90_FRAME
  6
CONTINUOUS
 62
    4
 10
1729.267094146956
 20
444.68205629241771
 11
1729.267094146956
 21
442.37662586842782
  0
LINE
  8
_0-0_90_FRAME
  6
CONTINUOUS
 62
    4
 10
1721.7505733183793
 20
466.61933698815989
 11
1721.7505733183793
 21
466.61933698815989
  0
LINE
  8
_0-0_90_FRAME
  6
CONTINUOUS
 62
    4
 10
1721.7505733183793
 20
466.61933698815989
 11
1721.6834427039182
 21
467.35328227324368
  0
LINE
  8
_0-0_90_FRAME
  6
CONTINUOUS
 62
    4
 10
1721.6834427039182
 20
467.35328227324368
 11
1721.4840905902859
 21
468.06492700223441
  0
LINE
  8
_0-0_90_FRAME
  6
CONTINUOUS
 62
    4
 10
1721.4840905902859
 20
468.06492700223441
 11
1721.1585741905778
 21
468.73264821015135
  0
LINE
  8
_0-0_90_FRAME
  6
CONTINUOUS
 62
    4
 10
1721.1585741905778
 20
468.73264821015135
 11
1720.7167841558801
 21
469.33615752597512
  0
LINE
  8
_0-0_90_FRAME
  6
CONTINUOUS
 62
    4
 10
1720.7167841558801
 20
469.33615752597512
 11
1720.1721440528404
 21
469.85711762453496
  0
LINE
  8
_0-0_90_FRAME
  6
CONTINUOUS
 62
    4
 10
1720.1721440528404
 20
469.85711762453496
 11
1719.5412024953882
 21
470.2796993968546
  0
LINE
  8
_0-0_90_FRAME
  6
CONTINUOUS
 62
    4
 10
1719.5412024953882
 20
470.2796993968546
 11
1718.843130323475
 21
470.59106290961876
  0
LINE
  8
_0-0_90_FRAME
  6
CONTINUOUS
 62
    4
 10
1718.843130323475
 20
470.59106290961876
 11
1718.0991381068029
 21
470.78174754004965
  0
LINE
  8
_0-0_90_FRAME
  6
CONTINUOUS
 62
    4
 10
1718.0991381068029
 20
470.78174754004965
 11
1717.3318316723971
 21
470.84595943214282
  0
LINE
  8
_0-0_90_FRAME
  6
CONTINUOUS
 62
    4
 10
1717.3318316723971
 20
470.84595943214282
 11
1716.5645252379913
 21
470.78174754004971
  0
LINE
  8
_0-0_90_FRAME
  6
CONTINUOUS
 62
    4
 10
1716.5645252379913
 20
470.78174754004971
 11
1715.8205330213193
 21
470.59106290961876
  0
LINE
  8
_0-0_90_FRAME
  6
CONTINUOUS
 62
    4
 10
1715.8205330213193
 20
470.59106290961876
 11
1715.122460849406
 21
470.2796993968546
  0
LINE
  8
_0-0_90_FRAME
  6
CONTINUOUS
 62
    4
 10
1715.122460849406
 20
470.2796993968546
 11
1714.4915192919539
 21
469.85711762453496
  0
LINE
  8
_0-0_90_FRAME
  6
CONTINUOUS
 62
    4
 10
1714.4915192919539
 20
469.85711762453496
 11
1713.9468791889142
 21
469.33615752597518
  0
LINE
  8
_0-0_90_FRAME
  6
CONTINUOUS
 62
    4
 10
1713.9468791889142
 20
469.33615752597518
 11
1713.5050891542164
 21
468.73264821015135
  0
LINE
  8
_0-0_90_FRAME
  6
CONTINUOUS
 62
    4
 10
1713.5050891542164
 20
468.73264821015135
 11
1713.1795727545084
 21
468.06492700223441
  0
LINE
  8
_0-0_90_FRAME
  6
CONTINUOUS
 62
    4
 10
1713.1795727545084
 20
468.06492700223441
 11
1712.980220640876
 21
467.35328227324368
  0
LINE
  8
_0-0_90_FRAME
  6
CONTINUOUS
 62
    4
 10
1712.980220640876
 20
467.35328227324368
 11
1712.9130900264149
 21
466.61933698815989
  0
LINE
  8
_0-0_90_FRAME
  6
CONTINUOUS
 62
    4
 10
1712.9130900264149
 20
466.61933698815989
 11
1712.9130900264149
 21
466.61933698815989
  0
LINE
  8
_0-0_90_FRAME
  6
CONTINUOUS
 62
    4
 10
1721.7505733183789
 20
466.61933698815989
 11
1721.7505733183789
 21
465.46662177616429
  0
LINE
  8
_0-0_90_FRAME
  6
CONTINUOUS
 62
    4
 10
1719.6657918994038
 20
461.8777007915557
 11
1719.6657918994038
 21
461.8777007915557
  0
LINE
  8
_0-0_90_FRAME
  6
CONTINUOUS
 62
    4
 10
1719.6657918994038
 20
461.8777007915557
 11
1718.9787965018272
 21
461.5445578401966
  0
LINE
  8
_0-0_90_FRAME
  6
CONTINUOUS
 62
    4
 10
1718.9787965018272
 20
461.5445578401966
 11
1718.2417589113127
 21
461.33058481687181
  0
LINE
  8
_0-0_90_FRAME
  6
CONTINUOUS
 62
    4
 10
1718.2417589113127
 20
461.33058481687181
 11
1717.4770736420892
 21
461.24228318361935
  0
LINE
  8
_0-0_90_FRAME
  6
CONTINUOUS
 62
    4
 10
1717.4770736420892
 20
461.24228318361935
 11
1716.7079752691127
 21
461.28233594088294
  0
LINE
  8
_0-0_90_FRAME
  6
CONTINUOUS
 62
    4
 10
1716.7079752691127
 20
461.28233594088294
 11
1715.9578324572633
 21
461.44952610590076
  0
LINE
  8
_0-0_90_FRAME
  6
CONTINUOUS
 62
    4
 10
1715.9578324572633
 20
461.44952610590076
 11
1715.2494379162886
 21
461.73877369011103
  0
LINE
  8
_0-0_90_FRAME
  6
CONTINUOUS
 62
    4
 10
1715.2494379162886
 20
461.73877369011103
 11
1714.6043158558512
 21
462.14129005203392
  0
LINE
  8
_0-0_90_FRAME
  6
CONTINUOUS
 62
    4
 10
1714.6043158558512
 20
462.14129005203392
 11
1714.0420679833101
 21
462.64484493569546
  0
LINE
  8
_0-0_90_FRAME
  6
CONTINUOUS
 62
    4
 10
1714.0420679833101
 20
462.64484493569546
 11
1713.5797779157608
 21
463.23413808076663
  0
LINE
  8
_0-0_90_FRAME
  6
CONTINUOUS
 62
    4
 10
1713.5797779157608
 20
463.23413808076663
 11
1713.2314921029763
 21
463.89126411323122
  0
LINE
  8
_0-0_90_FRAME
  6
CONTINUOUS
 62
    4
 10
1713.2314921029763
 20
463.89126411323122
 11
1713.0077930331367
 21
464.59625659111458
  0
LINE
  8
_0-0_90_FRAME
  6
CONTINUOUS
 62
    4
 10
1713.0077930331367
 20
464.59625659111458
 11
1712.9154776892819
 21
465.32769467471962
  0
LINE
  8
_0-0_90_FRAME
  6
CONTINUOUS
 62
    4
 10
1712.9154776892819
 20
465.32769467471962
 11
1712.9130900264149
 21
465.46662177616429
  0
LINE
  8
_0-0_90_FRAME
  6
CONTINUOUS
 62
    4
 10
1720.1494215260154
 20
466.50629773244833
 11
1720.1494215260154
 21
465.58412556285214
  0
LINE
  8
_0-0_90_FRAME
  6
CONTINUOUS
 62
    4
 10
1730.7076708070281
 20
465.11907358938748
 11
1730.7076708070281
 21
470.8459594321435
  0
LINE
  8
_0-0_90_FRAME
  6
CONTINUOUS
 62
    4
 10
1728.9785979890339
 20
465.46662177616429
 11
1728.9785979890339
 21
470.8459594321435
  0
LINE
  8
_0-0_90_FRAME
  6
CONTINUOUS
 62
    4
 10
1728.9785979890339
 20
470.8459594321435
 11
1730.7076708070281
 21
470.8459594321435
  0
LINE
  8
_0-0_90_FRAME
  6
CONTINUOUS
 62
    4
 10
1722.6386643230599
 20
465.11907358938748
 11
1722.6386643230599
 21
470.8459594321435
  0
LINE
  8
_0-0_90_FRAME
  6
CONTINUOUS
 62
    4
 10
1724.367737141054
 20
465.46662177616429
 11
1724.367737141054
 21
470.8459594321435
  0
ARC
  8
_0-0_90_FRAME
  6
CONTINUOUS
 62
    4
 10
1726.7000222773868
 20
465.2928476827779
 40
4.0650739069189497
 50
182.45003099226136
 51
265.55525728852427
  0
LINE
  8
_0-0_90_FRAME
  6
CONTINUOUS
 62
    4
 10
1724.367737141054
 20
470.8459594321435
 11
1722.6386643230599
 21
470.8459594321435
  0
LINE
  8
_0-0_90_FRAME
  6
CONTINUOUS
 62
    4
 10
1726.9613463680425
 20
461.23999933218204
 11
1726.3849887620454
 21
461.23999933218204
  0
ARC
  8
_0-0_90_FRAME
  6
CONTINUOUS
 62
    4
 10
1727.79745114466
 20
465.42189163019617
 40
3.4300056752869814
 50
179.25279388138676
 51
218.96457184688023
  0
ARC
  8
_0-0_90_FRAME
  6
CONTINUOUS
 62
    4
 10
1725.5488839854279
 20
465.42189163019617
 40
3.4300056752865951
 50
321.03542815311977
 51
0.747206118613265
  0
ARC
  8
_0-0_90_FRAME
  6
CONTINUOUS
 62
    4
 10
1726.6731675650453
 20
466.06616879809332
 40
3.1978969011000955
 50
241.1577278083189
 51
298.8422721916811
  0
LINE
  8
_0-0_90_FRAME
  6
CONTINUOUS
 62
    4
 10
1717.7042481101835
 20
463.78675259204704
 11
1718.4887139884286
 21
463.02327945139325
  0
LINE
  8
_0-0_90_FRAME
  6
CONTINUOUS
 62
    4
 10
1717.7042481101835
 20
463.78675259204704
 11
1718.5552320031438
 21
464.69037896992182
  0
LINE
  8
_0-0_90_FRAME
  6
CONTINUOUS
 62
    4
 10
1721.0015054048299
 20
460.57773171287187
 11
1722.1133999550557
 21
461.75840887175997
  0
LINE
  8
_0-0_90_FRAME
  6
CONTINUOUS
 62
    4
 10
1714.5142418187788
 20
466.50629773244833
 11
1714.5142418187788
 21
465.58412556285214
  0
LINE
  8
_0-0_90_FRAME
  6
CONTINUOUS
 62
    4
 10
1720.1494215260152
 20
466.50629773244833
 11
1720.1494215260152
 21
466.50629773244833
  0
LINE
  8
_0-0_90_FRAME
  6
CONTINUOUS
 62
    4
 10
1720.1494215260152
 20
466.50629773244833
 11
1720.1066160050489
 21
466.9929828837154
  0
LINE
  8
_0-0_90_FRAME
  6
CONTINUOUS
 62
    4
 10
1720.1066160050489
 20
466.9929828837154
 11
1719.9795000662434
 21
467.46488035293578
  0
LINE
  8
_0-0_90_FRAME
  6
CONTINUOUS
 62
    4
 10
1719.9795000662434
 20
467.46488035293578
 11
1719.7719360630756
 21
467.90765177429893
  0
LINE
  8
_0-0_90_FRAME
  6
CONTINUOUS
 62
    4
 10
1719.7719360630756
 20
467.90765177429893
 11
1719.4902307227496
 21
468.3078437622197
  0
LINE
  8
_0-0_90_FRAME
  6
CONTINUOUS
 62
    4
 10
1719.4902307227496
 20
468.3078437622197
 11
1719.1429435194814
 21
468.65329668565221
  0
LINE
  8
_0-0_90_FRAME
  6
CONTINUOUS
 62
    4
 10
1719.1429435194814
 20
468.65329668565221
 11
1718.7406265992063
 21
468.93351413232551
  0
LINE
  8
_0-0_90_FRAME
  6
CONTINUOUS
 62
    4
 10
1718.7406265992063
 20
468.93351413232551
 11
1718.2955041579646
 21
469.13998183691928
  0
LINE
  8
_0-0_90_FRAME
  6
CONTINUOUS
 62
    4
 10
1718.2955041579646
 20
469.13998183691928
 11
1717.8211010158907
 21
469.26642638270721
  0
LINE
  8
_0-0_90_FRAME
  6
CONTINUOUS
 62
    4
 10
1717.8211010158907
 20
469.26642638270721
 11
1717.3318316723971
 21
469.30900581614947
  0
LINE
  8
_0-0_90_FRAME
  6
CONTINUOUS
 62
    4
 10
1717.3318316723971
 20
469.30900581614947
 11
1716.8425623289036
 21
469.26642638270721
  0
LINE
  8
_0-0_90_FRAME
  6
CONTINUOUS
 62
    4
 10
1716.8425623289036
 20
469.26642638270721
 11
1716.3681591868296
 21
469.13998183691928
  0
LINE
  8
_0-0_90_FRAME
  6
CONTINUOUS
 62
    4
 10
1716.3681591868296
 20
469.13998183691928
 11
1715.923036745588
 21
468.93351413232551
  0
LINE
  8
_0-0_90_FRAME
  6
CONTINUOUS
 62
    4
 10
1715.923036745588
 20
468.93351413232551
 11
1715.5207198253129
 21
468.65329668565221
  0
LINE
  8
_0-0_90_FRAME
  6
CONTINUOUS
 62
    4
 10
1715.5207198253129
 20
468.65329668565221
 11
1715.1734326220446
 21
468.3078437622197
  0
LINE
  8
_0-0_90_FRAME
  6
CONTINUOUS
 62
    4
 10
1715.1734326220446
 20
468.3078437622197
 11
1714.8917272817187
 21
467.90765177429893
  0
LINE
  8
_0-0_90_FRAME
  6
CONTINUOUS
 62
    4
 10
1714.8917272817187
 20
467.90765177429893
 11
1714.6841632785508
 21
467.46488035293578
  0
LINE
  8
_0-0_90_FRAME
  6
CONTINUOUS
 62
    4
 10
1714.6841632785508
 20
467.46488035293578
 11
1714.5570473397454
 21
466.9929828837154
  0
LINE
  8
_0-0_90_FRAME
  6
CONTINUOUS
 62
    4
 10
1714.5570473397454
 20
466.9929828837154
 11
1714.5142418187791
 21
466.50629773244833
  0
LINE
  8
_0-0_90_FRAME
  6
CONTINUOUS
 62
    4
 10
1714.5142418187791
 20
466.50629773244833
 11
1714.5142418187791
 21
466.50629773244833
  0
LINE
  8
_0-0_90_FRAME
  6
CONTINUOUS
 62
    4
 10
1718.4887139884281
 20
463.0232794513928
 11
1718.4887139884281
 21
463.0232794513928
  0
LINE
  8
_0-0_90_FRAME
  6
CONTINUOUS
 62
    4
 10
1718.4887139884281
 20
463.0232794513928
 11
1718.0250126959454
 21
462.86222338230016
  0
LINE
  8
_0-0_90_FRAME
  6
CONTINUOUS
 62
    4
 10
1718.0250126959454
 20
462.86222338230016
 11
1717.5402494488289
 21
462.78373528110012
  0
LINE
  8
_0-0_90_FRAME
  6
CONTINUOUS
 62
    4
 10
1717.5402494488289
 20
462.78373528110012
 11
1717.04915353304
 21
462.79019996903071
  0
LINE
  8
_0-0_90_FRAME
  6
CONTINUOUS
 62
    4
 10
1717.04915353304
 20
462.79019996903071
 11
1716.5666466494733
 21
462.88142101982044
  0
LINE
  8
_0-0_90_FRAME
  6
CONTINUOUS
 62
    4
 10
1716.5666466494733
 20
462.88142101982044
 11
1716.1073895256259
 21
463.0546267280011
  0
LINE
  8
_0-0_90_FRAME
  6
CONTINUOUS
 62
    4
 10
1716.1073895256259
 20
463.0546267280011
 11
1715.6853364568105
 21
463.304554325776
  0
LINE
  8
_0-0_90_FRAME
  6
CONTINUOUS
 62
    4
 10
1715.6853364568105
 20
463.304554325776
 11
1715.3133113119538
 21
463.62360988955623
  0
LINE
  8
_0-0_90_FRAME
  6
CONTINUOUS
 62
    4
 10
1715.3133113119538
 20
463.62360988955623
 11
1715.0026178868288
 21
464.00209907748621
  0
LINE
  8
_0-0_90_FRAME
  6
CONTINUOUS
 62
    4
 10
1715.0026178868288
 20
464.00209907748621
 11
1714.7626964439391
 21
464.42852168711545
  0
LINE
  8
_0-0_90_FRAME
  6
CONTINUOUS
 62
    4
 10
1714.7626964439391
 20
464.42852168711545
 11
1714.600836874921
 21
464.8899210832306
  0
LINE
  8
_0-0_90_FRAME
  6
CONTINUOUS
 62
    4
 10
1714.600836874921
 20
464.8899210832306
 11
1714.5219572008743
 21
465.3722778786601
  0
LINE
  8
_0-0_90_FRAME
  6
CONTINUOUS
 62
    4
 10
1714.5219572008743
 20
465.3722778786601
 11
1714.5142382817091
 21
465.57966103187584
  0
LINE
  8
_0-0_90_FRAME
  6
CONTINUOUS
 62
    4
 10
1704.4853205036006
 20
461.23999933218204
 11
1706.2098233099223
 21
461.23999933218204
  0
LINE
  8
_0-0_90_FRAME
  6
CONTINUOUS
 62
    4
 10
1704.4853205036006
 20
461.23999933218204
 11
1704.4853205036006
 21
461.28610794066077
  0
LINE
  8
_0-0_90_FRAME
  6
CONTINUOUS
 62
    4
 10
1704.4853205036006
 20
461.28610794066077
 11
1708.1076118846049
 21
470.8459594321435
  0
LINE
  8
_0-0_90_FRAME
  6
CONTINUOUS
 62
    4
 10
1704.4853205036006
 20
461.23999933218204
 11
1704.4853205036006
 21
461.28610794066077
  0
LINE
  8
_0-0_90_FRAME
  6
CONTINUOUS
 62
    4
 10
1707.1500190127344
 20
463.77246764673981
 11
1710.6965291268289
 21
463.77246764673981
  0
LINE
  8
_0-0_90_FRAME
  6
CONTINUOUS
 62
    4
 10
1707.6699396138874
 20
465.23257358193325
 11
1710.1766085256786
 21
465.23257358193325
  0
LINE
  8
_0-0_90_FRAME
  6
CONTINUOUS
 62
    4
 10
1713.3228037955641
 20
461.23999933218204
 11
1711.5983009892452
 21
461.23999933218204
  0
LINE
  8
_0-0_90_FRAME
  6
CONTINUOUS
 62
    4
 10
1711.5983009892452
 20
461.23999933218204
 11
1710.6965291268289
 21
463.77246764673981
  0
LINE
  8
_0-0_90_FRAME
  6
CONTINUOUS
 62
    4
 10
1713.3228037955641
 20
461.28610794066077
 11
1709.7005124145599
 21
470.8459594321435
  0
LINE
  8
_0-0_90_FRAME
  6
CONTINUOUS
 62
    4
 10
1713.3228037955641
 20
461.23999933218204
 11
1713.3228037955641
 21
461.28610794066077
  0
LINE
  8
_0-0_90_FRAME
  6
CONTINUOUS
 62
    4
 10
1708.1076118846049
 20
470.8459594321435
 11
1709.7005124145599
 21
470.8459594321435
  0
LINE
  8
_0-0_90_FRAME
  6
CONTINUOUS
 62
    4
 10
1710.1766085256786
 20
465.23257358193325
 11
1708.9040621495824
 21
468.80629717056001
  0
LINE
  8
_0-0_90_FRAME
  6
CONTINUOUS
 62
    4
 10
1718.5552320031438
 20
464.69037896992182
 11
1722.1133999550557
 21
461.75840887175997
  0
LINE
  8
_0-0_90_FRAME
  6
CONTINUOUS
 62
    4
 10
1719.6657918994051
 20
461.87770079155649
 11
1721.0015054048299
 21
460.57773171287187
  0
LINE
  8
_0-0_90_FRAME
  6
CONTINUOUS
 62
    4
 10
1707.1500190127344
 20
463.77246764673981
 11
1707.6699396138874
 21
465.23257358193325
  0
LINE
  8
_0-0_90_FRAME
  6
CONTINUOUS
 62
    4
 10
1721.7505733183793
 20
465.46662177616429
 11
1721.7505733183793
 21
465.46662177616429
  0
LINE
  8
_0-0_90_FRAME
  6
CONTINUOUS
 62
    4
 10
1721.7505733183793
 20
465.46662177616429
 11
1721.6834427039182
 21
464.7326764910805
  0
LINE
  8
_0-0_90_FRAME
  6
CONTINUOUS
 62
    4
 10
1721.6834427039182
 20
464.7326764910805
 11
1721.4840905902859
 21
464.02103176208976
  0
LINE
  8
_0-0_90_FRAME
  6
CONTINUOUS
 62
    4
 10
1721.4840905902859
 20
464.02103176208976
 11
1721.1585741905778
 21
463.35331055417282
  0
LINE
  8
_0-0_90_FRAME
  6
CONTINUOUS
 62
    4
 10
1721.1585741905778
 20
463.35331055417282
 11
1720.8188393344165
 21
462.87057608292457
  0
LINE
  8
_0-0_90_FRAME
  6
CONTINUOUS
 62
    4
 10
1720.1494250630851
 20
465.57966103187584
 11
1720.1494250630851
 21
465.57966103187584
  0
LINE
  8
_0-0_90_FRAME
  6
CONTINUOUS
 62
    4
 10
1720.1494250630851
 20
465.57966103187584
 11
1720.1066194883826
 21
465.09281989798308
  0
LINE
  8
_0-0_90_FRAME
  6
CONTINUOUS
 62
    4
 10
1720.1066194883826
 20
465.09281989798308
 11
1719.9795033900018
 21
464.62077118559012
  0
LINE
  8
_0-0_90_FRAME
  6
CONTINUOUS
 62
    4
 10
1719.9795033900018
 20
464.62077118559012
 11
1719.7719391262681
 21
464.17785785595487
  0
LINE
  8
_0-0_90_FRAME
  6
CONTINUOUS
 62
    4
 10
1719.7719391262681
 20
464.17785785595487
 11
1719.5807955998926
 21
463.89073793556713
  0
LINE
  8
_0-0_90_FRAME
  6
CONTINUOUS
 62
    4
 10
1712.9130900264154
 20
466.61933698815989
 11
1712.9130900264154
 21
465.46662177616429
  0
LINE
  8
_0-0_90_FRAME
  6
CONTINUOUS
 62
    4
 10
1706.2098233099223
 20
461.23999933218204
 11
1708.9040621495824
 21
468.80629717056001
  0
LINE
  8
_0-0_90_FRAME
  6
CONTINUOUS
 62
    4
 10
1730.6103251464019
 20
461.23999933218204
 11
1732.3348279527236
 21
461.23999933218204
  0
LINE
  8
_0-0_90_FRAME
  6
CONTINUOUS
 62
    4
 10
1730.6103251464019
 20
461.23999933218204
 11
1730.6103251464019
 21
461.28610794066077
  0
LINE
  8
_0-0_90_FRAME
  6
CONTINUOUS
 62
    4
 10
1730.6103251464019
 20
461.28610794066077
 11
1734.2326165274089
 21
470.8459594321435
  0
LINE
  8
_0-0_90_FRAME
  6
CONTINUOUS
 62
    4
 10
1730.6103251464019
 20
461.23999933218204
 11
1730.6103251464019
 21
461.28610794066077
  0
LINE
  8
_0-0_90_FRAME
  6
CONTINUOUS
 62
    4
 10
1733.2750236555385
 20
463.77246764673981
 11
1736.8215337696329
 21
463.77246764673981
  0
LINE
  8
_0-0_90_FRAME
  6
CONTINUOUS
 62
    4
 10
1733.7949442566887
 20
465.23257358193325
 11
1736.3016131684826
 21
465.23257358193325
  0
LINE
  8
_0-0_90_FRAME
  6
CONTINUOUS
 62
    4
 10
1739.4478084383682
 20
461.23999933218204
 11
1737.7233056320465
 21
461.23999933218204
  0
LINE
  8
_0-0_90_FRAME
  6
CONTINUOUS
 62
    4
 10
1737.7233056320465
 20
461.23999933218204
 11
1736.8215337696329
 21
463.77246764673981
  0
LINE
  8
_0-0_90_FRAME
  6
CONTINUOUS
 62
    4
 10
1739.4478084383682
 20
461.28610794066077
 11
1735.8255170573639
 21
470.8459594321435
  0
LINE
  8
_0-0_90_FRAME
  6
CONTINUOUS
 62
    4
 10
1739.4478084383682
 20
461.23999933218204
 11
1739.4478084383682
 21
461.28610794066077
  0
LINE
  8
_0-0_90_FRAME
  6
CONTINUOUS
 62
    4
 10
1734.2326165274089
 20
470.8459594321435
 11
1735.8255170573639
 21
470.8459594321435
  0
LINE
  8
_0-0_90_FRAME
  6
CONTINUOUS
 62
    4
 10
1736.3016131684826
 20
465.23257358193325
 11
1735.0290667923864
 21
468.80629717056001
  0
LINE
  8
_0-0_90_FRAME
  6
CONTINUOUS
 62
    4
 10
1733.2750236555385
 20
463.77246764673981
 11
1733.7949442566887
 21
465.23257358193325
  0
LINE
  8
_0-0_90_FRAME
  6
CONTINUOUS
 62
    4
 10
1732.3348279527236
 20
461.23999933218204
 11
1735.0290667923864
 21
468.80629717056001
  0
ARC
  8
_0-0_90_FRAME
  6
CONTINUOUS
 62
    4
 10
1726.6463128527012
 20
465.2928476827779
 40
4.0650739069189497
 50
274.44474271147573
 51
357.5499690077387
  0
LINE
  8
_0-0_90_FRAME
  6
CONTINUOUS
 62
    4
 10
1719.5807955998944
 20
463.89073793556832
 11
1720.818839334418
 21
462.87057608292491
  0
LINE
  8
_0-0_90_FRAME
  6
CONTINUOUS
 62
    4
 10
1720.2532201518436
 20
454.43895801745396
 11
1720.2532201518436
 21
454.43895801745396
  0
LINE
  8
_0-0_90_FRAME
  6
CONTINUOUS
 62
    4
 10
1720.2532201518436
 20
454.43895801745396
 11
1720.7374754365169
 21
454.63471795219783
  0
LINE
  8
_0-0_90_FRAME
  6
CONTINUOUS
 62
    4
 10
1720.7374754365169
 20
454.63471795219783
 11
1721.1726549575617
 21
454.8960221316583
  0
LINE
  8
_0-0_90_FRAME
  6
CONTINUOUS
 62
    4
 10
1721.1726549575617
 20
454.8960221316583
 11
1721.5455360054425
 21
455.21493096056872
  0
LINE
  8
_0-0_90_FRAME
  6
CONTINUOUS
 62
    4
 10
1721.5455360054425
 20
455.21493096056872
 11
1721.8447887782067
 21
455.58175455553834
  0
LINE
  8
_0-0_90_FRAME
  6
CONTINUOUS
 62
    4
 10
1721.8447887782067
 20
455.58175455553834
 11
1722.0613206317828
 21
455.98534716725567
  0
LINE
  8
_0-0_90_FRAME
  6
CONTINUOUS
 62
    4
 10
1722.0613206317828
 20
455.98534716725567
 11
1722.1885523553703
 21
456.41344583844148
  0
LINE
  8
_0-0_90_FRAME
  6
CONTINUOUS
 62
    4
 10
1722.1885523553703
 20
456.41344583844148
 11
1722.2226180774303
 21
456.85304300760004
  0
LINE
  8
_0-0_90_FRAME
  6
CONTINUOUS
 62
    4
 10
1722.2226180774303
 20
456.85304300760004
 11
1722.1624827282365
 21
457.29078173719347
  0
LINE
  8
_0-0_90_FRAME
  6
CONTINUOUS
 62
    4
 10
1722.1624827282365
 20
457.29078173719347
 11
1722.0099734899436
 21
457.71336155742955
  0
LINE
  8
_0-0_90_FRAME
  6
CONTINUOUS
 62
    4
 10
1722.0099734899436
 20
457.71336155742955
 11
1721.7697242785841
 21
458.10794259430605
  0
LINE
  8
_0-0_90_FRAME
  6
CONTINUOUS
 62
    4
 10
1721.7697242785841
 20
458.10794259430605
 11
1721.4490349448731
 21
458.46253570268522
  0
LINE
  8
_0-0_90_FRAME
  6
CONTINUOUS
 62
    4
 10
1721.4490349448731
 20
458.46253570268522
 11
1721.0576494719389
 21
458.76636675040157
  0
LINE
  8
_0-0_90_FRAME
  6
CONTINUOUS
 62
    4
 10
1721.0576494719389
 20
458.76636675040157
 11
1720.6074599093258
 21
459.01020398481631
  0
LINE
  8
_0-0_90_FRAME
  6
CONTINUOUS
 62
    4
 10
1720.6074599093258
 20
459.01020398481631
 11
1720.112145039087
 21
459.18663853494934
  0
LINE
  8
_0-0_90_FRAME
  6
CONTINUOUS
 62
    4
 10
1720.112145039087
 20
459.18663853494934
 11
1719.5867547529131
 21
459.29030952627494
  0
LINE
  8
_0-0_90_FRAME
  6
CONTINUOUS
 62
    4
 10
1719.5867547529131
 20
459.29030952627494
 11
1719.1223172684122
 21
459.31880731218905
  0
LINE
  8
_0-0_90_FRAME
  6
CONTINUOUS
 62
    4
 10
1725.7937698627202
 20
451.24980082822151
 11
1725.7937698627202
 21
457.78185369619501
  0
LINE
  8
_0-0_90_FRAME
  6
CONTINUOUS
 62
    4
 10
1724.064697044726
 20
451.24980082822151
 11
1724.064697044726
 21
457.78185369619501
  0
LINE
  8
_0-0_90_FRAME
  6
CONTINUOUS
 62
    4
 10
1723.8725778427251
 20
459.31880731218973
 11
1725.9858890647183
 21
459.31880731218973
  0
LINE
  8
_0-0_90_FRAME
  6
CONTINUOUS
 62
    4
 10
1714.7035756224332
 20
459.31880731218973
 11
1714.7035756224332
 21
449.71284721222816
  0
LINE
  8
_0-0_90_FRAME
  6
CONTINUOUS
 62
    4
 10
1723.8725778427251
 20
449.71284721222816
 11
1725.9858890647183
 21
449.71284721222816
  0
LINE
  8
_0-0_90_FRAME
  6
CONTINUOUS
 62
    4
 10
1725.9858890647183
 20
449.71284721222816
 11
1725.9858890647183
 21
451.05768162622331
  0
ARC
  8
_0-0_90_FRAME
  6
CONTINUOUS
 62
    4
 10
1725.9858890647183
 20
451.24980082822151
 40
0.1921192019992238
 50
180
 51
270
  0
LINE
  8
_0-0_90_FRAME
  6
CONTINUOUS
 62
    4
 10
1723.8725778427251
 20
449.71284721222816
 11
1723.8725778427251
 21
451.05768162622331
  0
ARC
  8
_0-0_90_FRAME
  6
CONTINUOUS
 62
    4
 10
1723.8725778427251
 20
451.24980082822151
 40
0.1921192019992238
 50
270
 51
0
  0
LINE
  8
_0-0_90_FRAME
  6
CONTINUOUS
 62
    4
 10
1725.9858890647183
 20
459.31880731218973
 11
1725.9858890647183
 21
457.97397289819457
  0
ARC
  8
_0-0_90_FRAME
  6
CONTINUOUS
 62
    4
 10
1725.9858890647183
 20
457.78185369619501
 40
0.1921192019992238
 50
90
 51
180
  0
LINE
  8
_0-0_90_FRAME
  6
CONTINUOUS
 62
    4
 10
1723.8725778427251
 20
459.31880731218973
 11
1723.8725778427251
 21
457.97397289819457
  0
ARC
  8
_0-0_90_FRAME
  6
CONTINUOUS
 62
    4
 10
1723.8725778427251
 20
457.78185369619501
 40
0.1921192019992238
 50
0
 51
90
  0
LINE
  8
_0-0_90_FRAME
  6
CONTINUOUS
 62
    4
 10
1710.5346201537213
 20
449.71284721222816
 11
1710.5346201537213
 21
457.78185369619501
  0
LINE
  8
_0-0_90_FRAME
  6
CONTINUOUS
 62
    4
 10
1708.8055473357299
 20
449.71284721222816
 11
1708.8055473357299
 21
457.78185369619501
  0
LINE
  8
_0-0_90_FRAME
  6
CONTINUOUS
 62
    4
 10
1705.7316401037433
 20
459.31880731218973
 11
1713.6085273857107
 21
459.31880731218973
  0
LINE
  8
_0-0_90_FRAME
  6
CONTINUOUS
 62
    4
 10
1708.8055473357299
 20
449.71284721222816
 11
1710.5346201537213
 21
449.71284721222816
  0
LINE
  8
_0-0_90_FRAME
  6
CONTINUOUS
 62
    4
 10
1713.6085273857107
 20
459.31880731218973
 11
1713.6085273857107
 21
457.97397289819457
  0
ARC
  8
_0-0_90_FRAME
  6
CONTINUOUS
 62
    4
 10
1710.7267393557222
 20
457.78185369619501
 40
0.1921192019992238
 50
90
 51
180
  0
LINE
  8
_0-0_90_FRAME
  6
CONTINUOUS
 62
    4
 10
1705.7316401037433
 20
459.31880731218973
 11
1705.7316401037433
 21
457.97397289819457
  0
ARC
  8
_0-0_90_FRAME
  6
CONTINUOUS
 62
    4
 10
1708.6134281337318
 20
457.78185369619501
 40
0.1921192019992238
 50
0
 51
90
  0
LINE
  8
_0-0_90_FRAME
  6
CONTINUOUS
 62
    4
 10
1705.7316401037433
 20
457.97397289819457
 11
1708.6134281337318
 21
457.97397289819457
  0
LINE
  8
_0-0_90_FRAME
  6
CONTINUOUS
 62
    4
 10
1710.7267393557222
 20
457.97397289819457
 11
1713.6085273857107
 21
457.97397289819457
  0
LINE
  8
_0-0_90_FRAME
  6
CONTINUOUS
 62
    4
 10
1714.7035756224332
 20
449.71284721222816
 11
1716.4326484404246
 21
449.71284721222816
  0
LINE
  8
_0-0_90_FRAME
  6
CONTINUOUS
 62
    4
 10
1716.4326484404246
 20
449.71284721222816
 11
1716.4326484404246
 21
457.97397289819457
  0
LINE
  8
_0-0_90_FRAME
  6
CONTINUOUS
 62
    4
 10
1714.7035756224332
 20
459.31880731218973
 11
1719.1223172684122
 21
459.31880731218973
  0
LINE
  8
_0-0_90_FRAME
  6
CONTINUOUS
 62
    4
 10
1716.4326484404246
 20
457.97397289819457
 11
1719.3528603108143
 21
457.97397289819457
  0
LINE
  8
_0-0_90_FRAME
  6
CONTINUOUS
 62
    4
 10
1716.4902842010224
 20
454.26495054663849
 11
1716.4902842010224
 21
455.60978496063359
  0
LINE
  8
_0-0_90_FRAME
  6
CONTINUOUS
 62
    4
 10
1716.4902842010224
 20
454.26495054663849
 11
1718.376811699326
 21
454.26495054663849
  0
LINE
  8
_0-0_90_FRAME
  6
CONTINUOUS
 62
    4
 10
1716.4902842010224
 20
455.60978496063359
 11
1719.3528603108143
 21
455.60978496063359
  0
ARC
  8
_0-0_90_FRAME
  6
CONTINUOUS
 62
    4
 10
1719.3116414698925
 20
456.79187892941411
 40
1.1828123874366918
 50
271.9970571043541
 51
88.002942895541636
  0
LINE
  8
_0-0_90_FRAME
  6
CONTINUOUS
 62
    4
 10
1720.5520896179296
 20
449.71284721222816
 11
1722.4156458773214
 21
449.71284721222816
  0
LINE
  8
_0-0_90_FRAME
  6
CONTINUOUS
 62
    4
 10
1720.7602890651997
 20
453.84342856456402
 11
1722.4156458773214
 21
449.78969489302796
  0
LINE
  8
_0-0_90_FRAME
  6
CONTINUOUS
 62
    4
 10
1719.0896906899325
 20
453.78345831868194
 11
1720.5520896179296
 21
449.71284721222816
  0
ARC
  8
_0-0_90_FRAME
  6
CONTINUOUS
 62
    4
 10
1718.376811699326
 20
453.49647373864315
 40
0.7684768079968955
 50
21.928297866550267
 51
90
  0
ARC
  8
_0-0_90_FRAME
  6
CONTINUOUS
 62
    4
 10
1719.5978957452562
 20
453.36733723073451
 40
1.2561135252831905
 50
22.272952259980947
 51
58.553113012863236
  0
LINE
  8
_0-0_90_FRAME
  6
CONTINUOUS
 62
    4
 10
1722.4156458773214
 20
449.78969489302796
 11
1722.4156458773214
 21
449.71284721222816
  0
LINE
  8
_0-0_90_FRAME
  6
CONTINUOUS
 62
    4
 10
1727.7168339764285
 20
459.31880731218973
 11
1727.7168339764285
 21
449.71284721222816
  0
LINE
  8
_0-0_90_FRAME
  6
CONTINUOUS
 62
    4
 10
1727.7168339764285
 20
449.71284721222816
 11
1729.4459067944226
 21
449.71284721222816
  0
LINE
  8
_0-0_90_FRAME
  6
CONTINUOUS
 62
    4
 10
1729.4459067944226
 20
449.71284721222816
 11
1729.4443146163685
 21
456.43701928220122
  0
LINE
  8
_0-0_90_FRAME
  6
CONTINUOUS
 62
    4
 10
1727.7168339764285
 20
459.31880731218973
 11
1730.2258318624845
 21
459.31880731218973
  0
LINE
  8
_0-0_90_FRAME
  6
CONTINUOUS
 62
    4
 10
1735.5953134364499
 20
456.43701928220122
 11
1735.5953134364499
 21
449.71284721222816
  0
LINE
  8
_0-0_90_FRAME
  6
CONTINUOUS
 62
    4
 10
1735.5953134364499
 20
449.71284721222816
 11
1737.3243862544414
 21
449.71284721222816
  0
LINE
  8
_0-0_90_FRAME
  6
CONTINUOUS
 62
    4
 10
1737.3243862544414
 20
449.71284721222816
 11
1737.3243862544414
 21
459.31880731218973
  0
LINE
  8
_0-0_90_FRAME
  6
CONTINUOUS
 62
    4
 10
1731.6552776174149
 20
449.71284721222816
 11
1733.3843504354063
 21
449.71284721222816
  0
LINE
  8
_0-0_90_FRAME
  6
CONTINUOUS
 62
    4
 10
1737.3243862544414
 20
459.31880731218973
 11
1734.813796190334
 21
459.31880731218973
  0
LINE
  8
_0-0_90_FRAME
  6
CONTINUOUS
 62
    4
 10
1733.3843504354063
 20
449.71284721222816
 11
1735.5953134364499
 21
456.43701928220122
  0
LINE
  8
_0-0_90_FRAME
  6
CONTINUOUS
 62
    4
 10
1731.6552776174149
 20
449.71284721222816
 11
1729.4443146163685
 21
456.43701928220122
  0
LINE
  8
_0-0_90_FRAME
  6
CONTINUOUS
 62
    4
 10
1732.5198140264092
 20
452.34215017754343
 11
1734.813796190334
 21
459.31880731218973
  0
LINE
  8
_0-0_90_FRAME
  6
CONTINUOUS
 62
    4
 10
1732.5198140264092
 20
452.34215017754343
 11
1730.2258318624845
 21
459.31880731218973
  0
TEXT
  8
_0-0_90_FRAME
 62
    2
 10
1748.6504111823699
 20
466.98648110347443
 40
11.341157142811319
 41
1
 50
0
  1
株式会社
  0
LINE
  8
_0-0_90_FRAME
  6
CONTINUOUS
 62
   18
 10
1783.1757464893587
 20
490.56317356250713
 11
1783.1757464893587
 21
543.59888784800899
  0
TEXT
  8
_0-0_90_FRAME
 62
    7
 10
1882.1619321306268
 20
449.50102707968631
 40
15
 41
1
 50
0
  1
寺田
  0
TEXT
  8
_0-0_90_FRAME
 62
    7
 10
1805.0512178452486
 20
503.29288712297779
 40
15
 41
1
 50
0
  1
1：3
  0
TEXT
  8
_0-0_90_FRAME
 62
    7
 10
1939.4359119691896
 20
533.33015737112657
 40
7.5
 41
1
 50
0
  1
機器
  0
LINE
  8
_0-0_90_FRAME
  6
CONTINUOUS
 62
   18
 10
2050.6828767830748
 20
543.59888784800899
 11
2050.6828767830748
 21
467.22745927688823
  0
TEXT
  8
_0-0_90_FRAME
 62
    7
 10
2052.7216136921497
 20
533.33015737112657
 40
7.5
 41
1
 50
0
  1
部品名
  0
TEXT
  8
_0-0_90_FRAME
 62
    7
 10
2052.721613692147
 20
490.52658594272509
 40
7.5
 41
1
 50
0
  1
図面番号
  0
LINE
  8
_0-0_90_FRAME
  6
CONTINUOUS
 62
   18
 10
1937.3971750601206
 20
505.41317356244929
 11
2050.6828767830748
 21
505.41317356244929
  0
TEXT
  8
_0-0_90_FRAME
 62
    7
 10
1939.4359119691896
 20
494.76944308556688
 40
7.5
 41
1
 50
0
  1
型式
  0
LINE
  8
_0-0_90_FRAME
  6
CONTINUOUS
 62
   18
 10
634.35859563512247
 20
433.28460213416889
 11
940.35859563244503
 21
433.28460213416889
  0
LINE
  8
_0-0_90_FRAME
  6
CONTINUOUS
 62
   18
 10
940.35859563244503
 20
433.28460213416889
 11
940.35859563244503
 21
518.14174499096646
  0
LINE
  8
_0-0_90_FRAME
  6
CONTINUOUS
 62
   18
 10
940.35859563244503
 20
518.14174499096646
 11
634.35859563512247
 21
518.14174499096646
  0
LINE
  8
_0-0_90_FRAME
  6
CONTINUOUS
 62
   18
 10
634.35859563512247
 20
518.14174499096646
 11
634.35859563512247
 21
433.28460213416889
  0
LINE
  8
_0-0_90_FRAME
  6
CONTINUOUS
 62
   18
 10
898.35859563244526
 20
433.28460213416889
 11
898.35859563244526
 21
518.14174499096646
  0
LINE
  8
_0-0_90_FRAME
  6
CONTINUOUS
 62
   18
 10
676.35859563244503
 20
433.28460213416889
 11
676.35859563244503
 21
518.14174499096646
  0
LINE
  8
_0-0_90_FRAME
  6
CONTINUOUS
 62
   18
 10
724.35859563244514
 20
433.28460213416889
 11
724.35859563244514
 21
518.14174499096646
  0
LINE
  8
_0-0_90_FRAME
  6
CONTINUOUS
 62
   18
 10
634.35859563512247
 20
496.92745927677117
 11
940.35859563244503
 21
496.92745927677117
  0
LINE
  8
_0-0_90_FRAME
  6
CONTINUOUS
 62
   18
 10
634.35859563512247
 20
475.71317356256498
 11
940.35859563244503
 21
475.71317356256498
  0
LINE
  8
_0-0_90_FRAME
  6
CONTINUOUS
 62
   18
 10
634.35859563512247
 20
454.49888784836969
 11
940.35859563244503
 21
454.49888784836969
  0
TEXT
  8
_0-0_90_FRAME
 62
    7
 10
644.88586836105651
 20
503.93460213386885
 40
7.2000000000000002
 41
1
 50
0
  1
記号
  0
TEXT
  8
_0-0_90_FRAME
 62
    7
 10
688.85543952471971
 20
503.93460213386885
 40
7.2000000000000002
 41
1
 50
0
  1
日付
  0
TEXT
  8
_0-0_90_FRAME
 62
    7
 10
903.64950472335431
 20
503.93460213386885
 40
7.2000000000000002
 41
1
 50
0
  1
作成者
  0
TEXT
  8
_0-0_90_FRAME
 62
    7
 10
787.41314108699055
 20
503.81187486114152
 40
7.2000000000000002
 41
1
 50
0
  1
改訂内容
  0
LINE
  8
_0-0_90_FRAME
  6
CONTINUOUS
 62
   18
 10
645.81216706239036
 20
456.75206178792774
 11
655.35859563378369
 21
473.28696110439944
  0
LINE
  8
_0-0_90_FRAME
  6
CONTINUOUS
 62
   18
 10
655.35859563378369
 20
473.28696110439944
 11
664.90502420517169
 21
456.75206178792774
  0
LINE
  8
_0-0_90_FRAME
  6
CONTINUOUS
 62
   18
 10
664.90502420517169
 20
456.75206178792774
 11
645.81216706239036
 21
456.75206178792774
  0
TEXT
  8
_0-0_90_FRAME
 62
    7
 10
653.29101042712057
 20
481.04905100997269
 40
6.3642857142600011
 41
1
 50
0
  1
1
  0
TEXT
  8
_0-0_90_FRAME
 62
    7
 10
653.29101042712057
 20
459.83476529577189
 40
6.3642857142600011
 41
1
 50
0
  1
2
  0
TEXT
  8
_0-0_90_FRAME
 62
    7
 10
653.29101042712057
 20
438.6204795815712
 40
6.3642857142600011
 41
1
 50
0
  1
3
  0
LINE
  8
_0-0_90_FRAME
  6
CONTINUOUS
 62
   18
 10
645.81216706239036
 20
477.96634750212854
 11
655.35859563378369
 21
494.50124681860564
  0
LINE
  8
_0-0_90_FRAME
  6
CONTINUOUS
 62
   18
 10
655.35859563378369
 20
494.50124681860564
 11
664.90502420517169
 21
477.96634750212854
  0
LINE
  8
_0-0_90_FRAME
  6
CONTINUOUS
 62
   18
 10
664.90502420517169
 20
477.96634750212854
 11
645.81216706239036
 21
477.96634750212854
  0
LINE
  8
_0-0_90_FRAME
  6
CONTINUOUS
 62
   18
 10
645.81216706239036
 20
435.53777607372706
 11
655.35859563378369
 21
452.07267539020415
  0
LINE
  8
_0-0_90_FRAME
  6
CONTINUOUS
 62
   18
 10
655.35859563378369
 20
452.07267539020415
 11
664.90502420517169
 21
435.53777607372706
  0
LINE
  8
_0-0_90_FRAME
  6
CONTINUOUS
 62
   18
 10
664.90502420517169
 20
435.53777607372706
 11
645.81216706239036
 21
435.53777607372706
  0
LINE
  8
_0-0_90_FRAME
  6
CONTINUOUS
 62
    4
 10
1834.4114647122344
 20
627.59888559163653
 11
1834.4114647122344
 21
543.59888784800899
  0
LINE
  8
_0-0_90_FRAME
  6
CONTINUOUS
 62
    4
 10
2050.6828767830748
 20
627.59888559163653
 11
2050.6828767830748
 21
543.59888784800899
  0
LINE
  8
_0-0_90_FRAME
  6
CONTINUOUS
 62
    4
 10
2133.0152153765202
 20
627.59888559163653
 11
2133.0152153765325
 21
543.59888784800899
  0
LINE
  8
_0-0_90_FRAME
  6
CONTINUOUS
 62
    4
 10
2112.0152180015198
 20
627.59888559163653
 11
2112.0152180015311
 21
543.59888784800899
  0
LINE
  8
_0-0_90_FRAME
  6
CONTINUOUS
 62
    4
 10
1865.9114607747399
 20
627.59888559163653
 11
1865.9114607747399
 21
543.59888784800899
  0
LINE
  8
_0-0_90_FRAME
  6
CONTINUOUS
 62
    4
 10
2164.5152114390276
 20
627.59888559163653
 11
2164.5152114390276
 21
543.59888784800899
  0
LINE
  8
_0-2_08_DIM
  6
CONTINUOUS
 62
    3
 10
864.27585949042123
 20
1422.1247929789827
 11
980.59450265290343
 21
1422.1247929789827
  0
INSERT
  2
-000-p1ba01
  8
_0-2_08_DIM
 10
889.33503150569561
 20
1425.7014474684624
 41
4.5
 42
4.5
 50
0
  0
INSERT
  2
-001-p1ba02
  8
_0-2_08_DIM
 10
930.35870097058171
 20
1425.7014474684624
 41
4.5
 42
4.5
 50
0
  0
TEXT
  8
_0-3_07_TEXT
 62
    3
 10
909.29418285887004
 20
1425.3628439690701
 40
13.5
 41
1
 50
0
  1
(      )
  0
TEXT
  8
_0-0_90_FRAME
 62
    3
 10
2120.6078692620122
 20
569.61691106488138
 40
9
 41
1
 50
0
  1
1
  0
TEXT
  8
_0-0_90_FRAME
 62
    3
 10
2055.5169995567207
 20
569.8169099731673
 40
9
 41
1
 50
0
  1
SS400
  0
TEXT
  8
_0-0_90_FRAME
 62
    3
 10
1880.5421112912243
 20
569.69753283483283
 40
9
 41
1
 50
0
  1
油圧シリンダ固定板
  0
TEXT
  8
_0-0_90_FRAME
 62
    3
 10
1843.3887374456792
 20
569.46601328580277
 40
9
 41
1
 50
0
  1
21
  0
TEXT
  8
_0-0_90_FRAME
 62
    3
 10
2139.8752864100879
 20
554.37748479443144
 40
7.5
 41
1
 50
0
  1
重量
  0
TEXT
  8
_0-0_90_FRAME
 62
    3
 10
2064.6881875623239
 20
549.53684106631147
 40
9
 41
1
 50
0
  1
材　質
  0
TEXT
  8
_0-0_90_FRAME
 62
    3
 10
2113.1181443394621
 20
549.46920028247587
 40
9
 41
1
 50
0
  1
数量
  0
TEXT
  8
_0-0_90_FRAME
 62
    3
 10
2143.1901807063755
 20
547.03896115256975
 40
6
 41
1
 50
0
  1
kg
  0
TEXT
  8
_0-0_90_FRAME
 62
    3
 10
2204.6565145868071
 20
549.31830250337987
 40
9
 41
1
 50
0
  1
備  考
  0
TEXT
  8
_0-0_90_FRAME
 62
    3
 10
1840.8254484958659
 20
549.31830250337987
 40
9
 41
1
 50
0
  1
符号
  0
TEXT
  8
_0-0_90_FRAME
 62
    3
 10
1917.1220907950835
 20
549.64496912921493
 40
9
 41
1
 50
0
  1
部　　品　　名
  0
LINE
  8
_0-0_90_FRAME
  6
CONTINUOUS
 62
    4
 10
1834.4114473825593
 20
627.59888559163653
 11
2288.0757291576465
 21
627.59888559163653
  0
LINE
  8
_0-0_90_FRAME
  6
CONTINUOUS
 62
    4
 10
1834.4114473825593
 20
606.59888447028573
 11
2288.0757291576465
 21
606.59888447028573
  0
LINE
  8
_0-0_90_FRAME
  6
CONTINUOUS
 62
    4
 10
1834.4114473825593
 20
585.59888559163653
 11
2288.0757291576465
 21
585.59888559163653
  0
LINE
  8
_0-0_90_FRAME
  6
CONTINUOUS
 62
    4
 10
1834.4114473825593
 20
564.59888559163653
 11
2288.0757291576465
 21
564.59888559163653
  0
TEXT
  8
_0-0_90_FRAME
 62
    7
 10
2127.6562995197296
 20
515.96644744469688
 40
12
 41
1
 50
0
  1
プレス機 部品図
  0
TEXT
  8
_0-0_90_FRAME
 62
    7
 10
1944.7195505045991
 20
515.53586470630387
 40
9.6000000000000014
 41
0.9000000000000001
 50
0
  1
有機性汚泥燃料施設
  0
LINE
  8
_0-4_05_CENTER
  6
CENTER2
 62
    4
 10
1884.9217262345417
 20
1179.579239711363
 11
1804.1690258531787
 21
1179.579239711363
  0
INSERT
  2
-001-p1ba02
  8
_0-2_08_DIM
 10
1689.7415905873204
 20
762.95149891016479
 41
3
 42
3
 50
180
  0
INSERT
  2
-001-p1ba02
  8
_0-2_08_DIM
 10
1617.2370034693122
 20
844.52830328855396
 41
3
 42
3
 50
89.999999999999986
  0
INSERT
  2
-001-p1ba02
  8
_0-2_08_DIM
 10
1689.7415905873204
 20
817.95149891016479
 41
-3
 42
3
 50
0
  0
CIRCLE
  8
_0-5_0
  6
CONTINUOUS
 62
   18
 10
1377.4870034652849
 20
1255.356462542911
 40
4.9999999999999991
  0
LINE
  8
_0-4_05_CENTER
  6
CENTER2
 62
    4
 10
1373.3164780597872
 20
1262.58002443996
 11
1381.6575288707827
 21
1248.1329006458675
  0
CIRCLE
  8
_0-5_0
  6
CONTINUOUS
 62
   18
 10
1377.4870034652849
 20
1255.356462542911
 40
3.9999999999999996
  0
CIRCLE
  8
_0-5_0
  6
CONTINUOUS
 62
   18
 10
1333.7370034645719
 20
1179.579239711363
 40
4.9999999999999991
  0
CIRCLE
  8
_0-5_0
  6
CONTINUOUS
 62
   18
 10
1333.7370034645719
 20
1179.579239711363
 40
3.9999999999999996
  0
CIRCLE
  8
_0-5_0
  6
CONTINUOUS
 62
   18
 10
1508.7370034645719
 20
1179.5792397124908
 40
4.9999999999999991
  0
CIRCLE
  8
_0-5_0
  6
CONTINUOUS
 62
   18
 10
1508.7370034645719
 20
1179.5792397124908
 40
3.9999999999999996
  0
CIRCLE
  8
_0-5_0
  6
CONTINUOUS
 62
   18
 10
1464.9870034621745
 20
1255.3564625438823
 40
4.9999999999999991
  0
LINE
  8
_0-4_05_CENTER
  6
CENTER2
 62
    4
 10
1469.1575288680797
 20
1262.5800244406958
 11
1460.8164780562765
 21
1248.1329006470708
  0
CIRCLE
  8
_0-5_0
  6
CONTINUOUS
 62
   18
 10
1464.9870034621745
 20
1255.3564625438823
 40
3.9999999999999996
  0
LINE
  8
_0-6_04_HIDDEN
  6
CONTINUOUS
 62
    7
 10
1425.2370034645064
 20
1089.5792397214855
 11
1425.2370034645789
 21
1114.5792397116156
  0
LINE
  8
_0-6_04_HIDDEN
  6
CONTINUOUS
 62
    7
 10
1426.2370034645064
 20
1089.5792397214855
 11
1426.2370034645792
 21
1114.5792397116156
  0
LINE
  8
_0-6_04_HIDDEN
  6
CONTINUOUS
 62
    7
 10
1417.2370034644991
 20
1089.5792397214855
 11
1417.2370034645719
 21
1114.5792397116156
  0
LINE
  8
_0-6_04_HIDDEN
  6
CONTINUOUS
 62
    7
 10
1416.2370034644991
 20
1089.5792397214855
 11
1416.2370034645719
 21
1114.5792397116156
  0
LINE
  8
_0-6_04_HIDDEN
  6
CONTINUOUS
 62
    7
 10
1415.2370034644989
 20
1089.5792397214855
 11
1415.2370034644989
 21
1009.579239715051
  0
LINE
  8
_0-6_04_HIDDEN
  6
CONTINUOUS
 62
    7
 10
1427.2370034646519
 20
1089.5792397214855
 11
1427.2370034646519
 21
1009.579239715051
  0
LINE
  8
_0-6_04_HIDDEN
  6
CONTINUOUS
 62
    7
 10
1427.2370034646519
 20
1089.5792397214855
 11
1415.2370034644989
 21
1089.5792397214855
  0
CIRCLE
  8
_0-4_05_CENTER
  6
CENTER2
 62
    4
 10
1421.2370034645719
 20
1179.579239711363
 40
87.5
  0
CIRCLE
  8
_0-5_0
  6
CONTINUOUS
 62
   18
 10
1596.2370034604974
 20
1304.5792397166488
 40
21
  0
LINE
  8
_0-4_05_CENTER
  6
CENTER2
 62
    4
 10
1564.7370034604974
 20
1304.5792397166488
 11
1627.7370034604974
 21
1304.5792397166488
  0
LINE
  8
_0-4_05_CENTER
  6
CENTER2
 62
    4
 10
1596.2370034604974
 20
1336.0792397166488
 11
1596.2370034604974
 21
1273.079239716649
  0
CIRCLE
  8
_0-5_0
  6
CONTINUOUS
 62
   18
 10
1596.2370034604974
 20
1054.5792397135167
 40
21
  0
LINE
  8
_0-4_05_CENTER
  6
CENTER2
 62
    4
 10
1564.7370034604974
 20
1054.5792397135167
 11
1627.7370034604974
 21
1054.5792397135167
  0
LINE
  8
_0-4_05_CENTER
  6
CENTER2
 62
    4
 10
1596.2370034604974
 20
1086.0792397135167
 11
1596.2370034604974
 21
1023.0792397135168
  0
CIRCLE
  8
_0-5_0
  6
CONTINUOUS
 62
   18
 10
1246.2370034605192
 20
1054.5792397135167
 40
21
  0
LINE
  8
_0-4_05_CENTER
  6
CENTER2
 62
    4
 10
1214.7370034605119
 20
1054.5792397135167
 11
1277.7370034605119
 21
1054.5792397135167
  0
LINE
  8
_0-4_05_CENTER
  6
CENTER2
 62
    4
 10
1246.2370034605117
 20
1086.0792397135167
 11
1246.2370034605117
 21
1023.0792397135168
  0
CIRCLE
  8
_0-5_0
  6
CONTINUOUS
 62
   18
 10
1246.2370034605192
 20
1304.5792397166488
 40
21
  0
LINE
  8
_0-4_05_CENTER
  6
CENTER2
 62
    4
 10
1214.7370034605119
 20
1304.5792397166488
 11
1277.7370034605119
 21
1304.5792397166488
  0
LINE
  8
_0-4_05_CENTER
  6
CENTER2
 62
    4
 10
1246.2370034605117
 20
1336.0792397166488
 11
1246.2370034605117
 21
1273.079239716649
  0
LINE
  8
_0-5_0
  6
CONTINUOUS
 62
   18
 10
1206.2370034604974
 20
1349.5792397150512
 11
1636.2370034604974
 21
1349.5792397150512
  0
LINE
  8
_0-5_0
  6
CONTINUOUS
 62
   18
 10
1636.2370034604974
 20
1349.5792397150512
 11
1641.2370034604974
 21
1344.579239715051
  0
LINE
  8
_0-5_0
  6
CONTINUOUS
 62
   18
 10
1641.2370034604974
 20
1344.579239715051
 11
1641.2370034604974
 21
1014.579239715051
  0
LINE
  8
_0-5_0
  6
CONTINUOUS
 62
   18
 10
1641.2370034604974
 20
1014.579239715051
 11
1636.2370034604974
 21
1009.579239715051
  0
LINE
  8
_0-5_0
  6
CONTINUOUS
 62
   18
 10
1636.2370034604974
 20
1009.579239715051
 11
1206.2370034604974
 21
1009.579239715051
  0
LINE
  8
_0-5_0
  6
CONTINUOUS
 62
   18
 10
1206.2370034604974
 20
1009.579239715051
 11
1201.2370034604974
 21
1014.579239715051
  0
LINE
  8
_0-5_0
  6
CONTINUOUS
 62
   18
 10
1201.2370034604974
 20
1014.579239715051
 11
1201.2370034604974
 21
1344.579239715051
  0
LINE
  8
_0-5_0
  6
CONTINUOUS
 62
   18
 10
1201.2370034604974
 20
1344.579239715051
 11
1206.2370034604974
 21
1349.5792397150512
  0
CIRCLE
  8
_0-5_0
  6
CONTINUOUS
 62
   18
 10
1421.2370034604971
 20
1179.579239715051
 40
64.999999993113306
  0
LINE
  8
_0-4_05_CENTER
  6
CENTER2
 62
    4
 10
1525.0716240814945
 20
1179.579239711363
 11
1317.4023828395002
 21
1179.579239711363
  0
LINE
  8
_0-4_05_CENTER
  6
CENTER2
 62
    4
 10
1421.2370034645428
 20
1001.5130102377447
 11
1421.2370034645428
 21
1283.41386033605
  0
CIRCLE
  8
_0-5_0
  6
CONTINUOUS
 62
   18
 10
1421.2370034604971
 20
1179.579239715051
 40
63.37599999311351
  0
CIRCLE
  8
_0-5_0
  6
CONTINUOUS
 62
   18
 10
1377.4870034652849
 20
1103.802016879815
 40
4.9999999999999991
  0
LINE
  8
_0-4_05_CENTER
  6
CENTER2
 62
    4
 10
1373.3164780597872
 20
1096.5784549827658
 11
1381.6575288707827
 21
1111.0255787768585
  0
CIRCLE
  8
_0-5_0
  6
CONTINUOUS
 62
   18
 10
1377.4870034652849
 20
1103.802016879815
 40
3.9999999999999996
  0
CIRCLE
  8
_0-5_0
  6
CONTINUOUS
 62
   18
 10
1464.9870034621745
 20
1103.8020168788437
 40
4.9999999999999991
  0
LINE
  8
_0-4_05_CENTER
  6
CENTER2
 62
    4
 10
1469.1575288680797
 20
1096.5784549820301
 11
1460.8164780562765
 21
1111.0255787756553
  0
CIRCLE
  8
_0-5_0
  6
CONTINUOUS
 62
   18
 10
1464.9870034621745
 20
1103.8020168788437
 40
3.9999999999999996
  0
LINE
  8
_0-5_0
  6
CONTINUOUS
 62
   18
 10
1201.2370034645282
 20
817.95149891016479
 11
1641.2370034645282
 21
817.95149891016479
  0
LINE
  8
_0-5_0
  6
CONTINUOUS
 62
   18
 10
1641.2370034645282
 20
817.95149891016479
 11
1641.2370034645282
 21
762.95149891016467
  0
LINE
  8
_0-5_0
  6
CONTINUOUS
 62
   18
 10
1641.2370034645282
 20
762.95149891016467
 11
1201.2370034645282
 21
762.95149891016467
  0
LINE
  8
_0-5_0
  6
CONTINUOUS
 62
   18
 10
1201.2370034645282
 20
762.95149891016467
 11
1201.2370034645282
 21
817.95149891016479
  0
LINE
  8
_0-4_05_CENTER
  6
CENTER2
 62
    9
 10
1596.2370034693158
 20
756.5030940964682
 11
1596.2370034693158
 21
824.39990373197395
  0
LINE
  8
_0-6_04_HIDDEN
  6
CONTINUOUS
 62
    9
 10
1617.2370034693122
 20
762.95149891422284
 11
1617.2370034693122
 21
817.95149891016479
  0
LINE
  8
_0-6_04_HIDDEN
  6
CONTINUOUS
 62
    9
 10
1575.2370034693231
 20
762.95149891422284
 11
1575.2370034693231
 21
817.95149891016479
  0
LINE
  8
_0-4_05_CENTER
  6
CENTER2
 62
    9
 10
1246.2370034597407
 20
756.5030940964682
 11
1246.2370034597407
 21
824.39990373197395
  0
LINE
  8
_0-6_04_HIDDEN
  6
CONTINUOUS
 62
    9
 10
1225.2370034597443
 20
762.95149891422284
 11
1225.2370034597443
 21
817.95149891016479
  0
LINE
  8
_0-6_04_HIDDEN
  6
CONTINUOUS
 62
    9
 10
1267.2370034597334
 20
762.95149891422284
 11
1267.2370034597334
 21
817.95149891016479
  0
LINE
  8
_0-6_04_HIDDEN
  6
CONTINUOUS
 62
    7
 10
1328.7370484709024
 20
817.95149891905783
 11
1328.7370484709024
 21
797.95149891904327
  0
LINE
  8
_0-6_04_HIDDEN
  6
CONTINUOUS
 62
    7
 10
1329.7370484709027
 20
817.95149891905783
 11
1329.7370484709027
 21
792.95149891903588
  0
LINE
  8
_0-6_04_HIDDEN
  6
CONTINUOUS
 62
    7
 10
1337.7370484708881
 20
792.95149891903588
 11
1333.7370484709024
 21
790.64249891903842
  0
LINE
  8
_0-6_04_HIDDEN
  6
CONTINUOUS
 62
    7
 10
1338.7370484709027
 20
817.95149891905783
 11
1338.7370484709027
 21
797.95149891904327
  0
LINE
  8
_0-4_05_CENTER
  6
CENTER2
 62
    4
 10
1333.7370484709024
 20
821.33927406662065
 11
1333.7370484709024
 21
787.84649891905826
  0
LINE
  8
_0-6_04_HIDDEN
  6
CONTINUOUS
 62
    7
 10
1337.7370484708881
 20
817.95149891905783
 11
1337.7370484708881
 21
792.95149891903588
  0
LINE
  8
_0-6_04_HIDDEN
  6
CONTINUOUS
 62
    7
 10
1328.7370484709024
 20
797.95149891904327
 11
1338.7370484709027
 21
797.95149891904327
  0
LINE
  8
_0-6_04_HIDDEN
  6
CONTINUOUS
 62
    7
 10
1329.7370484709027
 20
792.95149891903588
 11
1337.7370484708881
 21
792.95149891903588
  0
LINE
  8
_0-6_04_HIDDEN
  6
CONTINUOUS
 62
    7
 10
1333.7370484709024
 20
790.64249891903842
 11
1329.7370484709027
 21
792.95149891903588
  0
LINE
  8
_0-6_04_HIDDEN
  6
CONTINUOUS
 62
    7
 10
1503.7370034638443
 20
817.95149891905783
 11
1503.7370034638443
 21
797.95149891904327
  0
LINE
  8
_0-6_04_HIDDEN
  6
CONTINUOUS
 62
    7
 10
1504.7370034638443
 20
817.95149891905783
 11
1504.7370034638443
 21
792.95149891903588
  0
LINE
  8
_0-6_04_HIDDEN
  6
CONTINUOUS
 62
    7
 10
1512.7370034638298
 20
792.95149891903588
 11
1508.7370034638443
 21
790.64249891903842
  0
LINE
  8
_0-6_04_HIDDEN
  6
CONTINUOUS
 62
    7
 10
1513.7370034638443
 20
817.95149891905783
 11
1513.7370034638443
 21
797.95149891904327
  0
LINE
  8
_0-4_05_CENTER
  6
CENTER2
 62
    4
 10
1508.7370034638443
 20
821.33927406662065
 11
1508.7370034638443
 21
787.84649891905826
  0
LINE
  8
_0-6_04_HIDDEN
  6
CONTINUOUS
 62
    7
 10
1512.7370034638298
 20
817.95149891905783
 11
1512.7370034638298
 21
792.95149891903588
  0
LINE
  8
_0-6_04_HIDDEN
  6
CONTINUOUS
 62
    7
 10
1503.7370034638443
 20
797.95149891904327
 11
1513.7370034638443
 21
797.95149891904327
  0
LINE
  8
_0-6_04_HIDDEN
  6
CONTINUOUS
 62
    7
 10
1504.7370034638443
 20
792.95149891903588
 11
1512.7370034638298
 21
792.95149891903588
  0
LINE
  8
_0-6_04_HIDDEN
  6
CONTINUOUS
 62
    7
 10
1508.7370034638443
 20
790.64249891903842
 11
1504.7370034638443
 21
792.95149891903588
  0
CIRCLE
  8
_0-5_0
  6
CONTINUOUS
 62
   18
 10
1421.2370034610067
 20
790.45149891011022
 40
3.999999999951342
  0
CIRCLE
  8
_0-5_0
  6
CONTINUOUS
 62
   18
 10
1421.2370034610067
 20
790.45149891011022
 40
4.999999999951342
  0
CIRCLE
  8
_0-5_0
  6
CONTINUOUS
 62
   18
 10
1421.2370034610067
 20
790.45149891011022
 40
6.0000000000957252
  0
LINE
  8
_0-4_05_CENTER
  6
CENTER2
 62
    4
 10
1431.1513514878895
 20
790.45149891016467
 11
1411.3226554411667
 21
790.45149891016467
  0
LINE
  8
_0-4_05_CENTER
  6
CENTER2
 62
    4
 10
1421.2370034645282
 20
824.54273961258207
 11
1421.2370034645282
 21
756.36025820774728
  0
LINE
  8
_0-6_04_HIDDEN
  6
CONTINUOUS
 62
    7
 10
1353.237003470902
 20
762.95149891499955
 11
1356.2370034730957
 21
765.95149891719598
  0
LINE
  8
_0-6_04_HIDDEN
  6
CONTINUOUS
 62
    7
 10
1357.7370034673731
 20
814.9514989168614
 11
1357.7370034673731
 21
765.95149891719598
  0
LINE
  8
_0-6_04_HIDDEN
  6
CONTINUOUS
 62
    7
 10
1356.2370034730957
 20
814.9514989168614
 11
1356.2370034730957
 21
765.95149891719598
  0
LINE
  8
_0-6_04_HIDDEN
  6
CONTINUOUS
 62
    7
 10
1486.2370034673731
 20
765.95149891719518
 11
1356.2370034730957
 21
765.95149891719598
  0
LINE
  8
_0-6_04_HIDDEN
  6
CONTINUOUS
 62
    7
 10
1489.237003470902
 20
762.95149891499955
 11
1486.2370034687083
 21
765.95149891719598
  0
LINE
  8
_0-6_04_HIDDEN
  6
CONTINUOUS
 62
    7
 10
1484.7370034744308
 20
814.95149891686231
 11
1484.7370034744308
 21
765.95149891719598
  0
LINE
  8
_0-6_04_HIDDEN
  6
CONTINUOUS
 62
    7
 10
1486.2370034687083
 20
814.95149891686231
 11
1486.2370034687083
 21
765.95149891719598
  0
LINE
  8
_0-6_04_HIDDEN
  6
CONTINUOUS
 62
    7
 10
1353.237003470902
 20
817.95149891905783
 11
1356.2370034730957
 21
814.9514989168614
  0
LINE
  8
_0-6_04_HIDDEN
  6
CONTINUOUS
 62
    7
 10
1486.2370034673731
 20
814.95149891686231
 11
1356.2370034730957
 21
814.9514989168614
  0
LINE
  8
_0-6_04_HIDDEN
  6
CONTINUOUS
 62
    7
 10
1489.237003470902
 20
817.95149891905783
 11
1486.2370034687083
 21
814.9514989168614
  0
LINE
  8
_0-6_04_HIDDEN
  6
CONTINUOUS
 62
    7
 10
1872.0453760438602
 20
1247.5792397078487
 11
1869.0453760416628
 21
1244.5792397056514
  0
LINE
  8
_0-6_04_HIDDEN
  6
CONTINUOUS
 62
    7
 10
1820.0453760419975
 20
1243.0792397113739
 11
1869.0453760416628
 21
1243.0792397113739
  0
LINE
  8
_0-6_04_HIDDEN
  6
CONTINUOUS
 62
    7
 10
1820.0453760419975
 20
1244.5792397056514
 11
1869.0453760416628
 21
1244.5792397056514
  0
LINE
  8
_0-6_04_HIDDEN
  6
CONTINUOUS
 62
    7
 10
1869.0453760416628
 20
1114.5792397113739
 11
1869.0453760416628
 21
1244.5792397056514
  0
LINE
  8
_0-6_04_HIDDEN
  6
CONTINUOUS
 62
    7
 10
1872.0453760438602
 20
1111.5792397078415
 11
1869.0453760416628
 21
1114.5792397100388
  0
LINE
  8
_0-6_04_HIDDEN
  6
CONTINUOUS
 62
    7
 10
1820.0453760419975
 20
1116.0792397043163
 11
1869.0453760416628
 21
1116.0792397043163
  0
LINE
  8
_0-6_04_HIDDEN
  6
CONTINUOUS
 62
    7
 10
1820.0453760419975
 20
1114.5792397100388
 11
1869.0453760416628
 21
1114.5792397100388
  0
LINE
  8
_0-6_04_HIDDEN
  6
CONTINUOUS
 62
    7
 10
1817.0453760398036
 20
1247.5792397078487
 11
1820.0453760419975
 21
1244.5792397056514
  0
LINE
  8
_0-6_04_HIDDEN
  6
CONTINUOUS
 62
    7
 10
1820.0453760419975
 20
1114.5792397113739
 11
1820.0453760419975
 21
1244.5792397056514
  0
LINE
  8
_0-6_04_HIDDEN
  6
CONTINUOUS
 62
    7
 10
1817.0453760398002
 20
1111.5792397078415
 11
1820.0453760419975
 21
1114.5792397100388
  0
LINE
  8
_0-4_05_CENTER
  6
CENTER2
 62
    4
 10
1844.5453760417574
 20
1005.4593929886988
 11
1844.5453760418338
 21
1117.967014859177
  0
LINE
  8
_0-6_04_HIDDEN
  6
CONTINUOUS
 62
    7
 10
1848.5453760417645
 20
1089.5792397214875
 11
1848.5453760418413
 21
1114.5792397116177
  0
LINE
  8
_0-6_04_HIDDEN
  6
CONTINUOUS
 62
    7
 10
1849.5453760417649
 20
1089.5792397214875
 11
1849.5453760418409
 21
1114.5792397116177
  0
LINE
  8
_0-6_04_HIDDEN
  6
CONTINUOUS
 62
    7
 10
1840.5453760417574
 20
1089.5792397214875
 11
1840.5453760418338
 21
1114.5792397116177
  0
LINE
  8
_0-6_04_HIDDEN
  6
CONTINUOUS
 62
    7
 10
1839.5453760417574
 20
1089.5792397214875
 11
1839.5453760418338
 21
1114.5792397116177
  0
LINE
  8
_0-6_04_HIDDEN
  6
CONTINUOUS
 62
    7
 10
1838.5453760417574
 20
1089.5792397214875
 11
1838.5453760417574
 21
1009.579239711494
  0
LINE
  8
_0-6_04_HIDDEN
  6
CONTINUOUS
 62
    7
 10
1850.5453760419064
 20
1089.5792397214875
 11
1850.5453760419064
 21
1009.579239711494
  0
LINE
  8
_0-6_04_HIDDEN
  6
CONTINUOUS
 62
    7
 10
1850.5453760419064
 20
1089.5792397214875
 11
1838.5453760417574
 21
1089.5792397214875
  0
LINE
  8
_0-6_04_HIDDEN
  6
CONTINUOUS
 62
    7
 10
1817.0453760398002
 20
1097.0792397149028
 11
1837.0453760398148
 21
1097.0792397149028
  0
LINE
  8
_0-6_04_HIDDEN
  6
CONTINUOUS
 62
    7
 10
1817.0453760398002
 20
1096.0792397149028
 11
1842.0453760398218
 21
1096.0792397149028
  0
LINE
  8
_0-6_04_HIDDEN
  6
CONTINUOUS
 62
    7
 10
1842.0453760398218
 20
1088.0792397149173
 11
1844.3543760398193
 21
1092.0792397149028
  0
LINE
  8
_0-6_04_HIDDEN
  6
CONTINUOUS
 62
    7
 10
1817.0453760398002
 20
1087.0792397149028
 11
1837.0453760398148
 21
1087.0792397149028
  0
LINE
  8
_0-4_05_CENTER
  6
CENTER2
 62
    4
 10
1813.6576008922373
 20
1092.0792397149028
 11
1847.1503760398
 21
1092.0792397149028
  0
LINE
  8
_0-6_04_HIDDEN
  6
CONTINUOUS
 62
    7
 10
1817.0453760398002
 20
1088.0792397149173
 11
1842.0453760398218
 21
1088.0792397149173
  0
LINE
  8
_0-6_04_HIDDEN
  6
CONTINUOUS
 62
    7
 10
1837.0453760398148
 20
1097.0792397149028
 11
1837.0453760398148
 21
1087.0792397149028
  0
LINE
  8
_0-6_04_HIDDEN
  6
CONTINUOUS
 62
    7
 10
1842.0453760398218
 20
1096.0792397149028
 11
1842.0453760398218
 21
1088.0792397149173
  0
LINE
  8
_0-6_04_HIDDEN
  6
CONTINUOUS
 62
    7
 10
1844.3543760398193
 20
1092.0792397149028
 11
1842.0453760398218
 21
1096.0792397149028
  0
LINE
  8
_0-6_04_HIDDEN
  6
CONTINUOUS
 62
    7
 10
1817.0453760398036
 20
1272.0792247078471
 11
1837.0453760398186
 21
1272.0792247078471
  0
LINE
  8
_0-6_04_HIDDEN
  6
CONTINUOUS
 62
    7
 10
1817.0453760398036
 20
1271.0792247078473
 11
1842.0453760398257
 21
1271.0792247078473
  0
LINE
  8
_0-6_04_HIDDEN
  6
CONTINUOUS
 62
    7
 10
1842.0453760398257
 20
1263.0792247078618
 11
1844.3543760398231
 21
1267.0792247078473
  0
LINE
  8
_0-6_04_HIDDEN
  6
CONTINUOUS
 62
    7
 10
1817.0453760398036
 20
1262.0792247078473
 11
1837.0453760398186
 21
1262.0792247078473
  0
LINE
  8
_0-4_05_CENTER
  6
CENTER2
 62
    4
 10
1813.6576008922409
 20
1267.0792247078473
 11
1847.1503760398034
 21
1267.0792247078473
  0
LINE
  8
_0-6_04_HIDDEN
  6
CONTINUOUS
 62
    7
 10
1817.0453760398036
 20
1263.0792247078618
 11
1842.0453760398257
 21
1263.0792247078618
  0
LINE
  8
_0-6_04_HIDDEN
  6
CONTINUOUS
 62
    7
 10
1837.0453760398186
 20
1272.0792247078471
 11
1837.0453760398186
 21
1262.0792247078473
  0
LINE
  8
_0-6_04_HIDDEN
  6
CONTINUOUS
 62
    7
 10
1842.0453760398257
 20
1271.0792247078473
 11
1842.0453760398257
 21
1263.0792247078618
  0
LINE
  8
_0-6_04_HIDDEN
  6
CONTINUOUS
 62
    7
 10
1844.3543760398231
 20
1267.0792247078473
 11
1842.0453760398257
 21
1271.0792247078473
  0
LINE
  8
_0-5_0
  6
CONTINUOUS
 62
   18
 10
1817.0453760438602
 20
1349.5792397114942
 11
1817.0453760438602
 21
1009.579239711494
  0
LINE
  8
_0-5_0
  6
CONTINUOUS
 62
   18
 10
1817.0453760438602
 20
1009.579239711494
 11
1872.0453760438602
 21
1009.579239711494
  0
LINE
  8
_0-5_0
  6
CONTINUOUS
 62
   18
 10
1872.0453760438602
 20
1009.579239711494
 11
1872.0453760438602
 21
1349.5792397114942
  0
LINE
  8
_0-5_0
  6
CONTINUOUS
 62
   18
 10
1872.0453760438602
 20
1349.5792397114942
 11
1817.0453760438602
 21
1349.5792397114942
  0
LINE
  8
_0-4_05_CENTER
  6
CENTER2
 62
    9
 10
1878.4937808575548
 20
1054.579239711494
 11
1810.5969712220492
 21
1054.579239711494
  0
LINE
  8
_0-6_04_HIDDEN
  6
CONTINUOUS
 62
    9
 10
1872.0453760398002
 20
1033.5792397114976
 11
1817.0453760438602
 21
1033.5792397114976
  0
LINE
  8
_0-6_04_HIDDEN
  6
CONTINUOUS
 62
    9
 10
1872.0453760398002
 20
1075.5792397114903
 11
1817.0453760438602
 21
1075.5792397114903
  0
LINE
  8
_0-4_05_CENTER
  6
CENTER2
 62
    9
 10
1878.4937808575587
 20
1304.5792397114938
 11
1810.5969712220531
 21
1304.5792397114938
  0
LINE
  8
_0-6_04_HIDDEN
  6
CONTINUOUS
 62
    9
 10
1872.0453760398038
 20
1325.5792397114903
 11
1817.0453760438602
 21
1325.5792397114903
  0
LINE
  8
_0-6_04_HIDDEN
  6
CONTINUOUS
 62
    9
 10
1872.0453760398038
 20
1283.5792397114976
 11
1817.0453760438602
 21
1283.5792397114976
  0
LINE
  8
_0-4_05_CENTER
  6
CENTER2
 62
    4
 10
1596.2370034604974
 20
1054.5792397135167
 11
1246.2370034605117
 21
1054.5792397135167
  0
LINE
  8
_0-4_05_CENTER
  6
CENTER2
 62
    4
 10
1246.2370034605117
 20
1054.5792397135167
 11
1246.2370034605117
 21
1304.5792397166488
  0
LINE
  8
_0-4_05_CENTER
  6
CENTER2
 62
    4
 10
1246.2370034605117
 20
1304.5792397166488
 11
1596.2370034604974
 21
1304.5792397166488
  0
LINE
  8
_0-4_05_CENTER
  6
CENTER2
 62
    4
 10
1596.2370034604974
 20
1304.5792397166488
 11
1596.2370034604974
 21
1054.5792397135167
  0
INSERT
  2
-002-AM_BALLOON1
  8
_0-2_08_DIM
 10
845.50385237849946
 20
1422.1397739228382
 41
3.75
 42
3.75
 50
0
  0
TEXT
  8
_0-5_0
 62
    7
 10
836.39670952135657
 20
1416.5147739228382
 40
11.250000000000002
 41
1
 50
0
  1
21
  0
LINE
  8
_0-2_08_DIM
  6
CONTINUOUS
 62
    3
 10
1198.4337026015983
 20
1006.7759388561519
 11
1169.1514718851931
 21
977.49370813974667
  0
INSERT
  2
-003-_Open30
  8
_0-2_08_DIM
 10
1203.7370034604974
 20
1012.079239715051
 41
7.5
 42
7.5
 50
44.999999999999922
  0
LINE
  8
_0-2_08_DIM
  6
CONTINUOUS
 62
    3
 10
1433.0263514878898
 20
790.45149891016297
 11
1451.9375377699953
 21
790.45149891016297
  0
LINE
  8
_0-2_08_DIM
  6
CONTINUOUS
 62
    3
 10
1433.0263514878898
 20
762.95149891016297
 11
1451.9375377699953
 21
762.95149891016297
  0
LINE
  8
_0-2_08_DIM
  6
CONTINUOUS
 62
    3
 10
1448.1875377699953
 20
762.95149891016297
 11
1448.1875377699953
 21
724.70149891016285
  0
LINE
  8
_0-2_08_DIM
  6
CONTINUOUS
 62
    3
 10
1448.1875377699953
 20
782.95149891016297
 11
1448.1875377699953
 21
770.45149891016297
  0
INSERT
  2
-003-_Open30
  8
_0-2_08_DIM
 10
1448.1875377699953
 20
790.45149891016297
 41
7.5
 42
7.5
 50
90
  0
INSERT
  2
-003-_Open30
  8
_0-2_08_DIM
 10
1448.1875377699953
 20
762.95149891016297
 41
7.5
 42
7.5
 50
270
  0
LINE
  8
_0-2_08_DIM
  6
CONTINUOUS
 62
    3
 10
1643.1120034645282
 20
762.95149891016479
 11
1719.6689225563396
 21
762.95149891016479
  0
LINE
  8
_0-2_08_DIM
  6
CONTINUOUS
 62
    3
 10
1643.1120034645282
 20
817.95149891016479
 11
1719.6689225563396
 21
817.95149891016479
  0
LINE
  8
_0-2_08_DIM
  6
CONTINUOUS
 62
    3
 10
1715.9189225563396
 20
770.45149891016479
 11
1715.9189225563396
 21
810.45149891016479
  0
INSERT
  2
-003-_Open30
  8
_0-2_08_DIM
 10
1715.9189225563396
 20
762.95149891016479
 41
7.5
 42
7.5
 50
270
  0
INSERT
  2
-003-_Open30
  8
_0-2_08_DIM
 10
1715.9189225563396
 20
817.95149891016479
 41
7.5
 42
7.5
 50
90
  0
LINE
  8
_0-2_08_DIM
  6
CONTINUOUS
 62
    3
 10
1575.2370034693231
 20
819.8264989101649
 11
1575.2370034693231
 21
878.21518870519026
  0
LINE
  8
_0-2_08_DIM
  6
CONTINUOUS
 62
    3
 10
1617.2370034693122
 20
819.8264989101649
 11
1617.2370034693122
 21
878.21518870519026
  0
LINE
  8
_0-2_08_DIM
  6
CONTINUOUS
 62
    3
 10
1617.2370034693122
 20
874.46518870519049
 11
1688.4870034693122
 21
874.46518870519049
  0
LINE
  8
_0-2_08_DIM
  6
CONTINUOUS
 62
    3
 10
1582.7370034693231
 20
874.46518870519049
 11
1609.7370034693122
 21
874.46518870519049
  0
INSERT
  2
-003-_Open30
  8
_0-2_08_DIM
 10
1575.2370034693231
 20
874.46518870519049
 41
7.5
 42
7.5
 50
180
  0
INSERT
  2
-003-_Open30
  8
_0-2_08_DIM
 10
1617.2370034693122
 20
874.46518870519049
 41
7.5
 42
7.5
 50
0
  0
LINE
  8
_0-2_08_DIM
  6
CONTINUOUS
 62
    3
 10
1486.2370034687083
 20
816.82649890313348
 11
1486.2370034687083
 21
878.21518870519026
  0
LINE
  8
_0-2_08_DIM
  6
CONTINUOUS
 62
    3
 10
1356.2370034730957
 20
816.82649890313348
 11
1356.2370034730957
 21
878.21518870519026
  0
LINE
  8
_0-2_08_DIM
  6
CONTINUOUS
 62
    3
 10
1478.7370034687083
 20
874.46518870519049
 11
1363.7370034730957
 21
874.46518870519049
  0
INSERT
  2
-003-_Open30
  8
_0-2_08_DIM
 10
1486.2370034687083
 20
874.46518870519049
 41
7.5
 42
7.5
 50
0
  0
INSERT
  2
-003-_Open30
  8
_0-2_08_DIM
 10
1356.2370034730957
 20
874.46518870519049
 41
7.5
 42
7.5
 50
180
  0
LINE
  8
_0-2_08_DIM
  6
CONTINUOUS
 62
    3
 10
1360.0403043309004
 20
821.75479976312806
 11
1376.9438060945936
 21
838.65830152680542
  0
INSERT
  2
-003-_Open30
  8
_0-2_08_DIM
 10
1354.7370034719988
 20
816.45149890423136
 41
7.5000000000000009
 42
7.5000000000000009
 50
224.99999999997362
  0
LINE
  8
_0-2_08_DIM
  6
CONTINUOUS
 62
    3
 10
1482.4337026120011
 20
759.14819805610182
 11
1465.2233489228161
 21
741.93784436693238
  0
INSERT
  2
-003-_Open30
  8
_0-2_08_DIM
 10
1487.7370034709024
 20
764.45149891499852
 41
7.5
 42
7.5
 50
44.999999999973909
  0
LINE
  8
_0-2_08_DIM
  6
CONTINUOUS
 62
    3
 10
1415.2370034644955
 20
1007.7042397150509
 11
1415.2370034644955
 21
982.17305810343623
  0
LINE
  8
_0-2_08_DIM
  6
CONTINUOUS
 62
    3
 10
1427.2370034646483
 20
1007.7042397114939
 11
1427.2370034646483
 21
982.17305810343623
  0
LINE
  8
_0-2_08_DIM
  6
CONTINUOUS
 62
    3
 10
1434.7370034646483
 20
985.92305810343646
 11
1466.9870034646483
 21
985.92305810343646
  0
LINE
  8
_0-2_08_DIM
  6
CONTINUOUS
 62
    3
 10
1415.2370034644955
 20
985.92305810343646
 11
1427.2370034646483
 21
985.92305810343646
  0
LINE
  8
_0-2_08_DIM
  6
CONTINUOUS
 62
    3
 10
1407.7370034644955
 20
985.92305810343646
 11
1400.2370034644953
 21
985.92305810343646
  0
INSERT
  2
-003-_Open30
  8
_0-2_08_DIM
 10
1415.2370034644955
 20
985.92305810343646
 41
7.5
 42
7.5
 50
0
  0
INSERT
  2
-003-_Open30
  8
_0-2_08_DIM
 10
1427.2370034646483
 20
985.92305810343646
 41
7.5
 42
7.5
 50
180
  0
LINE
  8
_0-2_08_DIM
  6
CONTINUOUS
 62
    3
 10
1429.1120034646483
 20
1009.579239711494
 11
1458.2088699134847
 21
1009.579239711494
  0
LINE
  8
_0-2_08_DIM
  6
CONTINUOUS
 62
    3
 10
1429.1120034646519
 20
1089.5792397214855
 11
1458.2088699134847
 21
1089.5792397214855
  0
LINE
  8
_0-2_08_DIM
  6
CONTINUOUS
 62
    3
 10
1454.4588699134847
 20
1017.0792397114939
 11
1454.4588699134847
 21
1082.0792397214857
  0
INSERT
  2
-003-_Open30
  8
_0-2_08_DIM
 10
1454.4588699134847
 20
1009.579239711494
 41
7.5
 42
7.5
 50
270
  0
INSERT
  2
-003-_Open30
  8
_0-2_08_DIM
 10
1454.4588699134847
 20
1089.5792397214855
 41
7.5
 42
7.5
 50
90
  0
LINE
  8
_0-2_08_DIM
  6
CONTINUOUS
 62
    3
 10
1370.3709078106988
 20
735.7182120081244
 11
1396.4334078106992
 21
735.7182120081244
  0
LINE
  8
_0-2_08_DIM
  6
CONTINUOUS
 62
    3
 10
1396.4334078106992
 20
735.7182120081244
 11
1416.0774293479496
 21
779.06603471357005
  0
INSERT
  2
-003-_Open30
  8
_0-2_08_DIM
 10
1419.1731738157957
 20
785.89731323151955
 41
7.5
 42
7.5
 50
65.621295025318815
  0
LINE
  8
_0-2_08_DIM
  6
CONTINUOUS
 62
    3
 10
1567.0141986598164
 20
1378.8289245414774
 11
1499.9016986598165
 21
1378.8289245414774
  0
LINE
  8
_0-2_08_DIM
  6
CONTINUOUS
 62
    3
 10
1499.9016986598165
 20
1378.8289245414774
 11
1468.3882976357938
 21
1267.384812303698
  0
INSERT
  2
-003-_Open30
  8
_0-2_08_DIM
 10
1466.3475211316231
 20
1260.1678024478072
 41
7.5
 42
7.5
 50
254.21052220473692
  0
INSERT
  2
-004-AM_DATUM
  8
_0-2_08_DIM
 10
1715.9189225563396
 20
846.84296943754157
 41
3
 42
3
 50
0
  0
TEXT
  8
_0-5_0
 62
    7
 10
1712.0617796991967
 20
842.34296943754157
 40
9
 41
1
 50
0
  1
A
  0
INSERT
  2
-005-_DatumFilled
  8
_0-2_08_DIM
 10
1715.9189225563396
 20
817.95149891016479
 41
6
 42
6
 50
270
  0
LINE
  8
_0-2_08_DIM
  6
CONTINUOUS
 62
    3
 10
1715.9189225563396
 20
823.95149891016479
 11
1715.9189225563396
 21
837.84296943754157
  0
INSERT
  2
-003-_Open30
  8
_0-2_08_DIM
 10
1715.9189225563396
 20
762.95149891016479
 41
7.5
 42
7.5
 50
90
  0
LINE
  8
_0-2_08_DIM
  6
CONTINUOUS
 62
    3
 10
1715.9189225563396
 20
755.45149891016479
 11
1715.9189225563396
 21
735.36489386460732
  0
LINE
  8
_0-2_08_DIM
  6
CONTINUOUS
 62
    3
 10
1715.9189225563396
 20
735.36489386460732
 11
1730.312083045148
 21
735.36489386460732
  0
INSERT
  2
-003-_Open30
  8
_0-2_08_DIM
 10
1617.2370034693122
 20
874.46518870519049
 41
7.5
 42
7.5
 50
180
  0
LINE
  8
_0-2_08_DIM
  6
CONTINUOUS
 62
    3
 10
1624.7370034693122
 20
874.46518870519049
 11
1715.4148629029487
 21
874.46518870519049
  0
INSERT
  2
-003-_Open30
  8
_0-2_08_DIM
 10
1356.2370034730957
 20
874.46518870519049
 41
7.5
 42
7.5
 50
0
  0
LINE
  8
_0-2_08_DIM
  6
CONTINUOUS
 62
    3
 10
1348.7370034730957
 20
874.46518870519049
 11
1329.6943423599009
 21
874.46518870519049
  0
LINE
  8
_0-2_08_DIM
  6
CONTINUOUS
 62
    3
 10
1246.2370034605117
 20
1021.2042397135167
 11
1246.2370034605117
 21
951.22212978622315
  0
LINE
  8
_0-2_08_DIM
  6
CONTINUOUS
 62
    3
 10
1596.2370034604974
 20
1021.2042397135167
 11
1596.2370034604974
 21
951.22212978622315
  0
LINE
  8
_0-2_08_DIM
  6
CONTINUOUS
 62
    3
 10
1253.7370034605119
 20
954.97212978622304
 11
1588.7370034604974
 21
954.97212978622304
  0
INSERT
  2
-003-_Open30
  8
_0-2_08_DIM
 10
1246.2370034605117
 20
954.97212978622304
 41
7.5
 42
7.5
 50
180
  0
INSERT
  2
-003-_Open30
  8
_0-2_08_DIM
 10
1596.2370034604974
 20
954.97212978622304
 41
7.5
 42
7.5
 50
0
  0
LINE
  8
_0-2_08_DIM
  6
CONTINUOUS
 62
    3
 10
1641.2370034604974
 20
1012.7042397150509
 11
1641.2370034604974
 21
924.84063338129056
  0
LINE
  8
_0-2_08_DIM
  6
CONTINUOUS
 62
    3
 10
1201.2370034604974
 20
1012.7042397150509
 11
1201.2370034604974
 21
924.84063338129056
  0
LINE
  8
_0-2_08_DIM
  6
CONTINUOUS
 62
    3
 10
1633.7370034604974
 20
928.59063338129056
 11
1208.7370034604974
 21
928.59063338129056
  0
INSERT
  2
-003-_Open30
  8
_0-2_08_DIM
 10
1641.2370034604974
 20
928.59063338129056
 41
7.5
 42
7.5
 50
0
  0
INSERT
  2
-003-_Open30
  8
_0-2_08_DIM
 10
1201.2370034604974
 20
928.59063338129056
 41
7.5
 42
7.5
 50
180
  0
LINE
  8
_0-2_08_DIM
  6
CONTINUOUS
 62
    3
 10
1629.6120034604974
 20
1054.5792397135167
 11
1689.9264623799563
 21
1054.5792397135167
  0
LINE
  8
_0-2_08_DIM
  6
CONTINUOUS
 62
    3
 10
1629.6120034604974
 20
1304.5792397166488
 11
1689.9264623799563
 21
1304.5792397166488
  0
LINE
  8
_0-2_08_DIM
  6
CONTINUOUS
 62
    3
 10
1686.1764623799563
 20
1062.0792397135167
 11
1686.1764623799563
 21
1297.0792397166488
  0
INSERT
  2
-003-_Open30
  8
_0-2_08_DIM
 10
1686.1764623799563
 20
1054.5792397135167
 41
7.5
 42
7.5
 50
270
  0
INSERT
  2
-003-_Open30
  8
_0-2_08_DIM
 10
1686.1764623799563
 20
1304.5792397166488
 41
7.5
 42
7.5
 50
90
  0
LINE
  8
_0-2_08_DIM
  6
CONTINUOUS
 62
    3
 10
1638.1120034604974
 20
1349.5792397150512
 11
1717.4901508071534
 21
1349.5792397150512
  0
LINE
  8
_0-2_08_DIM
  6
CONTINUOUS
 62
    3
 10
1638.1120034604974
 20
1009.579239715051
 11
1717.4901508071534
 21
1009.579239715051
  0
LINE
  8
_0-2_08_DIM
  6
CONTINUOUS
 62
    3
 10
1713.7401508071534
 20
1342.079239715051
 11
1713.7401508071534
 21
1017.0792397150508
  0
INSERT
  2
-003-_Open30
  8
_0-2_08_DIM
 10
1713.7401508071534
 20
1349.5792397150512
 41
7.5
 42
7.5
 50
90
  0
INSERT
  2
-003-_Open30
  8
_0-2_08_DIM
 10
1713.7401508071534
 20
1009.579239715051
 41
7.5
 42
7.5
 50
270
  0
LINE
  8
_0-2_08_DIM
  6
CONTINUOUS
 62
    3
 10
1558.8932004375611
 20
1235.86347308528
 11
1527.0182004375611
 21
1235.86347308528
  0
LINE
  8
_0-2_08_DIM
  6
CONTINUOUS
 62
    3
 10
1527.0182004375611
 20
1235.86347308528
 11
1498.4829963242744
 21
1220.6804147181022
  0
LINE
  8
_0-2_08_DIM
  6
CONTINUOUS
 62
    3
 10
1343.9910106061116
 20
1138.478064697837
 11
1491.861911222067
 21
1217.1574568600904
  0
INSERT
  2
-003-_Open30
  8
_0-2_08_DIM
 10
1343.9910106061116
 20
1138.478064697837
 41
7.4999999999999991
 42
7.4999999999999991
 50
208.01662334088633
  0
INSERT
  2
-003-_Open30
  8
_0-2_08_DIM
 10
1498.4829963242744
 20
1220.6804147181022
 41
7.5000000000000009
 42
7.5000000000000009
 50
28.01662334088633
  0
TEXT
  8
_0-3_07_TEXT
 62
    3
 10
2074.3887278777624
 20
698.05396259120232
 40
9
 41
1
 50
0
  1
注記
  0
TEXT
  8
_0-3_07_TEXT
 62
    3
 10
2075.1087278777622
 20
681.31696259120235
 40
9
 41
1
 50
0
  1
　指示なき角部は
  0
TEXT
  8
_0-3_07_TEXT
 62
    3
 10
2172.0837278777622
 20
681.31696259120235
 40
9
 41
1
 50
0
  1
C0.5
  0
TEXT
  8
_0-3_07_TEXT
 62
    3
 10
2202.5122993063337
 20
681.31696259120235
 40
9
 41
1
 50
0
  1
のこと
  0
TEXT
  8
_0-3_07_TEXT
 62
    3
 10
866.13542438245418
 20
1401.5253128451445
 40
13.5
 41
1
 50
0
  1
表面処理：＊＊＊
  0
TEXT
  8
_0-2_08_DIM
 62
    3
 10
1167.6318236509819
 20
978.63454916975013
 40
9
 41
1
 50
44.999999999999936
  1
4-C5
  0
TEXT
  8
_0-2_08_DIM
 62
    3
 10
1446.3062877699952
 20
725.07649891016297
 40
9
 41
1
 50
90
  1
27.5
  0
TEXT
  8
_0-2_08_DIM
 62
    3
 10
1714.0314225563395
 20
781.88007033873646
 40
9
 41
1
 50
90
  1
55
  0
TEXT
  8
_0-2_08_DIM
 62
    3
 10
1625.1120034693122
 20
876.34018870519037
 40
9
 41
1
 50
0
  1
4-?42H7
  0
TEXT
  8
_0-2_08_DIM
 62
    3
 10
1622.1972891835978
 20
865.09018870519037
 40
9
 41
1
 50
0
  1
(
  0
TEXT
  8
_0-2_08_DIM
 62
    3
 10
1628.1972891835978
 20
865.09018870519037
 40
9
 41
1
 50
0
  1
両口元
  0
TEXT
  8
_0-2_08_DIM
 62
    3
 10
1667.4552891835979
 20
865.09018870519037
 40
9
 41
1
 50
0
  1
C1)
  0
TEXT
  8
_0-2_08_DIM
 62
    3
 10
1395.0941463280446
 20
876.34018870519037
 40
9
 41
1
 50
0
  1
M130x3
  0
TEXT
  8
_0-2_08_DIM
 62
    3
 10
1362.7764166572431
 20
827.14256251891675
 40
9
 41
1
 50
44.999999999973859
  1
C3
  0
TEXT
  8
_0-2_08_DIM
 62
    3
 10
1464.3142116327194
 20
743.68035750628519
 40
9
 41
1
 50
44.999999999973802
  1
C3
  0
TEXT
  8
_0-2_08_DIM
 62
    3
 10
1441.9691463217912
 20
987.79805810343646
 40
9
 41
1
 50
0
  1
?12
  0
TEXT
  8
_0-2_08_DIM
 62
    3
 10
1452.5838699134847
 20
1041.0078111450612
 40
9
 41
1
 50
90
  1
80
  0
TEXT
  8
_0-2_08_DIM
 62
    3
 10
1366.3798363821275
 20
737.59321200812428
 40
9
 41
1
 50
0
  1
M10
  0
TEXT
  8
_0-2_08_DIM
 62
    3
 10
1495.4953058026736
 20
1384.1860673986205
 40
9
 41
1
 50
0
  1
6-M10
  0
TEXT
  8
_0-2_08_DIM
 62
    3
 10
1542.6381629455309
 20
1384.1860673986205
 40
9
 41
1
 50
0
  1
深
  0
TEXT
  8
_0-2_08_DIM
 62
    3
 10
1555.7241629455309
 20
1384.1860673986205
 40
9
 41
1
 50
0
  1
20
  0
TEXT
  8
_0-2_08_DIM
 62
    3
 10
1505.0237343741021
 20
1367.7934245414779
 40
9
 41
1
 50
0
  1
(60°
  0
TEXT
  8
_0-2_08_DIM
 62
    3
 10
1531.5951629455308
 20
1367.7934245414779
 40
9
 41
1
 50
0
  1
等配
  0
TEXT
  8
_0-2_08_DIM
 62
    3
 10
1557.7671629455308
 20
1367.7934245414779
 40
9
 41
1
 50
0
  1
)
  0
TEXT
  8
_0-2_08_DIM
 62
    3
 10
1391.1298606033617
 20
957.03195121479473
 40
9
 41
1
 50
0
  1
350
  0
TEXT
  8
_0-2_08_DIM
 62
    3
 10
1416.8441463176475
 20
957.03195121479473
 40
7.5
 41
1
 50
0
  1
±0.05
  0
TEXT
  8
_0-2_08_DIM
 62
    3
 10
1408.3798606033545
 20
930.46563338129056
 40
9
 41
1
 50
0
  1
440
  0
TEXT
  8
_0-2_08_DIM
 62
    3
 10
1684.1166409513849
 20
1149.47209685794
 40
9
 41
1
 50
90
  1
250
  0
TEXT
  8
_0-2_08_DIM
 62
    3
 10
1684.1166409513849
 20
1175.1863825722255
 40
7.5
 41
1
 50
90
  1
±0.05
  0
TEXT
  8
_0-2_08_DIM
 62
    3
 10
1711.8651508071534
 20
1166.7220968579081
 40
9
 41
1
 50
90
  1
340
  0
TEXT
  8
_0-2_08_DIM
 62
    3
 10
1526.9646290089895
 20
1237.7447230852799
 40
9
 41
1
 50
0
  1
?175
  0
TEXT
  8
_0-0_90_FRAME
 62
    3
 10
901.48098068378124
 20
172.20383622830838
 40
9
 41
1
 50
0
  1
寺田
  0
TEXT
  8
_0-0_90_FRAME
 62
    3
 10
671.59616319167151
 20
172.20383622830838
 40
9
 41
0.6500000000000001
 50
0
  1
2013.09.01
  0
TEXT
  8
_0-0_90_FRAME
 62
    3
 10
731.57122523120415
 20
172.20383622830838
 40
9
 41
1
 50
0
  1
エアー抜き追加
  0
TEXT
  8
_0-8_
 62
    7
 10
1256.545826684194
 20
173.63089465295624
 40
20.48072483490845
 41
1
 50
0
  1
A3　150%
  0
TEXT
  8
_0-3_07_TEXT
 62
    3
 10
2083.5435869191024
 20
664.94274584705863
 40
9
 41
1
 50
0
  1
加工部及びネジ部は塗装不可
  0
ENDSEC
  0
EOF
