  0
SECTION
  2
HEADER
  9
$ACADVER
  1
AC1009
  9
$INSBASE
 10
0
 20
0
 30
0
  9
$EXTMIN
 10
0
 20
0
  9
$EXTMAX
 10
911.43360000000109
 20
644.51376000000084
  9
$LIMMIN
 10
0
 20
0
  9
$LIMMAX
 10
911.43360000000109
 20
644.51376000000084
  9
$LTSCALE
 40
2.1700800000000027
  0
ENDSEC
  0
SECTION
  2
TABLES
  0
TABLE
  2
LTYPE
 70
     9
  0
LTYPE
  2
CONTINUOUS
 70
    64
  3
Ä└É³
 72
    65
 73
     0
 40
0.0
  0
LTYPE
  2
DASHED1
 70
    64
  3
--  --  --  --  --  --  --  --  
 72
    65
 73
     2
 40
2.5
 49
1.25
 49
-1.25
  0
LTYPE
  2
DASHED2
 70
    64
  3
----    ----    ----    ----    
 72
    65
 73
     2
 40
5.0
 49
2.5
 49
-2.5
  0
LTYPE
  2
DASHED3
 70
    64
  3
------  ------  ------  ------  
 72
    65
 73
     2
 40
5.0
 49
3.75
 49
-1.25
  0
LTYPE
  2
CENTER1
 70
    64
  3
----- - ----- - ----- - ----- - 
 72
    65
 73
     4
 40
10.0
 49
6.25
 49
-1.25
 49
1.25
 49
-1.25
  0
LTYPE
  2
CENTER2
 70
    64
  3
----------  --  ----------  --  
 72
    65
 73
     4
 40
20.0
 49
12.5
 49
-2.5
 49
2.5
 49
-2.5
  0
LTYPE
  2
PHANTOM1
 70
    64
  3
--- - - --- - - --- - - --- - - 
 72
    65
 73
     6
 40
10.0
 49
3.25
 49
-1.25
 49
1.25
 49
-1.25
 49
1.25
 49
-1.25
  0
LTYPE
  2
PHANTOM2
 70
    64
  3
--------  -  -  --------  -  -  
 72
    65
 73
     6
 40
20.0
 49
10.0
 49
-2.5
 49
1.25
 49
-2.5
 49
1.25
 49
-2.5
  0
LTYPE
  2
DOT
 70
    64
  3
-   -   -   -   -   -   -   -   
 72
    65
 73
     2
 40
2.5
 49
0.625
 49
-1.875
  0
LTYPE
  2
DUMMY
 70
    64
  3
ā_ā~ü[
 72
    65
 73
     0
 40
0.0
  0
LTYPE
  2
RAND1
 70
    64
  3
āēāōā_āĆÉ³1
 72
    65
 73
     4
 40
10.0
 49
1.0
 49
-2.0
 49
3.0
 49
-4.0
  0
LTYPE
  2
RAND2
 70
    64
  3
āēāōā_āĆÉ³2
 72
    65
 73
     4
 40
14.0
 49
2.0
 49
-3.0
 49
4.0
 49
-5.0
  0
LTYPE
  2
RAND3
 70
    64
  3
āēāōā_āĆÉ³3
 72
    65
 73
     4
 40
18.0
 49
3.0
 49
-4.0
 49
5.0
 49
-6.0
  0
LTYPE
  2
RAND4
 70
    64
  3
āēāōā_āĆÉ³4
 72
    65
 73
     4
 40
22.0
 49
4.0
 49
-5.0
 49
6.0
 49
-7.0
  0
LTYPE
  2
RAND5
 70
    64
  3
āēāōā_āĆÉ³5
 72
    65
 73
     4
 40
26.0
 49
5.0
 49
-6.0
 49
7.0
 49
-8.0
  0
LTYPE
  2
LONG1
 70
    64
  3
----------  --  ----------  --  
 72
    65
 73
     4
 40
40.0
 49
32.5
 49
-2.5
 49
2.5
 49
-2.5
  0
LTYPE
  2
LONG2
 70
    64
  3
--------  -  -  --------  -  -  
 72
    65
 73
     6
 40
40.0
 49
30.0
 49
-2.5
 49
1.25
 49
-2.5
 49
1.25
 49
-2.5
  0
LTYPE
  2
LONG3
 70
    64
  3
+++++++++++++++..+++++++++++++++
 72
    65
 73
     2
 40
40.0
 49
37.5
 49
-2.5
  0
LTYPE
  2
LONG4
 70
    64
  3
+++++++++++++++..+++++++++++++++
 72
    65
 73
     2
 40
80.0
 49
75.0
 49
-5.0
  0
LTYPE
  2
LONG5
 70
    64
  3
----------  --  ----------  --  
 72
    65
 73
     4
 40
60.0
 49
37.5
 49
-7.5
 49
7.5
 49
-7.5
  0
LTYPE
  2
dashed
 70
   64
  3
-------   -------------   ------
 72
   65
 73
    2
 40
7.5
 49
6
 49
-1.5
  0
LTYPE
  2
dashed_spaced
 70
   64
  3
----        --------        ----
 72
   65
 73
    2
 40
12
 49
6
 49
-6
  0
LTYPE
  2
long_dashed_dotted
 70
   64
  3
------------- --- --------------
 72
   65
 73
    4
 40
15.25
 49
12
 49
-1.5
 49
0.25
 49
-1.5
  0
LTYPE
  2
long_dashed_double-dotted
 70
   64
  3
----------- --- --- ------------
 72
   65
 73
    6
 40
17
 49
12
 49
-1.5
 49
0.25
 49
-1.5
 49
0.25
 49
-1.5
  0
LTYPE
  2
long_dashed_triplicate-dotted
 70
   64
  3
--------- --- --- --- ----------
 72
   65
 73
    8
 40
18.75
 49
12
 49
-1.5
 49
0.25
 49
-1.5
 49
0.25
 49
-1.5
 49
0.25
 49
-1.5
  0
LTYPE
  2
dotted
 70
   64
  3
   -       -       -       -    
 72
   65
 73
    2
 40
1.75
 49
0.25
 49
-1.5
  0
LTYPE
  2
chain
 70
   64
  3
-------------- -- --------------
 72
   65
 73
    4
 40
18.5
 49
12
 49
-1.5
 49
3.5
 49
-1.5
  0
LTYPE
  2
chain_double_dash
 70
   64
  3
------------ -- -- -------------
 72
   65
 73
    6
 40
23.5
 49
12
 49
-1.5
 49
3.5
 49
-1.5
 49
3.5
 49
-1.5
  0
LTYPE
  2
dashed_dotted
 70
   64
  3
-----------     -     ----------
 72
   65
 73
    4
 40
9.25
 49
6
 49
-1.5
 49
0.25
 49
-1.5
  0
LTYPE
  2
double-dashed_dotted
 70
   64
  3
------   -----------   -   -----
 72
   65
 73
    6
 40
16.75
 49
6
 49
-1.5
 49
6
 49
-1.5
 49
0.25
 49
-1.5
  0
LTYPE
  2
dashed_double-dotted
 70
   64
  3
---------    -    -    ---------
 72
   65
 73
    6
 40
11
 49
6
 49
-1.5
 49
0.25
 49
-1.5
 49
0.25
 49
-1.5
  0
LTYPE
  2
double-dashed_double-dotted
 70
   64
  3
-----   ---------   -   -   ----
 72
   65
 73
    8
 40
18.5
 49
6
 49
-1.5
 49
6
 49
-1.5
 49
0.25
 49
-1.5
 49
0.25
 49
-1.5
  0
LTYPE
  2
dashed_triplicate-dotted
 70
   64
  3
-------    -    -    -    ------
 72
   65
 73
    8
 40
12.75
 49
6
 49
-1.5
 49
0.25
 49
-1.5
 49
0.25
 49
-1.5
 49
0.25
 49
-1.5
  0
LTYPE
  2
double-dashed_triplicate-dotted
 70
   64
  3
-----  ---------  -  -  -  -----
 72
   65
 73
   10
 40
20.25
 49
6
 49
-1.5
 49
6
 49
-1.5
 49
0.25
 49
-1.5
 49
0.25
 49
-1.5
 49
0.25
 49
-1.5
  0
LTYPE
  2
undefined
 70
   64
  3
--------------------------------
 72
   65
 73
    0
 40
0
  0
LTYPE
  2
_
 70
   64
  3
                                
 72
   65
 73
    0
 40
0
  0
LTYPE
  2
__18
 70
   64
  3
                                
 72
   65
 73
    0
 40
0
  0
LTYPE
  2
__19
 70
   64
  3
                                
 72
   65
 73
    0
 40
0
  0
LTYPE
  2
__20
 70
   64
  3
                                
 72
   65
 73
    0
 40
0
  0
LTYPE
  2
__21
 70
   64
  3
                                
 72
   65
 73
    0
 40
0
  0
LTYPE
  2
__22
 70
   64
  3
                                
 72
   65
 73
    0
 40
0
  0
LTYPE
  2
__23
 70
   64
  3
                                
 72
   65
 73
    0
 40
0
  0
LTYPE
  2
__24
 70
   64
  3
                                
 72
   65
 73
    0
 40
0
  0
LTYPE
  2
__25
 70
   64
  3
                                
 72
   65
 73
    0
 40
0
  0
LTYPE
  2
__26
 70
   64
  3
                                
 72
   65
 73
    0
 40
0
  0
LTYPE
  2
__27
 70
   64
  3
                                
 72
   65
 73
    0
 40
0
  0
LTYPE
  2
__28
 70
   64
  3
                                
 72
   65
 73
    0
 40
0
  0
LTYPE
  2
__29
 70
   64
  3
                                
 72
   65
 73
    0
 40
0
  0
LTYPE
  2
__30
 70
   64
  3
                                
 72
   65
 73
    0
 40
0
  0
LTYPE
  2
__31
 70
   64
  3
                                
 72
   65
 73
    0
 40
0
  0
LTYPE
  2
__32
 70
   64
  3
                                
 72
   65
 73
    0
 40
0
  0
ENDTAB
  0
TABLE
  2
STYLE
  5
3
100
AcDbSymbolTable
 70
     1
  0
STYLE
  5
10
100
AcDbSymbolTableRecord
100
AcDbTextStyleTableRecord
  2
STANDARD
 70
     0
 40
0.0
 41
1.0
 50
0.0
 71
     0
 42
0.2
  3
txt
  4
bigfont.shx
  0
STYLE
  5
26
100
AcDbSymbolTableRecord
100
AcDbTextStyleTableRecord
  2
TATEGAKI
 70
    68
 40
0.0
 41
1.0
 50
0.0
 71
     0
 42
1.0
  3
txt
  4
bigfont.shx
  0
ENDTAB
  0
TABLE
  2
LAYER
 70
   11
  0
LAYER
  2
_0-0_99_É}śg
 70
   64
 62
    7
  6
CONTINUOUS
  0
LAYER
  2
_0-1_Defpoints
 70
   64
 62
    7
  6
CONTINUOUS
  0
LAYER
  2
_0-2_0
 70
   64
 62
    7
  6
CONTINUOUS
  0
LAYER
  2
_0-3_02_ŹūÉ³
 70
   64
 62
    7
  6
CONTINUOUS
  0
LAYER
  2
_0-4_04_ÆåÉSÉ³
 70
   64
 62
    7
  6
CONTINUOUS
  0
LAYER
  2
_0-5_06_ĢČÄÜ
 70
   64
 62
    7
  6
CONTINUOUS
  0
LAYER
  2
_0-6_07_ÉĪ¢@É³
 70
   64
 62
    7
  6
CONTINUOUS
  0
LAYER
  2
_0-7_06_PHANTOM
 70
   64
 62
    7
  6
CONTINUOUS
  0
LAYER
  2
_0-8_01_ŖOī`É³
 70
   64
 62
    7
  6
CONTINUOUS
  0
LAYER
  2
_0-9_
 70
   64
 62
    7
  6
CONTINUOUS
  0
LAYER
  2
ADD_LINE
 70
   64
 62
    7
  6
CONTINUOUS
  0
ENDTAB
  0
ENDSEC
  0
SECTION
  2
BLOCKS
  0
BLOCK
  2
-000-_U1044
 70
   64
 10
0
 20
0
 30
0
  0
LINE
  8
_0-4_04_ÆåÉSÉ³
  6
CONTINUOUS
 62
    1
 10
-10.999999999999998
 20
0
 11
10.999999999999998
 21
0
  0
LINE
  8
_0-4_04_ÆåÉSÉ³
  6
CONTINUOUS
 62
    1
 10
0
 20
-10.999999999999998
 11
0
 21
10.999999999999998
  0
LINE
  8
_0-4_04_ÆåÉSÉ³
  6
CENTER2
 62
    1
 10
-113.49999999999999
 20
0
 11
-21.999999999999996
 21
0
  0
LINE
  8
_0-4_04_ÆåÉSÉ³
  6
CENTER2
 62
    1
 10
21.999999999999996
 20
0
 11
113.49999999999999
 21
0
  0
LINE
  8
_0-4_04_ÆåÉSÉ³
  6
CENTER2
 62
    1
 10
0
 20
-113.49999999999999
 11
0
 21
-21.999999999999996
  0
LINE
  8
_0-4_04_ÆåÉSÉ³
  6
CENTER2
 62
    1
 10
0
 20
21.999999999999996
 11
0
 21
113.49999999999999
  0
ENDBLK
  0
BLOCK
  2
-001-_U1045
 70
   64
 10
0
 20
0
 30
0
  0
LINE
  8
_0-4_04_ÆåÉSÉ³
  6
CONTINUOUS
 62
    1
 10
-0.6
 20
0
 11
0.6
 21
0
  0
LINE
  8
_0-4_04_ÆåÉSÉ³
  6
CONTINUOUS
 62
    1
 10
0
 20
-0.6
 11
0
 21
0.6
  0
LINE
  8
_0-4_04_ÆåÉSÉ³
  6
CENTER2
 62
    1
 10
-9.5
 20
0
 11
-1.1999999999999991
 21
0
  0
LINE
  8
_0-4_04_ÆåÉSÉ³
  6
CENTER2
 62
    1
 10
1.2000000000000002
 20
0
 11
9.5
 21
0
  0
LINE
  8
_0-4_04_ÆåÉSÉ³
  6
CENTER2
 62
    1
 10
0
 20
-9.5
 11
0
 21
-1.1999999999999991
  0
LINE
  8
_0-4_04_ÆåÉSÉ³
  6
CENTER2
 62
    1
 10
0
 20
1.2000000000000002
 11
0
 21
9.5
  0
ENDBLK
  0
BLOCK
  2
-002-_U1046
 70
   64
 10
0
 20
0
 30
0
  0
LINE
  8
_0-4_04_ÆåÉSÉ³
  6
CONTINUOUS
 62
    1
 10
-0.6
 20
0
 11
0.6
 21
0
  0
LINE
  8
_0-4_04_ÆåÉSÉ³
  6
CONTINUOUS
 62
    1
 10
0
 20
-0.6
 11
0
 21
0.6
  0
LINE
  8
_0-4_04_ÆåÉSÉ³
  6
CENTER2
 62
    1
 10
-9.5
 20
0
 11
-1.1999999999999991
 21
0
  0
LINE
  8
_0-4_04_ÆåÉSÉ³
  6
CENTER2
 62
    1
 10
1.2000000000000002
 20
0
 11
9.5
 21
0
  0
LINE
  8
_0-4_04_ÆåÉSÉ³
  6
CENTER2
 62
    1
 10
0
 20
-9.5
 11
0
 21
-1.1999999999999991
  0
LINE
  8
_0-4_04_ÆåÉSÉ³
  6
CENTER2
 62
    1
 10
0
 20
1.2000000000000002
 11
0
 21
9.5
  0
ENDBLK
  0
BLOCK
  2
-003-_U1047
 70
   64
 10
0
 20
0
 30
0
  0
LINE
  8
_0-4_04_ÆåÉSÉ³
  6
CONTINUOUS
 62
    1
 10
-0.6
 20
0
 11
0.6
 21
0
  0
LINE
  8
_0-4_04_ÆåÉSÉ³
  6
CONTINUOUS
 62
    1
 10
0
 20
-0.6
 11
0
 21
0.6
  0
LINE
  8
_0-4_04_ÆåÉSÉ³
  6
CENTER2
 62
    1
 10
-9.5
 20
0
 11
-1.1999999999999991
 21
0
  0
LINE
  8
_0-4_04_ÆåÉSÉ³
  6
CENTER2
 62
    1
 10
1.2000000000000002
 20
0
 11
9.5
 21
0
  0
LINE
  8
_0-4_04_ÆåÉSÉ³
  6
CENTER2
 62
    1
 10
0
 20
-9.5
 11
0
 21
-1.1999999999999991
  0
LINE
  8
_0-4_04_ÆåÉSÉ³
  6
CENTER2
 62
    1
 10
0
 20
1.2000000000000002
 11
0
 21
9.5
  0
ENDBLK
  0
BLOCK
  2
-004-_U1048
 70
   64
 10
0
 20
0
 30
0
  0
LINE
  8
_0-4_04_ÆåÉSÉ³
  6
CONTINUOUS
 62
    1
 10
-0.6
 20
0
 11
0.6
 21
0
  0
LINE
  8
_0-4_04_ÆåÉSÉ³
  6
CONTINUOUS
 62
    1
 10
0
 20
-0.6
 11
0
 21
0.6
  0
LINE
  8
_0-4_04_ÆåÉSÉ³
  6
CENTER2
 62
    1
 10
-9.5
 20
0
 11
-1.1999999999999991
 21
0
  0
LINE
  8
_0-4_04_ÆåÉSÉ³
  6
CENTER2
 62
    1
 10
1.2000000000000002
 20
0
 11
9.5
 21
0
  0
LINE
  8
_0-4_04_ÆåÉSÉ³
  6
CENTER2
 62
    1
 10
0
 20
-9.5
 11
0
 21
-1.1999999999999991
  0
LINE
  8
_0-4_04_ÆåÉSÉ³
  6
CENTER2
 62
    1
 10
0
 20
1.2000000000000002
 11
0
 21
9.5
  0
ENDBLK
  0
BLOCK
  2
-005-p1ba05
 70
   64
 10
0
 20
0
 30
0
  0
ARC
  8
_0-6_07_ÉĪ¢@É³
  6
CONTINUOUS
 62
    3
 10
0
 20
1.6206695983957431
 40
1.620669598395853
 50
204.2276373345332
 51
335.57577857182139
  0
ARC
  8
_0-6_07_ÉĪ¢@É³
  6
CONTINUOUS
 62
    3
 10
-2.9535588745990817
 20
0.2854771617432376
 40
1.620669598395853
 50
24.227637334533139
 51
155.5757785718213
  0
ENDBLK
  0
BLOCK
  2
-006-_Open30
 70
   64
 10
0
 20
0
 30
0
  0
LINE
  8
_0-6_07_ÉĪ¢@É³
  6
CONTINUOUS
 62
    3
 10
-0.9999999999999998
 20
0.2679491899999999
 11
0
 21
0
  0
LINE
  8
_0-6_07_ÉĪ¢@É³
  6
CONTINUOUS
 62
    3
 10
0
 20
0
 11
-0.9999999999999998
 21
-0.2679491899999999
  0
LINE
  8
_0-6_07_ÉĪ¢@É³
  6
CONTINUOUS
 62
    3
 10
0
 20
0
 11
-0.9999999999999998
 21
0
  0
ENDBLK
  0
BLOCK
  2
-007-AM_BALLOON1
 70
   64
 10
0
 20
0
 30
0
  0
CIRCLE
  8
_0-6_07_ÉĪ¢@É³
  6
CONTINUOUS
 62
    3
 10
0
 20
0
 40
5
  0
ENDBLK
  0
ENDSEC
  0
SECTION
  2
ENTITIES
  0
LINE
  8
_0-0_99_É}śg
  6
CONTINUOUS
 62
   18
 10
198.44408571647583
 20
130.03918714363456
 11
731.34694285718103
 21
130.03918714363456
  0
LINE
  8
_0-0_99_É}śg
  6
CONTINUOUS
 62
   18
 10
731.34694285718103
 20
130.03918714363456
 11
731.34694285718103
 21
514.47457285636801
  0
LINE
  8
_0-0_99_É}śg
  6
CONTINUOUS
 62
   18
 10
731.34694285718103
 20
514.47457285636801
 11
198.44408571647583
 21
514.47457285636801
  0
LINE
  8
_0-0_99_É}śg
  6
CONTINUOUS
 62
   18
 10
198.44408571647583
 20
514.47457285636801
 11
198.44408571647583
 21
130.03918714363456
  0
LINE
  8
_0-0_99_É}śg
  6
CONTINUOUS
 62
   18
 10
170.89380000230307
 20
322.25688000000042
 11
205.51551428787789
 21
322.25688000000042
  0
LINE
  8
_0-0_99_É}śg
  6
CONTINUOUS
 62
   18
 10
740.53980000000081
 20
322.25688000000042
 11
724.27551428578079
 21
322.25688000000042
  0
LINE
  8
_0-0_99_É}śg
  6
CONTINUOUS
 62
   18
 10
455.71680000115197
 20
523.66742999918597
 11
455.71680000115197
 21
507.40314428496595
  0
LINE
  8
_0-0_99_É}śg
  6
CONTINUOUS
 62
   18
 10
455.71680000115197
 20
120.88742999918715
 11
455.71680000115197
 21
137.11061571503481
  0
LINE
  8
_0-0_99_É}śg
  6
CONTINUOUS
 62
   18
 10
385.00251428715126
 20
125.79633000079367
 11
526.43108571515256
 21
125.79633000079367
  0
LINE
  8
_0-0_99_É}śg
  6
CONTINUOUS
 62
   18
 10
385.00251428715126
 20
125.79633000079367
 11
385.00251428715126
 21
130.03918714363456
  0
LINE
  8
_0-0_99_É}śg
  6
CONTINUOUS
 62
   18
 10
399.14537142995175
 20
125.79633000079367
 11
399.14537142995175
 21
130.03918714363456
  0
LINE
  8
_0-0_99_É}śg
  6
CONTINUOUS
 62
   18
 10
413.2882285727523
 20
125.79633000079367
 11
413.2882285727523
 21
130.03918714363456
  0
LINE
  8
_0-0_99_É}śg
  6
CONTINUOUS
 62
   18
 10
427.43108571555092
 20
125.79633000079367
 11
427.43108571555092
 21
130.03918714363456
  0
LINE
  8
_0-0_99_É}śg
  6
CONTINUOUS
 62
   18
 10
441.57394285835142
 20
125.79633000079367
 11
441.57394285835142
 21
130.03918714363456
  0
LINE
  8
_0-0_99_É}śg
  6
CONTINUOUS
 62
   18
 10
469.85965714395064
 20
125.79633000079367
 11
469.85965714395064
 21
130.03918714363456
  0
LINE
  8
_0-0_99_É}śg
  6
CONTINUOUS
 62
   18
 10
484.00251428675108
 20
125.79633000079367
 11
484.00251428675108
 21
130.03918714363456
  0
LINE
  8
_0-0_99_É}śg
  6
CONTINUOUS
 62
   18
 10
498.14537142955163
 20
125.79633000079367
 11
498.14537142955163
 21
130.03918714363456
  0
LINE
  8
_0-0_99_É}śg
  6
CONTINUOUS
 62
   18
 10
512.28822857235207
 20
125.79633000079367
 11
512.28822857235207
 21
130.03918714363456
  0
LINE
  8
_0-0_99_É}śg
  6
CONTINUOUS
 62
   18
 10
526.43108571515256
 20
125.79633000079367
 11
526.43108571515256
 21
130.03918714363456
  0
LINE
  8
_0-0_99_É}śg
  6
CONTINUOUS
 62
   18
 10
313.30530000172661
 20
514.47457285636801
 11
313.30530000172661
 21
523.66742999918597
  0
TEXT
  8
_0-0_99_É}śg
 62
    7
 10
205.47485817964534
 20
515.34242999922162
 40
4.2428571428400002
 41
1
 50
0
  1
1
  0
TEXT
  8
_0-0_99_É}śg
 62
    7
 10
240.55669285916392
 20
515.34242999922162
 40
4.2428571428400002
 41
1
 50
0
  1
2
  0
TEXT
  8
_0-0_99_É}śg
 62
    7
 10
288.02719285897234
 20
515.34242999922162
 40
4.2428571428400002
 41
1
 50
0
  1
3
  0
TEXT
  8
_0-0_99_É}śg
 62
    7
 10
335.49769285877898
 20
515.34242999922162
 40
4.2428571428400002
 41
1
 50
0
  1
4
  0
TEXT
  8
_0-0_99_É}śg
 62
    7
 10
382.96819285858925
 20
515.34242999922162
 40
4.2428571428400002
 41
1
 50
0
  1
5
  0
TEXT
  8
_0-0_99_É}śg
 62
    7
 10
430.43869285839588
 20
515.34242999922162
 40
4.2428571428400002
 41
1
 50
0
  1
6
  0
TEXT
  8
_0-0_99_É}śg
 62
    7
 10
477.90919285820434
 20
515.34242999922162
 40
4.2428571428400002
 41
1
 50
0
  1
7
  0
TEXT
  8
_0-0_99_É}śg
 62
    7
 10
525.37969285801285
 20
515.34242999922162
 40
4.2428571428400002
 41
1
 50
0
  1
8
  0
TEXT
  8
_0-0_99_É}śg
 62
    7
 10
572.85019285782118
 20
515.34242999922162
 40
4.2428571428400002
 41
1
 50
0
  1
9
  0
TEXT
  8
_0-0_99_É}śg
 62
    7
 10
618.7778357147788
 20
515.34242999922162
 40
4.2428571428400002
 41
1
 50
0
  1
10
  0
TEXT
  8
_0-0_99_É}śg
 62
    7
 10
666.24833571458544
 20
515.34242999922162
 40
4.2428571428400002
 41
1
 50
0
  1
11
  0
TEXT
  8
_0-0_99_É}śg
 62
    7
 10
713.71883571439389
 20
515.34242999922162
 40
4.2428571428400002
 41
1
 50
0
  1
12
  0
TEXT
  8
_0-0_99_É}śg
 62
    7
 10
732.76122857146072
 20
446.01704517807133
 40
4.2428571428400002
 41
1
 50
0
  1
B
  0
LINE
  8
_0-0_99_É}śg
  6
CONTINUOUS
 62
   18
 10
198.44408571647583
 20
130.03918714363456
 11
311.58694285887617
 21
130.03918714363456
  0
LINE
  8
_0-0_99_É}śg
  6
CONTINUOUS
 62
   18
 10
311.58694285887617
 20
130.03918714363456
 11
311.58694285887617
 21
158.32490142923373
  0
LINE
  8
_0-0_99_É}śg
  6
CONTINUOUS
 62
   18
 10
311.58694285887617
 20
158.32490142923373
 11
198.44408571647583
 21
158.32490142923373
  0
LINE
  8
_0-0_99_É}śg
  6
CONTINUOUS
 62
   18
 10
198.44408571647583
 20
158.32490142923373
 11
198.44408571647583
 21
130.03918714363456
  0
LINE
  8
_0-0_99_É}śg
  6
CONTINUOUS
 62
   18
 10
294.61551428751625
 20
130.03918714363456
 11
294.61551428751625
 21
158.32490142923373
  0
LINE
  8
_0-0_99_É}śg
  6
CONTINUOUS
 62
   18
 10
215.41551428783569
 20
130.03918714363456
 11
215.41551428783569
 21
158.32490142923373
  0
LINE
  8
_0-0_99_É}śg
  6
CONTINUOUS
 62
   18
 10
232.38694285919553
 20
130.03918714363456
 11
232.38694285919553
 21
158.32490142923373
  0
LINE
  8
_0-0_99_É}śg
  6
CONTINUOUS
 62
   18
 10
198.44408571647583
 20
151.25347285783528
 11
311.58694285887617
 21
151.25347285783528
  0
LINE
  8
_0-0_99_É}śg
  6
CONTINUOUS
 62
   18
 10
198.44408571647583
 20
144.18204428643324
 11
311.58694285887617
 21
144.18204428643324
  0
LINE
  8
_0-0_99_É}śg
  6
CONTINUOUS
 62
   18
 10
198.44408571647583
 20
137.11061571503481
 11
311.58694285887617
 21
137.11061571503481
  0
TEXT
  8
_0-0_99_É}śg
 62
    7
 10
202.8155142878885
 20
153.37490142925449
 40
2.8285714285600001
 41
1
 50
0
  1
ŗLŹå
  0
TEXT
  8
_0-0_99_É}śg
 62
    7
 10
219.78694285924837
 20
153.37490142925449
 40
2.8285714285600001
 41
1
 50
0
  1
ō·Ģt
  0
TEXT
  8
_0-0_99_É}śg
 62
    7
 10
296.92980000179256
 20
153.37490142925449
 40
2.8285714285600001
 41
1
 50
0
  1
ŹņÉ¼Äę
  0
TEXT
  8
_0-0_99_É}śg
 62
    7
 10
255.27265714481771
 20
153.32668714354043
 40
2.8285714285600001
 41
1
 50
0
  1
ē³Æ∙ōÓŚe
  0
LINE
  8
_0-0_99_É}śg
  6
CONTINUOUS
 62
   18
 10
203.74765714502647
 20
137.86167369488749
 11
206.92980000215758
 21
143.37330680037806
  0
LINE
  8
_0-0_99_É}śg
  6
CONTINUOUS
 62
   18
 10
206.92980000215758
 20
143.37330680037806
 11
210.11194285928687
 21
137.86167369488749
  0
LINE
  8
_0-0_99_É}śg
  6
CONTINUOUS
 62
   18
 10
210.11194285928687
 20
137.86167369488749
 11
203.74765714502647
 21
137.86167369488749
  0
TEXT
  8
_0-0_99_É}śg
 62
    7
 10
206.24060493326985
 20
145.96067010223581
 40
2.1214285714200001
 41
1
 50
0
  1
1
  0
TEXT
  8
_0-0_99_É}śg
 62
    7
 10
206.24060493326985
 20
138.88924153083553
 40
2.1214285714200001
 41
1
 50
0
  1
2
  0
TEXT
  8
_0-0_99_É}śg
 62
    7
 10
206.24060493326985
 20
131.81781295943529
 40
2.1214285714200001
 41
1
 50
0
  1
3
  0
LINE
  8
_0-0_99_É}śg
  6
CONTINUOUS
 62
   18
 10
203.74765714502647
 20
144.93310226628776
 11
206.92980000215758
 21
150.44473537178013
  0
LINE
  8
_0-0_99_É}śg
  6
CONTINUOUS
 62
   18
 10
206.92980000215758
 20
150.44473537178013
 11
210.11194285928687
 21
144.93310226628776
  0
LINE
  8
_0-0_99_É}śg
  6
CONTINUOUS
 62
   18
 10
210.11194285928687
 20
144.93310226628776
 11
203.74765714502647
 21
144.93310226628776
  0
LINE
  8
_0-0_99_É}śg
  6
CONTINUOUS
 62
   18
 10
203.74765714502647
 20
130.79024512348727
 11
206.92980000215758
 21
136.3018782289796
  0
LINE
  8
_0-0_99_É}śg
  6
CONTINUOUS
 62
   18
 10
206.92980000215758
 20
136.3018782289796
 11
210.11194285928687
 21
130.79024512348727
  0
LINE
  8
_0-0_99_É}śg
  6
CONTINUOUS
 62
   18
 10
210.11194285928687
 20
130.79024512348727
 11
203.74765714502647
 21
130.79024512348727
  0
LINE
  8
_0-0_99_É}śg
  6
CONTINUOUS
 62
   18
 10
740.53980000000081
 20
221.55160500040759
 11
731.34694285718103
 21
221.55160500040759
  0
LINE
  8
_0-0_99_É}śg
  6
CONTINUOUS
 62
   18
 10
740.53980000000081
 20
271.90424250020396
 11
731.34694285718103
 21
271.90424250020396
  0
LINE
  8
_0-0_99_É}śg
  6
CONTINUOUS
 62
   18
 10
740.53980000000081
 20
171.19896750061119
 11
731.34694285718103
 21
171.19896750061119
  0
LINE
  8
_0-0_99_É}śg
  6
CONTINUOUS
 62
   18
 10
740.53980000000081
 20
422.96215499959317
 11
731.34694285718103
 21
422.96215499959317
  0
LINE
  8
_0-0_99_É}śg
  6
CONTINUOUS
 62
   18
 10
740.53980000000081
 20
372.60951749979682
 11
731.34694285718103
 21
372.60951749979682
  0
LINE
  8
_0-0_99_É}śg
  6
CONTINUOUS
 62
   18
 10
740.53980000000081
 20
473.31479249938957
 11
731.34694285718103
 21
473.31479249938957
  0
TEXT
  8
_0-0_99_É}śg
 62
    7
 10
732.76122857146072
 20
496.36968267786779
 40
4.2428571428400002
 41
1
 50
0
  1
A
  0
TEXT
  8
_0-0_99_É}śg
 62
    7
 10
732.76122857146072
 20
395.66440767827504
 40
4.2428571428400002
 41
1
 50
0
  1
C
  0
TEXT
  8
_0-0_99_É}śg
 62
    7
 10
732.76122857146072
 20
345.31177017847853
 40
4.2428571428400002
 41
1
 50
0
  1
D
  0
TEXT
  8
_0-0_99_É}śg
 62
    7
 10
732.76122857146072
 20
244.60649517888578
 40
4.2428571428400002
 41
1
 50
0
  1
F
  0
TEXT
  8
_0-0_99_É}śg
 62
    7
 10
732.76122857146072
 20
194.25385767908941
 40
4.2428571428400002
 41
1
 50
0
  1
G
  0
TEXT
  8
_0-0_99_É}śg
 62
    7
 10
732.76122857146072
 20
143.90122017929301
 40
4.2428571428400002
 41
1
 50
0
  1
H
  0
TEXT
  8
_0-0_99_É}śg
 62
    7
 10
732.76122857146072
 20
294.95913267868218
 40
4.2428571428400002
 41
1
 50
0
  1
E
  0
TEXT
  8
_0-0_99_É}śg
 62
    7
 10
192.78694285935708
 20
446.01704517807133
 40
4.2428571428400002
 41
1
 50
0
  1
B
  0
LINE
  8
_0-0_99_É}śg
  6
CONTINUOUS
 62
   18
 10
198.44408571647583
 20
221.55160500040759
 11
189.25122857365787
 21
221.55160500040759
  0
LINE
  8
_0-0_99_É}śg
  6
CONTINUOUS
 62
   18
 10
198.44408571647583
 20
271.90424250020396
 11
189.25122857365787
 21
271.90424250020396
  0
LINE
  8
_0-0_99_É}śg
  6
CONTINUOUS
 62
   18
 10
198.44408571647583
 20
171.19896750061119
 11
189.25122857365787
 21
171.19896750061119
  0
LINE
  8
_0-0_99_É}śg
  6
CONTINUOUS
 62
   18
 10
198.44408571647583
 20
422.96215499959317
 11
189.25122857365787
 21
422.96215499959317
  0
LINE
  8
_0-0_99_É}śg
  6
CONTINUOUS
 62
   18
 10
198.44408571647583
 20
372.60951749979682
 11
189.25122857365787
 21
372.60951749979682
  0
LINE
  8
_0-0_99_É}śg
  6
CONTINUOUS
 62
   18
 10
198.44408571647583
 20
473.31479249938957
 11
189.25122857365787
 21
473.31479249938957
  0
TEXT
  8
_0-0_99_É}śg
 62
    7
 10
192.78694285935708
 20
496.36968267786779
 40
4.2428571428400002
 41
1
 50
0
  1
A
  0
TEXT
  8
_0-0_99_É}śg
 62
    7
 10
192.78694285935708
 20
395.66440767827504
 40
4.2428571428400002
 41
1
 50
0
  1
C
  0
TEXT
  8
_0-0_99_É}śg
 62
    7
 10
192.78694285935708
 20
345.31177017847853
 40
4.2428571428400002
 41
1
 50
0
  1
D
  0
TEXT
  8
_0-0_99_É}śg
 62
    7
 10
192.78694285935708
 20
244.60649517888578
 40
4.2428571428400002
 41
1
 50
0
  1
F
  0
TEXT
  8
_0-0_99_É}śg
 62
    7
 10
192.78694285935708
 20
194.25385767908941
 40
4.2428571428400002
 41
1
 50
0
  1
G
  0
TEXT
  8
_0-0_99_É}śg
 62
    7
 10
192.78694285935708
 20
294.95913267868218
 40
4.2428571428400002
 41
1
 50
0
  1
E
  0
TEXT
  8
_0-0_99_É}śg
 62
    7
 10
192.78694285935708
 20
143.90122017929301
 40
4.2428571428400002
 41
1
 50
0
  1
H
  0
LINE
  8
_0-0_99_É}śg
  6
CONTINUOUS
 62
   18
 10
598.12830000057545
 20
514.47457285636801
 11
598.12830000057545
 21
523.66742999918597
  0
LINE
  8
_0-0_99_É}śg
  6
CONTINUOUS
 62
   18
 10
265.8348000019181
 20
514.47457285636801
 11
265.8348000019181
 21
523.66742999918597
  0
LINE
  8
_0-0_99_É}śg
  6
CONTINUOUS
 62
   18
 10
218.3643000021097
 20
514.47457285636801
 11
218.3643000021097
 21
523.66742999918597
  0
LINE
  8
_0-0_99_É}śg
  6
CONTINUOUS
 62
   18
 10
360.77580000153506
 20
514.47457285636801
 11
360.77580000153506
 21
523.66742999918597
  0
LINE
  8
_0-0_99_É}śg
  6
CONTINUOUS
 62
   18
 10
408.24630000134346
 20
514.47457285636801
 11
408.24630000134346
 21
523.66742999918597
  0
LINE
  8
_0-0_99_É}śg
  6
CONTINUOUS
 62
   18
 10
598.12830000057545
 20
514.47457285636801
 11
598.12830000057545
 21
523.66742999918597
  0
LINE
  8
_0-0_99_É}śg
  6
CONTINUOUS
 62
   18
 10
645.5988000003839
 20
514.47457285636801
 11
645.5988000003839
 21
523.66742999918597
  0
LINE
  8
_0-0_99_É}śg
  6
CONTINUOUS
 62
   18
 10
693.06930000019236
 20
514.47457285636801
 11
693.06930000019236
 21
523.66742999918597
  0
LINE
  8
_0-0_99_É}śg
  6
CONTINUOUS
 62
   18
 10
550.657800000767
 20
514.47457285636801
 11
550.657800000767
 21
523.66742999918597
  0
LINE
  8
_0-0_99_É}śg
  6
CONTINUOUS
 62
   18
 10
503.18730000096036
 20
514.47457285636801
 11
503.18730000096036
 21
523.66742999918597
  0
LINE
  8
_0-0_99_É}śg
  6
CONTINUOUS
 62
   18
 10
313.30530000172661
 20
120.88742999918715
 11
313.30530000172661
 21
130.03918714363456
  0
LINE
  8
_0-0_99_É}śg
  6
CONTINUOUS
 62
   18
 10
598.12830000057545
 20
120.84633000081479
 11
598.12830000057545
 21
130.03918714363456
  0
LINE
  8
_0-0_99_É}śg
  6
CONTINUOUS
 62
   18
 10
265.8348000019181
 20
120.88742999918715
 11
265.8348000019181
 21
130.03918714363456
  0
LINE
  8
_0-0_99_É}śg
  6
CONTINUOUS
 62
   18
 10
218.3643000021097
 20
120.88742999918715
 11
218.3643000021097
 21
130.03918714363456
  0
LINE
  8
_0-0_99_É}śg
  6
CONTINUOUS
 62
   18
 10
360.77580000153506
 20
120.88742999918715
 11
360.77580000153506
 21
130.03918714363456
  0
LINE
  8
_0-0_99_É}śg
  6
CONTINUOUS
 62
   18
 10
598.12830000057545
 20
120.88742999918715
 11
598.12830000057545
 21
130.03918714363456
  0
LINE
  8
_0-0_99_É}śg
  6
CONTINUOUS
 62
   18
 10
645.5988000003839
 20
120.88742999918715
 11
645.5988000003839
 21
130.03918714363456
  0
LINE
  8
_0-0_99_É}śg
  6
CONTINUOUS
 62
   18
 10
693.06930000019236
 20
120.88742999918715
 11
693.06930000019236
 21
130.03918714363456
  0
LINE
  8
_0-0_99_É}śg
  6
CONTINUOUS
 62
   18
 10
550.657800000767
 20
120.88742999918715
 11
550.657800000767
 21
130.03918714363456
  0
LINE
  8
_0-1_Defpoints
  6
CONTINUOUS
 62
   18
 10
170.8938000000002
 20
120.88742999918715
 11
740.53980000000081
 21
120.88742999918715
  0
LINE
  8
_0-1_Defpoints
  6
CONTINUOUS
 62
   18
 10
740.53980000000081
 20
120.88742999918715
 11
740.53980000000081
 21
523.66742999918597
  0
LINE
  8
_0-1_Defpoints
  6
CONTINUOUS
 62
   18
 10
740.53980000000081
 20
523.66742999918597
 11
170.8938000000002
 21
523.66742999918597
  0
LINE
  8
_0-1_Defpoints
  6
CONTINUOUS
 62
   18
 10
170.8938000000002
 20
523.66742999918597
 11
170.8938000000002
 21
120.88742999918715
  0
LINE
  8
_0-0_99_É}śg
  6
CONTINUOUS
 62
   18
 10
533.34694285798048
 20
130.03918714363456
 11
731.34694285718103
 21
130.03918714363456
  0
LINE
  8
_0-0_99_É}śg
  6
CONTINUOUS
 62
   18
 10
731.34694285718103
 20
130.03918714363456
 11
731.34694285718103
 21
166.81061571491364
  0
LINE
  8
_0-0_99_É}śg
  6
CONTINUOUS
 62
   18
 10
731.34694285718103
 20
166.81061571491364
 11
533.34694285798048
 21
166.81061571491364
  0
LINE
  8
_0-0_99_É}śg
  6
CONTINUOUS
 62
   18
 10
533.34694285798048
 20
166.81061571491364
 11
533.34694285798048
 21
130.03918714363456
  0
LINE
  8
_0-0_99_É}śg
  6
CONTINUOUS
 62
   18
 10
548.93944285791838
 20
160.44633000065326
 11
558.839442857878
 21
162.9213300006445
  0
LINE
  8
_0-0_99_É}śg
  6
CONTINUOUS
 62
   18
 10
558.839442857878
 20
162.9213300006445
 11
558.839442857878
 21
153.02133000068488
  0
LINE
  8
_0-0_99_É}śg
  6
CONTINUOUS
 62
   18
 10
558.839442857878
 20
153.02133000068488
 11
548.93944285791838
 21
155.49633000067436
  0
LINE
  8
_0-0_99_É}śg
  6
CONTINUOUS
 62
   18
 10
548.93944285791838
 20
155.49633000067436
 11
548.93944285791838
 21
160.44633000065326
  0
CIRCLE
  8
_0-0_99_É}śg
  6
CONTINUOUS
 62
   18
 10
542.50444285794345
 20
157.97133000066381
 40
2.4749999999899996
  0
CIRCLE
  8
_0-0_99_É}śg
  6
CONTINUOUS
 62
   18
 10
542.50444285794345
 20
157.97133000066381
 40
4.9499999999799993
  0
LINE
  8
_0-0_99_É}śg
  6
CONTINUOUS
 62
   18
 10
536.56444285796749
 20
157.97133000066381
 11
559.82944285787335
 21
157.97133000066381
  0
LINE
  8
_0-0_99_É}śg
  6
CONTINUOUS
 62
   18
 10
542.50444285794345
 20
152.03133000068877
 11
542.50444285794345
 21
163.91133000064067
  0
LINE
  8
_0-0_99_É}śg
  6
CONTINUOUS
 62
   18
 10
614.45408571478072
 20
130.03918714363456
 11
614.45408571478072
 21
166.81061571491364
  0
LINE
  8
_0-0_99_É}śg
  6
CONTINUOUS
 62
   18
 10
614.45408571478072
 20
141.35347285787384
 11
731.34694285718103
 21
141.35347285787384
  0
TEXT
  8
_0-0_99_É}śg
 62
    7
 10
614.96112747221139
 20
137.83551261110145
 40
2.5
 41
1
 50
0
  1
Źņ É¼ ō·
  0
LINE
  8
_0-0_99_É}śg
  6
CONTINUOUS
 62
   18
 10
683.58980000022018
 20
141.35347285787384
 11
683.58980000022018
 21
130.03918714363456
  0
TEXT
  8
_0-0_99_É}śg
 62
    7
 10
684.18352174710378
 20
137.76637167628681
 40
2.5
 41
1
 50
0
  1
ī┬Éö
  0
TEXT
  8
_0-0_99_É}śg
 62
    7
 10
591.07403295718393
 20
163.53284762873
 40
2.5
 41
1
 50
0
  1
āTāCāY
  0
TEXT
  8
_0-0_99_É}śg
 62
    7
 10
563.4954615287246
 20
163.34639379632202
 40
2.5
 41
1
 50
0
  1
Ä┌ü@ōx
  0
TEXT
  8
_0-0_99_É}śg
 62
    7
 10
591.07404819360318
 20
145.85427620023032
 40
2.5
 41
1
 50
0
  1
É╗ü@É}
  0
LINE
  8
_0-0_99_É}śg
  6
CONTINUOUS
 62
   18
 10
614.45408571478072
 20
149.13204428641393
 11
533.34694285798048
 21
149.13204428641393
  0
LINE
  8
_0-0_99_É}śg
  6
CONTINUOUS
 62
   18
 10
652.21598628909874
 20
152.66775857211317
 11
731.34694285718103
 21
152.66775857211317
  0
TEXT
  8
_0-0_99_É}śg
 62
    7
 10
596.77275454600476
 20
152.40956052015338
 40
7
 41
1
 50
0
  1
A2
  0
LINE
  8
_0-0_99_É}śg
  6
CONTINUOUS
 62
   18
 10
590.62551428632059
 20
130.03918714363456
 11
590.62551428632059
 21
166.81061571491364
  0
TEXT
  8
_0-0_99_É}śg
 62
    7
 10
550.47005186571323
 20
133.05967969103608
 40
6.3846514285456299
 41
1
 50
0
  1
āA
  0
LINE
  8
_0-0_99_É}śg
  6
CONTINUOUS
 62
   18
 10
549.30401452104195
 20
146.71032506366601
 11
549.30401452104195
 21
131.91714650972565
  0
LINE
  8
_0-0_99_É}śg
  6
CONTINUOUS
 62
   18
 10
549.30401452104195
 20
131.91714650972565
 11
535.85567038109582
 21
131.91714650972565
  0
LINE
  8
_0-0_99_É}śg
  6
CONTINUOUS
 62
   18
 10
535.85567038109582
 20
131.91714650972565
 11
535.85567038109582
 21
146.71032506366601
  0
LINE
  8
_0-0_99_É}śg
  6
CONTINUOUS
 62
   18
 10
535.91971011509565
 20
146.64628532966483
 11
535.91971011509565
 21
146.64628532966483
  0
LINE
  8
_0-0_99_É}śg
  6
CONTINUOUS
 62
   18
 10
535.91971011509565
 20
146.64628532966483
 11
535.95278896859816
 21
146.31267383644493
  0
LINE
  8
_0-0_99_É}śg
  6
CONTINUOUS
 62
   18
 10
535.95278896859816
 20
146.31267383644493
 11
536.05102044488081
 21
145.98919895963095
  0
LINE
  8
_0-0_99_É}śg
  6
CONTINUOUS
 62
   18
 10
536.05102044488081
 20
145.98919895963095
 11
536.21141983024415
 21
145.68568931966871
  0
LINE
  8
_0-0_99_É}śg
  6
CONTINUOUS
 62
   18
 10
536.21141983024415
 20
145.68568931966871
 11
536.42911347052996
 21
145.41136690338516
  0
LINE
  8
_0-0_99_É}śg
  6
CONTINUOUS
 62
   18
 10
536.42911347052996
 20
145.41136690338516
 11
536.69748685463651
 21
145.17456685858525
  0
LINE
  8
_0-0_99_É}śg
  6
CONTINUOUS
 62
   18
 10
536.69748685463651
 20
145.17456685858525
 11
537.00838559309125
 21
144.98248423480362
  0
LINE
  8
_0-0_99_É}śg
  6
CONTINUOUS
 62
   18
 10
537.00838559309125
 20
144.98248423480362
 11
537.35236318504849
 21
144.84095536536535
  0
LINE
  8
_0-0_99_É}śg
  6
CONTINUOUS
 62
   18
 10
537.35236318504849
 20
144.84095536536535
 11
537.71896804543758
 21
144.75428053335131
  0
LINE
  8
_0-0_99_É}śg
  6
CONTINUOUS
 62
   18
 10
537.71896804543758
 20
144.75428053335131
 11
538.09706107108684
 21
144.72509330967259
  0
LINE
  8
_0-0_99_É}śg
  6
CONTINUOUS
 62
   18
 10
538.09706107108684
 20
144.72509330967259
 11
538.47515409673611
 21
144.75428053335131
  0
LINE
  8
_0-0_99_É}śg
  6
CONTINUOUS
 62
   18
 10
538.47515409673611
 20
144.75428053335131
 11
538.84175895712519
 21
144.84095536536535
  0
LINE
  8
_0-0_99_É}śg
  6
CONTINUOUS
 62
   18
 10
538.84175895712519
 20
144.84095536536535
 11
539.18573654908243
 21
144.98248423480362
  0
LINE
  8
_0-0_99_É}śg
  6
CONTINUOUS
 62
   18
 10
539.18573654908243
 20
144.98248423480362
 11
539.49663528753717
 21
145.17456685858525
  0
LINE
  8
_0-0_99_É}śg
  6
CONTINUOUS
 62
   18
 10
539.49663528753717
 20
145.17456685858525
 11
539.76500867164373
 21
145.41136690338516
  0
LINE
  8
_0-0_99_É}śg
  6
CONTINUOUS
 62
   18
 10
539.76500867164373
 20
145.41136690338516
 11
539.98270231192953
 21
145.68568931966871
  0
LINE
  8
_0-0_99_É}śg
  6
CONTINUOUS
 62
   18
 10
539.98270231192953
 20
145.68568931966871
 11
540.14310169729288
 21
145.98919895963095
  0
LINE
  8
_0-0_99_É}śg
  6
CONTINUOUS
 62
   18
 10
540.14310169729288
 20
145.98919895963095
 11
540.24133317357553
 21
146.31267383644493
  0
LINE
  8
_0-0_99_É}śg
  6
CONTINUOUS
 62
   18
 10
540.24133317357553
 20
146.31267383644493
 11
540.27441202707803
 21
146.64628532966483
  0
LINE
  8
_0-0_99_É}śg
  6
CONTINUOUS
 62
   18
 10
540.27441202707803
 20
146.64628532966483
 11
540.27441202707803
 21
146.64628532966483
  0
ARC
  8
_0-0_99_É}śg
  6
CONTINUOUS
 62
   18
 10
540.33845176107786
 20
146.64628532966483
 40
0.0640397339997412
 50
0
 51
180
  0
LINE
  8
_0-0_99_É}śg
  6
CONTINUOUS
 62
   18
 10
540.4024914950777
 20
146.64628532966483
 11
540.4024914950777
 21
146.64628532966483
  0
LINE
  8
_0-0_99_É}śg
  6
CONTINUOUS
 62
   18
 10
540.4024914950777
 20
146.64628532966483
 11
540.4355703485802
 21
146.31267383644493
  0
LINE
  8
_0-0_99_É}śg
  6
CONTINUOUS
 62
   18
 10
540.4355703485802
 20
146.31267383644493
 11
540.53380182486285
 21
145.98919895963095
  0
LINE
  8
_0-0_99_É}śg
  6
CONTINUOUS
 62
   18
 10
540.53380182486285
 20
145.98919895963095
 11
540.6942012102262
 21
145.68568931966871
  0
LINE
  8
_0-0_99_É}śg
  6
CONTINUOUS
 62
   18
 10
540.6942012102262
 20
145.68568931966871
 11
540.911894850512
 21
145.41136690338516
  0
LINE
  8
_0-0_99_É}śg
  6
CONTINUOUS
 62
   18
 10
540.911894850512
 20
145.41136690338516
 11
541.18026823461855
 21
145.17456685858525
  0
LINE
  8
_0-0_99_É}śg
  6
CONTINUOUS
 62
   18
 10
541.18026823461855
 20
145.17456685858525
 11
541.49116697307329
 21
144.98248423480362
  0
LINE
  8
_0-0_99_É}śg
  6
CONTINUOUS
 62
   18
 10
541.49116697307329
 20
144.98248423480362
 11
541.83514456503053
 21
144.84095536536535
  0
LINE
  8
_0-0_99_É}śg
  6
CONTINUOUS
 62
   18
 10
541.83514456503053
 20
144.84095536536535
 11
542.20174942541962
 21
144.75428053335131
  0
LINE
  8
_0-0_99_É}śg
  6
CONTINUOUS
 62
   18
 10
542.20174942541962
 20
144.75428053335131
 11
542.57984245106888
 21
144.72509330967259
  0
LINE
  8
_0-0_99_É}śg
  6
CONTINUOUS
 62
   18
 10
542.57984245106888
 20
144.72509330967259
 11
542.95793547671815
 21
144.75428053335131
  0
LINE
  8
_0-0_99_É}śg
  6
CONTINUOUS
 62
   18
 10
542.95793547671815
 20
144.75428053335131
 11
543.32454033710724
 21
144.84095536536535
  0
LINE
  8
_0-0_99_É}śg
  6
CONTINUOUS
 62
   18
 10
543.32454033710724
 20
144.84095536536535
 11
543.66851792906448
 21
144.98248423480362
  0
LINE
  8
_0-0_99_É}śg
  6
CONTINUOUS
 62
   18
 10
543.66851792906448
 20
144.98248423480362
 11
543.97941666751922
 21
145.17456685858525
  0
LINE
  8
_0-0_99_É}śg
  6
CONTINUOUS
 62
   18
 10
543.97941666751922
 20
145.17456685858525
 11
544.24779005162577
 21
145.41136690338516
  0
LINE
  8
_0-0_99_É}śg
  6
CONTINUOUS
 62
   18
 10
544.24779005162577
 20
145.41136690338516
 11
544.46548369191157
 21
145.68568931966871
  0
LINE
  8
_0-0_99_É}śg
  6
CONTINUOUS
 62
   18
 10
544.46548369191157
 20
145.68568931966871
 11
544.62588307727492
 21
145.98919895963095
  0
LINE
  8
_0-0_99_É}śg
  6
CONTINUOUS
 62
   18
 10
544.62588307727492
 20
145.98919895963095
 11
544.72411455355757
 21
146.31267383644493
  0
LINE
  8
_0-0_99_É}śg
  6
CONTINUOUS
 62
   18
 10
544.72411455355757
 20
146.31267383644493
 11
544.75719340706007
 21
146.64628532966483
  0
LINE
  8
_0-0_99_É}śg
  6
CONTINUOUS
 62
   18
 10
544.75719340706007
 20
146.64628532966483
 11
544.75719340706007
 21
146.64628532966483
  0
ARC
  8
_0-0_99_É}śg
  6
CONTINUOUS
 62
   18
 10
544.82123314105991
 20
146.64628532966483
 40
0.0640397339997412
 50
0
 51
180
  0
LINE
  8
_0-0_99_É}śg
  6
CONTINUOUS
 62
   18
 10
544.88527287505974
 20
146.64628532966483
 11
544.88527287505974
 21
146.64628532966483
  0
LINE
  8
_0-0_99_É}śg
  6
CONTINUOUS
 62
   18
 10
544.88527287505974
 20
146.64628532966483
 11
544.91835172856224
 21
146.31267383644493
  0
LINE
  8
_0-0_99_É}śg
  6
CONTINUOUS
 62
   18
 10
544.91835172856224
 20
146.31267383644493
 11
545.01658320484489
 21
145.98919895963095
  0
LINE
  8
_0-0_99_É}śg
  6
CONTINUOUS
 62
   18
 10
545.01658320484489
 20
145.98919895963095
 11
545.17698259020824
 21
145.68568931966871
  0
LINE
  8
_0-0_99_É}śg
  6
CONTINUOUS
 62
   18
 10
545.17698259020824
 20
145.68568931966871
 11
545.39467623049404
 21
145.41136690338516
  0
LINE
  8
_0-0_99_É}śg
  6
CONTINUOUS
 62
   18
 10
545.39467623049404
 20
145.41136690338516
 11
545.6630496146006
 21
145.17456685858525
  0
LINE
  8
_0-0_99_É}śg
  6
CONTINUOUS
 62
   18
 10
545.6630496146006
 20
145.17456685858525
 11
545.97394835305533
 21
144.98248423480362
  0
LINE
  8
_0-0_99_É}śg
  6
CONTINUOUS
 62
   18
 10
545.97394835305533
 20
144.98248423480362
 11
546.31792594501258
 21
144.84095536536535
  0
LINE
  8
_0-0_99_É}śg
  6
CONTINUOUS
 62
   18
 10
546.31792594501258
 20
144.84095536536535
 11
546.68453080540166
 21
144.75428053335131
  0
LINE
  8
_0-0_99_É}śg
  6
CONTINUOUS
 62
   18
 10
546.68453080540166
 20
144.75428053335131
 11
547.06262383105093
 21
144.72509330967259
  0
LINE
  8
_0-0_99_É}śg
  6
CONTINUOUS
 62
   18
 10
547.06262383105093
 20
144.72509330967259
 11
547.44071685670019
 21
144.75428053335131
  0
LINE
  8
_0-0_99_É}śg
  6
CONTINUOUS
 62
   18
 10
547.44071685670019
 20
144.75428053335131
 11
547.80732171708928
 21
144.84095536536535
  0
LINE
  8
_0-0_99_É}śg
  6
CONTINUOUS
 62
   18
 10
547.80732171708928
 20
144.84095536536535
 11
548.15129930904652
 21
144.98248423480362
  0
LINE
  8
_0-0_99_É}śg
  6
CONTINUOUS
 62
   18
 10
548.15129930904652
 20
144.98248423480362
 11
548.46219804750126
 21
145.17456685858525
  0
LINE
  8
_0-0_99_É}śg
  6
CONTINUOUS
 62
   18
 10
548.46219804750126
 20
145.17456685858525
 11
548.73057143160781
 21
145.41136690338516
  0
LINE
  8
_0-0_99_É}śg
  6
CONTINUOUS
 62
   18
 10
548.73057143160781
 20
145.41136690338516
 11
548.94826507189362
 21
145.68568931966871
  0
LINE
  8
_0-0_99_É}śg
  6
CONTINUOUS
 62
   18
 10
548.94826507189362
 20
145.68568931966871
 11
549.10866445725696
 21
145.98919895963095
  0
LINE
  8
_0-0_99_É}śg
  6
CONTINUOUS
 62
   18
 10
549.10866445725696
 20
145.98919895963095
 11
549.20689593353961
 21
146.31267383644493
  0
LINE
  8
_0-0_99_É}śg
  6
CONTINUOUS
 62
   18
 10
549.20689593353961
 20
146.31267383644493
 11
549.23997478704212
 21
146.64628532966483
  0
LINE
  8
_0-0_99_É}śg
  6
CONTINUOUS
 62
   18
 10
549.23997478704212
 20
146.64628532966483
 11
549.23997478704212
 21
146.64628532966483
  0
ARC
  8
_0-0_99_É}śg
  6
CONTINUOUS
 62
   18
 10
549.30401452104195
 20
146.64628532966483
 40
0.0640397339997412
 50
90
 51
180
  0
ARC
  8
_0-0_99_É}śg
  6
CONTINUOUS
 62
   18
 10
540.33845176107786
 20
146.64628532966483
 40
0.0640397339997412
 50
0
 51
90
  0
ARC
  8
_0-0_99_É}śg
  6
CONTINUOUS
 62
   18
 10
535.85567038109582
 20
146.64628532966483
 40
0.0640397339997412
 50
0
 51
90
  0
LINE
  8
_0-0_99_É}śg
  6
CONTINUOUS
 62
   18
 10
537.39262399709003
 20
133.83833852971796
 11
538.16110080508622
 21
133.83833852971796
  0
LINE
  8
_0-0_99_É}śg
  6
CONTINUOUS
 62
   18
 10
538.16110080508622
 20
133.83833852971796
 11
538.16110080508622
 21
133.06986172171992
  0
LINE
  8
_0-0_99_É}śg
  6
CONTINUOUS
 62
   18
 10
538.16110080508622
 20
133.06986172171992
 11
537.39262399709003
 21
133.06986172171992
  0
LINE
  8
_0-0_99_É}śg
  6
CONTINUOUS
 62
   18
 10
537.39262399709003
 20
133.83833852971796
 11
537.39262399709003
 21
133.06986172171992
  0
LINE
  8
_0-0_99_É}śg
  6
CONTINUOUS
 62
   18
 10
547.76706090504774
 20
133.83833852971796
 11
546.99858409705155
 21
133.83833852971796
  0
LINE
  8
_0-0_99_É}śg
  6
CONTINUOUS
 62
   18
 10
546.99858409705155
 20
133.83833852971796
 11
546.99858409705155
 21
133.06986172171992
  0
LINE
  8
_0-0_99_É}śg
  6
CONTINUOUS
 62
   18
 10
546.99858409705155
 20
133.06986172171992
 11
547.76706090504774
 21
133.06986172171992
  0
LINE
  8
_0-0_99_É}śg
  6
CONTINUOUS
 62
   18
 10
547.76706090504774
 20
133.83833852971796
 11
547.76706090504774
 21
133.06986172171992
  0
LINE
  8
_0-0_99_É}śg
  6
CONTINUOUS
 62
   18
 10
539.31381601708233
 20
133.83833852971796
 11
540.08229282507853
 21
133.83833852971796
  0
LINE
  8
_0-0_99_É}śg
  6
CONTINUOUS
 62
   18
 10
540.08229282507853
 20
133.83833852971796
 11
540.08229282507853
 21
133.06986172171992
  0
LINE
  8
_0-0_99_É}śg
  6
CONTINUOUS
 62
   18
 10
540.08229282507853
 20
133.06986172171992
 11
539.31381601708233
 21
133.06986172171992
  0
LINE
  8
_0-0_99_É}śg
  6
CONTINUOUS
 62
   18
 10
539.31381601708233
 20
133.83833852971796
 11
539.31381601708233
 21
133.06986172171992
  0
LINE
  8
_0-0_99_É}śg
  6
CONTINUOUS
 62
   18
 10
541.23500803707464
 20
133.83833852971796
 11
542.00348484507083
 21
133.83833852971796
  0
LINE
  8
_0-0_99_É}śg
  6
CONTINUOUS
 62
   18
 10
542.00348484507083
 20
133.83833852971796
 11
542.00348484507083
 21
133.06986172171992
  0
LINE
  8
_0-0_99_É}śg
  6
CONTINUOUS
 62
   18
 10
542.00348484507083
 20
133.06986172171992
 11
541.23500803707464
 21
133.06986172171992
  0
LINE
  8
_0-0_99_É}śg
  6
CONTINUOUS
 62
   18
 10
541.23500803707464
 20
133.83833852971796
 11
541.23500803707464
 21
133.06986172171992
  0
LINE
  8
_0-0_99_É}śg
  6
CONTINUOUS
 62
   18
 10
543.15620005706694
 20
133.83833852971796
 11
543.92467686506313
 21
133.83833852971796
  0
LINE
  8
_0-0_99_É}śg
  6
CONTINUOUS
 62
   18
 10
543.92467686506313
 20
133.83833852971796
 11
543.92467686506313
 21
133.06986172171992
  0
LINE
  8
_0-0_99_É}śg
  6
CONTINUOUS
 62
   18
 10
543.92467686506313
 20
133.06986172171992
 11
543.15620005706694
 21
133.06986172171992
  0
LINE
  8
_0-0_99_É}śg
  6
CONTINUOUS
 62
   18
 10
543.15620005706694
 20
133.83833852971796
 11
543.15620005706694
 21
133.06986172171992
  0
LINE
  8
_0-0_99_É}śg
  6
CONTINUOUS
 62
   18
 10
545.07739207705924
 20
133.83833852971796
 11
545.84586888505544
 21
133.83833852971796
  0
LINE
  8
_0-0_99_É}śg
  6
CONTINUOUS
 62
   18
 10
545.84586888505544
 20
133.83833852971796
 11
545.84586888505544
 21
133.06986172171992
  0
LINE
  8
_0-0_99_É}śg
  6
CONTINUOUS
 62
   18
 10
545.84586888505544
 20
133.06986172171992
 11
545.07739207705924
 21
133.06986172171992
  0
LINE
  8
_0-0_99_É}śg
  6
CONTINUOUS
 62
   18
 10
545.07739207705924
 20
133.83833852971796
 11
545.07739207705924
 21
133.06986172171992
  0
LINE
  8
_0-0_99_É}śg
  6
CONTINUOUS
 62
   18
 10
542.57188513420033
 20
141.15076542829732
 11
542.57188513420033
 21
141.15076542829732
  0
LINE
  8
_0-0_99_É}śg
  6
CONTINUOUS
 62
   18
 10
542.57188513420033
 20
141.15076542829732
 11
542.54950826271329
 21
141.39541385665859
  0
LINE
  8
_0-0_99_É}śg
  6
CONTINUOUS
 62
   18
 10
542.54950826271329
 20
141.39541385665859
 11
542.48305755816921
 21
141.63262876632217
  0
LINE
  8
_0-0_99_É}śg
  6
CONTINUOUS
 62
   18
 10
542.48305755816921
 20
141.63262876632217
 11
542.37455209159987
 21
141.85520250229447
  0
LINE
  8
_0-0_99_É}śg
  6
CONTINUOUS
 62
   18
 10
542.37455209159987
 20
141.85520250229447
 11
542.22728874670065
 21
142.05637227423574
  0
LINE
  8
_0-0_99_É}śg
  6
CONTINUOUS
 62
   18
 10
542.22728874670065
 20
142.05637227423574
 11
542.04574204568735
 21
142.23002564042235
  0
LINE
  8
_0-0_99_É}śg
  6
CONTINUOUS
 62
   18
 10
542.04574204568735
 20
142.23002564042235
 11
541.83542819320337
 21
142.37088623119556
  0
LINE
  8
_0-0_99_É}śg
  6
CONTINUOUS
 62
   18
 10
541.83542819320337
 20
142.37088623119556
 11
541.60273746923224
 21
142.4746740687836
  0
LINE
  8
_0-0_99_É}śg
  6
CONTINUOUS
 62
   18
 10
541.60273746923224
 20
142.4746740687836
 11
541.35474006367485
 21
142.53823561226059
  0
LINE
  8
_0-0_99_É}śg
  6
CONTINUOUS
 62
   18
 10
541.35474006367485
 20
142.53823561226059
 11
541.0989712522063
 21
142.55963957629163
  0
LINE
  8
_0-0_99_É}śg
  6
CONTINUOUS
 62
   18
 10
541.0989712522063
 20
142.55963957629163
 11
540.84320244073774
 21
142.53823561226059
  0
LINE
  8
_0-0_99_É}śg
  6
CONTINUOUS
 62
   18
 10
540.84320244073774
 20
142.53823561226059
 11
540.59520503518036
 21
142.4746740687836
  0
LINE
  8
_0-0_99_É}śg
  6
CONTINUOUS
 62
   18
 10
540.59520503518036
 20
142.4746740687836
 11
540.36251431120922
 21
142.37088623119556
  0
LINE
  8
_0-0_99_É}śg
  6
CONTINUOUS
 62
   18
 10
540.36251431120922
 20
142.37088623119556
 11
540.15220045872525
 21
142.23002564042235
  0
LINE
  8
_0-0_99_É}śg
  6
CONTINUOUS
 62
   18
 10
540.15220045872525
 20
142.23002564042235
 11
539.97065375771194
 21
142.05637227423574
  0
LINE
  8
_0-0_99_É}śg
  6
CONTINUOUS
 62
   18
 10
539.97065375771194
 20
142.05637227423574
 11
539.82339041281273
 21
141.85520250229447
  0
LINE
  8
_0-0_99_É}śg
  6
CONTINUOUS
 62
   18
 10
539.82339041281273
 20
141.85520250229447
 11
539.71488494624339
 21
141.63262876632217
  0
LINE
  8
_0-0_99_É}śg
  6
CONTINUOUS
 62
   18
 10
539.71488494624339
 20
141.63262876632217
 11
539.64843424169931
 21
141.39541385665859
  0
LINE
  8
_0-0_99_É}śg
  6
CONTINUOUS
 62
   18
 10
539.64843424169931
 20
141.39541385665859
 11
539.62605737021227
 21
141.15076542829732
  0
LINE
  8
_0-0_99_É}śg
  6
CONTINUOUS
 62
   18
 10
539.62605737021227
 20
141.15076542829732
 11
539.62605737021227
 21
141.15076542829732
  0
LINE
  8
_0-0_99_É}śg
  6
CONTINUOUS
 62
   18
 10
542.57188513420022
 20
141.15076542829732
 11
542.57188513420022
 21
140.76652702429922
  0
LINE
  8
_0-0_99_É}śg
  6
CONTINUOUS
 62
   18
 10
541.87695799454184
 20
139.57022002942969
 11
541.87695799454184
 21
139.57022002942969
  0
LINE
  8
_0-0_99_É}śg
  6
CONTINUOUS
 62
   18
 10
541.87695799454184
 20
139.57022002942969
 11
541.64795952868303
 21
139.45917237897666
  0
LINE
  8
_0-0_99_É}śg
  6
CONTINUOUS
 62
   18
 10
541.64795952868303
 20
139.45917237897666
 11
541.40228033184485
 21
139.38784803786839
  0
LINE
  8
_0-0_99_É}śg
  6
CONTINUOUS
 62
   18
 10
541.40228033184485
 20
139.38784803786839
 11
541.14738524210372
 21
139.35841416011758
  0
LINE
  8
_0-0_99_É}śg
  6
CONTINUOUS
 62
   18
 10
541.14738524210372
 20
139.35841416011758
 11
540.89101911777811
 21
139.37176507920546
  0
LINE
  8
_0-0_99_É}śg
  6
CONTINUOUS
 62
   18
 10
540.89101911777811
 20
139.37176507920546
 11
540.64097151382839
 21
139.4274951342114
  0
LINE
  8
_0-0_99_É}śg
  6
CONTINUOUS
 62
   18
 10
540.64097151382839
 20
139.4274951342114
 11
540.40484000017011
 21
139.52391099561481
  0
LINE
  8
_0-0_99_É}śg
  6
CONTINUOUS
 62
   18
 10
540.40484000017011
 20
139.52391099561481
 11
540.18979931335764
 21
139.65808311625577
  0
LINE
  8
_0-0_99_É}śg
  6
CONTINUOUS
 62
   18
 10
540.18979931335764
 20
139.65808311625577
 11
540.0023833558439
 21
139.82593474414293
  0
LINE
  8
_0-0_99_É}śg
  6
CONTINUOUS
 62
   18
 10
540.0023833558439
 20
139.82593474414293
 11
539.8482866666609
 21
140.02236579250001
  0
LINE
  8
_0-0_99_É}śg
  6
CONTINUOUS
 62
   18
 10
539.8482866666609
 20
140.02236579250001
 11
539.73219139573268
 21
140.24140780332152
  0
LINE
  8
_0-0_99_É}śg
  6
CONTINUOUS
 62
   18
 10
539.73219139573268
 20
140.24140780332152
 11
539.65762503911947
 21
140.47640529594932
  0
LINE
  8
_0-0_99_É}śg
  6
CONTINUOUS
 62
   18
 10
539.65762503911947
 20
140.47640529594932
 11
539.62685325783457
 21
140.72021799048434
  0
LINE
  8
_0-0_99_É}śg
  6
CONTINUOUS
 62
   18
 10
539.62685325783457
 20
140.72021799048434
 11
539.62605737021227
 21
140.76652702429922
  0
LINE
  8
_0-0_99_É}śg
  6
CONTINUOUS
 62
   18
 10
542.03816787007906
 20
141.11308567639347
 11
542.03816787007906
 21
140.80569495319605
  0
LINE
  8
_0-0_99_É}śg
  6
CONTINUOUS
 62
   18
 10
545.55758429708328
 20
140.6506776287074
 11
545.55758429708328
 21
142.55963957629277
  0
LINE
  8
_0-0_99_É}śg
  6
CONTINUOUS
 62
   18
 10
544.98122669108523
 20
140.76652702429922
 11
544.98122669108523
 21
142.55963957629277
  0
LINE
  8
_0-0_99_É}śg
  6
CONTINUOUS
 62
   18
 10
544.98122669108523
 20
142.55963957629277
 11
545.55758429708328
 21
142.55963957629277
  0
LINE
  8
_0-0_99_É}śg
  6
CONTINUOUS
 62
   18
 10
542.86791546909387
 20
140.6506776287074
 11
542.86791546909387
 21
142.55963957629277
  0
LINE
  8
_0-0_99_É}śg
  6
CONTINUOUS
 62
   18
 10
543.44427307509193
 20
140.76652702429922
 11
543.44427307509193
 21
142.55963957629277
  0
ARC
  8
_0-0_99_É}śg
  6
CONTINUOUS
 62
   18
 10
544.22170145386951
 20
140.70860232650332
 40
1.3550246356396491
 50
182.45003099226113
 51
265.55525728852359
  0
LINE
  8
_0-0_99_É}śg
  6
CONTINUOUS
 62
   18
 10
543.44427307509193
 20
142.55963957629277
 11
542.86791546909387
 21
142.55963957629277
  0
LINE
  8
_0-0_99_É}śg
  6
CONTINUOUS
 62
   18
 10
544.3088094840881
 20
139.35765287630556
 11
544.11669028208905
 21
139.35765287630556
  0
ARC
  8
_0-0_99_É}śg
  6
CONTINUOUS
 62
   18
 10
544.58751107629394
 20
140.7516169756432
 40
1.1433352250956597
 50
179.25279388138665
 51
218.96457184683956
  0
ARC
  8
_0-0_99_É}śg
  6
CONTINUOUS
 62
   18
 10
543.83798868988322
 20
140.7516169756432
 40
1.1433352250955311
 50
321.03542815316041
 51
0.7472061186133668
  0
ARC
  8
_0-0_99_É}śg
  6
CONTINUOUS
 62
   18
 10
544.21274988308903
 20
140.96637603160843
 40
1.0659656337000309
 50
241.1577278083476
 51
298.8422721916524
  0
LINE
  8
_0-0_99_É}śg
  6
CONTINUOUS
 62
   18
 10
541.22311006480174
 20
140.20657062959393
 11
541.48459869088344
 21
139.95207958270979
  0
LINE
  8
_0-0_99_É}śg
  6
CONTINUOUS
 62
   18
 10
541.22311006480174
 20
140.20657062959393
 11
541.5067713624552
 21
140.5077794222193
  0
LINE
  8
_0-0_99_É}śg
  6
CONTINUOUS
 62
   18
 10
542.32219582968389
 20
139.13689700320128
 11
542.69282734642582
 21
139.53045605616489
  0
LINE
  8
_0-0_99_É}śg
  6
CONTINUOUS
 62
   18
 10
540.15977463433353
 20
141.11308567639347
 11
540.15977463433353
 21
140.80569495319605
  0
LINE
  8
_0-0_99_É}śg
  6
CONTINUOUS
 62
   18
 10
542.03816787007895
 20
141.11308567639347
 11
542.03816787007895
 21
141.11308567639347
  0
LINE
  8
_0-0_99_É}śg
  6
CONTINUOUS
 62
   18
 10
542.03816787007895
 20
141.11308567639347
 11
542.02389936309021
 21
141.27531406014916
  0
LINE
  8
_0-0_99_É}śg
  6
CONTINUOUS
 62
   18
 10
542.02389936309021
 20
141.27531406014916
 11
541.98152738348836
 21
141.43261321655595
  0
LINE
  8
_0-0_99_É}śg
  6
CONTINUOUS
 62
   18
 10
541.98152738348836
 20
141.43261321655595
 11
541.91233938243249
 21
141.58020369034367
  0
LINE
  8
_0-0_99_É}śg
  6
CONTINUOUS
 62
   18
 10
541.91233938243249
 20
141.58020369034367
 11
541.8184376023238
 21
141.71360101965061
  0
LINE
  8
_0-0_99_É}śg
  6
CONTINUOUS
 62
   18
 10
541.8184376023238
 20
141.71360101965061
 11
541.70267520123434
 21
141.82875199412811
  0
LINE
  8
_0-0_99_É}śg
  6
CONTINUOUS
 62
   18
 10
541.70267520123434
 20
141.82875199412811
 11
541.56856956114268
 21
141.92215780968587
  0
LINE
  8
_0-0_99_É}śg
  6
CONTINUOUS
 62
   18
 10
541.56856956114268
 20
141.92215780968587
 11
541.42019541406205
 21
141.9909803778838
  0
LINE
  8
_0-0_99_É}śg
  6
CONTINUOUS
 62
   18
 10
541.42019541406205
 20
141.9909803778838
 11
541.26206103337086
 21
142.03312855981309
  0
LINE
  8
_0-0_99_É}śg
  6
CONTINUOUS
 62
   18
 10
541.26206103337086
 20
142.03312855981309
 11
541.0989712522063
 21
142.04732170429384
  0
LINE
  8
_0-0_99_É}śg
  6
CONTINUOUS
 62
   18
 10
541.0989712522063
 20
142.04732170429384
 11
540.93588147104174
 21
142.03312855981309
  0
LINE
  8
_0-0_99_É}śg
  6
CONTINUOUS
 62
   18
 10
540.93588147104174
 20
142.03312855981309
 11
540.77774709035054
 21
141.9909803778838
  0
LINE
  8
_0-0_99_É}śg
  6
CONTINUOUS
 62
   18
 10
540.77774709035054
 20
141.9909803778838
 11
540.62937294326991
 21
141.92215780968587
  0
LINE
  8
_0-0_99_É}śg
  6
CONTINUOUS
 62
   18
 10
540.62937294326991
 20
141.92215780968587
 11
540.49526730317825
 21
141.82875199412811
  0
LINE
  8
_0-0_99_É}śg
  6
CONTINUOUS
 62
   18
 10
540.49526730317825
 20
141.82875199412811
 11
540.3795049020888
 21
141.71360101965061
  0
LINE
  8
_0-0_99_É}śg
  6
CONTINUOUS
 62
   18
 10
540.3795049020888
 20
141.71360101965061
 11
540.2856031219801
 21
141.58020369034367
  0
LINE
  8
_0-0_99_É}śg
  6
CONTINUOUS
 62
   18
 10
540.2856031219801
 20
141.58020369034367
 11
540.21641512092424
 21
141.43261321655595
  0
LINE
  8
_0-0_99_É}śg
  6
CONTINUOUS
 62
   18
 10
540.21641512092424
 20
141.43261321655595
 11
540.17404314132239
 21
141.27531406014916
  0
LINE
  8
_0-0_99_É}śg
  6
CONTINUOUS
 62
   18
 10
540.17404314132239
 20
141.27531406014916
 11
540.15977463433364
 21
141.11308567639347
  0
LINE
  8
_0-0_99_É}śg
  6
CONTINUOUS
 62
   18
 10
540.15977463433364
 20
141.11308567639347
 11
540.15977463433364
 21
141.11308567639347
  0
LINE
  8
_0-0_99_É}śg
  6
CONTINUOUS
 62
   18
 10
541.48459869088322
 20
139.95207958270871
 11
541.48459869088322
 21
139.95207958270871
  0
LINE
  8
_0-0_99_É}śg
  6
CONTINUOUS
 62
   18
 10
541.48459869088322
 20
139.95207958270871
 11
541.33003159338909
 21
139.89839422634449
  0
LINE
  8
_0-0_99_É}śg
  6
CONTINUOUS
 62
   18
 10
541.33003159338909
 20
139.89839422634449
 11
541.16844384435024
 21
139.87223152594447
  0
LINE
  8
_0-0_99_É}śg
  6
CONTINUOUS
 62
   18
 10
541.16844384435024
 20
139.87223152594447
 11
541.00474520575392
 21
139.87438642192132
  0
LINE
  8
_0-0_99_É}śg
  6
CONTINUOUS
 62
   18
 10
541.00474520575392
 20
139.87438642192132
 11
540.84390957789833
 21
139.90479343885124
  0
LINE
  8
_0-0_99_É}śg
  6
CONTINUOUS
 62
   18
 10
540.84390957789833
 20
139.90479343885124
 11
540.69082386994921
 21
139.96252867491145
  0
LINE
  8
_0-0_99_É}śg
  6
CONTINUOUS
 62
   18
 10
540.69082386994921
 20
139.96252867491145
 11
540.55013951367744
 21
140.04583787416976
  0
LINE
  8
_0-0_99_É}śg
  6
CONTINUOUS
 62
   18
 10
540.55013951367744
 20
140.04583787416976
 11
540.42613113205857
 21
140.15218972876318
  0
LINE
  8
_0-0_99_É}śg
  6
CONTINUOUS
 62
   18
 10
540.42613113205857
 20
140.15218972876318
 11
540.32256665701686
 21
140.27835279140649
  0
LINE
  8
_0-0_99_É}śg
  6
CONTINUOUS
 62
   18
 10
540.32256665701686
 20
140.27835279140649
 11
540.24259284272034
 21
140.4204936612829
  0
LINE
  8
_0-0_99_É}śg
  6
CONTINUOUS
 62
   18
 10
540.24259284272034
 20
140.4204936612829
 11
540.18863965304763
 21
140.57429345998796
  0
LINE
  8
_0-0_99_É}śg
  6
CONTINUOUS
 62
   18
 10
540.18863965304763
 20
140.57429345998796
 11
540.16234642836537
 21
140.73507905846446
  0
LINE
  8
_0-0_99_É}śg
  6
CONTINUOUS
 62
   18
 10
540.16234642836537
 20
140.73507905846446
 11
540.1597734553103
 21
140.80420677620305
  0
LINE
  8
_0-0_99_É}śg
  6
CONTINUOUS
 62
   18
 10
536.81680086260747
 20
139.35765287630556
 11
537.39163513138135
 21
139.35765287630556
  0
LINE
  8
_0-0_99_É}śg
  6
CONTINUOUS
 62
   18
 10
536.81680086260747
 20
139.35765287630556
 11
536.81680086260747
 21
139.37302241246425
  0
LINE
  8
_0-0_99_É}śg
  6
CONTINUOUS
 62
   18
 10
536.81680086260747
 20
139.37302241246425
 11
538.02423132294223
 21
142.55963957629277
  0
LINE
  8
_0-0_99_É}śg
  6
CONTINUOUS
 62
   18
 10
536.81680086260747
 20
139.35765287630556
 11
536.81680086260747
 21
139.37302241246425
  0
LINE
  8
_0-0_99_É}śg
  6
CONTINUOUS
 62
   18
 10
537.7050336989854
 20
140.20180898115862
 11
538.88720373701688
 21
140.20180898115862
  0
LINE
  8
_0-0_99_É}śg
  6
CONTINUOUS
 62
   18
 10
537.8783405660364
 20
140.68851095955642
 11
538.71389686996679
 21
140.68851095955642
  0
LINE
  8
_0-0_99_É}śg
  6
CONTINUOUS
 62
   18
 10
539.7626286265953
 20
139.35765287630556
 11
539.18779435782233
 21
139.35765287630556
  0
LINE
  8
_0-0_99_É}śg
  6
CONTINUOUS
 62
   18
 10
539.18779435782233
 20
139.35765287630556
 11
538.88720373701688
 21
140.20180898115862
  0
LINE
  8
_0-0_99_É}śg
  6
CONTINUOUS
 62
   18
 10
539.7626286265953
 20
139.37302241246425
 11
538.55519816626054
 21
142.55963957629277
  0
LINE
  8
_0-0_99_É}śg
  6
CONTINUOUS
 62
   18
 10
539.7626286265953
 20
139.35765287630556
 11
539.7626286265953
 21
139.37302241246425
  0
LINE
  8
_0-0_99_É}śg
  6
CONTINUOUS
 62
   18
 10
538.02423132294223
 20
142.55963957629277
 11
538.55519816626054
 21
142.55963957629277
  0
LINE
  8
_0-0_99_É}śg
  6
CONTINUOUS
 62
   18
 10
538.71389686996679
 20
140.68851095955642
 11
538.28971474460138
 21
141.87975215576401
  0
LINE
  8
_0-0_99_É}śg
  6
CONTINUOUS
 62
   18
 10
541.5067713624552
 20
140.5077794222193
 11
542.69282734642582
 21
139.53045605616489
  0
LINE
  8
_0-0_99_É}śg
  6
CONTINUOUS
 62
   18
 10
541.87695799454229
 20
139.57022002943043
 11
542.32219582968389
 21
139.13689700320128
  0
LINE
  8
_0-0_99_É}śg
  6
CONTINUOUS
 62
   18
 10
537.7050336989854
 20
140.20180898115862
 11
537.8783405660364
 21
140.68851095955642
  0
LINE
  8
_0-0_99_É}śg
  6
CONTINUOUS
 62
   18
 10
542.57188513420033
 20
140.76652702429922
 11
542.57188513420033
 21
140.76652702429922
  0
LINE
  8
_0-0_99_É}śg
  6
CONTINUOUS
 62
   18
 10
542.57188513420033
 20
140.76652702429922
 11
542.54950826271329
 21
140.52187859593795
  0
LINE
  8
_0-0_99_É}śg
  6
CONTINUOUS
 62
   18
 10
542.54950826271329
 20
140.52187859593795
 11
542.48305755816921
 21
140.28466368627437
  0
LINE
  8
_0-0_99_É}śg
  6
CONTINUOUS
 62
   18
 10
542.48305755816921
 20
140.28466368627437
 11
542.37455209159987
 21
140.06208995030207
  0
LINE
  8
_0-0_99_É}śg
  6
CONTINUOUS
 62
   18
 10
542.37455209159987
 20
140.06208995030207
 11
542.26130713954603
 21
139.90117845988598
  0
LINE
  8
_0-0_99_É}śg
  6
CONTINUOUS
 62
   18
 10
542.03816904910229
 20
140.80420677620305
 11
542.03816904910229
 21
140.80420677620305
  0
LINE
  8
_0-0_99_É}śg
  6
CONTINUOUS
 62
   18
 10
542.03816904910229
 20
140.80420677620305
 11
542.02390052420151
 21
140.64192639823878
  0
LINE
  8
_0-0_99_É}śg
  6
CONTINUOUS
 62
   18
 10
542.02390052420151
 20
140.64192639823878
 11
541.98152849140786
 21
140.48457682744115
  0
LINE
  8
_0-0_99_É}śg
  6
CONTINUOUS
 62
   18
 10
541.98152849140786
 20
140.48457682744115
 11
541.91234040349661
 21
140.33693905089606
  0
LINE
  8
_0-0_99_É}śg
  6
CONTINUOUS
 62
   18
 10
541.91234040349661
 20
140.33693905089606
 11
541.84862589470481
 21
140.2412324107668
  0
LINE
  8
_0-0_99_É}śg
  6
CONTINUOUS
 62
   18
 10
539.62605737021238
 20
141.15076542829732
 11
539.62605737021238
 21
140.76652702429922
  0
LINE
  8
_0-0_99_É}śg
  6
CONTINUOUS
 62
   18
 10
537.39163513138135
 20
139.35765287630556
 11
538.28971474460138
 21
141.87975215576401
  0
LINE
  8
_0-0_99_É}śg
  6
CONTINUOUS
 62
   18
 10
545.52513574354123
 20
139.35765287630556
 11
546.09997001231511
 21
139.35765287630556
  0
LINE
  8
_0-0_99_É}śg
  6
CONTINUOUS
 62
   18
 10
545.52513574354123
 20
139.35765287630556
 11
545.52513574354123
 21
139.37302241246425
  0
LINE
  8
_0-0_99_É}śg
  6
CONTINUOUS
 62
   18
 10
545.52513574354123
 20
139.37302241246425
 11
546.7325662038769
 21
142.55963957629277
  0
LINE
  8
_0-0_99_É}śg
  6
CONTINUOUS
 62
   18
 10
545.52513574354123
 20
139.35765287630556
 11
545.52513574354123
 21
139.37302241246425
  0
LINE
  8
_0-0_99_É}śg
  6
CONTINUOUS
 62
   18
 10
546.41336857992007
 20
140.20180898115862
 11
547.59553861795155
 21
140.20180898115862
  0
LINE
  8
_0-0_99_É}śg
  6
CONTINUOUS
 62
   18
 10
546.58667544697016
 20
140.68851095955642
 11
547.42223175090146
 21
140.68851095955642
  0
LINE
  8
_0-0_99_É}śg
  6
CONTINUOUS
 62
   18
 10
548.47096350752997
 20
139.35765287630556
 11
547.89612923875609
 21
139.35765287630556
  0
LINE
  8
_0-0_99_É}śg
  6
CONTINUOUS
 62
   18
 10
547.89612923875609
 20
139.35765287630556
 11
547.59553861795155
 21
140.20180898115862
  0
LINE
  8
_0-0_99_É}śg
  6
CONTINUOUS
 62
   18
 10
548.47096350752997
 20
139.37302241246425
 11
547.26353304719521
 21
142.55963957629277
  0
LINE
  8
_0-0_99_É}śg
  6
CONTINUOUS
 62
   18
 10
548.47096350752997
 20
139.35765287630556
 11
548.47096350752997
 21
139.37302241246425
  0
LINE
  8
_0-0_99_É}śg
  6
CONTINUOUS
 62
   18
 10
546.7325662038769
 20
142.55963957629277
 11
547.26353304719521
 21
142.55963957629277
  0
LINE
  8
_0-0_99_É}śg
  6
CONTINUOUS
 62
   18
 10
547.42223175090146
 20
140.68851095955642
 11
546.99804962553605
 21
141.87975215576401
  0
LINE
  8
_0-0_99_É}śg
  6
CONTINUOUS
 62
   18
 10
546.41336857992007
 20
140.20180898115862
 11
546.58667544697016
 21
140.68851095955642
  0
LINE
  8
_0-0_99_É}śg
  6
CONTINUOUS
 62
   18
 10
546.09997001231511
 20
139.35765287630556
 11
546.99804962553605
 21
141.87975215576401
  0
ARC
  8
_0-0_99_É}śg
  6
CONTINUOUS
 62
   18
 10
544.20379831230764
 20
140.70860232650332
 40
1.3550246356396491
 50
274.44474271147635
 51
357.54996900773887
  0
LINE
  8
_0-0_99_É}śg
  6
CONTINUOUS
 62
   18
 10
541.84862589470538
 20
140.24123241076771
 11
542.2613071395466
 21
139.90117845988564
  0
LINE
  8
_0-0_99_É}śg
  6
CONTINUOUS
 62
   18
 10
542.07276741202179
 20
137.09063910472864
 11
542.07276741202179
 21
137.09063910472864
  0
LINE
  8
_0-0_99_É}śg
  6
CONTINUOUS
 62
   18
 10
542.07276741202179
 20
137.09063910472864
 11
542.23418584024625
 21
137.15589241630991
  0
LINE
  8
_0-0_99_É}śg
  6
CONTINUOUS
 62
   18
 10
542.23418584024625
 20
137.15589241630991
 11
542.37924568059452
 21
137.2429938094634
  0
LINE
  8
_0-0_99_É}śg
  6
CONTINUOUS
 62
   18
 10
542.37924568059452
 20
137.2429938094634
 11
542.50353936322142
 21
137.34929675243353
  0
LINE
  8
_0-0_99_É}śg
  6
CONTINUOUS
 62
   18
 10
542.50353936322142
 20
137.34929675243353
 11
542.60329028747617
 21
137.47157128409009
  0
LINE
  8
_0-0_99_É}śg
  6
CONTINUOUS
 62
   18
 10
542.60329028747617
 20
137.47157128409009
 11
542.67546757200148
 21
137.60610215466252
  0
LINE
  8
_0-0_99_É}śg
  6
CONTINUOUS
 62
   18
 10
542.67546757200148
 20
137.60610215466252
 11
542.71787814653067
 21
137.74880171172447
  0
LINE
  8
_0-0_99_É}śg
  6
CONTINUOUS
 62
   18
 10
542.71787814653067
 20
137.74880171172447
 11
542.72923338721739
 21
137.89533410144401
  0
LINE
  8
_0-0_99_É}śg
  6
CONTINUOUS
 62
   18
 10
542.72923338721739
 20
137.89533410144401
 11
542.70918827081937
 21
138.04124701130849
  0
LINE
  8
_0-0_99_É}śg
  6
CONTINUOUS
 62
   18
 10
542.70918827081937
 20
138.04124701130849
 11
542.65835185805508
 21
138.18210695138717
  0
LINE
  8
_0-0_99_É}śg
  6
CONTINUOUS
 62
   18
 10
542.65835185805508
 20
138.18210695138717
 11
542.57826878760193
 21
138.31363396367934
  0
LINE
  8
_0-0_99_É}śg
  6
CONTINUOUS
 62
   18
 10
542.57826878760193
 20
138.31363396367934
 11
542.47137234303159
 21
138.43183166647236
  0
LINE
  8
_0-0_99_É}śg
  6
CONTINUOUS
 62
   18
 10
542.47137234303159
 20
138.43183166647236
 11
542.34091051872019
 21
138.53310868237784
  0
LINE
  8
_0-0_99_É}śg
  6
CONTINUOUS
 62
   18
 10
542.34091051872019
 20
138.53310868237784
 11
542.19084733118245
 21
138.61438776051608
  0
LINE
  8
_0-0_99_É}śg
  6
CONTINUOUS
 62
   18
 10
542.19084733118245
 20
138.61438776051608
 11
542.02574237443628
 21
138.67319927722707
  0
LINE
  8
_0-0_99_É}śg
  6
CONTINUOUS
 62
   18
 10
542.02574237443628
 20
138.67319927722707
 11
541.85061227904498
 21
138.70775627433562
  0
LINE
  8
_0-0_99_É}śg
  6
CONTINUOUS
 62
   18
 10
541.85061227904498
 20
138.70775627433562
 11
541.69579978421132
 21
138.71725553630699
  0
LINE
  8
_0-0_99_É}śg
  6
CONTINUOUS
 62
   18
 10
543.91961731564732
 20
136.02758670831781
 11
543.91961731564732
 21
138.20493766430945
  0
LINE
  8
_0-0_99_É}śg
  6
CONTINUOUS
 62
   18
 10
543.34325970964926
 20
136.02758670831781
 11
543.34325970964926
 21
138.20493766430945
  0
LINE
  8
_0-0_99_É}śg
  6
CONTINUOUS
 62
   18
 10
543.27921997564897
 20
138.71725553630816
 11
543.98365704964669
 21
138.71725553630816
  0
LINE
  8
_0-0_99_É}śg
  6
CONTINUOUS
 62
   18
 10
540.22288590221831
 20
138.71725553630816
 11
540.22288590221831
 21
135.51526883632098
  0
LINE
  8
_0-0_99_É}śg
  6
CONTINUOUS
 62
   18
 10
543.27921997564897
 20
135.51526883632098
 11
543.98365704964669
 21
135.51526883632098
  0
LINE
  8
_0-0_99_É}śg
  6
CONTINUOUS
 62
   18
 10
543.98365704964669
 20
135.51526883632098
 11
543.98365704964669
 21
135.96354697431846
  0
ARC
  8
_0-0_99_É}śg
  6
CONTINUOUS
 62
   18
 10
543.98365704964669
 20
136.02758670831781
 40
0.0640397339997412
 50
180
 51
270
  0
LINE
  8
_0-0_99_É}śg
  6
CONTINUOUS
 62
   18
 10
543.27921997564897
 20
135.51526883632098
 11
543.27921997564897
 21
135.96354697431846
  0
ARC
  8
_0-0_99_É}śg
  6
CONTINUOUS
 62
   18
 10
543.27921997564897
 20
136.02758670831781
 40
0.0640397339997412
 50
270
 51
0
  0
LINE
  8
_0-0_99_É}śg
  6
CONTINUOUS
 62
   18
 10
543.98365704964669
 20
138.71725553630816
 11
543.98365704964669
 21
138.26897739830883
  0
ARC
  8
_0-0_99_É}śg
  6
CONTINUOUS
 62
   18
 10
543.98365704964669
 20
138.20493766430945
 40
0.0640397339997412
 50
90
 51
180
  0
LINE
  8
_0-0_99_É}śg
  6
CONTINUOUS
 62
   18
 10
543.27921997564897
 20
138.71725553630816
 11
543.27921997564897
 21
138.26897739830883
  0
ARC
  8
_0-0_99_É}śg
  6
CONTINUOUS
 62
   18
 10
543.27921997564897
 20
138.20493766430945
 40
0.0640397339997412
 50
0
 51
90
  0
LINE
  8
_0-0_99_É}śg
  6
CONTINUOUS
 62
   18
 10
538.83323407931437
 20
135.51526883632098
 11
538.83323407931437
 21
138.20493766430945
  0
LINE
  8
_0-0_99_É}śg
  6
CONTINUOUS
 62
   18
 10
538.25687647331722
 20
135.51526883632098
 11
538.25687647331722
 21
138.20493766430945
  0
LINE
  8
_0-0_99_É}śg
  6
CONTINUOUS
 62
   18
 10
537.23224072932169
 20
138.71725553630816
 11
539.85786982331081
 21
138.71725553630816
  0
LINE
  8
_0-0_99_É}śg
  6
CONTINUOUS
 62
   18
 10
538.25687647331722
 20
135.51526883632098
 11
538.83323407931437
 21
135.51526883632098
  0
LINE
  8
_0-0_99_É}śg
  6
CONTINUOUS
 62
   18
 10
539.85786982331081
 20
138.71725553630816
 11
539.85786982331081
 21
138.26897739830883
  0
ARC
  8
_0-0_99_É}śg
  6
CONTINUOUS
 62
   18
 10
538.89727381331465
 20
138.20493766430945
 40
0.0640397339997412
 50
90
 51
180
  0
LINE
  8
_0-0_99_É}śg
  6
CONTINUOUS
 62
   18
 10
537.23224072932169
 20
138.71725553630816
 11
537.23224072932169
 21
138.26897739830883
  0
ARC
  8
_0-0_99_É}śg
  6
CONTINUOUS
 62
   18
 10
538.19283673931784
 20
138.20493766430945
 40
0.0640397339997412
 50
0
 51
90
  0
LINE
  8
_0-0_99_É}śg
  6
CONTINUOUS
 62
   18
 10
537.23224072932169
 20
138.26897739830883
 11
538.19283673931784
 21
138.26897739830883
  0
LINE
  8
_0-0_99_É}śg
  6
CONTINUOUS
 62
   18
 10
538.89727381331465
 20
138.26897739830883
 11
539.85786982331081
 21
138.26897739830883
  0
LINE
  8
_0-0_99_É}śg
  6
CONTINUOUS
 62
   18
 10
540.22288590221831
 20
135.51526883632098
 11
540.79924350821545
 21
135.51526883632098
  0
LINE
  8
_0-0_99_É}śg
  6
CONTINUOUS
 62
   18
 10
540.79924350821545
 20
135.51526883632098
 11
540.79924350821545
 21
138.26897739830883
  0
LINE
  8
_0-0_99_É}śg
  6
CONTINUOUS
 62
   18
 10
540.22288590221831
 20
138.71725553630816
 11
541.69579978421132
 21
138.71725553630816
  0
LINE
  8
_0-0_99_É}śg
  6
CONTINUOUS
 62
   18
 10
540.79924350821545
 20
138.26897739830883
 11
541.77264746501203
 21
138.26897739830883
  0
LINE
  8
_0-0_99_É}śg
  6
CONTINUOUS
 62
   18
 10
540.81845542841472
 20
137.03263661445772
 11
540.81845542841472
 21
137.48091475245522
  0
LINE
  8
_0-0_99_É}śg
  6
CONTINUOUS
 62
   18
 10
540.81845542841472
 20
137.03263661445772
 11
541.44729792784926
 21
137.03263661445772
  0
LINE
  8
_0-0_99_É}śg
  6
CONTINUOUS
 62
   18
 10
540.81845542841472
 20
137.48091475245522
 11
541.77264746501203
 21
137.48091475245522
  0
ARC
  8
_0-0_99_É}śg
  6
CONTINUOUS
 62
   18
 10
541.75890785137142
 20
137.87494607538201
 40
0.3942707958122305
 50
271.9970571043537
 51
88.002942895541253
  0
LINE
  8
_0-0_99_É}śg
  6
CONTINUOUS
 62
   18
 10
542.17239056738379
 20
135.51526883632098
 11
542.79357598718104
 21
135.51526883632098
  0
LINE
  8
_0-0_99_É}śg
  6
CONTINUOUS
 62
   18
 10
542.24179038314048
 20
136.89212928709958
 11
542.79357598718104
 21
135.54088472991998
  0
LINE
  8
_0-0_99_É}śg
  6
CONTINUOUS
 62
   18
 10
541.68492425805141
 20
136.87213920513889
 11
542.17239056738379
 21
135.51526883632098
  0
ARC
  8
_0-0_99_É}śg
  6
CONTINUOUS
 62
   18
 10
541.44729792784926
 20
136.77647767845841
 40
0.2561589359989651
 50
21.928297866573569
 51
90
  0
ARC
  8
_0-0_99_É}śg
  6
CONTINUOUS
 62
   18
 10
541.85432594315932
 20
136.73343217582217
 40
0.4187045084277302
 50
22.272952260006569
 51
58.553113012897356
  0
LINE
  8
_0-0_99_É}śg
  6
CONTINUOUS
 62
   18
 10
542.79357598718104
 20
135.54088472991998
 11
542.79357598718104
 21
135.51526883632098
  0
LINE
  8
_0-0_99_É}śg
  6
CONTINUOUS
 62
   18
 10
544.56063868688341
 20
138.71725553630816
 11
544.56063868688341
 21
135.51526883632098
  0
LINE
  8
_0-0_99_É}śg
  6
CONTINUOUS
 62
   18
 10
544.56063868688341
 20
135.51526883632098
 11
545.13699629288146
 21
135.51526883632098
  0
LINE
  8
_0-0_99_É}śg
  6
CONTINUOUS
 62
   18
 10
545.13699629288146
 20
135.51526883632098
 11
545.13646556686342
 21
137.75665952631201
  0
LINE
  8
_0-0_99_É}śg
  6
CONTINUOUS
 62
   18
 10
544.56063868688341
 20
138.71725553630816
 11
545.39697131556875
 21
138.71725553630816
  0
LINE
  8
_0-0_99_É}śg
  6
CONTINUOUS
 62
   18
 10
547.18679850689057
 20
137.75665952631201
 11
547.18679850689057
 21
135.51526883632098
  0
LINE
  8
_0-0_99_É}śg
  6
CONTINUOUS
 62
   18
 10
547.18679850689057
 20
135.51526883632098
 11
547.76315611288771
 21
135.51526883632098
  0
LINE
  8
_0-0_99_É}śg
  6
CONTINUOUS
 62
   18
 10
547.76315611288771
 20
135.51526883632098
 11
547.76315611288771
 21
138.71725553630816
  0
LINE
  8
_0-0_99_É}śg
  6
CONTINUOUS
 62
   18
 10
545.87345323387888
 20
135.51526883632098
 11
546.44981083987602
 21
135.51526883632098
  0
LINE
  8
_0-0_99_É}śg
  6
CONTINUOUS
 62
   18
 10
547.76315611288771
 20
138.71725553630816
 11
546.92629275818524
 21
138.71725553630816
  0
LINE
  8
_0-0_99_É}śg
  6
CONTINUOUS
 62
   18
 10
546.44981083987602
 20
135.51526883632098
 11
547.18679850689057
 21
137.75665952631201
  0
LINE
  8
_0-0_99_É}śg
  6
CONTINUOUS
 62
   18
 10
545.87345323387888
 20
135.51526883632098
 11
545.13646556686342
 21
137.75665952631201
  0
LINE
  8
_0-0_99_É}śg
  6
CONTINUOUS
 62
   18
 10
546.16163203687699
 20
136.39170315809272
 11
546.92629275818524
 21
138.71725553630816
  0
LINE
  8
_0-0_99_É}śg
  6
CONTINUOUS
 62
   18
 10
546.16163203687699
 20
136.39170315809272
 11
545.39697131556875
 21
138.71725553630816
  0
TEXT
  8
_0-0_99_É}śg
 62
    7
 10
551.53849775553067
 20
141.72379514910079
 40
3.7803857142704391
 41
1
 50
0
  1
ŖöÄ«ē’Äą
  0
TEXT
  8
_0-0_99_É}śg
 62
    7
 10
556.62366546303713
 20
133.05967969103608
 40
6.3846514285456299
 41
1
 50
0
  1
āN
  0
TEXT
  8
_0-0_99_É}śg
 62
    7
 10
562.95021924464481
 20
133.05967969103608
 40
6.3846514285456299
 41
1
 50
0
  1
āA
  0
TEXT
  8
_0-0_99_É}śg
 62
    7
 10
568.21907965013406
 20
132.79096540532214
 40
6.3846514285456299
 41
1
 50
0
  1
āg
  0
TEXT
  8
_0-0_99_É}śg
 62
    7
 10
573.93031665154149
 20
132.92532254817911
 40
6.3846514285456299
 41
1
 50
0
  1
āŖ
  0
TEXT
  8
_0-0_99_É}śg
 62
    7
 10
580.0835043297825
 20
132.52225111961002
 40
6.3846514285456299
 41
1
 50
0
  1
āĆ
  0
LINE
  8
_0-0_99_É}śg
  6
CONTINUOUS
 62
   18
 10
563.04694285786024
 20
149.13204428641393
 11
563.04694285786024
 21
166.81061571491364
  0
TEXT
  8
_0-2_0
 62
    7
 10
595.26707272782301
 20
135.17571311762919
 40
5
 41
1
 50
0
  1
Źé¢ž
  0
TEXT
  8
_0-2_0
 62
    7
 10
570.2907740266362
 20
152.90103779288066
 40
6
 41
1
 50
0
  1
1üF1
  0
TEXT
  8
_0-2_0
 62
    7
 10
634.32551428607189
 20
133.19633000075331
 40
5
 41
0.7999999999999999
 50
0
  1
2025.06.03
  0
TEXT
  8
_0-2_0
 62
    7
 10
676.96216085641743
 20
145.01061571499443
 40
3.9999999999999996
 41
0.8
 50
0
  1
AT-221121-08-16
  0
TEXT
  8
_0-2_0
 62
    7
 10
678.38949801103035
 20
157.60282350714979
 40
3.9999999999999996
 41
0.8999999999999999
 50
0
  1
āvāīāXŗ@ü@ĢöĢiÉ}
  0
TEXT
  8
_0-0_99_É}śg
 62
    7
 10
615.13366468447055
 20
163.38770555595286
 40
2.5
 41
1
 50
0
  1
ŗ@ŖĒ
  0
LINE
  8
_0-0_99_É}śg
  6
CONTINUOUS
 62
   18
 10
652.21598628909874
 20
166.81061571491364
 11
652.21598628909874
 21
141.35347285787384
  0
TEXT
  8
_0-0_99_É}śg
 62
    7
 10
652.8955652587905
 20
163.38770555595286
 40
2.5
 41
1
 50
0
  1
ĢöĢi¢╝
  0
TEXT
  8
_0-2_0
 62
    7
 10
617.52157526623319
 20
157.3703556835255
 40
2.7999999999999998
 41
0.9
 50
0
  1
ŚLŗ@É½ēśōDöRŚ┐Ä{É▌
  0
TEXT
  8
_0-0_99_É}śg
 62
    7
 10
652.89556525878959
 20
149.11984841315234
 40
2.5
 41
1
 50
0
  1
É}¢╩öįŹå
  0
LINE
  8
_0-0_99_É}śg
  6
CONTINUOUS
 62
   18
 10
614.45408571478072
 20
154.08204428639468
 11
652.21598628909874
 21
154.08204428639468
  0
TEXT
  8
_0-0_99_É}śg
 62
    7
 10
615.13366468447055
 20
150.53413412743387
 40
2.5
 41
1
 50
0
  1
ī^Ä«
  0
TEXT
  8
_0-2_0
 62
    7
 10
632.32803696254143
 20
143.70942523880095
 40
3.9999999999999996
 41
0.8999999999999999
 50
0
  1
ü\
  0
LINE
  8
_0-3_02_ŹūÉ³
  6
CONTINUOUS
 62
    5
 10
580.14094478229379
 20
166.81061571491364
 11
580.14094478229379
 21
187.80847270038566
  0
LINE
  8
_0-3_02_ŹūÉ³
  6
CONTINUOUS
 62
    5
 10
590.63987215067607
 20
187.80847270038566
 11
590.63987215067607
 21
166.81061571491364
  0
LINE
  8
_0-3_02_ŹūÉ³
  6
CONTINUOUS
 62
    5
 10
580.14094478229379
 20
180.80918728924507
 11
731.34694285718103
 21
180.80918728924507
  0
LINE
  8
_0-3_02_ŹūÉ³
  6
CONTINUOUS
 62
    5
 10
580.14094478229379
 20
173.80990187810451
 11
731.34694285718103
 21
173.80990187810451
  0
LINE
  8
_0-3_02_ŹūÉ³
  6
CONTINUOUS
 62
    5
 10
658.93047696214524
 20
187.80847270038566
 11
658.93047696214524
 21
166.81061571491364
  0
LINE
  8
_0-3_02_ŹūÉ³
  6
CONTINUOUS
 62
    5
 10
679.37250478042142
 20
187.80847270038566
 11
679.37250478042142
 21
166.81061571491364
  0
LINE
  8
_0-3_02_ŹūÉ³
  6
CONTINUOUS
 62
    5
 10
686.37178969267677
 20
187.80847270038566
 11
686.37178969267677
 21
166.81061571491364
  0
LINE
  8
_0-3_02_ŹūÉ³
  6
CONTINUOUS
 62
    5
 10
696.87071706105996
 20
187.80847270038566
 11
696.87071706105996
 21
166.81061571491364
  0
TEXT
  8
_0-2_0
 62
    7
 10
582.1264084664848
 20
168.51025879651272
 40
3.5999999999999996
 41
0.85
 50
0
  1
ĢäŹå
  0
TEXT
  8
_0-2_0
 62
    7
 10
609.0899661016656
 20
168.51025879651272
 40
3.5999999999999996
 41
0.85
 50
0
  1
Ģöü@ü@Ģiü@ü@¢╝
  0
TEXT
  8
_0-2_0
 62
    7
 10
664.05149087127995
 20
168.51025879651272
 40
3.5999999999999996
 41
0.85
 50
0
  1
Ź▐ü@Ä┐
  0
TEXT
  8
_0-2_0
 62
    7
 10
681.44414723654904
 20
168.51025879651272
 40
3.5999999999999996
 41
0.85
 50
0
  1
Éö
  0
TEXT
  8
_0-2_0
 62
    7
 10
690.19325337686791
 20
168.75025879651272
 40
3.5999999999999996
 41
0.85
 50
0
  1
ćs
  0
TEXT
  8
_0-2_0
 62
    7
 10
703.81962150437266
 20
168.51025879651272
 40
3.5999999999999996
 41
0.85
 50
0
  1
ö§ü@ü@Źl
  0
TEXT
  8
_0-2_0
 62
    7
 10
582.76755132362791
 20
175.509544207646
 40
3.5999999999999996
 41
0.9000000000000001
 50
0
  1
37
  0
LINE
  8
_0-3_02_ŹūÉ³
  6
CONTINUOUS
 62
    5
 10
580.14094478229379
 20
187.80847270038566
 11
731.34694285718103
 21
187.80847270038566
  0
TEXT
  8
_0-2_0
 62
    7
 10
592.6096336896029
 20
175.509544207646
 40
3.5999999999999996
 41
0.85
 50
0
  1
āsāŹü[ātāēāōāW2(Ź¼Ś¹ŗ@ĢöĢi#8)
  0
TEXT
  8
_0-2_0
 62
    7
 10
660.73649087128013
 20
175.509544207646
 40
3.5999999999999996
 41
0.85
 50
0
  1
SUS304
  0
TEXT
  8
_0-2_0
 62
    7
 10
682.36214723654905
 20
175.509544207646
 40
3.5999999999999996
 41
0.85
 50
0
  1
1
  0
CIRCLE
  8
_0-4_04_ÆåÉSÉ³
  6
CENTER2
 62
    1
 10
466.56935390436735
 20
337.82455335671824
 40
94.999999999999986
  0
INSERT
  2
-000-_U1044
  8
_0-4_04_ÆåÉSÉ³
 10
466.56935390436735
 20
337.82455335671824
 41
1
 42
1
 50
0
  0
LINE
  8
_0-4_04_ÆåÉSÉ³
  6
CENTER2
 62
    1
 10
466.56935390436735
 20
337.82455335671824
 11
564.86323723390115
 21
281.07455335671824
  0
LINE
  8
_0-4_04_ÆåÉSÉ³
  6
CENTER2
 62
    1
 10
466.56935390436735
 20
337.82455335671824
 11
368.27547057483349
 21
281.07455335671824
  0
CIRCLE
  8
_0-2_0
  6
CONTINUOUS
 62
   18
 10
466.56935390436735
 20
432.82455335671824
 40
8.5
  0
CIRCLE
  8
_0-2_0
  6
CONTINUOUS
 62
   18
 10
548.84176726388932
 20
290.32455335671824
 40
8.5
  0
CIRCLE
  8
_0-2_0
  6
CONTINUOUS
 62
   18
 10
384.29694054484526
 20
290.32455335671824
 40
8.5
  0
LINE
  8
_0-2_0
  6
CONTINUOUS
 62
   18
 10
642.07240039832891
 20
447.82455335671824
 11
642.07240039832891
 21
257.82455335671824
  0
LINE
  8
_0-2_0
  6
CONTINUOUS
 62
   18
 10
642.07240039832891
 20
257.82455335671824
 11
651.07240039832902
 21
257.82455335671824
  0
LINE
  8
_0-2_0
  6
CONTINUOUS
 62
   18
 10
651.07240039832902
 20
257.82455335671824
 11
651.07240039832902
 21
447.82455335671824
  0
LINE
  8
_0-2_0
  6
CONTINUOUS
 62
   18
 10
651.07240039832902
 20
447.82455335671824
 11
642.07240039832891
 21
447.82455335671824
  0
LINE
  8
_0-4_04_ÆåÉSÉ³
  6
CENTER2
 62
    1
 10
660.07240039832902
 20
337.82455335671824
 11
633.07240039832902
 21
337.82455335671824
  0
CIRCLE
  8
_0-3_02_ŹūÉ³
  6
CONTINUOUS
 62
    5
 10
505.46022686962669
 20
376.7154263219777
 40
6
  0
CIRCLE
  8
_0-2_0
  6
CONTINUOUS
 62
   18
 10
505.46022686962669
 20
376.7154263219777
 40
5
  0
INSERT
  2
-001-_U1045
  8
_0-4_04_ÆåÉSÉ³
 10
505.46022686962669
 20
376.7154263219777
 41
1
 42
1
 50
45.000000000000007
  0
CIRCLE
  8
_0-3_02_ŹūÉ³
  6
CONTINUOUS
 62
    5
 10
505.46022686962669
 20
298.93368039145884
 40
6
  0
CIRCLE
  8
_0-2_0
  6
CONTINUOUS
 62
   18
 10
505.46022686962669
 20
298.93368039145884
 40
5
  0
INSERT
  2
-002-_U1046
  8
_0-4_04_ÆåÉSÉ³
 10
505.46022686962669
 20
298.93368039145884
 41
1
 42
1
 50
45.000000000000007
  0
CIRCLE
  8
_0-3_02_ŹūÉ³
  6
CONTINUOUS
 62
    5
 10
427.67848093910612
 20
298.93368039145884
 40
6
  0
CIRCLE
  8
_0-2_0
  6
CONTINUOUS
 62
   18
 10
427.67848093910612
 20
298.93368039145884
 40
5
  0
INSERT
  2
-003-_U1047
  8
_0-4_04_ÆåÉSÉ³
 10
427.67848093910612
 20
298.93368039145884
 41
1
 42
1
 50
45.000000000000007
  0
CIRCLE
  8
_0-3_02_ŹūÉ³
  6
CONTINUOUS
 62
    5
 10
427.67848093910612
 20
376.7154263219777
 40
6
  0
CIRCLE
  8
_0-2_0
  6
CONTINUOUS
 62
   18
 10
427.67848093910612
 20
376.7154263219777
 40
5
  0
INSERT
  2
-004-_U1048
  8
_0-4_04_ÆåÉSÉ³
 10
427.67848093910612
 20
376.7154263219777
 41
1
 42
1
 50
45.000000000000007
  0
CIRCLE
  8
_0-2_0
  6
CONTINUOUS
 62
   18
 10
466.56935390436735
 20
337.82455335671824
 40
45
  0
CIRCLE
  8
_0-4_04_ÆåÉSÉ³
  6
CENTER2
 62
    1
 10
466.56935390436638
 20
337.82455335671824
 40
54.999999999999957
  0
CIRCLE
  8
_0-2_0
  6
CONTINUOUS
 62
   18
 10
561.56935390436729
 20
337.82455335671824
 40
8.5
  0
TEXT
  8
_0-5_06_ĢČÄÜ
 62
    3
 10
250.51777283746463
 20
468.39469620984403
 40
5.2499999999999991
 41
0.9000000000000001
 50
0
  1
āīü[āUü[āJābāgē┬
  0
LINE
  8
_0-6_07_ÉĪ¢@É³
  6
CONTINUOUS
 62
    3
 10
248.09988694171616
 20
476.30190153089882
 11
296.74004624249068
 21
476.30190153089882
  0
INSERT
  2
-005-p1ba05
  8
_0-6_07_ÉĪ¢@É³
 10
274.62289203021726
 20
478.21641033828439
 41
2.099872727272726
 42
2.099872727272726
 50
0
  0
TEXT
  8
_0-5_06_ĢČÄÜ
 62
    3
 10
250.51777283746463
 20
457.83835764926573
 40
5.2499999999999991
 41
0.9000000000000001
 50
0
  1
Ź¼Ś¹ŗ@é╠ĢöĢiÉ}é╔é─3ī┬É╗ŹņéĘéķ
  0
TEXT
  8
_0-5_06_ĢČÄÜ
 62
    3
 10
250.51777283746463
 20
450.06419712661835
 40
5.2499999999999991
 41
0.9000000000000001
 50
0
  1
8öįĢöĢié╠éżé┐é╠1ī┬é­ÆŪē┴ŹH
  0
ARC
  8
_0-7_06_PHANTOM
  6
PHANTOM2
 62
    7
 10
466.56935390436593
 20
337.82455335714388
 40
110.00000000031051
 50
226.65824177293024
 51
313.34175822707181
  0
LINE
  8
_0-7_06_PHANTOM
  6
PHANTOM2
 62
    7
 10
391.07100955165834
 20
257.82455335671688
 11
542.06769825707624
 21
257.8245533567196
  0
LINE
  8
_0-8_01_ŖOī`É³
  6
CONTINUOUS
 62
   18
 10
542.06769825707477
 20
257.82455335671824
 11
391.07100955165987
 21
257.82455335671824
  0
ARC
  8
_0-8_01_ŖOī`É³
  6
CONTINUOUS
 62
   18
 10
466.56935390436735
 20
337.82455335671824
 40
109.99999999999996
 50
313.34175822722239
 51
226.65824177277764
  0
TEXT
  8
_0-5_06_ĢČÄÜ
 62
    3
 10
250.81122241234235
 20
441.26426879182929
 40
5.2499999999999991
 41
0.9000000000000001
 50
0
  1
(ē║Ģöé­30ā~āŖāJābāg)
  0
ARC
  8
_0-8_01_ŖOī`É³
  6
CONTINUOUS
 62
    1
 10
321.82503979956272
 20
236.12116313730402
 40
8.2592000051029402
 50
293.68579573237082
 51
43.685795632880833
  0
ARC
  8
_0-8_01_ŖOī`É³
  6
CONTINUOUS
 62
    1
 10
318.28561991525891
 20
223.47256508427029
 40
8.5370559087154181
 50
286.5592958520669
 51
36.559295752576645
  0
ARC
  8
_0-8_01_ŖOī`É³
  6
CONTINUOUS
 62
    1
 10
315.82261092322511
 20
215.20262149324216
 40
4.89690598252934
 50
251.01751588546645
 51
1.0175157859765442
  0
ARC
  8
_0-8_01_ŖOī`É³
  6
CONTINUOUS
 62
    1
 10
304.14223709956053
 20
221.59001165359302
 40
14.938342630614235
 50
202.47563099533392
 51
312.47563089584384
  0
ARC
  8
_0-8_01_ŖOī`É³
  6
CONTINUOUS
 62
    1
 10
294.60023156220024
 20
227.61539325495102
 40
12.4859647819606
 50
140.04295686039461
 51
250.0429567609045
  0
ARC
  8
_0-8_01_ŖOī`É³
  6
CONTINUOUS
 62
    1
 10
292.21109669377211
 20
246.20432578686598
 40
12.779180364294406
 50
125.80694515479718
 51
235.80694505530698
  0
ARC
  8
_0-8_01_ŖOī`É³
  6
CONTINUOUS
 62
    1
 10
291.4003261035844
 20
257.61308164670436
 40
6.7471704502397305
 50
78.909230562705474
 51
188.90923046321535
  0
ARC
  8
_0-8_01_ŖOī`É³
  6
CONTINUOUS
 62
    1
 10
301.91537528400602
 20
261.07583925084634
 40
9.7432599264066493
 50
51.085151162563854
 51
161.08515106307382
  0
ARC
  8
_0-8_01_ŖOī`É³
  6
CONTINUOUS
 62
    1
 10
313.25643536463758
 20
263.24367892236637
 40
7.5205261022427727
 50
23.962852519111241
 51
133.96285241962102
  0
ARC
  8
_0-8_01_ŖOī`É³
  6
CONTINUOUS
 62
    1
 10
320.40914129744971
 20
261.0486287735161
 40
5.2569511527126727
 50
343.05734538139984
 51
93.057345281909534
  0
ARC
  8
_0-8_01_ŖOī`É³
  6
CONTINUOUS
 62
    1
 10
322.98997958196958
 20
255.07902541548555
 40
5.0680557538013487
 50
311.11752428509431
 51
61.117524185604289
  0
ARC
  8
_0-8_01_ŖOī`É³
  6
CONTINUOUS
 62
    1
 10
323.75690050029806
 20
246.02704003529198
 40
5.8290126305887293
 50
313.88412312529317
 51
63.884123025802936
  0
TEXT
  8
_0-2_0
 62
    7
 10
597.78466689067398
 20
181.97255140101717
 40
3.5999999999999996
 41
0.85
 50
0
  1
Ź¼Ś¹ŗ@üAĢöĢiöįŹå8öįĢöĢié╠ÆŪē┴ŹH
  0
LINE
  8
_0-6_07_ÉĪ¢@É³
  6
CONTINUOUS
 62
    3
 10
386.07100955165708
 20
257.8245533567183
 11
309.98157314090588
 21
257.8245533567183
  0
LINE
  8
_0-6_07_ÉĪ¢@É³
  6
CONTINUOUS
 62
    3
 10
461.56935390436598
 20
227.82455335683338
 11
309.98157314090588
 21
227.82455335683338
  0
LINE
  8
_0-6_07_ÉĪ¢@É³
  6
CONTINUOUS
 62
    3
 10
311.98157314090594
 20
252.82455335671827
 11
311.98157314090594
 21
232.82455335683335
  0
INSERT
  2
-006-_Open30
  8
_0-6_07_ÉĪ¢@É³
 10
311.98157314090594
 20
257.8245533567183
 41
5
 42
5
 50
90
  0
INSERT
  2
-006-_Open30
  8
_0-6_07_ÉĪ¢@É³
 10
311.98157314090594
 20
227.82455335683338
 41
5
 42
5
 50
270
  0
LINE
  8
_0-6_07_ÉĪ¢@É³
  6
CONTINUOUS
 62
    3
 10
596.83465451387156
 20
464.12333394147873
 11
487.95465451387173
 21
464.12333394147873
  0
LINE
  8
_0-6_07_ÉĪ¢@É³
  6
CONTINUOUS
 62
    3
 10
487.95465451387173
 20
464.12333394147873
 11
474.18539174514603
 21
443.97112088254215
  0
INSERT
  2
-006-_Open30
  8
_0-6_07_ÉĪ¢@É³
 10
471.36463698930004
 20
439.84276253964458
 41
5
 42
5
 50
235.65664740300051
  0
LINE
  8
_0-6_07_ÉĪ¢@É³
  6
CONTINUOUS
 62
    3
 10
615.3227412348798
 20
417.99880930263868
 11
551.1627412348796
 21
417.99880930263873
  0
LINE
  8
_0-6_07_ÉĪ¢@É³
  6
CONTINUOUS
 62
    3
 10
551.1627412348796
 20
417.99880930263873
 11
513.62302787122428
 21
384.08893836227134
  0
INSERT
  2
-006-_Open30
  8
_0-6_07_ÉĪ¢@É³
 10
509.91266377958948
 20
380.73734198032025
 41
5
 42
5
 50
222.09171148992633
  0
LINE
  8
_0-6_07_ÉĪ¢@É³
  6
CONTINUOUS
 62
    3
 10
477.47980544741489
 20
376.30782306092993
 11
455.65890236131617
 21
299.34128365251081
  0
INSERT
  2
-006-_Open30
  8
_0-6_07_ÉĪ¢@É³
 10
478.84361189029596
 20
381.11823177395593
 41
5
 42
5
 50
74.171354099705695
  0
INSERT
  2
-006-_Open30
  8
_0-6_07_ÉĪ¢@É³
 10
454.29509591843504
 20
294.53087493948487
 41
5
 42
5
 50
254.1713540997057
  0
INSERT
  2
-007-AM_BALLOON1
  8
_0-6_07_ÉĪ¢@É³
 10
239.34014788160169
 20
476.30889221433125
 41
1.7498939393939386
 42
1.7498939393939386
 50
0
  0
TEXT
  8
_0-2_0
 62
    7
 10
235.2663947906926
 20
473.6840513052403
 40
5.2496818181818155
 41
1
 50
0
  1
37
  0
LINE
  8
_0-6_07_ÉĪ¢@É³
  6
CONTINUOUS
 62
    3
 10
263.61301739221108
 20
418.88873560661114
 11
194.42448405887771
 21
418.88873560661114
  0
INSERT
  2
-006-_Open30
  8
_0-6_07_ÉĪ¢@É³
 10
364.35897035192772
 20
378.48211715563747
 41
5
 42
5
 50
314.20891424306552
  0
LINE
  8
_0-6_07_ÉĪ¢@É³
  6
CONTINUOUS
 62
    3
 10
360.87258718471861
 20
382.0661278156943
 11
325.05301739221102
 21
418.88873560661114
  0
LINE
  8
_0-6_07_ÉĪ¢@É³
  6
CONTINUOUS
 62
    3
 10
366.36399441176337
 20
306.45759735270042
 11
566.77471339697138
 21
369.19150936073646
  0
INSERT
  2
-006-_Open30
  8
_0-6_07_ÉĪ¢@É³
 10
361.59231062640129
 20
304.96393278108053
 41
5
 42
5
 50
197.38151491381188
  0
INSERT
  2
-006-_Open30
  8
_0-6_07_ÉĪ¢@É³
 10
571.54639718233364
 20
370.68517393235618
 41
5
 42
5
 50
17.381514913811902
  0
LINE
  8
_0-6_07_ÉĪ¢@É³
  6
CONTINUOUS
 62
    3
 10
651.07240039832902
 20
449.82455335671824
 11
651.07240039832902
 21
467.61208399730776
  0
LINE
  8
_0-6_07_ÉĪ¢@É³
  6
CONTINUOUS
 62
    3
 10
642.07240039832891
 20
449.82455335671824
 11
642.07240039832891
 21
467.61208399730776
  0
LINE
  8
_0-6_07_ÉĪ¢@É³
  6
CONTINUOUS
 62
    3
 10
656.07240039832902
 20
465.61208399730776
 11
661.07240039832902
 21
465.61208399730776
  0
LINE
  8
_0-6_07_ÉĪ¢@É³
  6
CONTINUOUS
 62
    3
 10
637.07240039832902
 20
465.61208399730776
 11
632.07240039832891
 21
465.61208399730776
  0
LINE
  8
_0-6_07_ÉĪ¢@É³
  6
CONTINUOUS
 62
    3
 10
651.07240039832902
 20
465.61208399730776
 11
642.07240039832891
 21
465.61208399730776
  0
INSERT
  2
-006-_Open30
  8
_0-6_07_ÉĪ¢@É³
 10
651.07240039832902
 20
465.61208399730776
 41
5
 42
5
 50
180
  0
INSERT
  2
-006-_Open30
  8
_0-6_07_ÉĪ¢@É³
 10
642.07240039832891
 20
465.61208399730776
 41
5
 42
5
 50
0
  0
LINE
  8
_0-6_07_ÉĪ¢@É³
  6
CONTINUOUS
 62
    3
 10
651.36584997320676
 20
441.02462502192924
 11
651.36584997320676
 21
458.81215566251876
  0
LINE
  8
_0-6_07_ÉĪ¢@É³
  6
CONTINUOUS
 62
    3
 10
642.36584997320665
 20
441.02462502192924
 11
642.36584997320665
 21
458.81215566251876
  0
LINE
  8
_0-6_07_ÉĪ¢@É³
  6
CONTINUOUS
 62
    3
 10
656.36584997320665
 20
456.81215566251876
 11
661.36584997320676
 21
456.81215566251876
  0
LINE
  8
_0-6_07_ÉĪ¢@É³
  6
CONTINUOUS
 62
    3
 10
637.36584997320676
 20
456.81215566251876
 11
632.36584997320676
 21
456.81215566251876
  0
LINE
  8
_0-6_07_ÉĪ¢@É³
  6
CONTINUOUS
 62
    3
 10
651.36584997320676
 20
456.81215566251876
 11
642.36584997320665
 21
456.81215566251876
  0
INSERT
  2
-006-_Open30
  8
_0-6_07_ÉĪ¢@É³
 10
651.36584997320676
 20
456.81215566251876
 41
5
 42
5
 50
180
  0
INSERT
  2
-006-_Open30
  8
_0-6_07_ÉĪ¢@É³
 10
642.36584997320665
 20
456.81215566251876
 41
5
 42
5
 50
0
  0
TEXT
  8
_0-6_07_ÉĪ¢@É³
 62
    7
 10
309.98157314090588
 20
237.49122002344242
 40
7
 41
0.8
 50
90
  1
30
  0
TEXT
  8
_0-6_07_ÉĪ¢@É³
 62
    7
 10
520.78078784720492
 20
477.15650060814545
 40
7
 41
0.8
 50
0
  1
3
  0
TEXT
  8
_0-6_07_ÉĪ¢@É³
 62
    7
 10
526.11412118053818
 20
477.15650060814545
 40
7
 41
0.8
 50
0
  1
ōÖözü{ĢsōÖöz
  0
TEXT
  8
_0-6_07_ÉĪ¢@É³
 62
    7
 10
574.96852118053823
 20
477.15650060814545
 40
7
 41
0.8
 50
0
  1
1-?17
  0
TEXT
  8
_0-6_07_ÉĪ¢@É³
 62
    7
 10
541.34132118053822
 20
465.48983394147876
 40
7
 41
0.8
 50
0
  1
P.C.D.190
  0
TEXT
  8
_0-6_07_ÉĪ¢@É³
 62
    7
 10
572.46034123487982
 20
431.03197596930539
 40
7
 41
0.8
 50
0
  1
4
  0
TEXT
  8
_0-6_07_ÉĪ¢@É³
 62
    7
 10
577.79367456821308
 20
431.03197596930539
 40
7
 41
0.8
 50
0
  1
ōÖöz
  0
TEXT
  8
_0-6_07_ÉĪ¢@É³
 62
    7
 10
594.07847456821321
 20
431.03197596930539
 40
7
 41
0.8
 50
0
  1
-M12
  0
TEXT
  8
_0-6_07_ÉĪ¢@É³
 62
    7
 10
574.73607456821321
 20
419.36530930263871
 40
7
 41
0.8
 50
0
  1
P.C.D.110
  0
TEXT
  8
_0-6_07_ÉĪ¢@É³
 62
    7
 10
453.85544042077936
 20
351.15957098139864
 40
7
 41
0.8
 50
0
  1
?90
  0
TEXT
  8
_0-6_07_ÉĪ¢@É³
 62
    7
 10
260.58848405887773
 20
419.88873560661114
 40
7
 41
0.8
 50
0
  1
Ź¼Ś¹ŗ@ü@ĢöĢi
  0
TEXT
  8
_0-6_07_ÉĪ¢@É³
 62
    7
 10
312.11968405887774
 20
419.88873560661114
 40
7
 41
0.8
 50
0
  1
#8
  0
TEXT
  8
_0-6_07_ÉĪ¢@É³
 62
    7
 10
574.53943286361914
 20
370.18687708863536
 40
7
 41
0.8
 50
0
  1
?220
  0
TEXT
  8
_0-6_07_ÉĪ¢@É³
 62
    7
 10
644.03906706499561
 20
467.61208399730776
 40
7
 41
0.8
 50
0
  1
9
  0
TEXT
  8
_0-6_07_ÉĪ¢@É³
 62
    7
 10
644.33251663987335
 20
458.81215566251876
 40
7
 41
0.8
 50
0
  1
9
  0
TEXT
  8
_0-9_
 62
    7
 10
420.58217142857194
 20
25.162594285714395
 40
6.5102400000000085
 41
1
 50
0
  1
A3ü@150%
  0
ENDSEC
  0
EOF
